<svg xmlns="http://www.w3.org/2000/svg" viewBox="0 0 131 47" width="131" height="47">
	<defs>
		<clipPath clipPathUnits="userSpaceOnUse" id="cp1">
			<path d="M-653 -76L787 -76L787 1423L-653 1423Z" />
		</clipPath>
	</defs>
	<style>
		tspan { white-space:pre }
		.shp0 { fill: #ffffff } 
		.shp1 { fill: #ffffff } 
	</style>
	<g id="Pasino-Landing" clip-path="url(#cp1)">
		<g id="logo">
			<g id="pasino-logo">
				<g id="Combined Shape">
					<path id="Fill 1" class="shp0" d="M16.91 6.36C21.32 5.27 24.9 5.44 27.64 6.85C30.34 8.24 32.06 10.33 32.8 13.12C33.59 16.98 32.86 20.74 30.6 24.41C28.33 28.05 25.57 30.39 22.32 31.44C21.13 31.73 20.09 31.76 19.19 31.53C18.29 31.26 17.51 30.85 16.86 30.29C16.13 33.55 15.17 36.46 13.99 39.03C12.77 41.61 11.13 43.23 9.08 43.89C7.43 44.23 6.05 43.97 4.92 43.09C3.78 42.22 3.08 41.27 2.81 40.23C2.7 39.82 2.69 39.47 2.78 39.18C2.87 38.89 3.07 38.7 3.38 38.61C3.7 38.56 3.96 38.63 4.18 38.8C4.42 38.97 4.81 39 5.35 38.89C8.2 37.21 10.58 32.94 12.49 26.07C14.44 19.22 16.73 14.99 19.37 13.37C20.13 13.2 20.8 13.3 21.4 13.68C21.99 14.02 22.36 14.39 22.5 14.79C22.54 14.95 22.54 15.07 22.49 15.15C22.42 15.27 22.29 15.34 22.1 15.36C21 15.75 20.12 17.08 19.46 19.35C18.77 21.65 18.12 24.33 17.5 27.39C17.89 27.49 18.41 27.45 19.06 27.27C21.94 26.33 24.29 24.32 26.11 21.24C27.92 18.16 28.56 15.29 28.03 12.65C27.64 11.17 26.74 10.17 25.33 9.64C23.92 9.11 21.99 9.16 19.52 9.79C15.15 11.14 11.79 13.29 9.44 16.25C7.09 19.2 6.15 21.82 6.63 24.12C6.76 24.35 6.75 24.57 6.6 24.78C6.45 24.96 6.2 25.09 5.86 25.18C5.08 25.39 4.17 25.3 3.14 24.91C2.12 24.48 1.41 23.59 0.98 22.26C0.42 19.25 1.77 16.19 5.05 13.09C8.32 9.96 12.27 7.71 16.91 6.36" />
					<path id="Fill 4" fill-rule="evenodd" class="shp0" d="M39.35 30.97C38.94 31.03 38.69 30.78 38.61 30.24C38.54 28.35 39.4 25.56 41.19 21.89C42.95 18.23 44.78 16.06 46.71 15.39C47.03 15.35 47.35 15.46 47.68 15.74C47.98 16.03 48.19 16.43 48.29 16.94C48.3 17 48.31 17.08 48.33 17.18C48.34 17.27 48.33 17.36 48.31 17.42L47.56 19.01C45.63 22.6 43.97 25.45 42.58 27.55C41.19 29.69 40.11 30.83 39.35 30.97ZM58.33 20.27C58.17 20.29 58.05 20.36 57.96 20.47C56.45 22.85 55.05 24.79 53.76 26.29C52.45 27.82 51.5 28.65 50.9 28.77C50.73 28.79 50.61 28.74 50.53 28.62C50.42 28.54 50.35 28.39 50.32 28.16C50.22 26.96 50.66 25.01 51.64 22.31C52.63 19.64 53.79 17.15 55.11 14.82C55.23 14.71 55.27 14.55 55.24 14.36C55.15 13.95 54.73 13.48 53.97 12.97C53.22 12.45 52.48 12.22 51.77 12.25C51.52 12.29 51.2 12.56 50.82 13.08C50.44 13.59 50 14.28 49.5 15.14C49.36 14.37 49.01 13.73 48.45 13.22C47.89 12.71 47.03 12.52 45.88 12.65C41.95 13.58 38.75 16.26 36.28 20.68C33.82 25.1 32.76 29.06 33.09 32.56C33.25 33.71 33.67 34.61 34.35 35.23C34.98 35.83 35.93 36.05 37.17 35.91C38.76 35.62 40.24 34.58 41.61 32.81C43.02 31.06 44.27 29.1 45.36 26.91C45.22 27.75 45.12 28.55 45.07 29.31C45.01 30.07 45.03 30.78 45.12 31.42C45.27 32.45 45.61 33.22 46.13 33.74C46.66 34.25 47.32 34.45 48.12 34.34C50.02 33.93 52 32.47 54.08 29.94C56.17 27.41 58.04 24.69 59.71 21.79C59.75 21.36 59.61 20.99 59.31 20.67C59.01 20.39 58.68 20.25 58.33 20.27Z" />
					<path id="Fill 6" class="shp0" d="M75.35 19.35C75.68 19.36 75.98 19.52 76.26 19.82C76.55 20.16 76.66 20.54 76.59 20.97C74.38 24.24 72.07 26.97 69.66 29.17C67.24 31.38 64.98 32.6 62.86 32.82L62.72 32.83C60.17 32.83 58.2 31.81 56.82 29.77C55.41 27.73 54.62 25.73 54.48 23.79C54.47 23.24 54.65 22.7 55.03 22.18C55.38 21.7 55.72 21.43 56.04 21.37C56.23 21.33 56.33 21.45 56.36 21.74C56.82 23.59 57.43 25.24 58.18 26.68C58.97 28.12 59.91 28.85 61.01 28.86C62.38 28.59 63.2 27.21 63.46 24.71C63.69 22.19 63.8 19.49 63.81 16.62C63.2 17.42 62.49 18.31 61.69 19.28C60.93 20.28 60.18 21.28 59.45 22.28C59.07 22.35 58.67 22.21 58.26 21.89C57.84 21.56 57.69 21.22 57.79 20.85C58.61 19.74 59.75 18.14 61.2 16.04C62.63 13.98 63.75 12.21 64.58 10.75C64.72 10.45 64.84 10.21 64.96 10.03C65.07 9.86 65.21 9.74 65.37 9.66C65.55 9.58 65.74 9.53 65.94 9.52C66.81 9.52 67.7 9.82 68.62 10.44C69.54 11.05 70.06 11.66 70.17 12.27C70.18 12.5 70.1 12.7 69.92 12.88C68.94 15.2 68.51 17.65 68.64 20.21C68.74 22.78 68.67 24.87 68.44 26.48C69.47 25.69 70.56 24.69 71.7 23.5C72.8 22.27 73.88 20.95 74.93 19.53C75.08 19.42 75.23 19.36 75.35 19.35" />
					<path id="Fill 8" fill-rule="evenodd" class="shp0" d="M84.63 7.35C86.11 7.24 87.27 6.71 88.1 5.77C88.91 4.84 89.31 3.87 89.31 2.86C89.3 2.37 89.09 1.91 88.69 1.46C88.29 1.06 87.75 0.85 87.07 0.84C85.66 0.98 84.58 1.57 83.84 2.6C83.11 3.67 82.75 4.68 82.78 5.66C82.8 6.11 82.96 6.51 83.26 6.86C83.56 7.18 84.02 7.34 84.63 7.35ZM87.83 20.9C87.88 20.47 87.77 20.09 87.5 19.74C87.23 19.42 86.94 19.25 86.62 19.23C86.45 19.24 86.33 19.29 86.23 19.39C84.47 21.59 82.87 23.37 81.43 24.72C80 26.1 78.97 26.81 78.36 26.87C78.04 26.88 77.87 26.66 77.86 26.2C77.88 25 78.53 23.11 79.8 20.53C81.03 17.99 82.44 15.63 84.01 13.47C84.13 13.37 84.19 13.22 84.19 13.02C84.14 12.6 83.77 12.09 83.07 11.5C82.41 10.9 81.72 10.59 81.01 10.54C79.93 10.94 78.19 13.22 75.78 17.4C73.37 21.54 72.08 25.3 71.9 28.69C71.93 29.76 72.2 30.6 72.71 31.2C73.21 31.83 73.91 32.13 74.82 32.1C76.84 31.91 79 30.67 81.31 28.38C83.65 26.09 85.83 23.6 87.83 20.9Z" />
					<path id="Fill 10" class="shp0" d="M109.34 19.97C109.67 19.75 110.02 19.82 110.4 20.19C110.78 20.55 110.93 21.01 110.86 21.56C108.7 24.14 106.46 26.51 104.13 28.67C101.79 30.82 99.68 31.95 97.77 32.03C96.9 32.01 96.22 31.67 95.72 31.01C95.22 30.38 94.98 29.53 95 28.46C95.18 26.32 96.02 23.85 97.53 21.06C99.04 18.27 100.51 15.99 101.93 14.24C99.34 16.29 96.38 19.13 93.05 22.76C89.72 26.35 87.55 29.02 86.55 30.75C86.41 31.07 86.23 31.33 86 31.52C85.74 31.67 85.44 31.75 85.12 31.74C84.48 31.72 83.91 31.39 83.41 30.73C82.87 30.06 82.61 29.07 82.6 27.73C82.95 25.08 84.4 21.65 86.94 17.45C89.47 13.29 91.33 10.99 92.5 10.56C93.2 10.64 93.86 10.97 94.46 11.53C95.02 12.13 95.32 12.69 95.34 13.21C95.33 13.4 95.27 13.55 95.14 13.64C94.11 14.86 93.01 16.41 91.84 18.3C90.68 20.15 89.62 22.1 88.67 24.12C91.09 21.19 93.78 18.28 96.74 15.39C99.67 12.53 101.8 11 103.12 10.81C104.41 10.9 105.41 11.35 106.14 12.14C106.86 12.91 107.21 13.65 107.2 14.36C107.19 14.52 107.16 14.67 107.09 14.8C107.06 14.93 106.97 15.02 106.84 15.08C105.22 17.13 103.89 19.22 102.84 21.38C101.76 23.53 101.19 25.17 101.14 26.31C101.13 26.76 101.28 26.99 101.61 27C102.06 26.98 102.99 26.32 104.4 25.02C105.81 23.75 107.46 22.07 109.34 19.97" />
					<path id="Fill 12" fill-rule="evenodd" class="shp0" d="M120.4 23.69C119.54 22.92 118.91 21.95 118.51 20.8C118.08 19.67 117.92 18.6 118.02 17.56C118.05 17.3 118.09 17.06 118.15 16.84C118.2 16.62 118.27 16.41 118.36 16.23C118.74 15.91 119.13 15.64 119.51 15.42C119.89 15.2 120.26 15.02 120.63 14.9C121.59 15.03 122.26 15.37 122.66 15.9C123.02 16.46 123.17 17.14 123.08 17.95C122.99 18.79 122.71 19.71 122.21 20.7C121.75 21.7 121.15 22.69 120.4 23.69ZM112.89 28.73C112.31 28.67 111.91 28.44 111.69 28.06C111.44 27.71 111.35 27.18 111.42 26.46C111.58 25.24 112.05 23.94 112.84 22.55C113.67 21.13 114.65 19.8 115.78 18.55L115.76 18.74C115.62 20.1 115.76 21.45 116.17 22.8C116.58 24.12 117.24 25.25 118.15 26.2C117.29 27.02 116.39 27.66 115.47 28.12C114.55 28.61 113.69 28.81 112.89 28.73ZM128.89 22.39C127.86 23.26 126.89 23.89 125.97 24.28C125.06 24.68 124.23 24.87 123.48 24.85C124.32 23.7 124.99 22.53 125.5 21.34C126.01 20.19 126.32 19.08 126.43 18.01C126.56 16.69 126.34 15.44 125.75 14.26C125.12 13.09 124.05 12.39 122.52 12.16C121.87 12.09 121.27 12.11 120.71 12.21C120.15 12.32 119.65 12.49 119.2 12.74L119.15 12.73C116.73 12.67 114.01 14.08 110.99 16.96C108.01 19.82 106.22 23.04 105.62 26.63C105.47 28.45 105.8 29.89 106.63 30.96C107.46 32.02 108.69 32.64 110.33 32.82C112.19 32.98 114.06 32.59 115.93 31.65C117.78 30.67 119.49 29.38 121.04 27.78C121.27 27.84 121.47 27.87 121.66 27.89C122.78 28.01 124.05 27.79 125.47 27.22C126.93 26.62 128.52 25.58 130.26 24.1C130.38 23.59 130.28 23.14 129.97 22.75C129.65 22.35 129.29 22.23 128.89 22.39Z" />
				</g>
				<path id="Path 2" class="shp1" d="M28.82 46.3C28.82 46.3 28.23 45.69 28.79 45.54C39.21 42.9 53.27 40.89 69.17 40.33C94.3 39.44 110.52 41.53 110.52 41.53L106.06 42.82L108.75 44.62C108.75 44.62 84.28 42.83 69.28 43.36C54.27 43.89 28.82 46.3 28.82 46.3Z" />
			</g>
		</g>
	</g>
</svg>