<svg xmlns="http://www.w3.org/2000/svg" viewBox="0 0 112 96" width="112" height="96">
	<defs>
		<clipPath clipPathUnits="userSpaceOnUse" id="cp1">
			<path d="M-357 -680L1083 -680L1083 819L-357 819Z" />
		</clipPath>
	</defs>
	<style>
		tspan { white-space:pre }
		.shp0 { fill: #ff438c } 
	</style>
	<g id="Pasino-Landing" clip-path="url(#cp1)">
		<g id="CTA">
			<g id="arrow">
				<path id="Path" class="shp0" d="M93.55 56.85C93.47 56.66 93.35 56.48 93.2 56.33L74.29 37.42C73.66 36.81 72.66 36.83 72.06 37.46C71.47 38.07 71.47 39.04 72.06 39.65L88.28 55.87L57.41 55.87C37.39 55.85 21.18 39.63 21.15 19.62C21.15 18.75 20.45 18.04 19.58 18.04C18.71 18.04 18 18.75 18 19.62C18.02 41.37 35.65 59 57.41 59.03L88.28 59.03L72.06 75.25C71.43 75.86 71.42 76.85 72.02 77.48C72.63 78.11 73.62 78.12 74.25 77.52C74.26 77.51 74.28 77.49 74.29 77.48L93.2 58.56C93.66 58.11 93.79 57.43 93.55 56.85L93.55 56.85Z" />
			</g>
		</g>
	</g>
</svg>