<svg xmlns="http://www.w3.org/2000/svg" viewBox="0 0 33 45" width="33" height="45">
	<defs>
		<clipPath clipPathUnits="userSpaceOnUse" id="cp1">
			<path d="M-842 -632L598 -632L598 867L-842 867Z" />
		</clipPath>
	</defs>
	<style>
		tspan { white-space:pre }
		.shp0 { fill: #ffffff } 
	</style>
	<g id="Pasino-Landing" clip-path="url(#cp1)">
		<g id="CTA">
			<g id="Group 2">
				<g id="Group 6">
					<path id="Shape" fill-rule="evenodd" class="shp0" d="M29.76 27.24C29.65 28.29 29.41 29.22 29.03 30.03C28.65 30.83 28.18 31.49 27.6 32.01C27.02 32.53 26.29 32.97 25.43 33.31C24.57 33.66 23.67 33.92 22.72 34.08C21.78 34.25 20.7 34.36 19.48 34.42L19.48 40.1L16.05 40.1L16.05 34.51C14.86 34.51 13.95 34.5 13.33 34.49L13.33 40.1L9.89 40.1L9.89 34.42C9.62 34.42 9.22 34.41 8.69 34.41C8.15 34.4 7.74 34.4 7.46 34.4L3 34.4L3.69 30.32L6.17 30.32C6.91 30.32 7.34 29.94 7.46 29.18L7.46 20.22L7.82 20.22C7.73 20.2 7.61 20.19 7.46 20.19L7.46 13.79C7.27 12.78 6.6 12.28 5.47 12.28L3 12.28L3 8.62L7.73 8.64C8.68 8.64 9.4 8.63 9.89 8.62L9.89 3L13.32 3L13.32 8.51C14.54 8.48 15.45 8.46 16.04 8.46L16.04 3L19.48 3L19.48 8.62C20.65 8.72 21.69 8.89 22.6 9.12C23.51 9.35 24.35 9.69 25.12 10.12C25.89 10.56 26.51 11.14 26.96 11.86C27.41 12.58 27.68 13.43 27.77 14.42C28.04 17.12 27.07 19.04 24.85 20.17C26.59 20.59 27.89 21.35 28.76 22.47C29.62 23.58 29.95 25.17 29.76 27.24ZM13.39 12.52C13.39 12.52 13.39 12.52 13.39 12.52L13.39 12.52L13.39 12.52L13.39 12.52ZM13.39 12.52L13.39 19.37C13.47 19.37 13.72 19.37 14.16 19.38C14.6 19.39 14.95 19.39 15.2 19.38C15.45 19.37 15.82 19.36 16.31 19.33C16.8 19.31 17.21 19.27 17.54 19.21C17.87 19.15 18.25 19.07 18.69 18.97C19.13 18.86 19.49 18.72 19.77 18.55C20.05 18.38 20.33 18.18 20.59 17.95C20.86 17.72 21.06 17.43 21.2 17.09C21.33 16.75 21.4 16.37 21.4 15.95C21.4 15.46 21.3 15.03 21.12 14.65C20.93 14.27 20.71 13.96 20.44 13.71C20.17 13.47 19.81 13.26 19.37 13.09C18.92 12.92 18.51 12.8 18.14 12.72C17.77 12.65 17.31 12.59 16.77 12.54C16.23 12.5 15.8 12.48 15.48 12.49C15.16 12.49 14.76 12.5 14.27 12.51C13.79 12.52 13.5 12.52 13.39 12.52ZM22.98 26.57C22.98 26.03 22.87 25.56 22.65 25.14C22.42 24.73 22.15 24.38 21.82 24.12C21.49 23.85 21.07 23.62 20.54 23.44C20.01 23.25 19.52 23.11 19.08 23.02C18.63 22.93 18.08 22.87 17.43 22.82C16.77 22.78 16.26 22.76 15.89 22.76C15.52 22.76 15.04 22.76 14.45 22.78C13.86 22.79 13.51 22.8 13.39 22.8L13.39 30.34C13.51 30.34 13.78 30.34 14.22 30.35C14.65 30.36 15 30.36 15.29 30.36C15.57 30.36 15.96 30.35 16.47 30.33C16.97 30.3 17.41 30.27 17.77 30.24C18.14 30.2 18.56 30.14 19.04 30.05C19.53 29.96 19.94 29.85 20.28 29.74C20.62 29.62 20.98 29.46 21.34 29.27C21.7 29.07 22 28.85 22.22 28.6C22.44 28.35 22.63 28.05 22.77 27.71C22.91 27.36 22.98 26.99 22.98 26.57Z" />
				</g>
			</g>
		</g>
	</g>
</svg>