<?xml version="1.0" standalone="no"?>
<!DOCTYPE svg PUBLIC "-//W3C//DTD SVG 20010904//EN"
 "http://www.w3.org/TR/2001/REC-SVG-20010904/DTD/svg10.dtd">
<svg version="1.0" xmlns="http://www.w3.org/2000/svg"
 width="431.000000pt" height="431.000000pt" viewBox="0 0 431.000000 431.000000"
 preserveAspectRatio="xMidYMid meet">
<metadata>
Created by potrace 1.11, written by Peter Selinger 2001-2013
</metadata>
<g transform="translate(0.000000,431.000000) scale(0.100000,-0.100000)"
fill="#000000" stroke="none">
<path d="M0 2155 l0 -2155 2155 0 2155 0 0 2155 0 2155 -2155 0 -2155 0 0
-2155z m2975 1770 c410 -92 711 -371 791 -734 22 -97 29 -311 14 -426 -71
-569 -530 -1160 -1032 -1331 -202 -68 -390 -46 -553 66 -26 18 -48 30 -50 28
-1 -1 -13 -39 -25 -83 -84 -309 -211 -640 -316 -827 -106 -189 -256 -326 -423
-389 -76 -28 -221 -29 -308 -1 -170 54 -336 244 -350 400 -5 58 -4 62 25 91
36 37 54 38 117 10 66 -29 110 -22 187 34 187 133 370 405 518 772 29 72 97
263 150 425 113 342 176 502 271 690 120 238 248 407 383 507 54 40 63 43 121
43 102 0 223 -73 241 -146 9 -36 0 -49 -46 -63 -81 -24 -164 -131 -229 -292
-54 -136 -241 -806 -241 -865 0 -22 110 -18 182 7 157 53 303 141 432 260 210
194 404 534 457 804 20 105 18 307 -5 375 -53 157 -171 261 -335 296 -297 63
-795 -78 -1161 -327 -289 -198 -538 -507 -623 -774 -26 -82 -37 -202 -26 -284
12 -84 8 -92 -57 -117 -34 -13 -63 -16 -127 -11 -179 11 -295 96 -356 260 -43
117 -23 314 48 472 161 354 646 756 1171 969 233 94 404 140 650 176 97 13
421 4 505 -15z"/>
</g>
</svg>
