<svg xmlns="http://www.w3.org/2000/svg" viewBox="0 0 267 182" width="267" height="182">
	<defs>
		<clipPath clipPathUnits="userSpaceOnUse" id="cp1">
			<path d="M-74 -202L340 -202L340 1363L-74 1363Z" />
		</clipPath>
	</defs>
	<style>
		tspan { white-space:pre }
		.shp0 { fill: #00ffc6 } 
	</style>
	<g id="pasino-landing-mobile" clip-path="url(#cp1)">
		<g id="game">
			<path id="10x" fill-rule="evenodd" class="shp0" d="M68.87 128.6L68.87 76.07L55.92 79.17L51 61.31L72.08 53.71L90.26 53.71L90.26 128.6L68.87 128.6ZM94.01 91.16C94.01 67.83 105.14 52 125.57 52C146.01 52 157.13 67.83 157.13 91.16C157.13 114.48 146.01 130.31 125.57 130.31C105.14 130.31 94.01 114.48 94.01 91.16ZM135.73 91.16C135.73 78.64 132.42 72.76 125.57 72.76C118.72 72.76 115.41 78.64 115.41 91.16C115.41 103.67 118.72 109.56 125.57 109.56C132.42 109.56 135.73 103.67 135.73 91.16ZM154.46 128.6L174.04 101.21L155.31 75.11L177.25 75.11L184.95 85.92L192.65 75.11L214.58 75.11L195.97 101.21L215.44 128.6L193.51 128.6L184.95 116.62L176.39 128.6L154.46 128.6Z" />
		</g>
	</g>
</svg>