<?xml version="1.0" encoding="UTF-8"?>
<svg width="31px" height="36px" viewBox="0 0 31 36" version="1.1" xmlns="http://www.w3.org/2000/svg" xmlns:xlink="http://www.w3.org/1999/xlink">
    <!-- Generator: Sketch 56.3 (81716) - https://sketch.com -->
    <title>android-logo</title>
    <desc>Created with Sketch.</desc>
    <g id="UI" stroke="none" stroke-width="1" fill="none" fill-rule="evenodd" opacity="0.75">
        <g id="01-home" transform="translate(-173.000000, -1838.000000)" fill="#B78FFF" fill-rule="nonzero">
            <g id="footer" transform="translate(0.000000, 1624.000000)">
                <g id="Group-29">
                    <g transform="translate(45.000000, 214.000000)">
                        <g id="android-logo" transform="translate(128.000000, 0.000000)">
                            <path d="M6.04011765,26.9625294 C6.04011765,27.8625294 6.64011765,28.4625294 7.54011765,28.4625294 L9.04011765,28.4625294 L9.04011765,33.7125294 C9.04011765,34.9125294 10.0901176,35.9625294 11.2901176,35.9625294 C12.4901176,35.9625294 13.5401176,34.9125294 13.5401176,33.7125294 L13.5401176,28.4625294 L16.5401176,28.4625294 L16.5401176,33.7125294 C16.5401176,34.9125294 17.5901176,35.9625294 18.7901176,35.9625294 C19.9901176,35.9625294 21.0401176,34.9125294 21.0401176,33.7125294 L21.0401176,28.4625294 L22.5401176,28.4625294 C23.4401176,28.4625294 24.0401176,27.8625294 24.0401176,26.9625294 L24.0401176,11.9625294 L6.04011765,11.9625294 L6.04011765,26.9625294 Z M2.29011765,11.9625294 C1.09011765,11.9625294 0.0401176471,13.0125882 0.0401176471,14.2125294 L0.0401176471,24.7125294 C0.0401176471,25.9125294 1.09011765,26.9625294 2.29011765,26.9625294 C3.49011765,26.9625294 4.54011765,25.9125294 4.54011765,24.7125294 L4.54011765,14.2125294 C4.54011765,13.0125294 3.49011765,11.9625294 2.29011765,11.9625294 Z M27.7901176,11.9625294 C26.5901176,11.9625294 25.5401176,13.0125882 25.5401176,14.2125294 L25.5401176,24.7125294 C25.5401176,25.9125294 26.5901176,26.9625294 27.7901176,26.9625294 C28.9901176,26.9625294 30.0401176,25.9125294 30.0401176,24.7125294 L30.0401176,14.2125294 C30.0401176,13.0125294 28.9901176,11.9625294 27.7901176,11.9625294 Z M20.2901176,3.26252941 L22.2401176,1.31252941 C22.5401176,1.01252941 22.5401176,0.562529412 22.2401176,0.262529412 C21.9400588,-0.0375294118 21.4901176,-0.0375294118 21.1900588,0.262529412 L18.9400588,2.51252941 C17.8900588,1.76252941 16.5400588,1.46247059 15.0400588,1.46247059 C13.5400588,1.46247059 12.1900588,1.76252941 10.9900588,2.36247059 L8.89005882,0.112470588 C8.59005882,-0.0375294118 7.99005882,-0.0375294118 7.69005882,0.112470588 C7.54005882,0.412529412 7.54005882,1.01252941 7.69005882,1.31247059 L9.64005882,3.26247059 C7.54005882,4.91247059 6.04005882,7.46241176 6.04005882,10.4624118 L24.0400588,10.4624118 C24.0400588,7.46252941 22.5401176,4.76252941 20.2901176,3.26252941 Z M12.0401176,7.46252941 L10.5401176,7.46252941 L10.5401176,5.96252941 L12.0401176,5.96252941 L12.0401176,7.46252941 Z M19.5401176,7.46252941 L18.0401176,7.46252941 L18.0401176,5.96252941 L19.5401176,5.96252941 L19.5401176,7.46252941 Z" id="Shape"></path>
                        </g>
                    </g>
                </g>
            </g>
        </g>
    </g>
</svg>