<svg width="23" height="22" viewBox="0 0 23 22" fill="none" xmlns="http://www.w3.org/2000/svg">
<g opacity="0.2">
<path fill-rule="evenodd" clip-rule="evenodd" d="M19.7639 8H10.7639C9.65889 8 8.76389 8.895 8.76389 10V19C8.76389 20.105 9.65889 21 10.7639 21H19.7639C20.8689 21 21.7639 20.105 21.7639 19V10C21.7639 8.895 20.8689 8 19.7639 8Z" stroke="white" stroke-width="2" stroke-linecap="round" stroke-linejoin="round"/>
<path d="M4.76389 14H3.76389C3.23389 14 2.72489 13.789 2.34989 13.414C1.97489 13.039 1.76389 12.53 1.76389 12V3C1.76389 2.47 1.97489 1.961 2.34989 1.586C2.72489 1.211 3.23389 1 3.76389 1H12.7639C13.2939 1 13.8029 1.211 14.1779 1.586C14.5529 1.961 14.7639 2.47 14.7639 3V4" stroke="white" stroke-width="2" stroke-linecap="round" stroke-linejoin="round"/>
</g>
</svg>
