<?xml version="1.0" encoding="UTF-8"?>
<svg width="24px" height="24px" viewBox="0 0 24 24" version="1.1" xmlns="http://www.w3.org/2000/svg" xmlns:xlink="http://www.w3.org/1999/xlink">
    <!-- Generator: Sketch 56.3 (81716) - https://sketch.com -->
    <title>icon-bitcoin</title>
    <desc>Created with Sketch.</desc>
    <g id="UI" stroke="none" stroke-width="1" fill="none" fill-rule="evenodd">
        <g id="modal-exchange-step01" transform="translate(-195.000000, -268.000000)" fill="#F68419" fill-rule="nonzero">
            <g id="Group-2" transform="translate(175.000000, 225.000000)">
                <g id="toggler" transform="translate(2.000000, 26.000000)">
                    <g id="icon-bitcoin" transform="translate(18.000000, 17.000000)">
                        <path d="M12,0.683035714 C5.75979911,0.683035714 0.683035714,5.75979911 0.683035714,12 C0.683035714,18.2402009 5.75979911,23.3169643 12,23.3169643 C18.2402009,23.3169643 23.3169643,18.2402009 23.3169643,12 C23.3169643,5.75979911 18.2402009,0.683035714 12,0.683035714 Z M13.9866295,18.198817 L13.0044643,18.198817 L13.0044643,20.3900893 L10.9955357,20.3900893 L10.9955357,18.198817 L6.86651786,18.198817 L6.86651786,16.1898884 L8.58100446,16.1898884 L8.58100446,7.81011161 L6.86651786,7.81011161 L6.86651786,5.80118304 L10.9955357,5.80118304 L10.9955357,3.60991071 L13.0044643,3.60991071 L13.0044643,5.80118304 L13.353683,5.80118304 C15.3396429,5.80118304 16.9553571,7.41683036 16.9553571,9.40279018 C16.9553571,10.2756696 16.6430357,11.0768304 16.1245982,11.7008705 C17.011808,12.3575223 17.5883036,13.4111384 17.5883036,14.5971429 C17.5883036,16.5831027 15.9725223,18.198817 13.9866295,18.198817 L13.9866295,18.198817 Z" id="Shape"></path>
                        <path d="M13.353683,10.9955357 C14.2319196,10.9955357 14.9464286,10.2810268 14.9464286,9.40279018 C14.9464286,8.52455357 14.2319196,7.81011161 13.353683,7.81011161 L10.5898661,7.81011161 L10.5898661,10.9955357 L13.353683,10.9955357 Z" id="Path"></path>
                        <path d="M13.9866295,13.0044643 L10.589933,13.0044643 L10.589933,16.1898884 L13.9866295,16.1898884 C14.8648661,16.1898884 15.579375,15.4754464 15.579375,14.5972098 C15.579375,13.7189732 14.8647991,13.0044643 13.9866295,13.0044643 Z" id="Path"></path>
                    </g>
                </g>
            </g>
        </g>
    </g>
</svg>