<svg width="22" height="22" viewBox="0 0 22 22" fill="none" xmlns="http://www.w3.org/2000/svg">
<path d="M11.1719 9.71094H6.875V5.41406H8.59375V6.77681L11.5094 3.86115L12.7248 5.07635L9.80913 7.99219H11.1719V9.71094ZM3.43582 14.5634L3.40678 14.549C2.37637 14.0316 1.9445 13.7037 1.93729 13.011C1.93393 12.6914 2.12292 12.464 2.23589 12.3569C2.44049 12.163 2.71425 12.0504 2.98717 12.0475C3.27737 12.0448 3.56087 12.1563 3.76077 12.354C3.87625 12.4683 4.01389 12.6617 4.01389 12.9336H5.73264C5.73264 12.259 5.46173 11.6194 4.96994 11.1326C4.6611 10.8268 4.28059 10.6002 3.86719 10.4668V8.98047H2.14844V10.4641C1.74326 10.5941 1.3651 10.8142 1.05357 11.1094C0.507568 11.6269 0.210983 12.3087 0.218536 13.0289C0.237839 14.8813 1.73889 15.6348 2.63586 16.0849L2.66473 16.0995C3.82825 16.6835 4.37694 17.0202 4.38264 17.5838C4.38634 17.9249 4.24837 18.2552 3.99442 18.5137C3.73878 18.7737 3.40662 18.9188 3.05901 18.9224C2.67984 18.9264 2.31796 18.7849 2.06519 18.5346C1.90707 18.3782 1.71875 18.107 1.71875 17.7031H0C0 18.4808 0.30397 19.2099 0.856018 19.7562C1.21387 20.1104 1.66118 20.3687 2.14844 20.512V22H3.86719V20.5263C4.37224 20.3828 4.83701 20.1082 5.2202 19.7183C5.79675 19.1317 6.10979 18.3673 6.10139 17.5658C6.08411 15.8926 4.61562 15.1555 3.43582 14.5634ZM22 7.8418C22 9.37004 20.7568 10.6133 19.2285 10.6133H18.6055V11.9023H16.8867V10.6133H14.3086V8.89453H15.5977V3.00781H14.3086V1.28906H16.8867V0H18.6055V1.29947C20.014 1.4173 21.1245 2.60062 21.1245 4.03906C21.1245 4.57466 20.9701 5.07451 20.7042 5.49765C21.482 5.98894 22 6.85587 22 7.8418ZM17.3164 3.00781V5.07031H18.3745C18.9432 5.07031 19.4058 4.60773 19.4058 4.03906C19.4058 3.4704 18.9432 3.00781 18.3745 3.00781H17.3164ZM20.2812 7.8418C20.2812 7.26138 19.8091 6.78906 19.2285 6.78906H17.3164V8.89453H19.2285C19.8091 8.89453 20.2812 8.42221 20.2812 7.8418ZM9.49609 14.3516H10.8588L7.94301 17.2674L9.15839 18.4826L12.0742 15.5669V16.9297H13.793V12.6328H9.49609V14.3516Z" fill="black"/>
</svg>
