<?xml version="1.0" encoding="UTF-8"?>
<svg width="27px" height="20px" viewBox="0 0 27 20" version="1.1" xmlns="http://www.w3.org/2000/svg" xmlns:xlink="http://www.w3.org/1999/xlink">
    <!-- Generator: Sketch 56.3 (81716) - https://sketch.com -->
    <title>eye-with-a-diagonal-line-interface-symbol-for-invisibility</title>
    <desc>Created with Sketch.</desc>
    <g id="UI" stroke="none" stroke-width="1" fill="none" fill-rule="evenodd" opacity="0.336797805">
        <g id="modal-login" transform="translate(-367.000000, -439.000000)" fill="#180733" fill-rule="nonzero">
            <g id="pop">
                <g id="Group-4" transform="translate(87.000000, 160.000000)">
                    <g id="form" transform="translate(0.000000, 149.000000)">
                        <g id="input" transform="translate(0.000000, 90.000000)">
                            <g id="eye-with-a-diagonal-line-interface-symbol-for-invisibility" transform="translate(280.000000, 40.000000)">
                                <path d="M18.7616104,11.878026 C19.5427532,10.7457662 19.9335584,9.49246753 19.9335584,8.11828571 C19.9335584,7.73272727 19.8940779,7.3174026 19.8148052,6.87236364 L15.6621818,14.3176104 C16.9472727,13.8234286 17.9805195,13.0097662 18.7616104,11.878026 Z" id="Path"></path>
                                <path d="M19.369974,1.62187013 C19.3798961,1.60223377 19.3845195,1.55771429 19.3845195,1.48846753 C19.3845195,1.32031169 19.3054545,1.18706494 19.1470649,1.08768831 C19.1175584,1.06794805 19.0211948,1.01106494 18.8578182,0.916935065 C18.6948052,0.823168831 18.5388571,0.731636364 18.3908571,0.642545455 C18.2425974,0.553558442 18.0797403,0.462181818 17.9014026,0.36825974 C17.7234286,0.274285714 17.5702338,0.197662338 17.4418701,0.138285714 C17.3130909,0.079012987 17.2242597,0.0492987013 17.1748052,0.0492987013 C16.9968312,0.0492987013 16.8583377,0.128519481 16.7595325,0.286649351 L15.9588571,1.7254026 C15.0593247,1.5574026 14.1691948,1.47324675 13.2891948,1.47324675 C10.6294026,1.47324675 8.1772987,2.14576623 5.93267532,3.49044156 C3.68820779,4.83532468 1.80966234,6.66935065 0.296675325,8.99293506 C0.0988571429,9.29968831 0,9.64083117 0,10.0165714 C0,10.3922078 0.0988571429,10.7335065 0.296675325,11.0398442 C1.1667013,12.3942857 2.19755844,13.6058701 3.38903896,14.6735584 C4.58051948,15.7416623 5.88311688,16.5965714 7.29703896,17.2395844 C6.86197403,17.981039 6.64446753,18.4113247 6.64446753,18.5300779 C6.64446753,18.708 6.72363636,18.8463377 6.88187013,18.9451429 C8.08805195,19.6375584 8.75044156,19.9833247 8.86919481,19.9833247 C9.04696104,19.9833247 9.18550649,19.9038961 9.28436364,19.7456623 L10.0111169,18.4258701 C11.0592727,16.5574545 12.6214026,13.7541299 14.697974,10.0166234 C16.7744416,6.27901299 18.3317403,3.48077922 19.369974,1.62187013 Z M8.23148052,15.5784416 C5.66077922,14.4216104 3.54961039,12.5677922 1.89854545,10.0167273 C3.40145455,7.68316883 5.28503896,5.93787013 7.5492987,4.78124675 C6.94618182,5.8094026 6.64451948,6.92181818 6.64451948,8.11823377 C6.64451948,9.17615584 6.88664935,10.1795325 7.37127273,11.1288831 C7.85579221,12.0781818 8.52815584,12.8639481 9.38841558,13.4869091 L8.23148052,15.5784416 Z M13.7935065,4.8252987 C13.6552208,4.96384416 13.4867013,5.03303896 13.288987,5.03303896 C12.4387013,5.03303896 11.7117922,5.33475325 11.1086753,5.93776623 C10.5054026,6.54114286 10.2039481,7.26779221 10.2039481,8.11807792 C10.2039481,8.31605195 10.1345455,8.484 9.99620779,8.62249351 C9.85761039,8.76103896 9.68961039,8.83023377 9.49194805,8.83023377 C9.29407792,8.83023377 9.12597403,8.76093506 8.98753247,8.62249351 C8.84898701,8.484 8.77979221,8.31584416 8.77979221,8.11807792 C8.77979221,6.88223377 9.22238961,5.82166234 10.1072208,4.93667532 C10.9921039,4.05179221 12.0525195,3.60924675 13.2885714,3.60924675 C13.4862857,3.60924675 13.6544416,3.67864935 13.7931429,3.81698701 C13.9314286,3.95537662 14.0007273,4.12353247 14.0007273,4.32124675 C14.0007273,4.51906494 13.9314805,4.68716883 13.7935065,4.8252987 Z" id="Shape"></path>
                                <path d="M26.2813506,8.99293506 C25.7175584,8.05371429 25.0032727,7.1438961 24.1382338,6.2638961 C23.2735065,5.38394805 22.3708571,4.62774026 21.4314805,3.99480519 L20.4970909,5.65594805 C22.1482597,6.79298701 23.5425455,8.2465974 24.6794286,10.0164156 C23.4833766,11.8752208 21.9925195,13.393039 20.2082597,14.5695584 C18.4234286,15.7467532 16.482961,16.4237403 14.3867013,16.6015065 L13.2890909,18.5593247 C15.4842597,18.5593247 17.5581818,18.0898182 19.5108571,17.1504416 C21.4635844,16.2114286 23.1819221,14.8913247 24.6649351,13.1907013 C25.356987,12.3896104 25.8958442,11.6728312 26.2816104,11.04 C26.4793247,10.7035844 26.5781299,10.3622857 26.5781299,10.0165195 C26.577974,9.67049351 26.4791688,9.32935065 26.2813506,8.99293506 Z" id="Path"></path>
                            </g>
                        </g>
                    </g>
                </g>
            </g>
        </g>
    </g>
</svg>