<?xml version="1.0" encoding="UTF-8"?>
<svg width="28px" height="28px" viewBox="0 0 28 28" version="1.1" xmlns="http://www.w3.org/2000/svg" xmlns:xlink="http://www.w3.org/1999/xlink">
    <!-- Generator: Sketch 56.3 (81716) - https://sketch.com -->
    <title>discord</title>
    <desc>Created with Sketch.</desc>
    <g id="UI" stroke="none" stroke-width="1" fill="none" fill-rule="evenodd" opacity="0.5">
        <g id="01-home" transform="translate(-516.000000, -1842.000000)">
            <g id="footer" transform="translate(0.000000, 1624.000000)">
                <g id="social">
                    <g transform="translate(420.000000, 218.000000)">
                        <g id="discord" transform="translate(96.000000, 0.000000)">
                            <circle id="Oval" fill="#B78FFF" cx="14" cy="14" r="14"></circle>
                            <g transform="translate(4.000000, 7.000000)" fill="#301B52" fill-rule="nonzero" id="Combined-Shape">
                                <path d="M2.49329101,1.73392593 C4.97608466,-0.072973545 7.27737566,0.0137142857 7.27737566,0.0137142857 L7.4629418,0.196571429 C4.42480423,0.921227513 3.04728042,2.27843386 3.04728042,2.27843386 C3.04728042,2.27843386 3.4157037,2.09828571 4.05908995,1.82332275 C8.15102646,0.214179894 12.6195132,0.330666667 16.7561481,2.36783069 C16.7561481,2.36783069 15.3759153,1.09866667 12.5246984,0.285968254 L12.7766349,0.0380952381 C13.1707937,0.0394497354 15.2567196,0.112592593 17.4889312,1.7447619 C17.4889312,1.7447619 19.9866243,6.01142857 19.9866243,11.2533333 C19.904,11.1531005 18.4370794,13.5099259 14.6620952,13.5911958 C14.6620952,13.5911958 14.0227725,12.8678942 13.5676614,12.2366984 C15.7754921,11.6027937 16.6017354,10.3349841 16.6017354,10.3349841 C15.8770794,10.7914497 15.2160847,11.0623492 14.6797037,11.3332487 C13.8548148,11.696254 13.0285714,11.8750476 12.2036825,12.0579048 C8.29731217,12.6918095 6.10438095,11.6312381 4.032,10.7900952 L3.32359788,10.4297989 C3.32359788,10.4297989 4.14848677,11.6976085 6.26827513,12.3315132 C5.71157672,12.9667725 5.1602963,13.6887196 5.1602963,13.6887196 C1.38666667,13.5993228 0.0104973545,11.2424974 0.0104973545,11.2424974 C0.0104973545,5.99246561 2.49329101,1.73392593 2.49329101,1.73392593 Z M13.0732698,9.61574603 C14.0363175,9.61574603 14.8205714,8.80304762 14.8205714,7.80071958 C14.8205714,6.80516402 14.040381,5.99246561 13.0732698,5.99246561 L13.0732698,5.9965291 C12.1142857,5.9965291 11.3286772,6.80651852 11.3259683,7.80884656 C11.3259683,8.80304762 12.1102222,9.61574603 13.0732698,9.61574603 Z M6.81820106,9.61574603 C7.78124868,9.61574603 8.56550265,8.80304762 8.56550265,7.80071958 C8.56550265,6.80516402 7.78666667,5.99246561 6.82361905,5.99246561 L6.81820106,5.9965291 C5.85515344,5.9965291 5.07089947,6.80651852 5.07089947,7.80884656 C5.07089947,8.80304762 5.85515344,9.61574603 6.81820106,9.61574603 Z"></path>
                            </g>
                        </g>
                    </g>
                </g>
            </g>
        </g>
    </g>
</svg>