<?xml version="1.0" encoding="UTF-8"?>
<svg width="28px" height="28px" viewBox="0 0 28 28" version="1.1" xmlns="http://www.w3.org/2000/svg" xmlns:xlink="http://www.w3.org/1999/xlink">
    <!-- Generator: Sketch 56.3 (81716) - https://sketch.com -->
    <title>twitter</title>
    <desc>Created with Sketch.</desc>
    <g id="UI" stroke="none" stroke-width="1" fill="none" fill-rule="evenodd" opacity="0.5">
        <g id="01-home" transform="translate(-420.000000, -1842.000000)">
            <g id="footer" transform="translate(0.000000, 1624.000000)">
                <g id="social">
                    <g transform="translate(420.000000, 218.000000)">
                        <g id="twitter">
                            <circle id="Oval" fill="#B78FFF" cx="14" cy="14" r="14"></circle>
                            <g transform="translate(6.416667, 7.583333)" fill="#301B52" fill-rule="nonzero" id="Path">
                                <path d="M14.9254658,1.99702774 C14.5884862,2.14458961 14.2386753,2.26100317 13.8797308,2.34528251 C14.2752464,1.9741321 14.5726227,1.50990195 14.7403914,0.991737411 L14.7403914,0.991737411 C14.7882778,0.843810382 14.6255751,0.715894217 14.4903099,0.795097803 L14.4903099,0.795097803 C13.9909603,1.08759237 13.4530798,1.30701807 12.8915704,1.44734974 C12.8589928,1.45549285 12.8253799,1.45961917 12.7916561,1.45961917 C12.6893752,1.45961917 12.5899416,1.42211706 12.5117334,1.35405091 C11.9143184,0.834097079 11.1459546,0.547737226 10.3482304,0.547737226 C10.0030417,0.547737226 9.65452498,0.600868262 9.31233149,0.705669688 C8.25210113,1.03040804 7.43403904,1.89405212 7.17737543,2.95959414 C7.08108498,3.35926369 7.05501556,3.75929839 7.09983278,4.14856083 C7.10497271,4.19329315 7.0835625,4.22451448 7.07036139,4.23915746 C7.04717625,4.26482834 7.01430289,4.27954435 6.98017229,4.27954435 C6.97636357,4.27954435 6.97244391,4.27936177 6.96856123,4.27899661 C4.64775425,4.06607079 2.55495301,2.96193117 1.0756521,1.17000938 L1.0756521,1.17000938 C1.00021719,1.07860939 0.85555964,1.08981986 0.795433574,1.19166347 L0.795433574,1.19166347 C0.505748703,1.68244088 0.352660196,2.24376754 0.352660196,2.81495357 C0.352660196,3.69031934 0.708794354,4.51525627 1.32739765,5.11664117 C1.06725812,5.05573219 0.815475596,4.9598042 0.581590377,4.83152287 L0.581590377,4.83152287 C0.468438002,4.76944537 0.329216207,4.84923322 0.327626158,4.97703983 L0.327626158,4.97703983 C0.311429837,6.27745389 1.08241906,7.43457848 2.2373868,7.9556278 C2.2141277,7.95617554 2.1908686,7.95643115 2.16757252,7.95643115 C1.98449494,7.95643115 1.79912472,7.93897642 1.61667576,7.90454167 L1.61667576,7.90454167 C1.48924992,7.88051402 1.3821989,7.9998854 1.42176525,8.12188595 L1.42176525,8.12188595 C1.7966472,9.27765944 2.80436894,10.1295818 4.01029223,10.323008 C3.00944838,10.9864704 1.84394194,11.3364414 0.630881918,11.3364414 L0.252708931,11.3362223 C0.136191568,11.3362223 0.0376454632,11.4112266 0.00795220927,11.5226739 C-0.0212973099,11.6324416 0.0325794909,11.7482344 0.131939109,11.8053091 C1.49886417,12.5908816 3.05803734,13.0060706 4.64157894,13.0060706 C6.02769554,13.0060706 7.32428863,12.7344267 8.49537874,12.1987344 C9.56895812,11.7076284 10.5176631,11.0056049 11.3151285,10.1121636 C12.0580145,9.27988692 12.6389374,8.31910981 13.0417006,7.25656212 C13.4256422,6.24371295 13.6285769,5.1629802 13.6285769,4.13117913 L13.6285769,4.08202836 C13.6285399,3.91635447 13.7044186,3.76046691 13.8367995,3.6543509 C14.3391442,3.25157748 14.7765928,2.77745145 15.1369424,2.24515515 L15.1369424,2.24515515 C15.2320866,2.10460439 15.0820303,1.92845036 14.9254658,1.99702774 L14.9254658,1.99702774 Z"></path>
                            </g>
                        </g>
                    </g>
                </g>
            </g>
        </g>
    </g>
</svg>