<?xml version="1.0" encoding="UTF-8"?>
<svg width="32px" height="32px" viewBox="0 0 32 32" version="1.1" xmlns="http://www.w3.org/2000/svg" xmlns:xlink="http://www.w3.org/1999/xlink">
    <!-- Generator: Sketch 56.3 (81716) - https://sketch.com -->
    <title>help</title>
    <desc>Created with Sketch.</desc>
    <g id="UI" stroke="none" stroke-width="1" fill="none" fill-rule="evenodd">
        <g id="Header-States" transform="translate(-1332.000000, -30.000000)" fill="#B78FFF" fill-rule="nonzero">
            <g id="header" transform="translate(31.000000, 24.000000)">
                <g id="Group-9" transform="translate(1254.000000, 6.000000)">
                    <g id="help" transform="translate(47.000000, 0.000000)">
                        <circle id="Oval" cx="16" cy="23.65625" r="1.5625"></circle>
                        <path d="M16,0 C7.15725,0 0,7.1560625 0,16 C0,24.84275 7.1560625,32 16,32 C24.84275,32 32,24.8439375 32,16 C32,7.15725 24.8439375,0 16,0 Z M16,30 C8.26260185,30 2,23.7384352 2,16 C2,8.26260185 8.26156481,2 16,2 C23.7373981,2 30,8.26156481 30,16 C30,23.7373981 23.7384352,30 16,30 Z" id="Shape"></path>
                        <path d="M16,8.03125 C13.243,8.03125 11,10.27425 11,13.03125 C11,13.721625 11.559625,14.28125 12.25,14.28125 C12.940375,14.28125 13.5,13.721625 13.5,13.03125 C13.5,11.65275 14.6215,10.53125 16,10.53125 C17.3785,10.53125 18.5,11.65275 18.5,13.03125 C18.5,14.40975 17.3785,15.53125 16,15.53125 C15.309625,15.53125 14.75,16.090875 14.75,16.78125 L14.75,19.90625 C14.75,20.596625 15.309625,21.15625 16,21.15625 C16.690375,21.15625 17.25,20.596625 17.25,19.90625 L17.25,17.8730625 C19.404125,17.316625 21,15.3568125 21,13.03125 C21,10.27425 18.757,8.03125 16,8.03125 Z" id="Path"></path>
                    </g>
                </g>
            </g>
        </g>
    </g>
</svg>