<?xml version="1.0" encoding="UTF-8"?>
<svg width="24px" height="24px" viewBox="0 0 24 24" version="1.1" xmlns="http://www.w3.org/2000/svg" xmlns:xlink="http://www.w3.org/1999/xlink">
    <!-- Generator: Sketch 56.3 (81716) - https://sketch.com -->
    <title>Group</title>
    <desc>Created with Sketch.</desc>
    <g id="UI" stroke="none" stroke-width="1" fill="none" fill-rule="evenodd">
        <g id="01-home" transform="translate(-1246.000000, -58.000000)" fill-rule="nonzero">
            <g id="Group-17" transform="translate(917.000000, 50.000000)">
                <g id="login" transform="translate(317.000000, 0.000000)">
                    <g id="Group" transform="translate(12.000000, 8.000000)">
                        <path d="M12,1.38139535 C17.8534884,1.38139535 22.6186047,6.14651163 22.6186047,12 C22.6186047,14.6790698 21.6139535,17.1348837 19.9744186,19.0046512 C15.4674419,17.6930233 15.2930233,16.1023256 15.2930233,16.0813953 C15.2930233,16.1093023 15.2930233,16.1162791 15.2930233,16.1162791 L15.244186,16.1162791 C15.327907,16.0325581 15.4116279,15.9488372 15.4953488,15.8581395 C17.4139535,13.7023256 17.0930233,10.0116279 17.0581395,9.64883721 C16.8697674,5.79767442 14.2255814,4.43023256 12.0139535,4.43023256 C11.972093,4.43023256 11.9302326,4.43023256 11.9023256,4.43023256 C11.8744186,4.43023256 11.8395349,4.43023256 11.7906977,4.43023256 C9.57906977,4.43023256 6.92790698,5.79767442 6.74651163,9.64883721 C6.71162791,10.0046512 6.39767442,13.6953488 8.30930233,15.8581395 C8.42093023,15.9837209 8.53953488,16.1023256 8.65813953,16.2139535 C8.51162791,16.6186047 7.77209302,17.9023256 4.0255814,18.9976744 C2.37906977,17.127907 1.38139535,14.6790698 1.38139535,12 C1.38139535,6.14651163 6.14651163,1.38139535 12,1.38139535 Z" id="Shape" fill="#B78FFF"></path>
                        <path d="M3.37674419,20.3372093 C5.56046512,22.5906977 8.61627907,24 12,24 C18.6139535,24 24,18.6139535 24,12 C24,5.38604651 18.6139535,0 12,0 C5.38604651,0 0,5.38604651 0,12 C0,15.1534884 1.22790698,18.027907 3.22325581,20.1697674 C3.26511628,20.2395349 3.32093023,20.2883721 3.37674419,20.3372093 Z" id="Path" fill="#793FE2"></path>
                        <path d="M12,22.6186047 C9.39069767,22.6186047 6.99069767,21.6697674 5.14186047,20.1 C8.25348837,19.0674419 9.40465116,17.8116279 9.83023256,16.9744186 C10.4232558,17.2325581 11.0860465,17.372093 11.8186047,17.3790698 C11.8325581,17.3790698 11.8534884,17.3790698 11.8674419,17.3790698 C11.8744186,17.3790698 11.9162791,17.3790698 11.9302326,17.3790698 C11.944186,17.3790698 11.9651163,17.3790698 11.9790698,17.3790698 C12.7744186,17.3651163 13.4930233,17.2046512 14.1139535,16.9046512 C14.5116279,17.7418605 15.6418605,19.0395349 18.844186,20.1 C17.0023256,21.6697674 14.6093023,22.6186047 12,22.6186047 Z" id="Path" fill="#B78FFF"></path>
                        <path d="M8.12093023,9.78139535 C8.12093023,9.76744186 8.12093023,9.75348837 8.12093023,9.73953488 C8.28837209,6.10465116 10.9674419,5.81860465 11.7906977,5.81860465 C11.8255814,5.81860465 11.8534884,5.81860465 11.8744186,5.81860465 C11.8953488,5.81860465 11.9093023,5.81860465 11.9302326,5.81860465 C11.9511628,5.81860465 11.972093,5.81860465 12.0139535,5.81860465 C12.8302326,5.81860465 15.5162791,6.10465116 15.6837209,9.73953488 C15.6837209,9.75348837 15.6837209,9.76744186 15.6837209,9.78139535 C15.6906977,9.81627907 16.0325581,13.1790698 14.4627907,14.944186 C13.8418605,15.6418605 13.0116279,15.9906977 11.9302326,15.9976744 C11.9232558,15.9976744 11.9093023,15.9976744 11.9093023,15.9976744 L11.9093023,15.9976744 C11.9023256,15.9976744 11.8953488,15.9976744 11.8883721,15.9976744 C10.8,15.9837209 9.97674419,15.6418605 9.35581395,14.944186 C7.77906977,13.1930233 8.11395349,9.81627907 8.12093023,9.78139535 Z" id="Path" fill="#B78FFF"></path>
                        <path d="M3.37674419,20.3372093 C5.56046512,22.5906977 8.61627907,24 12,24 C18.6139535,24 24,18.6139535 24,12 C24,5.38604651 18.6139535,0 12,0 C5.38604651,0 0,5.38604651 0,12 C0,15.1534884 1.22790698,18.027907 3.22325581,20.1697674 C3.26511628,20.2395349 3.32093023,20.2883721 3.37674419,20.3372093 Z M12,22.6186047 C9.39069767,22.6186047 6.99069767,21.6697674 5.14186047,20.1 C8.25348837,19.0674419 9.40465116,17.8116279 9.83023256,16.9744186 C10.4232558,17.2325581 11.0860465,17.372093 11.8186047,17.3790698 C11.8325581,17.3790698 11.8534884,17.3790698 11.8674419,17.3790698 C11.8744186,17.3790698 11.9162791,17.3790698 11.9302326,17.3790698 C11.944186,17.3790698 11.9651163,17.3790698 11.9790698,17.3790698 C12.7744186,17.3651163 13.4930233,17.2046512 14.1139535,16.9046512 C14.5116279,17.7418605 15.6418605,19.0395349 18.844186,20.1 C17.0023256,21.6697674 14.6093023,22.6186047 12,22.6186047 Z M8.12093023,9.78139535 C8.12093023,9.76744186 8.12093023,9.75348837 8.12093023,9.73953488 C8.28837209,6.10465116 10.9674419,5.81860465 11.7906977,5.81860465 C11.8255814,5.81860465 11.8534884,5.81860465 11.8744186,5.81860465 C11.8953488,5.81860465 11.9093023,5.81860465 11.9302326,5.81860465 C11.9511628,5.81860465 11.972093,5.81860465 12.0139535,5.81860465 C12.8302326,5.81860465 15.5162791,6.10465116 15.6837209,9.73953488 C15.6837209,9.75348837 15.6837209,9.76744186 15.6837209,9.78139535 C15.6906977,9.81627907 16.0325581,13.1790698 14.4627907,14.944186 C13.8418605,15.6418605 13.0116279,15.9906977 11.9302326,15.9976744 C11.9232558,15.9976744 11.9093023,15.9976744 11.9093023,15.9976744 L11.9093023,15.9976744 C11.9023256,15.9976744 11.8953488,15.9976744 11.8883721,15.9976744 C10.8,15.9837209 9.97674419,15.6418605 9.35581395,14.944186 C7.77906977,13.1930233 8.11395349,9.81627907 8.12093023,9.78139535 Z M12,1.38139535 C17.8534884,1.38139535 22.6186047,6.14651163 22.6186047,12 C22.6186047,14.6790698 21.6139535,17.1348837 19.9744186,19.0046512 C15.4674419,17.6930233 15.2930233,16.1023256 15.2930233,16.0813953 C15.2930233,16.1093023 15.2930233,16.1162791 15.2930233,16.1162791 L15.244186,16.1162791 C15.327907,16.0325581 15.4116279,15.9488372 15.4953488,15.8581395 C17.4139535,13.7023256 17.0930233,10.0116279 17.0581395,9.64883721 C16.8697674,5.79767442 14.2255814,4.43023256 12.0139535,4.43023256 C11.972093,4.43023256 11.9302326,4.43023256 11.9023256,4.43023256 C11.8744186,4.43023256 11.8395349,4.43023256 11.7906977,4.43023256 C9.57906977,4.43023256 6.92790698,5.79767442 6.74651163,9.64883721 C6.71162791,10.0046512 6.39767442,13.6953488 8.30930233,15.8581395 C8.42093023,15.9837209 8.53953488,16.1023256 8.65813953,16.2139535 C8.51162791,16.6186047 7.77209302,17.9023256 4.0255814,18.9976744 C2.37906977,17.127907 1.38139535,14.6790698 1.38139535,12 C1.38139535,6.14651163 6.14651163,1.38139535 12,1.38139535 Z" id="Shape-Copy" fill="#000000"></path>
                    </g>
                </g>
            </g>
        </g>
    </g>
</svg>