<svg width="37" height="37" viewBox="0 0 37 37" fill="none" xmlns="http://www.w3.org/2000/svg">
<path fill-rule="evenodd" clip-rule="evenodd" d="M16.8805 1.02343C11.0765 1.61745 6.35958 5.90851 5.39695 11.4703C5.01012 13.7054 5.24678 15.9782 6.08416 18.0695L6.28849 18.5798L4.73855 21.1444C3.88605 22.5548 2.51064 24.8303 1.68201 26.2009C0.756813 27.7313 0.153621 28.7704 0.118888 28.8938C-0.0677105 29.5562 0.424484 30.3106 1.12616 30.4377C1.27147 30.464 2.13711 30.4252 4.21042 30.2993C5.79564 30.2031 7.19521 30.1156 7.32059 30.1049L7.54855 30.0854L8.58301 32.1826C10.1834 35.4272 10.2677 35.5896 10.4378 35.7549C10.6746 35.985 10.8992 36.0789 11.2634 36.1C11.6975 36.1252 11.9422 36.0425 12.2313 35.7729C12.4152 35.6016 12.7869 35.0239 14.3927 32.4144C15.4594 30.6811 16.3675 29.1618 16.4108 29.0382C16.5074 28.762 16.4883 28.4568 16.3554 28.1574C16.2387 27.8943 15.8945 27.5804 15.625 27.4913C15.3756 27.4089 14.9751 27.4087 14.7267 27.4908C14.3176 27.6259 14.2275 27.7458 12.8274 30.0179C12.1125 31.1781 11.5089 32.1271 11.4861 32.1268C11.4633 32.1266 10.997 31.2202 10.4499 30.1125C9.75433 28.7044 9.40795 28.0467 9.29823 27.9258C9.11164 27.7201 8.78241 27.554 8.49932 27.5228C8.32466 27.5035 4.82542 27.6988 4.05656 27.7707C3.88787 27.7865 3.79751 27.7802 3.79751 27.7528C3.79751 27.6826 7.7669 21.1365 7.80951 21.1365C7.83131 21.1365 8.05426 21.3626 8.30498 21.6389C8.85656 22.2469 9.7741 23.1242 10.2892 23.5361C12.3549 25.1881 14.7305 26.0332 17.5949 26.1351L18.3154 26.1607L21.1683 30.8834C24.2538 35.9915 24.1918 35.8989 24.6304 36.0438C25.1774 36.2246 25.8144 36.0417 26.1249 35.6147C26.2091 35.4989 28.5289 30.8702 28.8917 30.0942C28.8931 30.0912 30.294 30.1754 32.005 30.2814C34.2523 30.4206 35.1716 30.464 35.3172 30.4376C36.0183 30.3106 36.5103 29.5562 36.324 28.8938C36.2895 28.7712 35.7418 27.8236 34.9185 26.4621C30.8233 19.6898 30.1584 18.5827 30.1585 18.5355C30.1586 18.507 30.2141 18.3519 30.2818 18.1907C30.4751 17.7308 30.7622 16.8354 30.878 16.3313C31.1107 15.3187 31.168 14.7889 31.171 13.6203C31.1741 12.4401 31.1387 12.045 30.9457 11.1082C30.0233 6.62934 26.6861 2.99725 22.1797 1.56753C21.3895 1.31684 20.4152 1.11873 19.4855 1.01977C19.0471 0.973107 17.3489 0.975479 16.8805 1.02343ZM19.9 3.62616C21.721 3.93103 23.3169 4.62489 24.7273 5.72511C27.8741 8.17965 29.2583 12.2075 28.2694 16.0319C27.0602 20.7082 22.5798 23.8899 17.6054 23.6048C16.267 23.5282 15.1228 23.2573 13.9116 22.7306C12.7571 22.2285 11.6819 21.4913 10.7585 20.5687C9.19105 19.0028 8.2508 17.1296 7.91628 14.9065C7.8648 14.5645 7.8437 14.1728 7.8437 13.56C7.8437 12.6673 7.9004 12.1164 8.06727 11.3895C8.48453 9.57151 9.38237 7.94166 10.6985 6.61323C12.2095 5.08812 14.0445 4.1084 16.1697 3.69212C16.9501 3.53926 17.2583 3.51655 18.3665 3.53018C19.1811 3.54015 19.509 3.56069 19.9 3.62616ZM30.635 24.3765C31.7293 26.1905 32.6308 27.7014 32.6384 27.734C32.6499 27.783 32.6102 27.7893 32.4105 27.7703C31.6864 27.7013 28.1175 27.5036 27.9435 27.5228C27.6604 27.554 27.3312 27.72 27.1445 27.9257C27.0347 28.0467 26.689 28.7033 25.9929 30.1127C25.4458 31.2204 24.9847 32.1229 24.9682 32.118C24.9412 32.1102 21.2232 25.9847 21.1769 25.8717C21.1649 25.8426 21.2274 25.8064 21.3369 25.7792C22.8748 25.3957 24.2106 24.8133 25.4955 23.966C26.5616 23.263 27.6822 22.2455 28.4154 21.3149C28.5188 21.1836 28.6129 21.0767 28.6245 21.0772C28.6361 21.0778 29.5408 22.5625 30.635 24.3765Z" fill="#FED810"/>
<path d="M18.8305 8.08608H21.2105L19.1195 19.9861H16.3995L17.9635 11.0611L15.7705 11.6391L15.5155 9.20808L18.8305 8.08608Z" fill="#FED810"/>
</svg>
