<?xml version="1.0" encoding="UTF-8"?>
<svg width="10px" height="9px" viewBox="0 0 10 9" version="1.1" xmlns="http://www.w3.org/2000/svg" xmlns:xlink="http://www.w3.org/1999/xlink">
    <!-- Generator: Sketch 56.3 (81716) - https://sketch.com -->
    <title>Combined Shape</title>
    <desc>Created with Sketch.</desc>
    <g id="UI" stroke="none" stroke-width="1" fill="none" fill-rule="evenodd">
        <g id="02-game-01-crash" transform="translate(-1372.000000, -325.000000)" fill="#B78FFF" fill-rule="nonzero">
            <g id="Group-53" transform="translate(1144.000000, 152.000000)">
                <g id="chat-copy-6" transform="translate(2.000000, 168.000000)">
                    <g id="chat">
                        <g id="Group-41" transform="translate(214.000015, 5.017676)">
                            <path d="M19.394673,4.98220703 C19.9994386,5.71238281 20.3604542,6.63261719 20.3604542,7.44382813 C20.3604542,7.83230469 20.2392628,8.13005859 20.0002394,8.32878906 C19.4974464,8.74683594 18.6270558,8.58527344 17.8591457,8.44269531 C17.5305714,8.38169922 17.2201613,8.32408203 17.000005,8.32408203 C16.7449269,8.32408203 16.4139894,8.38478516 16.0636183,8.4490625 C15.6626613,8.52261719 15.2545753,8.59746094 14.8870558,8.59746094 C14.5416652,8.59746094 14.2320753,8.53138672 13.9975832,8.33599609 C13.760005,8.13804688 13.6395363,7.83789063 13.6395363,7.44382813 C13.6395363,6.63261719 14.0005714,5.71238281 14.6053175,4.98220703 C15.278091,4.16986328 16.1285402,3.72248047 16.9999855,3.72248047 C17.8714308,3.72248047 18.7218605,4.16986328 19.394673,4.98220703 Z M19.4634621,0.571113281 C19.6896144,0.904511719 19.8141457,1.34238281 19.8141457,1.80402344 C19.8141457,2.26566406 19.6895949,2.70351563 19.4634621,3.03693359 C19.2172902,3.39986328 18.8648097,3.60802734 18.4963332,3.60802734 C18.1278761,3.60802734 17.7753761,3.39986328 17.5292042,3.03693359 C17.3030519,2.70351563 17.1785207,2.26566406 17.1785207,1.80402344 C17.1785207,1.34238281 17.3030714,0.90453125 17.5292042,0.571113281 C17.7753761,0.208183594 18.1278566,1.953125e-05 18.4963332,1.953125e-05 C18.8647902,1.953125e-05 19.2172902,0.208164063 19.4634621,0.571113281 Z M16.4707863,0.57109375 C16.6969191,0.904492187 16.8214699,1.34236328 16.8214699,1.80400391 C16.8214699,2.26566406 16.6969191,2.70349609 16.4707863,3.03691406 C16.2246144,3.39986328 15.8721339,3.60802734 15.5036574,3.60802734 C15.1351808,3.60802734 14.7827003,3.39986328 14.5365285,3.03691406 C14.3103761,2.70349609 14.1858449,2.26564453 14.1858449,1.80400391 C14.1858449,1.34236328 14.3103957,0.904511719 14.5365285,0.57109375 C14.7826808,0.208164062 15.1351808,-2.66453526e-15 15.5036574,-2.66453526e-15 C15.8721339,-2.66453526e-15 16.2246144,0.208144531 16.4707863,0.57109375 Z M21.9417628,3.40289062 C22.0315675,3.70830078 22.0170949,4.05943359 21.9010792,4.39160156 L21.9010792,4.39162109 C21.7590871,4.79810547 21.4860207,5.12091797 21.1519386,5.27724609 C21.013755,5.34191406 20.8696144,5.37451172 20.7284621,5.37451172 C20.6219777,5.37451172 20.5171925,5.35597656 20.4178761,5.31867187 C20.1308839,5.21087891 19.9181691,4.96558594 19.8189308,4.62800781 C19.7291457,4.32259766 19.7436183,3.97148437 19.8596535,3.63929687 C20.0016457,3.23279297 20.2747121,2.90998047 20.6087941,2.75365234 C20.851216,2.64019531 21.1118996,2.62548828 21.3428371,2.71222656 C21.6298097,2.82001953 21.8425246,3.0653125 21.9417628,3.40289062 Z M14.1403566,3.63925781 C14.2563722,3.97146484 14.2708449,4.32259766 14.1810988,4.62798828 C14.0818605,4.96554687 13.8691652,5.21083984 13.5821339,5.31865234 C13.4828371,5.3559375 13.3780324,5.37449219 13.271548,5.37449219 C13.1303957,5.37449219 12.9862746,5.34189453 12.8480714,5.27722656 C12.5140089,5.12089844 12.2409621,4.79810547 12.0989308,4.39160156 L12.0989308,4.39158203 C11.9828957,4.05941406 11.968423,3.70828125 12.0582082,3.40287109 C12.1574464,3.0653125 12.3701613,2.82001953 12.6571535,2.71220703 C12.8880714,2.62548828 13.1487746,2.64017578 13.391216,2.75363281 C13.7252785,2.90996094 13.9983449,3.23275391 14.1403566,3.63925781 Z" id="Combined-Shape"></path>
                        </g>
                    </g>
                </g>
            </g>
        </g>
    </g>
</svg>