<svg width="44" height="33" viewBox="0 0 44 33" fill="none" xmlns="http://www.w3.org/2000/svg">
<path d="M43.938 11.071L42.618 14.2532C42.0209 15.6989 41.4159 17.1525 40.8187 18.6061L39.1923 22.5347C39.0851 22.8012 38.8411 22.988 38.5558 23.0218C37.0684 23.1483 35.5799 22.79 34.3129 22.0004C32.9302 21.0974 31.6544 20.0404 30.51 18.8497C29.3701 17.6573 28.0967 16.6 26.715 15.6989C25.8284 15.155 24.8334 14.8117 23.8 14.6932L22.9121 12.5482L23.8157 10.3796C24.4128 8.92599 25.0178 7.4724 25.615 6.02667C26.2121 4.58094 26.825 3.1195 27.4222 1.66592C29.0562 1.40794 30.7284 1.75132 32.1286 2.63235C33.5089 3.5355 34.782 4.59253 35.9237 5.7831C37.068 6.97384 38.3438 8.03085 39.7266 8.93384C40.7892 9.58845 42.0067 9.94907 43.2545 9.97886C43.5108 9.99176 43.7448 10.1291 43.881 10.3467C44.0172 10.5643 44.0385 10.8348 43.938 11.071Z" fill="white"/>
<path d="M30.3202 6.98533C29.7231 8.43892 29.1207 9.89251 28.5131 11.3461C27.1158 10.4651 25.446 10.1216 23.8145 10.3797C24.4116 8.92607 25.0166 7.47248 25.6138 6.02675C27.2469 5.76646 28.919 6.10702 30.3202 6.98533Z" fill="#2C2F38"/>
<path d="M35.9225 5.78307C35.3254 7.23666 34.7204 8.68238 34.1153 10.136C32.9754 8.94357 31.702 7.88636 30.3203 6.98522C30.9253 5.5395 31.5225 4.08591 32.1275 2.63232C33.5077 3.53548 34.7809 4.5925 35.9225 5.78307Z" fill="#2C2F38"/>
<path d="M32.317 14.489C31.712 15.9425 31.1149 17.3961 30.5099 18.8497C29.37 17.6573 28.0966 16.6001 26.7148 15.699C27.312 14.2454 27.917 12.7918 28.5141 11.3461C29.8986 12.2438 31.1746 13.2984 32.317 14.489Z" fill="#2C2F38"/>
<path d="M37.9186 13.2867C37.3136 14.7403 36.7164 16.186 36.1114 17.6396C34.7294 16.7389 33.456 15.6817 32.3164 14.4889C32.9136 13.0432 33.5186 11.5896 34.1157 10.136C35.2601 11.3267 36.5359 12.3837 37.9186 13.2867Z" fill="#2C2F38"/>
<path d="M43.9366 11.071L42.6166 14.2532C40.985 14.5104 39.3156 14.167 37.918 13.2867L39.7251 8.93384C40.7878 9.58844 42.0053 9.94907 43.253 9.97885C43.5094 9.99176 43.7433 10.1291 43.8795 10.3467C44.0157 10.5643 44.037 10.8347 43.9366 11.071Z" fill="#2C2F38"/>
<path d="M40.8183 18.6061L39.1918 22.5347C39.0847 22.8012 38.8406 22.988 38.5554 23.0218C37.0679 23.1483 35.5794 22.79 34.3125 22.0004L36.1118 17.6396C37.512 18.5207 39.1842 18.8641 40.8183 18.6061Z" fill="#2C2F38"/>
<path d="M28.1215 1.57165C28.1222 1.77988 28.0794 1.98596 27.9958 2.17666C27.4693 3.45738 26.935 4.74597 26.4008 6.02669C25.8036 7.47242 25.1986 8.92601 24.6015 10.3796L23.6979 12.5482L22.0007 16.6575L15.9742 31.2091C15.6423 32.0119 14.7224 32.3936 13.9196 32.0616C13.1168 31.7296 12.7351 30.8097 13.0671 30.0069L19.4157 14.6932V14.6854L20.3036 12.556V12.5482L22.0007 8.44672L25.0965 0.974502C25.3816 0.280222 26.118 -0.115454 26.8544 0.0299064C27.5907 0.175266 28.1215 0.821077 28.1215 1.57165Z" fill="#4C434A"/>
<path d="M21.9921 14.7325C20.3581 14.4745 18.6859 14.8179 17.2857 15.6989C15.9039 16.6 14.6305 17.6573 13.4906 18.8497C12.3463 20.0404 11.0705 21.0974 9.68774 22.0004C8.42079 22.79 6.93232 23.1483 5.44484 23.0218C5.1596 22.988 4.91555 22.8012 4.8084 22.5347L3.18196 18.6061C2.58481 17.1525 1.9798 15.6989 1.38265 14.2532L0.0626412 11.071C-0.0378042 10.8348 -0.0164995 10.5643 0.119702 10.3467C0.255904 10.1291 0.489824 9.99176 0.746219 9.97886C1.99397 9.94907 3.21144 9.58845 4.27411 8.93384C5.65686 8.03085 6.93266 6.97384 8.07701 5.7831C9.21863 4.59253 10.4918 3.5355 11.872 2.63235C13.2722 1.75132 14.9444 1.40794 16.5785 1.66592C17.1757 3.1195 17.7781 4.57309 18.3857 6.02667C18.9828 7.4724 19.5878 8.92599 20.185 10.3796C20.7821 11.8332 21.3871 13.2789 21.9921 14.7325Z" fill="white"/>
<path d="M20.1855 10.3797C18.5539 10.1216 16.8841 10.4651 15.4868 11.3461C14.8818 9.89251 14.2795 8.43892 13.6797 6.98533C15.0809 6.10702 16.753 5.76646 18.3862 6.02675C18.9833 7.47248 19.5883 8.92607 20.1855 10.3797Z" fill="#2C2F38"/>
<path d="M13.6784 6.98522C12.2966 7.88636 11.0232 8.94357 9.88333 10.136C9.27833 8.68238 8.67332 7.23666 8.07617 5.78307C9.21779 4.5925 10.491 3.53548 11.8712 2.63232C12.4762 4.08591 13.0734 5.5395 13.6784 6.98522Z" fill="#2C2F38"/>
<path d="M17.2858 15.699C15.9041 16.6001 14.6307 17.6573 13.4908 18.8497C12.8857 17.3961 12.2886 15.9425 11.6836 14.489C12.826 13.2984 14.1021 12.2438 15.4865 11.3461C16.0836 12.7918 16.6886 14.2454 17.2858 15.699Z" fill="#2C2F38"/>
<path d="M11.6842 14.4889C10.5447 15.6817 9.27123 16.7389 7.88919 17.6396C7.28419 16.186 6.68704 14.7403 6.08203 13.2867C7.46478 12.3837 8.74058 11.3267 9.88493 10.136C10.4821 11.5896 11.0871 13.0432 11.6842 14.4889Z" fill="#2C2F38"/>
<path d="M6.08127 13.2867C4.68369 14.167 3.01421 14.5104 1.38265 14.2532L0.0626412 11.071C-0.0378042 10.8347 -0.0164995 10.5643 0.119702 10.3467C0.255904 10.1291 0.489824 9.99176 0.746219 9.97885C1.99397 9.94907 3.21144 9.58844 4.27411 8.93384L6.08127 13.2867Z" fill="#2C2F38"/>
<path d="M9.68742 22.0004C8.42047 22.79 6.932 23.1483 5.44452 23.0218C5.15928 22.988 4.91524 22.8012 4.80809 22.5347L3.18164 18.6061C4.81572 18.8641 6.48792 18.5207 7.88812 17.6396L9.68742 22.0004Z" fill="#2C2F38"/>
<path d="M30.0848 32.0577C29.6993 32.219 29.2655 32.2201 28.8792 32.0609C28.493 31.9017 28.186 31.5951 28.0262 31.2091L21.9997 16.6575L21.2061 14.7325L20.3025 12.556V12.5482L19.399 10.3796L17.5996 6.02669L16.0046 2.17666C15.921 1.98596 15.8782 1.77988 15.8789 1.57165C15.8789 0.821077 16.4097 0.175266 17.146 0.0299064C17.8824 -0.115454 18.6188 0.280222 18.9039 0.974502L21.9997 8.44672L23.6968 12.5482L24.5847 14.6932L30.9333 30.0069C31.2641 30.8076 30.8845 31.7248 30.0848 32.0577Z" fill="#584F56"/>
</svg>
