<svg width="23" height="23" viewBox="0 0 23 23" fill="none" xmlns="http://www.w3.org/2000/svg">
<g clip-path="url(#clip0_132_7273)">
<path d="M17.8553 13.4793V9.11379C17.8553 6.31558 16.0374 3.93413 13.5206 3.08799V2.0205C13.5206 0.906395 12.6142 0 11.5001 0C10.386 0 9.47963 0.906395 9.47963 2.0205V3.08799C6.96285 3.93409 5.14494 6.31554 5.14494 9.11379V13.4793C5.14494 14.2014 4.87904 14.8949 4.39623 15.432C3.69077 16.2167 3.30225 17.23 3.30225 18.2852V19.2486C3.30225 19.8316 3.77657 20.306 4.35964 20.306H8.76311C8.78678 21.7955 10.005 23 11.5 23H11.5003C12.9952 23 14.2135 21.7955 14.2371 20.306H18.6406C19.2236 20.306 19.698 19.8316 19.698 19.2486V18.2851C19.698 17.23 19.3095 16.2167 18.604 15.4319C18.1212 14.8949 17.8553 14.2014 17.8553 13.4793ZM10.8266 2.0205C10.8266 1.64913 11.1288 1.347 11.5001 1.347C11.8715 1.347 12.1736 1.64913 12.1736 2.0205V2.7943C11.9523 2.77091 11.7276 2.75861 11.5001 2.75861C11.2727 2.75861 11.048 2.77087 10.8266 2.7943V2.0205ZM6.49194 9.11379C6.49194 6.35227 8.7386 4.10561 11.5001 4.10561C14.2617 4.10561 16.5083 6.35227 16.5083 9.11379V13.4793C16.5083 14.5048 16.8761 15.49 17.5443 16.265H5.45587C6.12407 15.49 6.49194 14.5048 6.49194 13.4793V9.11379ZM11.5003 21.653H11.5C10.7477 21.653 10.133 21.0527 10.1097 20.306H12.8906C12.8673 21.0527 12.2526 21.653 11.5003 21.653ZM18.351 18.959H13.5648H9.43549H4.64924V18.2852C4.64924 18.0566 4.67609 17.8308 4.72782 17.612H18.2724C18.3242 17.8308 18.351 18.0566 18.351 18.2852V18.959Z" fill="white"/>
</g>
<defs>
<clipPath id="clip0_132_7273">
<rect width="23" height="23" fill="white"/>
</clipPath>
</defs>
</svg>
