<?xml version="1.0" encoding="UTF-8"?>
<svg width="18px" height="22px" viewBox="0 0 18 22" version="1.1" xmlns="http://www.w3.org/2000/svg" xmlns:xlink="http://www.w3.org/1999/xlink">
    <!-- Generator: Sketch 56.3 (81716) - https://sketch.com -->
    <title>shield</title>
    <desc>Created with Sketch.</desc>
    <g id="UI" stroke="none" stroke-width="1" fill="none" fill-rule="evenodd">
        <g id="Settings-2fa" transform="translate(-854.000000, -193.000000)">
            <g id="Group-2" transform="translate(450.000000, 100.000000)">
                <g id="Group" transform="translate(35.000000, 83.000000)">
                    <g id="Group-5" transform="translate(356.000000, 0.000000)">
                        <g id="Group-9">
                            <g id="shield" transform="translate(14.000000, 11.000000)">
                                <path d="M8,20 C8,20 16,16 16,10 L16,3 L8,0 L0,3 L0,10 C0,16 8,20 8,20 Z" id="Path" stroke="#FFFFFF" stroke-width="2" stroke-linecap="round" stroke-linejoin="round"></path>
                                <path d="M10.6997199,13 L10.6997199,11.5098039 L7.75294118,11.5098039 L9.28795518,9.97478992 C10.027451,9.23529412 10.5764706,8.41736695 10.5764706,7.46498599 C10.5764706,5.89635854 9.33277311,5 7.98823529,5 C6.92380952,5 5.90420168,5.53781513 5.4,6.65826331 L6.69971989,7.42016807 C6.95742297,6.85994398 7.40560224,6.50140056 8.01064426,6.50140056 C8.60448179,6.50140056 9.0302521,6.89355742 9.0302521,7.5210084 C9.0302521,8.04761905 8.63809524,8.56302521 8.13389356,9.08963585 L5.45602241,11.8459384 L5.45602241,13 L10.6997199,13 Z" id="2" fill="#FFFFFF" fill-rule="nonzero"></path>
                            </g>
                        </g>
                    </g>
                </g>
            </g>
        </g>
    </g>
</svg>