<svg version="1.2" baseProfile="tiny-ps" xmlns="http://www.w3.org/2000/svg" viewBox="0 0 20 38" width="20" height="38"><title>Clip-Path</title><defs><clipPath clipPathUnits="userSpaceOnUse" id="cp1"><path d="M0 0L52 0L52 52L0 52L0 0Z" /></clipPath><linearGradient id="grd1" gradientUnits="userSpaceOnUse"  x1="0" y1="0" x2="0" y2="38"><stop offset="0" stop-color="#7d8ba3" stop-opacity="0.01" /><stop offset="0.519" stop-color="#7d8ba3"  /><stop offset="1" stop-color="#7d8ba3" stop-opacity="0.01" /></linearGradient></defs><style>tspan { white-space:pre }.shp0 { fill: url(#grd1) } </style><g clip-path="url(#cp1)"><g ><path fill-rule="evenodd" class="shp0" d="M0.71 20.74C-0.24 19.78 -0.24 18.22 0.71 17.26L17.24 0.48C17.87 -0.16 18.9 -0.16 19.53 0.48C20.16 1.12 20.16 2.16 19.53 2.8L3.56 19L19.53 35.2C20.16 35.84 20.16 36.88 19.53 37.52C19.21 37.84 18.8 38 18.39 38C17.97 38 17.56 37.84 17.24 37.52L0.71 20.74ZM2.99 19.58L2.98 19.58L2.99 19.58Z" /></g></g></svg>