<svg width="37" height="37" viewBox="0 0 37 37" fill="none" xmlns="http://www.w3.org/2000/svg">
<path fill-rule="evenodd" clip-rule="evenodd" d="M17.3364 1.02343C11.5779 1.61745 6.89796 5.90851 5.94289 11.4703C5.55909 13.7054 5.7939 15.9782 6.6247 18.0695L6.82744 18.5798L5.28965 21.1444C4.44384 22.5548 3.07922 24.8303 2.25709 26.2009C1.33914 27.7313 0.740683 28.7704 0.706222 28.8938C0.521087 29.5562 1.00942 30.3106 1.70559 30.4377C1.84977 30.464 2.70862 30.4252 4.76566 30.2993C6.33845 30.2031 7.72704 30.1156 7.85144 30.1049L8.07761 30.0854L9.10396 32.1826C10.6918 35.4272 10.7755 35.5896 10.9442 35.7549C11.1792 35.985 11.402 36.0789 11.7633 36.1C12.1941 36.1252 12.4368 36.0425 12.7237 35.7729C12.9061 35.6016 13.2748 35.0239 14.8681 32.4144C15.9264 30.6811 16.8274 29.1618 16.8703 29.0382C16.9662 28.762 16.9472 28.4568 16.8154 28.1574C16.6996 27.8943 16.3581 27.5804 16.0907 27.4913C15.8433 27.4089 15.4459 27.4087 15.1994 27.4908C14.7936 27.6259 14.7042 27.7458 13.3151 30.0179C12.6057 31.1781 12.0069 32.1271 11.9843 32.1268C11.9617 32.1266 11.499 31.2202 10.9562 30.1125C10.2661 28.7044 9.92243 28.0467 9.81357 27.9258C9.62844 27.7201 9.3018 27.554 9.02093 27.5228C8.84764 27.5035 5.37584 27.6988 4.61301 27.7707C4.44564 27.7865 4.356 27.7802 4.356 27.7528C4.356 27.6826 8.29425 21.1365 8.33652 21.1365C8.35815 21.1365 8.57935 21.3626 8.8281 21.6389C9.37537 22.2469 10.2857 23.1242 10.7967 23.5361C12.8463 25.1881 15.2032 26.0332 18.0451 26.1351L18.76 26.1607L21.5905 30.8834C24.6519 35.9915 24.5903 35.8989 25.0254 36.0438C25.5682 36.2246 26.2002 36.0417 26.5083 35.6147C26.5919 35.4989 28.8935 30.8702 29.2533 30.0942C29.2547 30.0912 30.6447 30.1754 32.3422 30.2814C34.5719 30.4206 35.484 30.464 35.6284 30.4376C36.324 30.3106 36.8122 29.5562 36.6274 28.8938C36.5931 28.7712 36.0498 27.8236 35.2329 26.4621C31.1698 19.6898 30.5101 18.5827 30.5102 18.5355C30.5103 18.507 30.5654 18.3519 30.6325 18.1907C30.8243 17.7308 31.1092 16.8354 31.2241 16.3313C31.455 15.3187 31.5118 14.7889 31.5148 13.6203C31.5179 12.4401 31.4827 12.045 31.2913 11.1082C30.3761 6.62934 27.0651 2.99725 22.594 1.56753C21.81 1.31684 20.8433 1.11873 19.921 1.01977C19.486 0.973107 17.8011 0.975479 17.3364 1.02343ZM20.3322 3.62616C22.1389 3.93103 23.7223 4.62489 25.1216 5.72511C28.2437 8.17965 29.6171 12.2075 28.6359 16.0319C27.4362 20.7082 22.9909 23.8899 18.0556 23.6048C16.7277 23.5282 15.5924 23.2573 14.3907 22.7306C13.2454 22.2285 12.1786 21.4913 11.2624 20.5687C9.70723 19.0028 8.77436 17.1296 8.44245 14.9065C8.39138 14.5645 8.37045 14.1728 8.37045 13.56C8.37045 12.6673 8.42671 12.1164 8.59227 11.3895C9.00625 9.57151 9.89705 7.94166 11.2028 6.61323C12.702 5.08812 14.5226 4.1084 16.6312 3.69212C17.4055 3.53926 17.7112 3.51655 18.8107 3.53018C19.6189 3.54015 19.9443 3.56069 20.3322 3.62616ZM30.983 24.3765C32.0687 26.1905 32.9631 27.7014 32.9707 27.734C32.9821 27.783 32.9427 27.7893 32.7445 27.7703C32.0262 27.7013 28.4853 27.5036 28.3126 27.5228C28.0318 27.554 27.7051 27.72 27.5199 27.9257C27.4109 28.0467 27.0679 28.7033 26.3773 30.1127C25.8345 31.2204 25.377 32.1229 25.3607 32.118C25.3339 32.1102 21.645 25.9847 21.599 25.8717C21.5872 25.8426 21.6491 25.8064 21.7578 25.7792C23.2836 25.3957 24.609 24.8133 25.8838 23.966C26.9415 23.263 28.0534 22.2455 28.7808 21.3149C28.8834 21.1836 28.9768 21.0767 28.9882 21.0772C28.9998 21.0778 29.8974 22.5625 30.983 24.3765Z" fill="#FF710A"/>
<path d="M23.3737 7.08608L22.9997 9.29608L20.5007 11.9821C21.1807 12.2994 21.6964 12.7584 22.0477 13.3591C22.4104 13.9598 22.5237 14.6454 22.3877 15.4161C22.1724 16.6628 21.6171 17.6091 20.7217 18.2551C19.8377 18.9011 18.7837 19.2241 17.5597 19.2241C16.6191 19.2241 15.8031 19.0144 15.1117 18.5951C14.4317 18.1644 13.9501 17.5241 13.6667 16.6741L16.1657 15.3481C16.2904 15.7561 16.4774 16.0621 16.7267 16.2661C16.9874 16.4701 17.3614 16.5721 17.8487 16.5721C18.3814 16.5721 18.8007 16.4531 19.1067 16.2151C19.4127 15.9658 19.5997 15.6428 19.6677 15.2461C19.7357 14.8494 19.6621 14.5321 19.4467 14.2941C19.2314 14.0448 18.8574 13.9201 18.3247 13.9201H17.7467L16.9817 12.3731L19.5147 9.63608H15.2817L15.7237 7.08608H23.3737Z" fill="#FF710A"/>
</svg>
