<?xml version="1.0" encoding="UTF-8"?>
<svg width="38px" height="30px" viewBox="0 0 38 30" version="1.1" xmlns="http://www.w3.org/2000/svg" xmlns:xlink="http://www.w3.org/1999/xlink">
    <!-- Generator: Sketch 56.3 (81716) - https://sketch.com -->
    <title>Group 3</title>
    <desc>Created with Sketch.</desc>
    <g id="UI" stroke="none" stroke-width="1" fill="none" fill-rule="evenodd">
        <g id="modal-exchange-step01" transform="translate(-331.000000, -436.000000)" fill="#B78FFF" fill-rule="nonzero">
            <g id="Group-10">
                <g id="Group-3" transform="translate(331.000000, 436.000000)">
                    <g id="arrow" transform="translate(9.000000, 15.000000) rotate(90.000000) translate(-9.000000, -15.000000) translate(-6.000000, 6.000000)">
                        <path d="M28.5378975,10.3508772 L1.40350877,10.3508772 C0.628769211,10.3508772 0,9.72210798 0,8.94736842 C0,8.17262886 0.628769211,7.54385965 1.40350877,7.54385965 L28.5378975,7.54385965 C29.312637,7.54385965 29.9414062,8.17262886 29.9414062,8.94736842 C29.9414062,9.72210798 29.312637,10.3508772 28.5378975,10.3508772 Z" id="Path"></path>
                        <path d="M21.0526316,17.8361431 C20.6931881,17.8361431 20.3340872,17.699767 20.0606496,17.4246162 C19.512404,16.8763706 19.512404,15.9875274 20.0606496,15.4389391 L26.5542763,8.94565518 L20.0606496,2.45202851 C19.512404,1.90378289 19.512404,1.01459702 20.0606496,0.466351404 C20.6092379,-0.0818942105 21.4980811,-0.0818942105 22.0463268,0.466351404 L29.5315926,7.95196 C30.0798382,8.50020561 30.0798382,9.38904877 29.5315926,9.93729439 L22.0463268,17.4225604 C21.771176,17.699767 21.4120751,17.8361431 21.0526316,17.8361431 L21.0526316,17.8361431 Z" id="Path"></path>
                    </g>
                    <g id="arrow" transform="translate(29.000000, 15.000000) scale(1, -1) rotate(90.000000) translate(-29.000000, -15.000000) translate(14.000000, 6.000000)">
                        <path d="M28.5378975,10.3508772 L1.40350877,10.3508772 C0.628769211,10.3508772 0,9.72210798 0,8.94736842 C0,8.17262886 0.628769211,7.54385965 1.40350877,7.54385965 L28.5378975,7.54385965 C29.312637,7.54385965 29.9414062,8.17262886 29.9414062,8.94736842 C29.9414062,9.72210798 29.312637,10.3508772 28.5378975,10.3508772 Z" id="Path"></path>
                        <path d="M21.0526316,17.8361431 C20.6931881,17.8361431 20.3340872,17.699767 20.0606496,17.4246162 C19.512404,16.8763706 19.512404,15.9875274 20.0606496,15.4389391 L26.5542763,8.94565518 L20.0606496,2.45202851 C19.512404,1.90378289 19.512404,1.01459702 20.0606496,0.466351404 C20.6092379,-0.0818942105 21.4980811,-0.0818942105 22.0463268,0.466351404 L29.5315926,7.95196 C30.0798382,8.50020561 30.0798382,9.38904877 29.5315926,9.93729439 L22.0463268,17.4225604 C21.771176,17.699767 21.4120751,17.8361431 21.0526316,17.8361431 L21.0526316,17.8361431 Z" id="Path"></path>
                    </g>
                </g>
            </g>
        </g>
    </g>
</svg>