<svg width="37" height="37" viewBox="0 0 37 37" fill="none" xmlns="http://www.w3.org/2000/svg">
<path fill-rule="evenodd" clip-rule="evenodd" d="M17.003 1.02343C11.2445 1.61745 6.56459 5.90851 5.60951 11.4703C5.22571 13.7054 5.46052 15.9782 6.29133 18.0695L6.49406 18.5798L4.95628 21.1444C4.11046 22.5548 2.74584 24.8303 1.92371 26.2009C1.00577 27.7313 0.407309 28.7704 0.372848 28.8938C0.187713 29.5562 0.676047 30.3106 1.37222 30.4377C1.51639 30.464 2.37524 30.4252 4.43229 30.2993C6.00507 30.2031 7.39367 30.1156 7.51806 30.1049L7.74424 30.0854L8.77058 32.1826C10.3584 35.4272 10.4421 35.5896 10.6109 35.7549C10.8458 35.985 11.0686 36.0789 11.43 36.1C11.8607 36.1252 12.1034 36.0425 12.3903 35.7729C12.5727 35.6016 12.9415 35.0239 14.5347 32.4144C15.593 30.6811 16.494 29.1618 16.537 29.0382C16.6329 28.762 16.6139 28.4568 16.4821 28.1574C16.3663 27.8943 16.0247 27.5804 15.7573 27.4913C15.5099 27.4089 15.1125 27.4087 14.8661 27.4908C14.4602 27.6259 14.3708 27.7458 12.9817 30.0179C12.2724 31.1781 11.6735 32.1271 11.6509 32.1268C11.6283 32.1266 11.1657 31.2202 10.6228 30.1125C9.93271 28.7044 9.58905 28.0467 9.4802 27.9258C9.29506 27.7201 8.96842 27.554 8.68756 27.5228C8.51426 27.5035 5.04247 27.6988 4.27964 27.7707C4.11227 27.7865 4.02262 27.7802 4.02262 27.7528C4.02262 27.6826 7.96087 21.1365 8.00315 21.1365C8.02478 21.1365 8.24598 21.3626 8.49473 21.6389C9.04199 22.2469 9.95233 23.1242 10.4634 23.5361C12.5129 25.1881 14.8698 26.0332 17.7118 26.1351L18.4266 26.1607L21.2571 30.8834C24.3185 35.9915 24.2569 35.8989 24.6921 36.0438C25.2348 36.2246 25.8668 36.0417 26.1749 35.6147C26.2585 35.4989 28.5601 30.8702 28.9199 30.0942C28.9213 30.0912 30.3113 30.1754 32.0088 30.2814C34.2386 30.4206 35.1507 30.464 35.2951 30.4376C35.9906 30.3106 36.4788 29.5562 36.294 28.8938C36.2598 28.7712 35.7164 27.8236 34.8995 26.4621C30.8364 19.6898 30.1767 18.5827 30.1769 18.5355C30.1769 18.507 30.232 18.3519 30.2992 18.1907C30.4909 17.7308 30.7758 16.8354 30.8907 16.3313C31.1216 15.3187 31.1784 14.7889 31.1815 13.6203C31.1845 12.4401 31.1493 12.045 30.9579 11.1082C30.0427 6.62934 26.7317 2.99725 22.2606 1.56753C21.4767 1.31684 20.51 1.11873 19.5876 1.01977C19.1526 0.973107 17.4677 0.975479 17.003 1.02343ZM19.9988 3.62616C21.8056 3.93103 23.3889 4.62489 24.7883 5.72511C27.9103 8.17965 29.2837 12.2075 28.3025 16.0319C27.1028 20.7082 22.6576 23.8899 17.7222 23.6048C16.3943 23.5282 15.2591 23.2573 14.0574 22.7306C12.912 22.2285 11.8452 21.4913 10.929 20.5687C9.37386 19.0028 8.44098 17.1296 8.10908 14.9065C8.05801 14.5645 8.03708 14.1728 8.03708 13.56C8.03708 12.6673 8.09333 12.1164 8.25889 11.3895C8.67288 9.57151 9.56368 7.94166 10.8695 6.61323C12.3686 5.08812 14.1892 4.1084 16.2978 3.69212C17.0721 3.53926 17.3778 3.51655 18.4773 3.53018C19.2856 3.54015 19.6109 3.56069 19.9988 3.62616ZM30.6497 24.3765C31.7353 26.1905 32.6298 27.7014 32.6373 27.734C32.6487 27.783 32.6093 27.7893 32.4112 27.7703C31.6928 27.7013 28.1519 27.5036 27.9792 27.5228C27.6984 27.554 27.3717 27.72 27.1865 27.9257C27.0776 28.0467 26.7345 28.7033 26.0439 30.1127C25.5011 31.2204 25.0436 32.1229 25.0273 32.118C25.0005 32.1102 21.3116 25.9847 21.2657 25.8717C21.2538 25.8426 21.3158 25.8064 21.4244 25.7792C22.9503 25.3957 24.2756 24.8133 25.5504 23.966C26.6081 23.263 27.72 22.2455 28.4474 21.3149C28.55 21.1836 28.6434 21.0767 28.6549 21.0772C28.6664 21.0778 29.564 22.5625 30.6497 24.3765Z" fill="#CECECE"/>
<path d="M12.9764 18.9861L13.3164 17.0141L18.0424 12.8661C18.9944 12.0274 19.5214 11.3248 19.6234 10.7581C19.6914 10.3841 19.6347 10.0838 19.4534 9.85708C19.272 9.61908 19 9.50008 18.6374 9.50008C17.9007 9.50008 17.2547 9.94775 16.6994 10.8431L14.5234 9.44908C15.056 8.58775 15.7077 7.94175 16.4784 7.51108C17.2604 7.06908 18.099 6.84808 18.9944 6.84808C20.0597 6.84808 20.938 7.22208 21.6294 7.97008C22.3207 8.70675 22.5644 9.65308 22.3604 10.8091C22.2357 11.4891 21.9864 12.1068 21.6124 12.6621C21.2384 13.2061 20.7057 13.7784 20.0144 14.3791L17.7024 16.3681H21.5274L21.0684 18.9861H12.9764Z" fill="#CECECE"/>
</svg>
