<svg xmlns="http://www.w3.org/2000/svg" viewBox="0 0 367 138" width="367" height="138">
	<defs>
		<clipPath clipPathUnits="userSpaceOnUse" id="cp1">
			<path d="M-24 -803L390 -803L390 762L-24 762Z" />
		</clipPath>
	</defs>
	<style>
		tspan { white-space:pre }
		.shp0 { fill: #00ffc6 } 
	</style>
	<g id="pasino-landing-mobile" clip-path="url(#cp1)">
		<path id="HOWTOPLAY" fill-rule="evenodd" class="shp0" d="M52.94 86.55L51 56.13L59.69 55.58L60.38 66.35L67.77 65.88L67.08 55.1L75.77 54.55L77.71 84.97L69.02 85.52L68.31 74.31L60.92 74.78L61.63 86L52.94 86.55ZM78.29 69.68C77.86 60.68 84.66 53.42 93.66 52.99C102.67 52.55 110.13 59.13 110.56 68.13C111 77.13 104.2 84.39 95.19 84.82C86.19 85.26 78.72 78.68 78.29 69.68ZM101.87 68.55C101.66 64.33 98.38 61.3 94.07 61.51C89.77 61.72 86.79 65.04 86.99 69.26C87.19 73.48 90.48 76.51 94.78 76.3C99.09 76.09 102.07 72.77 101.87 68.55ZM117.3 83.24L107.83 53.01L117.4 52.74L122.01 69.38L126.46 52.49L133.16 52.3L138.55 68.92L142.22 52.04L151.79 51.77L144.03 82.49L135.45 82.73L130.21 66.58L125.88 83L117.3 83.24ZM165.05 82.15L164.9 60.11L157.71 60.16L157.65 51.72L180.73 51.55L180.79 60L173.61 60.05L173.76 82.08L165.05 82.15ZM179.33 66.82C179.39 57.8 186.59 50.93 195.6 51C204.61 51.07 211.7 58.04 211.64 67.06C211.57 76.07 204.38 82.94 195.36 82.88C186.35 82.81 179.26 75.83 179.33 66.82ZM202.93 66.99C202.96 62.77 199.85 59.57 195.54 59.54C191.23 59.5 188.07 62.66 188.04 66.88C188.01 71.11 191.12 74.31 195.43 74.34C199.74 74.37 202.9 71.22 202.93 66.99ZM219.57 82.47L220.38 52L232.57 52.33C238.71 52.49 243.56 56.76 243.38 63.55C243.2 70.34 238.13 74.34 231.99 74.18L228.51 74.08L228.28 82.7L219.57 82.47ZM234.67 63.31C234.71 61.75 233.65 60.8 232.34 60.77L228.86 60.68L228.73 65.64L232.21 65.73C233.52 65.77 234.63 64.88 234.67 63.31ZM243.51 83.14L244.69 52.68L253.4 53.01L252.54 75.03L262.55 75.42L262.35 80.58L261.14 83.81L261.57 83.84L243.51 83.14ZM262.35 80.58L272.38 53.86L282.55 54.38L290.71 85.31L281.36 84.84L280.52 80.87L271.73 80.43L270.49 84.29L261.57 83.84L262.22 83.86L262.35 80.58ZM276.95 64.34L273.95 73.56L279 73.82L276.95 64.34ZM294.71 85.65L295.45 74.09L286.37 54.57L296.01 55.19L300.32 66.2L306.01 55.84L315.65 56.46L304.14 74.65L303.4 86.21L294.71 85.65Z" />
	</g>
</svg>