<svg width="1085" height="400" opacity="0.02" viewBox="0 0 1085 400" fill="none" xmlns="http://www.w3.org/2000/svg">
<path fill-rule="evenodd" clip-rule="evenodd" d="M685.597 52.5519C685.726 56.3222 687.044 59.6484 689.553 62.5272C692.049 65.1401 695.84 66.4929 700.931 66.5853C713.199 65.6296 722.824 61.2574 729.781 53.4661C736.467 45.6947 739.808 37.623 739.787 29.2615C739.648 25.2252 737.913 21.3748 734.576 17.7103C731.25 14.3252 726.775 12.5893 721.153 12.5093C709.413 13.7189 700.495 18.6116 694.363 27.1786C688.24 36.0183 685.318 44.4693 685.597 52.5519ZM619.502 272.132C636.3 270.483 654.273 260.156 673.421 241.157C677.392 237.271 681.304 233.315 685.158 229.287C684.706 231.547 684.34 233.747 684.059 235.886C684.08 246.951 686.308 255.228 690.737 260.724C694.901 266.214 699.65 269.016 705.003 269.138C707.672 269.2 710.093 268.585 712.265 267.284C714.17 265.706 715.695 263.584 716.822 260.91C725.162 246.532 743.164 224.424 770.846 194.563C798.523 164.443 823.117 140.861 844.632 123.811C832.802 138.379 820.618 157.257 808.074 180.439C795.527 203.624 788.522 224.101 787.069 241.877C786.873 250.773 788.861 257.839 793.025 263.056C797.186 268.55 802.876 271.373 810.098 271.538C825.897 270.821 843.492 261.509 862.883 243.605C866.964 239.837 871.011 235.989 875.024 232.064C874.755 244.662 877.661 254.853 883.736 262.647C890.618 271.49 900.851 276.623 914.415 278.044C929.87 279.389 945.396 276.139 960.987 268.284C976.336 260.137 990.476 249.429 1003.4 236.154C1005.23 236.62 1006.95 236.932 1008.54 237.1C1017.85 238.071 1028.4 236.197 1040.17 231.469C1052.24 226.504 1065.49 217.863 1079.93 205.561C1080.89 201.331 1080.07 197.59 1077.45 194.335C1074.82 191.08 1071.84 190.09 1068.48 191.364C1059.94 198.597 1051.88 203.849 1044.28 207.115C1036.69 210.385 1029.8 211.969 1023.63 211.865C1030.52 202.295 1036.09 192.588 1040.32 182.733C1044.54 173.159 1047.09 163.938 1048 155.097C1049.12 144.114 1047.22 133.757 1042.31 124.034C1037.12 114.288 1028.17 108.478 1015.46 106.602C1010.13 106.046 1005.15 106.202 1000.49 107.068C995.827 107.938 991.645 109.396 987.953 111.447L987.546 111.405C967.434 110.925 944.862 122.652 919.82 146.575C904.639 161.11 893.186 176.798 885.463 193.639C878.142 201.17 871.369 207.726 865.147 213.305C853.405 224.105 845.659 229.59 841.915 229.772C839.237 229.711 837.942 227.799 838.023 224.018C838.494 214.589 843.207 200.936 852.164 183.066C860.846 165.191 871.927 147.772 885.409 130.812C886.488 130.298 887.176 129.501 887.47 128.428C888.025 127.367 888.32 126.162 888.349 124.808C888.482 118.879 885.533 112.742 879.526 106.398C873.509 99.7851 865.163 96.0909 854.483 95.3023C843.47 96.9409 825.806 109.622 801.478 133.346C776.871 157.337 754.536 181.514 734.479 205.874C742.329 189.058 751.117 172.937 760.819 157.51C770.525 141.815 779.634 128.942 788.153 118.88C789.236 118.096 789.799 116.892 789.836 115.275C789.658 110.963 787.219 106.313 782.512 101.354C777.529 96.6539 772.102 93.967 766.233 93.2894C756.522 96.849 741.121 115.925 720.035 150.509C714.028 160.435 708.761 169.842 704.231 178.73C693.49 191.507 683.541 202.193 674.393 210.78C662.476 222.253 653.981 228.204 648.92 228.643C646.244 228.737 644.846 226.903 644.716 223.124C644.907 213.144 650.254 197.448 660.762 176.05C671.003 154.934 682.649 135.39 695.679 117.407C696.716 116.563 697.213 115.332 697.158 113.715C696.771 110.226 693.682 106.015 687.894 101.086C682.375 96.1541 676.66 93.5218 670.768 93.1752C661.781 96.4535 647.309 115.423 627.362 150.089C622.016 159.303 617.333 168.291 613.315 177.052C606.824 185.351 600.231 193.218 593.539 200.663C584.098 210.59 575.07 218.863 566.449 225.471C568.38 212.07 568.938 194.712 568.119 173.402C567.029 152.114 570.586 131.821 578.774 112.522C580.272 111.059 580.945 109.382 580.802 107.497C579.881 102.432 575.604 97.3462 567.974 92.2534C560.34 87.1573 552.903 84.6218 545.66 84.6334C544.058 84.7572 542.479 85.1501 540.92 85.8121C539.624 86.4548 538.493 87.4865 537.533 88.9103C536.569 90.3409 535.511 92.3147 534.365 94.8381C527.508 106.999 518.163 121.646 506.325 138.789C496.149 153.466 487.841 165.216 481.408 174.042C480.576 174.326 479.914 174.801 479.418 175.465C475.483 181.658 471.642 187.492 467.895 192.966C467.258 190.721 466.649 188.438 466.068 186.115C465.883 183.695 465.004 182.687 463.422 183.077C460.775 183.551 457.996 185.791 455.083 189.804C451.918 194.105 450.378 198.552 450.466 203.144C450.753 206.908 451.326 210.694 452.185 214.503C449.601 217.796 447.069 220.889 444.589 223.782C433.714 236.522 425.777 243.384 420.795 244.376C419.464 244.566 418.463 244.171 417.785 243.174C416.874 242.489 416.286 241.216 416.018 239.349C415.137 229.409 418.77 213.226 426.911 190.819C435.088 168.676 444.689 147.967 455.705 128.674C456.648 127.723 457.009 126.443 456.778 124.844C456.018 121.42 452.494 117.571 446.213 113.306C439.931 109.044 433.836 107.071 427.94 107.375C425.817 107.68 423.177 109.973 420.003 114.24C416.829 118.513 413.189 124.208 409.078 131.336C407.895 124.976 404.981 119.679 400.323 115.453C395.668 111.227 388.557 109.674 378.991 110.781C346.321 118.506 319.78 140.72 299.368 177.422C278.953 214.13 270.146 246.979 272.946 275.971C274.317 285.573 277.808 292.965 283.41 298.141C288.707 303.089 296.541 304.952 306.899 303.722C320.056 301.275 332.335 292.693 343.741 277.979C355.446 263.493 365.807 247.162 374.823 228.978C373.657 235.953 372.854 242.6 372.41 248.925C371.963 255.253 372.12 261.081 372.885 266.411C374.106 274.951 376.91 281.347 381.305 285.609C385.694 289.875 391.198 291.526 397.817 290.57C413.546 287.211 430.037 275.026 447.293 254.017C451.826 248.5 456.24 242.878 460.538 237.151C463.167 242.321 466.301 247.529 469.94 252.777C481.427 269.748 497.769 278.229 518.965 278.223L520.166 278.13C537.726 276.241 556.539 266.14 576.606 247.82C583.549 241.483 590.387 234.62 597.122 227.231C596.155 232.881 595.532 238.414 595.253 243.83C595.557 252.72 597.805 259.662 601.985 264.639C606.179 269.892 612.016 272.385 619.502 272.132ZM270.538 114.537C264.369 91.349 250.064 73.9836 227.615 62.4444C204.831 50.7212 175.121 49.3732 138.482 58.4174C99.9292 69.6545 67.0871 88.2922 39.9419 114.318C12.731 140.089 1.47357 165.472 6.17922 190.448C9.67332 201.517 15.6392 208.844 24.0702 212.435C32.6871 215.698 40.2288 216.452 46.6891 214.714C49.533 213.946 51.5919 212.834 52.8655 211.369C54.0698 209.65 54.136 207.819 53.0637 205.869C49.1054 186.831 56.8855 165.042 76.3974 140.513C95.9025 115.981 123.833 98.12 160.179 86.9133C180.656 81.6726 196.746 81.2422 208.437 85.629C220.125 90.0125 227.601 98.3363 230.855 110.577C235.309 132.56 229.997 156.334 214.922 181.901C199.84 207.479 180.331 224.187 156.389 232.04C150.966 233.502 146.618 233.837 143.364 233.04C148.514 207.636 153.949 185.363 159.664 166.225C165.186 147.424 172.497 136.374 181.593 133.085C183.21 132.927 184.304 132.352 184.872 131.364C185.25 130.703 185.266 129.724 184.919 128.417C183.758 125.1 180.722 122.009 175.81 119.145C170.825 116.024 165.197 115.165 158.926 116.577C137.02 130.026 117.982 165.183 101.808 222.044C85.959 279.101 66.1834 314.597 42.4713 328.532C38.0069 329.461 34.7627 329.217 32.7258 327.811C30.9441 326.339 28.7308 325.816 26.0826 326.25C23.4939 326.948 21.8324 328.515 21.0981 330.946C20.3573 333.384 20.4429 336.296 21.3414 339.679C23.6278 348.277 29.4706 356.199 38.873 363.436C48.2719 370.67 59.796 372.87 73.4416 370.028C90.5424 364.579 104.143 351.139 114.228 329.704C124.057 308.346 132.023 284.135 138.122 257.071C143.52 261.764 149.971 265.187 157.469 267.357C164.898 269.265 173.559 269.025 183.449 266.632C210.487 257.943 233.423 238.489 252.257 208.275C271.012 177.808 277.111 146.56 270.538 114.537ZM393.027 163.405C377.03 193.232 363.252 216.883 351.708 234.345C340.194 252.087 331.281 261.547 324.969 262.73C321.525 263.228 319.482 261.215 318.83 256.673C318.208 240.972 325.304 217.883 340.134 187.404C354.684 156.972 369.941 138.967 385.895 133.386C388.54 133.004 391.251 133.978 394.014 136.299C396.508 138.664 398.196 141.961 399.074 146.189C399.117 146.478 399.163 146.802 399.214 147.163L399.249 147.411L399.291 147.706C399.314 147.862 399.337 148.023 399.361 148.191C399.477 148.99 399.431 149.679 399.251 150.245L393.027 163.405ZM481.268 227.149C479.334 223.468 477.515 219.623 475.811 215.615C481.251 207.495 486.475 199.182 491.483 190.675C491.518 190.671 491.554 190.666 491.589 190.661C491.649 190.652 491.709 190.643 491.769 190.633C497.834 182.323 504.04 174.001 510.388 165.667C517.013 157.583 522.891 150.234 528.019 143.614C527.956 167.428 526.976 189.821 525.097 210.794C522.914 231.526 516.144 243.005 504.78 245.226C495.648 245.119 487.811 239.092 481.268 227.149ZM1020.25 154.613C1019.54 161.59 1017.14 169.2 1013.08 177.444C1009.27 185.726 1004.25 194.004 998.031 202.295C990.891 195.859 985.658 187.857 982.335 178.292C978.717 168.97 977.35 160.025 978.231 151.438C978.454 149.295 978.787 147.297 979.248 145.445C979.7 143.598 980.281 141.894 980.981 140.341C984.206 137.699 987.393 135.459 990.541 133.619C993.683 131.778 996.785 130.344 999.855 129.306C1007.81 130.411 1013.43 133.166 1016.75 137.578C1019.77 142.234 1020.94 147.915 1020.25 154.613ZM979.32 223.071C972.169 229.915 964.769 235.237 957.12 239.044C949.447 243.118 942.276 244.807 935.632 244.113C930.844 243.612 927.537 241.779 925.712 238.601C923.59 235.673 922.835 231.256 923.437 225.354C924.743 215.198 928.676 204.36 935.234 192.85C942.084 181.101 950.203 170.024 959.604 159.625L959.441 161.233C958.286 172.496 959.418 183.728 962.846 194.924C966.295 205.856 971.789 215.237 979.32 223.071Z" fill="white"/>
<path opacity="0.290365" fill-rule="evenodd" clip-rule="evenodd" d="M237.183 383.796C323.693 361.835 440.477 345.137 572.538 340.484C726.783 335.049 840.612 343.079 889.524 347.641C895.516 348.2 896.134 356.189 890.354 357.867L888.266 358.473C884.565 359.547 883.804 364.455 887.007 366.599C890.877 369.189 888.905 375.281 884.258 374.971C832.846 371.545 676.312 362.025 573.409 365.65C463.052 369.539 284.622 385.707 245.25 389.355C240.22 389.821 232.286 385.039 237.183 383.796Z" fill="white"/>
</svg>
