<svg version="1.2" baseProfile="tiny-ps" xmlns="http://www.w3.org/2000/svg" viewBox="0 0 24 24" width="24" height="24">
	<style>
		tspan { white-space:pre }.dangerIconElementFill { fill: #f0a92e }
	</style>
	<g>
		<path fill-rule="evenodd" class="dangerIconElementFill" d="M11.45 14.45C11.29 14.33 11.17 14.15 11.12 13.96L9.8 8.66C9.72 8.33 9.72 7.98 9.8 7.65C9.88 7.32 10.03 7.01 10.25 6.75C10.46 6.49 10.73 6.28 11.03 6.13C11.33 5.98 11.66 5.91 12 5.91C12.34 5.91 12.67 5.98 12.97 6.13C13.27 6.28 13.54 6.49 13.75 6.75C13.96 7.02 14.11 7.33 14.18 7.66C14.25 7.99 14.24 8.34 14.15 8.67L12.87 13.96C12.83 14.15 12.71 14.33 12.55 14.45C12.4 14.57 12.2 14.63 12 14.63C11.8 14.63 11.6 14.57 11.45 14.45ZM11.78 7.67C11.72 7.71 11.66 7.76 11.61 7.82C11.57 7.87 11.53 7.94 11.52 8.02C11.5 8.09 11.51 8.17 11.53 8.24L12 10.15L12.47 8.24C12.49 8.17 12.5 8.09 12.48 8.02C12.47 7.94 12.43 7.87 12.38 7.82C12.34 7.76 12.28 7.71 12.22 7.67C12.15 7.64 12.07 7.62 12 7.63C11.93 7.62 11.85 7.64 11.78 7.67Z" />
		<path class="dangerIconElementFill" d="M12 18.13C11.28 18.13 10.69 17.54 10.69 16.81C10.69 16.09 11.28 15.5 12 15.5C12.72 15.5 13.31 16.09 13.31 16.81C13.31 17.54 12.72 18.13 12 18.13Z" />
		<path fill-rule="evenodd" class="dangerIconElementFill" d="M5.68 21.46C3.81 20.21 2.35 18.43 1.49 16.35C0.63 14.27 0.4 11.99 0.84 9.78C1.28 7.57 2.37 5.55 3.96 3.96C5.55 2.37 7.57 1.28 9.78 0.84C11.99 0.4 14.27 0.63 16.35 1.49C18.43 2.35 20.21 3.81 21.46 5.68C22.71 7.55 23.38 9.75 23.38 12C23.38 15.02 22.18 17.91 20.04 20.04C17.91 22.18 15.02 23.38 12 23.38C9.75 23.38 7.55 22.71 5.68 21.46ZM6.65 4C5.07 5.05 3.84 6.56 3.11 8.32C2.38 10.08 2.19 12.01 2.56 13.88C2.93 15.74 3.85 17.46 5.19 18.81C6.54 20.15 8.26 21.07 10.12 21.44C11.99 21.81 13.92 21.62 15.68 20.89C17.44 20.16 18.95 18.93 20 17.35C21.06 15.76 21.63 13.9 21.63 12C21.63 9.45 20.61 7 18.81 5.19C17 3.39 14.55 2.38 12 2.38C10.1 2.38 8.24 2.94 6.65 4Z" />
	</g>
</svg>
