<svg version="1.2" baseProfile="tiny-ps" xmlns="http://www.w3.org/2000/svg" viewBox="0 0 24 24" width="24" height="24">
	<style>
		tspan { white-space:pre }.infoIconElementFill { fill: #006de6 }
	</style>
	<g>
		<path class="infoIconElementFill" d="M11.03 8.21C10.74 8.01 10.52 7.74 10.38 7.42C10.25 7.1 10.22 6.75 10.28 6.41C10.35 6.07 10.52 5.76 10.76 5.51C11.01 5.27 11.32 5.1 11.66 5.03C12 4.97 12.35 5 12.67 5.13C12.99 5.27 13.26 5.49 13.46 5.78C13.65 6.07 13.75 6.4 13.75 6.75C13.75 7.21 13.57 7.66 13.24 7.99C12.91 8.32 12.46 8.5 12 8.5L12 8.5C11.65 8.5 11.32 8.4 11.03 8.21Z" />
		<path fill-rule="evenodd" class="infoIconElementFill" d="M5.68 21.46C3.81 20.21 2.35 18.43 1.49 16.35C0.63 14.27 0.4 11.99 0.84 9.78C1.28 7.57 2.37 5.55 3.96 3.96C5.55 2.37 7.57 1.28 9.78 0.84C11.99 0.4 14.27 0.63 16.35 1.49C18.43 2.35 20.21 3.81 21.46 5.68C22.71 7.55 23.38 9.75 23.38 12C23.38 15.02 22.18 17.91 20.04 20.04C17.91 22.18 15.02 23.38 12 23.38C9.75 23.38 7.55 22.71 5.68 21.46ZM6.65 4C5.07 5.05 3.84 6.56 3.11 8.32C2.38 10.08 2.19 12.01 2.56 13.88C2.93 15.74 3.85 17.46 5.19 18.81C6.54 20.15 8.26 21.07 10.12 21.44C11.99 21.81 13.92 21.62 15.68 20.89C17.44 20.16 18.95 18.93 20 17.35C21.06 15.76 21.63 13.9 21.63 12C21.63 9.45 20.61 7 18.81 5.19C17 3.39 14.55 2.38 12 2.38C10.1 2.38 8.24 2.94 6.65 4Z" />
		<path class="infoIconElementFill" d="M10.76 18.49C10.43 18.16 10.25 17.71 10.25 17.25L10.25 12C10.25 11.54 10.43 11.09 10.76 10.76C11.09 10.43 11.54 10.25 12 10.25C12.46 10.25 12.91 10.43 13.24 10.76C13.57 11.09 13.75 11.54 13.75 12L13.75 17.25C13.75 17.71 13.57 18.16 13.24 18.49C12.91 18.82 12.46 19 12 19L12 19C11.54 19 11.09 18.82 10.76 18.49Z" />
	</g>
</svg>
