<svg xmlns="http://www.w3.org/2000/svg" baseProfile="tiny-ps" version="1.2" viewBox="0 0 270 270"><defs><linearGradient id="grd1" x1="39.517" x2="230.484" y1="230.512" y2="39.545" gradientUnits="userSpaceOnUse"><stop offset="0" stop-color="#e18d28"/><stop offset=".5" stop-color="#fae87e"/><stop offset="1" stop-color="#e28d29"/></linearGradient><linearGradient id="grd2" x1="6.686" x2="263.312" y1="135.029" y2="135.029" gradientUnits="userSpaceOnUse"><stop offset="0" stop-color="#e18d28"/><stop offset=".5" stop-color="#fae87e"/><stop offset="1" stop-color="#e28d29"/></linearGradient><linearGradient id="grd3" x1="134.995" x2="134.995" y1="212.913" y2="57.144" gradientUnits="userSpaceOnUse"><stop offset="0" stop-color="#fac77e"/><stop offset="1" stop-color="#a56924"/></linearGradient><linearGradient id="grd4" x1="134.996" x2="134.996" y1="210.842" y2="59.215" gradientUnits="userSpaceOnUse"><stop offset="0" stop-color="#a76427"/><stop offset="1" stop-color="#e9b26b"/></linearGradient><linearGradient id="grd5" x1="134.997" x2="134.997" y1="165.89" y2="104.166" gradientUnits="userSpaceOnUse"><stop offset="0" stop-color="#e9b26b"/><stop offset="1" stop-color="#a76427"/></linearGradient><linearGradient id="grd6" x1="123.418" x2="146.58" y1="70.126" y2="93.287" gradientUnits="userSpaceOnUse"><stop offset="0" stop-color="#a76427"/><stop offset="1" stop-color="#e9b26b"/></linearGradient><linearGradient id="grd7" x1="72.999" x2="104.638" y1="112.604" y2="104.126" gradientUnits="userSpaceOnUse"><stop offset="0" stop-color="#a76427"/><stop offset="1" stop-color="#e9b26b"/></linearGradient><linearGradient id="grd8" x1="84.577" x2="93.054" y1="177.505" y2="145.867" gradientUnits="userSpaceOnUse"><stop offset="0" stop-color="#a76427"/><stop offset="1" stop-color="#e9b26b"/></linearGradient><linearGradient id="grd9" x1="146.572" x2="123.412" y1="199.933" y2="176.772" gradientUnits="userSpaceOnUse"><stop offset="0" stop-color="#a76427"/><stop offset="1" stop-color="#e9b26b"/></linearGradient><linearGradient id="grd10" x1="196.994" x2="165.356" y1="157.453" y2="165.93" gradientUnits="userSpaceOnUse"><stop offset="0" stop-color="#a76427"/><stop offset="1" stop-color="#e9b26b"/></linearGradient><linearGradient id="grd11" x1="185.417" x2="176.94" y1="92.552" y2="124.189" gradientUnits="userSpaceOnUse"><stop offset="0" stop-color="#8d551e"/><stop offset="1" stop-color="#e9b26b"/></linearGradient><linearGradient id="grd12" x1="134.998" x2="134.998" y1="163.736" y2="106.319" gradientUnits="userSpaceOnUse"><stop offset="0" stop-color="#a76427"/><stop offset="1" stop-color="#e9b26b"/></linearGradient></defs><style></style><path fill="url(#grd1)" d="M135 270c74.56 0 135-60.44 135-135S209.56 0 135 0 0 60.44 0 135s60.44 135 135 135z"/><path fill="url(#grd2)" d="M135 263.32c70.87 0 128.32-57.45 128.32-128.32C263.32 64.13 205.87 6.68 135 6.68 64.13 6.68 6.68 64.13 6.68 135c0 70.87 57.45 128.32 128.32 128.32z"/><path fill="url(#grd3)" d="M135 212.92c43.03 0 77.91-34.89 77.91-77.92S178.03 57.08 135 57.08c-43.04 0-77.92 34.89-77.92 77.92s34.88 77.92 77.92 77.92z"/><path fill="url(#grd4)" d="M210.79 135c0 41.91-33.96 75.79-75.79 75.79-41.91 0-75.8-33.96-75.8-75.79 0-41.91 33.97-75.79 75.8-75.79 41.91 0 75.79 33.96 75.79 75.79z"/><path fill="url(#grd5)" d="M165.9 135c0 17.06-13.84 30.9-30.9 30.9s-30.9-13.84-30.9-30.9 13.84-30.9 30.9-30.9c17.06.08 30.9 13.92 30.9 30.9z"/><path fill="url(#grd6)" d="M135.63 59.21h-1.34v44.97h1.34V59.21z"/><path fill="url(#grd7)" d="M69.03 97.73l.63-1.18 39 22.49-.71 1.18-38.92-22.49z"/><path fill="url(#grd8)" d="M69.66 173.53l-.63-1.18 38.92-22.49.71 1.18-39 22.49z"/><path fill="url(#grd9)" d="M135.63 210.88h-1.34V165.9l1.34-.08v45.06z"/><path fill="url(#grd10)" d="M200.97 172.35l-.63 1.18-39-22.49.71-1.18 38.92 22.49z"/><path fill="url(#grd11)" d="M200.34 96.55l.63 1.18-38.92 22.49-.71-1.18 39-22.49z"/><path fill="url(#grd12)" d="M163.7 135c0 15.88-12.82 28.7-28.7 28.7-15.88 0-28.7-12.82-28.7-28.7 0-15.88 12.82-28.7 28.7-28.7 15.88 0 28.7 12.89 28.7 28.7z"/></svg>