<svg width="6" height="6" viewBox="0 0 6 6" fill="none" xmlns="http://www.w3.org/2000/svg">
<path d="M2.85608 5.36074C1.59227 5.36074 0.519958 4.32672 0.519958 3.02461C0.519958 1.7608 1.55398 0.688477 2.85608 0.688477C4.15819 0.688477 5.19222 1.72251 5.19222 3.02461C5.15392 4.32672 4.11989 5.36074 2.85608 5.36074Z" fill="#CB8D3C"/>
<path d="M0.519958 3.02461C0.519958 3.48418 0.673148 3.90545 0.902931 4.28843C1.24761 4.51821 1.70717 4.6714 2.16674 4.6714C3.43055 4.6714 4.50287 3.63737 4.50287 2.33526C4.50287 1.87569 4.34969 1.45442 4.1199 1.07145C3.77523 0.841666 3.31565 0.688477 2.85608 0.688477C1.55398 0.726774 0.519958 1.7608 0.519958 3.02461Z" fill="url(#paint0_linear_38_87381)"/>
<path d="M1.51576 2.33519C1.40087 2.25859 1.40087 1.99051 1.55406 1.79903C1.70725 1.56924 1.93704 1.45435 2.05194 1.56924C2.16683 1.64584 2.16682 1.91392 2.01364 2.1054C1.89874 2.29689 1.66895 2.41178 1.51576 2.33519Z" fill="white"/>
<defs>
<linearGradient id="paint0_linear_38_87381" x1="0.900978" y1="4.29654" x2="4.1065" y2="1.09102" gradientUnits="userSpaceOnUse">
<stop stop-color="#E79A3B"/>
<stop offset="1" stop-color="#F9C67C"/>
</linearGradient>
</defs>
</svg>
