<svg xmlns="http://www.w3.org/2000/svg" baseProfile="tiny-ps" version="1.2" viewBox="0 0 270 270"><defs><linearGradient id="grd1" x1="135.002" x2="135.002" y1="62.086" y2="34.244" gradientUnits="userSpaceOnUse"><stop offset="0" stop-color="#b5721d"/><stop offset="1" stop-color="#fac77e"/></linearGradient><linearGradient id="grd2" x1="134.999" x2="134.999" y1="60.752" y2="35.519" gradientUnits="userSpaceOnUse"><stop offset="0" stop-color="#3e8530"/><stop offset=".121" stop-color="#479435"/><stop offset=".336" stop-color="#54a83d"/><stop offset=".479" stop-color="#59b040"/><stop offset=".684" stop-color="#50a23b"/><stop offset="1" stop-color="#3e8530"/></linearGradient><linearGradient id="grd3" x1="122.672" x2="117.966" y1="63.136" y2="35.693" gradientUnits="userSpaceOnUse"><stop offset="0" stop-color="#b5721d"/><stop offset="1" stop-color="#fac77e"/></linearGradient><linearGradient id="grd4" x1="122.449" x2="118.184" y1="61.819" y2="36.948" gradientUnits="userSpaceOnUse"><stop offset="0" stop-color="#3e8530"/><stop offset=".121" stop-color="#479435"/><stop offset=".336" stop-color="#54a83d"/><stop offset=".479" stop-color="#59b040"/><stop offset=".684" stop-color="#50a23b"/><stop offset="1" stop-color="#3e8530"/></linearGradient><linearGradient id="grd5" x1="110.7" x2="101.426" y1="66.252" y2="39.999" gradientUnits="userSpaceOnUse"><stop offset="0" stop-color="#b5721d"/><stop offset="1" stop-color="#fac77e"/></linearGradient><linearGradient id="grd6" x1="110.256" x2="101.851" y1="64.994" y2="41.201" gradientUnits="userSpaceOnUse"><stop offset="0" stop-color="#3e8530"/><stop offset=".121" stop-color="#479435"/><stop offset=".336" stop-color="#54a83d"/><stop offset=".479" stop-color="#59b040"/><stop offset=".684" stop-color="#50a23b"/><stop offset="1" stop-color="#3e8530"/></linearGradient><linearGradient id="grd7" x1="99.427" x2="85.847" y1="71.348" y2="47.039" gradientUnits="userSpaceOnUse"><stop offset="0" stop-color="#b5721d"/><stop offset="1" stop-color="#fac77e"/></linearGradient><linearGradient id="grd8" x1="98.776" x2="86.47" y1="70.181" y2="48.153" gradientUnits="userSpaceOnUse"><stop offset="0" stop-color="#3e8530"/><stop offset=".121" stop-color="#479435"/><stop offset=".336" stop-color="#54a83d"/><stop offset=".479" stop-color="#59b040"/><stop offset=".684" stop-color="#50a23b"/><stop offset="1" stop-color="#3e8530"/></linearGradient><linearGradient id="grd9" x1="89.176" x2="71.684" y1="78.275" y2="56.611" gradientUnits="userSpaceOnUse"><stop offset="0" stop-color="#b5721d"/><stop offset="1" stop-color="#fac77e"/></linearGradient><linearGradient id="grd10" x1="88.337" x2="72.485" y1="77.237" y2="57.604" gradientUnits="userSpaceOnUse"><stop offset="0" stop-color="#3e8530"/><stop offset=".121" stop-color="#479435"/><stop offset=".336" stop-color="#54a83d"/><stop offset=".479" stop-color="#59b040"/><stop offset=".684" stop-color="#50a23b"/><stop offset="1" stop-color="#3e8530"/></linearGradient><linearGradient id="grd11" x1="80.244" x2="59.341" y1="86.836" y2="68.439" gradientUnits="userSpaceOnUse"><stop offset="0" stop-color="#b5721d"/><stop offset="1" stop-color="#fac77e"/></linearGradient><linearGradient id="grd12" x1="79.241" x2="60.3" y1="85.952" y2="69.281" gradientUnits="userSpaceOnUse"><stop offset="0" stop-color="#3e8530"/><stop offset=".121" stop-color="#479435"/><stop offset=".336" stop-color="#54a83d"/><stop offset=".479" stop-color="#59b040"/><stop offset=".684" stop-color="#50a23b"/><stop offset="1" stop-color="#3e8530"/></linearGradient><linearGradient id="grd13" x1="72.887" x2="49.177" y1="96.783" y2="82.183" gradientUnits="userSpaceOnUse"><stop offset="0" stop-color="#b5721d"/><stop offset="1" stop-color="#fac77e"/></linearGradient><linearGradient id="grd14" x1="71.75" x2="50.263" y1="96.082" y2="82.851" gradientUnits="userSpaceOnUse"><stop offset="0" stop-color="#3e8530"/><stop offset=".121" stop-color="#479435"/><stop offset=".336" stop-color="#54a83d"/><stop offset=".479" stop-color="#59b040"/><stop offset=".684" stop-color="#50a23b"/><stop offset="1" stop-color="#3e8530"/></linearGradient><linearGradient id="grd15" x1="67.314" x2="41.478" y1="107.829" y2="97.446" gradientUnits="userSpaceOnUse"><stop offset="0" stop-color="#b5721d"/><stop offset="1" stop-color="#fac77e"/></linearGradient><linearGradient id="grd16" x1="66.075" x2="42.663" y1="107.33" y2="97.921" gradientUnits="userSpaceOnUse"><stop offset="0" stop-color="#3e8530"/><stop offset=".121" stop-color="#479435"/><stop offset=".336" stop-color="#54a83d"/><stop offset=".479" stop-color="#59b040"/><stop offset=".684" stop-color="#50a23b"/><stop offset="1" stop-color="#3e8530"/></linearGradient><linearGradient id="grd17" x1="63.694" x2="36.474" y1="119.658" y2="113.791" gradientUnits="userSpaceOnUse"><stop offset="0" stop-color="#b5721d"/><stop offset="1" stop-color="#fac77e"/></linearGradient><linearGradient id="grd18" x1="62.388" x2="37.722" y1="119.375" y2="114.059" gradientUnits="userSpaceOnUse"><stop offset="0" stop-color="#3e8530"/><stop offset=".121" stop-color="#479435"/><stop offset=".336" stop-color="#54a83d"/><stop offset=".479" stop-color="#59b040"/><stop offset=".684" stop-color="#50a23b"/><stop offset="1" stop-color="#3e8530"/></linearGradient><linearGradient id="grd19" x1="62.121" x2="34.302" y1="131.929" y2="130.748" gradientUnits="userSpaceOnUse"><stop offset="0" stop-color="#b5721d"/><stop offset="1" stop-color="#fac77e"/></linearGradient><linearGradient id="grd20" x1="60.787" x2="35.576" y1="131.871" y2="130.801" gradientUnits="userSpaceOnUse"><stop offset="0" stop-color="#3e8530"/><stop offset=".121" stop-color="#479435"/><stop offset=".336" stop-color="#54a83d"/><stop offset=".479" stop-color="#59b040"/><stop offset=".684" stop-color="#50a23b"/><stop offset="1" stop-color="#3e8530"/></linearGradient><linearGradient id="grd21" x1="62.644" x2="35.025" y1="144.289" y2="147.826" gradientUnits="userSpaceOnUse"><stop offset="0" stop-color="#b5721d"/><stop offset="1" stop-color="#fac77e"/></linearGradient><linearGradient id="grd22" x1="61.32" x2="36.291" y1="144.458" y2="147.662" gradientUnits="userSpaceOnUse"><stop offset="0" stop-color="#3e8530"/><stop offset=".121" stop-color="#479435"/><stop offset=".336" stop-color="#54a83d"/><stop offset=".479" stop-color="#59b040"/><stop offset=".684" stop-color="#50a23b"/><stop offset="1" stop-color="#3e8530"/></linearGradient><linearGradient id="grd23" x1="65.253" x2="38.628" y1="156.383" y2="164.536" gradientUnits="userSpaceOnUse"><stop offset="0" stop-color="#b5721d"/><stop offset="1" stop-color="#fac77e"/></linearGradient><linearGradient id="grd24" x1="63.975" x2="39.847" y1="156.774" y2="164.162" gradientUnits="userSpaceOnUse"><stop offset="0" stop-color="#3e8530"/><stop offset=".121" stop-color="#479435"/><stop offset=".336" stop-color="#54a83d"/><stop offset=".479" stop-color="#59b040"/><stop offset=".684" stop-color="#50a23b"/><stop offset="1" stop-color="#3e8530"/></linearGradient><linearGradient id="grd25" x1="69.865" x2="45.001" y1="167.862" y2="180.398" gradientUnits="userSpaceOnUse"><stop offset="0" stop-color="#b5721d"/><stop offset="1" stop-color="#fac77e"/></linearGradient><linearGradient id="grd26" x1="68.67" x2="46.138" y1="168.463" y2="179.823" gradientUnits="userSpaceOnUse"><stop offset="0" stop-color="#3e8530"/><stop offset=".121" stop-color="#479435"/><stop offset=".336" stop-color="#54a83d"/><stop offset=".479" stop-color="#59b040"/><stop offset=".684" stop-color="#50a23b"/><stop offset="1" stop-color="#3e8530"/></linearGradient><linearGradient id="grd27" x1="76.351" x2="53.964" y1="178.398" y2="194.955" gradientUnits="userSpaceOnUse"><stop offset="0" stop-color="#b5721d"/><stop offset="1" stop-color="#fac77e"/></linearGradient><linearGradient id="grd28" x1="75.276" x2="54.987" y1="179.193" y2="194.198" gradientUnits="userSpaceOnUse"><stop offset="0" stop-color="#3e8530"/><stop offset=".121" stop-color="#479435"/><stop offset=".336" stop-color="#54a83d"/><stop offset=".479" stop-color="#59b040"/><stop offset=".684" stop-color="#50a23b"/><stop offset="1" stop-color="#3e8530"/></linearGradient><linearGradient id="grd29" x1="84.524" x2="65.258" y1="187.684" y2="207.787" gradientUnits="userSpaceOnUse"><stop offset="0" stop-color="#b5721d"/><stop offset="1" stop-color="#fac77e"/></linearGradient><linearGradient id="grd30" x1="83.597" x2="66.138" y1="188.648" y2="206.867" gradientUnits="userSpaceOnUse"><stop offset="0" stop-color="#3e8530"/><stop offset=".121" stop-color="#479435"/><stop offset=".336" stop-color="#54a83d"/><stop offset=".479" stop-color="#59b040"/><stop offset=".684" stop-color="#50a23b"/><stop offset="1" stop-color="#3e8530"/></linearGradient><linearGradient id="grd31" x1="94.149" x2="78.555" y1="195.457" y2="218.528" gradientUnits="userSpaceOnUse"><stop offset="0" stop-color="#b5721d"/><stop offset="1" stop-color="#fac77e"/></linearGradient><linearGradient id="grd32" x1="93.4" x2="79.269" y1="196.564" y2="217.471" gradientUnits="userSpaceOnUse"><stop offset="0" stop-color="#3e8530"/><stop offset=".121" stop-color="#479435"/><stop offset=".336" stop-color="#54a83d"/><stop offset=".479" stop-color="#59b040"/><stop offset=".684" stop-color="#50a23b"/><stop offset="1" stop-color="#3e8530"/></linearGradient><linearGradient id="grd33" x1="104.95" x2="93.48" y1="201.489" y2="226.863" gradientUnits="userSpaceOnUse"><stop offset="0" stop-color="#b5721d"/><stop offset="1" stop-color="#fac77e"/></linearGradient><linearGradient id="grd34" x1="104.398" x2="94.004" y1="202.709" y2="225.703" gradientUnits="userSpaceOnUse"><stop offset="0" stop-color="#3e8530"/><stop offset=".121" stop-color="#479435"/><stop offset=".336" stop-color="#54a83d"/><stop offset=".479" stop-color="#59b040"/><stop offset=".684" stop-color="#50a23b"/><stop offset="1" stop-color="#3e8530"/></linearGradient><linearGradient id="grd35" x1="116.615" x2="109.598" y1="205.612" y2="232.559" gradientUnits="userSpaceOnUse"><stop offset="0" stop-color="#b5721d"/><stop offset="1" stop-color="#fac77e"/></linearGradient><linearGradient id="grd36" x1="116.276" x2="109.917" y1="206.905" y2="231.326" gradientUnits="userSpaceOnUse"><stop offset="0" stop-color="#3e8530"/><stop offset=".121" stop-color="#479435"/><stop offset=".336" stop-color="#54a83d"/><stop offset=".479" stop-color="#59b040"/><stop offset=".684" stop-color="#50a23b"/><stop offset="1" stop-color="#3e8530"/></linearGradient><linearGradient id="grd37" x1="128.809" x2="126.448" y1="207.703" y2="235.45" gradientUnits="userSpaceOnUse"><stop offset="0" stop-color="#b5721d"/><stop offset="1" stop-color="#fac77e"/></linearGradient><linearGradient id="grd38" x1="128.692" x2="126.553" y1="209.036" y2="234.179" gradientUnits="userSpaceOnUse"><stop offset="0" stop-color="#3e8530"/><stop offset=".121" stop-color="#479435"/><stop offset=".336" stop-color="#54a83d"/><stop offset=".479" stop-color="#59b040"/><stop offset=".684" stop-color="#50a23b"/><stop offset="1" stop-color="#3e8530"/></linearGradient><linearGradient id="grd39" x1="141.18" x2="143.541" y1="207.703" y2="235.449" gradientUnits="userSpaceOnUse"><stop offset="0" stop-color="#b5721d"/><stop offset="1" stop-color="#fac77e"/></linearGradient><linearGradient id="grd40" x1="141.292" x2="143.432" y1="209.037" y2="234.181" gradientUnits="userSpaceOnUse"><stop offset="0" stop-color="#3e8530"/><stop offset=".121" stop-color="#479435"/><stop offset=".336" stop-color="#54a83d"/><stop offset=".479" stop-color="#59b040"/><stop offset=".684" stop-color="#50a23b"/><stop offset="1" stop-color="#3e8530"/></linearGradient><linearGradient id="grd41" x1="153.375" x2="160.393" y1="205.613" y2="232.561" gradientUnits="userSpaceOnUse"><stop offset="0" stop-color="#b5721d"/><stop offset="1" stop-color="#fac77e"/></linearGradient><linearGradient id="grd42" x1="153.709" x2="160.068" y1="206.908" y2="231.33" gradientUnits="userSpaceOnUse"><stop offset="0" stop-color="#3e8530"/><stop offset=".121" stop-color="#479435"/><stop offset=".336" stop-color="#54a83d"/><stop offset=".479" stop-color="#59b040"/><stop offset=".684" stop-color="#50a23b"/><stop offset="1" stop-color="#3e8530"/></linearGradient><linearGradient id="grd43" x1="165.038" x2="176.508" y1="201.492" y2="226.866" gradientUnits="userSpaceOnUse"><stop offset="0" stop-color="#b5721d"/><stop offset="1" stop-color="#fac77e"/></linearGradient><linearGradient id="grd44" x1="165.585" x2="175.98" y1="202.71" y2="225.707" gradientUnits="userSpaceOnUse"><stop offset="0" stop-color="#3e8530"/><stop offset=".121" stop-color="#479435"/><stop offset=".336" stop-color="#54a83d"/><stop offset=".479" stop-color="#59b040"/><stop offset=".684" stop-color="#50a23b"/><stop offset="1" stop-color="#3e8530"/></linearGradient><linearGradient id="grd45" x1="175.839" x2="191.433" y1="195.461" y2="218.531" gradientUnits="userSpaceOnUse"><stop offset="0" stop-color="#b5721d"/><stop offset="1" stop-color="#fac77e"/></linearGradient><linearGradient id="grd46" x1="176.583" x2="190.715" y1="196.567" y2="217.474" gradientUnits="userSpaceOnUse"><stop offset="0" stop-color="#3e8530"/><stop offset=".121" stop-color="#479435"/><stop offset=".336" stop-color="#54a83d"/><stop offset=".479" stop-color="#59b040"/><stop offset=".684" stop-color="#50a23b"/><stop offset="1" stop-color="#3e8530"/></linearGradient><linearGradient id="grd47" x1="185.467" x2="204.733" y1="187.687" y2="207.792" gradientUnits="userSpaceOnUse"><stop offset="0" stop-color="#b5721d"/><stop offset="1" stop-color="#fac77e"/></linearGradient><linearGradient id="grd48" x1="186.388" x2="203.848" y1="188.654" y2="206.873" gradientUnits="userSpaceOnUse"><stop offset="0" stop-color="#3e8530"/><stop offset=".121" stop-color="#479435"/><stop offset=".336" stop-color="#54a83d"/><stop offset=".479" stop-color="#59b040"/><stop offset=".684" stop-color="#50a23b"/><stop offset="1" stop-color="#3e8530"/></linearGradient><linearGradient id="grd49" x1="193.639" x2="216.027" y1="178.403" y2="194.96" gradientUnits="userSpaceOnUse"><stop offset="0" stop-color="#b5721d"/><stop offset="1" stop-color="#fac77e"/></linearGradient><linearGradient id="grd50" x1="194.712" x2="215" y1="179.201" y2="194.205" gradientUnits="userSpaceOnUse"><stop offset="0" stop-color="#3e8530"/><stop offset=".121" stop-color="#479435"/><stop offset=".336" stop-color="#54a83d"/><stop offset=".479" stop-color="#59b040"/><stop offset=".684" stop-color="#50a23b"/><stop offset="1" stop-color="#3e8530"/></linearGradient><linearGradient id="grd51" x1="200.126" x2="224.989" y1="167.865" y2="180.401" gradientUnits="userSpaceOnUse"><stop offset="0" stop-color="#b5721d"/><stop offset="1" stop-color="#fac77e"/></linearGradient><linearGradient id="grd52" x1="201.317" x2="223.851" y1="168.472" y2="179.833" gradientUnits="userSpaceOnUse"><stop offset="0" stop-color="#3e8530"/><stop offset=".121" stop-color="#479435"/><stop offset=".336" stop-color="#54a83d"/><stop offset=".479" stop-color="#59b040"/><stop offset=".684" stop-color="#50a23b"/><stop offset="1" stop-color="#3e8530"/></linearGradient><linearGradient id="grd53" x1="204.737" x2="231.363" y1="156.387" y2="164.541" gradientUnits="userSpaceOnUse"><stop offset="0" stop-color="#b5721d"/><stop offset="1" stop-color="#fac77e"/></linearGradient><linearGradient id="grd54" x1="206.015" x2="230.143" y1="156.783" y2="164.171" gradientUnits="userSpaceOnUse"><stop offset="0" stop-color="#3e8530"/><stop offset=".121" stop-color="#479435"/><stop offset=".336" stop-color="#54a83d"/><stop offset=".479" stop-color="#59b040"/><stop offset=".684" stop-color="#50a23b"/><stop offset="1" stop-color="#3e8530"/></linearGradient><linearGradient id="grd55" x1="207.345" x2="234.965" y1="144.293" y2="147.83" gradientUnits="userSpaceOnUse"><stop offset="0" stop-color="#b5721d"/><stop offset="1" stop-color="#fac77e"/></linearGradient><linearGradient id="grd56" x1="208.669" x2="233.7" y1="144.467" y2="147.672" gradientUnits="userSpaceOnUse"><stop offset="0" stop-color="#3e8530"/><stop offset=".121" stop-color="#479435"/><stop offset=".336" stop-color="#54a83d"/><stop offset=".479" stop-color="#59b040"/><stop offset=".684" stop-color="#50a23b"/><stop offset="1" stop-color="#3e8530"/></linearGradient><linearGradient id="grd57" x1="207.87" x2="235.69" y1="131.932" y2="130.752" gradientUnits="userSpaceOnUse"><stop offset="0" stop-color="#b5721d"/><stop offset="1" stop-color="#fac77e"/></linearGradient><linearGradient id="grd58" x1="209.205" x2="234.418" y1="131.878" y2="130.808" gradientUnits="userSpaceOnUse"><stop offset="0" stop-color="#3e8530"/><stop offset=".121" stop-color="#479435"/><stop offset=".336" stop-color="#54a83d"/><stop offset=".479" stop-color="#59b040"/><stop offset=".684" stop-color="#50a23b"/><stop offset="1" stop-color="#3e8530"/></linearGradient><linearGradient id="grd59" x1="206.3" x2="233.518" y1="119.663" y2="113.796" gradientUnits="userSpaceOnUse"><stop offset="0" stop-color="#b5721d"/><stop offset="1" stop-color="#fac77e"/></linearGradient><linearGradient id="grd60" x1="207.604" x2="232.272" y1="119.383" y2="114.067" gradientUnits="userSpaceOnUse"><stop offset="0" stop-color="#3e8530"/><stop offset=".121" stop-color="#479435"/><stop offset=".336" stop-color="#54a83d"/><stop offset=".479" stop-color="#59b040"/><stop offset=".684" stop-color="#50a23b"/><stop offset="1" stop-color="#3e8530"/></linearGradient><linearGradient id="grd61" x1="202.679" x2="228.515" y1="107.833" y2="97.45" gradientUnits="userSpaceOnUse"><stop offset="0" stop-color="#b5721d"/><stop offset="1" stop-color="#fac77e"/></linearGradient><linearGradient id="grd62" x1="203.919" x2="227.333" y1="107.338" y2="97.929" gradientUnits="userSpaceOnUse"><stop offset="0" stop-color="#3e8530"/><stop offset=".121" stop-color="#479435"/><stop offset=".336" stop-color="#54a83d"/><stop offset=".479" stop-color="#59b040"/><stop offset=".684" stop-color="#50a23b"/><stop offset="1" stop-color="#3e8530"/></linearGradient><linearGradient id="grd63" x1="197.11" x2="220.821" y1="96.786" y2="82.187" gradientUnits="userSpaceOnUse"><stop offset="0" stop-color="#b5721d"/><stop offset="1" stop-color="#fac77e"/></linearGradient><linearGradient id="grd64" x1="198.245" x2="219.733" y1="96.089" y2="82.857" gradientUnits="userSpaceOnUse"><stop offset="0" stop-color="#3e8530"/><stop offset=".121" stop-color="#479435"/><stop offset=".336" stop-color="#54a83d"/><stop offset=".479" stop-color="#59b040"/><stop offset=".684" stop-color="#50a23b"/><stop offset="1" stop-color="#3e8530"/></linearGradient><linearGradient id="grd65" x1="189.751" x2="210.654" y1="86.839" y2="68.442" gradientUnits="userSpaceOnUse"><stop offset="0" stop-color="#b5721d"/><stop offset="1" stop-color="#fac77e"/></linearGradient><linearGradient id="grd66" x1="190.754" x2="209.697" y1="85.958" y2="69.287" gradientUnits="userSpaceOnUse"><stop offset="0" stop-color="#3e8530"/><stop offset=".121" stop-color="#479435"/><stop offset=".336" stop-color="#54a83d"/><stop offset=".479" stop-color="#59b040"/><stop offset=".684" stop-color="#50a23b"/><stop offset="1" stop-color="#3e8530"/></linearGradient><linearGradient id="grd67" x1="180.82" x2="198.314" y1="78.278" y2="56.613" gradientUnits="userSpaceOnUse"><stop offset="0" stop-color="#b5721d"/><stop offset="1" stop-color="#fac77e"/></linearGradient><linearGradient id="grd68" x1="181.66" x2="197.513" y1="77.243" y2="57.61" gradientUnits="userSpaceOnUse"><stop offset="0" stop-color="#3e8530"/><stop offset=".121" stop-color="#479435"/><stop offset=".336" stop-color="#54a83d"/><stop offset=".479" stop-color="#59b040"/><stop offset=".684" stop-color="#50a23b"/><stop offset="1" stop-color="#3e8530"/></linearGradient><linearGradient id="grd69" x1="170.569" x2="184.149" y1="71.35" y2="47.041" gradientUnits="userSpaceOnUse"><stop offset="0" stop-color="#b5721d"/><stop offset="1" stop-color="#fac77e"/></linearGradient><linearGradient id="grd70" x1="171.226" x2="183.532" y1="70.187" y2="48.158" gradientUnits="userSpaceOnUse"><stop offset="0" stop-color="#3e8530"/><stop offset=".121" stop-color="#479435"/><stop offset=".336" stop-color="#54a83d"/><stop offset=".479" stop-color="#59b040"/><stop offset=".684" stop-color="#50a23b"/><stop offset="1" stop-color="#3e8530"/></linearGradient><linearGradient id="grd71" x1="159.297" x2="168.571" y1="66.253" y2="39.999" gradientUnits="userSpaceOnUse"><stop offset="0" stop-color="#b5721d"/><stop offset="1" stop-color="#fac77e"/></linearGradient><linearGradient id="grd72" x1="159.747" x2="168.152" y1="64.998" y2="41.204" gradientUnits="userSpaceOnUse"><stop offset="0" stop-color="#3e8530"/><stop offset=".121" stop-color="#479435"/><stop offset=".336" stop-color="#54a83d"/><stop offset=".479" stop-color="#59b040"/><stop offset=".684" stop-color="#50a23b"/><stop offset="1" stop-color="#3e8530"/></linearGradient><linearGradient id="grd73" x1="147.325" x2="152.031" y1="63.136" y2="35.691" gradientUnits="userSpaceOnUse"><stop offset="0" stop-color="#b5721d"/><stop offset="1" stop-color="#fac77e"/></linearGradient><linearGradient id="grd74" x1="147.554" x2="151.818" y1="61.821" y2="36.951" gradientUnits="userSpaceOnUse"><stop offset="0" stop-color="#3e8530"/><stop offset=".121" stop-color="#479435"/><stop offset=".336" stop-color="#54a83d"/><stop offset=".479" stop-color="#59b040"/><stop offset=".684" stop-color="#50a23b"/><stop offset="1" stop-color="#3e8530"/></linearGradient></defs><style>.shp75{fill:#05191e}.shp76{fill:#f1252e}.shp78{fill:#fff}</style><path fill="#60bb44" d="M124.31 9.51l2.12 25.16c2.83-.23 5.66-.39 8.57-.39s5.74.16 8.57.39l2.12-25.16a121.908 121.908 0 0 0-21.38 0z"/><path fill="url(#grd1)" d="M135 61.8c2.12 0 4.17.08 6.21.31l2.36-27.44c-2.83-.23-5.66-.39-8.57-.39s-5.74.16-8.57.39l2.36 27.44c2.04-.23 4.09-.31 6.21-.31z"/><path fill="url(#grd2)" d="M127.13 35.85c5.67-.47 9.99-.47 15.73 0l-2.2 24.93c-4.17-.32-7.39-.32-11.25 0l-2.28-24.93z"/><path fill="url(#grd3)" d="M122.65 62.82c2.05-.39 4.09-.63 6.14-.78l-2.36-27.44c-2.83.23-5.66.55-8.49 1.1-2.83.47-5.59 1.1-8.34 1.8l6.92 26.66c2.04-.47 4.01-.94 6.13-1.34z"/><path fill="url(#grd4)" d="M110.47 38.6c5.5-1.41 9.83-2.12 15.49-2.67L128 60.86c-4.16.39-7.31.94-11.08 1.88l-6.45-24.14z"/><path fill="url(#grd5)" d="M110.63 65.97c1.96-.71 3.93-1.26 5.97-1.81l-6.92-26.66c-2.75.71-5.5 1.5-8.17 2.52-2.76.94-5.35 2.04-7.95 3.22l11.33 25.09c1.81-.87 3.77-1.66 5.74-2.36z"/><path fill="url(#grd6)" d="M94.59 44.11c5.19-2.28 9.27-3.77 14.78-5.27l6.21 24.22c-4.01 1.1-7.08 2.2-10.61 3.77L94.59 44.11z"/><path fill="url(#grd7)" d="M99.3 71.08c1.81-1.02 3.7-1.97 5.59-2.75L93.56 43.24a97.234 97.234 0 0 0-7.62 3.86 92.142 92.142 0 0 0-7.24 4.48l15.42 22.8c1.57-1.18 3.38-2.28 5.18-3.3z"/><path fill="url(#grd8)" d="M79.81 52.29c4.71-3.15 8.57-5.27 13.68-7.63l10.22 22.8c-3.78 1.73-6.61 3.3-9.83 5.51L79.81 52.29z"/><path fill="url(#grd9)" d="M89 78.08c1.66-1.34 3.31-2.52 5.03-3.7l-15.4-22.8c-2.36 1.57-4.64 3.22-6.92 5.03-2.28 1.81-4.33 3.7-6.37 5.66l19.1 19.89c1.42-1.41 2.91-2.83 4.56-4.08z"/><path fill="url(#grd10)" d="M66.59 62.82c4.17-3.93 7.55-6.68 12.27-9.9l13.92 20.75c-3.46 2.36-5.9 4.41-8.73 7.08L66.59 62.82z"/><path fill="url(#grd11)" d="M80.04 86.64c1.42-1.57 2.83-3.06 4.32-4.48l-19.1-19.89a110.07 110.07 0 0 0-5.9 6.13c-1.89 2.21-3.69 4.41-5.34 6.69l22.17 16.35c1.18-1.57 2.43-3.22 3.85-4.8z"/><path fill="url(#grd12)" d="M55.35 75.4c3.46-4.56 6.29-7.78 10.38-11.79l17.22 18.08c-2.99 2.91-5.11 5.35-7.47 8.41L55.35 75.4z"/><path fill="url(#grd13)" d="M72.65 96.63c1.1-1.81 2.28-3.46 3.46-5.11L54.02 75.09c-1.66 2.28-3.31 4.64-4.8 7.07a103.88 103.88 0 0 0-4.17 7.47l24.61 12.43c.87-1.81 1.89-3.62 2.99-5.43z"/><path fill="url(#grd14)" d="M46.47 89.71c2.59-5.11 4.87-8.8 8.25-13.36l20.05 14.93c-2.44 3.39-4.09 6.14-5.89 9.6L46.47 89.71z"/><path fill="url(#grd15)" d="M67.06 107.72c.79-1.97 1.66-3.86 2.6-5.66L45.05 89.63a115.23 115.23 0 0 0-3.54 7.79c-1.1 2.67-1.96 5.34-2.83 8.09l26.34 8.1c.55-1.96 1.26-3.93 2.04-5.89z"/><path fill="url(#grd16)" d="M40.02 105.36c1.73-5.43 3.3-9.44 5.9-14.55l22.25 11.32c-1.89 3.78-2.99 6.77-4.17 10.46l-23.98-7.23z"/><path fill="url(#grd17)" d="M63.45 119.59c.47-2.05 1.02-4.01 1.57-5.98l-26.34-8.09c-.86 2.67-1.57 5.42-2.2 8.25-.63 2.83-1.02 5.66-1.41 8.41l27.36 3.54c.23-2.04.55-4.09 1.02-6.13z"/><path fill="url(#grd18)" d="M36.4 121.79c.79-5.66 1.65-9.91 3.31-15.33l23.9 7.39c-1.18 4.01-1.81 7.15-2.36 11.01l-24.85-3.07z"/><path fill="url(#grd19)" d="M61.88 131.94c.08-2.13.31-4.17.55-6.22l-27.36-3.46c-.4 2.83-.63 5.67-.79 8.49-.16 2.91-.08 5.75 0 8.57l27.52-1.17c0-2.05-.08-4.17.08-6.21z"/><path fill="url(#grd20)" d="M35.62 138.7c-.24-5.74 0-10.07.63-15.73l24.76 3.3c-.47 4.17-.63 7.39-.47 11.25l-24.92 1.18z"/><path fill="url(#grd21)" d="M62.35 144.36c-.24-2.05-.4-4.17-.47-6.21l-27.52 1.17c.15 2.83.31 5.67.7 8.49.4 2.84.87 5.67 1.5 8.42l26.97-5.82c-.55-1.97-.87-4.01-1.18-6.05z"/><path fill="url(#grd22)" d="M37.66 155.44c-1.18-5.58-1.73-9.9-1.97-15.56l25.01-.95c.23 4.17.63 7.39 1.41 11.17l-24.45 5.34z"/><path fill="url(#grd23)" d="M64.94 156.46c-.63-1.96-1.1-4.01-1.57-6.05l-26.97 5.82c.63 2.75 1.26 5.5 2.13 8.25.86 2.76 1.8 5.43 2.91 8.1l25.55-10.3c-.71-1.88-1.42-3.85-2.05-5.82z"/><path fill="url(#grd24)" d="M42.46 171.56c-2.13-5.35-3.38-9.43-4.64-15.02l24.45-5.19c.94 4.09 1.89 7.16 3.3 10.78l-23.11 9.43z"/><path fill="url(#grd25)" d="M69.58 168.02c-.94-1.89-1.81-3.77-2.51-5.66l-25.56 10.22c1.03 2.6 2.2 5.27 3.54 7.79 1.34 2.59 2.67 5.03 4.17 7.47l23.43-14.47a74.67 74.67 0 0 1-3.07-5.35z"/><path fill="url(#grd26)" d="M50 186.66c-2.98-4.88-4.87-8.73-7.07-14l23.27-9.2c1.57 3.86 3.07 6.69 5.03 10.07L50 186.66z"/><path fill="url(#grd27)" d="M76.11 178.56c-1.26-1.65-2.36-3.38-3.46-5.19l-23.43 14.47c1.49 2.43 3.06 4.79 4.8 7.07 1.73 2.28 3.53 4.48 5.42 6.69l20.68-18.25c-1.42-1.49-2.75-3.14-4.01-4.79z"/><path fill="url(#grd28)" d="M59.91 200.34c-3.77-4.33-6.29-7.78-9.35-12.66l21.3-12.97c2.2 3.54 4.17 6.13 6.69 9.04l-18.64 16.59z"/><path fill="url(#grd29)" d="M84.37 187.91c-1.5-1.41-2.91-2.98-4.33-4.48l-20.68 18.25c1.89 2.12 3.86 4.16 5.9 6.21 2.04 1.96 4.24 3.85 6.45 5.66L89 192.08c-1.57-1.41-3.14-2.75-4.63-4.17z"/><path fill="url(#grd30)" d="M72.02 212.05c-4.4-3.61-7.55-6.6-11.32-10.85l18.87-16.43c2.75 3.14 5.11 5.35 8.1 7.78l-15.65 19.5z"/><path fill="url(#grd31)" d="M93.96 195.7c-1.74-1.18-3.39-2.44-4.96-3.7l-17.3 21.47c2.21 1.81 4.49 3.46 6.84 5.11 2.36 1.65 4.8 3.07 7.32 4.48L99.3 199c-1.81-1.1-3.61-2.12-5.34-3.3z"/><path fill="url(#grd32)" d="M85.94 221.57c-4.96-2.83-8.57-5.27-13.05-8.81l15.8-19.42c3.3 2.59 5.97 4.4 9.35 6.29l-12.1 21.94z"/><path fill="url(#grd33)" d="M104.81 201.75c-1.89-.86-3.78-1.81-5.51-2.83l-13.44 24.06c2.43 1.42 5.03 2.68 7.63 3.85 2.59 1.18 5.26 2.21 7.94 3.15l9.2-25.95c-1.97-.63-3.86-1.41-5.82-2.28z"/><path fill="url(#grd34)" d="M101.27 228.64c-5.35-1.96-9.36-3.69-14.31-6.45l12.26-21.77c3.7 2.04 6.61 3.3 10.31 4.64l-8.26 23.58z"/><path fill="url(#grd35)" d="M116.52 205.92c-2.04-.55-4.01-1.18-5.97-1.81l-9.2 25.95c2.67.94 5.34 1.81 8.17 2.51 2.76.71 5.59 1.34 8.34 1.81l4.64-27.12c-1.89-.4-3.93-.87-5.98-1.34z"/><path fill="url(#grd36)" d="M117.62 232.97c-5.66-1.02-9.83-2.12-15.17-3.93l8.41-23.51c3.93 1.33 7.08 2.12 10.93 2.83l-4.17 24.61z"/><path fill="url(#grd37)" d="M128.79 207.96c-2.12-.15-4.17-.47-6.13-.78l-4.64 27.12c2.75.47 5.58.87 8.49 1.1 2.91.24 5.74.32 8.57.32V208.2c-2.12 0-4.25 0-6.29-.24z"/><path fill="url(#grd38)" d="M134.45 234.54c-5.74 0-9.99-.39-15.65-1.34l4.33-24.61c4.09.71 7.31.95 11.24.95l.08 25z"/><path fill="url(#grd39)" d="M141.21 207.96c-2.12.16-4.17.24-6.21.24v27.52c2.83 0 5.66-.08 8.57-.32 2.91-.23 5.66-.63 8.49-1.1l-4.64-27.12c-2.04.31-4.17.63-6.21.78z"/><path fill="url(#grd40)" d="M151.2 233.2c-5.66.95-9.99 1.34-15.65 1.34l.08-25c4.17 0 7.39-.32 11.24-.95l4.33 24.61z"/><path fill="url(#grd41)" d="M153.48 205.92c-2.05.55-4.09.94-6.06 1.26l4.64 27.12c2.75-.47 5.59-1.02 8.34-1.8 2.75-.71 5.5-1.58 8.17-2.52l-9.19-25.95c-1.97.71-3.94 1.34-5.9 1.89z"/><path fill="url(#grd42)" d="M167.55 229.04c-5.42 1.88-9.59 2.98-15.17 3.93l-4.09-24.69c4.09-.71 7.23-1.57 10.93-2.83l8.33 23.59z"/><path fill="url(#grd43)" d="M165.11 201.75c-1.89.87-3.85 1.65-5.74 2.28l9.2 25.95c2.68-.94 5.35-1.97 7.94-3.15 2.6-1.17 5.19-2.51 7.63-3.85l-13.45-24.06c-1.8 1.02-3.61 1.97-5.58 2.83z"/><path fill="url(#grd44)" d="M183.04 222.19c-5.03 2.76-8.96 4.57-14.31 6.45l-8.26-23.58c3.94-1.42 6.84-2.76 10.3-4.64l12.27 21.77z"/><path fill="url(#grd45)" d="M175.96 195.7a62.104 62.104 0 0 1-5.27 3.22l13.45 24.06c2.44-1.41 4.87-2.83 7.31-4.48 2.36-1.65 4.64-3.3 6.84-5.11L181 191.93c-1.58 1.33-3.31 2.59-5.04 3.77z"/><path fill="url(#grd46)" d="M197.03 212.76c-4.48 3.54-8.02 5.98-13.05 8.81l-12.03-21.86c3.62-2.05 6.29-3.86 9.36-6.29l15.72 19.34z"/><path fill="url(#grd47)" d="M185.63 187.92c-1.49 1.41-3.06 2.83-4.64 4.08l17.3 21.47c2.2-1.81 4.33-3.62 6.45-5.66 2.04-1.97 4.01-4.09 5.9-6.21l-20.68-18.25a57.664 57.664 0 0 1-4.33 4.57z"/><path fill="url(#grd48)" d="M209.3 201.2c-3.77 4.25-6.92 7.24-11.32 10.85l-15.65-19.5c3.23-2.67 5.51-4.87 8.1-7.78l18.87 16.43z"/><path fill="url(#grd49)" d="M193.89 178.56a86.01 86.01 0 0 1-3.93 4.8l20.68 18.24c1.88-2.13 3.69-4.33 5.42-6.61 1.73-2.36 3.3-4.71 4.8-7.07l-23.43-14.47c-1.18 1.73-2.36 3.46-3.54 5.11z"/><path fill="url(#grd50)" d="M219.37 187.68c-2.99 4.88-5.59 8.33-9.36 12.66l-18.72-16.59c2.76-3.15 4.64-5.74 6.69-9.04l21.39 12.97z"/><path fill="url(#grd51)" d="M200.34 168.02c-.95 1.89-1.97 3.7-3.07 5.43l23.43 14.46c1.49-2.43 2.91-4.87 4.17-7.47 1.26-2.59 2.44-5.18 3.54-7.78l-25.48-10.3c-.78 1.89-1.65 3.77-2.59 5.66z"/><path fill="url(#grd52)" d="M227.07 172.66c-2.12 5.27-4.09 9.12-7.08 14.08l-21.23-13.21c2.21-3.54 3.62-6.45 5.04-10.07l23.27 9.2z"/><path fill="url(#grd53)" d="M204.97 156.47c-.62 1.96-1.33 3.93-2.12 5.81l25.55 10.3c1.03-2.59 2.05-5.26 2.91-8.02.87-2.75 1.5-5.5 2.13-8.25l-26.97-5.82c-.32 1.97-.87 4.01-1.5 5.98z"/><path fill="url(#grd54)" d="M232.1 156.54c-1.26 5.59-2.52 9.75-4.56 15.02l-23.19-9.43c1.49-3.86 2.43-7 3.3-10.78l24.45 5.19z"/><path fill="url(#grd55)" d="M207.65 144.36c-.24 2.04-.63 4.09-1.1 6.13l26.97 5.82c.63-2.75 1.1-5.58 1.49-8.41.39-2.84.55-5.66.71-8.5l-27.52-1.18c-.16 1.97-.32 4.02-.55 6.14z"/><path fill="url(#grd56)" d="M234.38 139.8c-.31 5.74-.78 9.98-1.96 15.57l-24.46-5.35c.87-4.09 1.26-7.31 1.42-11.17l25 .95z"/><path fill="url(#grd57)" d="M208.12 131.94c.08 2.12.08 4.16 0 6.21l27.52 1.17c.16-2.82.16-5.66 0-8.57-.16-2.9-.39-5.73-.79-8.49l-27.36 3.54c.39 1.97.55 4.01.63 6.14z"/><path fill="url(#grd58)" d="M233.75 122.97c.71 5.66.87 9.99.71 15.73l-25-1.18c.16-4.17 0-7.39-.47-11.25l24.76-3.3z"/><path fill="url(#grd59)" d="M206.55 119.59c.47 2.04.78 4.09 1.02 6.13l27.36-3.54c-.39-2.83-.78-5.58-1.41-8.41-.63-2.83-1.34-5.58-2.21-8.25l-26.33 8.09c.62 1.97 1.17 3.93 1.57 5.98z"/><path fill="url(#grd60)" d="M230.29 106.46c1.65 5.5 2.52 9.67 3.31 15.33l-24.85 3.07c-.55-4.17-1.26-7.24-2.36-11.01l23.9-7.39z"/><path fill="url(#grd61)" d="M202.93 107.72c.79 1.96 1.42 3.93 2.05 5.89l26.34-8.1c-.79-2.67-1.73-5.42-2.83-8.09a120.4 120.4 0 0 0-3.54-7.79l-24.61 12.43c.94 1.88 1.81 3.69 2.59 5.66z"/><path fill="url(#grd62)" d="M224.08 90.73c2.52 5.11 4.17 9.12 5.9 14.55l-23.9 7.23c-1.26-4.01-2.44-6.92-4.17-10.45l22.17-11.33z"/><path fill="url(#grd63)" d="M197.35 96.63c1.1 1.81 2.12 3.62 2.99 5.43l24.61-12.43c-1.26-2.51-2.67-5.03-4.17-7.47-1.49-2.43-3.14-4.79-4.79-7.07l-22.18 16.35c1.26 1.73 2.44 3.38 3.54 5.19z"/><path fill="url(#grd64)" d="M215.35 76.35c3.38 4.63 5.66 8.33 8.26 13.36l-22.41 11.17c-1.89-3.7-3.62-6.45-5.9-9.6l20.05-14.93z"/><path fill="url(#grd65)" d="M189.96 86.64c1.41 1.58 2.67 3.23 3.93 4.88l22.09-16.43c-1.65-2.28-3.46-4.48-5.34-6.69-1.89-2.2-3.93-4.16-5.98-6.13l-19.03 19.89c1.5 1.42 2.99 2.91 4.33 4.48z"/><path fill="url(#grd66)" d="M204.27 63.61c4.09 4.01 7 7.23 10.38 11.79l-20.13 14.78c-2.52-3.3-4.64-5.74-7.47-8.41l17.22-18.16z"/><path fill="url(#grd67)" d="M181 78.08c1.65 1.33 3.14 2.67 4.63 4.08l19.03-19.89c-2.04-1.96-4.16-3.85-6.37-5.66-2.28-1.81-4.56-3.46-6.91-5.03l-15.42 22.8c1.73 1.18 3.38 2.36 5.04 3.7z"/><path fill="url(#grd68)" d="M191.22 52.92c4.72 3.22 8.1 5.97 12.26 9.9l-17.37 18.01c-2.99-2.83-5.59-4.88-8.73-7.08l13.84-20.83z"/><path fill="url(#grd69)" d="M170.69 71.08c1.81 1.02 3.54 2.12 5.27 3.3l15.41-22.8c-2.36-1.57-4.71-3.07-7.23-4.48a97.43 97.43 0 0 0-7.63-3.86l-11.32 25.09c1.81.86 3.7 1.73 5.5 2.75z"/><path fill="url(#grd70)" d="M176.52 44.66c5.19 2.36 8.96 4.48 13.68 7.63l-14.08 20.68c-3.46-2.28-6.29-3.86-9.83-5.51l10.23-22.8z"/><path fill="url(#grd71)" d="M159.37 65.97c1.97.7 3.85 1.49 5.74 2.36l11.33-25.09c-2.6-1.18-5.19-2.28-7.95-3.22-2.75-.94-5.42-1.73-8.17-2.52l-6.92 26.66c2.04.55 4.01 1.1 5.97 1.81z"/><path fill="url(#grd72)" d="M160.63 38.92c5.51 1.49 9.59 2.91 14.78 5.19l-10.38 22.72c-3.77-1.73-6.84-2.75-10.61-3.77l6.21-24.14z"/><path fill="url(#grd73)" d="M147.34 62.82c2.05.39 4.09.79 6.06 1.34l6.92-26.66c-2.75-.7-5.51-1.33-8.34-1.8-2.83-.48-5.66-.79-8.49-1.03l-2.36 27.44c2.13.16 4.17.4 6.21.71z"/><path fill="url(#grd74)" d="M144.04 35.93c5.66.55 9.99 1.26 15.49 2.67l-6.37 24.14c-4.01-1.02-7.23-1.57-11.09-1.88l1.97-24.93z"/><path d="M103.24 13.13l6.36 24.37c2.75-.7 5.51-1.33 8.34-1.8 2.83-.48 5.66-.79 8.49-1.1l-2.12-25.16c-3.54.31-7.08.78-10.62 1.33-3.54.71-7 1.5-10.45 2.36zM64.47 30.66l14.15 20.92c2.36-1.57 4.8-3.07 7.24-4.48 2.51-1.42 5.03-2.68 7.62-3.86L83.11 20.21c-3.23 1.49-6.45 3.06-9.52 4.79-3.14 1.81-6.21 3.7-9.12 5.66zM33.73 60.15l20.28 14.94c1.65-2.28 3.46-4.48 5.35-6.68 1.89-2.13 3.93-4.17 5.9-6.14L47.8 44.03c-2.51 2.44-5.03 5.03-7.39 7.71-2.36 2.75-4.56 5.5-6.68 8.41zM14.55 98.13l24.13 7.39c.87-2.68 1.73-5.43 2.83-8.1s2.28-5.27 3.54-7.78L22.57 78.31c-1.58 3.15-3.07 6.37-4.41 9.75-1.41 3.3-2.59 6.69-3.61 10.07zM9.12 140.35l25.16-1.1c-.08-2.83-.16-5.66 0-8.57s.39-5.74.79-8.49l-25.01-3.23c-.47 3.54-.78 7.08-.94 10.69-.16 3.62-.16 7.16 0 10.7zM18.08 182.02l23.43-9.44c-1.02-2.59-2.04-5.27-2.91-8.1-.86-2.75-1.49-5.5-2.12-8.25l-24.61 5.34c.79 3.46 1.65 6.92 2.67 10.38 1.02 3.39 2.28 6.77 3.54 10.07zM40.41 218.26l18.95-16.67a89.592 89.592 0 0 1-5.42-6.68c-1.74-2.28-3.31-4.72-4.8-7.07l-21.47 13.2c1.89 2.99 3.86 5.98 5.98 8.89 2.2 2.91 4.48 5.66 6.76 8.33zM73.59 245l12.27-22.02c-2.44-1.41-4.88-2.83-7.32-4.48-2.35-1.57-4.63-3.3-6.84-5.11l-15.88 19.58c2.76 2.2 5.59 4.32 8.57 6.37 3.07 2.04 6.06 3.93 9.2 5.66zM113.69 259.23l4.25-24.85c-2.83-.47-5.59-1.02-8.34-1.81-2.75-.7-5.5-1.57-8.17-2.51l-8.42 23.74c3.31 1.18 6.77 2.2 10.23 3.15 3.53.86 6.99 1.65 10.45 2.28zM156.31 259.23l-4.25-24.85c-2.83.48-5.58.87-8.49 1.1-2.91.24-5.74.32-8.57.32v25.24c3.54 0 7.07-.16 10.69-.48 3.54-.31 7.08-.78 10.62-1.33zM196.41 245l-12.27-22.02c-2.44 1.42-5.03 2.68-7.63 3.85-2.59 1.18-5.26 2.21-7.94 3.15l8.42 23.75c3.3-1.18 6.6-2.52 9.9-4.02 3.3-1.33 6.45-2.98 9.52-4.71zM229.58 218.26l-18.95-16.66c-1.88 2.12-3.85 4.16-5.89 6.21-2.05 1.96-4.25 3.85-6.45 5.66l15.81 19.66c2.75-2.21 5.42-4.57 8.02-7.08 2.67-2.6 5.11-5.11 7.46-7.79zM251.91 182.02l-23.43-9.44c-1.1 2.6-2.2 5.27-3.54 7.79-1.33 2.59-2.67 5.03-4.16 7.47l21.46 13.21c1.89-2.99 3.62-6.14 5.19-9.36 1.65-3.15 3.15-6.45 4.48-9.67zM260.88 140.35l-25.16-1.1c-.16 2.83-.32 5.66-.71 8.49-.39 2.83-.86 5.66-1.49 8.41l24.69 5.35c.7-3.46 1.33-7 1.8-10.54.4-3.54.71-7.08.87-10.61zM255.45 98.13l-24.14 7.39c.87 2.67 1.58 5.42 2.2 8.25a80.28 80.28 0 0 1 1.42 8.41l25-3.22c-.47-3.54-1.02-7-1.8-10.53-.71-3.46-1.66-6.92-2.68-10.3zM236.27 60.15l-20.29 14.94c1.65 2.28 3.3 4.64 4.8 7.07 1.49 2.44 2.91 4.96 4.16 7.47l22.49-11.32c-1.57-3.14-3.3-6.29-5.19-9.36-1.88-3.06-3.85-5.97-5.97-8.8zM205.53 30.66l-14.16 20.92c2.36 1.57 4.64 3.22 6.92 5.03 2.2 1.81 4.33 3.7 6.37 5.66l17.46-18.24c-2.52-2.44-5.19-4.8-8.02-7.08-2.76-2.2-5.66-4.32-8.57-6.29zM166.76 13.13L160.4 37.5c2.75.71 5.5 1.5 8.17 2.52 2.75.94 5.35 2.04 7.94 3.22l10.38-23.03c-3.22-1.5-6.52-2.75-9.9-4.01-3.39-1.18-6.85-2.2-10.23-3.07z" class="shp75"/><path d="M83.1 20.21l10.38 22.96c2.6-1.18 5.19-2.28 7.95-3.23 2.75-.94 5.42-1.73 8.17-2.51l-6.37-24.38c-3.46.87-6.84 1.97-10.22 3.15-3.38 1.26-6.68 2.59-9.91 4.01zM47.8 44.11l17.46 18.24c2.04-1.97 4.16-3.85 6.37-5.66 2.28-1.81 4.56-3.46 6.91-5.03L64.39 30.74c-2.91 1.97-5.82 4.09-8.57 6.37-2.75 2.12-5.42 4.48-8.02 7zM22.49 78.31l22.48 11.32c1.26-2.51 2.68-5.03 4.17-7.47 1.49-2.43 3.14-4.79 4.8-7.07L33.73 60.15c-2.12 2.83-4.09 5.82-5.98 8.88-1.88 2.99-3.61 6.14-5.26 9.28zM10.06 119.04l25 3.22c.4-2.83.79-5.58 1.42-8.41.63-2.83 1.34-5.58 2.2-8.26L14.54 98.2c-1.02 3.38-1.96 6.84-2.67 10.38-.79 3.46-1.42 6.92-1.81 10.46zM11.87 161.57l24.69-5.34c-.63-2.75-1.1-5.58-1.49-8.41-.4-2.83-.56-5.66-.71-8.5L9.2 140.43c.15 3.53.47 7.07.94 10.69.32 3.46.94 7 1.73 10.45zM27.75 201.04l21.47-13.2c-1.5-2.44-2.91-4.88-4.17-7.47-1.34-2.6-2.44-5.19-3.54-7.79l-23.43 9.44c1.34 3.3 2.75 6.52 4.4 9.75 1.66 3.22 3.39 6.29 5.27 9.27zM55.82 233.05l15.8-19.58c-2.2-1.81-4.32-3.62-6.44-5.66-2.05-1.97-4.01-4.09-5.9-6.21l-18.95 16.66c2.36 2.68 4.8 5.27 7.39 7.71 2.67 2.52 5.35 4.87 8.1 7.08zM93.01 253.8l8.42-23.74c-2.68-.94-5.35-1.97-7.94-3.15-2.6-1.18-5.19-2.51-7.63-3.85l-12.27 22.02c3.07 1.73 6.29 3.3 9.52 4.79 3.3 1.42 6.6 2.75 9.9 3.93zM135 261.04V235.8c-2.83 0-5.66-.08-8.57-.32-2.91-.23-5.66-.62-8.49-1.1l-4.25 24.85c3.46.63 7 1.02 10.62 1.33 3.61.32 7.15.48 10.69.48zM176.98 253.8l-8.41-23.74c-2.67.94-5.43 1.81-8.18 2.51-2.75.71-5.58 1.34-8.33 1.81l4.24 24.85c3.46-.63 7-1.34 10.46-2.28 3.46-.95 6.84-1.97 10.22-3.15zM214.1 233.05l-15.81-19.66c-2.2 1.81-4.48 3.46-6.84 5.11-2.36 1.65-4.79 3.07-7.31 4.48L196.41 245c3.06-1.73 6.13-3.62 9.12-5.59 2.98-2.04 5.82-4.16 8.57-6.36zM242.24 201.04l-21.46-13.2c-1.5 2.43-3.07 4.79-4.8 7.07-1.73 2.28-3.54 4.48-5.42 6.61l18.94 16.67c2.36-2.68 4.56-5.43 6.77-8.34 2.12-2.83 4.16-5.74 5.97-8.81zM258.13 161.57l-24.62-5.34c-.62 2.75-1.25 5.5-2.12 8.25-.86 2.76-1.81 5.43-2.91 8.02l23.43 9.44c1.34-3.3 2.52-6.6 3.54-10.06 1.02-3.39 1.97-6.85 2.68-10.31z" class="shp76"/><path fill="#bd555a" d="M259.94 119.04l-25.01 3.22c.39 2.83.63 5.66.79 8.49.16 2.91.08 5.74 0 8.57l25.16 1.11c.16-3.54.16-7.08 0-10.7-.16-3.61-.47-7.23-.94-10.69z"/><path d="M247.51 78.31l-22.48 11.32c1.25 2.52 2.43 5.11 3.53 7.79 1.11 2.67 1.97 5.34 2.83 8.09l24.14-7.39c-1.02-3.38-2.2-6.76-3.53-10.06-1.42-3.38-2.91-6.6-4.49-9.75zM222.19 44.11l-17.45 18.24c2.04 1.97 4.01 4.01 5.97 6.13 1.89 2.21 3.7 4.41 5.35 6.69l20.29-15.02c-2.13-2.83-4.33-5.58-6.69-8.34-2.44-2.75-4.95-5.26-7.47-7.7zM186.89 20.21l-10.38 22.96c2.6 1.18 5.11 2.43 7.63 3.85 2.52 1.41 4.95 2.91 7.23 4.48l14.16-20.91c-2.91-1.97-5.98-3.86-9.12-5.59-3.15-1.73-6.29-3.3-9.52-4.79zM145.69 9.51l-2.12 25.16c2.83.24 5.66.55 8.49 1.03 2.83.47 5.59 1.1 8.34 1.8l6.36-24.37c-3.45-.86-6.91-1.65-10.45-2.28-3.54-.63-7.08-1.02-10.62-1.34z" class="shp76"/><path fill-rule="evenodd" d="M132.33 18.16c0-1.18.15-2.04.55-2.59.39-.55 1.1-.87 2.12-.87s1.73.32 2.12.87c.39.55.55 1.49.55 2.67v6.29c0 1.26-.16 2.12-.55 2.75-.39.63-1.1.95-2.12.95s-1.73-.32-2.12-.95c-.4-.63-.55-1.57-.55-2.75v-6.37zm3.77-.08c0-1.25-.24-1.96-.79-2.04h-.39c-.16 0-.31 0-.47.08-.16.08-.32.23-.39.55-.16.31-.16.78-.16 1.49v6.53c0 1.18.16 1.89.47 2.12.16.16.31.16.55.16h.47c.08 0 .24-.08.32-.16.31-.23.47-.94.47-2.12v-6.61h-.08z" class="shp78"/><path d="M110.07 21.86c-.31-2.05-.31-3.3 0-3.85.16-.24.24-.4.4-.56.31-.23.7-.47 1.25-.55 1.42-.23 2.36.87 2.75 3.23.24 1.18.08 2.44-.31 3.69-.16.55-.39 1.1-.55 1.65-.47 1.34-.71 2.52-.71 3.62l2.83-.47.24 1.18-4.32.71-.16-.71c-.16-1.02.08-2.52.7-4.64 0 0 .08-.31.32-1.02.24-.63.31-1.02.39-1.18.08-.32.16-.79.16-1.26 0-.55 0-1.02-.08-1.57s-.23-.95-.31-1.26c-.16-.31-.24-.55-.4-.63-.15-.08-.23-.08-.39-.08s-.23.08-.31.16c-.32.31-.4 1.02-.16 2.28l.31 1.73-1.49.24-.16-.71z" class="shp78"/><path fill-rule="evenodd" d="M118.01 21.62c.24-.47.79-.78 1.5-.94.78-.16 1.33.08 1.8.63.48.55.79 1.49 1.03 2.99l.15.78c.24 1.18.16 2.12-.08 2.75-.23.63-.86 1.1-1.88 1.26-1.26.24-2.12-.16-2.68-1.18-.31-.55-.55-1.33-.7-2.36l-.95-5.5c-.23-1.42-.23-2.44.08-3.07.32-.63.95-1.1 1.81-1.25.94-.16 1.57 0 2.04.47.4.47.71 1.33.95 2.59l.08.47-1.5.24-.07-.24c-.24-1.18-.4-1.88-.56-2.04-.15-.16-.47-.24-.86-.16-.39.08-.63.32-.71.63-.08.39 0 1.02.16 2.04l.39 1.89zm2.83 2.91a8.209 8.209 0 0 0-.55-2.04c-.23-.4-.55-.47-.94-.4-.32.08-.55.16-.71.32-.23.16-.31.31-.39.39l.47 2.75c.16.87.31 1.5.55 1.81.24.32.55.47 1.02.39.32-.07.47-.15.63-.31.24-.24.32-.94.08-1.97l-.16-.94z" class="shp78"/><path d="M98.2 27.13c1.02.08 1.81.94 2.44 2.67.39 1.18.55 2.2.31 2.91-.15.71-.7 1.26-1.57 1.57-.86.32-1.57.24-2.12-.16-.55-.47-1.02-1.25-1.5-2.43l-.15-.55 1.41-.48.24.56c.31.86.55 1.49.78 1.72.24.24.55.32.95.16.39-.16.63-.39.63-.78 0-.4-.16-1.03-.47-1.97-.32-.94-.63-1.49-.95-1.81-.31-.31-.7-.39-1.26-.16l-.39.16-.39-1.18.39-.15c.32-.16.63-.24.71-.48.31-.39.24-1.1-.16-2.2v-.08c-.31-.86-.55-1.33-.86-1.57-.32-.16-.55-.24-.87-.16-.31.08-.47.32-.55.71-.08.32.08.94.32 1.65l.08.32-1.42.47-.08-.32c-.39-1.1-.47-2.04-.31-2.67.15-.63.7-1.1 1.57-1.41.86-.32 1.57-.24 2.2.15.55.4 1.1 1.18 1.49 2.28.32 1.5.24 2.6-.47 3.23zM77.68 36.64c1.02-.08 1.96.63 2.83 2.2.63 1.1.94 2.04.86 2.83-.08.79-.47 1.34-1.33 1.81-.79.47-1.5.47-2.12.16-.63-.32-1.26-1.1-1.89-2.21l-.32-.55 1.34-.7.31.55c.48.78.79 1.33 1.11 1.57.23.24.62.24.94 0 .39-.24.55-.55.47-.94-.08-.4-.31-1.03-.79-1.89-.47-.87-.86-1.42-1.25-1.65-.4-.24-.79-.24-1.26 0l-.39.23-.63-1.1.39-.23c.31-.16.55-.4.63-.55.23-.4.08-1.1-.55-2.13-.4-.78-.79-1.25-1.1-1.33a1 1 0 0 0-.95 0c-.31.15-.47.39-.39.78 0 .32.24.87.63 1.58l.16.31-1.34.71-.16-.32c-.55-1.02-.86-1.88-.78-2.59.07-.71.47-1.26 1.25-1.65.79-.47 1.5-.55 2.13-.24.63.32 1.25.95 1.81 1.97.94 1.57 1.02 2.59.39 3.38zM80.9 32.79c0-.4.24-.79.87-1.1.31-.16.63-.24.94-.16.71.16 1.57 1.18 2.6 2.99.78 1.41 1.25 2.36 1.41 2.75.16.39.24.71.24.94.15.79-.24 1.5-1.1 1.97-1.34.78-2.44.39-3.23-1.1l-.7-1.26 1.33-.71.71 1.26c.16.31.39.55.63.71.23.15.47.15.71 0 .23-.16.39-.32.39-.55 0-.24-.08-.55-.32-.95l-1.96-3.46c-.24-.47-.47-.78-.71-.94-.23-.16-.47-.16-.71 0-.47.31-.55.87-.07 1.65l-1.26.55-3.23-5.74 3.62-2.04.71 1.26-2.36 1.33 1.49 2.6zM56.77 43.56l.86-.71 8.34 10.3-1.18.94-7-8.64c0 .23-.08.55-.24.78-.15.32-.39.55-.63.71l-.7-.86c.31-.32.47-.71.63-1.18.07-.32.07-.87-.08-1.34zM62.35 44.74c-1.34-1.57-1.97-2.75-1.89-3.38 0-.24.08-.47.16-.63.16-.39.39-.71.86-1.1 1.1-.95 2.44-.4 4.02 1.49.78.95 1.25 2.05 1.49 3.38.08.55.23 1.1.31 1.73.24 1.42.63 2.6 1.18 3.54l2.28-1.81.71.95-3.46 2.75-.47-.55c-.63-.79-1.18-2.2-1.57-4.41 0 0-.08-.31-.24-1.02-.16-.71-.23-1.1-.23-1.18-.08-.31-.24-.71-.48-1.18-.23-.47-.55-.86-.86-1.33-.32-.4-.63-.71-.87-.95-.23-.23-.47-.31-.63-.31-.15 0-.31 0-.39.16-.16.07-.24.23-.24.31-.15.39.16 1.1 1.03 2.12l1.1 1.34-1.18.94-.63-.86zM44.5 62.66c-1.57-1.33-2.36-2.35-2.44-2.98v-.63c.08-.4.32-.79.71-1.26.94-1.1 2.36-.87 4.17.79.94.78 1.57 1.8 2.04 3.06.24.55.4 1.1.55 1.65.47 1.34 1.03 2.44 1.73 3.31l1.89-2.21.87.79-2.91 3.3-.55-.47c-.79-.63-1.5-2.04-2.36-4.01 0 0-.16-.31-.4-1.02-.23-.63-.39-1.02-.39-1.18-.16-.31-.31-.71-.63-1.1-.31-.39-.71-.79-1.1-1.18-.39-.32-.71-.63-1.02-.79-.32-.15-.55-.23-.71-.23-.16 0-.31.08-.39.15-.08.08-.16.24-.16.32-.08.39.39 1.02 1.34 1.89l1.25 1.1-1.02 1.18-.47-.48z" class="shp78"/><path fill-rule="evenodd" d="M47.8 57.08c-.86-.78-1.33-1.49-1.49-2.12-.16-.63.08-1.26.71-1.97.63-.7 1.26-1.02 1.89-.94.62.08 1.41.47 2.28 1.26 1.1 1.02 1.65 1.89 1.57 2.75.39-.08.94 0 1.49.32.63.23 1.18.62 1.73 1.1l.39.31c.87.79 1.34 1.49 1.5 2.12.16.63-.08 1.34-.71 1.97-.55.63-1.18.94-1.89.94-.7 0-1.41-.39-2.28-1.18-.07 0-.23-.23-.7-.55-.4-.31-.79-.78-1.1-1.41-.32-.55-.48-1.1-.4-1.5-.86.32-1.88-.07-2.99-1.1zm3.7-.7c0-.16-.16-.48-.31-.79-.24-.32-.55-.63-.95-1.02-.39-.4-.71-.63-.94-.79-.24-.16-.47-.24-.63-.31-.16 0-.32 0-.39.07-.08.08-.24.16-.4.32-.15.16-.23.31-.23.47 0 .32.39.94 1.26 1.65.86.79 1.49 1.18 1.96 1.1.16 0 .32-.08.47-.23.16-.16.24-.32.16-.47zm3.3 2.2c-.71-.63-1.26-.95-1.65-1.1-.47-.16-.79-.16-.94.07-.24.24-.24.56 0 1.03.23.47.63.94 1.33 1.57l.4.31c.63.55 1.1.87 1.41.95.32.08.63 0 .87-.32.23-.31.31-.55.31-.78-.08-.24-.16-.48-.47-.71-.24-.24-.55-.47-.79-.71l-.47-.31z" class="shp78"/><path d="M31.21 74.14l2.76-4.48.94.63c.08.08.39.39.86 1.02.56.63 1.11 1.34 1.66 1.97 1.96 2.2 4.08 4.09 6.36 5.66l-.86 1.42c-2.2-1.66-4.4-3.7-6.6-6.22a42.57 42.57 0 0 1-1.58-1.81c-.31-.39-.47-.62-.47-.62l-1.96 3.22-1.11-.79zM25.55 97.02c-1.88-.78-2.99-1.41-3.3-2.04-.08-.24-.16-.39-.24-.63-.07-.39 0-.87.24-1.41.55-1.34 1.97-1.58 4.25-.63 1.1.47 2.12 1.17 2.98 2.2.4.47.71.86 1.1 1.33.87 1.1 1.81 1.97 2.76 2.52l1.1-2.67 1.1.47-1.65 4.09-.71-.32c-.94-.39-2.12-1.41-3.54-3.06 0 0-.23-.24-.71-.79-.47-.55-.7-.86-.78-.94-.24-.24-.55-.55-1.02-.87-.48-.31-.87-.55-1.42-.71-.47-.23-.87-.31-1.26-.39-.31-.08-.55-.08-.71 0-.15.08-.23.16-.31.31-.08.16-.08.24-.08.4.08.39.71.86 1.89 1.34l1.57.62-.55 1.42-.71-.24z" class="shp78"/><path fill-rule="evenodd" d="M27.28 91.2c-.94-.39-1.65-.7-1.96-1.02-.4-.31-.63-.55-.79-.86-.31-.55-.31-1.26 0-1.97.31-.78.71-1.26 1.26-1.41.55-.16 1.26-.16 2.12.15.32.08.79.24 1.26.48l4.95 1.96c1.65.71 2.68 1.34 2.99 2.05.24.55.24 1.18-.08 1.88-.31.71-.78 1.18-1.41 1.26-.63.16-1.58 0-2.76-.47l-.47-.16.55-1.33.24.07c1.1.48 1.81.63 2.12.56.24-.08.47-.24.55-.56.16-.31.08-.55-.16-.78-.23-.24-.7-.47-1.49-.79l-1.89-.79c.08.32.08.71-.15 1.19-.32.86-.87 1.33-1.65 1.41-.79.08-1.73-.16-2.99-.71l-.24-.16zm1.1-3.3c-.78-.31-1.33-.47-1.65-.47-.31 0-.55 0-.71.08-.15.08-.23.24-.31.39-.16.4-.08.71.24.95.31.23.86.55 1.65.86l.7.32c.95.39 1.58.55 1.97.55.39 0 .71-.16.86-.63.16-.48.16-.79-.07-1.03l-2.68-1.02z" class="shp78"/><path d="M16.75 112.98l.23-1.1 12.98 2.83-.32 1.5-10.93-2.36c.16.23.24.47.32.78.08.32 0 .63 0 .95l-1.03-.24c0-.39-.07-.86-.23-1.26-.32-.47-.63-.86-1.02-1.1z" class="shp78"/><path fill-rule="evenodd" d="M20.44 110.39c-1.1-.24-1.88-.63-2.36-1.1-.39-.47-.55-1.18-.31-2.04.16-.87.55-1.5 1.18-1.74.55-.23 1.41-.23 2.59 0 1.5.32 2.36.87 2.68 1.66.31-.24.78-.48 1.49-.48.71-.07 1.34 0 2.04.16l.56.08c1.1.24 1.88.63 2.35 1.18.48.47.55 1.18.4 2.04-.16.87-.55 1.42-1.18 1.73-.63.32-1.5.32-2.6.16-.08 0-.31-.08-.86-.16-.55-.07-1.1-.31-1.65-.7-.55-.32-.95-.71-1.1-1.11-.63.56-1.73.63-3.23.32zm2.99-2.44c-.08-.16-.31-.31-.63-.47-.31-.16-.78-.31-1.34-.39-.55-.08-.94-.16-1.25-.24-.32 0-.48 0-.63.08-.16.08-.24.16-.32.24-.08.08-.08.23-.15.47-.08.23 0 .39 0 .55.15.31.78.63 1.96.86 1.18.24 1.89.24 2.2 0 .16-.08.24-.23.32-.47-.08-.31-.08-.47-.16-.63zm3.93.32c-.86-.16-1.57-.24-2.04-.16-.47.08-.71.23-.79.55-.08.31.08.63.47.87.4.31 1.03.54 1.89.7l.47.08c.79.16 1.34.24 1.65.16.32-.08.55-.32.63-.63.08-.39.08-.63-.08-.79-.15-.15-.39-.31-.7-.39-.32-.08-.71-.16-1.03-.24l-.47-.15z" class="shp78"/><path d="M19.11 135.63c-2.05-.08-3.31-.39-3.78-.79-.16-.15-.31-.31-.39-.55-.24-.31-.32-.78-.24-1.41.08-1.42 1.34-2.13 3.78-2.05 1.18.08 2.36.4 3.54 1.11.47.31 1.02.62 1.49.86 1.18.79 2.36 1.26 3.38 1.49l.16-2.91 1.18.08-.16 4.41h-.71c-1.02-.08-2.44-.63-4.32-1.73 0 0-.32-.16-.95-.55-.63-.32-.94-.55-1.02-.63-.31-.16-.71-.32-1.18-.47-.47-.16-1.02-.24-1.57-.24s-.94 0-1.34.08c-.31.08-.55.16-.7.23-.08.08-.16.24-.16.4 0 .15 0 .31.08.39.23.39.94.55 2.2.63l1.73.08-.08 1.49-.94.08zM19.42 128.95c-2.04-.08-3.3-.4-3.77-.79-.16-.16-.32-.31-.4-.55-.23-.32-.31-.79-.23-1.42.08-1.41 1.34-2.12 3.77-2.04 1.18.08 2.36.39 3.54 1.1.47.32 1.02.63 1.49.87 1.18.78 2.36 1.25 3.39 1.49l.15-2.91 1.18.08-.15 4.4h-.71c-1.02-.08-2.44-.63-4.33-1.73 0 0-.31-.16-.94-.55-.63-.31-.94-.55-1.02-.63-.32-.15-.71-.31-1.18-.47-.47-.16-1.02-.23-1.57-.23s-.95 0-1.34.07c-.32.08-.55.16-.71.24-.08.08-.16.24-.16.39 0 .16 0 .32.08.4.24.39.95.55 2.2.62l1.73.08-.07 1.5-.95.08z" class="shp78"/><path fill-rule="evenodd" d="M19.89 152.69c-1.02.16-1.81.16-2.28.08-.47-.08-.86-.24-1.1-.31-.55-.32-.87-.95-.94-1.74-.08-.86 0-1.41.39-1.88.39-.4 1.02-.71 1.89-.94.39-.08.78-.16 1.33-.24l5.27-.71c1.81-.23 2.99-.16 3.62.32.47.31.78.86.86 1.65.08.78-.08 1.41-.63 1.8-.47.4-1.33.71-2.59.87l-.47.08-.16-1.49h.24c1.17-.16 1.88-.32 2.12-.56.16-.15.23-.47.23-.78-.07-.32-.23-.55-.47-.55-.31-.08-.86-.08-1.65.08l-2.04.23c.23.24.39.63.47 1.1.16.95-.16 1.58-.79 2.05-.63.39-1.65.71-2.99.86l-.31.08zm-.63-3.46c-.86.08-1.41.24-1.65.39-.31.16-.47.24-.55.4-.08.16-.08.31-.08.55.08.39.32.63.71.71.39.07 1.02.07 1.89-.08l.78-.08c1.02-.16 1.65-.32 2.05-.47.31-.16.47-.47.47-.95-.08-.47-.24-.7-.55-.86l-3.07.39z" class="shp78"/><path d="M26.42 169.52c.15-1.03 1.02-1.73 2.75-2.28 1.26-.4 2.2-.48 2.91-.24.7.24 1.18.79 1.49 1.65.24.87.16 1.57-.31 2.12-.48.55-1.34 1.03-2.52 1.34l-.55.16-.47-1.42.55-.16c.86-.23 1.49-.54 1.73-.7.23-.24.31-.55.23-.95-.15-.39-.39-.63-.78-.7-.4 0-1.02.07-1.97.39-.94.31-1.57.55-1.81.86-.31.32-.39.71-.23 1.26l.16.4-1.18.39-.16-.39c-.08-.4-.24-.63-.39-.79-.32-.31-1.11-.24-2.21.08h-.07c-.87.23-1.34.55-1.58.78-.23.24-.23.56-.15.87.07.31.31.55.7.55.32.08.95 0 1.73-.24l.32-.07.47 1.49-.32.08c-1.1.31-2.04.39-2.67.23-.63-.23-1.1-.7-1.34-1.57-.23-.86-.15-1.57.24-2.12s1.18-1.02 2.28-1.34c1.49-.55 2.52-.47 3.15.32zM19.03 167l-.32-1.02 12.66-3.85.47 1.49-10.69 3.3c.23.08.47.32.63.55.23.24.31.55.39.87l-1.02.31c-.16-.39-.47-.71-.87-1.02-.23-.47-.7-.63-1.25-.63zM29.17 192.16l-.47-.94 11.87-5.98.71 1.42-9.99 5.03c.24.08.55.23.79.39.23.24.39.47.55.71l-.94.47c-.24-.39-.55-.63-1.03-.86-.47-.16-.94-.24-1.49-.24z" class="shp78"/><path fill-rule="evenodd" d="M26.5 186.74l-.71-1.42 8.49-4.32-.47-.95 1.1-.55.47.94 2.2-1.1.63 1.26-2.2 1.1 1.42 2.83-.95.47-9.98 1.74zm8.41-4.49l-6.13 3.07 6.99-1.42-.86-1.65z" class="shp78"/><path d="M45.21 208.36c-1.65 1.26-2.83 1.81-3.46 1.73a1.5 1.5 0 0 1-.63-.16c-.39-.16-.7-.47-1.1-.94-.86-1.18-.31-2.44 1.65-3.93.95-.71 2.13-1.18 3.46-1.42.55-.08 1.18-.16 1.73-.23 1.42-.16 2.6-.48 3.54-1.03l-1.73-2.36.94-.7 2.6 3.53-.63.48c-.79.63-2.28 1.1-4.48 1.41 0 0-.39.08-1.02.16-.71.08-1.1.16-1.18.16-.32.07-.79.15-1.26.39-.47.24-.94.47-1.34.79-.39.31-.78.62-.94.86-.24.24-.32.47-.39.63 0 .16 0 .31.07.39.08.16.16.24.32.24.39.16 1.1-.16 2.12-.87l1.42-1.02.86 1.26-.55.63z" class="shp78"/><path fill-rule="evenodd" d="M40.65 203.96c-.94.7-1.73 1.1-2.44 1.1-.71.07-1.34-.32-1.96-1.18-.63-.87-.79-1.58-.55-2.2.23-.63.86-1.34 1.8-2.05l5.11-3.77c.95-.71 1.81-1.1 2.6-1.18.71-.08 1.41.31 2.04 1.18.63.86.79 1.57.48 2.28-.32.63-.95 1.33-1.89 2.12l-5.19 3.7zm-2.28-2.99c-1.02.78-1.42 1.41-1.18 1.88 0 .08.08.16.24.32.07.16.23.24.31.31.16.08.39.08.71 0 .31-.07.7-.31 1.26-.7l5.18-3.86h.08c.95-.7 1.42-1.25 1.42-1.65 0-.15-.08-.39-.16-.55-.16-.16-.23-.31-.31-.31-.08-.08-.16-.16-.32-.16-.39-.08-1.1.16-2.04.87h-.08l-5.11 3.85z" class="shp78"/><path d="M51.81 221.8l-.78-.78 9.2-9.6 1.1 1.11-7.71 8.01c.24 0 .55 0 .87.16.31.16.55.32.78.55l-.78.79c-.32-.24-.79-.39-1.26-.47-.47 0-.94.08-1.42.23zM73.04 230.61c-.55-.86-.31-2.04.71-3.54.71-1.1 1.42-1.73 2.12-2.04.71-.32 1.42-.16 2.2.39.79.55 1.18 1.1 1.11 1.81 0 .71-.4 1.57-1.11 2.67l-.31.47-1.26-.86.32-.47c.55-.79.86-1.34.86-1.65.08-.32-.08-.63-.47-.87-.39-.23-.71-.23-1.02 0-.32.24-.79.71-1.34 1.49-.55.79-.87 1.42-.87 1.89-.07.47.16.79.63 1.1l.4.24-.71 1.02-.32-.24c-.31-.23-.54-.31-.78-.31-.47 0-1.02.47-1.65 1.42-.47.7-.71 1.25-.71 1.57 0 .31.16.63.47.79.32.15.55.23.87 0 .31-.16.71-.63 1.18-1.26l.15-.24 1.26.87-.16.31c-.63 1.02-1.33 1.57-1.96 1.89-.63.23-1.34.15-2.05-.4-.78-.47-1.18-1.1-1.18-1.8 0-.71.32-1.58.95-2.52.79-1.42 1.73-1.97 2.67-1.73zM67.38 226.76c-.55-.87-.32-2.05.71-3.54.7-1.1 1.41-1.73 2.12-2.05.71-.31 1.42-.15 2.2.4.79.55 1.18 1.1 1.1 1.81 0 .7-.39 1.57-1.1 2.67l-.31.47-1.26-.86.31-.48c.55-.78.87-1.33.87-1.65.08-.31-.08-.63-.39-.86-.4-.24-.71-.24-1.03 0-.31.23-.78.71-1.33 1.49-.55.79-.87 1.42-.87 1.89-.08.47.16.78.63 1.1l.39.23-.7 1.03-.32-.24c-.31-.23-.55-.31-.79-.31-.47 0-1.02.47-1.65 1.41-.47.71-.7 1.26-.7 1.58 0 .31.15.62.47.78.31.16.55.24.86 0 .32-.16.71-.63 1.18-1.26l.16-.23 1.26.86-.16.32c-.63 1.02-1.34 1.57-1.97 1.88-.62.24-1.33.16-2.04-.39-.79-.47-1.18-1.1-1.18-1.81 0-.7.32-1.57.94-2.51.71-1.42 1.66-1.97 2.6-1.73zM88.53 245.94l-1.02-.47 5.42-12.11 1.42.63-4.56 10.14c.23-.08.55-.15.86-.15.32 0 .63.07.95.23l-.48 1.02c-.39-.15-.86-.15-1.33 0-.48.16-.95.4-1.26.71z" class="shp78"/><path fill-rule="evenodd" d="M86.49 238.87c-.48.23-1.1.23-1.73-.08-.71-.32-1.1-.79-1.18-1.5-.08-.71.23-1.73.78-3.06l.32-.71c.47-1.1 1.02-1.89 1.65-2.28.55-.39 1.34-.39 2.28 0 1.1.55 1.65 1.33 1.57 2.44-.08.63-.31 1.41-.71 2.35l-2.28 5.11c-.55 1.34-1.18 2.13-1.8 2.52-.63.39-1.34.39-2.2 0-.87-.39-1.34-.86-1.42-1.49-.08-.63.16-1.5.63-2.68l.16-.39 1.33.63-.08.24c-.47 1.1-.7 1.72-.62 2.04.07.24.23.47.55.63.31.16.62.08.94-.16.23-.23.63-.86 1.02-1.81l.79-1.8zm-.71-4.01c-.39.94-.63 1.57-.63 1.96 0 .39.16.71.55.87.24.15.55.15.79.15.23 0 .47-.08.55-.15l1.18-2.52c.39-.79.55-1.42.55-1.81 0-.39-.24-.71-.63-.86-.24-.16-.47-.16-.71-.08-.39.08-.79.63-1.18 1.57l-.47.87z" class="shp78"/><path d="M111.17 248.46c-.55 1.96-1.02 3.14-1.57 3.54-.24.15-.39.23-.63.31-.39.16-.86.08-1.41 0-1.42-.39-1.81-1.73-1.18-4.09.31-1.18.94-2.28 1.81-3.22.39-.4.78-.87 1.17-1.26 1.03-1.02 1.73-2.05 2.13-2.99l-2.83-.71.31-1.1 4.25 1.1-.16.71c-.24.94-1.1 2.28-2.59 3.93 0 0-.24.24-.71.79s-.71.79-.87.86c-.23.24-.47.63-.7 1.11-.24.47-.4.94-.56 1.49-.15.47-.23.94-.23 1.26 0 .31 0 .55.08.7.08.16.15.24.31.24s.32.08.4 0c.39-.16.78-.79 1.1-2.04l.47-1.65 1.49.39-.08.63z" class="shp78"/><path fill-rule="evenodd" d="M101.19 250.42l-1.57-.39 2.36-9.2-1.03-.24.32-1.18 1.02.24.63-2.44 1.34.4-.63 2.43 3.06.79-.23 1.02-5.27 8.57zm2.2-9.28l-1.73 6.69 3.54-6.21-1.81-.48z" class="shp78"/><path d="M126.03 250.42c-.23.32-.62.47-1.33.39-.32 0-.63-.15-.87-.39-.47-.55-.63-1.88-.47-3.93.16-1.65.24-2.67.39-3.06.08-.4.24-.71.32-.95.31-.79 1.02-1.1 2.04-1.02 1.58.16 2.2 1.02 2.13 2.75l-.16 1.49-1.5-.15.16-1.5c0-.39 0-.7-.08-.86-.08-.24-.31-.32-.55-.39-.31 0-.47.07-.63.23-.15.24-.23.55-.23.95l-.32 3.93c-.08.55 0 .94.08 1.18.08.23.32.39.55.39.55.08.95-.39 1.02-1.34l1.34.24-.55 6.52-4.17-.31.16-1.42 2.75.24-.08-2.99zM148.52 254.59l-1.1.08-1.1-13.21 1.57-.16.95 11.09c.15-.24.39-.4.7-.55.32-.16.63-.24.87-.24l.08 1.1c-.4.08-.79.32-1.18.63-.32.31-.63.71-.79 1.26z" class="shp78"/><path fill-rule="evenodd" d="M145.14 251.44c.08 1.18 0 2.05-.31 2.68-.32.63-1.02.94-2.05 1.02-1.02.08-1.73-.16-2.2-.71-.39-.55-.71-1.41-.79-2.59l-.54-6.29c-.08-1.18 0-2.12.31-2.83.31-.63 1.02-1.03 2.04-1.1 1.03-.08 1.81.15 2.21.78.39.63.7 1.5.78 2.75l.55 6.29zm-3.77.48c.08 1.25.47 1.96 1.02 1.96h.39c.16 0 .32-.08.47-.15.16-.08.24-.24.4-.56.08-.31.08-.78.08-1.49l-.55-6.45v-.08c-.08-1.17-.32-1.88-.63-2.12-.16-.08-.32-.16-.55-.16-.24 0-.4.08-.47.08-.08 0-.16.08-.32.16-.31.32-.39 1.02-.31 2.2v.08l.47 6.53z" class="shp78"/><path d="M169.51 245.63c.55 1.96.63 3.3.32 3.85-.08.23-.24.39-.4.55-.23.31-.7.47-1.25.63-1.42.39-2.44-.63-3.07-2.99-.32-1.18-.32-2.44 0-3.69.16-.55.31-1.11.39-1.66.4-1.33.55-2.59.4-3.69l-2.83.71-.32-1.1 4.25-1.11.15.71c.24.95.16 2.52-.31 4.64 0 0-.08.32-.24 1.02-.15.71-.23 1.1-.31 1.18-.08.32-.08.79-.08 1.26 0 .55.08 1.02.24 1.57.15.48.31.95.47 1.26.16.32.31.47.47.55.16.08.32.08.39.08.16 0 .24-.08.32-.16.31-.31.31-1.1-.08-2.28l-.47-1.65 1.49-.39.47.71zM159.21 246.41c-1.02-.16-1.73-1.1-2.2-2.91-.31-1.25-.39-2.2-.08-2.91.24-.7.87-1.17 1.73-1.41.87-.24 1.58-.08 2.13.39.55.47.94 1.34 1.25 2.6l.16.55-1.49.39-.16-.63c-.24-.94-.47-1.49-.63-1.81-.23-.31-.55-.39-.94-.23-.39.07-.63.39-.71.78-.08.4 0 1.03.32 1.97.23.94.54 1.57.78 1.89.32.31.71.39 1.26.31l.39-.08.32 1.18-.4.08c-.39.08-.63.24-.78.39-.32.32-.32 1.1 0 2.2v.08c.23.87.47 1.42.71 1.57.23.24.54.32.86.16.31-.08.55-.31.63-.63.08-.31 0-.94-.24-1.73l-.08-.31 1.5-.39.08.31c.31 1.18.31 2.04.07 2.67-.23.63-.78 1.11-1.65 1.34-.86.24-1.57.16-2.12-.31-.55-.48-.94-1.26-1.26-2.36-.39-1.5-.23-2.6.55-3.15z" class="shp78"/><path fill-rule="evenodd" d="M185.48 240.59c.47 1.03.62 1.89.47 2.52-.16.63-.63 1.1-1.5 1.49-.86.4-1.49.4-2.12.08-.55-.31-1.1-1.02-1.57-2.04-.63-1.34-.71-2.44-.24-3.15-.39-.07-.86-.39-1.26-.86-.47-.47-.78-1.1-1.1-1.73l-.23-.47c-.47-1.1-.63-1.97-.47-2.6.15-.63.63-1.18 1.41-1.49.79-.39 1.5-.39 2.12-.08.63.31 1.18.94 1.66 1.97 0 .07.15.31.39.78.23.47.39 1.1.47 1.73.08.63 0 1.18-.24 1.57.87.16 1.58.95 2.21 2.28zm-5.82-4.24c.39.78.71 1.41 1.1 1.73.31.31.63.47.94.31.32-.15.39-.47.39-.94s-.15-1.18-.55-1.97l-.23-.47c-.32-.71-.63-1.18-.87-1.41-.23-.24-.55-.24-.86-.08-.32.16-.55.31-.63.55-.08.23 0 .47.08.86.16.32.23.71.39 1.02l.24.4zm2.12 3.38c-.08.16-.08.47 0 .86.08.4.24.87.47 1.34.24.47.4.87.55 1.1.16.24.32.4.47.47.16.08.24.16.4.16.08 0 .23-.08.47-.16.16-.07.31-.23.39-.31.16-.31 0-1.02-.47-2.05-.47-1.1-.94-1.65-1.34-1.8-.15-.08-.31-.08-.55 0-.23.08-.31.23-.39.39z" class="shp78"/><path d="M200.57 228.17c-1.02.16-1.96-.47-2.98-1.96-.71-1.11-1.1-1.97-1.1-2.76 0-.78.39-1.41 1.17-1.88.79-.55 1.5-.63 2.13-.4.63.32 1.33.95 2.04 2.05l.32.47-1.26.87-.32-.48c-.55-.78-.94-1.26-1.25-1.49-.32-.16-.63-.16-.95.08-.39.23-.47.55-.39.94.08.39.39 1.02.94 1.81.55.79 1.02 1.26 1.42 1.49.39.24.78.16 1.26-.15l.39-.24.71 1.02-.32.24c-.31.23-.47.39-.63.63-.15.39.08 1.1.71 2.12.47.71.87 1.18 1.18 1.26.32.16.63.08.86-.08.32-.16.4-.47.4-.79-.08-.31-.32-.86-.79-1.57l-.15-.23 1.25-.87.16.31c.63 1.03 1.02 1.81 1.02 2.52s-.39 1.26-1.1 1.81c-.79.47-1.49.63-2.12.39-.71-.23-1.34-.86-1.97-1.81-.94-1.41-1.18-2.51-.63-3.3z" class="shp78"/><path fill-rule="evenodd" d="M199.87 232.26c.63.94 1.02 1.81 1.02 2.52s-.39 1.33-1.26 1.88c-.86.55-1.57.71-2.2.48-.63-.24-1.26-.87-1.97-1.89l-3.53-5.27c-.71-1.02-1.03-1.89-1.11-2.59-.07-.71.4-1.42 1.26-1.97.87-.63 1.65-.71 2.28-.39.63.31 1.34 1.02 2.05 2.04l3.46 5.19zm-3.15 2.2c.71 1.1 1.34 1.5 1.81 1.26.08 0 .16-.08.31-.16.16-.07.24-.23.32-.31.08-.16.08-.39 0-.71-.08-.31-.32-.79-.63-1.34l-3.62-5.34v-.08c-.7-1.02-1.18-1.49-1.57-1.49-.16 0-.39 0-.55.15-.16.16-.31.24-.39.32-.08.08-.16.15-.16.31-.16.39.16 1.1.79 2.05v.07l3.69 5.27z" class="shp78"/><path d="M219.92 220.15l-.79.79-9.2-9.6 1.1-1.1 7.71 8.02c0-.23.07-.55.15-.86.16-.31.32-.55.55-.79l.79.79c-.23.31-.47.71-.55 1.18 0 .63.08 1.1.24 1.57zM216.38 223.53l-.79.79-9.2-9.59 1.1-1.1 7.71 8.02c0-.24.08-.56.16-.87.15-.31.31-.55.54-.79l.79.79c-.23.31-.47.71-.55 1.18 0 .63.08 1.1.24 1.57zM227.86 201.05c-.87.47-2.05.15-3.47-.87-1.02-.78-1.65-1.49-1.88-2.2-.24-.71-.08-1.42.47-2.2.55-.71 1.18-1.1 1.89-1.02.7.08 1.57.47 2.59 1.18l.47.31-.86 1.18-.47-.39c-.79-.55-1.34-.87-1.65-.95-.32-.08-.63.08-.87.4-.23.31-.31.7-.08 1.02.24.31.71.78 1.5 1.33.78.56 1.41.87 1.8.95.48.08.79-.16 1.1-.55l.24-.32 1.02.71-.23.31c-.24.32-.32.56-.4.79 0 .47.4 1.02 1.34 1.73.71.55 1.26.79 1.57.79.32 0 .63-.16.79-.4.23-.31.23-.55.08-.86-.16-.31-.55-.71-1.26-1.18l-.24-.16.95-1.25.23.23c.95.71 1.58 1.42 1.73 2.05.24.62.08 1.33-.47 2.04-.55.71-1.18 1.1-1.88 1.1-.71 0-1.58-.31-2.44-1.02-1.34-.95-1.81-1.89-1.57-2.75z" class="shp78"/><path fill-rule="evenodd" d="M225.73 205.06c.16.55 0 1.1-.47 1.73-.47.62-1.02.86-1.73.78-.71-.08-1.65-.55-2.83-1.41l-.63-.47c-.94-.71-1.57-1.42-1.89-2.05-.23-.63-.07-1.41.55-2.2.71-1.02 1.65-1.34 2.68-1.02.63.15 1.33.63 2.12 1.18l4.48 3.3c1.18.86 1.81 1.65 2.12 2.28.24.71.08 1.41-.47 2.12-.55.79-1.18 1.1-1.8 1.02-.63-.07-1.5-.47-2.52-1.17l-.39-.24.86-1.18.24.16c.94.7 1.57 1.1 1.81 1.1.23 0 .47-.16.7-.47.24-.32.24-.63.08-.95-.24-.31-.71-.78-1.49-1.41l-1.42-1.1zm-4.01-.16c.79.63 1.42.94 1.81 1.1.39.08.71 0 .94-.31.16-.24.32-.48.32-.71.08-.24 0-.47 0-.55l-2.28-1.65c-.71-.55-1.26-.87-1.65-.95-.4-.08-.71.08-1.03.4-.15.23-.23.47-.23.62 0 .4.47.87 1.34 1.5l.78.55z" class="shp78"/><path d="M243.82 186.11l-.48.94-11.87-5.98.71-1.41 9.98 5.03c-.07-.23-.15-.55-.07-.86 0-.32.15-.63.23-.87l.94.47c-.15.4-.15.87-.07 1.34.15.47.31.94.63 1.34zM235.01 189.65c-.79.63-1.97.55-3.62-.24-1.18-.55-1.88-1.18-2.28-1.89-.39-.63-.31-1.41.08-2.2.39-.86.94-1.26 1.65-1.33.71-.08 1.65.15 2.75.78l.55.24-.7 1.33-.55-.23c-.87-.39-1.42-.63-1.81-.71-.32 0-.63.16-.79.55-.23.39-.16.71.08 1.02.24.32.79.71 1.65 1.1.87.4 1.5.63 1.97.63s.78-.23 1.02-.7l.16-.4 1.1.55-.16.4c-.16.31-.24.63-.24.86.08.47.56.94 1.66 1.49h.07c.79.4 1.34.56 1.65.56.32-.08.56-.24.71-.56.16-.31.16-.62-.08-.86-.23-.32-.7-.63-1.41-.94l-.32-.16.71-1.34.32.16c1.02.55 1.73 1.1 2.12 1.73.31.63.31 1.34-.16 2.12-.39.79-.94 1.26-1.65 1.42-.71.15-1.57-.08-2.59-.63-1.26-1.02-1.97-1.81-1.89-2.75zM247.28 163.54c1.96.63 3.14 1.18 3.46 1.73.15.24.23.39.23.63.08.39.08.86-.08 1.41-.39 1.42-1.81 1.73-4.16 1.03a7.971 7.971 0 0 1-3.15-1.97c-.39-.39-.78-.86-1.18-1.26-.94-1.02-1.96-1.8-2.91-2.28l-.86 2.76-1.1-.32 1.26-4.24.7.23c.95.32 2.2 1.18 3.78 2.75 0 0 .23.24.78.71l.87.87c.23.23.63.47 1.02.7.47.24.94.47 1.42.63.47.16.94.24 1.25.24.32 0 .55 0 .71-.08.16-.08.24-.16.24-.32.08-.15.08-.23 0-.39-.08-.39-.79-.78-1.97-1.18l-1.65-.47.47-1.41.87.23zM249.63 170.93l-1.57 5.04-1.1-.32c-.08 0-.47-.31-1.1-.79-.71-.47-1.41-1.02-2.12-1.41a34.074 34.074 0 0 0-7.55-3.85l.47-1.58c2.6 1.03 5.19 2.44 7.94 4.33.95.63 1.58 1.1 1.97 1.41.39.32.63.48.63.48l1.1-3.62 1.33.31z" class="shp78"/><path fill-rule="evenodd" d="M248.77 148.68c.39.39.55.94.47 1.73-.08.79-.47 1.26-1.1 1.57-.63.24-1.73.32-3.14.16l-.79-.08c-1.18-.16-2.04-.47-2.59-.86-.55-.48-.79-1.18-.63-2.2.15-1.26.78-1.97 1.88-2.21.63-.15 1.5-.15 2.44 0l5.5.71c1.42.16 2.36.47 2.92 1.02.54.48.78 1.18.62 2.13-.15.94-.47 1.49-1.02 1.81-.55.23-1.49.31-2.75.15l-.47-.08.15-1.49h.24c1.18.16 1.89.16 2.12.08.24-.16.4-.4.4-.71.08-.39-.08-.63-.4-.86-.31-.16-1.02-.32-1.96-.48l-1.89-.39zm-3.54 1.81c1.02.16 1.73.16 2.13.08.39-.08.63-.32.7-.79 0-.31 0-.55-.07-.78-.08-.24-.16-.4-.32-.48l-2.75-.39c-.87-.08-1.49-.08-1.89 0-.39.08-.63.39-.71.87 0 .31 0 .55.08.7.16.32.79.55 1.89.71l.94.08z" class="shp78"/><path d="M248.69 128c-.39.94-1.49 1.42-3.3 1.5-1.26.07-2.28-.08-2.91-.56-.63-.47-.94-1.1-1.02-1.96-.08-.94.23-1.57.78-1.97.56-.39 1.5-.63 2.83-.7h.56l.07 1.49h-.63c-.94.08-1.57.16-1.88.24-.32.08-.47.39-.47.86s.23.71.63.87c.39.15 1.02.15 2.04.15.94-.08 1.65-.15 2.04-.39.4-.24.55-.63.55-1.1v-.39l1.26-.08v.39c0 .39.08.63.24.87.23.39.94.55 2.12.47h.08c.86 0 1.42-.16 1.73-.4.23-.23.39-.47.39-.86 0-.31-.16-.55-.47-.71-.31-.16-.86-.23-1.73-.16h-.31l-.08-1.49h.31c1.18-.08 2.05.08 2.67.47.56.4.87 1.02.95 1.89 0 .94-.24 1.57-.79 2.04s-1.41.71-2.59.71c-1.65.08-2.68-.31-3.07-1.18z" class="shp78"/><path fill-rule="evenodd" d="M255.22 133.5l.08 1.58-9.52.39.08 1.1-1.26.08-.08-1.1-2.51.08-.08-1.42 2.52-.08-.16-3.14 1.1-.08 9.83 2.59zm-9.52.63l6.92-.31-6.99-1.57.07 1.88z" class="shp78"/><path d="M251.76 106.46l.23 1.1-12.97 2.83-.31-1.49 10.92-2.36c-.23-.16-.47-.32-.62-.63-.16-.32-.32-.55-.4-.87l1.02-.23c.16.39.4.78.79 1.1.39.24.79.47 1.34.55zM252.47 109.6l1.1 5.19-1.1.24c-.08 0-.55-.08-1.34-.16-.86-.08-1.65-.15-2.51-.23-2.91-.24-5.74-.08-8.5.31l-.31-1.65c2.75-.39 5.74-.39 9.04-.08 1.1.08 1.89.16 2.44.24.55.08.78.16.78.16l-.78-3.7 1.18-.32zM240.36 86.8c1.89-.78 3.14-1.02 3.77-.78.24.08.4.15.63.31.32.24.55.63.79 1.18.55 1.34-.32 2.44-2.6 3.38-1.1.47-2.35.63-3.69.47-.55-.08-1.18-.15-1.73-.23-1.42-.24-2.67-.16-3.7.08l1.1 2.67-1.1.47-1.65-4.09.71-.31c.94-.39 2.51-.47 4.64-.24 0 0 .39 0 1.02.08.71.08 1.1.08 1.18.16.31.08.79 0 1.26-.08a4.9 4.9 0 0 0 1.49-.47c.47-.24.87-.4 1.18-.55.32-.16.47-.4.55-.47.08-.16.08-.32 0-.4-.08-.15-.16-.23-.23-.31-.32-.24-1.1-.16-2.29.31l-1.57.63-.55-1.41.79-.4zM243.27 94.27c.39 0 .71.4.94 1.03.16.31.16.62 0 .94-.23.71-1.34 1.41-3.3 2.2-1.5.63-2.44.94-2.91 1.02-.39.08-.71.16-.94.16-.87.08-1.42-.39-1.81-1.34-.55-1.41-.08-2.44 1.49-3.06l1.34-.55.55 1.41-1.34.55c-.31.16-.63.32-.79.47-.15.16-.15.4-.07.71.07.24.31.39.55.47.23.08.55 0 .94-.15l3.7-1.5c.47-.23.86-.39 1.02-.63.16-.23.23-.39.16-.7-.24-.55-.79-.63-1.66-.32l-.39-1.26 6.13-2.44 1.58 3.86-1.34.55-1.02-2.52-2.83 1.1zM232.41 72.41c1.73-1.1 2.99-1.57 3.62-1.41.24.08.47.08.63.23.32.16.71.48 1.02 1.03.79 1.25.08 2.51-1.96 3.77a7.568 7.568 0 0 1-3.54 1.1c-.55 0-1.18.08-1.73.08-1.42.08-2.6.24-3.62.71l1.5 2.44-1.03.62-2.28-3.77.63-.39c.87-.55 2.36-.87 4.56-1.03 0 0 .4 0 1.03-.07.7-.08 1.1-.08 1.17-.08.32 0 .79-.16 1.26-.32.47-.15.95-.39 1.42-.71.47-.31.78-.55 1.02-.78.24-.24.39-.47.39-.55 0-.16 0-.32-.08-.39-.07-.16-.15-.24-.23-.24-.39-.16-1.1.08-2.2.71l-1.5.86-.78-1.26.7-.55zM218.89 55.12c1.57-1.34 2.68-2.05 3.3-2.05.24 0 .48 0 .63.08.4.08.79.39 1.18.79.95 1.1.55 2.43-1.33 4.09-.95.78-2.05 1.33-3.31 1.65-.55.15-1.1.23-1.65.39-1.41.31-2.51.71-3.46 1.26l1.89 2.2-.87.79-2.9-3.31.55-.47c.78-.63 2.2-1.26 4.32-1.81 0 0 .32-.08 1.02-.23.71-.16 1.1-.24 1.18-.24.32-.08.71-.23 1.18-.47.47-.24.87-.55 1.26-.94.39-.32.71-.63.87-.95.23-.31.31-.47.31-.63 0-.15 0-.31-.16-.39-.08-.08-.23-.16-.31-.24-.4-.15-1.1.24-2.05 1.11l-1.25 1.1-1.03-1.18.63-.55zM227.46 58.1l.71.79-9.98 8.73-1.03-1.18 8.42-7.39c-.24 0-.56-.08-.87-.24-.31-.16-.55-.31-.71-.55l.79-.71c.31.32.71.47 1.18.55.55.24 1.02.16 1.49 0z" class="shp78"/><path fill-rule="evenodd" d="M210.63 41.67l1.26 1.02-5.97 7.39.86.71-.78.95-.87-.71-1.57 1.96-1.1-.86 1.57-1.97-2.44-1.96.71-.87 8.33-5.66zm-5.81 7.47l4.32-5.35-5.74 4.17 1.42 1.18z" class="shp78"/><path d="M190.59 28.46l.94.55-6.45 11.56-1.33-.79 5.42-9.74c-.23.07-.55.07-.86.07-.32-.07-.63-.15-.87-.31l.55-.94c.39.15.87.23 1.34.15.47-.08.86-.23 1.26-.55z" class="shp78"/><path fill-rule="evenodd" d="M191.29 33.26c.48-.87.95-1.5 1.26-1.89.32-.31.63-.55.95-.63.55-.23 1.25-.16 1.96.32.71.39 1.18.86 1.26 1.41.08.55 0 1.26-.39 2.12-.16.32-.4.71-.63 1.18l-2.6 4.64c-.86 1.58-1.65 2.44-2.35 2.75-.56.16-1.19.08-1.89-.31-.71-.39-1.02-.94-1.1-1.57-.08-.63.23-1.57.78-2.68l.24-.39 1.26.71-.08.24c-.63 1.1-.87 1.72-.79 1.96.08.24.24.47.47.63.32.16.55.16.79-.08.24-.16.55-.63.94-1.41l1.03-1.81c-.32.08-.71 0-1.18-.24-.79-.47-1.18-1.1-1.18-1.81.08-.78.39-1.73 1.1-2.91l.15-.23zm3.15 1.49c.39-.71.63-1.26.71-1.57.08-.31.08-.55 0-.71-.08-.16-.16-.23-.4-.39-.39-.24-.7-.16-1.02.16-.31.31-.63.78-1.1 1.49l-.39.63c-.47.86-.79 1.49-.87 1.89-.08.39.08.7.55.94.4.24.71.24 1.03.08l1.49-2.52z" class="shp78"/><path d="M171.88 20.44l1.02.4-4.4 12.5-1.5-.55 3.7-10.54c-.24.16-.47.24-.87.24-.31 0-.63-.08-.94-.16l.39-1.02c.4.08.87.08 1.34-.08.47-.16.94-.39 1.26-.79zM175.02 26.34c.31-.24.79-.31 1.41-.08.32.08.56.32.71.63.32.63.16 1.97-.55 3.93-.55 1.57-.94 2.52-1.1 2.83-.24.32-.39.63-.55.79-.47.63-1.26.78-2.2.47-1.42-.55-1.89-1.57-1.34-3.15l.47-1.41 1.42.47-.47 1.42c-.16.39-.16.63-.16.86.08.24.24.39.47.47.24.08.47.08.71-.08.16-.15.39-.47.47-.86l1.34-3.7c.16-.47.23-.86.23-1.18 0-.31-.15-.47-.47-.55-.55-.15-.94.16-1.26 1.03l-1.25-.55 2.2-6.22 3.93 1.42-.47 1.34-2.6-.95-.94 3.07zM152.29 22.41c.87.55 1.11 1.73.79 3.54-.24 1.25-.63 2.2-1.1 2.75-.55.55-1.26.71-2.12.55-.95-.16-1.5-.55-1.81-1.18-.24-.63-.31-1.65-.08-2.91l.08-.55 1.49.24-.08.63c-.15.94-.23 1.57-.15 1.88.08.32.31.55.78.63.47.08.79-.08.95-.39.23-.32.39-1.02.55-1.97.16-.94.16-1.65 0-2.04-.16-.4-.47-.71-1.03-.79l-.39-.08.24-1.25.39.07c.39.08.63.08.87 0 .39-.15.7-.86.94-1.96v-.08c.16-.87.16-1.42 0-1.73-.16-.31-.39-.47-.71-.55a.741.741 0 0 0-.78.31c-.24.32-.4.87-.56 1.66l-.07.31-1.5-.24.08-.31c.24-1.18.55-1.97 1.02-2.52.47-.47 1.18-.63 2.05-.47.86.16 1.49.55 1.81 1.18.31.63.39 1.49.15 2.67-.23 1.58-.86 2.44-1.81 2.6zM155.91 21.15c.32-2.04.79-3.22 1.26-3.62.16-.15.39-.23.55-.31.39-.16.79-.16 1.42-.08 1.41.24 1.96 1.57 1.49 4.01-.23 1.18-.71 2.36-1.57 3.38-.4.47-.71.95-1.1 1.34-.87 1.1-1.58 2.12-1.89 3.22l2.83.47-.24 1.18-4.32-.7.16-.71c.16-1.02.94-2.36 2.2-4.09 0 0 .24-.31.63-.86.39-.56.71-.87.78-.95.24-.23.4-.63.63-1.18.16-.47.32-1.02.4-1.49.08-.55.15-.95.08-1.26 0-.31-.08-.55-.16-.71a.45.45 0 0 0-.4-.23h-.39c-.39.15-.71.86-.94 2.12l-.32 1.73-1.49-.24.39-1.02z" class="shp78"/></svg>