<svg version="1.2" baseProfile="tiny-ps" xmlns="http://www.w3.org/2000/svg" viewBox="0 0 19 90" width="19" height="90"><title>image</title><style>tspan { white-space:pre }.shp0 { fill: #ff001b } .shp1 { fill: #e9793b } .shp2 { fill: #ffa960 } .shp3 { fill: #fff2b1 } </style><path class="shp0" d="M9.12 89.59C9.12 89.59 18.48 24.13 18.47 15.64C18.45 7.15 14.24 0.31 9.25 0.3C4.11 0.37 0.06 7.31 0.07 15.8C0.02 24.14 9.12 89.59 9.12 89.59Z" /><path class="shp1" d="M9 73.21C9 73.21 16.92 19.71 16.88 12.71C16.84 5.71 13.27 0.22 9.03 0.23C4.78 0.23 1.2 5.84 1.24 12.84C1.43 19.77 9 73.21 9 73.21Z" /><path class="shp2" d="M9.01 63.23C9.01 63.23 14.5 16.99 14.44 11.11C14.39 5.23 12.01 0.27 9.03 0.23C6.05 0.18 3.59 5.06 3.72 11.09C3.63 17.05 9.01 63.23 9.01 63.23Z" /><path class="shp3" d="M9.13 50.79C9.13 50.79 11.93 14.72 11.93 10.1C11.93 5.48 10.65 1.67 9.01 1.72C7.37 1.76 6.19 5.47 6.27 10.24C6.27 14.85 9.13 50.79 9.13 50.79Z" /></svg>