<svg version="1.2" baseProfile="tiny-ps" xmlns="http://www.w3.org/2000/svg" viewBox="0 0 88 88" width="88" height="88">
	<title>Home-Desktop-2</title>
	<defs>
		<linearGradient id="grd1" gradientUnits="userSpaceOnUse"  x1="45.659" y1="37.652" x2="183.459" y2="71.611">
			<stop offset="0" stop-color="#4fabf7"  />
			<stop offset="1" stop-color="#0e6db1"  />
		</linearGradient>
		<linearGradient id="grd2" gradientUnits="userSpaceOnUse"  x1="43.594" y1="70.252" x2="45.658" y2="69.569">
			<stop offset="0" stop-color="#adc2ce"  />
			<stop offset="1" stop-color="#adc2ce" stop-opacity="0" />
		</linearGradient>
		<linearGradient id="grd3" gradientUnits="userSpaceOnUse"  x1="46.992" y1="50.406" x2="54.199" y2="48.022">
			<stop offset="0" stop-color="#adc2ce"  />
			<stop offset="1" stop-color="#adc2ce" stop-opacity="0" />
		</linearGradient>
		<linearGradient id="grd4" gradientUnits="userSpaceOnUse"  x1="48.056" y1="54.825" x2="55.354" y2="21.595">
			<stop offset="0.222" stop-color="#d8f2fa"  />
			<stop offset="1" stop-color="#a5bbc8"  />
		</linearGradient>
		<linearGradient id="grd5" gradientUnits="userSpaceOnUse"  x1="64.075" y1="45.592" x2="70.549" y2="42.586">
			<stop offset="0.056" stop-color="#9aa2b7" stop-opacity="0" />
			<stop offset="1" stop-color="#aeb9d6"  />
		</linearGradient>
		<linearGradient id="grd6" gradientUnits="userSpaceOnUse"  x1="57.487" y1="32.762" x2="65.38" y2="30.35">
			<stop offset="0.002" stop-color="#9aa2b7" stop-opacity="0" />
			<stop offset="0.368" stop-color="#848a9c" stop-opacity="0.37" />
			<stop offset="1" stop-color="#a5bbc8"  />
		</linearGradient>
		<linearGradient id="grd7" gradientUnits="userSpaceOnUse"  x1="42.283" y1="33.353" x2="42.283" y2="33.576">
			<stop offset="0.002" stop-color="#9aa2b7" stop-opacity="0" />
			<stop offset="1" stop-color="#a5bbc8"  />
		</linearGradient>
		<linearGradient id="grd8" gradientUnits="userSpaceOnUse"  x1="31.488" y1="47.039" x2="19.709" y2="34.348">
			<stop offset="0.002" stop-color="#9aa2b7" stop-opacity="0" />
			<stop offset="0.368" stop-color="#848a9c" stop-opacity="0.37" />
			<stop offset="1" stop-color="#606572"  />
		</linearGradient>
		<linearGradient id="grd9" gradientUnits="userSpaceOnUse"  x1="23.201" y1="64.211" x2="31.784" y2="46.772">
			<stop offset="0" stop-color="#adc2ce"  />
			<stop offset="1" stop-color="#adc2ce" stop-opacity="0" />
		</linearGradient>
		<linearGradient id="grd10" gradientUnits="userSpaceOnUse"  x1="48.658" y1="42.077" x2="49.688" y2="41.736">
			<stop offset="0" stop-color="#adc2ce"  />
			<stop offset="1" stop-color="#adc2ce" stop-opacity="0" />
		</linearGradient>
		<linearGradient id="grd11" gradientUnits="userSpaceOnUse"  x1="64.673" y1="53.277" x2="58.024" y2="49.924">
			<stop offset="0" stop-color="#adc2ce"  />
			<stop offset="1" stop-color="#adc2ce" stop-opacity="0" />
		</linearGradient>
		<linearGradient id="grd12" gradientUnits="userSpaceOnUse"  x1="29.414" y1="18.306" x2="44.071" y2="27.369">
			<stop offset="0" stop-color="#adc2ce"  />
			<stop offset="1" stop-color="#adc2ce" stop-opacity="0" />
		</linearGradient>
		<linearGradient id="grd13" gradientUnits="userSpaceOnUse"  x1="39.314" y1="25.373" x2="28.697" y2="22.355">
			<stop offset="0.266" stop-color="#ffca41"  />
			<stop offset="1" stop-color="#ffb23d"  />
		</linearGradient>
		<linearGradient id="grd14" gradientUnits="userSpaceOnUse"  x1="23.835" y1="37.562" x2="26.558" y2="25.167">
			<stop offset="0.222" stop-color="#d8f2fa"  />
			<stop offset="1" stop-color="#a5bbc8"  />
		</linearGradient>
		<linearGradient id="grd15" gradientUnits="userSpaceOnUse"  x1="29.81" y1="34.117" x2="32.225" y2="32.996">
			<stop offset="0.002" stop-color="#9aa2b7" stop-opacity="0" />
			<stop offset="0.368" stop-color="#848a9c" stop-opacity="0.37" />
			<stop offset="1" stop-color="#606572"  />
		</linearGradient>
		<linearGradient id="grd16" gradientUnits="userSpaceOnUse"  x1="27.353" y1="29.332" x2="30.297" y2="28.432">
			<stop offset="0.002" stop-color="#9aa2b7" stop-opacity="0" />
			<stop offset="0.368" stop-color="#848a9c" stop-opacity="0.37" />
			<stop offset="1" stop-color="#a5bbc8"  />
		</linearGradient>
		<linearGradient id="grd17" gradientUnits="userSpaceOnUse"  x1="21.681" y1="29.553" x2="21.681" y2="29.636">
			<stop offset="0.002" stop-color="#9aa2b7" stop-opacity="0" />
			<stop offset="1" stop-color="#a5bbc8"  />
		</linearGradient>
		<linearGradient id="grd18" gradientUnits="userSpaceOnUse"  x1="17.655" y1="34.657" x2="13.261" y2="29.924">
			<stop offset="0.002" stop-color="#9aa2b7" stop-opacity="0" />
			<stop offset="0.368" stop-color="#848a9c" stop-opacity="0.37" />
			<stop offset="1" stop-color="#606572"  />
		</linearGradient>
	</defs>
	<style>
		tspan { white-space:pre }
		.shp0 { fill: #a1f069 } 
		.shp1 { fill: url(#grd1) } 
		.shp2 { fill-opacity: 0.302;mix-blend-mode: multiply;fill: url(#grd2) } 
		.shp3 { fill-opacity: 0.302;mix-blend-mode: multiply;fill: url(#grd3) } 
		.shp4 { fill: url(#grd4) } 
		.shp5 { mix-blend-mode: darken;fill: url(#grd5) } 
		.shp6 { mix-blend-mode: darken;fill: url(#grd6) } 
		.shp7 { mix-blend-mode: darken;fill: url(#grd7) } 
		.shp8 { mix-blend-mode: darken;fill: url(#grd8) } 
		.shp9 { opacity: 0.698;fill: #ffffff } 
		.shp10 { fill: url(#grd9) } 
		.shp11 { fill: #e28800 } 
		.shp12 { fill: #f4bd2e } 
		.shp13 { fill: url(#grd10) } 
		.shp14 { fill: url(#grd11) } 
		.shp15 { fill: url(#grd12) } 
		.shp16 { fill: url(#grd13) } 
		.shp17 { fill: url(#grd14) } 
		.shp18 { mix-blend-mode: darken;fill: url(#grd15) } 
		.shp19 { mix-blend-mode: darken;fill: url(#grd16) } 
		.shp20 { mix-blend-mode: darken;fill: url(#grd17) } 
		.shp21 { mix-blend-mode: darken;fill: url(#grd18) } 
	</style>
	<g id="Home-Desktop-2">
		<g id="Medals">
			<g id="Group 518">
				<g id="Group 534">
					<g id="Group 437">
						<g id="Group 416">
							<path id="Ellipse 5" class="shp0" d="M44 79C63.33 79 79 63.33 79 44C79 24.67 63.33 9 44 9C24.67 9 9 24.67 9 44C9 63.33 24.67 79 44 79Z" />
						</g>
						<path id="Vector" class="shp1" d="M44.35 71.13C29.61 71.13 17.66 59.17 17.66 44.42C17.66 29.67 29.61 17.71 44.35 17.71C59.09 17.71 71.04 29.67 71.04 44.42C71.04 59.17 59.09 71.13 44.35 71.13Z" />
						<path id="Union" class="shp2" d="M43.9 75.79L42.68 75.45L37.69 73.97C39.67 74.21 42.67 69.97 44.5 64.23C46.33 58.5 46.35 52.91 44.48 52.15L44.49 52.1L50.22 53.92L50.19 54.03C52.17 54.66 52.25 60.11 50.34 66.1C48.42 72.09 45.87 75.52 43.9 75.79L43.9 75.79ZM44.93 51.38C46.81 52.15 46.83 57.58 44.95 63.47C43.07 69.36 40.13 73.45 38.14 73.21L37.87 73.12C37.76 73.08 37.65 73.05 37.55 72.96C35.91 71.82 35.93 66.85 37.69 61.32L37.74 61.17C39.65 55.18 42.84 50.71 44.82 51.35L44.93 51.38Z" />
						<path id="Vector" class="shp3" d="M65.29 36.77C65.41 36.21 65.49 35.62 65.49 35.02C65.49 30.96 62.36 27.67 58.5 27.67C56.98 27.67 55.57 28.18 54.43 29.04C52.04 25.24 47.94 22.72 43.28 22.72C35.91 22.72 29.94 29.01 29.94 36.77C29.94 36.82 29.94 36.86 29.94 36.91C25.26 37.73 21.69 42.01 21.69 47.17C21.69 52.92 26.11 57.58 31.57 57.58L65.49 57.58C70.95 57.58 75.37 52.92 75.37 47.17C75.37 41.43 70.95 36.77 65.49 36.77C65.42 36.77 65.35 36.77 65.29 36.77Z" />
						<g id="Group 430">
							<path id="Vector" class="shp4" d="M64.29 34.77C64.42 34.21 64.49 33.62 64.49 33.02C64.49 28.96 61.36 25.67 57.5 25.67C55.98 25.67 54.57 26.18 53.43 27.04C51.04 23.24 46.94 20.72 42.28 20.72C34.91 20.72 28.94 27.01 28.94 34.77C28.94 34.82 28.94 34.86 28.94 34.91C24.26 35.73 20.69 40.01 20.69 45.17C20.69 50.92 25.11 55.57 30.57 55.57L64.49 55.57C69.95 55.57 74.37 50.92 74.37 45.17C74.37 39.43 69.95 34.77 64.49 34.77C64.42 34.77 64.35 34.77 64.29 34.77Z" />
							<path id="Vector" class="shp5" d="M64.49 55.57C59.03 55.57 54.6 50.92 54.6 45.17C54.6 39.43 59.03 34.77 64.49 34.77C69.95 34.77 74.37 39.43 74.37 45.17C74.37 50.92 69.95 55.57 64.49 55.57Z" />
							<path id="Vector" class="shp6" d="M57.5 40.38C53.64 40.38 50.51 37.09 50.51 33.02C50.51 28.96 53.64 25.67 57.5 25.67C61.36 25.67 64.49 28.96 64.49 33.02C64.49 37.09 61.36 40.38 57.5 40.38Z" />
							<path id="Vector" class="shp7" d="M42.28 48.81C34.91 48.81 28.94 42.52 28.94 34.77C28.94 27.01 34.91 20.72 42.28 20.72C49.65 20.72 55.63 27.01 55.63 34.77C55.63 42.52 49.65 48.81 42.28 48.81Z" />
							<path id="Vector" class="shp8" d="M29.73 55.57C23.99 55.57 19.33 50.92 19.33 45.17C19.33 39.43 23.99 34.77 29.73 34.77C35.47 34.77 40.12 39.43 40.12 45.17C40.12 50.92 35.47 55.57 29.73 55.57Z" />
							<path id="Union" class="shp9" d="" />
						</g>
						<path id="Vector" class="shp10" d="M24.82 47.81C26.5 48.31 29.89 45.34 30.84 46.81C32.49 48.61 31.73 51.82 30.21 55.56C30.21 55.56 28.84 55.56 28.34 55.06L25.44 52.14C25.02 51.23 24.64 51.35 24.82 50.08C25.08 48.29 23.75 47.5 24.82 47.81Z" />
						<g id="Group 420">
							<path id="Path" class="shp11" d="M23.73 58.95L21.11 57.61C22.19 57.94 24.41 55.68 26.17 52.43C27.92 49.18 28.64 45.85 27.68 45.22L30.65 46.86C31.69 47.42 31.05 50.68 29.22 54.07C27.39 57.47 25.52 59.28 24.38 59.26L23.73 58.95Z" />
							<path id="Path" class="shp12" d="M27.68 45.22C28.64 45.85 27.97 49.09 26.17 52.43C24.37 55.77 22.2 57.94 21.11 57.61L20.96 57.53C20.91 57.5 20.85 57.47 20.81 57.41C20.03 56.58 20.66 53.62 22.35 50.48L22.4 50.4C24.23 47 26.59 44.63 27.62 45.19L27.68 45.22Z" />
						</g>
						<g id="Group 431">
							<path id="Union" class="shp13" d="M48.03 44.45L47.53 44.23L45.51 43.29C46.34 43.51 47.93 41.8 49.12 39.37C50.32 36.93 50.73 34.46 49.99 34.02L50 34L52.31 35.13L52.29 35.17C53.09 35.57 52.73 37.98 51.48 40.53C50.23 43.07 48.89 44.44 48.03 44.45L48.03 44.45ZM50.05 33.92C50.79 34.37 50.41 36.77 49.18 39.27C47.95 41.77 46.4 43.42 45.57 43.2L45.46 43.14C45.42 43.12 45.37 43.1 45.34 43.06C44.72 42.46 45.09 40.26 46.24 37.91L46.27 37.84C47.52 35.3 49.2 33.51 50 33.9L50.05 33.92Z" />
							<g id="Group 421">
								<path id="Path" class="shp11" d="M46.75 42.39L46.32 42.13L44.61 41C45.34 41.3 47.1 39.84 48.63 37.64C50.15 35.44 50.95 33.11 50.34 32.6L50.35 32.58L52.3 33.93L52.27 33.97C52.95 34.43 52.2 36.71 50.61 39.01C49.02 41.31 47.54 42.48 46.75 42.39L46.75 42.39Z" />
								<path id="Path" class="shp12" d="M50.33 32.61C50.95 33.12 50.18 35.39 48.62 37.65C47.05 39.91 45.33 41.31 44.6 41.01L44.51 40.95C44.47 40.92 44.44 40.89 44.41 40.85C43.94 40.21 44.66 38.14 46.13 36.01L46.17 35.95C47.76 33.65 49.62 32.12 50.29 32.59L50.33 32.61Z" />
							</g>
						</g>
						<g id="Group 433">
							<path id="Union" class="shp14" d="M60.17 54.7L59.57 54.47L57.14 53.47C58.13 53.68 59.93 51.55 61.23 48.57C62.54 45.6 62.92 42.62 62.02 42.13L62.03 42.11L64.81 43.32L64.79 43.38C65.75 43.8 65.43 46.71 64.07 49.81C62.71 52.92 61.19 54.64 60.17 54.7L60.17 54.7ZM62.24 41.84C63.15 42.33 62.8 45.23 61.46 48.28C60.12 51.34 58.36 53.39 57.37 53.18L57.24 53.12C57.18 53.1 57.13 53.07 57.09 53.02C56.33 52.35 56.67 49.7 57.92 46.83L57.96 46.75C59.32 43.64 61.23 41.4 62.19 41.82L62.24 41.84Z" />
							<g id="Group 422">
								<path id="Path" class="shp11" d="M58.66 52.26L58.15 51.98L56.09 50.77C56.96 51.07 58.97 49.18 60.68 46.41C62.39 43.65 63.24 40.8 62.5 40.24L62.51 40.21L64.86 41.66L64.83 41.71C65.64 42.21 64.86 45 63.07 47.89C61.29 50.77 59.6 52.3 58.66 52.26L58.66 52.26Z" />
								<path id="Path" class="shp12" d="M62.63 40.05C63.38 40.61 62.57 43.39 60.82 46.23C59.06 49.06 57.1 50.89 56.22 50.58L56.11 50.51C56.06 50.49 56.02 50.46 55.99 50.41C55.41 49.68 56.17 47.14 57.81 44.47L57.86 44.4C59.64 41.51 61.77 39.52 62.59 40.02L62.63 40.05Z" />
							</g>
						</g>
						<path id="Vector" class="shp15" d="M31.27 32.05C31.87 32.08 32.3 32.65 32.15 33.24L31 43.41C31 45.16 33.07 45.53 33.74 44.78L45.08 29.79C45.55 28.47 44.21 27.25 43.41 27.2L41.14 28.08C40.54 28.05 40.12 27.48 40.27 26.89L38.86 19.72C39.11 18.75 38.89 18.1 38.22 18.85L28.34 30.34C27.8 30.94 28.2 31.88 29 31.93L31.27 32.05Z" />
						<path id="Vector" class="shp11" d="M32.88 31.83C33.48 31.83 33.94 32.38 33.82 32.97L30.24 41.75C30.24 43.5 31.73 44.81 33.47 43.41L43.72 28.67C45 26.67 44.48 25.7 42.97 24.64L40.53 27.35C39.93 27.35 39.47 26.8 39.59 26.21L41.65 15.91C42.05 14.25 40.52 13.44 39.28 12.94L27.86 32.28C27.36 32.9 27.81 33.83 28.61 33.83L32.88 31.83Z" />
						<path id="Vector" class="shp16" d="M32.38 29.99C32.98 29.99 33.44 30.54 33.32 31.13L30.26 41.43C30.06 42.41 31.32 43 31.94 42.21L43.45 26.38C43.95 25.75 43.45 24.37 42.31 24.51L39.03 25.51C38.43 25.51 37.98 24.96 38.09 24.37L40.15 14.07C40.35 13.09 39.1 12.51 38.47 13.29L27.36 30.44C26.86 31.06 27.3 31.99 28.11 31.99L32.38 29.99Z" />
						<g id="Group 436">
							<path id="Vector" class="shp17" d="M29.89 30.08C29.94 29.87 29.96 29.65 29.96 29.43C29.96 27.91 28.8 26.69 27.36 26.69C26.79 26.69 26.27 26.88 25.84 27.2C24.95 25.78 23.42 24.84 21.68 24.84C18.93 24.84 16.7 27.19 16.7 30.08C16.7 30.1 16.7 30.12 16.7 30.13C14.96 30.44 13.63 32.04 13.63 33.96C13.63 36.1 15.28 37.84 17.31 37.84L29.96 37.84C32 37.84 33.65 36.1 33.65 33.96C33.65 31.82 32 30.08 29.96 30.08C29.94 30.08 29.91 30.08 29.89 30.08Z" />
							<path id="Vector" class="shp18" d="M29.96 37.84C27.93 37.84 26.28 36.1 26.28 33.96C26.28 31.82 27.93 30.08 29.96 30.08C32 30.08 33.65 31.82 33.65 33.96C33.65 36.1 32 37.84 29.96 37.84Z" />
							<path id="Vector" class="shp19" d="M27.36 32.17C25.92 32.17 24.75 30.94 24.75 29.43C24.75 27.91 25.92 26.68 27.36 26.68C28.8 26.68 29.96 27.91 29.96 29.43C29.96 30.94 28.8 32.17 27.36 32.17Z" />
							<path id="Vector" class="shp20" d="M21.68 35.32C18.93 35.32 16.7 32.97 16.7 30.08C16.7 27.19 18.93 24.84 21.68 24.84C24.43 24.84 26.66 27.19 26.66 30.08C26.66 32.97 24.43 35.32 21.68 35.32Z" />
							<path id="Vector" class="shp21" d="M17 37.84C14.86 37.84 13.12 36.1 13.12 33.96C13.12 31.82 14.86 30.08 17 30.08C19.14 30.08 20.88 31.82 20.88 33.96C20.88 36.1 19.14 37.84 17 37.84Z" />
							<path id="Union" class="shp9" d="" />
						</g>
						<g id="Group 420">
							<path id="Path" class="shp11" d="M42.09 73.84L40.89 73.33L36.01 71.11C38 71.64 41.65 67.74 44.33 62.15C47.01 56.56 47.83 50.88 46.02 49.83L46.05 49.78L51.62 52.45L51.58 52.55C53.51 53.48 52.81 59.04 50.02 64.88C47.22 70.71 44.13 73.85 42.09 73.84L42.09 73.84Z" />
							<path id="Path" class="shp12" d="M45.84 50.21C47.65 51.26 46.9 56.8 44.15 62.54C41.4 68.27 37.82 72.03 35.83 71.5L35.56 71.37C35.46 71.32 35.35 71.27 35.27 71.17C33.76 69.77 34.47 64.71 37.06 59.32L37.13 59.17C39.93 53.34 43.81 49.24 45.74 50.16L45.84 50.21Z" />
						</g>
					</g>
				</g>
			</g>
		</g>
	</g>
</svg>