<svg version="1.2" baseProfile="tiny-ps" xmlns="http://www.w3.org/2000/svg" viewBox="0 0 101 100" width="101" height="100">
	<title>Home-Desktop-2</title>
	<defs>
		<linearGradient id="grd1" gradientUnits="userSpaceOnUse"  x1="51.334" y1="43.196" x2="189.739" y2="77.304">
			<stop offset="0" stop-color="#4fabf7"  />
			<stop offset="1" stop-color="#0e6db1"  />
		</linearGradient>
		<linearGradient id="grd2" gradientUnits="userSpaceOnUse"  x1="51.334" y1="43.196" x2="189.739" y2="77.304">
			<stop offset="0" stop-color="#4fabf7"  />
			<stop offset="1" stop-color="#0e6db1"  />
		</linearGradient>
		<clipPath clipPathUnits="userSpaceOnUse" id="cp1">
			<path d="M50.02 76.81C64.83 76.81 76.83 64.81 76.83 50C76.83 35.19 64.83 23.19 50.02 23.19C35.21 23.19 23.21 35.19 23.21 50C23.21 64.81 35.21 76.81 50.02 76.81Z" />
		</clipPath>
		<linearGradient id="grd3" gradientUnits="userSpaceOnUse"  x1="57.467" y1="69.942" x2="68.367" y2="68.069">
			<stop offset="0" stop-color="#adc2ce"  />
			<stop offset="1" stop-color="#adc2ce" stop-opacity="0" />
		</linearGradient>
	</defs>
	<style>
		tspan { white-space:pre }
		.shp0 { fill: #a1f069 } 
		.shp1 { fill: url(#grd1) } 
		.shp2 { fill: url(#grd2) } 
		.shp3 { fill: #e28800 } 
		.shp4 { fill: #fbcc53 } 
		.shp5 { fill-opacity: 0.302;mix-blend-mode: multiply;fill: url(#grd3) } 
		.shp6 { fill: #faa602 } 
		.shp7 { fill: #ca7a03 } 
		.shp8 { fill: #ffffff } 
		.shp9 { fill: #ffdc82 } 
	</style>
	<g id="Home-Desktop-2">
		<g id="Medals">
			<g id="Group 518">
				<g id="Group 534">
					<g id="Group 503">
						<g id="Group 484">
							<path id="Ellipse 5" class="shp0" d="M50.02 85C69.35 85 85.02 69.33 85.02 50C85.02 30.67 69.35 15 50.02 15C30.69 15 15.02 30.67 15.02 50C15.02 69.33 30.69 85 50.02 85Z" />
						</g>
						<path id="Ellipse 15" class="shp1" d="M50.02 76.81C64.83 76.81 76.83 64.81 76.83 50C76.83 35.19 64.83 23.19 50.02 23.19C35.21 23.19 23.21 35.19 23.21 50C23.21 64.81 35.21 76.81 50.02 76.81Z" />
						<g id="Mask Group">
							<path id="Ellipse 12" class="shp2" d="M50.02 76.81C64.83 76.81 76.83 64.81 76.83 50C76.83 35.19 64.83 23.19 50.02 23.19C35.21 23.19 23.21 35.19 23.21 50C23.21 64.81 35.21 76.81 50.02 76.81Z" />
							<g id="Mask by Ellipse 12" clip-path="url(#cp1)">
								<path id="Vector" class="shp3" d="M39.04 38.52L24.82 43.36C23.46 43.36 22.35 44.46 22.35 45.82L22.35 52.15C22.35 53.5 23.46 54.6 24.82 54.6L40.4 60.22L58.44 54.6L58.44 43.36L55.97 43.36L39.04 38.52Z" />
								<path id="Vector" class="shp3" d="M24.82 65.84C23.46 65.84 22.35 66.95 22.35 68.3L22.35 74.63C22.35 75.99 23.46 77.09 24.82 77.09L58.44 77.09L58.44 65.84L40.4 60.22L24.82 65.84Z" />
								<path id="Vector" class="shp4" d="M22.35 57.06L22.35 63.39C22.35 64.74 23.46 65.85 24.82 65.85L58.44 65.85L58.44 54.6L24.82 54.6C23.46 54.6 22.35 55.7 22.35 57.06Z" />
								<path id="Vector" class="shp4" d="M58.44 40.9L58.44 34.57C58.44 33.22 57.34 32.12 55.97 32.12L24.82 32.12C23.46 32.12 22.35 33.22 22.35 34.57L22.35 40.9C22.35 42.26 23.46 43.36 24.82 43.36L55.97 43.36L55.97 43.36C57.34 43.36 58.44 42.26 58.44 40.9Z" />
							</g>
						</g>
						<path id="Vector" class="shp5" d="M58.44 79.74C46.27 79.74 36.4 69.93 36.4 57.82C36.4 45.72 46.27 35.9 58.44 35.9C70.61 35.9 80.48 45.71 80.48 57.82C80.48 69.93 70.61 79.74 58.44 79.74Z" />
						<path id="Vector" class="shp4" d="M58.44 77.12C47.73 77.12 39.04 68.48 39.04 57.82C39.04 47.16 47.73 38.52 58.44 38.52C69.16 38.52 77.84 47.16 77.84 57.82C77.84 68.48 69.16 77.12 58.44 77.12Z" />
						<path id="Vector" class="shp6" d="M43.49 57.82C43.49 49.62 50.2 42.95 58.44 42.95C66.69 42.95 73.4 49.62 73.4 57.82C73.4 66.02 66.69 72.69 58.44 72.69C50.2 72.69 43.49 66.02 43.49 57.82Z" />
						<g id="surface1 2">
							<path id="Vector" class="shp7" d="M58.82 69.62L51.4 60.79L66.24 60.79L58.82 69.62Z" />
							<path id="Vector" class="shp8" d="M58.82 62.08L51.06 59.16L58.82 45.62L66.58 59.16L58.82 62.08Z" />
							<path id="Vector" class="shp8" d="M58.82 69.62L51.4 60.79L58.82 63.58L66.24 60.79L58.82 69.62Z" />
							<path id="Vector" class="shp9" d="M66.24 60.79L58.82 69.62L58.82 63.58L66.24 60.79Z" />
							<path id="Vector" class="shp9" d="M58.82 62.08L58.82 45.62L66.58 59.16L58.82 62.08Z" />
						</g>
					</g>
				</g>
			</g>
		</g>
	</g>
</svg>