<svg version="1.2" baseProfile="tiny-ps" xmlns="http://www.w3.org/2000/svg" viewBox="0 0 76 76" width="76" height="76">
	<title>Home-Desktop-2</title>
	<defs>
		<radialGradient id="grd1" gradientUnits="userSpaceOnUse"  cx="38.542" cy="36" r="21.732">
			<stop offset="0.188" stop-color="#da7c47"  />
			<stop offset="0.955" stop-color="#ab4810"  />
		</radialGradient>
		<radialGradient id="grd2" gradientUnits="userSpaceOnUse"  cx="38.544" cy="38.77" r="17.015">
			<stop offset="0.233" stop-color="#ffddca"  />
			<stop offset="0.727" stop-color="#ffcabd"  />
			<stop offset="1" stop-color="#f4baab"  />
		</radialGradient>
		<linearGradient id="grd3" gradientUnits="userSpaceOnUse"  x1="38.544" y1="44.461" x2="38.544" y2="58.082">
			<stop offset="0.188" stop-color="#da7c47"  />
			<stop offset="1" stop-color="#ab4810"  />
		</linearGradient>
		<linearGradient id="grd4" gradientUnits="userSpaceOnUse"  x1="39.247" y1="49.993" x2="35.029" y2="49.037">
			<stop offset="0" stop-color="#adc2ce"  />
			<stop offset="1" stop-color="#adc2ce" stop-opacity="0" />
		</linearGradient>
		<radialGradient id="grd5" gradientUnits="userSpaceOnUse"  cx="38.541" cy="42.938" r="9.561">
			<stop offset="0.188" stop-color="#f88f53"  />
			<stop offset="1" stop-color="#cf6223"  />
		</radialGradient>
		<linearGradient id="grd6" gradientUnits="userSpaceOnUse"  x1="39.979" y1="28.807" x2="30.446" y2="26.647">
			<stop offset="0" stop-color="#adc2ce"  />
			<stop offset="1" stop-color="#adc2ce" stop-opacity="0" />
		</linearGradient>
		<radialGradient id="grd7" gradientUnits="userSpaceOnUse"  cx="38.543" cy="23.493" r="12.407">
			<stop offset="0" stop-color="#ffdb86"  />
			<stop offset="0.91" stop-color="#f3b829"  />
		</radialGradient>
	</defs>
	<style>
		tspan { white-space:pre }
		.shp0 { fill: #5550a3 } 
		.shp1 { fill: #334151 } 
		.shp2 { fill: url(#grd1) } 
		.shp3 { fill: #b2b0bc } 
		.shp4 { fill: #f67561 } 
		.shp5 { fill: url(#grd2) } 
		.shp6 { fill: #ffb2c1 } 
		.shp7 { fill: url(#grd3) } 
		.shp8 { fill-opacity: 0.302;mix-blend-mode: multiply;fill: url(#grd4) } 
		.shp9 { fill: url(#grd5) } 
		.shp10 { fill-opacity: 0.302;mix-blend-mode: multiply;fill: url(#grd6) } 
		.shp11 { fill: url(#grd7) } 
		.shp12 { fill: #fb8978 } 
		.shp13 { fill: #ffffff } 
	</style>
	<g id="Home-Desktop-2">
		<g id="Medals">
			<g id="Group 518">
				<g id="Group 534">
					<g id="Group 519">
						<g id="Group 416">
							<path id="Ellipse 5" class="shp0" d="M38.54 72C57.86 72 73.52 56.33 73.52 37C73.52 17.67 57.86 2 38.54 2C19.23 2 3.57 17.67 3.57 37C3.57 56.33 19.23 72 38.54 72Z" />
						</g>
						<g id="Group">
							<path id="Ellipse 6" class="shp1" d="M38.48 63.08C52.55 63.08 63.96 51.67 63.96 37.58C63.96 23.5 52.55 12.08 38.48 12.08C24.4 12.08 12.99 23.5 12.99 37.58C12.99 51.67 24.4 63.08 38.48 63.08Z" />
							<path id="Vector" class="shp2" d="M38.54 11.51C24.02 11.51 12.2 23.41 12.2 38.04L64.88 38.04C64.88 23.41 53.07 11.51 38.54 11.51Z" />
							<path id="Vector" class="shp3" d="M50.03 60.59L51.69 54.96L51.69 54.96C52.31 55.52 53.32 56.41 54.43 57.68C53.08 58.79 51.6 59.77 50.03 60.59Z" />
							<path id="Vector" class="shp3" d="M25.39 54.96L25.4 54.96L26.8 60.45C25.32 59.66 23.94 58.73 22.65 57.68C23.76 56.41 24.77 55.52 25.39 54.96Z" />
							<path id="Vector" class="shp4" d="M51.69 54.96L51.69 54.96L51.69 59.64C47.86 62.01 43.36 63.38 38.54 63.38C33.73 63.38 29.22 62.01 25.4 59.64L25.4 54.96L25.39 54.96C25.79 54.6 26.03 54.42 26.03 54.42L51.06 54.42C51.06 54.42 51.3 54.6 51.69 54.96Z" />
							<path id="Vector" class="shp3" d="M46.43 62.1C43.95 62.93 41.3 63.38 38.54 63.38C35.79 63.38 33.13 62.93 30.65 62.1C30.56 61.76 30.52 61.39 30.52 61.01L30.52 53.66L46.57 53.66L46.57 61.01C46.57 61.39 46.52 61.76 46.43 62.1Z" />
							<path id="Union" class="shp5" d="M17.21 46.2C20.44 46.2 23.06 43.56 23.06 40.3C23.06 37.05 20.44 34.41 17.21 34.41C13.97 34.41 11.35 37.05 11.35 40.3C11.35 43.56 13.97 46.2 17.21 46.2ZM59.88 38.03C59.88 49.9 50.33 59.52 38.54 59.52C26.76 59.52 17.21 49.9 17.21 38.03C17.21 32.68 19.15 27.79 22.37 24.02L54.72 24.02C57.94 27.79 59.88 32.68 59.88 38.03ZM55.83 36.13C55.83 31.82 54.94 27.73 53.33 24.02L54.72 24.02C57.19 26.92 58.92 30.49 59.58 34.42C59.68 34.41 59.78 34.41 59.88 34.41C63.12 34.41 65.74 37.05 65.74 40.3C65.74 43.56 63.12 46.2 59.88 46.2C59.36 46.2 58.85 46.13 58.37 46C56.22 51.41 51.96 55.73 46.61 57.93C52.29 52.43 55.83 44.69 55.83 36.13Z" />
							<g id="Group">
								<g id="Group">
									<g id="Group">
										<path id="Vector" class="shp6" d="M51.27 44.68C53.86 44.68 55.96 42.99 55.96 40.91C55.96 38.83 53.86 37.15 51.27 37.15C48.67 37.15 46.57 38.83 46.57 40.91C46.57 42.99 48.67 44.68 51.27 44.68Z" />
									</g>
									<g id="Group">
										<path id="Vector" class="shp6" d="M25.82 44.68C28.41 44.68 30.52 42.99 30.52 40.91C30.52 38.83 28.41 37.15 25.82 37.15C23.23 37.15 21.13 38.83 21.13 40.91C21.13 42.99 23.23 44.68 25.82 44.68Z" />
									</g>
								</g>
							</g>
							<g id="Group">
								<path id="Vector" class="shp1" d="M49.49 37.29L49.49 35.36C49.49 34.82 49.06 34.39 48.53 34.39C48 34.39 47.57 34.82 47.57 35.36L47.57 37.29C47.57 37.82 48 38.26 48.53 38.26C49.06 38.26 49.49 37.82 49.49 37.29Z" />
							</g>
							<g id="Group">
								<path id="Vector" class="shp1" d="M29.52 37.29L29.52 35.36C29.52 34.82 29.09 34.39 28.56 34.39C28.03 34.39 27.6 34.82 27.6 35.36L27.6 37.29C27.6 37.82 28.03 38.26 28.56 38.26C29.09 38.26 29.52 37.82 29.52 37.29Z" />
							</g>
							<path id="Vector" class="shp7" d="M46.85 47.83C46.13 52.05 40.48 58.08 38.54 58.08C36.61 58.08 31.07 52.76 30.24 47.83L38.54 44.46L46.85 47.83Z" />
							<path id="Vector" class="shp8" d="M49.1 50.25C49.72 49.92 49.76 49.07 49.19 48.67C47.75 47.65 46.9 45.41 45.71 44.29C43.85 42.55 40.65 41.49 38.54 43.41C36.43 41.49 33.23 42.55 31.38 44.29C30.18 45.41 29.34 47.65 27.89 48.67C27.32 49.07 27.37 49.92 27.98 50.25C30.51 51.59 35.29 53.29 38.54 49.2C41.79 53.29 46.58 51.59 49.1 50.25Z" />
							<path id="Vector" class="shp9" d="M49.1 48.25C49.72 47.92 49.76 47.07 49.19 46.67C47.75 45.65 46.9 43.41 45.71 42.29C43.85 40.55 40.65 39.49 38.54 41.41C36.43 39.49 33.23 40.55 31.38 42.29C30.18 43.41 29.34 45.65 27.89 46.67C27.32 47.07 27.37 47.92 27.98 48.25C30.51 49.59 35.29 51.29 38.54 47.2C41.79 51.29 46.58 49.59 49.1 48.25Z" />
							<path id="Vector" class="shp10" d="M19.51 16.98C21.43 18.42 24.29 20.17 28.56 19.14C31.75 18.37 33.61 14.82 34.56 12.22C35.12 10.7 36.47 9.58 38.07 9.41C40.02 9.19 41.83 10.33 42.49 12.14C43.44 14.74 45.3 18.36 48.53 19.14C52.8 20.17 56.65 18.42 58.58 16.98C59.78 16.08 61.4 15.96 62.71 16.69C64.07 17.45 62.9 18.82 62.71 20.38L62.39 26.74C62.58 27.18 62.8 27.67 62.98 28.15C62.22 29.19 60.84 29.8 58.36 30.65C54.49 31.99 49.66 33.52 38.54 33.52C27.43 33.52 21.6 31.52 18.72 30.65C16.76 30.06 15.11 29.32 14.16 28.03C14.16 27.88 14.42 27.42 14.73 26.66L13.43 20.52C13.25 18.96 14.01 17.45 15.37 16.69C16.69 15.96 18.3 16.08 19.51 16.98Z" />
							<path id="Vector" class="shp11" d="M18.51 14.98C20.43 16.42 24.29 18.17 28.56 17.14C31.75 16.37 33.61 12.82 34.56 10.22C35.12 8.7 36.47 7.58 38.07 7.41C40.02 7.19 41.83 8.33 42.49 10.14C43.44 12.74 45.3 16.36 48.53 17.14C52.8 18.17 56.65 16.42 58.58 14.98C59.78 14.08 61.4 13.96 62.71 14.69C64.07 15.45 64.84 16.96 64.65 18.52L63.76 23.84C63.43 26.59 62.24 27.31 58.36 28.65C54.49 29.99 49.66 31.52 38.54 31.52C27.43 31.52 21.6 29.52 18.72 28.65C15.84 27.79 13.65 26.59 13.32 23.84L12.44 18.52C12.25 16.96 13.01 15.45 14.37 14.69C15.69 13.96 17.3 14.08 18.51 14.98Z" />
							<path id="Vector" class="shp12" d="M38.54 25.93C39.89 25.93 40.98 24.46 40.98 22.63C40.98 20.8 39.89 19.32 38.54 19.32C37.2 19.32 36.11 20.8 36.11 22.63C36.11 24.46 37.2 25.93 38.54 25.93Z" />
							<path id="Union" class="shp13" d="" />
						</g>
					</g>
				</g>
			</g>
		</g>
	</g>
</svg>