<svg version="1.2" baseProfile="tiny-ps" xmlns="http://www.w3.org/2000/svg" viewBox="0 0 83 82" width="83" height="82">
	<title>Home-Desktop-2</title>
	<defs>
		<linearGradient id="grd1" gradientUnits="userSpaceOnUse"  x1="42.334" y1="34.196" x2="180.739" y2="68.304">
			<stop offset="0" stop-color="#4fabf7"  />
			<stop offset="1" stop-color="#0e6db1"  />
		</linearGradient>
		<linearGradient id="grd2" gradientUnits="userSpaceOnUse"  x1="42.334" y1="34.196" x2="180.739" y2="68.304">
			<stop offset="0" stop-color="#4fabf7"  />
			<stop offset="1" stop-color="#0e6db1"  />
		</linearGradient>
		<clipPath clipPathUnits="userSpaceOnUse" id="cp1">
			<path d="M41.02 67.81C55.83 67.81 67.83 55.81 67.83 41C67.83 26.19 55.83 14.19 41.02 14.19C26.21 14.19 14.21 26.19 14.21 41C14.21 55.81 26.21 67.81 41.02 67.81Z" />
		</clipPath>
		<linearGradient id="grd3" gradientUnits="userSpaceOnUse"  x1="48.344" y1="60.942" x2="59.243" y2="59.069">
			<stop offset="0" stop-color="#adc2ce"  />
			<stop offset="1" stop-color="#adc2ce" stop-opacity="0" />
		</linearGradient>
	</defs>
	<style>
		tspan { white-space:pre }
		.shp0 { fill: #5550a3 } 
		.shp1 { fill: url(#grd1) } 
		.shp2 { fill: url(#grd2) } 
		.shp3 { fill: #e28800 } 
		.shp4 { fill: #fbcc53 } 
		.shp5 { fill-opacity: 0.302;mix-blend-mode: multiply;fill: url(#grd3) } 
		.shp6 { fill: #faa602 } 
		.shp7 { fill: #ffffff } 
	</style>
	<g id="Home-Desktop-2">
		<g id="Medals">
			<g id="Group 518">
				<g id="Group 534">
					<g id="Group 504">
						<g id="Group 485">
							<path id="Ellipse 5" class="shp0" d="M41.02 76C60.35 76 76.02 60.33 76.02 41C76.02 21.67 60.35 6 41.02 6C21.69 6 6.02 21.67 6.02 41C6.02 60.33 21.69 76 41.02 76Z" />
						</g>
						<path id="Ellipse 16" class="shp1" d="M41.02 67.81C55.83 67.81 67.83 55.81 67.83 41C67.83 26.19 55.83 14.19 41.02 14.19C26.21 14.19 14.21 26.19 14.21 41C14.21 55.81 26.21 67.81 41.02 67.81Z" />
						<g id="Mask Group">
							<path id="Ellipse 12" class="shp2" d="M41.02 67.81C55.83 67.81 67.83 55.81 67.83 41C67.83 26.19 55.83 14.19 41.02 14.19C26.21 14.19 14.21 26.19 14.21 41C14.21 55.81 26.21 67.81 41.02 67.81Z" />
							<g id="Mask by Ellipse 12" clip-path="url(#cp1)">
								<path id="Vector" class="shp3" d="M29.92 29.52L15.7 34.36C14.33 34.36 13.23 35.46 13.23 36.82L13.23 43.15C13.23 44.5 14.33 45.6 15.7 45.6L31.27 51.22L49.32 45.6L49.32 34.36L46.85 34.36L29.92 29.52Z" />
								<path id="Vector" class="shp3" d="M15.7 56.84C14.33 56.84 13.23 57.95 13.23 59.3L13.23 65.63C13.23 66.99 14.33 68.09 15.7 68.09L49.32 68.09L49.32 56.84L31.27 51.22L15.7 56.84Z" />
								<path id="Vector" class="shp4" d="M13.23 48.06L13.23 54.39C13.23 55.74 14.33 56.85 15.7 56.85L49.32 56.85L49.32 45.6L15.7 45.6C14.33 45.6 13.23 46.7 13.23 48.06Z" />
								<path id="Vector" class="shp4" d="M49.32 31.9L49.32 25.57C49.32 24.22 48.21 23.12 46.85 23.12L15.7 23.12C14.33 23.12 13.23 24.22 13.23 25.57L13.23 31.9C13.23 33.26 14.33 34.36 15.7 34.36L46.85 34.36L46.85 34.36C48.21 34.36 49.32 33.26 49.32 31.9Z" />
							</g>
						</g>
						<path id="Vector" class="shp5" d="M49.32 70.74C37.15 70.74 27.28 60.93 27.28 48.82C27.28 36.72 37.15 26.9 49.32 26.9C61.49 26.9 71.36 36.71 71.36 48.82C71.36 60.93 61.49 70.74 49.32 70.74Z" />
						<path id="Vector" class="shp4" d="M49.32 68.12C38.6 68.12 29.92 59.48 29.92 48.82C29.92 38.16 38.6 29.52 49.32 29.52C60.03 29.52 68.72 38.16 68.72 48.82C68.72 59.48 60.03 68.12 49.32 68.12Z" />
						<path id="Vector" class="shp6" d="M34.37 48.82C34.37 40.62 41.07 33.95 49.32 33.95C57.56 33.95 64.27 40.62 64.27 48.82C64.27 57.02 57.56 63.69 49.32 63.69C41.07 63.69 34.37 57.02 34.37 48.82Z" />
						<g id="Group 491" style="opacity: 0.502;mix-blend-mode: multiply">
							<path id="path3717 1" class="shp3" d="M49.85 52.45C48.86 52.45 48.05 51.63 48.05 50.62C48.05 49.24 47.6 48.78 46.25 48.78C44.9 48.78 44.45 49.24 44.45 50.62C44.45 51.63 43.64 52.45 42.65 52.45C41.66 52.45 40.85 51.63 40.85 50.62C40.85 49.6 41.66 48.78 42.65 48.78C44 48.78 44.45 48.33 44.45 46.95C44.45 45.94 45.26 45.12 46.25 45.12C47.24 45.12 48.05 45.94 48.05 46.95C48.05 48.33 48.5 48.78 49.85 48.78C50.85 48.78 51.65 49.6 51.65 50.62C51.65 51.63 50.85 52.45 49.85 52.45Z" />
							<path id="circle3719 1" class="shp3" d="M39.04 56.12C38.04 56.12 37.24 55.3 37.24 54.28C37.24 53.27 38.04 52.45 39.04 52.45C40.03 52.45 40.84 53.27 40.84 54.28C40.84 55.3 40.03 56.12 39.04 56.12Z" />
							<path id="path3721 1" class="shp3" d="M60.67 48.78C59.32 48.78 58.87 49.24 58.87 50.61C58.87 51.63 58.06 52.44 57.07 52.44C55.72 52.44 55.27 52.9 55.27 54.27C55.27 55.29 54.46 56.11 53.47 56.11C52.48 56.11 51.67 55.28 51.67 54.27C51.67 53.26 52.48 52.44 53.47 52.44C54.82 52.44 55.27 51.98 55.27 50.61C55.27 49.6 56.08 48.78 57.07 48.78C58.42 48.78 58.87 48.32 58.87 46.95C58.87 45.93 59.68 45.12 60.67 45.12C61.66 45.12 62.47 45.94 62.47 46.95C62.47 47.96 61.66 48.78 60.67 48.78Z" />
						</g>
						<g id="Group 492">
							<path id="path3717 1" class="shp7" d="M49.85 51.45C48.86 51.45 48.05 50.63 48.05 49.62C48.05 48.24 47.6 47.78 46.25 47.78C44.9 47.78 44.45 48.24 44.45 49.62C44.45 50.63 43.64 51.45 42.65 51.45C41.66 51.45 40.85 50.63 40.85 49.62C40.85 48.6 41.66 47.78 42.65 47.78C44 47.78 44.45 47.33 44.45 45.95C44.45 44.94 45.26 44.12 46.25 44.12C47.24 44.12 48.05 44.94 48.05 45.95C48.05 47.33 48.5 47.78 49.85 47.78C50.85 47.78 51.65 48.6 51.65 49.62C51.65 50.63 50.85 51.45 49.85 51.45Z" />
							<path id="circle3719 1" class="shp7" d="M39.04 55.12C38.04 55.12 37.24 54.3 37.24 53.29C37.24 52.27 38.04 51.45 39.04 51.45C40.03 51.45 40.84 52.27 40.84 53.29C40.84 54.3 40.03 55.12 39.04 55.12Z" />
							<path id="path3721 1" class="shp7" d="M60.67 47.78C59.32 47.78 58.87 48.24 58.87 49.61C58.87 50.63 58.06 51.44 57.07 51.44C55.72 51.44 55.27 51.9 55.27 53.27C55.27 54.29 54.46 55.11 53.47 55.11C52.48 55.11 51.67 54.28 51.67 53.27C51.67 52.26 52.48 51.44 53.47 51.44C54.82 51.44 55.27 50.98 55.27 49.61C55.27 48.6 56.08 47.78 57.07 47.78C58.42 47.78 58.87 47.32 58.87 45.95C58.87 44.93 59.68 44.12 60.67 44.12C61.66 44.12 62.47 44.94 62.47 45.95C62.47 46.96 61.66 47.78 60.67 47.78Z" />
						</g>
					</g>
				</g>
			</g>
		</g>
	</g>
</svg>