<svg version="1.2" baseProfile="tiny-ps" xmlns="http://www.w3.org/2000/svg" viewBox="0 0 83 82" width="83" height="82">
	<title>Home-Desktop-2</title>
	<defs>
		<linearGradient id="grd1" gradientUnits="userSpaceOnUse"  x1="42.334" y1="34.196" x2="180.739" y2="68.304">
			<stop offset="0" stop-color="#4fabf7"  />
			<stop offset="1" stop-color="#0e6db1"  />
		</linearGradient>
		<linearGradient id="grd2" gradientUnits="userSpaceOnUse"  x1="42.334" y1="34.196" x2="180.739" y2="68.304">
			<stop offset="0" stop-color="#4fabf7"  />
			<stop offset="1" stop-color="#0e6db1"  />
		</linearGradient>
		<clipPath clipPathUnits="userSpaceOnUse" id="cp1">
			<path d="M41.02 67.81C55.83 67.81 67.83 55.81 67.83 41C67.83 26.19 55.83 14.19 41.02 14.19C26.21 14.19 14.21 26.19 14.21 41C14.21 55.81 26.21 67.81 41.02 67.81Z" />
		</clipPath>
		<linearGradient id="grd3" gradientUnits="userSpaceOnUse"  x1="48.282" y1="60.942" x2="59.182" y2="59.069">
			<stop offset="0" stop-color="#adc2ce"  />
			<stop offset="1" stop-color="#adc2ce" stop-opacity="0" />
		</linearGradient>
	</defs>
	<style>
		tspan { white-space:pre }
		.shp0 { fill: #5550a3 } 
		.shp1 { fill: url(#grd1) } 
		.shp2 { fill: url(#grd2) } 
		.shp3 { fill: #e28800 } 
		.shp4 { fill: #fbcc53 } 
		.shp5 { fill-opacity: 0.302;mix-blend-mode: multiply;fill: url(#grd3) } 
		.shp6 { fill: #faa602 } 
		.shp7 { fill: #ec7e01 } 
		.shp8 { fill: #ffffff } 
	</style>
	<g id="Home-Desktop-2">
		<g id="Medals">
			<g id="Group 518">
				<g id="Group 534">
					<g id="Group 505">
						<g id="Group 486">
							<path id="Ellipse 5" class="shp0" d="M41.02 76C60.35 76 76.02 60.33 76.02 41C76.02 21.67 60.35 6 41.02 6C21.69 6 6.02 21.67 6.02 41C6.02 60.33 21.69 76 41.02 76Z" />
						</g>
						<path id="Ellipse 17" class="shp1" d="M41.02 67.81C55.83 67.81 67.83 55.81 67.83 41C67.83 26.19 55.83 14.19 41.02 14.19C26.21 14.19 14.21 26.19 14.21 41C14.21 55.81 26.21 67.81 41.02 67.81Z" />
						<g id="Mask Group">
							<path id="Ellipse 12" class="shp2" d="M41.02 67.81C55.83 67.81 67.83 55.81 67.83 41C67.83 26.19 55.83 14.19 41.02 14.19C26.21 14.19 14.21 26.19 14.21 41C14.21 55.81 26.21 67.81 41.02 67.81Z" />
							<g id="Mask by Ellipse 12" clip-path="url(#cp1)">
								<path id="Vector" class="shp3" d="M29.86 29.52L15.63 34.36C14.27 34.36 13.16 35.46 13.16 36.82L13.16 43.15C13.16 44.5 14.27 45.6 15.63 45.6L31.21 51.22L49.26 45.6L49.26 34.36L46.79 34.36L29.86 29.52Z" />
								<path id="Vector" class="shp3" d="M15.63 56.85C14.27 56.85 13.16 57.95 13.16 59.3L13.16 65.63C13.16 66.99 14.27 68.09 15.63 68.09L49.26 68.09L49.26 56.85L31.21 51.22L15.63 56.85Z" />
								<path id="Vector" class="shp4" d="M13.16 48.06L13.16 54.39C13.16 55.74 14.27 56.85 15.63 56.85L49.26 56.85L49.26 45.6L15.63 45.6C14.27 45.6 13.16 46.7 13.16 48.06Z" />
								<path id="Vector" class="shp4" d="M49.26 31.9L49.26 25.57C49.26 24.22 48.15 23.12 46.79 23.12L15.63 23.12C14.27 23.12 13.16 24.22 13.16 25.57L13.16 31.9C13.16 33.26 14.27 34.36 15.63 34.36L46.79 34.36L46.79 34.36C48.15 34.36 49.26 33.26 49.26 31.9Z" />
							</g>
						</g>
						<path id="Vector" class="shp5" d="M49.26 70.74C37.09 70.74 27.22 60.93 27.22 48.82C27.22 36.72 37.09 26.9 49.26 26.9C61.43 26.9 71.3 36.71 71.3 48.82C71.3 60.93 61.43 70.74 49.26 70.74Z" />
						<path id="Vector" class="shp4" d="M49.26 68.12C38.54 68.12 29.86 59.48 29.86 48.82C29.86 38.16 38.54 29.52 49.26 29.52C59.97 29.52 68.66 38.16 68.66 48.82C68.66 59.48 59.97 68.12 49.26 68.12Z" />
						<path id="Vector" class="shp6" d="M34.3 48.82C34.3 40.62 41.01 33.95 49.26 33.95C57.5 33.95 64.21 40.62 64.21 48.82C64.21 57.02 57.5 63.69 49.26 63.69C41.01 63.69 34.3 57.02 34.3 48.82Z" />
						<path id="Vector" fill-rule="evenodd" class="shp7" d="M60.33 46.28C60.67 46.56 60.83 46.99 60.75 47.41L60.74 47.49L60.7 47.55C60.59 47.75 60.46 47.93 60.32 48.09C59.37 49.25 50.22 59.83 49.83 60.27C49.21 61.05 49.01 61.12 48.79 61.12L48.7 61.11C48.14 61.07 47.94 60.49 47.85 60.21C47.36 58.92 45.91 55.63 44.39 52.14C42.52 47.87 40.58 43.45 39.82 41.42L39.79 41.34L39.79 40.92L39.84 40.79C39.89 40.65 39.99 40.5 40.12 40.37L40.26 40.26C40.37 40.19 40.51 40.14 40.65 40.12C40.8 40.1 40.97 40.08 55.7 42.7L56.28 42.81C56.46 42.88 56.63 42.97 56.78 43.08L56.87 43.14C57.53 43.7 58.26 44.38 58.97 45.03C59.46 45.49 59.93 45.92 60.33 46.28ZM49.21 48.93L43.59 44.39L48.4 55.58L49.21 48.93ZM45.12 43.03L50.31 47.09L53.53 44.51L45.12 43.03ZM55.94 45.32L53.66 47.13L57.28 46.5L55.94 45.32ZM56.89 48.7L51.4 49.54L50.61 55.91L56.89 48.7Z" />
						<path id="Vector" fill-rule="evenodd" class="shp8" d="M60.33 45.28C60.67 45.56 60.83 45.99 60.75 46.41L60.74 46.49L60.7 46.55C60.59 46.75 60.46 46.93 60.32 47.09C59.37 48.25 50.22 58.83 49.83 59.27C49.21 60.05 49.01 60.12 48.79 60.12L48.7 60.11C48.14 60.07 47.94 59.49 47.85 59.21C47.36 57.92 45.91 54.63 44.39 51.14C42.52 46.87 40.58 42.45 39.82 40.42L39.79 40.34L39.79 39.92L39.84 39.79C39.89 39.65 39.99 39.5 40.12 39.37L40.26 39.26C40.37 39.19 40.51 39.14 40.65 39.12C40.8 39.1 40.97 39.08 55.7 41.7L56.28 41.81C56.46 41.88 56.63 41.97 56.78 42.08L56.87 42.14C57.53 42.7 58.26 43.38 58.97 44.03C59.46 44.49 59.93 44.92 60.33 45.28ZM49.21 47.93L43.59 43.39L48.4 54.58L49.21 47.93ZM45.12 42.03L50.31 46.09L53.53 43.51L45.12 42.03ZM55.94 44.32L53.66 46.13L57.28 45.5L55.94 44.32ZM56.89 47.7L51.4 48.54L50.61 54.91L56.89 47.7Z" />
					</g>
				</g>
			</g>
		</g>
	</g>
</svg>