<svg version="1.2" baseProfile="tiny-ps" xmlns="http://www.w3.org/2000/svg" viewBox="0 0 83 82" width="83" height="82">
	<title>Home-Desktop-2</title>
	<defs>
		<linearGradient id="grd1" gradientUnits="userSpaceOnUse"  x1="42.335" y1="34.196" x2="180.739" y2="68.304">
			<stop offset="0" stop-color="#4fabf7"  />
			<stop offset="1" stop-color="#0e6db1"  />
		</linearGradient>
		<linearGradient id="grd2" gradientUnits="userSpaceOnUse"  x1="42.335" y1="34.196" x2="180.739" y2="68.304">
			<stop offset="0" stop-color="#4fabf7"  />
			<stop offset="1" stop-color="#0e6db1"  />
		</linearGradient>
		<clipPath clipPathUnits="userSpaceOnUse" id="cp1">
			<path d="M41.02 67.81C55.83 67.81 67.83 55.81 67.83 41C67.83 26.19 55.83 14.19 41.02 14.19C26.21 14.19 14.21 26.19 14.21 41C14.21 55.81 26.21 67.81 41.02 67.81Z" />
		</clipPath>
		<linearGradient id="grd3" gradientUnits="userSpaceOnUse"  x1="48.221" y1="60.942" x2="59.12" y2="59.069">
			<stop offset="0" stop-color="#adc2ce"  />
			<stop offset="1" stop-color="#adc2ce" stop-opacity="0" />
		</linearGradient>
	</defs>
	<style>
		tspan { white-space:pre }
		.shp0 { fill: #5550a3 } 
		.shp1 { fill: url(#grd1) } 
		.shp2 { fill: url(#grd2) } 
		.shp3 { fill: #e28800 } 
		.shp4 { fill: #fbcc53 } 
		.shp5 { fill-opacity: 0.302;mix-blend-mode: multiply;fill: url(#grd3) } 
		.shp6 { fill: #faa602 } 
	</style>
	<g id="Home-Desktop-2">
		<g id="Medals">
			<g id="Group 518">
				<g id="Group 534">
					<g id="Group 500">
						<g id="Group 479">
							<path id="Ellipse 5" class="shp0" d="M41.02 76C60.35 76 76.02 60.33 76.02 41C76.02 21.67 60.35 6 41.02 6C21.69 6 6.02 21.67 6.02 41C6.02 60.33 21.69 76 41.02 76Z" />
						</g>
						<path id="Ellipse 15" class="shp1" d="M41.02 67.81C55.83 67.81 67.83 55.81 67.83 41C67.83 26.19 55.83 14.19 41.02 14.19C26.21 14.19 14.21 26.19 14.21 41C14.21 55.81 26.21 67.81 41.02 67.81Z" />
						<g id="Mask Group">
							<path id="Ellipse 12" class="shp2" d="M41.02 67.81C55.83 67.81 67.83 55.81 67.83 41C67.83 26.19 55.83 14.19 41.02 14.19C26.21 14.19 14.21 26.19 14.21 41C14.21 55.81 26.21 67.81 41.02 67.81Z" />
							<g id="Mask by Ellipse 12" clip-path="url(#cp1)">
								<path id="Vector" class="shp3" d="M29.8 29.52L15.57 34.36C14.21 34.36 13.1 35.46 13.1 36.82L13.1 43.15C13.1 44.5 14.21 45.6 15.57 45.6L31.15 51.22L49.19 45.6L49.19 34.36L46.73 34.36L29.8 29.52Z" />
								<path id="Vector" class="shp3" d="M15.57 56.85C14.21 56.85 13.1 57.95 13.1 59.3L13.1 65.63C13.1 66.99 14.21 68.09 15.57 68.09L49.2 68.09L49.2 56.85L31.15 51.22L15.57 56.85Z" />
								<path id="Vector" class="shp4" d="M13.1 48.06L13.1 54.39C13.1 55.74 14.21 56.85 15.57 56.85L49.2 56.85L49.2 45.6L15.57 45.6C14.21 45.6 13.1 46.7 13.1 48.06Z" />
								<path id="Vector" class="shp4" d="M49.2 31.9L49.2 25.57C49.19 24.22 48.09 23.12 46.73 23.12L15.57 23.12C14.21 23.12 13.1 24.22 13.1 25.57L13.1 31.9C13.1 33.26 14.21 34.36 15.57 34.36L46.73 34.36L46.73 34.36C48.09 34.36 49.2 33.26 49.2 31.9Z" />
							</g>
						</g>
						<path id="Vector" class="shp5" d="M49.2 70.74C37.03 70.74 27.16 60.93 27.16 48.82C27.16 36.72 37.03 26.9 49.2 26.9C61.37 26.9 71.23 36.71 71.23 48.82C71.23 60.93 61.37 70.74 49.2 70.74Z" />
						<path id="Vector" class="shp4" d="M49.19 68.12C38.48 68.12 29.8 59.48 29.8 48.82C29.8 38.16 38.48 29.52 49.19 29.52C59.91 29.52 68.6 38.16 68.6 48.82C68.6 59.48 59.91 68.12 49.19 68.12Z" />
						<path id="Vector" class="shp6" d="M34.24 48.82C34.24 40.62 40.95 33.95 49.2 33.95C57.44 33.95 64.15 40.62 64.15 48.82C64.15 57.02 57.44 63.69 49.2 63.69C40.95 63.69 34.24 57.02 34.24 48.82Z" />
						<g id="Union">
							<path id="D" class="shp4" d="M58.18 56.56C56.32 58.26 53.7 59.11 50.31 59.11L43.58 59.11L43.58 40.33L50.64 40.33C53.91 40.33 56.45 41.17 58.27 42.86C60.1 44.52 61.01 46.76 61.01 49.59C61.01 52.51 60.06 54.83 58.18 56.56ZM54.73 45.53C53.77 44.61 52.3 44.15 50.34 44.15L48.36 44.15L48.36 55.29L50.58 55.29C52.36 55.29 53.75 54.83 54.73 53.91C55.71 52.99 56.2 51.61 56.2 49.77C56.2 47.84 55.71 46.43 54.73 45.53Z" />
							<path id="Rectangle 99" class="shp4" d="M40.77 48.22L51.77 48.22L51.77 51.22L40.77 51.22L40.77 48.22Z" />
						</g>
						<g id="Union">
							<path id="D" class="shp4" d="M58.18 55.56C56.32 57.26 53.7 58.11 50.31 58.11L43.58 58.11L43.58 39.33L50.64 39.33C53.91 39.33 56.45 40.17 58.27 41.86C60.1 43.52 61.01 45.76 61.01 48.59C61.01 51.51 60.06 53.83 58.18 55.56ZM54.73 44.53C53.77 43.61 52.3 43.15 50.34 43.15L48.36 43.15L48.36 54.29L50.58 54.29C52.36 54.29 53.75 53.83 54.73 52.91C55.71 51.99 56.2 50.61 56.2 48.77C56.2 46.84 55.71 45.43 54.73 44.53Z" />
							<path id="Rectangle 99" class="shp4" d="M40.77 47.22L51.77 47.22L51.77 50.22L40.77 50.22L40.77 47.22Z" />
						</g>
					</g>
				</g>
			</g>
		</g>
	</g>
</svg>