<svg version="1.2" baseProfile="tiny-ps" xmlns="http://www.w3.org/2000/svg" viewBox="0 0 83 82" width="83" height="82">
	<title>Home-Desktop-2</title>
	<defs>
		<linearGradient id="grd1" gradientUnits="userSpaceOnUse"  x1="42.334" y1="34.196" x2="180.739" y2="68.304">
			<stop offset="0" stop-color="#4fabf7"  />
			<stop offset="1" stop-color="#0e6db1"  />
		</linearGradient>
		<linearGradient id="grd2" gradientUnits="userSpaceOnUse"  x1="42.334" y1="34.196" x2="180.739" y2="68.304">
			<stop offset="0" stop-color="#4fabf7"  />
			<stop offset="1" stop-color="#0e6db1"  />
		</linearGradient>
		<clipPath clipPathUnits="userSpaceOnUse" id="cp1">
			<path d="M41.02 67.81C55.83 67.81 67.83 55.81 67.83 41C67.83 26.19 55.83 14.19 41.02 14.19C26.21 14.19 14.21 26.19 14.21 41C14.21 55.81 26.21 67.81 41.02 67.81Z" />
		</clipPath>
		<linearGradient id="grd3" gradientUnits="userSpaceOnUse"  x1="48.159" y1="60.942" x2="59.059" y2="59.069">
			<stop offset="0" stop-color="#adc2ce"  />
			<stop offset="1" stop-color="#adc2ce" stop-opacity="0" />
		</linearGradient>
	</defs>
	<style>
		tspan { white-space:pre }
		.shp0 { fill: #5550a3 } 
		.shp1 { fill: url(#grd1) } 
		.shp2 { fill: url(#grd2) } 
		.shp3 { fill: #e28800 } 
		.shp4 { fill: #fbcc53 } 
		.shp5 { fill-opacity: 0.302;mix-blend-mode: multiply;fill: url(#grd3) } 
		.shp6 { fill: #faa602 } 
		.shp7 { fill: #ec7e01 } 
		.shp8 { fill: #ffffff } 
	</style>
	<g id="Home-Desktop-2">
		<g id="Medals">
			<g id="Group 518">
				<g id="Group 534">
					<g id="Group 506">
						<g id="Group 487">
							<path id="Ellipse 5" class="shp0" d="M41.02 76C60.35 76 76.02 60.33 76.02 41C76.02 21.67 60.35 6 41.02 6C21.69 6 6.02 21.67 6.02 41C6.02 60.33 21.69 76 41.02 76Z" />
						</g>
						<path id="Ellipse 18" class="shp1" d="M41.02 67.81C55.83 67.81 67.83 55.81 67.83 41C67.83 26.19 55.83 14.19 41.02 14.19C26.21 14.19 14.21 26.19 14.21 41C14.21 55.81 26.21 67.81 41.02 67.81Z" />
						<g id="Mask Group">
							<path id="Ellipse 12" class="shp2" d="M41.02 67.81C55.83 67.81 67.83 55.81 67.83 41C67.83 26.19 55.83 14.19 41.02 14.19C26.21 14.19 14.21 26.19 14.21 41C14.21 55.81 26.21 67.81 41.02 67.81Z" />
							<g id="Mask by Ellipse 12" clip-path="url(#cp1)">
								<path id="Vector" class="shp3" d="M29.74 29.52L15.51 34.36C14.15 34.36 13.04 35.46 13.04 36.82L13.04 43.15C13.04 44.5 14.15 45.6 15.51 45.6L31.09 51.22L49.13 45.6L49.13 34.36L46.67 34.36L29.74 29.52Z" />
								<path id="Vector" class="shp3" d="M15.51 56.85C14.15 56.85 13.04 57.95 13.04 59.3L13.04 65.63C13.04 66.99 14.15 68.09 15.51 68.09L49.14 68.09L49.14 56.85L31.09 51.22L15.51 56.85Z" />
								<path id="Vector" class="shp4" d="M13.04 48.06L13.04 54.39C13.04 55.74 14.15 56.85 15.51 56.85L49.14 56.85L49.14 45.6L15.51 45.6C14.15 45.6 13.04 46.7 13.04 48.06Z" />
								<path id="Vector" class="shp4" d="M49.14 31.9L49.14 25.57C49.13 24.22 48.03 23.12 46.67 23.12L15.51 23.12C14.15 23.12 13.04 24.22 13.04 25.57L13.04 31.9C13.04 33.26 14.15 34.36 15.51 34.36L46.67 34.36L46.67 34.36C48.03 34.36 49.14 33.26 49.14 31.9Z" />
							</g>
						</g>
						<path id="Vector" class="shp5" d="M49.13 70.74C36.96 70.74 27.1 60.93 27.1 48.82C27.1 36.72 36.96 26.9 49.13 26.9C61.31 26.9 71.17 36.71 71.17 48.82C71.17 60.93 61.31 70.74 49.13 70.74Z" />
						<path id="Vector" class="shp4" d="M49.13 68.12C38.42 68.12 29.73 59.48 29.73 48.82C29.73 38.16 38.42 29.52 49.13 29.52C59.85 29.52 68.53 38.16 68.53 48.82C68.53 59.48 59.85 68.12 49.13 68.12Z" />
						<path id="Vector" class="shp6" d="M34.18 48.82C34.18 40.62 40.89 33.95 49.13 33.95C57.38 33.95 64.09 40.62 64.09 48.82C64.09 57.02 57.38 63.69 49.13 63.69C40.89 63.69 34.18 57.02 34.18 48.82Z" />
						<g id="Group 493">
							<path id="Vector" class="shp7" d="M37.98 50.22C37.95 50.29 37.96 50.37 38.02 50.42L49.34 61.32C49.41 61.38 49.52 61.38 49.58 61.32L60.91 50.42C60.97 50.37 60.98 50.29 60.95 50.22L56.75 41.38C56.73 41.32 56.67 41.28 56.6 41.28L42.33 41.28C42.27 41.28 42.2 41.32 42.18 41.38L37.98 50.22Z" />
							<path id="Vector" class="shp8" d="M37.98 49.31C37.95 49.38 37.96 49.46 38.02 49.51L49.35 60.41C49.41 60.47 49.52 60.47 49.58 60.41L60.91 49.51C60.97 49.46 60.98 49.38 60.95 49.31L56.75 40.47C56.73 40.41 56.67 40.37 56.6 40.37L42.33 40.37C42.27 40.37 42.2 40.4 42.18 40.47L37.98 49.31Z" />
							<path id="Vector" fill-rule="evenodd" class="shp7" d="M49.48 50.25C48.74 50.25 48.21 50.23 48.02 50.22C45.14 50.09 42.99 49.59 42.99 48.98C42.99 48.38 45.14 47.88 48.02 47.75L48.02 49.72C48.21 49.73 48.75 49.76 49.5 49.76C50.39 49.76 50.84 49.72 50.92 49.72L50.92 47.75C53.79 47.88 55.94 48.38 55.94 48.98C55.94 49.59 53.79 50.09 50.92 50.22L50.92 50.22C50.84 50.22 50.42 50.25 49.48 50.25ZM50.92 45.79L54.93 45.79L54.93 43.1L44.01 43.1L44.01 45.79L48.02 45.79L48.02 47.55C44.76 47.7 42.31 48.35 42.31 49.12C42.31 49.9 44.76 50.55 48.02 50.7L48.02 56.34L50.92 56.34L50.92 50.7C54.17 50.55 56.62 49.9 56.62 49.12C56.62 48.35 54.18 47.7 50.92 47.55L50.92 45.79ZM50.92 47.55L50.92 47.55L50.92 47.55C50.92 47.55 50.92 47.55 50.92 47.55Z" />
						</g>
					</g>
				</g>
			</g>
		</g>
	</g>
</svg>