<svg width="108" height="81" viewBox="0 0 108 81" fill="none" xmlns="http://www.w3.org/2000/svg">
	<path d="M13.9273 2.03959C13.9221 2.03933 13.9221 2.03933 13.9273 2.03959L10.9802 4.44639L12.5095 5.43862C12.6621 9.84227 17.6278 17.0877 27.312 26.0348C41.9283 39.5328 62.9371 52.8983 79.7168 59.9193C84.4578 61.9034 88.859 63.3809 92.6882 64.2105C97.4963 65.2551 100.876 65.1614 102.865 64.1292L104.081 64.9237L104.891 61.5989L104.881 61.588C105.843 57.4008 100.895 49.5832 90.1843 39.6896C75.5732 26.1918 54.5641 12.8315 37.7795 5.80509C33.0385 3.82106 28.6373 2.3434 24.8082 1.51381C19.3871 0.329614 15.7695 0.593924 13.9273 2.03959Z" fill="url(#paint0_linear_40_56)" />
	<path d="M3.60064 15.9317L19.9437 26.6292C21.1541 27.8557 22.4515 29.1126 23.8562 30.4111C38.7315 44.1511 60.1139 57.7537 77.1896 64.8987C78.241 65.336 79.2727 65.7515 80.29 66.1403L96.5522 76.7923L103.746 65.5787L103.742 65.5681C106.227 61.7425 101.347 53.1887 89.2915 42.0515C74.4267 28.3121 53.0337 14.7141 35.9583 7.56391C31.1357 5.54461 26.6522 4.04212 22.7615 3.19387C16.1031 1.7507 12.1157 2.43943 10.7544 4.79951L10.7443 4.79377L3.60064 15.9317Z" fill="url(#paint1_linear_40_56)" />
	<path d="M3.25602 16.749L3.23996 16.7586L3.23037 16.8467C3.11838 17.2162 3.05714 17.6142 3.04626 18.046L2.8085 19.5917L3.26777 19.8904C4.32501 24.4325 9.30371 31.2046 18.1311 39.3594C33.0012 53.0991 54.3888 66.702 71.4593 73.8467C76.2868 75.8715 80.765 77.3737 84.6612 78.217C88.4747 79.0458 91.4064 79.1697 93.4771 78.6885L93.7949 78.8969L94.9668 78.1578C95.2712 78.0061 95.5455 77.8321 95.7841 77.6408L95.8111 77.6213L95.8114 77.6161C99.8022 74.3231 95.148 65.3013 82.1163 53.2565C67.2463 39.5168 45.8586 25.9191 28.7831 18.7689C23.9605 16.7496 19.477 15.2471 15.5811 14.3986C8.26348 12.8031 4.17763 13.7994 3.25602 16.749Z" fill="url(#paint2_linear_40_56)" />
	<path d="M8.9373 21.8313C12.4412 16.3736 33.2732 23.5007 55.4573 37.7471C77.6413 51.9936 92.7866 67.9658 89.2827 73.4235C85.7791 78.876 64.9523 71.7491 42.7683 57.5027C20.584 43.2615 5.4389 27.2841 8.9373 21.8313Z" fill="url(#paint3_linear_40_56)" />
	<path d="M13.6542 23.4389C16.8025 18.5366 35.5191 24.9396 55.4563 37.747C75.3935 50.5543 88.9989 64.9036 85.8558 69.8061C82.7072 74.7136 63.991 68.3055 44.0538 55.4981C24.1161 42.7012 10.5056 28.3464 13.6542 23.4389Z" fill="url(#paint4_radial_40_56)" />
	<path d="M32.4535 26.6895C45.6967 32.2286 62.2814 42.7818 73.8139 53.4348C88.6043 67.0977 89.4888 75.7721 75.7859 72.7938C72.7711 72.1398 69.2921 70.9733 65.5513 69.4085C52.3083 63.8642 35.7185 53.3106 24.1912 42.6579C9.39556 28.9947 8.51086 20.3204 22.2135 23.3039C25.2335 23.9581 28.7128 25.1246 32.4535 26.6895ZM69.9632 75.1057C74.7094 77.09 79.1106 78.5676 82.9346 79.397C100.296 83.1704 99.1818 72.1928 80.4364 54.8658C65.8201 41.3678 44.8111 28.0075 28.0316 20.9813C23.2855 18.9971 18.8841 17.5194 15.0602 16.6901C-2.29677 12.922 -1.18199 23.8997 17.5584 41.2212C32.1747 54.7192 53.1833 68.0899 69.9632 75.1057Z" fill="url(#paint5_linear_40_56)" />
	<path d="M29.6214 30.8574L31.8634 32.9213C30.5261 32.6834 29.4058 32.5865 28.4966 32.6458C27.5874 32.7051 27.0072 32.9578 26.7607 33.4144L26.1288 34.3989L26.7893 34.6294C26.8765 34.8681 26.9889 35.1237 27.1519 35.4078C27.6659 36.2874 28.668 37.4046 30.1373 38.7688C32.1249 40.6066 34.1103 42.1734 36.0929 43.4796C38.0705 44.7804 39.9793 45.8902 41.8042 46.8032C43.1002 47.4558 44.3633 48.039 45.588 48.5526C46.0984 48.7652 46.5991 48.9619 47.0998 49.1585C48.7972 49.8047 50.3567 50.3973 51.7729 50.936C52.601 51.2529 53.3778 51.5569 54.1127 51.864C54.6332 52.0824 55.1277 52.2995 55.5965 52.5102C56.7274 53.0243 57.652 53.6064 58.3741 54.2775C58.9619 54.8221 59.1628 55.1811 58.9769 55.3594C58.7858 55.5375 58.3168 55.5456 57.5542 55.3778C56.9563 55.2493 56.2234 55.0048 55.3763 54.6505C54.5242 54.2907 53.6542 53.8727 52.7511 53.3854C51.8477 52.9033 50.9425 52.3534 50.0142 51.7451C49.0806 51.1365 48.2316 50.5008 47.4513 49.8477L41.3288 48.5195L40.6969 49.504L43.2471 50.2862L51.9398 58.3197L55.7227 59.1366L57.4199 60.6319L58.0518 59.6474L56.2485 57.9801C56.9195 58.3154 57.7036 58.6822 58.6009 59.0755C59.0035 59.2568 59.4112 59.4384 59.8298 59.6101C60.3555 59.8288 60.8917 60.0479 61.4439 60.2574L66.2964 64.7315L68.4506 65.1972L70.385 66.7407L71.0169 65.7561L66.7977 61.855C68.1941 62.1635 69.3195 62.2607 70.184 62.1575C71.0384 62.0486 71.5892 61.7581 71.8009 61.2685C72.0123 60.7841 71.864 60.0945 71.3402 59.204C70.8213 58.319 69.8345 57.2077 68.3949 55.8761C66.432 54.0656 64.4866 52.5321 62.5493 51.2593C60.6169 49.9921 58.7434 48.9047 56.9289 47.9922C55.6227 47.334 54.36 46.7456 53.1353 46.232C52.6553 46.0365 52.1855 45.8466 51.7203 45.6674C50.0637 45.0388 48.5352 44.4529 47.1393 43.9257C46.4387 43.6619 45.7747 43.3948 45.1416 43.1344C44.5089 42.8688 43.9127 42.5997 43.3423 42.3372C42.2121 41.8074 41.2885 41.2098 40.5661 40.5439C40.1275 40.142 39.9356 39.8096 39.9848 39.5515C40.0438 39.3044 40.5247 39.2709 41.4315 39.4719C42.1531 39.6273 42.9526 39.8908 43.8507 40.2684C44.6212 40.5929 45.4658 40.9992 46.3741 41.4867C48.3326 42.5417 50.2744 43.8303 52.1836 45.3569L55.3839 46.0513L57.6018 47.6556L58.2335 46.6763L47.3786 36.6453L41.3282 35.3363L40.9335 35.9471C40.307 35.661 39.7054 35.3969 39.1285 35.1601C38.3733 34.8416 37.6581 34.5563 36.9877 34.3149L32.4694 30.1385L27.7384 29.1134L27.1117 30.0982L29.6214 30.8574Z" fill="url(#paint6_linear_40_56)" />
	<path d="M65.6614 65.7115L70.382 66.736L66.1628 62.8349C67.5591 63.1434 68.6845 63.2406 69.549 63.1374C70.4034 63.0285 70.9542 62.738 71.1659 62.2484C71.3776 61.7588 71.229 61.0744 70.7052 60.1839C70.1915 59.2991 69.1995 58.1876 67.7599 56.8561C65.797 55.0456 63.8568 53.5123 61.9143 52.2393C59.9819 50.972 58.1084 49.8847 56.2939 48.9722C54.9878 48.3139 53.7251 47.7255 52.5056 47.2122C52.0256 47.0167 51.5505 46.8266 51.0856 46.6422C49.429 46.0135 47.9003 45.4328 46.5043 44.9056C45.8089 44.6421 45.1398 44.3747 44.5071 44.1091C43.8792 43.8489 43.2779 43.5797 42.7075 43.3171C41.5773 42.7874 40.6535 42.1897 39.9311 41.5238C39.4926 41.122 39.3058 40.7897 39.3498 40.5315C39.4091 40.2792 39.8898 40.2508 40.7966 40.4518C41.5181 40.6072 42.3228 40.8709 43.2157 41.2483C43.9914 41.5731 44.8308 41.9791 45.7391 42.4666C47.6979 43.5165 49.6394 44.8103 51.5486 46.3368L57.6043 47.6461L46.7492 37.6203L40.6987 36.3113L42.4524 37.9292C41.0177 37.2386 39.6983 36.637 38.5042 36.1353C37.7441 35.8113 37.0287 35.5312 36.3582 35.2898L31.84 31.1135L27.1142 30.0886L31.2342 33.8911C29.902 33.6535 28.7766 33.5563 27.8674 33.6156C26.9581 33.6749 26.378 33.9276 26.1315 34.3842C25.8798 34.8406 26.0085 35.5032 26.5227 36.3776C27.0367 37.2571 28.044 38.3746 29.508 39.7386C31.4956 41.5764 33.4863 43.1434 35.4636 44.4494C37.4363 45.7447 39.3449 46.8598 41.1698 47.7728C42.4658 48.4253 43.7288 49.0085 44.9536 49.5221C45.4639 49.7348 45.9646 49.9314 46.4654 50.128C48.163 50.7691 49.7222 51.3669 51.1384 51.9055C51.9666 52.2224 52.7434 52.5264 53.4783 52.8335C53.9988 53.0519 54.4933 53.2691 54.9673 53.48C56.0982 53.9941 57.0175 54.5759 57.7397 55.247C58.3274 55.7917 58.5285 56.1506 58.3426 56.329C58.1518 56.5018 57.6823 56.5151 56.9197 56.3473C56.3218 56.2188 55.589 55.9743 54.747 55.6202C53.8898 55.2602 53.0249 54.8425 52.1166 54.355C51.2184 53.8731 50.3081 53.323 49.3797 52.7146C48.4461 52.106 47.5972 51.4704 46.8168 50.8172L40.6945 49.489L51.3054 59.2892L57.4229 60.612L55.6196 58.9448C56.2906 59.28 57.0747 59.6468 57.972 60.04C58.3745 60.2213 58.7822 60.403 59.2009 60.5747C59.7266 60.7933 60.263 61.0073 60.8149 61.2221L65.6614 65.7115Z" fill="url(#paint7_linear_40_56)" />
	<path d="M28.7254 25.2295C29.933 25.6693 31.1749 26.1525 32.4508 26.6842C45.694 32.2233 62.2787 42.7766 73.8112 53.4296C88.6016 67.0925 89.4863 75.7669 75.7834 72.7886C74.696 72.5526 73.5391 72.2455 72.3436 71.8792C75.447 74.4335 78.4699 76.8224 81.3052 79.0041C81.8558 79.1407 82.4064 79.2772 82.932 79.3917C100.294 83.1651 99.1791 72.1875 80.4337 54.8605C65.8174 41.3625 44.8086 28.0023 28.0291 20.9761C27.0083 20.5507 26.0073 20.1471 25.0206 19.7703C26.2277 21.5904 27.4661 23.412 28.7254 25.2295Z" fill="url(#paint8_linear_40_56)" style="mix-blend-mode:overlay" />
	<path d="M42.866 36.7874C43.2507 38.1763 43.8074 39.8758 44.604 41.8892C44.9702 42.0687 45.3462 42.2591 45.7417 42.4766C47.7005 43.5264 49.642 44.8202 51.5512 46.3468L57.6068 47.656L46.7518 37.6302L42.866 36.7874Z" fill="url(#paint9_linear_40_56)" style="mix-blend-mode:overlay" />
	<path d="M56.2908 48.9757C54.9847 48.3175 53.722 47.7291 52.5025 47.2158C52.0225 47.0202 51.5474 46.8301 51.0825 46.6456C49.4259 46.017 47.8972 45.4364 46.5012 44.9091C46.2354 44.8075 45.9955 44.707 45.7452 44.6061C46.0223 45.2188 46.3091 45.8476 46.6254 46.5091C47.3611 48.0663 48.227 49.6247 49.157 51.1499C49.8472 51.4131 50.512 51.6647 51.146 51.9044C51.9742 52.2213 52.7508 52.5253 53.4857 52.8324C54.0062 53.0508 54.5009 53.2679 54.9749 53.4788C56.1058 53.993 57.025 54.5747 57.7471 55.2458C58.3349 55.7905 58.536 56.1495 58.3501 56.3278C58.1593 56.5007 57.6898 56.514 56.9272 56.3461C56.3293 56.2177 55.5966 55.9731 54.7547 55.6191C53.8974 55.2591 53.0325 54.8414 52.1242 54.3538C51.6473 54.0959 51.1662 53.8169 50.6807 53.5221C52.3149 55.9779 54.0458 58.2665 55.6217 60.2142L57.4305 60.6108L55.6272 58.9436C56.2982 59.2788 57.0821 59.6456 57.9794 60.0389C58.382 60.2202 58.7898 60.4018 59.2085 60.5735C59.7342 60.7922 60.2704 61.0062 60.8224 61.2209L65.6749 65.6949L70.3956 66.7196L66.1762 62.8185C67.5725 63.127 68.6981 63.2242 69.5626 63.121C70.417 63.0121 70.9679 62.7215 71.1795 62.2319C71.3912 61.7423 71.2426 61.0579 70.7188 60.1674C70.2052 59.2826 69.213 58.1711 67.7734 56.8395C65.8105 55.029 63.8704 53.4957 61.9279 52.2227C59.9838 50.9809 58.105 49.8934 56.2908 48.9757Z" fill="url(#paint10_linear_40_56)" style="mix-blend-mode:overlay" />
	<defs>
		<linearGradient id="paint0_linear_40_56" x1="104.079" y1="61.9682" x2="12.3811" y2="3.08909" gradientUnits="userSpaceOnUse">
			<stop offset="0.1616" stop-color="#CC7800" />
			<stop offset="0.2072" stop-color="#D07E02" />
			<stop offset="0.2662" stop-color="#DA8E08" />
			<stop offset="0.3325" stop-color="#EAA912" />
			<stop offset="0.3682" stop-color="#F5BA18" />
			<stop offset="0.4286" stop-color="#F1AA1A" />
			<stop offset="0.4743" stop-color="#EE9B1B" />
			<stop offset="0.5407" stop-color="#6B2B00" />
			<stop offset="0.6147" stop-color="#6D3001" />
			<stop offset="0.7067" stop-color="#FEC423" />
			<stop offset="1" stop-color="#8F4E00" />
		</linearGradient>
		<linearGradient id="paint1_linear_40_56" x1="103.331" y1="66.2544" x2="9.83739" y2="6.22237" gradientUnits="userSpaceOnUse">
			<stop stop-color="#E0A300" />
			<stop offset="0.0833" stop-color="#FFC524" />
			<stop offset="0.1516" stop-color="#FFD759" />
			<stop offset="0.4069" stop-color="#FFF4A5" />
			<stop offset="0.4208" stop-color="#FEF09F" />
			<stop offset="0.4389" stop-color="#FCE68F" />
			<stop offset="0.4592" stop-color="#F9D574" />
			<stop offset="0.4813" stop-color="#F5BD4F" />
			<stop offset="0.5044" stop-color="#EF9E20" />
			<stop offset="0.518" stop-color="#EB8A00" />
			<stop offset="0.5625" stop-color="#AD4300" />
			<stop offset="0.6087" stop-color="#6E3500" />
			<stop offset="0.6515" stop-color="#E09D00" />
			<stop offset="0.6573" stop-color="#E7AA16" />
			<stop offset="0.6672" stop-color="#F2BE37" />
			<stop offset="0.6768" stop-color="#F9CC4E" />
			<stop offset="0.6857" stop-color="#FDD45C" />
			<stop offset="0.6934" stop-color="#FFD761" />
			<stop offset="0.7325" stop-color="#FFD75F" />
			<stop offset="0.7465" stop-color="#FFD558" />
			<stop offset="0.7566" stop-color="#FFD34D" />
			<stop offset="0.7646" stop-color="#FFCF3C" />
			<stop offset="0.7707" stop-color="#FFCB29" />
			<stop offset="0.7818" stop-color="#FBC525" />
			<stop offset="0.7968" stop-color="#F0B41A" />
			<stop offset="0.8139" stop-color="#DE9808" />
			<stop offset="0.8205" stop-color="#D68B00" />
			<stop offset="0.8228" stop-color="#DD9B16" />
			<stop offset="0.8268" stop-color="#E7B133" />
			<stop offset="0.8311" stop-color="#F0C34B" />
			<stop offset="0.8361" stop-color="#F6D15E" />
			<stop offset="0.8419" stop-color="#FBDB6B" />
			<stop offset="0.8493" stop-color="#FDE073" />
			<stop offset="0.8644" stop-color="#FEE275" />
			<stop offset="0.9367" stop-color="#FEE47E" />
			<stop offset="1" stop-color="#FED94B" />
		</linearGradient>
		<linearGradient id="paint2_linear_40_56" x1="97.8042" y1="76.9175" x2="2.23954" y2="15.5555" gradientUnits="userSpaceOnUse">
			<stop offset="0.1616" stop-color="#FFF8C7" />
			<stop offset="0.1986" stop-color="#FFF6C1" />
			<stop offset="0.2466" stop-color="#FEF0B1" />
			<stop offset="0.3007" stop-color="#FEE696" />
			<stop offset="0.3593" stop-color="#FDD871" />
			<stop offset="0.4207" stop-color="#FCC641" />
			<stop offset="0.469" stop-color="#FBB617" />
			<stop offset="0.526" stop-color="#A26009" />
			<stop offset="0.5588" stop-color="#6C2D00" />
			<stop offset="0.6146" stop-color="#6D3001" />
			<stop offset="0.6407" stop-color="#BA7D11" />
			<stop offset="0.6625" stop-color="#FDC120" />
			<stop offset="0.8107" stop-color="#DB9204" />
			<stop offset="0.8162" stop-color="#E09D12" />
			<stop offset="0.8298" stop-color="#EBB52F" />
			<stop offset="0.8443" stop-color="#F3C746" />
			<stop offset="0.8598" stop-color="#F9D456" />
			<stop offset="0.8773" stop-color="#FDDC60" />
			<stop offset="0.9005" stop-color="#FEDE63" />
			<stop offset="1" stop-color="#FBC543" />
		</linearGradient>
		<linearGradient id="paint3_linear_40_56" x1="85.1034" y1="70.7339" x2="14.1422" y2="25.1698" gradientUnits="userSpaceOnUse">
			<stop offset="0.1616" stop-color="#BA6D00" />
			<stop offset="0.2364" stop-color="#B46800" />
			<stop offset="0.3334" stop-color="#A45B00" />
			<stop offset="0.4422" stop-color="#894400" />
			<stop offset="0.5407" stop-color="#6B2B00" />
			<stop offset="0.6147" stop-color="#6D3001" />
			<stop offset="0.7067" stop-color="#FEBB00" />
			<stop offset="1" stop-color="#6B3B00" />
		</linearGradient>
		<radialGradient id="paint4_radial_40_56" cx="0" cy="0" r="1" gradientUnits="userSpaceOnUse" gradientTransform="translate(49.7562 46.6273) rotate(-147.296) scale(42.2856 10.3043)">
			<stop stop-color="#FEE799" />
			<stop offset="1" stop-color="#F7B834" />
		</radialGradient>
		<linearGradient id="paint5_linear_40_56" x1="52.4358" y1="23.5361" x2="45.2695" y2="74.6797" gradientUnits="userSpaceOnUse">
			<stop stop-color="#FFE48C" />
			<stop offset="0.4069" stop-color="#FFF4A5" />
			<stop offset="0.4612" stop-color="#FFF29F" />
			<stop offset="0.5317" stop-color="#FFED8F" />
			<stop offset="0.6112" stop-color="#FFE474" />
			<stop offset="0.6965" stop-color="#FFD84F" />
			<stop offset="0.7707" stop-color="#FFCB29" />
			<stop offset="0.8644" stop-color="#FEE275" />
			<stop offset="0.9367" stop-color="#FEE47E" />
		</linearGradient>
		<linearGradient id="paint6_linear_40_56" x1="73.0923" y1="62.5246" x2="25.792" y2="32.1532" gradientUnits="userSpaceOnUse">
			<stop offset="0.1616" stop-color="#BA6D00" />
			<stop offset="0.2364" stop-color="#B46800" />
			<stop offset="0.3334" stop-color="#A45B00" />
			<stop offset="0.4422" stop-color="#894400" />
			<stop offset="0.5407" stop-color="#6B2B00" />
			<stop offset="0.6147" stop-color="#6D3001" />
			<stop offset="0.7067" stop-color="#FEBB00" />
			<stop offset="1" stop-color="#6B3B00" />
		</linearGradient>
		<linearGradient id="paint7_linear_40_56" x1="43.693" y1="56.296" x2="55.9903" y2="37.1442" gradientUnits="userSpaceOnUse">
			<stop stop-color="#FFE48C" />
			<stop offset="0.4069" stop-color="#FFF4A5" />
			<stop offset="0.4612" stop-color="#FFF29F" />
			<stop offset="0.5317" stop-color="#FFED8F" />
			<stop offset="0.6112" stop-color="#FFE474" />
			<stop offset="0.6965" stop-color="#FFD84F" />
			<stop offset="0.7707" stop-color="#FFCB29" />
			<stop offset="0.8644" stop-color="#FEE275" />
			<stop offset="0.9367" stop-color="#FEE47E" />
		</linearGradient>
		<linearGradient id="paint8_linear_40_56" x1="73.6537" y1="40.3012" x2="60.5175" y2="48.6531" gradientUnits="userSpaceOnUse">
			<stop stop-color="#919191" />
			<stop offset="0.9972" />
		</linearGradient>
		<linearGradient id="paint9_linear_40_56" x1="63.541" y1="35.2262" x2="47.6643" y2="43.5815" gradientUnits="userSpaceOnUse">
			<stop stop-color="white" />
			<stop offset="0.9972" />
		</linearGradient>
		<linearGradient id="paint10_linear_40_56" x1="70.7811" y1="48.9797" x2="54.8996" y2="57.3377" gradientUnits="userSpaceOnUse">
			<stop stop-color="#737373" />
			<stop offset="0.9972" />
		</linearGradient>
	</defs>
</svg>
