<svg width="53" height="55" viewBox="0 0 53 55" fill="none" xmlns="http://www.w3.org/2000/svg">
	<path d="M5.57489 32.2138C6.09615 34.476 6.90558 36.7123 8.01143 38.8666C14.5038 51.4772 28.8209 56.3805 39.9893 49.8223C49.2523 44.3795 53.4404 32.7625 50.8966 21.76C50.3728 19.4949 49.5635 17.256 48.4576 15.1017C41.9679 2.4912 27.6481 -2.41218 16.4824 4.14613C7.2193 9.59155 3.03108 21.2113 5.57489 32.2138Z" fill="url(#paint0_linear_21_442)" />
	<path d="M31.3035 52.8315L31.2679 52.6823C22.1045 53.6622 12.6389 48.5344 7.69778 38.9422C6.58913 36.7904 5.78235 34.5542 5.25854 32.2892C2.71741 21.2868 6.90296 9.66695 16.1661 4.22153C17.3094 3.5512 18.4868 3.0059 19.6828 2.57148L19.645 2.41407L22.3954 1.78012L22.3979 1.7856C32.2021 -0.331939 42.8115 4.82014 48.1414 15.1744C49.2499 17.3289 50.0593 19.5678 50.5831 21.8329C53.1242 32.8353 48.9389 44.4497 39.6758 49.8952C37.8228 50.981 35.8863 51.749 33.9106 52.2227L33.9132 52.2255L31.3035 52.8315Z" fill="url(#paint1_linear_21_442)" />
	<path d="M2.52125 32.9216C3.04252 35.1839 3.85189 37.4228 4.95787 39.5745C11.4504 52.1824 25.7673 57.0883 36.9357 50.5301C46.1987 45.0874 50.3868 33.4704 47.843 22.4679C47.3219 20.2029 46.5098 17.9639 45.4012 15.8121C38.9141 3.20173 24.5944 -1.70165 13.4288 4.85399C4.16299 10.2993 -0.0252335 21.919 2.52125 32.9216Z" fill="url(#paint2_linear_21_442)" />
	<path d="M6.45318 32.0054C7.88713 38.2172 11.8699 43.753 17.6272 46.5847C27.2121 51.3054 38.0867 46.7333 41.9094 36.3801C43.4383 32.2426 43.6116 27.8048 42.6544 23.6707C41.2206 17.4561 37.2352 11.9202 31.4805 9.08868C21.8927 4.37317 11.0237 8.94021 7.19555 19.2958C5.66932 23.4335 5.49597 27.8712 6.45318 32.0054Z" fill="url(#paint3_linear_21_442)" />
	<path d="M7.2783 31.5769C8.69494 37.7047 12.6224 43.1654 18.2987 45.9555C27.75 50.6106 38.4713 46.1034 42.2441 35.8925C43.7515 31.8102 43.9244 27.4369 42.9806 23.357C41.5613 17.229 37.6337 11.7683 31.9602 8.97565C22.5061 4.32306 11.7877 8.8278 8.01197 19.0439C6.50202 23.1233 6.33451 27.497 7.2783 31.5769Z" fill="url(#paint4_radial_21_442)" />
	<path d="M42.2712 23.7531C44.2649 32.3713 40.984 41.4747 33.726 45.7399C24.9767 50.8808 13.7584 47.0369 8.67326 37.156C7.80715 35.4693 7.1722 33.7163 6.76094 31.9422C4.76991 23.3242 8.04828 14.2206 15.3034 9.95801C24.0554 4.81722 35.2738 8.66116 40.3589 18.5421C41.2305 20.2263 41.8601 21.9763 42.2712 23.7531ZM2.01926 33.0384C2.53865 35.2845 3.34074 37.507 4.43948 39.6422C10.8855 52.1593 25.0942 57.0304 36.1852 50.5193C45.3792 45.1161 49.5364 33.5834 47.01 22.6622C46.4908 20.4134 45.686 18.1908 44.5873 16.0556C38.1439 3.53856 23.9325 -1.33266 12.8468 5.17866C3.65027 10.5791 -0.506971 22.1145 2.01926 33.0384Z" fill="url(#paint5_linear_21_442)" />
	<path d="M11.8485 28.1307L14.7337 28.3562C14.7154 29.4333 14.8193 30.479 15.0513 31.4853C15.0649 31.5343 15.0759 31.5831 15.0896 31.632C15.3487 32.6853 15.7261 33.6238 16.2297 34.4505C16.728 35.2769 17.3463 35.9537 18.0875 36.4756C18.8287 36.9976 19.6934 37.2977 20.6739 37.3729C22.0152 37.4739 23.101 37.262 23.9348 36.7239C24.7656 36.191 25.443 35.5057 25.9643 34.6679C26.4909 33.8331 26.8932 32.909 27.1792 31.896C27.4651 30.883 27.723 29.9518 27.9583 29.0945C28.1964 28.2374 28.4543 27.5207 28.7426 26.9503C29.0335 26.38 29.4194 26.1148 29.9136 26.1526C30.2128 26.1754 30.4875 26.3686 30.7349 26.7348C30.8524 26.9096 30.9411 27.1231 31.0009 27.3781C31.0645 27.6655 31.096 28.005 31.0873 28.3988C31.0661 29.4811 30.7403 30.4332 30.1152 31.2524C29.4901 32.0744 28.6363 32.582 27.5514 32.7752L27.4513 37.6858L34.8728 38.2585L34.9756 33.348L33.7733 33.2592C34.4059 32.1238 34.8524 31.0088 35.1153 29.9196L38.2089 30.158L38.2907 26.3272L35.4722 26.1104C35.4504 24.9749 35.3248 23.88 35.1003 22.8311C35.0871 22.7714 35.0715 22.709 35.0583 22.6493C34.8303 21.6727 34.4955 20.7953 34.0457 20.0196C33.5715 19.1944 32.969 18.5237 32.2354 18.0102C31.5075 17.4915 30.6397 17.1966 29.6325 17.1201C28.2648 17.0124 27.1598 17.2314 26.3047 17.7685C25.4467 18.3081 24.7581 19.0035 24.2389 19.8522C23.7145 20.6978 23.3084 21.6432 23.0186 22.6802C22.7261 23.717 22.4592 24.6692 22.2179 25.5369C21.9739 26.4072 21.7179 27.1374 21.4499 27.7329C21.1768 28.3228 20.7932 28.5962 20.3015 28.5612C19.9034 28.5308 19.5982 28.3039 19.3962 27.8863C19.3134 27.716 19.2449 27.5302 19.2014 27.3243C19.1328 27.0286 19.1009 26.6972 19.1083 26.3301C19.1164 25.8398 19.2126 25.3565 19.3891 24.8771C19.5681 24.4032 19.7982 23.9774 20.0877 23.6002C20.377 23.2256 20.7198 22.91 21.1211 22.659C21.5223 22.4079 21.9586 22.2605 22.4299 22.2194L22.5328 17.2552L15.2793 16.6989L15.1765 21.6631L16.4136 21.7563C16.2237 22.0714 16.022 22.4637 15.8136 22.9388C15.6024 23.4138 15.4095 23.954 15.2346 24.5622L11.9167 24.3046L11.8485 28.1307Z" fill="url(#paint6_linear_21_442)" />
	<path d="M11.1861 28.2833L14.0712 28.5087C14.0529 29.5859 14.157 30.6288 14.3915 31.638C14.4025 31.6868 14.4136 31.7356 14.4272 31.7846C14.6863 32.8379 15.0637 33.7763 15.5673 34.603C16.0656 35.4294 16.6839 36.1062 17.4251 36.6282C18.1663 37.1501 19.0311 37.4502 20.0115 37.5254C21.3554 37.6266 22.4413 37.4147 23.2724 36.8764C24.1032 36.3435 24.7806 35.6583 25.3019 34.8205C25.8285 33.9856 26.2307 33.0642 26.5166 32.0512C26.8026 31.0382 27.0604 30.107 27.2957 29.2497C27.5339 28.3899 27.7918 27.6759 28.0801 27.1055C28.371 26.5352 28.7568 26.27 29.2511 26.3078C29.5503 26.3306 29.825 26.5238 30.0724 26.89C30.1898 27.0648 30.2785 27.2783 30.3383 27.5333C30.4046 27.8209 30.4334 28.1602 30.4247 28.554C30.4035 29.6364 30.0803 30.5885 29.4526 31.4076C28.8275 32.2296 27.9738 32.7372 26.8889 32.9304L26.7887 37.841L34.2103 38.4137L34.3131 33.5032L33.1107 33.4144C33.7459 32.2792 34.1899 31.164 34.4528 30.0748L37.5464 30.3133L37.6281 26.4824L34.8096 26.2656C34.7879 25.1302 34.6622 24.0352 34.4378 22.9863C34.4246 22.9267 34.4089 22.8642 34.3957 22.8046C34.1704 21.828 33.8356 20.9507 33.3858 20.1749C32.9088 19.3522 32.3065 18.6789 31.5755 18.1655C30.8449 17.6467 29.9798 17.352 28.9699 17.2753C27.6022 17.1676 26.4973 17.3867 25.6422 17.9237C24.7842 18.4633 24.0956 19.1561 23.5763 20.0074C23.0519 20.8531 22.6459 21.7985 22.3561 22.8354C22.0636 23.8722 21.7967 24.8244 21.5554 25.6921C21.3114 26.5624 21.0554 27.2926 20.7875 27.8854C20.5144 28.4753 20.1335 28.7488 19.6391 28.7137C19.241 28.6834 18.9358 28.4564 18.7338 28.0388C18.651 27.8685 18.5824 27.6828 18.5389 27.4768C18.4704 27.1811 18.4384 26.8497 18.4485 26.4828C18.4566 25.9924 18.5503 25.509 18.7268 25.0296C18.9057 24.5558 19.1359 24.13 19.4253 23.7527C19.7147 23.3782 20.0574 23.0626 20.4586 22.8115C20.8598 22.5604 21.2962 22.413 21.7675 22.3719L21.8704 17.4051L14.617 16.8488L14.5143 21.8129L15.7513 21.9061C15.5614 22.2213 15.3597 22.6136 15.1512 23.0887C14.9401 23.5636 14.7471 24.1039 14.5724 24.7094L11.2545 24.4518L11.1861 28.2833Z" fill="url(#paint7_linear_21_442)" />
	<path d="M44.8831 41.1602C43.7872 39.6178 42.6311 38.0483 41.4236 36.487C42.9387 32.574 43.2774 28.1015 42.2719 23.7505C41.8606 21.9763 41.2311 20.2236 40.3596 18.5367C35.2745 8.65584 24.0562 4.81188 15.3042 9.95267C13.15 11.2194 11.3474 12.9138 9.93024 14.8954C7.87003 14.5283 5.96532 14.3244 4.30736 14.2292C6.26871 10.5125 9.15229 7.34556 12.8503 5.17347C23.9359 -1.33785 38.1474 3.53069 44.5906 16.0504C45.6892 18.1883 46.4941 20.4109 47.0135 22.657C48.4964 29.0724 47.6711 35.6903 44.8831 41.1602Z" fill="url(#paint8_linear_21_442)" style="mix-blend-mode:overlay" />
	<path d="M25.7351 34.0534C25.5933 34.3173 25.4492 34.5756 25.303 34.8205C25.46 34.5735 25.5987 34.3175 25.7351 34.0534Z" fill="url(#paint9_linear_21_442)" style="mix-blend-mode:overlay" />
	<path d="M31.5843 18.1601C30.8537 17.6413 29.9886 17.3466 28.9787 17.2699C27.6137 17.1624 26.5062 17.3786 25.6509 17.9183C24.7929 18.4579 24.1044 19.1507 23.5851 20.002C23.0606 20.8477 22.6546 21.7931 22.3648 22.83C22.0723 23.8668 21.8054 24.819 21.5641 25.6867C21.3201 26.557 21.0641 27.2872 20.7962 27.88C20.5231 28.4699 20.1422 28.7434 19.6478 28.7083C19.2497 28.6779 18.9445 28.451 18.7425 28.0334C18.6597 27.8631 18.5912 27.6774 18.5477 27.4714C18.4792 27.1757 18.4472 26.8443 18.4546 26.4773C18.4654 25.987 18.559 25.5036 18.7355 25.0242C18.9144 24.5504 19.1446 24.1246 19.434 23.7473C19.7234 23.3728 20.0661 23.0571 20.4673 22.8061C20.8685 22.555 21.3049 22.4076 21.7762 22.3665L21.8791 17.3997L14.6257 16.8434L14.523 21.8075L15.76 21.9007C15.5702 22.2159 15.3684 22.6081 15.1599 23.0832C14.9488 23.5582 14.7559 24.0985 14.5812 24.7039L11.2632 24.4464L11.1841 28.2773L14.0693 28.5028C14.051 29.58 14.1551 30.6229 14.3896 31.6321C14.4006 31.6809 14.4116 31.7297 14.4252 31.7787C14.6844 32.8319 15.0617 33.7704 15.5653 34.5971C16.0636 35.4235 16.6819 36.1003 17.4231 36.6222C18.0322 37.0492 18.7267 37.3221 19.4981 37.4513C21.0417 33.5586 23.6848 27.5479 26.3942 24.485C28.5244 22.0746 30.5966 20.0261 32.1263 18.5891C31.9539 18.4411 31.7735 18.2928 31.5843 18.1601Z" fill="url(#paint10_linear_21_442)" style="mix-blend-mode:overlay" />
	<defs>
		<linearGradient id="paint0_linear_21_442" x1="4.86334" y1="23.7094" x2="51.6108" y2="30.2598" gradientUnits="userSpaceOnUse">
			<stop offset="0.1616" stop-color="#CC7800" />
			<stop offset="0.2072" stop-color="#D07E02" />
			<stop offset="0.2662" stop-color="#DA8E08" />
			<stop offset="0.3325" stop-color="#EAA912" />
			<stop offset="0.3682" stop-color="#F5BA18" />
			<stop offset="0.4286" stop-color="#F1AA1A" />
			<stop offset="0.4743" stop-color="#EE9B1B" />
			<stop offset="0.5407" stop-color="#6B2B00" />
			<stop offset="0.6147" stop-color="#6D3001" />
			<stop offset="0.7067" stop-color="#FEC423" />
			<stop offset="1" stop-color="#8F4E00" />
		</linearGradient>
		<linearGradient id="paint1_linear_21_442" x1="22.0904" y1="1.8513" x2="33.7465" y2="52.2654" gradientUnits="userSpaceOnUse">
			<stop stop-color="#E0A300" />
			<stop offset="0.0833" stop-color="#FFC524" />
			<stop offset="0.1516" stop-color="#FFD759" />
			<stop offset="0.4069" stop-color="#FFF4A5" />
			<stop offset="0.4208" stop-color="#FEF09F" />
			<stop offset="0.4389" stop-color="#FCE68F" />
			<stop offset="0.4592" stop-color="#F9D574" />
			<stop offset="0.4813" stop-color="#F5BD4F" />
			<stop offset="0.5044" stop-color="#EF9E20" />
			<stop offset="0.518" stop-color="#EB8A00" />
			<stop offset="0.5625" stop-color="#AD4300" />
			<stop offset="0.6087" stop-color="#6E3500" />
			<stop offset="0.6515" stop-color="#E09D00" />
			<stop offset="0.6573" stop-color="#E7AA16" />
			<stop offset="0.6672" stop-color="#F2BE37" />
			<stop offset="0.6768" stop-color="#F9CC4E" />
			<stop offset="0.6857" stop-color="#FDD45C" />
			<stop offset="0.6934" stop-color="#FFD761" />
			<stop offset="0.7325" stop-color="#FFD75F" />
			<stop offset="0.7465" stop-color="#FFD558" />
			<stop offset="0.7566" stop-color="#FFD34D" />
			<stop offset="0.7646" stop-color="#FFCF3C" />
			<stop offset="0.7707" stop-color="#FFCB29" />
			<stop offset="0.7818" stop-color="#FBC525" />
			<stop offset="0.7968" stop-color="#F0B41A" />
			<stop offset="0.8139" stop-color="#DE9808" />
			<stop offset="0.8205" stop-color="#D68B00" />
			<stop offset="0.8228" stop-color="#DD9B16" />
			<stop offset="0.8268" stop-color="#E7B133" />
			<stop offset="0.8311" stop-color="#F0C34B" />
			<stop offset="0.8361" stop-color="#F6D15E" />
			<stop offset="0.8419" stop-color="#FBDB6B" />
			<stop offset="0.8493" stop-color="#FDE073" />
			<stop offset="0.8644" stop-color="#FEE275" />
			<stop offset="0.9367" stop-color="#FEE47E" />
			<stop offset="1" stop-color="#FED94B" />
		</linearGradient>
		<linearGradient id="paint2_linear_21_442" x1="1.80667" y1="24.4171" x2="48.5569" y2="30.9678" gradientUnits="userSpaceOnUse">
			<stop offset="0.1616" stop-color="#FFF8C7" />
			<stop offset="0.1986" stop-color="#FFF6C1" />
			<stop offset="0.2466" stop-color="#FEF0B1" />
			<stop offset="0.3007" stop-color="#FEE696" />
			<stop offset="0.3593" stop-color="#FDD871" />
			<stop offset="0.4207" stop-color="#FCC641" />
			<stop offset="0.469" stop-color="#FBB617" />
			<stop offset="0.541" stop-color="#A26009" />
			<stop offset="0.5826" stop-color="#6C2D00" />
			<stop offset="0.6342" stop-color="#6D3001" />
			<stop offset="0.6719" stop-color="#BA7D11" />
			<stop offset="0.7035" stop-color="#FDC120" />
			<stop offset="0.8149" stop-color="#DB9204" />
			<stop offset="0.8202" stop-color="#E09D12" />
			<stop offset="0.8332" stop-color="#EBB52F" />
			<stop offset="0.8469" stop-color="#F3C746" />
			<stop offset="0.8618" stop-color="#F9D456" />
			<stop offset="0.8784" stop-color="#FDDC60" />
			<stop offset="0.9005" stop-color="#FEDE63" />
			<stop offset="1" stop-color="#FBF0D5" />
		</linearGradient>
		<linearGradient id="paint3_linear_21_442" x1="5.87135" y1="25.2189" x2="43.2362" y2="30.4545" gradientUnits="userSpaceOnUse">
			<stop offset="0.1616" stop-color="#BA6D00" />
			<stop offset="0.2364" stop-color="#B46800" />
			<stop offset="0.3334" stop-color="#A45B00" />
			<stop offset="0.4422" stop-color="#894400" />
			<stop offset="0.5407" stop-color="#6B2B00" />
			<stop offset="0.6147" stop-color="#6D3001" />
			<stop offset="0.7067" stop-color="#FEBB00" />
			<stop offset="1" stop-color="#6B3B00" />
		</linearGradient>
		<radialGradient id="paint4_radial_21_442" cx="0" cy="0" r="1" gradientUnits="userSpaceOnUse" gradientTransform="translate(26.0712 27.994) rotate(7.97645) scale(20.3442)">
			<stop stop-color="#FEDE6D" />
			<stop offset="1" stop-color="#DE9700" />
		</radialGradient>
		<linearGradient id="paint5_linear_21_442" x1="28.0363" y1="2.72963" x2="20.9723" y2="53.1426" gradientUnits="userSpaceOnUse">
			<stop stop-color="#FFDB66" />
			<stop offset="0.4069" stop-color="#FFEF7F" />
			<stop offset="0.4612" stop-color="#FFED79" />
			<stop offset="0.5317" stop-color="#FFE769" />
			<stop offset="0.6112" stop-color="#FFDD4E" />
			<stop offset="0.6965" stop-color="#FFD029" />
			<stop offset="0.7707" stop-color="#FFC203" />
			<stop offset="1" stop-color="#FEDC58" />
		</linearGradient>
		<linearGradient id="paint6_linear_21_442" x1="2.59818" y1="32.6738" x2="47.7432" y2="22.2359" gradientUnits="userSpaceOnUse">
			<stop offset="0.1616" stop-color="#AD6600" />
			<stop offset="0.2452" stop-color="#A76100" />
			<stop offset="0.3535" stop-color="#975200" />
			<stop offset="0.4751" stop-color="#7C3B00" />
			<stop offset="0.5407" stop-color="#6B2B00" />
			<stop offset="0.6147" stop-color="#6D3001" />
			<stop offset="0.7067" stop-color="#8A4700" />
			<stop offset="1" stop-color="#6B3B00" />
		</linearGradient>
		<linearGradient id="paint7_linear_21_442" x1="3.436" y1="32.4801" x2="47.3374" y2="22.3297" gradientUnits="userSpaceOnUse">
			<stop stop-color="#FFDB66" />
			<stop offset="0.4069" stop-color="#FFEF7F" />
			<stop offset="0.4612" stop-color="#FFED79" />
			<stop offset="0.5317" stop-color="#FFE769" />
			<stop offset="0.6112" stop-color="#FFDD4E" />
			<stop offset="0.6965" stop-color="#FFD029" />
			<stop offset="0.7707" stop-color="#FFC203" />
			<stop offset="0.8644" stop-color="#FEDA4F" />
			<stop offset="0.9367" stop-color="#FEDC58" />
		</linearGradient>
		<linearGradient id="paint8_linear_21_442" x1="35.7339" y1="5.17222" x2="27.0718" y2="22.6872" gradientUnits="userSpaceOnUse">
			<stop stop-color="#919191" />
			<stop offset="0.9972" />
		</linearGradient>
		<linearGradient id="paint9_linear_21_442" x1="25.0377" y1="34.5466" x2="26.0379" y2="34.3153" gradientUnits="userSpaceOnUse">
			<stop stop-color="#919191" />
			<stop offset="0.9972" />
		</linearGradient>
		<linearGradient id="paint10_linear_21_442" x1="14.2719" y1="18.646" x2="24.8621" y2="27.7001" gradientUnits="userSpaceOnUse">
			<stop stop-color="#919191" />
			<stop offset="0.9972" />
		</linearGradient>
	</defs>
</svg>
