<svg width="176" height="174" viewBox="0 0 176 174" fill="none" xmlns="http://www.w3.org/2000/svg">
	<path d="M98.8882 140.383C104.696 139.173 110.438 137.226 115.985 134.518C148.507 118.647 161.798 82.3909 145.668 53.5479C132.284 29.6259 102.88 18.3207 74.6885 24.2101C68.881 25.4199 63.1284 27.3638 57.5745 30.0747C25.059 45.9421 11.7714 82.2056 27.8988 111.042C41.2787 134.957 70.6898 146.276 98.8882 140.383Z" fill="url(#paint0_linear_40_125)" />
	<path d="M152.874 75.8762L152.487 75.9601C154.48 99.3825 140.901 123.253 116.162 135.33C110.608 138.041 104.859 139.975 99.0548 141.191C70.8564 147.084 41.4384 135.768 28.0655 111.85C26.4217 108.9 25.0888 105.869 24.0493 102.79L23.6454 102.874L22.1817 95.8304L22.1955 95.8238C17.3288 70.6935 31.0464 43.9197 57.7515 30.8867C63.302 28.1689 69.051 26.2353 74.8551 25.0185C103.054 19.1259 132.461 30.438 145.834 54.3564C148.508 59.1421 150.36 64.1188 151.457 69.1948L151.47 69.1881L152.874 75.8762Z" fill="url(#paint1_linear_40_125)" />
	<path d="M100.535 148.215C106.335 147.008 112.078 145.061 117.632 142.35C150.147 126.482 163.438 90.2261 147.307 61.3831C133.924 37.4612 104.52 26.156 76.3284 32.0453C70.5279 33.2518 64.7753 35.1956 59.2214 37.9065C26.7059 53.774 13.4182 90.0375 29.5387 118.877C42.9186 142.792 72.3263 154.104 100.535 148.215Z" fill="url(#paint2_linear_40_125)" />
	<path d="M98.4047 138.138C114.332 134.81 128.661 124.957 136.201 110.43C148.755 86.242 137.689 58.2644 111.485 47.9456C101.019 43.8142 89.7143 43.1369 79.1041 45.3543C63.1767 48.6819 48.8411 58.5386 41.3049 73.0551C28.7538 97.2505 39.8165 125.221 66.0235 135.547C76.5036 139.672 87.8014 140.352 98.4047 138.138Z" fill="url(#paint3_linear_40_125)" />
	<path d="M97.351 136.007C113.054 132.727 127.198 123.006 134.622 108.68C147.009 84.8198 136.089 57.2334 110.252 47.0542C99.9225 42.9764 88.7758 42.3082 78.314 44.4968C62.618 47.7727 48.4667 57.4978 41.0435 71.8232C28.6658 95.6872 39.5689 123.273 65.4166 133.456C75.7495 137.524 86.9031 138.188 97.351 136.007Z" fill="url(#paint4_radial_40_125)" />
	<path d="M79.3067 46.3254C101.394 41.7036 124.438 50.572 134.916 69.3158C147.557 91.9121 137.145 120.314 111.663 132.749C107.316 134.878 102.812 136.4 98.2614 137.345C76.1709 141.96 53.1267 133.092 42.6456 114.358C30.0108 91.7587 40.4202 63.3497 65.9014 50.9152C70.2454 48.796 74.7561 47.2712 79.3067 46.3254ZM100.804 149.499C106.556 148.299 112.271 146.364 117.769 143.68C150.056 127.923 163.24 91.9404 147.233 63.3023C133.954 39.5609 104.766 28.3314 76.7712 34.1685C71.012 35.3722 65.2973 37.3062 59.785 39.9971C27.5053 55.7509 14.3146 91.7369 30.3246 120.365C43.6001 144.116 72.8059 155.346 100.804 149.499Z" fill="url(#paint5_linear_40_125)" />
	<path d="M88.8068 124.163L89.5436 116.811C92.282 116.926 94.9529 116.707 97.539 116.17C97.6702 116.141 97.7945 116.115 97.9188 116.089C100.623 115.478 103.042 114.56 105.177 113.334C107.315 112.116 109.066 110.572 110.446 108.702C111.819 106.836 112.629 104.651 112.875 102.149C113.203 98.7355 112.717 95.954 111.396 93.7972C110.074 91.6403 108.365 89.884 106.258 88.5075C104.157 87.1276 101.826 86.0473 99.2621 85.2665C96.6917 84.4891 94.3304 83.7731 92.1541 83.1219C89.981 82.4775 88.1635 81.7731 86.7255 81.0052C85.2805 80.2407 84.6273 79.2398 84.7455 77.9782C84.8323 77.2187 85.3276 76.5272 86.2797 75.9146C86.728 75.6216 87.2819 75.4057 87.9344 75.2706C88.6733 75.1196 89.5347 75.0634 90.5392 75.109C93.2947 75.2248 95.7087 76.1033 97.7639 77.7442C99.8294 79.3886 101.081 81.596 101.502 84.3662L114.024 84.8926L115.893 65.991L103.368 65.4577L103.068 68.5238C100.211 66.8507 97.3856 65.6495 94.6252 64.9209L95.4043 57.0357L85.6377 56.6252L84.9344 63.7989C82.0361 63.7946 79.2304 64.0533 76.5483 64.5685C76.3896 64.5937 76.2342 64.6259 76.0789 64.6581C73.5791 65.1794 71.3159 65.9966 69.3069 67.093C67.1798 68.2634 65.4335 69.7629 64.0884 71.5987C62.7262 73.4342 61.9267 75.6224 61.6724 78.1969C61.3326 81.6755 61.8181 84.5085 63.1457 86.7137C64.4697 88.9291 66.2095 90.7306 68.3478 92.1007C70.4826 93.4811 72.8727 94.576 75.4944 95.3714C78.1162 96.1668 80.5391 96.9043 82.736 97.5628C84.9465 98.2317 86.7883 98.9333 88.2959 99.6505C89.7863 100.368 90.4603 101.358 90.3422 102.62C90.2414 103.634 89.6484 104.407 88.5674 104.894C88.1273 105.097 87.6465 105.252 87.1285 105.365C86.3689 105.526 85.5315 105.579 84.589 105.538C83.3367 105.492 82.1151 105.226 80.8932 104.747C79.6988 104.272 78.6167 103.658 77.6777 102.897C76.7387 102.136 75.9529 101.251 75.3346 100.216C74.7129 99.1741 74.3575 98.0467 74.2854 96.8512L61.6292 96.3126L59.8149 114.795L72.4747 115.323L72.7821 112.168C73.5664 112.679 74.5537 113.202 75.7607 113.757C76.9572 114.325 78.3266 114.844 79.8688 115.314L79.0367 123.763L88.8068 124.163Z" fill="url(#paint6_linear_40_125)" />
	<path d="M89.1691 125.854L89.9024 118.513C92.6477 118.625 95.3185 118.405 97.9045 117.868C98.0288 117.842 98.1531 117.817 98.2844 117.788C100.982 117.18 103.401 116.261 105.536 115.036C107.671 113.811 109.431 112.27 110.804 110.404C112.177 108.537 112.987 106.353 113.234 103.85C113.562 100.437 113.083 97.6524 111.754 95.4989C110.443 93.3457 108.73 91.5822 106.623 90.2057C104.523 88.8258 102.184 87.7488 99.6206 86.968C97.0572 86.1872 94.689 85.4746 92.5126 84.8234C90.3363 84.1721 88.529 83.4713 87.084 82.7067C85.646 81.9389 84.9928 80.938 85.1109 79.6764C85.1908 78.9203 85.6931 78.2254 86.6383 77.6161C87.0866 77.3231 87.6406 77.1074 88.2931 76.9723C89.0286 76.8144 89.9002 76.7616 90.8977 76.8105C93.6533 76.9263 96.0742 77.8015 98.1225 79.4457C100.188 81.0901 101.44 83.2975 101.868 86.0644L114.39 86.5908L116.252 67.6925L103.726 67.1591L103.434 70.222C100.577 68.5488 97.7511 67.3476 94.9907 66.619L95.7628 58.7372L85.9962 58.3267L85.2929 65.5004C82.3946 65.4961 79.5959 65.7514 76.9068 66.27C76.7481 66.2952 76.5997 66.3241 76.4374 66.3596C73.9377 66.8809 71.6816 67.6949 69.6726 68.7913C67.5455 69.9618 65.799 71.4611 64.447 73.3002C63.0847 75.1358 62.2853 77.3238 62.0346 79.8881C61.6912 83.3769 62.1836 86.2067 63.5043 88.4152C64.8352 90.6272 66.5749 92.4288 68.7133 93.7989C70.8447 95.1724 73.228 96.2708 75.8531 97.0731C78.4818 97.8652 80.9046 98.6025 83.0946 99.2643C85.3051 99.9332 87.1538 100.631 88.6511 101.345C90.1448 102.069 90.819 103.06 90.7008 104.322C90.6 105.336 90.0036 106.101 88.9328 106.592C88.4927 106.795 88.012 106.95 87.4941 107.063C86.7344 107.224 85.8903 107.281 84.9477 107.239C83.6954 107.194 82.4737 106.928 81.2587 106.446C80.054 105.967 78.9788 105.349 78.0362 104.599C77.1042 103.835 76.3184 102.949 75.6898 101.91C75.0715 100.876 74.7231 99.7451 74.6407 98.546L61.9879 98.0143L60.1772 116.487L72.8333 117.025L73.1373 113.863C73.9286 114.37 74.9192 114.901 76.1193 115.458C77.3227 116.023 78.6888 116.535 80.2273 117.016L79.3953 125.464L89.1691 125.854Z" fill="url(#paint7_linear_40_125)" />
	<path d="M123.839 40.6085C119.855 43.3147 115.786 46.1814 111.742 49.1725C101.84 45.094 90.4518 43.9783 79.3028 46.3187C74.7522 47.2645 70.2484 48.7859 65.8975 50.9084C40.4196 63.3499 30.0067 91.7517 42.6416 114.351C45.7585 119.915 49.9828 124.602 54.9576 128.33C53.9108 133.568 53.2827 138.416 52.9528 142.642C43.5727 137.431 35.6582 129.908 30.3136 120.361C14.3035 91.7333 27.4944 55.7473 59.7741 39.9935C65.2933 37.2993 71.0043 35.3756 76.7601 34.165C93.2122 30.7382 110.05 33.1999 123.839 40.6085Z" fill="url(#paint8_linear_40_125)" style="mix-blend-mode:overlay" />
	<path d="M104.678 89.0577C105.337 89.4322 105.989 89.8101 106.613 90.2012C105.996 89.7895 105.341 89.4219 104.678 89.0577Z" fill="url(#paint9_linear_40_125)" style="mix-blend-mode:overlay" />
	<path d="M64.4561 73.284C63.0938 75.1195 62.2942 77.3074 62.0435 79.8716C61.7002 83.3605 62.1926 86.1905 63.5133 88.3989C64.8443 90.611 66.5839 92.4124 68.7222 93.7825C70.8537 95.156 73.237 96.2543 75.862 97.0567C78.4907 97.8488 80.9137 98.5863 83.1036 99.2481C85.3141 99.917 87.1628 100.615 88.6601 101.329C90.1538 102.053 90.828 103.044 90.7098 104.305C90.609 105.319 90.0126 106.085 88.9418 106.575C88.5017 106.779 88.021 106.934 87.503 107.047C86.7434 107.208 85.8993 107.264 84.9567 107.223C83.7044 107.177 82.4828 106.912 81.2678 106.429C80.0631 105.951 78.9878 105.332 78.0452 104.582C77.1131 103.818 76.3274 102.932 75.6988 101.894C75.0805 100.859 74.7321 99.7286 74.6497 98.5295L61.9969 97.9979L60.1861 116.47L72.8423 117.009L73.1464 113.846C73.9376 114.354 74.9281 114.884 76.1282 115.442C77.3317 116.007 78.6977 116.519 80.2363 116.999L79.4044 125.448L89.171 125.859L89.9041 118.517C92.6494 118.629 95.3203 118.409 97.9063 117.872C98.0306 117.847 98.1549 117.821 98.2861 117.792C100.983 117.184 103.403 116.265 105.538 115.04C107.672 113.815 109.433 112.274 110.806 110.408C111.933 108.882 112.658 107.123 113.034 105.156C103.187 101.017 87.9965 93.9424 80.337 86.8777C74.3046 81.3099 69.1888 75.907 65.6117 71.924C65.1925 72.3481 64.8039 72.8002 64.4561 73.284Z" fill="url(#paint10_linear_40_125)" style="mix-blend-mode:overlay" />
	<defs>
		<linearGradient id="paint0_linear_40_125" x1="65.8746" y1="26.6047" x2="107.696" y2="137.986" gradientUnits="userSpaceOnUse">
			<stop offset="0.1616" stop-color="#CC7800" />
			<stop offset="0.2072" stop-color="#D07E02" />
			<stop offset="0.2662" stop-color="#DA8E08" />
			<stop offset="0.3325" stop-color="#EAA912" />
			<stop offset="0.3682" stop-color="#F5BA18" />
			<stop offset="0.4286" stop-color="#F1AA1A" />
			<stop offset="0.4743" stop-color="#EE9B1B" />
			<stop offset="0.5407" stop-color="#6B2B00" />
			<stop offset="0.6147" stop-color="#6D3001" />
			<stop offset="0.7067" stop-color="#FEC423" />
			<stop offset="1" stop-color="#8F4E00" />
		</linearGradient>
		<linearGradient id="paint1_linear_40_125" x1="22.3376" y1="96.6065" x2="151.564" y2="69.6133" gradientUnits="userSpaceOnUse">
			<stop stop-color="#E0A300" />
			<stop offset="0.0833" stop-color="#FFC524" />
			<stop offset="0.1516" stop-color="#FFD759" />
			<stop offset="0.4069" stop-color="#FFF4A5" />
			<stop offset="0.4208" stop-color="#FEF09F" />
			<stop offset="0.4389" stop-color="#FCE68F" />
			<stop offset="0.4592" stop-color="#F9D574" />
			<stop offset="0.4813" stop-color="#F5BD4F" />
			<stop offset="0.5044" stop-color="#EF9E20" />
			<stop offset="0.518" stop-color="#EB8A00" />
			<stop offset="0.5625" stop-color="#AD4300" />
			<stop offset="0.6087" stop-color="#6E3500" />
			<stop offset="0.6515" stop-color="#E09D00" />
			<stop offset="0.6573" stop-color="#E7AA16" />
			<stop offset="0.6672" stop-color="#F2BE37" />
			<stop offset="0.6768" stop-color="#F9CC4E" />
			<stop offset="0.6857" stop-color="#FDD45C" />
			<stop offset="0.6934" stop-color="#FFD761" />
			<stop offset="0.7325" stop-color="#FFD75F" />
			<stop offset="0.7465" stop-color="#FFD558" />
			<stop offset="0.7566" stop-color="#FFD34D" />
			<stop offset="0.7646" stop-color="#FFCF3C" />
			<stop offset="0.7707" stop-color="#FFCB29" />
			<stop offset="0.7818" stop-color="#FBC525" />
			<stop offset="0.7968" stop-color="#F0B41A" />
			<stop offset="0.8139" stop-color="#DE9808" />
			<stop offset="0.8205" stop-color="#D68B00" />
			<stop offset="0.8228" stop-color="#DD9B16" />
			<stop offset="0.8268" stop-color="#E7B133" />
			<stop offset="0.8311" stop-color="#F0C34B" />
			<stop offset="0.8361" stop-color="#F6D15E" />
			<stop offset="0.8419" stop-color="#FBDB6B" />
			<stop offset="0.8493" stop-color="#FDE073" />
			<stop offset="0.8644" stop-color="#FEE275" />
			<stop offset="0.9367" stop-color="#FEE47E" />
			<stop offset="1" stop-color="#FED94B" />
		</linearGradient>
		<linearGradient id="paint2_linear_40_125" x1="67.5154" y1="34.4402" x2="109.336" y2="145.821" gradientUnits="userSpaceOnUse">
			<stop offset="0.1616" stop-color="#FFF8C7" />
			<stop offset="0.1986" stop-color="#FFF6C1" />
			<stop offset="0.2466" stop-color="#FEF0B1" />
			<stop offset="0.3007" stop-color="#FEE696" />
			<stop offset="0.3593" stop-color="#FDD871" />
			<stop offset="0.4207" stop-color="#FCC641" />
			<stop offset="0.469" stop-color="#FBB617" />
			<stop offset="0.541" stop-color="#A26009" />
			<stop offset="0.5826" stop-color="#6C2D00" />
			<stop offset="0.6342" stop-color="#6D3001" />
			<stop offset="0.6719" stop-color="#BA7D11" />
			<stop offset="0.7035" stop-color="#FDC120" />
			<stop offset="0.8149" stop-color="#DB9204" />
			<stop offset="0.8202" stop-color="#E09D12" />
			<stop offset="0.8332" stop-color="#EBB52F" />
			<stop offset="0.8469" stop-color="#F3C746" />
			<stop offset="0.8618" stop-color="#F9D456" />
			<stop offset="0.8784" stop-color="#FDDC60" />
			<stop offset="0.9005" stop-color="#FEDE63" />
			<stop offset="1" stop-color="#FBF0D5" />
		</linearGradient>
		<linearGradient id="paint3_linear_40_125" x1="72.0576" y1="47.2612" x2="105.464" y2="136.23" gradientUnits="userSpaceOnUse">
			<stop offset="0.1616" stop-color="#BA6D00" />
			<stop offset="0.2364" stop-color="#B46800" />
			<stop offset="0.3334" stop-color="#A45B00" />
			<stop offset="0.4422" stop-color="#894400" />
			<stop offset="0.5407" stop-color="#6B2B00" />
			<stop offset="0.6147" stop-color="#6D3001" />
			<stop offset="0.7067" stop-color="#FEBB00" />
			<stop offset="1" stop-color="#6B3B00" />
		</linearGradient>
		<radialGradient id="paint4_radial_40_125" cx="0" cy="0" r="1" gradientUnits="userSpaceOnUse" gradientTransform="translate(87.786 92.9797) rotate(69.42) scale(51.9156)">
			<stop stop-color="#FEDE6D" />
			<stop offset="1" stop-color="#DE9700" />
		</radialGradient>
		<linearGradient id="paint5_linear_40_125" x1="149.992" y1="68.8603" x2="27.15" y2="114.985" gradientUnits="userSpaceOnUse">
			<stop stop-color="#FFDB66" />
			<stop offset="0.4069" stop-color="#FFEF7F" />
			<stop offset="0.4612" stop-color="#FFED79" />
			<stop offset="0.5317" stop-color="#FFE769" />
			<stop offset="0.6112" stop-color="#FFDD4E" />
			<stop offset="0.6965" stop-color="#FFD029" />
			<stop offset="0.7707" stop-color="#FFC203" />
			<stop offset="1" stop-color="#FEDC58" />
		</linearGradient>
		<linearGradient id="paint6_linear_40_125" x1="99.9" y1="148.007" x2="75.7252" y2="32.274" gradientUnits="userSpaceOnUse">
			<stop offset="0.1616" stop-color="#AD6600" />
			<stop offset="0.2452" stop-color="#A76100" />
			<stop offset="0.3535" stop-color="#975200" />
			<stop offset="0.4751" stop-color="#7C3B00" />
			<stop offset="0.5407" stop-color="#6B2B00" />
			<stop offset="0.6147" stop-color="#6D3001" />
			<stop offset="0.7067" stop-color="#8A4700" />
			<stop offset="1" stop-color="#6B3B00" />
		</linearGradient>
		<linearGradient id="paint7_linear_40_125" x1="99.4586" y1="145.853" x2="75.9524" y2="33.32" gradientUnits="userSpaceOnUse">
			<stop stop-color="#FFDB66" />
			<stop offset="0.4069" stop-color="#FFEF7F" />
			<stop offset="0.4612" stop-color="#FFED79" />
			<stop offset="0.5317" stop-color="#FFE769" />
			<stop offset="0.6112" stop-color="#FFDD4E" />
			<stop offset="0.6965" stop-color="#FFD029" />
			<stop offset="0.7707" stop-color="#FFC203" />
			<stop offset="0.8644" stop-color="#FEDA4F" />
			<stop offset="0.9367" stop-color="#FEDC58" />
		</linearGradient>
		<linearGradient id="paint8_linear_40_125" x1="31.551" y1="61.9952" x2="75.7548" y2="85.0414" gradientUnits="userSpaceOnUse">
			<stop stop-color="#919191" />
			<stop offset="0.9972" />
		</linearGradient>
		<linearGradient id="paint9_linear_40_125" x1="105.898" y1="90.8513" x2="105.367" y2="88.3055" gradientUnits="userSpaceOnUse">
			<stop stop-color="#919191" />
			<stop offset="0.9972" />
		</linearGradient>
		<linearGradient id="paint10_linear_40_125" x1="64.7611" y1="117.464" x2="88.4337" y2="90.9389" gradientUnits="userSpaceOnUse">
			<stop stop-color="#919191" />
			<stop offset="0.9972" />
		</linearGradient>
	</defs>
</svg>
