<svg width="106" height="109" viewBox="0 0 106 109" fill="none" xmlns="http://www.w3.org/2000/svg">
	<path d="M65.2792 59.3117C74.6182 34.6979 73.4372 11.4249 62.6477 7.33359C51.8599 3.247 35.5483 19.8825 26.2093 44.4963C16.8734 69.1037 18.0542 92.3767 28.842 96.4633C39.6333 100.559 55.9449 83.9238 65.2792 59.3117Z" fill="url(#paint0_linear_21_457)" />
	<path d="M72.8339 17.365C75.7653 27.4621 74.1947 43.5704 67.85 60.2961C61.5084 77.0153 52.0048 90.1079 43.12 95.7211L40.7897 101.861L30.4011 97.9204C30.3642 97.9069 30.329 97.898 30.2921 97.8845C30.2552 97.8709 30.2214 97.851 30.1845 97.8374L30.0611 97.7906L30.0594 97.7858C19.3002 93.3899 18.1845 69.88 27.6093 45.0273C37.0326 20.1858 53.4478 3.33176 64.4196 7.15516L64.421 7.14399L75.1513 11.2191L72.8339 17.365Z" fill="url(#paint1_linear_21_457)" />
	<path d="M77.8494 64.0829C87.3372 39.0475 86.1469 15.3879 75.1665 11.2257C64.2021 7.06321 47.6083 23.9862 38.1141 49.0186C28.6276 74.0428 29.8262 97.7101 40.7985 101.865C51.7677 106.025 68.3534 89.1105 77.8494 64.0829Z" fill="url(#paint2_linear_21_457)" />
	<path d="M74.3122 18.6926C65.3447 15.2925 51.5349 29.7758 43.4652 51.0422C35.4001 72.3069 36.1345 92.3047 45.1037 95.7095C54.0729 99.1144 67.8811 84.6264 75.9461 63.3616C84.0142 42.0904 83.2797 22.0928 74.3122 18.6926Z" fill="url(#paint3_linear_21_457)" />
	<path d="M71.7771 21.54C63.5073 18.404 50.8344 31.6114 43.4667 51.0412C36.0989 70.471 36.8284 88.7613 45.0917 91.8943C53.3615 95.0303 66.0345 81.823 73.4022 62.3931C80.7699 42.9633 80.0405 24.673 71.7771 21.54Z" fill="url(#paint4_radial_21_457)" />
	<path d="M68.2126 64.2747L70.7589 57.5718L68.3257 56.6498C69.0742 54.6738 69.6707 52.7359 70.1234 50.844C70.5713 48.9537 70.838 47.2297 70.9239 45.6874C71.0149 44.1595 70.8973 42.8553 70.5701 41.8022C70.2492 40.7522 69.6684 40.0672 68.8361 39.755C67.707 39.3296 66.6047 39.5034 65.5164 40.2866C64.4329 41.068 63.3953 42.143 62.3829 43.5134C61.3846 44.8787 60.4204 46.4295 59.5171 48.1509C58.6137 49.8723 57.7744 51.4587 57.0184 52.9193C56.256 54.3768 55.5585 55.5815 54.9383 56.5236C54.3102 57.4739 53.7884 57.8682 53.3794 57.7095C53.1276 57.6177 53.0097 57.2271 53.0209 56.5394C53.0369 55.85 53.287 54.8582 53.7789 53.5559C54.4989 51.6648 55.4015 50.0611 56.4864 48.729C57.5699 47.4081 58.6608 46.6774 59.7527 46.534L63.0033 37.9562L56.7545 35.59L53.5039 44.1677L54.5129 44.5559C53.2212 46.4317 52.1076 48.2975 51.1673 50.1549L48.5609 49.1664L46.0195 55.8676L48.3965 56.767C47.6818 58.763 47.0883 60.6944 46.6133 62.5836C46.1349 64.4633 45.8424 66.1753 45.7338 67.6989C45.6286 69.2319 45.7349 70.5187 46.0476 71.5609C46.3698 72.5998 46.9535 73.2785 47.8004 73.6015C48.9471 74.0314 50.0719 73.8601 51.1855 73.0733C52.2944 72.2881 53.354 71.2 54.3691 69.8073C55.3765 68.4227 56.3482 66.8479 57.2746 65.0862C58.201 63.3245 59.0537 61.7013 59.8317 60.2275C60.6063 58.7443 61.3097 57.5108 61.9259 56.5273C62.5516 55.5405 63.0666 55.1273 63.4821 55.289C63.8205 55.4141 63.9475 55.8602 63.8505 56.6372C63.7661 57.4043 63.5147 58.3326 63.1073 59.4072C62.7828 60.2653 62.3912 61.0992 61.9209 61.9078C61.4554 62.7147 60.9733 63.4153 60.4734 64.0208C59.9765 64.6198 59.4679 65.111 58.9455 65.4735C58.4264 65.8454 57.9399 66.0241 57.4956 66.0062L54.2041 74.6787L60.3117 76.9937L63.5986 68.3229L62.5591 67.9243C62.9304 67.4074 63.3641 66.7507 63.8539 65.9672C64.3499 65.1708 64.8736 64.2578 65.4174 63.236L68.2126 64.2747Z" fill="url(#paint5_linear_21_457)" />
	<path d="M69.1931 64.646L71.7393 57.9432L69.3061 57.0211C70.0547 55.0451 70.6559 53.1056 71.1038 51.2153C71.5501 49.3204 71.8186 47.6009 71.9045 46.0587C71.9938 44.526 71.8778 43.2266 71.5505 42.1735C71.2296 41.1235 70.6489 40.4385 69.8165 40.1263C68.6874 39.7009 67.5851 39.8747 66.4969 40.6579C65.4134 41.4393 64.371 42.516 63.3633 43.8846C62.3651 45.25 61.4009 46.8008 60.4975 48.5222C59.5942 50.2436 58.755 51.83 57.999 53.2905C57.2366 54.748 56.539 55.9528 55.9187 56.895C55.2907 57.8453 54.7689 58.2395 54.3598 58.0809C54.1081 57.989 53.9885 57.5937 54.0014 56.9107C54.0157 56.2166 54.2658 55.2247 54.7641 53.9255C55.4794 52.0361 56.3803 50.4277 57.4669 49.1004C58.5503 47.7795 59.6412 47.0487 60.7331 46.9052L63.9837 38.3276L57.735 35.9614L54.4844 44.539L55.4964 44.9208C54.2017 46.803 53.0881 48.6688 52.1461 50.5215L49.5414 49.5377L46.9999 56.2389L49.3769 57.1383C48.6623 59.1343 48.0687 61.0657 47.592 62.9501C47.1154 64.8346 46.8213 66.5419 46.7144 68.0702C46.6092 69.6032 46.7153 70.8901 47.0281 71.9323C47.3486 72.9664 47.9339 73.6497 48.7792 73.968C49.9275 74.4026 51.0523 74.2314 52.1659 73.4446C53.2748 72.6594 54.3327 71.5666 55.3496 70.1786C56.357 68.794 57.3269 67.2144 58.255 65.4575C59.1797 63.6911 60.0342 62.0726 60.8121 60.5988C61.585 59.1109 62.2901 57.8821 62.9064 56.8987C63.5321 55.9118 64.0471 55.4986 64.4609 55.6556C64.8009 55.7854 64.9279 56.2315 64.831 57.0085C64.7466 57.7757 64.4936 58.6991 64.0878 59.7784C63.7634 60.6365 63.3716 61.4705 62.8997 62.2744C62.4342 63.0813 61.9538 63.7866 61.4538 64.3921C60.957 64.9912 60.4484 65.4823 59.9259 65.8447C59.4069 66.2167 58.9204 66.3955 58.476 66.3776L55.1845 75.05L61.2921 77.365L64.579 68.6942L63.5396 68.2956C63.9108 67.7787 64.3445 67.122 64.8344 66.3385C65.3304 65.5421 65.854 64.629 66.3962 63.6026L69.1931 64.646Z" fill="url(#paint6_linear_21_457)" />
	<path d="M43.9546 51.2309C51.3223 31.8011 64.1988 18.6707 72.7156 21.9003C81.2324 25.1299 82.1608 43.4988 74.7914 62.9239C67.422 82.349 54.5502 95.4777 46.0287 92.2498C37.5214 89.0168 36.5882 70.6496 43.9546 51.2309ZM78.9103 64.4842C88.2476 39.8657 87.0684 16.5974 76.2788 12.5061C65.494 8.41307 49.1777 25.0503 39.8388 49.6641C30.5028 74.2715 31.6884 97.5428 42.4732 101.636C53.2644 105.732 69.5761 89.0963 78.9103 64.4842Z" fill="url(#paint7_linear_21_457)" />
	<path d="M54.6824 23.4513C54.6052 26.2616 54.5557 29.1048 54.5316 31.9443C50.5592 37.0136 46.837 43.6389 43.9559 51.2303C36.5865 70.6554 37.5196 89.0226 46.03 92.2492C51.1672 94.1944 57.889 90.1853 64.0277 82.4423C64.9922 84.1443 65.9646 85.6885 66.9083 87.0773C58.7023 98.2812 49.4325 104.283 42.4668 101.643C31.682 97.5503 30.4964 74.2789 39.8323 49.6716C43.8365 39.1321 49.1076 30.0639 54.6824 23.4513Z" fill="url(#paint8_linear_21_457)" style="mix-blend-mode:overlay" />
	<defs>
		<linearGradient id="paint0_linear_21_457" x1="14.4011" y1="59.9894" x2="77.0891" y2="43.8167" gradientUnits="userSpaceOnUse">
			<stop offset="0.1616" stop-color="#CC7800" />
			<stop offset="0.2072" stop-color="#D07E02" />
			<stop offset="0.2662" stop-color="#DA8E08" />
			<stop offset="0.3325" stop-color="#EAA912" />
			<stop offset="0.3682" stop-color="#F5BA18" />
			<stop offset="0.4286" stop-color="#F1AA1A" />
			<stop offset="0.4743" stop-color="#EE9B1B" />
			<stop offset="0.5407" stop-color="#6B2B00" />
			<stop offset="0.6147" stop-color="#6D3001" />
			<stop offset="0.7067" stop-color="#FEC423" />
			<stop offset="1" stop-color="#8F4E00" />
		</linearGradient>
		<linearGradient id="paint1_linear_21_457" x1="30.5527" y1="97.9839" x2="64.9246" y2="7.339" gradientUnits="userSpaceOnUse">
			<stop stop-color="#E0A300" />
			<stop offset="0.0833" stop-color="#FFC524" />
			<stop offset="0.1516" stop-color="#FFD759" />
			<stop offset="0.4069" stop-color="#FFF4A5" />
			<stop offset="0.4208" stop-color="#FEF09F" />
			<stop offset="0.4389" stop-color="#FCE68F" />
			<stop offset="0.4592" stop-color="#F9D574" />
			<stop offset="0.4813" stop-color="#F5BD4F" />
			<stop offset="0.5044" stop-color="#EF9E20" />
			<stop offset="0.518" stop-color="#EB8A00" />
			<stop offset="0.5625" stop-color="#AD4300" />
			<stop offset="0.6087" stop-color="#6E3500" />
			<stop offset="0.6515" stop-color="#E09D00" />
			<stop offset="0.6573" stop-color="#E7AA16" />
			<stop offset="0.6672" stop-color="#F2BE37" />
			<stop offset="0.6768" stop-color="#F9CC4E" />
			<stop offset="0.6857" stop-color="#FDD45C" />
			<stop offset="0.6934" stop-color="#FFD761" />
			<stop offset="0.7325" stop-color="#FFD75F" />
			<stop offset="0.7465" stop-color="#FFD558" />
			<stop offset="0.7566" stop-color="#FFD34D" />
			<stop offset="0.7646" stop-color="#FFCF3C" />
			<stop offset="0.7707" stop-color="#FFCB29" />
			<stop offset="0.7818" stop-color="#FBC525" />
			<stop offset="0.7968" stop-color="#F0B41A" />
			<stop offset="0.8139" stop-color="#DE9808" />
			<stop offset="0.8205" stop-color="#D68B00" />
			<stop offset="0.8228" stop-color="#DD9B16" />
			<stop offset="0.8268" stop-color="#E7B133" />
			<stop offset="0.8311" stop-color="#F0C34B" />
			<stop offset="0.8361" stop-color="#F6D15E" />
			<stop offset="0.8419" stop-color="#FBDB6B" />
			<stop offset="0.8493" stop-color="#FDE073" />
			<stop offset="0.8644" stop-color="#FEE275" />
			<stop offset="0.9367" stop-color="#FEE47E" />
			<stop offset="1" stop-color="#FED94B" />
		</linearGradient>
		<linearGradient id="paint2_linear_21_457" x1="26.1116" y1="64.763" x2="89.8509" y2="48.3191" gradientUnits="userSpaceOnUse">
			<stop offset="0.1616" stop-color="#FFF8C7" />
			<stop offset="0.1986" stop-color="#FFF6C1" />
			<stop offset="0.2466" stop-color="#FEF0B1" />
			<stop offset="0.3007" stop-color="#FEE696" />
			<stop offset="0.3593" stop-color="#FDD871" />
			<stop offset="0.4207" stop-color="#FCC641" />
			<stop offset="0.469" stop-color="#FBB617" />
			<stop offset="0.541" stop-color="#A26009" />
			<stop offset="0.5826" stop-color="#6C2D00" />
			<stop offset="0.6342" stop-color="#6D3001" />
			<stop offset="0.6719" stop-color="#BA7D11" />
			<stop offset="0.7035" stop-color="#FDC120" />
			<stop offset="0.8149" stop-color="#DB9204" />
			<stop offset="0.8202" stop-color="#E09D12" />
			<stop offset="0.8332" stop-color="#EBB52F" />
			<stop offset="0.8469" stop-color="#F3C746" />
			<stop offset="0.8618" stop-color="#F9D456" />
			<stop offset="0.8784" stop-color="#FDDC60" />
			<stop offset="0.9005" stop-color="#FEDE63" />
			<stop offset="1" stop-color="#FBC543" />
		</linearGradient>
		<linearGradient id="paint3_linear_21_457" x1="45.1004" y1="95.7063" x2="74.3109" y2="18.6905" gradientUnits="userSpaceOnUse">
			<stop offset="0.1616" stop-color="#BA6D00" />
			<stop offset="0.2364" stop-color="#B46800" />
			<stop offset="0.3334" stop-color="#A45B00" />
			<stop offset="0.4422" stop-color="#894400" />
			<stop offset="0.5407" stop-color="#6B2B00" />
			<stop offset="0.6147" stop-color="#6D3001" />
			<stop offset="0.7067" stop-color="#FEBB00" />
			<stop offset="1" stop-color="#6B3B00" />
		</linearGradient>
		<radialGradient id="paint4_radial_21_457" cx="0" cy="0" r="1" gradientUnits="userSpaceOnUse" gradientTransform="translate(58.4384 56.711) rotate(-69.2305) scale(37.6204 16.0051)">
			<stop stop-color="#FEDE6D" />
			<stop offset="1" stop-color="#EBA719" />
		</radialGradient>
		<linearGradient id="paint5_linear_21_457" x1="65.6706" y1="37.5296" x2="51.4139" y2="75.1272" gradientUnits="userSpaceOnUse">
			<stop offset="0.1616" stop-color="#BA6D00" />
			<stop offset="0.2364" stop-color="#B46800" />
			<stop offset="0.3334" stop-color="#A45B00" />
			<stop offset="0.4422" stop-color="#894400" />
			<stop offset="0.5407" stop-color="#6B2B00" />
			<stop offset="0.6147" stop-color="#6D3001" />
			<stop offset="0.7067" stop-color="#CF7C00" />
			<stop offset="1" stop-color="#6B3B00" />
		</linearGradient>
		<linearGradient id="paint6_linear_21_457" x1="78.7406" y1="64.419" x2="39.5581" y2="49.5613" gradientUnits="userSpaceOnUse">
			<stop stop-color="#FFE48C" />
			<stop offset="0.4069" stop-color="#FFF4A5" />
			<stop offset="0.4612" stop-color="#FFF29F" />
			<stop offset="0.5317" stop-color="#FFED8F" />
			<stop offset="0.6112" stop-color="#FFE474" />
			<stop offset="0.6965" stop-color="#FFD84F" />
			<stop offset="0.7707" stop-color="#FFCB29" />
			<stop offset="0.8644" stop-color="#FEE275" />
			<stop offset="0.9367" stop-color="#FEE47E" />
		</linearGradient>
		<linearGradient id="paint7_linear_21_457" x1="49.2886" y1="17.9446" x2="69.7121" y2="97.1093" gradientUnits="userSpaceOnUse">
			<stop stop-color="#FFD651" />
			<stop offset="0.4069" stop-color="#FFEC60" />
			<stop offset="0.4829" stop-color="#FFE95A" />
			<stop offset="0.5815" stop-color="#FFE14A" />
			<stop offset="0.692" stop-color="#FFD32F" />
			<stop offset="0.7707" stop-color="#FFC718" />
			<stop offset="0.8644" stop-color="#FED844" />
			<stop offset="0.9367" stop-color="#FED949" />
		</linearGradient>
		<linearGradient id="paint8_linear_21_457" x1="28.3054" y1="76.3408" x2="54.359" y2="61.5658" gradientUnits="userSpaceOnUse">
			<stop stop-color="#919191" />
			<stop offset="0.9972" />
		</linearGradient>
	</defs>
</svg>
