<svg width="57" height="62" viewBox="0 0 57 62" fill="none" xmlns="http://www.w3.org/2000/svg">
	<path d="M11.806 21.1417C8.79198 26.2887 6.95661 32.1829 6.83445 38.1113C6.52045 52.9493 17.0609 62.3769 30.3731 59.1742C38.3653 57.2458 45.5385 51.2046 50.066 43.4728C53.0762 38.3256 54.9115 32.4314 55.0337 26.503C55.3475 11.6688 44.8072 2.23736 31.4946 5.44782C23.4987 7.37212 16.3294 13.4136 11.806 21.1417Z" fill="url(#paint0_linear_40_103)" />
	<path d="M45.3211 6.4353L41.1142 3.98247L40.7888 4.53543C37.7507 3.73519 34.3695 3.69228 30.7886 4.55694C22.6556 6.5132 15.3572 12.6605 10.7534 20.5279C7.68436 25.7689 5.81674 31.7661 5.68962 37.7949C5.54557 44.7945 7.77162 50.5988 11.547 54.5014L11.2172 55.0658L15.258 57.433L15.2734 57.4337C19.2652 59.7753 24.2292 60.5351 29.6436 59.2267C37.7768 57.2665 45.0792 51.1194 49.683 43.252C52.752 38.011 54.6195 32.0138 54.743 25.9809C54.9342 17.0054 51.2165 9.97404 45.3211 6.4353Z" fill="url(#paint1_linear_40_103)" />
	<path d="M6.70031 18.1571C3.63514 23.3984 1.76369 29.3954 1.64043 35.4244C1.32121 50.5254 12.0472 60.1169 25.5944 56.8561C33.7238 54.8958 41.026 48.7487 45.6339 40.8776C48.6989 35.6402 50.5667 29.6392 50.6938 23.6104C51.0088 8.51689 40.2832 -1.08237 26.7394 2.18635C18.6062 4.14647 11.3041 10.2897 6.70031 18.1571Z" fill="url(#paint2_linear_40_103)" />
	<path d="M9.37804 19.7178C6.95126 23.8679 5.47029 28.6183 5.36995 33.3981C5.12048 45.3592 13.6145 52.9553 24.3448 50.3762C30.7894 48.8244 36.5693 43.9532 40.2138 37.7186C42.6406 33.5684 44.1215 28.818 44.2219 24.0383C44.4711 12.081 35.9734 4.48085 25.2468 7.06402C18.8061 8.61601 13.0262 13.4872 9.37804 19.7178Z" fill="url(#paint3_linear_40_103)" />
	<path d="M10.9588 20.6432C8.5658 24.737 7.10377 29.4186 7.00281 34.1325C6.75748 45.9312 15.1365 53.425 25.7182 50.8772C32.0689 49.344 37.7719 44.5426 41.3734 38.3949C43.7663 34.305 45.2284 29.6195 45.3255 24.9054C45.5707 13.1105 37.1917 5.61683 26.6139 8.16476C20.2593 9.69777 14.5563 14.4992 10.9588 20.6432Z" fill="url(#paint4_radial_40_103)" />
	<path d="M40.663 37.9843C37.0655 44.1284 31.3664 48.93 25.0118 50.463C14.4302 53.0107 6.05114 45.517 6.30014 33.7223C6.39724 29.0082 7.85943 24.3228 10.2525 20.229C13.854 14.0813 19.5528 9.28351 25.9074 7.7505C36.4852 5.20258 44.8643 12.6963 44.6192 24.4912C44.5184 29.2012 43.056 33.8906 40.663 37.9843ZM6.19231 17.8609C3.15723 23.0417 1.30801 28.9816 1.18375 34.9525C0.872141 49.8991 11.4868 59.3923 24.8968 56.1673C32.9478 54.2263 40.1695 48.1411 44.7269 40.3527C47.762 35.1719 49.6113 29.2319 49.7356 23.261C50.047 8.31826 39.4326 -1.1826 26.0222 2.05012C17.9753 3.9874 10.7495 10.0764 6.19231 17.8609Z" fill="url(#paint5_linear_40_103)" />
	<path d="M44.5421 22.0992C44.6044 22.8765 44.635 23.6716 44.6179 24.4876C44.5208 29.2017 43.0586 33.8872 40.6617 37.9807C37.0643 44.1248 31.3652 48.9264 25.0106 50.4594C15.0206 52.8622 7.00136 46.3152 6.339 35.6524C4.45732 35.188 2.72667 34.6419 1.21294 34.0949C1.19903 34.3768 1.18499 34.6626 1.17861 34.9488C0.867005 49.8954 11.4817 59.3885 24.8917 56.1635C32.9426 54.2225 40.1644 48.1373 44.7218 40.3489C47.7568 35.168 49.6062 29.228 49.7304 23.2571C49.7708 21.1842 49.6003 19.2248 49.2461 17.3801C47.7643 18.9329 46.1875 20.5274 44.5421 22.0992Z" fill="url(#paint6_linear_40_103)" style="mix-blend-mode:overlay" />
	<path d="M34.6394 15.8579L30.9489 16.7481L30.9203 18.1906C30.6095 18.0553 30.2252 17.9202 29.7588 17.8004C29.3004 17.6771 28.7778 17.5972 28.1956 17.5491L28.2779 13.6859L27.6158 13.297L27.1073 13.872L27.1068 13.961L24.6269 14.5587L24.5577 17.9232C23.4762 18.1873 22.4457 18.597 21.454 19.1598C20.4662 19.7227 19.5891 20.3956 18.8265 21.1786C18.272 21.7474 17.8001 22.3668 17.4028 23.044C17.2551 23.2922 17.122 23.5566 16.9928 23.8212C16.5301 24.8048 16.2841 25.8689 16.2621 27.0214C16.2355 28.5801 16.4941 29.7697 17.0382 30.5901C17.5863 31.4069 18.2728 32.0098 19.0938 32.3949C19.9187 32.7801 20.813 33.0139 21.7891 33.0814C22.7649 33.1528 23.6677 33.2167 24.4933 33.2729C25.3232 33.3216 26.0141 33.4408 26.5701 33.627C27.1261 33.8131 27.4017 34.1906 27.389 34.7629C27.3859 34.9834 27.3129 35.2044 27.1774 35.4416C27.0971 35.577 26.9974 35.7153 26.8745 35.8525C26.5382 36.2346 26.0177 36.5069 25.3087 36.6771C24.2745 36.9242 23.3556 36.7976 22.5445 36.2892C21.7297 35.7767 21.2103 34.9265 20.9708 33.7379L20.3087 33.3491L20.0033 33.9689L16.301 34.8624L16.1562 41.7187L15.4598 43.1244L16.118 43.5131L20.792 42.3849L20.8226 40.9812C21.9311 41.423 23.0153 41.6545 24.0629 41.683L24.0113 44.2199L23.3272 44.9023L23.9895 45.2873L27.6407 44.4106L27.7138 41.1238C28.79 40.8091 29.825 40.3918 30.8109 39.8675C31.8004 39.3473 32.676 38.7053 33.4331 37.9529C34.0027 37.3926 34.4864 36.77 34.8839 36.0889C35.0193 35.8556 35.1471 35.618 35.2638 35.3721C35.7142 34.4033 35.9565 33.3352 35.9837 32.1559C36.0157 30.5664 35.7545 29.3496 35.2038 28.5056C34.6453 27.6651 33.9515 27.0541 33.1188 26.6685C32.2862 26.2829 31.3722 26.0558 30.3693 25.9831C29.3703 25.9106 28.4483 25.8458 27.6072 25.7888C26.7699 25.732 26.0628 25.6274 25.4865 25.4596C24.9136 25.3036 24.6261 24.9333 24.6465 24.3614C24.6483 24.0905 24.7227 23.8387 24.8538 23.6129C24.9472 23.4472 25.0824 23.2951 25.2443 23.1521C25.6366 22.8114 26.1206 22.5721 26.7044 22.4305C27.1706 22.3181 27.636 22.3023 28.1004 22.3833C28.5646 22.4681 28.9786 22.628 29.3505 22.8592C29.7223 23.0905 30.0394 23.4119 30.2947 23.8077C30.3813 23.9359 30.452 24.071 30.5182 24.2214L30.1178 24.8055L30.7799 25.1943L35.5085 24.0572L35.6816 15.6035L35.0195 15.2147L34.6394 15.8579Z" fill="url(#paint7_linear_40_103)" />
	<path d="M16.7402 22.6589C16.5923 22.9109 16.4594 23.1715 16.3302 23.4361C15.8675 24.4197 15.6253 25.4839 15.6033 26.6365C15.5728 28.195 15.8275 29.3883 16.3756 30.2051C16.9237 31.0218 17.6102 31.6248 18.4349 32.0139C19.256 32.3989 20.1504 32.6288 21.1304 32.6965C22.1024 32.7677 23.0051 32.8316 23.8308 32.8878C24.6605 32.9404 25.3554 33.056 25.9075 33.2419C26.4635 33.4281 26.739 33.8094 26.7264 34.3778C26.7233 34.5983 26.6502 34.8232 26.5148 35.0565C26.4345 35.1919 26.3348 35.3302 26.2117 35.4712C25.8756 35.8495 25.3549 36.1258 24.6461 36.2921C23.6158 36.5393 22.6928 36.4125 21.8818 35.9041C21.0707 35.3957 20.5477 34.5414 20.3082 33.3528L15.6382 34.4811L15.4552 43.1318L20.1252 42.0073L20.1557 40.6036C21.2645 41.0416 22.3486 41.2731 23.3963 41.3016L23.3189 44.9096L26.9702 44.029L27.0434 40.7421C28.1196 40.4275 29.1544 40.0101 30.1442 39.486C31.1299 38.9656 32.0054 38.3236 32.7665 37.5714C33.3322 37.0109 33.8157 36.3922 34.2132 35.7112C34.3487 35.474 34.4804 35.2365 34.5932 34.9905C35.0436 34.0217 35.2859 32.9575 35.3133 31.7743C35.3451 30.1887 35.0876 28.972 34.5333 28.124C33.9747 27.2835 33.2849 26.6727 32.4482 26.2908C31.6158 25.9013 30.7017 25.6742 29.6988 25.6015C28.6995 25.5329 27.7776 25.468 26.9365 25.411C26.0993 25.3542 25.3924 25.2458 24.8159 25.0819C24.2395 24.918 23.9592 24.5557 23.976 23.9797C23.9816 23.709 24.0521 23.457 24.1833 23.2312C24.2766 23.0655 24.4119 22.9135 24.5738 22.7705C24.9661 22.4298 25.4502 22.1905 26.034 22.049C26.5 21.9403 26.9693 21.9209 27.4297 22.0056C27.8941 22.0866 28.3082 22.2463 28.68 22.4776C29.0519 22.7088 29.3688 23.0303 29.6242 23.4261C29.8874 23.8185 30.0503 24.2833 30.1094 24.8127L34.8379 23.6756L35.0112 15.2219L30.2865 16.3592L30.2579 17.8017C29.9471 17.6663 29.5626 17.5351 29.0964 17.4115C28.6378 17.2921 28.1154 17.2082 27.5332 17.1601L27.6155 13.2969L23.9645 14.1697L23.8951 17.5381C22.8138 17.7983 21.7832 18.2081 20.7915 18.7708C19.8037 19.3337 18.9267 20.0066 18.1641 20.7897C17.6092 21.3662 17.1333 21.9892 16.7402 22.6589Z" fill="url(#paint8_linear_40_103)" />
	<path d="M26.5107 35.0563C26.4305 35.1917 26.3307 35.33 26.2076 35.471C25.8715 35.8493 25.3508 36.1256 24.6419 36.2919C23.8896 36.4754 23.1978 36.4529 22.5622 36.2319C20.2226 36.7319 17.871 36.9256 15.5808 36.8939L15.4511 43.1316L20.121 42.0071L20.1515 40.6034C21.2603 41.0413 22.3444 41.2729 23.3921 41.3014L23.3148 44.9093L26.9661 44.0288L27.0392 40.7419C28.1154 40.4273 29.1503 40.0099 30.14 39.4858C31.1258 38.9654 32.0013 38.3234 32.7623 37.5712C33.328 37.0107 33.8115 36.392 34.209 35.7109C34.3446 35.4738 34.4764 35.2363 34.5892 34.9903C35.0396 34.0215 35.2817 32.9573 35.3091 31.7741C35.3211 31.1398 35.2874 30.5652 35.2044 30.0501C32.2568 32.2041 29.3008 33.9784 26.5107 35.0563Z" fill="url(#paint9_linear_40_103)" style="mix-blend-mode:overlay" />
	<defs>
		<linearGradient id="paint0_linear_40_103" x1="7.87639" y1="29.078" x2="53.9873" y2="35.5392" gradientUnits="userSpaceOnUse">
			<stop offset="0.1616" stop-color="#CC7800" />
			<stop offset="0.2072" stop-color="#D07E02" />
			<stop offset="0.2662" stop-color="#DA8E08" />
			<stop offset="0.3325" stop-color="#EAA912" />
			<stop offset="0.3682" stop-color="#F5BA18" />
			<stop offset="0.4286" stop-color="#F1AA1A" />
			<stop offset="0.4743" stop-color="#EE9B1B" />
			<stop offset="0.5407" stop-color="#6B2B00" />
			<stop offset="0.6147" stop-color="#6D3001" />
			<stop offset="0.7067" stop-color="#FEC423" />
			<stop offset="1" stop-color="#8F4E00" />
		</linearGradient>
		<linearGradient id="paint1_linear_40_103" x1="15.2691" y1="57.4404" x2="45.1691" y2="6.34475" gradientUnits="userSpaceOnUse">
			<stop stop-color="#E0A300" />
			<stop offset="0.0833" stop-color="#FFC524" />
			<stop offset="0.1516" stop-color="#FFD759" />
			<stop offset="0.4069" stop-color="#FFF4A5" />
			<stop offset="0.4208" stop-color="#FEF09F" />
			<stop offset="0.4389" stop-color="#FCE68F" />
			<stop offset="0.4592" stop-color="#F9D574" />
			<stop offset="0.4813" stop-color="#F5BD4F" />
			<stop offset="0.5044" stop-color="#EF9E20" />
			<stop offset="0.518" stop-color="#EB8A00" />
			<stop offset="0.5625" stop-color="#AD4300" />
			<stop offset="0.6087" stop-color="#6E3500" />
			<stop offset="0.6515" stop-color="#E09D00" />
			<stop offset="0.6573" stop-color="#E7AA16" />
			<stop offset="0.6672" stop-color="#F2BE37" />
			<stop offset="0.6768" stop-color="#F9CC4E" />
			<stop offset="0.6857" stop-color="#FDD45C" />
			<stop offset="0.6934" stop-color="#FFD761" />
			<stop offset="0.7325" stop-color="#FFD75F" />
			<stop offset="0.7465" stop-color="#FFD558" />
			<stop offset="0.7566" stop-color="#FFD34D" />
			<stop offset="0.7646" stop-color="#FFCF3C" />
			<stop offset="0.7707" stop-color="#FFCB29" />
			<stop offset="0.7818" stop-color="#FBC525" />
			<stop offset="0.7968" stop-color="#F0B41A" />
			<stop offset="0.8139" stop-color="#DE9808" />
			<stop offset="0.8205" stop-color="#D68B00" />
			<stop offset="0.8228" stop-color="#DD9B16" />
			<stop offset="0.8268" stop-color="#E7B133" />
			<stop offset="0.8311" stop-color="#F0C34B" />
			<stop offset="0.8361" stop-color="#F6D15E" />
			<stop offset="0.8419" stop-color="#FBDB6B" />
			<stop offset="0.8493" stop-color="#FDE073" />
			<stop offset="0.8644" stop-color="#FEE275" />
			<stop offset="0.9367" stop-color="#FEE47E" />
			<stop offset="1" stop-color="#FED94B" />
		</linearGradient>
		<linearGradient id="paint2_linear_40_103" x1="2.7043" y1="26.234" x2="49.6305" y2="32.8094" gradientUnits="userSpaceOnUse">
			<stop offset="0.1616" stop-color="#FFF8C7" />
			<stop offset="0.1986" stop-color="#FFF6C1" />
			<stop offset="0.2466" stop-color="#FEF0B1" />
			<stop offset="0.3007" stop-color="#FEE696" />
			<stop offset="0.3593" stop-color="#FDD871" />
			<stop offset="0.4207" stop-color="#FCC641" />
			<stop offset="0.469" stop-color="#FBB617" />
			<stop offset="0.541" stop-color="#A26009" />
			<stop offset="0.5826" stop-color="#6C2D00" />
			<stop offset="0.6342" stop-color="#6D3001" />
			<stop offset="0.6719" stop-color="#BA7D11" />
			<stop offset="0.7035" stop-color="#FDC120" />
			<stop offset="0.8149" stop-color="#DB9204" />
			<stop offset="0.8202" stop-color="#E09D12" />
			<stop offset="0.8332" stop-color="#EBB52F" />
			<stop offset="0.8469" stop-color="#F3C746" />
			<stop offset="0.8618" stop-color="#F9D456" />
			<stop offset="0.8784" stop-color="#FDDC60" />
			<stop offset="0.9005" stop-color="#FEDE63" />
			<stop offset="1" stop-color="#FBC543" />
		</linearGradient>
		<linearGradient id="paint3_linear_40_103" x1="6.21216" y1="26.1155" x2="43.3859" y2="31.3244" gradientUnits="userSpaceOnUse">
			<stop offset="0.1616" stop-color="#BA6D00" />
			<stop offset="0.2364" stop-color="#B46800" />
			<stop offset="0.3334" stop-color="#A45B00" />
			<stop offset="0.4422" stop-color="#894400" />
			<stop offset="0.5407" stop-color="#6B2B00" />
			<stop offset="0.6147" stop-color="#6D3001" />
			<stop offset="0.7067" stop-color="#FEBB00" />
			<stop offset="1" stop-color="#6B3B00" />
		</linearGradient>
		<radialGradient id="paint4_radial_40_103" cx="0" cy="0" r="1" gradientUnits="userSpaceOnUse" gradientTransform="translate(26.1686 29.5218) rotate(7.97645) scale(20.5548)">
			<stop stop-color="#FEDE6D" />
			<stop offset="1" stop-color="#EBA719" />
		</radialGradient>
		<linearGradient id="paint5_linear_40_103" x1="29.2597" y1="1.99879" x2="21.7211" y2="55.7995" gradientUnits="userSpaceOnUse">
			<stop stop-color="#FFDB66" />
			<stop offset="0.4069" stop-color="#FFEF7F" />
			<stop offset="0.4612" stop-color="#FFED79" />
			<stop offset="0.5317" stop-color="#FFE769" />
			<stop offset="0.6112" stop-color="#FFDD4E" />
			<stop offset="0.6965" stop-color="#FFD029" />
			<stop offset="0.7707" stop-color="#FFC203" />
			<stop offset="0.8644" stop-color="#FEDA4F" />
			<stop offset="0.9367" stop-color="#FEDC58" />
		</linearGradient>
		<linearGradient id="paint6_linear_40_103" x1="31.3382" y1="50.5131" x2="26.6182" y2="33.46" gradientUnits="userSpaceOnUse">
			<stop stop-color="#919191" />
			<stop offset="0.9972" />
		</linearGradient>
		<linearGradient id="paint7_linear_40_103" x1="7.47306" y1="18.7903" x2="44.3035" y2="40.3425" gradientUnits="userSpaceOnUse">
			<stop offset="0.1616" stop-color="#AD6600" />
			<stop offset="0.2452" stop-color="#A76100" />
			<stop offset="0.3535" stop-color="#975200" />
			<stop offset="0.4751" stop-color="#7C3B00" />
			<stop offset="0.5407" stop-color="#6B2B00" />
			<stop offset="0.6147" stop-color="#6D3001" />
			<stop offset="0.7067" stop-color="#8A4700" />
			<stop offset="1" stop-color="#6B3B00" />
		</linearGradient>
		<linearGradient id="paint8_linear_40_103" x1="6.81161" y1="18.3988" x2="43.6454" y2="39.9531" gradientUnits="userSpaceOnUse">
			<stop stop-color="#FFE48C" />
			<stop offset="0.4069" stop-color="#FFF4A5" />
			<stop offset="0.4612" stop-color="#FFF29F" />
			<stop offset="0.5317" stop-color="#FFED8F" />
			<stop offset="0.6112" stop-color="#FFE474" />
			<stop offset="0.6965" stop-color="#FFD84F" />
			<stop offset="0.7707" stop-color="#FFCB29" />
			<stop offset="0.8644" stop-color="#FEE275" />
			<stop offset="0.9367" stop-color="#FEE47E" />
		</linearGradient>
		<linearGradient id="paint9_linear_40_103" x1="26.4322" y1="42.208" x2="24.8963" y2="34.3667" gradientUnits="userSpaceOnUse">
			<stop stop-color="#919191" />
			<stop offset="0.9972" />
		</linearGradient>
	</defs>
</svg>
