<svg width="52" height="52" viewBox="0 0 52 52" fill="none" xmlns="http://www.w3.org/2000/svg">
	<path d="M14.1549 29.6461C15.3168 33.3724 17.3596 36.8576 20.1739 39.5291C27.2141 46.2196 36.4198 45.2745 40.7365 37.4229C43.3254 32.7065 43.5636 26.5741 41.8181 20.9766C40.6544 17.2521 38.6116 13.7669 35.7973 11.0954C28.7589 4.40674 19.5513 5.35004 15.2383 13.2053C12.6457 17.9216 12.4093 24.0522 14.1549 29.6461Z" fill="url(#paint0_linear_40_33)" />
	<path d="M21.8088 6.95119L18.7683 7.90563L18.8924 8.30669C17.1665 9.42386 15.6558 11.0408 14.4961 13.1542C11.8587 17.9509 11.6166 24.1907 13.3941 29.8848C14.5773 33.6791 16.6557 37.2254 19.5164 39.9435C22.8393 43.0977 26.6283 44.5784 30.1799 44.4716L30.3077 44.8799L33.2335 43.9681L33.2407 43.961C36.1325 43.0616 38.6875 40.9949 40.4404 37.7988C43.0761 33.0003 43.3201 26.7587 41.5426 21.0646C40.3594 17.2703 38.2809 13.7241 35.4166 11.0059C31.1586 6.95829 26.1186 5.65844 21.8088 6.95119Z" fill="url(#paint1_linear_40_33)" />
	<path d="M10.461 30.801C11.646 34.5936 13.7227 38.1416 16.5851 40.858C23.7502 47.6668 33.117 46.7042 37.5092 38.7132C40.1431 33.9165 40.387 27.675 38.6095 21.9772C37.4263 18.1865 35.3461 14.6385 32.4854 11.9203C25.3221 5.11687 15.9517 6.07584 11.5649 14.0686C8.92922 18.8671 8.68355 25.1069 10.461 30.801Z" fill="url(#paint2_linear_40_33)" />
	<path d="M12.3961 30.1933C13.3345 33.1961 14.9801 36.0059 17.2483 38.1607C22.9251 43.5522 30.343 42.7901 33.8237 36.4624C35.9128 32.6607 36.1031 27.7179 34.6928 23.2074C33.7544 20.2045 32.1088 17.3947 29.8406 15.2399C24.1656 9.85025 16.7441 10.6123 13.267 16.9401C11.1797 20.7399 10.9894 25.6827 12.3961 30.1933Z" fill="url(#paint3_linear_40_33)" />
	<path d="M13.5404 29.8362C14.4664 32.7979 16.0871 35.5682 18.3232 37.6943C23.9232 43.0122 31.2409 42.2607 34.6712 36.0187C36.728 32.2706 36.9182 27.3958 35.531 22.9443C34.6068 19.9844 32.9843 17.2123 30.7464 15.088C25.1482 9.77191 17.8305 10.5235 14.402 16.7637C12.3434 20.5135 12.1532 25.3884 13.5404 29.8362Z" fill="url(#paint4_radial_40_33)" />
	<path d="M35.0192 23.1072C36.4065 27.5551 36.2181 32.4281 34.1595 36.178C30.7292 42.42 23.4115 43.1715 17.815 37.8536C15.5772 35.7294 13.9547 32.9573 13.0287 29.9956C11.6415 25.5441 11.8316 20.6729 13.8902 16.9231C17.3187 10.6828 24.6364 9.93124 30.2347 15.2474C32.469 17.3716 34.0932 20.1456 35.0192 23.1072ZM10.0939 30.9163C11.2629 34.6676 13.3217 38.1798 16.1556 40.871C23.2494 47.6081 32.5195 46.6561 36.8685 38.7473C39.4772 33.997 39.7156 27.8216 37.9558 22.1848C36.7868 18.4334 34.728 14.9212 31.8941 12.23C24.8022 5.49468 15.5284 6.44322 11.1829 14.3556C8.57424 19.1023 8.3359 25.2813 10.0939 30.9163Z" fill="url(#paint5_linear_40_33)" />
	<path d="M29.0436 14.2305C29.4471 14.5429 29.8452 14.8785 30.2325 15.2463C32.4703 17.3706 34.0928 20.1427 35.017 23.1061C36.4042 27.554 36.2159 32.4271 34.1573 36.1769C30.9176 42.0688 24.2165 43.0635 18.766 38.6853C17.7121 39.3909 16.6853 39.9876 15.7536 40.4789C15.8839 40.6098 16.016 40.7426 16.1516 40.8717C23.2453 47.6088 32.5155 46.6568 36.8645 38.748C39.4732 33.9977 39.7115 27.8223 37.9518 22.1855C36.7828 18.4341 34.724 14.9219 31.8901 12.2307C30.905 11.2977 29.8819 10.5167 28.8334 9.87522C28.9316 11.2764 29.0082 12.7419 29.0436 14.2305Z" fill="url(#paint6_linear_40_33)" style="mix-blend-mode:overlay" />
	<path d="M21.6603 16.2711L20.4647 18.4488L21.15 19.0983C20.9476 19.189 20.7129 19.3154 20.4494 19.4883C20.1877 19.6557 19.9188 19.8733 19.639 20.1338L17.8063 18.3916L17.3264 18.5406L17.3805 19.04L17.4233 19.0794L16.6197 20.5426L18.2169 22.0587C17.8681 22.6982 17.6122 23.3774 17.4475 24.1051C17.2845 24.831 17.2235 25.5519 17.2664 26.2659C17.2972 26.7848 17.3889 27.286 17.5414 27.7766C17.5964 27.9575 17.6657 28.1384 17.7368 28.3175C18.0087 28.9748 18.4151 29.5627 18.963 30.0812C19.7054 30.7809 20.3949 31.18 21.0315 31.2783C21.6682 31.3731 22.2624 31.3067 22.8105 31.0791C23.3604 30.8498 23.8675 30.5202 24.3303 30.0777C24.7949 29.6371 25.2236 29.2285 25.6146 28.8538C26.0039 28.4737 26.366 28.192 26.7011 28.0051C27.0361 27.8181 27.3402 27.8511 27.6115 28.1095C27.7168 28.2082 27.7915 28.3408 27.8465 28.5109C27.8767 28.6094 27.8997 28.7186 27.9119 28.8385C27.9486 29.1696 27.851 29.5414 27.6208 29.9594C27.2846 30.5686 26.8185 30.9574 26.2151 31.1258C25.6081 31.2941 24.9679 31.1708 24.2873 30.7628L23.8075 30.9118L23.9728 31.3327L22.7736 33.5176L26.0268 36.6089L26.4 37.5653L26.8781 37.4181L28.3919 34.6597L27.7263 34.0264C28.4285 33.6848 29.0183 33.2623 29.4937 32.768L30.6983 33.9109L30.727 34.5426L31.2051 34.3918L32.3899 32.239L30.8319 30.7553C31.154 30.096 31.4081 29.4114 31.5889 28.7034C31.7733 27.9954 31.8485 27.2889 31.8182 26.5911C31.7981 26.0686 31.71 25.5602 31.5557 25.0678C31.5025 24.8995 31.4438 24.7329 31.3763 24.5682C31.1061 23.9234 30.6961 23.3354 30.1375 22.8026C29.3826 22.0867 28.6789 21.6769 28.0279 21.5714C27.3751 21.4712 26.7738 21.5376 26.2203 21.7705C25.6669 22.0034 25.1543 22.3456 24.6772 22.7987C24.2019 23.2501 23.7642 23.6676 23.366 24.0494C22.9696 24.4294 22.6074 24.7254 22.2723 24.9303C21.9443 25.1387 21.6385 25.1147 21.3708 24.8527C21.2405 24.7325 21.1515 24.5856 21.1 24.4226C21.061 24.3044 21.047 24.172 21.0492 24.0306C21.0572 23.6907 21.1547 23.3511 21.3435 23.0063C21.4945 22.7312 21.692 22.4991 21.9358 22.3101C22.1814 22.1229 22.4411 21.993 22.7169 21.915C22.9926 21.8371 23.2878 21.8253 23.5919 21.8762C23.692 21.8908 23.7885 21.9161 23.8904 21.9504L23.9966 22.4015L24.4765 22.2525L26.01 19.4638L21.9965 15.6548L21.5166 15.8038L21.6603 16.2711Z" fill="url(#paint7_linear_40_33)" />
	<path d="M17.0632 27.9275C17.1199 28.1102 17.1874 28.2893 17.2585 28.4684C17.5305 29.1257 17.9386 29.7118 18.4865 30.2304C19.2271 30.9319 19.9166 31.3345 20.5533 31.4292C21.1899 31.524 21.7842 31.4575 22.3358 31.23C22.8839 31.0025 23.3893 30.6711 23.8539 30.2268C24.3166 29.7879 24.7453 29.3793 25.1364 29.0047C25.5274 28.6264 25.8895 28.3412 26.2228 28.156C26.5579 27.969 26.8637 28.0038 27.1332 28.2604C27.2385 28.359 27.315 28.4935 27.3683 28.6618C27.3984 28.7603 27.4214 28.8695 27.4354 28.9912C27.4703 29.3205 27.3745 29.6941 27.1426 30.1104C26.8082 30.7178 26.3401 31.1084 25.7368 31.2767C25.1334 31.4451 24.4896 31.3217 23.809 30.9137L22.2971 33.6703L26.4016 37.5708L27.9154 34.816L27.2497 34.1827C27.9502 33.8392 28.54 33.4168 29.0154 32.9225L30.7268 34.5498L31.9098 32.3953L30.3519 30.9115C30.6739 30.2522 30.928 29.5676 31.1106 28.8578C31.2932 28.1516 31.3684 27.4451 31.3398 26.7455C31.318 26.2248 31.2317 25.7183 31.0774 25.2259C31.0223 25.0557 30.9655 24.8874 30.8962 24.7244C30.6259 24.0796 30.2178 23.4935 29.6575 22.9588C28.9044 22.2447 28.2023 21.8332 27.5478 21.7277C26.8951 21.6275 26.2956 21.6921 25.7421 21.9286C25.1869 22.1597 24.6742 22.5018 24.1971 22.955C23.7236 23.4082 23.2859 23.8256 22.8877 24.2074C22.4913 24.5874 22.1273 24.8817 21.794 25.0883C21.4607 25.2949 21.1619 25.2709 20.8907 25.009C20.7622 24.887 20.6713 24.7418 20.6199 24.5789C20.5809 24.4607 20.5669 24.3283 20.5691 24.1869C20.5771 23.847 20.6747 23.5073 20.8635 23.1625C21.0163 22.8892 21.2137 22.6536 21.4575 22.4682C21.7013 22.2792 21.9611 22.1492 22.2368 22.0713C22.5126 21.9933 22.8078 21.9816 23.1118 22.0325C23.4176 22.078 23.7143 22.2041 23.9964 22.4088L25.53 19.62L21.5164 15.811L19.9847 18.5979L20.6699 19.2474C20.4675 19.3381 20.2346 19.4663 19.9694 19.6374C19.7095 19.8066 19.4387 20.0224 19.1589 20.2829L17.3262 18.5407L16.1396 20.6917L17.7386 22.2095C17.388 22.8473 17.1321 23.5265 16.9674 24.2543C16.8044 24.9802 16.7435 25.701 16.7863 26.415C16.8207 26.9375 16.9124 27.4423 17.0632 27.9275Z" fill="url(#paint8_linear_40_33)" />
	<path d="M27.3664 28.6637C27.3966 28.7622 27.4195 28.8714 27.4335 28.9931C27.4684 29.3224 27.3726 29.6961 27.1407 30.1123C26.898 30.5571 26.5822 30.8819 26.1952 31.092C25.4062 32.4442 24.4636 33.6673 23.4391 34.7613L26.3997 37.5727L27.9135 34.8179L27.2478 34.1846C27.9483 33.8412 28.5381 33.4187 29.0135 32.9244L30.7249 34.5517L31.9079 32.3972L30.35 30.9134C30.672 30.2541 30.9261 29.5696 31.1087 28.8598C31.2913 28.1536 31.3665 27.4471 31.3379 26.7475C31.3161 26.2268 31.2298 25.7202 31.0755 25.2278C31.0204 25.0577 30.9637 24.8893 30.8943 24.7263C30.6241 24.0815 30.2159 23.4954 29.6556 22.9608C29.354 22.6755 29.0612 22.4386 28.7754 22.2517C28.5186 24.627 28.0744 26.8389 27.3664 28.6637Z" fill="url(#paint9_linear_40_33)" style="mix-blend-mode:overlay" />
	<defs>
		<linearGradient id="paint0_linear_40_33" x1="16.2628" y1="35.0445" x2="39.7078" y2="15.5835" gradientUnits="userSpaceOnUse">
			<stop offset="0.1616" stop-color="#CC7800" />
			<stop offset="0.2072" stop-color="#D07E02" />
			<stop offset="0.2662" stop-color="#DA8E08" />
			<stop offset="0.3325" stop-color="#EAA912" />
			<stop offset="0.3682" stop-color="#F5BA18" />
			<stop offset="0.4286" stop-color="#F1AA1A" />
			<stop offset="0.4743" stop-color="#EE9B1B" />
			<stop offset="0.5407" stop-color="#6B2B00" />
			<stop offset="0.6147" stop-color="#6D3001" />
			<stop offset="0.7067" stop-color="#FEC423" />
			<stop offset="1" stop-color="#8F4E00" />
		</linearGradient>
		<linearGradient id="paint1_linear_40_33" x1="33.242" y1="43.966" x2="21.698" y2="6.98482" gradientUnits="userSpaceOnUse">
			<stop stop-color="#E0A300" />
			<stop offset="0.0833" stop-color="#FFC524" />
			<stop offset="0.1516" stop-color="#FFD759" />
			<stop offset="0.4069" stop-color="#FFF4A5" />
			<stop offset="0.4208" stop-color="#FEF09F" />
			<stop offset="0.4389" stop-color="#FCE68F" />
			<stop offset="0.4592" stop-color="#F9D574" />
			<stop offset="0.4813" stop-color="#F5BD4F" />
			<stop offset="0.5044" stop-color="#EF9E20" />
			<stop offset="0.518" stop-color="#EB8A00" />
			<stop offset="0.5625" stop-color="#AD4300" />
			<stop offset="0.6087" stop-color="#6E3500" />
			<stop offset="0.6515" stop-color="#E09D00" />
			<stop offset="0.6573" stop-color="#E7AA16" />
			<stop offset="0.6672" stop-color="#F2BE37" />
			<stop offset="0.6768" stop-color="#F9CC4E" />
			<stop offset="0.6857" stop-color="#FDD45C" />
			<stop offset="0.6934" stop-color="#FFD761" />
			<stop offset="0.7325" stop-color="#FFD75F" />
			<stop offset="0.7465" stop-color="#FFD558" />
			<stop offset="0.7566" stop-color="#FFD34D" />
			<stop offset="0.7646" stop-color="#FFCF3C" />
			<stop offset="0.7707" stop-color="#FFCB29" />
			<stop offset="0.7818" stop-color="#FBC525" />
			<stop offset="0.7968" stop-color="#F0B41A" />
			<stop offset="0.8139" stop-color="#DE9808" />
			<stop offset="0.8205" stop-color="#D68B00" />
			<stop offset="0.8228" stop-color="#DD9B16" />
			<stop offset="0.8268" stop-color="#E7B133" />
			<stop offset="0.8311" stop-color="#F0C34B" />
			<stop offset="0.8361" stop-color="#F6D15E" />
			<stop offset="0.8419" stop-color="#FBDB6B" />
			<stop offset="0.8493" stop-color="#FDE073" />
			<stop offset="0.8644" stop-color="#FEE275" />
			<stop offset="0.9367" stop-color="#FEE47E" />
			<stop offset="1" stop-color="#FED94B" />
		</linearGradient>
		<linearGradient id="paint2_linear_40_33" x1="12.6077" y1="36.2934" x2="36.4673" y2="16.4884" gradientUnits="userSpaceOnUse">
			<stop offset="0.1616" stop-color="#FFF8C7" />
			<stop offset="0.1986" stop-color="#FFF6C1" />
			<stop offset="0.2466" stop-color="#FEF0B1" />
			<stop offset="0.3007" stop-color="#FEE696" />
			<stop offset="0.3593" stop-color="#FDD871" />
			<stop offset="0.4207" stop-color="#FCC641" />
			<stop offset="0.469" stop-color="#FBB617" />
			<stop offset="0.541" stop-color="#A26009" />
			<stop offset="0.5826" stop-color="#6C2D00" />
			<stop offset="0.6342" stop-color="#6D3001" />
			<stop offset="0.6719" stop-color="#BA7D11" />
			<stop offset="0.7035" stop-color="#FDC120" />
			<stop offset="0.8149" stop-color="#DB9204" />
			<stop offset="0.8202" stop-color="#E09D12" />
			<stop offset="0.8332" stop-color="#EBB52F" />
			<stop offset="0.8469" stop-color="#F3C746" />
			<stop offset="0.8618" stop-color="#F9D456" />
			<stop offset="0.8784" stop-color="#FDDC60" />
			<stop offset="0.9005" stop-color="#FEDE63" />
			<stop offset="1" stop-color="#FBC543" />
		</linearGradient>
		<linearGradient id="paint3_linear_40_33" x1="14.0962" y1="34.5441" x2="32.9972" y2="18.8551" gradientUnits="userSpaceOnUse">
			<stop offset="0.1616" stop-color="#BA6D00" />
			<stop offset="0.2364" stop-color="#B46800" />
			<stop offset="0.3334" stop-color="#A45B00" />
			<stop offset="0.4422" stop-color="#894400" />
			<stop offset="0.5407" stop-color="#6B2B00" />
			<stop offset="0.6147" stop-color="#6D3001" />
			<stop offset="0.7067" stop-color="#FEBB00" />
			<stop offset="1" stop-color="#6B3B00" />
		</linearGradient>
		<radialGradient id="paint4_radial_40_33" cx="0" cy="0" r="1" gradientUnits="userSpaceOnUse" gradientTransform="translate(24.5381 26.3903) rotate(-39.695) scale(13.451)">
			<stop stop-color="#FEDE6D" />
			<stop offset="1" stop-color="#EBA719" />
		</radialGradient>
		<linearGradient id="paint5_linear_40_33" x1="12.5847" y1="12.7667" x2="35.2912" y2="40.1216" gradientUnits="userSpaceOnUse">
			<stop stop-color="#FFDB66" />
			<stop offset="0.4069" stop-color="#FFEF7F" />
			<stop offset="0.4612" stop-color="#FFED79" />
			<stop offset="0.5317" stop-color="#FFE769" />
			<stop offset="0.6112" stop-color="#FFDD4E" />
			<stop offset="0.6965" stop-color="#FFD029" />
			<stop offset="0.7707" stop-color="#FFC203" />
			<stop offset="0.8644" stop-color="#FEDA4F" />
			<stop offset="0.9367" stop-color="#FEDC58" />
		</linearGradient>
		<linearGradient id="paint6_linear_40_33" x1="36.9716" y1="33.1393" x2="26.6415" y2="27.9082" gradientUnits="userSpaceOnUse">
			<stop stop-color="#919191" />
			<stop offset="0.9972" />
		</linearGradient>
		<linearGradient id="paint7_linear_40_33" x1="11.1079" y1="30.7062" x2="37.7644" y2="22.3851" gradientUnits="userSpaceOnUse">
			<stop offset="0.1616" stop-color="#AD6600" />
			<stop offset="0.2452" stop-color="#A76100" />
			<stop offset="0.3535" stop-color="#975200" />
			<stop offset="0.4751" stop-color="#7C3B00" />
			<stop offset="0.5407" stop-color="#6B2B00" />
			<stop offset="0.6147" stop-color="#6D3001" />
			<stop offset="0.7067" stop-color="#8A4700" />
			<stop offset="1" stop-color="#6B3B00" />
		</linearGradient>
		<linearGradient id="paint8_linear_40_33" x1="10.627" y1="30.8537" x2="37.286" y2="22.5319" gradientUnits="userSpaceOnUse">
			<stop stop-color="#FFE48C" />
			<stop offset="0.4069" stop-color="#FFF4A5" />
			<stop offset="0.4612" stop-color="#FFF29F" />
			<stop offset="0.5317" stop-color="#FFED8F" />
			<stop offset="0.6112" stop-color="#FFE474" />
			<stop offset="0.6965" stop-color="#FFD84F" />
			<stop offset="0.7707" stop-color="#FFCB29" />
			<stop offset="0.8644" stop-color="#FEE275" />
			<stop offset="0.9367" stop-color="#FEE47E" />
		</linearGradient>
		<linearGradient id="paint9_linear_40_33" x1="30.7918" y1="31.8532" x2="26.3214" y2="29.1409" gradientUnits="userSpaceOnUse">
			<stop stop-color="#919191" />
			<stop offset="0.9972" />
		</linearGradient>
	</defs>
</svg>
