<svg width="80" height="90" viewBox="0 0 80 90" fill="none" xmlns="http://www.w3.org/2000/svg">
	<path d="M67.2869 39.3746C64.7692 26.7443 57.7462 15.1679 47.5906 8.80712C30.6648 -1.79944 11.4317 6.06472 4.63253 26.3712C1.91448 34.4825 1.59095 43.3629 3.27009 51.7693C5.78802 64.3943 12.8057 75.9757 22.9663 82.342C39.8923 92.9433 59.1198 85.084 65.9244 64.7726C68.6378 56.6507 68.9556 47.7804 67.2869 39.3746Z" fill="url(#paint0_linear_40_44)" />
	<path d="M27.901 3.65378L34.9426 2.29273L35.1269 3.20294C39.7356 3.53971 44.4521 5.06938 49.0043 7.92436C59.347 14.3986 66.485 26.1786 69.0488 39.0351C70.7571 47.5887 70.4313 56.6201 67.6643 64.88C64.4624 74.457 58.5358 81.3057 51.3873 84.8335L51.5707 85.7592L44.8074 87.0767L44.7817 87.0702C38.097 88.3759 30.8325 87.0748 23.9459 82.7608C13.6035 76.2814 6.46579 64.4961 3.90172 51.6448C2.19858 43.0915 2.51915 34.0598 5.28621 25.8C9.40308 13.5127 17.9921 5.70151 27.901 3.65378Z" fill="url(#paint1_linear_40_44)" />
	<path d="M75.8273 37.7123C73.2684 24.8613 66.1201 13.0808 55.7828 6.60161C38.5592 -4.19674 18.9857 3.8121 12.0647 24.4772C9.29769 32.7371 8.96669 41.7682 10.6748 50.327C13.2336 63.1781 20.3819 74.9638 30.7194 81.4377C47.9487 92.226 67.5164 84.2272 74.4428 63.5572C77.2044 55.3023 77.5305 46.2657 75.8273 37.7123Z" fill="url(#paint2_linear_40_44)" />
	<path d="M71.3528 38.5751C69.3236 28.3961 63.6638 19.0642 55.4738 13.9307C41.8321 5.38209 26.3255 11.7269 20.8461 28.0879C18.6533 34.6312 18.3941 41.7855 19.7422 48.5608C21.766 58.7446 27.4258 68.0766 35.6158 73.2101C49.2629 81.7538 64.7641 75.4139 70.2492 59.0428C72.4365 52.5044 72.7009 45.3503 71.3528 38.5751Z" fill="url(#paint3_linear_40_44)" />
	<path d="M68.7024 39.0909C66.7029 29.0489 61.1201 19.8458 53.0463 14.7857C39.5918 6.35052 24.3029 12.6071 18.8968 28.7477C16.7347 35.1987 16.4803 42.2544 17.8071 48.9348C19.8066 58.9769 25.3893 68.18 33.4629 73.2453C46.9177 81.6752 62.2064 75.4239 67.6178 59.2783C69.78 52.8273 70.0341 45.7768 68.7024 39.0909Z" fill="url(#paint4_radial_40_44)" />
	<path d="M68.7024 39.0909C66.7029 29.0489 61.1201 19.8458 53.0463 14.7857C39.5918 6.35052 24.3029 12.6071 18.8968 28.7477C16.7347 35.1987 16.4803 42.2544 17.8071 48.9348C19.8066 58.9769 25.3893 68.18 33.4629 73.2453C46.9177 81.6752 62.2064 75.4239 67.6178 59.2783C69.78 52.8273 70.0341 45.7768 68.7024 39.0909Z" fill="url(#paint5_radial_40_44)" style="mix-blend-mode:darken" />
	<path d="M18.9896 48.7105C17.6631 42.0248 17.9121 34.9741 20.0794 28.5233C25.4906 12.383 40.7794 6.1264 54.229 14.5561C62.3132 19.6167 67.8859 28.8141 69.8854 38.8562C71.2171 45.5421 70.9628 52.5977 68.8004 59.054C63.3894 75.1891 48.1057 81.4459 34.6455 73.0209C26.5719 67.9556 20.9943 58.7527 18.9896 48.7105ZM76.6797 37.5454C74.1508 24.8261 67.0798 13.164 56.8381 6.75202C39.7964 -3.93318 20.4199 3.99161 13.5718 24.4468C10.8351 32.6196 10.5086 41.5572 12.2002 50.0267C14.7291 62.746 21.8001 74.4081 32.0363 80.825C49.0886 91.5055 68.4599 83.5857 75.3085 63.1201C78.0452 54.9473 78.3661 46.0146 76.6797 37.5454Z" fill="url(#paint6_linear_40_44)" />
	<path d="M47.2719 67.2952L50.4884 62.8077L49.1234 61.2298C49.5943 61.0812 50.1421 60.853 50.777 60.5457C51.412 60.2385 52.0625 59.8279 52.7594 59.3206L56.4212 63.5431L57.5257 63.3268L57.533 62.2281L57.4392 62.1245L59.6036 59.1113L56.4101 55.4275C57.3499 54.1144 58.0872 52.6871 58.6377 51.136C59.183 49.5847 59.4994 48.0273 59.582 46.4584C59.6384 45.3152 59.5634 44.1969 59.3416 43.0973C59.2579 42.6817 59.1581 42.2757 59.0375 41.8687C58.5959 40.3677 57.8253 38.991 56.7362 37.7341C55.2525 36.0306 53.8138 34.996 52.4146 34.6405C51.0153 34.285 49.671 34.2968 48.3821 34.6603C47.1034 35.0295 45.8859 35.6362 44.7389 36.5015C43.5925 37.3565 42.5378 38.1482 41.5692 38.8817C40.6007 39.6153 39.72 40.15 38.9276 40.4807C38.13 40.8112 37.4602 40.6635 36.913 40.0375C36.706 39.7981 36.5649 39.489 36.4898 39.1103C36.4434 38.8892 36.4191 38.6433 36.4221 38.3725C36.4268 37.6436 36.7312 36.8565 37.3467 35.9961C38.2421 34.7382 39.3879 34.003 40.7846 33.775C42.1762 33.5467 43.5829 33.9599 45 35.0091L46.1046 34.7927L45.8395 33.8316L49.0668 29.3343L42.5565 21.8251L41.961 19.6446L40.8564 19.8609L36.7796 25.53L38.1153 27.0699C36.4613 27.655 35.042 28.4444 33.8585 29.4174L31.4486 26.6368L31.543 25.2508L30.4333 25.4669L27.2614 29.8992L30.3755 33.501C29.4955 34.8691 28.7527 36.3065 28.1731 37.8145C27.5885 39.317 27.2424 40.8417 27.1353 42.3782C27.0529 43.52 27.1272 44.654 27.3433 45.7637C27.4235 46.1427 27.5142 46.5222 27.6207 46.8972C28.0687 48.3726 28.8394 49.7492 29.953 51.0386C31.4664 52.7749 32.935 53.837 34.3646 54.2096C35.7994 54.5825 37.1589 54.5819 38.454 54.1978C39.7436 53.8187 40.9831 53.1871 42.1514 52.3124C43.3302 51.433 44.4068 50.6214 45.3964 49.8838C46.3756 49.1456 47.2681 48.5802 48.0574 48.2076C48.8415 47.8348 49.5126 47.9565 50.0596 48.5877C50.3209 48.8871 50.4817 49.218 50.5571 49.5915C50.6113 49.865 50.6179 50.1518 50.5713 50.462C50.4723 51.202 50.1712 51.9215 49.662 52.636C49.254 53.1993 48.7571 53.6644 48.1668 54.0155C47.5763 54.3718 46.9554 54.6016 46.3205 54.6953C45.6799 54.7991 45.0258 54.7564 44.352 54.5826C44.1309 54.5248 43.9164 54.4413 43.7074 54.3476L43.5801 53.336L42.4704 53.5522L38.3537 59.2922L46.3767 68.5479L47.4813 68.3316L47.2719 67.2952Z" fill="url(#paint7_linear_40_44)" />
	<path d="M60.4407 42.8909C60.357 42.4753 60.2574 42.0693 60.1368 41.6623C59.6952 40.1612 58.9297 38.7848 57.8406 37.5279C56.3568 35.8244 54.9131 34.7895 53.5141 34.4288C52.1198 34.0788 50.7756 34.0854 49.4867 34.4489C48.208 34.8181 46.9905 35.4248 45.8435 36.2901C44.6971 37.1451 43.6371 37.9366 42.6686 38.6701C41.7001 39.4036 40.8194 39.9383 40.027 40.269C39.2346 40.5998 38.5648 40.4521 38.0176 39.8261C37.8106 39.5867 37.6696 39.2777 37.5893 38.8987C37.5481 38.6779 37.5239 38.4319 37.5216 38.1609C37.5261 37.4371 37.8308 36.6448 38.4462 35.7845C39.3468 34.5268 40.4872 33.7913 41.884 33.5633C43.2808 33.3353 44.6876 33.7485 46.0995 34.7974L50.1764 29.1284L41.9609 19.6548L37.8892 25.324L39.2197 26.8637C37.5657 27.4488 36.1516 28.2385 34.9631 29.206L31.5432 25.2557L28.366 29.6879L31.4856 33.2847C30.6004 34.6526 29.8628 36.0902 29.2779 37.5979C28.6934 39.1004 28.3525 40.6254 28.2454 42.1619C28.163 43.3037 28.2373 44.4377 28.4536 45.5422C28.5287 45.9209 28.6245 46.3006 28.731 46.6757C29.1742 48.1456 29.9446 49.5274 31.0633 50.8171C32.5715 52.5531 34.0401 53.6152 35.475 53.9881C36.9046 54.3607 38.2693 54.3603 39.5591 53.976C40.854 53.5972 42.0883 52.9653 43.2617 52.0909C44.4354 51.2112 45.5172 50.3999 46.5015 49.662C47.4862 48.9188 48.3734 48.3584 49.1627 47.9859C49.9519 47.6133 50.6179 47.7347 51.1649 48.3659C51.4262 48.6653 51.592 48.9964 51.6622 49.3697C51.7164 49.6432 51.723 49.93 51.6817 50.2405C51.5827 50.9805 51.2816 51.7 50.7726 52.4093C50.3643 52.9778 49.8622 53.4426 49.2772 53.794C48.6814 54.1501 48.066 54.3749 47.4309 54.4738C46.7903 54.5776 46.1311 54.5347 45.4576 54.3556C44.7887 54.1872 44.1599 53.8384 43.581 53.3254L39.4643 59.0655L47.4822 68.321L51.599 62.581L50.234 61.0031C50.7101 60.8547 51.2579 60.6265 51.8931 60.3141C52.5227 60.0118 53.1783 59.6014 53.8703 59.0887L57.5318 63.3164L60.714 58.8898L57.5204 55.2059C58.4603 53.8929 59.2026 52.4659 59.7531 50.9148C60.2932 49.3632 60.6098 47.8058 60.6924 46.2368C60.7426 45.1143 60.6625 43.9904 60.4407 42.8909Z" fill="url(#paint8_linear_40_44)" />
	<path d="M52.0299 76.1448C55.7779 75.2412 59.2256 73.2444 61.9773 70.5727C64.7192 67.8901 66.8084 64.6076 68.2526 61.0952C71.1578 54.0454 71.5875 46.1807 70.14 38.7807C69.7522 36.9281 69.2591 35.1015 68.6495 33.3109C68.0185 31.5297 67.2926 29.775 66.4438 28.082C65.5737 26.3983 64.6022 24.7617 63.5176 23.2029C62.4062 21.6584 61.1816 20.1916 59.8422 18.8338C57.1358 16.1532 53.9559 13.8816 50.387 12.4242C46.8227 10.9774 42.8605 10.4173 39.0505 10.995C42.8771 10.5015 46.7932 11.1531 50.2871 12.6536C53.7974 14.1394 56.909 16.4233 59.5476 19.1057C64.8118 24.5273 68.1628 31.5628 69.6147 38.8745C71.0873 46.1872 70.6627 53.948 67.8749 60.9412C66.4893 64.4251 64.4687 67.6903 61.7889 70.3812C59.1395 73.0892 55.756 75.1567 52.0299 76.1448Z" fill="url(#paint9_linear_40_44)" />
	<defs>
		<linearGradient id="paint0_linear_40_44" x1="1.82848" y1="40.8826" x2="68.7219" y2="50.2558" gradientUnits="userSpaceOnUse">
			<stop offset="0.1616" stop-color="#FFF8C7" />
			<stop offset="0.1986" stop-color="#FFF6C1" />
			<stop offset="0.2466" stop-color="#FEF0B1" />
			<stop offset="0.3007" stop-color="#FEE696" />
			<stop offset="0.3593" stop-color="#FDD871" />
			<stop offset="0.4207" stop-color="#FCC641" />
			<stop offset="0.469" stop-color="#FBB617" />
			<stop offset="0.526" stop-color="#A26009" />
			<stop offset="0.5588" stop-color="#6C2D00" />
			<stop offset="0.6146" stop-color="#6D3001" />
			<stop offset="0.6407" stop-color="#BA7D11" />
			<stop offset="0.6625" stop-color="#FDC120" />
			<stop offset="0.8107" stop-color="#DB9204" />
			<stop offset="0.8162" stop-color="#E09D12" />
			<stop offset="0.8298" stop-color="#EBB52F" />
			<stop offset="0.8443" stop-color="#F3C746" />
			<stop offset="0.8598" stop-color="#F9D456" />
			<stop offset="0.8773" stop-color="#FDDC60" />
			<stop offset="0.9005" stop-color="#FEDE63" />
			<stop offset="1" stop-color="#FBC543" />
		</linearGradient>
		<linearGradient id="paint1_linear_40_44" x1="44.6956" y1="87.1049" x2="28.2514" y2="3.58178" gradientUnits="userSpaceOnUse">
			<stop stop-color="#E0A300" />
			<stop offset="0.0833" stop-color="#FFC524" />
			<stop offset="0.1516" stop-color="#FFD759" />
			<stop offset="0.4069" stop-color="#FFF4A5" />
			<stop offset="0.4208" stop-color="#FEF09F" />
			<stop offset="0.4389" stop-color="#FCE68F" />
			<stop offset="0.4592" stop-color="#F9D574" />
			<stop offset="0.4813" stop-color="#F5BD4F" />
			<stop offset="0.5044" stop-color="#EF9E20" />
			<stop offset="0.518" stop-color="#EB8A00" />
			<stop offset="0.5625" stop-color="#AD4300" />
			<stop offset="0.6087" stop-color="#6E3500" />
			<stop offset="0.6515" stop-color="#E09D00" />
			<stop offset="0.6573" stop-color="#E7AA16" />
			<stop offset="0.6672" stop-color="#F2BE37" />
			<stop offset="0.6768" stop-color="#F9CC4E" />
			<stop offset="0.6857" stop-color="#FDD45C" />
			<stop offset="0.6934" stop-color="#FFD761" />
			<stop offset="0.7325" stop-color="#FFD75F" />
			<stop offset="0.7465" stop-color="#FFD558" />
			<stop offset="0.7566" stop-color="#FFD34D" />
			<stop offset="0.7646" stop-color="#FFCF3C" />
			<stop offset="0.7707" stop-color="#FFCB29" />
			<stop offset="0.7818" stop-color="#FBC525" />
			<stop offset="0.7968" stop-color="#F0B41A" />
			<stop offset="0.8139" stop-color="#DE9808" />
			<stop offset="0.8205" stop-color="#D68B00" />
			<stop offset="0.8228" stop-color="#DD9B16" />
			<stop offset="0.8268" stop-color="#E7B133" />
			<stop offset="0.8311" stop-color="#F0C34B" />
			<stop offset="0.8361" stop-color="#F6D15E" />
			<stop offset="0.8419" stop-color="#FBDB6B" />
			<stop offset="0.8493" stop-color="#FDE073" />
			<stop offset="0.8644" stop-color="#FEE275" />
			<stop offset="0.9367" stop-color="#FEE47E" />
			<stop offset="1" stop-color="#FED94B" />
		</linearGradient>
		<linearGradient id="paint2_linear_40_44" x1="9.21405" y1="39.247" x2="77.2897" y2="48.7859" gradientUnits="userSpaceOnUse">
			<stop offset="0.1616" stop-color="#CC7800" />
			<stop offset="0.2072" stop-color="#D07E02" />
			<stop offset="0.2662" stop-color="#DA8E08" />
			<stop offset="0.3325" stop-color="#EAA912" />
			<stop offset="0.3682" stop-color="#F5BA18" />
			<stop offset="0.4286" stop-color="#F1AA1A" />
			<stop offset="0.4743" stop-color="#EE9B1B" />
			<stop offset="0.5407" stop-color="#6B2B00" />
			<stop offset="0.6147" stop-color="#6D3001" />
			<stop offset="0.7067" stop-color="#FEC423" />
			<stop offset="1" stop-color="#8F4E00" />
		</linearGradient>
		<linearGradient id="paint3_linear_40_44" x1="18.5835" y1="39.7903" x2="72.5108" y2="47.3467" gradientUnits="userSpaceOnUse">
			<stop offset="0.1616" stop-color="#BA6D00" />
			<stop offset="0.2152" stop-color="#B46800" />
			<stop offset="0.2848" stop-color="#A45B00" />
			<stop offset="0.3628" stop-color="#894400" />
			<stop offset="0.4334" stop-color="#6B2B00" />
			<stop offset="0.6147" stop-color="#6D3001" />
			<stop offset="1" stop-color="#964100" />
		</linearGradient>
		<radialGradient id="paint4_radial_40_44" cx="0" cy="0" r="1" gradientUnits="userSpaceOnUse" gradientTransform="translate(43.258 44.0181) rotate(7.97645) scale(29.8107)">
			<stop stop-color="#CC920E" />
			<stop offset="1" stop-color="#AD6505" />
		</radialGradient>
		<radialGradient id="paint5_radial_40_44" cx="0" cy="0" r="1" gradientUnits="userSpaceOnUse" gradientTransform="translate(39.4392 72.479) rotate(7.97645) scale(37.8377)">
			<stop stop-color="white" />
			<stop offset="0.6578" stop-color="white" />
			<stop offset="0.7661" stop-color="white" />
			<stop offset="0.8514" stop-color="#FEFEFD" />
			<stop offset="0.8829" stop-color="#FBF9F6" />
			<stop offset="0.9055" stop-color="#F6F1EA" />
			<stop offset="0.9239" stop-color="#EFE6D9" />
			<stop offset="0.9397" stop-color="#E6D7C3" />
			<stop offset="0.9537" stop-color="#DBC4A8" />
			<stop offset="0.9664" stop-color="#CEAE87" />
			<stop offset="0.978" stop-color="#BE9461" />
			<stop offset="0.9889" stop-color="#AC7736" />
			<stop offset="0.9986" stop-color="#995808" />
			<stop offset="1" stop-color="#965300" />
		</radialGradient>
		<linearGradient id="paint6_linear_40_44" x1="49.9577" y1="4.47496" x2="39.0239" y2="82.5054" gradientUnits="userSpaceOnUse">
			<stop stop-color="#E6A010" />
			<stop offset="0.4069" stop-color="#FFC500" />
			<stop offset="0.5239" stop-color="#FCBF00" />
			<stop offset="0.6757" stop-color="#F2AF00" />
			<stop offset="0.8459" stop-color="#E39400" />
			<stop offset="1" stop-color="#D17600" />
		</linearGradient>
		<linearGradient id="paint7_linear_40_44" x1="74.4475" y1="38.1441" x2="12.786" y2="50.2841" gradientUnits="userSpaceOnUse">
			<stop offset="0.1616" stop-color="#AD6600" />
			<stop offset="0.2452" stop-color="#A76100" />
			<stop offset="0.3535" stop-color="#975200" />
			<stop offset="0.4751" stop-color="#7C3B00" />
			<stop offset="0.5407" stop-color="#6B2B00" />
			<stop offset="0.6147" stop-color="#6D3001" />
			<stop offset="0.7067" stop-color="#8A4700" />
			<stop offset="1" stop-color="#6B3B00" />
		</linearGradient>
		<linearGradient id="paint8_linear_40_44" x1="75.5454" y1="37.9304" x2="13.8936" y2="50.0686" gradientUnits="userSpaceOnUse">
			<stop stop-color="#CC820E" />
			<stop offset="0.4069" stop-color="#E5A300" />
			<stop offset="0.5144" stop-color="#E29D00" />
			<stop offset="0.6537" stop-color="#D88D00" />
			<stop offset="0.7707" stop-color="#CC7A00" />
			<stop offset="1" stop-color="#873F00" />
		</linearGradient>
		<linearGradient id="paint9_linear_40_44" x1="64.2176" y1="73.7426" x2="51.3862" y2="8.56953" gradientUnits="userSpaceOnUse">
			<stop stop-color="#FFAA00" />
			<stop offset="0.4979" stop-color="#FFEF7F" />
			<stop offset="0.5718" stop-color="#FCEA79" />
			<stop offset="0.6677" stop-color="#F4DA69" />
			<stop offset="0.7757" stop-color="#E6C14E" />
			<stop offset="0.8918" stop-color="#D29F29" />
			<stop offset="1" stop-color="#BD7800" />
		</linearGradient>
	</defs>
</svg>
