<svg width="68" height="59" viewBox="0 0 68 59" fill="none" xmlns="http://www.w3.org/2000/svg">
	<path d="M39.0088 37.6799C54.883 27.2388 64.0435 13.1344 59.4653 6.17711C54.8904 -0.779976 38.3113 2.04119 22.4371 12.4823C6.5631 22.9202 -2.59436 37.0279 1.98076 43.9818C6.55861 50.9455 23.138 48.1179 39.0088 37.6799Z" fill="url(#paint0_linear_40_155)" />
	<path d="M61.1857 16.3574C58.6269 23.4966 50.8879 32.254 40.1036 39.3455C29.3191 46.4402 18.2162 50.0719 10.6483 49.593L6.68876 52.1989L2.2865 45.4998C2.27165 45.4767 2.25348 45.4566 2.23863 45.4335C2.22394 45.4072 2.20915 45.384 2.19414 45.3641L2.14048 45.2848L2.14369 45.2849C-2.28545 38.1591 7.00841 23.943 23.0379 13.4008C39.064 2.86173 55.7878 -0.0418206 60.5874 6.83362L60.594 6.83077L65.145 13.7547L61.1857 16.3574Z" fill="url(#paint1_linear_40_155)" />
	<path d="M44.3401 45.7865C60.4851 35.1702 69.7981 20.827 65.1461 13.7478C60.4938 6.6718 43.6308 9.54287 27.4858 20.1593C11.3473 30.7728 2.03417 45.1191 6.68641 52.1951C11.3417 59.2744 28.2014 56.4032 44.3401 45.7865Z" fill="url(#paint2_linear_40_155)" />
	<path d="M61.4841 17.7532C57.6794 11.9694 43.4733 14.591 29.7607 23.6102C16.0447 32.6324 8.00815 44.6338 11.8128 50.4176C15.6174 56.2015 29.8202 53.5797 43.5361 44.5607C57.2521 35.5385 65.2855 23.537 61.4841 17.7532Z" fill="url(#paint3_linear_40_155)" />
	<path d="M58.795 18.3468C55.2878 13.0157 42.2907 15.374 29.7613 23.6138C17.2286 31.8565 9.91629 42.8543 13.4233 48.1886C16.9303 53.5229 29.9275 51.1614 42.4569 42.9217C54.9865 34.6787 62.3024 23.6747 58.795 18.3468Z" fill="url(#paint4_radial_40_155)" />
	<path d="M38.6286 41.8278L42.9517 38.984L41.9193 37.4174C43.1982 36.5787 44.3641 35.6992 45.4296 34.7797C46.4917 33.8632 47.3767 32.9699 48.0813 32.106C48.7824 31.2485 49.2604 30.4374 49.5182 29.6858C49.7726 28.9373 49.7245 28.2922 49.3737 27.7537C48.8948 27.0265 48.1741 26.6616 47.2085 26.6587C46.2429 26.6558 45.1784 26.8431 44.0119 27.2173C42.8517 27.5949 41.6342 28.0945 40.3757 28.7135C39.1202 29.3359 37.9599 29.9118 36.8943 30.4445C35.8321 30.9741 34.9164 31.383 34.1507 31.6714C33.3881 31.9631 32.9143 31.9717 32.7389 31.704C32.6348 31.5454 32.7288 31.2622 33.0264 30.8676C33.3275 30.47 33.8945 29.9958 34.7339 29.4457C35.9503 28.6423 37.1577 28.0847 38.3533 27.7695C39.5487 27.4575 40.4969 27.4884 41.1947 27.865L46.7272 24.227L44.0769 20.1949L38.5441 23.836L38.9725 24.4872C37.42 25.0373 35.9794 25.6538 34.6471 26.3427L33.5435 24.6638L29.2207 27.5044L30.2258 29.0378C28.965 29.8997 27.8022 30.7825 26.7251 31.6791C25.651 32.5791 24.7507 33.4556 24.0438 34.3034C23.3334 35.1541 22.8498 35.9489 22.5923 36.6941C22.3416 37.4332 22.396 38.0818 22.756 38.6272C23.2405 39.3706 23.9735 39.7457 24.9549 39.7526C25.9394 39.7596 27.02 39.5731 28.203 39.1869C29.3795 38.8037 30.6134 38.2954 31.9017 37.6554C33.1932 37.0156 34.3764 36.4312 35.4516 35.8991C36.5335 35.3577 37.4659 34.9336 38.2454 34.6235C39.025 34.3134 39.5025 34.2922 39.6781 34.5567C39.8208 34.7748 39.7062 35.0889 39.3243 35.505C38.949 35.9181 38.4095 36.352 37.7186 36.8104C37.1635 37.1731 36.5785 37.4928 35.967 37.7665C35.3522 38.0431 34.776 38.2481 34.2252 38.3936C33.6811 38.533 33.1789 38.601 32.7186 38.5975C32.2551 38.5938 31.8988 38.4899 31.6464 38.2919L26.051 41.9716L28.6389 45.9078L34.2343 42.2282L33.7941 41.5573C34.2331 41.4095 34.7609 41.2117 35.3809 40.9609C36.0075 40.704 36.6976 40.3927 37.4481 40.0236L38.6286 41.8278Z" fill="url(#paint5_linear_40_155)" />
	<path d="M39.0413 42.4557L43.3643 39.6119L42.332 38.0453C43.6109 37.2066 44.7736 36.327 45.8389 35.4106C46.9012 34.4909 47.7862 33.5976 48.4908 32.7338C49.1919 31.8762 49.673 31.0685 49.9277 30.3136C50.1852 29.5652 50.1372 28.9201 49.7863 28.3847C49.3075 27.6544 48.5867 27.2895 47.618 27.2864C46.6522 27.2868 45.5908 27.4742 44.4243 27.8483C43.2611 28.2227 42.0467 28.7256 40.7882 29.3446C39.5297 29.9636 38.3724 30.5397 37.3069 31.0724C36.2447 31.602 35.329 32.014 34.5634 32.2992C33.7974 32.594 33.327 32.5996 33.1514 32.3351C33.0475 32.1733 33.138 31.8931 33.439 31.4955C33.7401 31.0978 34.307 30.6269 35.1433 30.0734C36.363 29.2702 37.5704 28.7126 38.766 28.3974C39.9582 28.0853 40.9095 28.1194 41.6072 28.496L47.1399 24.8549L44.4863 20.8259L38.9536 24.4638L39.3852 25.1151C37.8327 25.6652 36.3919 26.2849 35.0598 26.9706L33.953 25.2915L29.6302 28.1321L30.6385 29.6657C29.3775 30.5308 28.2117 31.4103 27.1344 32.31C26.0605 33.2068 25.1634 34.0835 24.4565 34.9313C23.7429 35.7818 23.2591 36.5798 23.005 37.3219C22.7542 38.0642 22.8086 38.7097 23.1653 39.2581C23.6532 39.9985 24.383 40.3734 25.3676 40.3804C26.3488 40.3905 27.4326 40.201 28.6125 39.8147C29.792 39.4348 31.0229 38.9231 32.3142 38.2865C33.6025 37.6465 34.7858 37.059 35.8642 36.527C36.9461 35.9856 37.8784 35.5646 38.6548 35.2544C39.4377 34.9413 39.9152 34.92 40.0874 35.1876C40.2335 35.4026 40.1189 35.7168 39.7338 36.1327C39.3585 36.5459 38.8222 36.9799 38.1281 37.4381C37.576 37.8042 36.9911 38.1207 36.3795 38.3975C35.7648 38.671 35.1885 38.8792 34.6378 39.0215C34.0937 39.1609 33.5882 39.2319 33.128 39.2252C32.6645 39.2215 32.3082 39.1208 32.0559 38.9197L26.4637 42.5994L29.0516 46.5357L34.6469 42.8561L34.2066 42.1884C34.6424 42.0404 35.1735 41.8396 35.7935 41.5888C36.417 41.3318 37.1071 41.0205 37.8608 40.6515L39.0413 42.4557Z" fill="url(#paint6_linear_40_155)" />
	<path d="M29.9624 23.9275C42.495 15.6879 55.5816 13.4587 59.1896 18.9515C62.8039 24.4445 55.5712 35.5774 43.0418 43.8171C30.5156 52.057 17.4291 54.283 13.8148 48.7899C10.2067 43.3004 17.4362 32.1674 29.9624 23.9275ZM44.7911 46.4713C60.6685 36.0304 69.8258 21.9257 65.2509 14.9687C60.6727 8.01142 44.0936 10.8325 28.2195 21.2736C12.3486 31.7117 3.19134 45.8162 7.76631 52.7733C12.3413 59.7304 28.9171 56.9092 44.7911 46.4713Z" fill="url(#paint7_linear_40_155)" />
	<path d="M47.9867 12.2275C46.7561 13.8361 45.5206 15.4796 44.3103 17.1307C39.8404 18.4131 34.8632 20.713 29.962 23.9312C17.4358 32.1711 10.2063 43.3041 13.8176 48.7938C15.9949 52.1086 21.624 52.607 28.4921 50.6786C28.3366 52.0812 28.2492 53.3976 28.2152 54.6047C18.6748 57.6803 10.7165 57.2685 7.76288 52.7737C3.18775 45.8198 12.3452 31.7121 28.216 21.274C35.011 16.8094 41.9324 13.7356 47.9867 12.2275Z" fill="url(#paint8_linear_40_155)" style="mix-blend-mode:overlay" />
	<defs>
		<linearGradient id="paint0_linear_40_155" x1="3.29177" y1="21.2396" x2="58.1587" y2="28.9276" gradientUnits="userSpaceOnUse">
			<stop offset="0.1616" stop-color="#CC7800" />
			<stop offset="0.2072" stop-color="#D07E02" />
			<stop offset="0.2662" stop-color="#DA8E08" />
			<stop offset="0.3325" stop-color="#EAA912" />
			<stop offset="0.3682" stop-color="#F5BA18" />
			<stop offset="0.4286" stop-color="#F1AA1A" />
			<stop offset="0.4743" stop-color="#EE9B1B" />
			<stop offset="0.5407" stop-color="#6B2B00" />
			<stop offset="0.6147" stop-color="#6D3001" />
			<stop offset="0.7067" stop-color="#FEC423" />
			<stop offset="1" stop-color="#8F4E00" />
		</linearGradient>
		<linearGradient id="paint1_linear_40_155" x1="2.34529" y1="45.5964" x2="60.8022" y2="7.14304" gradientUnits="userSpaceOnUse">
			<stop stop-color="#E0A300" />
			<stop offset="0.0833" stop-color="#FFC524" />
			<stop offset="0.1516" stop-color="#FFD759" />
			<stop offset="0.4069" stop-color="#FFF4A5" />
			<stop offset="0.4208" stop-color="#FEF09F" />
			<stop offset="0.4389" stop-color="#FCE68F" />
			<stop offset="0.4592" stop-color="#F9D574" />
			<stop offset="0.4813" stop-color="#F5BD4F" />
			<stop offset="0.5044" stop-color="#EF9E20" />
			<stop offset="0.518" stop-color="#EB8A00" />
			<stop offset="0.5625" stop-color="#AD4300" />
			<stop offset="0.6087" stop-color="#6E3500" />
			<stop offset="0.6515" stop-color="#E09D00" />
			<stop offset="0.6573" stop-color="#E7AA16" />
			<stop offset="0.6672" stop-color="#F2BE37" />
			<stop offset="0.6768" stop-color="#F9CC4E" />
			<stop offset="0.6857" stop-color="#FDD45C" />
			<stop offset="0.6934" stop-color="#FFD761" />
			<stop offset="0.7325" stop-color="#FFD75F" />
			<stop offset="0.7465" stop-color="#FFD558" />
			<stop offset="0.7566" stop-color="#FFD34D" />
			<stop offset="0.7646" stop-color="#FFCF3C" />
			<stop offset="0.7707" stop-color="#FFCB29" />
			<stop offset="0.7818" stop-color="#FBC525" />
			<stop offset="0.7968" stop-color="#F0B41A" />
			<stop offset="0.8139" stop-color="#DE9808" />
			<stop offset="0.8205" stop-color="#D68B00" />
			<stop offset="0.8228" stop-color="#DD9B16" />
			<stop offset="0.8268" stop-color="#E7B133" />
			<stop offset="0.8311" stop-color="#F0C34B" />
			<stop offset="0.8361" stop-color="#F6D15E" />
			<stop offset="0.8419" stop-color="#FBDB6B" />
			<stop offset="0.8493" stop-color="#FDE073" />
			<stop offset="0.8644" stop-color="#FEE275" />
			<stop offset="0.9367" stop-color="#FEE47E" />
			<stop offset="1" stop-color="#FED94B" />
		</linearGradient>
		<linearGradient id="paint2_linear_40_155" x1="8.02285" y1="29.0641" x2="63.8134" y2="36.8816" gradientUnits="userSpaceOnUse">
			<stop offset="0.1616" stop-color="#FFF8C7" />
			<stop offset="0.1986" stop-color="#FFF6C1" />
			<stop offset="0.2466" stop-color="#FEF0B1" />
			<stop offset="0.3007" stop-color="#FEE696" />
			<stop offset="0.3593" stop-color="#FDD871" />
			<stop offset="0.4207" stop-color="#FCC641" />
			<stop offset="0.469" stop-color="#FBB617" />
			<stop offset="0.541" stop-color="#A26009" />
			<stop offset="0.5826" stop-color="#6C2D00" />
			<stop offset="0.6342" stop-color="#6D3001" />
			<stop offset="0.6719" stop-color="#BA7D11" />
			<stop offset="0.7035" stop-color="#FDC120" />
			<stop offset="0.8149" stop-color="#DB9204" />
			<stop offset="0.8202" stop-color="#E09D12" />
			<stop offset="0.8332" stop-color="#EBB52F" />
			<stop offset="0.8469" stop-color="#F3C746" />
			<stop offset="0.8618" stop-color="#F9D456" />
			<stop offset="0.8784" stop-color="#FDDC60" />
			<stop offset="0.9005" stop-color="#FEDE63" />
			<stop offset="1" stop-color="#FBC543" />
		</linearGradient>
		<linearGradient id="paint3_linear_40_155" x1="11.8111" y1="50.4196" x2="61.4793" y2="17.752" gradientUnits="userSpaceOnUse">
			<stop offset="0.1616" stop-color="#BA6D00" />
			<stop offset="0.2364" stop-color="#B46800" />
			<stop offset="0.3334" stop-color="#A45B00" />
			<stop offset="0.4422" stop-color="#894400" />
			<stop offset="0.5407" stop-color="#6B2B00" />
			<stop offset="0.6147" stop-color="#6D3001" />
			<stop offset="0.7067" stop-color="#FEBB00" />
			<stop offset="1" stop-color="#6B3B00" />
		</linearGradient>
		<radialGradient id="paint4_radial_40_155" cx="0" cy="0" r="1" gradientUnits="userSpaceOnUse" gradientTransform="translate(36.1098 33.2686) rotate(-33.3295) scale(27.1541 11.551)">
			<stop stop-color="#FEDE6D" />
			<stop offset="1" stop-color="#EBA719" />
		</radialGradient>
		<linearGradient id="paint5_linear_40_155" x1="48.4596" y1="25.1075" x2="24.2135" y2="41.0567" gradientUnits="userSpaceOnUse">
			<stop offset="0.1616" stop-color="#BA6D00" />
			<stop offset="0.2364" stop-color="#B46800" />
			<stop offset="0.3334" stop-color="#A45B00" />
			<stop offset="0.4422" stop-color="#894400" />
			<stop offset="0.5407" stop-color="#6B2B00" />
			<stop offset="0.6147" stop-color="#6D3001" />
			<stop offset="0.7067" stop-color="#CF7C00" />
			<stop offset="1" stop-color="#6B3B00" />
		</linearGradient>
		<linearGradient id="paint6_linear_40_155" x1="44.7157" y1="46.3606" x2="28.0911" y2="21.088" gradientUnits="userSpaceOnUse">
			<stop stop-color="#FFE48C" />
			<stop offset="0.4069" stop-color="#FFF4A5" />
			<stop offset="0.4612" stop-color="#FFF29F" />
			<stop offset="0.5317" stop-color="#FFED8F" />
			<stop offset="0.6112" stop-color="#FFE474" />
			<stop offset="0.6965" stop-color="#FFD84F" />
			<stop offset="0.7707" stop-color="#FFCB29" />
			<stop offset="0.8644" stop-color="#FEE275" />
			<stop offset="0.9367" stop-color="#FEE47E" />
		</linearGradient>
		<linearGradient id="paint7_linear_40_155" x1="40.0019" y1="8.95643" x2="32.9379" y2="59.3696" gradientUnits="userSpaceOnUse">
			<stop stop-color="#FFD651" />
			<stop offset="0.4069" stop-color="#FFEC60" />
			<stop offset="0.4829" stop-color="#FFE95A" />
			<stop offset="0.5815" stop-color="#FFE14A" />
			<stop offset="0.692" stop-color="#FFD32F" />
			<stop offset="0.7707" stop-color="#FFC718" />
			<stop offset="0.8644" stop-color="#FED844" />
			<stop offset="0.9367" stop-color="#FED949" />
		</linearGradient>
		<linearGradient id="paint8_linear_40_155" x1="10.1826" y1="31.9882" x2="31.6685" y2="34.3739" gradientUnits="userSpaceOnUse">
			<stop stop-color="#919191" />
			<stop offset="0.9972" />
		</linearGradient>
	</defs>
</svg>
