<svg width="59" height="68" viewBox="0 0 59 68" fill="none" xmlns="http://www.w3.org/2000/svg">
	<path d="M50.0828 33.442C49.863 23.6411 46.2141 14.0515 39.5925 7.96154C28.5632 -2.18582 13.47 1.22887 5.88045 15.5854C2.84172 21.3177 1.46852 27.9376 1.61554 34.4625C1.83201 44.2633 5.48422 53.8529 12.1021 59.9495C23.1319 70.0867 38.2214 66.6787 45.8179 52.319C48.85 46.583 50.2265 39.9668 50.0828 33.442Z" fill="url(#paint0_linear_21_222)" />
	<path d="M25.8401 1.54994L31.1669 1.44238L31.1832 2.14655C34.5122 2.99722 37.7727 4.75185 40.7404 7.48427C47.479 13.682 51.1943 23.4413 51.4156 33.419C51.5639 40.0562 50.1613 46.79 47.0765 52.6288C43.4973 59.398 38.276 63.7722 32.5941 65.4967L32.6097 66.2145L27.4832 66.3252L27.4698 66.3211C22.4111 66.4352 17.2589 64.5192 12.7662 60.3931C6.03114 54.1922 2.31251 44.4327 2.09118 34.455C1.9429 27.8178 3.34553 21.0839 6.43368 15.2453C11.0252 6.55509 18.3209 1.80762 25.8401 1.54994Z" fill="url(#paint1_linear_21_222)" />
	<path d="M56.551 33.2988C56.3295 23.3245 52.6144 13.5618 45.8758 7.36408C34.6547 -2.95925 19.29 0.516787 11.5691 15.1251C8.48094 20.9637 7.0783 27.6977 7.22642 34.3382C7.44792 44.3125 11.163 54.0752 17.9016 60.2729C29.1263 70.593 44.484 67.1201 52.2119 52.5087C55.2965 46.6733 56.6991 39.9394 56.551 33.2988Z" fill="url(#paint2_linear_21_222)" />
	<path d="M53.158 33.3694C52.9836 25.4702 50.0385 17.7335 44.7008 12.8282C35.8138 4.64874 23.6484 7.40252 17.5283 18.9737C15.0812 23.5968 13.9719 28.9316 14.0896 34.1909C14.264 42.0901 17.2091 49.8269 22.5433 54.7354C31.434 62.9082 43.599 60.1612 49.7193 48.5866C52.163 43.9633 53.2723 38.6286 53.158 33.3694Z" fill="url(#paint3_linear_21_222)" />
	<path d="M51.1552 33.413C50.9823 25.6226 48.0794 17.9967 42.8166 13.1563C34.0496 5.09149 22.0491 7.80918 16.0152 19.2181C13.5984 23.7782 12.5063 29.039 12.6241 34.227C12.7971 42.0173 15.6965 49.6465 20.9592 54.4903C29.7263 62.5517 41.7265 59.8374 47.7642 48.4218C50.1776 43.8616 51.2697 38.6008 51.1552 33.413Z" fill="url(#paint4_radial_21_222)" />
	<path d="M51.1552 33.413C50.9823 25.6226 48.0794 17.9967 42.8166 13.1563C34.0496 5.09149 22.0491 7.80918 16.0152 19.2181C13.5984 23.7782 12.5063 29.039 12.6241 34.227C12.7971 42.0173 15.6965 49.6465 20.9592 54.4903C29.7263 62.5517 41.7265 59.8374 47.7642 48.4218C50.1776 43.8616 51.2697 38.6008 51.1552 33.413Z" fill="url(#paint5_radial_21_222)" style="mix-blend-mode:darken" />
	<path d="M13.5206 34.2035C13.4094 29.0192 14.5015 23.7583 16.9115 19.198C22.949 7.78579 34.9492 5.07146 43.7129 13.1327C48.979 17.9766 51.8788 25.5991 52.0517 33.3894C52.1663 38.5738 51.0705 43.8413 48.6605 48.4016C42.6265 59.8106 30.626 62.5283 21.8591 54.4635C16.5963 49.6231 13.6934 41.9972 13.5206 34.2035ZM57.1982 33.2865C56.9785 23.4142 53.2991 13.7552 46.632 7.62219C35.5283 -2.6002 20.3213 0.846266 12.6759 15.302C9.62124 21.0811 8.23208 27.7477 8.38032 34.3168C8.60022 44.1858 12.2761 53.848 18.943 59.9844C30.0539 70.2004 45.2536 66.7603 52.9028 52.298C55.9539 46.5221 57.3397 39.8553 57.1982 33.2865Z" fill="url(#paint6_linear_21_222)" />
	<path d="M31.8361 51.8024L34.7681 48.8547L33.9687 47.4934C34.3314 47.4433 34.7645 47.3424 35.2679 47.1939C35.7714 47.0454 36.3025 46.8202 36.8741 46.529L39.0151 50.1754L39.852 50.1556L39.9981 49.3302L39.9447 49.2427L41.9145 47.267L40.0458 44.0926C40.9007 43.2275 41.6282 42.2575 42.2329 41.1592C42.8272 40.0637 43.26 38.9365 43.5214 37.7702C43.7129 36.9199 43.7992 36.0678 43.7768 35.2138C43.7688 34.894 43.7471 34.5735 43.7118 34.2557C43.5799 33.0735 43.1975 31.94 42.5578 30.855C41.6925 29.3851 40.7679 28.4254 39.7911 27.9728C38.8107 27.5268 37.8267 27.3593 36.836 27.4668C35.8518 27.5779 34.8855 27.8769 33.9298 28.3768C32.9845 28.8705 32.1055 29.3301 31.3031 29.7526C30.5004 30.182 29.7865 30.4628 29.1642 30.6088C28.535 30.7578 28.0656 30.558 27.749 30.019C27.6267 29.8125 27.561 29.5612 27.5586 29.2654C27.5535 29.0919 27.5694 28.9092 27.6065 28.7071C27.7014 28.1613 28.0244 27.6063 28.5893 27.0395C29.408 26.2168 30.3424 25.8075 31.3919 25.8185C32.4413 25.8295 33.4195 26.323 34.323 27.2952L35.1599 27.2753L35.0919 26.5176L38.031 23.5635L34.2319 17.086L34.0753 15.3724L33.2383 15.3923L29.5271 19.1205L30.3042 20.4501C29.0188 20.6755 27.8806 21.0849 26.8872 21.6578L25.48 19.2573L25.7277 18.2296L24.8908 18.2495L21.9946 21.1615L23.8125 24.2654C22.9893 25.1763 22.2612 26.1598 21.6415 27.2166C21.0222 28.2667 20.5738 29.366 20.2934 30.5041C20.0883 31.3537 19.9951 32.2088 20.0137 33.0729C20.0195 33.3688 20.0422 33.6656 20.0719 33.9593C20.2081 35.1248 20.5941 36.255 21.2494 37.368C22.1302 38.8692 23.0671 39.8534 24.0703 40.3208C25.0737 40.7849 26.0675 40.9597 27.0657 40.8391C28.0604 40.7216 29.0444 40.4066 30.0174 39.9007C30.9904 39.3948 31.8836 38.9257 32.7033 38.4972C33.5162 38.0683 34.238 37.7641 34.8688 37.5846C35.4927 37.4047 35.9665 37.581 36.286 38.1303C36.4365 38.3858 36.5148 38.6581 36.5211 38.9438C36.5277 39.1548 36.4931 39.374 36.4209 39.5981C36.2516 40.1369 35.9381 40.6379 35.4731 41.1077C35.1013 41.4801 34.6727 41.7648 34.1977 41.9555C33.716 42.1458 33.2391 42.2378 32.7605 42.2278C32.2779 42.2278 31.8013 42.1091 31.333 41.8889C31.1802 41.8168 31.0317 41.7279 30.8903 41.6326L30.9252 40.8561L30.0882 40.876L26.334 44.6496L31.0172 52.6285L31.8541 52.6087L31.8361 51.8024Z" fill="url(#paint7_linear_21_222)" />
	<path d="M44.6206 35.1977C44.6126 34.8779 44.5877 34.5572 44.5558 34.2396C44.4238 33.0573 44.0379 31.9237 43.3982 30.8387C42.5362 29.369 41.6084 28.4091 40.6318 27.9531C39.6512 27.5105 38.6671 27.3431 37.6764 27.4505C36.6922 27.5616 35.726 27.8606 34.7736 28.3607C33.825 28.8542 32.9493 29.314 32.1435 29.7363C31.3442 30.1659 30.627 30.4465 30.0047 30.5925C29.3789 30.7417 28.9095 30.5418 28.5895 30.0027C28.4706 29.7964 28.4049 29.5451 28.3991 29.2491C28.394 29.0756 28.4132 28.8931 28.4469 28.6908C28.5452 28.1452 28.8683 27.5902 29.4332 27.0234C30.252 26.2007 31.1829 25.7913 32.2324 25.8023C33.2852 25.8134 34.2599 26.3067 35.1634 27.279L38.8747 23.5508L34.0787 15.3794L30.3708 19.1078L31.1447 20.4339C29.8625 20.6628 28.7209 21.0721 27.7276 21.6449L25.7277 18.2365L22.8315 21.1485L24.6493 24.2523C23.8262 25.1632 23.0981 26.1467 22.4784 27.2036C21.8591 28.2536 21.4107 29.3529 21.1337 30.4913C20.9253 31.3407 20.8354 32.196 20.8506 33.0599C20.8598 33.356 20.8793 33.6491 20.9088 33.9462C21.045 35.1117 21.4344 36.2422 22.0863 37.355C22.9671 38.8562 23.9041 39.8403 24.9072 40.3078C25.9106 40.7719 26.9078 40.9468 27.9027 40.826C28.8973 40.7085 29.8813 40.3935 30.8543 39.8876C31.8275 39.3783 32.7239 38.9128 33.5402 38.4842C34.3565 38.0555 35.0749 37.7511 35.7057 37.5715C36.333 37.3918 36.8034 37.5679 37.1229 38.1172C37.2734 38.3727 37.3517 38.645 37.358 38.9307C37.3646 39.1418 37.3302 39.3575 37.2578 39.585C37.0919 40.124 36.775 40.6249 36.31 41.0947C35.9383 41.4671 35.513 41.752 35.0381 41.9426C34.5563 42.133 34.076 42.2248 33.5974 42.2148C33.115 42.2114 32.6416 42.0962 32.1699 41.8758C31.7015 41.659 31.2832 41.319 30.9253 40.8596L27.1711 44.6332L31.8543 52.6121L35.6085 48.8384L34.8092 47.4771C35.1719 47.427 35.605 47.3261 36.1119 47.1778C36.6119 47.0292 37.1464 46.8041 37.7146 46.5127L39.8556 50.1592L42.7585 47.2509L40.8897 44.0765C41.748 43.2116 42.4723 42.238 43.0768 41.1431C43.6745 40.0478 44.1073 38.9205 44.3654 37.7541C44.5534 36.9036 44.6362 36.0514 44.6206 35.1977Z" fill="url(#paint8_linear_21_222)" />
	<path d="M34.1824 59.0574C37.0429 58.8655 39.827 57.8135 42.1818 56.1627C44.537 54.505 46.487 52.3109 48.001 49.8641C51.0333 44.9505 52.358 39.1064 52.2505 33.365C52.206 31.9254 52.0798 30.4886 51.8645 29.0677C51.6322 27.646 51.3277 26.2411 50.9204 24.855C50.5022 23.4819 50.0015 22.1285 49.4035 20.8179C48.7916 19.5134 48.0821 18.2585 47.2744 17.0666C45.6376 14.7023 43.6012 12.5867 41.1768 11.033C38.7519 9.48958 35.9263 8.55843 33.0578 8.49846C35.9231 8.62284 38.7083 9.61657 41.0667 11.1975C43.4495 12.7695 45.4316 14.8824 47.0181 17.2341C50.1751 21.9841 51.725 27.6948 51.8492 33.3724C51.9838 39.0472 50.6729 44.8171 47.7305 49.6979C46.2681 52.1335 44.3693 54.3234 42.0641 56.0005C39.7756 57.6852 37.0359 58.8006 34.1824 59.0574Z" fill="url(#paint9_linear_21_222)" />
	<defs>
		<linearGradient id="paint0_linear_21_222" x1="1.61534" y1="30.5584" x2="50.082" y2="37.3496" gradientUnits="userSpaceOnUse">
			<stop offset="0.1616" stop-color="#FFF8C7" />
			<stop offset="0.1986" stop-color="#FFF6C1" />
			<stop offset="0.2466" stop-color="#FEF0B1" />
			<stop offset="0.3007" stop-color="#FEE696" />
			<stop offset="0.3593" stop-color="#FDD871" />
			<stop offset="0.4207" stop-color="#FCC641" />
			<stop offset="0.469" stop-color="#FBB617" />
			<stop offset="0.526" stop-color="#A26009" />
			<stop offset="0.5588" stop-color="#6C2D00" />
			<stop offset="0.6146" stop-color="#6D3001" />
			<stop offset="0.6407" stop-color="#BA7D11" />
			<stop offset="0.6625" stop-color="#FDC120" />
			<stop offset="0.8107" stop-color="#DB9204" />
			<stop offset="0.8162" stop-color="#E09D12" />
			<stop offset="0.8298" stop-color="#EBB52F" />
			<stop offset="0.8443" stop-color="#F3C746" />
			<stop offset="0.8598" stop-color="#F9D456" />
			<stop offset="0.8773" stop-color="#FDDC60" />
			<stop offset="0.9005" stop-color="#FEDE63" />
			<stop offset="1" stop-color="#FBC543" />
		</linearGradient>
		<linearGradient id="paint1_linear_21_222" x1="27.4684" y1="66.3267" x2="26.0322" y2="1.54758" gradientUnits="userSpaceOnUse">
			<stop stop-color="#E0A300" />
			<stop offset="0.0833" stop-color="#FFC524" />
			<stop offset="0.1516" stop-color="#FFD759" />
			<stop offset="0.4069" stop-color="#FFF4A5" />
			<stop offset="0.4208" stop-color="#FEF09F" />
			<stop offset="0.4389" stop-color="#FCE68F" />
			<stop offset="0.4592" stop-color="#F9D574" />
			<stop offset="0.4813" stop-color="#F5BD4F" />
			<stop offset="0.5044" stop-color="#EF9E20" />
			<stop offset="0.518" stop-color="#EB8A00" />
			<stop offset="0.5625" stop-color="#AD4300" />
			<stop offset="0.6087" stop-color="#6E3500" />
			<stop offset="0.6515" stop-color="#E09D00" />
			<stop offset="0.6573" stop-color="#E7AA16" />
			<stop offset="0.6672" stop-color="#F2BE37" />
			<stop offset="0.6768" stop-color="#F9CC4E" />
			<stop offset="0.6857" stop-color="#FDD45C" />
			<stop offset="0.6934" stop-color="#FFD761" />
			<stop offset="0.7325" stop-color="#FFD75F" />
			<stop offset="0.7465" stop-color="#FFD558" />
			<stop offset="0.7566" stop-color="#FFD34D" />
			<stop offset="0.7646" stop-color="#FFCF3C" />
			<stop offset="0.7707" stop-color="#FFCB29" />
			<stop offset="0.7818" stop-color="#FBC525" />
			<stop offset="0.7968" stop-color="#F0B41A" />
			<stop offset="0.8139" stop-color="#DE9808" />
			<stop offset="0.8205" stop-color="#D68B00" />
			<stop offset="0.8228" stop-color="#DD9B16" />
			<stop offset="0.8268" stop-color="#E7B133" />
			<stop offset="0.8311" stop-color="#F0C34B" />
			<stop offset="0.8361" stop-color="#F6D15E" />
			<stop offset="0.8419" stop-color="#FBDB6B" />
			<stop offset="0.8493" stop-color="#FDE073" />
			<stop offset="0.8644" stop-color="#FEE275" />
			<stop offset="0.9367" stop-color="#FEE47E" />
			<stop offset="1" stop-color="#FED94B" />
		</linearGradient>
		<linearGradient id="paint2_linear_21_222" x1="7.23038" y1="30.3609" x2="56.5505" y2="37.2718" gradientUnits="userSpaceOnUse">
			<stop offset="0.1616" stop-color="#CC7800" />
			<stop offset="0.2072" stop-color="#D07E02" />
			<stop offset="0.2662" stop-color="#DA8E08" />
			<stop offset="0.3325" stop-color="#EAA912" />
			<stop offset="0.3682" stop-color="#F5BA18" />
			<stop offset="0.4286" stop-color="#F1AA1A" />
			<stop offset="0.4743" stop-color="#EE9B1B" />
			<stop offset="0.5407" stop-color="#6B2B00" />
			<stop offset="0.6147" stop-color="#6D3001" />
			<stop offset="0.7067" stop-color="#FEC423" />
			<stop offset="1" stop-color="#8F4E00" />
		</linearGradient>
		<linearGradient id="paint3_linear_21_222" x1="14.0886" y1="31.0411" x2="53.1573" y2="36.5155" gradientUnits="userSpaceOnUse">
			<stop offset="0.1616" stop-color="#BA6D00" />
			<stop offset="0.2152" stop-color="#B46800" />
			<stop offset="0.2848" stop-color="#A45B00" />
			<stop offset="0.3628" stop-color="#894400" />
			<stop offset="0.4334" stop-color="#6B2B00" />
			<stop offset="0.6147" stop-color="#6D3001" />
			<stop offset="1" stop-color="#964100" />
		</linearGradient>
		<radialGradient id="paint4_radial_21_222" cx="0" cy="0" r="1" gradientUnits="userSpaceOnUse" gradientTransform="translate(31.8905 33.823) rotate(7.97646) scale(22.4948)">
			<stop stop-color="#CC920E" />
			<stop offset="1" stop-color="#AD6505" />
		</radialGradient>
		<radialGradient id="paint5_radial_21_222" cx="0" cy="0" r="1" gradientUnits="userSpaceOnUse" gradientTransform="translate(28.9261 55.8625) rotate(7.97646) scale(27.4551)">
			<stop stop-color="white" />
			<stop offset="0.6578" stop-color="white" />
			<stop offset="0.7661" stop-color="white" />
			<stop offset="0.8514" stop-color="#FEFEFD" />
			<stop offset="0.8829" stop-color="#FBF9F6" />
			<stop offset="0.9055" stop-color="#F6F1EA" />
			<stop offset="0.9239" stop-color="#EFE6D9" />
			<stop offset="0.9397" stop-color="#E6D7C3" />
			<stop offset="0.9537" stop-color="#DBC4A8" />
			<stop offset="0.9664" stop-color="#CEAE87" />
			<stop offset="0.978" stop-color="#BE9461" />
			<stop offset="0.9889" stop-color="#AC7736" />
			<stop offset="0.9986" stop-color="#995808" />
			<stop offset="1" stop-color="#965300" />
		</radialGradient>
		<linearGradient id="paint6_linear_21_222" x1="37.0547" y1="3.35626" x2="28.5882" y2="63.7785" gradientUnits="userSpaceOnUse">
			<stop stop-color="#E6A010" />
			<stop offset="0.4069" stop-color="#FFC500" />
			<stop offset="0.5239" stop-color="#FCBF00" />
			<stop offset="0.6757" stop-color="#F2AF00" />
			<stop offset="0.8459" stop-color="#E39400" />
			<stop offset="1" stop-color="#D17600" />
		</linearGradient>
		<linearGradient id="paint7_linear_21_222" x1="55.4779" y1="33.4928" x2="8.78866" y2="34.5279" gradientUnits="userSpaceOnUse">
			<stop offset="0.1616" stop-color="#AD6600" />
			<stop offset="0.2452" stop-color="#A76100" />
			<stop offset="0.3535" stop-color="#975200" />
			<stop offset="0.4751" stop-color="#7C3B00" />
			<stop offset="0.5407" stop-color="#6B2B00" />
			<stop offset="0.6147" stop-color="#6D3001" />
			<stop offset="0.7067" stop-color="#8A4700" />
			<stop offset="1" stop-color="#6B3B00" />
		</linearGradient>
		<linearGradient id="paint8_linear_21_222" x1="56.3231" y1="33.4741" x2="9.62743" y2="34.5093" gradientUnits="userSpaceOnUse">
			<stop stop-color="#CC820E" />
			<stop offset="0.4069" stop-color="#E5A300" />
			<stop offset="0.5144" stop-color="#E29D00" />
			<stop offset="0.6537" stop-color="#D88D00" />
			<stop offset="0.7707" stop-color="#CC7A00" />
			<stop offset="1" stop-color="#873F00" />
		</linearGradient>
		<linearGradient id="paint9_linear_21_222" x1="43.4934" y1="58.8537" x2="42.3726" y2="8.29952" gradientUnits="userSpaceOnUse">
			<stop stop-color="#FFAA00" />
			<stop offset="0.4979" stop-color="#FFEF7F" />
			<stop offset="0.5718" stop-color="#FCEA79" />
			<stop offset="0.6677" stop-color="#F4DA69" />
			<stop offset="0.7757" stop-color="#E6C14E" />
			<stop offset="0.8918" stop-color="#D29F29" />
			<stop offset="1" stop-color="#BD7800" />
		</linearGradient>
	</defs>
</svg>
