<svg width="96" height="87" viewBox="0 0 96 87" fill="none" xmlns="http://www.w3.org/2000/svg">
	<path d="M33.6659 68.9946C41.7825 73.3972 50.9912 75.9425 60.1632 75.8318C83.1288 75.563 97.1792 58.7858 91.555 38.3539C88.1699 26.0906 78.4633 15.3008 66.2738 8.69023C58.157 4.29362 48.9545 1.74269 39.7765 1.85304C16.8169 2.12221 2.76063 18.8991 8.39708 39.3256C11.7696 51.6002 21.4821 62.3903 33.6659 68.9946Z" fill="url(#paint0_linear_21_257)" />
	<path d="M9.22031 17.8932L5.63971 24.5286L6.50892 25.0029C5.42463 29.7364 5.53184 34.972 7.04603 40.4687C10.4863 52.9504 20.3633 63.9283 32.7626 70.6571C41.0194 75.1325 50.3938 77.7219 59.7334 77.6135C70.5657 77.4889 79.4373 73.7508 85.2831 67.7125L86.1761 68.1939L89.6237 61.8216L89.6309 61.798C93.0507 55.5082 93.9649 47.7887 91.6731 39.4736C88.2328 26.992 78.3559 16.008 65.9503 9.28492C57.6935 4.80952 48.3196 2.21419 38.9796 2.32853C25.0839 2.49369 14.3997 8.60479 9.22031 17.8932Z" fill="url(#paint1_linear_21_257)" />
	<path d="M29.3088 77.0414C37.5596 81.5165 46.9338 84.1059 56.2795 83.9978C79.6467 83.7248 93.9454 66.6483 88.2188 45.8639C84.7786 33.3822 74.9018 22.3983 62.4962 15.6752C54.2394 11.1998 44.8652 8.61041 35.5255 8.71877C12.1643 8.99209 -2.14641 26.0679 3.5862 46.8527C7.02045 59.3341 16.9032 70.3183 29.3088 77.0414Z" fill="url(#paint2_linear_21_257)" />
	<path d="M31.5779 72.8213C38.1191 76.3673 45.5428 78.4171 52.9402 78.3328C71.4578 78.114 82.7776 64.5872 78.2455 48.1274C75.5158 38.245 67.6893 29.5431 57.8628 24.2174C51.3276 20.6717 43.8979 18.6215 36.5066 18.7062C17.9952 18.9193 6.66945 32.4458 11.2072 48.9119C13.9369 58.7942 21.7574 67.4959 31.5779 72.8213Z" fill="url(#paint3_linear_21_257)" />
	<path d="M32.9333 70.3247C39.3752 73.8179 46.7043 75.845 54.0001 75.7557C72.2598 75.5422 83.4265 62.2055 78.9555 45.9644C76.2672 36.2159 68.5482 27.6391 58.8563 22.3799C52.4083 18.8864 45.0852 16.8596 37.7835 16.9487C19.5297 17.1624 8.35711 30.4988 12.84 46.7405C15.5281 56.495 23.2408 65.0775 32.9333 70.3247Z" fill="url(#paint4_radial_21_257)" />
	<path d="M58.2499 23.5057C67.9361 28.7586 75.655 37.3354 78.3434 47.0839C82.8204 63.3253 71.6478 76.6617 53.394 76.8755C46.0985 76.9589 38.7753 74.938 32.3216 71.4382C22.6294 66.185 14.9165 57.6085 12.2281 47.86C7.75087 31.6246 18.9235 18.2882 37.1776 18.0685C44.473 17.985 51.8022 20.0062 58.2499 23.5057ZM28.866 77.8461C37.0352 82.2752 46.3149 84.842 55.5586 84.7349C78.6921 84.4623 92.8382 67.5641 87.1732 46.9863C83.7627 34.6319 73.9883 23.7609 61.7109 17.1101C53.5418 12.6809 44.2618 10.1201 35.018 10.2273C11.8965 10.5004 -2.26166 27.398 3.40925 47.9761C6.81443 60.3182 16.5949 71.1895 28.866 77.8461Z" fill="url(#paint5_linear_21_257)" />
	<path d="M24.3349 33.9403L25.9002 39.6134L28.1304 39.5856C27.9386 40.0734 27.7533 40.6694 27.5915 41.3983C27.4244 42.115 27.3246 42.9249 27.2798 43.8334L21.303 43.9039L20.7363 44.9484L21.6514 45.7065L21.7895 45.7013L22.8361 49.5034L28.0457 49.4369C28.5031 51.0951 29.1923 52.6689 30.1125 54.1761C31.0389 55.6777 32.1181 57.0011 33.3682 58.1352C34.2739 58.9647 35.2637 59.6666 36.3258 60.2402C36.7225 60.4575 37.1319 60.6575 37.5546 60.8341C39.0973 61.5033 40.7591 61.8249 42.5395 61.8049C44.9495 61.7741 46.7815 61.3133 48.0174 60.4277C49.2533 59.542 50.1521 58.448 50.713 57.1577C51.2677 55.8729 51.5763 54.4742 51.6333 52.9553C51.6896 51.4483 51.741 50.0429 51.7862 48.763C51.8197 47.4765 51.9747 46.3998 52.2332 45.5318C52.4917 44.6638 53.0648 44.2188 53.9518 44.2146C54.2873 44.2132 54.6422 44.3086 55.0099 44.5065C55.2197 44.6247 55.4401 44.7734 55.6646 44.9582C56.2629 45.461 56.7212 46.2505 57.0154 47.3315C57.4584 48.917 57.2978 50.347 56.5516 51.6282C55.8054 52.9095 54.5169 53.7686 52.6866 54.1935L52.1261 55.2323L53.0987 55.6757L54.6693 61.3669L65.2858 61.2437L67.4947 62.2514L68.0614 61.2069L66.0849 54.0337L63.9088 54.0582C64.5337 52.3216 64.8326 50.6348 64.8229 49.0107L68.7494 48.9649L69.8372 49.9891L70.4039 48.9446L68.853 43.3442L63.7637 43.3987C63.2221 41.7483 62.5271 40.1683 61.6604 38.6697C60.8057 37.1716 59.7689 35.8443 58.5669 34.7066C57.6681 33.8595 56.6849 33.1399 55.6112 32.5597C55.2435 32.3619 54.8633 32.1753 54.4819 32.0127C52.9563 31.3623 51.2946 31.0407 49.4661 31.0643C47.0083 31.0928 45.14 31.5578 43.8613 32.4593C42.5887 33.3611 41.6714 34.4662 41.1219 35.7691C40.566 37.0777 40.2623 38.5006 40.2035 40.0554C40.1448 41.6102 40.0921 43.0396 40.046 44.3374C40 45.6352 39.8679 46.7371 39.6498 47.637C39.4319 48.5309 38.8762 48.9828 37.9831 48.9926C37.5635 48.9959 37.1726 48.9047 36.8169 48.7074C36.5542 48.5686 36.3124 48.371 36.0848 48.1261C35.5385 47.542 35.1434 46.8035 34.8882 45.9042C34.6959 45.1878 34.6477 44.4665 34.7491 43.7465C34.8568 43.0209 35.0745 42.3726 35.427 41.7849C35.7676 41.1966 36.2418 40.6928 36.8496 40.2734C37.042 40.1391 37.2517 40.0176 37.4725 39.9147L38.4018 40.5058L38.9687 39.4613L36.9662 32.203L23.8799 32.3542L23.3131 33.3986L24.3349 33.9403Z" fill="url(#paint6_linear_21_257)" />
	<path d="M35.7585 61.2854C36.1552 61.5027 36.5707 61.7029 36.9873 61.8793C38.53 62.5485 40.1918 62.8701 41.9722 62.8501C44.3822 62.8192 46.2142 62.3585 47.4501 61.4728C48.6861 60.5872 49.5848 59.4932 50.1458 58.2028C50.7007 56.9121 51.0093 55.5134 51.066 54.0004C51.1227 52.4875 51.1797 51.0883 51.2189 49.8081C51.2584 48.522 51.4074 47.4449 51.6659 46.577C51.9244 45.709 52.4976 45.264 53.3848 45.2538C53.7263 45.2527 54.0752 45.3478 54.4426 45.5517C54.6584 45.6701 54.8726 45.8185 55.0972 46.0033C55.6958 46.5002 56.1542 47.2897 56.4481 48.3766C56.8911 49.9622 56.7365 51.3924 55.9843 52.6734C55.2381 53.9547 53.9497 54.8137 52.1256 55.233L54.1023 62.4061L67.4942 62.252L65.5176 55.0789L63.3416 55.1034C63.9665 53.3668 64.2653 51.68 64.2556 50.0559L69.8427 49.9901L68.2917 44.3897L63.2025 44.4441C62.6608 42.7938 61.9718 41.214 61.0992 39.7151C60.2444 38.2171 59.2075 36.8898 58.0054 35.7521C57.1066 34.9049 56.1237 34.1854 55.0499 33.6052C54.6823 33.4073 54.3021 33.2208 53.921 33.0522C52.3953 32.4018 50.7334 32.0861 48.9052 32.1038C46.4474 32.1323 44.5791 32.5973 43.3007 33.4928C42.0277 34.4006 41.1108 35.4997 40.5609 36.8086C40.0054 38.1112 39.7012 39.5401 39.6424 41.0949C39.5837 42.6497 39.5314 44.0731 39.4851 45.3769C39.445 46.675 39.3068 47.7765 39.0886 48.6764C38.8711 49.5644 38.3213 50.0225 37.4221 50.0321C37.0026 50.0354 36.6117 49.9442 36.256 49.7469C35.9992 49.6084 35.7512 49.4105 35.5237 49.1656C34.9773 48.5814 34.5828 47.837 34.3333 46.944C34.1353 46.2213 34.0866 45.5059 34.188 44.786C34.2957 44.0604 34.5195 43.4124 34.866 42.8244C35.2066 42.2361 35.6868 41.7325 36.2887 41.3129C36.8848 40.887 37.5931 40.6164 38.4076 40.5008L36.4053 33.2425L23.3189 33.3936L25.3217 40.646L27.5514 40.6242C27.3599 41.106 27.1745 41.708 27.0127 42.4369C26.8456 43.1536 26.7456 43.9635 26.7008 44.8719L20.7242 44.9425L22.2631 50.5423L27.4729 50.4758C27.9362 52.1343 28.6194 53.7078 29.5455 55.2153C30.466 56.7166 31.5451 58.04 32.7952 59.1741C33.7129 60.0042 34.6967 60.7058 35.7585 61.2854Z" fill="url(#paint7_linear_21_257)" />
	<path d="M54.4426 45.5458C54.6584 45.6643 54.8726 45.8127 55.0972 45.9975C55.6957 46.4943 56.1542 47.2838 56.4481 48.3708C56.7686 49.5249 56.7692 50.6033 56.4567 51.5944C57.3579 55.1857 57.7661 58.8126 57.8306 62.3625L67.4883 62.2459L65.5116 55.0728L63.3355 55.0972C63.9604 53.3606 64.2593 51.6739 64.2495 50.0498L69.8366 49.9839L68.2857 44.3835L63.1965 44.4379C62.6548 42.7876 61.9658 41.2079 61.0931 39.709C60.2384 38.2109 59.2016 36.8837 57.9996 35.7459C57.1008 34.8988 56.1177 34.1792 55.0439 33.599C54.6762 33.4012 54.296 33.2146 53.9149 33.0461C52.3893 32.3956 50.7273 32.08 48.8991 32.0976C47.916 32.1091 47.0313 32.1912 46.239 32.3438C49.7396 36.8003 52.628 41.2804 54.4426 45.5458Z" fill="url(#paint8_linear_21_257)" style="mix-blend-mode:overlay" />
	<path d="M33.486 18.3056C34.6791 18.1668 35.9115 18.0838 37.1764 18.0683C44.4718 17.9849 51.7951 20.0058 58.2487 23.5055C67.9349 28.7584 75.6539 37.3352 78.3422 47.0838C82.5643 62.4199 72.8413 75.1568 56.3846 76.7114C55.7602 79.6522 55.0039 82.3529 54.2342 84.7174C54.6711 84.727 55.1083 84.7306 55.5577 84.7288C78.6913 84.4562 92.8373 67.558 87.1724 46.9802C83.7618 34.6258 73.9874 23.7548 61.7101 17.1039C53.5409 12.6748 44.2609 10.114 35.0172 10.2211C31.8159 10.2609 28.7903 10.6269 25.9546 11.2718C28.4279 13.4788 30.9716 15.839 33.486 18.3056Z" fill="url(#paint9_linear_21_257)" style="mix-blend-mode:overlay" />
	<defs>
		<linearGradient id="paint0_linear_21_257" x1="6.54295" y1="32.7593" x2="93.4001" y2="44.9299" gradientUnits="userSpaceOnUse">
			<stop offset="0.1616" stop-color="#CC7800" />
			<stop offset="0.2072" stop-color="#D07E02" />
			<stop offset="0.2662" stop-color="#DA8E08" />
			<stop offset="0.3325" stop-color="#EAA912" />
			<stop offset="0.3682" stop-color="#F5BA18" />
			<stop offset="0.4286" stop-color="#F1AA1A" />
			<stop offset="0.4743" stop-color="#EE9B1B" />
			<stop offset="0.5407" stop-color="#6B2B00" />
			<stop offset="0.6147" stop-color="#6D3001" />
			<stop offset="0.7067" stop-color="#FEC423" />
			<stop offset="1" stop-color="#8F4E00" />
		</linearGradient>
		<linearGradient id="paint1_linear_21_257" x1="89.6313" y1="61.8035" x2="9.08324" y2="18.1291" gradientUnits="userSpaceOnUse">
			<stop stop-color="#E0A300" />
			<stop offset="0.0833" stop-color="#FFC524" />
			<stop offset="0.1516" stop-color="#FFD759" />
			<stop offset="0.4069" stop-color="#FFF4A5" />
			<stop offset="0.4208" stop-color="#FEF09F" />
			<stop offset="0.4389" stop-color="#FCE68F" />
			<stop offset="0.4592" stop-color="#F9D574" />
			<stop offset="0.4813" stop-color="#F5BD4F" />
			<stop offset="0.5044" stop-color="#EF9E20" />
			<stop offset="0.518" stop-color="#EB8A00" />
			<stop offset="0.5625" stop-color="#AD4300" />
			<stop offset="0.6087" stop-color="#6E3500" />
			<stop offset="0.6515" stop-color="#E09D00" />
			<stop offset="0.6573" stop-color="#E7AA16" />
			<stop offset="0.6672" stop-color="#F2BE37" />
			<stop offset="0.6768" stop-color="#F9CC4E" />
			<stop offset="0.6857" stop-color="#FDD45C" />
			<stop offset="0.6934" stop-color="#FFD761" />
			<stop offset="0.7325" stop-color="#FFD75F" />
			<stop offset="0.7465" stop-color="#FFD558" />
			<stop offset="0.7566" stop-color="#FFD34D" />
			<stop offset="0.7646" stop-color="#FFCF3C" />
			<stop offset="0.7707" stop-color="#FFCB29" />
			<stop offset="0.7818" stop-color="#FBC525" />
			<stop offset="0.7968" stop-color="#F0B41A" />
			<stop offset="0.8139" stop-color="#DE9808" />
			<stop offset="0.8205" stop-color="#D68B00" />
			<stop offset="0.8228" stop-color="#DD9B16" />
			<stop offset="0.8268" stop-color="#E7B133" />
			<stop offset="0.8311" stop-color="#F0C34B" />
			<stop offset="0.8361" stop-color="#F6D15E" />
			<stop offset="0.8419" stop-color="#FBDB6B" />
			<stop offset="0.8493" stop-color="#FDE073" />
			<stop offset="0.8644" stop-color="#FEE275" />
			<stop offset="0.9367" stop-color="#FEE47E" />
			<stop offset="1" stop-color="#FED94B" />
		</linearGradient>
		<linearGradient id="paint2_linear_21_257" x1="1.6994" y1="40.1619" x2="90.0903" y2="52.5474" gradientUnits="userSpaceOnUse">
			<stop offset="0.1616" stop-color="#FFF8C7" />
			<stop offset="0.1986" stop-color="#FFF6C1" />
			<stop offset="0.2466" stop-color="#FEF0B1" />
			<stop offset="0.3007" stop-color="#FEE696" />
			<stop offset="0.3593" stop-color="#FDD871" />
			<stop offset="0.4207" stop-color="#FCC641" />
			<stop offset="0.469" stop-color="#FBB617" />
			<stop offset="0.541" stop-color="#A26009" />
			<stop offset="0.5826" stop-color="#6C2D00" />
			<stop offset="0.6342" stop-color="#6D3001" />
			<stop offset="0.6719" stop-color="#BA7D11" />
			<stop offset="0.7035" stop-color="#FDC120" />
			<stop offset="0.8149" stop-color="#DB9204" />
			<stop offset="0.8202" stop-color="#E09D12" />
			<stop offset="0.8332" stop-color="#EBB52F" />
			<stop offset="0.8469" stop-color="#F3C746" />
			<stop offset="0.8618" stop-color="#F9D456" />
			<stop offset="0.8784" stop-color="#FDDC60" />
			<stop offset="0.9005" stop-color="#FEDE63" />
			<stop offset="1" stop-color="#FBC543" />
		</linearGradient>
		<linearGradient id="paint3_linear_21_257" x1="9.72027" y1="43.6076" x2="79.7356" y2="53.4183" gradientUnits="userSpaceOnUse">
			<stop offset="0.1616" stop-color="#BA6D00" />
			<stop offset="0.2364" stop-color="#B46800" />
			<stop offset="0.3334" stop-color="#A45B00" />
			<stop offset="0.4422" stop-color="#894400" />
			<stop offset="0.5407" stop-color="#6B2B00" />
			<stop offset="0.6147" stop-color="#6D3001" />
			<stop offset="0.7067" stop-color="#FEBB00" />
			<stop offset="1" stop-color="#6B3B00" />
		</linearGradient>
		<radialGradient id="paint4_radial_21_257" cx="0" cy="0" r="1" gradientUnits="userSpaceOnUse" gradientTransform="translate(45.8951 46.3583) rotate(7.97645) scale(31.8137)">
			<stop stop-color="#FEDE6D" />
			<stop offset="1" stop-color="#EBA719" />
		</radialGradient>
		<linearGradient id="paint5_linear_21_257" x1="50.1093" y1="13.0852" x2="40.5449" y2="81.3429" gradientUnits="userSpaceOnUse">
			<stop stop-color="#FFDB66" />
			<stop offset="0.4069" stop-color="#FFEF7F" />
			<stop offset="0.4612" stop-color="#FFED79" />
			<stop offset="0.5317" stop-color="#FFE769" />
			<stop offset="0.6112" stop-color="#FFDD4E" />
			<stop offset="0.6965" stop-color="#FFD029" />
			<stop offset="0.7707" stop-color="#FFC203" />
			<stop offset="0.8644" stop-color="#FEDA4F" />
			<stop offset="0.9367" stop-color="#FEDC58" />
		</linearGradient>
		<linearGradient id="paint6_linear_21_257" x1="30.2476" y1="75.8217" x2="61.7287" y2="17.7615" gradientUnits="userSpaceOnUse">
			<stop offset="0.1616" stop-color="#AD6600" />
			<stop offset="0.2452" stop-color="#A76100" />
			<stop offset="0.3535" stop-color="#975200" />
			<stop offset="0.4751" stop-color="#7C3B00" />
			<stop offset="0.5407" stop-color="#6B2B00" />
			<stop offset="0.6147" stop-color="#6D3001" />
			<stop offset="0.7067" stop-color="#8A4700" />
			<stop offset="1" stop-color="#6B3B00" />
		</linearGradient>
		<linearGradient id="paint7_linear_21_257" x1="29.6801" y1="76.8683" x2="61.1641" y2="18.8029" gradientUnits="userSpaceOnUse">
			<stop stop-color="#FFE48C" />
			<stop offset="0.4069" stop-color="#FFF4A5" />
			<stop offset="0.4612" stop-color="#FFF29F" />
			<stop offset="0.5317" stop-color="#FFED8F" />
			<stop offset="0.6112" stop-color="#FFE474" />
			<stop offset="0.6965" stop-color="#FFD84F" />
			<stop offset="0.7707" stop-color="#FFCB29" />
			<stop offset="0.8644" stop-color="#FEE275" />
			<stop offset="0.9367" stop-color="#FEE47E" />
		</linearGradient>
		<linearGradient id="paint8_linear_21_257" x1="65.5097" y1="45.302" x2="53.4582" y2="48.0742" gradientUnits="userSpaceOnUse">
			<stop stop-color="#919191" />
			<stop offset="0.9972" />
		</linearGradient>
		<linearGradient id="paint9_linear_21_257" x1="78.1072" y1="37.2939" x2="51.9661" y2="45.4557" gradientUnits="userSpaceOnUse">
			<stop stop-color="#919191" />
			<stop offset="0.9972" />
		</linearGradient>
	</defs>
</svg>
