<svg width="54" height="50" viewBox="0 0 54 50" fill="none" xmlns="http://www.w3.org/2000/svg">
	<path d="M19.0965 39.1265C23.6969 41.6201 28.9199 43.0671 34.1256 43.0045C47.1514 42.852 55.1172 33.336 51.9271 21.7506C50.0106 14.7918 44.5052 8.6719 37.5913 4.92583C32.9874 2.43211 27.7643 0.988438 22.562 1.0512C9.53956 1.20386 1.56686 10.7195 4.76041 22.3051C6.67719 29.2572 12.1827 35.3771 19.0965 39.1265Z" fill="url(#paint0_linear_21_246)" />
	<path d="M5.22772 10.1429L3.19683 13.9064L3.69326 14.1755C3.07826 16.8603 3.13557 19.8297 3.99779 22.9476C5.94906 30.0271 11.5513 36.2537 18.5841 40.0702C23.2673 42.6086 28.5842 44.0773 33.8816 44.0158C40.0256 43.9451 45.0576 41.8249 48.3732 38.4L48.876 38.6763L50.8351 35.0622L50.8357 35.0486C52.7754 31.4811 53.2972 27.1028 51.9973 22.3866C50.0427 15.3069 44.4405 9.08035 37.4077 5.26385C32.7245 2.72544 27.4075 1.25678 22.1066 1.32146C14.2288 1.40853 8.16556 4.87113 5.22772 10.1429Z" fill="url(#paint1_linear_21_246)" />
	<path d="M16.6201 43.6906C21.3033 46.229 26.6203 47.6977 31.9176 47.6362C45.1747 47.4815 53.2848 37.7959 50.0368 26.0072C48.0821 18.9275 42.4801 12.6975 35.4471 8.88443C30.764 6.34603 25.447 4.87394 20.1461 4.93863C6.89582 5.09365 -1.21767 14.7791 2.03381 26.568C3.98508 33.6475 9.58733 39.8741 16.6201 43.6906Z" fill="url(#paint2_linear_21_246)" />
	<path d="M17.9149 41.2937C21.625 43.305 25.8358 44.4676 30.0315 44.4198C40.5312 44.2956 46.9516 36.6232 44.3812 27.284C42.8364 21.679 38.3971 16.7433 32.8237 13.7226C29.1136 11.7114 24.9029 10.5487 20.7072 10.5966C10.2109 10.721 3.78369 18.393 6.36102 27.7291C7.90217 33.3408 12.3414 38.273 17.9149 41.2937Z" fill="url(#paint3_linear_21_246)" />
	<path d="M18.6814 39.8811C22.3386 41.8626 26.4955 43.0124 30.6336 42.9617C40.9904 42.8406 47.324 35.2761 44.7847 26.0642C43.2599 20.5349 38.8819 15.6668 33.388 12.6874C29.7309 10.7026 25.5739 9.55617 21.4358 9.60687C11.0824 9.72811 4.74541 17.2924 7.28469 26.5044C8.80935 32.037 13.1841 36.9015 18.6814 39.8811Z" fill="url(#paint4_radial_21_246)" />
	<path d="M33.0402 13.3228C38.5342 16.3022 42.9121 21.1702 44.4369 26.6995C46.9728 35.9113 40.6392 43.4758 30.2858 43.597C26.1446 43.6442 21.9908 42.4979 18.3304 40.5129C12.8365 37.5335 8.45838 32.6688 6.93695 27.1397C4.3975 17.9311 10.7344 10.3668 21.0879 10.2422C25.2292 10.1951 29.383 11.3413 33.0402 13.3228ZM16.3706 44.144C21.004 46.6562 26.2709 48.1088 31.5103 48.0512C44.6314 47.8966 52.6584 38.3123 49.4453 26.6408C47.5107 19.6369 41.9633 13.4708 35.0032 9.69524C30.3697 7.18307 25.1065 5.72723 19.8634 5.79137C6.74562 5.94614 -1.28474 15.5303 1.93531 27.1988C3.86636 34.2059 9.41034 40.3718 16.3706 44.144Z" fill="url(#paint5_linear_21_246)" />
	<path d="M13.804 19.2411L14.6919 22.4588L15.9569 22.4431C15.8481 22.7198 15.7428 23.0612 15.6512 23.4713C15.5564 23.8778 15.4996 24.3405 15.4743 24.8524L12.081 24.8922L11.763 25.4848L12.2786 25.9146L12.3603 25.9119L12.954 28.0684L15.9088 28.0307C16.1682 28.9712 16.5592 29.8638 17.0811 30.7187C17.6066 31.5704 18.2185 32.321 18.9276 32.9642C19.4413 33.4347 19.9994 33.8327 20.6052 34.1582C20.8302 34.2815 21.0624 34.3948 21.2988 34.4949C22.1772 34.8746 23.1161 35.0603 24.126 35.0455C25.4964 35.0282 26.5322 34.7667 27.2366 34.2645C27.9344 33.7586 28.444 33.1415 28.7621 32.4096C29.0769 31.6775 29.2553 30.8844 29.2841 30.0261C29.3194 29.1715 29.3484 28.3777 29.3742 27.6484C29.3932 26.9187 29.4811 26.308 29.6277 25.8157C29.7744 25.3234 30.0994 25.071 30.5993 25.0651C30.793 25.0645 30.9908 25.1184 31.2026 25.2342C31.3216 25.3012 31.4466 25.3855 31.5739 25.4904C31.9134 25.7722 32.1732 26.2234 32.3401 26.8365C32.5879 27.7356 32.5004 28.5469 32.0771 29.2736C31.6539 30.0003 30.923 30.4875 29.8851 30.7252L29.5636 31.3176L30.1187 31.5692L31.0096 34.7939L37.0311 34.724L38.2875 35.2957L38.609 34.7033L37.4844 30.6346L36.2537 30.6452C36.6082 29.6602 36.7777 28.7035 36.7721 27.7823L38.9993 27.7563L39.6129 28.3371L39.9344 27.7447L39.058 24.5683L36.1714 24.5992C35.8642 23.6631 35.4701 22.767 34.9785 21.917C34.4937 21.0673 33.9056 20.3145 33.2204 19.669C32.714 19.1887 32.1531 18.7804 31.5441 18.4513C31.3355 18.3391 31.1233 18.2335 30.9037 18.1377C30.0418 17.7689 29.0992 17.5865 28.0621 17.5999C26.6681 17.616 25.6087 17.8764 24.8834 18.3877C24.1614 18.9026 23.6413 19.526 23.3294 20.2684C23.0143 21.0073 22.8418 21.8177 22.8085 22.6996C22.7751 23.5815 22.7455 24.3887 22.7192 25.1282C22.6931 25.8644 22.6181 26.4893 22.4911 26.9962C22.3709 27.5034 22.0557 27.7631 21.5493 27.7653C21.3112 27.7705 21.0862 27.7152 20.8877 27.6069C20.7387 27.5282 20.6014 27.4161 20.4723 27.2772C20.1591 26.9457 19.9353 26.5235 19.7938 26.017C19.6849 25.6072 19.6539 25.2013 19.7148 24.7931C19.7725 24.3814 19.8994 24.0139 20.0958 23.6837C20.2923 23.3502 20.5613 23.0645 20.9027 22.8264C21.0119 22.7469 21.1341 22.6815 21.2593 22.6231L21.7866 22.955L22.1079 22.366L20.9688 18.249L13.5498 18.3349L13.2283 18.9273L13.804 19.2411Z" fill="url(#paint6_linear_21_246)" />
	<path d="M20.2839 34.7536C20.5089 34.8768 20.7411 34.9902 20.9809 35.0904C21.8559 35.47 22.7983 35.6524 23.8081 35.6411C25.1751 35.6236 26.2143 35.3622 26.9153 34.8599C27.6131 34.354 28.1227 33.7335 28.4441 33.0052C28.7589 32.2731 28.934 31.4798 28.9662 30.6216C28.9981 29.7669 29.0271 28.9731 29.0529 28.2438C29.0719 27.5141 29.1598 26.9034 29.3064 26.4111C29.4531 25.9188 29.7781 25.6664 30.2779 25.6605C30.4717 25.6598 30.6695 25.7138 30.8814 25.8262C31.0004 25.8932 31.1254 25.9775 31.2528 26.0824C31.5923 26.3642 31.8522 26.812 32.0189 27.4284C32.2668 28.3276 32.1792 29.1388 31.756 29.8655C31.3327 30.5923 30.6019 31.0795 29.5639 31.3172L30.6884 35.3859L38.2842 35.2985L37.1631 31.2299L35.929 31.2404C36.2834 30.2554 36.453 29.2987 36.4475 28.3776L39.613 28.3401L38.7367 25.1637L35.8501 25.1946C35.5429 24.2585 35.1488 23.3624 34.6574 22.509C34.1726 21.6593 33.5844 20.9065 32.9027 20.2612C32.3928 19.7807 31.8353 19.3726 31.2227 19.0467C31.0142 18.9345 30.8019 18.8288 30.5824 18.7331C29.7205 18.3643 28.7779 18.1819 27.7408 18.1953C26.3467 18.2114 25.2872 18.4752 24.5619 18.9865C23.8399 19.5014 23.3198 20.1248 23.0081 20.8638C22.6928 21.606 22.5203 22.4165 22.4871 23.295C22.454 24.1735 22.4242 24.9841 22.3979 25.7236C22.3718 26.4597 22.2968 27.0847 22.173 27.5951C22.0495 28.1021 21.7342 28.3619 21.2278 28.3641C20.9897 28.3693 20.7681 28.3142 20.5664 28.2023C20.4173 28.1236 20.2801 28.0115 20.1509 27.8759C19.8378 27.5411 19.6172 27.1224 19.4724 26.6123C19.3634 26.206 19.3325 25.7967 19.3935 25.3885C19.4511 24.9768 19.578 24.6093 19.7744 24.2791C19.971 23.9456 20.24 23.6598 20.5813 23.4218C20.9195 23.1803 21.3212 23.0267 21.7868 22.958L20.6508 18.8445L13.2284 18.9303L14.3643 23.0437L15.6292 23.028C15.5204 23.3046 15.4152 23.6461 15.3236 24.0561C15.2288 24.4626 15.172 24.9254 15.1468 25.4373L11.7568 25.4773L12.6298 28.6535L15.5844 28.6191C15.8438 29.5596 16.2348 30.4523 16.7567 31.3072C17.2822 32.1588 17.8944 32.906 18.6033 33.5527C19.1236 34.0269 19.6817 34.4249 20.2839 34.7536Z" fill="url(#paint7_linear_21_246)" />
	<path d="M30.8805 25.8227C30.9995 25.8897 31.1245 25.9741 31.2519 26.0789C31.5914 26.3607 31.8513 26.8085 32.018 27.425C32.1998 28.0796 32.2002 28.6913 32.023 29.2534C32.5308 31.2902 32.7656 33.3475 32.8022 35.361L38.2797 35.2982L37.1586 31.2297L35.9246 31.2401C36.279 30.2552 36.4485 29.2985 36.443 28.3773L39.6085 28.3398L38.7322 25.1634L35.8456 25.1943C35.5384 24.2583 35.1443 23.3621 34.6529 22.5087C34.1681 21.659 33.5799 20.9062 32.8982 20.2609C32.3883 19.7804 31.8308 19.3723 31.2182 19.0464C31.0097 18.9342 30.7974 18.8286 30.5779 18.7328C29.716 18.364 28.7735 18.1816 27.7364 18.195C27.1788 18.2015 26.6733 18.2513 26.2275 18.3346C28.2128 20.8657 29.8511 23.4068 30.8805 25.8227Z" fill="url(#paint8_linear_21_246)" style="mix-blend-mode:overlay" />
	<path d="M18.9984 10.377C19.6751 10.2983 20.374 10.2512 21.0914 10.2424C25.2293 10.1951 29.3831 11.3413 33.0437 13.323C38.5377 16.3024 42.9156 21.1704 44.4404 26.6997C46.8351 35.3982 41.317 42.6189 31.9828 43.504C31.632 45.1722 31.2028 46.7074 30.7631 48.045C31.0142 48.0506 31.2622 48.0526 31.5138 48.0514C44.6349 47.8968 52.6619 38.3125 49.4488 26.641C47.5142 19.6371 41.9668 13.471 35.0067 9.69543C30.3732 7.18326 25.11 5.72742 19.8669 5.79156C18.0477 5.81395 16.3316 6.02153 14.7266 6.3875C16.1229 7.63555 17.5654 8.97763 18.9984 10.377Z" fill="url(#paint9_linear_21_246)" style="mix-blend-mode:overlay" />
	<defs>
		<linearGradient id="paint0_linear_21_246" x1="3.71501" y1="18.5733" x2="52.9763" y2="25.4758" gradientUnits="userSpaceOnUse">
			<stop offset="0.1616" stop-color="#CC7800" />
			<stop offset="0.2072" stop-color="#D07E02" />
			<stop offset="0.2662" stop-color="#DA8E08" />
			<stop offset="0.3325" stop-color="#EAA912" />
			<stop offset="0.3682" stop-color="#F5BA18" />
			<stop offset="0.4286" stop-color="#F1AA1A" />
			<stop offset="0.4743" stop-color="#EE9B1B" />
			<stop offset="0.5407" stop-color="#6B2B00" />
			<stop offset="0.6147" stop-color="#6D3001" />
			<stop offset="0.7067" stop-color="#FEC423" />
			<stop offset="1" stop-color="#8F4E00" />
		</linearGradient>
		<linearGradient id="paint1_linear_21_246" x1="50.8389" y1="35.0477" x2="5.15312" y2="10.2762" gradientUnits="userSpaceOnUse">
			<stop stop-color="#E0A300" />
			<stop offset="0.0833" stop-color="#FFC524" />
			<stop offset="0.1516" stop-color="#FFD759" />
			<stop offset="0.4069" stop-color="#FFF4A5" />
			<stop offset="0.4208" stop-color="#FEF09F" />
			<stop offset="0.4389" stop-color="#FCE68F" />
			<stop offset="0.4592" stop-color="#F9D574" />
			<stop offset="0.4813" stop-color="#F5BD4F" />
			<stop offset="0.5044" stop-color="#EF9E20" />
			<stop offset="0.518" stop-color="#EB8A00" />
			<stop offset="0.5625" stop-color="#AD4300" />
			<stop offset="0.6087" stop-color="#6E3500" />
			<stop offset="0.6515" stop-color="#E09D00" />
			<stop offset="0.6573" stop-color="#E7AA16" />
			<stop offset="0.6672" stop-color="#F2BE37" />
			<stop offset="0.6768" stop-color="#F9CC4E" />
			<stop offset="0.6857" stop-color="#FDD45C" />
			<stop offset="0.6934" stop-color="#FFD761" />
			<stop offset="0.7325" stop-color="#FFD75F" />
			<stop offset="0.7465" stop-color="#FFD558" />
			<stop offset="0.7566" stop-color="#FFD34D" />
			<stop offset="0.7646" stop-color="#FFCF3C" />
			<stop offset="0.7707" stop-color="#FFCB29" />
			<stop offset="0.7818" stop-color="#FBC525" />
			<stop offset="0.7968" stop-color="#F0B41A" />
			<stop offset="0.8139" stop-color="#DE9808" />
			<stop offset="0.8205" stop-color="#D68B00" />
			<stop offset="0.8228" stop-color="#DD9B16" />
			<stop offset="0.8268" stop-color="#E7B133" />
			<stop offset="0.8311" stop-color="#F0C34B" />
			<stop offset="0.8361" stop-color="#F6D15E" />
			<stop offset="0.8419" stop-color="#FBDB6B" />
			<stop offset="0.8493" stop-color="#FDE073" />
			<stop offset="0.8644" stop-color="#FEE275" />
			<stop offset="0.9367" stop-color="#FEE47E" />
			<stop offset="1" stop-color="#FED94B" />
		</linearGradient>
		<linearGradient id="paint2_linear_21_246" x1="0.965959" y1="22.7735" x2="51.1002" y2="29.7984" gradientUnits="userSpaceOnUse">
			<stop offset="0.1616" stop-color="#FFF8C7" />
			<stop offset="0.1986" stop-color="#FFF6C1" />
			<stop offset="0.2466" stop-color="#FEF0B1" />
			<stop offset="0.3007" stop-color="#FEE696" />
			<stop offset="0.3593" stop-color="#FDD871" />
			<stop offset="0.4207" stop-color="#FCC641" />
			<stop offset="0.469" stop-color="#FBB617" />
			<stop offset="0.541" stop-color="#A26009" />
			<stop offset="0.5826" stop-color="#6C2D00" />
			<stop offset="0.6342" stop-color="#6D3001" />
			<stop offset="0.6719" stop-color="#BA7D11" />
			<stop offset="0.7035" stop-color="#FDC120" />
			<stop offset="0.8149" stop-color="#DB9204" />
			<stop offset="0.8202" stop-color="#E09D12" />
			<stop offset="0.8332" stop-color="#EBB52F" />
			<stop offset="0.8469" stop-color="#F3C746" />
			<stop offset="0.8618" stop-color="#F9D456" />
			<stop offset="0.8784" stop-color="#FDDC60" />
			<stop offset="0.9005" stop-color="#FEDE63" />
			<stop offset="1" stop-color="#FBC543" />
		</linearGradient>
		<linearGradient id="paint3_linear_21_246" x1="5.51278" y1="24.7255" x2="45.2252" y2="30.29" gradientUnits="userSpaceOnUse">
			<stop offset="0.1616" stop-color="#BA6D00" />
			<stop offset="0.2364" stop-color="#B46800" />
			<stop offset="0.3334" stop-color="#A45B00" />
			<stop offset="0.4422" stop-color="#894400" />
			<stop offset="0.5407" stop-color="#6B2B00" />
			<stop offset="0.6147" stop-color="#6D3001" />
			<stop offset="0.7067" stop-color="#FEBB00" />
			<stop offset="1" stop-color="#6B3B00" />
		</linearGradient>
		<radialGradient id="paint4_radial_21_246" cx="0" cy="0" r="1" gradientUnits="userSpaceOnUse" gradientTransform="translate(26.0359 26.285) rotate(7.97646) scale(18.0424)">
			<stop stop-color="#FEDE6D" />
			<stop offset="1" stop-color="#EBA719" />
		</radialGradient>
		<linearGradient id="paint5_linear_21_246" x1="28.4254" y1="7.41451" x2="23.0005" y2="46.13" gradientUnits="userSpaceOnUse">
			<stop stop-color="#FFDB66" />
			<stop offset="0.4069" stop-color="#FFEF7F" />
			<stop offset="0.4612" stop-color="#FFED79" />
			<stop offset="0.5317" stop-color="#FFE769" />
			<stop offset="0.6112" stop-color="#FFDD4E" />
			<stop offset="0.6965" stop-color="#FFD029" />
			<stop offset="0.7707" stop-color="#FFC203" />
			<stop offset="0.8644" stop-color="#FEDA4F" />
			<stop offset="0.9367" stop-color="#FEDC58" />
		</linearGradient>
		<linearGradient id="paint6_linear_21_246" x1="17.158" y1="42.9974" x2="35.0127" y2="10.0683" gradientUnits="userSpaceOnUse">
			<stop offset="0.1616" stop-color="#AD6600" />
			<stop offset="0.2452" stop-color="#A76100" />
			<stop offset="0.3535" stop-color="#975200" />
			<stop offset="0.4751" stop-color="#7C3B00" />
			<stop offset="0.5407" stop-color="#6B2B00" />
			<stop offset="0.6147" stop-color="#6D3001" />
			<stop offset="0.7067" stop-color="#8A4700" />
			<stop offset="1" stop-color="#6B3B00" />
		</linearGradient>
		<linearGradient id="paint7_linear_21_246" x1="16.8376" y1="43.5885" x2="34.6923" y2="10.6593" gradientUnits="userSpaceOnUse">
			<stop stop-color="#FFE48C" />
			<stop offset="0.4069" stop-color="#FFF4A5" />
			<stop offset="0.4612" stop-color="#FFF29F" />
			<stop offset="0.5317" stop-color="#FFED8F" />
			<stop offset="0.6112" stop-color="#FFE474" />
			<stop offset="0.6965" stop-color="#FFD84F" />
			<stop offset="0.7707" stop-color="#FFCB29" />
			<stop offset="0.8644" stop-color="#FEE275" />
			<stop offset="0.9367" stop-color="#FEE47E" />
		</linearGradient>
		<linearGradient id="paint8_linear_21_246" x1="37.1536" y1="25.687" x2="30.3198" y2="27.2596" gradientUnits="userSpaceOnUse">
			<stop stop-color="#919191" />
			<stop offset="0.9972" />
		</linearGradient>
		<linearGradient id="paint9_linear_21_246" x1="44.3065" y1="21.1478" x2="29.4801" y2="25.7774" gradientUnits="userSpaceOnUse">
			<stop stop-color="#919191" />
			<stop offset="0.9972" />
		</linearGradient>
	</defs>
</svg>
