<svg width="57" height="50" viewBox="0 0 57 50" fill="none" xmlns="http://www.w3.org/2000/svg">
	<path d="M22.9249 31.2129C35.2501 41.3359 48.8408 45.1633 53.2803 39.7618C57.7197 34.3602 51.3237 21.7705 38.9985 11.6476C26.6734 1.52123 13.0793 -2.30636 8.63967 3.09856C4.20023 8.50008 10.5964 21.0864 22.9249 31.2129Z" fill="url(#paint0_linear_21_421)" />
	<path d="M6.30495 11.4379C7.80733 17.6287 13.4889 25.6228 21.8657 32.5028C30.2393 39.3793 39.1887 43.4025 45.5537 43.6723L48.6267 46.1992L52.9 40.9968C52.9144 40.9805 52.9288 40.9642 52.9434 40.9446C52.9613 40.9251 52.9725 40.9052 52.9869 40.889L53.0375 40.8269C57.3657 35.2704 50.8694 22.5771 38.4201 12.3529C25.9739 2.13226 12.2682 -1.77561 7.64957 3.53891L7.64633 3.53536L3.22861 8.91078L6.30495 11.4379Z" fill="url(#paint1_linear_21_421)" />
	<path d="M17.7577 37.5093C30.2919 47.8057 44.1105 51.6953 48.6258 46.2024C53.1379 40.7059 46.6333 27.907 34.1025 17.6108C21.565 7.31423 7.74306 3.42102 3.22758 8.91734C-1.28774 14.4103 5.21696 27.2092 17.7577 37.5093Z" fill="url(#paint2_linear_21_421)" />
	<path d="M5.92966 12.5813C9.6209 8.08757 21.2456 11.5393 31.8987 20.2885C42.5519 29.0376 48.1934 39.7721 44.5057 44.2627C40.818 48.7532 29.1897 45.3046 18.5366 36.5555C7.88687 27.8065 2.2386 17.0717 5.92966 12.5813Z" fill="url(#paint3_linear_21_421)" />
	<path d="M8.12278 13.3148C11.5214 9.1736 22.1665 12.2984 31.8988 20.2885C41.6276 28.2818 46.7596 38.1145 43.3577 42.2555C39.9557 46.3965 29.3139 43.2719 19.5816 35.2817C9.85304 27.285 4.72435 17.4526 8.12278 13.3148Z" fill="url(#paint4_radial_21_421)" />
	<path d="M8.12278 13.3148C11.5214 9.1736 22.1665 12.2984 31.8988 20.2885C41.6276 28.2818 46.7596 38.1145 43.3577 42.2555C39.9557 46.3965 29.3139 43.2719 19.5816 35.2817C9.85304 27.285 4.72435 17.4526 8.12278 13.3148Z" fill="url(#paint5_radial_21_421)" style="mix-blend-mode:darken" />
	<path d="M31.6963 20.5343C41.4252 28.5242 46.4705 38.4613 42.974 42.7268C39.4672 46.9952 28.7423 43.9718 19.0134 35.9819C9.2845 27.9919 4.23598 18.0513 7.73584 13.7859C11.2357 9.52062 21.9676 12.541 31.6963 20.5343ZM17.3214 38.0426C29.6433 48.1654 43.2373 51.993 47.6767 46.5915C52.1162 41.1899 45.7203 28.5968 33.3949 18.4773C21.0665 8.35076 7.47246 4.52316 3.03641 9.92485C-1.40659 15.3296 4.98962 27.9159 17.3214 38.0426Z" fill="url(#paint6_linear_21_421)" />
	<path d="M19.5057 31.9376L22.8596 34.6959L23.8576 33.4776C24.8505 34.2912 25.8448 35.0063 26.8437 35.6299C27.846 36.2536 28.7801 36.7414 29.6499 37.0902C30.5162 37.4388 31.2821 37.6193 31.9505 37.6387C32.619 37.658 33.125 37.4587 33.4649 37.0439C33.9311 36.4791 34.0424 35.8083 33.8021 35.0319C33.5617 34.2554 33.1461 33.45 32.559 32.6088C31.965 31.7674 31.2627 30.9171 30.4518 30.065C29.6409 29.2128 28.8915 28.4249 28.1998 27.7043C27.5116 26.9839 26.9514 26.3514 26.5296 25.8107C26.1043 25.2698 25.9802 24.8932 26.1502 24.6842C26.2515 24.56 26.5026 24.5656 26.8932 24.7072C27.2872 24.849 27.8075 25.1873 28.4609 25.719C29.4046 26.4962 30.1521 27.3249 30.7067 28.2052C31.2546 29.0851 31.4647 29.8533 31.3374 30.5063L35.6319 34.0347L38.2023 30.9061L33.9078 27.3776L33.4921 27.8838C32.6632 26.7759 31.8086 25.7755 30.9218 24.8788L31.9956 23.5725L28.6381 20.8174L27.6586 22.0061C26.6513 21.2088 25.6569 20.4937 24.6689 19.857C23.6808 19.2204 22.754 18.7193 21.8982 18.3645C21.0358 18.0059 20.2805 17.8191 19.6189 17.7967C18.9604 17.7812 18.4577 17.984 18.1071 18.4085C17.6336 18.9832 17.5185 19.664 17.7547 20.4538C17.991 21.2436 18.4128 22.063 19.0164 22.9152C19.6134 23.7636 20.332 24.6248 21.1656 25.4984C21.9993 26.3721 22.7616 27.1743 23.463 27.9056C24.1641 28.6402 24.7375 29.2801 25.1795 29.8253C25.6248 30.3739 25.7625 30.7511 25.5891 30.96C25.4516 31.13 25.1736 31.1162 24.7418 30.9148C24.3201 30.7139 23.8365 30.391 23.2976 29.9499C22.8665 29.5956 22.4642 29.2087 22.0943 28.7861C21.721 28.3633 21.4117 27.9505 21.1599 27.5439C20.9114 27.1408 20.7299 26.7547 20.619 26.3856C20.5083 26.0131 20.4998 25.7035 20.5938 25.4498L16.2503 21.8816L13.741 24.9418L18.0845 28.5101L18.5112 27.9875C18.737 28.301 19.0312 28.6758 19.3869 29.1113C19.7459 29.5504 20.171 30.0233 20.6556 30.5332L19.5057 31.9376Z" fill="url(#paint7_linear_21_421)" />
	<path d="M19.1031 32.4282L22.4571 35.1831L23.4549 33.9682C24.4478 34.7817 25.4421 35.4968 26.441 36.1204C27.4432 36.7442 28.3809 37.2322 29.2472 37.5808C30.1135 37.9293 30.8794 38.1098 31.5479 38.1292C32.2163 38.1486 32.7224 37.9493 33.0622 37.5345C33.5285 36.9696 33.6397 36.2989 33.3993 35.5224C33.1624 34.7462 32.7434 33.9405 32.1562 33.0994C31.5623 32.2579 30.8635 31.4079 30.0492 30.5555C29.2383 29.7034 28.4888 28.9154 27.7972 28.1949C27.1089 27.4745 26.5488 26.842 26.1269 26.3012C25.7016 25.7603 25.5775 25.3838 25.7474 25.1781C25.8486 25.054 26.0998 25.0596 26.4904 25.2012C26.8844 25.3429 27.4046 25.6812 28.058 26.213C29.0017 26.9902 29.7492 27.8188 30.3039 28.6991C30.8518 29.5791 31.0619 30.3473 30.9345 31.0002L35.229 34.5287L37.7995 31.4001L33.505 27.8716L33.0892 28.3778C32.2604 27.2699 31.4058 26.2694 30.5191 25.3694L31.5926 24.0664L28.2353 21.3114L27.2591 22.5002C26.2484 21.7027 25.2541 20.9876 24.266 20.351C23.278 19.7144 22.3512 19.2133 21.4954 18.8584C20.633 18.4998 19.8776 18.3131 19.2161 18.2906C18.561 18.2753 18.0549 18.478 17.7043 18.9025C17.2342 19.4773 17.1156 20.1579 17.3519 20.9478C17.5882 21.7376 18.01 22.557 18.6136 23.4091C19.2106 24.2575 19.9292 25.1187 20.7628 25.9924C21.5964 26.8661 22.3622 27.6685 23.0601 28.3995C23.7613 29.1341 24.3347 29.7741 24.7767 30.3192C25.222 30.8679 25.3597 31.2451 25.1897 31.4542C25.0489 31.6205 24.7708 31.6102 24.3424 31.409C23.9173 31.2079 23.4336 30.885 22.8981 30.444C22.467 30.0897 22.0648 29.7029 21.6916 29.2767C21.3183 28.8539 21.0091 28.441 20.7571 28.0378C20.5119 27.6349 20.327 27.2486 20.2195 26.8797C20.1054 26.5071 20.0969 26.1974 20.1943 25.944L15.8474 22.3755L13.3381 25.4358L17.6816 29.0041L18.1118 28.4816C18.3342 28.795 18.6283 29.1697 18.984 29.6052C19.3429 30.0443 19.7682 30.5172 20.2528 31.0271L19.1031 32.4282Z" fill="url(#paint8_linear_21_421)" />
	<defs>
		<linearGradient id="paint0_linear_21_421" x1="5.6831" y1="17.8858" x2="56.2375" y2="24.9695" gradientUnits="userSpaceOnUse">
			<stop offset="0.1616" stop-color="#FFF8C7" />
			<stop offset="0.1986" stop-color="#FFF6C1" />
			<stop offset="0.2466" stop-color="#FEF0B1" />
			<stop offset="0.3007" stop-color="#FEE696" />
			<stop offset="0.3593" stop-color="#FDD871" />
			<stop offset="0.4207" stop-color="#FCC641" />
			<stop offset="0.469" stop-color="#FBB617" />
			<stop offset="0.526" stop-color="#A26009" />
			<stop offset="0.5588" stop-color="#6C2D00" />
			<stop offset="0.6146" stop-color="#6D3001" />
			<stop offset="0.6407" stop-color="#BA7D11" />
			<stop offset="0.6625" stop-color="#FDC120" />
			<stop offset="0.8107" stop-color="#DB9204" />
			<stop offset="0.8162" stop-color="#E09D12" />
			<stop offset="0.8298" stop-color="#EBB52F" />
			<stop offset="0.8443" stop-color="#F3C746" />
			<stop offset="0.8598" stop-color="#F9D456" />
			<stop offset="0.8773" stop-color="#FDDC60" />
			<stop offset="0.9005" stop-color="#FEDE63" />
			<stop offset="1" stop-color="#FBC543" />
		</linearGradient>
		<linearGradient id="paint1_linear_21_421" x1="52.8378" y1="41.0711" x2="7.44129" y2="3.782" gradientUnits="userSpaceOnUse">
			<stop stop-color="#E0A300" />
			<stop offset="0.0833" stop-color="#FFC524" />
			<stop offset="0.1516" stop-color="#FFD759" />
			<stop offset="0.4069" stop-color="#FFF4A5" />
			<stop offset="0.4208" stop-color="#FEF09F" />
			<stop offset="0.4389" stop-color="#FCE68F" />
			<stop offset="0.4592" stop-color="#F9D574" />
			<stop offset="0.4813" stop-color="#F5BD4F" />
			<stop offset="0.5044" stop-color="#EF9E20" />
			<stop offset="0.518" stop-color="#EB8A00" />
			<stop offset="0.5625" stop-color="#AD4300" />
			<stop offset="0.6087" stop-color="#6E3500" />
			<stop offset="0.6515" stop-color="#E09D00" />
			<stop offset="0.6573" stop-color="#E7AA16" />
			<stop offset="0.6672" stop-color="#F2BE37" />
			<stop offset="0.6768" stop-color="#F9CC4E" />
			<stop offset="0.6857" stop-color="#FDD45C" />
			<stop offset="0.6934" stop-color="#FFD761" />
			<stop offset="0.7325" stop-color="#FFD75F" />
			<stop offset="0.7465" stop-color="#FFD558" />
			<stop offset="0.7566" stop-color="#FFD34D" />
			<stop offset="0.7646" stop-color="#FFCF3C" />
			<stop offset="0.7707" stop-color="#FFCB29" />
			<stop offset="0.7818" stop-color="#FBC525" />
			<stop offset="0.7968" stop-color="#F0B41A" />
			<stop offset="0.8139" stop-color="#DE9808" />
			<stop offset="0.8205" stop-color="#D68B00" />
			<stop offset="0.8228" stop-color="#DD9B16" />
			<stop offset="0.8268" stop-color="#E7B133" />
			<stop offset="0.8311" stop-color="#F0C34B" />
			<stop offset="0.8361" stop-color="#F6D15E" />
			<stop offset="0.8419" stop-color="#FBDB6B" />
			<stop offset="0.8493" stop-color="#FDE073" />
			<stop offset="0.8644" stop-color="#FEE275" />
			<stop offset="0.9367" stop-color="#FEE47E" />
			<stop offset="1" stop-color="#FED94B" />
		</linearGradient>
		<linearGradient id="paint2_linear_21_421" x1="0.219946" y1="23.9548" x2="51.6312" y2="31.1586" gradientUnits="userSpaceOnUse">
			<stop offset="0.1616" stop-color="#CC7800" />
			<stop offset="0.2072" stop-color="#D07E02" />
			<stop offset="0.2662" stop-color="#DA8E08" />
			<stop offset="0.3325" stop-color="#EAA912" />
			<stop offset="0.3682" stop-color="#F5BA18" />
			<stop offset="0.4286" stop-color="#F1AA1A" />
			<stop offset="0.4743" stop-color="#EE9B1B" />
			<stop offset="0.5407" stop-color="#6B2B00" />
			<stop offset="0.6147" stop-color="#6D3001" />
			<stop offset="0.7067" stop-color="#FEC423" />
			<stop offset="1" stop-color="#8F4E00" />
		</linearGradient>
		<linearGradient id="paint3_linear_21_421" x1="44.5062" y1="44.255" x2="5.93443" y2="12.5746" gradientUnits="userSpaceOnUse">
			<stop offset="0.1616" stop-color="#BA6D00" />
			<stop offset="0.2152" stop-color="#B46800" />
			<stop offset="0.2848" stop-color="#A45B00" />
			<stop offset="0.3628" stop-color="#894400" />
			<stop offset="0.4334" stop-color="#6B2B00" />
			<stop offset="0.6147" stop-color="#6D3001" />
			<stop offset="1" stop-color="#964100" />
		</linearGradient>
		<radialGradient id="paint4_radial_21_421" cx="0" cy="0" r="1" gradientUnits="userSpaceOnUse" gradientTransform="translate(25.7335 27.7758) rotate(-140.603) scale(22.7984 9.69947)">
			<stop stop-color="#CC920E" />
			<stop offset="1" stop-color="#AD6505" />
		</radialGradient>
		<radialGradient id="paint5_radial_21_421" cx="0" cy="0" r="1" gradientUnits="userSpaceOnUse" gradientTransform="translate(17.9722 35.1084) rotate(-140.603) scale(33.2374 19.3328)">
			<stop stop-color="white" />
			<stop offset="0.5889" stop-color="white" />
			<stop offset="0.6858" stop-color="white" />
			<stop offset="0.8004" stop-color="#FEFEFD" />
			<stop offset="0.8428" stop-color="#FBF9F6" />
			<stop offset="0.8731" stop-color="#F6F1EA" />
			<stop offset="0.8978" stop-color="#EFE6D9" />
			<stop offset="0.919" stop-color="#E6D7C3" />
			<stop offset="0.9378" stop-color="#DBC4A8" />
			<stop offset="0.9548" stop-color="#CEAE87" />
			<stop offset="0.9705" stop-color="#BE9461" />
			<stop offset="0.9851" stop-color="#AC7736" />
			<stop offset="0.9981" stop-color="#995808" />
			<stop offset="1" stop-color="#965300" />
		</radialGradient>
		<linearGradient id="paint6_linear_21_421" x1="21.7348" y1="54.0825" x2="27.896" y2="10.1123" gradientUnits="userSpaceOnUse">
			<stop stop-color="#D98D0F" />
			<stop offset="0.4069" stop-color="#F2AF00" />
			<stop offset="0.5129" stop-color="#EFA900" />
			<stop offset="0.65" stop-color="#E59900" />
			<stop offset="0.7707" stop-color="#D98500" />
			<stop offset="1" stop-color="#BD5B00" />
		</linearGradient>
		<linearGradient id="paint7_linear_21_421" x1="35.3584" y1="35.6529" x2="16.5303" y2="20.1873" gradientUnits="userSpaceOnUse">
			<stop offset="0.0147" stop-color="#6E2C00" />
			<stop offset="0.0625" stop-color="#753400" />
			<stop offset="0.1385" stop-color="#884C00" />
			<stop offset="0.1616" stop-color="#8F5400" />
			<stop offset="0.2737" stop-color="#8A4E00" />
			<stop offset="0.4188" stop-color="#7C3E00" />
			<stop offset="0.5407" stop-color="#6B2B00" />
			<stop offset="0.6147" stop-color="#6D3001" />
			<stop offset="0.7067" stop-color="#8A4700" />
			<stop offset="1" stop-color="#6B3B00" />
		</linearGradient>
		<linearGradient id="paint8_linear_21_421" x1="17.3862" y1="37.9596" x2="33.5067" y2="18.3342" gradientUnits="userSpaceOnUse">
			<stop stop-color="#CC820E" />
			<stop offset="0.4069" stop-color="#E5A300" />
			<stop offset="0.5144" stop-color="#E29D00" />
			<stop offset="0.6537" stop-color="#D88D00" />
			<stop offset="0.7707" stop-color="#CC7A00" />
			<stop offset="1" stop-color="#873F00" />
		</linearGradient>
	</defs>
</svg>
