<svg width="132" height="152" viewBox="0 0 132 152" fill="none" xmlns="http://www.w3.org/2000/svg">
	<path d="M78.334 88.7C103.802 64.1274 115.721 35.1622 104.946 23.9865C94.1674 12.8235 64.7855 23.6902 39.3173 48.2628C13.8443 72.8481 1.92352 101.82 12.7002 112.989C23.4768 124.158 52.861 113.285 78.334 88.7Z" fill="url(#paint0_linear_40_82)" />
	<path d="M30.4971 120.275C44.5236 118.547 63.6053 108.069 80.9115 91.3673C98.2065 74.6762 109.365 55.9804 111.596 42.0281L117.955 35.8965L107.584 25.1542C107.547 25.1185 107.512 25.0765 107.474 25.0407C107.439 24.9987 107.4 24.9693 107.365 24.9273L107.245 24.8026L107.242 24.8089C96.0994 13.8433 66.4613 24.9114 40.7414 49.7306C15.0262 74.537 2.89907 103.75 13.4369 115.287L13.4281 115.291L24.1491 126.396L30.4971 120.275Z" fill="url(#paint1_linear_40_82)" />
	<path d="M90.8802 101.713C116.778 76.7279 128.906 47.2611 117.947 35.9004C106.986 24.5461 77.1138 35.5992 51.2049 60.5941C25.3024 85.5914 13.181 115.061 24.1358 126.413C35.097 137.767 64.9777 126.71 90.8802 101.713Z" fill="url(#paint2_linear_40_82)" />
	<path d="M32.9175 121.397C23.9567 112.117 34.5409 87.3792 56.5525 66.1385C78.5554 44.9017 103.656 35.2103 112.617 44.4901C121.578 53.77 110.994 78.5083 88.9819 99.749C66.9727 120.983 41.8655 130.672 32.9175 121.397Z" fill="url(#paint3_linear_40_82)" />
	<path d="M35.0884 116.751C26.8363 108.192 36.4387 85.5369 56.5514 66.1375C76.6512 46.7334 99.6376 37.9473 107.892 46.4992C116.144 55.0574 106.542 77.7129 86.4291 97.1123C66.3316 116.51 43.3429 125.302 35.0884 116.751Z" fill="url(#paint4_radial_40_82)" />
	<path d="M35.0884 116.751C26.8363 108.192 36.4387 85.5369 56.5514 66.1375C76.6512 46.7334 99.6376 37.9473 107.892 46.4992C116.144 55.0574 106.542 77.7129 86.4291 97.1123C66.3316 116.51 43.3429 125.302 35.0884 116.751Z" fill="url(#paint5_radial_40_82)" style="mix-blend-mode:darken" />
	<path d="M57.0394 66.6386C77.1369 47.2407 100.331 38.6554 108.827 47.4717C117.338 56.2863 107.93 79.1594 87.8262 98.5548C67.72 117.957 44.5261 126.542 36.0235 117.723C27.5208 108.905 36.9332 86.0403 57.0394 66.6386ZM91.9416 102.805C117.41 78.2319 129.328 49.2667 118.554 38.091C107.775 26.928 78.3994 37.7971 52.9311 62.3697C27.4541 86.9463 15.5375 115.927 26.3078 127.094C37.0908 138.265 66.4686 127.39 91.9416 102.805Z" fill="url(#paint6_linear_40_82)" />
	<path d="M79.0557 96.4292L85.9874 89.7361L83.5646 87.221C85.6144 85.2476 87.4465 83.2364 89.0736 81.1919C90.707 79.1498 92.0211 77.2058 93.0087 75.3788C93.9979 73.567 94.6009 71.9152 94.8062 70.4553C95.0202 68.9915 94.7077 67.8309 93.8773 66.9695C92.751 65.7945 91.3052 65.3771 89.5336 65.7148C87.7603 66.0375 85.8848 66.7496 83.8778 67.833C81.8684 68.9227 79.8118 70.2556 77.725 71.8237C75.6446 73.3942 73.7165 74.8478 71.9561 76.1828C70.1893 77.5154 68.6488 78.5919 67.3551 79.3766C66.0479 80.178 65.1907 80.3576 64.7787 79.9281C64.5258 79.6741 64.6079 79.1249 65.0116 78.2973C65.4304 77.4682 66.3003 76.4019 67.6467 75.1078C69.5966 73.2275 71.6143 71.7858 73.6953 70.7953C75.7739 69.8112 77.5257 69.5458 78.9295 69.9982L87.8083 61.4311L81.571 54.9671L72.6921 63.5342L73.7006 64.5782C71.0496 66.1239 68.6237 67.7463 66.4194 69.4735L63.816 66.7822L56.8805 73.4666L59.2517 75.9261C57.2432 77.9439 55.4109 79.9552 53.7505 81.9727C52.0924 83.9838 50.7538 85.8968 49.7479 87.6952C48.7396 89.4999 48.1245 91.1255 47.9153 92.5766C47.7084 94.0214 48.0275 95.1845 48.8809 96.0617C50.0263 97.2439 51.4927 97.6835 53.2938 97.3639C55.0973 97.038 57.0091 96.3251 59.0494 95.2107C61.0786 94.1067 63.1537 92.7444 65.2913 91.1372C67.4337 89.5174 69.399 88.0416 71.188 86.6883C72.9834 85.3374 74.5422 84.2315 75.8613 83.3983C77.1851 82.5524 78.0495 82.3536 78.4615 82.7831C78.7971 83.1261 78.6976 83.7412 78.1478 84.6301C77.6003 85.5126 76.7613 86.4964 75.6483 87.5733C74.7623 88.4307 73.8015 89.2167 72.7787 89.9359C71.7519 90.6465 70.7599 91.2251 69.8068 91.6805C68.8608 92.1168 67.9562 92.4237 67.1172 92.5739C66.2719 92.7216 65.5756 92.6642 65.0422 92.385L56.0696 101.048L62.1662 107.365L71.1451 98.7045L70.1057 97.6272C70.8578 97.2053 71.7584 96.6578 72.8074 95.9846C73.8588 95.305 75.0246 94.4942 76.2744 93.5553L79.0557 96.4292Z" fill="url(#paint7_linear_40_82)" />
	<path d="M80.0239 97.436L86.9595 90.7515L84.5304 88.2341C86.5826 86.2543 88.4148 84.2432 90.0482 82.2011C91.6752 80.1566 92.9868 78.2189 93.9807 76.3943C94.9659 74.5737 95.5668 72.9283 95.772 71.4684C95.986 70.0045 95.6797 68.8462 94.8517 67.9785C93.7167 66.8075 92.2734 66.3838 90.5018 66.7216C88.7325 67.053 86.853 67.7563 84.8436 68.846C82.8366 69.9294 80.7862 71.2647 78.6994 72.8328C76.6103 74.4073 74.6824 75.8608 72.9219 77.1958C71.1552 78.5285 69.6233 79.6011 68.3209 80.3898C67.0161 81.1848 66.1589 81.3644 65.7469 80.9349C65.494 80.6808 65.5761 80.1317 65.9774 79.3105C66.3986 78.475 67.2661 77.4149 68.6126 76.1208C70.5648 74.2342 72.5889 72.7948 74.6635 71.802C76.7421 70.8179 78.4938 70.5525 79.9039 71.0073L88.7766 62.4377L82.5391 55.9739L73.6603 64.541L74.6664 65.5913C72.0178 67.1306 69.5893 68.7594 67.3874 70.4802L64.7842 67.7889L57.8528 74.482L60.2175 76.9392C58.209 78.957 56.3768 80.9682 54.7187 82.9793C53.0606 84.9905 51.722 86.9036 50.7161 88.7019C49.7054 90.513 49.099 92.1346 48.8835 93.5834C48.6766 95.0282 48.9957 96.1913 49.8491 97.0685C50.9945 98.2506 52.4584 98.6965 54.2682 98.373C56.0629 98.0511 57.9837 97.3342 60.0153 96.2238C62.0445 95.1198 64.1195 93.7575 66.2595 92.144C68.3995 90.5305 70.3672 89.0484 72.1562 87.6951C73.9516 86.3441 75.5104 85.2381 76.8295 84.4049C78.1573 83.5678 79.0177 83.3604 79.4297 83.7899C79.7653 84.1328 79.6658 84.748 79.1136 85.6432C78.5661 86.5258 77.727 87.5094 76.6227 88.5824C75.7367 89.4398 74.776 90.2258 73.7469 90.9427C72.7265 91.6556 71.7281 92.2318 70.775 92.6872C69.833 93.1323 68.9244 93.4304 68.0854 93.5806C67.2401 93.7284 66.5502 93.6734 66.0168 93.3941L57.0378 102.054L63.1344 108.371L72.1133 99.7112L71.0737 98.6339C71.8258 98.212 72.7266 97.6645 73.7732 96.9977C74.8334 96.3141 75.9904 95.5072 77.2403 94.5684L80.0239 97.436Z" fill="url(#paint8_linear_40_82)" />
	<defs>
		<linearGradient id="paint0_linear_40_82" x1="27.7099" y1="53.5479" x2="89.933" y2="83.4329" gradientUnits="userSpaceOnUse">
			<stop offset="0.1616" stop-color="#FFF8C7" />
			<stop offset="0.1986" stop-color="#FFF6C1" />
			<stop offset="0.2466" stop-color="#FEF0B1" />
			<stop offset="0.3007" stop-color="#FEE696" />
			<stop offset="0.3593" stop-color="#FDD871" />
			<stop offset="0.4207" stop-color="#FCC641" />
			<stop offset="0.469" stop-color="#FBB617" />
			<stop offset="0.526" stop-color="#A26009" />
			<stop offset="0.5588" stop-color="#6C2D00" />
			<stop offset="0.6146" stop-color="#6D3001" />
			<stop offset="0.6407" stop-color="#BA7D11" />
			<stop offset="0.6625" stop-color="#FDC120" />
			<stop offset="0.8107" stop-color="#DB9204" />
			<stop offset="0.8162" stop-color="#E09D12" />
			<stop offset="0.8298" stop-color="#EBB52F" />
			<stop offset="0.8443" stop-color="#F3C746" />
			<stop offset="0.8598" stop-color="#F9D456" />
			<stop offset="0.8773" stop-color="#FDDC60" />
			<stop offset="0.9005" stop-color="#FEDE63" />
			<stop offset="1" stop-color="#FBC543" />
		</linearGradient>
		<linearGradient id="paint1_linear_40_82" x1="107.72" y1="25.3076" x2="13.9128" y2="115.81" gradientUnits="userSpaceOnUse">
			<stop stop-color="#E0A300" />
			<stop offset="0.0833" stop-color="#FFC524" />
			<stop offset="0.1516" stop-color="#FFD759" />
			<stop offset="0.4069" stop-color="#FFF4A5" />
			<stop offset="0.4208" stop-color="#FEF09F" />
			<stop offset="0.4389" stop-color="#FCE68F" />
			<stop offset="0.4592" stop-color="#F9D574" />
			<stop offset="0.4813" stop-color="#F5BD4F" />
			<stop offset="0.5044" stop-color="#EF9E20" />
			<stop offset="0.518" stop-color="#EB8A00" />
			<stop offset="0.5625" stop-color="#AD4300" />
			<stop offset="0.6087" stop-color="#6E3500" />
			<stop offset="0.6515" stop-color="#E09D00" />
			<stop offset="0.6573" stop-color="#E7AA16" />
			<stop offset="0.6672" stop-color="#F2BE37" />
			<stop offset="0.6768" stop-color="#F9CC4E" />
			<stop offset="0.6857" stop-color="#FDD45C" />
			<stop offset="0.6934" stop-color="#FFD761" />
			<stop offset="0.7325" stop-color="#FFD75F" />
			<stop offset="0.7465" stop-color="#FFD558" />
			<stop offset="0.7566" stop-color="#FFD34D" />
			<stop offset="0.7646" stop-color="#FFCF3C" />
			<stop offset="0.7707" stop-color="#FFCB29" />
			<stop offset="0.7818" stop-color="#FBC525" />
			<stop offset="0.7968" stop-color="#F0B41A" />
			<stop offset="0.8139" stop-color="#DE9808" />
			<stop offset="0.8205" stop-color="#D68B00" />
			<stop offset="0.8228" stop-color="#DD9B16" />
			<stop offset="0.8268" stop-color="#E7B133" />
			<stop offset="0.8311" stop-color="#F0C34B" />
			<stop offset="0.8361" stop-color="#F6D15E" />
			<stop offset="0.8419" stop-color="#FBDB6B" />
			<stop offset="0.8493" stop-color="#FDE073" />
			<stop offset="0.8644" stop-color="#FEE275" />
			<stop offset="0.9367" stop-color="#FEE47E" />
			<stop offset="1" stop-color="#FED94B" />
		</linearGradient>
		<linearGradient id="paint2_linear_40_82" x1="39.4028" y1="65.9598" x2="102.684" y2="96.353" gradientUnits="userSpaceOnUse">
			<stop offset="0.1616" stop-color="#CC7800" />
			<stop offset="0.2072" stop-color="#D07E02" />
			<stop offset="0.2662" stop-color="#DA8E08" />
			<stop offset="0.3325" stop-color="#EAA912" />
			<stop offset="0.3682" stop-color="#F5BA18" />
			<stop offset="0.4286" stop-color="#F1AA1A" />
			<stop offset="0.4743" stop-color="#EE9B1B" />
			<stop offset="0.5407" stop-color="#6B2B00" />
			<stop offset="0.6147" stop-color="#6D3001" />
			<stop offset="0.7067" stop-color="#FEC423" />
			<stop offset="1" stop-color="#8F4E00" />
		</linearGradient>
		<linearGradient id="paint3_linear_40_82" x1="112.618" y1="44.4786" x2="32.909" y2="121.383" gradientUnits="userSpaceOnUse">
			<stop offset="0.1616" stop-color="#BA6D00" />
			<stop offset="0.2152" stop-color="#B46800" />
			<stop offset="0.2848" stop-color="#A45B00" />
			<stop offset="0.3628" stop-color="#894400" />
			<stop offset="0.4334" stop-color="#6B2B00" />
			<stop offset="0.6147" stop-color="#6D3001" />
			<stop offset="1" stop-color="#964100" />
		</linearGradient>
		<radialGradient id="paint4_radial_40_82" cx="0" cy="0" r="1" gradientUnits="userSpaceOnUse" gradientTransform="translate(71.5031 81.6165) rotate(136.023) scale(50.5892 21.5239)">
			<stop stop-color="#CC920E" />
			<stop offset="1" stop-color="#AD6505" />
		</radialGradient>
		<radialGradient id="paint5_radial_40_82" cx="0" cy="0" r="1" gradientUnits="userSpaceOnUse" gradientTransform="translate(85.651 100.613) rotate(136.023) scale(73.7278 42.885)">
			<stop stop-color="white" />
			<stop offset="0.5889" stop-color="white" />
			<stop offset="0.6858" stop-color="white" />
			<stop offset="0.8004" stop-color="#FEFEFD" />
			<stop offset="0.8428" stop-color="#FBF9F6" />
			<stop offset="0.8731" stop-color="#F6F1EA" />
			<stop offset="0.8978" stop-color="#EFE6D9" />
			<stop offset="0.919" stop-color="#E6D7C3" />
			<stop offset="0.9378" stop-color="#DBC4A8" />
			<stop offset="0.9548" stop-color="#CEAE87" />
			<stop offset="0.9705" stop-color="#BE9461" />
			<stop offset="0.9851" stop-color="#AC7736" />
			<stop offset="0.9981" stop-color="#995808" />
			<stop offset="1" stop-color="#965300" />
		</radialGradient>
		<linearGradient id="paint6_linear_40_82" x1="35.336" y1="159.817" x2="98.4789" y2="28.3486" gradientUnits="userSpaceOnUse">
			<stop stop-color="#D98D0F" />
			<stop offset="0.4069" stop-color="#F2AF00" />
			<stop offset="0.5129" stop-color="#EFA900" />
			<stop offset="0.65" stop-color="#E59900" />
			<stop offset="0.7707" stop-color="#D98500" />
			<stop offset="1" stop-color="#BD5B00" />
		</linearGradient>
		<linearGradient id="paint7_linear_40_82" x1="91.2968" y1="62.4303" x2="52.3893" y2="99.9671" gradientUnits="userSpaceOnUse">
			<stop offset="0.0147" stop-color="#6E2C00" />
			<stop offset="0.0625" stop-color="#753400" />
			<stop offset="0.1385" stop-color="#884C00" />
			<stop offset="0.1616" stop-color="#8F5400" />
			<stop offset="0.2737" stop-color="#8A4E00" />
			<stop offset="0.4188" stop-color="#7C3E00" />
			<stop offset="0.5407" stop-color="#6B2B00" />
			<stop offset="0.6147" stop-color="#6D3001" />
			<stop offset="0.7067" stop-color="#8A4700" />
			<stop offset="1" stop-color="#6B3B00" />
		</linearGradient>
		<linearGradient id="paint8_linear_40_82" x1="91.7738" y1="102.631" x2="52.6484" y2="62.0768" gradientUnits="userSpaceOnUse">
			<stop stop-color="#CC820E" />
			<stop offset="0.4069" stop-color="#E5A300" />
			<stop offset="0.5144" stop-color="#E29D00" />
			<stop offset="0.6537" stop-color="#D88D00" />
			<stop offset="0.7707" stop-color="#CC7A00" />
			<stop offset="1" stop-color="#873F00" />
		</linearGradient>
	</defs>
</svg>
