<svg width="87" height="99" viewBox="0 0 87 99" fill="none" xmlns="http://www.w3.org/2000/svg">
	<path d="M72.0751 57.0538C75.7131 43.2997 74.4778 28.4519 67.6939 17.2959C56.3937 -1.28898 33.9669 -2.59278 17.608 14.3759C11.0687 21.1557 6.48774 29.8324 4.06817 38.9856C0.425069 52.7444 1.66566 67.5875 8.44432 78.7482C19.7499 97.3234 42.1663 98.6366 58.5353 81.6634C65.0697 74.8834 69.6504 66.2117 72.0751 57.0538Z" fill="url(#paint0_linear_40_70)" />
	<path d="M51.0951 2.82892L58.5678 4.82029L58.307 5.80868C62.6068 8.32911 66.446 12.0894 69.489 17.0929C76.3964 28.4425 77.6484 43.5525 73.9491 57.5502C71.4869 66.869 66.8245 75.6946 60.1707 82.5969C52.4615 90.5965 43.4254 94.5995 34.803 94.7166L34.5313 95.7242L27.3352 93.8254L27.3212 93.8099C20.2126 91.9351 13.7978 87.1944 9.19915 79.6333C2.29686 68.279 1.03996 53.1688 4.74417 39.1713C7.20643 29.8525 11.8688 21.027 18.5226 14.1246C28.4205 3.85078 40.5042 0.155935 51.0951 2.82892Z" fill="url(#paint1_linear_40_70)" />
	<path d="M81.1549 59.4541C84.8542 45.4564 83.6022 30.3464 76.6948 18.9969C65.1938 0.081492 42.3735 -1.24172 25.7286 16.0236C19.0748 22.926 14.4125 31.7515 11.9502 41.0704C8.24599 55.0678 9.50304 70.1781 16.4053 81.5323C27.9067 100.438 50.7265 101.771 67.3765 84.5009C74.0303 77.5985 78.6878 68.7727 81.1549 59.4541Z" fill="url(#paint2_linear_40_70)" />
	<path d="M76.3919 58.1834C79.3261 47.0974 78.3335 35.1273 72.8633 26.1372C63.7576 11.1575 45.6738 10.1026 32.4908 23.7803C27.2198 29.2466 23.5307 36.241 21.5735 43.6217C18.6442 54.7078 19.6368 66.678 25.1021 75.6679C34.2129 90.6428 52.2867 91.7022 65.4798 78.0201C70.7506 72.5587 74.4443 65.5695 76.3919 58.1834Z" fill="url(#paint3_linear_40_70)" />
	<path d="M73.5854 57.4434C76.4778 46.5034 75.4963 34.7063 70.1039 25.8385C61.1214 11.0622 43.2884 10.0245 30.2873 23.5139C25.0891 28.9049 21.4444 35.7979 19.5215 43.0816C16.6293 54.0168 17.6106 65.8187 23.0027 74.6915C31.9907 89.4581 49.8134 90.5051 62.8198 77.0061C68.0178 71.6201 71.6578 64.722 73.5854 57.4434Z" fill="url(#paint4_radial_40_70)" />
	<path d="M73.5854 57.4434C76.4778 46.5034 75.4963 34.7063 70.1039 25.8385C61.1214 11.0622 43.2884 10.0245 30.2873 23.5139C25.0891 28.9049 21.4444 35.7979 19.5215 43.0816C16.6293 54.0168 17.6106 65.8187 23.0027 74.6915C31.9907 89.4581 49.8134 90.5051 62.8198 77.0061C68.0178 71.6201 71.6578 64.722 73.5854 57.4434Z" fill="url(#paint5_radial_40_70)" style="mix-blend-mode:multiply" />
	<path d="M20.7822 43.415C22.7048 36.1361 26.3448 29.2379 31.543 23.847C44.5539 10.358 62.3772 11.3953 71.36 26.1666C76.7573 35.0347 77.7387 46.8317 74.8413 57.7715C72.9187 65.0503 69.2735 71.9532 64.0755 77.3392C51.0745 90.8287 33.2513 89.7914 24.2587 75.0196C18.8712 66.152 17.89 54.3501 20.7822 43.415ZM82.0611 59.6912C85.7238 45.8348 84.4838 30.8832 77.6495 19.6507C66.267 0.933539 43.6781 -0.383186 27.2046 16.7081C20.6137 23.5346 16.005 32.2741 13.5624 41.4952C9.89967 55.3517 11.1397 70.3033 17.9688 81.5405C29.3562 100.258 51.9401 101.574 68.4237 84.4786C75.0097 77.6518 79.6232 68.9176 82.0611 59.6912Z" fill="url(#paint6_linear_40_70)" />
	<path d="M39.2486 75.3254L44.5228 72.3944L43.9564 70.1766C44.4854 70.252 45.1297 70.2887 45.8948 70.2772C46.6498 70.27 47.4832 70.173 48.3995 69.9963L49.9161 75.9454L51.0945 76.2551L51.6319 75.157L51.5895 75.0168L55.1292 73.0509L53.8064 67.8709C55.3483 67.0099 56.7523 65.9447 58.0289 64.6612C59.3007 63.3775 60.3561 61.9794 61.191 60.4522C61.7979 59.3477 62.2594 58.1917 62.575 56.9939C62.6957 56.5461 62.7923 56.0873 62.8742 55.6277C63.1653 53.9256 63.0882 52.1906 62.628 50.4219C62.0166 48.0193 61.1097 46.3075 59.9269 45.2873C58.739 44.2718 57.4336 43.6402 56.0106 43.3925C54.5919 43.1548 53.1207 43.1808 51.5913 43.4901C50.0717 43.7998 48.6621 44.0805 47.3712 44.3522C46.0804 44.6239 44.9749 44.737 44.0401 44.6909C43.1151 44.6453 42.5311 44.1824 42.3084 43.2984C42.2213 42.9637 42.2351 42.5846 42.3443 42.1707C42.4106 41.9274 42.5019 41.6754 42.6336 41.4057C42.9849 40.6832 43.6628 40.0409 44.677 39.4794C46.1529 38.6545 47.6172 38.4653 49.0756 38.8973C50.5386 39.3345 51.7036 40.413 52.5707 42.1327L53.7441 42.4422L53.9503 41.3623L59.2446 38.4225L56.5498 27.8628L57.0158 25.4147L55.8427 25.1004L49.1688 28.8106L49.7178 30.9783C47.8338 30.7768 46.0823 30.8877 44.4597 31.2861L43.464 27.375L44.225 26.0463L43.0516 25.7369L37.8383 28.6363L39.1323 33.6965C37.6163 34.6328 36.2115 35.7127 34.923 36.9364C33.6348 38.1553 32.5669 39.5083 31.7196 40.9856C31.0933 42.0842 30.6168 43.2444 30.2958 44.4518C30.1866 44.8656 30.0969 45.2854 30.0216 45.7108C29.7416 47.3887 29.8285 49.1242 30.2915 50.9375C30.9155 53.385 31.8306 55.1318 33.036 56.1925C34.2468 57.2437 35.5616 57.8856 36.9999 58.1242C38.4382 58.3629 39.9397 58.3186 41.4992 58.001C43.0584 57.6883 44.4984 57.3943 45.804 57.1233C47.1145 56.8526 48.2406 56.7207 49.1924 56.7233C50.1346 56.7205 50.7244 57.1639 50.9469 58.0528C51.0546 58.4675 51.0539 58.8818 50.9501 59.286C50.8716 59.5781 50.7388 59.8675 50.5518 60.1591C50.0986 60.847 49.4587 61.4221 48.6221 61.8839C47.953 62.2504 47.2463 62.4769 46.5029 62.5488C45.7598 62.6157 45.0525 62.5561 44.3872 62.3457C43.7162 62.1499 43.0975 61.7938 42.5299 61.3022C42.3455 61.1402 42.1818 60.9595 42.0188 60.764L42.3823 59.6968L41.2042 59.3822L34.4541 63.138L37.7778 76.1456L38.9512 76.455L39.2486 75.3254Z" fill="url(#paint7_linear_40_70)" />
	<path d="M63.7525 57.304C63.8735 56.8513 63.9698 56.3973 64.047 55.9325C64.3431 54.2307 64.2611 52.4955 63.8058 50.727C63.1892 48.3291 62.2872 46.6175 61.0997 45.5922C59.9119 44.5768 58.6062 43.9501 57.1834 43.6974C55.7601 43.4545 54.2936 43.4857 52.7641 43.795C51.2396 44.1045 49.8347 44.3903 48.544 44.6571C47.2483 44.9285 46.1477 45.0419 45.2129 44.9958C44.283 44.9499 43.6991 44.4871 43.4764 43.6031C43.3893 43.2683 43.4081 42.8895 43.5123 42.4754C43.5783 42.237 43.6747 41.9803 43.8064 41.7106C44.1577 40.9881 44.8356 40.3458 45.8498 39.7843C47.3206 38.9641 48.7851 38.77 50.2484 39.2023C51.7065 39.6392 52.8717 40.7176 53.7387 42.4374L60.4125 38.7272L57.0106 25.405L50.3368 29.1153L50.8909 31.2783C49.0068 31.0768 47.2505 31.1874 45.6325 31.5909L44.2149 26.0364L39.0064 28.936L40.2956 33.996C38.7796 34.9323 37.3748 36.0122 36.0863 37.236C34.7981 38.4548 33.7301 39.8078 32.8877 41.2853C32.2614 42.3839 31.7849 43.5442 31.4639 44.7515C31.3498 45.1651 31.265 45.5851 31.1895 46.0154C30.9097 47.6884 30.9917 49.4237 31.4544 51.2418C32.0787 53.6845 32.9935 55.4362 34.1989 56.4969C35.4099 57.5431 36.7245 58.19 38.1631 58.4237C39.6014 58.6624 41.103 58.6181 42.6622 58.3054C44.2217 57.9877 45.6613 57.6987 46.9721 57.423C48.2775 57.157 49.4039 57.0202 50.3557 57.0228C51.2976 57.0249 51.8876 57.4633 52.115 58.3525C52.2176 58.7719 52.2171 59.1812 52.1133 59.5855C52.0345 59.8825 51.9068 60.1721 51.7151 60.4586C51.2666 61.1516 50.622 61.7216 49.7852 62.1883C49.116 62.5548 48.4143 62.7816 47.6712 62.8485C46.9229 62.9201 46.2158 62.8556 45.5502 62.6501C44.8792 62.4543 44.2607 62.0933 43.698 61.6019C43.1304 61.1103 42.6835 60.4717 42.372 59.6869L35.6173 63.4375L38.9411 76.445L45.6959 72.6945L45.1247 70.4764C45.6534 70.5567 46.2976 70.5934 47.0627 70.5818C47.8177 70.5747 48.656 70.4779 49.5723 70.3012L51.0892 76.2454L56.3022 73.3509L54.9747 68.1706C56.5212 67.3148 57.9206 66.2445 59.1972 64.961C60.4739 63.6774 61.5243 62.2792 62.3638 60.7571C62.9705 59.6575 63.4318 58.5064 63.7525 57.304Z" fill="url(#paint8_linear_40_70)" />
	<path d="M39.5998 86.3806C43.6649 87.2619 47.9734 86.9072 51.9167 85.5579C55.8703 84.1993 59.4698 81.9207 62.5676 79.1142C68.7741 73.482 72.9723 65.8666 75.1302 57.8201C75.6444 55.7936 76.0465 53.7419 76.3212 51.6741C76.5665 49.5998 76.7091 47.5107 76.6986 45.4238C76.6734 43.3363 76.515 41.247 76.2076 39.18C75.8802 37.117 75.3938 35.0807 74.7522 33.0909C73.4184 29.1336 71.4338 25.371 68.6691 22.2259C65.9135 19.0961 62.3443 16.661 58.3707 15.4243C62.3153 16.7484 65.8022 19.2534 68.458 22.4079C71.1437 25.554 73.0647 29.3035 74.3313 33.223C76.8224 41.1142 76.6896 49.7046 74.5752 57.6694C72.4804 65.6401 68.3412 73.1598 62.2732 78.784C59.2542 81.5944 55.723 83.8863 51.8312 85.2923C47.9578 86.7239 43.6892 87.1693 39.5998 86.3806Z" fill="url(#paint9_linear_40_70)" />
	<defs>
		<linearGradient id="paint0_linear_40_70" x1="3.05511" y1="43.1137" x2="73.0924" y2="52.9274" gradientUnits="userSpaceOnUse">
			<stop offset="0.1616" stop-color="#FFF8C7" />
			<stop offset="0.1986" stop-color="#FFF6C1" />
			<stop offset="0.2466" stop-color="#FEF0B1" />
			<stop offset="0.3007" stop-color="#FEE696" />
			<stop offset="0.3593" stop-color="#FDD871" />
			<stop offset="0.4207" stop-color="#FCC641" />
			<stop offset="0.469" stop-color="#FBB617" />
			<stop offset="0.526" stop-color="#A26009" />
			<stop offset="0.5588" stop-color="#6C2D00" />
			<stop offset="0.6146" stop-color="#6D3001" />
			<stop offset="0.6407" stop-color="#BA7D11" />
			<stop offset="0.6625" stop-color="#FDC120" />
			<stop offset="0.8107" stop-color="#DB9204" />
			<stop offset="0.8162" stop-color="#E09D12" />
			<stop offset="0.8298" stop-color="#EBB52F" />
			<stop offset="0.8443" stop-color="#F3C746" />
			<stop offset="0.8598" stop-color="#F9D456" />
			<stop offset="0.8773" stop-color="#FDDC60" />
			<stop offset="0.9005" stop-color="#FEDE63" />
			<stop offset="1" stop-color="#FBC543" />
		</linearGradient>
		<linearGradient id="paint1_linear_40_70" x1="27.3243" y1="93.8196" x2="51.3661" y2="2.90247" gradientUnits="userSpaceOnUse">
			<stop stop-color="#E0A300" />
			<stop offset="0.0833" stop-color="#FFC524" />
			<stop offset="0.1516" stop-color="#FFD759" />
			<stop offset="0.4069" stop-color="#FFF4A5" />
			<stop offset="0.4208" stop-color="#FEF09F" />
			<stop offset="0.4389" stop-color="#FCE68F" />
			<stop offset="0.4592" stop-color="#F9D574" />
			<stop offset="0.4813" stop-color="#F5BD4F" />
			<stop offset="0.5044" stop-color="#EF9E20" />
			<stop offset="0.518" stop-color="#EB8A00" />
			<stop offset="0.5625" stop-color="#AD4300" />
			<stop offset="0.6087" stop-color="#6E3500" />
			<stop offset="0.6515" stop-color="#E09D00" />
			<stop offset="0.6573" stop-color="#E7AA16" />
			<stop offset="0.6672" stop-color="#F2BE37" />
			<stop offset="0.6768" stop-color="#F9CC4E" />
			<stop offset="0.6857" stop-color="#FDD45C" />
			<stop offset="0.6934" stop-color="#FFD761" />
			<stop offset="0.7325" stop-color="#FFD75F" />
			<stop offset="0.7465" stop-color="#FFD558" />
			<stop offset="0.7566" stop-color="#FFD34D" />
			<stop offset="0.7646" stop-color="#FFCF3C" />
			<stop offset="0.7707" stop-color="#FFCB29" />
			<stop offset="0.7818" stop-color="#FBC525" />
			<stop offset="0.7968" stop-color="#F0B41A" />
			<stop offset="0.8139" stop-color="#DE9808" />
			<stop offset="0.8205" stop-color="#D68B00" />
			<stop offset="0.8228" stop-color="#DD9B16" />
			<stop offset="0.8268" stop-color="#E7B133" />
			<stop offset="0.8311" stop-color="#F0C34B" />
			<stop offset="0.8361" stop-color="#F6D15E" />
			<stop offset="0.8419" stop-color="#FBDB6B" />
			<stop offset="0.8493" stop-color="#FDE073" />
			<stop offset="0.8644" stop-color="#FEE275" />
			<stop offset="0.9367" stop-color="#FEE47E" />
			<stop offset="1" stop-color="#FED94B" />
		</linearGradient>
		<linearGradient id="paint2_linear_40_70" x1="10.9145" y1="45.2683" x2="82.1857" y2="55.2549" gradientUnits="userSpaceOnUse">
			<stop offset="0.1616" stop-color="#CC7800" />
			<stop offset="0.2072" stop-color="#D07E02" />
			<stop offset="0.2662" stop-color="#DA8E08" />
			<stop offset="0.3325" stop-color="#EAA912" />
			<stop offset="0.3682" stop-color="#F5BA18" />
			<stop offset="0.4286" stop-color="#F1AA1A" />
			<stop offset="0.4743" stop-color="#EE9B1B" />
			<stop offset="0.5407" stop-color="#6B2B00" />
			<stop offset="0.6147" stop-color="#6D3001" />
			<stop offset="0.7067" stop-color="#FEC423" />
			<stop offset="1" stop-color="#8F4E00" />
		</linearGradient>
		<linearGradient id="paint3_linear_40_70" x1="20.757" y1="46.9491" x2="77.2157" y2="54.8602" gradientUnits="userSpaceOnUse">
			<stop offset="0.1616" stop-color="#BA6D00" />
			<stop offset="0.2152" stop-color="#B46800" />
			<stop offset="0.2848" stop-color="#A45B00" />
			<stop offset="0.3628" stop-color="#894400" />
			<stop offset="0.4334" stop-color="#6B2B00" />
			<stop offset="0.6147" stop-color="#6D3001" />
			<stop offset="1" stop-color="#964100" />
		</linearGradient>
		<radialGradient id="paint4_radial_40_70" cx="0" cy="0" r="1" gradientUnits="userSpaceOnUse" gradientTransform="translate(46.5529 50.2621) rotate(7.97646) scale(32.6445)">
			<stop stop-color="#CC920E" />
			<stop offset="1" stop-color="#AD6505" />
		</radialGradient>
		<radialGradient id="paint5_radial_40_70" cx="0" cy="0" r="1" gradientUnits="userSpaceOnUse" gradientTransform="translate(42.2406 82.3229) rotate(7.97646) scale(39.679)">
			<stop stop-color="white" />
			<stop offset="0.6578" stop-color="white" />
			<stop offset="0.7661" stop-color="white" />
			<stop offset="0.8514" stop-color="#FEFEFD" />
			<stop offset="0.8829" stop-color="#FBF9F6" />
			<stop offset="0.9055" stop-color="#F6F1EA" />
			<stop offset="0.9239" stop-color="#EFE6D9" />
			<stop offset="0.9397" stop-color="#E6D7C3" />
			<stop offset="0.9537" stop-color="#DBC4A8" />
			<stop offset="0.9664" stop-color="#CEAE87" />
			<stop offset="0.978" stop-color="#BE9461" />
			<stop offset="0.9889" stop-color="#AC7736" />
			<stop offset="0.9986" stop-color="#995808" />
			<stop offset="1" stop-color="#965300" />
		</radialGradient>
		<linearGradient id="paint6_linear_40_70" x1="54.0227" y1="6.3117" x2="41.706" y2="94.2117" gradientUnits="userSpaceOnUse">
			<stop stop-color="#E6A010" />
			<stop offset="0.4069" stop-color="#FFC500" />
			<stop offset="0.5239" stop-color="#FCBF00" />
			<stop offset="0.6757" stop-color="#F2AF00" />
			<stop offset="0.8459" stop-color="#E39400" />
			<stop offset="1" stop-color="#D17600" />
		</linearGradient>
		<linearGradient id="paint7_linear_40_70" x1="79.5838" y1="59.2911" x2="14.0494" y2="41.9614" gradientUnits="userSpaceOnUse">
			<stop offset="0.1616" stop-color="#AD6600" />
			<stop offset="0.2452" stop-color="#A76100" />
			<stop offset="0.3535" stop-color="#975200" />
			<stop offset="0.4751" stop-color="#7C3B00" />
			<stop offset="0.5407" stop-color="#6B2B00" />
			<stop offset="0.6147" stop-color="#6D3001" />
			<stop offset="0.7067" stop-color="#8A4700" />
			<stop offset="1" stop-color="#6B3B00" />
		</linearGradient>
		<linearGradient id="paint8_linear_40_70" x1="80.7641" y1="59.6037" x2="15.2301" y2="42.2741" gradientUnits="userSpaceOnUse">
			<stop stop-color="#CC820E" />
			<stop offset="0.4069" stop-color="#E5A300" />
			<stop offset="0.5144" stop-color="#E29D00" />
			<stop offset="0.6537" stop-color="#D88D00" />
			<stop offset="0.7707" stop-color="#CC7A00" />
			<stop offset="1" stop-color="#873F00" />
		</linearGradient>
		<linearGradient id="paint9_linear_40_70" x1="52.6807" y1="89.8402" x2="71.4439" y2="18.8849" gradientUnits="userSpaceOnUse">
			<stop stop-color="#FFAA00" />
			<stop offset="0.4979" stop-color="#FFEF7F" />
			<stop offset="0.5718" stop-color="#FCEA79" />
			<stop offset="0.6677" stop-color="#F4DA69" />
			<stop offset="0.7757" stop-color="#E6C14E" />
			<stop offset="0.8918" stop-color="#D29F29" />
			<stop offset="1" stop-color="#BD7800" />
		</linearGradient>
	</defs>
</svg>
