<svg width="67" height="73" viewBox="0 0 67 73" fill="none" xmlns="http://www.w3.org/2000/svg">
	<path d="M13.8684 24.8404C10.3304 30.885 8.17078 37.8102 8.02522 44.7722C7.66004 62.2032 20.0366 73.2729 35.6763 69.513C45.0593 67.2518 53.4884 60.1515 58.8066 51.0695C62.3446 45.0249 64.504 38.0998 64.6498 31.1326C65.0147 13.7067 52.6332 2.6316 36.9983 6.40217C27.6103 8.65792 19.1866 15.7584 13.8684 24.8404Z" fill="url(#paint0_linear_40_114)" />
	<path d="M53.2435 7.55801L48.2968 4.67833L47.9155 5.33147C44.3521 4.39519 40.3754 4.33961 36.1687 5.3561C26.6119 7.6556 18.0362 14.8788 12.6321 24.118C9.03156 30.2689 6.83487 37.3173 6.68835 44.4043C6.51712 52.6255 9.12855 59.4475 13.5642 64.0312L13.1773 64.6945L17.926 67.4706L17.9417 67.4714C22.6294 70.2185 28.4659 71.1106 34.8286 69.5755C44.3853 67.276 52.9611 60.0527 58.3706 50.8086C61.9712 44.6577 64.1628 37.6091 64.3096 30.5169C64.5276 19.9749 60.1638 11.7174 53.2435 7.55801Z" fill="url(#paint1_linear_40_114)" />
	<path d="M7.87374 21.3318C4.27318 27.4827 2.07632 34.531 1.9298 41.618C1.55988 59.3561 14.1558 70.6241 30.075 66.7946C39.632 64.4899 48.2023 57.2717 53.6118 48.0275C57.2124 41.8766 59.4091 34.8283 59.5556 27.7413C59.9253 10.0083 47.3295 -1.26483 31.4101 2.56984C21.8588 4.86441 13.2833 12.0876 7.87374 21.3318Z" fill="url(#paint2_linear_40_114)" />
	<path d="M11.0248 23.1639C8.16953 28.0389 6.4306 33.6202 6.31507 39.2347C6.01753 53.2886 15.9999 62.2088 28.6033 59.1793C36.173 57.3547 42.9659 51.6374 47.2495 44.3118C50.0993 39.4416 51.8386 33.8552 51.9542 28.2407C52.2514 14.192 42.2693 5.26662 29.6656 8.30127C22.1014 10.1209 15.3081 15.8434 11.0248 23.1639Z" fill="url(#paint3_linear_40_114)" />
	<path d="M12.876 24.2507C10.0659 29.0551 8.35154 34.5594 8.23439 40.1009C7.94141 53.9571 17.789 62.7613 30.2137 59.7647C37.6779 57.9661 44.3735 52.3221 48.6049 45.1033C51.415 40.2989 53.1296 34.7894 53.2465 29.2531C53.5392 15.4021 43.6919 6.59277 31.2672 9.58937C23.7978 11.3877 17.1022 17.0317 12.876 24.2507Z" fill="url(#paint4_radial_40_114)" />
	<path d="M47.77 44.6188C43.5438 51.8378 36.843 57.4816 29.3791 59.2749C16.9494 62.2661 7.10721 53.4622 7.39994 39.6112C7.51683 34.0749 9.23145 28.5654 12.0416 23.761C16.2678 16.5419 22.963 10.9031 30.4273 9.10457C42.8569 6.11342 52.6994 14.912 52.4116 28.7686C52.2999 34.3051 50.5856 39.8094 47.77 44.6188ZM7.27219 20.9786C3.71107 27.069 1.53344 34.0453 1.39051 41.0596C1.02411 58.6208 13.4959 69.7681 29.2412 65.9769C38.698 63.6985 47.1812 56.554 52.5394 47.4011C56.1057 41.311 58.2781 34.3344 58.4211 27.3201C58.787 9.76933 46.3157 -1.38832 30.5701 2.40804C21.1133 4.68644 12.6301 11.8309 7.27219 20.9786Z" fill="url(#paint5_linear_40_114)" />
	<path d="M52.3265 25.9624C52.4014 26.8724 52.4334 27.8063 52.4172 28.7691C52.3003 34.3054 50.5857 39.8149 47.7756 44.6193C43.5493 51.8384 36.8486 57.4821 29.3846 59.2755C17.6454 62.1028 8.22747 54.4084 7.44943 41.8849C5.23641 41.3434 3.20543 40.7015 1.42983 40.0565C1.41343 40.3891 1.39709 40.7216 1.39082 41.0599C1.02442 58.6211 13.4962 69.7684 29.2415 65.9772C38.6983 63.6988 47.1815 56.5543 52.5397 47.4014C56.106 41.3113 58.2785 34.3347 58.4214 27.3205C58.4686 24.8851 58.2697 22.5835 57.8503 20.422C56.1148 22.2376 54.2617 24.1098 52.3265 25.9624Z" fill="url(#paint6_linear_40_114)" style="mix-blend-mode:overlay" />
	<path d="M40.6931 18.6271L36.3548 19.6736L36.3233 21.3648C35.9613 21.2063 35.5105 21.0539 34.9604 20.907C34.4208 20.7605 33.8058 20.6625 33.121 20.6079L33.2197 16.0708L32.4453 15.6158L31.8495 16.2896L31.8494 16.399L28.9344 17.099L28.8539 21.0536C27.5835 21.3608 26.372 21.8427 25.2039 22.5038C24.0408 23.1705 23.0174 23.9586 22.1178 24.8778C21.4703 25.5438 20.9082 26.2766 20.4473 27.0664C20.2763 27.3652 20.1101 27.6696 19.9646 27.9801C19.418 29.1355 19.1323 30.3871 19.1074 31.7349C19.0741 33.572 19.3752 34.9671 20.0207 35.9261C20.6661 36.8851 21.4697 37.5914 22.4315 38.0504C23.3936 38.5041 24.4483 38.7697 25.5954 38.8524C26.7424 38.935 27.8014 39.0081 28.7723 39.0716C29.7486 39.1302 30.5595 39.2692 31.2151 39.4942C31.8658 39.7138 32.1877 40.1568 32.17 40.8331C32.1678 41.0882 32.0817 41.3548 31.9224 41.6282C31.8261 41.7849 31.7137 41.9513 31.565 42.1158C31.1733 42.5601 30.5634 42.8842 29.7304 43.0879C28.5233 43.3773 27.442 43.2302 26.4819 42.6307C25.5322 42.0318 24.9149 41.0325 24.6349 39.6332L23.8603 39.1783L23.4961 39.9103L19.1422 40.956L18.9736 49.0159L18.1525 50.6683L18.9271 51.1231L24.4145 49.8L24.4542 48.1508C25.7572 48.6631 27.0252 48.934 28.2579 48.9688L28.1941 51.9502L27.3942 52.7493L28.1688 53.2042L32.4544 52.1708L32.5355 48.31C33.7986 47.94 35.0154 47.4531 36.1815 46.8335C37.3367 46.2238 38.3687 45.4673 39.2613 44.5842C39.9241 43.9242 40.4965 43.1972 40.9631 42.3972C41.1224 42.1238 41.272 41.8395 41.4061 41.5492C41.9416 40.4089 42.222 39.157 42.2486 37.7728C42.2884 35.9101 41.9841 34.4783 41.3298 33.4876C40.6756 32.497 39.8619 31.7797 38.8892 31.3306C37.9115 30.8761 36.8361 30.6095 35.6579 30.5253C34.4797 30.4411 33.3999 30.367 32.4137 30.2975C31.4324 30.2335 30.5949 30.1037 29.9271 29.9145C29.2541 29.725 28.9211 29.297 28.9388 28.6208C28.9441 28.3033 29.0264 28.0105 29.1802 27.742C29.2939 27.5497 29.4485 27.3698 29.6391 27.2021C30.0966 26.7976 30.6625 26.5182 31.3532 26.3491C31.9013 26.2199 32.4492 26.2001 32.9914 26.2946C33.5337 26.389 34.0245 26.5747 34.4588 26.8513C34.8983 27.1282 35.2653 27.5006 35.5704 27.9688C35.6723 28.1196 35.758 28.2853 35.833 28.4557L35.3613 29.146L36.1409 29.6012L41.6919 28.2604L41.9005 18.3325L41.1259 17.8776L40.6931 18.6271Z" fill="url(#paint7_linear_40_114)" />
	<path d="M19.6678 26.6162C19.4967 26.9151 19.3306 27.2194 19.1848 27.5351C18.6382 28.6905 18.3525 29.9422 18.3276 31.29C18.2946 33.1218 18.5953 34.5222 19.2407 35.4811C19.8861 36.4401 20.6899 37.1465 21.6517 37.6055C22.6138 38.0592 23.6681 38.33 24.8154 38.4074C25.9625 38.4901 27.0216 38.5631 27.9922 38.6318C28.9686 38.6904 29.7794 38.8294 30.4353 39.0493C31.0859 39.2689 31.4026 39.7116 31.39 40.3881C31.3879 40.6432 31.3019 40.9099 31.1426 41.1833C31.0463 41.34 30.934 41.5012 30.785 41.6709C30.3933 42.1151 29.7836 42.4392 28.9508 42.6377C27.7435 42.9324 26.6572 42.7798 25.7024 42.1806C24.7475 41.5813 24.1353 40.5823 23.8554 39.183L18.3625 40.5059L18.1526 50.6733L23.6402 49.3502L23.6747 47.7007C24.9828 48.2132 26.2507 48.4841 27.4834 48.5189L27.3891 52.7541L31.6748 51.7207L31.7559 47.8598C33.0191 47.4898 34.2357 47.0029 35.4018 46.3833C36.557 45.7736 37.584 45.0169 38.4818 44.1341C39.1446 43.474 39.712 42.7416 40.1838 41.9419C40.3431 41.6685 40.4923 41.3894 40.6267 41.0939C41.1619 39.9587 41.4427 38.7017 41.4693 37.3175C41.5094 35.4495 41.2047 34.023 40.5504 33.0323C39.8958 32.0468 39.0826 31.3243 38.1099 30.8753C37.1322 30.4208 36.0568 30.1541 34.8786 30.07C33.7001 29.991 32.6206 29.9117 31.6344 29.8422C30.6531 29.7782 29.8156 29.6483 29.1426 29.4588C28.4696 29.2694 28.1418 28.8417 28.1543 28.1652C28.1598 27.8425 28.2472 27.5499 28.4008 27.2867C28.5145 27.0943 28.664 26.9142 28.8598 26.7468C29.3173 26.3423 29.8833 26.0629 30.5737 25.899C31.1218 25.7698 31.6699 25.7447 32.2119 25.8444C32.7539 25.9441 33.2447 26.1298 33.679 26.4064C34.1187 26.6781 34.4855 27.0556 34.7906 27.5238C35.0961 27.9816 35.2879 28.5276 35.3561 29.1508L40.9123 27.8102L41.1208 17.8824L35.5648 19.2229L35.5335 20.9142C35.1715 20.7557 34.7205 20.6032 34.1704 20.4563C33.6307 20.3099 33.0156 20.217 32.331 20.1572L32.4297 15.6201L28.1444 16.6483L28.0639 20.6029C26.7934 20.9101 25.5768 21.3918 24.4139 22.0532C23.251 22.7146 22.2226 23.5025 21.3282 24.422C20.6909 25.0937 20.1286 25.8264 19.6678 26.6162Z" fill="url(#paint8_linear_40_114)" />
	<path d="M31.1475 41.1842C31.0512 41.3409 30.9391 41.502 30.7901 41.6718C30.3984 42.116 29.7886 42.4401 28.9559 42.6386C28.0704 42.8502 27.259 42.8258 26.5062 42.5647C23.7632 43.1585 20.997 43.3762 18.311 43.3427L18.1576 50.6742L23.6452 49.351L23.6797 47.7016C24.9879 48.2141 26.2557 48.485 27.4885 48.5198L27.3941 52.755L31.6797 51.7215L31.7608 47.8607C33.024 47.4907 34.2408 47.0038 35.4069 46.3842C36.562 45.7745 37.589 45.0178 38.4868 44.135C39.1496 43.4749 39.7171 42.7425 40.1888 41.9428C40.3482 41.6694 40.4973 41.3902 40.6317 41.0948C41.1669 39.9596 41.4477 38.7026 41.4744 37.3184C41.4905 36.5691 41.4454 35.9002 41.3556 35.2915C37.8969 37.8294 34.4239 39.9134 31.1475 41.1842Z" fill="url(#paint9_linear_40_114)" style="mix-blend-mode:overlay" />
	<defs>
		<linearGradient id="paint0_linear_40_114" x1="9.25741" y1="34.1584" x2="63.4212" y2="41.748" gradientUnits="userSpaceOnUse">
			<stop offset="0.1616" stop-color="#CC7800" />
			<stop offset="0.2072" stop-color="#D07E02" />
			<stop offset="0.2662" stop-color="#DA8E08" />
			<stop offset="0.3325" stop-color="#EAA912" />
			<stop offset="0.3682" stop-color="#F5BA18" />
			<stop offset="0.4286" stop-color="#F1AA1A" />
			<stop offset="0.4743" stop-color="#EE9B1B" />
			<stop offset="0.5407" stop-color="#6B2B00" />
			<stop offset="0.6147" stop-color="#6D3001" />
			<stop offset="0.7067" stop-color="#FEC423" />
			<stop offset="1" stop-color="#8F4E00" />
		</linearGradient>
		<linearGradient id="paint1_linear_40_114" x1="17.9364" y1="67.4781" x2="53.0625" y2="7.45161" gradientUnits="userSpaceOnUse">
			<stop stop-color="#E0A300" />
			<stop offset="0.0833" stop-color="#FFC524" />
			<stop offset="0.1516" stop-color="#FFD759" />
			<stop offset="0.4069" stop-color="#FFF4A5" />
			<stop offset="0.4208" stop-color="#FEF09F" />
			<stop offset="0.4389" stop-color="#FCE68F" />
			<stop offset="0.4592" stop-color="#F9D574" />
			<stop offset="0.4813" stop-color="#F5BD4F" />
			<stop offset="0.5044" stop-color="#EF9E20" />
			<stop offset="0.518" stop-color="#EB8A00" />
			<stop offset="0.5625" stop-color="#AD4300" />
			<stop offset="0.6087" stop-color="#6E3500" />
			<stop offset="0.6515" stop-color="#E09D00" />
			<stop offset="0.6573" stop-color="#E7AA16" />
			<stop offset="0.6672" stop-color="#F2BE37" />
			<stop offset="0.6768" stop-color="#F9CC4E" />
			<stop offset="0.6857" stop-color="#FDD45C" />
			<stop offset="0.6934" stop-color="#FFD761" />
			<stop offset="0.7325" stop-color="#FFD75F" />
			<stop offset="0.7465" stop-color="#FFD558" />
			<stop offset="0.7566" stop-color="#FFD34D" />
			<stop offset="0.7646" stop-color="#FFCF3C" />
			<stop offset="0.7707" stop-color="#FFCB29" />
			<stop offset="0.7818" stop-color="#FBC525" />
			<stop offset="0.7968" stop-color="#F0B41A" />
			<stop offset="0.8139" stop-color="#DE9808" />
			<stop offset="0.8205" stop-color="#D68B00" />
			<stop offset="0.8228" stop-color="#DD9B16" />
			<stop offset="0.8268" stop-color="#E7B133" />
			<stop offset="0.8311" stop-color="#F0C34B" />
			<stop offset="0.8361" stop-color="#F6D15E" />
			<stop offset="0.8419" stop-color="#FBDB6B" />
			<stop offset="0.8493" stop-color="#FDE073" />
			<stop offset="0.8644" stop-color="#FEE275" />
			<stop offset="0.9367" stop-color="#FEE47E" />
			<stop offset="1" stop-color="#FED94B" />
		</linearGradient>
		<linearGradient id="paint2_linear_40_114" x1="3.17454" y1="30.8138" x2="58.3043" y2="38.5387" gradientUnits="userSpaceOnUse">
			<stop offset="0.1616" stop-color="#FFF8C7" />
			<stop offset="0.1986" stop-color="#FFF6C1" />
			<stop offset="0.2466" stop-color="#FEF0B1" />
			<stop offset="0.3007" stop-color="#FEE696" />
			<stop offset="0.3593" stop-color="#FDD871" />
			<stop offset="0.4207" stop-color="#FCC641" />
			<stop offset="0.469" stop-color="#FBB617" />
			<stop offset="0.541" stop-color="#A26009" />
			<stop offset="0.5826" stop-color="#6C2D00" />
			<stop offset="0.6342" stop-color="#6D3001" />
			<stop offset="0.6719" stop-color="#BA7D11" />
			<stop offset="0.7035" stop-color="#FDC120" />
			<stop offset="0.8149" stop-color="#DB9204" />
			<stop offset="0.8202" stop-color="#E09D12" />
			<stop offset="0.8332" stop-color="#EBB52F" />
			<stop offset="0.8469" stop-color="#F3C746" />
			<stop offset="0.8618" stop-color="#F9D456" />
			<stop offset="0.8784" stop-color="#FDDC60" />
			<stop offset="0.9005" stop-color="#FEDE63" />
			<stop offset="1" stop-color="#FBC543" />
		</linearGradient>
		<linearGradient id="paint3_linear_40_114" x1="7.30473" y1="30.6763" x2="50.9677" y2="36.7944" gradientUnits="userSpaceOnUse">
			<stop offset="0.1616" stop-color="#BA6D00" />
			<stop offset="0.2364" stop-color="#B46800" />
			<stop offset="0.3334" stop-color="#A45B00" />
			<stop offset="0.4422" stop-color="#894400" />
			<stop offset="0.5407" stop-color="#6B2B00" />
			<stop offset="0.6147" stop-color="#6D3001" />
			<stop offset="0.7067" stop-color="#FEBB00" />
			<stop offset="1" stop-color="#6B3B00" />
		</linearGradient>
		<radialGradient id="paint4_radial_40_114" cx="0" cy="0" r="1" gradientUnits="userSpaceOnUse" gradientTransform="translate(30.7422 34.6767) rotate(7.97645) scale(24.1461)">
			<stop stop-color="#FEDE6D" />
			<stop offset="1" stop-color="#EBA719" />
		</radialGradient>
		<linearGradient id="paint5_linear_40_114" x1="34.3698" y1="2.34802" x2="25.514" y2="65.5483" gradientUnits="userSpaceOnUse">
			<stop stop-color="#FFDB66" />
			<stop offset="0.4069" stop-color="#FFEF7F" />
			<stop offset="0.4612" stop-color="#FFED79" />
			<stop offset="0.5317" stop-color="#FFE769" />
			<stop offset="0.6112" stop-color="#FFDD4E" />
			<stop offset="0.6965" stop-color="#FFD029" />
			<stop offset="0.7707" stop-color="#FFC203" />
			<stop offset="0.8644" stop-color="#FEDA4F" />
			<stop offset="0.9367" stop-color="#FEDC58" />
		</linearGradient>
		<linearGradient id="paint6_linear_40_114" x1="36.8182" y1="59.3352" x2="31.273" y2="39.3032" gradientUnits="userSpaceOnUse">
			<stop stop-color="#919191" />
			<stop offset="0.9972" />
		</linearGradient>
		<linearGradient id="paint7_linear_40_114" x1="8.7803" y1="22.0701" x2="52.053" y2="47.3922" gradientUnits="userSpaceOnUse">
			<stop offset="0.1616" stop-color="#AD6600" />
			<stop offset="0.2452" stop-color="#A76100" />
			<stop offset="0.3535" stop-color="#975200" />
			<stop offset="0.4751" stop-color="#7C3B00" />
			<stop offset="0.5407" stop-color="#6B2B00" />
			<stop offset="0.6147" stop-color="#6D3001" />
			<stop offset="0.7067" stop-color="#8A4700" />
			<stop offset="1" stop-color="#6B3B00" />
		</linearGradient>
		<linearGradient id="paint8_linear_40_114" x1="8.00481" y1="21.6158" x2="51.2753" y2="46.9367" gradientUnits="userSpaceOnUse">
			<stop stop-color="#FFE48C" />
			<stop offset="0.4069" stop-color="#FFF4A5" />
			<stop offset="0.4612" stop-color="#FFF29F" />
			<stop offset="0.5317" stop-color="#FFED8F" />
			<stop offset="0.6112" stop-color="#FFE474" />
			<stop offset="0.6965" stop-color="#FFD84F" />
			<stop offset="0.7707" stop-color="#FFCB29" />
			<stop offset="0.8644" stop-color="#FEE275" />
			<stop offset="0.9367" stop-color="#FEE47E" />
		</linearGradient>
		<linearGradient id="paint9_linear_40_114" x1="31.0508" y1="49.5823" x2="29.246" y2="40.3741" gradientUnits="userSpaceOnUse">
			<stop stop-color="#919191" />
			<stop offset="0.9972" />
		</linearGradient>
	</defs>
</svg>
