<svg width="197" height="124" viewBox="0 0 197 124" fill="none" xmlns="http://www.w3.org/2000/svg">
	<path d="M93.0409 87.7004C143.49 98.0814 188.097 88.5679 192.658 66.4503C197.21 44.3235 159.978 17.9725 109.528 7.59153C59.0529 -2.7995 14.454 6.72301 9.89354 28.8406C5.35068 50.9591 42.5655 77.3094 93.0409 87.7004Z" fill="url(#paint0_linear_40_92)" />
	<path d="M15.7801 56.1964C29.39 71.6276 57.6653 85.9285 91.9569 92.9788C126.24 100.029 157.852 98.0572 176.453 89.2558L189.036 91.854L193.416 70.5484C193.428 70.4784 193.449 70.4088 193.47 70.3392C193.483 70.2604 193.495 70.1904 193.507 70.1204L193.564 69.876L193.555 69.8755C197.564 47.4748 159.889 20.978 108.933 10.4927C57.9851 0.00772411 12.9216 9.46328 7.73325 31.6029L7.71578 31.602L3.1868 53.6153L15.7801 56.1964Z" fill="url(#paint1_linear_40_92)" />
	<path d="M87.7361 113.462C139.05 124.027 184.407 114.356 189.031 91.8533C193.663 69.3596 155.808 42.5628 104.503 31.9896C53.1704 21.4327 7.81373 31.1033 3.19011 53.6062C-1.44189 76.0999 36.4125 102.905 87.7361 113.462Z" fill="url(#paint2_linear_40_92)" />
	<path d="M16.423 60.0229C20.2079 41.6364 58.6317 33.9984 102.239 42.9736C145.837 51.9484 178.128 74.1274 174.334 92.5223C170.54 110.917 132.134 118.547 88.5273 109.572C44.9205 100.597 12.6469 78.4099 16.423 60.0229Z" fill="url(#paint3_linear_40_92)" />
	<path d="M23.7885 58.8172C27.2816 41.8729 62.3947 34.7777 102.235 42.9756C142.067 51.1731 171.534 71.5621 168.041 88.5064C164.556 105.451 129.434 112.546 89.6027 104.348C49.771 96.1509 20.3042 75.762 23.7885 58.8172Z" fill="url(#paint4_radial_40_92)" />
	<path d="M102.039 43.9796C141.871 52.1771 171.247 72.9765 167.649 90.4365C164.05 107.905 128.846 115.411 89.0235 107.214C49.1831 99.0159 19.7978 78.2249 23.3963 60.7561C26.9942 43.2962 62.1986 35.7817 102.039 43.9796ZM87.2923 115.647C137.741 126.037 182.349 116.515 186.9 94.3965C191.461 72.2789 154.229 45.919 103.771 35.5377C53.3042 25.1471 8.70536 34.6696 4.14489 56.7872C-0.406777 78.9052 36.8168 105.256 87.2923 115.647Z" fill="url(#paint5_linear_40_92)" />
	<path d="M84.2783 95.2836L98.0161 98.1064L99.0386 93.1251C103.102 93.9612 107.021 94.5076 110.821 94.7922C114.62 95.068 118.02 95.0504 121.037 94.7402C124.027 94.4287 126.495 93.7912 128.431 92.845C130.358 91.8985 131.5 90.5689 131.849 88.8647C132.326 86.5401 131.651 84.4677 129.783 82.6101C127.932 80.762 125.535 79.0725 122.582 77.5585C119.628 76.0533 116.333 74.6813 112.729 73.4707C109.126 72.2513 105.791 71.1245 102.743 70.1178C99.6859 69.0931 97.1382 68.1288 95.1264 67.2174C93.1057 66.3056 92.1694 65.4208 92.3524 64.5735C92.4573 64.0579 93.1721 63.7048 94.4964 63.5229C95.8387 63.3331 97.8337 63.511 100.499 64.0574C104.371 64.8486 107.761 66.0929 110.67 67.7813C113.553 69.4684 115.314 71.3473 115.928 73.4079L133.519 77.03L136.155 64.2187L118.573 60.5882L118.144 62.6592C114.107 60.7475 110.159 59.1668 106.283 57.9339L107.377 52.5942L93.6388 49.7713L92.6395 54.639C88.5632 53.8818 84.6354 53.3348 80.8469 53.0067C77.0681 52.6613 73.6707 52.635 70.6915 52.9029C67.6853 53.1783 65.2368 53.7813 63.3283 54.7112C61.4193 55.6498 60.2852 56.9887 59.9341 58.7369C59.4473 61.0875 60.1371 63.2136 62.003 65.1153C63.8693 67.0082 66.3091 68.7264 69.3063 70.2425C72.3031 71.7675 75.6419 73.1593 79.3412 74.4011C83.0405 75.6429 86.4271 76.781 89.527 77.8255C92.6362 78.8617 95.2366 79.8287 97.3198 80.7259C99.4206 81.624 100.375 82.5009 100.201 83.3398C100.061 84.0303 99.2389 84.4134 97.7169 84.4884C96.2041 84.555 94.3337 84.3567 92.1315 83.9038C90.3657 83.5519 88.6428 83.0432 86.9362 82.3852C85.2288 81.7448 83.7194 81.0259 82.3985 80.2457C81.0947 79.4751 79.9882 78.6437 79.1145 77.7443C78.2408 76.845 77.7361 75.9814 77.6382 75.1027L59.8452 71.453L57.2678 83.9757L75.0605 87.6254L75.4925 85.4929C76.6125 86.0513 78.0112 86.6852 79.6803 87.3855C81.3667 88.0955 83.2993 88.8264 85.444 89.5501L84.2783 95.2836Z" fill="url(#paint6_linear_40_92)" />
	<path d="M84.3526 94.917L98.0902 97.7399L99.121 92.7678C103.176 93.5947 107.104 94.1505 110.904 94.4262C114.703 94.7108 118.103 94.6843 121.111 94.3736C124.101 94.0709 126.569 93.4336 128.505 92.4786C130.441 91.5325 131.583 90.2029 131.932 88.4987C132.408 86.1829 131.725 84.1012 129.866 82.2439C128.015 80.3959 125.618 78.7152 122.664 77.2012C119.702 75.6868 116.415 74.3153 112.803 73.1042C109.199 71.8936 105.874 70.7673 102.826 69.7518C99.76 68.7266 97.2207 67.7716 95.2092 66.8514C93.1798 65.9391 92.2522 65.0547 92.426 64.2158C92.5397 63.7006 93.255 63.3386 94.5793 63.1568C95.9124 62.9754 97.9168 63.145 100.582 63.6914C104.445 64.491 107.844 65.7268 110.744 67.4147C113.636 69.111 115.397 70.9899 116.01 73.0417L133.593 76.6634L136.238 63.8527L118.647 60.2305L118.227 62.3019C114.19 60.3814 110.234 58.8003 106.357 57.5674L107.459 52.237L93.7219 49.4053L92.7222 54.2818C88.6371 53.5241 84.7185 52.9687 80.9301 52.6406C77.1416 52.3124 73.7538 52.269 70.7657 52.5364C67.7684 52.8123 65.3199 53.4152 63.4026 54.3446C61.5024 55.2837 60.3683 56.6226 60.0172 58.3707C59.5301 60.7302 60.2112 62.8471 62.0859 64.7492C63.9522 66.6421 66.3835 68.3599 69.3891 69.8853C72.3858 71.4102 75.7248 72.7932 79.4241 74.035C83.1233 75.2768 86.5096 76.4237 89.6099 77.4594C92.7098 78.5039 95.3193 79.4713 97.4029 80.3598C99.5037 81.2579 100.449 82.1344 100.284 82.9737C100.144 83.6641 99.313 84.0468 97.7998 84.1222C96.2865 84.1976 94.4161 83.9995 92.2051 83.5461C90.4485 83.1858 88.7171 82.6767 87.0101 82.0275C85.3119 81.3788 83.8023 80.6598 82.4809 79.8884C81.1688 79.1086 80.0623 78.2773 79.1974 77.3783C78.3145 76.4873 77.8189 75.6153 77.7118 74.745L59.9284 71.0869L57.3507 83.6097L75.1343 87.2677L75.5749 85.1356C76.695 85.6941 78.0943 86.3191 79.7635 87.0194C81.4499 87.7294 83.3821 88.4604 85.5268 89.1841L84.3526 94.917Z" fill="url(#paint7_linear_40_92)" />
	<path d="M83.9452 96.9183L97.6828 99.7411L98.7055 94.7599C102.769 95.596 106.688 96.1513 110.488 96.427C114.287 96.7028 117.696 96.6855 120.704 96.3749C123.694 96.0634 126.161 95.4348 128.098 94.4799C130.033 93.5337 131.176 92.2042 131.516 90.4996C131.992 88.1837 131.318 86.1024 129.45 84.2447C127.608 82.3972 125.201 80.716 122.248 79.2021C119.295 77.6881 116 76.316 112.396 75.1054C108.793 73.886 105.467 72.7598 102.409 71.7526C99.3526 70.7279 96.8049 69.7635 94.793 68.8521C92.7724 67.9402 91.8364 67.0555 92.019 66.2171C92.1243 65.6926 92.8479 65.3399 94.1634 65.1576C95.5053 64.9767 97.5006 65.1457 100.166 65.6921C104.038 66.4834 107.428 67.7276 110.337 69.416C113.229 71.1035 114.981 72.982 115.595 75.0426L133.186 78.6647L135.83 65.8539L118.24 62.2231L117.81 64.3028C113.774 62.3822 109.826 60.8015 105.95 59.5686L107.052 54.2294L93.3146 51.4064L92.3064 56.2737C88.2301 55.5165 84.3112 54.97 80.5227 54.6418C76.7351 54.2961 73.3377 54.2697 70.3584 54.5376C67.3611 54.8134 64.9125 55.4165 62.9952 56.3459C61.0863 57.2845 59.9609 58.6238 59.601 60.3716C59.1231 62.7226 59.8038 64.8483 61.6697 66.75C63.5448 68.6434 65.9761 70.3611 68.9817 71.8865C71.9785 73.4115 75.3177 74.7944 79.0081 76.0358C82.7074 77.2777 86.0941 78.4157 89.194 79.4603C92.3027 80.5052 94.9036 81.4634 96.9956 82.3611C99.0876 83.2588 100.042 84.1356 99.8769 84.9749C99.7281 85.665 98.9059 86.0481 97.3838 86.1231C95.871 86.1897 93.9999 86.0003 91.7977 85.5474C90.0412 85.187 88.3097 84.6779 86.6032 84.0199C84.8957 83.3795 83.3864 82.6607 82.0654 81.8805C80.7616 81.11 79.6554 80.2696 78.7812 79.379C77.9075 78.4796 77.4118 77.6166 77.3051 76.7374L59.521 73.0881L56.9433 85.6109L74.7274 89.2602L75.1594 87.1276C76.2883 87.6865 77.6782 88.3199 79.3562 89.0207C81.0425 89.7306 82.9663 90.4611 85.1198 91.1853L83.9452 96.9183Z" fill="url(#paint8_linear_40_92)" />
	<path d="M44.8857 32.5625C49.6106 35.3821 54.3579 38.2824 59.0679 41.2248C71.6119 39.9723 86.4736 40.7673 102.037 43.9716C141.869 52.1691 171.245 72.9684 167.647 90.4284C165.477 100.959 151.807 107.858 132.568 109.893C134.379 113.266 135.906 116.493 137.205 119.505C164.333 117.692 183.961 108.668 186.899 94.3885C191.459 72.2709 154.227 45.9109 103.769 35.5295C82.1663 31.0916 61.6549 30.3002 44.8857 32.5625Z" fill="url(#paint9_linear_40_92)" style="mix-blend-mode:overlay" />
	<defs>
		<linearGradient id="paint0_linear_40_92" x1="9.0416" y1="34.7086" x2="193.52" y2="60.558" gradientUnits="userSpaceOnUse">
			<stop offset="0.1616" stop-color="#CC7800" />
			<stop offset="0.2072" stop-color="#D07E02" />
			<stop offset="0.2662" stop-color="#DA8E08" />
			<stop offset="0.3325" stop-color="#EAA912" />
			<stop offset="0.3682" stop-color="#F5BA18" />
			<stop offset="0.4286" stop-color="#F1AA1A" />
			<stop offset="0.4743" stop-color="#EE9B1B" />
			<stop offset="0.5407" stop-color="#6B2B00" />
			<stop offset="0.6147" stop-color="#6D3001" />
			<stop offset="0.7067" stop-color="#FEC423" />
			<stop offset="1" stop-color="#8F4E00" />
		</linearGradient>
		<linearGradient id="paint1_linear_40_92" x1="193.359" y1="70.8596" x2="7.50593" y2="32.6036" gradientUnits="userSpaceOnUse">
			<stop stop-color="#E0A300" />
			<stop offset="0.0833" stop-color="#FFC524" />
			<stop offset="0.1516" stop-color="#FFD759" />
			<stop offset="0.4069" stop-color="#FFF4A5" />
			<stop offset="0.4208" stop-color="#FEF09F" />
			<stop offset="0.4389" stop-color="#FCE68F" />
			<stop offset="0.4592" stop-color="#F9D574" />
			<stop offset="0.4813" stop-color="#F5BD4F" />
			<stop offset="0.5044" stop-color="#EF9E20" />
			<stop offset="0.518" stop-color="#EB8A00" />
			<stop offset="0.5625" stop-color="#AD4300" />
			<stop offset="0.6087" stop-color="#6E3500" />
			<stop offset="0.6515" stop-color="#E09D00" />
			<stop offset="0.6573" stop-color="#E7AA16" />
			<stop offset="0.6672" stop-color="#F2BE37" />
			<stop offset="0.6768" stop-color="#F9CC4E" />
			<stop offset="0.6857" stop-color="#FDD45C" />
			<stop offset="0.6934" stop-color="#FFD761" />
			<stop offset="0.7325" stop-color="#FFD75F" />
			<stop offset="0.7465" stop-color="#FFD558" />
			<stop offset="0.7566" stop-color="#FFD34D" />
			<stop offset="0.7646" stop-color="#FFCF3C" />
			<stop offset="0.7707" stop-color="#FFCB29" />
			<stop offset="0.7818" stop-color="#FBC525" />
			<stop offset="0.7968" stop-color="#F0B41A" />
			<stop offset="0.8139" stop-color="#DE9808" />
			<stop offset="0.8205" stop-color="#D68B00" />
			<stop offset="0.8228" stop-color="#DD9B16" />
			<stop offset="0.8268" stop-color="#E7B133" />
			<stop offset="0.8311" stop-color="#F0C34B" />
			<stop offset="0.8361" stop-color="#F6D15E" />
			<stop offset="0.8419" stop-color="#FBDB6B" />
			<stop offset="0.8493" stop-color="#FDE073" />
			<stop offset="0.8644" stop-color="#FEE275" />
			<stop offset="0.9367" stop-color="#FEE47E" />
			<stop offset="1" stop-color="#FED94B" />
		</linearGradient>
		<linearGradient id="paint2_linear_40_92" x1="2.32097" y1="59.5896" x2="189.912" y2="85.8752" gradientUnits="userSpaceOnUse">
			<stop offset="0.1616" stop-color="#FFF8C7" />
			<stop offset="0.1986" stop-color="#FFF6C1" />
			<stop offset="0.2466" stop-color="#FEF0B1" />
			<stop offset="0.3007" stop-color="#FEE696" />
			<stop offset="0.3593" stop-color="#FDD871" />
			<stop offset="0.4207" stop-color="#FCC641" />
			<stop offset="0.469" stop-color="#FBB617" />
			<stop offset="0.541" stop-color="#A26009" />
			<stop offset="0.5826" stop-color="#6C2D00" />
			<stop offset="0.6342" stop-color="#6D3001" />
			<stop offset="0.6719" stop-color="#BA7D11" />
			<stop offset="0.7035" stop-color="#FDC120" />
			<stop offset="0.8149" stop-color="#DB9204" />
			<stop offset="0.8202" stop-color="#E09D12" />
			<stop offset="0.8332" stop-color="#EBB52F" />
			<stop offset="0.8469" stop-color="#F3C746" />
			<stop offset="0.8618" stop-color="#F9D456" />
			<stop offset="0.8784" stop-color="#FDDC60" />
			<stop offset="0.9005" stop-color="#FEDE63" />
			<stop offset="1" stop-color="#FBC543" />
		</linearGradient>
		<linearGradient id="paint3_linear_40_92" x1="174.329" y1="92.5206" x2="16.4085" y2="60.0287" gradientUnits="userSpaceOnUse">
			<stop offset="0.1616" stop-color="#BA6D00" />
			<stop offset="0.2364" stop-color="#B46800" />
			<stop offset="0.3334" stop-color="#A45B00" />
			<stop offset="0.4422" stop-color="#894400" />
			<stop offset="0.5407" stop-color="#6B2B00" />
			<stop offset="0.6147" stop-color="#6D3001" />
			<stop offset="0.7067" stop-color="#FEBB00" />
			<stop offset="1" stop-color="#6B3B00" />
		</linearGradient>
		<radialGradient id="paint4_radial_40_92" cx="0" cy="0" r="1" gradientUnits="userSpaceOnUse" gradientTransform="translate(95.9209 73.6576) rotate(-168.371) scale(73.6534 31.3319)">
			<stop stop-color="#FEDE6D" />
			<stop offset="1" stop-color="#EBA719" />
		</radialGradient>
		<linearGradient id="paint5_linear_40_92" x1="101.203" y1="35.0924" x2="89.7234" y2="117.019" gradientUnits="userSpaceOnUse">
			<stop stop-color="#FFD651" />
			<stop offset="0.4069" stop-color="#FFEC60" />
			<stop offset="0.4829" stop-color="#FFE95A" />
			<stop offset="0.5815" stop-color="#FFE14A" />
			<stop offset="0.692" stop-color="#FFD32F" />
			<stop offset="0.7707" stop-color="#FFC718" />
			<stop offset="0.8644" stop-color="#FED844" />
			<stop offset="0.9367" stop-color="#FED949" />
		</linearGradient>
		<linearGradient id="paint6_linear_40_92" x1="135.177" y1="82.0381" x2="58.092" y2="66.1711" gradientUnits="userSpaceOnUse">
			<stop offset="0.1616" stop-color="#BA6D00" />
			<stop offset="0.2364" stop-color="#B46800" />
			<stop offset="0.3334" stop-color="#A45B00" />
			<stop offset="0.4422" stop-color="#894400" />
			<stop offset="0.5407" stop-color="#6B2B00" />
			<stop offset="0.6147" stop-color="#6D3001" />
			<stop offset="0.7067" stop-color="#CF7C00" />
			<stop offset="1" stop-color="#6B3B00" />
		</linearGradient>
		<linearGradient id="paint7_linear_40_92" x1="135.263" y1="81.6779" x2="58.1783" y2="65.8108" gradientUnits="userSpaceOnUse">
			<stop offset="0.1616" stop-color="#BA6D00" />
			<stop offset="0.2364" stop-color="#B46800" />
			<stop offset="0.3334" stop-color="#A45B00" />
			<stop offset="0.4422" stop-color="#894400" />
			<stop offset="0.5407" stop-color="#6B2B00" />
			<stop offset="0.6147" stop-color="#6D3001" />
			<stop offset="0.7067" stop-color="#CF7C00" />
			<stop offset="1" stop-color="#6B3B00" />
		</linearGradient>
		<linearGradient id="paint8_linear_40_92" x1="87.3527" y1="115.298" x2="103.89" y2="34.9565" gradientUnits="userSpaceOnUse">
			<stop stop-color="#FFE48C" />
			<stop offset="0.4069" stop-color="#FFF4A5" />
			<stop offset="0.4612" stop-color="#FFF29F" />
			<stop offset="0.5317" stop-color="#FFED8F" />
			<stop offset="0.6112" stop-color="#FFE474" />
			<stop offset="0.6965" stop-color="#FFD84F" />
			<stop offset="0.7707" stop-color="#FFCB29" />
			<stop offset="0.8644" stop-color="#FEE275" />
			<stop offset="0.9367" stop-color="#FEE47E" />
		</linearGradient>
		<linearGradient id="paint9_linear_40_92" x1="159.952" y1="44.4419" x2="108.211" y2="72.0034" gradientUnits="userSpaceOnUse">
			<stop stop-color="#919191" />
			<stop offset="0.9972" />
		</linearGradient>
	</defs>
</svg>
