<svg width="44" height="47" viewBox="0 0 44 47" fill="none" xmlns="http://www.w3.org/2000/svg">
	<path d="M9.0477 16.206C6.73948 20.1495 5.33056 24.6675 5.2356 29.2095C4.99735 40.5816 13.0719 47.8035 23.2752 45.3505C29.3967 43.8753 34.8959 39.2431 38.3655 33.3179C40.6737 29.3744 42.0826 24.8564 42.1777 20.311C42.4158 8.9423 34.338 1.71686 24.1377 4.17679C18.013 5.64845 12.5173 10.2808 9.0477 16.206Z" fill="url(#paint0_linear_21_347)" />
	<path d="M34.7364 4.93094L31.5092 3.05223L31.2604 3.47833C28.9356 2.8675 26.3412 2.83124 23.5967 3.4944C17.3619 4.99461 11.767 9.70706 8.2414 15.7348C5.89238 19.7476 4.45925 24.346 4.36366 28.9696C4.25195 34.3332 5.95565 38.7838 8.84947 41.7743L8.59707 42.207L11.6951 44.0181L11.7054 44.0187C14.7637 45.8109 18.5714 46.3929 22.7224 45.3914C28.9573 43.8912 34.5522 39.1787 38.0814 33.1478C40.4304 29.1349 41.8602 24.5364 41.956 19.9094C42.0982 13.0318 39.2512 7.64454 34.7364 4.93094Z" fill="url(#paint1_linear_21_347)" />
	<path d="M5.13653 13.917C2.7875 17.9298 1.35427 22.5282 1.25868 27.1518C1.01734 38.7242 9.23499 46.0755 19.6207 43.5771C25.8558 42.0735 31.447 37.3643 34.9762 31.3334C37.3252 27.3205 38.7584 22.7221 38.854 18.0985C39.0951 6.52951 30.8776 -0.825144 20.4918 1.67661C14.2604 3.17359 8.66573 7.88605 5.13653 13.917Z" fill="url(#paint2_linear_21_347)" />
	<path d="M7.19278 15.1121C5.32998 18.2927 4.1955 21.9339 4.12013 25.5968C3.92602 34.7656 10.4386 40.5852 18.6611 38.6087C23.5996 37.4184 28.0313 33.6884 30.8259 28.9091C32.6851 25.7318 33.8199 22.0872 33.8952 18.4243C34.0892 9.25885 27.5768 3.43591 19.3541 5.41573C14.4192 6.60287 9.98723 10.3363 7.19278 15.1121Z" fill="url(#paint3_linear_21_347)" />
	<path d="M8.40015 15.8212C6.56682 18.9556 5.44836 22.5467 5.37194 26.1619C5.18079 35.2018 11.6054 40.9457 19.7113 38.9907C24.581 37.8173 28.9492 34.1351 31.7098 29.4255C33.5431 26.2911 34.6617 22.6967 34.738 19.0848C34.929 10.0484 28.5045 4.30112 20.3986 6.25612C15.5256 7.42933 11.1574 11.1115 8.40015 15.8212Z" fill="url(#paint4_radial_21_347)" />
	<path d="M31.1652 29.1094C28.408 33.8192 24.0364 37.5012 19.1669 38.6712C11.0578 40.6226 4.63668 34.8789 4.82765 25.8425C4.90391 22.2306 6.02254 18.6362 7.85587 15.5018C10.6131 10.792 14.9811 7.11323 19.8508 5.93986C27.9599 3.98842 34.3812 9.72867 34.1935 18.7687C34.1206 22.3808 33.0021 25.9718 31.1652 29.1094ZM4.74431 13.6865C2.42102 17.6599 1.00033 22.2113 0.907081 26.7874C0.66804 38.2444 8.80466 45.5169 19.077 43.0436C25.2466 41.5571 30.7811 36.8961 34.2768 30.9247C36.6035 26.9515 38.0208 22.3999 38.114 17.8238C38.3527 6.37355 30.2164 -0.905747 19.9439 1.57101C13.7743 3.05745 8.23982 7.71853 4.74431 13.6865Z" fill="url(#paint5_linear_21_347)" />
	<path d="M34.1381 16.938C34.187 17.5317 34.2079 18.141 34.1973 18.7691C34.1211 22.381 33.0024 25.9754 31.1691 29.1098C28.4119 33.8196 24.0403 37.5016 19.1708 38.6716C11.5121 40.5161 5.36779 35.4963 4.86019 27.3259C3.41641 26.9726 2.09139 26.5538 0.932984 26.133C0.92228 26.35 0.911624 26.567 0.907533 26.7876C0.668492 38.2446 8.80511 45.5172 19.0774 43.0438C25.2471 41.5574 30.7816 36.8963 34.2773 30.9249C36.6039 26.9517 38.0212 22.4001 38.1145 17.824C38.1453 16.2352 38.0155 14.7336 37.7419 13.3234C36.6096 14.5079 35.4007 15.7294 34.1381 16.938Z" fill="url(#paint6_linear_21_347)" style="mix-blend-mode:overlay" />
	<path d="M26.5481 12.1523L23.7178 12.8351L23.6973 13.9384C23.4611 13.835 23.167 13.7356 22.8081 13.6397C22.456 13.5442 22.0548 13.4802 21.608 13.4446L21.6725 10.4846L21.1672 10.1878L20.7785 10.6274L20.7784 10.6987L18.8767 11.1554L18.8242 13.7354C17.9953 13.9358 17.205 14.2502 16.4429 14.6815C15.6841 15.1164 15.0164 15.6306 14.4295 16.2303C14.0071 16.6648 13.6404 17.1429 13.3397 17.6581C13.2281 17.8531 13.1197 18.0517 13.0248 18.2543C12.6682 19.0081 12.4818 19.8246 12.4656 20.7039C12.4438 21.9024 12.6403 22.8126 13.0613 23.4383C13.4824 24.0639 14.0067 24.5247 14.6342 24.8242C15.2618 25.1202 15.95 25.2935 16.6983 25.3474C17.4466 25.4013 18.1375 25.449 18.7709 25.4904C19.4079 25.5286 19.9369 25.6193 20.3646 25.7661C20.7891 25.9094 20.9992 26.1984 20.9876 26.6396C20.9862 26.806 20.93 26.98 20.8261 27.1583C20.7633 27.2606 20.69 27.3691 20.5929 27.4765C20.3373 27.7663 19.9395 27.9777 19.396 28.1106C18.6085 28.2995 17.903 28.2035 17.2767 27.8124C16.6571 27.4216 16.2543 26.7697 16.0717 25.8568L15.5664 25.56L15.3288 26.0376L12.4883 26.7198L12.3783 31.9781L11.8425 33.0561L12.3479 33.3529L15.9279 32.4897L15.9538 31.4137C16.8039 31.7479 17.6311 31.9246 18.4353 31.9473L18.3937 33.8924L17.8719 34.4138L18.3772 34.7106L21.1731 34.0364L21.2261 31.5175C22.0501 31.2761 22.844 30.9585 23.6047 30.5543C24.3584 30.1565 25.0317 29.663 25.614 29.0869C26.0464 28.6562 26.4198 28.1819 26.7242 27.6601C26.8282 27.4817 26.9258 27.2962 27.0133 27.1068C27.3626 26.3629 27.5456 25.5461 27.5629 24.6431C27.5889 23.4278 27.3904 22.4937 26.9635 21.8474C26.5367 21.2011 26.0058 20.7331 25.3712 20.4402C24.7334 20.1436 24.0318 19.9697 23.2631 19.9148C22.4945 19.8599 21.79 19.8115 21.1466 19.7662C20.5064 19.7244 19.96 19.6397 19.5244 19.5162C19.0853 19.3926 18.868 19.1134 18.8796 18.6722C18.883 18.4651 18.9367 18.2741 19.0371 18.0989C19.1112 17.9735 19.2121 17.8561 19.3364 17.7467C19.6349 17.4828 20.0041 17.3005 20.4548 17.1902C20.8123 17.1059 21.1697 17.093 21.5235 17.1546C21.8773 17.2162 22.1975 17.3374 22.4808 17.5179C22.7675 17.6985 23.007 17.9414 23.206 18.2469C23.2725 18.3453 23.3285 18.4534 23.3773 18.5645L23.0696 19.0149L23.5783 19.3119L27.1997 18.4371L27.3358 11.9601L26.8305 11.6634L26.5481 12.1523Z" fill="url(#paint7_linear_21_347)" />
	<path d="M12.831 17.3646C12.7194 17.5595 12.611 17.7581 12.5159 17.9641C12.1593 18.7179 11.9729 19.5344 11.9567 20.4138C11.9351 21.6088 12.1313 22.5224 12.5524 23.1481C12.9735 23.7737 13.4978 24.2346 14.1253 24.534C14.753 24.83 15.4408 25.0067 16.1893 25.0572C16.9377 25.1111 17.6286 25.1588 18.2619 25.2036C18.8989 25.2418 19.4279 25.3325 19.8558 25.4759C20.2803 25.6192 20.4868 25.908 20.4786 26.3494C20.4772 26.5158 20.4211 26.6898 20.3172 26.8682C20.2544 26.9704 20.1811 27.0755 20.0839 27.1863C19.8284 27.4761 19.4306 27.6875 18.8873 27.8171C18.0996 28.0093 17.391 27.9097 16.768 27.5188C16.145 27.1279 15.7456 26.4761 15.563 25.5632L11.9795 26.4262L11.8425 33.0595L15.4226 32.1963L15.4451 31.1202C16.2985 31.4545 17.1257 31.6313 17.93 31.6539L17.8684 34.417L20.6644 33.7428L20.7174 31.2239C21.5414 30.9826 22.3352 30.6649 23.0959 30.2607C23.8496 29.8629 24.5196 29.3692 25.1053 28.7933C25.5377 28.3627 25.9079 27.8848 26.2157 27.3631C26.3197 27.1847 26.417 27.0026 26.5047 26.8098C26.8538 26.0693 27.037 25.2492 27.0544 24.3461C27.0805 23.1275 26.8818 22.1968 26.4549 21.5504C26.0279 20.9075 25.4973 20.4361 24.8627 20.1432C24.2249 19.8467 23.5233 19.6727 22.7546 19.6178C21.9858 19.5663 21.2815 19.5146 20.6381 19.4692C19.9979 19.4274 19.4515 19.3427 19.0124 19.2191C18.5734 19.0955 18.3595 18.8165 18.3676 18.3751C18.3712 18.1646 18.4282 17.9737 18.5285 17.802C18.6026 17.6765 18.7002 17.559 18.8279 17.4498C19.1264 17.1858 19.4956 17.0036 19.946 16.8966C20.3036 16.8123 20.6612 16.796 21.0148 16.861C21.3684 16.926 21.6886 17.0472 21.972 17.2277C22.2588 17.4049 22.4982 17.6512 22.6972 17.9567C22.8965 18.2553 23.0216 18.6115 23.0661 19.0181L26.691 18.1435L26.827 11.6666L23.2023 12.5411L23.1818 13.6445C22.9457 13.5411 22.6515 13.4417 22.2926 13.3458C21.9405 13.2503 21.5391 13.1897 21.0925 13.1507L21.1569 10.1906L18.3612 10.8615L18.3087 13.4415C17.4798 13.6418 16.6861 13.9561 15.9274 14.3876C15.1687 14.8191 14.4978 15.3331 13.9143 15.933C13.4985 16.3713 13.1317 16.8493 12.831 17.3646Z" fill="url(#paint8_linear_21_347)" />
	<path d="M20.3208 26.8687C20.258 26.971 20.1848 27.0761 20.0876 27.1869C19.832 27.4767 19.4343 27.6881 18.891 27.8176C18.3133 27.9556 17.7839 27.9397 17.2928 27.7694C15.5032 28.1568 13.6986 28.2988 11.9462 28.2769L11.8461 33.06L15.4263 32.1968L15.4488 31.1207C16.3022 31.4551 17.1294 31.6318 17.9336 31.6545L17.8721 34.4176L20.668 33.7433L20.7209 31.2245C21.545 30.9831 22.3389 30.6655 23.0996 30.2613C23.8532 29.8635 24.5233 29.3698 25.109 28.7938C25.5414 28.3632 25.9116 27.8854 26.2194 27.3636C26.3233 27.1853 26.4207 27.0032 26.5083 26.8104C26.8575 26.0698 27.0407 25.2497 27.0581 24.3467C27.0686 23.8579 27.0392 23.4214 26.9806 23.0244C24.7241 24.6801 22.4583 26.0397 20.3208 26.8687Z" fill="url(#paint9_linear_21_347)" style="mix-blend-mode:overlay" />
	<defs>
		<linearGradient id="paint0_linear_21_347" x1="6.03948" y1="22.2851" x2="41.3761" y2="27.2365" gradientUnits="userSpaceOnUse">
			<stop offset="0.1616" stop-color="#CC7800" />
			<stop offset="0.2072" stop-color="#D07E02" />
			<stop offset="0.2662" stop-color="#DA8E08" />
			<stop offset="0.3325" stop-color="#EAA912" />
			<stop offset="0.3682" stop-color="#F5BA18" />
			<stop offset="0.4286" stop-color="#F1AA1A" />
			<stop offset="0.4743" stop-color="#EE9B1B" />
			<stop offset="0.5407" stop-color="#6B2B00" />
			<stop offset="0.6147" stop-color="#6D3001" />
			<stop offset="0.7067" stop-color="#FEC423" />
			<stop offset="1" stop-color="#8F4E00" />
		</linearGradient>
		<linearGradient id="paint1_linear_21_347" x1="11.7019" y1="44.0231" x2="34.6183" y2="4.86152" gradientUnits="userSpaceOnUse">
			<stop stop-color="#E0A300" />
			<stop offset="0.0833" stop-color="#FFC524" />
			<stop offset="0.1516" stop-color="#FFD759" />
			<stop offset="0.4069" stop-color="#FFF4A5" />
			<stop offset="0.4208" stop-color="#FEF09F" />
			<stop offset="0.4389" stop-color="#FCE68F" />
			<stop offset="0.4592" stop-color="#F9D574" />
			<stop offset="0.4813" stop-color="#F5BD4F" />
			<stop offset="0.5044" stop-color="#EF9E20" />
			<stop offset="0.518" stop-color="#EB8A00" />
			<stop offset="0.5625" stop-color="#AD4300" />
			<stop offset="0.6087" stop-color="#6E3500" />
			<stop offset="0.6515" stop-color="#E09D00" />
			<stop offset="0.6573" stop-color="#E7AA16" />
			<stop offset="0.6672" stop-color="#F2BE37" />
			<stop offset="0.6768" stop-color="#F9CC4E" />
			<stop offset="0.6857" stop-color="#FDD45C" />
			<stop offset="0.6934" stop-color="#FFD761" />
			<stop offset="0.7325" stop-color="#FFD75F" />
			<stop offset="0.7465" stop-color="#FFD558" />
			<stop offset="0.7566" stop-color="#FFD34D" />
			<stop offset="0.7646" stop-color="#FFCF3C" />
			<stop offset="0.7707" stop-color="#FFCB29" />
			<stop offset="0.7818" stop-color="#FBC525" />
			<stop offset="0.7968" stop-color="#F0B41A" />
			<stop offset="0.8139" stop-color="#DE9808" />
			<stop offset="0.8205" stop-color="#D68B00" />
			<stop offset="0.8228" stop-color="#DD9B16" />
			<stop offset="0.8268" stop-color="#E7B133" />
			<stop offset="0.8311" stop-color="#F0C34B" />
			<stop offset="0.8361" stop-color="#F6D15E" />
			<stop offset="0.8419" stop-color="#FBDB6B" />
			<stop offset="0.8493" stop-color="#FDE073" />
			<stop offset="0.8644" stop-color="#FEE275" />
			<stop offset="0.9367" stop-color="#FEE47E" />
			<stop offset="1" stop-color="#FED94B" />
		</linearGradient>
		<linearGradient id="paint2_linear_21_347" x1="2.07075" y1="20.1031" x2="38.0376" y2="25.1428" gradientUnits="userSpaceOnUse">
			<stop offset="0.1616" stop-color="#FFF8C7" />
			<stop offset="0.1986" stop-color="#FFF6C1" />
			<stop offset="0.2466" stop-color="#FEF0B1" />
			<stop offset="0.3007" stop-color="#FEE696" />
			<stop offset="0.3593" stop-color="#FDD871" />
			<stop offset="0.4207" stop-color="#FCC641" />
			<stop offset="0.469" stop-color="#FBB617" />
			<stop offset="0.541" stop-color="#A26009" />
			<stop offset="0.5826" stop-color="#6C2D00" />
			<stop offset="0.6342" stop-color="#6D3001" />
			<stop offset="0.6719" stop-color="#BA7D11" />
			<stop offset="0.7035" stop-color="#FDC120" />
			<stop offset="0.8149" stop-color="#DB9204" />
			<stop offset="0.8202" stop-color="#E09D12" />
			<stop offset="0.8332" stop-color="#EBB52F" />
			<stop offset="0.8469" stop-color="#F3C746" />
			<stop offset="0.8618" stop-color="#F9D456" />
			<stop offset="0.8784" stop-color="#FDDC60" />
			<stop offset="0.9005" stop-color="#FEDE63" />
			<stop offset="1" stop-color="#FBC543" />
		</linearGradient>
		<linearGradient id="paint3_linear_21_347" x1="4.76579" y1="20.0133" x2="33.2517" y2="24.0047" gradientUnits="userSpaceOnUse">
			<stop offset="0.1616" stop-color="#BA6D00" />
			<stop offset="0.2364" stop-color="#B46800" />
			<stop offset="0.3334" stop-color="#A45B00" />
			<stop offset="0.4422" stop-color="#894400" />
			<stop offset="0.5407" stop-color="#6B2B00" />
			<stop offset="0.6147" stop-color="#6D3001" />
			<stop offset="0.7067" stop-color="#FEBB00" />
			<stop offset="1" stop-color="#6B3B00" />
		</linearGradient>
		<radialGradient id="paint4_radial_21_347" cx="0" cy="0" r="1" gradientUnits="userSpaceOnUse" gradientTransform="translate(20.0561 22.6232) rotate(7.97645) scale(15.753)">
			<stop stop-color="#FEDE6D" />
			<stop offset="1" stop-color="#EBA719" />
		</radialGradient>
		<linearGradient id="paint5_linear_21_347" x1="22.4229" y1="1.53186" x2="16.6454" y2="42.764" gradientUnits="userSpaceOnUse">
			<stop stop-color="#FFDB66" />
			<stop offset="0.4069" stop-color="#FFEF7F" />
			<stop offset="0.4612" stop-color="#FFED79" />
			<stop offset="0.5317" stop-color="#FFE769" />
			<stop offset="0.6112" stop-color="#FFDD4E" />
			<stop offset="0.6965" stop-color="#FFD029" />
			<stop offset="0.7707" stop-color="#FFC203" />
			<stop offset="0.8644" stop-color="#FEDA4F" />
			<stop offset="0.9367" stop-color="#FEDC58" />
		</linearGradient>
		<linearGradient id="paint6_linear_21_347" x1="24.0205" y1="38.7105" x2="20.4028" y2="25.6416" gradientUnits="userSpaceOnUse">
			<stop stop-color="#919191" />
			<stop offset="0.9972" />
		</linearGradient>
		<linearGradient id="paint7_linear_21_347" x1="5.72809" y1="14.3985" x2="33.9594" y2="30.9188" gradientUnits="userSpaceOnUse">
			<stop offset="0.1616" stop-color="#AD6600" />
			<stop offset="0.2452" stop-color="#A76100" />
			<stop offset="0.3535" stop-color="#975200" />
			<stop offset="0.4751" stop-color="#7C3B00" />
			<stop offset="0.5407" stop-color="#6B2B00" />
			<stop offset="0.6147" stop-color="#6D3001" />
			<stop offset="0.7067" stop-color="#8A4700" />
			<stop offset="1" stop-color="#6B3B00" />
		</linearGradient>
		<linearGradient id="paint8_linear_21_347" x1="5.22204" y1="14.1023" x2="33.4519" y2="30.6217" gradientUnits="userSpaceOnUse">
			<stop stop-color="#FFE48C" />
			<stop offset="0.4069" stop-color="#FFF4A5" />
			<stop offset="0.4612" stop-color="#FFF29F" />
			<stop offset="0.5317" stop-color="#FFED8F" />
			<stop offset="0.6112" stop-color="#FFE474" />
			<stop offset="0.6965" stop-color="#FFD84F" />
			<stop offset="0.7707" stop-color="#FFCB29" />
			<stop offset="0.8644" stop-color="#FEE275" />
			<stop offset="0.9367" stop-color="#FEE47E" />
		</linearGradient>
		<linearGradient id="paint9_linear_21_347" x1="20.2577" y1="32.3477" x2="19.0803" y2="26.3402" gradientUnits="userSpaceOnUse">
			<stop stop-color="#919191" />
			<stop offset="0.9972" />
		</linearGradient>
	</defs>
</svg>
