<svg width="35" height="35" viewBox="0 0 35 35" fill="none" xmlns="http://www.w3.org/2000/svg">
	<path d="M9.26444 10.7318C8.5574 11.6038 7.94604 12.5779 7.45413 13.6405C4.58038 19.8682 6.97294 26.7841 12.7965 29.0886C17.6278 30.9989 23.3017 29.1375 26.7379 24.8932C27.4452 24.0194 28.0576 23.0446 28.5495 21.982C31.424 15.7553 29.0307 8.8384 23.2079 6.53494C18.3756 4.62536 12.7006 6.48759 9.26444 10.7318Z" fill="url(#paint0_linear_40_140)" />
	<path d="M9.06431 26.6738L9.11062 26.6159C6.00979 23.4152 5.14679 18.2815 7.3319 13.5434C7.82201 12.4804 8.43412 11.5074 9.14147 10.6336C12.5783 6.39041 18.2526 4.52713 23.085 6.43671C23.6807 6.67293 24.239 6.95934 24.7605 7.28587L24.8092 7.2246L25.8695 8.08417L25.8681 8.08673C29.5932 11.193 30.7874 16.7699 28.4276 21.883C27.9364 22.9467 27.324 23.9215 26.6167 24.7953C23.1798 29.0385 17.5077 30.9003 12.6753 28.9907C11.71 28.6077 10.8409 28.0982 10.0723 27.4863L10.072 27.4881L9.06431 26.6738Z" fill="url(#paint1_linear_40_140)" />
	<path d="M8.08562 9.77852C7.37858 10.6505 6.76619 11.6254 6.27533 12.6873C3.40264 18.9142 5.79412 25.8308 11.6176 28.1353C16.449 30.0457 22.1229 28.1842 25.5591 23.94C26.2671 23.0672 26.8788 22.0913 27.3689 21.0284C30.2441 14.8028 27.8508 7.88586 22.0291 5.58166C17.196 3.67102 11.521 5.53324 8.08562 9.77852Z" fill="url(#paint2_linear_40_140)" />
	<path d="M9.60518 11.0044C7.66453 13.3998 6.74015 16.5653 7.37455 19.6024C8.42818 24.6603 13.4074 27.444 18.4909 25.8195C20.5228 25.1707 22.2657 23.9159 23.5564 22.3206C25.4981 19.9245 26.4217 16.7579 25.7881 13.722C24.7316 8.66441 19.756 5.88137 14.6699 7.50457C12.6388 8.15441 10.8959 9.40916 9.60518 11.0044Z" fill="url(#paint3_linear_40_140)" />
	<path d="M10.0142 11.1915C8.10036 13.5552 7.18816 16.6773 7.81425 19.6711C8.85314 24.6587 13.762 27.4032 18.7764 25.802C20.7809 25.1614 22.4991 23.9257 23.7731 22.3517C25.6861 19.9868 26.5983 16.8647 25.974 13.8712C24.9333 8.88336 20.0263 6.13915 15.009 7.74081C13.0049 8.37954 11.2881 9.61745 10.0142 11.1915Z" fill="url(#paint4_radial_40_140)" />
	<path d="M23.411 22.1992C20.7199 25.5241 16.2739 26.9832 12.4881 25.4865C7.92477 23.6821 6.05079 18.2625 8.30306 13.3836C8.68808 12.5515 9.16719 11.7878 9.72093 11.103C12.4128 7.77917 16.8581 6.31908 20.642 7.81544C25.2061 9.62088 27.0801 15.0405 24.8279 19.9194C24.4454 20.7528 23.9658 21.5137 23.411 22.1992ZM7.89187 9.62214C7.19044 10.4886 6.58215 11.4558 6.0954 12.51C3.24349 18.6923 5.61604 25.5572 11.3986 27.8463C16.1943 29.7421 21.8269 27.8939 25.2372 23.6805C25.9397 22.8133 26.5473 21.8451 27.034 20.7908C29.8867 14.6097 27.5134 7.7436 21.7323 5.45668C16.9369 3.55908 11.3032 5.40803 7.89187 9.62214Z" fill="url(#paint5_linear_40_140)" />
	<path d="M12.6878 11.9076L13.4606 13.0743C13.0446 13.3879 12.677 13.7387 12.3625 14.1266C12.3479 14.1464 12.3326 14.1651 12.318 14.1849C11.9937 14.5972 11.7484 15.0203 11.5832 15.4583C11.4165 15.8941 11.3426 16.3312 11.3643 16.7691C11.386 17.2069 11.529 17.6258 11.7922 18.0218C12.1529 18.5631 12.5568 18.9139 13.01 19.0714C13.4604 19.2295 13.9232 19.2837 14.3977 19.233C14.8726 19.1852 15.3445 19.0635 15.8157 18.871C16.2869 18.6785 16.7185 18.4996 17.1153 18.3341C17.5128 18.1697 17.8627 18.0547 18.1659 17.9948C18.4698 17.936 18.6857 18.0041 18.8185 18.2037C18.8988 18.3245 18.9069 18.4867 18.841 18.69C18.8094 18.7868 18.7544 18.8842 18.675 18.9829C18.5844 19.0926 18.4644 19.2057 18.3117 19.3196C17.8929 19.6336 17.4331 19.7928 16.9348 19.7984C16.4355 19.8048 15.9879 19.6305 15.5914 19.2745L13.6901 20.698L15.6807 23.6969L17.5828 22.2745L17.2588 21.7898C17.8798 21.693 18.4376 21.5313 18.931 21.3073L19.7609 22.5573L21.2452 21.4483L20.489 20.3096C20.9152 19.9634 21.2951 19.5896 21.6281 19.1918C21.6469 19.1691 21.666 19.1445 21.6848 19.1218C21.9892 18.7442 22.2239 18.3554 22.3857 17.9531C22.5591 17.5268 22.6354 17.0975 22.6127 16.6651C22.5937 16.2333 22.4478 15.8148 22.1772 15.4082C21.8112 14.8549 21.3988 14.499 20.9396 14.3329C20.4786 14.1665 20.0086 14.111 19.5307 14.1657C19.0523 14.2176 18.5711 14.3442 18.0897 14.5424C17.6075 14.7395 17.1651 14.9212 16.7626 15.0875C16.3583 15.2535 16.0038 15.3733 15.6971 15.4484C15.391 15.5199 15.1726 15.4551 15.0396 15.2572C14.9327 15.0965 14.9283 14.9126 15.0274 14.7113C15.0676 14.6291 15.118 14.5477 15.1836 14.4698C15.2759 14.3557 15.3927 14.2449 15.5348 14.1385C15.724 13.9956 15.9369 13.8884 16.1721 13.813C16.406 13.7402 16.6368 13.7012 16.8667 13.6992C17.0956 13.698 17.3179 13.7347 17.533 13.8129C17.7481 13.8911 17.9341 14.0135 18.0901 14.1809L20.0126 12.7426L18.0657 9.81258L16.1432 11.2509L16.4759 11.7501C16.2993 11.7716 16.0897 11.8114 15.8466 11.8734C15.6028 11.9343 15.3394 12.0216 15.0556 12.1359L14.1662 10.7947L12.6878 11.9076Z" fill="url(#paint6_linear_40_140)" />
	<path d="M12.4324 11.7004L13.2052 12.8671C12.7893 13.1807 12.4227 13.5308 12.1079 13.9205C12.0926 13.9392 12.0773 13.958 12.0627 13.9777C11.7384 14.39 11.4931 14.8131 11.3279 15.2511C11.1612 15.687 11.0873 16.124 11.109 16.5619C11.1307 16.9997 11.2737 17.4186 11.5369 17.8147C11.8983 18.357 12.3022 18.7077 12.7547 18.8643C13.2051 19.0223 13.6679 19.0765 14.1424 19.0259C14.6173 18.9781 15.0881 18.8571 15.5593 18.6646C16.0305 18.4721 16.4621 18.2931 16.8589 18.1277C17.2575 17.9625 17.6063 17.8483 17.9095 17.7884C18.2135 17.7296 18.4294 17.7977 18.5621 17.9973C18.6424 18.1181 18.6506 18.2803 18.5846 18.4836C18.553 18.5804 18.498 18.6777 18.4186 18.7764C18.3287 18.8872 18.208 18.9992 18.0553 19.1131C17.6365 19.4272 17.1774 19.5874 16.6784 19.592C16.1791 19.5983 15.7316 19.4241 15.335 19.0681L13.4337 20.4915L15.4244 23.4904L17.3264 22.0681L17.0024 21.5834C17.6241 21.4876 18.1813 21.3249 18.6746 21.1009L19.5045 22.3509L20.9888 21.2419L20.2326 20.1032C20.6588 19.7569 21.0388 19.3831 21.3717 18.9854C21.3905 18.9626 21.4096 18.9381 21.4285 18.9153C21.7336 18.5388 21.9683 18.15 22.1301 17.7477C22.3016 17.3211 22.379 16.8911 22.3571 16.4597C22.3373 16.0269 22.1922 15.6094 21.9208 15.2017C21.5548 14.6484 21.1425 14.2925 20.6833 14.1265C20.2222 13.9601 19.7533 13.9039 19.2743 13.9593C18.7959 14.0111 18.3147 14.1378 17.8333 14.336C17.3511 14.5331 16.9087 14.7148 16.5062 14.8811C16.1019 15.0471 15.7475 15.1669 15.4418 15.2412C15.1356 15.3127 14.9181 15.2489 14.7843 15.0501C14.6774 14.8893 14.673 14.7054 14.772 14.5042C14.8123 14.4219 14.8627 14.3405 14.9282 14.2626C15.0205 14.1485 15.1373 14.0377 15.2802 13.9323C15.4695 13.7895 15.6816 13.6813 15.9168 13.6059C16.1507 13.533 16.3814 13.494 16.6114 13.492C16.8402 13.4908 17.0625 13.5275 17.2776 13.6057C17.4927 13.6839 17.6788 13.8063 17.8347 13.9737L19.7583 12.5346L17.8115 9.60467L15.889 11.043L16.2216 11.5422C16.045 11.5636 15.8355 11.6035 15.5923 11.6655C15.3485 11.7264 15.0852 11.8136 14.8024 11.9273L13.913 10.5861L12.4324 11.7004Z" fill="url(#paint7_linear_40_140)" />
	<path d="M17.5542 28.3756C17.8159 27.4989 18.07 26.5911 18.3056 25.6662C20.2479 25.079 22.0532 23.8769 23.4122 22.1987C23.9659 21.5139 24.4466 20.7523 24.8301 19.9181C27.0824 15.0392 25.2084 9.6196 20.6443 7.81415C19.5203 7.37017 18.338 7.1875 17.161 7.23718C16.6878 6.34273 16.1986 5.55612 15.7414 4.89591C17.7416 4.53721 19.8068 4.69359 21.7353 5.45646C27.5164 7.74339 29.8907 14.6087 27.037 20.7906C26.5492 21.8456 25.9417 22.8139 25.2402 23.6803C23.2366 26.1549 20.4687 27.8101 17.5542 28.3756Z" fill="url(#paint8_linear_40_140)" style="mix-blend-mode:overlay" />
	<path d="M14.5635 18.9625C14.4207 18.9871 14.2794 19.009 14.1425 19.0262C14.2834 19.0125 14.4222 18.9892 14.5635 18.9625Z" fill="url(#paint9_linear_40_140)" style="mix-blend-mode:overlay" />
	<path d="M22.3617 16.4614C22.3419 16.0285 22.1968 15.6111 21.9254 15.2034C21.5601 14.6511 21.1481 14.2934 20.6878 14.1281C20.2268 13.9617 19.7579 13.9055 19.2789 13.9609C18.8005 14.0128 18.3193 14.1394 17.8379 14.3376C17.3557 14.5347 16.9133 14.7164 16.5108 14.8827C16.1065 15.0487 15.752 15.1685 15.4463 15.2428C15.1402 15.3143 14.9226 15.2505 14.7889 15.0517C14.682 14.8909 14.6776 14.707 14.7766 14.5058C14.8169 14.4235 14.8673 14.3421 14.9328 14.2643C15.0251 14.1501 15.1419 14.0393 15.284 13.9329C15.474 13.7911 15.6862 13.6829 15.9214 13.6075C16.1552 13.5346 16.386 13.4956 16.6159 13.4936C16.8448 13.4924 17.0671 13.5291 17.2822 13.6073C17.4973 13.6855 17.6834 13.8079 17.8393 13.9753L19.7629 12.5362L17.816 9.60626L15.8935 11.0446L16.2262 11.5438C16.0496 11.5652 15.84 11.6051 15.5969 11.6671C15.3531 11.7279 15.0898 11.8152 14.807 11.9289L13.9176 10.5877L12.434 11.6978L13.2068 12.8644C12.7909 13.1781 12.4244 13.5282 12.1095 13.9179C12.0942 13.9366 12.0789 13.9553 12.0643 13.9751C11.74 14.3874 11.4946 14.8105 11.3295 15.2485C11.1628 15.6843 11.0889 16.1214 11.1106 16.5593C11.1292 16.9185 11.2319 17.2644 11.4122 17.5968C13.3552 17.0265 16.4327 16.2448 18.4064 16.3658C19.9591 16.4603 21.3565 16.6403 22.3595 16.7956C22.3646 16.6859 22.3674 16.573 22.3617 16.4614Z" fill="url(#paint10_linear_40_140)" style="mix-blend-mode:overlay" />
	<defs>
		<linearGradient id="paint0_linear_40_140" x1="12.2938" y1="7.92943" x2="23.711" y2="27.6953" gradientUnits="userSpaceOnUse">
			<stop offset="0.1616" stop-color="#CC7800" />
			<stop offset="0.2072" stop-color="#D07E02" />
			<stop offset="0.2662" stop-color="#DA8E08" />
			<stop offset="0.3325" stop-color="#EAA912" />
			<stop offset="0.3682" stop-color="#F5BA18" />
			<stop offset="0.4286" stop-color="#F1AA1A" />
			<stop offset="0.4743" stop-color="#EE9B1B" />
			<stop offset="0.5407" stop-color="#6B2B00" />
			<stop offset="0.6147" stop-color="#6D3001" />
			<stop offset="0.7067" stop-color="#FEC423" />
			<stop offset="1" stop-color="#8F4E00" />
		</linearGradient>
		<linearGradient id="paint1_linear_40_140" x1="25.7516" y1="7.98909" x2="10.0072" y2="27.4364" gradientUnits="userSpaceOnUse">
			<stop stop-color="#E0A300" />
			<stop offset="0.0833" stop-color="#FFC524" />
			<stop offset="0.1516" stop-color="#FFD759" />
			<stop offset="0.4069" stop-color="#FFF4A5" />
			<stop offset="0.4208" stop-color="#FEF09F" />
			<stop offset="0.4389" stop-color="#FCE68F" />
			<stop offset="0.4592" stop-color="#F9D574" />
			<stop offset="0.4813" stop-color="#F5BD4F" />
			<stop offset="0.5044" stop-color="#EF9E20" />
			<stop offset="0.518" stop-color="#EB8A00" />
			<stop offset="0.5625" stop-color="#AD4300" />
			<stop offset="0.6087" stop-color="#6E3500" />
			<stop offset="0.6515" stop-color="#E09D00" />
			<stop offset="0.6573" stop-color="#E7AA16" />
			<stop offset="0.6672" stop-color="#F2BE37" />
			<stop offset="0.6768" stop-color="#F9CC4E" />
			<stop offset="0.6857" stop-color="#FDD45C" />
			<stop offset="0.6934" stop-color="#FFD761" />
			<stop offset="0.7325" stop-color="#FFD75F" />
			<stop offset="0.7465" stop-color="#FFD558" />
			<stop offset="0.7566" stop-color="#FFD34D" />
			<stop offset="0.7646" stop-color="#FFCF3C" />
			<stop offset="0.7707" stop-color="#FFCB29" />
			<stop offset="0.7818" stop-color="#FBC525" />
			<stop offset="0.7968" stop-color="#F0B41A" />
			<stop offset="0.8139" stop-color="#DE9808" />
			<stop offset="0.8205" stop-color="#D68B00" />
			<stop offset="0.8228" stop-color="#DD9B16" />
			<stop offset="0.8268" stop-color="#E7B133" />
			<stop offset="0.8311" stop-color="#F0C34B" />
			<stop offset="0.8361" stop-color="#F6D15E" />
			<stop offset="0.8419" stop-color="#FBDB6B" />
			<stop offset="0.8493" stop-color="#FDE073" />
			<stop offset="0.8644" stop-color="#FEE275" />
			<stop offset="0.9367" stop-color="#FEE47E" />
			<stop offset="1" stop-color="#FED94B" />
		</linearGradient>
		<linearGradient id="paint2_linear_40_140" x1="11.1141" y1="6.97494" x2="22.532" y2="26.7419" gradientUnits="userSpaceOnUse">
			<stop offset="0.1616" stop-color="#FFF8C7" />
			<stop offset="0.1986" stop-color="#FFF6C1" />
			<stop offset="0.2466" stop-color="#FEF0B1" />
			<stop offset="0.3007" stop-color="#FEE696" />
			<stop offset="0.3593" stop-color="#FDD871" />
			<stop offset="0.4207" stop-color="#FCC641" />
			<stop offset="0.469" stop-color="#FBB617" />
			<stop offset="0.541" stop-color="#A26009" />
			<stop offset="0.5826" stop-color="#6C2D00" />
			<stop offset="0.6342" stop-color="#6D3001" />
			<stop offset="0.6719" stop-color="#BA7D11" />
			<stop offset="0.7035" stop-color="#FDC120" />
			<stop offset="0.8149" stop-color="#DB9204" />
			<stop offset="0.8202" stop-color="#E09D12" />
			<stop offset="0.8332" stop-color="#EBB52F" />
			<stop offset="0.8469" stop-color="#F3C746" />
			<stop offset="0.8618" stop-color="#F9D456" />
			<stop offset="0.8784" stop-color="#FDDC60" />
			<stop offset="0.9005" stop-color="#FEDE63" />
			<stop offset="1" stop-color="#FBF0D5" />
		</linearGradient>
		<linearGradient id="paint3_linear_40_140" x1="12.0184" y1="8.7628" x2="21.1441" y2="24.5615" gradientUnits="userSpaceOnUse">
			<stop offset="0.1616" stop-color="#BA6D00" />
			<stop offset="0.2364" stop-color="#B46800" />
			<stop offset="0.3334" stop-color="#A45B00" />
			<stop offset="0.4422" stop-color="#894400" />
			<stop offset="0.5407" stop-color="#6B2B00" />
			<stop offset="0.6147" stop-color="#6D3001" />
			<stop offset="0.7067" stop-color="#FEBB00" />
			<stop offset="1" stop-color="#6B3B00" />
		</linearGradient>
		<radialGradient id="paint4_radial_40_140" cx="0" cy="0" r="1" gradientUnits="userSpaceOnUse" gradientTransform="translate(16.9731 17.2873) rotate(59.9882) scale(9.83777)">
			<stop stop-color="#FEDE6D" />
			<stop offset="1" stop-color="#DE9700" />
		</radialGradient>
		<linearGradient id="paint5_linear_40_140" x1="27.1866" y1="10.5167" x2="5.87091" y2="22.8292" gradientUnits="userSpaceOnUse">
			<stop stop-color="#FFDB66" />
			<stop offset="0.4069" stop-color="#FFEF7F" />
			<stop offset="0.4612" stop-color="#FFED79" />
			<stop offset="0.5317" stop-color="#FFE769" />
			<stop offset="0.6112" stop-color="#FFDD4E" />
			<stop offset="0.6965" stop-color="#FFD029" />
			<stop offset="0.7707" stop-color="#FFC203" />
			<stop offset="1" stop-color="#FEDC58" />
		</linearGradient>
		<linearGradient id="paint6_linear_40_140" x1="8.2031" y1="9.73428" x2="25.6179" y2="23.8331" gradientUnits="userSpaceOnUse">
			<stop offset="0.1616" stop-color="#AD6600" />
			<stop offset="0.2452" stop-color="#A76100" />
			<stop offset="0.3535" stop-color="#975200" />
			<stop offset="0.4751" stop-color="#7C3B00" />
			<stop offset="0.5407" stop-color="#6B2B00" />
			<stop offset="0.6147" stop-color="#6D3001" />
			<stop offset="0.7067" stop-color="#8A4700" />
			<stop offset="1" stop-color="#6B3B00" />
		</linearGradient>
		<linearGradient id="paint7_linear_40_140" x1="8.52626" y1="9.99581" x2="25.4613" y2="23.7062" gradientUnits="userSpaceOnUse">
			<stop stop-color="#FFDB66" />
			<stop offset="0.4069" stop-color="#FFEF7F" />
			<stop offset="0.4612" stop-color="#FFED79" />
			<stop offset="0.5317" stop-color="#FFE769" />
			<stop offset="0.6112" stop-color="#FFDD4E" />
			<stop offset="0.6965" stop-color="#FFD029" />
			<stop offset="0.7707" stop-color="#FFC203" />
			<stop offset="0.8644" stop-color="#FEDA4F" />
			<stop offset="0.9367" stop-color="#FEDC58" />
		</linearGradient>
		<linearGradient id="paint8_linear_40_140" x1="28.5468" y1="14.1774" x2="19.2934" y2="16.0892" gradientUnits="userSpaceOnUse">
			<stop stop-color="#919191" />
			<stop offset="0.9972" />
		</linearGradient>
		<linearGradient id="paint9_linear_40_140" x1="14.168" y1="18.8436" x2="14.5538" y2="19.1559" gradientUnits="userSpaceOnUse">
			<stop stop-color="#919191" />
			<stop offset="0.9972" />
		</linearGradient>
		<linearGradient id="paint10_linear_40_140" x1="17.0237" y1="10.0079" x2="16.7251" y2="16.7388" gradientUnits="userSpaceOnUse">
			<stop stop-color="#919191" />
			<stop offset="0.9972" />
		</linearGradient>
	</defs>
</svg>
