<svg width="82" height="84" viewBox="0 0 82 84" fill="none" xmlns="http://www.w3.org/2000/svg">
	<path d="M68.6782 58.0087C70.453 54.9597 71.8874 51.6459 72.9011 48.1109C78.8296 27.4062 68.095 7.08565 48.9134 2.72413C33.0048 -0.888041 16.288 7.60835 7.65956 22.4268C5.88142 25.4756 4.44666 28.7961 3.4329 32.3312C-2.50235 53.0356 8.23911 73.3564 27.414 77.7142C43.3259 81.33 60.0464 72.8269 68.6782 58.0087Z" fill="url(#paint0_linear_21_395)" />
	<path d="M61.6574 8.43625L61.5422 8.63787C72.6995 17.0857 77.8432 32.604 73.3279 48.3593C72.3143 51.891 70.8832 55.2083 69.105 58.2571C60.4766 73.0755 43.7563 81.5752 27.8442 77.9629C25.8817 77.516 24.0129 76.8937 22.2358 76.1332L22.1167 76.3414L18.414 74.181L18.4211 74.1745C5.36572 66.3161 -1.00918 49.5783 3.86311 32.5798C4.87703 29.0414 6.30821 25.724 8.08635 22.6752C16.7148 7.8568 33.435 -0.63943 49.3437 2.97274C52.5226 3.69707 55.4621 4.86494 58.1425 6.39383L58.1461 6.39064L61.6574 8.43625Z" fill="url(#paint1_linear_21_395)" />
	<path d="M72.7973 60.4039C74.5721 57.3549 76.0067 54.0377 77.0203 50.5061C82.9489 29.798 72.214 9.48086 53.0325 5.11933C37.1238 1.50716 20.4071 10.0035 11.7789 24.8186C10.0006 27.8708 8.56596 31.188 7.55203 34.7264C1.61678 55.4308 12.3582 75.7516 31.5365 80.1096C47.445 83.7252 64.1654 75.2255 72.7973 60.4039Z" fill="url(#paint2_linear_21_395)" />
	<path d="M67.4931 57.3284C72.3677 48.9614 73.7205 38.6943 70.2966 29.5746C64.6032 14.3826 47.8154 8.13089 32.8175 15.6077C26.8183 18.5977 22.0179 23.3256 18.7731 28.8948C13.8985 37.2618 12.5458 47.5323 15.9663 56.6518C21.6665 71.8442 38.4473 78.0955 53.4522 70.6157C59.4443 67.6321 64.2482 62.901 67.4931 57.3284Z" fill="url(#paint3_linear_21_395)" />
	<path d="M66.1352 56.9455C70.9396 48.6939 72.2753 38.5653 68.8996 29.5703C63.2841 14.5894 46.73 8.424 31.9344 15.7952C26.0223 18.742 21.2829 23.4049 18.0825 28.9015C13.2748 37.1529 11.9424 47.2817 15.3148 56.2765C20.937 71.2577 37.4843 77.4228 52.2836 70.0484C58.1955 67.105 62.935 62.4387 66.1352 56.9455Z" fill="url(#paint4_radial_21_395)" />
	<path d="M19.2739 29.1985C26.0312 17.5908 39.1369 10.9313 51.601 13.7618C66.6292 17.1742 75.0424 33.0986 70.3919 49.3196C69.5995 52.0874 68.4757 54.6859 67.087 57.0742C60.3261 68.6852 47.224 75.3414 34.7631 72.5144C19.7282 69.0983 11.3183 53.1776 15.9688 36.9565C16.7613 34.1853 17.8816 31.5901 19.2739 29.1985ZM73.4685 60.7975C75.2319 57.7717 76.655 54.4812 77.6607 50.9729C83.5513 30.4158 72.8906 10.2485 53.8502 5.9177C38.0592 2.33173 21.461 10.766 12.8922 25.4786C11.1286 28.5077 9.70533 31.8017 8.69969 35.31C2.80586 55.8635 13.4696 76.0378 32.5069 80.3616C48.3048 83.9445 64.9031 75.5103 73.4685 60.7975Z" fill="url(#paint5_linear_21_395)" />
	<path d="M57.4882 56.0026L54.5289 52.7541C55.6707 51.5837 56.6405 50.3164 57.4312 48.9588C57.4719 48.8928 57.5091 48.8267 57.5464 48.7606C58.3514 47.3221 58.9112 45.892 59.2201 44.4528C59.5253 43.0202 59.5464 41.628 59.2698 40.2789C58.9899 38.9262 58.347 37.6983 57.3382 36.5883C55.9614 35.083 54.5377 34.187 53.0592 33.9169C51.5845 33.6403 50.1206 33.6938 48.6744 34.0778C47.2252 34.4548 45.8158 35.0582 44.4465 35.8809C43.0772 36.7037 41.823 37.4675 40.6703 38.1718C39.5143 38.8726 38.4827 39.396 37.5692 39.7281C36.6558 40.0569 35.951 39.9474 35.4449 39.3923C35.1387 39.0543 35.0341 38.5564 35.1416 37.8923C35.1912 37.5753 35.3161 37.2485 35.5166 36.905C35.7431 36.5151 36.0621 36.1095 36.4841 35.6852C37.6328 34.5117 38.9833 33.7934 40.5283 33.54C42.0739 33.2764 43.5495 33.6075 44.9453 34.5191L50.1659 29.1935L42.545 20.8352L37.3242 26.1642L38.5624 27.5166C36.681 28.1136 35.0255 28.8814 33.5999 29.8136L30.4245 26.3301L26.3524 30.4856L29.244 33.6595C28.0867 34.9379 27.0826 36.2815 26.2425 37.6741C26.1908 37.7565 26.146 37.8393 26.0979 37.9184C25.333 39.2332 24.7886 40.5554 24.4786 41.879C24.1475 43.2864 24.1174 44.6544 24.3915 45.9865C24.6622 47.3183 25.3118 48.5465 26.3466 49.6815C27.7488 51.2221 29.1991 52.133 30.7037 52.4247C32.2083 52.7165 33.6958 52.6641 35.1561 52.2706C36.6163 51.8771 38.0503 51.258 39.4476 50.4163C40.8454 49.5677 42.1376 48.7922 43.3075 48.0853C44.4843 47.3754 45.5268 46.8389 46.4392 46.4592C47.3512 46.0896 48.0635 46.1859 48.5697 46.7376C48.979 47.1893 49.0804 47.7517 48.8671 48.4242C48.7821 48.702 48.6598 48.9746 48.5002 49.2488C48.2664 49.6484 47.958 50.0444 47.5646 50.4429C47.042 50.9779 46.4395 51.4137 45.7427 51.7599C45.0531 52.0997 44.3519 52.3302 43.6395 52.4445C42.9306 52.5557 42.2239 52.5514 41.5173 52.4112C40.8104 52.2744 40.1756 51.9848 39.6133 51.5357L34.3319 56.9228L41.7791 65.0822L47.0603 59.6984L45.7869 58.3035C46.3278 58.1535 46.9539 57.9296 47.6827 57.6223C48.4117 57.3117 49.1854 56.9183 50.0083 56.4254L53.4124 60.1614L57.4882 56.0026Z" fill="url(#paint6_linear_21_395)" />
	<path d="M58.3766 56.521L55.4173 53.2725C56.5591 52.1021 57.5324 50.835 58.323 49.4808C58.3604 49.4113 58.401 49.3453 58.4349 49.279C59.2433 47.8407 59.7998 46.4103 60.1085 44.9745C60.4172 43.5388 60.4349 42.1464 60.1581 40.8007C59.8816 39.4482 59.2354 38.2201 58.2298 37.1137C56.8498 35.6048 55.4293 34.7089 53.9475 34.4387C52.4727 34.162 51.0121 34.2191 49.5627 34.5996C48.1133 34.98 46.7074 35.5801 45.3382 36.4029C43.9687 37.229 42.7147 37.9895 41.5586 38.6936C40.4026 39.3944 39.3709 39.9178 38.4608 40.2501C37.5441 40.5787 36.8392 40.4691 36.3331 39.914C36.027 39.5761 35.9257 39.0817 36.0332 38.4176C36.0794 38.1005 36.2043 37.7736 36.4083 37.4269C36.6347 37.0405 36.9539 36.6314 37.3724 36.2069C38.5245 35.0336 39.8716 34.3152 41.4167 34.0618C42.9621 33.8016 44.4411 34.1294 45.8334 35.0442L51.0543 29.7153L43.4366 21.3605L38.2159 26.6861L39.4506 28.0384C37.5692 28.6354 35.9138 29.4032 34.4915 30.3355L31.3163 26.8521L27.2409 31.004L30.1325 34.1779C28.9752 35.4562 27.971 36.7999 27.1307 38.1959C27.0826 38.2751 27.0344 38.3577 26.9863 38.4368C26.2214 39.7516 25.6804 41.0739 25.3704 42.3975C25.0393 43.805 25.0059 45.1728 25.28 46.5048C25.5507 47.8367 26.2003 49.0649 27.2351 50.1999C28.6373 51.7405 30.0875 52.6514 31.5921 52.9431C33.1001 53.235 34.5841 53.1859 36.0479 52.7892C37.5081 52.3957 38.9422 51.7766 40.3396 50.9348C41.7373 50.0863 43.026 49.3105 44.1957 48.6071C45.3727 47.8937 46.4187 47.3575 47.3277 46.9776C48.2431 46.6082 48.952 46.7043 49.4583 47.256C49.8709 47.7079 49.9721 48.2736 49.7555 48.9459C49.6706 49.2204 49.5482 49.4964 49.3885 49.7706C49.1549 50.1668 48.8463 50.5662 48.4564 50.9615C47.9339 51.4964 47.3312 51.9356 46.6313 52.2783C45.9417 52.6181 45.2438 52.8487 44.5314 52.9631C43.8225 53.0742 43.1159 53.0699 42.4092 52.9297C41.7025 52.7895 41.0677 52.5 40.5018 52.0541L35.2239 57.438L42.6711 65.5974L47.949 60.2135L46.6754 58.8219C47.2165 58.6685 47.8459 58.4447 48.5713 58.1373C49.3001 57.83 50.0775 57.4334 50.897 56.9403L54.3044 60.6765L58.3766 56.521Z" fill="url(#paint7_linear_21_395)" />
	<path d="M34.4936 7.22181C34.1018 10.0671 33.7461 13.006 33.4596 15.989C27.7133 18.7435 22.685 23.3378 19.273 29.1978C17.8807 31.5893 16.7605 34.1846 15.9679 36.9558C11.3173 53.1802 19.7274 69.0976 34.7622 72.5137C38.4656 73.3523 42.2206 73.3506 45.8511 72.636C47.7506 75.1866 49.6468 77.3905 51.3814 79.2193C45.3425 81.2933 38.8645 81.796 32.5131 80.3545C13.4761 76.0272 2.81215 55.8563 8.70598 35.3028C9.71162 31.7946 11.1349 28.5006 12.8984 25.4715C17.922 16.8399 25.7171 10.3705 34.4936 7.22181Z" fill="url(#paint8_linear_21_395)" style="mix-blend-mode:overlay" />
	<path d="M48.2852 35.0032C48.7137 34.8578 49.1419 34.7192 49.5624 34.6006C49.1321 34.7119 48.7073 34.8507 48.2852 35.0032Z" fill="url(#paint9_linear_21_395)" style="mix-blend-mode:overlay" />
	<path d="M25.283 46.5056C25.5537 47.8374 26.2033 49.0656 27.2381 50.2007C28.6403 51.7413 30.0905 52.6522 31.5951 52.9439C33.1031 53.2358 34.5871 53.1867 36.0509 52.7899C37.5111 52.3964 38.945 51.7773 40.3424 50.9356C41.7402 50.087 43.029 49.3113 44.1987 48.6078C45.3757 47.8945 46.4216 47.3582 47.3307 46.9783C48.246 46.6089 48.9548 46.705 49.4611 47.2567C49.8738 47.7087 49.975 48.2743 49.7583 48.9467C49.6734 49.2211 49.5512 49.4971 49.3915 49.7713C49.1579 50.1676 48.8493 50.5669 48.4594 50.9623C47.9368 51.4972 47.3341 51.9364 46.6341 52.279C45.9445 52.6188 45.2467 52.8495 44.5342 52.9638C43.8253 53.075 43.1187 53.0707 42.412 52.9305C41.7053 52.7903 41.0707 52.5007 40.5048 52.0548L35.2269 57.4388L42.674 65.5982L47.952 60.2142L46.6783 58.8227C47.2194 58.6693 47.8489 58.4455 48.5743 58.138C49.303 57.8308 50.0804 57.4342 50.8999 56.9411L54.3074 60.6773L58.3795 56.5218L55.4203 53.2733C56.5621 52.1029 57.5354 50.8358 58.326 49.4815C58.3634 49.412 58.404 49.346 58.4379 49.2798C59.2462 47.8414 59.8027 46.4111 60.1114 44.9753C60.4201 43.5395 60.4379 42.1472 60.1611 40.8014C59.9337 39.6926 59.4473 38.6696 58.7258 37.7266C52.9685 40.4296 43.7915 44.3264 37.6126 44.8983C32.748 45.3481 28.3215 45.4594 25.1341 45.4584C25.1645 45.8065 25.2085 46.1553 25.283 46.5056Z" fill="url(#paint10_linear_21_395)" style="mix-blend-mode:overlay" />
	<defs>
		<linearGradient id="paint0_linear_21_395" x1="2.60214" y1="35.2382" x2="73.7316" y2="45.205" gradientUnits="userSpaceOnUse">
			<stop offset="0.1616" stop-color="#CC7800" />
			<stop offset="0.2072" stop-color="#D07E02" />
			<stop offset="0.2662" stop-color="#DA8E08" />
			<stop offset="0.3325" stop-color="#EAA912" />
			<stop offset="0.3682" stop-color="#F5BA18" />
			<stop offset="0.4286" stop-color="#F1AA1A" />
			<stop offset="0.4743" stop-color="#EE9B1B" />
			<stop offset="0.5407" stop-color="#6B2B00" />
			<stop offset="0.6147" stop-color="#6D3001" />
			<stop offset="0.7067" stop-color="#FEC423" />
			<stop offset="1" stop-color="#8F4E00" />
		</linearGradient>
		<linearGradient id="paint1_linear_21_395" x1="18.8229" y1="74.4238" x2="58.3648" y2="6.51719" gradientUnits="userSpaceOnUse">
			<stop stop-color="#E0A300" />
			<stop offset="0.0833" stop-color="#FFC524" />
			<stop offset="0.1516" stop-color="#FFD759" />
			<stop offset="0.4069" stop-color="#FFF4A5" />
			<stop offset="0.4208" stop-color="#FEF09F" />
			<stop offset="0.4389" stop-color="#FCE68F" />
			<stop offset="0.4592" stop-color="#F9D574" />
			<stop offset="0.4813" stop-color="#F5BD4F" />
			<stop offset="0.5044" stop-color="#EF9E20" />
			<stop offset="0.518" stop-color="#EB8A00" />
			<stop offset="0.5625" stop-color="#AD4300" />
			<stop offset="0.6087" stop-color="#6E3500" />
			<stop offset="0.6515" stop-color="#E09D00" />
			<stop offset="0.6573" stop-color="#E7AA16" />
			<stop offset="0.6672" stop-color="#F2BE37" />
			<stop offset="0.6768" stop-color="#F9CC4E" />
			<stop offset="0.6857" stop-color="#FDD45C" />
			<stop offset="0.6934" stop-color="#FFD761" />
			<stop offset="0.7325" stop-color="#FFD75F" />
			<stop offset="0.7465" stop-color="#FFD558" />
			<stop offset="0.7566" stop-color="#FFD34D" />
			<stop offset="0.7646" stop-color="#FFCF3C" />
			<stop offset="0.7707" stop-color="#FFCB29" />
			<stop offset="0.7818" stop-color="#FBC525" />
			<stop offset="0.7968" stop-color="#F0B41A" />
			<stop offset="0.8139" stop-color="#DE9808" />
			<stop offset="0.8205" stop-color="#D68B00" />
			<stop offset="0.8228" stop-color="#DD9B16" />
			<stop offset="0.8268" stop-color="#E7B133" />
			<stop offset="0.8311" stop-color="#F0C34B" />
			<stop offset="0.8361" stop-color="#F6D15E" />
			<stop offset="0.8419" stop-color="#FBDB6B" />
			<stop offset="0.8493" stop-color="#FDE073" />
			<stop offset="0.8644" stop-color="#FEE275" />
			<stop offset="0.9367" stop-color="#FEE47E" />
			<stop offset="1" stop-color="#FED94B" />
		</linearGradient>
		<linearGradient id="paint2_linear_21_395" x1="6.72127" y1="37.6328" x2="77.851" y2="47.5996" gradientUnits="userSpaceOnUse">
			<stop offset="0.1616" stop-color="#FFF8C7" />
			<stop offset="0.1986" stop-color="#FFF6C1" />
			<stop offset="0.2466" stop-color="#FEF0B1" />
			<stop offset="0.3007" stop-color="#FEE696" />
			<stop offset="0.3593" stop-color="#FDD871" />
			<stop offset="0.4207" stop-color="#FCC641" />
			<stop offset="0.469" stop-color="#FBB617" />
			<stop offset="0.541" stop-color="#A26009" />
			<stop offset="0.5826" stop-color="#6C2D00" />
			<stop offset="0.6342" stop-color="#6D3001" />
			<stop offset="0.6719" stop-color="#BA7D11" />
			<stop offset="0.7035" stop-color="#FDC120" />
			<stop offset="0.8149" stop-color="#DB9204" />
			<stop offset="0.8202" stop-color="#E09D12" />
			<stop offset="0.8332" stop-color="#EBB52F" />
			<stop offset="0.8469" stop-color="#F3C746" />
			<stop offset="0.8618" stop-color="#F9D456" />
			<stop offset="0.8784" stop-color="#FDDC60" />
			<stop offset="0.9005" stop-color="#FEDE63" />
			<stop offset="1" stop-color="#FBF0D5" />
		</linearGradient>
		<linearGradient id="paint3_linear_21_395" x1="14.7131" y1="39.1307" x2="71.5505" y2="47.0949" gradientUnits="userSpaceOnUse">
			<stop offset="0.1616" stop-color="#BA6D00" />
			<stop offset="0.2364" stop-color="#B46800" />
			<stop offset="0.3334" stop-color="#A45B00" />
			<stop offset="0.4422" stop-color="#894400" />
			<stop offset="0.5407" stop-color="#6B2B00" />
			<stop offset="0.6147" stop-color="#6D3001" />
			<stop offset="0.7067" stop-color="#FEBB00" />
			<stop offset="1" stop-color="#6B3B00" />
		</linearGradient>
		<radialGradient id="paint4_radial_21_395" cx="0" cy="0" r="1" gradientUnits="userSpaceOnUse" gradientTransform="translate(43.5428 43.7227) rotate(7.97646) scale(30.892)">
			<stop stop-color="#FEDE6D" />
			<stop offset="1" stop-color="#DE9700" />
		</radialGradient>
		<linearGradient id="paint5_linear_21_395" x1="48.5197" y1="5.04959" x2="37.8085" y2="81.4916" gradientUnits="userSpaceOnUse">
			<stop stop-color="#FFDB66" />
			<stop offset="0.4069" stop-color="#FFEF7F" />
			<stop offset="0.4612" stop-color="#FFED79" />
			<stop offset="0.5317" stop-color="#FFE769" />
			<stop offset="0.6112" stop-color="#FFDD4E" />
			<stop offset="0.6965" stop-color="#FFD029" />
			<stop offset="0.7707" stop-color="#FFC203" />
			<stop offset="1" stop-color="#FEDC58" />
		</linearGradient>
		<linearGradient id="paint6_linear_21_395" x1="72.4454" y1="60.5912" x2="11.6351" y2="25.1815" gradientUnits="userSpaceOnUse">
			<stop offset="0.1616" stop-color="#AD6600" />
			<stop offset="0.2452" stop-color="#A76100" />
			<stop offset="0.3535" stop-color="#975200" />
			<stop offset="0.4751" stop-color="#7C3B00" />
			<stop offset="0.5407" stop-color="#6B2B00" />
			<stop offset="0.6147" stop-color="#6D3001" />
			<stop offset="0.7067" stop-color="#8A4700" />
			<stop offset="1" stop-color="#6B3B00" />
		</linearGradient>
		<linearGradient id="paint7_linear_21_395" x1="71.3188" y1="59.9301" x2="12.1826" y2="25.4952" gradientUnits="userSpaceOnUse">
			<stop stop-color="#FFDB66" />
			<stop offset="0.4069" stop-color="#FFEF7F" />
			<stop offset="0.4612" stop-color="#FFED79" />
			<stop offset="0.5317" stop-color="#FFE769" />
			<stop offset="0.6112" stop-color="#FFDD4E" />
			<stop offset="0.6965" stop-color="#FFD029" />
			<stop offset="0.7707" stop-color="#FFC203" />
			<stop offset="0.8644" stop-color="#FEDA4F" />
			<stop offset="0.9367" stop-color="#FEDC58" />
		</linearGradient>
		<linearGradient id="paint8_linear_21_395" x1="7.18379" y1="56.5567" x2="34.9868" y2="46.1857" gradientUnits="userSpaceOnUse">
			<stop stop-color="#919191" />
			<stop offset="0.9972" />
		</linearGradient>
		<linearGradient id="paint9_linear_21_395" x1="49.5628" y1="35.1738" x2="48.221" y2="34.3925" gradientUnits="userSpaceOnUse">
			<stop stop-color="#919191" />
			<stop offset="0.9972" />
		</linearGradient>
		<linearGradient id="paint10_linear_21_395" x1="44.9447" y1="63.9739" x2="42.6435" y2="42.9394" gradientUnits="userSpaceOnUse">
			<stop stop-color="#919191" />
			<stop offset="0.9972" />
		</linearGradient>
	</defs>
</svg>
