<svg width="49" height="41" viewBox="0 0 49 41" fill="none" xmlns="http://www.w3.org/2000/svg">
	<path d="M11.7468 1.61593C11.7462 1.61838 11.7438 1.61777 11.7468 1.61593L10.3612 2.31378L10.8814 2.84157C10.5557 4.61028 11.8968 7.93179 14.9625 12.3475C19.5946 19.0082 26.7835 26.1788 32.8457 30.448C34.5574 31.656 36.1816 32.6316 37.6311 33.2984C39.4535 34.1365 40.807 34.3973 41.693 34.1591L42.1099 34.5804L42.7223 33.3278L42.7204 33.3248C43.4704 31.7402 42.1886 28.1919 38.7953 23.3095C34.165 16.652 26.9737 9.48074 20.9121 5.2091C19.1998 4.00357 17.5762 3.0255 16.1243 2.35808C14.0726 1.41843 12.6084 1.20529 11.7468 1.61593Z" fill="url(#paint0_linear_40_165)" />
	<path d="M6.41564 6.23754L11.9798 11.9361C12.3538 12.5286 12.7579 13.1469 13.2028 13.7884C17.9174 20.5658 25.2328 27.8642 31.4032 32.2099C31.7835 32.4765 32.1582 32.7341 32.5281 32.9799L38.0659 38.6485L41.9175 34.8154L41.9157 34.8123C43.2453 33.5079 42.0534 29.6728 38.2335 24.1796C33.5213 17.4028 26.2059 10.1043 20.033 5.75806C18.2908 4.52684 16.6366 3.53593 15.1615 2.8575C12.6404 1.6964 10.9908 1.62139 10.2404 2.43926L10.2379 2.43864L6.41564 6.23754Z" fill="url(#paint1_linear_40_165)" />
	<path d="M6.20246 6.53507L6.19691 6.5363L6.18288 6.57176C6.10642 6.71115 6.04764 6.86277 6.0048 7.03395L5.77604 7.62636L5.93125 7.78472C5.95155 9.68681 7.33684 12.8219 10.1348 16.8432C14.8495 23.6207 22.1648 30.9191 28.3322 35.2665C30.0774 36.4959 31.7292 37.4862 33.2068 38.1653C34.6514 38.8308 35.8087 39.1387 36.6738 39.1291L36.7839 39.2398L37.3177 39.0486C37.451 39.0144 37.5769 38.9679 37.6894 38.9129L37.701 38.9081L37.7016 38.9056C39.5814 37.9468 38.5222 33.9449 34.3937 28.0028C29.6791 21.2253 22.3637 13.9269 16.1939 9.5788C14.4511 8.35003 12.7969 7.35914 11.3217 6.6807C8.54323 5.40581 6.83188 5.44265 6.20246 6.53507Z" fill="url(#paint2_linear_40_165)" />
	<path d="M8.02091 9.05878C9.89597 7.19447 17.56 11.8646 25.1425 19.4871C32.7196 27.1109 37.3453 34.8042 35.4708 36.666C33.5964 38.5279 25.9342 33.8609 18.3517 26.2383C10.7698 18.6133 6.14647 10.9206 8.02091 9.05878Z" fill="url(#paint3_linear_40_165)" />
	<path d="M9.75504 10.1138C11.4399 8.43835 18.3281 12.6362 25.1399 19.4864C31.9492 26.3359 36.1074 33.2495 34.4225 34.9249C32.7395 36.6034 25.8519 32.4031 19.0401 25.553C12.2284 18.7028 8.07018 11.7892 9.75504 10.1138Z" fill="url(#paint4_radial_40_165)" />
	<path d="M9.75504 10.1138C11.4399 8.43835 18.3281 12.6362 25.1399 19.4864C31.9492 26.3359 36.1074 33.2495 34.4225 34.9249C32.7395 36.6034 25.8519 32.4031 19.0401 25.553C12.2284 18.7028 8.07018 11.7892 9.75504 10.1138Z" fill="url(#paint5_radial_40_165)" style="mix-blend-mode:darken" />
	<path d="M16.9534 13.0616C21.738 16.4341 27.416 22.0935 31.069 27.3501C35.7537 34.0915 35.3462 37.6198 30.1517 35.231C29.0073 34.7055 27.7247 33.9323 26.3743 32.9836C21.5873 29.6105 15.9125 23.9492 12.257 18.692C7.56989 11.95 7.97983 8.42234 13.1762 10.8143C14.3188 11.3367 15.6019 12.1074 16.9534 13.0616ZM27.6277 35.6387C29.3417 36.8473 30.9636 37.8223 32.4155 38.4897C38.994 41.5161 39.5191 37.0505 33.5766 28.5027C28.9464 21.8451 21.7575 14.6745 15.6934 10.4022C13.9812 9.1967 12.3575 8.21864 10.9081 7.55183C4.32888 4.52794 3.80623 8.99414 9.74689 17.5389C14.3772 24.1965 21.5661 31.3671 27.6277 35.6387Z" fill="url(#paint6_linear_40_165)" />
	<path d="M15.4601 14.4706L16.169 15.49C15.661 15.2771 15.2245 15.1419 14.8546 15.0831C14.4865 15.0273 14.2322 15.078 14.0964 15.2364L13.7552 15.5719L13.9979 15.7236C14.0113 15.8257 14.0333 15.9352 14.076 16.0654C14.2031 16.461 14.5044 16.9912 14.9701 17.6638C15.6008 18.5701 16.2505 19.3694 16.9241 20.0629C17.5959 20.7533 18.2591 21.3637 18.9047 21.8891C19.3619 22.2634 19.8142 22.6053 20.2562 22.916C20.442 23.0457 20.6236 23.1716 20.8039 23.2921C21.422 23.6989 21.9911 24.0726 22.5089 24.4127C22.8127 24.6109 23.0951 24.8011 23.3573 24.9888C23.548 25.1197 23.7259 25.25 23.894 25.3778C24.2993 25.6794 24.6154 25.9949 24.8427 26.3221C25.0297 26.5924 25.078 26.7526 24.9887 26.8082C24.8976 26.8608 24.7123 26.8222 24.4207 26.6894C24.1945 26.5861 23.9237 26.4221 23.6205 26.2111C23.3118 25.9909 23.0031 25.7499 22.6846 25.4753C22.3704 25.2044 22.0526 24.9066 21.7391 24.5812C21.4255 24.2559 21.14 23.9323 20.8876 23.6015L18.5645 22.5316L18.2258 22.8678L19.1727 23.4036L21.9254 27.3669L23.3614 28.0251L23.906 28.7669L24.2448 28.4307L23.6739 27.607C23.9093 27.7984 24.1905 28.0143 24.5126 28.2534C24.6551 28.3593 24.8048 28.4669 24.9546 28.5745C25.1453 28.7054 25.3403 28.84 25.5408 28.9733L27.0798 31.1828L27.8978 31.559L28.531 32.3411L28.8698 32.005L27.5343 30.0829C28.0656 30.3276 28.5015 30.4653 28.8567 30.4997C29.2095 30.5334 29.4498 30.4662 29.5788 30.2932C29.7061 30.1171 29.7074 29.8316 29.5767 29.4299C29.4478 29.0312 29.1537 28.5029 28.6972 27.8455C28.0756 26.9545 27.4376 26.1712 26.7756 25.4935C26.1179 24.8196 25.4675 24.2202 24.8238 23.6979C24.3629 23.3175 23.9106 22.9756 23.4692 22.6624C23.2968 22.5413 23.1263 22.4233 22.9564 22.3132C22.3518 21.915 21.7936 21.5493 21.2844 21.2165C21.0301 21.0489 20.7874 20.8868 20.56 20.726C20.3326 20.5651 20.1174 20.4073 19.9126 20.2495C19.5116 19.9413 19.1944 19.6202 18.967 19.2931C18.8295 19.0949 18.7831 18.9482 18.821 18.8485C18.8657 18.7532 19.0607 18.7838 19.4055 18.9428C19.6764 19.0652 19.974 19.2462 20.2993 19.4731C20.5774 19.6701 20.8775 19.9037 21.1954 20.1808C21.8818 20.771 22.542 21.4559 23.1685 22.2338L24.3826 22.7923L25.1247 23.6277L25.4635 23.2915L22.0243 18.3431L19.7312 17.2885L19.5202 17.4981C19.2947 17.3299 19.0795 17.1721 18.8692 17.0259C18.5954 16.8327 18.335 16.6584 18.0904 16.5036L16.6572 14.4428L14.8654 13.6175L14.5241 13.9531L15.4601 14.4706Z" fill="url(#paint7_linear_40_165)" />
	<path d="M26.7406 31.5217L28.533 32.3445L27.1976 30.4225C27.7288 30.6672 28.1647 30.8049 28.5193 30.8417C28.8696 30.8748 29.113 30.8057 29.2396 30.6321C29.3693 30.4567 29.3706 30.1712 29.2398 29.7694C29.1085 29.3701 28.817 28.8424 28.3604 28.1851C27.7389 27.2941 27.1008 26.5107 26.4388 25.8331C25.7811 25.1591 25.1307 24.5598 24.487 24.0375C24.0255 23.6595 23.5737 23.3152 23.1324 23.002C22.96 22.8809 22.7895 22.7629 22.6195 22.6528C22.0149 22.2546 21.4568 21.8888 20.9476 21.5561C20.6933 21.3885 20.4506 21.2264 20.2232 21.0656C19.9958 20.9047 19.7782 20.7463 19.5759 20.5891C19.1724 20.2803 18.857 19.9622 18.6278 19.632C18.4928 19.4345 18.4439 19.2871 18.4843 19.1881C18.5289 19.0927 18.7215 19.1227 19.0687 19.2824C19.3395 19.4047 19.6348 19.5852 19.96 19.8121C20.2406 20.0097 20.5408 20.2433 20.8562 20.5197C21.5426 21.1099 22.2052 21.7955 22.8293 22.5727L25.1242 23.6305L21.6851 18.6821L19.392 17.6274L19.9482 18.4267C19.4377 18.0261 18.9652 17.6713 18.5324 17.3655C18.2586 17.1722 17.9982 16.9979 17.7512 16.8425L16.3204 14.7823L14.5262 13.9565L15.8334 15.835C15.3254 15.6221 14.8865 15.4863 14.5191 15.4281C14.151 15.3724 13.8966 15.4231 13.7609 15.5814C13.6196 15.7409 13.6103 16.0167 13.738 16.4098C13.8675 16.8061 14.1664 17.3357 14.6346 18.0089C15.2622 18.917 15.915 19.7145 16.5886 20.408C17.2604 21.0984 17.9211 21.7082 18.5691 22.2341C19.0287 22.6091 19.4786 22.9503 19.9224 23.2641C20.1064 23.3907 20.288 23.5167 20.4708 23.6378C21.0888 24.0445 21.658 24.4183 22.1757 24.7584C22.4796 24.9566 22.7619 25.1468 23.0242 25.3345C23.2125 25.4648 23.3928 25.5957 23.5609 25.7235C23.9662 26.025 24.2798 26.34 24.5096 26.6678C24.6966 26.9381 24.7449 27.0983 24.6556 27.1539C24.5645 27.2065 24.3768 27.1672 24.0876 27.0351C23.859 26.9311 23.5906 26.7678 23.2849 26.5562C22.9787 26.3366 22.67 26.0956 22.3509 25.8235C22.0373 25.5501 21.7195 25.2523 21.4059 24.9269C21.0899 24.6009 20.8069 24.2781 20.552 23.9466L18.2314 22.8773L21.5947 27.7131L23.9135 28.7794L23.3402 27.9551C23.578 28.1471 23.8592 28.363 24.1814 28.6022C24.3238 28.708 24.4735 28.8156 24.6233 28.9233C24.814 29.0542 25.0091 29.1887 25.2096 29.3221L26.7406 31.5217Z" fill="url(#paint8_linear_40_165)" />
	<defs>
		<linearGradient id="paint0_linear_40_165" x1="42.3666" y1="33.4105" x2="11.0399" y2="1.89822" gradientUnits="userSpaceOnUse">
			<stop offset="0.1616" stop-color="#FFF8C7" />
			<stop offset="0.1986" stop-color="#FFF6C1" />
			<stop offset="0.2466" stop-color="#FEF0B1" />
			<stop offset="0.3007" stop-color="#FEE696" />
			<stop offset="0.3593" stop-color="#FDD871" />
			<stop offset="0.4207" stop-color="#FCC641" />
			<stop offset="0.469" stop-color="#FBB617" />
			<stop offset="0.526" stop-color="#A26009" />
			<stop offset="0.5588" stop-color="#6C2D00" />
			<stop offset="0.6146" stop-color="#6D3001" />
			<stop offset="0.6407" stop-color="#BA7D11" />
			<stop offset="0.6625" stop-color="#FDC120" />
			<stop offset="0.8107" stop-color="#DB9204" />
			<stop offset="0.8162" stop-color="#E09D12" />
			<stop offset="0.8298" stop-color="#EBB52F" />
			<stop offset="0.8443" stop-color="#F3C746" />
			<stop offset="0.8598" stop-color="#F9D456" />
			<stop offset="0.8773" stop-color="#FDDC60" />
			<stop offset="0.9005" stop-color="#FEDE63" />
			<stop offset="1" stop-color="#FBC543" />
		</linearGradient>
		<linearGradient id="paint1_linear_40_165" x1="41.6906" y1="35.0497" x2="9.75196" y2="2.9219" gradientUnits="userSpaceOnUse">
			<stop stop-color="#E0A300" />
			<stop offset="0.0833" stop-color="#FFC524" />
			<stop offset="0.1516" stop-color="#FFD759" />
			<stop offset="0.4069" stop-color="#FFF4A5" />
			<stop offset="0.4208" stop-color="#FEF09F" />
			<stop offset="0.4389" stop-color="#FCE68F" />
			<stop offset="0.4592" stop-color="#F9D574" />
			<stop offset="0.4813" stop-color="#F5BD4F" />
			<stop offset="0.5044" stop-color="#EF9E20" />
			<stop offset="0.518" stop-color="#EB8A00" />
			<stop offset="0.5625" stop-color="#AD4300" />
			<stop offset="0.6087" stop-color="#6E3500" />
			<stop offset="0.6515" stop-color="#E09D00" />
			<stop offset="0.6573" stop-color="#E7AA16" />
			<stop offset="0.6672" stop-color="#F2BE37" />
			<stop offset="0.6768" stop-color="#F9CC4E" />
			<stop offset="0.6857" stop-color="#FDD45C" />
			<stop offset="0.6934" stop-color="#FFD761" />
			<stop offset="0.7325" stop-color="#FFD75F" />
			<stop offset="0.7465" stop-color="#FFD558" />
			<stop offset="0.7566" stop-color="#FFD34D" />
			<stop offset="0.7646" stop-color="#FFCF3C" />
			<stop offset="0.7707" stop-color="#FFCB29" />
			<stop offset="0.7818" stop-color="#FBC525" />
			<stop offset="0.7968" stop-color="#F0B41A" />
			<stop offset="0.8139" stop-color="#DE9808" />
			<stop offset="0.8205" stop-color="#D68B00" />
			<stop offset="0.8228" stop-color="#DD9B16" />
			<stop offset="0.8268" stop-color="#E7B133" />
			<stop offset="0.8311" stop-color="#F0C34B" />
			<stop offset="0.8361" stop-color="#F6D15E" />
			<stop offset="0.8419" stop-color="#FBDB6B" />
			<stop offset="0.8493" stop-color="#FDE073" />
			<stop offset="0.8644" stop-color="#FEE275" />
			<stop offset="0.9367" stop-color="#FEE47E" />
			<stop offset="1" stop-color="#FED94B" />
		</linearGradient>
		<linearGradient id="paint2_linear_40_165" x1="38.5485" y1="38.8069" x2="5.90339" y2="5.96849" gradientUnits="userSpaceOnUse">
			<stop offset="0.1616" stop-color="#CC7800" />
			<stop offset="0.2072" stop-color="#D07E02" />
			<stop offset="0.2662" stop-color="#DA8E08" />
			<stop offset="0.3325" stop-color="#EAA912" />
			<stop offset="0.3682" stop-color="#F5BA18" />
			<stop offset="0.4286" stop-color="#F1AA1A" />
			<stop offset="0.4743" stop-color="#EE9B1B" />
			<stop offset="0.5407" stop-color="#6B2B00" />
			<stop offset="0.6147" stop-color="#6D3001" />
			<stop offset="0.7067" stop-color="#FEBB00" />
			<stop offset="0.7513" stop-color="#F7B400" />
			<stop offset="0.8185" stop-color="#E29F00" />
			<stop offset="0.9" stop-color="#C17D00" />
			<stop offset="0.9918" stop-color="#934F00" />
			<stop offset="1" stop-color="#8F4A00" />
		</linearGradient>
		<linearGradient id="paint3_linear_40_165" x1="34.0387" y1="35.2293" x2="9.79843" y2="10.8455" gradientUnits="userSpaceOnUse">
			<stop offset="0.1616" stop-color="#BA6D00" />
			<stop offset="0.2152" stop-color="#B46800" />
			<stop offset="0.2848" stop-color="#A45B00" />
			<stop offset="0.3628" stop-color="#894400" />
			<stop offset="0.4334" stop-color="#6B2B00" />
			<stop offset="0.6147" stop-color="#6D3001" />
			<stop offset="1" stop-color="#964100" />
		</linearGradient>
		<radialGradient id="paint4_radial_40_165" cx="0" cy="0" r="1" gradientUnits="userSpaceOnUse" gradientTransform="translate(22.0911 22.5201) rotate(-134.831) scale(17.2451 4.1994)">
			<stop stop-color="#BB860D" />
			<stop offset="1" stop-color="#9C5B04" />
		</radialGradient>
		<radialGradient id="paint5_radial_40_165" cx="0" cy="0" r="1" gradientUnits="userSpaceOnUse" gradientTransform="translate(20.5353 24.2183) rotate(-134.831) scale(18.3944 5.8509)">
			<stop stop-color="white" />
			<stop offset="0.4002" stop-color="white" />
			<stop offset="0.4661" stop-color="white" />
			<stop offset="0.6608" stop-color="#FEFEFD" />
			<stop offset="0.7328" stop-color="#FBF9F6" />
			<stop offset="0.7844" stop-color="#F6F1EA" />
			<stop offset="0.8263" stop-color="#EFE6D9" />
			<stop offset="0.8623" stop-color="#E6D7C3" />
			<stop offset="0.8943" stop-color="#DBC4A8" />
			<stop offset="0.9232" stop-color="#CEAE87" />
			<stop offset="0.9499" stop-color="#BE9461" />
			<stop offset="0.9746" stop-color="#AC7736" />
			<stop offset="0.9967" stop-color="#995808" />
			<stop offset="1" stop-color="#965300" />
		</radialGradient>
		<linearGradient id="paint6_linear_40_165" x1="16.4827" y1="37.8915" x2="25.1838" y2="12.9096" gradientUnits="userSpaceOnUse">
			<stop stop-color="#D98D0F" />
			<stop offset="0.4437" stop-color="#D98500" />
			<stop offset="1" stop-color="#944700" />
		</linearGradient>
		<linearGradient id="paint7_linear_40_165" x1="29.9787" y1="30.9042" x2="13.822" y2="14.6518" gradientUnits="userSpaceOnUse">
			<stop offset="0.0147" stop-color="#6E2C00" />
			<stop offset="0.0625" stop-color="#753400" />
			<stop offset="0.1385" stop-color="#884C00" />
			<stop offset="0.1616" stop-color="#8F5400" />
			<stop offset="0.2737" stop-color="#8A4E00" />
			<stop offset="0.4188" stop-color="#7C3E00" />
			<stop offset="0.5407" stop-color="#6B2B00" />
			<stop offset="0.6147" stop-color="#6D3001" />
			<stop offset="0.7067" stop-color="#8A4700" />
			<stop offset="1" stop-color="#6B3B00" />
		</linearGradient>
		<linearGradient id="paint8_linear_40_165" x1="18.8225" y1="25.8364" x2="25.4041" y2="19.2936" gradientUnits="userSpaceOnUse">
			<stop stop-color="#CC820E" />
			<stop offset="0.4069" stop-color="#E5A300" />
			<stop offset="0.5144" stop-color="#E29D00" />
			<stop offset="0.6537" stop-color="#D88D00" />
			<stop offset="0.7707" stop-color="#CC7A00" />
			<stop offset="1" stop-color="#873F00" />
		</linearGradient>
	</defs>
</svg>
