<svg width="53" height="59" viewBox="0 0 53 59" fill="none" xmlns="http://www.w3.org/2000/svg">
	<path d="M43.8981 25.6881C42.2556 17.4481 37.6737 9.89563 31.0482 5.74581C20.0057 -1.17395 7.45799 3.95665 3.02221 17.2047C1.24894 22.4965 1.03787 28.2902 2.13334 33.7745C3.77605 42.0111 8.35444 49.5668 14.9832 53.7202C26.0258 60.6366 38.5699 55.5091 43.0093 42.2579C44.7795 36.9591 44.9868 31.1721 43.8981 25.6881Z" fill="url(#paint0_linear_21_150)" />
	<path d="M18.2024 2.38382L22.7963 1.49587L22.9166 2.0897C25.9233 2.3094 29.0004 3.30737 31.9703 5.16997C38.7179 9.39377 43.3747 17.0791 45.0474 25.4667C46.1619 31.0471 45.9494 36.9392 44.1441 42.328C42.0552 48.5761 38.1886 53.0442 33.5249 55.3458L33.6446 55.9497L29.2322 56.8092L29.2154 56.805C24.8543 57.6569 20.1149 56.808 15.6221 53.9935C8.87463 49.7663 4.21799 42.0776 2.54518 33.6934C1.43404 28.1131 1.64319 22.2209 3.44842 16.8321C6.13429 8.81581 11.7378 3.71977 18.2024 2.38382Z" fill="url(#paint1_linear_21_150)" />
	<path d="M49.4697 24.6037C47.8003 16.2196 43.1367 8.53397 36.3926 4.30694C25.1559 -2.73795 12.3861 2.48705 7.87077 15.9691C6.06553 21.3578 5.84958 27.2498 6.96394 32.8336C8.63336 41.2176 13.2969 48.9067 20.0411 53.1303C31.2816 60.1686 44.0476 54.9502 48.5665 41.465C50.3681 36.0794 50.5808 30.1839 49.4697 24.6037Z" fill="url(#paint2_linear_21_150)" />
	<path d="M46.5507 25.1665C45.2268 18.5258 41.5343 12.4376 36.1911 9.08844C27.2912 3.51132 17.1746 7.65069 13.5999 18.3246C12.1693 22.5935 12.0002 27.261 12.8797 31.6812C14.2 38.3252 17.8925 44.4134 23.2357 47.7626C32.1391 53.3365 42.2521 49.2003 45.8306 38.5198C47.2576 34.2541 47.4302 29.5868 46.5507 25.1665Z" fill="url(#paint3_linear_21_150)" />
	<path d="M44.8212 25.503C43.5168 18.9516 39.8746 12.9474 34.6072 9.64621C25.8294 4.14308 15.8548 8.22487 12.3279 18.7551C10.9173 22.9638 10.7514 27.5669 11.617 31.9252C12.9214 38.4767 16.5637 44.4808 21.8309 47.7855C30.6088 53.2852 40.5832 49.2068 44.1137 38.6734C45.5243 34.4647 45.6901 29.865 44.8212 25.503Z" fill="url(#paint4_radial_21_150)" />
	<path d="M44.8212 25.503C43.5168 18.9516 39.8746 12.9474 34.6072 9.64621C25.8294 4.14308 15.8548 8.22487 12.3279 18.7551C10.9173 22.9638 10.7514 27.5669 11.617 31.9252C12.9214 38.4767 16.5637 44.4808 21.8309 47.7855C30.6088 53.2852 40.5832 49.2068 44.1137 38.6734C45.5243 34.4647 45.6901 29.865 44.8212 25.503Z" fill="url(#paint5_radial_21_150)" style="mix-blend-mode:darken" />
	<path d="M12.3885 31.7789C11.5231 27.4172 11.6855 22.8173 13.0994 18.6088C16.6297 8.07872 26.6042 3.99693 35.3787 9.4965C40.6529 12.7981 44.2886 18.7985 45.5931 25.3499C46.4619 29.7119 46.296 34.315 44.8852 38.5271C41.3551 49.0537 31.3839 53.1357 22.6024 47.6391C17.3352 44.3345 13.6963 38.3305 12.3885 31.7789ZM50.0257 24.4948C48.3758 16.1967 43.7626 8.58825 37.081 4.40508C25.9629 -2.56599 13.3216 2.60418 8.85385 15.9492C7.0684 21.2812 6.85538 27.1121 7.95902 32.6376C9.6089 40.9358 14.222 48.5442 20.9002 52.7306C32.0252 59.6986 44.663 54.5316 49.1311 41.1798C50.9166 35.8479 51.1259 30.0201 50.0257 24.4948Z" fill="url(#paint6_linear_21_150)" />
	<path d="M30.84 43.9037L32.9385 40.9761L32.0479 39.9466C32.3552 39.8496 32.7125 39.7007 33.1268 39.5003C33.5411 39.2999 33.9654 39.032 34.4201 38.701L36.8091 41.4558L37.5296 41.3147L37.5344 40.5979L37.4732 40.5303L38.8853 38.5645L36.8018 36.1611C37.415 35.3045 37.896 34.3733 38.2551 33.3614C38.6109 32.3493 38.8173 31.3333 38.8712 30.3097C38.908 29.5639 38.859 28.8343 38.7143 28.1169C38.6598 27.8458 38.5946 27.5809 38.516 27.3154C38.2279 26.3361 37.7251 25.438 37.0146 24.6179C36.0466 23.5065 35.108 22.8316 34.1951 22.5996C33.2823 22.3677 32.4052 22.3754 31.5644 22.6126C30.7301 22.8534 29.9358 23.2492 29.1875 23.8138C28.4396 24.3715 27.7515 24.8881 27.1196 25.3666C26.4877 25.8452 25.9132 26.194 25.3962 26.4098C24.8759 26.6254 24.4389 26.5291 24.0818 26.1207C23.9468 25.9645 23.8547 25.7628 23.8057 25.5158C23.7755 25.3715 23.7597 25.2111 23.7616 25.0344C23.7646 24.5589 23.9633 24.0454 24.3648 23.4841C24.949 22.6634 25.6965 22.1837 26.6077 22.035C27.5156 21.8861 28.4333 22.1556 29.3578 22.8401L30.0785 22.6989L29.9055 22.0719L32.011 19.1379L27.7637 14.2389L27.3752 12.8163L26.6546 12.9574L23.9948 16.6559L24.8662 17.6606C23.7872 18.0423 22.8612 18.5573 22.0891 19.192L20.5169 17.378L20.5785 16.4737L19.8545 16.6147L17.7851 19.5064L19.8168 21.8562C19.2426 22.7488 18.7581 23.6866 18.3799 24.6704C17.9985 25.6506 17.7727 26.6453 17.7029 27.6478C17.6491 28.3927 17.6975 29.1325 17.8385 29.8565C17.8909 30.1037 17.95 30.3513 18.0195 30.596C18.3118 31.5585 18.8146 32.4566 19.5411 33.2978C20.5285 34.4306 21.4866 35.1235 22.4193 35.3666C23.3554 35.6099 24.2423 35.6095 25.0872 35.3589C25.9286 35.1116 26.7372 34.6995 27.4994 34.1288C28.2685 33.5551 28.9709 33.0257 29.6165 32.5444C30.2553 32.0628 30.8376 31.6939 31.3525 31.4509C31.864 31.2077 32.3019 31.2871 32.6588 31.6988C32.8292 31.8942 32.9341 32.11 32.9833 32.3537C33.0187 32.5322 33.023 32.7193 32.9926 32.9217C32.928 33.4044 32.7316 33.8739 32.3993 34.34C32.1331 34.7075 31.809 35.0109 31.4239 35.24C31.0386 35.4724 30.6336 35.6223 30.2194 35.6835C29.8014 35.7512 29.3747 35.7234 28.9351 35.6099C28.7908 35.5722 28.6509 35.5177 28.5146 35.4566L28.4315 34.7967L27.7075 34.9377L25.0218 38.6825L30.256 44.721L30.9767 44.5798L30.84 43.9037Z" fill="url(#paint7_linear_21_150)" />
	<path d="M39.4315 27.9823C39.3769 27.7111 39.3119 27.4462 39.2333 27.1807C38.9452 26.2014 38.4457 25.3034 37.7352 24.4834C36.7672 23.372 35.8253 22.6969 34.9126 22.4616C34.003 22.2332 33.126 22.2375 32.2851 22.4747C31.4509 22.7155 30.6566 23.1113 29.9083 23.6759C29.1604 24.2337 28.4688 24.75 27.837 25.2286C27.2051 25.7071 26.6306 26.056 26.1136 26.2718C25.5966 26.4875 25.1597 26.3912 24.8026 25.9828C24.6676 25.8266 24.5756 25.625 24.5232 25.3777C24.4963 25.2337 24.4805 25.0732 24.479 24.8964C24.4819 24.4242 24.6808 23.9073 25.0822 23.346C25.6698 22.5255 26.4138 22.0457 27.3251 21.8969C28.2363 21.7482 29.1542 22.0177 30.0753 22.702L32.735 19.0035L27.3753 12.8229L24.7188 16.5216L25.5869 17.5261C24.5078 17.9078 23.5852 18.423 22.8099 19.0542L20.5787 16.477L18.5059 19.3685L20.5412 21.7151C19.9636 22.6075 19.4824 23.5455 19.1008 24.5291C18.7195 25.5093 18.4971 26.5042 18.4272 27.5066C18.3735 28.2516 18.4219 28.9914 18.5631 29.712C18.612 29.959 18.6745 30.2068 18.744 30.4515C19.0331 31.4104 19.5358 32.312 20.2656 33.1533C21.2496 34.2859 22.2077 34.9788 23.1438 35.2221C24.0765 35.4652 24.9668 35.465 25.8083 35.2142C26.6531 34.9671 27.4584 34.5548 28.2239 33.9843C28.9896 33.4105 29.6954 32.8812 30.3376 32.3997C30.98 31.9149 31.5588 31.5493 32.0737 31.3062C32.5886 31.0632 33.0231 31.1424 33.38 31.5542C33.5504 31.7495 33.6586 31.9655 33.7044 32.2091C33.7398 32.3875 33.7441 32.5746 33.7171 32.7772C33.6525 33.2599 33.4561 33.7294 33.124 34.1921C32.8577 34.563 32.5301 34.8663 32.1484 35.0955C31.7598 35.3278 31.3583 35.4745 30.9439 35.539C30.526 35.6067 30.0959 35.5787 29.6565 35.4619C29.2201 35.352 28.8099 35.1245 28.4322 34.7898L25.7465 38.5346L30.9774 44.5729L33.6632 40.8282L32.7726 39.7987C33.0833 39.7019 33.4406 39.5531 33.8551 39.3492C34.2658 39.152 34.6935 38.8843 35.145 38.5497L37.5338 41.3079L39.6098 38.42L37.5263 36.0166C38.1395 35.16 38.6238 34.229 38.983 33.2171C39.3353 32.2048 39.5418 31.1888 39.5957 30.1652C39.6285 29.4328 39.5762 28.6996 39.4315 27.9823Z" fill="url(#paint8_linear_21_150)" />
	<path d="M33.9443 49.6772C36.3895 49.0876 38.6388 47.785 40.4341 46.042C42.2229 44.2918 43.5858 42.1503 44.528 39.8588C46.4234 35.2595 46.7038 30.1285 45.7594 25.3007C45.5064 24.0921 45.1847 22.9004 44.787 21.7322C44.3754 20.5701 43.9017 19.4254 43.348 18.3208C42.7803 17.2224 42.1465 16.1547 41.4389 15.1377C40.7139 14.1301 39.9149 13.1731 39.0411 12.2873C37.2754 10.5385 35.2009 9.05646 32.8725 8.10563C30.5471 7.16176 27.9621 6.79635 25.4765 7.17324C27.973 6.85126 30.5279 7.27634 32.8073 8.25533C35.0974 9.22466 37.1274 10.7147 38.8489 12.4647C42.2832 16.0017 44.4695 20.5917 45.4167 25.3619C46.3774 30.1328 46.1004 35.1959 44.2816 39.7583C43.3777 42.0312 42.0594 44.1614 40.3111 45.917C38.5826 47.6837 36.3752 49.0326 33.9443 49.6772Z" fill="url(#paint9_linear_21_150)" />
	<defs>
		<linearGradient id="paint0_linear_21_150" x1="1.19283" y1="26.6719" x2="44.8343" y2="32.7871" gradientUnits="userSpaceOnUse">
			<stop offset="0.1616" stop-color="#FFF8C7" />
			<stop offset="0.1986" stop-color="#FFF6C1" />
			<stop offset="0.2466" stop-color="#FEF0B1" />
			<stop offset="0.3007" stop-color="#FEE696" />
			<stop offset="0.3593" stop-color="#FDD871" />
			<stop offset="0.4207" stop-color="#FCC641" />
			<stop offset="0.469" stop-color="#FBB617" />
			<stop offset="0.526" stop-color="#A26009" />
			<stop offset="0.5588" stop-color="#6C2D00" />
			<stop offset="0.6146" stop-color="#6D3001" />
			<stop offset="0.6407" stop-color="#BA7D11" />
			<stop offset="0.6625" stop-color="#FDC120" />
			<stop offset="0.8107" stop-color="#DB9204" />
			<stop offset="0.8162" stop-color="#E09D12" />
			<stop offset="0.8298" stop-color="#EBB52F" />
			<stop offset="0.8443" stop-color="#F3C746" />
			<stop offset="0.8598" stop-color="#F9D456" />
			<stop offset="0.8773" stop-color="#FDDC60" />
			<stop offset="0.9005" stop-color="#FEDE63" />
			<stop offset="1" stop-color="#FBC543" />
		</linearGradient>
		<linearGradient id="paint1_linear_21_150" x1="29.1593" y1="56.8276" x2="18.431" y2="2.33685" gradientUnits="userSpaceOnUse">
			<stop stop-color="#E0A300" />
			<stop offset="0.0833" stop-color="#FFC524" />
			<stop offset="0.1516" stop-color="#FFD759" />
			<stop offset="0.4069" stop-color="#FFF4A5" />
			<stop offset="0.4208" stop-color="#FEF09F" />
			<stop offset="0.4389" stop-color="#FCE68F" />
			<stop offset="0.4592" stop-color="#F9D574" />
			<stop offset="0.4813" stop-color="#F5BD4F" />
			<stop offset="0.5044" stop-color="#EF9E20" />
			<stop offset="0.518" stop-color="#EB8A00" />
			<stop offset="0.5625" stop-color="#AD4300" />
			<stop offset="0.6087" stop-color="#6E3500" />
			<stop offset="0.6515" stop-color="#E09D00" />
			<stop offset="0.6573" stop-color="#E7AA16" />
			<stop offset="0.6672" stop-color="#F2BE37" />
			<stop offset="0.6768" stop-color="#F9CC4E" />
			<stop offset="0.6857" stop-color="#FDD45C" />
			<stop offset="0.6934" stop-color="#FFD761" />
			<stop offset="0.7325" stop-color="#FFD75F" />
			<stop offset="0.7465" stop-color="#FFD558" />
			<stop offset="0.7566" stop-color="#FFD34D" />
			<stop offset="0.7646" stop-color="#FFCF3C" />
			<stop offset="0.7707" stop-color="#FFCB29" />
			<stop offset="0.7818" stop-color="#FBC525" />
			<stop offset="0.7968" stop-color="#F0B41A" />
			<stop offset="0.8139" stop-color="#DE9808" />
			<stop offset="0.8205" stop-color="#D68B00" />
			<stop offset="0.8228" stop-color="#DD9B16" />
			<stop offset="0.8268" stop-color="#E7B133" />
			<stop offset="0.8311" stop-color="#F0C34B" />
			<stop offset="0.8361" stop-color="#F6D15E" />
			<stop offset="0.8419" stop-color="#FBDB6B" />
			<stop offset="0.8493" stop-color="#FDE073" />
			<stop offset="0.8644" stop-color="#FEE275" />
			<stop offset="0.9367" stop-color="#FEE47E" />
			<stop offset="1" stop-color="#FED94B" />
		</linearGradient>
		<linearGradient id="paint2_linear_21_150" x1="6.01096" y1="25.6049" x2="50.4238" y2="31.8281" gradientUnits="userSpaceOnUse">
			<stop offset="0.1616" stop-color="#CC7800" />
			<stop offset="0.2072" stop-color="#D07E02" />
			<stop offset="0.2662" stop-color="#DA8E08" />
			<stop offset="0.3325" stop-color="#EAA912" />
			<stop offset="0.3682" stop-color="#F5BA18" />
			<stop offset="0.4286" stop-color="#F1AA1A" />
			<stop offset="0.4743" stop-color="#EE9B1B" />
			<stop offset="0.5407" stop-color="#6B2B00" />
			<stop offset="0.6147" stop-color="#6D3001" />
			<stop offset="0.7067" stop-color="#FEC423" />
			<stop offset="1" stop-color="#8F4E00" />
		</linearGradient>
		<linearGradient id="paint3_linear_21_150" x1="12.1238" y1="25.9594" x2="47.3061" y2="30.8892" gradientUnits="userSpaceOnUse">
			<stop offset="0.1616" stop-color="#BA6D00" />
			<stop offset="0.2152" stop-color="#B46800" />
			<stop offset="0.2848" stop-color="#A45B00" />
			<stop offset="0.3628" stop-color="#894400" />
			<stop offset="0.4334" stop-color="#6B2B00" />
			<stop offset="0.6147" stop-color="#6D3001" />
			<stop offset="1" stop-color="#964100" />
		</linearGradient>
		<radialGradient id="paint4_radial_21_150" cx="0" cy="0" r="1" gradientUnits="userSpaceOnUse" gradientTransform="translate(28.2212 28.7175) rotate(7.97645) scale(19.4486)">
			<stop stop-color="#CC920E" />
			<stop offset="1" stop-color="#AD6505" />
		</radialGradient>
		<radialGradient id="paint5_radial_21_150" cx="0" cy="0" r="1" gradientUnits="userSpaceOnUse" gradientTransform="translate(25.7298 47.2856) rotate(7.97645) scale(24.6855)">
			<stop stop-color="white" />
			<stop offset="0.6578" stop-color="white" />
			<stop offset="0.7661" stop-color="white" />
			<stop offset="0.8514" stop-color="#FEFEFD" />
			<stop offset="0.8829" stop-color="#FBF9F6" />
			<stop offset="0.9055" stop-color="#F6F1EA" />
			<stop offset="0.9239" stop-color="#EFE6D9" />
			<stop offset="0.9397" stop-color="#E6D7C3" />
			<stop offset="0.9537" stop-color="#DBC4A8" />
			<stop offset="0.9664" stop-color="#CEAE87" />
			<stop offset="0.978" stop-color="#BE9461" />
			<stop offset="0.9889" stop-color="#AC7736" />
			<stop offset="0.9986" stop-color="#995808" />
			<stop offset="1" stop-color="#965300" />
		</radialGradient>
		<linearGradient id="paint6_linear_21_150" x1="32.5921" y1="2.91952" x2="25.4589" y2="53.8269" gradientUnits="userSpaceOnUse">
			<stop stop-color="#E6A010" />
			<stop offset="0.4069" stop-color="#FFC500" />
			<stop offset="0.5239" stop-color="#FCBF00" />
			<stop offset="0.6757" stop-color="#F2AF00" />
			<stop offset="0.8459" stop-color="#E39400" />
			<stop offset="1" stop-color="#D17600" />
		</linearGradient>
		<linearGradient id="paint7_linear_21_150" x1="48.5695" y1="24.8854" x2="8.34132" y2="32.8056" gradientUnits="userSpaceOnUse">
			<stop offset="0.1616" stop-color="#AD6600" />
			<stop offset="0.2452" stop-color="#A76100" />
			<stop offset="0.3535" stop-color="#975200" />
			<stop offset="0.4751" stop-color="#7C3B00" />
			<stop offset="0.5407" stop-color="#6B2B00" />
			<stop offset="0.6147" stop-color="#6D3001" />
			<stop offset="0.7067" stop-color="#8A4700" />
			<stop offset="1" stop-color="#6B3B00" />
		</linearGradient>
		<linearGradient id="paint8_linear_21_150" x1="49.2859" y1="24.746" x2="9.06401" y2="32.665" gradientUnits="userSpaceOnUse">
			<stop stop-color="#CC820E" />
			<stop offset="0.4069" stop-color="#E5A300" />
			<stop offset="0.5144" stop-color="#E29D00" />
			<stop offset="0.6537" stop-color="#D88D00" />
			<stop offset="0.7707" stop-color="#CC7A00" />
			<stop offset="1" stop-color="#873F00" />
		</linearGradient>
		<linearGradient id="paint9_linear_21_150" x1="41.8956" y1="48.11" x2="33.5244" y2="5.59083" gradientUnits="userSpaceOnUse">
			<stop stop-color="#FFAA00" />
			<stop offset="0.4979" stop-color="#FFEF7F" />
			<stop offset="0.5718" stop-color="#FCEA79" />
			<stop offset="0.6677" stop-color="#F4DA69" />
			<stop offset="0.7757" stop-color="#E6C14E" />
			<stop offset="0.8918" stop-color="#D29F29" />
			<stop offset="1" stop-color="#BD7800" />
		</linearGradient>
	</defs>
</svg>
