<svg width="129" height="81" viewBox="0 0 129 81" fill="none" xmlns="http://www.w3.org/2000/svg">
	<path d="M60.7002 57.2161C93.6136 63.9887 122.715 57.7821 125.691 43.3525C128.661 28.9169 104.37 11.7254 71.4566 4.9528C38.5263 -1.82635 9.42979 4.38618 6.45452 18.8158C3.49074 33.246 27.7698 50.437 60.7002 57.2161Z" fill="url(#paint0_linear_21_314)" />
	<path d="M10.2947 36.6628C19.1739 46.7302 37.6208 56.0602 59.9927 60.6597C82.3589 65.259 102.983 63.9729 115.118 58.2309L123.328 59.9259L126.185 46.0261C126.193 45.9804 126.207 45.935 126.22 45.8896C126.229 45.8382 126.237 45.7925 126.245 45.7469L126.281 45.5874L126.276 45.5871C128.891 30.9728 104.312 13.6862 71.0677 6.84552C37.8294 0.00509879 8.42977 6.17394 5.0449 20.6179L5.0335 20.6173L2.07878 34.9789L10.2947 36.6628Z" fill="url(#paint1_linear_21_314)" />
	<path d="M57.2394 74.023C90.7171 80.9155 120.308 74.6064 123.324 59.9255C126.346 45.2505 101.65 27.7682 68.1781 20.8702C34.6886 13.9828 5.09776 20.292 2.08129 34.9729C-0.940638 49.6479 23.7557 67.1359 57.2394 74.023Z" fill="url(#paint2_linear_21_314)" />
	<path d="M10.7146 39.1591C13.1839 27.1637 38.2517 22.1807 66.701 28.0361C95.1445 33.8913 116.212 48.361 113.736 60.3618C111.261 72.3627 86.205 77.3407 57.7557 71.4852C29.3065 65.6298 8.25104 51.1548 10.7146 39.1591Z" fill="url(#paint3_linear_21_314)" />
	<path d="M15.5195 38.3726C17.7984 27.3181 40.7064 22.6891 66.6984 28.0375C92.6848 33.3855 111.909 46.6874 109.63 57.7419C107.357 68.7967 84.4433 73.4254 58.4569 68.0773C32.4706 62.7292 13.2463 49.4274 15.5195 38.3726Z" fill="url(#paint4_radial_21_314)" />
	<path d="M66.5708 28.6925C92.5571 34.0405 111.722 47.6102 109.375 59.0012C107.027 70.3979 84.0599 75.2945 58.0793 69.9467C32.0873 64.5984 12.9162 51.0343 15.2639 39.6376C17.6112 28.2466 40.5787 23.3441 66.5708 28.6925ZM56.9499 75.4486C89.863 82.2269 118.965 76.0145 121.935 61.5846C124.91 47.155 100.62 29.9578 67.7005 23.1849C34.7759 16.4061 5.67947 22.6186 2.7042 37.0482C-0.265321 51.4781 24.0195 68.6694 56.9499 75.4486Z" fill="url(#paint5_linear_21_314)" />
	<path d="M54.9834 62.1634L63.946 64.005L64.6131 60.7552C67.2642 61.3006 69.8209 61.6571 72.2997 61.8428C74.7788 62.0227 76.9967 62.0112 78.9648 61.8089C80.9156 61.6057 82.5256 61.1897 83.7886 60.5725C85.0457 59.9549 85.7911 59.0875 86.0187 57.9757C86.3297 56.4591 85.8897 55.1071 84.6709 53.8951C83.4634 52.6895 81.8995 51.5872 79.9728 50.5995C78.0459 49.6175 75.8958 48.7224 73.5447 47.9326C71.1939 47.137 69.0187 46.4019 67.0296 45.7451C65.0354 45.0766 63.3733 44.4475 62.0607 43.8529C60.7424 43.258 60.1316 42.6808 60.251 42.128C60.3194 41.7916 60.7858 41.5612 61.6497 41.4426C62.5255 41.3188 63.827 41.4348 65.5659 41.7913C68.0918 42.3075 70.3036 43.1193 72.2016 44.2208C74.0824 45.3214 75.2314 46.5472 75.6315 47.8916L87.1081 50.2546L88.8277 41.8966L77.3572 39.528L77.0774 40.8791C74.4436 39.6319 71.8684 38.6007 69.3395 37.7963L70.0529 34.3126L61.0902 32.471L60.4383 35.6467C57.7789 35.1527 55.2164 34.7959 52.7448 34.5818C50.2794 34.3565 48.063 34.3392 46.1193 34.514C44.1581 34.6937 42.5607 35.0872 41.3155 35.6938C40.0701 36.3062 39.3302 37.1796 39.1012 38.3202C38.7836 39.8537 39.2336 41.2408 40.4509 42.4815C41.6685 43.7164 43.2603 44.8373 45.2156 45.8265C47.1707 46.8214 49.349 47.7294 51.7624 48.5396C54.1758 49.3498 56.3853 50.0922 58.4077 50.7737C60.4361 51.4497 62.1327 52.0805 63.4917 52.6659C64.8623 53.2518 65.4849 53.8239 65.3715 54.3712C65.2802 54.8217 64.7438 55.0716 63.7508 55.1205C62.7638 55.164 61.5436 55.0347 60.1069 54.7392C58.9548 54.5095 57.8308 54.1777 56.7174 53.7484C55.6035 53.3306 54.6188 52.8616 53.757 52.3526C52.9064 51.8499 52.1846 51.3075 51.6146 50.7207C51.0446 50.1339 50.7152 49.5706 50.6514 48.9973L39.0432 46.6162L37.3617 54.7861L48.9697 57.1671L49.2515 55.7759C49.9822 56.1402 50.8947 56.5538 51.9837 57.0107C53.0839 57.4738 54.3447 57.9507 55.7439 58.4229L54.9834 62.1634Z" fill="url(#paint6_linear_21_314)" />
	<path d="M55.032 61.9242L63.9945 63.7658L64.667 60.5221C67.3126 61.0615 69.875 61.4241 72.3541 61.604C74.8328 61.7896 77.0508 61.7724 79.0132 61.5697C80.9638 61.3722 82.5739 60.9564 83.8371 60.3334C85.1001 59.7161 85.8454 58.8487 86.0731 57.7369C86.3837 56.226 85.9381 54.8679 84.7251 53.6562C83.5176 52.4506 81.9534 51.3541 80.0268 50.3664C78.0944 49.3784 75.9499 48.4836 73.5931 47.6935C71.242 46.9037 69.0726 46.1688 67.0838 45.5063C65.0839 44.8375 63.4272 44.2144 62.1149 43.6141C60.7909 43.0189 60.1858 42.4419 60.2991 41.8946C60.3733 41.5585 60.84 41.3223 61.704 41.2037C62.5737 41.0854 63.8814 41.196 65.6203 41.5525C68.1401 42.0742 70.3579 42.8804 72.2502 43.9816C74.1364 45.0883 75.2853 46.3141 75.6857 47.6527L87.1565 50.0155L88.8819 41.6578L77.4056 39.2946L77.1315 40.646C74.498 39.393 71.917 38.3615 69.3881 37.5572L70.1068 34.0796L61.1446 32.2322L60.4924 35.4136C57.8272 34.9193 55.2708 34.557 52.7991 34.3429C50.3275 34.1288 48.1173 34.1005 46.1679 34.275C44.2124 34.4549 42.615 34.8483 41.3641 35.4546C40.1245 36.0673 39.3846 36.9408 39.1555 38.0813C38.8377 39.6206 39.2821 41.0016 40.5051 42.2426C41.7227 43.4776 43.3089 44.5982 45.2697 45.5934C47.2248 46.5883 49.4032 47.4905 51.8166 48.3007C54.23 49.1109 56.4392 49.8591 58.4619 50.5348C60.4843 51.2163 62.1868 51.8474 63.5461 52.427C64.9167 53.013 65.5335 53.5847 65.4259 54.1323C65.3345 54.5828 64.7922 54.8325 63.805 54.8816C62.8177 54.9308 61.5975 54.8015 60.155 54.5058C59.009 54.2707 57.8794 53.9386 56.7658 53.5151C55.6578 53.0918 54.673 52.6227 53.8109 52.1195C52.9549 51.6107 52.233 51.0684 51.6688 50.4819C51.0927 49.9006 50.7694 49.3317 50.6995 48.7639L39.0976 46.3773L37.4159 54.5473L49.018 56.9338L49.3054 55.5428C50.0361 55.9071 50.9491 56.3149 52.0381 56.7718C53.1383 57.235 54.3989 57.7119 55.7981 58.1841L55.032 61.9242Z" fill="url(#paint7_linear_21_314)" />
	<path d="M54.7659 63.2298L63.7283 65.0715L64.3956 61.8217C67.0466 62.3672 69.6031 62.7294 72.0822 62.9093C74.5612 63.0893 76.7849 63.078 78.7472 62.8753C80.6981 62.6721 82.3078 62.262 83.571 61.639C84.8339 61.0217 85.5793 60.1543 85.8012 59.0422C86.1118 57.5314 85.672 56.1735 84.4532 54.9616C83.2514 53.7562 81.6815 52.6594 79.7549 51.6717C77.8282 50.684 75.6783 49.7888 73.3272 48.999C70.9764 48.2035 68.8067 47.4687 66.8119 46.8117C64.8177 46.1431 63.1556 45.5139 61.843 44.9193C60.5247 44.3245 59.9141 43.7473 60.0332 43.2003C60.1019 42.8581 60.574 42.628 61.4322 42.5091C62.3077 42.391 63.6095 42.5013 65.3484 42.8577C67.8743 43.374 70.0861 44.1858 71.9841 45.2872C73.8706 46.3882 75.0139 47.6137 75.414 48.958L86.8906 51.3211L88.616 42.9633L77.1397 40.5945L76.8596 41.9513C74.2261 40.6984 71.6509 39.6671 69.122 38.8628L69.841 35.3795L60.8785 33.5377L60.2207 36.7132C57.5614 36.2191 55.0046 35.8626 52.533 35.6485C50.062 35.4229 47.8455 35.4057 45.9018 35.5805C43.9463 35.7605 42.3489 36.1539 41.098 36.7603C39.8526 37.3726 39.1184 38.2464 38.8836 39.3866C38.5718 40.9205 39.0159 42.3073 40.2332 43.548C41.4566 44.7832 43.0428 45.9038 45.0036 46.899C46.9587 47.8939 49.1372 48.7962 51.5449 49.606C53.9583 50.4162 56.1678 51.1587 58.1902 51.8402C60.2183 52.5219 61.9152 53.147 63.28 53.7327C64.6448 54.3183 65.2674 54.8904 65.1597 55.4379C65.0627 55.8881 64.5262 56.1381 63.5333 56.187C62.5463 56.2305 61.3256 56.1069 59.8889 55.8114C58.7429 55.5763 57.6133 55.2442 56.4999 54.8149C55.386 54.3971 54.4013 53.9281 53.5395 53.4191C52.6889 52.9164 51.9671 52.3682 51.3969 51.7872C50.8269 51.2004 50.5035 50.6373 50.4339 50.0637L38.8314 47.6829L37.1497 55.8528L48.7522 58.2337L49.034 56.8424C49.7705 57.207 50.6772 57.6203 51.772 58.0774C52.8721 58.5406 54.1272 59.0171 55.5322 59.4896L54.7659 63.2298Z" fill="url(#paint8_linear_21_314)" />
	<path d="M29.2835 21.2439C32.3661 23.0834 35.4633 24.9756 38.5361 26.8952C46.7198 26.0781 56.4157 26.5967 66.5695 28.6872C92.5559 34.0353 111.721 47.6049 109.373 58.9958C107.958 65.8658 99.0392 70.3671 86.4879 71.6944C87.6694 73.8951 88.6656 76.0003 89.5131 77.9657C107.212 76.7829 120.017 70.8953 121.933 61.5794C124.909 47.1498 100.618 29.9525 67.6993 23.1796C53.6056 20.2843 40.2239 19.768 29.2835 21.2439Z" fill="url(#paint9_linear_21_314)" style="mix-blend-mode:overlay" />
	<defs>
		<linearGradient id="paint0_linear_21_314" x1="5.89871" y1="22.6441" x2="126.253" y2="39.5083" gradientUnits="userSpaceOnUse">
			<stop offset="0.1616" stop-color="#CC7800" />
			<stop offset="0.2072" stop-color="#D07E02" />
			<stop offset="0.2662" stop-color="#DA8E08" />
			<stop offset="0.3325" stop-color="#EAA912" />
			<stop offset="0.3682" stop-color="#F5BA18" />
			<stop offset="0.4286" stop-color="#F1AA1A" />
			<stop offset="0.4743" stop-color="#EE9B1B" />
			<stop offset="0.5407" stop-color="#6B2B00" />
			<stop offset="0.6147" stop-color="#6D3001" />
			<stop offset="0.7067" stop-color="#FEC423" />
			<stop offset="1" stop-color="#8F4E00" />
		</linearGradient>
		<linearGradient id="paint1_linear_21_314" x1="126.148" y1="46.2291" x2="4.89659" y2="21.2708" gradientUnits="userSpaceOnUse">
			<stop stop-color="#E0A300" />
			<stop offset="0.0833" stop-color="#FFC524" />
			<stop offset="0.1516" stop-color="#FFD759" />
			<stop offset="0.4069" stop-color="#FFF4A5" />
			<stop offset="0.4208" stop-color="#FEF09F" />
			<stop offset="0.4389" stop-color="#FCE68F" />
			<stop offset="0.4592" stop-color="#F9D574" />
			<stop offset="0.4813" stop-color="#F5BD4F" />
			<stop offset="0.5044" stop-color="#EF9E20" />
			<stop offset="0.518" stop-color="#EB8A00" />
			<stop offset="0.5625" stop-color="#AD4300" />
			<stop offset="0.6087" stop-color="#6E3500" />
			<stop offset="0.6515" stop-color="#E09D00" />
			<stop offset="0.6573" stop-color="#E7AA16" />
			<stop offset="0.6672" stop-color="#F2BE37" />
			<stop offset="0.6768" stop-color="#F9CC4E" />
			<stop offset="0.6857" stop-color="#FDD45C" />
			<stop offset="0.6934" stop-color="#FFD761" />
			<stop offset="0.7325" stop-color="#FFD75F" />
			<stop offset="0.7465" stop-color="#FFD558" />
			<stop offset="0.7566" stop-color="#FFD34D" />
			<stop offset="0.7646" stop-color="#FFCF3C" />
			<stop offset="0.7707" stop-color="#FFCB29" />
			<stop offset="0.7818" stop-color="#FBC525" />
			<stop offset="0.7968" stop-color="#F0B41A" />
			<stop offset="0.8139" stop-color="#DE9808" />
			<stop offset="0.8205" stop-color="#D68B00" />
			<stop offset="0.8228" stop-color="#DD9B16" />
			<stop offset="0.8268" stop-color="#E7B133" />
			<stop offset="0.8311" stop-color="#F0C34B" />
			<stop offset="0.8361" stop-color="#F6D15E" />
			<stop offset="0.8419" stop-color="#FBDB6B" />
			<stop offset="0.8493" stop-color="#FDE073" />
			<stop offset="0.8644" stop-color="#FEE275" />
			<stop offset="0.9367" stop-color="#FEE47E" />
			<stop offset="1" stop-color="#FED94B" />
		</linearGradient>
		<linearGradient id="paint2_linear_21_314" x1="1.51426" y1="38.8765" x2="123.899" y2="56.0254" gradientUnits="userSpaceOnUse">
			<stop offset="0.1616" stop-color="#FFF8C7" />
			<stop offset="0.1986" stop-color="#FFF6C1" />
			<stop offset="0.2466" stop-color="#FEF0B1" />
			<stop offset="0.3007" stop-color="#FEE696" />
			<stop offset="0.3593" stop-color="#FDD871" />
			<stop offset="0.4207" stop-color="#FCC641" />
			<stop offset="0.469" stop-color="#FBB617" />
			<stop offset="0.541" stop-color="#A26009" />
			<stop offset="0.5826" stop-color="#6C2D00" />
			<stop offset="0.6342" stop-color="#6D3001" />
			<stop offset="0.6719" stop-color="#BA7D11" />
			<stop offset="0.7035" stop-color="#FDC120" />
			<stop offset="0.8149" stop-color="#DB9204" />
			<stop offset="0.8202" stop-color="#E09D12" />
			<stop offset="0.8332" stop-color="#EBB52F" />
			<stop offset="0.8469" stop-color="#F3C746" />
			<stop offset="0.8618" stop-color="#F9D456" />
			<stop offset="0.8784" stop-color="#FDDC60" />
			<stop offset="0.9005" stop-color="#FEDE63" />
			<stop offset="1" stop-color="#FBC543" />
		</linearGradient>
		<linearGradient id="paint3_linear_21_314" x1="113.733" y1="60.3607" x2="10.7052" y2="39.1629" gradientUnits="userSpaceOnUse">
			<stop offset="0.1616" stop-color="#BA6D00" />
			<stop offset="0.2364" stop-color="#B46800" />
			<stop offset="0.3334" stop-color="#A45B00" />
			<stop offset="0.4422" stop-color="#894400" />
			<stop offset="0.5407" stop-color="#6B2B00" />
			<stop offset="0.6147" stop-color="#6D3001" />
			<stop offset="0.7067" stop-color="#FEBB00" />
			<stop offset="1" stop-color="#6B3B00" />
		</linearGradient>
		<radialGradient id="paint4_radial_21_314" cx="0" cy="0" r="1" gradientUnits="userSpaceOnUse" gradientTransform="translate(62.579 48.0545) rotate(-168.371) scale(48.0518 20.4411)">
			<stop stop-color="#FEDE6D" />
			<stop offset="1" stop-color="#EBA719" />
		</radialGradient>
		<linearGradient id="paint5_linear_21_314" x1="66.0253" y1="22.8944" x2="58.5359" y2="76.3439" gradientUnits="userSpaceOnUse">
			<stop stop-color="#FFD651" />
			<stop offset="0.4069" stop-color="#FFEC60" />
			<stop offset="0.4829" stop-color="#FFE95A" />
			<stop offset="0.5815" stop-color="#FFE14A" />
			<stop offset="0.692" stop-color="#FFD32F" />
			<stop offset="0.7707" stop-color="#FFC718" />
			<stop offset="0.8644" stop-color="#FED844" />
			<stop offset="0.9367" stop-color="#FED949" />
		</linearGradient>
		<linearGradient id="paint6_linear_21_314" x1="88.1898" y1="53.522" x2="37.8993" y2="43.1703" gradientUnits="userSpaceOnUse">
			<stop offset="0.1616" stop-color="#BA6D00" />
			<stop offset="0.2364" stop-color="#B46800" />
			<stop offset="0.3334" stop-color="#A45B00" />
			<stop offset="0.4422" stop-color="#894400" />
			<stop offset="0.5407" stop-color="#6B2B00" />
			<stop offset="0.6147" stop-color="#6D3001" />
			<stop offset="0.7067" stop-color="#CF7C00" />
			<stop offset="1" stop-color="#6B3B00" />
		</linearGradient>
		<linearGradient id="paint7_linear_21_314" x1="88.2462" y1="53.287" x2="37.9558" y2="42.9352" gradientUnits="userSpaceOnUse">
			<stop offset="0.1616" stop-color="#BA6D00" />
			<stop offset="0.2364" stop-color="#B46800" />
			<stop offset="0.3334" stop-color="#A45B00" />
			<stop offset="0.4422" stop-color="#894400" />
			<stop offset="0.5407" stop-color="#6B2B00" />
			<stop offset="0.6147" stop-color="#6D3001" />
			<stop offset="0.7067" stop-color="#CF7C00" />
			<stop offset="1" stop-color="#6B3B00" />
		</linearGradient>
		<linearGradient id="paint8_linear_21_314" x1="56.9889" y1="75.2209" x2="67.778" y2="22.8058" gradientUnits="userSpaceOnUse">
			<stop stop-color="#FFE48C" />
			<stop offset="0.4069" stop-color="#FFF4A5" />
			<stop offset="0.4612" stop-color="#FFF29F" />
			<stop offset="0.5317" stop-color="#FFED8F" />
			<stop offset="0.6112" stop-color="#FFE474" />
			<stop offset="0.6965" stop-color="#FFD84F" />
			<stop offset="0.7707" stop-color="#FFCB29" />
			<stop offset="0.8644" stop-color="#FEE275" />
			<stop offset="0.9367" stop-color="#FEE47E" />
		</linearGradient>
		<linearGradient id="paint9_linear_21_314" x1="104.353" y1="28.9941" x2="70.5974" y2="46.9753" gradientUnits="userSpaceOnUse">
			<stop stop-color="#919191" />
			<stop offset="0.9972" />
		</linearGradient>
	</defs>
</svg>
