<svg width="89" height="117" viewBox="0 0 89 117" fill="none" xmlns="http://www.w3.org/2000/svg">
	<path d="M58.3853 66.1417C73.3623 38.3817 75.6438 10.5587 63.4696 3.98443C51.2947 -2.57777 29.2849 14.6026 14.308 42.3626C-0.669543 70.1348 -2.95138 97.9637 9.22315 104.532C21.3977 111.1 43.4078 93.9139 58.3853 66.1417Z" fill="url(#paint0_linear_21_278)" />
	<path d="M26.3081 105.902C37.7517 100.639 51.12 86.576 61.296 67.7092C71.4654 48.8542 75.8813 29.9576 73.9996 17.5055L77.7402 10.5775L66.0257 4.2621C65.9843 4.24188 65.9432 4.21566 65.9017 4.19544C65.8606 4.16917 65.8189 4.15503 65.7778 4.12877L65.642 4.05542L65.6417 4.06141C53.2115 -2.2347 31.0384 15.186 15.9146 43.2235C0.791256 71.249 -1.60042 99.3392 10.4707 106.284L10.4643 106.29L22.5742 112.818L26.3081 105.902Z" fill="url(#paint1_linear_21_278)" />
	<path d="M72.5612 73.7962C87.7914 45.5701 90.1148 17.2645 77.7338 10.5831C65.3525 3.9077 42.977 21.3789 27.7402 49.6169C12.5095 77.8551 10.1919 106.161 22.5672 112.836C34.9485 119.511 57.3305 102.035 72.5612 73.7962Z" fill="url(#paint2_linear_21_278)" />
	<path d="M28.6673 106.2C18.5462 100.745 20.8388 76.8728 33.7821 52.8777C46.7191 28.8884 65.4116 13.8648 75.5327 19.32C85.6538 24.7751 83.3612 48.6475 70.4179 72.6426C57.4749 96.6316 38.7763 111.655 28.6673 106.2Z" fill="url(#paint3_linear_21_278)" />
	<path d="M29.253 101.667C19.929 96.6326 21.9516 74.7948 33.7807 52.8773C45.5977 30.9592 62.7397 17.2768 72.0639 22.3049C81.3879 27.3391 79.3653 49.177 67.5363 71.0945C55.7196 93.0065 38.5773 106.695 29.253 101.667Z" fill="url(#paint4_radial_21_278)" />
	<path d="M29.253 101.667C19.929 96.6326 21.9516 74.7948 33.7807 52.8773C45.5977 30.9592 62.7397 17.2768 72.0639 22.3049C81.3879 27.3391 79.3653 49.177 67.5363 71.0945C55.7196 93.0065 38.5773 106.695 29.253 101.667Z" fill="url(#paint5_radial_21_278)" style="mix-blend-mode:darken" />
	<path d="M34.331 53.1706C46.1477 31.2585 63.5201 17.6904 73.1213 22.8776C82.7349 28.0593 80.9361 50.0295 69.1133 71.9412C57.2903 93.859 39.9178 107.427 30.3106 102.24C20.7033 97.0521 22.508 75.0884 34.331 53.1706ZM73.7584 74.4362C88.7353 46.6762 91.0166 18.8532 78.8424 12.2789C66.6676 5.71672 44.6638 22.8974 29.6869 50.6574C14.7036 78.4232 12.4277 106.259 24.5962 112.826C36.7767 119.395 58.7808 102.208 73.7584 74.4362Z" fill="url(#paint6_linear_21_278)" />
	<path d="M61.0901 72.51L65.165 64.9501L62.4267 63.47C63.6334 61.2394 64.6448 59.0356 65.4732 56.8591C66.3076 54.6829 66.8974 52.6763 67.2416 50.8576C67.5912 49.0512 67.6563 47.4854 67.4354 46.1901C67.2209 44.889 66.6415 43.988 65.7032 43.4813C64.4287 42.7883 63.088 42.8252 61.6749 43.5915C60.2564 44.3455 58.8564 45.4578 57.4453 46.921C56.0339 48.3902 54.6482 50.0787 53.3005 51.9752C51.9589 53.8719 50.715 55.6281 49.5813 57.2382C48.4417 58.8481 47.4248 60.1792 46.5386 61.1957C45.6455 62.2301 44.9661 62.6146 44.5 62.3614C44.2165 62.2141 44.1376 61.7255 44.2564 60.9135C44.3876 60.096 44.8377 58.9551 45.6309 57.4917C46.7778 55.3672 48.101 53.5968 49.6001 52.1925C51.0989 50.7943 52.5147 50.0947 53.8292 50.0989L59.0504 40.4207L52.0042 36.6197L46.7829 46.2979L47.9219 46.9116C46.089 48.9416 44.4681 50.976 43.0637 53.0393L40.1245 51.4584L36.0441 59.0119L38.7233 60.4587C37.5638 62.7159 36.5522 64.9198 35.6882 67.0824C34.8245 69.239 34.2055 71.2259 33.8381 73.0253C33.4703 74.8307 33.3879 76.3777 33.603 77.6666C33.8184 78.9495 34.4041 79.8508 35.3662 80.3648C36.6588 81.0587 38.0231 81.0351 39.4661 80.2763C40.9094 79.5114 42.34 78.3885 43.771 76.89C45.1954 75.4032 46.5888 73.6847 47.9691 71.7414C49.3499 69.786 50.6195 68.0008 51.7725 66.3674C52.9314 64.7343 53.9559 63.3732 54.8505 62.3087C55.7457 61.232 56.426 60.8293 56.8921 61.0825C57.2699 61.2829 57.3519 61.8322 57.1256 62.7359C56.8995 63.6335 56.4533 64.696 55.7996 65.9118C55.2793 66.8797 54.6761 67.8071 54.0022 68.6948C53.3226 69.5761 52.6368 70.3359 51.9507 70.9806C51.2655 71.6071 50.5803 72.1126 49.9084 72.4672C49.2306 72.8215 48.6238 72.9611 48.0952 72.8684L42.8203 82.6531L49.7072 86.3675L54.9882 76.5831L53.814 75.9496C54.3385 75.3878 54.9551 74.6791 55.6637 73.8235C56.3726 72.9618 57.1431 71.9577 57.9504 70.8222L61.0901 72.51Z" fill="url(#paint7_linear_21_278)" />
	<path d="M62.1845 73.1029L66.265 65.5493L63.5208 64.0689C64.7278 61.8323 65.7393 59.6285 66.5737 57.4523C67.402 55.2758 67.9913 53.2753 68.3416 51.4568C68.6854 49.6442 68.7504 48.0843 68.5295 46.789C68.315 45.4879 67.7415 44.5872 66.8035 44.0744C65.5227 43.3872 64.1824 43.4181 62.7693 44.1844C61.3565 44.9447 59.9508 46.0506 58.5394 47.5199C57.1283 48.983 55.7484 50.6719 54.4008 52.5684C53.0528 54.4709 51.8091 56.227 50.6754 57.8371C49.5358 59.447 48.5253 60.7725 47.6327 61.7947C46.7398 62.823 46.0605 63.2075 45.5944 62.9543C45.3109 62.807 45.232 62.3185 45.3505 61.5125C45.482 60.689 45.9318 59.554 46.725 58.0906C47.8722 55.9601 49.2015 54.1899 50.6945 52.7853C52.1933 51.3871 53.609 50.6876 54.9295 50.6921L60.1448 41.0135L53.0985 37.2126L47.8773 46.8908L49.016 47.5105C47.1834 49.5344 45.562 51.5749 44.1579 53.6322L41.2189 52.0513L37.1442 59.6111L39.8174 61.0577C38.6579 63.3149 37.6463 65.5186 36.7826 67.6752C35.9189 69.8318 35.2999 71.8188 34.9324 73.6182C34.5644 75.4297 34.4883 76.9709 34.6974 78.2595C34.9127 79.5424 35.4985 80.4437 36.4606 80.9577C37.7532 81.6516 39.1171 81.634 40.5664 80.8694C42.0034 80.1103 43.4404 78.9816 44.8651 77.4889C46.2895 76.0021 47.6829 74.2836 49.0635 72.3343C50.444 70.3849 51.7139 68.5937 52.8668 66.9603C54.0258 65.3272 55.0503 63.966 55.9449 62.9015C56.8459 61.8312 57.5204 61.4222 57.9865 61.6754C58.3643 61.8758 58.4463 62.4252 58.2197 63.3349C57.9936 64.2325 57.5473 65.2949 56.8999 66.5049C56.3796 67.4729 55.7765 68.4003 55.0966 69.2877C54.423 70.1693 53.7312 70.9288 53.0451 71.5735C52.3656 72.2064 51.6746 72.7055 51.0028 73.0601C50.325 73.4144 49.7243 73.5543 49.1957 73.4616L43.9147 83.246L50.8016 86.9603L56.0826 77.176L54.9082 76.5425C55.4327 75.9807 56.0494 75.272 56.7578 74.4224C57.4731 73.555 58.2372 72.5566 59.0445 71.4211L62.1845 73.1029Z" fill="url(#paint8_linear_21_278)" />
	<defs>
		<linearGradient id="paint0_linear_21_278" x1="5.88147" y1="49.9923" x2="66.8096" y2="58.5297" gradientUnits="userSpaceOnUse">
			<stop offset="0.1616" stop-color="#FFF8C7" />
			<stop offset="0.1986" stop-color="#FFF6C1" />
			<stop offset="0.2466" stop-color="#FEF0B1" />
			<stop offset="0.3007" stop-color="#FEE696" />
			<stop offset="0.3593" stop-color="#FDD871" />
			<stop offset="0.4207" stop-color="#FCC641" />
			<stop offset="0.469" stop-color="#FBB617" />
			<stop offset="0.526" stop-color="#A26009" />
			<stop offset="0.5588" stop-color="#6C2D00" />
			<stop offset="0.6146" stop-color="#6D3001" />
			<stop offset="0.6407" stop-color="#BA7D11" />
			<stop offset="0.6625" stop-color="#FDC120" />
			<stop offset="0.8107" stop-color="#DB9204" />
			<stop offset="0.8162" stop-color="#E09D12" />
			<stop offset="0.8298" stop-color="#EBB52F" />
			<stop offset="0.8443" stop-color="#F3C746" />
			<stop offset="0.8598" stop-color="#F9D456" />
			<stop offset="0.8773" stop-color="#FDDC60" />
			<stop offset="0.9005" stop-color="#FEDE63" />
			<stop offset="1" stop-color="#FBC543" />
		</linearGradient>
		<linearGradient id="paint1_linear_21_278" x1="66.1824" y1="4.35565" x2="11.0164" y2="106.599" gradientUnits="userSpaceOnUse">
			<stop stop-color="#E0A300" />
			<stop offset="0.0833" stop-color="#FFC524" />
			<stop offset="0.1516" stop-color="#FFD759" />
			<stop offset="0.4069" stop-color="#FFF4A5" />
			<stop offset="0.4208" stop-color="#FEF09F" />
			<stop offset="0.4389" stop-color="#FCE68F" />
			<stop offset="0.4592" stop-color="#F9D574" />
			<stop offset="0.4813" stop-color="#F5BD4F" />
			<stop offset="0.5044" stop-color="#EF9E20" />
			<stop offset="0.518" stop-color="#EB8A00" />
			<stop offset="0.5625" stop-color="#AD4300" />
			<stop offset="0.6087" stop-color="#6E3500" />
			<stop offset="0.6515" stop-color="#E09D00" />
			<stop offset="0.6573" stop-color="#E7AA16" />
			<stop offset="0.6672" stop-color="#F2BE37" />
			<stop offset="0.6768" stop-color="#F9CC4E" />
			<stop offset="0.6857" stop-color="#FDD45C" />
			<stop offset="0.6934" stop-color="#FFD761" />
			<stop offset="0.7325" stop-color="#FFD75F" />
			<stop offset="0.7465" stop-color="#FFD558" />
			<stop offset="0.7566" stop-color="#FFD34D" />
			<stop offset="0.7646" stop-color="#FFCF3C" />
			<stop offset="0.7707" stop-color="#FFCB29" />
			<stop offset="0.7818" stop-color="#FBC525" />
			<stop offset="0.7968" stop-color="#F0B41A" />
			<stop offset="0.8139" stop-color="#DE9808" />
			<stop offset="0.8205" stop-color="#D68B00" />
			<stop offset="0.8228" stop-color="#DD9B16" />
			<stop offset="0.8268" stop-color="#E7B133" />
			<stop offset="0.8311" stop-color="#F0C34B" />
			<stop offset="0.8361" stop-color="#F6D15E" />
			<stop offset="0.8419" stop-color="#FBDB6B" />
			<stop offset="0.8493" stop-color="#FDE073" />
			<stop offset="0.8644" stop-color="#FEE275" />
			<stop offset="0.9367" stop-color="#FEE47E" />
			<stop offset="1" stop-color="#FED94B" />
		</linearGradient>
		<linearGradient id="paint2_linear_21_278" x1="19.1702" y1="57.3677" x2="81.1345" y2="66.0502" gradientUnits="userSpaceOnUse">
			<stop offset="0.1616" stop-color="#CC7800" />
			<stop offset="0.2072" stop-color="#D07E02" />
			<stop offset="0.2662" stop-color="#DA8E08" />
			<stop offset="0.3325" stop-color="#EAA912" />
			<stop offset="0.3682" stop-color="#F5BA18" />
			<stop offset="0.4286" stop-color="#F1AA1A" />
			<stop offset="0.4743" stop-color="#EE9B1B" />
			<stop offset="0.5407" stop-color="#6B2B00" />
			<stop offset="0.6147" stop-color="#6D3001" />
			<stop offset="0.7067" stop-color="#FEC423" />
			<stop offset="1" stop-color="#8F4E00" />
		</linearGradient>
		<linearGradient id="paint3_linear_21_278" x1="75.5301" y1="19.31" x2="28.6562" y2="106.19" gradientUnits="userSpaceOnUse">
			<stop offset="0.1616" stop-color="#BA6D00" />
			<stop offset="0.2152" stop-color="#B46800" />
			<stop offset="0.2848" stop-color="#A45B00" />
			<stop offset="0.3628" stop-color="#894400" />
			<stop offset="0.4334" stop-color="#6B2B00" />
			<stop offset="0.6147" stop-color="#6D3001" />
			<stop offset="1" stop-color="#964100" />
		</linearGradient>
		<radialGradient id="paint4_radial_21_278" cx="0" cy="0" r="1" gradientUnits="userSpaceOnUse" gradientTransform="translate(50.6671 61.9752) rotate(118.345) scale(45.0894 19.1839)">
			<stop stop-color="#CC920E" />
			<stop offset="1" stop-color="#AD6505" />
		</radialGradient>
		<radialGradient id="paint5_radial_21_278" cx="0" cy="0" r="1" gradientUnits="userSpaceOnUse" gradientTransform="translate(67.8229 74.2779) rotate(118.345) scale(65.7126 38.2228)">
			<stop stop-color="white" />
			<stop offset="0.5889" stop-color="white" />
			<stop offset="0.6858" stop-color="white" />
			<stop offset="0.8004" stop-color="#FEFEFD" />
			<stop offset="0.8428" stop-color="#FBF9F6" />
			<stop offset="0.8731" stop-color="#F6F1EA" />
			<stop offset="0.8978" stop-color="#EFE6D9" />
			<stop offset="0.919" stop-color="#E6D7C3" />
			<stop offset="0.9378" stop-color="#DBC4A8" />
			<stop offset="0.9548" stop-color="#CEAE87" />
			<stop offset="0.9705" stop-color="#BE9461" />
			<stop offset="0.9851" stop-color="#AC7736" />
			<stop offset="0.9981" stop-color="#995808" />
			<stop offset="1" stop-color="#965300" />
		</radialGradient>
		<linearGradient id="paint6_linear_21_278" x1="41.1197" y1="138.172" x2="59.158" y2="9.43904" gradientUnits="userSpaceOnUse">
			<stop stop-color="#D98D0F" />
			<stop offset="0.4069" stop-color="#F2AF00" />
			<stop offset="0.5129" stop-color="#EFA900" />
			<stop offset="0.65" stop-color="#E59900" />
			<stop offset="0.7707" stop-color="#D98500" />
			<stop offset="1" stop-color="#BD5B00" />
		</linearGradient>
		<linearGradient id="paint7_linear_21_278" x1="62.2832" y1="40.325" x2="39.4026" y2="82.7317" gradientUnits="userSpaceOnUse">
			<stop offset="0.0147" stop-color="#6E2C00" />
			<stop offset="0.0625" stop-color="#753400" />
			<stop offset="0.1385" stop-color="#884C00" />
			<stop offset="0.1616" stop-color="#8F5400" />
			<stop offset="0.2737" stop-color="#8A4E00" />
			<stop offset="0.4188" stop-color="#7C3E00" />
			<stop offset="0.5407" stop-color="#6B2B00" />
			<stop offset="0.6147" stop-color="#6D3001" />
			<stop offset="0.7067" stop-color="#8A4700" />
			<stop offset="1" stop-color="#6B3B00" />
		</linearGradient>
		<linearGradient id="paint8_linear_21_278" x1="73.5684" y1="74.3341" x2="29.3672" y2="50.4852" gradientUnits="userSpaceOnUse">
			<stop stop-color="#CC820E" />
			<stop offset="0.4069" stop-color="#E5A300" />
			<stop offset="0.5144" stop-color="#E29D00" />
			<stop offset="0.6537" stop-color="#D88D00" />
			<stop offset="0.7707" stop-color="#CC7A00" />
			<stop offset="1" stop-color="#873F00" />
		</linearGradient>
	</defs>
</svg>
