<svg width="57" height="65" viewBox="0 0 57 65" fill="none" xmlns="http://www.w3.org/2000/svg">
	<path d="M47.0222 37.2221C49.3956 28.2489 48.5897 18.5621 44.1639 11.2839C36.7916 -0.840949 22.1603 -1.69155 11.4876 9.37888C7.22138 13.802 4.23272 19.4627 2.65418 25.4343C0.277409 34.4106 1.08677 44.0943 5.5092 51.3756C12.885 63.4942 27.5095 64.3509 38.1888 53.2775C42.4518 48.8542 45.4403 43.1968 47.0222 37.2221Z" fill="url(#paint0_linear_21_234)" />
	<path d="M33.3345 1.84558L38.2097 3.14476L38.0395 3.78959C40.8448 5.43393 43.3495 7.88719 45.3347 11.1515C49.8412 18.556 50.658 28.4138 48.2446 37.546C46.6382 43.6256 43.5964 49.3834 39.2555 53.8865C34.226 59.1055 28.3308 61.7171 22.7055 61.7935L22.5282 62.4508L17.8334 61.212L17.8243 61.2019C13.1866 59.9788 9.00159 56.8859 6.00142 51.953C1.49834 44.5455 0.678334 34.6875 3.09497 25.5555C4.70136 19.4759 7.7431 13.7181 12.0841 9.21492C18.5415 2.51225 26.425 0.10172 33.3345 1.84558Z" fill="url(#paint1_linear_21_234)" />
	<path d="M52.9458 38.7881C55.3592 29.656 54.5424 19.7981 50.0359 12.3936C42.5327 0.0531779 27.6446 -0.810088 16.7854 10.4539C12.4445 14.957 9.40271 20.7148 7.79632 26.7945C5.37969 35.9264 6.19979 45.7844 10.7029 53.192C18.2064 65.526 33.0941 66.3957 43.9566 55.1287C48.2976 50.6256 51.3362 44.8676 52.9458 38.7881Z" fill="url(#paint2_linear_21_234)" />
	<path d="M49.8385 37.9591C51.7527 30.7266 51.1052 22.9172 47.5364 17.052C41.5958 7.27925 29.7978 6.59098 21.1972 15.5144C17.7584 19.0806 15.3516 23.6438 14.0747 28.459C12.1637 35.6916 12.8112 43.501 16.3768 49.366C22.3207 59.1358 34.1122 59.8269 42.7194 50.9006C46.158 47.3376 48.5678 42.7778 49.8385 37.9591Z" fill="url(#paint3_linear_21_234)" />
	<path d="M48.0076 37.4763C49.8946 30.339 49.2543 22.6426 45.7363 16.8571C39.876 7.21704 28.2417 6.54004 19.7598 15.3406C16.3684 18.8577 13.9906 23.3547 12.7361 28.1067C10.8493 35.2408 11.4894 42.9404 15.0073 48.729C20.8711 58.3628 32.4986 59.0459 40.9841 50.2391C44.3753 46.7253 46.75 42.2249 48.0076 37.4763Z" fill="url(#paint4_radial_21_234)" />
	<path d="M48.0076 37.4763C49.8946 30.339 49.2543 22.6426 45.7363 16.8571C39.876 7.21704 28.2417 6.54004 19.7598 15.3406C16.3684 18.8577 13.9906 23.3547 12.7361 28.1067C10.8493 35.2408 11.4894 42.9404 15.0073 48.729C20.8711 58.3628 32.4986 59.0459 40.9841 50.2391C44.3753 46.7253 46.75 42.2249 48.0076 37.4763Z" fill="url(#paint5_radial_21_234)" style="mix-blend-mode:multiply" />
	<path d="M13.5585 28.324C14.8128 23.5753 17.1876 19.0749 20.5789 15.5578C29.0673 6.75759 40.6952 7.43428 46.5557 17.0712C50.0769 22.8568 50.7171 30.5531 48.8269 37.6903C47.5725 42.439 45.1944 46.9425 41.8032 50.4564C33.3213 59.2569 21.6934 58.5802 15.8266 48.943C12.3118 43.1578 11.6716 35.4582 13.5585 28.324ZM53.5371 38.9428C55.9267 29.9028 55.1176 20.1483 50.6589 12.8201C43.2329 0.609 28.4959 -0.250036 17.7485 10.9004C13.4486 15.354 10.4418 21.0557 8.84825 27.0716C6.45868 36.1116 7.26768 45.8661 11.723 53.1973C19.1522 65.4086 33.886 66.2674 44.64 55.1141C48.9367 50.6603 51.9466 44.962 53.5371 38.9428Z" fill="url(#paint6_linear_21_234)" />
	<path d="M25.6061 49.1425L29.047 47.2303L28.6774 45.7834C29.0225 45.8326 29.4429 45.8566 29.942 45.849C30.4346 45.8444 30.9783 45.7811 31.5761 45.6658L32.5656 49.547L33.3343 49.7491L33.685 49.0327L33.6573 48.9412L35.9666 47.6586L35.1036 44.2792C36.1095 43.7174 37.0255 43.0225 37.8584 42.1852C38.6881 41.3476 39.3766 40.4356 39.9213 39.4392C40.3173 38.7186 40.6184 37.9644 40.8243 37.183C40.903 36.8908 40.966 36.5915 41.0195 36.2916C41.2094 35.1812 41.1591 34.0493 40.8588 32.8953C40.4599 31.3279 39.8683 30.2111 39.0966 29.5455C38.3217 28.8831 37.47 28.471 36.5416 28.3093C35.6161 28.1543 34.6563 28.1713 33.6584 28.373C32.667 28.5751 31.7474 28.7582 30.9053 28.9354C30.0631 29.1127 29.3419 29.1865 28.732 29.1565C28.1285 29.1267 27.7476 28.8247 27.6023 28.248C27.5455 28.0296 27.5544 27.7823 27.6257 27.5123C27.6689 27.3535 27.7285 27.1891 27.8144 27.0132C28.0436 26.5418 28.4859 26.1228 29.1475 25.7564C30.1104 25.2183 31.0657 25.0949 32.0172 25.3767C32.9717 25.6619 33.7317 26.3655 34.2974 27.4875L35.0629 27.6894L35.1975 26.9849L38.6515 25.0669L36.8934 18.1777L37.1974 16.5806L36.4321 16.3755L32.078 18.7961L32.4362 20.2103C31.207 20.0788 30.0644 20.1512 29.0058 20.4111L28.3562 17.8595L28.8526 16.9926L28.0871 16.7908L24.6859 18.6824L25.5302 21.9837C24.5411 22.5945 23.6246 23.299 22.784 24.0974C21.9435 24.8926 21.2469 25.7753 20.6941 26.7391C20.2855 27.4558 19.9746 28.2127 19.7652 29.0004C19.694 29.2704 19.6354 29.5443 19.5863 29.8218C19.4036 30.9165 19.4603 32.0488 19.7624 33.2317C20.1695 34.8285 20.7665 35.9681 21.5529 36.6602C22.3428 37.3459 23.2006 37.7647 24.139 37.9204C25.0773 38.0761 26.0569 38.0472 27.0743 37.84C28.0915 37.636 29.031 37.4442 29.8828 37.2674C30.7378 37.0908 31.4724 37.0048 32.0934 37.0064C32.7081 37.0046 33.0929 37.2939 33.238 37.8738C33.3083 38.1443 33.3079 38.4146 33.2402 38.6784C33.1889 38.8689 33.1023 39.0577 32.9803 39.248C32.6846 39.6967 32.2671 40.0719 31.7213 40.3732C31.2848 40.6123 30.8238 40.7601 30.3388 40.807C29.854 40.8506 29.3925 40.8118 28.9585 40.6745C28.5207 40.5467 28.1171 40.3144 27.7468 39.9937C27.6265 39.888 27.5197 39.7701 27.4133 39.6426L27.6505 38.9464L26.8819 38.7411L22.4781 41.1914L24.6465 49.6776L25.412 49.8795L25.6061 49.1425Z" fill="url(#paint7_linear_21_234)" />
	<path d="M41.5924 37.3854C41.6713 37.09 41.7341 36.7938 41.7845 36.4906C41.9776 35.3803 41.9241 34.2483 41.6271 33.0945C41.2248 31.5301 40.6363 30.4135 39.8617 29.7445C39.0867 29.0821 38.2349 28.6732 37.3066 28.5083C36.3781 28.3499 35.4213 28.3703 34.4235 28.572C33.4289 28.7739 32.5123 28.9604 31.6703 29.1345C30.8249 29.3116 30.1069 29.3855 29.497 29.3554C28.8903 29.3255 28.5095 29.0235 28.3641 28.4468C28.3074 28.2284 28.3196 27.9813 28.3876 27.7111C28.4307 27.5556 28.4935 27.3881 28.5794 27.2122C28.8086 26.7408 29.2509 26.3218 29.9125 25.9554C30.8721 25.4203 31.8276 25.2937 32.7822 25.5757C33.7335 25.8608 34.4936 26.5644 35.0593 27.6863L39.4133 25.2658L37.1939 16.5743L32.8399 18.9949L33.2014 20.4061C31.9722 20.2746 30.8264 20.3468 29.7708 20.6101L28.8459 16.9862L25.4479 18.878L26.289 22.1791C25.2999 22.79 24.3835 23.4945 23.5428 24.2929C22.7024 25.0881 22.0056 25.9707 21.4561 26.9347C21.0474 27.6514 20.7366 28.4084 20.5272 29.1961C20.4527 29.4659 20.3974 29.7399 20.3481 30.0206C20.1656 31.1121 20.2191 32.2442 20.5209 33.4304C20.9282 35.024 21.5251 36.1668 22.3115 36.8588C23.1016 37.5414 23.9592 37.9634 24.8977 38.1159C25.8361 38.2716 26.8157 38.2427 27.833 38.0387C28.8504 37.8314 29.7896 37.6429 30.6447 37.463C31.4964 37.2894 32.2312 37.2002 32.8522 37.2019C33.4667 37.2033 33.8516 37.4893 34 38.0694C34.0669 38.343 34.0666 38.6101 33.9989 38.8738C33.9475 39.0676 33.8642 39.2565 33.7391 39.4434C33.4465 39.8956 33.026 40.2674 32.48 40.5719C32.0435 40.811 31.5857 40.9589 31.1008 41.0026C30.6127 41.0493 30.1513 41.0072 29.7171 40.8732C29.2794 40.7454 28.8758 40.5099 28.5087 40.1893C28.1384 39.8686 27.8469 39.452 27.6437 38.94L23.2368 41.3869L25.4053 49.873L29.8121 47.4261L29.4395 45.9791C29.7844 46.0315 30.2047 46.0554 30.7038 46.0479C31.1964 46.0432 31.7434 45.9801 32.3411 45.8648L33.3307 49.7428L36.7318 47.8544L35.8657 44.4748C36.8746 43.9164 37.7876 43.2182 38.6205 42.3808C39.4534 41.5434 40.1386 40.6312 40.6864 39.6382C41.0822 38.9208 41.3831 38.1698 41.5924 37.3854Z" fill="url(#paint8_linear_21_234)" />
	<path d="M25.8354 56.3551C28.4875 56.93 31.2983 56.6986 33.871 55.8183C36.4503 54.932 38.7987 53.4454 40.8197 51.6144C44.8688 47.9399 47.6078 42.9716 49.0155 37.722C49.3511 36.4 49.6134 35.0614 49.7925 33.7124C49.9526 32.3591 50.0456 30.9962 50.0388 29.6347C50.0223 28.2727 49.919 26.9097 49.7184 25.5612C49.5049 24.2153 49.1876 22.8868 48.7689 21.5886C47.8988 19.0068 46.604 16.5521 44.8003 14.5003C43.0026 12.4584 40.674 10.8697 38.0816 10.0629C40.6551 10.9267 42.93 12.561 44.6626 14.619C46.4148 16.6715 47.668 19.1177 48.4943 21.6748C50.1195 26.8231 50.0329 32.4274 48.6535 37.6237C47.2868 42.8238 44.5864 47.7297 40.6276 51.399C38.658 53.2325 36.3543 54.7277 33.8152 55.645C31.2882 56.579 28.5033 56.8696 25.8354 56.3551Z" fill="url(#paint9_linear_21_234)" />
	<defs>
		<linearGradient id="paint0_linear_21_234" x1="1.99325" y1="28.1275" x2="47.6859" y2="34.53" gradientUnits="userSpaceOnUse">
			<stop offset="0.1616" stop-color="#FFF8C7" />
			<stop offset="0.1986" stop-color="#FFF6C1" />
			<stop offset="0.2466" stop-color="#FEF0B1" />
			<stop offset="0.3007" stop-color="#FEE696" />
			<stop offset="0.3593" stop-color="#FDD871" />
			<stop offset="0.4207" stop-color="#FCC641" />
			<stop offset="0.469" stop-color="#FBB617" />
			<stop offset="0.526" stop-color="#A26009" />
			<stop offset="0.5588" stop-color="#6C2D00" />
			<stop offset="0.6146" stop-color="#6D3001" />
			<stop offset="0.6407" stop-color="#BA7D11" />
			<stop offset="0.6625" stop-color="#FDC120" />
			<stop offset="0.8107" stop-color="#DB9204" />
			<stop offset="0.8162" stop-color="#E09D12" />
			<stop offset="0.8298" stop-color="#EBB52F" />
			<stop offset="0.8443" stop-color="#F3C746" />
			<stop offset="0.8598" stop-color="#F9D456" />
			<stop offset="0.8773" stop-color="#FDDC60" />
			<stop offset="0.9005" stop-color="#FEDE63" />
			<stop offset="1" stop-color="#FBC543" />
		</linearGradient>
		<linearGradient id="paint1_linear_21_234" x1="17.8263" y1="61.2083" x2="33.5113" y2="1.89357" gradientUnits="userSpaceOnUse">
			<stop stop-color="#E0A300" />
			<stop offset="0.0833" stop-color="#FFC524" />
			<stop offset="0.1516" stop-color="#FFD759" />
			<stop offset="0.4069" stop-color="#FFF4A5" />
			<stop offset="0.4208" stop-color="#FEF09F" />
			<stop offset="0.4389" stop-color="#FCE68F" />
			<stop offset="0.4592" stop-color="#F9D574" />
			<stop offset="0.4813" stop-color="#F5BD4F" />
			<stop offset="0.5044" stop-color="#EF9E20" />
			<stop offset="0.518" stop-color="#EB8A00" />
			<stop offset="0.5625" stop-color="#AD4300" />
			<stop offset="0.6087" stop-color="#6E3500" />
			<stop offset="0.6515" stop-color="#E09D00" />
			<stop offset="0.6573" stop-color="#E7AA16" />
			<stop offset="0.6672" stop-color="#F2BE37" />
			<stop offset="0.6768" stop-color="#F9CC4E" />
			<stop offset="0.6857" stop-color="#FDD45C" />
			<stop offset="0.6934" stop-color="#FFD761" />
			<stop offset="0.7325" stop-color="#FFD75F" />
			<stop offset="0.7465" stop-color="#FFD558" />
			<stop offset="0.7566" stop-color="#FFD34D" />
			<stop offset="0.7646" stop-color="#FFCF3C" />
			<stop offset="0.7707" stop-color="#FFCB29" />
			<stop offset="0.7818" stop-color="#FBC525" />
			<stop offset="0.7968" stop-color="#F0B41A" />
			<stop offset="0.8139" stop-color="#DE9808" />
			<stop offset="0.8205" stop-color="#D68B00" />
			<stop offset="0.8228" stop-color="#DD9B16" />
			<stop offset="0.8268" stop-color="#E7B133" />
			<stop offset="0.8311" stop-color="#F0C34B" />
			<stop offset="0.8361" stop-color="#F6D15E" />
			<stop offset="0.8419" stop-color="#FBDB6B" />
			<stop offset="0.8493" stop-color="#FDE073" />
			<stop offset="0.8644" stop-color="#FEE275" />
			<stop offset="0.9367" stop-color="#FEE47E" />
			<stop offset="1" stop-color="#FED94B" />
		</linearGradient>
		<linearGradient id="paint2_linear_21_234" x1="7.12063" y1="29.5332" x2="53.6182" y2="36.0485" gradientUnits="userSpaceOnUse">
			<stop offset="0.1616" stop-color="#CC7800" />
			<stop offset="0.2072" stop-color="#D07E02" />
			<stop offset="0.2662" stop-color="#DA8E08" />
			<stop offset="0.3325" stop-color="#EAA912" />
			<stop offset="0.3682" stop-color="#F5BA18" />
			<stop offset="0.4286" stop-color="#F1AA1A" />
			<stop offset="0.4743" stop-color="#EE9B1B" />
			<stop offset="0.5407" stop-color="#6B2B00" />
			<stop offset="0.6147" stop-color="#6D3001" />
			<stop offset="0.7067" stop-color="#FEC423" />
			<stop offset="1" stop-color="#8F4E00" />
		</linearGradient>
		<linearGradient id="paint3_linear_21_234" x1="13.5421" y1="30.6298" x2="50.3759" y2="35.791" gradientUnits="userSpaceOnUse">
			<stop offset="0.1616" stop-color="#BA6D00" />
			<stop offset="0.2152" stop-color="#B46800" />
			<stop offset="0.2848" stop-color="#A45B00" />
			<stop offset="0.3628" stop-color="#894400" />
			<stop offset="0.4334" stop-color="#6B2B00" />
			<stop offset="0.6147" stop-color="#6D3001" />
			<stop offset="1" stop-color="#964100" />
		</linearGradient>
		<radialGradient id="paint4_radial_21_234" cx="0" cy="0" r="1" gradientUnits="userSpaceOnUse" gradientTransform="translate(30.3715 32.7912) rotate(7.97646) scale(21.2974)">
			<stop stop-color="#CC920E" />
			<stop offset="1" stop-color="#AD6505" />
		</radialGradient>
		<radialGradient id="paint5_radial_21_234" cx="0" cy="0" r="1" gradientUnits="userSpaceOnUse" gradientTransform="translate(27.5581 53.7078) rotate(7.97646) scale(25.8867)">
			<stop stop-color="white" />
			<stop offset="0.6578" stop-color="white" />
			<stop offset="0.7661" stop-color="white" />
			<stop offset="0.8514" stop-color="#FEFEFD" />
			<stop offset="0.8829" stop-color="#FBF9F6" />
			<stop offset="0.9055" stop-color="#F6F1EA" />
			<stop offset="0.9239" stop-color="#EFE6D9" />
			<stop offset="0.9397" stop-color="#E6D7C3" />
			<stop offset="0.9537" stop-color="#DBC4A8" />
			<stop offset="0.9664" stop-color="#CEAE87" />
			<stop offset="0.978" stop-color="#BE9461" />
			<stop offset="0.9889" stop-color="#AC7736" />
			<stop offset="0.9986" stop-color="#995808" />
			<stop offset="1" stop-color="#965300" />
		</radialGradient>
		<linearGradient id="paint6_linear_21_234" x1="35.2447" y1="4.11773" x2="27.2093" y2="61.464" gradientUnits="userSpaceOnUse">
			<stop stop-color="#E6A010" />
			<stop offset="0.4069" stop-color="#FFC500" />
			<stop offset="0.5239" stop-color="#FCBF00" />
			<stop offset="0.6757" stop-color="#F2AF00" />
			<stop offset="0.8459" stop-color="#E39400" />
			<stop offset="1" stop-color="#D17600" />
		</linearGradient>
		<linearGradient id="paint7_linear_21_234" x1="51.9208" y1="38.6816" x2="9.16597" y2="27.3757" gradientUnits="userSpaceOnUse">
			<stop offset="0.1616" stop-color="#AD6600" />
			<stop offset="0.2452" stop-color="#A76100" />
			<stop offset="0.3535" stop-color="#975200" />
			<stop offset="0.4751" stop-color="#7C3B00" />
			<stop offset="0.5407" stop-color="#6B2B00" />
			<stop offset="0.6147" stop-color="#6D3001" />
			<stop offset="0.7067" stop-color="#8A4700" />
			<stop offset="1" stop-color="#6B3B00" />
		</linearGradient>
		<linearGradient id="paint8_linear_21_234" x1="52.6908" y1="38.8857" x2="9.93616" y2="27.5798" gradientUnits="userSpaceOnUse">
			<stop stop-color="#CC820E" />
			<stop offset="0.4069" stop-color="#E5A300" />
			<stop offset="0.5144" stop-color="#E29D00" />
			<stop offset="0.6537" stop-color="#D88D00" />
			<stop offset="0.7707" stop-color="#CC7A00" />
			<stop offset="1" stop-color="#873F00" />
		</linearGradient>
		<linearGradient id="paint9_linear_21_234" x1="34.3695" y1="58.6121" x2="46.6106" y2="12.3206" gradientUnits="userSpaceOnUse">
			<stop stop-color="#FFAA00" />
			<stop offset="0.4979" stop-color="#FFEF7F" />
			<stop offset="0.5718" stop-color="#FCEA79" />
			<stop offset="0.6677" stop-color="#F4DA69" />
			<stop offset="0.7757" stop-color="#E6C14E" />
			<stop offset="0.8918" stop-color="#D29F29" />
			<stop offset="1" stop-color="#BD7800" />
		</linearGradient>
	</defs>
</svg>
