<svg width="94" height="92" viewBox="0 0 94 92" fill="none" xmlns="http://www.w3.org/2000/svg">
	<path d="M60.9289 11.441C42.9446 4.14514 22.0925 8.11043 10.3515 22.3557C-3.7916 39.5289 0.651003 65.1539 20.302 79.577C23.6566 82.0438 27.2311 84.0208 30.938 85.5203C48.917 92.8158 69.7636 88.8503 81.4995 74.5993C95.6483 57.4209 91.1999 31.8066 71.5549 17.3728C68.2054 14.9118 64.6305 12.9402 60.9289 11.441Z" fill="url(#paint0_linear_21_107)" />
	<path d="M88.955 60.6698L88.7098 60.5653C92.8531 45.2815 86.7127 27.831 71.7714 16.8554C68.4165 14.3941 64.8418 12.417 61.1403 10.9178C43.1556 3.6274 22.3093 7.58756 10.568 21.8382C9.12131 23.5948 7.87662 25.4484 6.81396 27.3599L6.558 27.2547L4.73671 31.7509L4.74748 31.7514C-1.49658 47.8238 4.37973 67.2143 20.5076 79.0591C23.8622 81.5258 27.4368 83.5028 31.1438 85.0023C49.123 92.2924 69.9693 88.3323 81.7105 74.0816C84.0544 71.2323 85.8767 68.1505 87.216 64.9307L87.2212 64.9365L88.955 60.6698Z" fill="url(#paint1_linear_21_107)" />
	<path d="M62.9551 6.43848C44.9759 -0.851691 24.1241 3.10821 12.3829 17.3589C-1.7657 34.5319 2.6823 60.157 22.3279 74.5799C25.6879 77.0469 29.2625 79.024 32.9641 80.5231C50.943 87.8187 71.7896 83.8532 83.5308 69.6025C97.6797 52.4241 93.2316 26.8043 73.5862 12.376C70.2365 9.92045 66.6564 7.94306 62.9551 6.43848Z" fill="url(#paint2_linear_21_107)" />
	<path d="M60.3355 12.87C53.5778 10.1321 46.0064 9.21986 38.5675 10.6971C19.9592 14.3923 9.26924 31.5945 14.6816 49.1396C17.9267 59.6687 26.2507 67.9296 36.4002 72.0481C43.1633 74.7864 50.7348 75.693 58.1683 74.2155C76.7709 70.5255 87.4665 53.3182 82.0487 35.7728C78.8039 25.2383 70.4907 16.9834 60.3355 12.87Z" fill="url(#paint3_linear_21_107)" />
	<path d="M59.3825 14.1499C52.721 11.4493 45.2469 10.5529 37.9178 12.0084C19.5624 15.6507 9.01959 32.6262 14.3569 49.9282C17.571 60.3144 25.7702 68.4549 35.7867 72.5124C42.4532 75.2241 49.9221 76.1149 57.2569 74.6543C75.6012 71.0168 86.1493 54.0416 80.8066 36.7393C77.6034 26.3537 69.3988 18.2129 59.3825 14.1499Z" fill="url(#paint4_radial_21_107)" />
	<path d="M36.6446 71.4179C33.7429 70.2465 30.9471 68.6941 28.3168 66.7636C12.9238 55.4611 9.43673 35.3889 20.5297 21.9277C29.7249 10.7665 46.0573 7.66077 60.1431 13.3716C63.0445 14.5484 65.8461 16.0956 68.4763 18.0261C83.8639 29.3284 87.3562 49.4009 76.2635 62.8567C67.0735 74.0235 50.7304 77.1287 36.6446 71.4179ZM63.2888 5.62766C45.4322 -1.61294 24.7393 2.32209 13.0797 16.4626C-0.964753 33.5101 3.45464 58.9435 22.9529 73.2666C26.2865 75.716 29.8402 77.6757 33.5094 79.1678C51.3608 86.4027 72.0536 82.4676 83.7078 68.3269C97.7579 51.2742 93.3385 25.8463 73.8405 11.5177C70.5117 9.07949 66.9637 7.11462 63.2888 5.62766Z" fill="url(#paint5_linear_21_107)" />
	<path d="M59.7686 24.0044L56.5984 27.8356C55.1074 26.7393 53.535 25.8621 51.8816 25.1929C51.8015 25.1618 51.727 25.1309 51.6417 25.094C49.9066 24.4263 48.2071 24.027 46.5535 23.9128C44.8947 23.7928 43.3395 23.999 41.8719 24.525C40.4043 25.051 39.1296 25.9673 38.0532 27.2743C36.5832 29.0623 35.8065 30.8029 35.7447 32.4972C35.6717 34.1964 35.9615 35.821 36.6298 37.3827C37.2872 38.9438 38.1822 40.4296 39.3209 41.8295C40.465 43.2297 41.522 44.5168 42.492 45.6962C43.4566 46.8754 44.209 47.9461 44.727 48.9128C45.2449 49.885 45.2325 50.6895 44.694 51.3484C44.3646 51.7402 43.8272 51.9367 43.0661 51.9264C42.7071 51.925 42.3143 51.8348 41.8928 51.6672C41.4235 51.4754 40.9157 51.1837 40.3752 50.7817C38.8734 49.6848 37.8599 48.2857 37.3229 46.5999C36.781 44.903 36.9138 43.2014 37.7107 41.4944L30.9066 36.5019L22.7704 46.377L29.5746 51.3695L30.8885 49.7696C31.8613 51.776 32.9889 53.5073 34.2557 54.957L30.8648 59.0712L36.1727 62.9671L39.2626 59.219C40.8789 60.3106 42.5423 61.2195 44.237 61.9342C44.3382 61.9773 44.4341 62.0201 44.5353 62.0632C46.1301 62.7076 47.699 63.1061 49.2318 63.2415C50.8622 63.3872 52.4001 63.202 53.8457 62.6803C55.2965 62.1644 56.5662 61.2369 57.6713 59.8987C59.1755 58.0797 59.9648 56.3071 60.0502 54.5759C60.1356 52.8446 59.842 51.1873 59.1634 49.6142C58.4845 48.0466 57.5692 46.5326 56.3939 45.1036C55.2188 43.6693 54.1467 42.3543 53.1667 41.1581C52.1872 39.951 51.408 38.8734 50.8408 37.9097C50.279 36.9463 50.27 36.1353 50.8136 35.4821C51.2534 34.9489 51.873 34.74 52.6551 34.8765C52.9791 34.9252 53.3061 35.0229 53.6424 35.1538C54.1225 35.3461 54.6198 35.6318 55.1234 36.0102C55.8061 36.5063 56.391 37.1119 56.8938 37.8385C57.3859 38.5591 57.7571 39.3064 58.0018 40.0801C58.2408 40.8589 58.3488 41.6477 58.3029 42.4669C58.257 43.2861 58.0347 44.0421 57.6247 44.7454L64.5024 49.7906L72.453 40.1456L65.5703 35.0949L64.216 36.7417C63.9616 36.1634 63.6086 35.4877 63.1509 34.7307C62.6883 33.9626 62.1186 33.162 61.437 32.3123L65.0765 27.9004L59.7686 24.0044Z" fill="url(#paint6_linear_21_107)" />
	<path d="M60.2047 22.9221L57.0399 26.7536C55.5432 25.6624 53.9711 24.7797 52.3228 24.1163C52.243 24.0797 52.1629 24.0485 52.0828 24.0174C50.3425 23.344 48.6486 22.9449 46.995 22.8307C45.3414 22.7164 43.7753 22.9221 42.3134 23.4429C40.8404 23.9687 39.5708 24.8907 38.489 26.1974C37.0247 27.9802 36.248 29.7208 36.1807 31.4148C36.1134 33.1089 36.403 34.7389 37.0655 36.3058C37.7229 37.8669 38.6181 39.3472 39.7622 40.7474C40.9063 42.1476 41.9581 43.4344 42.9281 44.6138C43.8978 45.7987 44.6505 46.864 45.1685 47.8307C45.6861 48.8083 45.6681 49.6126 45.1354 50.2663C44.8003 50.6632 44.263 50.8598 43.5021 50.844C43.1431 50.8426 42.7504 50.7525 42.3343 50.5851C41.8648 50.3987 41.3572 50.1017 40.8164 49.7051C39.3149 48.6028 38.2959 47.2033 37.7589 45.5176C37.2222 43.8264 37.355 42.1247 38.1468 40.412L31.3424 35.425L23.2062 45.3L30.0106 50.2872L31.3299 48.6876C32.2972 50.6938 33.425 52.4249 34.6972 53.8749L31.3008 57.9888L36.614 61.885L39.6985 58.1366C41.32 59.2339 42.9782 60.1372 44.6781 60.8576C44.7793 60.9007 44.8755 60.9381 44.9713 60.9809C46.5716 61.6256 48.135 62.0237 49.6733 62.1594C51.3037 62.3051 52.8412 62.1253 54.287 61.5982C55.7376 61.0877 57.0077 60.1548 58.1128 58.8166C59.6116 56.9973 60.4007 55.2247 60.4915 53.4938C60.5769 51.7625 60.2834 50.1052 59.5994 48.5318C58.926 46.9645 58.0048 45.4556 56.8352 44.0215C55.6602 42.5872 54.5881 41.2722 53.608 40.0759C52.6231 38.8686 51.8493 37.7913 51.2821 36.8276C50.7203 35.8642 50.7112 35.0586 51.2496 34.3997C51.6894 33.8665 52.3087 33.6632 53.0964 33.7945C53.4205 33.8431 53.7421 33.9406 54.0784 34.0714C54.5637 34.2694 55.061 34.5551 55.5649 34.9281C56.2476 35.4242 56.8322 36.0352 57.3298 36.7561C57.8274 37.477 58.193 38.224 58.4428 39.0034C58.6819 39.7823 58.7844 40.5707 58.7442 41.3848C58.6986 42.1985 58.4762 42.9601 58.0662 43.6634L64.9492 48.7087L72.8946 39.0636L66.0171 34.013L64.6628 35.6599C64.403 35.0813 64.0553 34.4113 63.5924 33.6486C63.1295 32.8859 62.5654 32.0801 61.8838 31.2305L65.5179 26.8183L60.2047 22.9221Z" fill="url(#paint7_linear_21_107)" />
	<path d="M65.4782 80.5545C63.1641 78.2806 60.8119 75.896 58.4859 73.4202C51.4367 74.9384 43.7538 74.3036 36.6445 71.4177C33.7428 70.2464 30.947 68.694 28.3167 66.7635C12.9236 55.461 9.43662 35.3887 20.5296 21.9275C23.2609 18.6132 26.6206 16.0153 30.369 14.1384C30.3015 10.5445 30.4746 7.25634 30.7561 4.41956C23.9174 6.74241 17.7669 10.7748 13.0743 16.4622C-0.970162 33.5097 3.44906 58.9431 22.9473 73.2662C26.281 75.7156 29.8346 77.6753 33.5038 79.1674C43.9896 83.4167 55.4489 83.8134 65.4782 80.5545Z" fill="url(#paint8_linear_21_107)" style="mix-blend-mode:overlay" />
	<path d="M45.4728 48.6073C45.6317 49.2462 45.5282 49.8014 45.1348 50.2771C44.7997 50.674 44.2624 50.8705 43.5015 50.8548C43.1425 50.8534 42.7498 50.7633 42.3337 50.5958C41.8642 50.4095 41.3566 50.1124 40.8159 49.7158C39.3144 48.6135 38.2953 47.2141 37.7583 45.5283C37.2216 43.8371 37.3545 42.1355 38.1462 40.4228L31.3418 35.4357L23.2056 45.3108L30.01 50.2979L31.3293 48.6983C32.2966 50.7045 33.4244 52.4357 34.6966 53.8857L31.3002 57.9996L36.6134 61.8958L39.6979 58.1474C41.3194 59.2447 42.9776 60.148 44.6775 60.8683C44.7787 60.9114 44.8749 60.9488 44.9707 60.9916C46.571 61.6364 48.1344 62.0345 49.6728 62.1702C51.3031 62.3159 52.8406 62.1361 54.2865 61.609C55.2943 61.2507 56.2146 60.6814 57.052 59.9175C52.89 56.2849 48.884 52.464 45.4728 48.6073Z" fill="url(#paint9_linear_21_107)" style="mix-blend-mode:overlay" />
	<path d="M37.7211 37.6763C37.488 37.2187 37.2658 36.7615 37.0649 36.311C37.2598 36.7721 37.4823 37.2238 37.7211 37.6763Z" fill="url(#paint10_linear_21_107)" style="mix-blend-mode:overlay" />
	<defs>
		<linearGradient id="paint0_linear_21_107" x1="2.15075" y1="42.3401" x2="89.7013" y2="54.6078" gradientUnits="userSpaceOnUse">
			<stop offset="0.1616" stop-color="#CC7800" />
			<stop offset="0.2072" stop-color="#D07E02" />
			<stop offset="0.2662" stop-color="#DA8E08" />
			<stop offset="0.3325" stop-color="#EAA912" />
			<stop offset="0.3682" stop-color="#F5BA18" />
			<stop offset="0.4286" stop-color="#F1AA1A" />
			<stop offset="0.4743" stop-color="#EE9B1B" />
			<stop offset="0.5407" stop-color="#6B2B00" />
			<stop offset="0.6147" stop-color="#6D3001" />
			<stop offset="0.7067" stop-color="#FEC423" />
			<stop offset="1" stop-color="#8F4E00" />
		</linearGradient>
		<linearGradient id="paint1_linear_21_107" x1="4.93978" y1="31.2501" x2="87.335" y2="64.6562" gradientUnits="userSpaceOnUse">
			<stop stop-color="#E0A300" />
			<stop offset="0.0833" stop-color="#FFC524" />
			<stop offset="0.1516" stop-color="#FFD759" />
			<stop offset="0.4069" stop-color="#FFF4A5" />
			<stop offset="0.4208" stop-color="#FEF09F" />
			<stop offset="0.4389" stop-color="#FCE68F" />
			<stop offset="0.4592" stop-color="#F9D574" />
			<stop offset="0.4813" stop-color="#F5BD4F" />
			<stop offset="0.5044" stop-color="#EF9E20" />
			<stop offset="0.518" stop-color="#EB8A00" />
			<stop offset="0.5625" stop-color="#AD4300" />
			<stop offset="0.6087" stop-color="#6E3500" />
			<stop offset="0.6515" stop-color="#E09D00" />
			<stop offset="0.6573" stop-color="#E7AA16" />
			<stop offset="0.6672" stop-color="#F2BE37" />
			<stop offset="0.6768" stop-color="#F9CC4E" />
			<stop offset="0.6857" stop-color="#FDD45C" />
			<stop offset="0.6934" stop-color="#FFD761" />
			<stop offset="0.7325" stop-color="#FFD75F" />
			<stop offset="0.7465" stop-color="#FFD558" />
			<stop offset="0.7566" stop-color="#FFD34D" />
			<stop offset="0.7646" stop-color="#FFCF3C" />
			<stop offset="0.7707" stop-color="#FFCB29" />
			<stop offset="0.7818" stop-color="#FBC525" />
			<stop offset="0.7968" stop-color="#F0B41A" />
			<stop offset="0.8139" stop-color="#DE9808" />
			<stop offset="0.8205" stop-color="#D68B00" />
			<stop offset="0.8228" stop-color="#DD9B16" />
			<stop offset="0.8268" stop-color="#E7B133" />
			<stop offset="0.8311" stop-color="#F0C34B" />
			<stop offset="0.8361" stop-color="#F6D15E" />
			<stop offset="0.8419" stop-color="#FBDB6B" />
			<stop offset="0.8493" stop-color="#FDE073" />
			<stop offset="0.8644" stop-color="#FEE275" />
			<stop offset="0.9367" stop-color="#FEE47E" />
			<stop offset="1" stop-color="#FED94B" />
		</linearGradient>
		<linearGradient id="paint2_linear_21_107" x1="4.18515" y1="37.3477" x2="91.7351" y2="49.6153" gradientUnits="userSpaceOnUse">
			<stop offset="0.1616" stop-color="#FFF8C7" />
			<stop offset="0.1986" stop-color="#FFF6C1" />
			<stop offset="0.2466" stop-color="#FEF0B1" />
			<stop offset="0.3007" stop-color="#FEE696" />
			<stop offset="0.3593" stop-color="#FDD871" />
			<stop offset="0.4207" stop-color="#FCC641" />
			<stop offset="0.469" stop-color="#FBB617" />
			<stop offset="0.541" stop-color="#A26009" />
			<stop offset="0.5826" stop-color="#6C2D00" />
			<stop offset="0.6342" stop-color="#6D3001" />
			<stop offset="0.6719" stop-color="#BA7D11" />
			<stop offset="0.7035" stop-color="#FDC120" />
			<stop offset="0.8149" stop-color="#DB9204" />
			<stop offset="0.8202" stop-color="#E09D12" />
			<stop offset="0.8332" stop-color="#EBB52F" />
			<stop offset="0.8469" stop-color="#F3C746" />
			<stop offset="0.8618" stop-color="#F9D456" />
			<stop offset="0.8784" stop-color="#FDDC60" />
			<stop offset="0.9005" stop-color="#FEDE63" />
			<stop offset="1" stop-color="#FBF0D5" />
		</linearGradient>
		<linearGradient id="paint3_linear_21_107" x1="13.3351" y1="37.5417" x2="83.4068" y2="47.3603" gradientUnits="userSpaceOnUse">
			<stop offset="0.1616" stop-color="#BA6D00" />
			<stop offset="0.2364" stop-color="#B46800" />
			<stop offset="0.3334" stop-color="#A45B00" />
			<stop offset="0.4422" stop-color="#894400" />
			<stop offset="0.5407" stop-color="#6B2B00" />
			<stop offset="0.6147" stop-color="#6D3001" />
			<stop offset="0.7067" stop-color="#FEBB00" />
			<stop offset="1" stop-color="#6B3B00" />
		</linearGradient>
		<radialGradient id="paint4_radial_21_107" cx="0" cy="0" r="1" gradientUnits="userSpaceOnUse" gradientTransform="translate(49.3717 44.1982) rotate(7.97647) scale(34.8518)">
			<stop stop-color="#FEDE6D" />
			<stop offset="0.8898" stop-color="#DE9700" />
			<stop offset="1" stop-color="#B06400" />
		</radialGradient>
		<linearGradient id="paint5_linear_21_107" x1="53.9447" y1="2.83553" x2="42.8195" y2="82.2324" gradientUnits="userSpaceOnUse">
			<stop stop-color="#FFDB66" />
			<stop offset="0.4069" stop-color="#FFEF7F" />
			<stop offset="0.4612" stop-color="#FFED79" />
			<stop offset="0.5317" stop-color="#FFE769" />
			<stop offset="0.6112" stop-color="#FFDD4E" />
			<stop offset="0.6965" stop-color="#FFD029" />
			<stop offset="0.7707" stop-color="#FFC203" />
			<stop offset="1" stop-color="#FEDC58" />
		</linearGradient>
		<linearGradient id="paint6_linear_21_107" x1="62.5091" y1="6.50733" x2="32.5918" y2="80.2975" gradientUnits="userSpaceOnUse">
			<stop offset="0.1616" stop-color="#AD6600" />
			<stop offset="0.2452" stop-color="#A76100" />
			<stop offset="0.3535" stop-color="#975200" />
			<stop offset="0.4751" stop-color="#7C3B00" />
			<stop offset="0.5407" stop-color="#6B2B00" />
			<stop offset="0.6147" stop-color="#6D3001" />
			<stop offset="0.7067" stop-color="#8A4700" />
			<stop offset="1" stop-color="#6B3B00" />
		</linearGradient>
		<linearGradient id="paint7_linear_21_107" x1="61.9495" y1="7.878" x2="32.8591" y2="79.6289" gradientUnits="userSpaceOnUse">
			<stop stop-color="#FFDB66" />
			<stop offset="0.4069" stop-color="#FFEF7F" />
			<stop offset="0.4612" stop-color="#FFED79" />
			<stop offset="0.5317" stop-color="#FFE769" />
			<stop offset="0.6112" stop-color="#FFDD4E" />
			<stop offset="0.6965" stop-color="#FFD029" />
			<stop offset="0.7707" stop-color="#FFC203" />
			<stop offset="0.8644" stop-color="#FEDA4F" />
			<stop offset="0.9367" stop-color="#FEDC58" />
		</linearGradient>
		<linearGradient id="paint8_linear_21_107" x1="6.88766" y1="55.3038" x2="38.9482" y2="45.3414" gradientUnits="userSpaceOnUse">
			<stop stop-color="#919191" />
			<stop offset="0.9972" />
		</linearGradient>
		<linearGradient id="paint9_linear_21_107" x1="47.6222" y1="34.1213" x2="33.0376" y2="70.0939" gradientUnits="userSpaceOnUse">
			<stop stop-color="#919191" />
			<stop offset="0.9972" />
		</linearGradient>
		<linearGradient id="paint10_linear_21_107" x1="37.7039" y1="36.2152" x2="37.0448" y2="37.8407" gradientUnits="userSpaceOnUse">
			<stop stop-color="#919191" />
			<stop offset="0.9972" />
		</linearGradient>
	</defs>
</svg>
