<svg width="89" height="56" viewBox="0 0 89 56" fill="none" xmlns="http://www.w3.org/2000/svg">
	<path d="M46.4383 15.6722C23.4739 11.7674 3.46627 16.7612 1.75561 26.8301C0.0449527 36.8991 17.2766 48.2269 40.2413 52.1268C63.2155 56.0321 83.2184 51.0331 84.9288 40.9691C86.6397 30.8953 69.4076 19.5772 46.4383 15.6722Z" fill="url(#paint0_linear_21_431)" />
	<path d="M81.8435 28.6929C75.4491 21.9345 62.4525 15.9119 46.8471 13.2597C31.2467 10.6078 16.9902 11.993 8.72001 16.2587L2.99367 15.2832L1.35066 24.9771C1.34431 25.0063 1.33282 25.0401 1.32623 25.0742C1.32453 25.1085 1.31787 25.1426 1.31127 25.1766L1.29598 25.2889C-0.164579 35.4685 17.2751 46.8607 40.4638 50.8011C63.6525 54.7415 83.8658 49.7628 85.8672 39.6787L85.8721 39.6789L87.5752 29.6637L81.8435 28.6929Z" fill="url(#paint1_linear_21_431)" />
	<path d="M48.4273 3.94026C25.0779 -0.0326627 4.73202 5.04765 2.99328 15.2872C1.24965 25.5265 18.7765 37.0459 42.1261 41.0139C65.4854 44.9824 85.8363 39.9023 87.5748 29.6677C89.3136 19.4281 71.7864 7.91367 48.4273 3.94026Z" fill="url(#paint2_linear_21_431)" />
	<path d="M81.4918 26.9743C80.0666 35.3421 62.8234 39.3911 42.9826 36.0238C23.1372 32.6513 8.19987 23.1321 9.62535 14.7594C11.0457 6.39126 28.2889 2.34225 48.1345 5.70983C67.9748 9.08698 82.9121 18.6062 81.4918 26.9743Z" fill="url(#paint3_linear_21_431)" />
	<path d="M78.1771 27.6368C76.8725 35.352 61.1133 39.1057 42.9834 36.0243C24.8535 32.9428 11.22 24.1907 12.5293 16.4806C13.8385 8.77047 29.598 5.01195 47.7279 8.09339C65.8578 11.1748 79.4866 19.9217 78.1771 27.6368Z" fill="url(#paint4_radial_21_431)" />
	<path d="M43.0581 35.5662C24.9332 32.485 11.3288 23.5427 12.6791 15.5987C14.0296 7.6498 29.8227 3.70617 47.9474 6.79227C66.0773 9.87371 79.6771 18.8109 78.3315 26.76C76.9764 34.7038 61.1831 38.6474 43.0581 35.5662ZM48.594 2.95157C25.6296 -0.953223 5.62692 4.04081 3.91626 14.1098C2.20584 24.1738 19.4371 35.5066 42.4018 39.4065C65.3711 43.3115 85.3741 38.3125 87.0894 28.2487C88.8001 18.1798 71.5685 6.85194 48.594 2.95157Z" fill="url(#paint5_linear_21_431)" />
	<path d="M50.2756 12.1063L44.0279 11.0412L43.6409 13.3073C41.7888 12.9948 40.0093 12.8038 38.2876 12.7385C36.5658 12.6733 35.0294 12.735 33.6737 12.9188C32.3279 13.103 31.2209 13.4268 30.3576 13.8904C29.4995 14.3494 29.0021 14.9686 28.8757 15.7389C28.696 16.7916 29.0383 17.7225 29.9024 18.5368C30.7667 19.3461 31.8762 20.0692 33.2355 20.7063C34.5949 21.3435 36.1048 21.9143 37.7516 22.4035C39.3984 22.8926 40.9191 23.351 42.3192 23.7592C43.7142 24.172 44.8787 24.5735 45.8036 24.9533C46.7333 25.3333 47.1666 25.7184 47.0984 26.1033C47.0574 26.3371 46.7441 26.5084 46.1444 26.6115C45.5446 26.7146 44.6377 26.6699 43.4242 26.4626C41.6648 26.1645 40.1123 25.6554 38.7718 24.9356C37.441 24.2163 36.6167 23.3943 36.3082 22.4748L28.3056 21.1167L27.3104 26.9453L35.3179 28.3037L35.4773 27.363C37.3297 28.167 39.1406 28.8166 40.9099 29.3118L40.4951 31.7437L46.7482 32.8041L47.1278 30.5867C48.9816 30.865 50.7613 31.051 52.4767 31.1455C54.1972 31.2353 55.7272 31.2027 57.0773 31.0334C58.4273 30.8641 59.5239 30.5496 60.3766 30.1002C61.2198 29.6455 61.7127 29.0211 61.845 28.2315C62.0257 27.1592 61.6841 26.2135 60.8111 25.3792C59.9377 24.5547 58.8144 23.8162 57.4307 23.1729C56.052 22.5299 54.5223 21.958 52.8321 21.452C51.1419 20.946 49.5873 20.481 48.1729 20.0623C46.7536 19.6434 45.5645 19.2407 44.6096 18.8741C43.645 18.5022 43.1969 18.1213 43.265 17.7364C43.3197 17.4246 43.6829 17.2361 44.3736 17.1817C45.0594 17.1271 45.9069 17.1836 46.9107 17.356C47.7099 17.4938 48.5013 17.6901 49.2793 17.9594C50.0574 18.2239 50.7503 18.5235 51.363 18.8535C51.9709 19.1833 52.4791 19.5425 52.8875 19.9312C53.3008 20.3202 53.5371 20.7103 53.5915 21.1012L61.6864 22.4786L62.6556 16.7814L54.5605 15.404L54.3998 16.3741C53.8853 16.1423 53.2446 15.8797 52.4777 15.5863C51.7009 15.2924 50.8213 14.9934 49.8382 14.6992L50.2756 12.1063Z" fill="url(#paint6_linear_21_431)" />
	<path d="M50.2481 12.2728L44.0001 11.2126L43.6081 13.4785C41.7609 13.1662 39.9813 12.9801 38.2597 12.9099C36.5382 12.8397 35.0015 12.9065 33.641 13.09C32.3 13.2744 31.1879 13.6029 30.3298 14.0618C29.4717 14.5208 28.9746 15.1351 28.8478 15.9103C28.6681 16.9629 29.0104 17.8939 29.8748 18.7032C30.7391 19.5125 31.8486 20.2357 33.2079 20.8728C34.5624 21.5097 36.0775 22.0759 37.724 22.57C39.3708 23.0591 40.8915 23.5175 42.2867 23.9254C43.6866 24.3385 44.8514 24.7351 45.776 25.1198C46.706 25.4949 47.139 25.8849 47.0708 26.2698C47.0298 26.5036 46.7165 26.6749 46.1168 26.778C45.517 26.8811 44.6104 26.8315 43.3966 26.6291C41.6372 26.331 40.0847 25.8219 38.744 25.107C37.4132 24.3877 36.5888 23.5657 36.2803 22.6462L28.278 21.2832L27.2826 27.1167L35.2901 28.475L35.4497 27.5295C37.3021 28.3335 39.113 28.9831 40.8823 29.4783L40.4675 31.9102L46.7204 32.9706L47.1002 30.7532C48.954 31.0315 50.7337 31.2175 52.4491 31.312C54.1697 31.4018 55.6997 31.3692 57.0497 31.1999C58.3948 31.0304 59.4961 30.721 60.349 30.2667C61.1922 29.812 61.685 29.1876 61.8175 28.393C61.998 27.3257 61.6567 26.3751 60.7835 25.5457C59.9104 24.7163 58.7819 23.9824 57.4031 23.3394C56.0244 22.6964 54.4947 22.1245 52.8045 21.6185C51.1092 21.1171 49.5594 20.6524 48.1451 20.2337C46.726 19.8099 45.5367 19.4121 44.5768 19.0453C43.6171 18.6736 43.1691 18.2927 43.2372 17.9078C43.2919 17.596 43.6551 17.4075 44.3458 17.3531C45.0316 17.2985 45.879 17.355 46.8829 17.5274C47.6821 17.6652 48.4732 17.8664 49.2514 18.1308C50.0296 18.3953 50.7224 18.6949 51.335 19.0298C51.9428 19.3596 52.451 19.7188 52.8545 20.1073C53.2678 20.4963 53.5092 20.8817 53.5637 21.2726L61.6586 22.65L62.6278 16.9528L54.5327 15.5754L54.3719 16.5455C53.8575 16.3137 53.2168 16.0511 52.4501 15.7528C51.6733 15.4589 50.7937 15.1599 49.8106 14.8657L50.2481 12.2728Z" fill="url(#paint7_linear_21_431)" />
	<path d="M50.4059 11.3614L44.1528 10.301L43.7658 12.5671C41.9186 12.2549 40.139 12.0688 38.4175 11.9986C36.6959 11.9284 35.1594 11.9951 33.7988 12.1786C32.4579 12.3631 31.346 12.6866 30.4877 13.1505C29.6296 13.6094 29.1322 14.2287 29.0055 15.0038C28.8258 16.0565 29.1632 16.9872 30.0324 17.7968C30.8967 18.6061 32.0061 19.3292 33.3654 19.9663C34.7199 20.6032 36.2302 21.1692 37.8817 21.6635C39.5285 22.1527 41.0491 22.611 42.4443 23.0189C43.8442 23.432 45.009 23.8286 45.9336 24.2133C46.8636 24.5885 47.2964 24.9784 47.2283 25.3633C47.1873 25.5972 46.8693 25.7682 46.2742 25.8765C45.6744 25.9796 44.7677 25.9299 43.554 25.7275C41.7946 25.4294 40.2372 24.9201 38.9016 24.2005C37.5706 23.4862 36.7464 22.6592 36.438 21.7397L28.4354 20.3816L27.4398 26.2152L35.4473 27.5735L35.6021 26.6277C37.4595 27.4319 39.2655 28.0813 41.0397 28.5767L40.6249 31.0086L46.8776 32.0739L47.2572 29.8566C49.111 30.1348 50.8908 30.3209 52.6065 30.4104C54.3219 30.5049 55.857 30.4676 57.2071 30.2983C58.5522 30.1288 59.6537 29.8146 60.5064 29.3652C61.3496 28.9104 61.8423 28.286 61.9749 27.4915C62.1554 26.4241 61.8141 25.4735 60.9409 24.6441C60.0677 23.8147 58.9391 23.0808 57.5604 22.4378C56.1816 21.7948 54.6521 21.223 52.957 20.7167C51.2665 20.2156 49.7171 19.746 48.3027 19.3272C46.8834 18.9083 45.6941 18.5105 44.7344 18.1388C43.7748 17.7671 43.3267 17.3862 43.3948 17.0014C43.4495 16.6895 43.8127 16.501 44.5034 16.4467C45.1892 16.392 46.0366 16.4486 47.0356 16.6207C47.8397 16.7587 48.6307 16.9599 49.4089 17.2244C50.1871 17.4888 50.8801 17.7884 51.4928 18.1184C52.0958 18.4479 52.6089 18.8075 53.0121 19.2008C53.4254 19.5898 53.6667 19.9752 53.7212 20.3662L61.8162 21.7435L62.7854 16.0463L54.6903 14.6689L54.5294 15.639C54.015 15.4072 53.3744 15.1446 52.6077 14.8463C51.831 14.5524 50.9512 14.2535 49.968 13.9592L50.4059 11.3614Z" fill="url(#paint8_linear_21_431)" />
	<path d="M69.0617 39.8325C66.885 38.6291 64.69 37.3954 62.516 36.1382C56.866 36.9013 50.1396 36.7709 43.058 35.5713C24.933 32.4901 11.3286 23.5478 12.6789 15.6038C13.4954 10.8082 19.5622 7.47576 28.2276 6.25694C27.3628 4.75958 26.6179 3.3222 25.9812 1.98353C13.7518 3.22309 5.02342 7.60865 3.91634 14.11C2.20592 24.174 19.4372 35.5068 42.4019 39.4067C52.232 41.076 61.5136 41.1163 69.0617 39.8325Z" fill="url(#paint9_linear_21_431)" style="mix-blend-mode:overlay" />
	<defs>
		<linearGradient id="paint0_linear_21_431" x1="1.58049" y1="28.0471" x2="85.1047" y2="39.7507" gradientUnits="userSpaceOnUse">
			<stop offset="0.1616" stop-color="#CC7800" />
			<stop offset="0.2072" stop-color="#D07E02" />
			<stop offset="0.2662" stop-color="#DA8E08" />
			<stop offset="0.3325" stop-color="#EAA912" />
			<stop offset="0.3682" stop-color="#F5BA18" />
			<stop offset="0.4286" stop-color="#F1AA1A" />
			<stop offset="0.4743" stop-color="#EE9B1B" />
			<stop offset="0.5407" stop-color="#6B2B00" />
			<stop offset="0.6147" stop-color="#6D3001" />
			<stop offset="0.7067" stop-color="#FEC423" />
			<stop offset="1" stop-color="#8F4E00" />
		</linearGradient>
		<linearGradient id="paint1_linear_21_431" x1="1.37068" y1="24.846" x2="85.9542" y2="39.2244" gradientUnits="userSpaceOnUse">
			<stop stop-color="#E0A300" />
			<stop offset="0.0833" stop-color="#FFC524" />
			<stop offset="0.1516" stop-color="#FFD759" />
			<stop offset="0.4069" stop-color="#FFF4A5" />
			<stop offset="0.4208" stop-color="#FEF09F" />
			<stop offset="0.4389" stop-color="#FCE68F" />
			<stop offset="0.4592" stop-color="#F9D574" />
			<stop offset="0.4813" stop-color="#F5BD4F" />
			<stop offset="0.5044" stop-color="#EF9E20" />
			<stop offset="0.518" stop-color="#EB8A00" />
			<stop offset="0.5625" stop-color="#AD4300" />
			<stop offset="0.6087" stop-color="#6E3500" />
			<stop offset="0.6515" stop-color="#E09D00" />
			<stop offset="0.6573" stop-color="#E7AA16" />
			<stop offset="0.6672" stop-color="#F2BE37" />
			<stop offset="0.6768" stop-color="#F9CC4E" />
			<stop offset="0.6857" stop-color="#FDD45C" />
			<stop offset="0.6934" stop-color="#FFD761" />
			<stop offset="0.7325" stop-color="#FFD75F" />
			<stop offset="0.7465" stop-color="#FFD558" />
			<stop offset="0.7566" stop-color="#FFD34D" />
			<stop offset="0.7646" stop-color="#FFCF3C" />
			<stop offset="0.7707" stop-color="#FFCB29" />
			<stop offset="0.7818" stop-color="#FBC525" />
			<stop offset="0.7968" stop-color="#F0B41A" />
			<stop offset="0.8139" stop-color="#DE9808" />
			<stop offset="0.8205" stop-color="#D68B00" />
			<stop offset="0.8228" stop-color="#DD9B16" />
			<stop offset="0.8268" stop-color="#E7B133" />
			<stop offset="0.8311" stop-color="#F0C34B" />
			<stop offset="0.8361" stop-color="#F6D15E" />
			<stop offset="0.8419" stop-color="#FBDB6B" />
			<stop offset="0.8493" stop-color="#FDE073" />
			<stop offset="0.8644" stop-color="#FEE275" />
			<stop offset="0.9367" stop-color="#FEE47E" />
			<stop offset="1" stop-color="#FED94B" />
		</linearGradient>
		<linearGradient id="paint2_linear_21_431" x1="2.81685" y1="16.5297" x2="87.7503" y2="28.4307" gradientUnits="userSpaceOnUse">
			<stop offset="0.1616" stop-color="#FFF8C7" />
			<stop offset="0.1986" stop-color="#FFF6C1" />
			<stop offset="0.2466" stop-color="#FEF0B1" />
			<stop offset="0.3007" stop-color="#FEE696" />
			<stop offset="0.3593" stop-color="#FDD871" />
			<stop offset="0.4207" stop-color="#FCC641" />
			<stop offset="0.469" stop-color="#FBB617" />
			<stop offset="0.541" stop-color="#A26009" />
			<stop offset="0.5826" stop-color="#6C2D00" />
			<stop offset="0.6342" stop-color="#6D3001" />
			<stop offset="0.6719" stop-color="#BA7D11" />
			<stop offset="0.7035" stop-color="#FDC120" />
			<stop offset="0.8149" stop-color="#DB9204" />
			<stop offset="0.8202" stop-color="#E09D12" />
			<stop offset="0.8332" stop-color="#EBB52F" />
			<stop offset="0.8469" stop-color="#F3C746" />
			<stop offset="0.8618" stop-color="#F9D456" />
			<stop offset="0.8784" stop-color="#FDDC60" />
			<stop offset="0.9005" stop-color="#FEDE63" />
			<stop offset="1" stop-color="#FBC543" />
		</linearGradient>
		<linearGradient id="paint3_linear_21_431" x1="9.62064" y1="14.7604" x2="81.4905" y2="26.9726" gradientUnits="userSpaceOnUse">
			<stop offset="0.1616" stop-color="#BA6D00" />
			<stop offset="0.2364" stop-color="#B46800" />
			<stop offset="0.3334" stop-color="#A45B00" />
			<stop offset="0.4422" stop-color="#894400" />
			<stop offset="0.5407" stop-color="#6B2B00" />
			<stop offset="0.6147" stop-color="#6D3001" />
			<stop offset="0.7067" stop-color="#FEBB00" />
			<stop offset="1" stop-color="#6B3B00" />
		</linearGradient>
		<radialGradient id="paint4_radial_21_431" cx="0" cy="0" r="1" gradientUnits="userSpaceOnUse" gradientTransform="translate(45.3537 22.052) rotate(9.64802) scale(33.295 14.1645)">
			<stop stop-color="#FEDE6D" />
			<stop offset="1" stop-color="#EBA719" />
		</radialGradient>
		<linearGradient id="paint5_linear_21_431" x1="48.0548" y1="2.99643" x2="42.8998" y2="39.7857" gradientUnits="userSpaceOnUse">
			<stop stop-color="#FFD651" />
			<stop offset="0.4069" stop-color="#FFEC60" />
			<stop offset="0.4829" stop-color="#FFE95A" />
			<stop offset="0.5815" stop-color="#FFE14A" />
			<stop offset="0.692" stop-color="#FFD32F" />
			<stop offset="0.7707" stop-color="#FFC718" />
			<stop offset="0.8644" stop-color="#FED844" />
			<stop offset="0.9367" stop-color="#FED949" />
		</linearGradient>
		<linearGradient id="paint6_linear_21_431" x1="27.4924" y1="18.8855" x2="62.5704" y2="24.8484" gradientUnits="userSpaceOnUse">
			<stop offset="0.1616" stop-color="#BA6D00" />
			<stop offset="0.2364" stop-color="#B46800" />
			<stop offset="0.3334" stop-color="#A45B00" />
			<stop offset="0.4422" stop-color="#894400" />
			<stop offset="0.5407" stop-color="#6B2B00" />
			<stop offset="0.6147" stop-color="#6D3001" />
			<stop offset="0.7067" stop-color="#CF7C00" />
			<stop offset="1" stop-color="#6B3B00" />
		</linearGradient>
		<linearGradient id="paint7_linear_21_431" x1="27.4645" y1="19.0518" x2="62.5425" y2="25.0147" gradientUnits="userSpaceOnUse">
			<stop offset="0.1616" stop-color="#BA6D00" />
			<stop offset="0.2364" stop-color="#B46800" />
			<stop offset="0.3334" stop-color="#A45B00" />
			<stop offset="0.4422" stop-color="#894400" />
			<stop offset="0.5407" stop-color="#6B2B00" />
			<stop offset="0.6147" stop-color="#6D3001" />
			<stop offset="0.7067" stop-color="#CF7C00" />
			<stop offset="1" stop-color="#6B3B00" />
		</linearGradient>
		<linearGradient id="paint8_linear_21_431" x1="48.5816" y1="3.11235" x2="42.3668" y2="39.6721" gradientUnits="userSpaceOnUse">
			<stop stop-color="#FFE48C" />
			<stop offset="0.4069" stop-color="#FFF4A5" />
			<stop offset="0.4612" stop-color="#FFF29F" />
			<stop offset="0.5317" stop-color="#FFED8F" />
			<stop offset="0.6112" stop-color="#FFE474" />
			<stop offset="0.6965" stop-color="#FFD84F" />
			<stop offset="0.7707" stop-color="#FFCB29" />
			<stop offset="0.8644" stop-color="#FEE275" />
			<stop offset="0.9367" stop-color="#FEE47E" />
		</linearGradient>
		<linearGradient id="paint9_linear_21_431" x1="16.8795" y1="36.2661" x2="39.8275" y2="23.0014" gradientUnits="userSpaceOnUse">
			<stop stop-color="#919191" />
			<stop offset="0.9972" />
		</linearGradient>
	</defs>
</svg>
