<svg width="123" height="119" viewBox="0 0 123 119" fill="none" xmlns="http://www.w3.org/2000/svg">
	<path d="M38.3187 28.3217C28.5272 35.5217 20.3323 45.073 15.3149 56.0665C2.76006 83.5902 14.8771 109.731 42.3733 114.48C58.8846 117.324 77.1859 111.807 91.8925 100.989C101.684 93.7894 109.879 84.238 114.896 73.2409C127.447 45.7281 115.331 19.5765 87.8338 14.8387C71.3263 11.9912 53.025 17.5079 38.3187 28.3217Z" fill="url(#paint0_linear_21_358)" />
	<path d="M112.924 27.8437L107.024 19.8548L105.969 20.6352C100.934 16.6888 94.6381 13.8737 87.2387 12.6026C70.4393 9.70009 51.8127 15.315 36.85 26.3224C26.8865 33.6502 18.5435 43.3673 13.4391 54.5554C7.52096 67.5301 6.99896 80.2003 10.9156 90.548L9.83796 91.3382L15.4951 99.0316L15.5201 99.0476C21.1009 106.645 29.7798 112.068 40.9733 114.001C57.7767 116.896 76.4033 111.281 91.3697 100.274C101.333 92.9464 109.673 83.2255 114.781 72.0376C122.376 55.3813 121.092 39.2226 112.924 27.8437Z" fill="url(#paint1_linear_21_358)" />
	<path d="M31.1822 18.6143C21.2186 25.9421 12.8757 35.6592 7.77127 46.8473C-5.00622 74.8535 7.32712 101.461 35.3092 106.293C52.1126 109.188 70.7357 103.57 85.7057 92.5626C95.6693 85.2348 104.012 75.5141 109.113 64.3258C121.886 36.3305 109.561 9.7118 81.5747 4.89093C64.7713 1.99563 46.1449 7.60691 31.1822 18.6143Z" fill="url(#paint2_linear_21_358)" />
	<path d="M34.9345 23.6977C27.0421 29.5071 20.4344 37.1993 16.3912 46.0641C6.26917 68.2493 16.0358 89.3238 38.2038 93.1504C51.5159 95.4425 66.2654 90.9954 78.1208 82.2766C86.0129 76.4709 92.6209 68.775 96.6641 59.9102C106.782 37.7321 97.0159 16.6467 74.8474 12.8311C61.5393 10.5318 46.7862 14.9788 34.9345 23.6977Z" fill="url(#paint3_linear_21_358)" />
	<path d="M37.1427 26.7092C29.3577 32.4318 22.8432 40.0255 18.8578 48.7643C8.8761 70.6433 18.5098 91.4276 40.3673 95.2021C53.4931 97.4629 68.0407 93.0758 79.7354 84.478C87.5169 78.7516 94.0351 71.1581 98.0205 62.4193C108.002 40.5476 98.3687 19.7522 76.5069 15.9886C63.3813 13.7241 48.8341 18.1039 37.1427 26.7092Z" fill="url(#paint4_radial_21_358)" />
	<path d="M78.7421 83.1248C67.0472 91.7263 52.5034 96.1099 39.3778 93.8454C17.5164 90.0744 7.88667 69.2867 17.8643 47.4147C21.8499 38.6723 28.3717 31.079 36.1532 25.3525C47.8442 16.7546 62.3882 12.3672 75.5138 14.6317C97.3717 18.3989 107.001 39.1866 97.0273 61.0624C93.0452 69.8087 86.5271 77.4022 78.7421 83.1248ZM30.4672 17.6467C20.6067 24.9022 12.3498 34.5167 7.2953 45.5894C-5.35029 73.3112 6.85278 99.6475 34.5502 104.425C51.1784 107.289 69.6143 101.731 84.424 90.8378C94.2883 83.5825 102.542 73.9641 107.596 62.8914C120.241 35.1807 108.039 8.83328 80.337 4.06698C63.713 1.19158 45.2808 6.7498 30.4672 17.6467Z" fill="url(#paint5_linear_21_358)" />
	<path d="M98.8195 56.5358C98.3146 58.0358 97.7242 59.5499 97.0343 61.0664C93.045 69.8087 86.5269 77.4022 78.7456 83.125C67.0507 91.7264 52.5069 96.1101 39.3814 93.8456C18.7397 90.2858 9.01593 71.5523 16.3875 51.0655C13.2345 48.6817 10.4369 46.26 8.05055 44.0134C7.79628 44.5386 7.53871 45.0563 7.29895 45.5859C-5.34664 73.3076 6.85649 99.644 34.5539 104.421C51.1821 107.286 69.618 101.728 84.4277 90.8343C94.2919 83.579 102.545 73.9606 107.6 62.8879C109.351 59.048 110.611 55.2355 111.432 51.5008C107.418 53.2069 103.172 54.9127 98.8195 56.5358Z" fill="url(#paint6_linear_21_358)" style="mix-blend-mode:overlay" />
	<path d="M85.3235 36.8613L77.6907 35.5454L76.4723 38.2182C76.0037 37.7126 75.3899 37.163 74.6205 36.5578C73.8621 35.9532 72.9476 35.3777 71.8924 34.8174L75.163 27.6529L74.2379 26.3955L72.824 27.0587L72.7453 27.2353L67.6254 26.3455L64.7796 32.5917C62.5443 32.2089 60.2825 32.1415 57.9753 32.396C55.6678 32.6578 53.4861 33.2057 51.4295 34.0545C49.9331 34.6731 48.5428 35.4554 47.2626 36.394C46.7847 36.7498 46.3169 37.1245 45.8663 37.5222C44.2029 38.987 42.8877 40.7858 41.9169 42.9184C40.5991 45.8146 40.1216 48.2514 40.4846 50.2251C40.8515 52.1953 41.6525 53.8775 42.8728 55.271C44.0976 56.65 45.5874 57.8063 47.3652 58.7265C49.1319 59.646 50.7697 60.4929 52.2751 61.2596C53.7842 62.0265 54.9832 62.8076 55.8721 63.6028C56.7645 64.4019 56.9692 65.3291 56.4859 66.3918C56.3002 66.7951 55.9874 67.1628 55.544 67.4908C55.2842 67.6805 54.9847 67.8536 54.6378 68.017C53.7026 68.457 52.512 68.553 51.0475 68.3002C48.9146 67.9335 47.2946 66.9512 46.1881 65.3386C45.0779 63.7295 44.7834 61.7113 45.3002 59.2986L44.3751 58.0412L43.2989 58.9531L35.6441 57.6325L29.8379 70.355L27.3932 72.4259L28.3183 73.6833L37.9743 75.3494L39.1674 72.7416C40.8875 74.4581 42.7274 75.7606 44.6646 76.6592L42.5133 81.3706L40.6839 82.0943L41.6089 83.3517L49.1508 84.6446L51.9336 78.5574C54.2033 78.8388 56.4769 78.892 58.7512 78.7059C61.0179 78.5268 63.1746 78.0365 65.2065 77.238C66.7203 76.6424 68.1247 75.8719 69.4203 74.9193C69.8638 74.5913 70.2932 74.2478 70.7093 73.8779C72.3387 72.4298 73.6504 70.6272 74.6496 68.4408C75.992 65.4942 76.4902 63.0105 76.1299 60.9817C75.7658 58.9565 74.9696 57.2523 73.7195 55.8647C72.4771 54.4701 70.9433 53.3079 69.1299 52.364C67.3161 51.4274 65.6425 50.5603 64.116 49.7741C62.5929 48.9918 61.3533 48.2124 60.4113 47.4477C59.469 46.6904 59.2341 45.7764 59.725 44.7104C59.9526 44.2023 60.286 43.7915 60.7179 43.474C61.0311 43.2464 61.3974 43.0618 61.8203 42.928C62.8271 42.602 63.9275 42.5458 65.1364 42.7528C66.1041 42.9221 66.9894 43.2677 67.7885 43.7933C68.5948 44.323 69.2449 44.9554 69.7427 45.6908C70.2515 46.4268 70.585 47.283 70.748 48.2339C70.8064 48.5425 70.8239 48.8601 70.83 49.1846L69.6094 49.9604L70.5345 51.2178L80.3002 52.9004L87.453 37.2241L86.5279 35.9667L85.3235 36.8613Z" fill="url(#paint7_linear_21_358)" />
	<path d="M46.3363 35.1446C45.8547 35.5002 45.3905 35.8751 44.94 36.2727C43.2766 37.7376 41.9613 39.5364 40.9904 41.6726C39.6726 44.5688 39.1952 47.002 39.5583 48.9756C39.9251 50.9458 40.7261 52.628 41.9465 54.0215C43.171 55.4042 44.6611 56.5569 46.4388 57.477C48.2056 58.3966 49.8433 59.2435 51.3488 60.0102C52.8579 60.7771 54.0569 61.5581 54.9458 62.3533C55.8382 63.1524 56.0429 64.0797 55.5596 65.1423C55.3739 65.5457 55.0612 65.9133 54.6177 66.2414C54.3616 66.4313 54.0584 66.6042 53.7115 66.7675C52.78 67.2078 51.5856 67.3035 50.1211 67.0508C47.9883 66.6841 46.3683 65.7018 45.2618 64.0892C44.1516 62.4801 43.857 60.4619 44.3738 58.0492L34.7178 56.3831L27.3956 72.434L37.0517 74.1001L38.2448 71.4923C39.9649 73.2088 41.8047 74.5114 43.7456 75.4101L40.6901 82.099L48.2319 83.3955L51.0148 77.3046C53.2845 77.586 55.5581 77.6393 57.8361 77.4533C60.1027 77.2742 62.2594 76.7839 64.2914 75.9855C65.8051 75.3898 67.2096 74.6193 68.5052 73.6667C68.9485 73.3423 69.3781 72.9953 69.7941 72.6254C71.4234 71.1809 72.7353 69.3746 73.7345 67.1882C75.0769 64.2416 75.5751 61.7579 75.2148 59.7292C74.8507 57.7039 74.0545 55.9998 72.8044 54.6122C71.562 53.2176 70.0282 52.0554 68.2148 51.1114C66.401 50.1748 64.7274 49.3077 63.2008 48.5215C61.6776 47.7429 60.4417 46.9637 59.496 46.1988C58.5538 45.4378 58.319 44.5238 58.8099 43.4578C59.0375 42.9497 59.3709 42.539 59.8027 42.2214C60.116 41.9938 60.4823 41.8092 60.9051 41.6754C61.912 41.3494 63.0123 41.2932 64.2249 41.5004C65.1889 41.6695 66.0743 42.0151 66.8734 42.5408C67.6796 43.0704 68.3298 43.7029 68.8276 44.4383C69.3364 45.1742 69.6698 46.0304 69.8365 46.9815C70.0073 47.9255 69.9359 48.9238 69.6193 49.9652L79.3851 51.6478L86.5378 35.9715L76.7684 34.2888L75.55 36.9616C75.0814 36.456 74.4676 35.9064 73.6982 35.3012C72.9398 34.6966 72.0254 34.1211 70.9701 33.5608L74.2407 26.3963L66.7031 25.0889L63.8573 31.3351C61.6257 30.9524 59.3602 30.8849 57.053 31.1394C54.7455 31.4012 52.5638 31.9491 50.5072 32.7979C49.0068 33.4237 47.6166 34.2023 46.3363 35.1446Z" fill="url(#paint8_linear_21_358)" />
	<path d="M54.6178 66.2369C54.3617 66.4268 54.0585 66.5997 53.7116 66.7631C52.7801 67.2033 51.5857 67.2991 50.1212 67.0463C48.5654 66.778 47.2839 66.1771 46.2764 65.2471C41.4943 64.304 36.9407 62.7607 32.6778 60.8488L27.3959 72.4259L37.052 74.092L38.2451 71.4842C39.9651 73.2007 41.805 74.5033 43.7459 75.402L40.6904 82.0909L48.2322 83.3874L51.0151 77.2965C53.2848 77.5779 55.5584 77.6311 57.8364 77.4452C60.103 77.2661 62.2597 76.7758 64.2917 75.9774C65.8054 75.3817 67.2099 74.6112 68.5055 73.6586C68.9487 73.3342 69.3784 72.9872 69.7944 72.6173C71.4237 71.1728 72.7356 69.3665 73.7348 67.1801C74.2717 66.0022 74.6687 64.8984 74.9331 63.8691C67.6729 65.5256 60.7133 66.464 54.6178 66.2369Z" fill="url(#paint9_linear_21_358)" style="mix-blend-mode:overlay" />
	<defs>
		<linearGradient id="paint0_linear_21_358" x1="12.7513" y1="57.324" x2="117.466" y2="71.9969" gradientUnits="userSpaceOnUse">
			<stop offset="0.1616" stop-color="#CC7800" />
			<stop offset="0.2072" stop-color="#D07E02" />
			<stop offset="0.2662" stop-color="#DA8E08" />
			<stop offset="0.3325" stop-color="#EAA912" />
			<stop offset="0.3682" stop-color="#F5BA18" />
			<stop offset="0.4286" stop-color="#F1AA1A" />
			<stop offset="0.4743" stop-color="#EE9B1B" />
			<stop offset="0.5407" stop-color="#6B2B00" />
			<stop offset="0.6147" stop-color="#6D3001" />
			<stop offset="0.7067" stop-color="#FEC423" />
			<stop offset="1" stop-color="#8F4E00" />
		</linearGradient>
		<linearGradient id="paint1_linear_21_358" x1="15.506" y1="99.0462" x2="112.71" y2="27.55" gradientUnits="userSpaceOnUse">
			<stop stop-color="#E0A300" />
			<stop offset="0.0833" stop-color="#FFC524" />
			<stop offset="0.1516" stop-color="#FFD759" />
			<stop offset="0.4069" stop-color="#FFF4A5" />
			<stop offset="0.4208" stop-color="#FEF09F" />
			<stop offset="0.4389" stop-color="#FCE68F" />
			<stop offset="0.4592" stop-color="#F9D574" />
			<stop offset="0.4813" stop-color="#F5BD4F" />
			<stop offset="0.5044" stop-color="#EF9E20" />
			<stop offset="0.518" stop-color="#EB8A00" />
			<stop offset="0.5625" stop-color="#AD4300" />
			<stop offset="0.6087" stop-color="#6E3500" />
			<stop offset="0.6515" stop-color="#E09D00" />
			<stop offset="0.6573" stop-color="#E7AA16" />
			<stop offset="0.6672" stop-color="#F2BE37" />
			<stop offset="0.6768" stop-color="#F9CC4E" />
			<stop offset="0.6857" stop-color="#FDD45C" />
			<stop offset="0.6934" stop-color="#FFD761" />
			<stop offset="0.7325" stop-color="#FFD75F" />
			<stop offset="0.7465" stop-color="#FFD558" />
			<stop offset="0.7566" stop-color="#FFD34D" />
			<stop offset="0.7646" stop-color="#FFCF3C" />
			<stop offset="0.7707" stop-color="#FFCB29" />
			<stop offset="0.7818" stop-color="#FBC525" />
			<stop offset="0.7968" stop-color="#F0B41A" />
			<stop offset="0.8139" stop-color="#DE9808" />
			<stop offset="0.8205" stop-color="#D68B00" />
			<stop offset="0.8228" stop-color="#DD9B16" />
			<stop offset="0.8268" stop-color="#E7B133" />
			<stop offset="0.8311" stop-color="#F0C34B" />
			<stop offset="0.8361" stop-color="#F6D15E" />
			<stop offset="0.8419" stop-color="#FBDB6B" />
			<stop offset="0.8493" stop-color="#FDE073" />
			<stop offset="0.8644" stop-color="#FEE275" />
			<stop offset="0.9367" stop-color="#FEE47E" />
			<stop offset="1" stop-color="#FED94B" />
		</linearGradient>
		<linearGradient id="paint2_linear_21_358" x1="5.15815" y1="48.13" x2="111.722" y2="63.0619" gradientUnits="userSpaceOnUse">
			<stop offset="0.1616" stop-color="#FFF8C7" />
			<stop offset="0.1986" stop-color="#FFF6C1" />
			<stop offset="0.2466" stop-color="#FEF0B1" />
			<stop offset="0.3007" stop-color="#FEE696" />
			<stop offset="0.3593" stop-color="#FDD871" />
			<stop offset="0.4207" stop-color="#FCC641" />
			<stop offset="0.469" stop-color="#FBB617" />
			<stop offset="0.541" stop-color="#A26009" />
			<stop offset="0.5826" stop-color="#6C2D00" />
			<stop offset="0.6342" stop-color="#6D3001" />
			<stop offset="0.6719" stop-color="#BA7D11" />
			<stop offset="0.7035" stop-color="#FDC120" />
			<stop offset="0.8149" stop-color="#DB9204" />
			<stop offset="0.8202" stop-color="#E09D12" />
			<stop offset="0.8332" stop-color="#EBB52F" />
			<stop offset="0.8469" stop-color="#F3C746" />
			<stop offset="0.8618" stop-color="#F9D456" />
			<stop offset="0.8784" stop-color="#FDDC60" />
			<stop offset="0.9005" stop-color="#FEDE63" />
			<stop offset="1" stop-color="#FBC543" />
		</linearGradient>
		<linearGradient id="paint3_linear_21_358" x1="14.3206" y1="47.074" x2="98.7325" y2="58.902" gradientUnits="userSpaceOnUse">
			<stop offset="0.1616" stop-color="#BA6D00" />
			<stop offset="0.2364" stop-color="#B46800" />
			<stop offset="0.3334" stop-color="#A45B00" />
			<stop offset="0.4422" stop-color="#894400" />
			<stop offset="0.5407" stop-color="#6B2B00" />
			<stop offset="0.6147" stop-color="#6D3001" />
			<stop offset="0.7067" stop-color="#FEBB00" />
			<stop offset="1" stop-color="#6B3B00" />
		</linearGradient>
		<radialGradient id="paint4_radial_21_358" cx="0" cy="0" r="1" gradientUnits="userSpaceOnUse" gradientTransform="translate(58.4387 55.5924) rotate(7.97645) scale(41.8921)">
			<stop stop-color="#FEDE6D" />
			<stop offset="1" stop-color="#EBA719" />
		</radialGradient>
		<linearGradient id="paint5_linear_21_358" x1="64.5224" y1="3.7518" x2="50.48" y2="103.967" gradientUnits="userSpaceOnUse">
			<stop stop-color="#FFDB66" />
			<stop offset="0.4069" stop-color="#FFEF7F" />
			<stop offset="0.4612" stop-color="#FFED79" />
			<stop offset="0.5317" stop-color="#FFE769" />
			<stop offset="0.6112" stop-color="#FFDD4E" />
			<stop offset="0.6965" stop-color="#FFD029" />
			<stop offset="0.7707" stop-color="#FFC203" />
			<stop offset="0.8644" stop-color="#FEDA4F" />
			<stop offset="0.9367" stop-color="#FEDC58" />
		</linearGradient>
		<linearGradient id="paint6_linear_21_358" x1="51.1706" y1="99.0541" x2="56.1002" y2="63.3275" gradientUnits="userSpaceOnUse">
			<stop stop-color="#919191" />
			<stop offset="0.9972" />
		</linearGradient>
		<linearGradient id="paint7_linear_21_358" x1="32.1165" y1="20.413" x2="83.6527" y2="90.4801" gradientUnits="userSpaceOnUse">
			<stop offset="0.1616" stop-color="#AD6600" />
			<stop offset="0.2452" stop-color="#A76100" />
			<stop offset="0.3535" stop-color="#975200" />
			<stop offset="0.4751" stop-color="#7C3B00" />
			<stop offset="0.5407" stop-color="#6B2B00" />
			<stop offset="0.6147" stop-color="#6D3001" />
			<stop offset="0.7067" stop-color="#8A4700" />
			<stop offset="1" stop-color="#6B3B00" />
		</linearGradient>
		<linearGradient id="paint8_linear_21_358" x1="31.1897" y1="19.1547" x2="82.728" y2="89.2248" gradientUnits="userSpaceOnUse">
			<stop stop-color="#FFE48C" />
			<stop offset="0.4069" stop-color="#FFF4A5" />
			<stop offset="0.4612" stop-color="#FFF29F" />
			<stop offset="0.5317" stop-color="#FFED8F" />
			<stop offset="0.6112" stop-color="#FFE474" />
			<stop offset="0.6965" stop-color="#FFD84F" />
			<stop offset="0.7707" stop-color="#FFCB29" />
			<stop offset="0.8644" stop-color="#FEE275" />
			<stop offset="0.9367" stop-color="#FEE47E" />
		</linearGradient>
		<linearGradient id="paint9_linear_21_358" x1="48.6893" y1="79.5529" x2="52.1425" y2="63.6385" gradientUnits="userSpaceOnUse">
			<stop stop-color="#919191" />
			<stop offset="0.9972" />
		</linearGradient>
	</defs>
</svg>
