<svg width="94" height="74" viewBox="0 0 94 74" fill="none" xmlns="http://www.w3.org/2000/svg">
	<path d="M42.2237 25.7406C21.717 33.9038 8.10254 47.9588 11.8107 57.1375C15.5258 66.3196 35.1565 67.1475 55.665 58.9894C76.1666 50.828 89.7811 36.7731 86.0678 27.5962C82.3578 18.4123 62.7272 17.5843 42.2237 25.7406Z" fill="url(#paint0_linear_21_477)" />
	<path d="M12.0916 44.9415C16.6031 37.3123 27.4052 29.0924 41.3408 23.5479C55.2713 18.0052 68.7991 16.5425 77.3774 18.9648L82.4948 16.9303L86.0635 25.7678C86.0744 25.7984 86.0904 25.827 86.1032 25.8627C86.1142 25.8933 86.1252 25.924 86.1361 25.9546L86.1796 26.0598C89.6805 35.3991 75.8936 49.5506 55.1847 57.792C34.486 66.0297 14.663 65.2591 10.6797 56.1156L10.6746 56.1174L6.98291 46.9844L12.0916 44.9415Z" fill="url(#paint1_linear_21_477)" />
	<path d="M37.8968 15.0427C17.0436 23.3472 3.19806 37.6404 6.97305 46.9736C10.748 56.3068 30.7132 57.153 51.57 48.8586C72.418 40.5559 86.2636 26.2628 82.4886 16.9296C78.7099 7.58617 58.7433 6.75197 37.8968 15.0427Z" fill="url(#paint2_linear_21_477)" />
	<path d="M12.0553 43.2517C15.1414 50.8868 32.0019 51.3547 49.7199 44.3056C67.4361 37.2514 79.2958 25.3498 76.2115 17.7198C73.1254 10.0847 56.2649 9.61678 38.5469 16.6659C20.8288 23.715 8.96915 35.6166 12.0553 43.2517Z" fill="url(#paint3_linear_21_477)" />
	<path d="M15.2693 43.2273C18.1106 50.2595 33.5373 50.7406 49.7251 44.3029C65.911 37.8602 76.7234 26.9381 73.882 19.9058C71.0406 12.8736 55.614 12.3925 39.4262 18.8302C23.2402 25.2729 12.4228 36.1969 15.2693 43.2273Z" fill="url(#paint4_radial_21_477)" />
	<path d="M43.5742 21.0447L37.9931 23.2627L38.8307 25.3277C37.1799 25.9881 35.6505 26.7143 34.229 27.517C32.8109 28.3127 31.5953 29.1279 30.5958 29.952C29.6014 30.7743 28.876 31.5924 28.4158 32.3959C27.9556 33.1995 27.8715 33.9604 28.1527 34.6652C28.5425 35.6246 29.2893 36.2317 30.398 36.4675C31.5035 36.7102 32.7672 36.7525 34.1846 36.613C35.6001 36.4684 37.1051 36.1881 38.6844 35.7777C40.2636 35.3674 41.7237 34.994 43.0574 34.637C44.393 34.2852 45.5355 34.0371 46.4748 33.8963C47.4173 33.7485 47.9611 33.8529 48.1024 34.1993C48.1861 34.4168 48.0213 34.7117 47.5895 35.0965C47.1577 35.4814 46.4009 35.8907 45.3191 36.3243C43.743 36.9522 42.2376 37.2957 40.7947 37.3638C39.3568 37.43 38.2765 37.1611 37.5621 36.5482L30.4151 39.3903L32.5639 44.7143L39.7091 41.8669L39.361 41.0077C41.2607 40.753 43.0485 40.3945 44.7326 39.9235L45.6282 42.1345L51.2093 39.9166L50.3933 37.8957C52.028 37.2065 53.5625 36.4784 54.9931 35.7013C56.4255 34.9292 57.6502 34.1395 58.6431 33.3292C59.6462 32.5153 60.3771 31.7125 60.8359 30.9209C61.2877 30.1261 61.3668 29.3671 61.0782 28.6419C60.683 27.6671 59.9256 27.0465 58.8045 26.7922C57.6801 26.5447 56.4025 26.4961 54.9596 26.6447C53.5237 26.7966 51.9982 27.084 50.3764 27.5039C48.7614 27.9271 47.2689 28.3064 45.9181 28.6638C44.5621 29.0229 43.3941 29.2801 42.4366 29.4505C41.4723 29.6176 40.9219 29.527 40.7787 29.1755C40.6626 28.8834 40.8609 28.5534 41.3903 28.1681C41.9147 27.7846 42.626 27.409 43.5177 27.055C44.2309 26.765 44.9729 26.5394 45.7387 26.3802C46.5009 26.2107 47.2099 26.1179 47.8723 26.0877C48.5227 26.0561 49.12 26.1011 49.647 26.223C50.1741 26.345 50.5624 26.5455 50.8123 26.8415L58.0391 23.9648L55.9377 18.7736L48.7109 21.6501L49.0681 22.5348C48.5384 22.598 47.8825 22.6948 47.1164 22.837C46.3381 22.9776 45.4806 23.1699 44.5367 23.4102L43.5742 21.0447Z" fill="url(#paint5_linear_21_477)" />
	<path d="M43.2403 20.2089L37.6559 22.4338L38.4935 24.4988C36.8427 25.1592 35.3133 25.8854 33.89 26.683C32.4686 27.4857 31.2563 28.294 30.2586 29.1232C29.2625 29.9404 28.5389 30.7635 28.0736 31.5689C27.6134 32.3725 27.5274 33.1284 27.8105 33.8383C28.1951 34.7996 28.9453 35.3998 30.0507 35.6425C31.1594 35.8783 32.4199 35.9273 33.8372 35.7878C35.2579 35.6414 36.7611 35.3562 38.3371 34.9527C39.9163 34.5423 41.3746 34.1638 42.7102 33.812C44.0457 33.4602 45.1881 33.2119 46.1256 33.066C47.0681 32.9182 47.6119 33.0226 47.7551 33.3741C47.842 33.5846 47.674 33.8867 47.2422 34.2715C46.8053 34.6582 46.0517 35.0604 44.9699 35.494C43.3937 36.1219 41.8902 36.4706 40.4422 36.5405C39.0044 36.6067 37.924 36.3378 37.2078 35.7197L30.0626 38.567L32.2147 43.884L39.3566 41.0436L39.0067 40.1792C40.9082 39.9296 42.7011 39.5693 44.3801 39.1002L45.2757 41.3112L50.8619 39.0914L50.0459 37.0705C51.6807 36.3813 53.2133 35.6482 54.6457 34.8761C56.0763 34.0989 57.2959 33.311 58.2939 32.4989C59.2989 31.6901 60.0247 30.8892 60.4867 30.0908C60.9404 29.3011 61.0194 28.5419 60.7258 27.8185C60.3306 26.8438 59.5731 26.2232 58.452 25.9688C57.3276 25.7214 56.0482 25.6677 54.6071 25.8214C53.1712 25.9733 51.6458 26.2608 50.0221 26.6756C48.4071 27.0987 46.9215 27.4812 45.5637 27.8353C44.2078 28.1944 43.0417 28.4569 42.0824 28.6221C41.1147 28.7962 40.5626 28.7005 40.4245 28.3471C40.3102 28.0601 40.5117 27.7233 41.0361 27.3398C41.5604 26.9563 42.2717 26.5806 43.1685 26.2249C43.8835 25.9399 44.6256 25.7144 45.3896 25.55C46.1535 25.3857 46.8625 25.2928 47.5232 25.2575C48.1805 25.2292 48.7727 25.2761 49.2997 25.398C49.8268 25.5199 50.215 25.7203 50.4649 26.0163L57.6917 23.1397L55.5885 17.9433L48.3618 20.8199L48.7208 21.7098C48.191 21.773 47.5352 21.8698 46.7672 22.0068C45.9959 22.1508 45.1332 22.3447 44.1926 22.5781L43.2403 20.2089Z" fill="url(#paint6_linear_21_477)" />
	<path d="M49.5588 43.8856C33.371 50.3233 17.8772 49.6707 14.9488 42.4279C12.0187 35.18 22.7638 24.0864 38.9498 17.6436C55.1306 11.2027 70.6245 11.8553 73.5547 19.1031C76.4848 26.351 65.7415 37.4498 49.5588 43.8856ZM37.5285 14.142C17.0218 22.3052 3.4056 36.3551 7.12068 45.5372C10.8288 54.716 30.4646 55.5421 50.975 47.3891C71.4766 39.2277 85.091 25.1726 81.3777 15.9957C77.6677 6.81181 58.032 5.98568 37.5285 14.142Z" fill="url(#paint7_linear_21_477)" />
	<path d="M26.3056 52.9764C28.0787 51.4205 29.8543 49.8234 31.6073 48.2115C37.0134 47.8342 43.234 46.4056 49.5589 43.8867C65.7416 37.4509 76.4849 26.3521 73.5548 19.1042C71.7869 14.7314 65.4446 12.7683 57.1428 13.3025C57.6335 11.7169 58.0234 10.2192 58.33 8.82622C69.9479 7.62201 78.9824 10.0649 81.3778 15.9968C85.0911 25.1737 71.4786 39.2339 50.9751 47.3902C42.1977 50.8855 33.5874 52.727 26.3056 52.9764Z" fill="url(#paint8_linear_21_477)" style="mix-blend-mode:overlay" />
	<defs>
		<linearGradient id="paint0_linear_21_477" x1="53.5792" y1="60.2429" x2="44.2965" y2="24.4966" gradientUnits="userSpaceOnUse">
			<stop offset="0.1616" stop-color="#CC7800" />
			<stop offset="0.2072" stop-color="#D07E02" />
			<stop offset="0.2662" stop-color="#DA8E08" />
			<stop offset="0.3325" stop-color="#EAA912" />
			<stop offset="0.3682" stop-color="#F5BA18" />
			<stop offset="0.4286" stop-color="#F1AA1A" />
			<stop offset="0.4743" stop-color="#EE9B1B" />
			<stop offset="0.5407" stop-color="#6B2B00" />
			<stop offset="0.6147" stop-color="#6D3001" />
			<stop offset="0.7067" stop-color="#FEC423" />
			<stop offset="1" stop-color="#8F4E00" />
		</linearGradient>
		<linearGradient id="paint1_linear_21_477" x1="85.9732" y1="25.5327" x2="10.5191" y2="55.801" gradientUnits="userSpaceOnUse">
			<stop stop-color="#E0A300" />
			<stop offset="0.0833" stop-color="#FFC524" />
			<stop offset="0.1516" stop-color="#FFD759" />
			<stop offset="0.4069" stop-color="#FFF4A5" />
			<stop offset="0.4208" stop-color="#FEF09F" />
			<stop offset="0.4389" stop-color="#FCE68F" />
			<stop offset="0.4592" stop-color="#F9D574" />
			<stop offset="0.4813" stop-color="#F5BD4F" />
			<stop offset="0.5044" stop-color="#EF9E20" />
			<stop offset="0.518" stop-color="#EB8A00" />
			<stop offset="0.5625" stop-color="#AD4300" />
			<stop offset="0.6087" stop-color="#6E3500" />
			<stop offset="0.6515" stop-color="#E09D00" />
			<stop offset="0.6573" stop-color="#E7AA16" />
			<stop offset="0.6672" stop-color="#F2BE37" />
			<stop offset="0.6768" stop-color="#F9CC4E" />
			<stop offset="0.6857" stop-color="#FDD45C" />
			<stop offset="0.6934" stop-color="#FFD761" />
			<stop offset="0.7325" stop-color="#FFD75F" />
			<stop offset="0.7465" stop-color="#FFD558" />
			<stop offset="0.7566" stop-color="#FFD34D" />
			<stop offset="0.7646" stop-color="#FFCF3C" />
			<stop offset="0.7707" stop-color="#FFCB29" />
			<stop offset="0.7818" stop-color="#FBC525" />
			<stop offset="0.7968" stop-color="#F0B41A" />
			<stop offset="0.8139" stop-color="#DE9808" />
			<stop offset="0.8205" stop-color="#D68B00" />
			<stop offset="0.8228" stop-color="#DD9B16" />
			<stop offset="0.8268" stop-color="#E7B133" />
			<stop offset="0.8311" stop-color="#F0C34B" />
			<stop offset="0.8361" stop-color="#F6D15E" />
			<stop offset="0.8419" stop-color="#FBDB6B" />
			<stop offset="0.8493" stop-color="#FDE073" />
			<stop offset="0.8644" stop-color="#FEE275" />
			<stop offset="0.9367" stop-color="#FEE47E" />
			<stop offset="1" stop-color="#FED94B" />
		</linearGradient>
		<linearGradient id="paint2_linear_21_477" x1="49.4494" y1="50.129" x2="40.0085" y2="13.7734" gradientUnits="userSpaceOnUse">
			<stop offset="0.1616" stop-color="#FFF8C7" />
			<stop offset="0.1986" stop-color="#FFF6C1" />
			<stop offset="0.2466" stop-color="#FEF0B1" />
			<stop offset="0.3007" stop-color="#FEE696" />
			<stop offset="0.3593" stop-color="#FDD871" />
			<stop offset="0.4207" stop-color="#FCC641" />
			<stop offset="0.469" stop-color="#FBB617" />
			<stop offset="0.541" stop-color="#A26009" />
			<stop offset="0.5826" stop-color="#6C2D00" />
			<stop offset="0.6342" stop-color="#6D3001" />
			<stop offset="0.6719" stop-color="#BA7D11" />
			<stop offset="0.7035" stop-color="#FDC120" />
			<stop offset="0.8149" stop-color="#DB9204" />
			<stop offset="0.8202" stop-color="#E09D12" />
			<stop offset="0.8332" stop-color="#EBB52F" />
			<stop offset="0.8469" stop-color="#F3C746" />
			<stop offset="0.8618" stop-color="#F9D456" />
			<stop offset="0.8784" stop-color="#FDDC60" />
			<stop offset="0.9005" stop-color="#FEDE63" />
			<stop offset="1" stop-color="#FBC543" />
		</linearGradient>
		<linearGradient id="paint3_linear_21_477" x1="76.1812" y1="17.6329" x2="12.0965" y2="43.3412" gradientUnits="userSpaceOnUse">
			<stop offset="0.1616" stop-color="#BA6D00" />
			<stop offset="0.2364" stop-color="#B46800" />
			<stop offset="0.3334" stop-color="#A45B00" />
			<stop offset="0.4422" stop-color="#894400" />
			<stop offset="0.5407" stop-color="#6B2B00" />
			<stop offset="0.6147" stop-color="#6D3001" />
			<stop offset="0.7067" stop-color="#FEBB00" />
			<stop offset="1" stop-color="#6B3B00" />
		</linearGradient>
		<radialGradient id="paint4_radial_21_477" cx="0" cy="0" r="1" gradientUnits="userSpaceOnUse" gradientTransform="translate(44.573 31.5799) rotate(158.301) scale(31.5426 13.7373)">
			<stop stop-color="#FEDE6D" />
			<stop offset="1" stop-color="#EBA719" />
		</radialGradient>
		<linearGradient id="paint5_linear_21_477" x1="28.6133" y1="38.0015" x2="59.919" y2="25.4432" gradientUnits="userSpaceOnUse">
			<stop offset="0.1616" stop-color="#BA6D00" />
			<stop offset="0.2364" stop-color="#B46800" />
			<stop offset="0.3334" stop-color="#A45B00" />
			<stop offset="0.4422" stop-color="#894400" />
			<stop offset="0.5407" stop-color="#6B2B00" />
			<stop offset="0.6147" stop-color="#6D3001" />
			<stop offset="0.7067" stop-color="#CF7C00" />
			<stop offset="1" stop-color="#6B3B00" />
		</linearGradient>
		<linearGradient id="paint6_linear_21_477" x1="37.6236" y1="14.2548" x2="51.0255" y2="47.6637" gradientUnits="userSpaceOnUse">
			<stop stop-color="#FFE48C" />
			<stop offset="0.4069" stop-color="#FFF4A5" />
			<stop offset="0.4612" stop-color="#FFF29F" />
			<stop offset="0.5317" stop-color="#FFED8F" />
			<stop offset="0.6112" stop-color="#FFE474" />
			<stop offset="0.6965" stop-color="#FFD84F" />
			<stop offset="0.7707" stop-color="#FFCB29" />
			<stop offset="0.8644" stop-color="#FEE275" />
			<stop offset="0.9367" stop-color="#FEE47E" />
		</linearGradient>
		<linearGradient id="paint7_linear_21_477" x1="6.14476" y1="40.6569" x2="83.2426" y2="20.636" gradientUnits="userSpaceOnUse">
			<stop stop-color="#FFD651" />
			<stop offset="0.4069" stop-color="#FFEC60" />
			<stop offset="0.4829" stop-color="#FFE95A" />
			<stop offset="0.5815" stop-color="#FFE14A" />
			<stop offset="0.692" stop-color="#FFD32F" />
			<stop offset="0.7707" stop-color="#FFC718" />
			<stop offset="0.8644" stop-color="#FED844" />
			<stop offset="0.9367" stop-color="#FED949" />
		</linearGradient>
		<linearGradient id="paint8_linear_21_477" x1="73.9265" y1="39.1101" x2="50.0315" y2="31.4306" gradientUnits="userSpaceOnUse">
			<stop stop-color="#919191" />
			<stop offset="0.9972" />
		</linearGradient>
	</defs>
</svg>
