<svg width="42" height="42" viewBox="0 0 42 42" xmlns="http://www.w3.org/2000/svg">
	<g stroke="none" stroke-width="1" fill="none" fill-rule="evenodd">
		<g transform="translate(-108.000000, -952.000000)" fill="currentColor" fill-rule="nonzero">
			<g transform="translate(0.000000, 928.000000)">
				<g>
					<g>
						<g transform="translate(108.000000, 24.000000)">
							<path d="M38.3085937,17.3085938 C36.7044727,17.3085938 35.3367656,18.3373477 34.8288281,19.7695312 L32.0054766,19.7695312 C31.7685703,17.6368008 30.9238125,15.6850312 29.6484727,14.0916562 L31.5904805,12.1496484 C32.9689336,12.8063906 34.6611562,12.5592305 35.7912187,11.429168 C37.2339023,9.98656641 37.2339844,7.65146484 35.7912187,6.20869922 C34.3520625,4.76946094 32.0100703,4.76937891 30.570832,6.20869922 C29.4197695,7.35976172 29.2009922,9.05764453 29.848875,10.4109961 L27.9084258,12.3515273 C26.3149687,11.0761875 24.3632812,10.2313477 22.2304687,9.99452344 L22.2304687,7.17117187 C23.6626523,6.66323438 24.6914062,5.29552734 24.6914062,3.69140625 C24.6914062,1.65596484 23.0354414,0 21,0 C18.9645586,0 17.3085938,1.65596484 17.3085938,3.69140625 C17.3085938,5.29552734 18.3373477,6.66323438 19.7695312,7.17117187 L19.7695312,9.99452344 C17.6367188,10.2314297 15.6850312,11.0761875 14.0916562,12.3515273 L12.151207,10.4109961 C12.8040117,9.04730859 12.5719453,7.35139453 11.42925,6.20869922 C9.99009375,4.76946094 7.64810156,4.76937891 6.20886328,6.20869922 C4.76617969,7.65130078 4.76609766,9.98640234 6.20886328,11.429168 C7.34425781,12.5646445 9.03730078,12.8031094 10.4095195,12.1495664 L12.3516094,14.0916563 C11.0763516,15.6850312 10.2315117,17.6367188 9.99460547,19.7695312 L7.17117187,19.7695312 C6.66323438,18.3373477 5.29552734,17.3085938 3.69140625,17.3085938 C1.65596484,17.3085938 0,18.9645586 0,21 C0,23.0354414 1.65596484,24.6914062 3.69140625,24.6914062 C5.29552734,24.6914062 6.66323438,23.6626523 7.17117187,22.2304688 L9.99452344,22.2304688 C10.2314297,24.3631992 11.0761875,26.3149688 12.3515273,27.9083438 L10.4094375,29.8504336 C9.03754687,29.1968906 7.34294531,29.4365859 6.20878125,30.570832 C4.76609766,32.0134336 4.76601562,34.3485352 6.20878125,35.7913008 C7.64916797,37.2317695 9.99116016,37.2293906 11.429168,35.7913008 C12.5800664,34.6404023 12.7990898,32.9425195 12.151125,31.5890039 L14.0915742,29.6484727 C15.6850312,30.9238125 17.6367188,31.7686523 19.7695312,32.0054766 L19.7695312,34.8288281 C18.3373477,35.3367656 17.3085938,36.7044727 17.3085938,38.3085938 C17.3085938,40.3440352 18.9645586,42 21,42 C23.0354414,42 24.6914062,40.3440352 24.6914062,38.3085938 C24.6914062,36.7044727 23.6626523,35.3367656 22.2304687,34.8288281 L22.2304687,32.0054766 C24.3632812,31.7686523 26.3149687,30.9238125 27.9083437,29.6484727 L29.848793,31.5890039 C29.1959883,32.9527734 29.4281367,34.6486055 30.57075,35.7913008 C32.0111367,37.2317695 34.3531289,37.2293906 35.7911367,35.7913008 C37.2338203,34.3486992 37.2339023,32.0135977 35.7911367,30.570832 C34.6569727,29.4365859 32.9623711,29.1968906 31.5904805,29.8504336 L29.6483906,27.9083438 C30.9238125,26.3149687 31.7686523,24.3632812 32.0053945,22.2304688 L34.8287461,22.2304688 C35.3366836,23.6626523 36.7043906,24.6914062 38.3085117,24.6914062 C40.3439531,24.6914062 41.999918,23.0354414 41.999918,21 C41.999918,18.9645586 40.3440352,17.3085938 38.3085937,17.3085938 Z M32.3109609,7.94891016 C32.7906797,7.46919141 33.5713711,7.46910937 34.0510898,7.94891016 C34.531957,8.42977734 34.5320391,9.20808984 34.0510898,9.68903906 C33.5712891,10.1688398 32.7906797,10.1687578 32.3109609,9.68903906 C31.8300117,9.20808984 31.8300117,8.42985937 32.3109609,7.94891016 Z M9.68912109,9.68903906 C9.20940234,10.1688398 8.42879297,10.1687578 7.94899219,9.68903906 C7.468125,9.20817187 7.46804297,8.42985937 7.94899219,7.94891016 C8.42871094,7.46919141 9.20940234,7.46910937 9.68912109,7.94891016 C10.1699883,8.42985937 10.1699883,9.20808984 9.68912109,9.68903906 Z M3.69140625,22.2304688 C3.01292578,22.2304688 2.4609375,21.6784805 2.4609375,21 C2.4609375,20.3215195 3.01292578,19.7695312 3.69140625,19.7695312 C4.36988672,19.7695312 4.921875,20.3215195 4.921875,21 C4.921875,21.6784805 4.36988672,22.2304688 3.69140625,22.2304688 Z M9.68912109,34.0510898 C9.20932031,34.5308906 8.42871094,34.5308086 7.94899219,34.0510898 C7.468125,33.5702227 7.46804297,32.7919102 7.94899219,32.3109609 C8.42871094,31.8312422 9.20940234,31.8311602 9.68912109,32.3109609 C10.1699883,32.7919102 10.1699883,33.5701406 9.68912109,34.0510898 Z M32.3109609,32.3109609 C32.7906797,31.8312422 33.5712891,31.8311602 34.0510898,32.3109609 C34.531957,32.7918281 34.5320391,33.5701406 34.0510898,34.0510898 C33.5712891,34.5308906 32.7906797,34.5308086 32.3109609,34.0510898 C31.8300117,33.5701406 31.8300117,32.7919102 32.3109609,32.3109609 Z M21,2.4609375 C21.6784805,2.4609375 22.2304688,3.01292578 22.2304688,3.69140625 C22.2304688,4.36988672 21.6784805,4.921875 21,4.921875 C20.3215195,4.921875 19.7695312,4.36988672 19.7695312,3.69140625 C19.7695312,3.01292578 20.3215195,2.4609375 21,2.4609375 Z M21,39.5390625 C20.3215195,39.5390625 19.7695312,38.9870742 19.7695312,38.3085938 C19.7695312,37.6301133 20.3215195,37.078125 21,37.078125 C21.6784805,37.078125 22.2304688,37.6301133 22.2304688,38.3085938 C22.2304688,38.9870742 21.6784805,39.5390625 21,39.5390625 Z M21,29.6132812 C18.9903164,29.6132812 17.1393633,28.9213477 15.6723984,27.7633125 C16.7612812,25.8734766 18.7708828,24.6914062 21,24.6914062 C23.2291172,24.6914062 25.2388008,25.8734766 26.3276016,27.7633125 C24.8606367,28.9213477 23.0097656,29.6132812 21,29.6132812 Z M18.5390625,19.7695312 C18.5390625,18.4125703 19.6430391,17.3085938 21,17.3085938 C22.3569609,17.3085938 23.4609375,18.4125703 23.4609375,19.7695312 C23.4609375,21.1264922 22.3569609,22.2304688 21,22.2304688 C19.6430391,22.2304688 18.5390625,21.1264922 18.5390625,19.7695312 Z M28.0689609,25.9153125 C27.2010703,24.6654844 26.0261367,23.6808633 24.66975,23.044875 C25.4478164,22.1741133 25.921875,21.026332 25.921875,19.7695312 C25.921875,17.0556094 23.7139219,14.8476562 21,14.8476562 C18.2860781,14.8476562 16.078125,17.0556094 16.078125,19.7695312 C16.078125,21.026332 16.5522656,22.1741133 17.330332,23.044875 C15.9739453,23.6808633 14.7990117,24.6654844 13.9312031,25.9153125 C12.9582305,24.5204531 12.3867188,22.8258516 12.3867188,21 C12.3867188,16.2506367 16.2506367,12.3867188 21,12.3867188 C25.7493633,12.3867188 29.6132812,16.2506367 29.6132812,21 C29.6132812,22.8258516 29.0418516,24.5204531 28.0689609,25.9153125 Z M38.3085938,22.2304688 C37.6301133,22.2304688 37.078125,21.6784805 37.078125,21 C37.078125,20.3215195 37.6301133,19.7695312 38.3085938,19.7695312 C38.9870742,19.7695312 39.5390625,20.3215195 39.5390625,21 C39.5390625,21.6784805 38.9870742,22.2304688 38.3085938,22.2304688 Z">
							</path>
						</g>
					</g>
				</g>
			</g>
		</g>
	</g>
</svg>
