<svg width="11" height="21" viewBox="0 0 11 21" fill="none" xmlns="http://www.w3.org/2000/svg">
<path opacity="0.5" d="M10.7173 1.68725C10.8075 1.59178 10.8781 1.47947 10.9249 1.35674C10.9717 1.23401 10.9939 1.10327 10.9902 0.971965C10.9865 0.840663 10.9569 0.711378 10.9032 0.591492C10.8496 0.471606 10.7728 0.363467 10.6773 0.273249C10.5819 0.183031 10.4695 0.112501 10.3468 0.0656852C10.2241 0.0188697 10.0933 -0.00331434 9.96204 0.000400002C9.83074 0.00411435 9.70145 0.0336542 9.58157 0.0873329C9.46168 0.141012 9.35354 0.217778 9.26332 0.313249L0.763324 9.31325C0.587788 9.49892 0.48998 9.74474 0.48998 10.0002C0.48998 10.2558 0.587788 10.5016 0.763324 10.6872L9.26332 19.6882C9.35295 19.7858 9.46106 19.8646 9.58139 19.92C9.70171 19.9754 9.83185 20.0064 9.96425 20.0111C10.0966 20.0158 10.2287 19.9942 10.3526 19.9474C10.4766 19.9007 10.59 19.8298 10.6863 19.7388C10.7826 19.6479 10.8599 19.5387 10.9137 19.4176C10.9675 19.2965 10.9966 19.166 10.9995 19.0335C11.0024 18.9011 10.9789 18.7694 10.9305 18.6461C10.8821 18.5228 10.8096 18.4103 10.7173 18.3153L2.86532 10.0002L10.7173 1.68725Z" fill="white"/>
</svg>
