<svg width="1051" height="341" viewBox="0 0 1051 341" fill="none" xmlns="http://www.w3.org/2000/svg">
	<g clip-path="url(#clip0_21_2)">
		<rect width="1051" height="341" rx="20" fill="url(#paint0_linear_21_2)" />
		<g filter="url(#filter0_dd_21_2)">
			<path d="M66.4943 147.933C57.3909 147.933 49.7778 146.04 43.6552 142.254C37.5325 138.468 33.3836 133.271 31.2084 126.665L51.8724 114.702C54.6921 121.872 59.7674 125.457 67.0985 125.457C72.5767 125.457 75.3158 124.007 75.3158 121.107C75.3158 119.334 74.3491 118.045 72.4156 117.24C71.4488 116.837 70.4418 116.474 69.3945 116.152C69.1528 116.071 67.7027 115.628 65.0442 114.823L60.3314 113.493C43.494 108.418 35.0754 99.3549 35.0754 86.304C35.0754 78.5701 37.8547 72.1655 43.4135 67.0901C49.1333 62.0147 56.5047 59.477 65.5276 59.477C72.7781 59.477 79.223 61.2091 84.8623 64.6733C90.5016 68.0568 94.6505 72.8905 97.3091 79.1743L77.2493 90.896C74.913 84.9345 71.046 81.9537 65.6484 81.9537C63.6344 81.9537 62.0634 82.3968 60.9356 83.2829C59.8077 84.0886 59.2438 85.1359 59.2438 86.4248C59.2438 88.1972 60.1702 89.5667 62.0232 90.5335C63.7955 91.4196 67.4611 92.6683 73.0198 94.2796C80.512 96.5353 86.5138 99.2341 91.0253 102.376C96.6646 106.243 99.4842 112.406 99.4842 120.865C99.4842 129.404 96.5437 136.051 90.6627 140.804C84.7818 145.557 76.7256 147.933 66.4943 147.933ZM133.934 61.4105V122.557H161.727V146H109.765V61.4105H133.934ZM242.566 135.245C233.946 143.704 223.352 147.933 210.785 147.933C198.217 147.933 187.583 143.704 178.882 135.245C170.262 126.625 165.952 116.112 165.952 103.705C165.952 91.2182 170.262 80.7453 178.882 72.2863C187.502 63.7468 198.136 59.477 210.785 59.477C223.433 59.477 234.026 63.7468 242.566 72.2863C251.267 80.7453 255.617 91.2182 255.617 103.705C255.617 116.112 251.267 126.625 242.566 135.245ZM195.921 118.448C199.868 122.315 204.823 124.248 210.785 124.248C216.746 124.248 221.66 122.315 225.527 118.448C229.475 114.5 231.449 109.586 231.449 103.705C231.449 97.8243 229.475 92.9503 225.527 89.0834C221.66 85.1359 216.746 83.1621 210.785 83.1621C204.823 83.1621 199.868 85.1359 195.921 89.0834C192.054 92.9503 190.121 97.8243 190.121 103.705C190.121 109.506 192.054 114.42 195.921 118.448ZM259.812 61.4105H323.859V84.8539H303.92V146H279.751V84.8539H259.812V61.4105ZM362.803 147.933C353.7 147.933 346.086 146.04 339.964 142.254C333.841 138.468 329.692 133.271 327.517 126.665L348.181 114.702C351.001 121.872 356.076 125.457 363.407 125.457C368.885 125.457 371.624 124.007 371.624 121.107C371.624 119.334 370.658 118.045 368.724 117.24C367.757 116.837 366.75 116.474 365.703 116.152C365.461 116.071 364.011 115.628 361.353 114.823L356.64 113.493C339.803 108.418 331.384 99.3549 331.384 86.304C331.384 78.5701 334.163 72.1655 339.722 67.0901C345.442 62.0147 352.813 59.477 361.836 59.477C369.087 59.477 375.532 61.2091 381.171 64.6733C386.81 68.0568 390.959 72.8905 393.618 79.1743L373.558 90.896C371.222 84.9345 367.355 81.9537 361.957 81.9537C359.943 81.9537 358.372 82.3968 357.244 83.2829C356.116 84.0886 355.552 85.1359 355.552 86.4248C355.552 88.1972 356.479 89.5667 358.332 90.5335C360.104 91.4196 363.77 92.6683 369.328 94.2796C376.821 96.5353 382.822 99.2341 387.334 102.376C392.973 106.243 395.793 112.406 395.793 120.865C395.793 129.404 392.852 136.051 386.971 140.804C381.09 145.557 373.034 147.933 362.803 147.933Z" fill="white" />
		</g>
	</g>
	<defs>
		<filter id="filter0_dd_21_2" x="-252.77" y="-195.525" width="932.542" height="656.414" filterUnits="userSpaceOnUse" color-interpolation-filters="sRGB">
			<feFlood flood-opacity="0" result="BackgroundImageFix" />
			<feColorMatrix in="SourceAlpha" type="matrix" values="0 0 0 0 0 0 0 0 0 0 0 0 0 0 0 0 0 0 127 0" result="hardAlpha" />
			<feOffset />
			<feGaussianBlur stdDeviation="21.2984" />
			<feColorMatrix type="matrix" values="0 0 0 0 0.329167 0 0 0 0 0.329167 0 0 0 0 0.329167 0 0 0 1 0" />
			<feBlend mode="multiply" in2="BackgroundImageFix" result="effect1_dropShadow_21_2" />
			<feColorMatrix in="SourceAlpha" type="matrix" values="0 0 0 0 0 0 0 0 0 0 0 0 0 0 0 0 0 0 127 0" result="hardAlpha" />
			<feOffset dy="28.9773" />
			<feGaussianBlur stdDeviation="141.989" />
			<feColorMatrix type="matrix" values="0 0 0 0 1 0 0 0 0 1 0 0 0 0 1 0 0 0 0.1 0" />
			<feBlend mode="normal" in2="effect1_dropShadow_21_2" result="effect2_dropShadow_21_2" />
			<feBlend mode="normal" in="SourceGraphic" in2="effect2_dropShadow_21_2" result="shape" />
		</filter>
		<linearGradient id="paint0_linear_21_2" x1="270.315" y1="212.743" x2="1129.64" y2="-206.743" gradientUnits="userSpaceOnUse">
			<stop stop-color="#022278" />
			<stop offset="0.0625" stop-color="#022985" />
			<stop offset="0.125" stop-color="#032F92" />
			<stop offset="0.1875" stop-color="#03359D" />
			<stop offset="0.25" stop-color="#033AA8" />
			<stop offset="0.3125" stop-color="#043FB2" />
			<stop offset="0.375" stop-color="#0444BB" />
			<stop offset="0.4375" stop-color="#0448C3" />
			<stop offset="0.5" stop-color="#044BCB" />
			<stop offset="0.5625" stop-color="#044ED1" />
			<stop offset="0.625" stop-color="#0551D7" />
			<stop offset="0.6875" stop-color="#0554DB" />
			<stop offset="0.75" stop-color="#0556DF" />
			<stop offset="0.8125" stop-color="#0557E2" />
			<stop offset="0.875" stop-color="#0558E4" />
			<stop offset="0.9375" stop-color="#0559E6" />
			<stop offset="1" stop-color="#0559E6" />
		</linearGradient>
		<clipPath id="clip0_21_2">
			<rect width="1051" height="341" rx="20" fill="white" />
		</clipPath>
	</defs>
</svg>
