<svg width="1084" height="637" viewBox="0 0 1084 637" fill="none" xmlns="http://www.w3.org/2000/svg">
	<g clip-path="url(#clip0_224_6364)">
		<path d="M0 10C0 4.47717 4.47715 0 10 0H1074C1079.52 0 1084 4.47715 1084 10V627C1084 632.523 1079.52 637 1074 637H9.99998C4.47713 637 0 632.523 0 627V10Z" fill="#13095F" />
		<path opacity="0.35" d="M0 10C0 4.47717 4.47715 0 10 0H1074C1079.52 0 1084 4.47715 1084 10V627C1084 632.523 1079.52 637 1074 637H9.99998C4.47713 637 0 632.523 0 627V10Z" fill="url(#paint0_radial_224_6364)" />
		<g opacity="0.5">
			<path d="M1084 -6.10352e-05V193.301C1071.5 168.5 1036.54 147.054 989.5 128.5C956.685 115.555 954 112 909 101C864 89.9999 928.5 80.4999 1001 89.4999C1073.5 98.4999 793.985 13.2975 651 5.49994C506.605 -2.39575 304.5 24.9999 337 52.4999C477.5 43.9999 500 74.9999 451.5 74.9999C424 74.9999 314.5 87.4176 204.748 122.717C101.1 156.053 36.4104 213.721 0 257V-6.10352e-05H1084Z" fill="#16167C" />
			<path d="M98.5 169.248C100.433 169.248 102 170.815 102 172.749C102 174.682 100.433 176.249 98.5 176.249C96.567 176.249 95 174.682 95 172.749C95 170.815 96.567 169.248 98.5 169.248Z" fill="#9981FC" />
			<path d="M412.949 45.9717C414.329 45.9717 415.448 47.091 415.448 48.4717C415.448 49.8524 414.329 50.9717 412.949 50.9717C411.568 50.9717 410.449 49.8524 410.449 48.4717C410.449 47.091 411.568 45.9717 412.949 45.9717Z" fill="#EAE3FF" />
			<path d="M614.18 68.4034C615.837 68.4034 617.18 69.7466 617.18 71.4034C617.18 73.0603 615.837 74.4034 614.18 74.4034C612.524 74.4034 611.181 73.0603 611.181 71.4034C611.181 69.7466 612.524 68.4034 614.18 68.4034Z" fill="#EAE3FF" />
			<path d="M153.254 295C155.051 295 156.508 296.457 156.508 298.255C156.508 300.053 155.051 301.51 153.254 301.51C151.457 301.51 150 300.053 150 298.255C150 296.457 151.457 295 153.254 295Z" fill="#EAE3FF" />
			<path d="M257.999 46C261.312 46 263.998 48.6863 263.998 52C263.998 55.3137 261.312 58 257.999 58C254.686 58 252 55.3137 252 52C252 48.6863 254.686 46 257.999 46Z" fill="#BEAEFF" />
			<path d="M918.197 99.406C921.511 99.406 924.197 102.093 924.197 105.407C924.197 108.721 921.511 111.408 918.197 111.408C914.884 111.408 912.197 108.721 912.197 105.407C912.197 102.093 914.884 99.406 918.197 99.406Z" fill="#BEAEFF" />
			<path d="M976.746 181C978.262 181 979.492 182.229 979.492 183.746C979.492 185.263 978.262 186.492 976.746 186.492C975.229 186.492 974 185.263 974 183.746C974 182.229 975.229 181 976.746 181Z" fill="#EAE3FF" />
			<path d="M898.102 230.758C900.09 230.758 901.702 232.37 901.702 234.358C901.702 236.347 900.09 237.959 898.102 237.959C896.114 237.959 894.502 236.347 894.502 234.358C894.502 232.37 896.114 230.758 898.102 230.758Z" fill="#BEAEFF" />
			<path d="M481.664 2.99991C482.607 2.99991 483.372 3.76499 483.372 4.70872C483.372 5.65245 482.607 6.41748 481.664 6.41748C480.72 6.41748 479.955 5.65245 479.955 4.70872C479.955 3.76499 480.72 2.99991 481.664 2.99991Z" fill="#EAE3FF" />
			<path d="M344.783 12.1952C345.726 12.1952 346.491 12.9603 346.491 13.904C346.491 14.8478 345.726 15.6128 344.783 15.6128C343.839 15.6128 343.074 14.8478 343.074 13.904C343.074 12.9603 343.839 12.1952 344.783 12.1952Z" fill="#EAE3FF" />
			<path d="M206.254 203C208.051 203 209.508 204.457 209.508 206.255C209.508 208.053 208.051 209.51 206.254 209.51C204.457 209.51 203 208.053 203 206.255C203 204.457 204.457 203 206.254 203Z" fill="#8C71FF" />
			<path d="M147.495 396.408C152.865 396.408 157.217 400.761 157.217 406.132C157.217 411.502 152.865 415.855 147.495 415.855C142.126 415.855 137.773 411.502 137.773 406.132C137.773 400.761 142.126 396.408 147.495 396.408Z" fill="#EAE3FF" />
			<path d="M118.328 388.962C119.935 388.962 121.237 390.265 121.237 391.871C121.237 393.478 119.935 394.78 118.328 394.78C116.722 394.78 115.42 393.478 115.42 391.871C115.42 390.265 116.722 388.962 118.328 388.962Z" fill="#BEAEFF" />
			<path d="M1030 217C1032.21 217 1034 218.791 1034 221C1034 223.209 1032.21 225 1030 225C1027.79 225 1026 223.209 1026 221C1026 218.791 1027.79 217 1030 217Z" fill="#8C71FF" />
		</g>
		<path opacity="0.5" d="M8.81954 454.266C20.1389 449.236 24.8779 457.507 24.8779 457.507C24.8779 457.507 32.0671 455.456 35.2899 452.424C38.5128 449.392 54.8707 427.576 56.3015 424.951C57.7323 422.326 75.2679 410.521 78.6787 408.611C82.0794 406.691 91.7976 396.269 90.7652 394.249C89.7329 392.229 73.1744 401.382 67.2887 404.352C61.4079 407.327 26.7421 419.82 19.9094 420.86C13.0818 421.906 -12.3581 420.23 -19.3898 421.981C-23.6574 423.046 -38.545 430.698 -49.5707 436.539L-61.0002 424.391C-49.5336 418.779 -32.9175 410.74 -29.3847 409.481C-23.8764 407.521 -9.36069 401.286 0.228125 393.483C9.80648 385.68 36.3182 377.425 43.3642 378.923C50.4207 380.421 69.8929 376.221 76.3838 374.817C82.8797 373.419 112.842 361.917 115.688 363.097C118.528 364.271 115.949 367.987 117.014 369.12C118.08 370.252 145.401 358.244 153.1 354.424C160.795 350.609 169.742 343.047 171.345 341.539C172.954 340.025 166.907 341.434 167.873 339.237C168.848 337.04 181.723 319.358 184.546 314.989C187.375 310.616 190.606 304.575 190.606 304.575C190.606 304.575 185.439 309.014 185.932 307.693C186.42 306.378 193.015 297.183 199.378 292.908C204.862 289.219 211.182 285.387 212.824 284.397C210.708 285.763 200.858 292.311 196.45 299.51C191.48 307.599 182.654 325.753 183.543 324.917C184.431 324.081 187.783 328.209 178.156 339.834C168.524 351.455 130.83 379.647 125.521 385.075C120.218 390.497 107.022 404.614 100.881 408.69C94.7344 412.761 83.296 421.811 78.5374 430.135C73.7842 438.454 69.2085 447.895 62.5239 454.617C55.8289 461.339 28.6084 482.679 12.1381 489.615C8.63381 491.089 5.87806 492.251 3.70641 493.167L-14.7898 473.507L-7.7551 469.86C-7.7497 469.855 -2.49485 459.301 8.81954 454.266Z" fill="#657AE0" />
		<g style="mix-blend-mode:color" opacity="0.5">
			<path d="M29.4666 305.765C37.7478 305.298 51.114 305.308 87.4963 290.108C123.873 274.92 130.445 260.206 130.445 260.206C130.445 260.206 172.302 241.553 173.969 238.819C175.637 236.086 158.813 244.287 147.416 247.036C136.019 249.785 118.603 251.937 118.603 251.937C118.603 251.937 118.603 251.937 118.516 248.211C118.429 244.485 101.806 249.676 74.016 254.209C46.2194 258.726 36.6537 244.633 36.6537 244.633C36.6537 244.633 43.703 235.835 5.94445 240.457C-19.04 243.509 -37.4128 249.703 -46.9969 253.54L-40.1992 271.058C-35.3299 271.531 -27.102 271.616 -17.8694 268.693C-3.08579 264.029 -4.93125 259.273 -4.93125 259.273L4.2952 257.189C4.2952 257.189 -6.70709 262.885 4.85358 265.742C16.4236 268.594 38.5118 276.332 56.7463 271.766C74.9714 267.204 82.8592 267.598 79.9246 270.567C76.99 273.536 32.7073 288.2 25.5444 289.729C19.3492 291.05 -7.30994 296.651 -25.4992 308.915L-21.3469 319.616C-19.6765 318.82 -17.8301 317.927 -15.7326 316.936C3.80371 307.564 21.1915 306.22 29.4666 305.765Z" fill="white" />
		</g>
		<g style="mix-blend-mode:color" opacity="0.5">
			<path d="M137.219 562.061C139.553 555.15 142.691 543.839 163.802 516.153C184.902 488.469 198.596 485.905 198.596 485.905C198.596 485.905 223.847 454.289 226.496 453.435C229.145 452.581 218.415 465.145 213.463 474.228C208.511 483.31 202.635 497.608 202.635 497.608C202.635 497.608 202.635 497.608 205.691 498.44C208.746 499.272 200.549 512.279 190.266 534.868C179.995 557.466 189.378 568.428 189.378 568.428C189.378 568.428 198.3 564.256 185.597 595.26C177.198 615.777 167.76 630.061 162.337 637.388L149.474 628.069C150.23 623.853 152.097 616.875 156.683 609.659C164.012 598.101 167.504 600.631 167.504 600.631L171.396 593.249C171.396 593.249 164.104 601.397 164.467 591.035C164.835 580.665 163.646 560.402 171.707 545.904C179.763 531.413 181.294 524.66 178.152 526.538C175.01 528.416 152.483 562.896 149.534 568.645C146.985 573.617 136.087 595.032 121.681 607.924L113.824 602.232C114.874 600.981 116.047 599.6 117.359 598.027C129.693 583.407 134.895 568.97 137.219 562.061Z" fill="white" />
		</g>
		<g style="mix-blend-mode:color" opacity="0.5">
			<path d="M1097.02 461.487C1094.24 456.291 1090.27 447.665 1069.52 428.982C1048.78 410.299 1037.22 410.696 1037.22 410.696C1037.22 410.696 1012.59 389.569 1010.31 389.355C1008.03 389.141 1018.39 397.411 1023.57 403.897C1028.76 410.384 1035.35 420.942 1035.35 420.942C1035.35 420.942 1035.35 420.942 1032.95 422.173C1030.55 423.403 1038.88 432.492 1050.12 448.993C1061.34 465.503 1055 476.116 1055 476.116C1055 476.116 1047.16 474.34 1061.42 497.245C1070.86 512.402 1080.37 522.304 1085.73 527.278L1095.13 517.371C1093.99 514.081 1091.59 508.746 1086.93 503.71C1079.49 495.642 1076.94 498.332 1076.94 498.332L1072.83 493.036C1072.83 493.036 1079.82 498.339 1078.24 489.98C1076.66 481.616 1075.12 464.927 1066.71 454.602C1058.31 444.281 1056.22 439.068 1059.03 440.025C1061.84 440.983 1084.59 464.932 1087.72 469.071C1090.43 472.652 1102.03 488.087 1115.44 495.957L1121.19 489.905C1120.17 489.079 1119.04 488.169 1117.77 487.128C1105.83 477.477 1099.78 466.682 1097.02 461.487Z" fill="white" />
		</g>
		<g style="mix-blend-mode:color" opacity="0.5">
			<path d="M1054.55 334.06C1047.94 331.02 1036.98 326.765 1013.1 302.186C960.825 253.661 993.148 269.358 993.148 269.358C993.148 269.358 974.646 235.034 982.572 231.875C989.409 261.949 992.53 241.025 994.797 254.2C998.099 264.649 1002.57 259.684 1002.57 259.684C1002.57 259.684 1003.27 246.046 1013.8 248.14C1064.81 271.974 1017.23 263.111 1038.24 275.845C1059.26 288.566 1072.63 279.589 1072.63 279.589C1072.63 279.589 1070.3 269.831 1099.46 285.82C1118.75 296.394 1113.32 293.922 1119.67 300.255L1115.35 321.592C1111.17 320.442 1108.1 326.96 1104.08 323.562C1093.78 314.866 1084.01 316.483 1084.01 316.483L1093.96 312.577C1093.96 312.577 1086 310.066 1075.4 308.816C1064.79 307.561 1100.42 297.297 1062.4 299.366C1049.24 289.659 1002.21 274.208 1028.83 305.374C1067.18 329.106 1004.53 269.016 1064.06 321.624C1068.62 324.727 1100.09 330.745 1110.2 347.015L1104.12 376.979C1103.07 375.767 1088.57 359.527 1087.24 358.012C1074.89 343.781 1061.16 337.088 1054.55 334.06Z" fill="white" />
		</g>
		<path d="M164.977 620.156C164.631 618.412 147.285 601.019 144.393 598.765L144.073 598.54C142.605 597.806 125.734 597.072 124.257 596.338C122.789 595.604 107.014 586.079 105.175 586.079C103.371 586.079 97.6461 592.469 95.3753 593.367C95.3148 593.393 95.2803 593.402 95.2803 593.402C93.0613 594.136 89.0204 581.312 89.0204 579.844C89.0204 578.375 83.5117 568.85 83.5117 567.745C83.5117 566.648 94.5205 537.7 94.5205 537.7L92.3187 536.966L129.377 455.987C129.377 455.987 129.533 455.875 129.783 455.676C130.871 454.821 133.781 452.42 133.781 451.22C133.781 449.752 121.676 439.855 121.676 439.855L121.304 436.927C121.304 436.927 117.376 434.527 113.507 432.169C110.278 430.2 107.101 428.266 106.272 427.765C105.944 427.566 104.044 428.689 101.143 430.666C88.1052 439.631 54.9147 466.022 54.9147 466.626C54.9147 467.361 53.8095 472.853 53.8095 472.853L45.3737 477.62C45.3737 477.62 42.0754 476.523 40.2363 476.523C38.8289 476.523 12.2005 495.842 0.00878906 504.737V637.212H196C187.884 636.046 181.296 634.967 180.389 634.449C177.825 632.989 165.348 621.987 164.977 620.156Z" fill="#1C195D" />
		<path d="M67.3823 568.332L57.1074 585.578C57.1074 585.578 67.0197 592.185 68.8501 592.185C70.6806 592.185 74.3502 591.813 74.3502 591.813L75.2655 601.719C75.2655 601.719 75.4468 590.345 76.552 589.974C77.6486 589.611 86.093 589.974 86.093 589.974L80.2216 570.888L67.3823 568.332Z" fill="#363072" />
		<path d="M27.7591 623.006C28.3981 622.212 32.9915 618.403 38.0513 614.258C38.9233 613.541 39.8127 612.816 40.6934 612.09C46.5216 607.297 52.1512 602.634 52.3411 602.098C52.7038 600.993 55.6395 587.417 57.1073 585.587C58.5751 583.756 70.6891 579.343 71.7857 578.98C72.8909 578.609 86.8268 588.885 86.1015 589.982C85.3676 591.079 85.3676 593.652 85.3676 593.652C85.3676 593.652 98.2068 598.791 97.1103 598.057C96.739 597.806 96.0569 595.984 95.2971 593.644C93.078 594.378 89.0371 581.536 89.0371 580.068C89.0371 578.6 83.5284 569.066 83.5284 567.952C83.5284 566.933 92.914 542.139 94.3559 538.348C94.425 538.158 94.4682 538.028 94.5027 537.942C94.5286 537.882 94.5372 537.856 94.5372 537.856L92.3355 537.122C92.3355 537.122 92.3441 537.096 92.3614 537.053L129.394 456.022L112.885 450.607L119.491 456.022L109.924 453.051L83.2694 483.182L86.8354 477.309L68.1334 495.652L73.6248 492.724C73.0118 493.441 33.2937 540.067 34.0104 541.155C34.7443 542.251 43.5513 547.027 42.0835 548.124C40.6157 549.229 19.3406 583.358 17.5015 585.923C16.1114 587.875 19.5651 608.955 21.3179 619.085C21.81 621.918 22.164 623.896 22.2504 624.353C22.1295 623.904 21.6373 622.022 20.9293 619.396C18.5635 610.579 13.7283 593.359 12.3727 593.635C11.2416 593.86 4.80035 601.77 0.0341797 607.798V637.195H30.807C28.2599 634.561 25.73 631.953 25.2206 631.435C24.0895 630.347 26.2913 624.837 27.7591 623.006Z" fill="#100A47" />
		<path d="M100.408 510.35C99.6745 508.511 94.5371 510.713 94.5371 510.713L82.0604 537.51C82.0604 537.51 73.2534 540.075 72.1568 540.438C71.0516 540.809 77.6569 529.798 76.5603 529.798C75.4638 529.798 69.9551 530.532 68.8585 531.266C67.7533 532 31.4285 578.971 29.9693 580.811C28.5015 582.642 27.7676 586.321 27.7676 586.321C27.7676 586.321 32.905 586.683 32.905 588.151C32.905 589.619 28.5015 593.661 28.1302 595.121C27.7676 596.589 27.7676 623.015 27.7676 623.015C28.4065 622.22 33 618.412 38.0597 614.266C38.9318 613.55 39.8211 612.824 40.7018 612.099C46.53 607.306 52.1596 602.642 52.3496 602.107C52.7122 601.002 55.6479 587.426 57.1158 585.595C58.5836 583.764 70.6976 579.351 71.7942 578.989C72.8994 578.617 86.8352 588.894 86.1099 589.991C85.376 591.088 85.376 593.661 85.376 593.661C85.376 593.661 98.2153 598.799 97.1187 598.065C96.7475 597.815 96.0654 595.993 95.3055 593.652C93.0865 594.386 89.0456 581.545 89.0456 580.077C89.0456 578.609 83.5369 569.075 83.5369 567.961C83.5369 566.941 92.9225 542.148 94.3644 538.357C94.4335 538.167 94.4766 538.037 94.5112 537.951C94.5371 537.89 94.5457 537.864 94.5457 537.864L92.3439 537.13C92.3439 537.13 92.3526 537.104 92.3698 537.061C92.8534 535.662 101.116 512.129 100.408 510.35Z" fill="#100D2C" />
		<path d="M74.7214 465.944C73.9875 467.412 58.5752 485.392 58.5752 485.392C58.5752 485.392 73.2536 473.647 75.4554 470.349C77.6571 467.05 80.5928 461.911 82.0606 460.806C83.5285 459.709 92.3355 451.263 92.3355 451.263C92.3355 451.263 75.4554 464.476 74.7214 465.944Z" fill="#0D073E" />
		<path d="M43.5348 499.339C42.8009 500.808 40.2365 501.17 38.7687 501.904C37.3008 502.638 27.3972 516.948 25.5581 518.054C23.719 519.159 15.2832 530.161 15.2832 530.161C15.2832 530.161 23.3563 522.086 25.5581 520.618C27.7599 519.15 40.2365 504.469 40.5991 503.372C40.9618 502.276 43.5348 501.904 44.6314 501.542C45.728 501.179 46.0992 499.339 46.0992 497.871C46.0992 496.403 52.7045 491.636 52.7045 491.636C52.7045 491.636 47.2044 493.838 45.7366 494.935C44.2687 496.041 44.2687 497.871 43.5348 499.339Z" fill="#0D073E" />
		<path d="M52.3413 478.423C51.2447 479.891 33.2593 500.445 31.0576 502.276C29.443 503.623 22.7168 513.425 19.2285 518.58C21.7066 514.962 25.6784 509.366 27.388 508.148C29.9524 506.317 53.8005 479.891 54.5344 478.423C55.2683 476.955 53.8005 472.914 53.8005 472.914C53.8005 472.914 53.4378 476.955 52.3413 478.423Z" fill="#0D073E" />
		<path d="M121.684 439.89L121.312 436.962C121.312 436.962 108.102 428.887 106.271 427.791C105.943 427.592 104.044 428.715 101.143 430.701C101.782 432.817 102.438 435.01 102.602 435.865C102.964 437.705 106.271 439.907 108.102 441.746C109.932 443.577 114.345 448.353 115.812 449.812C117.272 451.28 124.248 451.652 125.716 452.748C126.312 453.198 127.995 454.424 129.783 455.737C130.871 454.882 133.78 452.472 133.78 451.28C133.789 449.795 121.684 439.89 121.684 439.89Z" fill="#363071" />
		<path d="M72.8913 599.525C70.6895 599.525 62.2538 600.993 62.2538 600.993C62.2538 600.993 67.0199 602.824 65.9234 603.195C64.8268 603.558 57.1163 602.832 57.4876 603.929C57.8502 605.026 67.7625 609.43 70.6982 609.43C73.6338 609.43 83.5374 610.527 85.7392 609.802C87.941 609.068 90.5054 604.301 90.8767 602.098C91.2393 599.896 85.3766 593.661 85.3766 593.661C85.3766 593.661 75.093 599.525 72.8913 599.525Z" fill="#0D073E" />
		<path d="M180.389 634.751C177.825 633.292 165.348 622.272 164.977 620.441C164.631 618.688 147.285 601.278 144.393 599.016L144.073 598.791C144.073 598.791 151.041 612.738 149.21 613.101C147.38 613.472 133.798 605.026 132.339 605.398C130.871 605.76 145.178 614.569 147.009 615.666C148.848 616.771 134.532 623.378 131.968 624.474C129.403 625.571 88.675 629.984 84.6428 629.613C80.6623 629.25 38.872 615.683 38.069 614.258C38.0431 614.232 38.0345 614.215 38.0431 614.198C38.1295 613.956 39.157 613.161 40.7112 612.082C46.1076 608.299 52.3589 602.09 52.3589 602.09C52.3589 602.09 54.198 597.686 53.0928 595.846L35.85 611.261L21.2925 619.103L20.9039 619.414L0.00878906 636.271V637.204H144.47C151.594 635.312 158.959 633.456 160.936 633.283C164.977 632.912 180.389 634.751 180.389 634.751Z" fill="#120A54" />
		<path d="M144.064 598.791C142.596 598.057 125.725 597.322 124.248 596.588C122.781 595.854 107.006 586.32 105.166 586.32C103.362 586.32 97.6373 592.72 95.3664 593.618C96.4026 593.264 105.995 590.042 107.731 591.079C109.561 592.184 119.102 596.226 117.634 597.322C116.167 598.419 103.69 598.419 103.69 598.419C103.69 598.419 126.07 599.153 124.602 599.887C123.135 600.621 106.263 604.292 104.053 605.397C101.859 606.494 89.3828 613.472 89.3828 613.472C89.3828 613.472 116.901 619.344 120.561 618.973C124.231 618.61 139.272 613.834 137.442 612.366C135.611 610.898 127.538 604.663 127.538 604.663C127.538 604.663 134.506 600.621 136.336 600.259C138.201 599.887 144.064 598.791 144.064 598.791Z" fill="#363072" />
		<path d="M69.9552 631.443C68.1247 629.25 50.502 625.208 49.4054 625.571C48.3348 625.934 50.3984 633.266 50.4934 633.628L45.3646 625.208C45.3646 625.208 35.8322 620.07 34.3644 620.07C32.8965 620.07 25.5573 623.74 23.3642 625.571C21.9741 626.728 14.1686 632.842 8.59082 637.204H76.2928C73.4694 634.794 70.7409 632.402 69.9552 631.443Z" fill="#363070" />
		<path d="M127.555 633.646C124.991 633.283 113.611 632.549 111.78 633.283C110.986 633.594 108.508 635.33 105.935 637.204H131.423C129.947 635.312 128.488 633.784 127.555 633.646Z" fill="#363070" />
		<path d="M0.975992 521.724C0.604714 521.724 0.285243 521.603 0.0175781 521.395V527.078L20.3774 508.554C19.419 509.322 4.17934 521.724 0.975992 521.724Z" fill="#363072" />
		<path d="M36.1952 480.625C38.0257 479.52 40.97 480.254 42.8005 480.254C44.6051 480.254 29.3223 492.724 26.7665 494.495C29.4345 492.707 56.4601 474.692 57.4789 474.019C58.5755 473.285 57.4789 468.872 58.9468 467.041C60.406 465.21 98.9325 434.017 100.4 433.655C101.868 433.283 101.134 437.325 102.965 438.059C104.795 438.793 113.602 448.336 113.602 448.336C113.602 448.336 108.094 439.156 106.263 436.962C104.433 434.76 103.699 431.824 104.795 431.452C105.538 431.211 110.382 431.781 113.507 432.195C110.278 430.217 107.101 428.292 106.272 427.782C105.944 427.583 104.044 428.706 101.143 430.692C88.0964 439.648 54.9059 466.082 54.9059 466.687C54.9059 467.421 53.8007 472.922 53.8007 472.922L45.3649 477.698C45.3649 477.698 42.0666 476.601 40.2275 476.601C38.8201 476.601 12.1917 495.946 0 504.858V509.331C6.30308 503.364 34.5633 481.61 36.1952 480.625Z" fill="#363072" />
		<path d="M86.7149 500.592C85.1866 501.603 75.6975 519.436 74.4886 521.206C73.2798 522.976 78.0633 522.881 79.5743 522.234C81.0853 521.586 94.4686 499.944 93.372 499.875C92.2754 499.806 86.7149 500.592 86.7149 500.592Z" fill="#100D2C" />
		<path d="M52.3417 602.09C52.3417 602.09 37.292 610.164 37.292 612.367C37.292 614.569 38.7598 616.037 40.9616 616.771C43.1634 617.505 84.6255 629.613 84.6255 629.613C84.6255 629.613 43.5346 614.931 44.2686 613.835C45.0025 612.738 51.2365 611.27 52.3417 611.27C53.4382 611.27 60.0435 615.303 61.5114 615.674C62.9792 616.037 85.7307 615.674 86.8273 615.674C87.9239 615.674 62.2453 612.738 60.4148 612.004C58.5757 611.261 52.3417 602.09 52.3417 602.09Z" fill="#0D073E" />
		<path opacity="0.4" d="M842.136 634.721C838.89 629.897 833.834 631.825 833.834 631.825C833.834 631.825 831.365 629.196 831.011 627.214C830.657 625.231 831.148 612.726 831.447 611.359C831.745 609.993 828.146 600.993 827.308 599.389C826.479 597.784 825.867 591.32 827.046 590.817C828.225 590.314 832.333 598.055 833.895 600.698C835.453 603.342 846.431 617.009 849.101 619.162C851.767 621.315 863.687 627.22 866.192 629.694C867.712 631.197 871.612 637.936 874.438 642.994L883.853 641.312C880.749 636.228 876.218 628.897 875.094 627.509C873.341 625.347 869.101 619.243 867.613 613.809C866.13 608.377 857.272 598.419 853.602 597.177C849.928 595.932 842.758 589.327 840.369 587.123C837.976 584.921 828.738 572.841 827.052 572.558C825.369 572.274 825.193 574.351 824.315 574.508C823.438 574.664 815.556 563.071 813.49 559.637C811.425 556.208 810.136 551.03 809.96 550.044C809.783 549.054 811.973 551.145 812.326 550.061C812.674 548.974 813.243 538.937 813.543 536.549C813.842 534.158 814.556 531.029 814.556 531.029C814.556 531.029 815.275 534.047 815.525 533.417C815.777 532.792 816.118 527.598 814.808 524.335C813.682 521.522 812.234 518.439 811.856 517.64C812.311 518.703 814.362 523.728 813.76 527.6C813.09 531.955 810.551 541.13 810.453 540.584C810.355 540.038 807.393 540.746 807.536 547.644C807.683 554.542 814.416 574.96 814.845 578.39C815.274 581.816 816.118 590.58 817.399 593.71C818.684 596.839 820.551 603.223 819.703 607.613C818.855 612 817.528 616.768 818.109 621.045C818.694 625.323 823.206 640.441 828.066 647.315C829.1 648.777 829.913 649.928 830.553 650.835L845.789 648.113L843.957 644.916C843.957 644.913 845.378 639.547 842.136 634.721Z" fill="#657AE0" />
		<g filter="url(#filter0_d_224_6364)">
			<path d="M1058.74 540.088C1058.3 539.663 1057.96 539.341 1057.7 539.141C1057.49 538.967 1057.36 538.884 1057.28 538.884C1055.74 538.884 1053.04 540.52 1053.04 540.52C1053.04 540.52 1039.74 523.354 1025.9 505.725C1011.31 487.123 996.1 468 995.312 468C993.772 468 969.917 483.6 969.917 484.966C969.917 486.331 969.917 491.001 969.917 491.001C969.917 491.001 958.759 498.846 957.591 499.574C956.821 500.057 964.492 528.275 969.654 546.903C972.208 556.113 974.146 562.973 974.146 562.973L973.44 562.374L929.135 524.932C929.126 524.926 924.897 525.196 924.897 525.196C924.679 525.126 922.497 524.404 920.658 524.926C918.738 525.473 904.882 532.861 904.112 533.409C903.342 533.956 906.802 537.789 906.802 537.789H909.102L910.642 540.249L912.562 542.162C912.562 542.162 910.642 542.98 910.261 543.805C909.872 544.623 940.664 620.988 939.514 621.535C938.355 622.083 926.418 623.996 924.888 624.266C923.348 624.543 913.73 628.105 911.411 628.105H942.974C941.434 628.105 937.576 626.186 939.894 625.915C939.894 625.915 939.912 625.915 939.94 625.909C939.967 625.909 940.012 625.902 940.057 625.896C943.463 625.657 972.607 625.915 972.607 625.915C972.607 625.915 971.855 626.05 970.678 626.263C966.294 627.087 956.078 629.097 957.591 629.741C958.497 630.127 969.555 630.765 980.676 631.235C993.084 631.763 1005.58 632.092 1004.16 631.654C1001.47 630.836 1001.47 630.836 1001.47 630.836C1001.47 630.836 1028.96 631.235 1046.7 631.538C1056.17 631.699 1062.86 631.834 1061.13 631.86C1059.9 631.879 1058.12 632.053 1056.14 632.304C1056.14 632.304 1056.1 632.311 1056.05 632.317C1049.92 633.097 1042.06 634.643 1043.8 634.771C1045.14 634.874 1062.86 635.834 1077.47 636.633C1079.85 636.762 1082.14 636.884 1084.26 637V569.092C1076.13 559.547 1063.14 544.436 1058.74 540.088Z" fill="#1C195D" />
			<path d="M966.274 561.905C967.394 561.692 981.155 571.738 981.155 571.738L979.753 555.976L969.395 547.056C971.881 556.313 973.767 563.206 973.767 563.206L973.08 562.604L929.945 524.983C930.139 525.371 936.495 537.657 936.769 538.02C937.051 538.389 952.451 550.972 952.451 550.972L946.598 549.775L971.59 568.896C971.246 568.534 965.172 562.1 966.274 561.905Z" fill="#363072" />
			<path d="M1019.09 555.479C1019.09 555.479 1022.16 567.23 1023.7 568.047C1025.24 568.864 1022.55 571.333 1022.55 571.333L985.243 515.299L991.786 521.043C991.786 521.043 996.401 520.219 996.401 519.132C996.401 518.039 986.021 493.161 986.41 489.887C986.79 486.606 994.482 481.416 995.632 480.046C996.763 478.715 987.577 484.175 987.188 484.413C987.433 484.149 995.279 475.762 996.79 474.405C998.329 473.042 969.876 490.993 969.876 490.993C969.876 490.993 958.727 498.827 957.559 499.554C956.41 500.274 974.102 562.863 974.102 562.863L973.396 562.264L988.709 616.427L977.179 603.583C977.179 603.583 972.175 604.946 971.025 603.853C969.876 602.766 964.102 590.468 963.722 589.639C963.342 588.835 952.157 567.629 951.804 566.973C951.949 567.474 954.881 577.373 955.641 578.434C956.41 579.528 961.415 590.462 961.415 591.279C961.415 592.095 956.41 587.722 956.41 587.722C956.41 587.722 957.179 590.179 957.559 591.279C957.949 592.372 952.944 591.825 951.795 591.279C950.636 590.732 927.179 536.344 927.179 536.344L930.636 550.558L930.256 555.749C930.256 555.749 922.564 534.974 922.564 534.157C922.564 533.34 919.107 535.797 919.107 535.797C919.107 535.797 914.103 535.521 913.722 534.704C913.333 533.887 925.641 529.237 926.41 527.873C927.179 526.51 924.881 525.14 924.881 525.14C924.664 525.069 922.483 524.349 920.646 524.87C918.727 525.416 904.881 532.794 904.112 533.34C903.342 533.887 906.799 537.714 906.799 537.714H909.098L910.637 540.171L912.555 542.081C912.555 542.081 910.637 542.898 910.256 543.721C910.066 544.12 917.406 562.747 924.772 581.644C932.392 601.203 940.066 621.065 939.478 621.341L947.931 620.794L942.546 622.705C942.546 622.705 951.007 623.522 954.075 623.522C956.654 623.522 944.962 625.052 941.08 625.554C940.591 625.618 940.229 625.663 940.03 625.689C939.958 625.696 939.922 625.702 939.894 625.702C939.867 625.708 939.849 625.708 939.849 625.708L941.677 625.946L950.238 627.072L960.121 626.5L969.089 625.979C969.089 625.979 969.668 626.011 970.618 626.056C973.596 626.21 980.193 626.525 983.704 626.525C988.319 626.525 970.238 628.982 970.238 628.982C970.238 628.982 981.767 628.712 983.704 629.259C984.627 629.523 982.781 630.301 980.618 631.021C993.016 631.549 1005.5 631.877 1004.08 631.439C1001.4 630.622 1001.4 630.622 1001.4 630.622C1001.4 630.622 1028.86 631.021 1046.59 631.323C1053.62 630.011 1063.48 628.519 1071.97 628.982L1019.09 548.359V555.479Z" fill="#0D073E" />
			<path d="M1032.5 585.015C1030.96 585.293 1029.43 588.576 1028.29 589.95C1027.14 591.318 1032.88 601.465 1031.73 601.736C1030.58 602.014 1025.6 602.833 1025.6 602.833C1025.6 602.833 981.939 524.983 980.406 524.983C978.874 524.983 975.809 526.351 975.043 527.447C974.277 528.544 986.914 552.941 986.914 552.941C986.914 552.941 982.317 554.309 982.317 555.406C982.317 556.502 998.785 590.77 998.785 590.77L996.486 591.589C996.486 591.589 986.914 571.856 985.382 572.952C983.849 574.049 984.237 580.08 984.237 580.08L1000.7 629.695L1050.12 618.457C1050.11 618.457 1034.03 584.738 1032.5 585.015Z" fill="#100D2C" />
			<path d="M945.346 593.567C943.8 593.298 939.937 594.11 938.774 594.379C937.619 594.654 939.546 599.003 939.546 599.003C939.546 599.003 938.001 599.815 936.847 599.003C935.692 598.191 929.893 582.694 928.738 582.15C928.147 581.875 926.575 581.952 925.166 582.086C932.82 601.536 940.528 621.285 939.937 621.56L948.427 621.017L943.019 622.916C943.019 622.916 951.518 623.728 954.599 623.728C957.19 623.728 945.446 625.251 941.546 625.749L942.146 626.14L950.745 627.259L960.671 626.69C959.28 623.389 946.809 593.822 945.346 593.567Z" fill="#100D2C" />
			<path d="M1046.42 559.331C1044.51 558.507 1041.05 556.022 1038.75 553.817C1036.45 551.611 1030.32 542.516 1030.32 542.516C1030.32 542.516 1036.45 556.301 1037.6 557.404C1038.74 558.507 1044.5 560.985 1045.65 562.367C1046.79 563.742 1074.01 600.96 1074.01 600.96C1074.01 600.96 1048.34 560.161 1046.42 559.331Z" fill="#100D2C" />
			<path d="M1083.82 599.986L1051.88 601.934L1025.33 613.915L1010.71 616.695L1001.86 623.384L999.93 628.401L998.399 626.453L996.859 630.912L1001.48 631.47C1001.48 631.47 1003.54 631.503 1006.9 631.549C1022.35 631.778 1065.25 632.447 1061.13 632.506C1059.91 632.526 1058.13 632.703 1056.14 632.958L1058.82 632.86L1066.7 633.28L1062.67 631.745C1062.67 631.745 1082.28 632.027 1080.75 632.585C1079.21 633.142 1074.2 633.555 1074.2 633.555L1084.26 634.565V600.517L1083.82 599.986Z" fill="#0D073E" />
			<path d="M1079.57 593.103C1077.65 593.651 1070.32 596.941 1069.16 597.49C1068 598.038 1064.53 597.212 1064.53 597.212C1064.53 597.212 1056.81 596.393 1055.26 597.212C1053.73 598.038 1031.35 605.709 1030.58 606.534C1029.8 607.36 1027.88 609.831 1027.88 609.831C1027.88 609.831 1025.18 611.747 1022.48 611.747C1019.77 611.747 1017.46 611.747 1017.46 611.747L1011.66 614.766C1011.66 614.766 1005.11 616.682 1004.34 617.786C1003.56 618.876 1001.64 622.992 1001.64 622.992C1001.64 622.992 1006.65 619.973 1008.19 619.153C1009.74 618.334 1025.17 616.063 1025.17 617.16C1025.17 618.257 1027.85 626.772 1027.85 626.772C1027.85 626.772 1029.03 617.508 1029.03 616.689C1029.03 615.87 1030.19 614.773 1030.96 613.947C1031.73 613.128 1057.96 606.547 1060.68 606.547C1063.37 606.547 1071.09 609.012 1071.09 609.012C1071.09 609.012 1074.56 608.47 1078.04 609.012C1079.51 609.244 1081.94 609.915 1084.26 610.618V592.193C1082.04 592.567 1080.2 592.922 1079.57 593.103Z" fill="#363071" />
			<path d="M1073.39 615.837C1072.24 615.837 1064.9 613.851 1062.97 614.138C1061.04 614.418 1053.71 628.58 1053.71 628.58L1056.41 614.138L1051.76 615.271L1046.75 628.58L1048.28 615.837C1048.28 615.837 1034.37 618.383 1033.22 618.95C1032.07 619.516 1028.97 629.433 1028.97 629.433H1025.5L1022.42 620.656C1022.42 620.656 1019.71 621.222 1018.56 621.789C1017.41 622.355 1020.88 629.146 1020.88 629.146L1018.18 629.433C1018.18 629.433 1016.24 622.922 1014.31 623.488C1012.39 624.048 1005.05 628.02 1005.05 628.02L1006.63 631.499C1022.13 631.732 1065.18 632.412 1061.05 632.472C1059.82 632.492 1058.03 632.672 1056.04 632.932L1058.72 632.832L1066.64 633.258L1062.59 631.699C1062.59 631.699 1082.27 631.986 1080.74 632.552C1079.19 633.118 1074.17 633.538 1074.17 633.538L1084.26 634.565V616.91C1079.09 616.364 1073.96 615.837 1073.39 615.837Z" fill="#1C195D" />
			<path d="M1056.85 539.078C1055.31 539.078 1052.62 540.718 1052.62 540.718C1052.62 540.718 1039.33 523.506 1025.49 505.828C1010.9 487.176 995.703 468 994.915 468C993.376 468 994.363 472.172 995.585 471.455C995.087 472.728 1014.54 498.459 1014.54 498.459L1014.15 495.165L1049.16 540.996C1049.16 540.996 1039.54 548.953 1038.77 549.78C1038.16 550.432 1052.5 543.224 1058.31 540.286C1057.88 539.859 1057.53 539.536 1057.28 539.336C1057.07 539.162 1056.93 539.078 1056.85 539.078Z" fill="#363072" />
			<path d="M1079.55 593.121C1077.61 593.677 1070.25 597.01 1069.08 597.566C1067.93 598.121 1064.43 597.285 1064.43 597.285C1064.43 597.285 1056.68 596.455 1055.12 597.285C1053.58 598.121 1031.09 605.893 1030.32 606.729C1030.32 606.729 1039.23 605.206 1038.45 605.762C1037.71 606.298 1032.03 608.265 1031.68 608.396C1032.02 608.324 1037.54 607.148 1039.04 606.88C1040.59 606.599 1048.14 604.52 1050.33 604.095C1052.51 603.677 1061.72 602.023 1062.88 601.749C1064.05 601.468 1066.56 603.546 1067.53 604.095C1068.5 604.651 1071.03 609.239 1071.03 609.239C1071.03 609.239 1070.05 605.769 1070.05 605.076C1070.05 604.383 1070.83 601.043 1071.22 600.631C1071.6 600.213 1079.17 595.075 1080.52 594.657C1081.02 594.5 1082.54 594.154 1084.26 593.781V592.193C1082.03 592.579 1080.18 592.938 1079.55 593.121Z" fill="#130B59" />
			<path d="M1015.58 528.372C1017.58 528.372 1027.59 538.86 1027.59 538.86L994.812 493.813C994.812 493.813 996.435 498.917 997.295 499.884C998.156 500.852 1002.53 507.196 1002.73 508.19C1002.92 509.183 1000.64 511.625 1000.64 511.625C1000.64 511.625 1017.66 536.847 1019.93 540.568C1018.7 538.217 1013.89 528.372 1015.58 528.372Z" fill="#100D2C" />
			<path d="M1055.1 545.689C1055.95 545.074 1058.53 540.567 1058.53 540.567L1050.19 542.904L1038.51 549.978C1038.51 549.978 1051.42 546.918 1051.91 546.508C1052.4 546.098 1076.06 571.737 1076.06 571.737C1076.06 571.737 1054.25 546.297 1055.1 545.689Z" fill="#130B59" />
			<path d="M938.005 580.528C937.035 581.085 935.408 583.59 935.408 583.59C935.408 583.59 937.355 590.837 937.676 591.113C938.005 591.395 942.541 591.113 942.22 590.28C941.899 589.447 938.982 579.97 938.005 580.528Z" fill="#100D2C" />
		</g>
		<path d="M290.755 25.2758C260.949 34.6014 236.969 25.5646 236.222 25.2928C236.578 25.9553 243.932 39.8162 217.166 48.3434C190.316 56.9046 196.209 39.6124 196.447 38.8989L178.75 46.9845C178.75 46.9845 198.4 88.7881 151.509 108.968C104.601 129.148 67.0676 94.5465 67.0676 94.5465L10.0376 74.3666C10.0376 74.3666 -22.6893 85.17 -55.7559 74.3666C-88.8224 63.5462 -76.5095 46.9845 -76.5095 46.9845C-76.5095 46.9845 -121.668 52.7429 -150.353 19.6023C-156.892 12.0434 -159.626 5.53758 -160 0H321.07C317.368 8.1365 309.097 19.5344 290.755 25.2758Z" fill="#100D2C" fill-opacity="0.8" />
		<path d="M1106.1 21.4856C1080.64 29.4128 1060.15 21.7311 1059.51 21.5001C1059.81 22.0632 1066.1 33.8457 1043.23 41.0942C1020.29 48.3716 1025.33 33.6724 1025.53 33.0659L1010.41 39.939C1010.41 39.939 1027.2 75.4741 987.136 92.628C947.06 109.782 914.994 80.369 914.994 80.369L866.27 63.2152C866.27 63.2152 838.31 72.3985 810.06 63.2152C781.81 54.0173 792.329 39.939 792.329 39.939C792.329 39.939 753.748 44.834 729.241 16.6629C723.655 10.2374 721.319 4.7072 721 0H1132C1128.84 6.91641 1121.77 16.6052 1106.1 21.4856Z" fill="#100D2C" fill-opacity="0.8" />
		<path opacity="0.35" d="M409.776 38.7541C394.277 57.8079 361.391 48.6367 361.391 48.6367C361.391 48.6367 358.425 57.2691 346.086 57.8079C331.546 58.433 335.569 51.9237 335.569 51.9237H323.349C323.349 51.9237 332.528 54.6179 326.099 60.7824C319.682 66.9576 296.837 64.3711 286.947 51.9237C277.056 39.4762 288.575 32.2664 288.575 32.2664C288.575 32.2664 277.735 33.9907 269.15 27.5676C260.564 21.1553 261.028 16.0578 261.028 16.0578C261.028 16.0578 250.587 35.9306 224.184 33.8075C197.78 31.6844 192.851 13.3743 192.851 13.3743C192.851 13.3743 182.421 16.1116 169.941 4.21381C168.604 2.93135 168 1.51956 168 0H416.561C419.581 7.47925 421.975 23.7525 409.776 38.7541Z" fill="#657AE0" />
		<path opacity="0.33" d="M398.144 14.1879C386.723 20.0878 367.527 18.2724 367.527 18.2724C367.527 18.2724 369.011 39.4948 338.437 40.9535C315.144 42.0665 313.606 22.8108 313.606 22.8108C313.606 22.8108 295.711 25.4474 280.946 17.8726C267.116 10.8057 267.825 5.94313 267.901 5.56493C267.546 5.79185 252.049 16.1005 221.766 8.72019C213.915 6.81839 208.603 3.50104 205 0H406.994C407.091 3.66313 405.994 10.1249 398.144 14.1879Z" fill="#9FB5F4" />
		<path opacity="0.5" d="M531.145 15.2878C532.334 16.5108 550.676 36.5038 510.154 49.7533C468.307 63.4273 446.466 40.4107 451.969 36.0962C457.472 31.7816 457.472 31.7816 457.472 31.7816L434.374 28.9109C434.374 28.9109 450.967 41.1411 440.132 49.0568C429.313 56.9725 402.632 57.6859 383.866 44.7423C365.082 31.7986 378.075 13.81 378.075 13.81C378.075 13.81 358.798 17.4111 344.991 5.18086C343.072 3.48222 341.798 1.73262 341 0H633.334C623.976 8.71404 608.521 19.2626 586.273 22.4561C547.687 27.9767 532.198 16.1371 531.145 15.2878Z" fill="#363071" />
		<path opacity="0.35" d="M134.019 86.876C132.895 87.0244 131.788 87.1964 130.676 87.4103C123.397 88.7827 116.362 91.845 110.048 96.6816L109.717 96.9352C105.236 100.442 101.53 104.52 98.6334 109.066C92.3865 118.693 89.7633 130.16 91.0292 141.463C91.4237 145.064 92.2413 148.678 93.4807 152.158C95.1569 156.991 97.6236 161.632 100.921 165.937C101.682 166.93 102.472 167.864 103.268 168.755C106.246 172.104 109.588 174.948 113.151 177.248C116.906 179.701 120.989 181.603 125.21 182.948C140.04 187.613 156.861 185.275 170.175 175.076C191.812 158.501 195.939 127.492 179.361 105.85C172.132 96.4129 162.167 90.3104 151.404 87.8209C145.67 86.5083 139.81 86.1562 134.019 86.876Z" fill="#657AE0" />
		<path d="M134.02 86.8766C125.575 87.9032 117.266 91.1154 110.03 96.6585L109.699 96.9121C110.361 106.839 112.008 118.15 115.959 122.18C123.558 129.945 131.564 140.25 140.351 138.886C149.096 137.517 154.408 130.295 155.536 121.137C156.115 116.602 153.781 101.652 151.344 87.7923C145.671 86.5088 139.81 86.1567 134.02 86.8766Z" fill="#100D2C" />
		<path d="M142.432 150.127C138.522 155.261 137.611 162.302 140.637 168.015C141.792 170.208 143.45 172.128 145.801 172.993C152.881 175.525 156.087 158.057 150.083 148.995C147.571 145.177 144.725 147.095 142.432 150.127Z" fill="#100D2C" />
		<path d="M160.202 134.037C159.575 135.08 159.378 136.733 159.347 138.408C159.311 141.888 160.193 145.341 161.709 148.496C163.968 153.258 167.957 161.012 171.018 163.245C175.551 166.566 186.586 144.527 184.882 133.484C183.16 122.419 161.93 131.1 160.202 134.037Z" fill="#100D2C" />
		<path d="M100.513 127.931C98.0431 129.409 94.6732 144.751 94.6732 144.751C94.6732 144.751 93.8005 147.972 93.4382 152.153C95.1145 156.986 97.5812 161.627 100.879 165.932C104.394 170.52 108.544 174.322 113.126 177.267C117.258 178.643 120.868 179.143 122.427 178.925C126.353 178.319 133.791 169.807 132.888 166.521C131.96 163.253 122.586 152.043 119.607 149.183C116.587 146.318 102.94 126.446 100.513 127.931Z" fill="#100D2C" />
		<path opacity="0.47" d="M137.717 86.5594C146.191 89.638 153.898 95.1436 159.787 102.831C176.365 124.472 172.238 155.482 150.6 172.057C142.3 178.415 132.616 181.742 122.908 182.198C123.614 182.482 124.367 182.731 125.121 182.98C139.951 187.645 156.772 185.306 170.086 175.108C191.724 158.533 195.85 127.523 179.272 105.882C172.043 96.4443 162.078 90.3418 151.315 87.8523C146.865 86.7948 142.291 86.3583 137.717 86.5594Z" fill="#221C5A" />
		<path opacity="0.5" d="M109.692 96.9538C105.212 100.461 101.506 104.538 98.609 109.084C92.3621 118.711 89.7389 130.178 91.0048 141.481C91.3993 145.082 92.2169 148.697 93.4562 152.176C95.1325 157.01 97.5992 161.651 100.897 165.955C101.658 166.949 102.448 167.882 103.243 168.774C101.352 165.569 99.367 161.46 97.6293 156.448C92.6242 141.93 94.1914 132.66 94.3508 131.937C94.4546 132.759 96.1383 144.117 103.849 140.124C111.851 136.021 113.908 120.484 109.117 115.747C104.32 111.053 100.002 114.773 100.002 114.773C100.002 114.773 103.561 103.302 121.479 92.3539C124.741 90.3427 127.847 88.7144 130.676 87.4107C123.396 88.7831 116.361 91.8454 110.047 96.682L109.692 96.9538Z" fill="#221C5A" />
		<path opacity="0.46" d="M185.342 113.661C191.527 113.433 201.42 112.662 202.298 114.992C204.851 121.755 180.508 139.868 147.753 152.326C114.997 164.793 86.2314 166.888 83.6733 160.13C82.5068 157.039 87.0032 152.089 95.3549 146.44C78.8619 155.812 65.3457 163.102 67.1815 167.969C70.2705 176.154 108.756 171.888 148.427 156.793C188.103 141.693 218.476 121.275 215.382 113.094C213.9 109.152 198.478 111.697 185.342 113.661Z" fill="#7FA4F4" />
		<path d="M185.707 136.027C172.525 144.144 132.821 161.037 132.821 161.037C132.821 161.037 166.457 151.58 187.429 136.843C204.129 125.11 204.178 119.897 204.178 119.897C204.178 119.897 198.888 127.909 185.707 136.027Z" fill="#9CB8EF" />
		<path opacity="0.35" d="M870.168 300.074C867.989 300.361 865.845 300.695 863.69 301.109C849.587 303.768 835.956 309.701 823.722 319.073L823.08 319.564C814.399 326.359 807.219 334.26 801.606 343.068C789.502 361.72 784.419 383.938 786.872 405.838C787.637 412.815 789.221 419.819 791.622 426.56C794.87 435.926 799.649 444.917 806.038 453.258C807.513 455.183 809.044 456.992 810.585 458.719C816.355 465.207 822.83 470.718 829.734 475.175C837.01 479.927 844.921 483.611 853.098 486.219C881.834 495.258 914.424 490.726 940.22 470.966C982.145 438.851 990.141 378.769 958.02 336.837C944.013 318.552 924.705 306.728 903.851 301.905C892.742 299.361 881.387 298.679 870.168 300.074Z" fill="#657AE0" />
		<path d="M870.169 300.075C853.807 302.064 837.708 308.288 823.687 319.028L823.046 319.519C824.328 338.752 827.52 360.668 835.174 368.476C849.898 383.521 865.411 403.488 882.436 400.846C899.379 398.193 909.672 384.2 911.857 366.456C912.979 357.67 908.456 328.702 903.736 301.849C892.743 299.362 881.387 298.68 870.169 300.075Z" fill="#100D2C" />
		<path d="M886.469 422.626C878.894 432.574 877.129 446.215 882.992 457.285C885.229 461.535 888.442 465.254 892.996 466.929C906.715 471.836 912.926 437.991 901.293 420.433C896.426 413.035 890.911 416.751 886.469 422.626Z" fill="#100D2C" />
		<path d="M920.898 391.451C919.684 393.472 919.301 396.674 919.242 399.919C919.173 406.662 920.881 413.353 923.818 419.465C928.196 428.692 935.923 443.716 941.856 448.043C950.638 454.477 972.019 411.775 968.717 390.38C965.38 368.939 924.246 385.76 920.898 391.451Z" fill="#100D2C" />
		<path d="M805.248 379.619C800.463 382.485 793.934 412.211 793.934 412.211C793.934 412.211 792.243 418.451 791.541 426.551C794.789 435.916 799.568 444.908 805.957 453.249C812.768 462.139 820.809 469.505 829.688 475.211C837.693 477.878 844.687 478.846 847.708 478.423C855.315 477.25 869.727 460.756 867.976 454.389C866.18 448.058 848.016 426.339 842.245 420.798C836.392 415.246 809.952 376.743 805.248 379.619Z" fill="#100D2C" />
		<path opacity="0.47" d="M877.331 299.46C893.751 305.425 908.684 316.093 920.093 330.987C952.214 372.919 944.218 433.001 902.294 465.115C886.211 477.435 867.448 483.882 848.639 484.764C850.007 485.316 851.466 485.798 852.926 486.28C881.661 495.318 914.252 490.787 940.048 471.027C981.973 438.912 989.968 378.83 957.848 336.898C943.841 318.613 924.532 306.789 903.679 301.965C895.057 299.917 886.194 299.071 877.331 299.46Z" fill="#221C5A" />
		<path opacity="0.5" d="M823.035 319.6C814.353 326.396 807.173 334.296 801.56 343.104C789.456 361.756 784.374 383.974 786.826 405.874C787.591 412.852 789.175 419.855 791.576 426.597C794.824 435.962 799.603 444.954 805.992 453.294C807.467 455.219 808.998 457.028 810.539 458.755C806.874 452.546 803.028 444.584 799.662 434.874C789.964 406.743 793.001 388.783 793.31 387.383C793.511 388.974 796.773 410.981 811.713 403.245C827.217 395.296 831.203 365.191 821.919 356.014C812.624 346.917 804.259 354.125 804.259 354.125C804.259 354.125 811.154 331.9 845.871 310.688C852.192 306.791 858.209 303.636 863.69 301.11C849.587 303.769 835.956 309.702 823.722 319.074L823.035 319.6Z" fill="#221C5A" />
		<path opacity="0.46" d="M969.607 351.972C981.592 351.529 1000.76 350.035 1002.46 354.551C1007.41 367.654 960.242 402.749 896.777 426.886C833.31 451.042 777.576 455.101 772.619 442.007C770.359 436.018 779.071 426.427 795.253 415.482C763.297 433.641 737.108 447.766 740.665 457.197C746.65 473.055 821.218 464.79 898.082 435.541C974.956 406.285 1033.81 366.724 1027.81 350.874C1024.94 343.235 995.058 348.166 969.607 351.972Z" fill="#7FA4F4" />
		<path d="M970.314 395.306C944.774 411.034 867.846 443.765 867.846 443.765C867.846 443.765 933.017 425.441 973.652 396.888C1006.01 374.155 1006.1 364.055 1006.1 364.055C1006.1 364.055 995.854 379.578 970.314 395.306Z" fill="#9CB8EF" />
		<path opacity="0.5" d="M75.7136 16.1862C74.4488 17.4811 54.9357 38.6491 98.0453 52.6772C142.564 67.1549 165.799 42.7856 159.945 38.2175C154.091 33.6494 154.091 33.6494 154.091 33.6494L178.664 30.61C178.664 30.61 161.011 43.559 172.539 51.9398C184.048 60.3207 212.432 61.0761 232.397 47.3717C252.38 33.6674 238.558 14.6216 238.558 14.6216C238.558 14.6216 259.065 18.4343 273.754 5.48534C275.796 3.68687 277.151 1.83444 278 0H-33C-23.0447 9.22616 -6.60304 20.3947 17.0657 23.7758C58.1156 29.6208 74.5934 17.0855 75.7136 16.1862Z" fill="#363071" />
		<path opacity="0.33" d="M776.881 19.0325C792.203 26.947 817.957 24.5118 817.957 24.5118C817.957 24.5118 815.966 52.9808 856.983 54.9377C888.233 56.4307 890.296 30.5999 890.296 30.5999C890.296 30.5999 914.304 34.1367 934.113 23.9754C952.667 14.4954 951.714 7.97249 951.613 7.46515C952.089 7.76955 972.88 21.5982 1013.51 11.6978C1024.04 9.14662 1031.17 4.69652 1036 0H765.007C764.878 4.91395 766.349 13.5822 776.881 19.0325Z" fill="#363072" />
		<path opacity="0.35" d="M575.224 38.7541C590.723 57.8079 623.609 48.6367 623.609 48.6367C623.609 48.6367 626.575 57.2691 638.914 57.8079C653.454 58.433 649.431 51.9237 649.431 51.9237H661.651C661.651 51.9237 652.472 54.6179 658.901 60.7824C665.318 66.9576 688.163 64.3711 698.053 51.9237C707.944 39.4762 696.425 32.2664 696.425 32.2664C696.425 32.2664 707.265 33.9907 715.85 27.5676C724.436 21.1553 723.972 16.0578 723.972 16.0578C723.972 16.0578 734.413 35.9306 760.816 33.8075C787.22 31.6844 792.149 13.3743 792.149 13.3743C792.149 13.3743 802.579 16.1116 815.059 4.21381C816.396 2.93135 817 1.51956 817 0H568.439C565.419 7.47925 563.025 23.7525 575.224 38.7541Z" fill="#657AE0" />
		<path opacity="0.33" d="M418.155 13.1497C428.671 18.6179 446.347 16.9354 446.347 16.9354C446.347 16.9354 444.98 36.6049 473.132 37.9569C494.581 38.9885 495.997 21.1417 495.997 21.1417C495.997 21.1417 512.474 23.5854 526.07 16.5648C538.804 10.015 538.151 5.50826 538.081 5.15774C538.408 5.36805 552.677 14.9224 580.562 8.08212C587.791 6.31948 592.683 3.24487 596 0H410.005C409.916 3.39509 410.926 9.38408 418.155 13.1497Z" fill="#9FB5F4" />
		<path d="M980.926 286.89L978.755 281.88L973.987 278.135L968.983 277.848L965.159 280.964L963.132 286.167L961.696 293.258L960.035 296.22L954.447 298.859L947.425 299.229L937.698 296.22L920.783 285.906L920.136 281.526C920.171 281.289 920.205 281.048 920.237 280.803L918.639 267.014L920.601 267.761C920.601 267.683 920.595 267.605 920.592 267.526L925.405 269.405L934.052 270.309H942.221L949.167 268.741L956.857 264.568L961.163 259.797L963.46 254.075L962.876 246.485L960.646 241.146L957.627 238.161L952.245 236.386L948.172 236.48L943.064 237.833L939.71 242.459L937.694 242.548L928.776 241.065L925.027 237.88L921.209 229.502L916.07 218.71L915.076 216.881C922.18 211.436 930.956 199.301 930.956 199.301C933.354 199.656 938.867 197.386 938.867 197.386L943.63 193.079L946.719 185.532L945.24 176.576L938.669 169.828L935.88 155.86C940.23 153.697 939.687 147.304 941.709 140.855C943.73 134.406 939.864 119.545 938.897 117.051C937.93 114.556 932.079 111.96 929.055 111.211C926.03 110.461 916.615 116.122 916.615 116.122L909.701 122.309C909.701 122.309 909.007 123.108 902.448 118.214C895.889 113.32 878.252 111.219 873.592 110.707C868.931 110.194 862.42 111.054 862.42 111.054C862.42 111.054 861.71 107.282 852.38 98.5558C843.026 89.8092 840.453 90.951 837.538 91.1863C832.528 91.5947 828.888 101.954 827.642 106.485C826.395 111.016 825.552 127.392 825.552 127.392C808.165 143.273 808.476 167.371 808.476 167.371C808.86 182.674 815.963 194.628 821.276 201.472L794.667 182.167L768.063 163.666L765.506 162.642L762.931 164.096L761.822 166.814L762.95 170.923L765.961 173.913L767.448 175.573L764.755 178.936L763.981 184.149V189.121L765.455 193.268L767.652 196.253L770.25 197.791L773.63 198.115L777.121 201.523L784.388 207.388L792.106 212.748L802.999 219.23L815.287 225.362L827.781 230.307L824.469 242.536L822.741 252.488L821.864 262.931V272.795L823.421 282.045L826.495 290.105L830.435 296.853L831.687 298.033L828.991 301.881L827.508 307.616L827.032 314.986L826.176 316.689L822.256 323.941L821.776 329.1L825.384 332.937L832.447 335.157H838.16L845.239 335.047L850.495 333.641L854.123 331.205L855.366 329.34C856.288 328.203 857.111 327.175 857.111 327.175L857.392 326.302L858.014 325.37L857.828 324.944L858.465 322.963L861.498 316.694L864.839 312.425L866.739 310.772L877.117 313.186L887.764 319.465L887.783 319.433L890.742 321.393L896.3 325.784L902.589 331.177L909.104 336.41L914.759 339.032L919.553 340.089L927.238 340.604L935.691 339.309L942.224 336.802L943.07 333.504L942.224 329.229L939.716 325.911L934.799 321.87L926.719 305.137H926.715L926.03 303.722L934.969 310.502L941.618 313.722L947.975 315.554L954.588 316.133L963.466 314.491L969.707 311.256L976.011 305.327L979.238 300.177L981.384 293.264L980.926 286.89Z" fill="white" />
		<path d="M938.889 185.261C939.533 182.594 938.386 180.03 936.327 179.533C934.268 179.036 932.078 180.795 931.434 183.461C930.79 186.128 931.938 188.692 933.996 189.189C936.055 189.686 938.246 187.928 938.889 185.261Z" fill="#B78FFF" />
		<path d="M873.592 110.71C869.221 112.93 863.701 117.875 861.538 121.681C854.68 133.751 867.177 140.635 878.129 134.621C882.879 132.012 891.365 122.798 903.395 118.652L897.712 116.045L883.723 111.821L873.592 110.71Z" fill="#B78FFF" />
		<path d="M909.005 123.108C895.919 126.69 888.437 135.832 881.179 140.144C865.213 149.628 848.267 136.859 854.787 122.108C856.557 118.103 859.548 113.959 863.541 110.995L868.718 110.649C864.352 112.867 859.912 117.858 858.054 121.819C851.087 136.682 867.983 144.195 879.321 137.472C886.584 133.166 894.67 123.71 907.585 120.625L909.005 123.108Z" fill="#B78FFF" />
		<path d="M833.746 121.205C833.568 112.54 835.59 86.8624 849.461 113.363L833.746 121.205Z" fill="#C53F7F" />
		<path d="M924.196 146.75C939.594 109.525 919.016 118.87 911.89 132.493C911.507 133.226 911.518 133.214 911.97 133.647C916.073 137.581 919.199 141.778 922.368 147.456C923.267 149.061 923.955 147.337 924.196 146.75Z" fill="#C53F7F" />
		<path fill-rule="evenodd" clip-rule="evenodd" d="M847.789 244.898C846.151 244.171 844.054 244.194 841.498 244.965C838.814 245.897 836.552 247.32 834.715 249.236C832.871 251.134 832.15 252.943 832.553 254.661C832.83 255.416 833.271 255.903 833.875 256.12C834.492 256.313 835.024 256.337 835.474 256.19C835.637 256.148 835.785 256.058 835.899 255.933C835.938 255.877 835.96 255.81 835.96 255.742C835.96 255.673 835.938 255.607 835.899 255.551C835.566 254.242 836.052 252.697 837.357 250.915C838.661 249.133 840.578 247.782 843.108 246.862C844.535 246.418 845.668 246.325 846.504 246.585C847.34 246.844 847.891 247.393 848.155 248.232C848.53 249.743 848.224 251.417 847.235 253.253C846.246 255.089 844.918 256.327 843.253 256.968C842.875 257.09 842.57 257.13 842.339 257.088C842.629 255.301 842.948 253.733 843.297 252.382C843.632 251.053 844.116 250.257 844.748 249.992C844.793 249.99 844.838 249.977 844.877 249.954C844.916 249.931 844.95 249.899 844.974 249.86C844.999 249.794 844.997 249.72 844.969 249.655C844.877 249.428 844.654 249.225 844.3 249.046C844.119 248.948 843.919 248.887 843.713 248.868C843.508 248.848 843.3 248.871 843.103 248.933C841.599 249.953 840.357 252.471 839.38 256.488C838.425 260.517 837.133 263.063 835.502 264.124C835.19 264.206 834.96 264.201 834.813 264.112C834.745 264.064 834.668 264.032 834.586 264.017C834.505 264.003 834.421 264.007 834.341 264.029C834.259 264.051 834.184 264.095 834.125 264.156C834.065 264.217 834.023 264.293 834.003 264.375C833.96 264.577 833.974 264.788 834.045 264.982C834.23 265.571 834.665 266.098 835.348 266.565C836.031 267.031 836.849 267.139 837.802 266.888C838.991 266.444 839.911 265.456 840.56 263.926C841.193 262.402 841.685 260.688 842.038 258.783C842.449 259.096 842.924 259.314 843.43 259.422C843.958 259.526 844.567 259.476 845.258 259.271C847.138 258.561 848.698 257.119 849.94 254.945C851.174 252.755 851.515 250.559 850.961 248.356C850.46 246.766 849.403 245.613 847.789 244.898Z" fill="#B78FFF" />
		<path fill-rule="evenodd" clip-rule="evenodd" d="M917.697 182.988C918.355 168.693 934.478 166.976 937.981 169.328C937.981 169.328 937.85 160.689 936.034 156.353C936.034 156.353 927.816 163.47 924.723 164.427C921.629 165.383 913.832 171.086 912.098 175.383C910.364 179.681 907.078 199.467 905.339 202.144C903.601 204.821 898.021 215.676 889.425 218.797C880.828 221.917 866.898 227.066 858.125 224.949C849.352 222.831 846.582 220.848 846.582 220.848C846.582 220.848 861.233 222.299 865.597 221.841C869.96 221.383 883.804 218.738 888.008 216.093C892.211 213.448 905.085 205.412 905.276 190.032C905.354 183.772 901.56 186.998 901.173 192.101C900.935 195.253 897.037 209.792 883.557 214.353C870.333 218.828 850.179 222.735 828.29 208.923L833.849 214.321L831.879 218.699L835.566 223.841L837.859 228.798L838.03 229.49L839.168 234.092L839.179 234.097L839.576 235.688L842.943 237.973L848.19 240.871L856.067 242.709L860.616 241.674L866.927 237.973L872.305 235.494H876.966L885.691 234.814L890.956 233.761L901.335 226.542L904.016 225.149L906.823 224.051L912.791 222.438L916.903 220.44L914.861 216.548C919.858 212.659 929.029 204.977 930.618 199.856C930.612 199.86 917.039 197.284 917.697 182.988Z" fill="#B78FFF" />
		<path fill-rule="evenodd" clip-rule="evenodd" d="M830.432 222.198L828.289 226.928L831.877 229.82L833.759 229.49L834.379 227.919L833.337 226.077L830.432 222.198Z" fill="#B78FFF" />
		<path fill-rule="evenodd" clip-rule="evenodd" d="M915.391 224.966L910.623 226.077L904.644 227.919L900.47 230.33L897.104 233.906L892.01 237.258L884.564 238.612L878.359 238.951H874.975L874.447 240.132V242.536L878.923 242.732L885.894 242.709L890.881 242.222L894.942 240.417L898.172 237.484L902.839 232.966L906.956 230.715L910.966 229.82L914.759 228.919L919.552 226.492L918.218 223.2L915.391 224.966Z" fill="#B78FFF" />
		<path fill-rule="evenodd" clip-rule="evenodd" d="M799.201 195.406C798.976 195.483 794.087 203.076 794.087 203.076L787.241 209.365L790.05 211.147L798.073 203.753L803.83 193.951L805.091 189.955L802.093 187.853C802.093 187.853 799.427 195.33 799.201 195.406Z" fill="#B78FFF" />
		<path fill-rule="evenodd" clip-rule="evenodd" d="M939.416 242.904H937.393L933.375 251.06L932.591 258.355L932.924 264.071L934.721 270.625L937.63 270.072L937.699 267.53L935.69 262.04L936.233 253.165L939.416 242.904Z" fill="#B78FFF" />
		<path fill-rule="evenodd" clip-rule="evenodd" d="M968.873 303.555L970.151 300.02L968.045 297.313L963.811 294.407L961.696 293.26L960.374 296.561L965.263 299.645L966.166 301.224L965.299 304.321L967.586 308.97V312.352L971.381 309.675L969.7 305.511L968.873 303.555Z" fill="#B78FFF" />
		<path fill-rule="evenodd" clip-rule="evenodd" d="M976.994 279.263L971.053 277.573L966.736 279.105L964.099 283.04L962.485 290.105L970.075 294.756L973.404 298.861L972.783 303.18L973.986 307.617L978.165 301.881L981.14 294.035V285.882L976.994 279.263Z" fill="#B78FFF" />
		<path d="M941.27 258.605L909.218 349.351L909.567 351.274L911.564 352.542L913.389 351.797L914.617 349.028L946.16 259.145L944.242 258.806L941.27 258.605Z" fill="#C4D5FA" />
		<path d="M954.429 236.304L992.35 128.468L991.012 126.735L987.828 126.335L949.145 236.304L952.249 236.375L954.429 236.304Z" fill="#C4D5FA" />
		<path d="M991.631 130.979H996.851L1003.11 132.634L1008.11 135.988L1012.76 141.937L1017.26 150.616L1023.65 157.236L1030.8 160.333L1038.61 160.497L1047.02 157.325L1053.56 151.859L1057.92 145.766L1041.43 218.699L1038.86 220.918L1030.44 224.046L1024.78 225.085L1017.16 224.966L1010.04 223.528L1003.52 220.44L998.724 216.444L993.699 208.641L989.053 200.165L983.777 195.68L978.909 193.929L969.701 192.878L991.631 130.979Z" fill="#B78FFF" />
		<path fill-rule="evenodd" clip-rule="evenodd" d="M1031.91 170.776C1029.92 168.268 1026.57 166.568 1021.88 165.675C1016.85 164.93 1012.09 165.315 1007.59 166.829C1003.09 168.313 1000.45 170.584 999.666 173.642C999.48 175.069 999.776 176.206 1000.55 177.05C1001.37 177.867 1002.2 178.345 1003.03 178.486C1003.4 178.545 1003.7 178.527 1003.92 178.431C1004.03 178.374 1004.12 178.285 1004.17 178.177C1004.23 178.068 1004.25 177.944 1004.23 177.823C1004.79 175.473 1006.84 173.425 1010.38 171.679C1013.93 169.934 1018.09 169.378 1022.86 170.013C1025.49 170.491 1027.36 171.281 1028.47 172.385C1029.58 173.489 1030 174.815 1029.73 176.363C1029.07 179.071 1027.2 181.471 1024.11 183.564C1021.02 185.656 1017.89 186.521 1014.72 186.157C1014.02 186.039 1013.5 185.85 1013.17 185.591C1015.11 182.998 1016.92 180.774 1018.59 178.917C1020.22 177.088 1021.65 176.225 1022.87 176.328C1023.06 176.395 1023.22 176.388 1023.34 176.306C1023.41 176.251 1023.47 176.142 1023.5 175.977C1023.54 175.542 1023.36 175.036 1022.94 174.458C1022.54 173.846 1021.93 173.456 1021.14 173.288C1017.91 173.661 1013.85 176.627 1008.97 182.186C1004.13 187.784 999.969 190.749 996.505 191.083C995.942 190.954 995.582 190.758 995.422 190.493C995.296 190.235 995.067 190.06 994.742 189.971C994.594 189.937 994.439 189.945 994.295 189.991C994.15 190.038 994.021 190.123 993.92 190.237C993.705 190.473 993.565 190.806 993.485 191.233C993.291 192.321 993.543 193.517 994.24 194.822C994.936 196.128 996.144 196.976 997.863 197.367C1000.12 197.645 1002.39 196.841 1004.69 194.954C1006.95 193.06 1009.15 190.748 1011.29 188.02C1011.68 188.858 1012.26 189.598 1012.97 190.188C1013.72 190.79 1014.73 191.214 1015.99 191.461C1019.56 191.892 1023.23 190.898 1027 188.477C1030.77 186.025 1033.13 182.825 1034.07 178.876C1034.6 175.948 1033.88 173.248 1031.91 170.776Z" fill="white" />
		<path d="M925.532 303.156C923.674 298.866 922.221 295.086 921.902 293.327C921 288.364 918.631 267.073 918.631 267.073" stroke="black" stroke-width="1.77578" stroke-miterlimit="10" />
		<path d="M917.88 339.787C924.521 341.111 933.656 341.222 940.443 337.25C945.274 334.422 943.195 327.716 937.247 323.996C935.027 322.609 934.211 320.965 933.145 319.01C931.872 316.672 930.299 313.528 928.735 310.22" stroke="black" stroke-width="1.77578" stroke-miterlimit="10" />
		<path d="M833.911 213.751C833.911 213.751 820.244 243.866 821.912 271.819C822.513 281.897 826.029 301.226 848.188 306.866C870.347 312.507 869.24 309.52 881.875 315.834C894.511 322.148 905.418 335.19 911.862 338C912.187 338.141 912.538 338.283 912.912 338.421" stroke="black" stroke-width="1.77578" stroke-miterlimit="10" />
		<path d="M831.91 297.772C830.185 299.645 827.177 305.512 826.876 312.28C826.575 319.048 825.134 319.601 823.413 321.907C822.041 323.748 819.727 328.6 823.714 331.835C829.333 336.393 842.913 336.604 850.488 333.64C853.951 332.286 856.792 328.853 858.912 322.659C861.681 314.557 864.328 312.868 866.735 310.769" stroke="black" stroke-width="1.77578" stroke-miterlimit="10" />
		<path d="M914.757 216.444C916.149 218.644 918.902 223.94 920.098 226.767C921.341 229.697 924.292 237.57 926.19 239.514C928.207 241.583 934.523 242.899 939.713 242.444" stroke="black" stroke-width="1.77578" stroke-miterlimit="10" />
		<path d="M942.501 269.374C946.096 268.872 949.62 267.858 952.817 266.136C957.029 263.843 960.686 260.11 962.154 255.482C962.332 254.771 962.398 254.022 962.448 253.278C962.657 248.809 961.932 243.866 958.858 240.45C957.81 239.324 956.505 238.468 955.055 237.955C952.715 237.136 950.136 237.115 947.697 237.511C942.52 238.352 939.589 243.11 938.867 247.999C938.531 250.213 938.519 252.549 939.183 254.693C939.38 255.291 939.627 255.847 940.007 256.316C940.72 257.076 941.624 257.631 942.625 257.922C943.539 258.188 944.423 258.188 945.389 258.334C946.486 258.486 947.439 259.016 947.99 260.016C948.231 260.451 948.412 260.917 948.527 261.401C948.27 260.998 947.975 260.621 947.646 260.274C946.587 259.144 945.408 259.374 943.875 259.43C943.081 259.462 942.287 259.366 941.523 259.147C940.464 258.818 939.502 258.236 938.719 257.45C937.158 255.645 936.766 253.028 936.696 250.734C936.638 245.662 938.607 240.198 942.992 237.327C944.542 236.337 946.298 235.715 948.125 235.508C950.838 235.169 953.686 235.297 956.252 236.342C959.308 237.585 961.511 240.035 962.786 243.037C964.338 246.766 964.713 250.921 964.23 254.909C964.18 255.282 964.107 255.652 964.01 256.016C963.047 259.094 961.162 261.812 958.868 264.03C956.795 266.033 954.316 267.592 951.681 268.746C948.84 269.968 945.793 270.734 942.739 271.129L942.501 269.369V269.374Z" fill="black" />
		<path d="M904.643 252.714C905.964 254.762 907.295 256.809 908.904 258.642C914.765 265.374 923.422 268.803 932.18 269.563C933.779 269.707 935.396 269.763 937.009 269.761L937.029 271.536C928.853 271.674 920.469 270.102 913.767 265.159C909.817 262.288 905.807 257.523 904.65 252.714H904.643Z" fill="black" />
		<path d="M934.163 294.494C940.162 297.534 946.931 299.988 951.725 299.344C961.804 297.99 961.954 293.928 962.706 288.512C963.458 283.096 966.015 275.426 973.987 278.134C981.96 280.842 985.57 295.733 973.987 307.612C963.251 318.628 946.39 319.502 929.749 307.018" stroke="black" stroke-width="1.77578" stroke-miterlimit="10" />
		<path d="M920.81 285.67C921.609 286.735 925.032 289.304 929.497 291.938" stroke="black" stroke-width="1.77578" stroke-miterlimit="10" />
		<path d="M960.034 296.222C961.352 297.013 965.488 299.72 966.014 300.698C966.541 301.677 965.037 303.706 965.338 304.684C965.638 305.661 968.019 309.404 967.516 312.422" stroke="black" stroke-width="1.77578" stroke-miterlimit="10" />
		<path d="M961.695 293.261C965.187 294.928 969.06 297.99 969.789 299.711C970.223 300.733 968.724 303.344 969.023 304.323C969.322 305.301 971.243 307.485 970.737 310.502" stroke="black" stroke-width="1.77578" stroke-miterlimit="10" />
		<path d="M962.485 290.109C967.585 292.128 972.257 296.227 973.327 298.594C973.786 299.606 972.462 302.626 972.763 303.603C973.064 304.581 973.836 305.59 973.986 307.621" stroke="black" stroke-width="1.77578" stroke-miterlimit="10" />
		<path d="M820.001 201.116C818.492 200.208 816.698 199.022 815.257 198.041C799.364 187.183 783.752 175.895 768.085 164.718C767.624 164.389 767.286 164.125 766.796 163.954L766.707 163.928L766.53 163.876L766.352 163.84L766.263 163.821L766.175 163.811C765.714 163.753 765.247 163.795 764.805 163.933C764.362 164.071 763.954 164.302 763.608 164.61C762.542 165.558 762.424 167.038 762.997 168.396C763.284 169.135 763.865 169.937 764.354 170.589C766.719 173.828 769.568 176.627 772.415 179.447C772.973 180.009 773.619 180.69 774.125 181.297C774.651 181.96 775.18 182.676 775.386 183.517C775.742 184.843 775.47 186.198 775.437 187.483C775.398 188.227 775.483 188.973 775.686 189.69C775.899 190.4 776.28 191.068 776.714 191.693C776.939 192.046 777.192 192.38 777.47 192.692C780.161 195.566 787.175 196.314 791.055 196.865C788.558 196.982 786.039 196.948 783.555 196.633C780.668 196.238 777.48 195.523 775.564 193.122C775.153 192.601 774.722 192.064 774.41 191.475C773.511 189.877 773.467 188.161 773.713 186.42C773.789 185.799 773.872 185.212 773.858 184.685C773.864 184.196 773.743 183.714 773.509 183.284C773.329 182.99 773.129 182.707 772.913 182.437C772.605 182.048 772.219 181.633 771.881 181.268C769.057 178.377 766.066 175.563 763.608 172.33C763.262 171.9 762.803 171.251 762.476 170.809C761.233 169.122 760.45 166.746 761.468 164.736C762.433 162.743 764.812 161.725 766.94 162.25C767.397 162.365 767.836 162.544 768.242 162.783C781.684 172.298 795.057 181.929 808.582 191.318C811.091 193.062 813.712 194.87 816.249 196.58C817.174 197.21 818.413 198.016 819.339 198.622L820.883 199.573L820.005 201.117L820.001 201.116Z" fill="black" />
		<path d="M827.874 230.33C819.958 227.92 792.434 216.445 773.629 198.311" stroke="black" stroke-width="1.77578" stroke-miterlimit="10" />
		<path d="M767.446 175.572C759.489 186.404 765.962 205.171 780.11 195.316" stroke="black" stroke-width="1.77578" stroke-miterlimit="10" />
		<path d="M787.239 209.454C790.136 207.59 801.412 196.767 802.091 187.85" stroke="black" stroke-width="1.77578" stroke-miterlimit="10" />
		<path d="M790.048 211.147C792.945 209.282 804.219 198.46 804.9 189.543" stroke="black" stroke-width="1.77578" stroke-miterlimit="10" />
		<path d="M937.696 242.536C935.553 244.933 929.356 256.058 934.718 270.625" stroke="black" stroke-width="1.77578" stroke-miterlimit="10" />
		<path d="M937.902 247.741C936.684 251.661 933.574 256.399 937.452 269.47" stroke="black" stroke-width="1.77578" stroke-miterlimit="10" />
		<path d="M831.876 218.699C833.795 221.126 837.354 225.807 838.097 229.49C839.21 235.002 838.434 237.172 845.797 239.928C852.164 242.311 855.12 244.817 864.48 239.928C872.471 235.755 868.842 235.717 879.523 235.416C890.203 235.115 891.255 234.215 894.866 231.356C898.476 228.497 902.235 225.338 906.297 224.135C910.359 222.932 912.839 223.214 917.014 220.44" stroke="black" stroke-width="1.77578" stroke-miterlimit="10" />
		<path d="M918.43 223.2C916.827 224.621 912.715 226.341 907.35 227.107C903.953 227.591 899.729 231.506 896.518 234.44C893.565 237.139 891.504 238.398 884.443 238.775C879.17 239.055 877.561 238.802 875.755 239.028C873.95 239.253 873.459 242.523 876.608 242.734C881.121 243.035 884.084 242.911 887.238 242.583C890.313 242.265 894.458 241.685 898.341 237.711C903.032 232.911 905.541 230.963 908.134 230.332C910.728 229.701 915.358 229.686 919.869 226.253" stroke="black" stroke-width="1.77578" stroke-miterlimit="10" />
		<path d="M830.571 222.198C832.525 225.067 833.452 226.088 834.188 227.415C835.069 229.006 832.717 231.33 830.691 228.91C830.07 228.168 829.505 227.47 828.986 226.806" stroke="black" stroke-width="1.77578" stroke-miterlimit="10" />
		<path d="M941.385 258.276L909.217 349.351C909.13 349.596 909.093 349.857 909.108 350.117C909.122 350.377 909.188 350.632 909.302 350.866C909.416 351.101 909.575 351.31 909.77 351.483C909.965 351.655 910.193 351.787 910.439 351.871L910.989 352.06L911.418 352.205C911.911 352.374 912.45 352.341 912.919 352.114C913.388 351.887 913.748 351.484 913.922 350.992L946.394 259.055" stroke="black" stroke-width="1.77578" stroke-miterlimit="10" />
		<path d="M954.429 236.303L992.237 129.262C992.324 129.015 992.362 128.754 992.347 128.493C992.332 128.233 992.266 127.977 992.152 127.742C992.038 127.507 991.879 127.297 991.683 127.124C991.487 126.951 991.259 126.819 991.012 126.735L990.043 126.404C989.548 126.236 989.007 126.269 988.537 126.496C988.067 126.724 987.706 127.128 987.532 127.621L949.146 236.303" stroke="black" stroke-width="1.77578" stroke-miterlimit="10" />
		<path d="M991.598 131.074C994.595 131.175 1007.26 128.483 1014.75 145.917C1023.47 166.223 1046.79 165.321 1057.92 145.766L1041.22 219.622C1041.22 219.622 1023.48 231.026 1005.38 221.514C987.353 212.044 997.599 192.847 969.697 193.069" stroke="black" stroke-width="1.77578" stroke-miterlimit="10" />
		<path d="M931.723 199.747C929.631 203.264 927.152 206.536 924.332 209.502C921.62 212.335 918.629 214.886 915.403 217.117C914.619 217.665 913.716 218.263 912.899 218.765C912.071 219.256 911.189 219.9 910.261 220.186C909.756 220.338 909.235 220.428 908.708 220.452C908.52 220.461 908.331 220.456 908.144 220.438C908.377 220.193 908.628 219.965 908.893 219.755C909.109 219.577 909.454 219.329 909.687 219.165C910.219 218.779 910.808 218.499 911.359 218.15C915.218 215.723 918.784 212.86 921.988 209.617L923.161 208.382L923.972 207.476C924.41 206.996 924.968 206.307 925.393 205.811C927.171 203.612 928.779 201.279 930.201 198.834L931.723 199.748V199.747Z" fill="black" />
		<path d="M935.882 155.86C937.287 160.257 938.126 164.815 938.379 169.424" stroke="black" stroke-width="1.77578" stroke-miterlimit="10" />
		<path d="M885.272 227.431C884.66 227.668 884.029 227.775 883.4 227.901C881.508 228.248 879.582 228.309 877.666 228.412C872.865 228.59 868.015 228.305 863.283 227.444C844.605 224.062 827.18 213.102 816.976 196.965C812.901 190.565 810.016 183.385 808.666 175.915C807.43 169.05 807.539 162.011 808.987 155.188C813.249 134.962 828.813 119.667 848.154 113.274C866.21 107.215 886.574 109.12 903.5 117.708C905.796 118.876 908.029 120.165 910.189 121.568L909.218 123.055C900.803 117.567 891.188 113.952 881.26 112.395C864.559 109.716 846.731 113.188 832.798 122.934C818.189 133.078 809.32 149.322 809.642 167.202C809.792 175.491 811.973 183.709 815.769 191.069C822.346 203.937 833.588 214.154 846.618 220.268C852.3 222.953 858.35 224.817 864.518 226.006C868.849 226.843 873.248 227.403 877.659 227.503C878.924 227.526 880.19 227.526 881.457 227.485C882.733 227.46 883.992 227.324 885.275 227.431H885.272Z" fill="black" />
		<path d="M854.123 224.22C862.895 225.712 878.681 225.717 892.546 216.994C906.412 208.272 908.093 193.582 908.934 189.453C909.776 185.323 909.556 172.119 921.765 165.78C933.975 159.441 944.85 153.008 941.66 126.945C938.533 101.433 915.793 111.674 905.564 127.771" stroke="black" stroke-width="1.77578" stroke-miterlimit="10" stroke-linecap="round" />
		<path d="M839.728 217.593C857.45 224.84 871.949 221.443 880.431 219.131C889.197 216.742 903.794 208.807 905.364 189.07C905.636 185.651 902.117 185.94 901.697 188.642C901.186 191.927 900.269 205.17 887.213 212.511C879.236 216.997 858.73 224.581 829.842 210.469" stroke="black" stroke-width="1.77578" stroke-miterlimit="10" stroke-linecap="round" />
		<path d="M825.487 127.733C825.62 108.942 830.416 65.6514 862.601 111.04" stroke="black" stroke-width="1.77578" stroke-miterlimit="10" />
		<path d="M833.747 121.205C833.569 112.54 835.591 86.8619 849.462 113.363" stroke="black" stroke-width="1.77578" stroke-miterlimit="10" />
		<path d="M856.409 112.037C856.31 111.566 856.185 111.102 856.033 110.646C855.832 110.043 855.595 109.411 855.341 108.828C854.187 106.139 852.574 103.616 850.752 101.324C850.429 100.917 849.942 100.357 849.608 99.9544L850.264 100.562C852.691 102.813 854.847 105.367 856.531 108.228C857 109.025 857.419 109.851 857.785 110.701C857.901 110.977 858.015 111.262 858.11 111.548L858.132 111.621L856.406 112.037H856.409Z" fill="black" />
		<path d="M924.198 146.75C939.596 109.525 919.018 118.87 911.892 132.493C911.509 133.226 911.52 133.214 911.972 133.647C916.075 137.581 919.201 141.778 922.37 147.456C923.269 149.061 923.957 147.337 924.198 146.75Z" stroke="black" stroke-width="1.77578" stroke-miterlimit="10" />
		<path d="M937.418 126.116C938.218 133.723 935.021 142.625 931.026 149.023C930.422 150.001 929.77 150.947 929.072 151.859C929.427 150.766 929.851 149.71 930.246 148.635C931.256 146.006 932.281 143.367 933.231 140.716C934.975 135.956 936.374 131.077 937.418 126.116Z" fill="black" />
		<path d="M932.154 111.157C934.748 111.624 936.217 115.308 936.704 117.583C936.886 118.407 937.015 119.242 937.091 120.083C936.787 118.871 936.358 117.695 935.813 116.572C935.178 115.248 933.581 112.828 932.009 112.77L932.154 111.157Z" fill="black" />
		<path d="M926.077 176.745C927.829 173.632 930.887 171.168 934.45 170.53C936.662 170.129 938.945 170.455 940.956 171.459C945.031 173.475 947.38 177.977 947.644 182.404C948.033 188.297 945.023 194.502 939.66 197.217C935.575 199.322 930.563 198.745 927.274 195.48C925.219 193.471 924.011 190.693 923.727 187.857C924.218 189.872 925.101 191.805 926.431 193.397C928.526 195.994 931.911 197.494 935.234 197.042C942.006 196.139 946.296 188.986 945.895 182.509C945.756 179.893 944.891 177.282 943.253 175.221C942.035 173.649 940.361 172.492 938.46 171.907C936.559 171.323 934.524 171.339 932.633 171.954C929.994 172.773 927.739 174.561 926.073 176.749L926.077 176.745Z" fill="black" />
		<path d="M946.309 187.279C948.316 178.962 943.632 170.696 935.846 168.816C928.06 166.937 920.12 172.156 918.113 180.474C916.105 188.791 920.789 197.058 928.575 198.937C936.362 200.816 944.301 195.597 946.309 187.279Z" stroke="black" stroke-width="1.77578" stroke-miterlimit="10" />
		<path d="M938.891 185.261C939.535 182.594 938.388 180.03 936.329 179.533C934.27 179.036 932.08 180.795 931.436 183.461C930.792 186.128 931.939 188.692 933.998 189.189C936.057 189.686 938.248 187.928 938.891 185.261Z" stroke="black" stroke-width="1.77578" stroke-miterlimit="10" />
		<path d="M873.594 110.71C869.223 112.93 863.703 117.875 861.54 121.681C854.682 133.751 867.179 140.635 878.131 134.621C882.881 132.012 891.366 122.798 903.396 118.652" stroke="black" stroke-width="1.77578" stroke-miterlimit="10" />
		<path d="M868.723 110.649C864.356 112.867 859.916 117.858 858.058 121.819C851.091 136.682 867.987 144.195 879.326 137.472C886.588 133.166 894.675 123.71 907.589 120.625" stroke="black" stroke-width="1.77578" stroke-miterlimit="10" />
		<path d="M863.545 110.995C859.549 113.959 856.561 118.104 854.791 122.108C848.271 136.859 865.217 149.628 881.183 140.145C888.441 135.832 895.922 126.69 909.009 123.109" stroke="black" stroke-width="1.77578" stroke-miterlimit="10" />
		<path d="M852.438 173.287C853.176 175.089 848.455 176.698 846.675 176.264C844.578 175.749 842.778 172.502 842.955 170.688C843.128 168.947 850.769 169.211 852.438 173.287Z" fill="#C53F7F" />
		<path d="M836.249 183.918C836.071 184.722 837.669 189.511 840.361 184.909L836.249 183.918Z" fill="white" />
		<path d="M856.11 190.666C856.145 191.323 857.395 195.924 860.616 191.07L856.11 190.666Z" fill="white" />
		<path d="M841.598 190.242C841.332 190.864 847.547 196.191 854.791 192.861C854.791 192.861 851.999 187.572 847.549 190.159C847.549 190.159 843.355 186.201 841.598 190.242Z" fill="#C53F7F" />
		<path d="M841.055 189.546C841.055 189.546 844.372 186.491 847.927 189.883L850.59 189.074L845.731 184.149L840.576 185.126L839.576 186.67L841.055 189.546Z" fill="#5A233D" />
		<path d="M869.503 166.13C882.393 154.825 896.366 157.123 907.985 170.96C908.411 171.467 908.555 172.007 906.859 174.556C894.797 192.69 874.689 181.544 870.016 171.547C868.846 169.05 868.734 166.803 869.503 166.13Z" fill="white" />
		<path d="M844.695 158.968C842.055 144.992 829.186 137.553 817.062 145.738C816.539 146.093 815.714 147.382 815.913 150.378C817.133 168.684 834.346 170.395 844.434 161.891C845.348 161.123 844.882 159.957 844.695 158.968Z" fill="white" />
		<path d="M868.99 166.621C874.504 161.088 892.49 150.872 908.105 171.667" stroke="black" stroke-width="1.77578" stroke-miterlimit="10" />
		<path d="M845.106 160.856C843.31 151.07 835.142 135.276 816.478 146.071" stroke="black" stroke-width="1.60886" stroke-miterlimit="10" />
		<path d="M886.604 178.934C891.926 178.934 896.24 174.619 896.24 169.297C896.24 163.975 891.926 159.661 886.604 159.661C881.282 159.661 876.968 163.975 876.968 169.297C876.968 174.619 881.282 178.934 886.604 178.934Z" fill="black" />
		<path d="M843.177 155.171C841.823 160.783 836.681 163.695 831.507 162.452C826.334 161.209 823.516 156.295 824.765 151.121C826.013 145.948 831.082 142.653 836.031 144.61C839.727 146.068 843.719 152.923 843.177 155.171Z" fill="black" />
		<path d="M842.742 170.271C841.315 170.159 835.326 171.787 834.012 178.351C832.853 184.147 841.551 185.742 843.94 184.727C844.568 184.461 845.205 184.171 845.866 183.573" stroke="black" stroke-width="1.77578" stroke-miterlimit="10" stroke-linecap="round" />
		<path d="M847.422 177.024C846.66 179.599 846.052 182.601 847.542 185.015C848.206 185.959 849.147 186.692 850.142 187.314C852.217 188.593 854.613 189.32 857.03 189.603C858.251 189.744 859.482 189.779 860.709 189.707C861.096 189.689 861.482 189.644 861.863 189.571C864.059 189.169 865.648 187.562 865.716 185.316C865.759 184.37 865.55 183.323 865.216 182.397C864.92 181.606 864.52 180.68 864.266 179.864C864.121 179.422 864.012 178.969 863.939 178.51C864.29 178.77 864.622 179.056 864.931 179.364C865.72 180.14 866.424 181.037 866.869 182.057C868.252 185.037 867.772 188.488 864.86 190.341C863.626 191.123 862.219 191.456 860.793 191.523C859.46 191.599 858.123 191.559 856.798 191.404C853.246 190.934 849.662 189.635 847.045 187.092C846.36 186.42 845.772 185.571 845.455 184.643C844.46 182.015 844.986 179.138 845.708 176.542C846.063 175.41 847.699 175.868 847.418 177.021L847.422 177.024Z" fill="black" />
		<path d="M852.438 173.287C853.176 175.089 848.455 176.698 846.675 176.264C844.578 175.749 842.778 172.502 842.955 170.688C843.128 168.947 850.769 169.211 852.438 173.287Z" stroke="black" stroke-width="1.77578" stroke-miterlimit="10" stroke-linecap="round" />
		<path d="M835.566 182.83C835.77 183.896 837.253 190.588 840.635 184.873" stroke="black" stroke-width="1.77578" stroke-miterlimit="10" stroke-linecap="round" />
		<path d="M855.428 190.228C855.694 191.282 857.507 196.64 860.521 190.72" stroke="black" stroke-width="1.77578" stroke-miterlimit="10" stroke-linecap="round" />
		<path d="M839.518 186.403C839.936 188.916 845.622 198.141 856.066 191.899" stroke="black" stroke-width="1.77578" stroke-miterlimit="10" stroke-linecap="round" />
		<path d="M841.362 189.955C842.13 188.854 844.684 186.892 847.631 189.821" stroke="black" stroke-width="1.77578" stroke-miterlimit="10" stroke-linecap="round" />
		<path d="M846.821 190.812C848.082 189.469 851.146 187.512 854.865 192.561" stroke="black" stroke-width="1.77578" stroke-miterlimit="10" stroke-linecap="round" />
		<path d="M841.567 195.406C843.542 197.642 846.825 199.015 851.289 197.935" stroke="black" stroke-width="1.77578" stroke-miterlimit="10" stroke-linecap="round" />
		<path d="M868.937 166.05C879.134 148.162 903.18 155.281 908.004 169.701C908.215 170.329 908.551 172.009 906.855 174.557C894.793 192.69 874.685 181.544 870.012 171.547C868.847 169.05 868.432 166.935 868.937 166.05Z" stroke="black" stroke-width="1.77578" stroke-miterlimit="10" />
		<path d="M845.359 158.557C844.649 138.655 826.462 133.995 816.994 144.965C816.582 145.443 815.713 147.383 815.913 150.381C817.133 168.688 834.346 170.398 844.434 161.894C845.348 161.123 845.395 159.563 845.359 158.557Z" stroke="black" stroke-width="1.60886" stroke-miterlimit="10" />
	</g>
	<defs>
		<filter id="filter0_d_224_6364" x="900" y="468" width="188.257" height="177" filterUnits="userSpaceOnUse" color-interpolation-filters="sRGB">
			<feFlood flood-opacity="0" result="BackgroundImageFix" />
			<feColorMatrix in="SourceAlpha" type="matrix" values="0 0 0 0 0 0 0 0 0 0 0 0 0 0 0 0 0 0 127 0" result="hardAlpha" />
			<feOffset dy="4" />
			<feGaussianBlur stdDeviation="2" />
			<feComposite in2="hardAlpha" operator="out" />
			<feColorMatrix type="matrix" values="0 0 0 0 0 0 0 0 0 0 0 0 0 0 0 0 0 0 0.25 0" />
			<feBlend mode="normal" in2="BackgroundImageFix" result="effect1_dropShadow_224_6364" />
			<feBlend mode="normal" in="SourceGraphic" in2="effect1_dropShadow_224_6364" result="shape" />
		</filter>
		<radialGradient id="paint0_radial_224_6364" cx="0" cy="0" r="1" gradientUnits="userSpaceOnUse" gradientTransform="translate(542 318.5) rotate(90) scale(318.5 542)">
			<stop offset="0.296875" stop-color="#191D3A" stop-opacity="0" />
			<stop offset="1" />
		</radialGradient>
		<clipPath id="clip0_224_6364">
			<rect width="1084" height="637" fill="white" />
		</clipPath>
	</defs>
</svg>
