<svg width="160" height="200" viewBox="0 0 160 200" fill="none" xmlns="http://www.w3.org/2000/svg">
  <g>
    <path fill-rule="evenodd" clip-rule="evenodd" d="M86.7077 104.257C86.7077 92.3359 82.8657 82.513 75.5974 75.8485C68.9368 69.7418 59.7697 66.5143 49.0871 66.5143C43.3265 66.5143 37.91 67.4912 33.1134 69.3637C34.4965 64.0363 35.2468 58.5737 35.2468 53.2939C35.2468 41.3731 31.4049 31.5498 24.1361 24.8857C17.4759 18.779 8.30847 15.5515 -2.37376 15.5515C-21.0516 15.5515 -34.6279 25.4083 -38.6901 41.9192C-39.0768 43.4902 -38.1163 45.0772 -36.5453 45.4639C-34.9739 45.8517 -33.3873 44.8901 -33.0006 43.3191C-29.575 29.3956 -18.4119 21.4105 -2.37376 21.4105C6.81754 21.4105 14.6155 24.1057 20.1766 29.2042C26.2024 34.7293 29.3878 43.0589 29.3878 53.2939C29.3878 64.2961 25.7653 76.4602 19.6973 85.8324C13.4808 95.4342 5.43636 100.941 -2.37376 100.941C-15.5305 100.941 -31.7253 83.2806 -33.9279 57.9382C-34.0681 56.3266 -35.4868 55.1298 -37.1 55.2735C-38.7116 55.4133 -39.9049 56.834 -39.7647 58.4456C-37.9792 78.9894 -25.76 100.807 -9.33002 105.758L-10.8331 110.316C-12.142 114.286 -9.49017 118.68 -5.38649 119.399V128.973C-5.38649 131.389 -6.23761 133.572 -7.13834 135.883C-8.68396 139.847 -10.435 144.34 -7.84729 150.206C-5.77552 154.903 -1.95034 157.987 -1.43045 163.306C-1.5695 168.123 -5.98567 171.657 -7.82932 175.837C-10.4171 181.703 -8.66599 186.196 -7.12037 190.159C-6.21925 192.471 -5.36852 194.654 -5.36852 197.07C-5.36852 198.688 -4.05687 200 -2.43899 200C-0.821106 200 0.49054 198.688 0.49054 197.07C0.49054 193.552 -0.652756 190.619 -1.66169 188.031C-3.06239 184.438 -4.07484 181.842 -2.46907 178.202C-0.0906792 172.811 4.43251 169.391 4.43251 163.022C4.43251 156.676 -0.124268 153.197 -2.48703 147.841C-4.0928 144.201 -3.08075 141.605 -1.67965 138.011C-0.670723 135.423 0.472569 132.49 0.472569 128.973V119.424C4.64578 118.796 7.42024 114.363 6.08554 110.316L4.58016 105.751C6.98003 105.023 9.2924 103.934 11.4966 102.539C10.8728 122.426 21.1636 150.352 42.1332 156.713L40.6278 161.278C39.308 165.279 42.0117 169.699 46.1576 170.373V197.069C46.1576 198.687 47.4692 199.999 49.0871 199.999C50.705 199.999 52.0166 198.687 52.0166 197.069V170.373C56.1488 169.701 58.8709 165.294 57.5464 161.278L56.041 156.714C73.7635 151.338 86.7077 126.216 86.7077 104.257ZM-0.560966 113.646H-4.18655C-5.05682 113.516 -5.41734 113.018 -5.26891 112.151L-3.4944 106.771C-2.74718 106.81 -1.99995 106.81 -1.25273 106.771L0.521397 112.151C0.669827 113.018 0.309299 113.516 -0.560966 113.646ZM17.3256 104.256C17.3256 101.969 17.4826 99.7547 17.7923 97.6751C17.804 97.5974 17.8095 97.5204 17.815 97.4435C23.1737 92.1199 27.5785 84.9566 30.6198 77.1028C35.6734 74.01 42.0519 72.3733 49.0871 72.3733C58.2784 72.3733 66.0764 75.0685 71.6374 80.1671C77.6633 85.6918 80.8486 94.0218 80.8486 104.256C80.8486 115.258 77.2262 127.423 71.1582 136.795C64.9417 146.397 56.8972 151.904 49.0871 151.904C41.277 151.904 33.2321 146.397 27.016 136.795C20.9484 127.423 17.3256 115.259 17.3256 104.256ZM50.8995 164.609H47.2739C46.4037 164.479 46.0431 163.98 46.1916 163.114L47.9657 157.734C48.7129 157.773 49.4601 157.773 50.2074 157.734L51.9815 163.114C52.1404 163.594 51.9506 163.961 51.8233 164.137C51.6959 164.313 51.4065 164.609 50.8995 164.609Z" fill="#6F99EB" />
    <path d="M63.6442 88.8806C65.6441 90.7141 67.1042 93.1652 67.9846 96.1662C69.0342 99.7425 74.6765 98.1633 73.607 94.5163C72.4215 90.4767 70.4017 87.1272 67.6038 84.5617C64.836 82.024 61.326 80.2338 57.1712 79.2402C55.5966 78.8632 54.017 79.8343 53.6405 81.408C53.2643 82.9825 54.2354 84.5629 55.8087 84.9391C58.9832 85.698 61.6193 87.0241 63.6442 88.8806Z" fill="#6F99EB" />
    <path fill-rule="evenodd" clip-rule="evenodd" d="M139.516 84.6672C140.775 83.6516 140.973 81.8076 139.958 80.5479C138.943 79.2882 137.098 79.0902 135.839 80.1057C131.481 83.6188 126.951 85.4004 122.375 85.4004C114.564 85.4004 106.52 79.8932 100.303 70.2918C94.2354 60.9193 90.613 48.7555 90.613 37.753C90.613 27.5184 93.7979 19.1884 99.8242 13.6637C105.386 8.56472 113.183 5.86995 122.375 5.86995C131.566 5.86995 139.364 8.56472 144.925 13.6637C150.951 19.1884 154.136 27.5184 154.136 37.753C154.136 48.3387 150.89 59.7408 145.231 69.0356C144.39 70.4176 144.828 72.2198 146.21 73.0616C147.592 73.9029 149.394 73.4643 150.236 72.0827C156.438 61.8958 159.996 49.3832 159.996 37.753C159.996 25.8321 156.154 16.0088 148.885 9.34476C142.224 3.23845 133.057 0.0108948 122.375 0.0108948C111.692 0.0108948 102.525 3.23845 95.8646 9.34476C88.5959 16.0088 84.7539 25.8321 84.7539 37.753C84.7539 59.6443 97.6185 84.6774 115.256 90.1587L113.981 94.0264C112.669 98.0032 115.332 102.403 119.445 103.112V116.226C119.445 120.862 118.356 123.558 117.303 126.167C114.597 132.872 116.088 138.215 120.179 144.001C121.971 146.537 123.387 148.539 123.387 151.576C123.387 156.539 118.869 160.118 116.984 164.392C113.404 172.508 119.445 177.829 119.445 185.625V197.071C119.445 198.689 120.757 200 122.375 200C123.992 200 125.304 198.689 125.304 197.071V185.625C125.304 179.257 119.585 173.012 122.344 166.757C124.723 161.367 129.246 157.947 129.246 151.577C129.246 146.678 126.97 143.459 124.963 140.619C121.972 136.39 120.736 133.315 122.736 128.361C123.88 125.527 125.304 122 125.304 116.226V103.133C129.467 102.496 132.232 98.0684 130.9 94.0292L129.617 90.1298C133.013 89.0615 136.323 87.2409 139.516 84.6672ZM124.253 97.3563H120.627C119.757 97.2267 119.397 96.7283 119.545 95.8615L121.076 91.2192C121.985 91.2758 122.895 91.2731 123.805 91.2114L125.335 95.8615C125.493 96.3416 125.304 96.7087 125.176 96.8845C125.049 97.0607 124.76 97.3563 124.253 97.3563Z" fill="#6F99EB" />
    <path d="M140.891 18.0587C138.123 15.5214 134.613 13.7308 130.459 12.7375C128.884 12.3618 127.305 13.3316 126.928 14.9054C126.552 16.4791 127.523 18.0595 129.096 18.436C132.27 19.195 134.907 20.5211 136.931 22.3772C138.931 24.2111 140.392 26.6621 141.272 29.6632C142.322 33.2395 147.964 31.6599 146.894 28.0132C145.709 23.9736 143.689 20.6242 140.891 18.0587Z" fill="#6F99EB" />
    <path d="M75.9663 5.67468C72.196 5.67468 72.1897 11.5341 75.9663 11.5341C79.7366 11.5341 79.7429 5.67468 75.9663 5.67468Z" fill="#6F99EB" />
    <path d="M63.6431 50.2035C59.8728 50.2035 59.8665 56.0629 63.6431 56.0629C67.4134 56.0629 67.4196 50.2035 63.6431 50.2035Z" fill="#6F99EB" />
    <path d="M99.4512 119.505C103.222 119.505 103.228 113.646 99.4512 113.646C95.6809 113.646 95.6746 119.505 99.4512 119.505Z" fill="#6F99EB" />
    <path d="M149.41 165.207C153.18 165.207 153.187 159.348 149.41 159.348C145.64 159.348 145.634 165.207 149.41 165.207Z" fill="#6F99EB" />
    <path d="M141.756 137.308C145.526 137.308 145.532 131.449 141.756 131.449C137.986 131.449 137.979 137.308 141.756 137.308Z" fill="#6F99EB" />
    <path d="M57.3292 25.5493L49.6742 17.8943C47.0821 15.3022 42.8206 19.327 45.5314 22.037L53.1865 29.6921C55.7996 32.3052 59.967 28.1863 57.3292 25.5493Z" fill="#6F99EB" />
    <path d="M86.1475 158.835C83.5578 161.424 87.6181 165.65 90.2903 162.978L97.9453 155.323C100.538 152.731 96.5126 148.47 93.8026 151.18L86.1475 158.835Z" fill="#6F99EB" />
    <path d="M139.685 191.487L147.34 199.142C149.953 201.755 154.12 197.636 151.483 194.999L143.827 187.344C141.235 184.752 136.974 188.777 139.685 191.487Z" fill="#6F99EB" />
    <path d="M154.993 96.8076L147.338 104.463C144.749 107.052 148.809 111.278 151.481 108.605L159.136 100.95C160.28 99.8066 160.28 97.9517 159.136 96.8076C157.992 95.6635 156.137 95.6635 154.993 96.8076Z" fill="#6F99EB" />
    <path d="M70.0676 191.487L77.7226 199.142C80.3358 201.755 84.5031 197.636 81.8654 194.999L74.2103 187.344C71.6183 184.752 67.3568 188.777 70.0676 191.487Z" fill="#6F99EB" />
  </g>
</svg>