<svg width="40" height="40" viewBox="0 0 40 40" fill="none" xmlns="http://www.w3.org/2000/svg">
	<circle cx="20" cy="20" r="20" fill="black" fill-opacity="0.15" />
	<path fill-rule="evenodd" clip-rule="evenodd" d="M18.5765 5.03493C11.4057 5.6745 5.7628 11.3628 5.06887 18.6513C4.36789 26.0138 9.08695 32.8937 16.0817 34.7069C22.7415 36.4333 29.6282 33.3276 32.8359 27.1512L33.1805 26.4878L33.1835 28.97C33.1852 30.3829 33.2163 31.5843 33.2557 31.759C33.3808 32.3139 33.6733 32.8373 34.1018 33.2732C34.487 33.6652 35.1544 34.0742 35.4084 34.0742C35.4914 34.0742 35.5092 34.2172 35.5092 34.8818C35.5092 35.7381 35.4579 35.9325 35.1556 36.2209C34.8036 36.5568 34.5946 36.5914 32.9127 36.5914H31.3381L31.1162 36.794C30.9326 36.9617 30.8943 37.0473 30.8943 37.2906C30.8943 37.5354 30.9324 37.6193 31.1218 37.7923L31.3492 38L33.1384 37.9774L34.9277 37.9548L35.3724 37.739C35.9116 37.4773 36.4017 36.9869 36.6538 36.4568C36.8206 36.1061 36.8417 35.9747 36.8649 35.148L36.8906 34.2291L37.6196 34.2035C38.2464 34.1815 38.4025 34.1508 38.7344 33.9848C39.1846 33.7596 39.6331 33.2912 39.8424 32.8279C40.0689 32.3264 40.0485 31.4399 39.7991 30.9478C39.4286 30.2167 38.9149 29.8188 38.1588 29.6774C37.3973 29.5349 36.6839 29.7916 36.1345 30.4059C35.7315 30.8566 35.5858 31.2477 35.5301 32.029C35.5074 32.3463 35.4619 32.6059 35.4288 32.6059C35.3958 32.6059 35.2358 32.47 35.0734 32.304C34.5255 31.7439 34.5514 32.0886 34.5514 25.3688C34.5514 21.6936 34.5236 19.1228 34.4788 18.6513C33.7933 11.4463 28.2319 5.76253 21.1815 5.06136C20.4838 4.992 19.2039 4.97899 18.5765 5.03493ZM21.3473 6.49013C21.9193 6.5453 22.9841 6.76471 23.5557 6.9451C23.9911 7.08257 24.0147 7.1025 24.4461 7.69732C26.5072 10.539 27.7834 13.7254 28.3031 17.3281C28.4748 18.5179 28.4748 21.6621 28.3031 22.8519C27.7867 26.4318 26.5649 29.5078 24.5205 32.3748C24.0105 33.0899 24.0083 33.092 23.5588 33.2338C22.7644 33.4846 20.7099 33.8453 20.6033 33.7527C20.5891 33.7404 20.7308 33.5167 20.918 33.2555C24.6187 28.0922 25.9853 21.6603 24.6932 15.4876C24.0451 12.3915 22.7816 9.52282 20.9268 6.93629C20.7442 6.68157 20.5948 6.45286 20.5948 6.42804C20.5948 6.40315 20.664 6.39727 20.7487 6.41503C20.8334 6.43272 21.1027 6.46649 21.3473 6.49013ZM19.3136 7.10215C21.0787 9.33682 22.33 11.8494 23.0975 14.7003C23.2261 15.1778 23.3187 15.5814 23.3033 15.5971C23.2604 15.6409 21.9397 14.8119 21.1924 14.2719C19.4106 12.9847 17.9929 11.5677 16.6267 9.70853C16.1005 8.99246 15.2596 7.64781 15.153 7.3519C15.1181 7.25527 15.2244 7.19738 15.7572 7.023C16.6578 6.72814 17.8376 6.48712 18.4844 6.46586L18.8027 6.45538L19.3136 7.10215ZM14.0271 8.18508C14.3018 8.71753 15.1324 10.0218 15.6018 10.6576C17.473 13.1928 19.7739 15.2145 22.6228 16.8266L23.6392 17.4017L23.6853 17.7844C23.77 18.4889 23.8231 21.0995 23.7548 21.1996C23.674 21.318 23.1461 21.1519 21.9631 20.6359C18.0022 18.9082 14.6778 15.9536 12.4727 12.2011C11.9999 11.3966 11.2219 9.80893 11.2219 9.6486C11.2219 9.52988 11.6102 9.1988 12.3217 8.71082C12.9051 8.31073 13.684 7.85583 13.7876 7.85457C13.8253 7.85415 13.9331 8.00287 14.0271 8.18508ZM27.2016 8.69886C29.684 10.397 31.5542 12.9035 32.4925 15.7898C33.9141 20.1629 33.0964 24.8986 30.2832 28.5854C29.8601 29.14 28.8128 30.2258 28.2572 30.686C27.7448 31.1105 26.603 31.9174 26.567 31.8806C26.5536 31.8669 26.6835 31.6121 26.8556 31.3146C30.2049 25.5247 30.7656 18.2642 28.3461 12.0141C27.9382 10.9605 27.3565 9.73125 26.8577 8.86912C26.6868 8.57357 26.5469 8.31668 26.5469 8.29836C26.5469 8.25585 26.6138 8.29682 27.2016 8.69886ZM10.6484 11.7065C11.2335 12.8757 12.1344 14.3041 12.9596 15.3709C13.6643 16.2818 15.4432 18.097 16.353 18.8334C18.3107 20.418 20.5833 21.6966 22.8134 22.468C23.4397 22.6846 23.5746 22.7562 23.5931 22.8817C23.6158 23.0364 23.335 24.597 23.1706 25.2292L23.0797 25.5788L22.7733 25.5631C22.3718 25.5426 20.691 25.0475 19.7396 24.6695C16.9815 23.5738 14.7541 22.0899 12.6562 19.9506C10.8872 18.1467 9.50271 16.1171 8.53696 13.9125L8.2031 13.1501L8.52581 12.6521C9.04549 11.8501 9.98818 10.6506 10.0988 10.6506C10.1105 10.6506 10.3578 11.1258 10.6484 11.7065ZM7.73692 15.4228C8.35108 16.6693 9.17329 17.9675 10.1169 19.181C10.8072 20.0687 12.5899 21.8828 13.4796 22.6029C15.8791 24.5452 18.672 25.9693 21.5868 26.737C22.1512 26.8857 22.6193 27.0084 22.627 27.0097C22.6611 27.0156 22.2685 28.0095 21.9182 28.8043L21.5355 29.6723L21.3217 29.6372C18.7564 29.2174 16.9442 28.6262 14.8143 27.5139C11.495 25.7806 8.55071 22.977 6.72417 19.8103L6.38141 19.216L6.44463 18.6216C6.53309 17.7906 6.74504 16.7609 6.98558 15.9935C7.20711 15.2867 7.37493 14.8459 7.42255 14.8459C7.43911 14.8459 7.58059 15.1055 7.73692 15.4228ZM7.51922 23.3413C10.5839 27.1031 15.2799 29.9277 19.9277 30.805C20.3699 30.8885 20.7316 30.9852 20.7316 31.02C20.7316 31.1196 19.8718 32.3656 19.3053 33.087L18.7902 33.7429L18.2864 33.6994C16.0511 33.5062 13.4402 32.4088 11.4614 30.8306C10.0524 29.7067 8.60264 27.8847 7.78371 26.2081C7.23496 25.0846 6.70351 23.4262 6.54136 22.3309L6.49525 22.0196L6.75085 22.3659C6.89144 22.5562 7.23721 22.9952 7.51922 23.3413ZM38.2618 31.1964C38.6363 31.4162 38.76 31.9766 38.5222 32.3752C38.3214 32.7118 38.0636 32.8156 37.4283 32.8156H36.8775L36.8779 32.3786C36.8784 31.8227 36.9712 31.4831 37.1764 31.286C37.4798 30.9947 37.8641 30.9629 38.2618 31.1964Z" fill="currentColor" fill-opacity="0.5" />
</svg>
