<svg width="130" height="156" viewBox="0 0 130 156" fill="none" xmlns="http://www.w3.org/2000/svg">
  <g>
    <path d="M109.223 55.7778V5.46018C109.223 3.60555 109.047 3 107.191 3H8.25866C6.40403 3 3.66699 3.60555 3.66699 5.46018V55.7778" stroke="#B5EB8C" stroke-width="5.29" stroke-linecap="round" stroke-linejoin="round" />
    <path d="M16.5583 65.963C1.10092 65.963 -13 77.3232 -13 92.7797V133.081C-13 134.935 -9.92593 137.259 -8.0713 137.259H124.445C126.301 137.259 126.815 134.935 126.815 133.081V92.7797C126.815 77.3232 115.273 65.963 99.8176 65.963H16.5583Z" stroke="#B5EB8C" stroke-width="5.29" stroke-linecap="round" stroke-linejoin="round" />
    <path d="M123.456 99.2964H-9.64167C-11.4963 99.2964 -13 100.8 -13 102.655V133.901C-13 135.756 -11.4963 137.259 -9.64167 137.259H123.456C125.311 137.259 126.815 135.756 126.815 133.901V102.655C126.815 100.8 125.311 99.2964 123.456 99.2964Z" stroke="#B5EB8C" stroke-width="5.29" stroke-linecap="round" stroke-linejoin="round" />
    <path d="M126.815 119.667V153" stroke="#B5EB8C" stroke-width="5.29" stroke-linecap="round" stroke-linejoin="round" />
    <path d="M74.9186 55.6926C74.9186 47.3713 76.7019 38.6083 76.7019 38.6083C76.7019 37.1315 75.5038 35.788 74.0269 35.788C74.0269 35.788 65.7056 37.4972 57.5334 37.4972C49.3612 37.4972 40.15 35.6778 40.15 35.6778C38.6713 35.6778 37.4741 36.8565 37.4741 38.3342C37.4741 38.3342 39.2574 46.7861 39.2574 55.7018" stroke="#B5EB8C" stroke-width="5.29" stroke-linecap="round" stroke-linejoin="round" />
  </g>
</svg>