<svg width="498" height="191" viewBox="0 0 498 191" fill="none" xmlns="http://www.w3.org/2000/svg">
<g opacity="0.05">
<path fill-rule="evenodd" clip-rule="evenodd" d="M316.55 30.0695C317.692 31.2532 319.435 31.8588 321.78 31.8863C327.433 31.4156 331.88 29.3954 335.107 25.8246C338.21 22.2636 339.772 18.5754 339.787 14.7647C339.735 12.9256 338.947 11.1758 337.421 9.51526C335.899 7.98205 333.843 7.20375 331.253 7.18344C325.842 7.76838 321.72 10.0238 318.87 13.9458C316.023 17.992 314.652 21.8518 314.757 25.5346C314.806 27.2526 315.403 28.7647 316.55 30.0695ZM309.135 111.808C310.953 110.048 312.745 108.257 314.511 106.434C314.284 107.526 314.1 108.588 313.961 109.619C313.953 114.673 314.964 118.451 316.99 120.955C318.894 123.457 321.071 124.73 323.531 124.778C324.756 124.802 325.869 124.518 326.869 123.921C327.747 123.197 328.451 122.226 328.972 121.003C332.826 114.424 341.13 104.3 353.893 90.6222C366.653 76.8256 377.988 66.0197 387.898 58.2014C382.441 64.872 376.815 73.512 371.016 84.1182C365.216 94.726 361.967 104.089 361.272 112.21C361.168 116.274 362.07 119.498 363.975 121.876C365.878 124.379 368.487 125.66 371.805 125.725C379.064 125.376 387.161 121.097 396.096 112.892C397.879 111.255 399.648 109.586 401.402 107.884C401.228 113.654 402.535 118.309 405.321 121.855C408.462 125.86 413.158 128.168 419.397 128.776C426.507 129.344 433.663 127.82 440.862 124.199C447.951 120.446 454.491 115.531 460.477 109.45C461.319 109.657 462.11 109.794 462.842 109.866C467.125 110.282 471.984 109.398 477.417 107.212C482.987 104.917 489.113 100.945 495.793 95.3036C496.251 93.3751 495.881 91.6745 494.686 90.2002C493.485 88.7262 492.114 88.2837 490.564 88.8733C486.612 92.1907 482.886 94.6046 479.381 96.1135C475.875 97.624 472.701 98.3645 469.862 98.3349C473.062 93.9586 475.651 89.5236 477.63 85.0253C479.598 80.6547 480.802 76.4496 481.244 72.4221C481.794 67.4194 480.95 62.7098 478.717 58.2977C476.356 53.8757 472.256 51.2565 466.411 50.439C463.96 50.2014 461.667 50.2869 459.518 50.6945C457.369 51.1037 455.44 51.7797 453.734 52.7239L453.547 52.7057C444.291 52.5451 433.867 57.9484 422.27 68.9112C415.336 75.4801 410.068 82.5498 406.467 90.1196C403.123 93.5355 400.028 96.5124 397.183 99.0496C391.773 103.999 388.206 106.515 386.486 106.604C385.255 106.579 384.663 105.708 384.706 103.981C384.938 99.6738 387.124 93.431 391.266 85.2558C395.282 77.0792 400.399 69.1072 406.619 61.3414C407.116 61.1053 407.433 60.7404 407.569 60.2499C407.826 59.7641 407.964 59.2135 407.979 58.595C408.049 55.8869 406.704 53.0878 403.954 50.1988C401.201 47.1866 397.372 45.5111 392.467 45.166C387.406 45.93 379.272 51.7472 368.059 62.6178C356.718 73.6104 346.421 84.685 337.169 95.84C340.801 88.1479 344.863 80.7723 349.344 73.712C353.827 66.5299 358.031 60.6371 361.96 56.029C362.459 55.6695 362.72 55.1188 362.739 54.3801C362.664 52.4109 361.551 50.2901 359.396 48.0317C357.115 45.8921 354.626 44.6725 351.931 44.3713C347.464 46.0109 340.36 54.7456 330.62 70.5721C327.847 75.1111 325.414 79.4122 323.32 83.4755C318.409 89.2276 313.859 94.0504 309.673 97.9397C304.141 103.211 300.204 105.952 297.867 106.167C296.632 106.217 295.993 105.384 295.944 103.66C296.062 99.1035 298.575 91.9234 303.486 82.1254C308.274 72.4573 313.705 63.5022 319.77 55.256C320.251 54.8681 320.484 54.3044 320.464 53.5667C320.295 51.9752 318.882 50.0619 316.227 47.8286C313.694 45.5931 311.065 44.4079 308.348 44.2666C304.192 45.7889 297.458 54.4894 288.152 70.3709C285.641 74.6215 283.441 78.7654 281.552 82.8026C278.638 86.4867 275.681 89.9852 272.68 93.3013C268.325 97.8535 264.162 101.649 260.188 104.683C261.097 98.5525 261.38 90.6154 261.037 80.8729C260.569 71.1412 262.235 61.8575 266.029 53.0218C266.72 52.3508 267.033 51.5832 266.97 50.7218C266.554 48.4071 264.596 46.0878 261.096 43.77C257.594 41.4508 254.18 40.302 250.85 40.3176C250.113 40.3764 249.387 40.5583 248.669 40.8632C248.072 41.1589 247.55 41.6322 247.107 42.2846C246.661 42.94 246.172 43.844 245.641 44.9994C242.47 50.5692 238.151 57.2793 232.683 65.1345C228.062 71.7455 224.275 77.0606 221.325 81.0813C221.029 81.2149 220.787 81.4077 220.596 81.6593C218.668 84.6425 216.79 87.4436 214.96 90.0624C214.661 89.0041 214.375 87.9265 214.102 86.8299C214.021 85.724 213.618 85.2642 212.89 85.4446C211.673 85.6652 210.392 86.6933 209.046 88.5321C207.585 90.5033 206.87 92.5387 206.903 94.6382C207.03 96.3641 207.288 98.0999 207.68 99.8455C206.572 101.229 205.485 102.535 204.419 103.762C199.375 109.595 195.701 112.742 193.405 113.208C192.792 113.298 192.332 113.121 192.023 112.669C191.605 112.36 191.338 111.782 191.22 110.933C190.844 106.409 192.564 99.0292 196.378 88.8019C200.208 78.695 204.688 69.2374 209.817 60.4199C210.253 59.9843 210.423 59.4003 210.321 58.6728C209.982 57.116 208.371 55.3733 205.491 53.4491C202.612 51.5265 199.812 50.6453 197.096 50.8007C196.118 50.946 194.896 51.9976 193.422 53.9496C191.949 55.9046 190.256 58.5086 188.343 61.7662C187.817 58.8734 186.491 56.4697 184.358 54.5587C182.228 52.6475 178.959 51.9609 174.552 52.4926C159.488 56.1043 147.204 66.296 137.699 83.0678C128.193 99.8427 124.042 114.826 125.246 128.021C125.849 132.389 127.434 135.745 129.998 138.086C132.422 140.324 136.023 141.15 140.795 140.56C146.86 139.408 152.538 135.465 157.832 128.731C163.264 122.101 168.082 114.635 172.286 106.329C171.728 109.508 171.339 112.537 171.116 115.419C170.892 118.302 170.947 120.955 171.283 123.38C171.821 127.265 173.092 130.17 175.103 132.098C177.111 134.028 179.641 134.764 182.691 134.31C189.942 132.735 197.57 127.139 205.576 117.522C207.588 115.106 209.551 112.645 211.465 110.142C212.669 112.512 214.107 114.899 215.779 117.304C221.033 125.047 228.533 128.902 238.277 128.869L238.829 128.825C246.905 127.936 255.569 123.291 264.823 114.887C267.908 112.086 270.949 109.061 273.946 105.813C273.498 108.346 273.203 110.826 273.06 113.254C273.175 117.311 274.191 120.473 276.105 122.733C278.025 125.119 280.71 126.24 284.165 126.103C291.921 125.302 300.244 120.536 309.135 111.808ZM105.229 30.0721C94.7701 24.7426 81.1096 24.1682 64.2464 28.3565C46.4997 33.5504 31.3677 42.1211 18.8441 54.0624C6.2906 65.8877 1.07429 77.5127 3.19952 88.9294C4.78918 93.9867 7.52132 97.3296 11.3929 98.9598C15.3505 100.44 18.8175 100.774 21.7911 99.97C23.1002 99.6147 24.0487 99.1034 24.6366 98.4315C25.1932 97.6436 25.2264 96.8061 24.7363 95.9159C22.9456 87.2143 26.5572 77.238 35.5682 65.9917C44.576 54.7441 57.4482 46.5356 74.1798 41.3587C83.6049 38.9328 91.0046 38.7131 96.3742 40.7029C101.742 42.6912 105.168 46.4876 106.645 52.0815C108.659 62.1293 106.18 73.0099 99.2072 84.7248C92.2319 96.4444 83.2343 104.114 72.2117 107.739C69.7157 108.416 67.7156 108.575 66.2206 108.215C68.6284 96.589 71.162 86.3945 73.8198 77.6332C76.3887 69.0265 79.7679 63.9623 83.956 62.4453C84.6999 62.3708 85.204 62.1063 85.4665 61.6535C85.6415 61.3506 85.6503 60.9028 85.4927 60.3056C84.9641 58.7905 83.5726 57.3807 81.318 56.0779C79.0305 54.6575 76.4436 54.2729 73.5576 54.9273C63.463 61.1093 54.6535 77.2157 47.1274 103.245C39.7503 129.363 30.601 145.625 19.6749 152.032C17.6204 152.463 16.1289 152.356 15.1944 151.716C14.3773 151.045 13.3603 150.809 12.1418 151.011C10.9502 151.334 10.1837 152.053 9.84227 153.166C9.49783 154.283 9.53268 155.614 9.94063 157.16C10.9787 161.089 13.6534 164.704 17.966 168.001C22.2771 171.296 27.5732 172.286 33.8528 170.967C41.7254 168.45 48.001 162.284 52.6718 152.467C57.2252 142.684 60.926 131.6 63.7728 119.213C66.2479 121.352 69.2092 122.909 72.6538 123.89C76.0669 124.752 80.0503 124.63 84.6023 123.522C97.0499 119.509 107.628 110.58 116.335 96.7344C125.007 82.7732 127.861 68.4733 124.888 53.8364C122.087 43.2399 115.535 35.3179 105.229 30.0721ZM161.64 108.799C156.27 116.935 152.126 121.282 149.207 121.84C147.615 122.078 146.677 121.164 146.39 119.091C146.149 111.922 149.495 101.356 156.434 87.3927C163.244 73.4515 170.344 65.184 177.728 62.5891C178.951 62.4069 180.2 62.8441 181.469 63.8963C182.614 64.9691 183.384 66.4703 183.777 68.3984C183.795 68.5245 183.814 68.6652 183.836 68.8214L183.838 68.8382L183.839 68.8449L183.84 68.851C183.859 68.992 183.88 69.1455 183.903 69.3123C183.955 69.6766 183.932 69.9916 183.847 70.2508L180.933 76.2793C173.457 89.9483 167.023 100.79 161.64 108.799ZM225.965 88.7858C223.596 92.728 221.125 96.5803 218.552 100.343C219.324 102.159 220.149 103.902 221.026 105.57C224.016 111.022 227.609 113.766 231.807 113.802C237.035 112.771 240.165 107.512 241.201 98.0305C242.097 88.4382 242.582 78.1984 242.648 67.3097C240.281 70.3441 237.567 73.7126 234.509 77.418C231.596 81.2128 228.749 85.002 225.965 88.7858ZM465.013 82.6966C463.227 86.492 460.885 90.2891 457.984 94.0958C454.702 91.1755 452.307 87.534 450.8 83.1728C449.155 78.9236 448.549 74.8403 448.982 70.9138C449.092 69.934 449.251 69.0199 449.47 68.1727C449.684 67.3272 449.958 66.547 450.286 65.8353C451.785 64.6186 453.265 63.5859 454.726 62.7359C456.183 61.886 457.622 61.2217 459.044 60.7384C462.717 61.2205 465.31 62.4629 466.83 64.4696C468.21 66.5885 468.735 69.1808 468.397 72.2437C468.046 75.4335 466.918 78.9178 465.013 82.6966ZM439.254 110.911C435.698 112.794 432.382 113.586 429.316 113.288C427.106 113.073 425.584 112.245 424.751 110.799C423.78 109.468 423.444 107.453 423.74 104.756C424.373 100.113 426.221 95.1521 429.284 89.8766C432.482 84.4908 436.264 79.4084 440.636 74.6322L440.556 75.3669C439.99 80.5144 440.479 85.6408 442.029 90.7441C443.589 95.7269 446.098 99.9956 449.553 103.552C446.231 106.698 442.797 109.15 439.254 110.911Z" fill="white"/>
<path opacity="0.290365" fill-rule="evenodd" clip-rule="evenodd" d="M104.191 185.908C101.736 186.135 97.8646 183.802 100.254 183.195V183.195C142.47 172.479 199.459 164.33 263.903 162.06C339.172 159.408 394.719 163.326 418.587 165.552C421.511 165.825 421.813 169.723 418.992 170.542L417.973 170.838C416.167 171.362 415.796 173.757 417.359 174.803V174.803C419.247 176.067 418.285 179.04 416.017 178.889C390.929 177.217 314.543 172.571 264.328 174.341C210.475 176.238 123.404 184.128 104.191 185.908Z" fill="white"/>
</g>
</svg>
