<svg width="528" height="309" viewBox="0 0 528 309" fill="none" xmlns="http://www.w3.org/2000/svg">
<g clip-path="url(#clip0_48_46316)">
<g clip-path="url(#clip1_48_46316)" filter="url(#filter0_d_48_46316)">
<rect width="542.125" height="406.594" transform="translate(-6.81909 -90.1108)" fill="#010101"/>
<g opacity="0.05">
<path fill-rule="evenodd" clip-rule="evenodd" d="M322.442 63.3954C323.437 64.4383 324.95 64.9782 326.982 65.0151C331.878 64.6337 335.721 62.8886 338.501 59.7789C341.173 56.6771 342.51 53.4555 342.506 50.1182C342.452 48.5072 341.762 46.9704 340.432 45.5078C339.106 44.1567 337.321 43.4638 335.077 43.4319C330.391 43.9147 326.83 45.8675 324.378 49.2868C321.931 52.815 320.761 56.188 320.868 59.414C320.918 60.9188 321.442 62.2464 322.442 63.3954ZM315.987 134.689C317.579 133.133 319.148 131.548 320.693 129.935C320.511 130.842 320.363 131.726 320.25 132.585C320.256 137.001 321.143 140.305 322.909 142.498C324.57 144.69 326.464 145.808 328.601 145.857C329.666 145.881 330.632 145.636 331.5 145.117C332.26 144.487 332.869 143.64 333.32 142.573C336.652 136.834 343.841 128.01 354.896 116.092C365.949 104.071 375.77 94.6588 384.361 87.8537C379.636 93.668 374.769 101.203 369.758 110.455C364.744 119.709 361.944 127.882 361.36 134.976C361.28 138.527 362.071 141.347 363.732 143.429C365.392 145.622 367.662 146.749 370.544 146.814C376.85 146.528 383.874 142.812 391.617 135.666C393.244 134.164 394.858 132.631 396.459 131.066C396.347 136.092 397.502 140.157 399.922 143.267C402.664 146.796 406.746 148.845 412.159 149.412C418.326 149.949 424.524 148.652 430.75 145.517C436.879 142.265 442.527 137.991 447.69 132.693C448.421 132.879 449.107 133.003 449.743 133.07C453.458 133.458 457.667 132.71 462.368 130.823C467.187 128.841 472.481 125.393 478.247 120.482C478.635 118.794 478.306 117.301 477.264 116.002C476.216 114.703 475.025 114.307 473.683 114.816C470.272 117.703 467.052 119.799 464.02 121.103C460.987 122.408 458.238 123.04 455.776 122.998C458.531 119.179 460.756 115.304 462.451 111.371C464.137 107.55 465.162 103.869 465.527 100.341C465.981 95.9572 465.227 91.8233 463.271 87.9426C461.203 84.0525 457.637 81.7336 452.565 80.9848C450.438 80.7631 448.45 80.8255 446.589 81.1711C444.727 81.5181 443.058 82.1003 441.583 82.9188L441.421 82.9018C433.394 82.7103 424.381 87.3908 414.376 96.9394C408.312 102.739 403.735 108.999 400.645 115.719C397.719 118.727 395.014 121.345 392.528 123.573C387.839 127.883 384.746 130.072 383.252 130.145C382.183 130.12 381.667 129.358 381.7 127.848C381.89 124.085 383.774 118.636 387.353 111.503C390.823 104.369 395.249 97.4171 400.634 90.6479C401.064 90.4429 401.339 90.1249 401.457 89.6966C401.678 89.2728 401.797 88.792 401.809 88.2517C401.863 85.8855 400.687 83.4359 398.291 80.904C395.892 78.2645 392.561 76.7901 388.299 76.4754C383.903 77.1294 376.851 82.1907 367.136 91.6595C357.31 101.235 348.39 110.884 340.38 120.607C343.516 113.895 347.027 107.461 350.903 101.303C354.78 95.0396 358.419 89.9017 361.821 85.8856C362.254 85.5729 362.479 85.0924 362.494 84.4469C362.423 82.726 361.451 80.8697 359.574 78.8905C357.586 77.0148 355.421 75.9424 353.079 75.6719C349.202 77.0926 343.051 84.7061 334.628 98.5094C332.229 102.47 330.125 106.223 328.315 109.77C324.022 114.871 320.045 119.137 316.39 122.565C311.628 127.144 308.235 129.519 306.215 129.695C305.147 129.732 304.59 129 304.54 127.492C304.621 123.509 306.762 117.244 310.966 108.703C315.063 100.275 319.72 92.4745 324.929 85.297C325.343 84.9604 325.542 84.4687 325.521 83.8236C325.368 82.431 324.137 80.7504 321.83 78.783C319.629 76.8145 317.35 75.7639 314.998 75.6255C311.41 76.934 305.625 84.5051 297.648 98.3414C295.512 102.015 293.641 105.599 292.035 109.092C289.439 112.408 286.803 115.552 284.128 118.527C280.357 122.489 276.752 125.791 273.31 128.428C274.084 123.08 274.311 116.152 273.989 107.646C273.559 99.1501 274.983 91.0505 278.255 83.3478C278.853 82.7639 279.123 82.0947 279.066 81.3426C278.7 79.3209 276.994 77.291 273.95 75.2584C270.904 73.2245 267.937 72.2125 265.046 72.2171C264.407 72.2665 263.776 72.4233 263.154 72.6876C262.637 72.9441 262.185 73.3558 261.801 73.9241C261.416 74.4951 260.994 75.2829 260.536 76.29C257.796 81.1435 254.063 86.9894 249.335 93.8317C245.268 99.6923 241.948 104.384 239.379 107.907C239.052 108.021 238.792 108.208 238.597 108.47C237.022 110.944 235.485 113.274 233.986 115.461C233.732 114.563 233.489 113.649 233.257 112.72C233.184 111.755 232.833 111.352 232.202 111.508C231.145 111.697 230.036 112.591 228.872 114.193C227.608 115.909 226.992 117.684 227.026 119.517C227.14 121.02 227.368 122.531 227.71 124.052C226.677 125.366 225.665 126.6 224.674 127.755C220.328 132.84 217.158 135.578 215.169 135.974C214.638 136.05 214.239 135.892 213.968 135.495C213.605 135.221 213.371 134.713 213.265 133.968C212.918 130.001 214.375 123.542 217.634 114.598C220.908 105.76 224.749 97.495 229.155 89.7944C229.531 89.4149 229.676 88.904 229.584 88.2657C229.283 86.8994 227.878 85.363 225.373 83.6607C222.868 81.9597 220.436 81.1719 218.083 81.2933C217.236 81.4154 216.181 82.3304 214.913 84.0333C213.644 85.7388 212.188 88.012 210.545 90.8569C210.075 88.3184 208.915 86.2043 207.058 84.5175C205.202 82.8307 202.365 82.211 198.547 82.6529C185.504 85.7362 174.902 94.6021 166.739 109.251C158.575 123.902 155.045 137.013 156.149 148.585C156.691 152.417 158.081 155.367 160.315 157.433C162.426 159.408 165.552 160.152 169.686 159.661C174.938 158.684 179.843 155.259 184.402 149.386C189.08 143.604 193.222 137.086 196.829 129.829C196.36 132.612 196.037 135.266 195.857 137.79C195.675 140.316 195.735 142.642 196.038 144.769C196.522 148.177 197.638 150.73 199.39 152.432C201.139 154.134 203.336 154.793 205.977 154.411C212.257 153.071 218.844 148.207 225.74 139.822C227.552 137.619 229.318 135.374 231.036 133.087C232.085 135.151 233.335 137.231 234.787 139.326C239.368 146.1 245.887 149.485 254.347 149.482L254.826 149.445C261.835 148.691 269.346 144.66 277.359 137.348C280.128 134.822 282.855 132.087 285.542 129.142C285.154 131.393 284.903 133.598 284.79 135.756C284.907 139.304 285.801 142.075 287.467 144.062C289.138 146.158 291.466 147.153 294.454 147.052C301.159 146.394 308.337 142.272 315.987 134.689ZM138.122 63.3608C129.032 58.6818 117.175 58.1438 102.55 61.7535C87.1606 66.2384 74.0489 73.6771 63.2091 84.0643C52.3432 94.3501 47.8445 104.481 49.7167 114.45C51.1087 118.867 53.488 121.792 56.852 123.225C60.2903 124.527 63.3 124.828 65.8788 124.134C67.0139 123.828 67.8359 123.384 68.3445 122.799C68.8256 122.113 68.8524 121.382 68.4249 120.604C66.8496 113.006 69.9596 104.31 77.7526 94.5196C85.5428 84.7283 96.6941 77.5996 111.202 73.1268C119.376 71.0352 125.798 70.8633 130.463 72.6142C135.126 74.3638 138.108 77.686 139.404 82.5715C141.176 91.3453 139.051 100.834 133.029 111.038C127.004 121.247 119.214 127.915 109.656 131.05C107.492 131.633 105.756 131.767 104.458 131.449C106.519 121.31 108.693 112.42 110.978 104.782C113.187 97.2776 116.107 92.8673 119.738 91.5548C120.384 91.4917 120.82 91.2622 121.047 90.8678C121.198 90.6039 121.205 90.2132 121.067 89.6916C120.604 88.368 119.393 87.134 117.433 85.991C115.445 84.7453 113.199 84.4028 110.695 84.9661C101.95 90.3338 94.3435 104.366 87.8753 127.06C81.5366 149.833 73.6359 164 64.1691 169.561C62.3871 169.932 61.0924 169.835 60.2798 169.274C59.5691 168.686 58.6859 168.477 57.6289 168.651C56.5955 168.929 55.9321 169.555 55.6384 170.525C55.3422 171.498 55.3757 172.66 55.7335 174.011C56.644 177.442 58.9741 180.604 62.725 183.492C66.4744 186.38 71.0732 187.258 76.5199 186.124C83.3461 183.949 88.7775 178.584 92.8072 170.029C96.7351 161.505 99.9199 151.842 102.36 141.04C104.514 142.913 107.087 144.279 110.079 145.145C113.044 145.907 116.5 145.811 120.448 144.856C131.241 141.388 140.4 133.624 147.923 121.565C155.415 109.405 157.856 96.9331 155.241 84.1519C152.784 74.8972 147.079 67.9663 138.122 63.3608ZM187.596 131.97C182.992 139.052 179.431 142.827 176.911 143.299C175.536 143.498 174.722 142.695 174.464 140.882C174.223 134.615 177.066 125.4 182.999 113.235C188.82 101.088 194.918 93.9021 201.287 91.6747C202.343 91.5221 203.425 91.911 204.526 92.8375C205.521 93.7813 206.193 95.0974 206.541 96.7845C206.558 96.8999 206.576 97.0292 206.597 97.1735C206.614 97.2987 206.633 97.4352 206.655 97.5839C206.701 97.9025 206.682 98.1777 206.61 98.4037L204.12 103.656C197.721 115.561 192.211 125 187.596 131.97ZM243.406 114.54C241.403 117.935 239.314 121.254 237.139 124.495C237.818 126.095 238.543 127.629 239.314 129.098C241.922 133.865 245.049 136.27 248.693 136.313C253.229 135.426 255.934 130.845 256.81 122.57C257.565 114.199 257.961 105.262 257.992 95.7573C255.944 98.3997 253.596 101.333 250.95 104.559C248.414 107.885 245.936 111.207 243.513 114.524C243.477 114.529 243.442 114.535 243.406 114.54ZM451.568 109.26C450.043 112.565 448.038 115.869 445.551 119.179C442.704 116.61 440.62 113.416 439.298 109.598C437.859 105.877 437.318 102.307 437.673 98.8799C437.763 98.0247 437.897 97.2271 438.082 96.4882C438.263 95.7508 438.496 95.0708 438.776 94.451C440.065 93.3963 441.337 92.5024 442.595 91.7678C443.849 91.0333 445.088 90.461 446.314 90.0465C449.487 90.4877 451.731 91.587 453.053 93.3482C454.254 95.2066 454.719 97.4738 454.441 100.147C454.153 102.932 453.195 105.969 451.568 109.26ZM429.222 133.845C426.158 135.471 423.296 136.146 420.644 135.869C418.734 135.668 417.415 134.937 416.688 133.669C415.842 132.5 415.543 130.737 415.787 128.381C416.312 124.328 417.887 120.002 420.51 115.408C423.249 110.719 426.495 106.297 430.251 102.147L430.186 102.789C429.72 107.284 430.166 111.767 431.529 116.236C432.9 120.599 435.088 124.343 438.09 127.47C435.233 130.202 432.277 132.326 429.222 133.845Z" fill="white"/>
<path opacity="0.290365" fill-rule="evenodd" clip-rule="evenodd" d="M145.127 193.835C143.119 194.021 139.953 192.113 141.907 191.617C176.434 182.852 223.044 176.188 275.751 174.331C337.312 172.162 382.742 175.366 402.264 177.187C404.655 177.41 404.902 180.599 402.595 181.268L401.762 181.51C400.284 181.939 399.981 183.898 401.259 184.753C402.804 185.787 402.017 188.218 400.162 188.095C379.643 186.727 317.168 182.928 276.099 184.375C232.054 185.927 160.84 192.38 145.127 193.835Z" fill="white"/>
</g>
<path d="M0 182.524C0 182.524 76.8084 174.055 124.143 182.524C130.072 183.584 133.559 187.328 139.229 185.571C140.821 185.078 141.44 184.35 143 183.793C150.006 181.295 154.843 185.174 162.486 185.571C172.652 186.099 178.411 186.162 188.571 185.571C193.249 185.299 195.879 183.981 200.514 184.555C203.048 184.869 204.3 185.622 206.8 186.079C218.105 188.144 224.758 183.523 236.343 183.793C245.245 184.001 250.106 185.393 258.971 186.079C290.494 188.516 308.672 188.976 340.057 185.571C344.857 185.05 347.587 183.196 352.314 184.047C354.172 184.382 355.036 185.037 356.871 185.444C361.784 186.533 364.828 185.348 369.914 185.571C372.988 185.706 374.698 185.935 377.771 186.079C392.616 186.771 400.932 184.394 415.8 184.555C430.446 184.714 528 186.841 528 186.841V286.893H0V182.524Z" fill="url(#paint0_linear_48_46316)"/>
<g filter="url(#filter1_f_48_46316)">
<ellipse cx="150.242" cy="205.69" rx="8.61203" ry="0.555546" fill="black"/>
</g>
<path d="M153.298 202.911C153.298 202.911 154.456 202.332 155.242 202.077C157.515 201.34 161.354 201.799 161.354 201.799L165.243 201.243L167.188 204.023L165.799 205.691L161.076 206.525L153.853 206.247H152.186L153.298 202.911Z" fill="#2A2220"/>
<path d="M167.187 204.023L165.242 201.243L162.742 202.911L161.075 206.525L165.798 205.691L167.187 204.023Z" fill="#827876"/>
<path d="M507.481 220.753L508.505 221.094L511.406 223.998L514.819 228.096L512.942 229.292H509.529L507.481 229.633L502.874 229.804C502.874 229.804 499.632 228.096 499.632 227.755C499.632 227.413 501.168 225.706 501.168 225.706C501.168 225.706 502.633 225.929 503.215 225.364C503.715 224.879 503.727 223.656 503.727 223.656L507.481 220.753Z" fill="#191515"/>
<g filter="url(#filter2_f_48_46316)">
<path d="M512.26 228.78L511.236 229.292C511.236 229.292 500.744 230.329 494.001 230.317C490.267 230.31 484.445 230.635 484.445 229.975C484.445 229.315 491.677 229.631 496.22 228.78C498.031 228.44 498.999 227.993 500.827 227.755C505.272 227.176 512.26 228.78 512.26 228.78Z" fill="black"/>
</g>
<path d="M508.506 221.094L507.482 220.753L508.506 223.656L507.823 224.681L510.383 227.755L512.943 229.292L514.82 228.096L511.407 223.998L508.506 221.094Z" fill="#AB9EA1"/>
<path d="M507.483 229.633L509.531 229.292H512.944L510.384 227.755L507.824 224.681L503.217 225.364C502.635 225.928 501.169 225.705 501.169 225.705C501.169 225.705 499.633 227.413 499.633 227.755C499.633 228.096 502.876 229.804 502.876 229.804L507.483 229.633Z" fill="#312520"/>
<g filter="url(#filter3_f_48_46316)">
<path d="M82.0261 187.329L87.9173 188.325L85.2623 188.823L82.0261 189.156L77.7713 189.654H69.059L66.8303 189.156L62.9807 188.325L54.0659 186.332L57.5662 181.682L65.4121 184.173L74.5121 183.011L74.5295 185.668L77.7713 187.329H82.0261Z" fill="black"/>
</g>
<path d="M70.1338 176.579L73.5519 175.914C73.5519 175.914 74.3247 175.093 74.946 174.752C76.8988 173.68 78.3718 175.802 80.5879 175.582C81.9173 175.45 83.0596 175.523 84.5704 175.914C89.0951 177.087 93.0333 184.384 93.0333 184.384L86.8936 185.712L87.3914 187.373L85.2342 189.366L81.5835 190.196L74.4482 189.366H70.9635L65.9854 187.373L67.8107 182.059L70.1338 176.579Z" fill="#404145"/>
<path d="M74.4482 189.366C74.4482 189.366 78.7945 190.498 81.5836 190.196C83.0371 190.039 83.8441 189.819 85.2342 189.366C86.2296 189.041 87.2578 189.308 87.7233 188.37C88.2063 187.396 86.8936 185.712 86.8936 185.712L81.5836 184.882L76.6054 186.543L73.4526 185.712H69.1382L70.9635 189.366H74.4482Z" fill="#494A4F"/>
<path d="M93.0325 184.384C93.0325 184.384 89.0944 177.087 84.5697 175.914C83.0588 175.523 82.0806 175.416 80.5872 175.582L86.8928 185.712C90.2726 185.727 91.796 185.534 93.0325 184.384Z" fill="#2E2F33"/>
<g filter="url(#filter4_f_48_46316)">
<path d="M409.424 206.987H405.379C405.379 206.987 401.122 206.75 401.122 206.457C401.122 206.164 405.379 205.927 405.379 205.927L407.508 206.103L409.424 206.987Z" fill="black"/>
</g>
<path d="M404.832 204.512L409.071 203.982L411.721 205.396L412.074 206.987H409.071L407.481 206.634L404.832 204.512Z" fill="#8F8888"/>
<path d="M412.074 206.987L411.72 205.396L409.071 203.982L408.364 205.396L409.071 206.987H412.074Z" fill="#BAB7B6"/>
<g opacity="0.35">
<path opacity="0.7" d="M63.3734 10.0388C63.3734 10.3744 63.1039 10.71 62.8344 10.71C62.5649 10.71 62.2954 10.3744 62.2954 10.0388C62.2954 9.70326 62.5649 9.36768 62.8344 9.36768C63.1039 9.36768 63.3734 9.70326 63.3734 10.0388Z" fill="white"/>
<path opacity="0.7" d="M9.74456 28.4961C9.74456 29.1673 9.20558 29.8385 8.66659 29.8385C8.12761 29.8385 7.58862 29.1673 7.58862 28.4961C7.58862 27.825 8.12761 27.1538 8.66659 27.1538C9.47507 27.1538 9.74456 27.825 9.74456 28.4961Z" fill="white"/>
<path opacity="0.7" d="M38.5811 20.4418C38.5811 21.113 38.3116 21.4486 37.7726 21.4486C37.2336 21.4486 36.9641 21.113 36.9641 20.4418C36.9641 19.7707 37.2336 19.4351 37.7726 19.4351C38.3116 19.4351 38.5811 19.7707 38.5811 20.4418Z" fill="white"/>
<path opacity="0.7" d="M271.422 41.9243C271.422 42.2599 271.152 42.5955 270.883 42.5955C270.613 42.5955 270.344 42.2599 270.344 41.9243C270.344 41.5888 270.613 41.2532 270.883 41.2532C271.152 41.2532 271.422 41.5888 271.422 41.9243Z" fill="white"/>
<path opacity="0.7" d="M74.961 37.2215C74.961 37.5571 74.6915 37.8926 74.422 37.8926C74.1526 37.8926 73.8831 37.5571 73.8831 37.2215C73.8831 36.8859 74.1526 36.5503 74.422 36.5503C74.6915 36.5503 74.961 36.8859 74.961 37.2215Z" fill="white"/>
<path opacity="0.7" d="M10.5532 9.36736C10.5532 10.0385 10.2837 10.3741 9.74475 10.3741C9.20577 10.3741 8.93628 10.0385 8.93628 9.36736C8.93628 8.69619 9.20577 8.3606 9.74475 8.3606C10.2837 8.3606 10.5532 8.69619 10.5532 9.36736Z" fill="white"/>
<path opacity="0.7" d="M135.329 8.36118C135.329 9.36794 134.52 10.3747 133.712 10.3747C132.903 10.3747 132.095 9.36794 132.095 8.36118C132.095 7.35442 132.903 6.34766 133.712 6.34766C134.52 6.68324 135.329 7.35442 135.329 8.36118Z" fill="white"/>
<path opacity="0.7" d="M120.237 29.8382C120.237 30.1738 119.968 30.5094 119.698 30.5094C119.429 30.5094 119.159 30.1738 119.159 29.8382C119.159 29.5026 119.429 29.167 119.698 29.167C119.968 29.167 120.237 29.5026 120.237 29.8382Z" fill="white"/>
<path opacity="0.7" d="M396.736 26.4822C396.736 26.8178 396.466 27.1534 396.197 27.1534C395.927 27.1534 395.658 26.8178 395.658 26.4822C395.658 26.1466 395.927 25.811 396.197 25.811C396.466 25.811 396.736 26.1466 396.736 26.4822Z" fill="white"/>
<path opacity="0.7" d="M315.349 22.1202C315.349 22.4558 315.079 22.7913 314.81 22.7913C314.54 22.7913 314.271 22.4558 314.271 22.1202C314.271 21.7846 314.54 21.449 314.81 21.449C315.079 21.449 315.349 21.7846 315.349 22.1202Z" fill="white"/>
<path opacity="0.7" d="M382.453 33.8658C382.453 34.2014 382.184 34.5369 381.914 34.5369C381.645 34.5369 381.375 34.2014 381.375 33.8658C381.375 33.5302 381.645 33.1946 381.914 33.1946C382.184 33.1946 382.453 33.5302 382.453 33.8658Z" fill="white"/>
<path opacity="0.7" d="M28.0701 35.5434C28.0701 36.2146 27.8006 36.5502 27.2616 36.5502C26.7226 36.5502 26.4531 36.2146 26.4531 35.5434C26.4531 34.8722 26.7226 34.5366 27.2616 34.5366C27.8006 34.5366 28.0701 34.8722 28.0701 35.5434Z" fill="white"/>
<path opacity="0.7" d="M238.004 26.4822C238.004 26.8178 237.734 27.1534 237.465 27.1534C237.195 27.1534 236.926 26.8178 236.926 26.4822C236.926 26.1466 237.195 25.811 237.465 25.811C237.734 25.811 238.004 26.1466 238.004 26.4822Z" fill="white"/>
<path opacity="0.7" d="M206.743 10.0388C206.743 10.3744 206.474 10.71 206.204 10.71C205.935 10.71 205.666 10.3744 205.666 10.0388C205.666 9.70326 205.935 9.36768 206.204 9.36768C206.474 9.36768 206.743 9.70326 206.743 10.0388Z" fill="white"/>
<path opacity="0.7" d="M278.159 37.5567C278.159 37.8923 277.889 38.2279 277.62 38.2279C277.35 38.2279 277.081 37.8923 277.081 37.5567C277.081 37.2211 277.35 36.8855 277.62 36.8855C277.889 36.8855 278.159 37.2211 278.159 37.5567Z" fill="white"/>
<path opacity="0.7" d="M153.115 28.4961C153.115 29.1673 152.576 29.8385 152.037 29.8385C151.498 29.8385 150.959 29.1673 150.959 28.4961C150.959 27.825 151.498 27.1538 152.037 27.1538C152.576 27.1538 153.115 27.825 153.115 28.4961Z" fill="white"/>
<path opacity="0.7" d="M181.949 20.4418C181.949 21.113 181.68 21.4486 181.141 21.4486C180.602 21.4486 180.332 21.113 180.332 20.4418C180.332 19.7707 180.602 19.4351 181.141 19.4351C181.68 19.4351 181.949 19.7707 181.949 20.4418Z" fill="white"/>
<path opacity="0.7" d="M229.111 -0.0290325C229.111 0.306554 228.841 0.642156 228.572 0.642156C228.302 0.642156 228.033 0.306554 228.033 -0.0290325C228.033 -0.364619 228.302 -0.700195 228.572 -0.700195C228.841 -0.700195 229.111 -0.364619 229.111 -0.0290325Z" fill="white"/>
<path opacity="0.7" d="M171.17 35.5434C171.17 36.2146 170.9 36.5502 170.361 36.5502C169.822 36.5502 169.553 36.2146 169.553 35.5434C169.553 34.8722 169.822 34.5366 170.361 34.5366C170.9 34.5366 171.17 34.8722 171.17 35.5434Z" fill="white"/>
<path opacity="0.7" d="M365.745 26.4823C365.745 25.8111 366.284 25.1399 366.823 25.1399C367.362 25.1399 367.901 25.8111 367.901 26.4823C367.901 27.1534 367.362 27.8246 366.823 27.8246C366.284 27.8246 365.745 27.489 365.745 26.4823Z" fill="white"/>
<path opacity="0.7" d="M496.179 26.4822C496.179 26.8178 495.91 27.1534 495.64 27.1534C495.371 27.1534 495.101 26.8178 495.101 26.4822C495.101 26.1466 495.371 25.811 495.64 25.811C495.91 25.811 496.179 26.1466 496.179 26.4822Z" fill="white"/>
<path opacity="0.7" d="M429.614 35.5434C429.614 36.2146 429.344 36.5502 428.805 36.5502C428.266 36.5502 427.997 36.2146 427.997 35.5434C427.997 34.8722 428.266 34.5366 428.805 34.5366C429.344 34.5366 429.614 34.8722 429.614 35.5434Z" fill="white"/>
<path opacity="0.7" d="M262.529 10.71C262.529 11.7168 261.721 12.7236 260.912 12.7236C260.104 12.7236 259.295 11.7168 259.295 10.71C259.295 9.70329 260.104 8.69653 260.912 8.69653C261.99 9.03212 262.529 9.70329 262.529 10.71Z" fill="white"/>
<g opacity="0.7">
<path opacity="0.7" d="M270.884 31.5168L271.153 36.2151L275.196 36.8862H271.153L270.884 42.2556L270.614 36.8862H266.572L270.614 36.2151L270.884 31.5168Z" fill="white"/>
<path opacity="0.7" d="M272.501 34.5366L271.154 36.5501L272.501 38.8993L270.884 36.8857L268.998 38.8993L270.615 36.5501L268.998 34.5366L270.884 36.2146L272.501 34.5366Z" fill="white"/>
</g>
<g opacity="0.7">
<path opacity="0.7" d="M502.647 12.052L503.186 18.7638L508.846 19.7705H503.186L502.647 27.4891L502.108 19.7705H496.449L502.108 18.7638L502.647 12.052Z" fill="white"/>
<path opacity="0.7" d="M505.072 16.0791L503.186 19.435L505.072 22.7909L502.647 20.1062L499.952 22.7909L502.377 19.435L499.952 16.4147L502.647 18.7638L505.072 16.0791Z" fill="white"/>
</g>
<path opacity="0.7" d="M173.768 181.426C173.768 181.091 174.037 180.755 174.307 180.755C174.576 180.755 174.846 181.091 174.846 181.426C174.846 181.762 174.576 182.098 174.307 182.098C174.037 182.098 173.768 181.762 173.768 181.426Z" fill="white"/>
<path opacity="0.7" d="M492.576 141.914C492.576 141.578 492.846 141.243 493.115 141.243C493.385 141.243 493.654 141.578 493.654 141.914C493.654 142.249 493.385 142.585 493.115 142.585C492.846 142.585 492.576 142.249 492.576 141.914Z" fill="white"/>
<path opacity="0.7" d="M216.331 126.804C216.331 126.469 216.6 126.133 216.87 126.133C217.139 126.133 217.409 126.469 217.409 126.804C217.409 127.14 217.139 127.476 216.87 127.476C216.6 127.476 216.331 127.14 216.331 126.804Z" fill="white"/>
<path opacity="0.7" d="M297.414 136.594C297.414 136.258 297.683 135.923 297.953 135.923C298.222 135.923 298.492 136.258 298.492 136.594C298.492 136.93 298.222 137.265 297.953 137.265C297.683 137.265 297.414 136.93 297.414 136.594Z" fill="white"/>
<path opacity="0.7" d="M182.862 158.174C182.862 157.838 183.132 157.503 183.401 157.503C183.671 157.503 183.94 157.838 183.94 158.174C183.94 158.509 183.671 158.845 183.401 158.845C183.132 159.18 182.862 158.845 182.862 158.174Z" fill="white"/>
<path opacity="0.7" d="M229.126 155.59C229.126 154.919 229.665 154.248 230.204 154.248C230.743 154.248 231.282 154.919 231.282 155.59C231.282 156.261 230.743 156.932 230.204 156.932C229.665 156.932 229.126 156.261 229.126 155.59Z" fill="white"/>
<path opacity="0.7" d="M230.91 120.385C230.91 120.05 231.18 119.714 231.449 119.714C231.719 119.714 231.988 120.05 231.988 120.385C231.988 120.721 231.719 121.057 231.449 121.057C231.18 121.057 230.91 120.721 230.91 120.385Z" fill="white"/>
<path opacity="0.7" d="M374.835 137.402C374.835 137.066 375.104 136.731 375.374 136.731C375.643 136.731 375.913 137.066 375.913 137.402C375.913 137.738 375.643 138.073 375.374 138.073C375.104 138.073 374.835 137.738 374.835 137.402Z" fill="white"/>
<path opacity="0.7" d="M405.343 155.909C405.343 155.574 405.613 155.238 405.882 155.238C406.152 155.238 406.421 155.574 406.421 155.909C406.421 156.245 406.152 156.581 405.882 156.581C405.613 156.581 405.343 156.245 405.343 155.909Z" fill="white"/>
<path opacity="0.7" d="M335.213 123.663C335.213 123.327 335.482 122.992 335.752 122.992C336.021 122.992 336.291 123.327 336.291 123.663C336.291 123.999 336.021 124.334 335.752 124.334C335.482 124.334 335.213 123.999 335.213 123.663Z" fill="white"/>
<path opacity="0.7" d="M419.182 172.966C419.182 172.631 419.451 172.295 419.721 172.295C419.99 172.295 420.26 172.631 420.26 172.966C420.26 173.302 419.99 173.638 419.721 173.638C419.451 173.973 419.182 173.638 419.182 172.966Z" fill="white"/>
<path opacity="0.7" d="M459.688 141.095C459.688 140.423 460.227 139.752 460.766 139.752C461.305 139.752 461.844 140.423 461.844 141.095C461.844 141.766 461.305 142.437 460.766 142.437C460.227 142.437 459.688 141.766 459.688 141.095Z" fill="white"/>
<path opacity="0.7" d="M430.549 147.194C430.549 146.523 430.819 146.188 431.358 146.188C431.897 146.188 432.166 146.523 432.166 147.194C432.166 147.866 431.897 148.201 431.358 148.201C430.819 148.201 430.549 147.866 430.549 147.194Z" fill="white"/>
<path opacity="0.7" d="M382.576 164.469C382.576 164.134 382.845 163.798 383.115 163.798C383.384 163.798 383.654 164.134 383.654 164.469C383.654 164.805 383.384 165.14 383.115 165.14C382.845 165.14 382.576 164.805 382.576 164.469Z" fill="white"/>
<path opacity="0.7" d="M441.962 132.834C441.962 132.163 442.231 131.828 442.77 131.828C443.309 131.828 443.579 132.163 443.579 132.834C443.579 133.505 443.309 133.841 442.77 133.841C442.231 133.841 441.962 133.505 441.962 132.834Z" fill="white"/>
<path opacity="0.7" d="M247.279 128.766C247.279 129.437 246.74 130.108 246.201 130.108C245.662 130.108 245.123 129.437 245.123 128.766C245.123 128.094 245.662 127.423 246.201 127.423C246.74 127.423 247.279 127.759 247.279 128.766Z" fill="white"/>
<path opacity="0.7" d="M318.386 163.43C318.386 164.101 317.848 164.772 317.309 164.772C316.77 164.772 316.231 164.101 316.231 163.43C316.231 162.759 316.77 162.088 317.309 162.088C318.117 162.088 318.386 162.759 318.386 163.43Z" fill="white"/>
<path opacity="0.7" d="M117.03 120.165C117.03 119.83 117.299 119.494 117.569 119.494C117.838 119.494 118.108 119.83 118.108 120.165C118.108 120.501 117.838 120.836 117.569 120.836C117.299 120.836 117.03 120.501 117.03 120.165Z" fill="white"/>
<path opacity="0.7" d="M14.7338 158.023C14.7338 157.687 15.0034 157.351 15.2728 157.351C15.5423 157.351 15.8118 157.687 15.8118 158.023C15.8118 158.358 15.5423 158.694 15.2728 158.694C15.0034 159.029 14.7338 158.694 14.7338 158.023Z" fill="white"/>
<path opacity="0.7" d="M122.3 173.281C122.3 172.946 122.57 172.61 122.839 172.61C123.109 172.61 123.378 172.946 123.378 173.281C123.378 173.617 123.109 173.952 122.839 173.952C122.57 174.288 122.3 173.952 122.3 173.281Z" fill="white"/>
<path opacity="0.7" d="M282.665 159.505C282.665 158.834 283.204 158.163 283.743 158.163C284.282 158.163 284.821 158.834 284.821 159.505C284.821 160.176 284.282 160.847 283.743 160.847C283.204 160.847 282.665 160.512 282.665 159.505Z" fill="white"/>
<path opacity="0.7" d="M74.33 115.294C74.33 114.958 74.5995 114.623 74.869 114.623C75.1385 114.623 75.408 114.958 75.408 115.294C75.408 115.63 75.1385 115.965 74.869 115.965C74.5995 115.965 74.33 115.63 74.33 115.294Z" fill="white"/>
<path opacity="0.7" d="M183.889 115.58C183.889 114.908 184.158 114.573 184.697 114.573C185.236 114.573 185.506 114.908 185.506 115.58C185.506 116.251 185.236 116.586 184.697 116.586C184.158 116.586 183.889 116.251 183.889 115.58Z" fill="white"/>
<path opacity="0.7" d="M4.37667 129.101C4.37667 128.765 4.64615 128.429 4.91563 128.429C5.18511 128.429 5.45459 128.765 5.45459 129.101C5.45459 129.436 5.18511 129.772 4.91563 129.772C4.64615 129.772 4.37667 129.436 4.37667 129.101Z" fill="white"/>
<path opacity="0.7" d="M58.7203 114.286C58.7203 113.614 59.2592 112.943 59.7982 112.943C60.3372 112.943 60.8762 113.614 60.8762 114.286C60.8762 114.957 60.3372 115.628 59.7982 115.628C59.2592 115.628 58.7203 114.957 58.7203 114.286Z" fill="white"/>
<path opacity="0.7" d="M29.5813 120.386C29.5813 119.714 29.8508 119.379 30.3898 119.379C30.9288 119.379 31.1982 119.714 31.1982 120.386C31.1982 121.057 30.9288 121.392 30.3898 121.392C29.8508 121.392 29.5813 121.057 29.5813 120.386Z" fill="white"/>
<path opacity="0.7" d="M349.665 151.587C349.665 150.58 350.474 149.573 351.282 149.573C352.091 149.573 352.899 150.58 352.899 151.587C352.899 152.593 352.091 153.6 351.282 153.6C350.204 153.265 349.665 152.593 349.665 151.587Z" fill="white"/>
<g opacity="0.7">
<path opacity="0.7" d="M342.45 130.152L342.18 125.453L338.138 124.782H342.18L342.45 119.413L342.719 124.782H346.761L342.719 125.453L342.45 130.152Z" fill="white"/>
<path opacity="0.7" d="M340.832 127.132L342.179 125.118L340.832 122.769L342.449 124.782L344.335 122.769L342.718 125.118L344.335 127.132L342.449 125.454L340.832 127.132Z" fill="white"/>
</g>
<g opacity="0.7">
<path opacity="0.7" d="M110.284 134.118L109.745 127.406L104.085 126.399H109.745L110.284 118.681L110.823 126.399H116.482L110.823 127.406L110.284 134.118Z" fill="white"/>
<path opacity="0.7" d="M107.859 130.091L109.745 126.735L107.859 123.379L110.284 126.064L112.979 123.379L110.554 126.735L112.979 129.755L110.284 127.406L107.859 130.091Z" fill="white"/>
</g>
<g opacity="0.7">
<path opacity="0.7" d="M212.66 173.565L212.391 168.531L208.348 168.196L212.391 167.86L212.66 162.826L212.93 167.86L216.972 168.196L212.93 168.531L212.66 173.565Z" fill="white"/>
<path opacity="0.7" d="M211.042 170.545L212.389 168.196L211.042 165.846L212.659 167.86L214.545 165.846L212.928 168.196L214.545 170.209L212.659 168.531L211.042 170.545Z" fill="white"/>
</g>
<path opacity="0.7" d="M513.895 88.9947C513.895 88.3236 514.164 87.988 514.703 87.988C515.242 87.988 515.512 88.3236 515.512 88.9947C515.512 89.6659 515.242 90.0015 514.703 90.0015C514.434 90.0015 513.895 89.6659 513.895 88.9947Z" fill="white"/>
<path opacity="0.7" d="M480.792 86.7633C480.792 86.4277 481.062 86.0921 481.331 86.0921C481.601 86.0921 481.87 86.4277 481.87 86.7633C481.87 87.0989 481.601 87.4345 481.331 87.4345C481.062 87.7701 480.792 87.4345 480.792 86.7633Z" fill="white"/>
<path opacity="0.7" d="M173.768 53.1289C173.768 52.7933 174.037 52.4577 174.307 52.4577C174.576 52.4577 174.846 52.7933 174.846 53.1289C174.846 53.4645 174.576 53.8 174.307 53.8C174.037 53.8 173.768 53.4645 173.768 53.1289Z" fill="white"/>
<path opacity="0.7" d="M474.125 103.794C474.125 103.458 474.394 103.123 474.664 103.123C474.933 103.123 475.203 103.458 475.203 103.794C475.203 104.129 474.933 104.465 474.664 104.465C474.394 104.465 474.125 104.129 474.125 103.794Z" fill="white"/>
<path opacity="0.7" d="M448.435 61.111C448.435 60.4398 448.974 59.7687 449.513 59.7687C450.052 59.7687 450.591 60.4398 450.591 61.111C450.591 61.7822 450.052 62.4534 449.513 62.4534C448.704 62.4534 448.435 61.7822 448.435 61.111Z" fill="white"/>
<path opacity="0.7" d="M523.268 71.7924C523.268 71.4568 523.537 71.1212 523.807 71.1212C524.076 71.1212 524.346 71.4568 524.346 71.7924C524.346 72.128 524.076 72.4636 523.807 72.4636C523.537 72.7992 523.268 72.4635 523.268 71.7924Z" fill="white"/>
<path opacity="0.7" d="M229.349 72.3044C229.349 71.9688 229.619 71.6332 229.888 71.6332C230.158 71.6332 230.427 71.9688 230.427 72.3044C230.427 72.64 230.158 72.9756 229.888 72.9756C229.619 72.9756 229.349 72.64 229.349 72.3044Z" fill="white"/>
<path opacity="0.7" d="M244.486 96.8771C244.486 96.206 245.025 95.5348 245.564 95.5348C246.103 95.5348 246.642 96.206 246.642 96.8771C246.642 97.5483 246.103 98.2195 245.564 98.2195C245.025 98.2195 244.486 97.5483 244.486 96.8771Z" fill="white"/>
<path opacity="0.7" d="M270.993 108.06C270.993 107.388 271.532 106.717 272.071 106.717C272.61 106.717 273.149 107.388 273.149 108.06C273.149 108.731 272.61 109.402 272.071 109.402C271.532 109.402 270.993 108.731 270.993 108.06Z" fill="white"/>
<path opacity="0.7" d="M287.236 56.6824C287.236 56.3468 287.506 56.0112 287.775 56.0112C288.044 56.0112 288.314 56.3468 288.314 56.6824C288.314 57.0179 288.044 57.3535 287.775 57.3535C287.506 57.3535 287.236 57.0179 287.236 56.6824Z" fill="white"/>
<path opacity="0.7" d="M369.411 78.7164C369.411 77.7097 370.22 76.7029 371.028 76.7029C371.837 76.7029 372.645 77.7097 372.645 78.7164C372.645 79.7232 371.837 80.73 371.028 80.73C370.22 80.3944 369.411 79.7232 369.411 78.7164Z" fill="white"/>
<path opacity="0.7" d="M388.121 82.9196C388.121 82.5841 388.391 82.2485 388.66 82.2485C388.93 82.2485 389.199 82.5841 389.199 82.9196C389.199 83.2552 388.93 83.5908 388.66 83.5908C388.391 83.5908 388.121 83.2552 388.121 82.9196Z" fill="white"/>
<path opacity="0.7" d="M419.182 44.6686C419.182 44.333 419.451 43.9974 419.721 43.9974C419.99 43.9974 420.26 44.333 420.26 44.6686C420.26 45.0042 419.99 45.3398 419.721 45.3398C419.451 45.6754 419.182 45.3398 419.182 44.6686Z" fill="white"/>
<path opacity="0.7" d="M330.96 94.2214C330.96 93.8858 331.23 93.5503 331.499 93.5503C331.769 93.5503 332.038 93.8858 332.038 94.2214C332.038 94.557 331.769 94.8926 331.499 94.8926C331.23 94.8926 330.96 94.557 330.96 94.2214Z" fill="white"/>
<path opacity="0.7" d="M390.745 116.03C390.745 115.695 391.015 115.359 391.284 115.359C391.554 115.359 391.823 115.695 391.823 116.03C391.823 116.366 391.554 116.701 391.284 116.701C391.015 116.701 390.745 116.366 390.745 116.03Z" fill="white"/>
<path opacity="0.7" d="M458.755 84.6542C458.755 83.9831 459.294 83.3119 459.833 83.3119C460.372 83.3119 460.911 83.9831 460.911 84.6542C460.911 85.3254 460.372 85.9966 459.833 85.9966C459.294 85.9966 458.755 85.3254 458.755 84.6542Z" fill="white"/>
<path opacity="0.7" d="M446.944 102.012C446.944 101.34 447.483 100.669 448.022 100.669C448.561 100.669 449.1 101.34 449.1 102.012C449.1 102.683 448.561 103.354 448.022 103.354C447.483 103.354 446.944 102.683 446.944 102.012Z" fill="white"/>
<path opacity="0.7" d="M403.259 107.493C403.259 106.822 403.798 106.151 404.337 106.151C404.876 106.151 405.415 106.822 405.415 107.493C405.415 108.164 404.876 108.835 404.337 108.835C403.798 108.835 403.259 108.164 403.259 107.493Z" fill="white"/>
<path opacity="0.7" d="M350.58 52.2523C350.58 51.2456 351.389 50.2388 352.197 50.2388C353.005 50.2388 353.814 51.2456 353.814 52.2523C353.814 53.2591 353.005 54.2659 352.197 54.2659C351.119 54.2659 350.58 53.5947 350.58 52.2523Z" fill="white"/>
<path opacity="0.7" d="M361.804 117.528C361.804 116.521 362.612 115.514 363.421 115.514C364.229 115.514 365.038 116.521 365.038 117.528C365.038 118.535 364.229 119.542 363.421 119.542C362.612 119.542 361.804 118.535 361.804 117.528Z" fill="white"/>
<path opacity="0.7" d="M337.365 108.465C337.365 107.793 337.904 107.122 338.443 107.122C338.982 107.122 339.521 107.793 339.521 108.465C339.521 109.136 338.982 109.807 338.443 109.807C337.904 109.807 337.365 109.136 337.365 108.465Z" fill="white"/>
<path opacity="0.7" d="M319.354 100.521C319.354 99.8496 319.624 99.5141 320.163 99.5141C320.702 99.5141 320.971 99.8496 320.971 100.521C320.971 101.192 320.702 101.528 320.163 101.528C319.893 101.528 319.354 100.856 319.354 100.521Z" fill="white"/>
<path opacity="0.7" d="M296.549 122.431C296.549 122.766 296.28 123.102 296.01 123.102C295.741 123.102 295.471 122.766 295.471 122.431C295.471 122.095 295.741 121.759 296.01 121.759C296.28 121.759 296.549 122.095 296.549 122.431Z" fill="white"/>
<path opacity="0.7" d="M254.958 72.9365C254.958 73.2721 254.688 73.6077 254.419 73.6077C254.149 73.6077 253.88 73.2721 253.88 72.9365C253.88 72.6009 254.149 72.2653 254.419 72.2653C254.688 72.2653 254.958 72.6009 254.958 72.9365Z" fill="white"/>
<path opacity="0.7" d="M313.644 70.0663C313.644 71.0731 312.836 72.0798 312.027 72.0798C311.219 72.0798 310.41 71.0731 310.41 70.0663C310.41 69.0596 311.219 68.0528 312.027 68.0528C313.105 68.3884 313.644 69.0596 313.644 70.0663Z" fill="white"/>
<path opacity="0.7" d="M112.928 62.1859C112.928 61.5147 113.197 61.1791 113.736 61.1791C114.275 61.1791 114.545 61.5147 114.545 62.1859C114.545 62.8571 114.275 63.1926 113.736 63.1926C113.467 63.1926 112.928 62.8571 112.928 62.1859Z" fill="white"/>
<path opacity="0.7" d="M130.048 65.665C130.048 65.3294 130.317 64.9938 130.587 64.9938C130.856 64.9938 131.126 65.3294 131.126 65.665C131.126 66.0006 130.856 66.3362 130.587 66.3362C130.317 66.3362 130.048 66.0006 130.048 65.665Z" fill="white"/>
<path opacity="0.7" d="M79.8249 59.9545C79.8249 59.6189 80.0943 59.2833 80.3638 59.2833C80.6333 59.2833 80.9028 59.6189 80.9028 59.9545C80.9028 60.2901 80.6333 60.6257 80.3638 60.6257C80.0943 60.9613 79.8249 60.6257 79.8249 59.9545Z" fill="white"/>
<path opacity="0.7" d="M73.1579 76.9846C73.1579 76.649 73.4274 76.3134 73.6969 76.3134C73.9664 76.3134 74.2358 76.649 74.2358 76.9846C74.2358 77.3202 73.9664 77.6558 73.6969 77.6558C73.4274 77.6558 73.1579 77.3202 73.1579 76.9846Z" fill="white"/>
<path opacity="0.7" d="M132.672 98.7756C132.672 98.44 132.942 98.1044 133.211 98.1044C133.481 98.1044 133.75 98.44 133.75 98.7756C133.75 99.1112 133.481 99.4468 133.211 99.4468C132.942 99.4468 132.672 99.1112 132.672 98.7756Z" fill="white"/>
<path opacity="0.7" d="M144.561 54.555C144.561 53.8838 144.831 53.5482 145.37 53.5482C145.909 53.5482 146.178 53.8838 146.178 54.555C146.178 55.2262 145.909 55.5618 145.37 55.5618C145.1 55.5618 144.561 55.2262 144.561 54.555Z" fill="white"/>
<path opacity="0.7" d="M188.871 84.7568C188.871 84.0856 189.41 83.4144 189.949 83.4144C190.488 83.4144 191.027 84.0856 191.027 84.7568C191.027 85.4279 190.488 86.0991 189.949 86.0991C189.41 86.0991 188.871 85.4279 188.871 84.7568Z" fill="white"/>
<path opacity="0.7" d="M145.185 90.238C145.185 89.5668 145.724 88.8957 146.263 88.8957C146.802 88.8957 147.341 89.5668 147.341 90.238C147.341 90.9092 146.802 91.5803 146.263 91.5803C145.724 91.5803 145.185 90.9092 145.185 90.238Z" fill="white"/>
<path opacity="0.7" d="M122.3 44.9833C122.3 44.6477 122.57 44.3121 122.839 44.3121C123.109 44.3121 123.378 44.6477 123.378 44.9833C123.378 45.3189 123.109 45.6545 122.839 45.6545C122.57 45.9901 122.3 45.6545 122.3 44.9833Z" fill="white"/>
<path opacity="0.7" d="M57.7877 57.8454C57.7877 57.1742 58.3267 56.5031 58.8656 56.5031C59.4046 56.5031 59.9436 57.1742 59.9436 57.8454C59.9436 58.5166 59.4046 59.1877 58.8656 59.1877C58.3267 59.1877 57.7877 58.5166 57.7877 57.8454Z" fill="white"/>
<path opacity="0.7" d="M45.9769 75.2031C45.9769 74.5319 46.5159 73.8607 47.0549 73.8607C47.5938 73.8607 48.1328 74.5319 48.1328 75.2031C48.1328 75.8742 47.5938 76.5454 47.0549 76.5454C46.2464 76.5454 45.9769 75.8742 45.9769 75.2031Z" fill="white"/>
<path opacity="0.7" d="M2.29118 80.684C2.29118 80.0128 2.83013 79.3416 3.3691 79.3416C3.90807 79.3416 4.44702 80.0128 4.44702 80.684C4.44702 81.3552 3.90807 82.0264 3.3691 82.0264C2.56065 82.0264 2.29118 81.3552 2.29118 80.684Z" fill="white"/>
<path opacity="0.7" d="M23.3672 98.8782C23.3672 98.207 23.6367 97.8714 24.1756 97.8714C24.7146 97.8714 24.9841 98.207 24.9841 98.8782C24.9841 99.5494 24.7146 99.885 24.1756 99.885C23.6367 99.885 23.3672 99.5494 23.3672 98.8782Z" fill="white"/>
<g opacity="0.7">
<path opacity="0.7" d="M154.268 72.6174L153.999 67.5836L149.957 67.248L153.999 66.9124L154.268 61.8786L154.538 66.9124L158.58 67.248L154.538 67.5836L154.268 72.6174Z" fill="white"/>
<path opacity="0.7" d="M152.651 69.5977L153.998 67.2485L152.651 64.8994L154.268 66.9129L156.154 64.8994L154.537 67.2485L156.154 69.262L154.268 67.5841L152.651 69.5977Z" fill="white"/>
</g>
<g opacity="0.7">
<path opacity="0.7" d="M212.66 45.2673L212.391 40.2335L208.348 39.8979L212.391 39.5623L212.66 34.5285L212.93 39.5623L216.972 39.8979L212.93 40.2335L212.66 45.2673Z" fill="white"/>
<path opacity="0.7" d="M211.042 42.2468L212.389 39.8977L211.042 37.5486L212.659 39.5621L214.545 37.5486L212.928 39.8977L214.545 41.9112L212.659 40.2333L211.042 42.2468Z" fill="white"/>
</g>
</g>
<ellipse cx="74.6009" cy="18.1272" rx="35.6341" ry="35.6624" fill="url(#paint1_linear_48_46316)"/>
<path d="M110.087 21.4027C110.185 20.3239 110.235 19.2315 110.235 18.1272C110.235 18.0975 110.235 18.0677 110.235 18.038C110.232 19.1791 110.182 20.3017 110.087 21.4027Z" fill="url(#paint2_linear_48_46316)" fill-opacity="0.5"/>
<path fill-rule="evenodd" clip-rule="evenodd" d="M83.2104 52.7391C80.6781 53.3886 78.3301 53.6514 76.8688 53.7127L83.2104 52.7391ZM83.2104 52.7391C83.2104 52.7391 84.1409 52.2976 84.5673 52.0156C84.9426 51.7672 85.2584 51.4454 85.5716 51.126C85.9571 50.7332 86.3385 50.3444 86.8224 50.1013C87.0026 50.0107 87.177 49.9272 87.3473 49.8456C88.0576 49.5055 88.6956 49.2 89.3709 48.563C90.0281 47.946 90.836 47.1053 91.409 46.3641C91.7165 45.9671 91.8903 45.513 92.0621 45.0642C92.2442 44.5888 92.4237 44.1193 92.7576 43.7307C93.4076 42.9709 94.374 42.3724 95.2187 41.8825C95.5528 41.6872 95.8935 41.5364 96.2287 41.3881C96.8027 41.1337 97.3601 40.8868 97.8391 40.4369C98.6025 39.7243 98.6182 38.9182 98.6364 37.9775C98.6402 37.7853 98.6439 37.5873 98.6543 37.3834C98.6734 37.0043 98.6415 36.6124 98.6093 36.2201C98.5545 35.5493 98.4997 34.877 98.6994 34.2629C98.8855 33.6927 99.3914 33.1703 99.878 32.668C100.111 32.4275 100.339 32.1916 100.526 31.9573C102.035 30.0599 101.151 27.4286 98.5232 27.6726C98.1486 27.7078 97.796 27.7762 97.4473 27.8436C96.8465 27.9598 96.2571 28.0737 95.586 28.014C94.4128 27.91 93.3457 27.705 92.2314 27.4804C91.9334 27.4195 91.6269 27.3902 91.3227 27.3611C90.6952 27.3009 90.0777 27.2419 89.5647 26.9088C89.1449 26.6357 88.8132 26.1838 88.4751 25.7232C88.1034 25.2164 87.7237 24.6989 87.21 24.3971C86.2355 23.8251 85.0309 23.7162 83.8163 23.6065C82.6978 23.5053 81.5706 23.4034 80.6055 22.9386C80.1804 22.7334 79.856 22.5123 79.551 22.3044C78.9664 21.9061 78.4524 21.5561 77.4357 21.4578C76.2376 21.3418 75.1086 21.3864 73.9105 21.5292C73.473 21.5795 73.0892 21.661 72.7178 21.7399C72.0359 21.8847 71.3961 22.0207 70.544 21.9383C70.3788 21.9224 70.1971 21.8975 70.0059 21.8713C69.0838 21.7452 67.94 21.5887 67.3742 22.2557C66.8841 22.8348 66.5296 24.3702 66.3745 25.1589C66.2743 25.6709 66.2397 26.1955 66.2051 26.7192C66.1637 27.3437 66.1223 27.9666 65.9703 28.565C65.8303 29.1165 65.6193 29.6775 65.405 30.2473C64.8101 31.8286 64.1903 33.4767 64.9918 35.1724C65.8871 37.0678 68.0554 39.5043 69.741 40.7543C70.4035 41.2465 71.3322 41.5022 72.2564 41.7564C73.5845 42.1218 74.9031 42.4846 75.4077 43.5433C76.2173 45.2377 76.7849 47.7382 76.592 49.6494C76.5067 50.4679 76.5737 51.2254 76.6415 51.9941C76.6649 52.2572 76.6882 52.5217 76.7056 52.7902C76.725 53.079 76.8688 53.7127 76.8688 53.7127" fill="url(#paint3_linear_48_46316)" fill-opacity="0.5"/>
<path d="M110.16 15.7897C110.119 15.8467 110.078 15.9089 110.033 15.9775C109.958 16.0905 109.872 16.221 109.754 16.376C109.298 16.9724 108.666 17.1135 108.108 17.5524C107.637 17.9227 107.566 18.4177 107.495 18.9205C107.416 19.4758 107.335 20.0403 106.712 20.4566C105.657 21.1626 104.523 20.6162 103.614 19.8348C103.276 19.5443 102.972 19.239 102.671 18.9359C102.175 18.4371 101.685 17.9443 101.056 17.533L100.964 17.4732C100.013 16.8525 99.1721 16.3043 98.9745 15.1167C98.9353 14.8822 98.9613 14.6283 98.9873 14.3743C99.0172 14.0836 99.047 13.7931 98.9791 13.5321C98.8728 13.1265 98.6261 12.8124 98.3765 12.4948C98.2147 12.2887 98.0515 12.0811 97.925 11.8461C97.446 10.9536 97.0306 9.98575 97.0315 8.9447C97.0315 8.47168 97.141 8.04803 97.2465 7.63958C97.4174 6.9781 97.5782 6.35629 97.2465 5.6278C97.0211 5.13318 96.7441 4.80034 96.4855 4.48977C96.058 3.97641 95.6812 3.52388 95.6719 2.50179C95.6671 1.82708 95.912 1.30071 96.1589 0.770601C96.3734 0.309921 96.5892 -0.153847 96.6439 -0.720549C96.6694 -0.990345 96.6732 -1.30202 96.6771 -1.62802C96.6864 -2.40655 96.6967 -3.26752 97.0084 -3.83907C97.5361 -4.81002 98.0495 -4.36257 98.6149 -3.86971C98.912 -3.61071 99.2234 -3.33915 99.5588 -3.25451C99.846 -3.1842 100.544 -3.17758 100.818 -3.25186C101.356 -3.39933 101.424 -3.5858 101.53 -3.87345C101.568 -3.97837 101.612 -4.09674 101.685 -4.23164C101.75 -4.35221 101.82 -4.47168 101.897 -4.58585C101.923 -4.62531 101.95 -4.6641 101.978 -4.70224C106.667 0.923794 109.657 8.01761 110.16 15.7897Z" fill="url(#paint4_linear_48_46316)" fill-opacity="0.5"/>
<path d="M95.4768 -10.7777C94.922 -10.8641 94.3601 -10.8987 93.7481 -10.8379C93.6029 -10.8238 93.428 -10.8134 93.2364 -10.802C92.2889 -10.7453 90.9313 -10.6642 90.7232 -10.002C90.6005 -9.61388 90.8443 -9.19398 91.0725 -8.80119C91.1978 -8.5854 91.3185 -8.37776 91.3712 -8.18798C91.4394 -7.94155 91.4723 -7.66382 91.4998 -7.3863C91.5322 -7.05898 91.5573 -6.73187 91.6242 -6.45657C91.7379 -5.98773 91.9176 -5.55967 92.0962 -5.13426C92.3209 -4.59908 92.5438 -4.06786 92.6312 -3.46523C93.0052 -0.882998 89.8482 0.846426 87.716 -0.348698C87.5842 -0.422319 87.4842 -0.562727 87.3847 -0.702475C87.2763 -0.854565 87.1684 -1.00577 87.0209 -1.06948C86.79 -1.16888 86.5306 -1.03795 86.3249 -1.10386C86.1544 -1.16051 85.9965 -1.19864 85.8505 -1.23413C85.3276 -1.36065 84.9574 -1.45014 84.7177 -2.22095C84.3226 -3.48772 84.9767 -3.81262 85.7188 -4.18116C86.0275 -4.33435 86.3513 -4.49526 86.6211 -4.73464C88.0928 -6.04196 86.8275 -7.52561 85.6606 -8.89377C85.1126 -9.53651 84.5862 -10.1539 84.3753 -10.7155C84.2167 -11.1385 84.2079 -11.6016 84.1995 -12.0456C84.1832 -12.896 84.1682 -13.6765 83.1051 -13.9703C82.0263 -14.2692 81.4156 -13.7355 80.7509 -13.1543C80.5756 -13.0011 80.3965 -12.8446 80.204 -12.6991C79.0607 -11.8333 78.4795 -12.3863 77.6872 -13.1397C77.5302 -13.2892 77.365 -13.4463 77.1855 -13.602C76.2006 -14.4563 75.0487 -14.8789 73.8721 -15.3107C73.6415 -15.3953 73.4101 -15.4804 73.1786 -15.569C73.0244 -15.6283 72.8731 -15.6854 72.7244 -15.7414C71.6758 -16.1366 70.7563 -16.4831 69.8542 -17.2215C71.4071 -17.4285 72.9916 -17.5352 74.6009 -17.5352C82.3979 -17.5352 89.6098 -15.029 95.4768 -10.7777Z" fill="url(#paint5_linear_48_46316)" fill-opacity="0.5"/>
<path d="M52.9119 -10.1707L52.9641 -10.1037C53.6458 -9.22792 54.2292 -8.47849 55.463 -9.10383C55.7106 -9.22859 55.9 -9.44328 56.0916 -9.66017C56.3387 -9.9401 56.5894 -10.224 56.9722 -10.3239C57.2272 -10.3915 57.6047 -10.3252 57.9437 -10.2654C58.1031 -10.2375 58.254 -10.2108 58.3798 -10.2004C58.4472 -10.1949 58.526 -10.1894 58.6132 -10.1834C59.3841 -10.1301 60.8241 -10.03 61.0853 -9.46752C61.2894 -9.02954 60.6302 -8.27438 60.4208 -7.97549C60.0173 -7.39292 59.8715 -7.11078 59.6268 -6.43254C59.2033 -5.24822 58.7557 -4.95396 57.8217 -4.33942L57.6201 -4.20651C56.7367 -3.62019 56.2337 -2.66643 56.4469 -1.53633C56.7286 -0.0442963 58.0291 0.378914 59.3759 0.32513C60.9857 0.255478 61.3771 -0.712393 61.4952 -2.16717C61.5121 -2.37657 61.5139 -2.59281 61.5156 -2.80375C61.5225 -3.67618 61.5289 -4.46021 62.6028 -4.30129C63.227 -4.21026 63.7307 -3.87455 64.2245 -3.54547C64.7282 -3.20976 65.2213 -2.88112 65.8208 -2.82689C67.0863 -2.71272 67.8957 -3.1044 68.9452 -2.16343C69.1589 -1.97056 69.3566 -1.74308 69.5538 -1.51627C69.8491 -1.17638 70.1436 -0.837372 70.4896 -0.617613C70.6495 -0.516439 70.8526 -0.480288 71.0594 -0.443699C71.256 -0.408873 71.4562 -0.373606 71.6258 -0.280809C72.7381 0.337914 72.6698 1.73164 71.8058 2.47754C71.3897 2.83837 70.8951 2.93447 70.3887 3.03278C69.826 3.14211 69.2485 3.2543 68.7477 3.7357C67.8085 4.63811 68.2772 4.71019 68.975 4.81753C69.1934 4.85104 69.4344 4.88807 69.6617 4.95508C71.2622 5.42722 71.9073 6.63358 70.0438 7.35348C69.6419 7.50932 69.1483 7.55472 68.6494 7.60057C67.8973 7.66978 67.1335 7.7401 66.6551 8.1913C66.3518 8.47586 66.3494 8.72891 66.347 9.00135C66.345 9.20325 66.343 9.41552 66.2186 9.65931C66.0673 9.95577 65.7268 10.1846 65.3882 10.412C65.1193 10.5926 64.8519 10.7724 64.6817 10.9843C64.217 11.5518 64.0808 12.3132 63.9456 13.0697C63.8835 13.4175 63.8216 13.7642 63.728 14.0907C63.5371 14.755 63.4622 15.5029 63.0016 15.9964C62.7543 16.2583 62.3808 16.4641 62.0116 16.6676C61.7293 16.8232 61.4493 16.9775 61.2302 17.1543C60.275 17.9319 59.5854 18.6917 59.7228 19.9825C59.829 20.9391 58.8044 21.2953 57.9247 20.694C57.3754 20.3323 56.0057 20.1291 55.2811 20.2479C55.0272 20.2876 54.7911 20.4368 54.5554 20.5856C54.3838 20.6938 54.2125 20.802 54.035 20.8677C53.5546 21.0465 53.1612 21.0377 52.6974 21.0275C52.567 21.0247 52.4309 21.0216 52.2858 21.0227C50.8984 21.0374 49.9688 21.2407 49.4038 22.5211C48.8261 23.8339 48.3619 27.6503 49.9172 28.4908C51.0504 29.1016 51.7576 28.4092 52.4459 27.7352C52.5659 27.6177 52.6853 27.5006 52.8064 27.3913C53.7469 26.5396 55.2811 26.4228 54.947 28.0817C54.9188 28.2197 54.8459 28.4279 54.7602 28.6724C54.4973 29.4229 54.1149 30.5136 54.5481 30.9469C54.7525 31.1499 55.3639 31.0737 56.0062 30.9934C56.5936 30.92 57.2067 30.8435 57.5574 30.9747C58.4571 31.3168 58.395 31.9005 58.3183 32.6223C58.2919 32.8714 58.2637 33.137 58.2727 33.415C58.319 34.7723 56.5116 34.7075 56.2134 34.2658C55.6161 33.3903 54.9182 33.2054 54.0532 32.9763C53.8328 32.9179 53.6015 32.8567 53.3584 32.7804C52.8793 32.632 52.5498 32.3305 52.2219 32.0303C51.7598 31.6073 51.3006 31.187 50.4304 31.2011C50.2478 31.2041 50.0802 31.2094 49.9241 31.2145C48.8371 31.2493 48.3081 31.2661 47.171 30.4014C46.6878 30.0364 46.0664 29.6896 45.4194 29.3286C43.718 28.3792 41.8388 27.3307 41.8247 25.5876C41.8082 23.4965 40.44 21.3515 39.0128 19.9576C38.9822 19.3514 38.9668 18.7411 38.9668 18.1272C38.9668 6.59898 44.4324 -3.65149 52.9119 -10.1707Z" fill="url(#paint6_linear_48_46316)" fill-opacity="0.5"/>
</g>
<g style="mix-blend-mode:luminosity" opacity="0.2">
<path d="M470.374 66.1669C470.374 70.3169 473.738 73.681 477.888 73.681C482.038 73.681 485.402 70.3169 485.402 66.1669C485.402 62.017 482.038 58.6528 477.888 58.6528C473.738 58.6528 470.374 62.017 470.374 66.1669Z" fill="url(#paint7_linear_48_46316)"/>
<path fill-rule="evenodd" clip-rule="evenodd" d="M476.683 68.8287C469.752 65.6893 464.674 61.9526 465.34 60.4825C465.779 59.513 468.607 59.7715 472.47 60.9605C471.804 61.6531 471.27 62.4731 470.908 63.3802C472.88 64.3095 473.736 64.6755 477.493 66.3619C481.25 68.0483 482.374 68.481 484.652 69.4433C485.045 68.6347 485.296 67.7453 485.375 66.8067C488.817 68.9264 490.876 70.8818 490.437 71.8513C489.771 73.3214 483.613 71.9681 476.683 68.8287Z" fill="url(#paint8_linear_48_46316)"/>
<path d="M295.275 75.9801C293.606 76.9819 293.606 77.8586 293.397 78.4848C293.188 78.0673 292.979 77.1907 291.31 76.1888C292.562 74.9364 292.771 74.519 293.188 73.6841C293.397 74.1015 293.606 74.9782 295.275 75.9801Z" fill="#383B51"/>
<path d="M293.397 78.4848L293.21 78.5781L293.435 79.0288L293.595 78.5508L293.397 78.4848ZM295.275 75.9801L295.383 76.159L295.681 75.9801L295.383 75.8011L295.275 75.9801ZM293.188 73.6841L293.375 73.5907L293.188 73.2174L293.001 73.5907L293.188 73.6841ZM291.31 76.1888L291.162 76.0412L290.973 76.2302L291.202 76.3678L291.31 76.1888ZM293.595 78.5508C293.713 78.1949 293.748 77.8761 293.971 77.4747C294.184 77.0906 294.572 76.6455 295.383 76.159L295.168 75.8011C294.309 76.3165 293.862 76.8106 293.606 77.2719C293.359 77.7159 293.289 78.1485 293.199 78.4188L293.595 78.5508ZM293.001 73.7774C293.091 73.9571 293.215 74.3207 293.515 74.7353C293.821 75.1579 294.313 75.6458 295.168 76.159L295.383 75.8011C294.568 75.3125 294.121 74.8611 293.853 74.4905C293.579 74.112 293.494 73.8286 293.375 73.5907L293.001 73.7774ZM293.584 78.3914C293.494 78.2118 293.37 77.8481 293.07 77.4336C292.764 77.0109 292.272 76.5231 291.417 76.0098L291.202 76.3678C292.017 76.8564 292.464 77.3078 292.732 77.6783C293.006 78.0569 293.091 78.3403 293.21 78.5781L293.584 78.3914ZM293.001 73.5907C292.792 74.0091 292.642 74.3083 292.392 74.6586C292.141 75.0101 291.785 75.4182 291.162 76.0412L291.457 76.3364C292.087 75.707 292.461 75.2802 292.732 74.9012C293.003 74.5209 293.166 74.194 293.375 73.7774L293.001 73.5907Z" fill="#383B51"/>
<path d="M517.359 119.395C515.689 120.397 515.689 121.273 515.481 121.9C515.272 121.482 515.063 120.605 513.393 119.604C514.646 118.351 514.854 117.934 515.272 117.099C515.481 117.516 515.689 118.393 517.359 119.395Z" fill="#383B51"/>
<path d="M515.481 121.9L515.294 121.993L515.519 122.444L515.679 121.966L515.481 121.9ZM517.359 119.395L517.466 119.574L517.765 119.395L517.466 119.216L517.359 119.395ZM515.272 117.099L515.459 117.006L515.272 116.632L515.085 117.006L515.272 117.099ZM513.393 119.604L513.246 119.456L513.057 119.645L513.286 119.783L513.393 119.604ZM515.679 121.966C515.797 121.61 515.831 121.291 516.054 120.889C516.268 120.505 516.656 120.06 517.466 119.574L517.252 119.216C516.393 119.731 515.946 120.225 515.689 120.687C515.443 121.131 515.373 121.563 515.283 121.834L515.679 121.966ZM515.085 117.192C515.175 117.372 515.298 117.735 515.598 118.15C515.904 118.573 516.396 119.061 517.252 119.574L517.466 119.216C516.652 118.727 516.205 118.276 515.937 117.905C515.663 117.527 515.577 117.243 515.459 117.006L515.085 117.192ZM515.667 121.806C515.577 121.627 515.454 121.263 515.154 120.848C514.848 120.426 514.356 119.938 513.501 119.425L513.286 119.783C514.1 120.271 514.548 120.723 514.816 121.093C515.09 121.472 515.175 121.755 515.294 121.993L515.667 121.806ZM515.085 117.006C514.876 117.424 514.726 117.723 514.476 118.073C514.225 118.425 513.869 118.833 513.246 119.456L513.541 119.751C514.17 119.122 514.545 118.695 514.816 118.316C515.087 117.936 515.25 117.609 515.459 117.192L515.085 117.006Z" fill="#383B51"/>
<path d="M380.435 55.525C378.765 56.5269 378.765 57.4035 378.557 58.0297C378.348 57.6122 378.139 56.7356 376.469 55.7337C377.722 54.4814 377.931 54.0639 378.348 53.229C378.557 53.6465 378.765 54.5231 380.435 55.525Z" fill="#383B51"/>
<path d="M378.557 58.0297L378.37 58.123L378.595 58.5737L378.755 58.0957L378.557 58.0297ZM380.435 55.525L380.543 55.704L380.841 55.525L380.543 55.346L380.435 55.525ZM378.348 53.229L378.535 53.1357L378.348 52.7623L378.161 53.1357L378.348 53.229ZM376.469 55.7337L376.322 55.5861L376.133 55.7751L376.362 55.9127L376.469 55.7337ZM378.755 58.0957C378.873 57.7398 378.908 57.421 379.131 57.0196C379.344 56.6355 379.732 56.1904 380.543 55.704L380.328 55.346C379.469 55.8615 379.022 56.3556 378.766 56.8169C378.519 57.2608 378.449 57.6934 378.359 57.9637L378.755 58.0957ZM378.161 53.3223C378.251 53.502 378.375 53.8656 378.675 54.2802C378.98 54.7028 379.472 55.1907 380.328 55.704L380.543 55.346C379.728 54.8574 379.281 54.406 379.013 54.0355C378.739 53.6569 378.654 53.3735 378.535 53.1357L378.161 53.3223ZM378.743 57.9363C378.654 57.7567 378.53 57.3931 378.23 56.9785C377.924 56.5558 377.432 56.068 376.577 55.5547L376.362 55.9127C377.176 56.4013 377.624 56.8527 377.892 57.2232C378.166 57.6018 378.251 57.8852 378.37 58.123L378.743 57.9363ZM378.161 53.1357C377.952 53.554 377.802 53.8532 377.552 54.2035C377.301 54.5551 376.945 54.9631 376.322 55.5861L376.617 55.8813C377.246 55.2519 377.621 54.8251 377.892 54.4461C378.163 54.0658 378.326 53.7389 378.535 53.3223L378.161 53.1357Z" fill="#383B51"/>
<path d="M69.435 92.2606C67.7652 93.2625 67.7652 94.1391 67.5565 94.7653C67.3478 94.3478 67.139 93.4712 65.4692 92.4693C66.7216 91.2169 66.9303 90.7995 67.3478 89.9646C67.5565 90.382 67.7652 91.2587 69.435 92.2606Z" fill="#383B51"/>
<path d="M67.5565 94.7653L67.3698 94.8586L67.5952 95.3093L67.7545 94.8313L67.5565 94.7653ZM69.435 92.2606L69.5424 92.4396L69.8407 92.2606L69.5424 92.0816L69.435 92.2606ZM67.3478 89.9646L67.5345 89.8713L67.3478 89.4979L67.1611 89.8713L67.3478 89.9646ZM65.4692 92.4693L65.3216 92.3217L65.1326 92.5107L65.3619 92.6483L65.4692 92.4693ZM67.7545 94.8313C67.8731 94.4754 67.9073 94.1566 68.1303 93.7552C68.3437 93.3711 68.7317 92.926 69.5424 92.4396L69.3276 92.0816C68.4685 92.597 68.0217 93.0911 67.7654 93.5524C67.5188 93.9964 67.4486 94.429 67.3585 94.6993L67.7545 94.8313ZM67.1611 90.0579C67.2509 90.2376 67.3744 90.6012 67.6744 91.0158C67.9802 91.4384 68.4722 91.9263 69.3276 92.4396L69.5424 92.0816C68.728 91.593 68.2807 91.1416 68.0126 90.7711C67.7386 90.3925 67.6534 90.1091 67.5345 89.8713L67.1611 90.0579ZM67.7432 94.6719C67.6534 94.4923 67.5299 94.1287 67.2299 93.7141C66.924 93.2914 66.4321 92.8036 65.5766 92.2903L65.3619 92.6483C66.1762 93.1369 66.6235 93.5883 66.8917 93.9588C67.1656 94.3374 67.2509 94.6208 67.3698 94.8586L67.7432 94.6719ZM67.1611 89.8713C66.9519 90.2896 66.8019 90.5888 66.5517 90.9391C66.3006 91.2907 65.9446 91.6987 65.3216 92.3217L65.6168 92.6169C66.2462 91.9875 66.6207 91.5607 66.8914 91.1817C67.1631 90.8014 67.3262 90.4745 67.5345 90.0579L67.1611 89.8713Z" fill="#383B51"/>
<path d="M166.701 132.753C165.031 133.755 165.031 134.632 164.822 135.258C164.614 134.84 164.405 133.964 162.735 132.962C163.987 131.71 164.196 131.292 164.614 130.457C164.822 130.875 165.031 131.751 166.701 132.753Z" fill="#383B51"/>
<path d="M164.822 135.258L164.636 135.351L164.861 135.802L165.02 135.324L164.822 135.258ZM166.701 132.753L166.808 132.932L167.107 132.753L166.808 132.574L166.701 132.753ZM164.614 130.457L164.8 130.364L164.614 129.991L164.427 130.364L164.614 130.457ZM162.735 132.962L162.588 132.814L162.398 133.003L162.628 133.141L162.735 132.962ZM165.02 135.324C165.139 134.968 165.173 134.649 165.396 134.248C165.61 133.864 165.998 133.419 166.808 132.932L166.593 132.574C165.734 133.09 165.288 133.584 165.031 134.045C164.785 134.489 164.714 134.922 164.624 135.192L165.02 135.324ZM164.427 130.551C164.517 130.73 164.64 131.094 164.94 131.508C165.246 131.931 165.738 132.419 166.593 132.932L166.808 132.574C165.994 132.086 165.547 131.634 165.278 131.264C165.004 130.885 164.919 130.602 164.8 130.364L164.427 130.551ZM165.009 135.165C164.919 134.985 164.796 134.621 164.496 134.207C164.19 133.784 163.698 133.296 162.842 132.783L162.628 133.141C163.442 133.63 163.889 134.081 164.158 134.451C164.432 134.83 164.517 135.113 164.636 135.351L165.009 135.165ZM164.427 130.364C164.218 130.782 164.068 131.082 163.818 131.432C163.566 131.783 163.21 132.191 162.588 132.814L162.883 133.11C163.512 132.48 163.887 132.053 164.157 131.674C164.429 131.294 164.592 130.967 164.8 130.551L164.427 130.364Z" fill="#383B51"/>
<path d="M149.168 40.4967C147.498 41.4985 147.498 42.3752 147.289 43.0014C147.081 42.5839 146.872 41.7073 145.202 40.7054C146.454 39.453 146.663 39.0356 147.081 38.2007C147.289 38.6181 147.498 39.4948 149.168 40.4967Z" fill="#383B51"/>
<path d="M147.289 43.0014L147.103 43.0947L147.328 43.5454L147.487 43.0674L147.289 43.0014ZM149.168 40.4967L149.275 40.6756L149.574 40.4967L149.275 40.3177L149.168 40.4967ZM147.081 38.2007L147.267 38.1073L147.081 37.734L146.894 38.1073L147.081 38.2007ZM145.202 40.7054L145.055 40.5578L144.866 40.7468L145.095 40.8844L145.202 40.7054ZM147.487 43.0674C147.606 42.7115 147.64 42.3927 147.863 41.9913C148.077 41.6072 148.465 41.1621 149.275 40.6756L149.061 40.3177C148.201 40.8331 147.755 41.3272 147.498 41.7885C147.252 42.2325 147.181 42.6651 147.091 42.9354L147.487 43.0674ZM146.894 38.294C146.984 38.4737 147.107 38.8373 147.407 39.2519C147.713 39.6745 148.205 40.1624 149.061 40.6756L149.275 40.3177C148.461 39.8291 148.014 39.3777 147.745 39.0071C147.472 38.6286 147.386 38.3452 147.267 38.1073L146.894 38.294ZM147.476 42.908C147.386 42.7284 147.263 42.3647 146.963 41.9502C146.657 41.5275 146.165 41.0397 145.31 40.5264L145.095 40.8844C145.909 41.373 146.356 41.8244 146.625 42.1949C146.899 42.5735 146.984 42.8569 147.103 43.0947L147.476 42.908ZM146.894 38.1073C146.685 38.5257 146.535 38.8249 146.285 39.1752C146.034 39.5267 145.678 39.9348 145.055 40.5578L145.35 40.853C145.979 40.2236 146.354 39.7968 146.624 39.4178C146.896 39.0375 147.059 38.7106 147.267 38.294L146.894 38.1073Z" fill="#383B51"/>
<path d="M0.138381 119.395C-1.53142 120.397 -1.53142 121.273 -1.74014 121.9C-1.94887 121.482 -2.15759 120.605 -3.82739 119.604C-2.57504 118.351 -2.36632 117.934 -1.94887 117.099C-1.74014 117.516 -1.53142 118.393 0.138381 119.395Z" fill="#383B51"/>
<path d="M-1.74014 121.9L-1.92683 121.993L-1.70148 122.444L-1.54213 121.966L-1.74014 121.9ZM0.138381 119.395L0.245769 119.574L0.544069 119.395L0.245769 119.216L0.138381 119.395ZM-1.94887 117.099L-1.76218 117.006L-1.94887 116.632L-2.13556 117.006L-1.94887 117.099ZM-3.82739 119.604L-3.97498 119.456L-4.16401 119.645L-3.93478 119.783L-3.82739 119.604ZM-1.54213 121.966C-1.4235 121.61 -1.38933 121.291 -1.16633 120.889C-0.952972 120.505 -0.56494 120.06 0.245769 119.574L0.030993 119.216C-0.828098 119.731 -1.27496 120.225 -1.53124 120.687C-1.77787 121.131 -1.84807 121.563 -1.93816 121.834L-1.54213 121.966ZM-2.13556 117.192C-2.04575 117.372 -1.92226 117.735 -1.62224 118.15C-1.31638 118.573 -0.824434 119.061 0.030993 119.574L0.245769 119.216C-0.568604 118.727 -1.01592 118.276 -1.28405 117.905C-1.55803 117.527 -1.64327 117.243 -1.76218 117.006L-2.13556 117.192ZM-1.55345 121.806C-1.64327 121.627 -1.76675 121.263 -2.06677 120.848C-2.37263 120.426 -2.86458 119.938 -3.72 119.425L-3.93478 119.783C-3.12041 120.271 -2.67309 120.723 -2.40496 121.093C-2.13099 121.472 -2.04575 121.755 -1.92683 121.993L-1.55345 121.806ZM-2.13556 117.006C-2.34472 117.424 -2.49472 117.723 -2.74489 118.073C-2.99601 118.425 -3.35201 118.833 -3.97498 119.456L-3.6798 119.751C-3.05043 119.122 -2.67589 118.695 -2.4052 118.316C-2.13356 117.936 -1.97046 117.609 -1.76218 117.192L-2.13556 117.006Z" fill="#383B51"/>
<path d="M40.2136 310.587C38.5438 311.589 38.5438 312.466 38.3351 313.092C38.1263 312.674 37.9176 311.798 36.2478 310.796C37.5002 309.543 37.7089 309.126 38.1263 308.291C38.3351 308.708 38.5438 309.585 40.2136 310.587Z" fill="#383B51"/>
<path d="M38.3351 313.092L38.1484 313.185L38.3737 313.636L38.5331 313.158L38.3351 313.092ZM40.2136 310.587L40.321 310.766L40.6193 310.587L40.321 310.408L40.2136 310.587ZM38.1263 308.291L38.313 308.198L38.1263 307.824L37.9396 308.198L38.1263 308.291ZM36.2478 310.796L36.1002 310.648L35.9112 310.837L36.1404 310.975L36.2478 310.796ZM38.5331 313.158C38.6517 312.802 38.6859 312.483 38.9089 312.082C39.1222 311.698 39.5103 311.252 40.321 310.766L40.1062 310.408C39.2471 310.923 38.8002 311.418 38.544 311.879C38.2973 312.323 38.2271 312.755 38.137 313.026L38.5331 313.158ZM37.9396 308.384C38.0295 308.564 38.1529 308.928 38.453 309.342C38.7588 309.765 39.2508 310.253 40.1062 310.766L40.321 310.408C39.5066 309.919 39.0593 309.468 38.7911 309.097C38.5172 308.719 38.4319 308.435 38.313 308.198L37.9396 308.384ZM38.5217 312.998C38.4319 312.819 38.3084 312.455 38.0084 312.04C37.7026 311.618 37.2106 311.13 36.3552 310.617L36.1404 310.975C36.9548 311.463 37.4021 311.915 37.6702 312.285C37.9442 312.664 38.0295 312.947 38.1484 313.185L38.5217 312.998ZM37.9396 308.198C37.7305 308.616 37.5805 308.915 37.3303 309.266C37.0792 309.617 36.7232 310.025 36.1002 310.648L36.3954 310.943C37.0248 310.314 37.3993 309.887 37.67 309.508C37.9416 309.128 38.1047 308.801 38.313 308.384L37.9396 308.198Z" fill="#383B51"/>
<path d="M422.598 35.9049C420.928 36.9067 420.928 37.7834 420.719 38.4096C420.51 37.9921 420.302 37.1155 418.632 36.1136C419.884 34.8612 420.093 34.4438 420.51 33.6089C420.719 34.0263 420.928 34.903 422.598 35.9049Z" fill="#383B51"/>
<path d="M420.719 38.4096L420.532 38.5029L420.758 38.9536L420.917 38.4756L420.719 38.4096ZM422.598 35.9049L422.705 36.0838L423.003 35.9049L422.705 35.7259L422.598 35.9049ZM420.51 33.6089L420.697 33.5155L420.51 33.1422L420.324 33.5155L420.51 33.6089ZM418.632 36.1136L418.484 35.966L418.295 36.155L418.524 36.2926L418.632 36.1136ZM420.917 38.4756C421.036 38.1197 421.07 37.8009 421.293 37.3995C421.506 37.0154 421.894 36.5703 422.705 36.0838L422.49 35.7259C421.631 36.2413 421.184 36.7354 420.928 37.1967C420.681 37.6407 420.611 38.0733 420.521 38.3436L420.917 38.4756ZM420.324 33.7022C420.413 33.8819 420.537 34.2455 420.837 34.6601C421.143 35.0827 421.635 35.5706 422.49 36.0838L422.705 35.7259C421.891 35.2373 421.443 34.7859 421.175 34.4153C420.901 34.0368 420.816 33.7534 420.697 33.5155L420.324 33.7022ZM420.906 38.3162C420.816 38.1366 420.692 37.7729 420.392 37.3584C420.087 36.9357 419.595 36.4479 418.739 35.9346L418.524 36.2926C419.339 36.7812 419.786 37.2326 420.054 37.6031C420.328 37.9817 420.413 38.2651 420.532 38.5029L420.906 38.3162ZM420.324 33.5155C420.115 33.9339 419.965 34.2331 419.714 34.5834C419.463 34.9349 419.107 35.343 418.484 35.966L418.779 36.2612C419.409 35.6318 419.783 35.205 420.054 34.826C420.326 34.4457 420.489 34.1188 420.697 33.7022L420.324 33.5155Z" fill="#383B51"/>
<path d="M431.364 112.715C429.694 113.717 429.694 114.594 429.486 115.22C429.277 114.803 429.068 113.926 427.398 112.924C428.651 111.672 428.86 111.254 429.277 110.419C429.486 110.837 429.694 111.714 431.364 112.715Z" fill="#383B51"/>
<path d="M429.486 115.22L429.299 115.313L429.524 115.764L429.684 115.286L429.486 115.22ZM431.364 112.715L431.472 112.894L431.77 112.715L431.472 112.536L431.364 112.715ZM429.277 110.419L429.464 110.326L429.277 109.953L429.09 110.326L429.277 110.419ZM427.398 112.924L427.251 112.777L427.062 112.966L427.291 113.103L427.398 112.924ZM429.684 115.286C429.802 114.93 429.837 114.611 430.06 114.21C430.273 113.826 430.661 113.381 431.472 112.894L431.257 112.536C430.398 113.052 429.951 113.546 429.695 114.007C429.448 114.451 429.378 114.884 429.288 115.154L429.684 115.286ZM429.09 110.513C429.18 110.692 429.304 111.056 429.604 111.471C429.909 111.893 430.401 112.381 431.257 112.894L431.472 112.536C430.657 112.048 430.21 111.596 429.942 111.226C429.668 110.847 429.583 110.564 429.464 110.326L429.09 110.513ZM429.672 115.127C429.583 114.947 429.459 114.583 429.159 114.169C428.853 113.746 428.361 113.258 427.506 112.745L427.291 113.103C428.105 113.592 428.553 114.043 428.821 114.414C429.095 114.792 429.18 115.076 429.299 115.313L429.672 115.127ZM429.09 110.326C428.881 110.744 428.731 111.044 428.481 111.394C428.23 111.745 427.874 112.154 427.251 112.777L427.546 113.072C428.175 112.442 428.55 112.016 428.821 111.637C429.092 111.256 429.255 110.929 429.464 110.513L429.09 110.326Z" fill="#383B51"/>
<circle cx="55.5954" cy="31.2411" r="14.1933" fill="url(#paint9_linear_48_46316)"/>
<path d="M344.231 89.3553C353.987 80.7785 362.574 87.9417 362.1 87.1679C359.967 83.6855 355.946 82.3032 353.138 82.6197C349.128 83.0718 345.582 84.9049 344.231 89.3553Z" fill="#242635"/>
<path d="M365.964 93.6254C365.789 92.8564 365.044 91.3347 364.689 90.7881C365.833 90.8455 366.062 91.5971 366.224 91.8205C366.385 92.0439 366.138 94.3945 365.964 93.6254Z" fill="#242635"/>
</g>
<g filter="url(#filter5_f_48_46316)">
<ellipse cx="262.782" cy="223.328" rx="12.4207" ry="2.19188" fill="url(#paint10_radial_48_46316)" fill-opacity="0.5"/>
</g>
<rect y="169.506" width="528" height="117.387" fill="url(#paint11_linear_48_46316)"/>
</g>
<defs>
<filter id="filter0_d_48_46316" x="-20.3722" y="-98.2427" width="569.232" height="433.7" filterUnits="userSpaceOnUse" color-interpolation-filters="sRGB">
<feFlood flood-opacity="0" result="BackgroundImageFix"/>
<feColorMatrix in="SourceAlpha" type="matrix" values="0 0 0 0 0 0 0 0 0 0 0 0 0 0 0 0 0 0 127 0" result="hardAlpha"/>
<feOffset dy="5.42125"/>
<feGaussianBlur stdDeviation="6.77657"/>
<feColorMatrix type="matrix" values="0 0 0 0 0 0 0 0 0 0 0 0 0 0 0 0 0 0 0.25 0"/>
<feBlend mode="normal" in2="BackgroundImageFix" result="effect1_dropShadow_48_46316"/>
<feBlend mode="normal" in="SourceGraphic" in2="effect1_dropShadow_48_46316" result="shape"/>
</filter>
<filter id="filter1_f_48_46316" x="140.274" y="203.779" width="19.9347" height="3.82171" filterUnits="userSpaceOnUse" color-interpolation-filters="sRGB">
<feFlood flood-opacity="0" result="BackgroundImageFix"/>
<feBlend mode="normal" in="SourceGraphic" in2="BackgroundImageFix" result="shape"/>
<feGaussianBlur stdDeviation="0.677657" result="effect1_foregroundBlur_48_46316"/>
</filter>
<filter id="filter2_f_48_46316" x="483.09" y="226.274" width="30.5258" height="5.47259" filterUnits="userSpaceOnUse" color-interpolation-filters="sRGB">
<feFlood flood-opacity="0" result="BackgroundImageFix"/>
<feBlend mode="normal" in="SourceGraphic" in2="BackgroundImageFix" result="shape"/>
<feGaussianBlur stdDeviation="0.677657" result="effect1_foregroundBlur_48_46316"/>
</filter>
<filter id="filter3_f_48_46316" x="50.4066" y="178.023" width="41.17" height="15.2901" filterUnits="userSpaceOnUse" color-interpolation-filters="sRGB">
<feFlood flood-opacity="0" result="BackgroundImageFix"/>
<feBlend mode="normal" in="SourceGraphic" in2="BackgroundImageFix" result="shape"/>
<feGaussianBlur stdDeviation="1.82967" result="effect1_foregroundBlur_48_46316"/>
</filter>
<filter id="filter4_f_48_46316" x="399.224" y="204.029" width="12.0971" height="4.85567" filterUnits="userSpaceOnUse" color-interpolation-filters="sRGB">
<feFlood flood-opacity="0" result="BackgroundImageFix"/>
<feBlend mode="normal" in="SourceGraphic" in2="BackgroundImageFix" result="shape"/>
<feGaussianBlur stdDeviation="0.94872" result="effect1_foregroundBlur_48_46316"/>
</filter>
<filter id="filter5_f_48_46316" x="249.387" y="220.162" width="26.7896" height="6.33213" filterUnits="userSpaceOnUse" color-interpolation-filters="sRGB">
<feFlood flood-opacity="0" result="BackgroundImageFix"/>
<feBlend mode="normal" in="SourceGraphic" in2="BackgroundImageFix" result="shape"/>
<feGaussianBlur stdDeviation="0.487085" result="effect1_foregroundBlur_48_46316"/>
</filter>
<linearGradient id="paint0_linear_48_46316" x1="226.6" y1="178.76" x2="226.6" y2="253.712" gradientUnits="userSpaceOnUse">
<stop stop-color="#3F3F3F"/>
<stop offset="1" stop-color="#D1D1D1"/>
</linearGradient>
<linearGradient id="paint1_linear_48_46316" x1="110.235" y1="18.3766" x2="38.9668" y2="18.3766" gradientUnits="userSpaceOnUse">
<stop stop-color="#012F47"/>
<stop offset="0.958333" stop-color="#011824"/>
</linearGradient>
<linearGradient id="paint2_linear_48_46316" x1="110.235" y1="18.3766" x2="38.9668" y2="18.3766" gradientUnits="userSpaceOnUse">
<stop stop-color="#586931"/>
<stop offset="1" stop-color="#465523"/>
</linearGradient>
<linearGradient id="paint3_linear_48_46316" x1="110.235" y1="18.3766" x2="38.9668" y2="18.3766" gradientUnits="userSpaceOnUse">
<stop stop-color="#586931"/>
<stop offset="1" stop-color="#465523"/>
</linearGradient>
<linearGradient id="paint4_linear_48_46316" x1="110.235" y1="18.3766" x2="38.9668" y2="18.3766" gradientUnits="userSpaceOnUse">
<stop stop-color="#586931"/>
<stop offset="1" stop-color="#465523"/>
</linearGradient>
<linearGradient id="paint5_linear_48_46316" x1="110.235" y1="18.3766" x2="38.9668" y2="18.3766" gradientUnits="userSpaceOnUse">
<stop stop-color="#586931"/>
<stop offset="1" stop-color="#465523"/>
</linearGradient>
<linearGradient id="paint6_linear_48_46316" x1="110.235" y1="18.3766" x2="38.9668" y2="18.3766" gradientUnits="userSpaceOnUse">
<stop stop-color="#586931"/>
<stop offset="1" stop-color="#465523"/>
</linearGradient>
<linearGradient id="paint7_linear_48_46316" x1="483.67" y1="54.4103" x2="481.574" y2="74.0739" gradientUnits="userSpaceOnUse">
<stop stop-color="#7177D1" stop-opacity="0.12"/>
<stop offset="1" stop-color="#242635" stop-opacity="0.22"/>
</linearGradient>
<linearGradient id="paint8_linear_48_46316" x1="483.67" y1="54.4103" x2="481.574" y2="74.0739" gradientUnits="userSpaceOnUse">
<stop stop-color="#7177D1" stop-opacity="0.12"/>
<stop offset="1" stop-color="#242635" stop-opacity="0.22"/>
</linearGradient>
<linearGradient id="paint9_linear_48_46316" x1="62.1047" y1="9.03417" x2="55.5954" y2="45.4344" gradientUnits="userSpaceOnUse">
<stop stop-color="#7177D1" stop-opacity="0.12"/>
<stop offset="1" stop-color="#242635" stop-opacity="0.22"/>
</linearGradient>
<radialGradient id="paint10_radial_48_46316" cx="0" cy="0" r="1" gradientUnits="userSpaceOnUse" gradientTransform="translate(262.782 223.328) rotate(90) scale(2.19188 12.4207)">
<stop stop-color="#FF9900" stop-opacity="0.6"/>
<stop offset="1" stop-color="#FF9900" stop-opacity="0"/>
</radialGradient>
<linearGradient id="paint11_linear_48_46316" x1="264" y1="174.694" x2="264" y2="286.893" gradientUnits="userSpaceOnUse">
<stop offset="0.135417" stop-opacity="0"/>
<stop offset="0.552083" stop-color="#001315"/>
</linearGradient>
<clipPath id="clip0_48_46316">
<rect width="528" height="309" fill="white"/>
</clipPath>
<clipPath id="clip1_48_46316">
<rect width="542.125" height="406.594" fill="white" transform="translate(-6.81909 -90.1108)"/>
</clipPath>
</defs>
</svg>
