<svg width="528" height="297" viewBox="0 0 528 297" fill="none" xmlns="http://www.w3.org/2000/svg">
<g clip-path="url(#clip0_60_563)">
<g opacity="0.05">
<path fill-rule="evenodd" clip-rule="evenodd" d="M335.326 75.7565C336.54 77.0237 338.388 77.6769 340.872 77.7162C346.86 77.238 351.564 75.1021 354.972 71.3076C358.247 67.523 359.89 63.5961 359.893 59.5322C359.831 57.5706 358.991 55.7011 357.369 53.9238C355.751 52.2822 353.57 51.4435 350.826 51.411C345.095 52.012 340.736 54.4 337.73 58.5707C334.728 62.8739 333.288 66.9846 333.411 70.9127C333.469 72.745 334.106 74.3602 335.326 75.7565ZM327.447 162.703C329.386 160.816 331.295 158.895 333.177 156.939C332.948 158.065 332.762 159.16 332.621 160.224C332.622 165.606 333.701 169.631 335.855 172.302C337.881 174.97 340.193 176.33 342.803 176.387C344.103 176.415 345.284 176.115 346.344 175.481C347.274 174.712 348.019 173.679 348.57 172.378C352.648 165.38 361.441 154.616 374.959 140.076C388.475 125.41 400.483 113.926 410.984 105.62C405.206 112.713 399.252 121.902 393.118 133.185C386.983 144.469 383.551 154.433 382.828 163.08C382.725 167.408 383.689 170.843 385.714 173.379C387.738 176.049 390.509 177.418 394.03 177.494C401.732 177.137 410.316 172.597 419.783 163.878C421.732 162.083 423.665 160.251 425.583 158.382C425.429 164.51 426.83 169.463 429.784 173.246C433.127 177.534 438.111 180.016 444.727 180.691C452.264 181.328 459.844 179.731 467.462 175.897C474.963 171.922 481.878 166.704 488.202 160.24C489.096 160.465 489.934 160.614 490.711 160.694C495.251 161.156 500.399 160.233 506.15 157.923C512.046 155.497 518.525 151.285 525.586 145.292C526.065 143.235 525.667 141.419 524.396 139.84C523.119 138.262 521.663 137.784 520.023 138.407C515.846 141.931 511.904 144.491 508.194 146.087C504.483 147.684 501.121 148.461 498.112 148.417C501.49 143.76 504.219 139.038 506.302 134.246C508.372 129.589 509.634 125.107 510.09 120.81C510.656 115.474 509.746 110.444 507.364 105.726C504.847 100.996 500.493 98.1837 494.295 97.2865C491.696 97.0226 489.266 97.1041 486.99 97.5301C484.713 97.9577 482.671 98.671 480.866 99.6715L480.668 99.6512C470.857 99.4408 459.827 105.163 447.572 116.814C440.177 123.86 434.583 131.457 430.789 139.605C427.23 143.254 423.937 146.432 420.911 149.139C415.179 154.399 411.398 157.071 409.573 157.161C408.268 157.133 407.638 156.204 407.681 154.365C407.918 149.779 410.227 143.135 414.607 134.438C418.854 125.738 424.27 117.26 430.856 109.002C431.382 108.752 431.718 108.364 431.862 107.842C432.134 107.325 432.279 106.739 432.294 106.081C432.364 103.197 430.931 100.213 428.008 97.131C425.081 93.9177 421.015 92.1255 415.81 91.748C410.44 92.5512 401.819 98.7293 389.941 110.283C377.927 121.966 367.02 133.738 357.223 145.598C361.063 137.414 365.36 129.568 370.102 122.059C374.846 114.419 379.297 108.153 383.457 103.254C383.986 102.872 384.262 102.286 384.281 101.499C384.198 99.4021 383.013 97.1413 380.722 94.7319C378.297 92.4488 375.654 91.145 372.794 90.8187C368.057 92.5556 360.534 101.843 350.227 118.677C347.288 123.514 344.709 128.098 342.492 132.428C337.265 138.601 332.424 143.77 327.971 147.929C322.133 153.522 317.975 156.425 315.503 156.645C314.196 156.693 313.517 155.803 313.459 153.965C313.569 149.112 316.205 141.473 321.37 131.054C326.405 120.774 332.124 111.256 338.515 102.496C339.023 102.085 339.268 101.485 339.243 100.699C339.06 99.0029 337.558 96.9586 334.74 94.568C332.053 92.1757 329.266 90.9019 326.389 90.7399C321.996 92.3443 314.898 101.586 305.102 118.467C302.467 122.971 300.158 127.363 298.177 131.643C295.041 135.632 291.858 139.417 288.627 143C284.015 147.836 279.607 151.866 275.398 155.087C276.351 148.565 276.637 140.119 276.255 129.75C275.741 119.392 277.492 109.515 281.5 100.12C282.232 99.4071 282.562 98.5908 282.493 97.674C282.048 95.2097 279.967 92.7374 276.251 90.2636C272.533 87.7882 268.909 86.5586 265.377 86.5684C264.596 86.6295 263.826 86.8216 263.065 87.1446C262.432 87.4581 261.88 87.9607 261.41 88.654C260.939 89.3507 260.422 90.3117 259.861 91.5402C256.508 97.4614 251.939 104.594 246.153 112.942C241.208 120.048 237.165 125.745 234.029 130.035C233.669 130.176 233.378 130.396 233.155 130.692C231.184 133.771 229.26 136.668 227.385 139.382C227.071 138.272 226.771 137.142 226.485 135.993C226.396 134.816 225.969 134.326 225.197 134.516C223.906 134.749 222.549 135.84 221.125 137.794C219.579 139.889 218.824 142.054 218.863 144.288C219 146.125 219.278 147.972 219.696 149.831C218.468 151.381 217.265 152.84 216.085 154.208C210.759 160.41 206.876 163.753 204.444 164.241C203.795 164.334 203.307 164.144 202.978 163.66C202.534 163.328 202.249 162.711 202.121 161.803C201.707 156.975 203.506 149.108 207.513 138.211C211.538 127.443 216.255 117.37 221.66 107.984C222.122 107.521 222.3 106.898 222.19 106.122C221.825 104.459 220.112 102.593 217.054 100.527C213.996 98.4636 211.025 97.5115 208.148 97.6659C207.112 97.8169 205.82 98.9338 204.265 101.01C202.71 103.09 200.924 105.862 198.907 109.329C198.34 106.241 196.927 103.67 194.661 101.622C192.397 99.5738 188.93 98.8273 184.261 99.376C168.31 103.166 155.325 113.989 145.308 131.845C135.29 149.704 130.94 165.675 132.26 179.758C132.914 184.422 134.606 188.01 137.331 190.519C139.907 192.917 143.726 193.813 148.781 193.204C155.204 192 161.209 187.817 166.797 180.654C172.531 173.603 177.612 165.656 182.04 156.811C181.46 160.201 181.057 163.432 180.83 166.505C180.602 169.581 180.67 172.412 181.034 175.001C181.617 179.149 182.974 182.253 185.112 184.32C187.246 186.388 189.929 187.184 193.16 186.711C200.839 185.062 208.905 179.123 217.357 168.895C219.541 166.254 221.669 163.563 223.742 160.822C225.021 163.339 226.546 165.874 228.318 168.428C233.905 176.68 241.866 180.797 252.201 180.782L252.787 180.736C261.351 179.807 270.532 174.881 280.332 165.956C283.669 162.917 286.958 159.63 290.198 156.095C289.724 158.816 289.416 161.481 289.272 164.09C289.406 168.413 290.493 171.787 292.526 174.203C294.566 176.753 297.412 177.958 301.068 177.827C309.274 177.006 318.067 171.964 327.447 162.703ZM110.553 75.7313C99.4516 70.0391 84.9643 69.3999 67.0895 73.8219C48.2795 79.3121 32.2484 88.4006 18.9895 101.081C5.69858 113.638 0.187963 125.997 2.46223 138.149C4.15708 143.533 7.06038 147.096 11.1689 148.838C15.3684 150.421 19.0455 150.784 22.1974 149.934C23.5849 149.559 24.5899 149.017 25.2121 148.303C25.8009 147.466 25.8346 146.575 25.3133 145.627C23.3986 136.364 27.2105 125.756 36.7459 113.808C46.2779 101.859 59.9132 93.1512 77.6467 87.677C87.6371 85.1151 95.4836 84.8965 101.181 87.0247C106.877 89.1514 110.517 93.1979 112.094 99.153C114.247 109.848 111.638 121.421 104.265 133.871C96.8892 146.327 87.3617 154.469 75.6793 158.304C73.0337 159.019 70.913 159.184 69.3271 158.798C71.8594 146.433 74.5277 135.591 77.3304 126.274C80.039 117.121 83.6133 111.74 88.0518 110.134C88.8406 110.056 89.3746 109.776 89.6522 109.295C89.8372 108.973 89.8457 108.496 89.6775 107.86C89.1143 106.247 87.6361 104.744 85.2429 103.353C82.8146 101.837 80.0707 101.423 77.0114 102.113C66.3179 108.67 57.0049 125.79 49.0708 153.471C41.295 181.246 31.6221 198.531 20.0471 205.326C17.8693 205.78 16.2874 205.664 15.2952 204.981C14.4276 204.265 13.3486 204.012 12.0569 204.224C10.7939 204.566 9.98237 205.329 9.62228 206.513C9.25903 207.7 9.29839 209.117 9.73378 210.762C10.8417 214.945 13.6845 218.797 18.2638 222.314C22.8413 225.829 28.4593 226.893 35.1161 225.502C43.46 222.841 50.1037 216.292 55.0391 205.856C59.8501 195.456 63.7546 183.67 66.7511 170.496C69.3797 172.776 72.5228 174.439 76.1773 175.49C79.7983 176.415 84.0221 176.293 88.8473 175.123C102.04 170.879 113.241 161.399 122.45 146.685C131.621 131.848 134.621 116.638 131.442 101.058C128.453 89.7768 121.491 81.3341 110.553 75.7313ZM170.756 159.429C165.102 168.071 160.733 172.683 157.647 173.265C155.964 173.512 154.97 172.535 154.658 170.326C154.38 162.69 157.884 151.451 165.177 136.609C172.334 121.79 179.817 113.015 187.619 110.282C188.912 110.093 190.235 110.564 191.581 111.69C192.795 112.837 193.614 114.439 194.037 116.495C194.054 116.612 194.072 116.742 194.092 116.884L194.142 117.245L194.173 117.468C194.229 117.857 194.206 118.192 194.117 118.468L191.055 124.876C183.192 139.402 176.423 150.922 170.756 159.429ZM238.947 138.187C236.478 142.342 233.903 146.402 231.222 150.367C232.046 152.308 232.926 154.169 233.863 155.951C237.043 161.759 240.859 164.687 245.312 164.734C250.855 163.647 254.166 158.057 255.247 147.969C256.18 137.762 256.676 126.865 256.727 115.277C254.221 118.502 251.349 122.081 248.112 126.018C245.009 130.077 241.977 134.13 239.013 138.177C238.991 138.181 238.969 138.184 238.947 138.187ZM492.971 131.707C491.094 135.74 488.632 139.773 485.577 143.814C482.098 140.691 479.554 136.804 477.946 132.154C476.193 127.623 475.539 123.273 475.983 119.094C476.096 118.052 476.262 117.079 476.49 116.178C476.714 115.279 477 114.449 477.345 113.693C478.926 112.404 480.487 111.31 482.028 110.411C483.566 109.513 485.085 108.811 486.587 108.303C490.472 108.832 493.216 110.165 494.83 112.308C496.296 114.57 496.86 117.332 496.513 120.592C496.152 123.987 494.971 127.692 492.971 131.707ZM465.661 161.701C461.906 163.691 458.401 164.521 455.156 164.191C452.818 163.952 451.206 163.065 450.32 161.521C449.287 160.099 448.926 157.952 449.23 155.08C449.884 150.138 451.822 144.862 455.044 139.256C458.41 133.534 462.394 128.137 467.003 123.068L466.921 123.85C466.338 129.33 466.873 134.792 468.53 140.234C470.197 145.548 472.865 150.104 476.532 153.907C473.027 157.244 469.404 159.841 465.661 161.701Z" fill="white"/>
<path opacity="0.290365" fill-rule="evenodd" clip-rule="evenodd" d="M118.971 234.948C116.521 235.175 112.656 232.846 115.041 232.24C157.179 221.543 214.063 213.41 278.388 211.144C353.518 208.496 408.962 212.408 432.787 214.63C435.706 214.902 436.006 218.793 433.191 219.61L432.174 219.906C430.371 220.429 430.001 222.819 431.561 223.864C433.446 225.125 432.485 228.093 430.222 227.942C405.18 226.273 328.934 221.636 278.812 223.402C225.059 225.296 138.148 233.171 118.971 234.948Z" fill="white"/>
</g>
<rect opacity="0.35" y="-1" width="528" height="297" fill="url(#paint0_radial_60_563)"/>
</g>
<g opacity="0.2">
<path d="M30.4294 265.382L96.3579 218.484" stroke="url(#paint1_linear_60_563)" stroke-width="0.679675" stroke-linecap="square"/>
<path d="M75.2881 265.382L126.943 218.484" stroke="url(#paint2_linear_60_563)" stroke-width="0.679675" stroke-linecap="square"/>
<path d="M120.146 265.382L158.888 218.484" stroke="url(#paint3_linear_60_563)" stroke-width="0.679675" stroke-linecap="square"/>
<path d="M164.326 265.382L189.474 218.484" stroke="url(#paint4_linear_60_563)" stroke-width="0.679675" stroke-linecap="square"/>
<path d="M209.184 265.382L221.418 218.484" stroke="url(#paint5_linear_60_563)" stroke-width="0.679675" stroke-linecap="square"/>
<path d="M254.722 265.382L252.683 218.484" stroke="url(#paint6_linear_60_563)" stroke-width="0.679675" stroke-linecap="square"/>
<path d="M298.221 265.382L282.589 218.484" stroke="url(#paint7_linear_60_563)" stroke-width="0.679675" stroke-linecap="square"/>
<path d="M343.08 265.382L314.534 218.484" stroke="url(#paint8_linear_60_563)" stroke-width="0.679675" stroke-linecap="square"/>
<path d="M387.938 265.382L345.798 218.484" stroke="url(#paint9_linear_60_563)" stroke-width="0.679675" stroke-linecap="square"/>
<path d="M432.797 265.382L377.063 218.484" stroke="url(#paint10_linear_60_563)" stroke-width="0.679675" stroke-linecap="square"/>
<path d="M477.655 265.382L407.649 218.484" stroke="url(#paint11_linear_60_563)" stroke-width="0.679675" stroke-linecap="square"/>
</g>
<g filter="url(#filter0_d_60_563)">
<circle cx="468.14" cy="99.5414" r="3.39837" fill="black" fill-opacity="0.01"/>
</g>
<path d="M51.499 261.304C51.499 261.304 156.194 260.54 261.429 222.498C366.663 184.457 467.46 100.221 467.46 100.221" stroke="url(#paint12_linear_60_563)" stroke-width="4.07805" stroke-linecap="round" stroke-linejoin="round"/>
<path d="M452.568 107.867L465.845 96.7268C467.427 95.3997 469.785 95.606 471.112 97.1876C472.439 98.7691 472.233 101.127 470.651 102.454L457.374 113.595L452.568 107.867Z" fill="url(#paint13_linear_60_563)"/>
<circle cx="240.449" cy="101.581" r="1.35935" fill="#7373FF"/>
<circle cx="203.406" cy="124.35" r="1.01951" fill="#7373FF"/>
<circle opacity="0.5" cx="217.34" cy="113.815" r="1.35935" fill="#7373FF"/>
<circle cx="265.257" cy="113.475" r="1.01951" fill="#7373FF"/>
<circle opacity="0.2" cx="306.717" cy="78.1316" r="1.01951" fill="#7373FF"/>
<circle cx="313.174" cy="127.408" r="1.35935" fill="#7373FF"/>
<circle opacity="0.5" cx="299.24" cy="106.678" r="1.01951" fill="#7373FF"/>
<circle opacity="0.5" cx="278.85" cy="93.0847" r="1.01951" fill="#7373FF"/>
<circle opacity="0.5" cx="230.933" cy="85.9477" r="0.679675" fill="#7373FF"/>
<circle opacity="0.5" cx="196.95" cy="106.338" r="0.679675" fill="#7373FF"/>
<defs>
<filter id="filter0_d_60_563" x="455.226" y="86.6276" width="25.8278" height="25.8275" filterUnits="userSpaceOnUse" color-interpolation-filters="sRGB">
<feFlood flood-opacity="0" result="BackgroundImageFix"/>
<feColorMatrix in="SourceAlpha" type="matrix" values="0 0 0 0 0 0 0 0 0 0 0 0 0 0 0 0 0 0 127 0" result="hardAlpha"/>
<feOffset/>
<feGaussianBlur stdDeviation="4.75772"/>
<feColorMatrix type="matrix" values="0 0 0 0 0.6 0 0 0 0 0.6 0 0 0 0 0.6 0 0 0 1 0"/>
<feBlend mode="normal" in2="BackgroundImageFix" result="effect1_dropShadow_60_563"/>
<feBlend mode="normal" in="SourceGraphic" in2="effect1_dropShadow_60_563" result="shape"/>
</filter>
<radialGradient id="paint0_radial_60_563" cx="0" cy="0" r="1" gradientUnits="userSpaceOnUse" gradientTransform="translate(264 147.5) rotate(90) scale(148.5 264)">
<stop offset="0.296875" stop-color="#191D3A" stop-opacity="0"/>
<stop offset="1"/>
</radialGradient>
<linearGradient id="paint1_linear_60_563" x1="30.4294" y1="218.484" x2="30.4294" y2="265.382" gradientUnits="userSpaceOnUse">
<stop stop-color="#35165D"/>
<stop offset="1" stop-color="#B78FFF"/>
</linearGradient>
<linearGradient id="paint2_linear_60_563" x1="75.2881" y1="218.484" x2="75.2881" y2="265.382" gradientUnits="userSpaceOnUse">
<stop stop-color="#35165D"/>
<stop offset="1" stop-color="#B78FFF"/>
</linearGradient>
<linearGradient id="paint3_linear_60_563" x1="120.146" y1="218.484" x2="120.146" y2="265.382" gradientUnits="userSpaceOnUse">
<stop stop-color="#35165D"/>
<stop offset="1" stop-color="#B78FFF"/>
</linearGradient>
<linearGradient id="paint4_linear_60_563" x1="164.326" y1="218.484" x2="164.326" y2="265.382" gradientUnits="userSpaceOnUse">
<stop stop-color="#35165D"/>
<stop offset="1" stop-color="#B78FFF"/>
</linearGradient>
<linearGradient id="paint5_linear_60_563" x1="209.184" y1="218.484" x2="209.184" y2="265.382" gradientUnits="userSpaceOnUse">
<stop stop-color="#35165D"/>
<stop offset="1" stop-color="#B78FFF"/>
</linearGradient>
<linearGradient id="paint6_linear_60_563" x1="252.683" y1="218.484" x2="252.683" y2="265.382" gradientUnits="userSpaceOnUse">
<stop stop-color="#35165D"/>
<stop offset="1" stop-color="#B78FFF"/>
</linearGradient>
<linearGradient id="paint7_linear_60_563" x1="282.589" y1="218.484" x2="282.589" y2="265.382" gradientUnits="userSpaceOnUse">
<stop stop-color="#35165D"/>
<stop offset="1" stop-color="#B78FFF"/>
</linearGradient>
<linearGradient id="paint8_linear_60_563" x1="314.534" y1="218.484" x2="314.534" y2="265.382" gradientUnits="userSpaceOnUse">
<stop stop-color="#35165D"/>
<stop offset="1" stop-color="#B78FFF"/>
</linearGradient>
<linearGradient id="paint9_linear_60_563" x1="345.798" y1="218.484" x2="345.798" y2="265.382" gradientUnits="userSpaceOnUse">
<stop stop-color="#35165D"/>
<stop offset="1" stop-color="#B78FFF"/>
</linearGradient>
<linearGradient id="paint10_linear_60_563" x1="377.063" y1="218.484" x2="377.063" y2="265.382" gradientUnits="userSpaceOnUse">
<stop stop-color="#35165D"/>
<stop offset="1" stop-color="#B78FFF"/>
</linearGradient>
<linearGradient id="paint11_linear_60_563" x1="407.649" y1="218.484" x2="407.649" y2="265.382" gradientUnits="userSpaceOnUse">
<stop stop-color="#35165D"/>
<stop offset="1" stop-color="#B78FFF"/>
</linearGradient>
<linearGradient id="paint12_linear_60_563" x1="256.898" y1="74.3494" x2="146.897" y2="308.822" gradientUnits="userSpaceOnUse">
<stop stop-color="#C5C5FF"/>
<stop offset="1" stop-color="#43447B" stop-opacity="0.265106"/>
</linearGradient>
<linearGradient id="paint13_linear_60_563" x1="468.709" y1="94.3239" x2="452.568" y2="107.867" gradientUnits="userSpaceOnUse">
<stop stop-color="#9B9CFC"/>
<stop offset="1" stop-color="#E0E0E0" stop-opacity="0.01"/>
</linearGradient>
<clipPath id="clip0_60_563">
<rect width="528" height="296" rx="3.89668" fill="white"/>
</clipPath>
</defs>
</svg>
