<svg width="40" height="40" viewBox="0 0 40 40" fill="none" xmlns="http://www.w3.org/2000/svg">
	<circle cx="20" cy="20" r="20" fill="black" fill-opacity="0.15" />
	<path fill-rule="evenodd" clip-rule="evenodd" d="M26.2745 8.0621C25.8017 8.15995 25.351 8.31608 24.8952 8.5399C24.4782 8.74466 24.4585 8.75928 23.8864 9.29053C21.8409 11.1898 6.88688 25.8753 6.19873 26.6605C6.02606 26.8575 6 26.9046 6 27.0193C6 27.2685 6.17636 27.4945 6.41237 27.5476C6.4668 27.5599 8.89989 27.5822 11.8192 27.5973L17.1272 27.6246L18.1147 28.5916C18.6578 29.1235 19.2948 29.7593 19.5303 30.0045C19.9344 30.4254 19.9578 30.4571 19.9482 30.5683C19.9308 30.7692 19.8281 30.8156 19.346 30.8407C18.854 30.8664 18.726 30.9167 18.6115 31.1295C18.4356 31.4561 18.5933 31.8358 18.9483 31.9405C19.118 31.9906 23.1593 32.0224 24.0671 31.9808C24.6797 31.9528 24.7029 31.9492 24.8146 31.8655C24.9637 31.7538 25.0495 31.5396 25.0263 31.3373C24.996 31.0735 24.8112 30.9035 24.5151 30.8671C24.4109 30.8543 23.8133 30.8426 23.1873 30.8411L22.049 30.8384L20.4217 29.2399L18.7943 27.6414L20.7022 27.6207C22.7426 27.5985 23.3965 27.569 24.1276 27.466C27.1234 27.0442 29.8008 25.1296 31.1845 22.42C31.7798 21.2541 32.0991 20.1322 32.1587 18.9963C32.2067 18.08 32.2336 13.7459 32.1963 12.9376C32.1594 12.138 32.1171 11.8751 31.9409 11.3492L31.8188 10.9849L32.8575 9.9335C33.4625 9.32115 33.9214 8.8301 33.9564 8.75762C34.0082 8.65044 34.0113 8.61101 33.979 8.47351C33.9047 8.15703 33.6727 7.97647 33.3766 8.0044C33.1521 8.02559 32.9794 8.16435 32.0196 9.09458L31.2024 9.88665L31.0966 9.79214C31.0384 9.74017 30.8405 9.55776 30.6568 9.38679C29.853 8.63865 28.849 8.16128 27.8389 8.0471C27.2397 7.97932 26.6471 7.98502 26.2745 8.0621ZM27.8456 9.21394C28.2209 9.27637 28.5783 9.39492 28.9388 9.57652C29.8745 10.0479 30.4971 10.7928 30.9082 11.9332L31.0484 12.322L31.0266 15.5458C31.0145 17.3188 30.9901 18.9445 30.9724 19.1583C30.9296 19.6723 30.8662 19.9938 30.7091 20.494C30.2522 21.9478 29.6509 22.9346 28.5812 23.986C27.8339 24.7205 27.2084 25.1699 26.3544 25.5858C25.3703 26.0651 24.4565 26.3075 23.2864 26.3997C22.6473 26.45 20.4622 26.4702 18.7504 26.4417L17.2 26.4158L17.8939 25.9402C18.7613 25.3458 18.9981 25.1675 19.4725 24.7518C21.1858 23.2508 22.3717 21.311 22.9396 19.0806C23.1872 18.1086 23.2094 17.8349 23.2531 15.2218C23.3014 12.3333 23.3225 12.1384 23.6619 11.4451C24.1012 10.5478 24.7569 9.8771 25.577 9.486C26.2848 9.14846 26.963 9.06714 27.8456 9.21394ZM27.8554 11.5997C27.623 11.6795 27.509 11.8609 27.509 12.151C27.509 12.3303 27.5212 12.3704 27.6068 12.4724C27.7478 12.6403 27.9048 12.7052 28.105 12.6781C28.3216 12.6489 28.4658 12.5487 28.5601 12.3621C28.6993 12.0866 28.5892 11.7761 28.3018 11.6335C28.1442 11.5553 28.0135 11.5454 27.8554 11.5997ZM22.0441 13.0105C22.0762 13.4859 22.0688 16.2374 22.0332 17.0758C21.9972 17.9227 21.9506 18.2501 21.7672 18.9442C21.1048 21.4506 19.4233 23.6678 17.1834 24.9882C15.9345 25.7243 14.6069 26.1737 13.1587 26.3505C12.5471 26.4252 11.0863 26.4719 9.76078 26.4592C8.69397 26.449 8.58177 26.4428 8.50102 26.389C8.39641 26.3195 8.35507 26.1744 8.40993 26.0695C8.44959 25.9935 21.9649 12.6946 22.0024 12.6946C22.0137 12.6946 22.0324 12.8367 22.0441 13.0105Z" fill="currentColor" fill-opacity="0.5" />
</svg>
