<svg width="144" height="182" viewBox="0 0 144 182" fill="none" xmlns="http://www.w3.org/2000/svg">
<g filter="url(#filter0_dd)">
<path d="M111.325 56.6436C108.568 48.8516 103.682 42.3164 97.2922 37.792C87.7701 31.0054 77.4963 30 72.2341 30H71.9835H71.7329C66.4707 30 56.1969 31.1311 46.6748 37.792C40.285 42.3164 35.3987 48.8516 32.6423 56.6436C29.8859 64.1842 29.2595 72.4789 30.8882 80.3965C35.3987 103.395 58.5774 131.296 71.9835 146C71.9835 146 71.9835 146 72.1088 146H72.2341C85.5149 131.421 108.568 103.521 113.204 80.3965C114.708 72.4789 114.081 64.1842 111.325 56.6436Z" fill="url(#paint0_linear)"/>
<path opacity="0.7" d="M113.705 71.5991L101.927 55.3867L110.698 55.6381C112.702 60.6652 113.705 66.0693 113.705 71.5991Z" fill="url(#paint1_linear)"/>
<path opacity="0.7" d="M42.666 55.3867L56.9491 54.7583L48.3041 71.7247L42.666 55.3867Z" fill="url(#paint2_linear)"/>
<path d="M57.3248 98.3684C57.3248 98.3684 57.3248 98.2428 57.3248 98.3684L41.7888 85.1723L48.3039 72.3533L57.3248 98.3684Z" fill="url(#paint3_linear)"/>
<path d="M48.179 72.1021L41.5386 84.9211L30.5131 71.9764L42.4157 55.5127L48.179 72.1021Z" fill="url(#paint4_linear)"/>
<path opacity="0.4" d="M57.0742 98.4943L59.9559 120.865L42.9164 107.417L41.7888 85.4238L57.0742 98.4943Z" fill="url(#paint5_linear)"/>
<path opacity="0.4" d="M57.3239 98.3684L71.8576 115.209L60.2056 120.99L57.3239 98.3684Z" fill="url(#paint6_linear)"/>
<path d="M57.5747 98.2428L48.4285 72.1019L57.3241 54.7585L71.8578 47.9719L86.642 54.7585L95.5377 72.1019L86.3915 98.2428L72.1084 115.084L57.5747 98.2428Z" fill="url(#paint7_linear)"/>
<path d="M74.3644 49.103C65.9699 57.5234 57.5755 65.9438 49.181 74.3641L52.188 82.7845C62.2112 72.7303 72.2345 62.6762 82.2577 52.622L74.3644 49.103Z" fill="url(#paint8_linear)"/>
<path d="M93.1578 79.0143L95.5383 72.1021L92.9072 66.5723C81.6311 77.7575 70.4802 89.0685 59.3294 100.254L65.218 107.166L93.1578 79.0143Z" fill="url(#paint9_linear)"/>
<path d="M88.0212 93.8439L90.7776 85.9263L67.223 109.428L69.7288 112.193L88.0212 93.8439Z" fill="url(#paint10_linear)"/>
<path d="M57.3239 54.5071L60.9573 40.0542L71.7323 47.8462L57.3239 54.5071Z" fill="url(#paint11_linear)"/>
<path d="M72.2339 47.8462L83.2594 40.0542L86.7676 54.5071L72.2339 47.8462Z" fill="url(#paint12_linear)"/>
<path d="M95.7899 71.7247L87.1449 54.7583L101.428 55.3867L95.7899 71.7247Z" fill="url(#paint13_linear)"/>
<path opacity="0.8" d="M95.7881 72.3533L102.303 85.1723L86.7672 98.3684L95.7881 72.3533Z" fill="url(#paint14_linear)"/>
<path opacity="0.5" d="M86.6423 98.4939L83.8859 120.99L72.2339 115.209L86.6423 98.4939Z" fill="url(#paint15_linear)"/>
<path opacity="0.4" d="M86.893 98.4943L102.304 85.4238L101.301 107.292L84.1366 120.865L86.893 98.4943Z" fill="url(#paint16_linear)"/>
<path d="M95.9137 72.1021L101.677 55.5127L113.705 71.8507L102.554 84.9211L95.9137 72.1021Z" fill="url(#paint17_linear)"/>
<path opacity="0.3" d="M110.573 55.5124L101.677 55.261L99.9228 40.3054C104.684 44.3271 108.317 49.6055 110.573 55.5124Z" fill="url(#paint18_linear)"/>
<path opacity="0.6" d="M101.553 55.1356L87.0194 54.5072L83.386 39.803L99.6737 40.0543L101.553 55.1356Z" fill="url(#paint19_linear)"/>
<path d="M97.1673 37.9179C98.0443 38.5463 98.796 39.1747 99.6731 39.8031L83.5106 39.5517L86.0164 32.2625C89.6498 33.5192 93.4085 35.2787 97.1673 37.9179Z" fill="url(#paint20_linear)"/>
<path d="M85.7656 32.2625L83.1345 39.6774L72.3595 30.126C75.4917 30.126 80.3781 30.503 85.7656 32.2625Z" fill="url(#paint21_linear)"/>
<path d="M71.983 30.126L83.0086 39.9288L71.983 47.7208L61.0828 39.9288L71.983 30.126Z" fill="url(#paint22_linear)"/>
<path opacity="0.3" d="M71.7337 30.126L60.9587 39.8031L58.3276 32.2625C63.7151 30.503 68.6014 30.126 71.7337 30.126Z" fill="url(#paint23_linear)"/>
<path opacity="0.8" d="M46.9252 37.9175C50.5586 35.2783 54.4426 33.5188 57.9507 32.3877L60.5818 39.9283H44.4194C45.1711 39.1743 46.0481 38.5459 46.9252 37.9175Z" fill="url(#paint24_linear)"/>
<path d="M60.5822 40.1799L57.0741 54.5071L42.5404 55.1355L44.4197 40.1799H60.5822Z" fill="url(#paint25_linear)"/>
<path opacity="0.3" d="M44.1681 40.0542L42.2888 55.1355L33.5184 55.2611C35.899 49.3543 39.5324 44.2015 44.1681 40.0542Z" fill="url(#paint26_linear)"/>
<path d="M33.3935 55.5124L42.1638 55.3867L30.3865 71.7247C30.3865 66.0693 31.3888 60.6652 33.3935 55.5124Z" fill="url(#paint27_linear)"/>
<path d="M31.1382 80.3966C30.6371 77.6317 30.3865 74.9924 30.3865 72.2275L41.4121 85.1723L33.5188 88.6912C32.5164 85.8007 31.7647 83.0358 31.1382 80.3966Z" fill="url(#paint28_linear)"/>
<path opacity="0.3" d="M33.645 88.9428L41.5383 85.4238L42.6659 107.292C38.9072 101.133 35.7749 94.9753 33.645 88.9428Z" fill="url(#paint29_linear)"/>
<path opacity="0.7" d="M42.9162 107.668L59.9557 121.116L55.8211 126.143C51.1853 120.488 46.8002 114.204 42.9162 107.668Z" fill="url(#paint30_linear)"/>
<path opacity="0.3" d="M55.8217 126.52L59.9562 121.493L71.7335 145.497C67.2231 140.344 61.585 133.809 55.8217 126.52Z" fill="url(#paint31_linear)"/>
<path d="M72.1092 145.372L60.2066 121.242L71.9839 115.335L83.8865 121.242L72.1092 145.372Z" fill="url(#paint32_linear)"/>
<path opacity="0.4" d="M72.4851 145.372L84.1371 121.493L88.397 126.646C82.6336 133.809 76.9955 140.344 72.4851 145.372Z" fill="url(#paint33_linear)"/>
<path d="M88.3965 126.269L84.1366 121.116L101.301 107.543C97.4174 114.078 92.9069 120.487 88.3965 126.269Z" fill="url(#paint34_linear)"/>
<path opacity="0.7" d="M101.553 107.166L102.68 85.2979L110.573 88.8168C108.318 94.975 105.186 101.133 101.553 107.166Z" fill="url(#paint35_linear)"/>
<path opacity="0.3" d="M112.954 80.3966C112.453 83.0358 111.576 85.9263 110.573 88.6912L102.68 85.1723L113.706 72.2275C113.706 74.9924 113.455 77.6317 112.954 80.3966Z" fill="url(#paint36_linear)"/>
</g>
<defs>
<filter id="filter0_dd" x="0" y="0" width="144" height="181.314" filterUnits="userSpaceOnUse" color-interpolation-filters="sRGB">
<feFlood flood-opacity="0" result="BackgroundImageFix"/>
<feColorMatrix in="SourceAlpha" type="matrix" values="0 0 0 0 0 0 0 0 0 0 0 0 0 0 0 0 0 0 127 0" result="hardAlpha"/>
<feOffset/>
<feGaussianBlur stdDeviation="15"/>
<feColorMatrix type="matrix" values="0 0 0 0 1 0 0 0 0 1 0 0 0 0 1 0 0 0 0.2 0"/>
<feBlend mode="normal" in2="BackgroundImageFix" result="effect1_dropShadow"/>
<feColorMatrix in="SourceAlpha" type="matrix" values="0 0 0 0 0 0 0 0 0 0 0 0 0 0 0 0 0 0 127 0" result="hardAlpha"/>
<feOffset dy="5.31447"/>
<feGaussianBlur stdDeviation="15"/>
<feColorMatrix type="matrix" values="0 0 0 0 1 0 0 0 0 1 0 0 0 0 1 0 0 0 0.2 0"/>
<feBlend mode="normal" in2="effect1_dropShadow" result="effect2_dropShadow"/>
<feBlend mode="normal" in="SourceGraphic" in2="effect2_dropShadow" result="shape"/>
</filter>
<linearGradient id="paint0_linear" x1="38.536" y1="45.2098" x2="105.802" y2="112.269" gradientUnits="userSpaceOnUse">
<stop stop-color="#5FCAFF"/>
<stop offset="1" stop-color="#33D2FF"/>
</linearGradient>
<linearGradient id="paint1_linear" x1="77.6515" y1="79.0336" x2="103.404" y2="65.8501" gradientUnits="userSpaceOnUse">
<stop stop-color="#33D2FF"/>
<stop offset="1" stop-color="#00538F"/>
</linearGradient>
<linearGradient id="paint2_linear" x1="20.7761" y1="37.2668" x2="40.2874" y2="53.0709" gradientUnits="userSpaceOnUse">
<stop stop-color="#33D2FF"/>
<stop offset="1" stop-color="#00538F"/>
</linearGradient>
<linearGradient id="paint3_linear" x1="77.0433" y1="70.2068" x2="55.8054" y2="83.3962" gradientUnits="userSpaceOnUse">
<stop stop-color="#5FCAFF"/>
<stop offset="1" stop-color="#33D2FF"/>
</linearGradient>
<linearGradient id="paint4_linear" x1="5.25715" y1="61.8505" x2="42.631" y2="70.3421" gradientUnits="userSpaceOnUse">
<stop stop-color="#CFF1FF"/>
<stop offset="1" stop-color="#9BE1FF"/>
</linearGradient>
<linearGradient id="paint5_linear" x1="40.1531" y1="108.978" x2="92.012" y2="80.8728" gradientUnits="userSpaceOnUse">
<stop stop-color="#CFF1FF"/>
<stop offset="1" stop-color="#9BE1FF"/>
</linearGradient>
<linearGradient id="paint6_linear" x1="39.3233" y1="117.235" x2="56.3674" y2="110.647" gradientUnits="userSpaceOnUse">
<stop stop-color="#33D2FF"/>
<stop offset="1" stop-color="#00538F"/>
</linearGradient>
<linearGradient id="paint7_linear" x1="63.7306" y1="52.1041" x2="89.7622" y2="118.463" gradientUnits="userSpaceOnUse">
<stop stop-color="#D6FFF8"/>
<stop offset="0.2086" stop-color="#CFFFF7"/>
<stop offset="0.5107" stop-color="#BCFFF4"/>
<stop offset="0.8682" stop-color="#9CFFEF"/>
<stop offset="1" stop-color="#8FFFED"/>
</linearGradient>
<linearGradient id="paint8_linear" x1="61.4607" y1="52.9947" x2="87.4926" y2="119.355" gradientUnits="userSpaceOnUse">
<stop stop-color="#D6FFF8"/>
<stop offset="0.2086" stop-color="#CFFFF7"/>
<stop offset="0.5107" stop-color="#BCFFF4"/>
<stop offset="0.8682" stop-color="#9CFFEF"/>
<stop offset="1" stop-color="#8FFFED"/>
</linearGradient>
<linearGradient id="paint9_linear" x1="64.1419" y1="51.9437" x2="90.1735" y2="118.303" gradientUnits="userSpaceOnUse">
<stop stop-color="#D6FFF8"/>
<stop offset="0.2086" stop-color="#CFFFF7"/>
<stop offset="0.5107" stop-color="#BCFFF4"/>
<stop offset="0.8682" stop-color="#9CFFEF"/>
<stop offset="1" stop-color="#8FFFED"/>
</linearGradient>
<linearGradient id="paint10_linear" x1="61.6146" y1="52.934" x2="87.6466" y2="119.294" gradientUnits="userSpaceOnUse">
<stop stop-color="#D6FFF8"/>
<stop offset="0.2086" stop-color="#CFFFF7"/>
<stop offset="0.5107" stop-color="#BCFFF4"/>
<stop offset="0.8682" stop-color="#9CFFEF"/>
<stop offset="1" stop-color="#8FFFED"/>
</linearGradient>
<linearGradient id="paint11_linear" x1="61.2403" y1="41.1622" x2="71.5505" y2="72.52" gradientUnits="userSpaceOnUse">
<stop stop-color="#5FCAFF"/>
<stop offset="1" stop-color="#33D2FF"/>
</linearGradient>
<linearGradient id="paint12_linear" x1="76.9404" y1="43.1956" x2="87.5052" y2="53.7277" gradientUnits="userSpaceOnUse">
<stop stop-color="#5FCAFF"/>
<stop offset="1" stop-color="#33D2FF"/>
</linearGradient>
<linearGradient id="paint13_linear" x1="88.4799" y1="53.3897" x2="101.301" y2="66.1715" gradientUnits="userSpaceOnUse">
<stop stop-color="#5FCAFF"/>
<stop offset="1" stop-color="#33D2FF"/>
</linearGradient>
<linearGradient id="paint14_linear" x1="75.0803" y1="73.1041" x2="88.4913" y2="83.1748" gradientUnits="userSpaceOnUse">
<stop stop-color="#CFFFF4"/>
<stop offset="1" stop-color="#9AF7FF"/>
</linearGradient>
<linearGradient id="paint15_linear" x1="56.4132" y1="85.6192" x2="71.052" y2="98.9968" gradientUnits="userSpaceOnUse">
<stop stop-color="#33D2FF"/>
<stop offset="1" stop-color="#007999"/>
</linearGradient>
<linearGradient id="paint16_linear" x1="44.3868" y1="69.407" x2="80.4298" y2="94.1429" gradientUnits="userSpaceOnUse">
<stop stop-color="#CFF1FF"/>
<stop offset="1" stop-color="#9BE1FF"/>
</linearGradient>
<linearGradient id="paint17_linear" x1="64.2959" y1="70.4465" x2="96.9657" y2="70.2733" gradientUnits="userSpaceOnUse">
<stop stop-color="#C4FFF5"/>
<stop offset="1" stop-color="#8FFFED"/>
</linearGradient>
<linearGradient id="paint18_linear" x1="114.569" y1="21.666" x2="107.929" y2="40.3052" gradientUnits="userSpaceOnUse">
<stop stop-color="#33D2FF"/>
<stop offset="1" stop-color="#007999"/>
</linearGradient>
<linearGradient id="paint19_linear" x1="93.6458" y1="33.7898" x2="89.8429" y2="77.3225" gradientUnits="userSpaceOnUse">
<stop stop-color="#CFFFF4"/>
<stop offset="1" stop-color="#83F3FF"/>
</linearGradient>
<linearGradient id="paint20_linear" x1="88.418" y1="32.0421" x2="99.5989" y2="59.386" gradientUnits="userSpaceOnUse">
<stop stop-color="#CFF1FF"/>
<stop offset="1" stop-color="#73C9FF"/>
</linearGradient>
<linearGradient id="paint21_linear" x1="75.8751" y1="14.6524" x2="78.3225" y2="27.3746" gradientUnits="userSpaceOnUse">
<stop stop-color="#5FCAFF"/>
<stop offset="1" stop-color="#33D2FF"/>
</linearGradient>
<linearGradient id="paint22_linear" x1="72.3137" y1="25.1515" x2="71.4395" y2="72.3901" gradientUnits="userSpaceOnUse">
<stop stop-color="#CFF1FF"/>
<stop offset="1" stop-color="#5CCEFF"/>
</linearGradient>
<linearGradient id="paint23_linear" x1="47.5659" y1="16.1783" x2="56.1073" y2="24.6934" gradientUnits="userSpaceOnUse">
<stop stop-color="#33D2FF"/>
<stop offset="1" stop-color="#007999"/>
</linearGradient>
<linearGradient id="paint24_linear" x1="46.9655" y1="25.6132" x2="51.1582" y2="35.8885" gradientUnits="userSpaceOnUse">
<stop stop-color="#5FCAFF"/>
<stop offset="1" stop-color="#33D2FF"/>
</linearGradient>
<linearGradient id="paint25_linear" x1="46.7549" y1="38.3408" x2="77.6626" y2="97.1808" gradientUnits="userSpaceOnUse">
<stop stop-color="#F5FCFF"/>
<stop offset="1" stop-color="#84DAFF"/>
</linearGradient>
<linearGradient id="paint26_linear" x1="4.63311" y1="42.8814" x2="22.0132" y2="45.3071" gradientUnits="userSpaceOnUse">
<stop stop-color="#33D2FF"/>
<stop offset="1" stop-color="#007999"/>
</linearGradient>
<linearGradient id="paint27_linear" x1="13.0243" y1="40.9819" x2="30.1051" y2="57.489" gradientUnits="userSpaceOnUse">
<stop stop-color="#5FCAFF"/>
<stop offset="1" stop-color="#33D2FF"/>
</linearGradient>
<linearGradient id="paint28_linear" x1="43.4549" y1="63.2482" x2="36.8184" y2="76.6542" gradientUnits="userSpaceOnUse">
<stop stop-color="#5FCAFF"/>
<stop offset="1" stop-color="#33D2FF"/>
</linearGradient>
<linearGradient id="paint29_linear" x1="0.0490117" y1="92.1481" x2="22.8146" y2="94.4002" gradientUnits="userSpaceOnUse">
<stop stop-color="#33D2FF"/>
<stop offset="1" stop-color="#00538F"/>
</linearGradient>
<linearGradient id="paint30_linear" x1="57.3312" y1="93.6807" x2="52.9618" y2="108.839" gradientUnits="userSpaceOnUse">
<stop stop-color="#33D2FF"/>
<stop offset="1" stop-color="#00538F"/>
</linearGradient>
<linearGradient id="paint31_linear" x1="75.6517" y1="117.671" x2="57.849" y2="145.076" gradientUnits="userSpaceOnUse">
<stop stop-color="#33D2FF"/>
<stop offset="1" stop-color="#007999"/>
</linearGradient>
<linearGradient id="paint32_linear" x1="72.0434" y1="88.3234" x2="72.0434" y2="112.396" gradientUnits="userSpaceOnUse">
<stop stop-color="#CFF1FF"/>
<stop offset="1" stop-color="#9BE1FF"/>
</linearGradient>
<linearGradient id="paint33_linear" x1="48.3756" y1="101.745" x2="64.2403" y2="118.43" gradientUnits="userSpaceOnUse">
<stop stop-color="#33D2FF"/>
<stop offset="1" stop-color="#00538F"/>
</linearGradient>
<linearGradient id="paint34_linear" x1="63.157" y1="94.2901" x2="84.2274" y2="109.22" gradientUnits="userSpaceOnUse">
<stop stop-color="#33D2FF"/>
<stop offset="1" stop-color="#00538F"/>
</linearGradient>
<linearGradient id="paint35_linear" x1="69.1746" y1="92.934" x2="89.6817" y2="95.013" gradientUnits="userSpaceOnUse">
<stop stop-color="#33D2FF"/>
<stop offset="1" stop-color="#00538F"/>
</linearGradient>
<linearGradient id="paint36_linear" x1="92.5872" y1="63.445" x2="104.962" y2="75.4345" gradientUnits="userSpaceOnUse">
<stop stop-color="#33D2FF"/>
<stop offset="1" stop-color="#007999"/>
</linearGradient>
</defs>
</svg>
