<svg width="138" height="157" viewBox="0 0 138 157" fill="none" xmlns="http://www.w3.org/2000/svg">
<g clip-path="url(#clip0)">
<path fill-rule="evenodd" clip-rule="evenodd" d="M90.9516 97.734C91.0492 97.734 92.1229 98.0276 92.2693 98.9575C92.4157 99.8873 92.3669 100.817 91.8301 101.698C91.2932 102.628 91.098 103.802 90.1708 103.851C89.2436 103.851 88.9508 103.558 88.7556 103.705C88.5604 103.851 87.682 104.732 86.8524 104.781C86.0228 104.83 84.998 104.194 84.6564 103.705C84.3148 103.215 83.1923 102.971 82.8019 102.726C82.4115 102.481 81.7283 101.404 82.9971 100.915C84.266 100.426 85.6324 101.894 85.6324 101.894C85.6324 101.894 85.3396 101.502 86.0716 100.964C86.8036 100.426 87.0476 100.67 87.0476 100.67C87.0476 100.67 86.0716 99.8873 86.3644 99.3001C86.6572 98.6638 87.5844 97.8319 87.7796 97.7829C87.9748 97.734 88.1212 97.6851 88.1212 97.6851C88.1212 97.6851 88.0236 96.5105 88.1212 96.0211C88.2188 95.5317 88.3652 94.9444 88.902 94.8955C89.4388 94.8466 90.2684 94.8955 90.6588 95.4338C91.0004 95.8743 90.9516 97.734 90.9516 97.734Z" fill="#424242"/>
<path fill-rule="evenodd" clip-rule="evenodd" d="M82.2646 101.6C82.3134 101.307 82.5087 101.062 82.9967 100.866C84.2655 100.377 85.6319 101.845 85.6319 101.845C85.6319 101.845 85.3391 101.454 86.0711 100.915C86.8031 100.377 87.0471 100.622 87.0471 100.622C87.0471 100.622 86.0711 99.8385 86.3639 99.2512C86.6567 98.615 87.5839 97.783 87.7791 97.7341C87.9743 97.6851 88.1207 97.6362 88.1207 97.6362C88.1207 97.6362 88.1207 97.5873 88.1207 97.5383V97.5873C88.6575 98.1256 87.5839 98.2724 87.5351 99.0555C87.5351 99.447 87.4863 99.9364 87.6327 100.279C88.0231 101.258 88.1207 100.915 87.3399 101.062C86.4127 101.209 86.5103 102.677 85.7295 102.237C85.4367 102.09 85.0463 102.09 84.7535 102.139C84.4607 102.237 83.4847 101.6 82.8503 101.6C82.6063 101.502 82.4111 101.551 82.2646 101.6Z" fill="#787878"/>
<path fill-rule="evenodd" clip-rule="evenodd" d="M90.9502 97.7341C91.0478 97.7341 92.1214 98.0277 92.2678 98.9576C92.4142 99.8874 92.3654 100.817 91.8286 101.698C91.2918 102.628 91.0966 103.803 90.1694 103.852C89.2422 103.852 88.9494 103.558 88.7542 103.705C88.559 103.852 87.6806 104.732 86.851 104.781C86.363 104.781 85.8261 104.586 85.3381 104.292H85.3869C86.607 104.047 87.1438 103.852 87.7294 102.677C88.3638 102.677 89.779 102.53 89.8278 101.747C89.8766 101.013 89.4374 100.426 89.4862 100.475C90.9502 102.09 92.0238 99.6917 90.8526 98.2724C90.7062 98.1256 90.267 97.783 90.267 97.783C90.7062 97.5873 90.6574 96.9511 90.6574 96.5106C90.6574 96.2659 90.6574 95.7276 90.6086 95.2871C90.6086 95.2871 90.6086 95.3361 90.6574 95.3361C90.999 95.8744 90.9502 97.7341 90.9502 97.7341Z" fill="#272727"/>
<path fill-rule="evenodd" clip-rule="evenodd" d="M90.1206 92.8889C89.9254 92.9378 89.291 93.3783 88.6078 92.8889C87.9246 92.3995 87.3878 91.6165 87.3878 91.6165C87.3878 91.6165 86.119 91.959 85.2405 91.5186C84.3133 91.0781 84.0205 90.7355 83.7765 90.1972C83.5325 89.6589 83.6301 87.946 83.7277 87.6523C83.8741 87.3098 84.4597 86.5267 84.4597 86.5267C84.4597 86.5267 83.4837 86.6246 83.1421 86.5267C82.8005 86.4289 83.2397 87.2608 82.8005 88.0928C82.3613 88.8758 81.2877 89.7078 80.6045 89.4142C79.9701 89.1205 78.8477 88.3375 78.8477 87.6523C78.8477 87.0161 79.7749 85.8416 80.3117 85.4501C80.7997 85.1075 80.9949 85.0096 80.9949 85.0096C80.9949 85.0096 80.2141 84.5691 80.7021 83.7861C81.1901 83.0031 82.2637 81.7796 83.2397 81.6328C84.2157 81.4859 86.119 82.4647 86.5094 82.9541C86.851 83.4435 86.9974 83.6393 86.9974 83.6393C86.9974 83.6393 89.6326 82.8563 90.4622 83.6882C91.243 84.5202 91.9262 86.0373 91.8286 86.6736C91.731 87.3098 92.4142 87.5545 92.8534 88.5822C93.2926 89.6099 92.8046 91.176 92.1702 91.8612C91.487 92.5952 90.1206 92.8889 90.1206 92.8889Z" fill="#424242"/>
<path fill-rule="evenodd" clip-rule="evenodd" d="M90.1203 92.8888C89.9251 92.9378 89.2907 93.3782 88.6075 92.8888C87.9243 92.3994 87.3874 91.6164 87.3874 91.6164C87.3874 91.6164 86.1186 91.959 85.2402 91.5185C84.313 91.0781 84.0202 90.7355 83.7762 90.1972C83.5322 89.6588 83.6298 87.9459 83.7274 87.6523V87.6034C84.6546 88.2396 85.7282 89.4631 86.7042 89.4631C87.5339 89.4631 87.9731 88.8269 88.1683 89.3652C88.6563 90.6866 89.7299 91.2738 90.9987 91.6654C91.3403 91.7632 91.8771 91.6654 92.3163 91.5675C92.2187 91.6654 92.1699 91.8122 92.0723 91.8611C91.4867 92.5952 90.1203 92.8888 90.1203 92.8888ZM83.0442 87.2608C83.0442 87.5055 82.9954 87.7991 82.849 88.0928C82.4098 88.8758 81.3362 89.7078 80.653 89.4141C80.3602 89.2673 79.921 89.0226 79.5793 88.729C81.141 88.4843 81.3362 88.3375 82.5074 87.4076C82.6538 87.2608 82.849 87.2118 83.0442 87.2608Z" fill="#272727"/>
<path fill-rule="evenodd" clip-rule="evenodd" d="M78.946 87.9951C78.8972 87.8972 78.8972 87.7993 78.8972 87.7014C78.8972 87.0652 79.8244 85.8906 80.3612 85.4991C80.8492 85.1566 81.0444 85.0587 81.0444 85.0587C81.0444 85.0587 80.2636 84.6182 80.7516 83.8352C81.2397 83.0521 82.3133 81.8287 83.2893 81.6818C84.2653 81.535 86.1685 82.5138 86.5589 83.0032C86.9005 83.4926 87.0469 83.6884 87.0469 83.6884C87.0469 83.6884 89.6822 82.9053 90.5118 83.7373C91.2926 84.5693 91.9758 86.0864 91.8782 86.7226V86.7716C91.3902 86.5758 90.8534 86.1353 90.4142 85.6949C90.219 85.4991 89.1942 85.646 89.1942 85.597C89.0478 84.6672 88.3157 84.4714 87.4373 84.4714C86.7053 84.4714 86.1197 85.3034 86.1197 85.1076C85.9245 83.6884 85.1925 83.199 83.7773 83.199C82.5085 83.199 81.7765 84.4714 82.2157 85.597C82.2645 85.646 80.7516 85.8906 80.41 86.0864C79.3852 86.5758 79.3364 87.1631 78.946 87.9951Z" fill="#787878"/>
<path fill-rule="evenodd" clip-rule="evenodd" d="M76.0155 92.5467C75.2835 92.5467 74.0635 92.302 74.5515 91.47C75.0395 90.5891 75.9179 89.4635 76.5035 89.4635C79.822 89.4145 77.6259 92.4977 76.0155 92.5467Z" fill="#424242"/>
<path fill-rule="evenodd" clip-rule="evenodd" d="M76.0155 92.5464C75.2835 92.5464 74.0635 92.3017 74.5515 91.4697C74.5515 91.4208 74.6003 91.4208 74.6003 91.3718C75.3811 91.5187 76.5035 91.5676 76.65 91.0293C76.6988 90.8824 77.3332 90.9803 77.5284 90.9314L78.2116 90.8335C77.9188 91.6165 76.8452 92.5464 76.0155 92.5464Z" fill="#272727"/>
<path fill-rule="evenodd" clip-rule="evenodd" d="M87.9253 109.235C87.9253 109.284 87.9253 110.018 86.7541 111.046C85.5829 112.073 84.6069 112.269 83.7773 111.78C82.9964 111.339 82.2156 110.899 82.0204 110.263C81.8252 109.626 81.5812 108.745 82.4596 108.696C83.3381 108.648 84.3141 109.577 84.4117 109.675C84.5093 109.773 85.7293 109.382 85.7781 109.382C85.8269 109.431 84.8997 109.284 84.6557 108.745C84.4605 108.207 84.1677 107.473 85.0461 106.837C85.9733 106.201 86.6565 106.152 87.1933 106.837C87.7789 107.522 87.9253 109.235 87.9253 109.235Z" fill="#424242"/>
<path fill-rule="evenodd" clip-rule="evenodd" d="M87.925 109.235C87.925 109.284 87.925 110.018 86.7537 111.046C85.5825 112.073 84.6065 112.269 83.7769 111.78C83.3377 111.535 82.8985 111.29 82.5569 110.997C82.9473 111.046 83.3865 111.094 83.8257 110.997C84.1185 110.948 86.2169 109.92 86.3633 109.724C86.9489 108.696 87.193 108.794 87.8762 108.647C87.925 108.99 87.925 109.235 87.925 109.235Z" fill="#272727"/>
<path fill-rule="evenodd" clip-rule="evenodd" d="M79.4319 113.101L79.5296 113.003C80.7008 113.052 81.628 114.912 81.5792 115.988C81.4816 117.457 80.3104 119.072 79.1391 119.904C78.3583 120.442 77.1383 118.876 77.0895 119.023C76.3087 121.91 73.3807 119.806 73.1367 117.75C73.0879 117.212 73.5759 115.744 74.2103 116.674C74.6983 117.408 75.4303 118.387 75.5279 116.82C75.5767 115.793 75.7231 115.793 76.6991 116.184C77.3335 116.478 77.0407 115.499 76.9919 115.254C76.6015 113.542 78.6023 113.688 79.4319 113.101Z" fill="#424242"/>
<path fill-rule="evenodd" clip-rule="evenodd" d="M79.4335 113.101L79.5311 113.003C79.7263 113.003 79.9215 113.052 80.0679 113.15C79.7751 113.346 79.4823 113.493 79.3847 113.542C78.6527 114.178 79.1407 114.276 78.1159 114.276C77.5791 114.276 77.1887 114.716 76.9447 115.205C76.6519 113.542 78.6039 113.688 79.4335 113.101ZM73.2358 116.967C73.431 116.478 73.7726 116.086 74.1631 116.674C74.2607 116.772 74.3095 116.918 74.4071 117.016C74.0167 117.065 73.6262 117.016 73.2358 116.967ZM75.4807 116.869C75.5295 115.793 75.6759 115.842 76.6519 116.233C76.7007 116.233 76.7495 116.282 76.7983 116.282C76.8471 116.429 76.9935 116.674 76.9447 116.674C76.5055 116.674 75.9687 116.674 75.5295 116.869C75.5295 116.82 75.4807 116.869 75.4807 116.869Z" fill="#787878"/>
<path fill-rule="evenodd" clip-rule="evenodd" d="M81.5307 115.352C81.5795 115.597 81.6283 115.793 81.5795 116.037C81.4819 117.506 80.3107 119.121 79.1394 119.953C78.3586 120.491 77.1386 118.925 77.0898 119.072C76.3578 121.861 73.5762 120.002 73.137 117.995C74.6498 118.729 76.553 117.555 76.9922 117.995C78.993 120.002 79.4811 116.331 79.6275 116.331C80.6035 116.38 80.6035 116.184 81.3355 115.597C81.3843 115.499 81.4331 115.45 81.5307 115.352Z" fill="#272727"/>
<path fill-rule="evenodd" clip-rule="evenodd" d="M68.2572 115.254C68.5988 115.646 69.4284 115.891 69.526 116.576C69.6236 117.261 69.1356 117.212 69.9164 117.701C72.3076 119.17 70.746 122.644 68.2572 122.889C66.9396 123.036 65.8172 121.323 65.1339 123.329C64.8899 124.064 63.4747 125.972 62.6451 124.847C59.4243 128.126 55.569 127.391 52.5434 124.406C51.0794 122.938 51.2746 122.693 49.3713 121.665C47.2729 120.54 47.0777 118.974 48.6881 117.31C50.2009 115.744 48.2489 116.086 48.9809 114.471C49.4201 113.493 55.1786 107.767 55.0322 111.095C54.9834 111.682 53.1778 112.465 52.6898 112.758C52.641 112.807 53.3242 112.612 53.5682 112.954C54.105 113.737 53.129 114.471 52.4458 114.961C52.153 115.157 52.7874 117.065 54.5442 114.325C55.569 112.758 57.1306 116.723 57.1306 115.499C57.1306 115.01 59.6195 110.067 60.2539 109.626C61.8155 108.55 62.2547 109.186 63.1819 110.458C64.1579 111.878 61.5715 111.829 62.9867 113.884C63.7675 115.01 63.9627 116.282 63.2307 117.359C62.1571 118.876 64.8899 117.212 66.5492 117.701C68.4524 118.289 66.4028 116.576 68.2572 115.254Z" fill="#424242"/>
<path fill-rule="evenodd" clip-rule="evenodd" d="M48.8843 115.206C48.8843 115.01 48.9331 114.814 49.0307 114.52C49.4211 113.591 54.7404 108.305 55.082 110.752C53.4227 110.899 51.5195 112.024 51.5195 113.639C51.5195 114.912 51.7635 114.227 50.4947 114.422C49.8603 114.52 49.2747 114.765 48.8843 115.206Z" fill="#787878"/>
<path fill-rule="evenodd" clip-rule="evenodd" d="M70.9408 118.778C71.7704 120.442 70.3552 122.742 68.3543 122.938C68.1103 122.987 67.8663 122.938 67.6223 122.84C68.4519 122.155 68.5495 121.127 68.2079 119.904C68.0615 119.414 68.9887 120.197 69.6231 120.051C70.2087 120.002 70.6968 119.414 70.9408 118.778Z" fill="#272727"/>
<path fill-rule="evenodd" clip-rule="evenodd" d="M63.4261 110.801C64.0117 112.024 61.7669 112.073 63.0845 114.031C63.8653 115.156 64.0605 116.429 63.3285 117.506C63.0845 117.848 63.0357 117.995 63.1333 118.093C62.3037 118.484 61.3765 118.827 60.6933 119.267C59.2293 120.295 60.8397 119.023 61.2301 118.533C62.0597 117.457 59.6685 116.135 59.7173 116.135C60.3517 116.429 61.3277 116.282 61.8645 115.744C62.5965 115.059 62.1573 114.08 61.7181 113.346C61.5229 113.003 60.0589 112.514 60.1077 112.514C61.0837 112.514 62.6941 111.78 63.4261 110.801Z" fill="#272727"/>
<path fill-rule="evenodd" clip-rule="evenodd" d="M65.7201 122.547C65.5249 122.693 65.3785 122.938 65.1833 123.379C64.9393 124.113 63.524 126.021 62.6944 124.896C59.4736 128.175 55.6183 127.441 52.5927 124.455C51.1287 122.987 51.3239 122.742 49.4206 121.715C48.347 121.127 47.7614 120.442 47.6638 119.659C48.835 120.1 50.2015 120.246 51.1287 120.002C51.5679 119.904 52.2999 119.561 52.6903 119.268C52.6903 119.268 51.4215 118.876 51.2751 118.485C50.6895 116.87 50.6407 117.457 51.9583 118.093C52.6903 118.485 54.6911 118.68 55.6671 118.436C63.1824 116.429 47.8102 120.932 54.9839 123.428C56.2527 123.868 59.2296 123.428 57.8632 122.449C56.2039 121.225 58.7416 122.302 59.9128 122.302C60.84 122.302 64.4024 121.715 62.1576 122.596C61.4256 122.889 59.7664 122.596 59.864 123.428C60.0592 124.896 63.6704 123.281 64.2072 122.351C64.3536 122.057 65.0857 122.253 65.7201 122.547Z" fill="#272727"/>
<path fill-rule="evenodd" clip-rule="evenodd" d="M68.5998 111.29C69.1854 111.926 69.8199 112.954 69.039 113.688C68.063 114.667 67.6726 113.444 67.6238 112.612C67.575 112.22 67.4774 111.926 67.8678 111.682C68.063 111.486 68.307 111.192 68.5998 111.29Z" fill="#424242"/>
<path fill-rule="evenodd" clip-rule="evenodd" d="M77.8725 112.22C78.1653 112.416 77.8237 112.807 77.5797 112.856C77.1405 113.003 76.8477 113.101 76.4573 113.395C76.1645 113.59 75.4813 115.01 75.0909 114.325C74.6028 113.444 75.5301 112.367 76.3597 112.073C76.9941 111.975 77.4821 112.024 77.8725 112.22Z" fill="#424242"/>
<path fill-rule="evenodd" clip-rule="evenodd" d="M53.2268 100.475V100.621C52.7388 101.649 53.5196 106.005 51.0307 104.585C49.8107 103.9 49.3227 102.628 48.1027 101.992C47.0779 101.453 46.9803 100.132 48.3467 100.181C49.2251 100.23 49.5667 100.328 50.2499 100.817C50.7867 101.209 51.3723 100.181 51.8603 99.8383C52.3972 99.4958 53.4708 100.181 53.2268 100.475Z" fill="#424242"/>
<path fill-rule="evenodd" clip-rule="evenodd" d="M52.9822 102.628C52.8846 104.047 52.5918 105.466 51.0302 104.537C50.0542 103.949 49.5174 103.019 48.6877 102.334C49.1758 102.285 49.5174 102.139 49.859 101.796C50.0054 101.649 50.591 102.285 50.9326 102.432C51.3718 102.726 52.1526 102.726 52.9822 102.628Z" fill="#272727"/>
<path fill-rule="evenodd" clip-rule="evenodd" d="M47.8591 106.005C51.3239 109.137 47.5174 111.29 45.175 112.905C43.3206 114.227 43.467 113.101 42.1494 112.171C40.1485 110.801 37.4157 111.339 35.8053 109.088C34.0485 106.543 35.5125 103.802 34.6829 102.628C32.7308 99.8383 35.4149 99.6915 36.8301 98.0275C38.7333 95.7274 40.0021 97.0977 41.2222 96.2657C42.4422 95.3848 43.4182 92.0569 45.5654 94.2103C46.9806 95.6295 45.175 97.1466 43.6134 96.7551C41.759 96.3147 43.711 96.9509 43.467 98.3212C43.0278 100.817 39.6605 100.23 38.8309 102.334C38.2941 103.656 39.3189 102.922 39.9045 102.481C41.1246 101.649 40.6854 102.579 41.4662 102.628C42.6374 102.726 43.0766 100.866 44.3942 102.775C45.8094 104.83 44.1502 105.222 44.5406 106.837C45.1262 109.284 46.1022 104.879 47.8591 106.005Z" fill="#424242"/>
<path fill-rule="evenodd" clip-rule="evenodd" d="M34.2932 100.132C34.83 99.3979 36.05 98.9574 36.8308 98.0275C38.7341 95.7274 40.0029 97.0977 41.2229 96.2657C42.4429 95.3848 43.4189 92.0569 45.5662 94.2103C45.7614 94.406 45.9078 94.6507 46.0054 94.8465C45.4198 94.8465 44.7854 94.8465 44.3461 94.8954C41.6133 95.3359 41.9061 97.1956 39.5637 97.4403C37.6117 97.636 37.5629 98.9574 36.4404 99.8383C35.806 100.279 35.0252 100.132 34.2932 100.132Z" fill="#787878"/>
<path fill-rule="evenodd" clip-rule="evenodd" d="M48.8842 107.228C50.2994 109.724 47.1762 111.486 45.1754 112.905C43.3209 114.227 43.4673 113.101 42.1497 112.171C40.1489 110.801 37.4161 111.339 35.8056 109.088C34.3416 106.984 35.1224 104.732 34.9272 103.362C35.5128 103.656 36.1472 103.803 36.4888 103.803C36.5376 103.803 36.0984 106.641 39.0265 106.641C40.3441 106.641 40.9785 105.271 40.8809 105.369C40.1489 105.907 38.9289 105.222 38.4897 104.683C38.2945 104.439 42.5889 104.977 42.3937 105.222C38.2457 109.822 43.3697 110.214 43.3697 108.843C43.3697 108.745 43.8089 111.143 45.6146 110.165C46.249 109.822 46.3466 108.305 46.493 108.305C47.3714 108.305 48.201 107.62 48.8842 107.228Z" fill="#272727"/>
<path fill-rule="evenodd" clip-rule="evenodd" d="M43.3204 97.5383C43.418 97.783 43.4668 98.0277 43.418 98.3703C42.9788 100.866 39.6116 100.279 38.7819 102.383C38.6843 102.579 38.6843 102.726 38.6355 102.873C38.6355 102.824 38.5867 102.775 38.5379 102.677C38.1475 101.796 36.5859 101.894 37.7571 101.551C38.4403 101.356 38.8307 100.964 39.27 100.426C39.8556 99.6427 39.3676 99.1044 40.3924 99.1044C41.2708 99.0555 42.93 98.5171 43.3204 97.5383Z" fill="#272727"/>
<path fill-rule="evenodd" clip-rule="evenodd" d="M49.0309 97.6362L48.9333 97.4404C47.9573 96.5595 47.0301 97.4404 46.0052 97.8319C44.346 98.5171 45.6148 99.6427 46.786 99.1044C47.4205 98.8107 48.9333 98.3213 49.0309 97.6362Z" fill="#424242"/>
<path fill-rule="evenodd" clip-rule="evenodd" d="M42.6368 82.4647L43.0272 82.4158C44.3936 81.6817 44.1008 84.2265 42.2952 85.0585C41.9048 85.2543 42.3928 85.7437 42.2464 86.2331C42.1 86.7714 41.7584 87.2119 41.368 87.6034C41.1728 87.7991 40.0504 88.4353 40.0016 88.5822C40.0016 88.68 40.5384 89.4141 40.5384 89.7078C40.5872 90.7845 40.0016 90.1482 40.88 91.4207C42.1976 93.3293 38.9768 94.4549 37.8543 92.8399C36.0975 90.2951 33.4623 87.897 37.4151 85.1075C38.0495 84.667 38.0495 85.0585 38.5864 84.3244C40.0016 82.5137 40.392 82.4158 42.6368 82.4647Z" fill="#424242"/>
<path fill-rule="evenodd" clip-rule="evenodd" d="M42.2957 86.0374C42.2957 86.1352 42.2957 86.1842 42.2469 86.2821C42.1005 86.8204 41.7589 87.2608 41.3685 87.6524C41.1733 87.8481 40.0509 88.4843 40.0021 88.6312C40.0021 88.6801 40.2949 89.1206 40.4413 89.4631C40.0509 89.7568 39.6117 90.0015 38.6844 89.7078C37.806 89.4142 39.5141 90.4909 39.8069 90.6377C39.9533 90.6866 40.1973 90.6866 40.3925 90.6866C40.4413 90.8334 40.5389 91.0292 40.8805 91.4697C40.3925 91.9591 39.5629 92.3016 38.9772 91.8612C38.3428 91.4207 39.5629 92.3016 39.8069 92.4484C40.1485 92.5953 40.7341 92.5953 41.1733 92.5953C40.8805 93.7209 38.7332 94.1613 37.8548 92.8889C37.1716 91.9101 36.3908 90.9803 35.854 90.0504C36.342 90.0015 36.7812 89.8546 37.2204 89.4631C37.562 89.1695 37.562 88.1418 37.8548 88.3375C38.294 88.6312 40.3437 87.3587 40.6853 87.114C41.2221 86.8204 41.8565 86.4778 42.2957 86.0374Z" fill="#272727"/>
<path fill-rule="evenodd" clip-rule="evenodd" d="M42.6359 82.4647L43.0263 82.4158C43.9047 81.9264 44.0999 82.8073 43.6607 83.6882C42.4406 83.5904 41.0742 84.1287 39.8054 84.4223C38.683 84.667 39.7566 86.2331 38.3902 86.2331C36.7798 86.2331 35.4134 88.0439 35.4622 89.1695C35.0718 87.897 35.3646 86.5757 37.4142 85.1564C38.0486 84.716 38.0486 85.1075 38.5854 84.3734C40.0006 82.5137 40.391 82.4158 42.6359 82.4647Z" fill="#787878"/>
<path fill-rule="evenodd" clip-rule="evenodd" d="M46.9324 91.1273H46.8348C45.5171 90.491 44.2483 92.6933 43.1259 91.0783C42.4427 90.0995 43.5163 88.4356 44.6387 88.3377C45.0779 88.2888 45.5171 88.9739 45.7123 89.3165C46.0539 89.8059 46.8836 89.708 47.3228 90.3442C47.6156 90.7357 47.03 91.323 46.9324 91.1273Z" fill="#424242"/>
<path fill-rule="evenodd" clip-rule="evenodd" d="M46.9311 91.1271H46.8335C45.5159 90.4909 44.2471 92.6932 43.1247 91.0782C42.9295 90.7846 42.8807 90.4909 42.9295 90.1483C43.4175 90.1973 43.9055 90.1973 44.2471 90.0505C44.7839 89.8547 44.8815 89.5121 45.2231 89.61C45.7599 89.8058 46.3455 89.9036 46.9311 89.9526C47.0775 90.0505 47.2239 90.1483 47.3215 90.3441C47.6143 90.7356 47.0287 91.3229 46.9311 91.1271Z" fill="#272727"/>
<path fill-rule="evenodd" clip-rule="evenodd" d="M52.0559 84.4224L52.1047 84.0799C52.2023 83.3947 53.0807 82.1223 52.6415 81.4861C52.2511 80.9477 51.4215 81.2414 51.1775 81.7797C50.8847 82.4159 50.7871 83.2479 51.0311 83.933C51.3239 84.5693 51.5191 85.0097 52.0559 84.4224Z" fill="#424242"/>
<path fill-rule="evenodd" clip-rule="evenodd" d="M52.0565 84.4226L52.1053 84.08C52.1541 83.7863 52.3005 83.4438 52.4957 83.0523C52.3005 82.9544 52.1541 82.8565 52.0565 82.7586C51.9101 82.6118 52.0077 82.3671 51.9589 82.6118C51.9101 82.7097 51.3245 82.9054 51.1781 82.9054C51.1293 82.9054 51.0317 82.9054 50.9829 82.8565C50.9341 83.1991 50.9829 83.5906 51.1293 83.9332C51.3245 84.5694 51.5197 85.0098 52.0565 84.4226Z" fill="#272727"/>
<path fill-rule="evenodd" clip-rule="evenodd" d="M51.8597 77.7667C54.4461 80.1158 56.6909 75.3197 54.1045 74.0962C53.2749 73.7047 52.5429 74.0962 51.7621 74.6345C51.2252 75.026 50.3956 74.8792 49.6148 75.2218C48.7852 75.5644 49.1268 76.641 48.4924 76.7389C47.2724 76.9347 46.2476 77.6198 46.2476 79.0391C46.2476 79.7242 44.198 80.752 45.906 81.3882C46.8332 81.7308 46.7844 80.6052 47.126 80.2626C47.9556 79.4306 49.1268 79.92 49.9076 78.4518C49.9564 78.4029 50.6884 78.6476 51.03 78.4518C51.4693 78.2071 51.5669 77.9135 51.8597 77.7667Z" fill="#424242"/>
<path fill-rule="evenodd" clip-rule="evenodd" d="M51.8607 77.7667C53.6175 79.3328 55.2279 77.6688 55.2767 76.0049C54.5935 76.7879 53.7151 77.9135 52.6903 77.2773C52.4463 77.1305 51.8607 76.4453 51.7143 76.7879C51.0311 78.0603 49.9575 77.2773 49.567 77.9625C49.1766 78.6476 48.6886 79.137 48.1518 79.6754L48.103 79.7243C48.7862 79.5285 49.4694 79.4307 50.0063 78.4029C50.0551 78.354 50.7871 78.5987 51.1287 78.4029C51.4703 78.2072 51.5679 77.9135 51.8607 77.7667Z" fill="#272727"/>
<path fill-rule="evenodd" clip-rule="evenodd" d="M54.7883 74.5856C54.5931 74.3898 54.3979 74.1941 54.1051 74.0962C53.2755 73.7047 52.5435 74.0962 51.7627 74.6345C51.2259 75.026 50.3963 74.8792 49.6154 75.2218C48.7858 75.5644 49.1274 76.641 48.493 76.7389C47.273 76.9347 46.2482 77.6198 46.2482 79.0391C46.2482 79.5774 45.077 80.3115 45.2722 80.8988C45.6138 79.9689 47.1754 79.2348 47.1754 79.088C47.1266 78.4029 47.6634 77.5709 48.249 77.2773C48.5418 77.1304 49.5178 77.0815 49.5178 77.0326C49.8595 75.5154 50.9819 75.1239 52.3483 75.7601C52.3483 75.7601 52.7875 75.2707 52.9339 75.1729C53.4219 74.9282 54.0563 74.7813 54.6419 74.7813C54.7883 74.7813 54.8371 74.6835 54.7883 74.5856Z" fill="#787878"/>
<path fill-rule="evenodd" clip-rule="evenodd" d="M48.9816 83.933C48.7864 84.0798 48.2496 83.6883 48.1032 83.5905C47.5664 83.2479 47.5176 82.8074 47.908 82.318C48.9328 81.1435 49.5672 83.5415 48.9816 83.933Z" fill="#424242"/>
<path fill-rule="evenodd" clip-rule="evenodd" d="M78.2622 80.1647L78.5062 80.0179C79.9214 79.4306 78.8478 76.2495 79.287 74.9771C80.019 72.8727 77.4326 71.2087 75.9686 70.5725C74.6998 70.0342 74.895 70.9151 74.0654 69.7405C72.6989 67.734 68.6973 66.0211 66.5989 67.4893C65.574 68.1745 63.866 69.5448 63.134 69.398C59.6204 68.7617 59.474 72.9216 58.1075 73.8515C55.7651 75.5154 57.5219 76.8368 57.5707 78.7454C57.6683 82.0244 61.0356 80.9477 59.962 79.3816C59.1324 78.2071 59.7668 79.4306 60.938 78.7454C61.67 78.305 62.3532 77.0815 62.402 77.2283C62.8412 77.9624 63.866 77.3262 64.354 76.9347C66.3061 75.2218 64.2076 77.9135 64.4516 78.7944C64.9396 80.3604 67.2333 78.8923 66.5013 80.3604C66.0621 81.2414 64.1588 81.4861 64.4028 82.7095C64.9396 85.4502 69.7709 83.6394 69.5269 80.8498C69.4293 79.6263 70.9909 80.8498 71.9669 78.7944C72.1133 78.5497 71.8693 77.5219 71.7229 77.2772C71.6741 77.2283 74.163 80.0179 75.0414 77.8156C75.4318 76.8368 75.7246 79.088 75.9686 79.4306C76.8958 80.703 77.6278 79.7242 78.2622 80.1647Z" fill="#424242"/>
<path fill-rule="evenodd" clip-rule="evenodd" d="M78.2621 80.1648L78.5061 80.0179C79.3845 79.6264 79.2869 78.2561 79.1893 76.9347C78.0669 77.3263 76.8956 77.4731 75.822 76.7879C75.0412 76.2496 74.9924 75.8581 74.5044 76.4943C74.0164 77.1305 72.5036 77.2773 71.7716 77.2773C71.8204 77.3263 74.2604 79.969 75.09 77.8157C75.4804 76.8369 75.7732 79.0881 76.0172 79.4307C76.8956 80.7031 77.6276 79.7243 78.2621 80.1648ZM57.6194 79.137C57.9122 82.0245 61.0354 80.9967 59.9618 79.4796C59.1322 78.3051 59.7666 79.5285 60.9378 78.8434C61.6698 78.4029 62.353 77.1794 62.4018 77.3263C62.8411 78.0604 63.8659 77.4241 64.3539 77.0326C66.3059 75.3197 64.2075 78.0114 64.4515 78.8923C64.9395 80.4584 67.2331 78.9902 66.5011 80.4584C66.0619 81.3393 64.1587 81.584 64.4027 82.8075C64.9395 85.5481 69.7707 83.7374 69.5267 80.9478C69.4291 79.7243 70.9908 80.9478 71.9668 78.8923C72.0156 78.7945 72.0156 78.6476 71.9668 78.4519C70.8444 77.6688 67.5259 78.5987 66.6963 77.3263C66.2571 76.6411 67.0379 74.9282 66.9891 74.9282C65.2811 75.3197 64.6467 76.0049 62.7435 75.7113C62.0602 75.6134 61.6698 77.7667 59.5714 77.4241C59.3762 77.2284 59.3762 79.5285 57.6194 79.137Z" fill="#272727"/>
<path fill-rule="evenodd" clip-rule="evenodd" d="M79.2856 73.5577C78.7976 72.1385 77.0896 71.1107 75.9672 70.6213C74.6983 70.083 74.8935 70.9639 74.0639 69.7894C72.6975 67.7828 68.6959 66.07 66.5974 67.5381C65.5726 68.2233 63.8646 69.5936 63.1326 69.4468C60.351 68.9574 59.6677 71.4533 58.8381 72.9704C59.2773 73.1173 59.7165 73.1173 60.1558 72.9704C62.4982 72.1874 65.0846 68.9574 67.6223 68.9574C70.4527 68.9574 70.5503 69.9362 72.9415 70.3766C73.9175 70.5724 74.5519 71.8448 75.284 71.8448C76.6016 71.8448 77.968 72.53 78.8952 73.362C79.0904 73.5088 79.188 73.5577 79.2856 73.5577Z" fill="#787878"/>
<path fill-rule="evenodd" clip-rule="evenodd" d="M73.4299 82.1222L73.5275 82.0733C73.8691 81.8286 74.1619 82.3669 74.3083 82.6116C74.8939 83.4436 71.6731 86.8694 71.3803 84.9118C71.3315 84.5203 72.0635 83.15 72.4539 82.8563C72.7955 82.6116 73.0883 82.3669 73.4299 82.1222Z" fill="#424242"/>
<path fill-rule="evenodd" clip-rule="evenodd" d="M74.3587 82.7095C74.6515 83.6883 71.6259 86.7715 71.3819 84.9118C71.3331 84.716 71.5283 84.2755 71.7235 83.884C72.3579 83.884 72.9923 83.6393 73.5779 83.1989C73.8707 83.0031 74.1147 82.8563 74.3587 82.7095Z" fill="#272727"/>
<path fill-rule="evenodd" clip-rule="evenodd" d="M64.5482 85.2544L65.1338 85.1565C65.8658 85.6948 67.2322 86.6247 66.1586 87.5056C65.2802 88.2397 62.8889 88.5823 62.9377 86.8694C62.9865 86.1842 63.9626 85.4991 64.5482 85.2544Z" fill="#424242"/>
<path fill-rule="evenodd" clip-rule="evenodd" d="M66.5002 86.5269C66.6466 86.8695 66.5978 87.212 66.1586 87.5546C65.2802 88.2887 62.8889 88.6313 62.9377 86.9184V86.8695C63.7674 87.1142 64.7922 87.0163 64.841 86.3801C64.841 86.0375 65.0362 86.3311 65.2314 86.429C65.4266 86.5269 65.9634 86.5269 66.5002 86.5269Z" fill="#272727"/>
</g>
<path d="M86.2776 123.668C99.9338 111.867 101.438 91.2304 89.6376 77.5742C77.837 63.9179 57.2002 62.4136 43.5439 74.2142C29.8877 86.0148 28.3834 106.652 40.184 120.308C51.9846 133.964 72.6214 135.468 86.2776 123.668Z" fill="#2E2C2D"/>
<path opacity="0.4" d="M53.0614 129.424C69.8815 135.97 88.8233 127.641 95.3689 110.821C101.915 94.0005 93.5855 75.0588 76.7654 68.5131C59.9452 61.9674 41.0035 70.2965 34.4578 87.1167C27.9122 103.937 36.2413 122.879 53.0614 129.424Z" fill="url(#paint0_radial)"/>
<path opacity="0.1" d="M57.5677 123.163C44.5042 110.732 43.9514 90.0106 56.4407 76.9696C61.2024 71.9427 67.2529 68.7532 73.6221 67.4912C62.4032 64.3945 49.7969 67.4374 41.2117 76.4536C28.7804 89.5172 29.2751 110.216 42.3387 122.647C50.3753 130.317 61.2785 133.024 71.4091 131.021C66.3556 129.589 61.6151 127.009 57.5677 123.163Z" fill="url(#paint1_radial)"/>
<path opacity="0.2" d="M59.3948 69.9024C57.4342 74.0823 61.2524 79.3755 68.2493 80.9629C75.2237 82.6083 80.9745 79.5026 81.0819 74.9355C81.1376 71.0162 76.9871 67.2635 71.7273 66.0182C66.4675 64.7728 61.0491 66.338 59.3948 69.9024Z" fill="url(#paint2_radial)"/>
<path d="M79.09 64.6085L78.5757 72.6243C78.4528 74.3132 74.6204 74.8924 69.9633 73.8148C65.3062 72.7372 62.0836 70.548 62.7737 68.9463L65.8019 61.5081L79.09 64.6085Z" fill="#2E2C2D"/>
<path d="M65.8014 61.5083C65.2273 63.1552 67.8827 65.2573 71.7405 66.1574C75.5983 67.0575 78.9087 66.2751 79.1121 64.5508C79.293 62.8845 76.6279 60.979 73.1407 60.1563C69.6084 59.4496 66.3303 59.9775 65.8014 61.5083Z" fill="#3F3F3F"/>
<path d="M68.5478 62.1772C68.3349 62.8959 69.9172 63.9792 72.1411 64.4439C74.3423 64.9665 76.2247 64.7639 76.3441 63.942C76.499 63.2008 74.8715 62.2335 72.7283 61.7334C70.6431 61.2559 68.7607 61.4585 68.5478 62.1772Z" fill="black"/>
<path d="M70.0173 57.8721C69.9947 57.9302 70.0301 58.0107 70.0076 58.0688C70.0107 58.404 70.3942 58.62 70.6585 58.4557C71.3258 58.1142 71.8771 57.7275 72.7506 57.1992C73.3599 56.8351 73.6662 56.2195 73.5439 55.504C73.5085 55.4234 73.5311 55.3654 73.4956 55.2848C73.4345 54.927 73.0864 54.7916 72.8221 54.9559C72.1096 55.4134 71.6616 55.7066 70.788 56.235C70.2368 56.6216 69.9304 57.2372 70.0173 57.8721Z" fill="#A4653B"/>
<path d="M70.0592 59.8253C70.0366 59.8833 70.072 59.9639 70.0494 60.0219C70.0526 60.3571 70.4361 60.5732 70.7004 60.4088C71.3677 60.0673 71.9544 59.7613 72.8279 59.2329C73.4372 58.8688 73.8241 58.2179 73.7598 57.5249C73.7824 57.4669 73.7469 57.3863 73.7469 57.3863C73.7438 57.0511 73.3603 56.835 73.0154 57.0348C72.303 57.4923 71.7743 57.8209 70.9233 58.2913C70.3366 58.5974 70.0529 59.1549 70.0592 59.8253Z" fill="#AA6A2D"/>
<path d="M69.4047 53.9597C69.4402 54.0403 69.453 54.1789 69.4885 54.2595C69.5722 54.5592 69.9202 54.6947 70.1846 54.5303C70.8744 54.1308 71.3451 53.7796 72.0801 53.2641C72.6087 52.9355 72.7991 52.2748 72.5156 51.6301C72.4447 51.4689 72.4093 51.3883 72.3738 51.3078C72.2901 51.008 71.9195 50.9306 71.6551 51.0949C71.0813 51.5395 70.6107 51.8907 69.8757 52.4063C69.4276 52.6995 69.2598 53.3021 69.4047 53.9597Z" fill="#A4653B"/>
<path d="M69.7826 55.9101C69.818 55.9907 69.7954 56.0487 69.8309 56.1293C69.892 56.4871 70.2401 56.6225 70.5044 56.4582C71.1942 56.0587 71.7229 55.7301 72.5385 55.1791C73.0897 54.7925 73.3735 54.235 73.1706 53.5548C73.1352 53.4742 73.1223 53.3356 73.0868 53.2551C73.0031 52.9553 72.6551 52.8198 72.3907 52.9842C71.7589 53.4062 71.2882 53.7574 70.4952 54.2504C69.944 54.637 69.6957 55.2752 69.7826 55.9101Z" fill="#AA6A2D"/>
<path d="M68.037 50.0879C68.1079 50.249 68.1433 50.3296 68.2142 50.4908C68.3205 50.7325 68.6686 50.868 68.8749 50.6811C69.4487 50.2364 69.9194 49.8852 70.5383 49.3246C71.009 48.9734 71.0607 48.3255 70.7418 47.6003C70.6709 47.4391 70.6 47.2779 70.5066 47.1747C70.3423 46.9104 70.0296 46.8555 69.8233 47.0424C69.3075 47.5097 68.8949 47.8835 68.2179 48.4216C67.8052 48.7953 67.6955 49.4206 68.037 50.0879Z" fill="#A4653B"/>
<path d="M68.8309 51.9993C68.8438 52.1379 68.9372 52.2411 68.9727 52.3217C69.0564 52.6214 69.427 52.6989 69.6914 52.5346C70.3232 52.1125 70.7939 51.7613 71.4708 51.2232C71.9415 50.872 72.0738 50.1887 71.7903 49.544C71.7194 49.3828 71.684 49.3023 71.6131 49.1411C71.5068 48.8993 71.1362 48.8219 70.8719 48.9862C70.298 49.4309 69.8854 49.8046 69.2084 50.3427C68.7152 50.752 68.6055 51.3772 68.8309 51.9993Z" fill="#AA6A2D"/>
<path d="M65.8873 46.1788C66.0162 46.3626 66.0516 46.4431 66.1225 46.6043C66.2868 46.8687 66.5995 46.9235 66.8058 46.7366C67.3216 46.2694 67.7342 45.8956 68.3532 45.3349C68.7658 44.9612 68.7595 44.2907 68.302 43.5783C68.1731 43.3946 68.1023 43.2334 68.0088 43.1303C67.8445 42.8659 67.5093 42.8691 67.303 43.056C66.7646 43.5812 66.4325 43.9195 65.849 44.5608C65.517 44.8992 65.5458 45.5116 65.8873 46.1788Z" fill="#A4653B"/>
<path d="M67.014 48.0865C67.0849 48.2477 67.1783 48.3509 67.2492 48.512C67.4135 48.7764 67.7262 48.8312 67.9325 48.6443C68.5063 48.1997 68.9189 47.8259 69.5379 47.2652C69.9505 46.8914 70.0023 46.2436 69.6028 45.5538C69.4739 45.37 69.403 45.2089 69.3676 45.1283C69.2033 44.8639 68.8906 44.8091 68.6617 45.054C68.1233 45.5792 67.7913 45.9176 67.1723 46.4782C66.7017 46.8294 66.6499 47.4773 67.014 48.0865Z" fill="#AA6A2D"/>
<path d="M63.3414 42.249C63.4703 42.4328 63.5638 42.5359 63.6346 42.6971C63.799 42.9614 64.1342 42.9583 64.3405 42.7714C64.8789 42.2461 65.2109 41.9078 65.7945 41.2665C66.1717 40.8122 66.1654 40.1418 65.6853 39.4874C65.5564 39.3036 65.4855 39.1424 65.3921 39.0393C65.2278 38.7749 64.8926 38.7781 64.6637 39.023C64.1833 39.5708 63.8287 39.9672 63.2451 40.6084C62.8325 40.9822 62.8613 41.5946 63.3414 42.249Z" fill="#A4653B"/>
<path d="M64.6426 44.2243C64.7715 44.408 64.865 44.5112 64.9358 44.6724C65.1001 44.9367 65.4353 44.9336 65.6417 44.7467C66.1575 44.2794 66.5121 43.8831 67.1537 43.2644C67.5663 42.8906 67.5246 42.1396 67.0445 41.4852C66.9156 41.3015 66.8447 41.1403 66.7513 41.0371C66.587 40.7728 66.2518 40.776 66.0454 40.9629C65.5651 41.5107 65.2104 41.907 64.5915 42.4677C64.1562 42.8995 64.2431 43.5345 64.6426 44.2243Z" fill="#AA6A2D"/>
<path d="M60.5169 38.3447C60.6457 38.5285 60.7392 38.6316 60.8681 38.8154C61.0324 39.0797 61.3676 39.0766 61.5965 38.8316C62.0769 38.2838 62.4315 37.8875 63.015 37.2462C63.3922 36.7918 63.3279 36.0989 62.8478 35.4445C62.719 35.2607 62.6255 35.1576 62.5546 34.9964C62.3903 34.7321 62.0551 34.7352 61.8262 34.9801C61.3233 35.5859 60.9687 35.9823 60.3851 36.6235C59.9725 36.9973 60.0368 37.6903 60.5169 38.3447Z" fill="#A4653B"/>
<path d="M61.9587 40.3078C62.0876 40.4915 62.181 40.5947 62.2519 40.7558C62.4162 41.0202 62.7514 41.017 62.9577 40.8301C63.4381 40.2823 63.7927 39.886 64.3763 39.2447C64.7535 38.7903 64.6892 38.0973 64.2091 37.4429C64.0802 37.2592 63.9868 37.156 63.9159 36.9949C63.7516 36.7305 63.4164 36.7337 63.1875 36.9786C62.7071 37.5264 62.3525 37.9228 61.7689 38.564C61.4143 38.9604 61.4786 39.6534 61.9587 40.3078Z" fill="#AA6A2D"/>
<path d="M59.0776 36.3815C59.2064 36.5653 59.2999 36.6684 59.3707 36.8296C59.5351 37.0939 59.8703 37.0908 60.0992 36.8459C60.5795 36.298 60.9342 35.9017 61.5403 35.2024C61.9175 34.7481 61.9112 34.0776 61.4311 33.4232C61.3022 33.2395 61.2088 33.1363 61.1379 32.9752C60.9736 32.7108 60.6384 32.714 60.4321 32.9009C59.9291 33.5067 59.5165 33.8805 58.9329 34.5217C58.5912 35.0567 58.5975 35.7271 59.0776 36.3815Z" fill="#AA6A2D"/>
<path d="M73.0176 64.5832C72.9016 64.5381 72.821 64.5735 72.705 64.5283C72.647 64.5058 72.589 64.4832 72.4504 64.4961C72.3923 64.4735 72.3923 64.4735 72.3343 64.4509C72.2763 64.4283 72.1603 64.3832 72.0797 64.4186C71.9057 64.3509 71.7671 64.3638 71.5931 64.296C71.477 64.2509 71.361 64.2057 71.1644 64.196L71.1064 64.1734C70.9904 64.1283 70.9324 64.1057 70.8163 64.0606C70.9775 63.9897 71.1613 63.8608 71.3804 63.8125L71.461 63.7771L71.5416 63.7416C71.6222 63.7062 71.6222 63.7062 71.7028 63.6708C71.7028 63.6708 71.7028 63.6708 71.7834 63.6353L71.864 63.5999C71.9445 63.5645 72.0251 63.529 72.1057 63.4936C72.1863 63.4582 72.2669 63.4227 72.3475 63.3873C72.4281 63.3519 72.5086 63.3164 72.5892 63.281C72.6698 63.2455 72.6924 63.1875 72.7504 63.2101C73.0953 63.0104 73.4562 63.2844 73.4368 63.6776C73.4271 63.8742 73.3594 64.0483 73.3142 64.1643C73.2917 64.2223 73.2917 64.2223 73.2691 64.2803C73.2465 64.3383 73.2013 64.4543 73.1208 64.4898C73.0982 64.5478 73.0982 64.5478 73.0756 64.6058C73.0982 64.5478 73.0756 64.6058 73.0176 64.5832Z" fill="#A4653B"/>
<path d="M69.927 61.7106C69.9045 61.7686 69.9399 61.8492 69.9173 61.9072C69.9205 62.2424 70.2234 62.4939 70.5457 62.3521C71.1904 62.0686 71.7997 61.7046 72.7313 61.1988C73.4211 60.7993 73.808 60.1483 73.8017 59.4779C73.8243 59.4199 73.8243 59.4199 73.7889 59.3393C73.7857 59.0041 73.4022 58.788 73.0799 58.9298C72.3095 59.3647 71.7582 59.7514 70.8718 60.1412C70.3205 60.5278 69.9788 61.0628 69.927 61.7106Z" fill="#A4653B"/>
<path d="M72.5332 63.2594C72.4526 63.2948 72.3495 63.3882 72.2689 63.4237C72.0851 63.5526 71.924 63.6234 71.7628 63.6943C71.7628 63.6943 71.6822 63.7297 71.6596 63.7877L71.579 63.8232L71.4985 63.8586C71.3373 63.9295 71.1535 64.0584 70.9924 64.1292C70.8763 64.0841 70.7603 64.0389 70.6443 63.9938C70.4703 63.9261 70.2962 63.8583 70.1222 63.7906C70.0062 63.7455 69.9482 63.7229 69.8547 63.6197C69.8773 63.5617 69.8773 63.5617 69.8999 63.5037C69.9225 63.4457 69.9225 63.4457 69.945 63.3877C69.9676 63.3297 69.9902 63.2717 69.9902 63.2717C70.0128 63.2137 70.0128 63.2137 70.0353 63.1556C70.0579 63.0976 70.0805 63.0396 70.1031 62.9816C70.1256 62.9236 70.1482 62.8656 70.2514 62.7721C70.2739 62.7141 70.3545 62.6787 70.3545 62.6787C70.3771 62.6207 70.4577 62.5853 70.4803 62.5272C70.5028 62.4692 70.5608 62.4918 70.5834 62.4338C70.606 62.3758 70.664 62.3984 70.6866 62.3403C70.7672 62.3049 70.7672 62.3049 70.8478 62.2695C71.1701 62.1277 71.4344 61.9634 71.7568 61.8217C71.9179 61.7508 72.1017 61.6219 72.2629 61.5511C72.424 61.4802 72.6078 61.3513 72.769 61.2804C72.8495 61.245 72.9527 61.1516 73.0333 61.1161C73.3782 60.9164 73.7391 61.1904 73.7423 61.5256L73.7197 61.5836C73.61 62.2089 73.223 62.8599 72.5332 63.2594Z" fill="#AA6A2D"/>
<path d="M70.0173 57.8721C69.9947 57.9302 70.0301 58.0107 70.0076 58.0688C70.0107 58.404 70.3942 58.62 70.6585 58.4557C71.3258 58.1142 71.8771 57.7275 72.7506 57.1992C73.3599 56.8351 73.6662 56.2195 73.5439 55.504C73.5085 55.4234 73.5311 55.3654 73.4956 55.2848C73.4345 54.927 73.0864 54.7916 72.8221 54.9559C72.1096 55.4134 71.6616 55.7066 70.788 56.235C70.2368 56.6216 69.9304 57.2372 70.0173 57.8721Z" fill="url(#paint3_linear)"/>
<path d="M70.0592 59.8253C70.0366 59.8833 70.072 59.9639 70.0494 60.0219C70.0526 60.3571 70.4361 60.5732 70.7004 60.4088C71.3677 60.0673 71.9544 59.7613 72.8279 59.2329C73.4372 58.8688 73.8241 58.2179 73.7598 57.5249C73.7824 57.4669 73.7469 57.3863 73.7469 57.3863C73.7438 57.0511 73.3603 56.835 73.0154 57.0348C72.303 57.4923 71.7743 57.8209 70.9233 58.2913C70.3366 58.5974 70.0529 59.1549 70.0592 59.8253Z" fill="url(#paint4_linear)"/>
<path d="M69.4047 53.9597C69.4402 54.0403 69.453 54.1789 69.4885 54.2595C69.5722 54.5592 69.9202 54.6947 70.1846 54.5303C70.8744 54.1308 71.3451 53.7796 72.0801 53.2641C72.6087 52.9355 72.7991 52.2748 72.5156 51.6301C72.4447 51.4689 72.4093 51.3883 72.3738 51.3078C72.2901 51.008 71.9195 50.9306 71.6551 51.0949C71.0813 51.5395 70.6107 51.8907 69.8757 52.4063C69.4276 52.6995 69.2598 53.3021 69.4047 53.9597Z" fill="url(#paint5_linear)"/>
<path d="M69.7826 55.9101C69.818 55.9907 69.7954 56.0487 69.8309 56.1293C69.892 56.4871 70.2401 56.6225 70.5044 56.4582C71.1942 56.0587 71.7229 55.7301 72.5385 55.1791C73.0897 54.7925 73.3735 54.235 73.1706 53.5548C73.1352 53.4742 73.1223 53.3356 73.0868 53.2551C73.0031 52.9553 72.6551 52.8198 72.3907 52.9842C71.7589 53.4062 71.2882 53.7574 70.4952 54.2504C69.944 54.637 69.6957 55.2752 69.7826 55.9101Z" fill="url(#paint6_linear)"/>
<path d="M68.037 50.0879C68.1079 50.249 68.1433 50.3296 68.2142 50.4908C68.3205 50.7325 68.6686 50.868 68.8749 50.6811C69.4487 50.2364 69.9194 49.8852 70.5383 49.3246C71.009 48.9734 71.0607 48.3255 70.7418 47.6003C70.6709 47.4391 70.6 47.2779 70.5066 47.1747C70.3423 46.9104 70.0296 46.8555 69.8233 47.0424C69.3075 47.5097 68.8949 47.8835 68.2179 48.4216C67.8052 48.7953 67.6955 49.4206 68.037 50.0879Z" fill="url(#paint7_linear)"/>
<path d="M68.8309 51.9993C68.8438 52.1379 68.9372 52.2411 68.9727 52.3217C69.0564 52.6214 69.427 52.6989 69.6914 52.5346C70.3232 52.1125 70.7939 51.7613 71.4708 51.2232C71.9415 50.872 72.0738 50.1887 71.7903 49.544C71.7194 49.3828 71.684 49.3023 71.6131 49.1411C71.5068 48.8993 71.1362 48.8219 70.8719 48.9862C70.298 49.4309 69.8854 49.8046 69.2084 50.3427C68.7152 50.752 68.6055 51.3772 68.8309 51.9993Z" fill="url(#paint8_linear)"/>
<path d="M65.8873 46.1788C66.0162 46.3626 66.0516 46.4431 66.1225 46.6043C66.2868 46.8687 66.5995 46.9235 66.8058 46.7366C67.3216 46.2694 67.7342 45.8956 68.3532 45.3349C68.7658 44.9612 68.7595 44.2907 68.302 43.5783C68.1731 43.3946 68.1023 43.2334 68.0088 43.1303C67.8445 42.8659 67.5093 42.8691 67.303 43.056C66.7646 43.5812 66.4325 43.9195 65.849 44.5608C65.517 44.8992 65.5458 45.5116 65.8873 46.1788Z" fill="url(#paint9_linear)"/>
<path d="M67.014 48.0865C67.0849 48.2477 67.1783 48.3509 67.2492 48.512C67.4135 48.7764 67.7262 48.8312 67.9325 48.6443C68.5063 48.1997 68.9189 47.8259 69.5379 47.2652C69.9505 46.8914 70.0023 46.2436 69.6028 45.5538C69.4739 45.37 69.403 45.2089 69.3676 45.1283C69.2033 44.8639 68.8906 44.8091 68.6617 45.054C68.1233 45.5792 67.7913 45.9176 67.1723 46.4782C66.7017 46.8294 66.6499 47.4773 67.014 48.0865Z" fill="url(#paint10_linear)"/>
<path d="M63.3414 42.249C63.4703 42.4328 63.5638 42.5359 63.6346 42.6971C63.799 42.9614 64.1342 42.9583 64.3405 42.7714C64.8789 42.2461 65.2109 41.9078 65.7945 41.2665C66.1717 40.8122 66.1654 40.1418 65.6853 39.4874C65.5564 39.3036 65.4855 39.1424 65.3921 39.0393C65.2278 38.7749 64.8926 38.7781 64.6637 39.023C64.1833 39.5708 63.8287 39.9672 63.2451 40.6084C62.8325 40.9822 62.8613 41.5946 63.3414 42.249Z" fill="url(#paint11_linear)"/>
<path d="M64.6426 44.2243C64.7715 44.408 64.865 44.5112 64.9358 44.6724C65.1001 44.9367 65.4353 44.9336 65.6417 44.7467C66.1575 44.2794 66.5121 43.8831 67.1537 43.2644C67.5663 42.8906 67.5246 42.1396 67.0445 41.4852C66.9156 41.3015 66.8447 41.1403 66.7513 41.0371C66.587 40.7728 66.2518 40.776 66.0454 40.9629C65.5651 41.5107 65.2104 41.907 64.5915 42.4677C64.1562 42.8995 64.2431 43.5345 64.6426 44.2243Z" fill="url(#paint12_linear)"/>
<path d="M60.5169 38.3447C60.6457 38.5285 60.7392 38.6316 60.8681 38.8154C61.0324 39.0797 61.3676 39.0766 61.5965 38.8316C62.0769 38.2838 62.4315 37.8875 63.015 37.2462C63.3922 36.7918 63.3279 36.0989 62.8478 35.4445C62.719 35.2607 62.6255 35.1576 62.5546 34.9964C62.3903 34.7321 62.0551 34.7352 61.8262 34.9801C61.3233 35.5859 60.9687 35.9823 60.3851 36.6235C59.9725 36.9973 60.0368 37.6903 60.5169 38.3447Z" fill="url(#paint13_linear)"/>
<path d="M61.9587 40.3078C62.0876 40.4915 62.181 40.5947 62.2519 40.7558C62.4162 41.0202 62.7514 41.017 62.9577 40.8301C63.4381 40.2823 63.7927 39.886 64.3763 39.2447C64.7535 38.7903 64.6892 38.0973 64.2091 37.4429C64.0802 37.2592 63.9868 37.156 63.9159 36.9949C63.7516 36.7305 63.4164 36.7337 63.1875 36.9786C62.7071 37.5264 62.3525 37.9228 61.7689 38.564C61.4143 38.9604 61.4786 39.6534 61.9587 40.3078Z" fill="url(#paint14_linear)"/>
<path d="M59.0776 36.3815C59.2064 36.5653 59.2999 36.6684 59.3707 36.8296C59.5351 37.0939 59.8703 37.0908 60.0992 36.8459C60.5795 36.298 60.9342 35.9017 61.5403 35.2024C61.9175 34.7481 61.9112 34.0776 61.4311 33.4232C61.3022 33.2395 61.2088 33.1363 61.1379 32.9752C60.9736 32.7108 60.6384 32.714 60.4321 32.9009C59.9291 33.5067 59.5165 33.8805 58.9329 34.5217C58.5912 35.0567 58.5975 35.7271 59.0776 36.3815Z" fill="url(#paint15_linear)"/>
<path d="M73.0976 64.5479C73.1202 64.4899 73.1202 64.4899 73.1427 64.4319C73.1653 64.3739 73.2105 64.2579 73.2911 64.2224C73.3136 64.1644 73.3136 64.1644 73.3362 64.1064C73.4039 63.9324 73.4716 63.7584 73.4588 63.6198C73.5362 63.2491 73.1173 62.9525 72.7724 63.1522C72.6918 63.1877 72.6692 63.2457 72.6112 63.2231C72.5306 63.2586 72.45 63.294 72.3695 63.3294C72.2889 63.3649 72.2083 63.4003 72.1277 63.4357C72.0471 63.4712 71.9665 63.5066 71.8859 63.542L71.8053 63.5775C71.8053 63.5775 71.8053 63.5775 71.7248 63.6129C71.7248 63.6129 71.7248 63.6129 71.6442 63.6483C71.6442 63.6483 71.5636 63.6838 71.541 63.7418L71.4604 63.7772L71.3798 63.8127C71.2187 63.8835 71.0575 63.9544 70.8157 64.0607C70.9318 64.1059 70.9898 64.1284 71.1058 64.1736L71.1638 64.1962C71.2798 64.2413 71.3959 64.2865 71.5925 64.2962C71.7085 64.3413 71.9051 64.351 72.0791 64.4188C72.1371 64.4413 72.2531 64.4865 72.3337 64.4511C72.3917 64.4736 72.3917 64.4736 72.4498 64.4962C72.5078 64.5188 72.5658 64.5414 72.7044 64.5285C72.8204 64.5736 72.901 64.5382 73.017 64.5834C73.075 64.6059 73.0976 64.5479 73.0976 64.5479Z" fill="url(#paint16_linear)"/>
<path d="M69.927 61.7106C69.9045 61.7686 69.9399 61.8492 69.9173 61.9072C69.9205 62.2424 70.2234 62.4939 70.5457 62.3521C71.1904 62.0686 71.7997 61.7046 72.7313 61.1988C73.4211 60.7993 73.808 60.1483 73.8017 59.4779C73.8243 59.4199 73.8243 59.4199 73.7889 59.3393C73.7857 59.0041 73.4022 58.788 73.0799 58.9298C72.3095 59.3647 71.7582 59.7514 70.8718 60.1412C70.3205 60.5278 69.9788 61.0628 69.927 61.7106Z" fill="url(#paint17_linear)"/>
<path d="M72.5332 63.2594C72.4526 63.2948 72.3495 63.3882 72.2689 63.4237C72.0851 63.5526 71.924 63.6234 71.7628 63.6943C71.7628 63.6943 71.6822 63.7297 71.6596 63.7877L71.579 63.8232L71.4985 63.8586C71.3373 63.9295 71.1535 64.0584 70.9924 64.1292C70.8763 64.0841 70.7603 64.0389 70.6443 63.9938C70.4703 63.9261 70.2962 63.8583 70.1222 63.7906C70.0062 63.7455 69.9482 63.7229 69.8547 63.6197C69.8773 63.5617 69.8773 63.5617 69.8999 63.5037C69.9225 63.4457 69.9225 63.4457 69.945 63.3877C69.9676 63.3297 69.9902 63.2717 69.9902 63.2717C70.0128 63.2137 70.0128 63.2137 70.0353 63.1556C70.0579 63.0976 70.0805 63.0396 70.1031 62.9816C70.1256 62.9236 70.1482 62.8656 70.2514 62.7721C70.2739 62.7141 70.3545 62.6787 70.3545 62.6787C70.3771 62.6207 70.4577 62.5853 70.4803 62.5272C70.5028 62.4692 70.5608 62.4918 70.5834 62.4338C70.606 62.3758 70.664 62.3984 70.6866 62.3403C70.7672 62.3049 70.7672 62.3049 70.8478 62.2695C71.1701 62.1277 71.4344 61.9634 71.7568 61.8217C71.9179 61.7508 72.1017 61.6219 72.2629 61.5511C72.424 61.4802 72.6078 61.3513 72.769 61.2804C72.8495 61.245 72.9527 61.1516 73.0333 61.1161C73.3782 60.9164 73.7391 61.1904 73.7423 61.5256L73.7197 61.5836C73.61 62.2089 73.223 62.8599 72.5332 63.2594Z" fill="url(#paint18_linear)"/>
<path d="M73.0984 64.5483C73.121 64.4903 73.121 64.4903 73.1435 64.4323C73.1661 64.3743 73.2113 64.2582 73.2918 64.2228C73.3144 64.1648 73.3144 64.1648 73.337 64.1068C73.4047 63.9328 73.4724 63.7587 73.4596 63.6201C73.537 63.2495 73.1181 62.9529 72.7732 63.1526C72.6926 63.1881 72.67 63.2461 72.612 63.2235C72.5314 63.2589 72.4508 63.2944 72.3703 63.3298C72.2897 63.3652 72.2091 63.4007 72.1285 63.4361C72.0479 63.4715 71.9673 63.507 71.8867 63.5424L71.8061 63.5778C71.8061 63.5778 71.8061 63.5778 71.7256 63.6133C71.7256 63.6133 71.7256 63.6133 71.645 63.6487C71.8061 63.5778 71.9899 63.449 72.1511 63.3781C72.2316 63.3427 72.3348 63.2492 72.4154 63.2138C73.1052 62.8143 73.5502 62.1859 73.6245 61.48L73.647 61.422C73.6665 61.0288 73.283 60.8128 72.9381 61.0125C73.4313 60.6033 73.7731 60.0683 73.7442 59.4559C73.7668 59.3979 73.7668 59.3979 73.7313 59.3174C73.7282 58.9822 73.4027 58.7887 73.0804 58.9304C73.493 58.5566 73.7768 57.9991 73.7253 57.4447C73.7479 57.3867 73.7125 57.3061 73.7125 57.3061C73.7093 56.9709 73.3258 56.7549 72.9809 56.9546L72.9003 56.9901C73.3129 56.6163 73.5967 56.0588 73.4873 55.4818C73.4518 55.4012 73.4744 55.3432 73.439 55.2626C73.3778 54.9048 73.0297 54.7694 72.7654 54.9337C72.3173 55.2269 71.9724 55.4267 71.5469 55.6618C71.8112 55.4975 72.0982 55.2752 72.4431 55.0755C72.7074 54.9111 72.8557 54.7017 73.004 54.4922C72.0564 54.5242 71.0508 54.5336 70.0678 54.4851C69.7937 54.846 69.6711 55.3327 69.7677 55.771C69.8032 55.8516 69.7806 55.9096 69.816 55.9902C69.8772 56.348 70.2252 56.4834 70.4896 56.3191C70.5702 56.2837 70.6733 56.1902 70.7539 56.1548C70.2253 56.4834 69.9189 57.099 70.0058 57.7339C69.9832 57.792 70.0187 57.8725 69.9961 57.9306C69.9992 58.2658 70.3827 58.4818 70.6471 58.3175C70.2344 58.6913 69.9958 59.1328 69.9892 59.6646C69.9667 59.7226 70.0021 59.8032 69.9795 59.8612C70.0052 60.1384 70.2501 60.3673 70.5273 60.3416C70.1373 60.6573 69.8986 61.0988 69.8921 61.6306C69.8695 61.6887 69.9049 61.7692 69.8824 61.8273C69.8855 62.1625 70.1884 62.4139 70.4882 62.3302C70.4076 62.3656 70.385 62.4236 70.385 62.4236C70.3044 62.4591 70.2819 62.5171 70.2593 62.5751C70.2367 62.6331 70.1561 62.6685 70.1561 62.6685C70.1336 62.7266 70.053 62.762 70.0078 62.878C69.9852 62.936 69.9627 62.994 69.9401 63.052C69.9175 63.1101 69.9175 63.1101 69.8949 63.1681C69.8724 63.2261 69.8498 63.2841 69.8498 63.2841C69.8272 63.3421 69.8272 63.3421 69.8046 63.4001C69.7821 63.4581 69.7821 63.4581 69.7595 63.5161C69.8755 63.5613 69.9335 63.5839 70.027 63.687C70.201 63.7547 70.375 63.8225 70.5491 63.8902C70.6651 63.9353 70.7811 63.9805 70.8971 64.0256C71.0131 64.0708 71.0712 64.0934 71.1872 64.1385L71.2452 64.1611C71.3612 64.2062 71.4772 64.2514 71.6738 64.2611C71.7899 64.3063 71.9865 64.316 72.1605 64.3837C72.2185 64.4063 72.3345 64.4514 72.4151 64.416C72.4731 64.4386 72.4731 64.4386 72.5311 64.4611C72.5892 64.4837 72.6472 64.5063 72.7858 64.4934C72.9018 64.5386 72.9824 64.5031 73.0984 64.5483C73.0984 64.5483 73.0758 64.6063 73.0984 64.5483Z" fill="url(#paint19_radial)"/>
<path d="M49.8614 27.4518L48.3185 23.1776L52.2055 23.4879L50.7935 10.982L61.0731 19.9252L62.7017 16.0837L62.9683 19.8612L66.8758 14.9694L67.0448 23.1175L78.1268 19.0138L72.8621 24.6466L83.8104 27.2373L71.8451 32.0659L74.023 36.2532L70.4423 35.3274L75.5033 46.1807L64.0429 41.988L63.8966 47.3416L61.6765 44.8077L53.4688 52.1674L53.4676 43.4166L48.2684 44.9335L51.3635 40.9279L45.1009 41.2294L49.9109 36.4217L38.9992 29.1027L49.8614 27.4518Z" fill="url(#paint20_radial)"/>
<path opacity="0.22" d="M86.9246 85.4921C84.359 85.5624 80.8329 85.5261 83.0876 91.7472C85.3424 97.9683 84.0359 116.43 77.7234 123.726C77.7234 123.726 92.8578 115.388 94.2663 101.642C95.7553 87.8599 89.0164 85.4378 86.9246 85.4921Z" fill="url(#paint21_radial)"/>
<path opacity="0.22" d="M87.043 84.3496C86.1985 84.2882 85.2735 84.2622 84.4419 84.3393C83.6104 84.4165 82.7562 84.5516 81.9343 84.4322C81.0899 84.3708 80.2423 83.9741 79.7848 83.2617C79.585 82.9168 79.4659 82.5364 79.3467 82.1561C79.2018 81.4985 79.0795 80.783 79.4084 80.1094C79.9179 78.9718 81.4876 78.7143 82.7027 78.8532C84.8783 79.0987 86.9344 80.166 88.4746 81.7005C88.9064 82.1358 90.3178 83.4866 89.9438 84.2761C89.3054 85.23 87.6908 84.4013 87.043 84.3496Z" fill="url(#paint22_radial)"/>
<path d="M64.1086 27.9195L63.9133 21.8987L60.9505 25.221L54.1224 18.2221L55.7836 26.4833L52.4639 26.2601L53.8973 29.9573L46.4031 32.0506L53.3675 35.0948L51.8615 38.4497L55.5425 37.7447L55.8757 46.1571L62.6978 37.7238L69.5722 39.7979L66.1281 33.7151L68.4779 32.8261L67.4855 31.7719L74.4033 27.3836L64.1086 27.9195Z" fill="url(#paint23_radial)"/>
<path d="M58.5422 30.8961L58.0149 25.2137L60.2928 28.9724L62.6075 26.8005L61.3624 30.8581L69.3561 29.026L62.7801 32.8793L65.4961 37.7436L61.0295 34.8031L57.0894 41.1517L57.8192 35.1569L54.973 36.12L57.2426 34.0642L51.7347 32.2547L57.314 31.8209L55.8994 30.1349L58.5422 30.8961Z" fill="url(#paint24_radial)"/>
<path d="M80.2513 37.0729C80.6999 37.2475 81.205 37.0254 81.3795 36.5768C81.5541 36.1283 81.332 35.6232 80.8835 35.4486C80.4349 35.2741 79.9298 35.4962 79.7552 35.9447C79.5807 36.3933 79.8028 36.8984 80.2513 37.0729Z" fill="url(#paint25_linear)"/>
<path d="M91.1222 32.8204C90.8062 33.6325 89.8391 34.0577 89.027 33.7417C88.2148 33.4256 87.7896 32.4586 88.1057 31.6465C88.4217 30.8343 89.3888 30.4091 90.2009 30.7251C91.0131 31.0412 91.4383 32.0082 91.1222 32.8204Z" fill="url(#paint26_linear)"/>
<path d="M60.1093 14.3392C60.8142 14.6134 61.6079 14.2644 61.8822 13.5596C62.1565 12.8547 61.8075 12.061 61.1026 11.7867C60.3978 11.5124 59.6041 11.8614 59.3298 12.5663C59.0555 13.2711 59.4045 14.0649 60.1093 14.3392Z" fill="url(#paint27_linear)"/>
<path d="M70.8571 18.9893C70.6991 19.3954 70.2156 19.608 69.8095 19.4499C69.4034 19.2919 69.1908 18.8084 69.3489 18.4023C69.5069 17.9963 69.9904 17.7836 70.3965 17.9417C70.8025 18.0997 71.0152 18.5832 70.8571 18.9893Z" fill="url(#paint28_linear)"/>
<path d="M84.3735 23.0475C84.2607 23.3375 83.9609 23.4212 83.7289 23.3309C83.4388 23.2181 83.3551 22.9183 83.4454 22.6863C83.5583 22.3962 83.858 22.3125 84.0901 22.4028C84.3801 22.5156 84.4864 22.7574 84.3735 23.0475Z" fill="url(#paint29_linear)"/>
<path d="M75.4882 14.9809C75.9367 15.1554 76.4418 14.9333 76.6164 14.4848C76.7909 14.0362 76.5688 13.5311 76.1203 13.3566C75.6717 13.182 75.1666 13.4041 74.9921 13.8527C74.8175 14.3012 75.0396 14.8063 75.4882 14.9809Z" fill="url(#paint30_linear)"/>
<path d="M37.7169 37.8879C38.1654 38.0624 38.6705 37.8403 38.8451 37.3918C39.0197 36.9432 38.7975 36.4381 38.349 36.2636C37.9005 36.089 37.3954 36.3111 37.2208 36.7597C37.0463 37.2082 37.2684 37.7133 37.7169 37.8879Z" fill="url(#paint31_linear)"/>
<path d="M66.8296 50.6202C67.4063 50.8446 68.0557 50.5591 68.2802 49.9824C68.5046 49.4057 68.219 48.7563 67.6423 48.5318C67.0656 48.3074 66.4162 48.593 66.1918 49.1697C65.9674 49.7464 66.2529 50.3958 66.8296 50.6202Z" fill="url(#paint32_linear)"/>
<path d="M50.7185 49.9612C50.5604 50.3673 50.0769 50.5799 49.6709 50.4219C49.2648 50.2638 49.0522 49.7803 49.2102 49.3743C49.3682 48.9682 49.8517 48.7556 50.2578 48.9136C50.6639 49.0716 50.8765 49.5551 50.7185 49.9612Z" fill="url(#paint33_linear)"/>
<path d="M41.8989 23.8853C41.7861 24.1754 41.4863 24.2591 41.2542 24.1688C40.9642 24.0559 40.8805 23.7562 40.9708 23.5241C41.0836 23.2341 41.3834 23.1504 41.6154 23.2407C41.8475 23.331 41.9892 23.6533 41.8989 23.8853Z" fill="url(#paint34_linear)"/>
<path d="M45.2168 17.762C44.9233 18.5161 44.0369 18.9059 43.2828 18.6124C42.5286 18.319 42.1388 17.4325 42.4323 16.6784C42.7258 15.9243 43.6122 15.5345 44.3664 15.8279C45.1205 16.1214 45.5103 17.0079 45.2168 17.762Z" fill="url(#paint35_linear)"/>
<path d="M77.8752 41.2917L84.7157 50.8337L75.2451 41.8713L77.8752 41.2917Z" fill="url(#paint36_linear)"/>
<path d="M65.0625 14.9981L63.9283 13.6216L66.0698 7.77539L65.0625 14.9981Z" fill="url(#paint37_linear)"/>
<path d="M50.4151 21.0542L50.3257 17.6796L43.3721 9.62988L50.4151 21.0542Z" fill="url(#paint38_linear)"/>
<path d="M44.5659 37.2806L36.2204 41.0464L45.5872 38.9471L44.5659 37.2806Z" fill="url(#paint39_linear)"/>
<path d="M59.59 47.9362L60.4517 57.2221L61.2435 47.9784L59.59 47.9362Z" fill="url(#paint40_linear)"/>
<path d="M80.7539 20.5033L86.7984 15.4413L79.626 19.7972L80.7539 20.5033Z" fill="url(#paint41_linear)"/>
<defs>
<radialGradient id="paint0_radial" cx="0" cy="0" r="1" gradientUnits="userSpaceOnUse" gradientTransform="translate(45.437 108.251) rotate(43.5919) scale(54.9271)">
<stop/>
<stop offset="0.0953546" stop-color="#1C1C1C"/>
<stop offset="0.304" stop-color="#575757"/>
<stop offset="0.3116" stop-color="#5A5A5A"/>
<stop offset="0.4843" stop-color="#949494"/>
<stop offset="0.6434" stop-color="#C2C2C2"/>
<stop offset="0.7838" stop-color="#E3E3E3"/>
<stop offset="0.9003" stop-color="#F8F8F8"/>
<stop offset="0.9785" stop-color="white"/>
</radialGradient>
<radialGradient id="paint1_radial" cx="0" cy="0" r="1" gradientUnits="userSpaceOnUse" gradientTransform="translate(43.2929 107.234) rotate(43.5919) scale(50.1327)">
<stop/>
<stop offset="0.0953546" stop-color="#1C1C1C"/>
<stop offset="0.304" stop-color="#575757"/>
<stop offset="0.3116" stop-color="#5A5A5A"/>
<stop offset="0.4843" stop-color="#949494"/>
<stop offset="0.6434" stop-color="#C2C2C2"/>
<stop offset="0.7838" stop-color="#E3E3E3"/>
<stop offset="0.9003" stop-color="#F8F8F8"/>
<stop offset="0.9785" stop-color="white"/>
</radialGradient>
<radialGradient id="paint2_radial" cx="0" cy="0" r="1" gradientUnits="userSpaceOnUse" gradientTransform="translate(69.9467 73.5162) rotate(-166.955) scale(24.8569 5.73626)">
<stop/>
<stop offset="0.0468802" stop-color="#121212"/>
<stop offset="0.249" stop-color="#595959"/>
<stop offset="0.4396" stop-color="#949494"/>
<stop offset="0.6131" stop-color="#C2C2C2"/>
<stop offset="0.7663" stop-color="#E3E3E3"/>
<stop offset="0.8933" stop-color="#F8F8F8"/>
<stop offset="0.9785" stop-color="white"/>
</radialGradient>
<linearGradient id="paint3_linear" x1="73.3864" y1="55.0503" x2="70.1854" y2="58.4127" gradientUnits="userSpaceOnUse">
<stop stop-color="#FFD963" stop-opacity="0"/>
<stop offset="0.651" stop-color="#A79B77" stop-opacity="0.669"/>
<stop offset="0.9731" stop-color="#808080"/>
</linearGradient>
<linearGradient id="paint4_linear" x1="73.5514" y1="56.9745" x2="70.2789" y2="60.4119" gradientUnits="userSpaceOnUse">
<stop stop-color="#FFD963" stop-opacity="0"/>
<stop offset="0.651" stop-color="#A79B77" stop-opacity="0.669"/>
<stop offset="0.9731" stop-color="#808080"/>
</linearGradient>
<linearGradient id="paint5_linear" x1="72.4878" y1="51.2497" x2="69.5101" y2="54.3774" gradientUnits="userSpaceOnUse">
<stop stop-color="#FFD963" stop-opacity="0"/>
<stop offset="0.651" stop-color="#A79B77" stop-opacity="0.669"/>
<stop offset="0.9731" stop-color="#808080"/>
</linearGradient>
<linearGradient id="paint6_linear" x1="73.0392" y1="53.1361" x2="69.9414" y2="56.39" gradientUnits="userSpaceOnUse">
<stop stop-color="#FFD963" stop-opacity="0"/>
<stop offset="0.651" stop-color="#A79B77" stop-opacity="0.669"/>
<stop offset="0.9731" stop-color="#808080"/>
</linearGradient>
<linearGradient id="paint7_linear" x1="70.7918" y1="47.3858" x2="67.9976" y2="50.3208" gradientUnits="userSpaceOnUse">
<stop stop-color="#FFD963" stop-opacity="0"/>
<stop offset="0.651" stop-color="#A79B77" stop-opacity="0.669"/>
<stop offset="0.9731" stop-color="#808080"/>
</linearGradient>
<linearGradient id="paint8_linear" x1="71.7226" y1="49.3155" x2="68.8487" y2="52.3342" gradientUnits="userSpaceOnUse">
<stop stop-color="#FFD963" stop-opacity="0"/>
<stop offset="0.651" stop-color="#A79B77" stop-opacity="0.669"/>
<stop offset="0.9731" stop-color="#808080"/>
</linearGradient>
<linearGradient id="paint9_linear" x1="68.5086" y1="43.4503" x2="65.8116" y2="46.2833" gradientUnits="userSpaceOnUse">
<stop stop-color="#FFD963" stop-opacity="0"/>
<stop offset="0.651" stop-color="#A79B77" stop-opacity="0.669"/>
<stop offset="0.9731" stop-color="#808080"/>
</linearGradient>
<linearGradient id="paint10_linear" x1="69.7027" y1="45.4125" x2="66.9684" y2="48.2846" gradientUnits="userSpaceOnUse">
<stop stop-color="#FFD963" stop-opacity="0"/>
<stop offset="0.651" stop-color="#A79B77" stop-opacity="0.669"/>
<stop offset="0.9731" stop-color="#808080"/>
</linearGradient>
<linearGradient id="paint11_linear" x1="65.8401" y1="39.4536" x2="63.1606" y2="42.2682" gradientUnits="userSpaceOnUse">
<stop stop-color="#FFD963" stop-opacity="0"/>
<stop offset="0.651" stop-color="#A79B77" stop-opacity="0.669"/>
<stop offset="0.9731" stop-color="#808080"/>
</linearGradient>
<linearGradient id="paint12_linear" x1="67.2012" y1="41.4457" x2="64.5219" y2="44.2601" gradientUnits="userSpaceOnUse">
<stop stop-color="#FFD963" stop-opacity="0"/>
<stop offset="0.651" stop-color="#A79B77" stop-opacity="0.669"/>
<stop offset="0.9731" stop-color="#808080"/>
</linearGradient>
<linearGradient id="paint13_linear" x1="63.0486" y1="35.4677" x2="60.326" y2="38.3276" gradientUnits="userSpaceOnUse">
<stop stop-color="#FFD963" stop-opacity="0"/>
<stop offset="0.651" stop-color="#A79B77" stop-opacity="0.669"/>
<stop offset="0.9731" stop-color="#808080"/>
</linearGradient>
<linearGradient id="paint14_linear" x1="64.4389" y1="37.4454" x2="61.744" y2="40.2762" gradientUnits="userSpaceOnUse">
<stop stop-color="#FFD963" stop-opacity="0"/>
<stop offset="0.651" stop-color="#A79B77" stop-opacity="0.669"/>
<stop offset="0.9731" stop-color="#808080"/>
</linearGradient>
<linearGradient id="paint15_linear" x1="61.6607" y1="33.4691" x2="58.9007" y2="36.3682" gradientUnits="userSpaceOnUse">
<stop stop-color="#FFD963" stop-opacity="0"/>
<stop offset="0.651" stop-color="#A79B77" stop-opacity="0.669"/>
<stop offset="0.9731" stop-color="#808080"/>
</linearGradient>
<linearGradient id="paint16_linear" x1="73.2102" y1="63.0309" x2="71.5797" y2="64.7435" gradientUnits="userSpaceOnUse">
<stop stop-color="#FFD963" stop-opacity="0"/>
<stop offset="0.651" stop-color="#A79B77" stop-opacity="0.669"/>
<stop offset="0.9731" stop-color="#808080"/>
</linearGradient>
<linearGradient id="paint17_linear" x1="73.5127" y1="58.9139" x2="70.1919" y2="62.4021" gradientUnits="userSpaceOnUse">
<stop stop-color="#FFD963" stop-opacity="0"/>
<stop offset="0.651" stop-color="#A79B77" stop-opacity="0.669"/>
<stop offset="0.9731" stop-color="#808080"/>
</linearGradient>
<linearGradient id="paint18_linear" x1="73.3701" y1="60.8955" x2="70.3086" y2="64.1113" gradientUnits="userSpaceOnUse">
<stop stop-color="#FFD963" stop-opacity="0"/>
<stop offset="0.651" stop-color="#A79B77" stop-opacity="0.669"/>
<stop offset="0.9731" stop-color="#808080"/>
</linearGradient>
<radialGradient id="paint19_radial" cx="0" cy="0" r="1" gradientUnits="userSpaceOnUse" gradientTransform="translate(72.3786 56.7258) rotate(43.5919) scale(6.43583)">
<stop stop-color="#FFD963" stop-opacity="0"/>
<stop offset="0.2899" stop-color="#C2AA5A" stop-opacity="0.2899"/>
<stop offset="0.7797" stop-color="#615F4C" stop-opacity="0.7797"/>
<stop offset="1" stop-color="#3A4146"/>
</radialGradient>
<radialGradient id="paint20_radial" cx="0" cy="0" r="1" gradientUnits="userSpaceOnUse" gradientTransform="translate(59.4669 33.1383) rotate(21.2638) scale(20.2433)">
<stop stop-color="#FFD71D"/>
<stop offset="1" stop-color="#FEB200"/>
</radialGradient>
<radialGradient id="paint21_radial" cx="0" cy="0" r="1" gradientUnits="userSpaceOnUse" gradientTransform="translate(103.466 148.783) rotate(43.5919) scale(90.3654)">
<stop/>
<stop offset="0.1773" stop-color="#303030"/>
<stop offset="0.7353" stop-color="#C4C4C4"/>
<stop offset="0.9785" stop-color="white"/>
</radialGradient>
<radialGradient id="paint22_radial" cx="0" cy="0" r="1" gradientUnits="userSpaceOnUse" gradientTransform="translate(96.7129 99.7153) rotate(43.5919) scale(40.9701)">
<stop/>
<stop offset="0.1773" stop-color="#303030"/>
<stop offset="0.7353" stop-color="#C4C4C4"/>
<stop offset="0.9785" stop-color="white"/>
</radialGradient>
<radialGradient id="paint23_radial" cx="0" cy="0" r="1" gradientUnits="userSpaceOnUse" gradientTransform="translate(58.8804 33.6338) rotate(21.2638) scale(12.489)">
<stop stop-color="#FFF05B"/>
<stop offset="1" stop-color="#FFD53E"/>
</radialGradient>
<radialGradient id="paint24_radial" cx="0" cy="0" r="1" gradientUnits="userSpaceOnUse" gradientTransform="translate(61.9249 20.3021) rotate(21.2638) scale(28.6418)">
<stop stop-color="#FFFF94"/>
<stop offset="1" stop-color="#FFD278"/>
</radialGradient>
<linearGradient id="paint25_linear" x1="79.7705" y1="35.9174" x2="81.3821" y2="36.5446" gradientUnits="userSpaceOnUse">
<stop stop-color="#FFD71D"/>
<stop offset="1" stop-color="#FEB200"/>
</linearGradient>
<linearGradient id="paint26_linear" x1="88.1427" y1="31.66" x2="91.1409" y2="32.8268" gradientUnits="userSpaceOnUse">
<stop stop-color="#FFD71D"/>
<stop offset="1" stop-color="#FEB200"/>
</linearGradient>
<linearGradient id="paint27_linear" x1="59.3405" y1="12.5928" x2="61.8737" y2="13.5787" gradientUnits="userSpaceOnUse">
<stop stop-color="#FFD71D"/>
<stop offset="1" stop-color="#FEB200"/>
</linearGradient>
<linearGradient id="paint28_linear" x1="69.3615" y1="18.4131" x2="70.8606" y2="18.9965" gradientUnits="userSpaceOnUse">
<stop stop-color="#FFD71D"/>
<stop offset="1" stop-color="#FEB200"/>
</linearGradient>
<linearGradient id="paint29_linear" x1="83.4378" y1="22.6852" x2="84.4006" y2="23.0599" gradientUnits="userSpaceOnUse">
<stop stop-color="#FFD71D"/>
<stop offset="1" stop-color="#FEB200"/>
</linearGradient>
<linearGradient id="paint30_linear" x1="75.0016" y1="13.8353" x2="76.6133" y2="14.4625" gradientUnits="userSpaceOnUse">
<stop stop-color="#FFD71D"/>
<stop offset="1" stop-color="#FEB200"/>
</linearGradient>
<linearGradient id="paint31_linear" x1="37.2563" y1="36.7549" x2="38.8679" y2="37.3821" gradientUnits="userSpaceOnUse">
<stop stop-color="#FFD71D"/>
<stop offset="1" stop-color="#FEB200"/>
</linearGradient>
<linearGradient id="paint32_linear" x1="66.1509" y1="49.1749" x2="68.2745" y2="50.0014" gradientUnits="userSpaceOnUse">
<stop stop-color="#FFD71D"/>
<stop offset="1" stop-color="#FEB200"/>
</linearGradient>
<linearGradient id="paint33_linear" x1="49.2269" y1="49.3929" x2="50.726" y2="49.9763" gradientUnits="userSpaceOnUse">
<stop stop-color="#FFD71D"/>
<stop offset="1" stop-color="#FEB200"/>
</linearGradient>
<linearGradient id="paint34_linear" x1="40.9253" y1="23.523" x2="41.8882" y2="23.8977" gradientUnits="userSpaceOnUse">
<stop stop-color="#FFD71D"/>
<stop offset="1" stop-color="#FEB200"/>
</linearGradient>
<linearGradient id="paint35_linear" x1="42.4149" y1="16.6798" x2="45.201" y2="17.764" gradientUnits="userSpaceOnUse">
<stop stop-color="#FFD71D"/>
<stop offset="1" stop-color="#FEB200"/>
</linearGradient>
<linearGradient id="paint36_linear" x1="74.5983" y1="43.4616" x2="85.8883" y2="47.8552" gradientUnits="userSpaceOnUse">
<stop stop-color="#FFD71D"/>
<stop offset="1" stop-color="#FEB200"/>
</linearGradient>
<linearGradient id="paint37_linear" x1="64.7647" y1="11.0563" x2="66.3411" y2="11.6698" gradientUnits="userSpaceOnUse">
<stop stop-color="#FFD71D"/>
<stop offset="1" stop-color="#FEB200"/>
</linearGradient>
<linearGradient id="paint38_linear" x1="41.8842" y1="13.3927" x2="51.8779" y2="17.2818" gradientUnits="userSpaceOnUse">
<stop stop-color="#FFD71D"/>
<stop offset="1" stop-color="#FEB200"/>
</linearGradient>
<linearGradient id="paint39_linear" x1="37.3961" y1="37.9849" x2="44.8632" y2="40.8908" gradientUnits="userSpaceOnUse">
<stop stop-color="#FFD71D"/>
<stop offset="1" stop-color="#FEB200"/>
</linearGradient>
<linearGradient id="paint40_linear" x1="58.1727" y1="51.5863" x2="62.0727" y2="53.104" gradientUnits="userSpaceOnUse">
<stop stop-color="#FFD71D"/>
<stop offset="1" stop-color="#FEB200"/>
</linearGradient>
<linearGradient id="paint41_linear" x1="80.7561" y1="16.8169" x2="85.5491" y2="18.6821" gradientUnits="userSpaceOnUse">
<stop stop-color="#FFD71D"/>
<stop offset="1" stop-color="#FEB200"/>
</linearGradient>
<clipPath id="clip0">
<rect width="59" height="60" fill="white" transform="translate(34 67)"/>
</clipPath>
</defs>
</svg>
