<svg width="865" height="341" viewBox="0 0 865 341" fill="none" xmlns="http://www.w3.org/2000/svg">
	<g filter="url(#filter0_dd_57_1845)">
		<path d="M84.7219 82.376C91.9724 86.4846 95.5977 92.7281 95.5977 101.107C95.5977 108.84 93.06 114.923 87.9846 119.354C82.9898 123.785 75.699 126 66.1122 126H30.3429V41.4105H63.937C73.4433 41.4105 80.6938 43.4648 85.6886 47.5735C90.6834 51.6821 93.1808 57.5631 93.1808 65.2164C93.1808 72.5475 90.3612 78.2674 84.7219 82.376ZM62.4869 62.1954H54.5113V73.5545L63.8162 73.4337C67.2803 72.9503 69.0124 71.0974 69.0124 67.8749C69.0124 66.022 68.3679 64.6122 67.0789 63.6455C65.7899 62.6787 64.2593 62.1954 62.4869 62.1954ZM64.6621 105.215C66.5956 105.215 68.2068 104.651 69.4958 103.523C70.7847 102.396 71.4292 100.945 71.4292 99.173C71.4292 95.7895 69.6166 93.8157 65.9913 93.2518L54.5113 93.1309V105.215H64.6621ZM180.727 115.245C172.107 123.704 161.513 127.933 148.946 127.933C136.378 127.933 125.744 123.704 117.043 115.245C108.423 106.706 104.113 96.1923 104.113 83.7053C104.113 71.2182 108.423 60.7453 117.043 52.2863C125.744 43.7468 136.378 39.477 148.946 39.477C161.513 39.477 172.107 43.7468 180.727 52.2863C189.428 60.7453 193.778 71.2182 193.778 83.7053C193.778 96.1923 189.428 106.706 180.727 115.245ZM134.082 98.448C138.03 102.315 142.984 104.248 148.946 104.248C154.907 104.248 159.821 102.315 163.688 98.448C167.636 94.5005 169.61 89.5862 169.61 83.7053C169.61 77.8243 167.636 72.9503 163.688 69.0834C159.821 65.1359 154.907 63.1621 148.946 63.1621C142.984 63.1621 138.03 65.1359 134.082 69.0834C130.215 72.9503 128.282 77.8243 128.282 83.7053C128.282 89.5862 130.215 94.5005 134.082 98.448ZM252.386 41.4105H276.554V126H257.219L230.634 87.3305V126H206.466V41.4105H225.8L252.386 80.08V41.4105ZM350.351 119.595C343.986 125.154 335.689 127.933 325.457 127.933C315.226 127.933 306.928 125.154 300.564 119.595C294.199 114.037 291.017 106.746 291.017 97.7229V41.4105H315.186V95.0644C315.186 101.348 318.61 104.49 325.457 104.49C332.305 104.49 335.729 101.348 335.729 95.0644V41.4105H359.897V97.7229C359.897 106.746 356.715 114.037 350.351 119.595ZM404.898 127.933C395.714 127.933 388.06 126.04 381.938 122.254C375.815 118.387 371.706 113.191 369.612 106.665L390.276 94.7019C393.096 101.872 398.171 105.457 405.502 105.457C410.98 105.457 413.719 104.007 413.719 101.107C413.719 100.301 413.518 99.5759 413.115 98.9314C412.712 98.2869 411.947 97.7229 410.819 97.2396C409.691 96.7562 408.684 96.3937 407.798 96.152C406.992 95.8298 405.542 95.3867 403.448 94.8227C401.353 94.2588 399.782 93.8157 398.735 93.4935C381.897 88.4181 373.479 79.3549 373.479 66.304C373.479 58.5701 376.258 52.1655 381.817 47.0901C387.456 42.0147 394.828 39.477 403.931 39.477C411.101 39.477 417.506 41.1688 423.145 44.5524C428.865 47.936 433.054 52.81 435.713 59.1743L415.653 70.896C413.316 64.9345 409.449 61.9537 404.052 61.9537C401.957 61.9537 400.346 62.3968 399.218 63.2829C398.171 64.0886 397.647 65.1359 397.647 66.4248C397.647 68.1972 398.574 69.5667 400.427 70.5335C402.36 71.5002 406.026 72.7489 411.423 74.2796C415.451 75.488 418.754 76.6561 421.332 77.784C423.91 78.8313 426.609 80.362 429.429 82.376C432.248 84.3095 434.343 86.8472 435.713 89.9891C437.163 93.0504 437.888 96.6756 437.888 100.865C437.888 109.485 434.907 116.172 428.945 120.925C423.064 125.597 415.049 127.933 404.898 127.933ZM472.337 103.765H503.756V126H448.169V41.4105H503.152V63.4038H472.337V72.5878H500.131V94.3394H472.337V103.765ZM547.506 127.933C538.322 127.933 530.668 126.04 524.546 122.254C518.423 118.387 514.314 113.191 512.22 106.665L532.884 94.7019C535.703 101.872 540.779 105.457 548.11 105.457C553.588 105.457 556.327 104.007 556.327 101.107C556.327 100.301 556.126 99.5759 555.723 98.9314C555.32 98.2869 554.555 97.7229 553.427 97.2396C552.299 96.7562 551.292 96.3937 550.406 96.152C549.6 95.8298 548.15 95.3867 546.056 94.8227C543.961 94.2588 542.39 93.8157 541.343 93.4935C524.505 88.4181 516.087 79.3549 516.087 66.304C516.087 58.5701 518.866 52.1655 524.425 47.0901C530.064 42.0147 537.435 39.477 546.539 39.477C553.709 39.477 560.113 41.1688 565.753 44.5524C571.473 47.936 575.662 52.81 578.32 59.1743L558.261 70.896C555.924 64.9345 552.057 61.9537 546.66 61.9537C544.565 61.9537 542.954 62.3968 541.826 63.2829C540.779 64.0886 540.255 65.1359 540.255 66.4248C540.255 68.1972 541.182 69.5667 543.034 70.5335C544.968 71.5002 548.633 72.7489 554.031 74.2796C558.059 75.488 561.362 76.6561 563.94 77.784C566.518 78.8313 569.217 80.362 572.037 82.376C574.856 84.3095 576.951 86.8472 578.32 89.9891C579.77 93.0504 580.496 96.6756 580.496 100.865C580.496 109.485 577.515 116.172 571.553 120.925C565.672 125.597 557.656 127.933 547.506 127.933Z" fill="white" />
	</g>
	<defs>
		<filter id="filter0_dd_57_1845" x="-253.635" y="-215.524" width="1118.11" height="656.412" filterUnits="userSpaceOnUse" color-interpolation-filters="sRGB">
			<feFlood flood-opacity="0" result="BackgroundImageFix" />
			<feColorMatrix in="SourceAlpha" type="matrix" values="0 0 0 0 0 0 0 0 0 0 0 0 0 0 0 0 0 0 127 0" result="hardAlpha" />
			<feOffset />
			<feGaussianBlur stdDeviation="21.2984" />
			<feColorMatrix type="matrix" values="0 0 0 0 0.329167 0 0 0 0 0.329167 0 0 0 0 0.329167 0 0 0 1 0" />
			<feBlend mode="multiply" in2="BackgroundImageFix" result="effect1_dropShadow_57_1845" />
			<feColorMatrix in="SourceAlpha" type="matrix" values="0 0 0 0 0 0 0 0 0 0 0 0 0 0 0 0 0 0 127 0" result="hardAlpha" />
			<feOffset dy="28.9773" />
			<feGaussianBlur stdDeviation="141.989" />
			<feColorMatrix type="matrix" values="0 0 0 0 1 0 0 0 0 1 0 0 0 0 1 0 0 0 0.1 0" />
			<feBlend mode="normal" in2="effect1_dropShadow_57_1845" result="effect2_dropShadow_57_1845" />
			<feBlend mode="normal" in="SourceGraphic" in2="effect2_dropShadow_57_1845" result="shape" />
		</filter>
	</defs>
</svg>
