<svg width="1090" height="109" viewBox="0 0 1090 109" fill="none" xmlns="http://www.w3.org/2000/svg">
<path d="M7.23872 25.7905C11.1247 24.4155 16.1024 23.0866 21.0369 22.7817C20.232 28.9032 50.126 33.2416 56.1307 33.4948C68.1185 34.5133 75.107 37.3728 85.3276 41.3945C95.5483 45.4162 107.558 45.9225 119 46.918C144.089 48.4889 169.113 51.596 194.202 53.1669C208.395 53.7654 222.064 53.8289 236.278 53.9153C246.104 54.3297 255.341 55.745 265.188 55.6473C273.944 55.5036 281.694 53.2657 290.472 52.6099C308.572 51.3213 331.37 55.3604 349.93 56.1431C361.393 56.6265 372.376 55.5507 383.293 56.0111C395.849 56.5405 414.409 57.3232 425.743 60.8789C448.411 67.9903 469.765 67.3519 493.762 68.8768C513.938 70.2405 533.59 71.0692 553.788 71.9209C584.882 73.745 616.148 71.4728 646.566 76.3462C673.731 80.5694 700.106 77.5779 727.335 80.265C742.598 81.4216 756.094 85.5815 771.401 85.714C788.891 85.9385 804.391 81.4626 820.811 81.1291C832.318 80.5884 844.765 83.6781 856.185 85.1856C864.33 86.5549 871.297 89.9265 880.031 90.2948C899.116 91.6125 915.378 82.0391 934.549 81.3086C961.362 80.9004 982.938 87.9657 1009.49 80.8779C1024.42 76.891 1040.6 82.19 1055.43 80.7633C1065.84 80.1766 1070.36 76.7764 1068.87 73.123C1069.42 73.146 1069.42 73.146 1069.97 73.1691C1072.13 73.7732 1073.76 73.8423 1075.36 74.9354C1090.97 80.7234 1091.72 88.9622 1073.07 90.2278C1057.18 91.0963 1040.97 86.3094 1025.5 90.2733C997.856 97.315 975.734 90.2268 947.829 90.5889C928.68 90.8073 911.304 100.847 891.674 99.506C882.94 99.1377 875.449 95.2311 867.282 94.3737C855.337 92.3312 842.868 89.7535 830.816 90.2712C813.85 90.5817 797.236 95.5236 779.2 95.276C763.348 95.1205 749.306 90.9377 733.497 89.7581C705.176 87.025 677.709 89.9704 649.999 85.7242C618.489 80.8048 586.109 83.543 553.945 81.1607C533.223 79.774 512.479 78.8993 491.757 77.5125C467.214 75.9646 445.314 76.5799 421.555 69.4225C409.129 65.8208 390.569 65.0381 377.468 64.4857C366.004 64.0023 354.454 65.5671 343.012 64.5716C323.928 63.2539 300.038 59.1688 281.371 60.9464C272.593 61.6022 264.843 63.8402 255.541 63.9609C245.694 64.0586 235.933 62.1081 225.539 62.1827C210.8 61.5612 196.564 61.9868 181.825 61.3653C155.645 59.7483 129.529 56.5953 103.894 55.0013C91.8843 54.4949 79.8965 53.4764 69.13 49.4317C58.3635 45.387 51.3965 42.0154 38.8628 40.9739C30.1287 40.6056 -14.4394 34.1096 7.23872 25.7905Z" fill="#E3EAF6"/>
<path d="M1072.28 73.1159C1067.23 71.9906 1061.63 71.7315 1056.07 70.5827C1050 69.4103 1045.03 66.5055 1038.94 65.778C1032.87 64.6056 1026.75 64.3229 1020.68 63.1505C1019.69 62.6586 1018.69 62.1666 1017.69 61.6746C1007.18 57.176 996.1 53.9887 984.511 50.7777C973.41 48.0351 965.544 52.5754 955.745 54.7972C948.003 56.6683 939.772 58.071 931.542 59.4736C913.023 62.6296 895.708 61.8288 876.824 61.8471C858.958 61.9125 842.538 63.828 824.816 60.7793C810.13 58.3167 793.998 54.004 778.638 55.0769C762.259 56.1027 749.995 56.4272 733.76 54.3389C717.526 52.2505 700.72 51.4733 683.976 49.3614C667.231 47.2496 648.389 46.378 632.215 42.9551C623.11 41.1965 616.716 35.9967 607.59 34.683C596.448 32.8302 583.104 34.4421 571.859 34.8137C557.559 35.044 543.994 30.4042 529.693 30.6344C513.355 30.7705 497.444 32.7096 481.189 31.0662C464.424 29.3992 448.107 29.0903 431.301 28.3131C415.514 27.5829 397.973 31.6757 382.268 29.1661C367.581 26.7035 353.425 23.8197 338.167 22.6682C315.271 21.1634 290.352 30.265 268.701 23.9137C246.051 17.0704 223.242 2.64065 197.532 6.80152C176.976 9.8633 159.779 17.5388 138.755 19.6872C121.317 21.5557 97.4839 18.2243 81.4085 23.7224C61.1767 30.8117 103.24 37.2153 109.861 37.5215C121.553 38.5081 128.071 41.0387 138.092 45.0688C148.133 48.654 159.316 49.6171 170.52 50.1352C194.944 51.7107 218.777 55.042 243.222 56.1726C256.972 56.8085 270.234 56.976 284.005 57.1671C293.172 57.591 302.297 58.9048 311.994 58.9074C320.672 58.8629 327.905 56.9683 336.094 56.4554C353.491 55.4767 375.776 59.1823 393.6 60.0066C404.804 60.5248 413.868 62.4127 424.563 62.9073C436.785 63.4726 453.03 66.2507 464.11 69.4381C486.271 75.813 508.957 70.6917 532.363 72.2201C551.695 73.56 571.047 74.455 590.378 75.7949C620.405 77.6294 650.595 75.9049 679.989 80.3851C706.347 84.2792 731.975 81.8978 757.886 84.4336C772.635 85.5615 785.732 89.288 800.521 89.5262C817.347 89.8586 832.322 86.0929 848.68 85.5119C859.925 85.1404 871.535 87.9065 882.698 89.3144C890.296 90.5574 897.302 93.5565 905.451 93.9333C923.764 95.2261 939.983 86.6138 957.849 86.5484C983.883 86.415 1005.03 92.7427 1030.31 86.7788C1044.75 83.4344 1060.36 88.1685 1074.7 87.0484C1092.09 86.0697 1091.41 78.9046 1076.84 73.7728C1075.8 74.1705 1074.3 73.655 1072.28 73.1159Z" fill="white"/>
</svg>
