<svg width="100" height="86" viewBox="0 0 100 86" fill="none" xmlns="http://www.w3.org/2000/svg">
  <path d="M14.4668 84.8202C14.4668 85.3758 14.9172 85.8262 15.4729 85.8262H25.0713C25.627 85.8262 26.0773 85.3758 26.0773 84.8202V77.6848L20.2721 73.7786L14.4668 77.6848V84.8202Z" fill="#FFAA33" />
  <path d="M73.9238 84.8202C73.9238 85.3758 74.3742 85.8262 74.9299 85.8262H84.5283C85.084 85.8262 85.5344 85.3758 85.5344 84.8202V77.6848L79.7291 73.7786L73.9238 77.6848V84.8202Z" fill="#FFAA33" />
  <path d="M7.5 75.6812V48.6761L50 46.502L92.5 48.6761V75.6812C92.5 75.9696 92.3978 76.1958 92.2771 76.3339C92.159 76.4691 92.0483 76.5 91.9741 76.5H8.02595C7.95184 76.5 7.84115 76.4691 7.72299 76.3339C7.60224 76.1957 7.5 75.9695 7.5 75.6812Z" fill="#EEF0F5" stroke="#301B52" stroke-width="3" />
  <path d="M7.72793 17.8417L7.72795 17.8417L21.1987 5.5H78.8009L92.2721 17.8417L93.2854 16.7357L92.2721 17.8417C92.4002 17.9591 92.5 18.1602 92.5 18.4022V39.3936L50 43.493L7.5 39.3936V18.4022C7.5 18.1602 7.59982 17.9591 7.72793 17.8417Z" fill="#EEF0F5" stroke="#301B52" stroke-width="3" />
  <path d="M81.7557 3.34609V37.9043L78.5834 39.4668L75.4111 37.9043V3.3459C75.4113 1.59414 76.8314 0.173828 78.5834 0.173828C80.3353 0.173828 81.7557 1.59414 81.7557 3.34609Z" fill="#9F8DD0" />
  <path d="M24.5887 3.34609V37.9043L21.4164 39.2715L18.2441 37.9043V3.3459C18.2443 1.59414 19.6645 0.173828 21.4164 0.173828C23.1684 0.173828 24.5887 1.59414 24.5887 3.34609Z" fill="#9F8DD0" />
  <path d="M0 49.9966C0 50.5522 0.450391 51.0026 1.00605 51.0026H98.9939C99.5496 51.0026 100 50.5522 100 49.9966V38.9372C100 38.3815 99.5496 37.9312 98.9939 37.9312H1.00605C0.450391 37.9313 0 38.3817 0 38.9372H0V49.9966Z" fill="#FFD24D" />
  <path d="M67.8708 35.2152C67.8708 34.5556 67.5189 33.9462 66.9478 33.6163L50.9232 24.3646C50.3519 24.0349 49.6482 24.0349 49.0771 24.3646L33.0524 33.6163C32.4812 33.946 32.1294 34.5556 32.1294 35.2152V53.7187C32.1294 54.3782 32.4813 54.9876 33.0524 55.3175L49.0771 64.5693C49.6483 64.8991 50.3521 64.8991 50.9232 64.5693L66.9478 55.3175C67.5189 54.9878 67.8708 54.3782 67.8708 53.7187V35.2152Z" fill="#9F8DD0" />
  <path d="M50.9236 24.3646C50.3523 24.0347 49.6486 24.0347 49.0775 24.3646L46.8818 25.6322L60.7107 33.6164C61.282 33.9461 61.6338 34.5556 61.6338 35.2152V53.7187C61.6338 54.3783 61.2818 54.9877 60.7107 55.3175L46.8818 63.3017L49.0775 64.5693C49.6488 64.8992 50.3525 64.8992 50.9236 64.5693L66.9482 55.3175C67.5195 54.9877 67.8713 54.3783 67.8713 53.7187V35.2152C67.8713 34.5556 67.5193 33.9462 66.9482 33.6164L50.9236 24.3646Z" fill="#8E7CBF" />
  <path d="M48.4917 48.3705V46.191C48.4917 44.5813 49.2964 43.0946 50.6439 42.2141L52.5235 40.986C53.0151 40.6649 53.3085 40.1227 53.3085 39.5356V37.2608C53.3085 36.41 52.6165 35.718 51.7659 35.718H48.2358C47.3853 35.718 46.6933 36.41 46.6933 37.2608V39.6033C46.6933 40.4367 46.0177 41.1123 45.1843 41.1123C44.3509 41.1123 43.6753 40.4367 43.6753 39.6033V37.2608C43.6753 34.7459 45.7212 32.6998 48.236 32.6998H51.7661C54.281 32.6998 56.3269 34.7457 56.3269 37.2608V39.5356C56.3269 41.1453 55.5222 42.6321 54.1747 43.5125L52.295 44.7406C51.8034 45.0617 51.5101 45.6039 51.5101 46.191V48.3705C51.5097 49.2039 50.8343 49.8795 50.0007 49.8795C49.1671 49.8795 48.4917 49.2039 48.4917 48.3705Z" fill="#EEF0F5" />
  <path d="M48.4917 54.7247V54.3471C48.4917 53.5137 49.1673 52.8381 50.0007 52.8381C50.8341 52.8381 51.5097 53.5137 51.5097 54.3471V54.7247C51.5097 55.5579 50.8343 56.2336 50.0007 56.2336C49.1671 56.2336 48.4917 55.5581 48.4917 54.7247Z" fill="#EEF0F5" />
</svg>