<svg width="132" height="20" viewBox="0 0 132 20" fill="none" xmlns="http://www.w3.org/2000/svg">
	<path d="M0.0360107 1.07999H6.82002C8.59402 1.07999 10.079 1.67698 11.274 2.87198C12.486 4.08398 13.092 5.53398 13.092 7.22398C13.092 8.91398 12.486 10.364 11.274 11.576C10.079 12.771 8.59402 13.368 6.82002 13.368H4.13202V19H0.0360107V1.07999ZM4.13202 9.52798H6.82002C7.45102 9.52798 7.97201 9.30598 8.38101 8.86198C8.79101 8.41898 8.99602 7.87298 8.99602 7.22398C8.99602 6.57498 8.79101 6.02898 8.38101 5.58598C7.97201 5.14198 7.45102 4.91998 6.82002 4.91998H4.13202V9.52798ZM20 1.07999V15.058H26.4V19H15.904V1.07999H20ZM45.344 19H40.864L39.968 16.184H33.312L32.416 19H27.936L34.028 1.07999H39.251L45.344 19ZM36.64 5.76498L34.54 12.344H38.739L36.64 5.76498ZM55.272 1.07999H59.932L53.916 12.114V19H49.82V12.114L43.804 1.07999H48.463L51.868 7.99199L55.272 1.07999ZM79.385 10.808V1.07999H83.481V19H80.409L73.497 9.27199V19H69.401V1.07999H72.473L79.385 10.808ZM102.474 16.67C100.665 18.462 98.463 19.358 95.869 19.358C93.275 19.358 91.073 18.462 89.264 16.67C87.455 14.878 86.551 12.668 86.551 10.04C86.551 7.41198 87.455 5.20199 89.264 3.40999C91.073 1.61799 93.275 0.721985 95.869 0.721985C98.463 0.721985 100.665 1.61799 102.474 3.40999C104.283 5.20199 105.187 7.41198 105.187 10.04C105.187 12.668 104.283 14.878 102.474 16.67ZM90.647 10.04C90.647 11.61 91.141 12.89 92.131 13.88C93.121 14.87 94.367 15.365 95.869 15.365C97.354 15.365 98.591 14.87 99.581 13.88C100.588 12.873 101.091 11.593 101.091 10.04C101.091 8.48698 100.588 7.20698 99.581 6.19998C98.591 5.20998 97.354 4.71498 95.869 4.71498C94.367 4.71498 93.121 5.20998 92.131 6.19998C91.141 7.18998 90.647 8.46998 90.647 10.04ZM115.807 19H111.147L106.207 1.07999H110.507L113.605 13.624L117.061 1.07999H120.389L123.845 13.624L126.943 1.07999H131.243L126.302 19H121.643L118.725 8.42699L115.807 19Z" fill="#604A33" />
</svg>
