<svg width="268" height="64" viewBox="0 0 268 64" fill="none" xmlns="http://www.w3.org/2000/svg">
	<rect width="268" height="64" rx="30" fill="url(#paint0_linear_263_444)" />
	<rect x="3" y="3" width="262" height="58" rx="29" fill="url(#paint1_linear_263_444)" />
	<path d="M69.0355 23.08H75.8195C77.5944 23.08 79.0792 23.6773 80.2739 24.872C81.4856 26.0837 82.0915 27.5344 82.0915 29.224C82.0915 30.9136 81.4856 32.3643 80.2739 33.576C79.0792 34.7707 77.5944 35.368 75.8195 35.368H73.1315V41H69.0355V23.08ZM73.1315 31.528H75.8195C76.451 31.528 76.9715 31.3061 77.3811 30.8624C77.7907 30.4187 77.9955 29.8725 77.9955 29.224C77.9955 28.5755 77.7907 28.0293 77.3811 27.5856C76.9715 27.1419 76.451 26.92 75.8195 26.92H73.1315V31.528ZM88.9995 23.08V37.0576H95.3995V41H84.9035V23.08H88.9995ZM114.344 41H109.864L108.968 38.184H102.312L101.416 41H96.9355L103.028 23.08H108.251L114.344 41ZM105.64 27.7648L103.54 34.344H107.739L105.64 27.7648ZM124.272 23.08H128.932L122.916 34.1136V41H118.82V34.1136L112.804 23.08H117.463L120.868 29.992L124.272 23.08ZM148.385 32.808V23.08H152.481V41H149.409L142.497 31.272V41H138.401V23.08H141.473L148.385 32.808ZM171.474 38.6704C169.665 40.4624 167.463 41.3584 164.869 41.3584C162.275 41.3584 160.073 40.4624 158.264 38.6704C156.455 36.8784 155.551 34.6683 155.551 32.04C155.551 29.4117 156.455 27.2016 158.264 25.4096C160.073 23.6176 162.275 22.7216 164.869 22.7216C167.463 22.7216 169.665 23.6176 171.474 25.4096C173.283 27.2016 174.187 29.4117 174.187 32.04C174.187 34.6683 173.283 36.8784 171.474 38.6704ZM159.647 32.04C159.647 33.6101 160.141 34.8901 161.131 35.88C162.121 36.8699 163.367 37.3648 164.869 37.3648C166.354 37.3648 167.591 36.8699 168.581 35.88C169.588 34.8731 170.091 33.5931 170.091 32.04C170.091 30.4869 169.588 29.2069 168.581 28.2C167.591 27.2101 166.354 26.7152 164.869 26.7152C163.367 26.7152 162.121 27.2101 161.131 28.2C160.141 29.1899 159.647 30.4699 159.647 32.04ZM184.807 41H180.147L175.207 23.08H179.507L182.605 35.624L186.061 23.08H189.389L192.845 35.624L195.943 23.08H200.243L195.302 41H190.643L187.725 30.4272L184.807 41Z" fill="#400050" />
	<defs>
		<linearGradient id="paint0_linear_263_444" x1="134" y1="64.0001" x2="134" y2="0" gradientUnits="userSpaceOnUse">
			<stop stop-color="#00C4F2" />
			<stop offset="0.5168" stop-color="#0EC3EE" />
			<stop offset="1" stop-color="#1FC2E8" />
		</linearGradient>
		<linearGradient id="paint1_linear_263_444" x1="134" y1="61" x2="134" y2="3.00004" gradientUnits="userSpaceOnUse">
			<stop stop-color="#1481C5" />
			<stop offset="0.1083" stop-color="#1291CD" />
			<stop offset="0.5271" stop-color="#09CCE8" />
			<stop offset="0.8363" stop-color="#03F1F9" />
			<stop offset="1" stop-color="#01FFFF" />
		</linearGradient>
	</defs>
</svg>
