<svg width="288" height="66" viewBox="0 0 288 66" fill="none" xmlns="http://www.w3.org/2000/svg">
	<path d="M10.7881 66.0001C4.8393 66.0001 0 61.1601 0 55.2121V10.7881C0 4.84006 4.8393 6.10352e-05 10.7881 6.10352e-05H276.402C282.35 6.10352e-05 287.19 4.84006 287.19 10.7881V55.2121C287.19 61.1601 282.35 66.0001 276.402 66.0001H10.7881Z" fill="url(#paint0_linear_0_1)" />
	<path d="M10.7877 61.7771C7.16779 61.7771 4.22308 58.8321 4.22308 55.2121V10.7881C4.22308 7.16806 7.16779 4.22406 10.7877 4.22406H276.401C280.021 4.22406 282.966 7.16806 282.966 10.7881V55.2121C282.966 58.8321 280.021 61.7771 276.401 61.7771H10.7877Z" fill="url(#paint1_linear_0_1)" />
	<path d="M82.036 24.08H88.82C90.594 24.08 92.079 24.677 93.274 25.872C94.486 27.084 95.092 28.534 95.092 30.224C95.092 31.914 94.486 33.364 93.274 34.576C92.079 35.771 90.594 36.368 88.82 36.368H86.132V42H82.036V24.08ZM86.132 32.528H88.82C89.451 32.528 89.972 32.306 90.381 31.862C90.791 31.419 90.996 30.873 90.996 30.224C90.996 29.575 90.791 29.029 90.381 28.586C89.972 28.142 89.451 27.92 88.82 27.92H86.132V32.528ZM102 24.08V38.058H108.4V42H97.904V24.08H102ZM127.344 42H122.864L121.968 39.1841H115.312L114.416 42H109.936L116.028 24.08H121.251L127.344 42ZM118.64 28.765L116.54 35.344H120.739L118.64 28.765ZM137.272 24.08H141.932L135.916 35.114V42H131.82V35.114L125.804 24.08H130.463L133.868 30.9921L137.272 24.08ZM161.385 33.808V24.08H165.481V42H162.409L155.497 32.272V42H151.401V24.08H154.473L161.385 33.808ZM184.474 39.67C182.665 41.462 180.463 42.358 177.869 42.358C175.275 42.358 173.073 41.462 171.264 39.67C169.455 37.878 168.551 35.668 168.551 33.04C168.551 30.412 169.455 28.202 171.264 26.41C173.073 24.618 175.275 23.722 177.869 23.722C180.463 23.722 182.665 24.618 184.474 26.41C186.283 28.202 187.187 30.412 187.187 33.04C187.187 35.668 186.283 37.878 184.474 39.67ZM172.647 33.04C172.647 34.61 173.141 35.8901 174.131 36.8801C175.121 37.8701 176.367 38.3651 177.869 38.3651C179.354 38.3651 180.591 37.8701 181.581 36.8801C182.588 35.8731 183.091 34.593 183.091 33.04C183.091 31.487 182.588 30.207 181.581 29.2C180.591 28.21 179.354 27.715 177.869 27.715C176.367 27.715 175.121 28.21 174.131 29.2C173.141 30.19 172.647 31.47 172.647 33.04ZM197.807 42H193.147L188.207 24.08H192.507L195.605 36.624L199.061 24.08H202.389L205.845 36.624L208.943 24.08H213.243L208.302 42H203.643L200.725 31.427L197.807 42Z" fill="#011642" />
	<defs>
		<linearGradient id="paint0_linear_0_1" x1="143.595" y1="66.0001" x2="143.595" y2="6.10352e-05" gradientUnits="userSpaceOnUse">
			<stop stop-color="#FF9C31" />
			<stop offset="1" stop-color="#F47D08" />
		</linearGradient>
		<linearGradient id="paint1_linear_0_1" x1="143.595" y1="61.7771" x2="143.595" y2="4.22406" gradientUnits="userSpaceOnUse">
			<stop stop-color="#F9C409" />
			<stop offset="0.6986" stop-color="#FD9B27" />
			<stop offset="1" stop-color="#FFD233" />
		</linearGradient>
	</defs>
</svg>
