<svg width="28" height="28" viewBox="0 0 28 28" fill="none" xmlns="http://www.w3.org/2000/svg">
	<path d="M14.0093 14.6795C14.3893 14.6795 14.6973 14.3715 14.6973 13.9915C14.6973 13.6115 14.3893 13.3035 14.0093 13.3035C13.6293 13.3035 13.3213 13.6115 13.3213 13.9915C13.3213 14.3715 13.6293 14.6795 14.0093 14.6795Z" fill="currentColor" />
	<path d="M19.5135 14.6795C19.8934 14.6795 20.2015 14.3715 20.2015 13.9915C20.2015 13.6115 19.8934 13.3035 19.5135 13.3035C19.1335 13.3035 18.8254 13.6115 18.8254 13.9915C18.8254 14.3715 19.1335 14.6795 19.5135 14.6795Z" fill="currentColor" />
	<path d="M8.50516 14.6795C8.88514 14.6795 9.19317 14.3715 9.19317 13.9915C9.19317 13.6115 8.88514 13.3035 8.50516 13.3035C8.12517 13.3035 7.81714 13.6115 7.81714 13.9915C7.81714 14.3715 8.12517 14.6795 8.50516 14.6795Z" fill="currentColor" />
	<path d="M25.6605 12.9729L25.6605 12.973C25.1474 7.0643 20.2058 2.2951 14.0084 2.2951C5.25702 2.2951 -0.448609 11.6174 3.6495 19.4279L3.29764 24.5516C5.06947 24.4828 6.81593 24.4146 8.56267 24.3458C12.9962 26.6804 18.5819 25.9598 22.2791 22.2626C24.7286 19.813 25.9611 16.4271 25.6605 12.9729V12.9729ZM8.50525 16.0556C7.36713 16.0556 6.44119 15.1297 6.44119 13.9915C6.44119 12.8534 7.36713 11.9275 8.50525 11.9275C9.64336 11.9275 10.5693 12.8534 10.5693 13.9915C10.5693 15.1297 9.64336 16.0556 8.50525 16.0556ZM14.0094 16.0556C12.8713 16.0556 11.9453 15.1297 11.9453 13.9915C11.9453 12.8534 12.8713 11.9275 14.0094 11.9275C15.1475 11.9275 16.0734 12.8534 16.0734 13.9915C16.0734 15.1297 15.1475 16.0556 14.0094 16.0556ZM19.5135 16.0556C18.3754 16.0556 17.4495 15.1297 17.4495 13.9915C17.4495 12.8534 18.3754 11.9275 19.5135 11.9275C20.6516 11.9275 21.5776 12.8534 21.5776 13.9915C21.5776 15.1297 20.6516 16.0556 19.5135 16.0556Z" fill="currentColor" />
</svg>
