<svg width="402" height="147" viewBox="0 0 402 147" fill="none" xmlns="http://www.w3.org/2000/svg">
<path d="M11.1467 65.4572C88.3812 61.5043 148.692 -4.6156 144.634 -83.245" stroke="#5A915A" stroke-width="2.95278" stroke-miterlimit="10"/>
<path d="M35.6428 40.3691C44.9281 44.9829 55.3539 48.5108 66.3706 50.6608C61.3154 60.91 54.6651 70.9111 46.1482 80.3791" stroke="#5A915A" stroke-width="2.95278" stroke-miterlimit="10"/>
<path d="M26.6134 48.0146C33.7538 52.0885 41.5357 55.5515 49.8235 58.2611C44.9113 65.5201 38.9606 72.5448 32.1139 79.1995" stroke="#5A915A" stroke-width="2.95278" stroke-miterlimit="10"/>
<path d="M50.1791 35.2258C59.9126 38.5974 70.5796 40.8085 81.7661 41.7095C78.0922 52.4103 72.8842 63.2126 65.8062 73.621" stroke="#5A915A" stroke-width="2.95278" stroke-miterlimit="10"/>
<path d="M63.7835 28.3888C73.8261 30.5149 84.5951 31.4057 95.7479 30.844C93.5266 41.9284 89.6286 53.2503 84.1321 64.4632" stroke="#5A915A" stroke-width="2.95278" stroke-miterlimit="10"/>
<path d="M76.3842 19.9259C86.5966 20.8031 97.3285 20.3702 108.376 18.4135C107.543 29.6712 105.169 41.3089 101.189 53.1161" stroke="#5A915A" stroke-width="2.95278" stroke-miterlimit="10"/>
<path d="M87.7676 9.90204C98.0108 9.5268 108.638 7.69899 119.37 4.41177C119.928 15.7037 119.01 27.5859 116.555 39.709" stroke="#5A915A" stroke-width="2.95278" stroke-miterlimit="10"/>
<path d="M97.7927 -1.40851C107.86 -3.11083 118.239 -6.19786 128.449 -10.8903C130.402 0.296638 131.015 12.2165 130.015 24.5841" stroke="#5A915A" stroke-width="2.95278" stroke-miterlimit="10"/>
<path d="M106.313 -13.8701C116.132 -16.8316 126.057 -21.2525 135.605 -27.3535C138.957 -16.4108 140.964 -4.59599 141.495 7.80916" stroke="#5A915A" stroke-width="2.95278" stroke-miterlimit="10"/>
<path d="M392.032 88.8517C299.608 107.268 208.595 47.1831 189.887 -46.9199" stroke="#5A915A" stroke-width="3.59824" stroke-miterlimit="10"/>
<path d="M355.597 66.535C346.007 74.761 334.744 82.045 322.372 87.8779C331.408 98.4749 342.254 108.302 355.146 116.942" stroke="#5A915A" stroke-width="3.59824" stroke-miterlimit="10"/>
<path d="M368.547 72.8681C361.329 79.8151 353.171 86.2323 344.19 91.9106C352.163 99.0179 361.293 105.538 371.37 111.353" stroke="#5A915A" stroke-width="3.59824" stroke-miterlimit="10"/>
<path d="M336.886 64.8044C326.395 71.6969 314.454 77.4974 301.508 81.9056C309.047 93.449 318.428 104.654 329.901 114.834" stroke="#5A915A" stroke-width="3.59824" stroke-miterlimit="10"/>
<path d="M318.769 60.7935C307.54 66.3069 295.084 70.5782 281.741 73.2482C287.678 85.6791 295.667 97.8892 305.513 109.493" stroke="#5A915A" stroke-width="3.59824" stroke-miterlimit="10"/>
<path d="M301.354 54.562C289.552 58.6508 276.744 61.3472 263.108 62.3378C267.457 75.3883 273.74 88.4271 281.971 101.186" stroke="#5A915A" stroke-width="3.59824" stroke-miterlimit="10"/>
<path d="M284.909 46.1232C272.695 48.7416 259.595 49.7587 245.934 49.0833C248.649 62.5901 253.285 76.3529 259.81 89.9407" stroke="#5A915A" stroke-width="3.59824" stroke-miterlimit="10"/>
<path d="M269.686 35.7575C257.284 36.7555 244.1 36.211 230.636 33.7193C231.672 47.519 234.511 61.7838 239.389 76.0957" stroke="#5A915A" stroke-width="3.59824" stroke-miterlimit="10"/>
<path d="M255.893 23.5826C243.408 23.019 230.362 20.7628 217.258 16.4093C216.569 30.3385 217.729 44.8962 220.81 59.71" stroke="#5A915A" stroke-width="3.59824" stroke-miterlimit="10"/>
<path d="M206.015 -2.72859C203.556 11.1668 202.886 25.7951 204.124 40.9474" stroke="#5A915A" stroke-width="3.59824" stroke-miterlimit="10"/>
<path d="M197.32 -23.459C193.208 -9.80647 190.709 4.89252 190.059 20.22" stroke="#5A915A" stroke-width="3.59824" stroke-miterlimit="10"/>
<path d="M95.369 93.4088C103.831 89.9039 107.849 80.2031 104.344 71.7416C100.839 63.2801 91.138 59.262 82.6764 62.7669C74.2149 66.2719 70.1968 75.9726 73.7017 84.4342C77.2067 92.8957 86.9075 96.9138 95.369 93.4088Z" fill="#FFDEC0"/>
<path d="M100.455 66.1493C97.4525 63.2902 93.4497 61.5747 89.0181 61.5747C84.5864 61.5747 80.5837 63.2902 77.5816 66.1493H100.455Z" fill="#006941"/>
<path d="M104.243 84.5906C105.101 82.5892 105.53 80.4449 105.53 78.1576C105.53 75.227 104.815 72.5108 103.457 70.152H74.5086C73.222 72.5108 72.4357 75.227 72.4357 78.1576C72.4357 80.4449 72.9361 82.6607 73.7223 84.5906H104.243Z" fill="#FC5954"/>
<path d="M76.152 88.5219C79.1541 92.2387 83.8002 94.669 89.0181 94.669C94.236 94.669 98.882 92.2387 101.884 88.5219H76.152Z" fill="#006941"/>
<path d="M92.1628 56.7857H85.8727V61.8607H92.1628V56.7857Z" fill="#FFDEC0"/>
<path d="M89.0901 78.9438C89.998 78.9438 90.7341 78.2078 90.7341 77.2998C90.7341 76.3919 89.998 75.6558 89.0901 75.6558C88.1821 75.6558 87.4461 76.3919 87.4461 77.2998C87.4461 78.2078 88.1821 78.9438 89.0901 78.9438Z" fill="#FFDEC0"/>
<path d="M82.1559 78.9438C83.0639 78.9438 83.7999 78.2078 83.7999 77.2998C83.7999 76.3919 83.0639 75.6558 82.1559 75.6558C81.248 75.6558 80.5119 76.3919 80.5119 77.2998C80.5119 78.2078 81.248 78.9438 82.1559 78.9438Z" fill="#FFDEC0"/>
<path d="M76.7959 77.2998C76.7959 78.229 76.0811 78.9438 75.1519 78.9438C74.2226 78.9438 73.5079 78.229 73.5079 77.2998C73.5079 76.3706 74.2226 75.6558 75.1519 75.6558C76.0811 75.6558 76.7959 76.3706 76.7959 77.2998Z" fill="#FFDEC0"/>
<path d="M96.0942 78.9438C97.0021 78.9438 97.7382 78.2078 97.7382 77.2998C97.7382 76.3919 97.0021 75.6558 96.0942 75.6558C95.1862 75.6558 94.4501 76.3919 94.4501 77.2998C94.4501 78.2078 95.1862 78.9438 96.0942 78.9438Z" fill="#FFDEC0"/>
<path d="M103.028 78.9438C103.936 78.9438 104.672 78.2078 104.672 77.2998C104.672 76.3919 103.936 75.6558 103.028 75.6558C102.12 75.6558 101.384 76.3919 101.384 77.2998C101.384 78.2078 102.12 78.9438 103.028 78.9438Z" fill="#FFDEC0"/>
<path opacity="0.31" d="M97.3816 88.2359C88.2324 88.2359 80.7987 80.8022 80.7987 71.653C80.7987 68.2221 81.7994 65.0771 83.5863 62.4324C77.0818 64.6482 72.4357 70.7953 72.4357 78.0861C72.4357 87.2353 79.8695 94.669 89.0187 94.669C94.7369 94.669 99.8118 91.7384 102.742 87.3067C101.098 87.8786 99.3115 88.2359 97.3816 88.2359Z" fill="black"/>
<path d="M89.3555 56.7551L89.3555 34.7551" stroke="#F0E1D3" stroke-width="2" stroke-miterlimit="10" stroke-linecap="round"/>
</svg>
