<svg width="215" height="61" viewBox="0 0 215 61" fill="none" xmlns="http://www.w3.org/2000/svg">
<path d="M4.44025 7.78988C75.9673 40.3089 161.272 8.83456 194.348 -64" stroke="#5A915A" stroke-width="3" stroke-miterlimit="10"/>
<path d="M38.2616 -3.40032C44.483 5.10047 52.2408 13.1544 61.1754 20.2413C51.8261 27.1261 41.1536 33.0419 29.046 37.6046" stroke="#5A915A" stroke-width="3" stroke-miterlimit="10"/>
<path d="M26.6113 -0.845175C31.1499 6.16632 36.5527 12.9265 42.7639 19.2433C34.9406 23.4972 26.2898 27.0546 17.0037 29.8594" stroke="#5A915A" stroke-width="3" stroke-miterlimit="10"/>
<path d="M53.7792 -1.24814C60.9854 6.34141 69.576 13.32 79.2474 19.3595C70.9333 27.2971 61.1876 34.6096 49.9389 40.6929" stroke="#5A915A" stroke-width="3" stroke-miterlimit="10"/>
<path d="M69.2474 -1.06035C77.3144 5.54986 86.6139 11.385 96.9382 16.089C89.7553 25.0514 80.9489 33.4447 70.7511 40.9928" stroke="#5A915A" stroke-width="3" stroke-miterlimit="10"/>
<path d="M84.5688 -2.8086C93.3725 2.75418 103.257 7.3778 114.138 10.7742C108.127 20.5415 100.576 30.0277 91.4408 38.7247" stroke="#5A915A" stroke-width="3" stroke-miterlimit="10"/>
<path d="M99.524 -6.5332C108.941 -2.08596 119.382 1.23009 130.6 3.27872C125.828 13.7271 119.449 24.0181 111.569 33.8081" stroke="#5A915A" stroke-width="3" stroke-miterlimit="10"/>
<path d="M113.852 -12.0541C123.758 -8.79051 134.536 -6.82222 146.036 -6.31337C142.571 4.69197 137.555 15.7321 130.874 26.423" stroke="#5A915A" stroke-width="3" stroke-miterlimit="10"/>
<path d="M127.362 -19.3157C137.604 -17.3999 148.624 -16.7514 160.089 -17.7946C158 -6.35616 154.291 5.24099 148.974 16.6809" stroke="#5A915A" stroke-width="3" stroke-miterlimit="10"/>
<path d="M139.956 -28.2899C150.44 -27.6938 161.521 -28.6253 172.855 -31.1926C172.21 -19.4451 169.972 -7.44282 166.087 4.6222" stroke="#5A915A" stroke-width="3" stroke-miterlimit="10"/>
</svg>
