<svg width="84" height="30" viewBox="0 0 84 30" fill="none" xmlns="http://www.w3.org/2000/svg">
	<defs>
		<filter id="gaussian-blur-filter-0" data-bx-preset="gaussian-blur 1 1" color-interpolation-filters="sRGB" x="-500%" y="-500%" width="1000%" height="1000%">
			<feGaussianBlur stdDeviation="1 1" edgeMode="none">
			</feGaussianBlur>
		</filter>
	</defs>
	<path d="M70.6405 19.6071C69.1785 20.5393 67.3588 20.968 65.5653 21.2314C61.432 21.8412 57.1672 21.6809 53.1775 20.7647C51.2749 20.3273 49.4213 19.7186 47.4528 19.5284C44.9382 19.2838 42.3795 19.7336 39.8374 19.7753C34.9308 19.8569 30.2285 18.4208 25.8587 16.6824C16.0445 12.7798 7.22381 7.23614 0.0571646 0.464957C5.51846 6.73469 11.1914 13.1675 19.1948 17.1287C24.2263 19.6179 29.9422 21.0071 35.5948 22.3729C43.8951 24.3789 52.1953 26.385 60.4943 28.3909C64.429 29.3405 68.5429 30.3009 72.6309 29.6615C76.7177 29.0221 80.7285 26.2462 80.8049 22.803C80.8447 21.0084 79.8403 19.2859 80.0537 17.4943C80.2011 16.2707 80.902 15.1346 81.4724 13.9875C83.5807 9.74926 83.4328 4.33184 82.0002 -0.000219437L74.5002 9.49976C74.5002 9.49976 75.2994 16.8919 70.6405 19.6071Z" style="filter: url(&quot;#gaussian-blur-filter-0&quot;); fill: rgb(255, 250, 215);">
	</path>
</svg>
