<svg width="114" height="120" viewBox="0 0 114 120" fill="none" xmlns="http://www.w3.org/2000/svg">
<g filter="url(#filter0_dd)">
<path fill-rule="evenodd" clip-rule="evenodd" d="M69.687 26.0021C59.2432 26.1616 57.167 37.9773 57.167 37.9773C57.167 37.9773 54.7569 26.1616 44.3131 26.0021C33.8691 25.8423 27.4419 34.9435 30.9769 44.5238C34.5117 54.1038 38.0338 56.2594 43.5836 63.205C49.1332 70.1507 57.2072 82.166 57.167 85C57.1269 82.166 64.8667 70.1507 70.4165 63.205C75.9663 56.2594 79.4884 54.1038 83.0231 44.5238C86.5579 34.9435 80.131 25.8423 69.687 26.0021Z"/>
</g>
<defs>
<filter id="filter0_dd" x="-3.62396e-05" y="0.285683" width="114" height="119" filterUnits="userSpaceOnUse" color-interpolation-filters="sRGB">
<feFlood flood-opacity="0" result="BackgroundImageFix"/>
<feColorMatrix in="SourceAlpha" type="matrix" values="0 0 0 0 0 0 0 0 0 0 0 0 0 0 0 0 0 0 127 0"/>
<feOffset dx="0.857144"/>
<feGaussianBlur stdDeviation="4.28572"/>
<feColorMatrix type="matrix" values="0 0 0 0 1 0 0 0 0 1 0 0 0 0 1 0 0 0 1 0"/>
<feBlend mode="normal" in2="BackgroundImageFix" result="effect1_dropShadow"/>
<feColorMatrix in="SourceAlpha" type="matrix" values="0 0 0 0 0 0 0 0 0 0 0 0 0 0 0 0 0 0 127 0"/>
<feOffset dy="4.28572"/>
<feGaussianBlur stdDeviation="15"/>
<feColorMatrix type="matrix" values="0 0 0 0 1 0 0 0 0 1 0 0 0 0 1 0 0 0 0.7 0"/>
<feBlend mode="normal" in2="effect1_dropShadow" result="effect2_dropShadow"/>
<feBlend mode="normal" in="SourceGraphic" in2="effect2_dropShadow" result="shape"/>
</filter>
<linearGradient id="paint0_linear" x1="57" y1="26" x2="57" y2="85" gradientUnits="userSpaceOnUse">
<stop offset="0.262463" stop-color="#970000"/>
<stop offset="1" stop-color="#BF0000"/>
</linearGradient>
</defs>
</svg>
