<svg width="193" height="181" viewBox="0 0 193 181" fill="none" xmlns="http://www.w3.org/2000/svg">
  <g>
    <path fill-rule="evenodd" clip-rule="evenodd" d="M43.3208 116.929C43.3208 127.964 60.2664 136.62 81.9041 136.62C103.542 136.62 120.483 127.968 120.483 116.929V53.1015C120.483 42.0663 103.537 33.4103 81.9041 33.4103C60.2708 33.4103 43.3208 42.0663 43.3208 53.1015V116.929ZM81.8909 94.0683C96.4573 94.0683 108.874 90.1398 115.438 84.2029V95.653C115.438 102.592 101.657 110.325 81.8909 110.325C62.1247 110.325 48.344 102.592 48.344 95.653V84.2029C54.9165 90.1398 67.3245 94.0683 81.8909 94.0683ZM48.344 74.3861V62.9316C54.9165 68.8685 67.3245 72.8014 81.8909 72.8014C96.4573 72.8014 108.874 68.8685 115.438 62.9316V74.3816C115.46 81.3205 101.679 89.054 81.9041 89.054L81.8909 89.0584C62.1115 89.0584 48.344 81.325 48.344 74.3861ZM48.344 116.938V105.483C54.9165 111.42 67.3245 115.349 81.8909 115.349C96.4573 115.349 108.874 111.42 115.438 105.483V116.933C115.46 123.872 101.679 131.605 81.9041 131.605L81.8909 131.61C62.1115 131.61 48.344 123.876 48.344 116.938ZM115.438 53.1103C115.438 60.0492 101.657 67.7826 81.8909 67.7826C62.1247 67.7826 48.344 60.0492 48.344 53.1103C48.344 46.1714 62.1247 38.4335 81.9041 38.4335L81.8909 38.438C101.666 38.438 115.438 46.1714 115.438 53.1103Z" fill="#6F99EB" />
    <path d="M85.9193 166.36C67.7258 167.16 49.7858 161.865 34.9422 151.314H56.2269C56.893 151.314 57.5318 151.05 58.0028 150.579C58.4738 150.108 58.7385 149.469 58.7385 148.803C58.7385 148.137 58.4738 147.498 58.0028 147.027C57.5318 146.556 56.893 146.291 56.2269 146.291H27.6193C27.585 146.296 27.5511 146.304 27.5178 146.313C27.3481 146.328 27.1807 146.362 27.019 146.415C26.8678 146.44 26.7197 146.481 26.5776 146.538C26.4491 146.607 26.3278 146.688 26.2156 146.781C26.0552 146.873 25.9069 146.984 25.7742 147.112C25.7742 147.134 25.7169 147.148 25.6948 147.174C25.6289 147.274 25.5713 147.378 25.5226 147.487C25.4242 147.626 25.3399 147.774 25.271 147.929C25.2181 148.1 25.1826 148.276 25.1651 148.454C25.1342 148.564 25.112 148.676 25.0989 148.79V177.393C25.0847 177.731 25.1391 178.069 25.2588 178.386C25.3785 178.702 25.5611 178.992 25.7955 179.236C26.0299 179.481 26.3113 179.675 26.6229 179.808C26.9344 179.941 27.2696 180.01 27.6083 180.01C27.947 180.01 28.2822 179.941 28.5937 179.808C28.9052 179.675 29.1867 179.481 29.4211 179.236C29.6555 178.992 29.8381 178.702 29.9578 178.386C30.0775 178.069 30.1319 177.731 30.1177 177.393V153.941C45.864 165.845 65.2032 172.016 84.9343 171.431C104.665 170.847 123.606 163.543 138.62 150.727C138.876 150.515 139.087 150.254 139.241 149.96C139.395 149.665 139.489 149.343 139.518 149.012C139.547 148.681 139.51 148.348 139.409 148.031C139.308 147.714 139.145 147.421 138.93 147.168C138.714 146.914 138.451 146.706 138.155 146.556C137.859 146.405 137.535 146.315 137.204 146.29C136.873 146.265 136.539 146.306 136.224 146.411C135.909 146.516 135.617 146.682 135.367 146.9H135.38C121.519 158.712 104.113 165.561 85.9193 166.36Z" fill="#6F99EB" />
    <path d="M37.4429 28.4049C37.1101 28.9816 37.0199 29.6667 37.1921 30.3098C37.3642 30.953 37.7847 31.5014 38.361 31.8347C38.7416 32.0559 39.1744 32.1717 39.6146 32.1701C40.0555 32.171 40.4889 32.0555 40.871 31.8355C41.253 31.6154 41.5703 31.2984 41.7908 30.9165L56.0923 6.14482C56.0923 6.11834 56.0923 6.09185 56.1188 6.06537C56.2035 5.88843 56.2658 5.70159 56.3042 5.5092C56.3483 5.38412 56.3823 5.2557 56.4057 5.12517C56.4087 4.9774 56.3984 4.82967 56.3748 4.68376C56.3663 4.49915 56.3397 4.31583 56.2954 4.13642C56.2954 4.10994 56.2954 4.07904 56.2954 4.05255C56.2491 3.96416 56.1975 3.87867 56.1409 3.79654C56.0604 3.6119 55.9565 3.43833 55.8319 3.28009C55.7334 3.17785 55.6272 3.0834 55.5141 2.99759C55.4126 2.89383 55.3034 2.79792 55.1874 2.71068L30.3937 -11.5909C29.8165 -11.9239 29.1307 -12.0141 28.4871 -11.8415C27.8435 -11.6689 27.2948 -11.2477 26.9617 -10.6706C26.6287 -10.0934 26.5385 -9.40759 26.7111 -8.76398C26.8837 -8.12037 27.3049 -7.57168 27.882 -7.23862L48.1867 4.49396C16.3525 18.0937 -4.72021 49.5704 -4.72021 84.4415C-4.70304 89.6838 -4.21106 94.9137 -3.25033 100.067C-3.14329 100.645 -2.83765 101.167 -2.38628 101.544C-1.93491 101.92 -1.36618 102.127 -0.778457 102.129C-0.630456 102.128 -0.482779 102.115 -0.337051 102.089C-0.0125623 102.03 0.297204 101.908 0.574508 101.73C0.851813 101.552 1.09121 101.32 1.279 101.049C1.46678 100.778 1.59927 100.473 1.66886 100.151C1.73846 99.8284 1.74381 99.4956 1.68459 99.1712C0.779999 94.3131 0.317573 89.383 0.302989 84.4415C0.302989 52.3512 19.2217 23.3199 48.0367 10.0336L37.4429 28.4049Z" fill="#6F99EB" />
    <path d="M191.741 83.309C191.479 83.1074 191.18 82.9597 190.861 82.8743C190.542 82.789 190.21 82.7676 189.882 82.8116C189.555 82.8556 189.24 82.964 188.955 83.1305L168.597 94.8763C169.068 91.4173 169.322 87.9322 169.357 84.4415C169.357 47.8047 146.134 14.9023 111.568 2.54734C111.251 2.40211 110.907 2.32437 110.559 2.31908C110.211 2.31378 109.865 2.38104 109.544 2.51658C109.223 2.65212 108.934 2.85298 108.694 3.10637C108.455 3.35977 108.271 3.66016 108.155 3.98845C108.038 4.31675 107.991 4.66575 108.016 5.01328C108.041 5.3608 108.139 5.69925 108.302 6.00709C108.465 6.31493 108.691 6.58544 108.964 6.80141C109.238 7.01738 109.553 7.17408 109.89 7.26156C142.448 18.9059 164.333 49.9147 164.333 84.4415C164.333 86.9222 164.192 89.4382 163.936 92.0028L153.307 73.5917C152.964 73.0353 152.418 72.6345 151.784 72.4745C151.15 72.3145 150.479 72.4079 149.913 72.7349C149.347 73.0619 148.93 73.5966 148.752 74.2256C148.574 74.8546 148.649 75.5282 148.959 76.1033L163.261 100.871V100.893C163.475 101.257 163.779 101.561 164.144 101.776C164.197 101.806 164.258 101.815 164.311 101.842C164.508 101.957 164.721 102.042 164.942 102.093C165.088 102.119 165.236 102.132 165.384 102.133C165.824 102.132 166.256 102.016 166.637 101.798L191.409 87.496C191.702 87.3359 191.959 87.119 192.167 86.8582C192.375 86.5974 192.529 86.2978 192.62 85.9769C192.711 85.656 192.737 85.3202 192.696 84.9891C192.656 84.6581 192.55 84.3383 192.385 84.0486C192.221 83.7619 192.002 83.5106 191.741 83.309Z" fill="#6F99EB" />
  </g>
</svg>