<svg width="69" height="89" viewBox="0 0 69 89" fill="none" xmlns="http://www.w3.org/2000/svg">
  <path d="M0 44.5C0 54.1686 7.8311 62 17.5 62C27.1689 62 35 54.1686 35 44.5C35 34.8311 27.1689 27 17.5 27C7.8311 27 0 34.8311 0 44.5Z" fill="#FFEA80" />
  <path d="M17 62V27C26.9452 27 35 34.8311 35 44.5C35 54.1686 26.9452 62 17 62Z" fill="#FFD24D" />
  <path d="M40 73.5C40 81.4957 46.5043 88 54.5 88C62.4957 88 69 81.4957 69 73.5C69 65.5043 62.4957 59 54.5 59C46.5043 59 40 65.5043 40 73.5Z" fill="#FFEA80" />
  <path d="M54 88V59C62.2714 59 69 65.5043 69 73.5C69 81.4957 62.2714 88 54 88Z" fill="#FFD24D" />
  <path d="M9 44C9 48.9499 12.8251 53 17.5 53C22.1749 53 26 48.9499 26 44C26 39.0498 22.1749 35 17.5 35C12.8251 35 9 39.0498 9 44Z" fill="#FFD24D" />
  <path d="M48 73.5C48 77.0965 50.9032 80 54.5 80C58.0968 80 61 77.0965 61 73.5C61 69.9032 58.0968 67 54.5 67C50.9032 67 48 69.9032 48 73.5Z" fill="#FFD24D" />
  <path d="M14.5625 15.0391V2.92969C14.5625 1.31035 13.2521 0 11.6328 0C10.0135 0 8.70312 1.31035 8.70312 2.92969V15.0391C8.70312 16.6584 10.0135 17.9688 11.6328 17.9688C13.2521 17.9688 14.5625 16.6584 14.5625 15.0391Z" fill="#9F8DD0" />
  <path d="M26.2812 15.0391V2.92969C26.2812 1.31035 24.9709 0 23.3516 0C21.7322 0 20.4219 1.31035 20.4219 2.92969V15.0391C20.4219 16.6584 21.7322 17.9688 23.3516 17.9688C24.9709 17.9688 26.2812 16.6584 26.2812 15.0391Z" fill="#8E7CBF" />
  <path d="M51.5078 50.1953V38.4766C51.5078 36.8572 50.1975 35.5469 48.5781 35.5469C46.9588 35.5469 45.6484 36.8572 45.6484 38.4766V50.1953C45.6484 51.8146 46.9588 53.125 48.5781 53.125C50.1975 53.125 51.5078 51.8146 51.5078 50.1953Z" fill="#9F8DD0" />
  <path d="M57.3672 38.4766V50.1953C57.3672 51.8146 58.6775 53.125 60.2969 53.125C61.9162 53.125 63.2266 51.8146 63.2266 50.1953V38.4766C63.2266 36.8572 61.9162 35.5469 60.2969 35.5469C58.6775 35.5469 57.3672 36.8572 57.3672 38.4766Z" fill="#8E7CBF" />
  <path d="M60.2969 23.8281H57.3672V26.7578C57.3672 28.3982 56.0783 29.6875 54.4375 29.6875C52.7967 29.6875 51.5078 28.3982 51.5078 26.7578V23.8281H48.5781C46.9373 23.8281 45.6484 22.5389 45.6484 20.8984C45.6484 19.2576 46.9373 17.9688 48.5781 17.9688H51.5078V15.0391C51.5078 13.3982 52.7967 12.1094 54.4375 12.1094C56.0783 12.1094 57.3672 13.3982 57.3672 15.0391V17.9688H60.2969C61.9377 17.9688 63.2266 19.2576 63.2266 20.8984C63.2266 22.5389 61.9377 23.8281 60.2969 23.8281Z" fill="#EEF0F5" />
  <path d="M23.3516 82.2812H20.4219V85.2109C20.4219 86.8514 19.133 88.1406 17.4922 88.1406C15.8514 88.1406 14.5625 86.8514 14.5625 85.2109V82.2812H11.6328C9.99199 82.2812 8.70312 80.992 8.70312 79.3516C8.70312 77.7107 9.99199 76.4219 11.6328 76.4219H14.5625V73.4922C14.5625 71.8514 15.8514 70.5625 17.4922 70.5625C19.133 70.5625 20.4219 71.8514 20.4219 73.4922V76.4219H23.3516C24.9924 76.4219 26.2812 77.7107 26.2812 79.3516C26.2812 80.992 24.9924 82.2812 23.3516 82.2812Z" fill="#EEF0F5" />
  <path d="M54.4375 12.1094C56.0783 12.1094 57.3672 13.3982 57.3672 15.0391V17.9688H60.2969C61.9377 17.9688 63.2266 19.2576 63.2266 20.8984C63.2266 22.5389 61.9377 23.8281 60.2969 23.8281H57.3672V26.7578C57.3672 28.3982 56.0783 29.6875 54.4375 29.6875V12.1094Z" fill="#DAE1EA" />
  <path d="M54 80V67C57.8735 67 61 69.9032 61 73.5C61 77.0965 57.8735 80 54 80Z" fill="#FFAA33" />
  <path d="M23.3516 82.2812H20.4219V85.2109C20.4219 86.8514 19.133 88.1406 17.4922 88.1406V70.5625C19.133 70.5625 20.4219 71.8514 20.4219 73.4922V76.4219H23.3516C24.9924 76.4219 26.2812 77.7107 26.2812 79.3516C26.2812 80.992 24.9924 82.2812 23.3516 82.2812Z" fill="#DAE1EA" />
  <path d="M17 53V35C21.9499 35 26 39.0498 26 44C26 48.9499 21.9499 53 17 53Z" fill="#FFAA33" />
</svg>