<?xml version="1.0" encoding="UTF-8"?>
<svg width="445px" height="421px" viewBox="0 0 445 421" version="1.1" xmlns="http://www.w3.org/2000/svg" xmlns:xlink="http://www.w3.org/1999/xlink">
    <!-- Generator: Sketch 54.1 (76490) - https://sketchapp.com -->
    <title>coins-diamond</title>
    <desc>Created with Sketch.</desc>
    <defs>
        <filter x="-52.4%" y="-56.8%" width="204.7%" height="213.9%" filterUnits="objectBoundingBox" id="filter-1">
            <feOffset dx="0" dy="5" in="SourceAlpha" result="shadowOffsetOuter1"></feOffset>
            <feGaussianBlur stdDeviation="38" in="shadowOffsetOuter1" result="shadowBlurOuter1"></feGaussianBlur>
            <feColorMatrix values="0 0 0 0 0.996078432   0 0 0 0 0.996078432   0 0 0 0 0.980392158  0 0 0 0.25 0" type="matrix" in="shadowBlurOuter1" result="shadowMatrixOuter1"></feColorMatrix>
            <feMerge>
                <feMergeNode in="shadowMatrixOuter1"></feMergeNode>
                <feMergeNode in="SourceGraphic"></feMergeNode>
            </feMerge>
        </filter>
        <linearGradient x1="3131%" y1="3054%" x2="3132%" y2="3054%" id="linearGradient-2">
            <stop stop-color="#FFBB96" offset="0%"></stop>
            <stop stop-color="#FFFBC9" offset="23.0000004%"></stop>
            <stop stop-color="#F9B673" offset="54.0000021%"></stop>
            <stop stop-color="#F9B876" offset="63.9999986%"></stop>
            <stop stop-color="#FABE81" offset="72.0000029%"></stop>
            <stop stop-color="#FCC993" offset="81.0000002%"></stop>
            <stop stop-color="#FED2A3" offset="86.0000014%"></stop>
            <stop stop-color="#FFC28C" offset="97.0000029%"></stop>
        </linearGradient>
        <linearGradient x1="0%" y1="0%" x2="0%" y2="0%" id="linearGradient-3">
            <stop stop-color="#FFBB96" offset="0%"></stop>
            <stop stop-color="#FFFBC9" offset="23.0000004%"></stop>
            <stop stop-color="#F9B673" offset="54.0000021%"></stop>
            <stop stop-color="#F9B876" offset="63.9999986%"></stop>
            <stop stop-color="#FABE81" offset="72.0000029%"></stop>
            <stop stop-color="#FCC993" offset="81.0000002%"></stop>
            <stop stop-color="#FED2A3" offset="86.0000014%"></stop>
            <stop stop-color="#FFC28C" offset="97.0000029%"></stop>
        </linearGradient>
        <linearGradient x1="23.8081175%" y1="34.8096441%" x2="72.6774169%" y2="66.3862494%" id="linearGradient-4">
            <stop stop-color="#E5B872" offset="0%"></stop>
            <stop stop-color="#ECCEA0" offset="100%"></stop>
        </linearGradient>
        <linearGradient x1="13.470384%" y1="37.8349476%" x2="96.4855403%" y2="53.7177904%" id="linearGradient-5">
            <stop stop-color="#F7E6B3" stop-opacity="0" offset="54.8949838%"></stop>
            <stop stop-color="#F7E6B3" offset="100%"></stop>
        </linearGradient>
        <path d="M79.8046979,96.3376236 C35.7297812,96.3376236 0,74.7717206 0,48.1688219 C0,21.5659232 35.7297812,0 79.8046979,0 C123.879615,0 159.609406,21.5659232 159.609406,48.1688219 C159.609406,74.7717206 123.879615,96.3376236 79.8046979,96.3376236 Z" id="path-6"></path>
        <radialGradient cx="2484.99998%" cy="4279.00003%" fx="2484.99998%" fy="4279.00003%" r="6298.00426%" gradientTransform="translate(24.850000,42.790000),scale(0.312480,1.000000),translate(-24.850000,-42.790000)" id="radialGradient-7">
            <stop stop-color="#FFFFFF" offset="0%"></stop>
            <stop stop-color="#000000" offset="100%"></stop>
        </radialGradient>
        <linearGradient x1="18.3329557%" y1="36.5005951%" x2="85.3911674%" y2="63.5816267%" id="linearGradient-8">
            <stop stop-color="#F8F8F9" stop-opacity="0.460000008" offset="0%"></stop>
            <stop stop-color="#F8F8F9" offset="57.5358272%"></stop>
            <stop stop-color="#FFFFFF" offset="78.3289015%"></stop>
            <stop stop-color="#FFFFFF" stop-opacity="0.189999998" offset="88.480854%"></stop>
        </linearGradient>
        <path d="M79.8040531,84.1898651 C46.8833459,84.1898651 20.1289062,68.02789 20.1289062,48.1687291 C20.1289062,28.3095682 46.8323863,12.147583 79.8040531,12.147583 C112.77572,12.147583 139.428238,28.2567514 139.428238,48.1687291 C139.428238,68.02789 112.72476,84.1898651 79.8040531,84.1898651 Z" id="path-9"></path>
        <radialGradient cx="3708.99993%" cy="2861.00003%" fx="3708.99993%" fy="2861.00003%" r="2720.53633%" gradientTransform="translate(37.089999,28.610000),scale(0.318320,1.000000),translate(-37.089999,-28.610000)" id="radialGradient-10">
            <stop stop-color="#FFFFFF" offset="0%"></stop>
            <stop stop-color="#000000" offset="100%"></stop>
        </radialGradient>
        <path d="M79.8046979,96.3376236 C35.7297812,96.3376236 0,74.7717206 0,48.1688219 C0,21.5659232 35.7297812,0 79.8046979,0 C123.879615,0 159.609406,21.5659232 159.609406,48.1688219 C159.609406,74.7717206 123.879615,96.3376236 79.8046979,96.3376236 Z" id="path-11"></path>
        <path d="M79.8040531,84.1898651 C46.8833459,84.1898651 20.1289062,68.02789 20.1289062,48.1687291 C20.1289062,28.3095682 46.8323863,12.147583 79.8040531,12.147583 C112.77572,12.147583 139.428238,28.2567514 139.428238,48.1687291 C139.428238,68.02789 112.72476,84.1898651 79.8040531,84.1898651 Z" id="path-12"></path>
        <linearGradient x1="23.8081175%" y1="34.8096441%" x2="72.6774169%" y2="66.3862494%" id="linearGradient-13">
            <stop stop-color="#E5B872" offset="0%"></stop>
            <stop stop-color="#ECCEA0" offset="57.8125%"></stop>
        </linearGradient>
        <path d="M79.8046979,96.3376236 C35.7297812,96.3376236 0,74.7717206 0,48.1688219 C0,21.5659232 35.7297812,0 79.8046979,0 C123.879615,0 159.609406,21.5659232 159.609406,48.1688219 C159.609406,74.7717206 123.879615,96.3376236 79.8046979,96.3376236 Z" id="path-14"></path>
        <path d="M79.8040531,84.1898651 C46.8833459,84.1898651 20.1289062,68.02789 20.1289062,48.1687291 C20.1289062,28.3095682 46.8323863,12.147583 79.8040531,12.147583 C112.77572,12.147583 139.428238,28.2567514 139.428238,48.1687291 C139.428238,68.02789 112.72476,84.1898651 79.8040531,84.1898651 Z" id="path-15"></path>
        <linearGradient x1="55.3646%" y1="39.0563038%" x2="60.946326%" y2="61.4850422%" id="linearGradient-16">
            <stop stop-color="#F8D298" offset="0%"></stop>
            <stop stop-color="#ECCEA0" offset="100%"></stop>
        </linearGradient>
        <path d="M79.8046979,96.3376236 C35.7297812,96.3376236 0,74.7717206 0,48.1688219 C0,21.5659232 35.7297812,0 79.8046979,0 C123.879615,0 159.609406,21.5659232 159.609406,48.1688219 C159.609406,74.7717206 123.879615,96.3376236 79.8046979,96.3376236 Z" id="path-17"></path>
        <path d="M79.8040531,84.1898651 C46.8833459,84.1898651 20.1289062,68.02789 20.1289062,48.1687291 C20.1289062,28.3095682 46.8323863,12.147583 79.8040531,12.147583 C112.77572,12.147583 139.428238,28.2567514 139.428238,48.1687291 C139.428238,68.02789 112.72476,84.1898651 79.8040531,84.1898651 Z" id="path-18"></path>
        <path d="M79.8046979,96.3376236 C35.7297812,96.3376236 0,74.7717206 0,48.1688219 C0,21.5659232 35.7297812,0 79.8046979,0 C123.879615,0 159.609406,21.5659232 159.609406,48.1688219 C159.609406,74.7717206 123.879615,96.3376236 79.8046979,96.3376236 Z" id="path-19"></path>
        <path d="M79.8040531,84.1898651 C46.8833459,84.1898651 20.1289062,68.02789 20.1289062,48.1687291 C20.1289062,28.3095682 46.8323863,12.147583 79.8040531,12.147583 C112.77572,12.147583 139.428238,28.2567514 139.428238,48.1687291 C139.428238,68.02789 112.72476,84.1898651 79.8040531,84.1898651 Z" id="path-20"></path>
        <path d="M79.8046979,96.3376236 C35.7297812,96.3376236 0,74.7717206 0,48.1688219 C0,21.5659232 35.7297812,0 79.8046979,0 C123.879615,0 159.609406,21.5659232 159.609406,48.1688219 C159.609406,74.7717206 123.879615,96.3376236 79.8046979,96.3376236 Z" id="path-21"></path>
        <path d="M79.8040531,84.1898651 C46.8833459,84.1898651 20.1289062,68.02789 20.1289062,48.1687291 C20.1289062,28.3095682 46.8323863,12.147583 79.8040531,12.147583 C112.77572,12.147583 139.428238,28.2567514 139.428238,48.1687291 C139.428238,68.02789 112.72476,84.1898651 79.8040531,84.1898651 Z" id="path-22"></path>
    </defs>
    <g id="Page-1" stroke="none" stroke-width="1" fill="none" fill-rule="evenodd">
        <g id="Frame-624658" transform="translate(-4069.000000, -859.000000)">
            <g id="Group-624644" transform="translate(4032.000000, 135.000000)">
                <g id="coins-diamond" filter="url(#filter-1)" transform="translate(110.000000, 792.343140)">
                    <g id="Group-624619" transform="translate(33.000000, 0.000000)">
                        <g id="Group-624616" transform="translate(0.000000, 54.000000)">
                            <g id="Group" opacity="0.150000006" transform="translate(78.458008, 18.538574)" fill="url(#linearGradient-2)" fill-rule="nonzero">
                                <path d="M0.024479093,0 C-0.0305988637,0.266064287 0.024479093,0.478921397 0.024479093,0.691772819 L0.024479093,0 Z" id="Vector"></path>
                            </g>
                            <path d="M0,47.7463379 L0,71.0386774 L0,71.7253053 C0,98.1338543 35.6726239,119.894493 79.804755,119.894493 C123.936886,119.894493 159.558548,98.3451225 159.558548,71.7253053 L159.558548,71.0386774 L159.558548,47.7463379 L0,47.7463379 Z" id="Vector" fill="#FCEDD1" fill-rule="nonzero"></path>
                            <g id="Group" style="mix-blend-mode: multiply;" transform="translate(0.000000, 66.707397)" fill-rule="nonzero">
                                <path d="M0,0 L0,4.43664729 L0,5.12327679 C0,31.5318868 35.6726239,53.2925758 79.804755,53.2925758 C123.936886,53.2925758 159.558548,31.7431555 159.558548,5.12327679 L159.558548,4.43664729 L159.558548,0 C159.558548,26.5670628 123.834967,48.1164907 79.804755,48.1164907 C35.723586,48.1164907 0,26.5670628 0,0 Z" id="Vector" fill-opacity="0.699999988" fill="#E5B872" style="mix-blend-mode: multiply;"></path>
                                <path d="M159.560059,1.47961426 L159.560059,2.17138708 L159.560059,1.47961426 Z" id="Vector" fill="url(#linearGradient-3)" style="mix-blend-mode: multiply;"></path>
                            </g>
                            <g id="Group" style="mix-blend-mode: multiply;" transform="translate(3.975098, 55.669067)" fill="#D4AE73" fill-opacity="0.5" fill-rule="nonzero">
                                <path d="M102.474155,61.5342225 L102.474155,0.372802734 L100.231934,0.372802734 L100.231934,62.0095711 L102.474155,61.5342225 Z" id="Vector" style="mix-blend-mode: multiply;"></path>
                                <path d="M112.524039,58.8931805 L112.524039,0.372802734 L110.281738,0.372802734 L110.281738,59.5797768 L112.524039,58.8931805 Z" id="Vector" style="mix-blend-mode: multiply;"></path>
                                <path d="M122.563022,55.1434623 L122.563022,0.372802734 L120.320801,0.372802734 L120.320801,56.1469879 L122.563022,55.1434623 Z" id="Vector" style="mix-blend-mode: multiply;"></path>
                                <path d="M92.4352515,63.4881706 L92.4352515,0.372802734 L90.1928711,0.372802734 L90.1928711,63.4881706 L92.4352515,63.4881706 Z" id="Vector" style="mix-blend-mode: multiply;"></path>
                                <path d="M142.591422,42.4626694 L142.591422,0.209228516 L140.349121,0.209228516 L140.349121,44.4168854 C141.113544,43.7830838 141.87796,43.1492878 142.591422,42.4626694 Z" id="Vector" style="mix-blend-mode: multiply;"></path>
                                <path d="M152.630484,29.1044395 L152.630484,0.372802734 L150.388184,0.372802734 L150.388184,33.2240639 C151.203561,31.8508604 151.96799,30.477643 152.630484,29.1044395 Z" id="Vector" style="mix-blend-mode: multiply;"></path>
                                <path d="M132.552439,50.0201434 L132.552439,0.372802734 L130.310059,0.372802734 L130.310059,51.2877235 L132.552439,50.0201434 Z" id="Vector" style="mix-blend-mode: multiply;"></path>
                                <path d="M82.4560885,64.1751785 L82.4560885,0.372802734 L80.2138672,0.372802734 L80.2138672,64.1751785 L82.4560885,64.1751785 Z" id="Vector" style="mix-blend-mode: multiply;"></path>
                                <path d="M72.4166172,64.1751785 L72.4166172,0.372802734 L70.1743164,0.372802734 L70.1743164,64.1751785 L72.4166172,64.1751785 Z" id="Vector" style="mix-blend-mode: multiply;"></path>
                                <path d="M52.3888648,62.2209778 L52.3888648,0.372802734 L50.1464844,0.372802734 L50.1464844,61.745628 L52.3888648,62.2209778 Z" id="Vector" style="mix-blend-mode: multiply;"></path>
                                <path d="M62.3775547,63.3801842 L62.3775547,0 L60.1352539,0 L60.1352539,63.3801842 L62.3775547,63.3801842 Z" id="Vector" style="mix-blend-mode: multiply;"></path>
                                <path d="M42.3492343,59.8439636 L42.3492343,0.372802734 L40.1069336,0.372802734 L40.1069336,59.2101536 L42.3492343,59.8439636 Z" id="Vector" style="mix-blend-mode: multiply;"></path>
                                <path d="M2.24230075,34.861618 L2.24230075,0.372802734 L0,0.372802734 L0,31.164517 C0.661920808,32.4504236 1.41124005,33.6858967 2.24230075,34.861618 Z" id="Vector" style="mix-blend-mode: multiply;"></path>
                                <path d="M12.2817721,45.2137375 L12.2817721,0.372802734 L10.0395508,0.372802734 L10.0395508,43.417987 C10.752984,44.051781 11.5173794,44.6327597 12.2817721,45.2137375 Z" id="Vector" style="mix-blend-mode: multiply;"></path>
                                <path d="M32.2999179,56.358078 L32.2999179,0.372802734 L30.0576172,0.372802734 L30.0576172,55.4602105 L32.2999179,56.358078 Z" id="Vector" style="mix-blend-mode: multiply;"></path>
                                <path d="M22.2705417,51.815773 L22.2705417,0.372802734 L20.0283203,0.372802734 L20.0283203,50.6010032 L22.2705417,51.815773 Z" id="Vector" style="mix-blend-mode: multiply;"></path>
                            </g>
                            <g id="Vector">
                                <use fill="url(#linearGradient-4)" xlink:href="#path-6"></use>
                                <use fill="url(#linearGradient-5)" xlink:href="#path-6"></use>
                            </g>
                            <path d="M0.100585938,48.8031006 C0.100585938,49.3840827 0.100585938,49.9122467 0.100585938,50.4932288 C0.100585938,76.9015069 35.7731955,98.6619225 79.9053028,98.6619225 C124.03741,98.6619225 159.659058,77.1127729 159.659058,50.4932288 C159.659058,49.9122467 159.659058,49.3840827 159.659058,48.8031006 C157.977349,74.1550486 122.712426,95.2816661 79.8033787,95.2816661 C36.6395257,95.2816661 1.57845095,74.6303959 0.100585938,48.8031006 Z" id="Vector" fill="url(#radialGradient-7)" fill-rule="nonzero" style="mix-blend-mode: screen;"></path>
                            <g id="Vector" fill-rule="nonzero">
                                <use fill="#F9F9FA" xlink:href="#path-9"></use>
                                <use fill="url(#linearGradient-8)" xlink:href="#path-9"></use>
                            </g>
                            <path d="M141.416595,48.0632286 C141.416595,47.3766092 141.416595,46.7427921 141.416595,46.1089896 C141.416595,26.1970268 114.713101,10.0878906 81.7923725,10.0878906 C48.8716443,10.0878906 22.1171875,26.1970268 22.1171875,46.1089896 C22.1171875,46.7427921 22.1171875,47.3766092 22.1171875,48.0632286 C23.9517792,29.0491531 49.8908658,13.9435203 81.9452586,13.9435203 C113.795808,13.9435203 139.734886,29.0491531 141.416595,48.0632286 Z" id="Vector" fill="url(#radialGradient-10)" fill-rule="nonzero" style="mix-blend-mode: screen;"></path>
                            <path d="M139.276947,50.1760941 C139.276947,49.4894688 139.276947,48.8556664 139.276947,48.2218584 C139.276947,28.3097243 112.573445,12.2004395 79.6527192,12.2004395 C46.7319937,12.2004395 19.9775391,28.3097243 19.9775391,48.2218584 C19.9775391,48.8556664 19.9775391,49.4894688 19.9775391,50.1760941 C21.9650131,31.1090377 47.9040963,16.0561023 79.8056053,16.0561023 C111.656152,16.0561023 137.595238,31.161855 139.276947,50.1760941 Z" id="Vector" fill-opacity="0.800000012" fill="#BF935C" fill-rule="nonzero" style="mix-blend-mode: multiply;"></path>
                        </g>
                        <g id="Group-624617" transform="translate(0.000000, 27.000000)">
                            <g id="Group" opacity="0.150000006" transform="translate(78.458008, 18.538574)" fill="url(#linearGradient-2)" fill-rule="nonzero">
                                <path d="M0.024479093,0 C-0.0305988637,0.266064287 0.024479093,0.478921397 0.024479093,0.691772819 L0.024479093,0 Z" id="Vector"></path>
                            </g>
                            <path d="M0,47.7463379 L0,71.0386774 L0,71.7253053 C0,98.1338543 35.6726239,119.894493 79.804755,119.894493 C123.936886,119.894493 159.558548,98.3451225 159.558548,71.7253053 L159.558548,71.0386774 L159.558548,47.7463379 L0,47.7463379 Z" id="Vector" fill="#FCEDD1" fill-rule="nonzero"></path>
                            <g id="Group" style="mix-blend-mode: multiply;" transform="translate(0.000000, 66.707397)" fill-rule="nonzero">
                                <path d="M0,0 L0,4.43664729 L0,5.12327679 C0,31.5318868 35.6726239,53.2925758 79.804755,53.2925758 C123.936886,53.2925758 159.558548,31.7431555 159.558548,5.12327679 L159.558548,4.43664729 L159.558548,0 C159.558548,26.5670628 123.834967,48.1164907 79.804755,48.1164907 C35.723586,48.1164907 0,26.5670628 0,0 Z" id="Vector" fill-opacity="0.699999988" fill="#E5B872" style="mix-blend-mode: multiply;"></path>
                                <path d="M159.560059,1.47961426 L159.560059,2.17138708 L159.560059,1.47961426 Z" id="Vector" fill="url(#linearGradient-3)" style="mix-blend-mode: multiply;"></path>
                            </g>
                            <g id="Group" style="mix-blend-mode: multiply;" transform="translate(3.975098, 55.669067)" fill="#D4AE73" fill-opacity="0.5" fill-rule="nonzero">
                                <path d="M102.474155,61.5342225 L102.474155,0.372802734 L100.231934,0.372802734 L100.231934,62.0095711 L102.474155,61.5342225 Z" id="Vector" style="mix-blend-mode: multiply;"></path>
                                <path d="M112.524039,58.8931805 L112.524039,0.372802734 L110.281738,0.372802734 L110.281738,59.5797768 L112.524039,58.8931805 Z" id="Vector" style="mix-blend-mode: multiply;"></path>
                                <path d="M122.563022,55.1434623 L122.563022,0.372802734 L120.320801,0.372802734 L120.320801,56.1469879 L122.563022,55.1434623 Z" id="Vector" style="mix-blend-mode: multiply;"></path>
                                <path d="M92.4352515,63.4881706 L92.4352515,0.372802734 L90.1928711,0.372802734 L90.1928711,63.4881706 L92.4352515,63.4881706 Z" id="Vector" style="mix-blend-mode: multiply;"></path>
                                <path d="M142.591422,42.4626694 L142.591422,0.209228516 L140.349121,0.209228516 L140.349121,44.4168854 C141.113544,43.7830838 141.87796,43.1492878 142.591422,42.4626694 Z" id="Vector" style="mix-blend-mode: multiply;"></path>
                                <path d="M152.630484,29.1044395 L152.630484,0.372802734 L150.388184,0.372802734 L150.388184,33.2240639 C151.203561,31.8508604 151.96799,30.477643 152.630484,29.1044395 Z" id="Vector" style="mix-blend-mode: multiply;"></path>
                                <path d="M132.552439,50.0201434 L132.552439,0.372802734 L130.310059,0.372802734 L130.310059,51.2877235 L132.552439,50.0201434 Z" id="Vector" style="mix-blend-mode: multiply;"></path>
                                <path d="M82.4560885,64.1751785 L82.4560885,0.372802734 L80.2138672,0.372802734 L80.2138672,64.1751785 L82.4560885,64.1751785 Z" id="Vector" style="mix-blend-mode: multiply;"></path>
                                <path d="M72.4166172,64.1751785 L72.4166172,0.372802734 L70.1743164,0.372802734 L70.1743164,64.1751785 L72.4166172,64.1751785 Z" id="Vector" style="mix-blend-mode: multiply;"></path>
                                <path d="M52.3888648,62.2209778 L52.3888648,0.372802734 L50.1464844,0.372802734 L50.1464844,61.745628 L52.3888648,62.2209778 Z" id="Vector" style="mix-blend-mode: multiply;"></path>
                                <path d="M62.3775547,63.3801842 L62.3775547,0 L60.1352539,0 L60.1352539,63.3801842 L62.3775547,63.3801842 Z" id="Vector" style="mix-blend-mode: multiply;"></path>
                                <path d="M42.3492343,59.8439636 L42.3492343,0.372802734 L40.1069336,0.372802734 L40.1069336,59.2101536 L42.3492343,59.8439636 Z" id="Vector" style="mix-blend-mode: multiply;"></path>
                                <path d="M2.24230075,34.861618 L2.24230075,0.372802734 L0,0.372802734 L0,31.164517 C0.661920808,32.4504236 1.41124005,33.6858967 2.24230075,34.861618 Z" id="Vector" style="mix-blend-mode: multiply;"></path>
                                <path d="M12.2817721,45.2137375 L12.2817721,0.372802734 L10.0395508,0.372802734 L10.0395508,43.417987 C10.752984,44.051781 11.5173794,44.6327597 12.2817721,45.2137375 Z" id="Vector" style="mix-blend-mode: multiply;"></path>
                                <path d="M32.2999179,56.358078 L32.2999179,0.372802734 L30.0576172,0.372802734 L30.0576172,55.4602105 L32.2999179,56.358078 Z" id="Vector" style="mix-blend-mode: multiply;"></path>
                                <path d="M22.2705417,51.815773 L22.2705417,0.372802734 L20.0283203,0.372802734 L20.0283203,50.6010032 L22.2705417,51.815773 Z" id="Vector" style="mix-blend-mode: multiply;"></path>
                            </g>
                            <g id="Vector">
                                <use fill="url(#linearGradient-4)" xlink:href="#path-11"></use>
                                <use fill="url(#linearGradient-5)" xlink:href="#path-11"></use>
                            </g>
                            <path d="M0.100585938,48.8031006 C0.100585938,49.3840827 0.100585938,49.9122467 0.100585938,50.4932288 C0.100585938,76.9015069 35.7731955,98.6619225 79.9053028,98.6619225 C124.03741,98.6619225 159.659058,77.1127729 159.659058,50.4932288 C159.659058,49.9122467 159.659058,49.3840827 159.659058,48.8031006 C157.977349,74.1550486 122.712426,95.2816661 79.8033787,95.2816661 C36.6395257,95.2816661 1.57845095,74.6303959 0.100585938,48.8031006 Z" id="Vector" fill="url(#radialGradient-7)" fill-rule="nonzero" style="mix-blend-mode: screen;"></path>
                            <g id="Vector" fill-rule="nonzero">
                                <use fill="#F9F9FA" xlink:href="#path-12"></use>
                                <use fill="url(#linearGradient-8)" xlink:href="#path-12"></use>
                            </g>
                            <path d="M141.416595,48.0632286 C141.416595,47.3766092 141.416595,46.7427921 141.416595,46.1089896 C141.416595,26.1970268 114.713101,10.0878906 81.7923725,10.0878906 C48.8716443,10.0878906 22.1171875,26.1970268 22.1171875,46.1089896 C22.1171875,46.7427921 22.1171875,47.3766092 22.1171875,48.0632286 C23.9517792,29.0491531 49.8908658,13.9435203 81.9452586,13.9435203 C113.795808,13.9435203 139.734886,29.0491531 141.416595,48.0632286 Z" id="Vector" fill="url(#radialGradient-10)" fill-rule="nonzero" style="mix-blend-mode: screen;"></path>
                            <path d="M139.276947,50.1760941 C139.276947,49.4894688 139.276947,48.8556664 139.276947,48.2218584 C139.276947,28.3097243 112.573445,12.2004395 79.6527192,12.2004395 C46.7319937,12.2004395 19.9775391,28.3097243 19.9775391,48.2218584 C19.9775391,48.8556664 19.9775391,49.4894688 19.9775391,50.1760941 C21.9650131,31.1090377 47.9040963,16.0561023 79.8056053,16.0561023 C111.656152,16.0561023 137.595238,31.161855 139.276947,50.1760941 Z" id="Vector" fill-opacity="0.800000012" fill="#BF935C" fill-rule="nonzero" style="mix-blend-mode: multiply;"></path>
                        </g>
                        <g id="Group-624618">
                            <g id="Group-624600">
                                <g id="Group" opacity="0.150000006" transform="translate(78.458008, 18.538574)" fill="url(#linearGradient-2)" fill-rule="nonzero">
                                    <path d="M0.024479093,0 C-0.0305988637,0.266064287 0.024479093,0.478921397 0.024479093,0.691772819 L0.024479093,0 Z" id="Vector"></path>
                                </g>
                                <path d="M0,47.7463379 L0,71.0386774 L0,71.7253053 C0,98.1338543 35.6726239,119.894493 79.804755,119.894493 C123.936886,119.894493 159.558548,98.3451225 159.558548,71.7253053 L159.558548,71.0386774 L159.558548,47.7463379 L0,47.7463379 Z" id="Vector" fill="#FCEDD1" fill-rule="nonzero"></path>
                                <g id="Group" style="mix-blend-mode: multiply;" transform="translate(0.000000, 66.707397)" fill-rule="nonzero">
                                    <path d="M0,0 L0,4.43664729 L0,5.12327679 C0,31.5318868 35.6726239,53.2925758 79.804755,53.2925758 C123.936886,53.2925758 159.558548,31.7431555 159.558548,5.12327679 L159.558548,4.43664729 L159.558548,0 C159.558548,26.5670628 123.834967,48.1164907 79.804755,48.1164907 C35.723586,48.1164907 0,26.5670628 0,0 Z" id="Vector" fill-opacity="0.699999988" fill="#E5B872" style="mix-blend-mode: multiply;"></path>
                                    <path d="M159.560059,1.47961426 L159.560059,2.17138708 L159.560059,1.47961426 Z" id="Vector" fill="url(#linearGradient-3)" style="mix-blend-mode: multiply;"></path>
                                </g>
                                <g id="Group" style="mix-blend-mode: multiply;" transform="translate(3.975098, 55.669067)" fill="#D4AE73" fill-opacity="0.5" fill-rule="nonzero">
                                    <path d="M102.474155,61.5342225 L102.474155,0.372802734 L100.231934,0.372802734 L100.231934,62.0095711 L102.474155,61.5342225 Z" id="Vector" style="mix-blend-mode: multiply;"></path>
                                    <path d="M112.524039,58.8931805 L112.524039,0.372802734 L110.281738,0.372802734 L110.281738,59.5797768 L112.524039,58.8931805 Z" id="Vector" style="mix-blend-mode: multiply;"></path>
                                    <path d="M122.563022,55.1434623 L122.563022,0.372802734 L120.320801,0.372802734 L120.320801,56.1469879 L122.563022,55.1434623 Z" id="Vector" style="mix-blend-mode: multiply;"></path>
                                    <path d="M92.4352515,63.4881706 L92.4352515,0.372802734 L90.1928711,0.372802734 L90.1928711,63.4881706 L92.4352515,63.4881706 Z" id="Vector" style="mix-blend-mode: multiply;"></path>
                                    <path d="M142.591422,42.4626694 L142.591422,0.209228516 L140.349121,0.209228516 L140.349121,44.4168854 C141.113544,43.7830838 141.87796,43.1492878 142.591422,42.4626694 Z" id="Vector" style="mix-blend-mode: multiply;"></path>
                                    <path d="M152.630484,29.1044395 L152.630484,0.372802734 L150.388184,0.372802734 L150.388184,33.2240639 C151.203561,31.8508604 151.96799,30.477643 152.630484,29.1044395 Z" id="Vector" style="mix-blend-mode: multiply;"></path>
                                    <path d="M132.552439,50.0201434 L132.552439,0.372802734 L130.310059,0.372802734 L130.310059,51.2877235 L132.552439,50.0201434 Z" id="Vector" style="mix-blend-mode: multiply;"></path>
                                    <path d="M82.4560885,64.1751785 L82.4560885,0.372802734 L80.2138672,0.372802734 L80.2138672,64.1751785 L82.4560885,64.1751785 Z" id="Vector" style="mix-blend-mode: multiply;"></path>
                                    <path d="M72.4166172,64.1751785 L72.4166172,0.372802734 L70.1743164,0.372802734 L70.1743164,64.1751785 L72.4166172,64.1751785 Z" id="Vector" style="mix-blend-mode: multiply;"></path>
                                    <path d="M52.3888648,62.2209778 L52.3888648,0.372802734 L50.1464844,0.372802734 L50.1464844,61.745628 L52.3888648,62.2209778 Z" id="Vector" style="mix-blend-mode: multiply;"></path>
                                    <path d="M62.3775547,63.3801842 L62.3775547,0 L60.1352539,0 L60.1352539,63.3801842 L62.3775547,63.3801842 Z" id="Vector" style="mix-blend-mode: multiply;"></path>
                                    <path d="M42.3492343,59.8439636 L42.3492343,0.372802734 L40.1069336,0.372802734 L40.1069336,59.2101536 L42.3492343,59.8439636 Z" id="Vector" style="mix-blend-mode: multiply;"></path>
                                    <path d="M2.24230075,34.861618 L2.24230075,0.372802734 L0,0.372802734 L0,31.164517 C0.661920808,32.4504236 1.41124005,33.6858967 2.24230075,34.861618 Z" id="Vector" style="mix-blend-mode: multiply;"></path>
                                    <path d="M12.2817721,45.2137375 L12.2817721,0.372802734 L10.0395508,0.372802734 L10.0395508,43.417987 C10.752984,44.051781 11.5173794,44.6327597 12.2817721,45.2137375 Z" id="Vector" style="mix-blend-mode: multiply;"></path>
                                    <path d="M32.2999179,56.358078 L32.2999179,0.372802734 L30.0576172,0.372802734 L30.0576172,55.4602105 L32.2999179,56.358078 Z" id="Vector" style="mix-blend-mode: multiply;"></path>
                                    <path d="M22.2705417,51.815773 L22.2705417,0.372802734 L20.0283203,0.372802734 L20.0283203,50.6010032 L22.2705417,51.815773 Z" id="Vector" style="mix-blend-mode: multiply;"></path>
                                </g>
                                <g id="Vector">
                                    <use fill="url(#linearGradient-13)" xlink:href="#path-14"></use>
                                    <use fill="url(#linearGradient-5)" xlink:href="#path-14"></use>
                                </g>
                                <path d="M0.100585938,48.8031006 C0.100585938,49.3840827 0.100585938,49.9122467 0.100585938,50.4932288 C0.100585938,76.9015069 35.7731955,98.6619225 79.9053028,98.6619225 C124.03741,98.6619225 159.659058,77.1127729 159.659058,50.4932288 C159.659058,49.9122467 159.659058,49.3840827 159.659058,48.8031006 C157.977349,74.1550486 122.712426,95.2816661 79.8033787,95.2816661 C36.6395257,95.2816661 1.57845095,74.6303959 0.100585938,48.8031006 Z" id="Vector" fill="url(#radialGradient-7)" fill-rule="nonzero" style="mix-blend-mode: screen;"></path>
                                <g id="Vector" fill-rule="nonzero">
                                    <use fill="#F9F9FA" xlink:href="#path-15"></use>
                                    <use fill="url(#linearGradient-8)" xlink:href="#path-15"></use>
                                </g>
                                <path d="M141.416595,48.0632286 C141.416595,47.3766092 141.416595,46.7427921 141.416595,46.1089896 C141.416595,26.1970268 114.713101,10.0878906 81.7923725,10.0878906 C48.8716443,10.0878906 22.1171875,26.1970268 22.1171875,46.1089896 C22.1171875,46.7427921 22.1171875,47.3766092 22.1171875,48.0632286 C23.9517792,29.0491531 49.8908658,13.9435203 81.9452586,13.9435203 C113.795808,13.9435203 139.734886,29.0491531 141.416595,48.0632286 Z" id="Vector" fill="url(#radialGradient-10)" fill-rule="nonzero" style="mix-blend-mode: screen;"></path>
                                <path d="M139.276947,50.1760941 C139.276947,49.4894688 139.276947,48.8556664 139.276947,48.2218584 C139.276947,28.3097243 112.573445,12.2004395 79.6527192,12.2004395 C46.7319937,12.2004395 19.9775391,28.3097243 19.9775391,48.2218584 C19.9775391,48.8556664 19.9775391,49.4894688 19.9775391,50.1760941 C21.9650131,31.1090377 47.9040963,16.0561023 79.8056053,16.0561023 C111.656152,16.0561023 137.595238,31.161855 139.276947,50.1760941 Z" id="Vector" fill-opacity="0.800000012" fill="#BF935C" fill-rule="nonzero" style="mix-blend-mode: multiply;"></path>
                            </g>
                            <g id="7" transform="translate(32.000000, 19.656860)">
                                <path d="M28.9911,49.2691 L24.8154,46.8583 C27.5714,48.4494 27.5714,51.0531 24.8154,52.6442 L28.9911,55.055 C31.747,53.4639 31.747,50.8602 28.9911,49.2691 Z" id="Path" fill="#B2B4BF" fill-rule="nonzero"></path>
                                <path d="M30.6625,54.0901 L26.4868,51.6793 C27.4055,52.2097 27.4055,53.0776 26.4868,53.608 L30.6625,56.0188 C31.5811,55.4884 31.5811,54.6205 30.6625,54.0901 Z" id="Path" fill="#B2B4BF" fill-rule="nonzero" opacity="0.2"></path>
                                <path d="M46.5285,42.0366 L26.4854,30.4647 L23.98,31.9112 C23.0613,32.4416 23.0613,33.3095 23.98,33.8399 L40.6826,43.4831 C41.6012,44.0135 43.1044,44.0135 44.0231,43.4831 L46.5285,42.0366 Z" id="Path" fill="#B2B4BF" fill-rule="nonzero"></path>
                                <path d="M55.7168,11.6594 C55.7168,11.6594 41.5196,19.8562 39.0142,21.3027" id="Path" stroke="#B2B4BF" stroke-width="1.00311" opacity="0.15" stroke-linecap="round" stroke-linejoin="round"></path>
                                <path d="M88.287,23.7133 L93.298,26.6063 C93.988,27.0047 94.16,27.5935 93.813,28.0866 C93.698,28.2503 93.526,28.4034 93.297,28.5355 C92.379,29.0659 90.876,29.0659 89.957,28.5355 L89.12,28.0522 L85.7646,28.0522 L84.3565,28.0902 L84.2907,28.0522 L84.1122,28.0522 L81.6664,29.4643 L92.523,35.7325 C93.48,36.2847 93.48,37.1802 92.523,37.7325 L91.688,38.2146 C83.7037,42.8244 71.66,43.6497 62.2222,40.6904 L60.3114,41.7936 C59.0189,42.5398 57.5408,43.1056 55.9668,43.4909 C52.1064,44.5329 47.7524,44.4922 44.2907,43.3291 L44.0239,43.4831 C43.5402,43.7624 42.8942,43.8947 42.257,43.8798 C41.6835,43.8667 41.1169,43.7344 40.6815,43.4831 L40.3614,43.2983 C39.4467,43.5124 38.4554,43.5862 37.4879,43.5197 C37.4407,43.5165 37.3936,43.5129 37.3465,43.509 C36.1517,43.41 35.0008,43.0959 34.0843,42.5668 L34.0017,42.5191 L25.6508,47.3406 L28.9903,49.2686 C31.161,50.5219 31.6219,52.4033 30.3731,53.9233 L30.6615,54.0899 C31.5802,54.6202 31.5802,55.4881 30.6615,56.0185 L28.9911,55.0541 L28.9903,55.0546 L3.9364,40.5897 L3.9372,40.5892 L2.2671,39.625 C3.1858,39.0946 4.689,39.0946 5.6076,39.625 L5.8957,39.7913 C8.5285,39.0703 11.7872,39.3365 13.9579,40.5897 L17.2989,42.5186 L25.6505,37.6968 L25.5676,37.6489 C23.875,36.6717 23.4529,35.2326 24.3014,34.025 L23.9808,33.8399 C23.0622,33.3095 23.0622,32.4416 23.9808,31.9112 L24.428,31.6531 C21.7565,28.6986 22.5825,25.0034 26.9062,22.5071 L28.8166,21.4041 C23.6908,15.9552 25.1201,9.0017 33.1046,4.39185 L33.9397,3.90969 C34.8963,3.3574 36.4472,3.3574 37.4038,3.90969 L48.2608,10.178 L50.707,8.7657 L50.7069,8.7657 L50.7069,5.87453 L49.8706,5.39171 C48.952,4.86133 48.952,3.99344 49.8706,3.46306 C50.7893,2.93268 52.2925,2.93268 53.2112,3.46306 L88.334,23.741 C88.318,23.7317 88.303,23.7225 88.287,23.7133 Z M87.299,36.7163 C81.2893,39.778 72.8658,40.3995 65.8761,38.5808 L78.2023,31.4643 L87.299,36.7163 Z M35.6997,6.9258 L44.7967,12.178 L32.4704,19.2946 C29.3202,15.259 30.3966,10.3957 35.6997,6.9258 Z" id="Shape" fill="#BF9C70"></path>
                                <polygon id="Path" fill="#BF935C" fill-rule="nonzero" points="39.9764 36.7881 31.4297 31.854 15.2015 41.2227 23.7482 46.1568"></polygon>
                                <polygon id="Path" fill="#9F6C47" fill-rule="nonzero" opacity="0.2" points="39.9761 36.7878 37.4121 35.3076 21.1839 44.6763 23.7479 46.1565"></polygon>
                                <path d="M28.0205,47.6376 L12.6363,38.7562 C9.8159,37.128 5.2022,37.1271 2.3836,38.7543 L28.0238,53.5566 C30.8424,51.9294 30.8409,49.2659 28.0205,47.6376 Z" id="Path" fill="#F3DAA4" fill-rule="nonzero"></path>
                                <path d="M28.0204,47.6375 L23.7471,45.1704 C26.5675,46.7987 26.569,49.4622 23.7504,51.0894 L28.0238,53.5564 C30.8424,51.9293 30.8409,49.2657 28.0204,47.6375 Z" id="Path" fill="#D4AE73" fill-rule="nonzero"></path>
                                <path d="M33.2311,40.7828 L24.5134,35.75 C22.2058,34.4178 22.2046,32.2475 24.5107,30.9162 L25.4502,30.3738 L42.5437,40.242 L41.6042,40.7844 C39.2981,42.1157 35.5387,42.115 33.2311,40.7828 Z" id="Path" fill="#F3DAA4" fill-rule="nonzero"></path>
                                <path d="M39.1236,38.2681 L38.184,38.8106 C35.8776,40.142 32.9727,40.6348 30.6649,39.3024 L33.2291,40.7828 C35.537,42.1151 39.2967,42.1158 41.603,40.7844 L42.5426,40.2419 L39.1236,38.2681 Z" id="Path" fill="#D4AE73" fill-rule="nonzero"></path>
                                <path d="M29.7335,54.5431 L0.6746,37.7672 C1.6141,37.2248 3.152,37.2251 4.0922,37.7678 L29.7324,52.5701 C30.6725,53.1129 30.673,54.0007 29.7335,54.5431 Z" id="Path" fill="#BF935C" fill-rule="nonzero"></path>
                                <path d="M29.7333,52.5706 L25.4595,50.1033 C26.3997,50.6461 26.4002,51.534 25.4606,52.0765 L29.7344,54.5437 C30.674,54.0013 30.6735,53.1134 29.7333,52.5706 Z" id="Path" fill="#9F6C47" fill-rule="nonzero" opacity="0.2"></path>
                                <path d="M45.9599,40.2424 L25.4478,28.4005 L22.8854,29.8798 C21.9459,30.4222 21.9464,31.31 22.8865,31.8528 L39.98,41.721 C40.9202,42.2637 42.4581,42.264 43.3976,41.7216 L45.9599,40.2424 Z" id="Path" fill="#F9A74E" fill-rule="nonzero"></path>
                                <path d="M45.9599,40.2424 L25.4478,28.4005 L22.8854,29.8798 C21.9459,30.4222 21.9464,31.31 22.8865,31.8528 L39.98,41.721 C40.9202,42.2637 42.4581,42.264 43.3976,41.7216 L45.9599,40.2424 Z" id="Path" fill="#BF935C" fill-rule="nonzero"></path>
                                <path d="M41.6856,37.7749 L37.4135,38.2674 C38.2682,38.7608 36.6453,39.7964 35.7051,39.2536 L39.9789,41.7209 C40.9191,42.2637 42.4572,42.264 43.3968,41.7216 L45.9594,40.2422 L41.6856,37.7749 Z" id="Path" fill="#9F6C47" fill-rule="nonzero" opacity="0.2"></path>
                                <path d="M75.0005,25.4498 L91.239,34.8246 L90.385,35.3177 C81.417,40.4951 66.8923,40.4924 57.9182,35.3116" id="Path" stroke="#BF935C" stroke-width="4" stroke-linecap="round" stroke-linejoin="round"></path>
                                <path d="M51.0699,11.6348 L34.8311,2.26001 L33.9769,2.7531 C25.0087,7.9305 25.0135,16.3157 33.9876,21.4966" id="Path" stroke="#E6C591" stroke-width="4" stroke-linecap="round" stroke-linejoin="round"></path>
                                <path d="M40.4062,39.9951 L25.8767,31.6071 C20.4068,28.4493 20.4039,23.4181 25.8703,20.2624 L52.7749,4.7301 L86.9619,24.4665 L60.0573,39.9988 C54.5909,43.1545 45.8761,43.1529 40.4062,39.9951 Z" id="Path" fill="url(#linearGradient-16)" fill-rule="nonzero"></path>
                                <path d="M40.4062,39.9951 L25.8767,31.6071 C20.4068,28.4493 20.4039,23.4181 25.8703,20.2624 L52.7749,4.7301 L86.9619,24.4665 L60.0573,39.9988 C54.5909,43.1545 45.8761,43.1529 40.4062,39.9951 Z" id="Path" fill="#F3DAA4" fill-rule="nonzero"></path>
                                <path d="M55.3394,9.1691 C55.3394,9.1691 40.8194,17.5516 38.257,19.0308" id="Path" stroke="#FFFFFF" stroke-width="2" opacity="0.15" stroke-linecap="round" stroke-linejoin="round"></path>
                                <path d="M82.8675,22.2867 L56.0775,37.7528 C50.6344,40.8951 42.3679,41.1308 37.4373,38.2843 L41.2893,40.5082 C46.2199,43.3547 54.4865,43.1189 59.9295,39.9766 L86.7196,24.5105 L82.8675,22.2867 Z" id="Path" fill="#D4AE73" fill-rule="nonzero"></path>
                                <polygon id="Path" fill="#BF935C" fill-rule="nonzero" points="89.526 25.9466 50.2109 3.24976 50.2126 6.2092 84.3996 25.9457"></polygon>
                                <polygon id="Path" fill="#9F6C47" fill-rule="nonzero" opacity="0.2" points="84.8922 23.0104 80.56 23.621 84.6532 25.984 89.804 25.846"></polygon>
                                <path d="M93.796,24.4673 L52.7718,0.78357 C51.8317,0.24082 50.2938,0.24053 49.3543,0.78293 C48.4147,1.32532 48.4152,2.21317 49.3554,2.75592 L90.38,26.4396 C91.32,26.9824 92.858,26.9827 93.797,26.4403 C94.737,25.8979 94.736,25.01 93.796,24.4673 Z" id="Path" fill="#F3DAA4" fill-rule="nonzero"></path>
                                <path d="M93.797,24.4676 L88.668,21.5068 C89.608,22.0496 89.609,22.9376 88.669,23.48 C87.729,24.0225 86.1914,24.0222 85.2512,23.4794 L90.38,26.4401 C91.32,26.9829 92.858,26.9832 93.798,26.4408 C94.737,25.8983 94.737,25.0104 93.797,24.4676 Z" id="Path" fill="#DAB287" fill-rule="nonzero"></path>
                                <path d="M34.4985,21.2004 L32.5339,22.3347" id="Path" stroke="#FFFFFF" stroke-width="2" opacity="0.15" stroke-linecap="round" stroke-linejoin="round"></path>
                            </g>
                        </g>
                    </g>
                    <g id="Group-624620" transform="translate(137.000000, 90.000000)">
                        <g id="Group-624614" transform="translate(0.000000, 27.000000)">
                            <g id="Group" opacity="0.150000006" transform="translate(78.458008, 18.538574)" fill="url(#linearGradient-2)" fill-rule="nonzero">
                                <path d="M0.024479093,0 C-0.0305988637,0.266064287 0.024479093,0.478921397 0.024479093,0.691772819 L0.024479093,0 Z" id="Vector"></path>
                            </g>
                            <path d="M0,47.7463379 L0,71.0386774 L0,71.7253053 C0,98.1338543 35.6726239,119.894493 79.804755,119.894493 C123.936886,119.894493 159.558548,98.3451225 159.558548,71.7253053 L159.558548,71.0386774 L159.558548,47.7463379 L0,47.7463379 Z" id="Vector" fill="#FCEDD1" fill-rule="nonzero"></path>
                            <g id="Group" style="mix-blend-mode: multiply;" transform="translate(0.000000, 66.707397)" fill-rule="nonzero">
                                <path d="M0,0 L0,4.43664729 L0,5.12327679 C0,31.5318868 35.6726239,53.2925758 79.804755,53.2925758 C123.936886,53.2925758 159.558548,31.7431555 159.558548,5.12327679 L159.558548,4.43664729 L159.558548,0 C159.558548,26.5670628 123.834967,48.1164907 79.804755,48.1164907 C35.723586,48.1164907 0,26.5670628 0,0 Z" id="Vector" fill-opacity="0.699999988" fill="#E5B872" style="mix-blend-mode: multiply;"></path>
                                <path d="M159.560059,1.47961426 L159.560059,2.17138708 L159.560059,1.47961426 Z" id="Vector" fill="url(#linearGradient-3)" style="mix-blend-mode: multiply;"></path>
                            </g>
                            <g id="Group" style="mix-blend-mode: multiply;" transform="translate(3.975098, 55.669067)" fill="#D4AE73" fill-opacity="0.5" fill-rule="nonzero">
                                <path d="M102.474155,61.5342225 L102.474155,0.372802734 L100.231934,0.372802734 L100.231934,62.0095711 L102.474155,61.5342225 Z" id="Vector" style="mix-blend-mode: multiply;"></path>
                                <path d="M112.524039,58.8931805 L112.524039,0.372802734 L110.281738,0.372802734 L110.281738,59.5797768 L112.524039,58.8931805 Z" id="Vector" style="mix-blend-mode: multiply;"></path>
                                <path d="M122.563022,55.1434623 L122.563022,0.372802734 L120.320801,0.372802734 L120.320801,56.1469879 L122.563022,55.1434623 Z" id="Vector" style="mix-blend-mode: multiply;"></path>
                                <path d="M92.4352515,63.4881706 L92.4352515,0.372802734 L90.1928711,0.372802734 L90.1928711,63.4881706 L92.4352515,63.4881706 Z" id="Vector" style="mix-blend-mode: multiply;"></path>
                                <path d="M142.591422,42.4626694 L142.591422,0.209228516 L140.349121,0.209228516 L140.349121,44.4168854 C141.113544,43.7830838 141.87796,43.1492878 142.591422,42.4626694 Z" id="Vector" style="mix-blend-mode: multiply;"></path>
                                <path d="M152.630484,29.1044395 L152.630484,0.372802734 L150.388184,0.372802734 L150.388184,33.2240639 C151.203561,31.8508604 151.96799,30.477643 152.630484,29.1044395 Z" id="Vector" style="mix-blend-mode: multiply;"></path>
                                <path d="M132.552439,50.0201434 L132.552439,0.372802734 L130.310059,0.372802734 L130.310059,51.2877235 L132.552439,50.0201434 Z" id="Vector" style="mix-blend-mode: multiply;"></path>
                                <path d="M82.4560885,64.1751785 L82.4560885,0.372802734 L80.2138672,0.372802734 L80.2138672,64.1751785 L82.4560885,64.1751785 Z" id="Vector" style="mix-blend-mode: multiply;"></path>
                                <path d="M72.4166172,64.1751785 L72.4166172,0.372802734 L70.1743164,0.372802734 L70.1743164,64.1751785 L72.4166172,64.1751785 Z" id="Vector" style="mix-blend-mode: multiply;"></path>
                                <path d="M52.3888648,62.2209778 L52.3888648,0.372802734 L50.1464844,0.372802734 L50.1464844,61.745628 L52.3888648,62.2209778 Z" id="Vector" style="mix-blend-mode: multiply;"></path>
                                <path d="M62.3775547,63.3801842 L62.3775547,0 L60.1352539,0 L60.1352539,63.3801842 L62.3775547,63.3801842 Z" id="Vector" style="mix-blend-mode: multiply;"></path>
                                <path d="M42.3492343,59.8439636 L42.3492343,0.372802734 L40.1069336,0.372802734 L40.1069336,59.2101536 L42.3492343,59.8439636 Z" id="Vector" style="mix-blend-mode: multiply;"></path>
                                <path d="M2.24230075,34.861618 L2.24230075,0.372802734 L0,0.372802734 L0,31.164517 C0.661920808,32.4504236 1.41124005,33.6858967 2.24230075,34.861618 Z" id="Vector" style="mix-blend-mode: multiply;"></path>
                                <path d="M12.2817721,45.2137375 L12.2817721,0.372802734 L10.0395508,0.372802734 L10.0395508,43.417987 C10.752984,44.051781 11.5173794,44.6327597 12.2817721,45.2137375 Z" id="Vector" style="mix-blend-mode: multiply;"></path>
                                <path d="M32.2999179,56.358078 L32.2999179,0.372802734 L30.0576172,0.372802734 L30.0576172,55.4602105 L32.2999179,56.358078 Z" id="Vector" style="mix-blend-mode: multiply;"></path>
                                <path d="M22.2705417,51.815773 L22.2705417,0.372802734 L20.0283203,0.372802734 L20.0283203,50.6010032 L22.2705417,51.815773 Z" id="Vector" style="mix-blend-mode: multiply;"></path>
                            </g>
                            <g id="Vector">
                                <use fill="url(#linearGradient-4)" xlink:href="#path-17"></use>
                                <use fill="url(#linearGradient-5)" xlink:href="#path-17"></use>
                            </g>
                            <path d="M0.100585938,48.8031006 C0.100585938,49.3840827 0.100585938,49.9122467 0.100585938,50.4932288 C0.100585938,76.9015069 35.7731955,98.6619225 79.9053028,98.6619225 C124.03741,98.6619225 159.659058,77.1127729 159.659058,50.4932288 C159.659058,49.9122467 159.659058,49.3840827 159.659058,48.8031006 C157.977349,74.1550486 122.712426,95.2816661 79.8033787,95.2816661 C36.6395257,95.2816661 1.57845095,74.6303959 0.100585938,48.8031006 Z" id="Vector" fill="url(#radialGradient-7)" fill-rule="nonzero" style="mix-blend-mode: screen;"></path>
                            <g id="Vector" fill-rule="nonzero">
                                <use fill="#F9F9FA" xlink:href="#path-18"></use>
                                <use fill="url(#linearGradient-8)" xlink:href="#path-18"></use>
                            </g>
                            <path d="M141.416595,48.0632286 C141.416595,47.3766092 141.416595,46.7427921 141.416595,46.1089896 C141.416595,26.1970268 114.713101,10.0878906 81.7923725,10.0878906 C48.8716443,10.0878906 22.1171875,26.1970268 22.1171875,46.1089896 C22.1171875,46.7427921 22.1171875,47.3766092 22.1171875,48.0632286 C23.9517792,29.0491531 49.8908658,13.9435203 81.9452586,13.9435203 C113.795808,13.9435203 139.734886,29.0491531 141.416595,48.0632286 Z" id="Vector" fill="url(#radialGradient-10)" fill-rule="nonzero" style="mix-blend-mode: screen;"></path>
                            <path d="M139.276947,50.1760941 C139.276947,49.4894688 139.276947,48.8556664 139.276947,48.2218584 C139.276947,28.3097243 112.573445,12.2004395 79.6527192,12.2004395 C46.7319937,12.2004395 19.9775391,28.3097243 19.9775391,48.2218584 C19.9775391,48.8556664 19.9775391,49.4894688 19.9775391,50.1760941 C21.9650131,31.1090377 47.9040963,16.0561023 79.8056053,16.0561023 C111.656152,16.0561023 137.595238,31.161855 139.276947,50.1760941 Z" id="Vector" fill-opacity="0.800000012" fill="#BF935C" fill-rule="nonzero" style="mix-blend-mode: multiply;"></path>
                        </g>
                        <g id="Group-624615">
                            <g id="Group-624600">
                                <g id="Group" opacity="0.150000006" transform="translate(78.458008, 18.538574)" fill="url(#linearGradient-2)" fill-rule="nonzero">
                                    <path d="M0.024479093,0 C-0.0305988637,0.266064287 0.024479093,0.478921397 0.024479093,0.691772819 L0.024479093,0 Z" id="Vector"></path>
                                </g>
                                <path d="M0,47.7463379 L0,71.0386774 L0,71.7253053 C0,98.1338543 35.6726239,119.894493 79.804755,119.894493 C123.936886,119.894493 159.558548,98.3451225 159.558548,71.7253053 L159.558548,71.0386774 L159.558548,47.7463379 L0,47.7463379 Z" id="Vector" fill="#FCEDD1" fill-rule="nonzero"></path>
                                <g id="Group" style="mix-blend-mode: multiply;" transform="translate(0.000000, 66.707397)" fill-rule="nonzero">
                                    <path d="M0,0 L0,4.43664729 L0,5.12327679 C0,31.5318868 35.6726239,53.2925758 79.804755,53.2925758 C123.936886,53.2925758 159.558548,31.7431555 159.558548,5.12327679 L159.558548,4.43664729 L159.558548,0 C159.558548,26.5670628 123.834967,48.1164907 79.804755,48.1164907 C35.723586,48.1164907 0,26.5670628 0,0 Z" id="Vector" fill-opacity="0.699999988" fill="#E5B872" style="mix-blend-mode: multiply;"></path>
                                    <path d="M159.560059,1.47961426 L159.560059,2.17138708 L159.560059,1.47961426 Z" id="Vector" fill="url(#linearGradient-3)" style="mix-blend-mode: multiply;"></path>
                                </g>
                                <g id="Group" style="mix-blend-mode: multiply;" transform="translate(3.975098, 55.669067)" fill="#D4AE73" fill-opacity="0.5" fill-rule="nonzero">
                                    <path d="M102.474155,61.5342225 L102.474155,0.372802734 L100.231934,0.372802734 L100.231934,62.0095711 L102.474155,61.5342225 Z" id="Vector" style="mix-blend-mode: multiply;"></path>
                                    <path d="M112.524039,58.8931805 L112.524039,0.372802734 L110.281738,0.372802734 L110.281738,59.5797768 L112.524039,58.8931805 Z" id="Vector" style="mix-blend-mode: multiply;"></path>
                                    <path d="M122.563022,55.1434623 L122.563022,0.372802734 L120.320801,0.372802734 L120.320801,56.1469879 L122.563022,55.1434623 Z" id="Vector" style="mix-blend-mode: multiply;"></path>
                                    <path d="M92.4352515,63.4881706 L92.4352515,0.372802734 L90.1928711,0.372802734 L90.1928711,63.4881706 L92.4352515,63.4881706 Z" id="Vector" style="mix-blend-mode: multiply;"></path>
                                    <path d="M142.591422,42.4626694 L142.591422,0.209228516 L140.349121,0.209228516 L140.349121,44.4168854 C141.113544,43.7830838 141.87796,43.1492878 142.591422,42.4626694 Z" id="Vector" style="mix-blend-mode: multiply;"></path>
                                    <path d="M152.630484,29.1044395 L152.630484,0.372802734 L150.388184,0.372802734 L150.388184,33.2240639 C151.203561,31.8508604 151.96799,30.477643 152.630484,29.1044395 Z" id="Vector" style="mix-blend-mode: multiply;"></path>
                                    <path d="M132.552439,50.0201434 L132.552439,0.372802734 L130.310059,0.372802734 L130.310059,51.2877235 L132.552439,50.0201434 Z" id="Vector" style="mix-blend-mode: multiply;"></path>
                                    <path d="M82.4560885,64.1751785 L82.4560885,0.372802734 L80.2138672,0.372802734 L80.2138672,64.1751785 L82.4560885,64.1751785 Z" id="Vector" style="mix-blend-mode: multiply;"></path>
                                    <path d="M72.4166172,64.1751785 L72.4166172,0.372802734 L70.1743164,0.372802734 L70.1743164,64.1751785 L72.4166172,64.1751785 Z" id="Vector" style="mix-blend-mode: multiply;"></path>
                                    <path d="M52.3888648,62.2209778 L52.3888648,0.372802734 L50.1464844,0.372802734 L50.1464844,61.745628 L52.3888648,62.2209778 Z" id="Vector" style="mix-blend-mode: multiply;"></path>
                                    <path d="M62.3775547,63.3801842 L62.3775547,0 L60.1352539,0 L60.1352539,63.3801842 L62.3775547,63.3801842 Z" id="Vector" style="mix-blend-mode: multiply;"></path>
                                    <path d="M42.3492343,59.8439636 L42.3492343,0.372802734 L40.1069336,0.372802734 L40.1069336,59.2101536 L42.3492343,59.8439636 Z" id="Vector" style="mix-blend-mode: multiply;"></path>
                                    <path d="M2.24230075,34.861618 L2.24230075,0.372802734 L0,0.372802734 L0,31.164517 C0.661920808,32.4504236 1.41124005,33.6858967 2.24230075,34.861618 Z" id="Vector" style="mix-blend-mode: multiply;"></path>
                                    <path d="M12.2817721,45.2137375 L12.2817721,0.372802734 L10.0395508,0.372802734 L10.0395508,43.417987 C10.752984,44.051781 11.5173794,44.6327597 12.2817721,45.2137375 Z" id="Vector" style="mix-blend-mode: multiply;"></path>
                                    <path d="M32.2999179,56.358078 L32.2999179,0.372802734 L30.0576172,0.372802734 L30.0576172,55.4602105 L32.2999179,56.358078 Z" id="Vector" style="mix-blend-mode: multiply;"></path>
                                    <path d="M22.2705417,51.815773 L22.2705417,0.372802734 L20.0283203,0.372802734 L20.0283203,50.6010032 L22.2705417,51.815773 Z" id="Vector" style="mix-blend-mode: multiply;"></path>
                                </g>
                                <g id="Vector">
                                    <use fill="url(#linearGradient-13)" xlink:href="#path-19"></use>
                                    <use fill="url(#linearGradient-5)" xlink:href="#path-19"></use>
                                </g>
                                <path d="M0.100585938,48.8031006 C0.100585938,49.3840827 0.100585938,49.9122467 0.100585938,50.4932288 C0.100585938,76.9015069 35.7731955,98.6619225 79.9053028,98.6619225 C124.03741,98.6619225 159.659058,77.1127729 159.659058,50.4932288 C159.659058,49.9122467 159.659058,49.3840827 159.659058,48.8031006 C157.977349,74.1550486 122.712426,95.2816661 79.8033787,95.2816661 C36.6395257,95.2816661 1.57845095,74.6303959 0.100585938,48.8031006 Z" id="Vector" fill="url(#radialGradient-7)" fill-rule="nonzero" style="mix-blend-mode: screen;"></path>
                                <g id="Vector" fill-rule="nonzero">
                                    <use fill="#F9F9FA" xlink:href="#path-20"></use>
                                    <use fill="url(#linearGradient-8)" xlink:href="#path-20"></use>
                                </g>
                                <path d="M141.416595,48.0632286 C141.416595,47.3766092 141.416595,46.7427921 141.416595,46.1089896 C141.416595,26.1970268 114.713101,10.0878906 81.7923725,10.0878906 C48.8716443,10.0878906 22.1171875,26.1970268 22.1171875,46.1089896 C22.1171875,46.7427921 22.1171875,47.3766092 22.1171875,48.0632286 C23.9517792,29.0491531 49.8908658,13.9435203 81.9452586,13.9435203 C113.795808,13.9435203 139.734886,29.0491531 141.416595,48.0632286 Z" id="Vector" fill="url(#radialGradient-10)" fill-rule="nonzero" style="mix-blend-mode: screen;"></path>
                                <path d="M139.276947,50.1760941 C139.276947,49.4894688 139.276947,48.8556664 139.276947,48.2218584 C139.276947,28.3097243 112.573445,12.2004395 79.6527192,12.2004395 C46.7319937,12.2004395 19.9775391,28.3097243 19.9775391,48.2218584 C19.9775391,48.8556664 19.9775391,49.4894688 19.9775391,50.1760941 C21.9650131,31.1090377 47.9040963,16.0561023 79.8056053,16.0561023 C111.656152,16.0561023 137.595238,31.161855 139.276947,50.1760941 Z" id="Vector" fill-opacity="0.800000012" fill="#BF935C" fill-rule="nonzero" style="mix-blend-mode: multiply;"></path>
                            </g>
                            <g id="7" transform="translate(32.000000, 19.656860)">
                                <path d="M28.9911,49.2691 L24.8154,46.8583 C27.5714,48.4494 27.5714,51.0531 24.8154,52.6442 L28.9911,55.055 C31.747,53.4639 31.747,50.8602 28.9911,49.2691 Z" id="Path" fill="#B2B4BF" fill-rule="nonzero"></path>
                                <path d="M30.6625,54.0901 L26.4868,51.6793 C27.4055,52.2097 27.4055,53.0776 26.4868,53.608 L30.6625,56.0188 C31.5811,55.4884 31.5811,54.6205 30.6625,54.0901 Z" id="Path" fill="#B2B4BF" fill-rule="nonzero" opacity="0.2"></path>
                                <path d="M46.5285,42.0366 L26.4854,30.4647 L23.98,31.9112 C23.0613,32.4416 23.0613,33.3095 23.98,33.8399 L40.6826,43.4831 C41.6012,44.0135 43.1044,44.0135 44.0231,43.4831 L46.5285,42.0366 Z" id="Path" fill="#B2B4BF" fill-rule="nonzero"></path>
                                <path d="M55.7168,11.6594 C55.7168,11.6594 41.5196,19.8562 39.0142,21.3027" id="Path" stroke="#B2B4BF" stroke-width="1.00311" opacity="0.15" stroke-linecap="round" stroke-linejoin="round"></path>
                                <path d="M88.287,23.7133 L93.298,26.6063 C93.988,27.0047 94.16,27.5935 93.813,28.0866 C93.698,28.2503 93.526,28.4034 93.297,28.5355 C92.379,29.0659 90.876,29.0659 89.957,28.5355 L89.12,28.0522 L85.7646,28.0522 L84.3565,28.0902 L84.2907,28.0522 L84.1122,28.0522 L81.6664,29.4643 L92.523,35.7325 C93.48,36.2847 93.48,37.1802 92.523,37.7325 L91.688,38.2146 C83.7037,42.8244 71.66,43.6497 62.2222,40.6904 L60.3114,41.7936 C59.0189,42.5398 57.5408,43.1056 55.9668,43.4909 C52.1064,44.5329 47.7524,44.4922 44.2907,43.3291 L44.0239,43.4831 C43.5402,43.7624 42.8942,43.8947 42.257,43.8798 C41.6835,43.8667 41.1169,43.7344 40.6815,43.4831 L40.3614,43.2983 C39.4467,43.5124 38.4554,43.5862 37.4879,43.5197 C37.4407,43.5165 37.3936,43.5129 37.3465,43.509 C36.1517,43.41 35.0008,43.0959 34.0843,42.5668 L34.0017,42.5191 L25.6508,47.3406 L28.9903,49.2686 C31.161,50.5219 31.6219,52.4033 30.3731,53.9233 L30.6615,54.0899 C31.5802,54.6202 31.5802,55.4881 30.6615,56.0185 L28.9911,55.0541 L28.9903,55.0546 L3.9364,40.5897 L3.9372,40.5892 L2.2671,39.625 C3.1858,39.0946 4.689,39.0946 5.6076,39.625 L5.8957,39.7913 C8.5285,39.0703 11.7872,39.3365 13.9579,40.5897 L17.2989,42.5186 L25.6505,37.6968 L25.5676,37.6489 C23.875,36.6717 23.4529,35.2326 24.3014,34.025 L23.9808,33.8399 C23.0622,33.3095 23.0622,32.4416 23.9808,31.9112 L24.428,31.6531 C21.7565,28.6986 22.5825,25.0034 26.9062,22.5071 L28.8166,21.4041 C23.6908,15.9552 25.1201,9.0017 33.1046,4.39185 L33.9397,3.90969 C34.8963,3.3574 36.4472,3.3574 37.4038,3.90969 L48.2608,10.178 L50.707,8.7657 L50.7069,8.7657 L50.7069,5.87453 L49.8706,5.39171 C48.952,4.86133 48.952,3.99344 49.8706,3.46306 C50.7893,2.93268 52.2925,2.93268 53.2112,3.46306 L88.334,23.741 C88.318,23.7317 88.303,23.7225 88.287,23.7133 Z M87.299,36.7163 C81.2893,39.778 72.8658,40.3995 65.8761,38.5808 L78.2023,31.4643 L87.299,36.7163 Z M35.6997,6.9258 L44.7967,12.178 L32.4704,19.2946 C29.3202,15.259 30.3966,10.3957 35.6997,6.9258 Z" id="Shape" fill="#BF9C70"></path>
                                <polygon id="Path" fill="#BF935C" fill-rule="nonzero" points="39.9764 36.7881 31.4297 31.854 15.2015 41.2227 23.7482 46.1568"></polygon>
                                <polygon id="Path" fill="#9F6C47" fill-rule="nonzero" opacity="0.2" points="39.9761 36.7878 37.4121 35.3076 21.1839 44.6763 23.7479 46.1565"></polygon>
                                <path d="M28.0205,47.6376 L12.6363,38.7562 C9.8159,37.128 5.2022,37.1271 2.3836,38.7543 L28.0238,53.5566 C30.8424,51.9294 30.8409,49.2659 28.0205,47.6376 Z" id="Path" fill="#F3DAA4" fill-rule="nonzero"></path>
                                <path d="M28.0204,47.6375 L23.7471,45.1704 C26.5675,46.7987 26.569,49.4622 23.7504,51.0894 L28.0238,53.5564 C30.8424,51.9293 30.8409,49.2657 28.0204,47.6375 Z" id="Path" fill="#D4AE73" fill-rule="nonzero"></path>
                                <path d="M33.2311,40.7828 L24.5134,35.75 C22.2058,34.4178 22.2046,32.2475 24.5107,30.9162 L25.4502,30.3738 L42.5437,40.242 L41.6042,40.7844 C39.2981,42.1157 35.5387,42.115 33.2311,40.7828 Z" id="Path" fill="#F3DAA4" fill-rule="nonzero"></path>
                                <path d="M39.1236,38.2681 L38.184,38.8106 C35.8776,40.142 32.9727,40.6348 30.6649,39.3024 L33.2291,40.7828 C35.537,42.1151 39.2967,42.1158 41.603,40.7844 L42.5426,40.2419 L39.1236,38.2681 Z" id="Path" fill="#D4AE73" fill-rule="nonzero"></path>
                                <path d="M29.7335,54.5431 L0.6746,37.7672 C1.6141,37.2248 3.152,37.2251 4.0922,37.7678 L29.7324,52.5701 C30.6725,53.1129 30.673,54.0007 29.7335,54.5431 Z" id="Path" fill="#BF935C" fill-rule="nonzero"></path>
                                <path d="M29.7333,52.5706 L25.4595,50.1033 C26.3997,50.6461 26.4002,51.534 25.4606,52.0765 L29.7344,54.5437 C30.674,54.0013 30.6735,53.1134 29.7333,52.5706 Z" id="Path" fill="#9F6C47" fill-rule="nonzero" opacity="0.2"></path>
                                <path d="M45.9599,40.2424 L25.4478,28.4005 L22.8854,29.8798 C21.9459,30.4222 21.9464,31.31 22.8865,31.8528 L39.98,41.721 C40.9202,42.2637 42.4581,42.264 43.3976,41.7216 L45.9599,40.2424 Z" id="Path" fill="#F9A74E" fill-rule="nonzero"></path>
                                <path d="M45.9599,40.2424 L25.4478,28.4005 L22.8854,29.8798 C21.9459,30.4222 21.9464,31.31 22.8865,31.8528 L39.98,41.721 C40.9202,42.2637 42.4581,42.264 43.3976,41.7216 L45.9599,40.2424 Z" id="Path" fill="#BF935C" fill-rule="nonzero"></path>
                                <path d="M41.6856,37.7749 L37.4135,38.2674 C38.2682,38.7608 36.6453,39.7964 35.7051,39.2536 L39.9789,41.7209 C40.9191,42.2637 42.4572,42.264 43.3968,41.7216 L45.9594,40.2422 L41.6856,37.7749 Z" id="Path" fill="#9F6C47" fill-rule="nonzero" opacity="0.2"></path>
                                <path d="M75.0005,25.4498 L91.239,34.8246 L90.385,35.3177 C81.417,40.4951 66.8923,40.4924 57.9182,35.3116" id="Path" stroke="#BF935C" stroke-width="4" stroke-linecap="round" stroke-linejoin="round"></path>
                                <path d="M51.0699,11.6348 L34.8311,2.26001 L33.9769,2.7531 C25.0087,7.9305 25.0135,16.3157 33.9876,21.4966" id="Path" stroke="#E6C591" stroke-width="4" stroke-linecap="round" stroke-linejoin="round"></path>
                                <path d="M40.4062,39.9951 L25.8767,31.6071 C20.4068,28.4493 20.4039,23.4181 25.8703,20.2624 L52.7749,4.7301 L86.9619,24.4665 L60.0573,39.9988 C54.5909,43.1545 45.8761,43.1529 40.4062,39.9951 Z" id="Path" fill="url(#linearGradient-16)" fill-rule="nonzero"></path>
                                <path d="M40.4062,39.9951 L25.8767,31.6071 C20.4068,28.4493 20.4039,23.4181 25.8703,20.2624 L52.7749,4.7301 L86.9619,24.4665 L60.0573,39.9988 C54.5909,43.1545 45.8761,43.1529 40.4062,39.9951 Z" id="Path" fill="#F3DAA4" fill-rule="nonzero"></path>
                                <path d="M55.3394,9.1691 C55.3394,9.1691 40.8194,17.5516 38.257,19.0308" id="Path" stroke="#FFFFFF" stroke-width="2" opacity="0.15" stroke-linecap="round" stroke-linejoin="round"></path>
                                <path d="M82.8675,22.2867 L56.0775,37.7528 C50.6344,40.8951 42.3679,41.1308 37.4373,38.2843 L41.2893,40.5082 C46.2199,43.3547 54.4865,43.1189 59.9295,39.9766 L86.7196,24.5105 L82.8675,22.2867 Z" id="Path" fill="#D4AE73" fill-rule="nonzero"></path>
                                <polygon id="Path" fill="#BF935C" fill-rule="nonzero" points="89.526 25.9466 50.2109 3.24976 50.2126 6.2092 84.3996 25.9457"></polygon>
                                <polygon id="Path" fill="#9F6C47" fill-rule="nonzero" opacity="0.2" points="84.8922 23.0104 80.56 23.621 84.6532 25.984 89.804 25.846"></polygon>
                                <path d="M93.796,24.4673 L52.7718,0.78357 C51.8317,0.24082 50.2938,0.24053 49.3543,0.78293 C48.4147,1.32532 48.4152,2.21317 49.3554,2.75592 L90.38,26.4396 C91.32,26.9824 92.858,26.9827 93.797,26.4403 C94.737,25.8979 94.736,25.01 93.796,24.4673 Z" id="Path" fill="#F3DAA4" fill-rule="nonzero"></path>
                                <path d="M93.797,24.4676 L88.668,21.5068 C89.608,22.0496 89.609,22.9376 88.669,23.48 C87.729,24.0225 86.1914,24.0222 85.2512,23.4794 L90.38,26.4401 C91.32,26.9829 92.858,26.9832 93.798,26.4408 C94.737,25.8983 94.737,25.0104 93.797,24.4676 Z" id="Path" fill="#DAB287" fill-rule="nonzero"></path>
                                <path d="M34.4985,21.2004 L32.5339,22.3347" id="Path" stroke="#FFFFFF" stroke-width="2" opacity="0.15" stroke-linecap="round" stroke-linejoin="round"></path>
                            </g>
                        </g>
                    </g>
                    <g id="Group-624613" transform="translate(0.000000, 154.000000)">
                        <g id="Group-624598">
                            <g id="Group" opacity="0.150000006" transform="translate(78.458008, 18.538574)" fill="url(#linearGradient-2)" fill-rule="nonzero">
                                <path d="M0.024479093,0 C-0.0305988637,0.266064287 0.024479093,0.478921397 0.024479093,0.691772819 L0.024479093,0 Z" id="Vector"></path>
                            </g>
                            <path d="M0,47.7463379 L0,71.0386774 L0,71.7253053 C0,98.1338543 35.6726239,119.894493 79.804755,119.894493 C123.936886,119.894493 159.558548,98.3451225 159.558548,71.7253053 L159.558548,71.0386774 L159.558548,47.7463379 L0,47.7463379 Z" id="Vector" fill="#FCEDD1" fill-rule="nonzero"></path>
                            <g id="Group" style="mix-blend-mode: multiply;" transform="translate(0.000000, 66.707397)" fill-rule="nonzero">
                                <path d="M0,0 L0,4.43664729 L0,5.12327679 C0,31.5318868 35.6726239,53.2925758 79.804755,53.2925758 C123.936886,53.2925758 159.558548,31.7431555 159.558548,5.12327679 L159.558548,4.43664729 L159.558548,0 C159.558548,26.5670628 123.834967,48.1164907 79.804755,48.1164907 C35.723586,48.1164907 0,26.5670628 0,0 Z" id="Vector" fill-opacity="0.699999988" fill="#E5B872" style="mix-blend-mode: multiply;"></path>
                                <path d="M159.560059,1.47961426 L159.560059,2.17138708 L159.560059,1.47961426 Z" id="Vector" fill="url(#linearGradient-3)" style="mix-blend-mode: multiply;"></path>
                            </g>
                            <g id="Group" style="mix-blend-mode: multiply;" transform="translate(3.975098, 55.669067)" fill="#D4AE73" fill-opacity="0.5" fill-rule="nonzero">
                                <path d="M102.474155,61.5342225 L102.474155,0.372802734 L100.231934,0.372802734 L100.231934,62.0095711 L102.474155,61.5342225 Z" id="Vector" style="mix-blend-mode: multiply;"></path>
                                <path d="M112.524039,58.8931805 L112.524039,0.372802734 L110.281738,0.372802734 L110.281738,59.5797768 L112.524039,58.8931805 Z" id="Vector" style="mix-blend-mode: multiply;"></path>
                                <path d="M122.563022,55.1434623 L122.563022,0.372802734 L120.320801,0.372802734 L120.320801,56.1469879 L122.563022,55.1434623 Z" id="Vector" style="mix-blend-mode: multiply;"></path>
                                <path d="M92.4352515,63.4881706 L92.4352515,0.372802734 L90.1928711,0.372802734 L90.1928711,63.4881706 L92.4352515,63.4881706 Z" id="Vector" style="mix-blend-mode: multiply;"></path>
                                <path d="M142.591422,42.4626694 L142.591422,0.209228516 L140.349121,0.209228516 L140.349121,44.4168854 C141.113544,43.7830838 141.87796,43.1492878 142.591422,42.4626694 Z" id="Vector" style="mix-blend-mode: multiply;"></path>
                                <path d="M152.630484,29.1044395 L152.630484,0.372802734 L150.388184,0.372802734 L150.388184,33.2240639 C151.203561,31.8508604 151.96799,30.477643 152.630484,29.1044395 Z" id="Vector" style="mix-blend-mode: multiply;"></path>
                                <path d="M132.552439,50.0201434 L132.552439,0.372802734 L130.310059,0.372802734 L130.310059,51.2877235 L132.552439,50.0201434 Z" id="Vector" style="mix-blend-mode: multiply;"></path>
                                <path d="M82.4560885,64.1751785 L82.4560885,0.372802734 L80.2138672,0.372802734 L80.2138672,64.1751785 L82.4560885,64.1751785 Z" id="Vector" style="mix-blend-mode: multiply;"></path>
                                <path d="M72.4166172,64.1751785 L72.4166172,0.372802734 L70.1743164,0.372802734 L70.1743164,64.1751785 L72.4166172,64.1751785 Z" id="Vector" style="mix-blend-mode: multiply;"></path>
                                <path d="M52.3888648,62.2209778 L52.3888648,0.372802734 L50.1464844,0.372802734 L50.1464844,61.745628 L52.3888648,62.2209778 Z" id="Vector" style="mix-blend-mode: multiply;"></path>
                                <path d="M62.3775547,63.3801842 L62.3775547,0 L60.1352539,0 L60.1352539,63.3801842 L62.3775547,63.3801842 Z" id="Vector" style="mix-blend-mode: multiply;"></path>
                                <path d="M42.3492343,59.8439636 L42.3492343,0.372802734 L40.1069336,0.372802734 L40.1069336,59.2101536 L42.3492343,59.8439636 Z" id="Vector" style="mix-blend-mode: multiply;"></path>
                                <path d="M2.24230075,34.861618 L2.24230075,0.372802734 L0,0.372802734 L0,31.164517 C0.661920808,32.4504236 1.41124005,33.6858967 2.24230075,34.861618 Z" id="Vector" style="mix-blend-mode: multiply;"></path>
                                <path d="M12.2817721,45.2137375 L12.2817721,0.372802734 L10.0395508,0.372802734 L10.0395508,43.417987 C10.752984,44.051781 11.5173794,44.6327597 12.2817721,45.2137375 Z" id="Vector" style="mix-blend-mode: multiply;"></path>
                                <path d="M32.2999179,56.358078 L32.2999179,0.372802734 L30.0576172,0.372802734 L30.0576172,55.4602105 L32.2999179,56.358078 Z" id="Vector" style="mix-blend-mode: multiply;"></path>
                                <path d="M22.2705417,51.815773 L22.2705417,0.372802734 L20.0283203,0.372802734 L20.0283203,50.6010032 L22.2705417,51.815773 Z" id="Vector" style="mix-blend-mode: multiply;"></path>
                            </g>
                            <g id="Vector">
                                <use fill="url(#linearGradient-13)" xlink:href="#path-21"></use>
                                <use fill="url(#linearGradient-5)" xlink:href="#path-21"></use>
                            </g>
                            <path d="M0.100585938,48.8031006 C0.100585938,49.3840827 0.100585938,49.9122467 0.100585938,50.4932288 C0.100585938,76.9015069 35.7731955,98.6619225 79.9053028,98.6619225 C124.03741,98.6619225 159.659058,77.1127729 159.659058,50.4932288 C159.659058,49.9122467 159.659058,49.3840827 159.659058,48.8031006 C157.977349,74.1550486 122.712426,95.2816661 79.8033787,95.2816661 C36.6395257,95.2816661 1.57845095,74.6303959 0.100585938,48.8031006 Z" id="Vector" fill="url(#radialGradient-7)" fill-rule="nonzero" style="mix-blend-mode: screen;"></path>
                            <g id="Vector" fill-rule="nonzero">
                                <use fill="#F9F9FA" xlink:href="#path-22"></use>
                                <use fill="url(#linearGradient-8)" xlink:href="#path-22"></use>
                            </g>
                            <path d="M141.416595,48.0632286 C141.416595,47.3766092 141.416595,46.7427921 141.416595,46.1089896 C141.416595,26.1970268 114.713101,10.0878906 81.7923725,10.0878906 C48.8716443,10.0878906 22.1171875,26.1970268 22.1171875,46.1089896 C22.1171875,46.7427921 22.1171875,47.3766092 22.1171875,48.0632286 C23.9517792,29.0491531 49.8908658,13.9435203 81.9452586,13.9435203 C113.795808,13.9435203 139.734886,29.0491531 141.416595,48.0632286 Z" id="Vector" fill="url(#radialGradient-10)" fill-rule="nonzero" style="mix-blend-mode: screen;"></path>
                            <path d="M139.276947,50.1760941 C139.276947,49.4894688 139.276947,48.8556664 139.276947,48.2218584 C139.276947,28.3097243 112.573445,12.2004395 79.6527192,12.2004395 C46.7319937,12.2004395 19.9775391,28.3097243 19.9775391,48.2218584 C19.9775391,48.8556664 19.9775391,49.4894688 19.9775391,50.1760941 C21.9650131,31.1090377 47.9040963,16.0561023 79.8056053,16.0561023 C111.656152,16.0561023 137.595238,31.161855 139.276947,50.1760941 Z" id="Vector" fill-opacity="0.800000012" fill="#BF935C" fill-rule="nonzero" style="mix-blend-mode: multiply;"></path>
                        </g>
                        <g id="7" transform="translate(32.000000, 19.656860)">
                            <path d="M28.9911,49.2691 L24.8154,46.8583 C27.5714,48.4494 27.5714,51.0531 24.8154,52.6442 L28.9911,55.055 C31.747,53.4639 31.747,50.8602 28.9911,49.2691 Z" id="Path" fill="#B2B4BF" fill-rule="nonzero"></path>
                            <path d="M30.6625,54.0901 L26.4868,51.6793 C27.4055,52.2097 27.4055,53.0776 26.4868,53.608 L30.6625,56.0188 C31.5811,55.4884 31.5811,54.6205 30.6625,54.0901 Z" id="Path" fill="#B2B4BF" fill-rule="nonzero" opacity="0.2"></path>
                            <path d="M46.5285,42.0366 L26.4854,30.4647 L23.98,31.9112 C23.0613,32.4416 23.0613,33.3095 23.98,33.8399 L40.6826,43.4831 C41.6012,44.0135 43.1044,44.0135 44.0231,43.4831 L46.5285,42.0366 Z" id="Path" fill="#B2B4BF" fill-rule="nonzero"></path>
                            <path d="M55.7168,11.6594 C55.7168,11.6594 41.5196,19.8562 39.0142,21.3027" id="Path" stroke="#B2B4BF" stroke-width="1.00311" opacity="0.15" stroke-linecap="round" stroke-linejoin="round"></path>
                            <path d="M88.287,23.7133 L93.298,26.6063 C93.988,27.0047 94.16,27.5935 93.813,28.0866 C93.698,28.2503 93.526,28.4034 93.297,28.5355 C92.379,29.0659 90.876,29.0659 89.957,28.5355 L89.12,28.0522 L85.7646,28.0522 L84.3565,28.0902 L84.2907,28.0522 L84.1122,28.0522 L81.6664,29.4643 L92.523,35.7325 C93.48,36.2847 93.48,37.1802 92.523,37.7325 L91.688,38.2146 C83.7037,42.8244 71.66,43.6497 62.2222,40.6904 L60.3114,41.7936 C59.0189,42.5398 57.5408,43.1056 55.9668,43.4909 C52.1064,44.5329 47.7524,44.4922 44.2907,43.3291 L44.0239,43.4831 C43.5402,43.7624 42.8942,43.8947 42.257,43.8798 C41.6835,43.8667 41.1169,43.7344 40.6815,43.4831 L40.3614,43.2983 C39.4467,43.5124 38.4554,43.5862 37.4879,43.5197 C37.4407,43.5165 37.3936,43.5129 37.3465,43.509 C36.1517,43.41 35.0008,43.0959 34.0843,42.5668 L34.0017,42.5191 L25.6508,47.3406 L28.9903,49.2686 C31.161,50.5219 31.6219,52.4033 30.3731,53.9233 L30.6615,54.0899 C31.5802,54.6202 31.5802,55.4881 30.6615,56.0185 L28.9911,55.0541 L28.9903,55.0546 L3.9364,40.5897 L3.9372,40.5892 L2.2671,39.625 C3.1858,39.0946 4.689,39.0946 5.6076,39.625 L5.8957,39.7913 C8.5285,39.0703 11.7872,39.3365 13.9579,40.5897 L17.2989,42.5186 L25.6505,37.6968 L25.5676,37.6489 C23.875,36.6717 23.4529,35.2326 24.3014,34.025 L23.9808,33.8399 C23.0622,33.3095 23.0622,32.4416 23.9808,31.9112 L24.428,31.6531 C21.7565,28.6986 22.5825,25.0034 26.9062,22.5071 L28.8166,21.4041 C23.6908,15.9552 25.1201,9.0017 33.1046,4.39185 L33.9397,3.90969 C34.8963,3.3574 36.4472,3.3574 37.4038,3.90969 L48.2608,10.178 L50.707,8.7657 L50.7069,8.7657 L50.7069,5.87453 L49.8706,5.39171 C48.952,4.86133 48.952,3.99344 49.8706,3.46306 C50.7893,2.93268 52.2925,2.93268 53.2112,3.46306 L88.334,23.741 C88.318,23.7317 88.303,23.7225 88.287,23.7133 Z M87.299,36.7163 C81.2893,39.778 72.8658,40.3995 65.8761,38.5808 L78.2023,31.4643 L87.299,36.7163 Z M35.6997,6.9258 L44.7967,12.178 L32.4704,19.2946 C29.3202,15.259 30.3966,10.3957 35.6997,6.9258 Z" id="Shape" fill="#BF9C70"></path>
                            <polygon id="Path" fill="#BF935C" fill-rule="nonzero" points="39.9764 36.7881 31.4297 31.854 15.2015 41.2227 23.7482 46.1568"></polygon>
                            <polygon id="Path" fill="#9F6C47" fill-rule="nonzero" opacity="0.2" points="39.9761 36.7878 37.4121 35.3076 21.1839 44.6763 23.7479 46.1565"></polygon>
                            <path d="M28.0205,47.6376 L12.6363,38.7562 C9.8159,37.128 5.2022,37.1271 2.3836,38.7543 L28.0238,53.5566 C30.8424,51.9294 30.8409,49.2659 28.0205,47.6376 Z" id="Path" fill="#F3DAA4" fill-rule="nonzero"></path>
                            <path d="M28.0204,47.6375 L23.7471,45.1704 C26.5675,46.7987 26.569,49.4622 23.7504,51.0894 L28.0238,53.5564 C30.8424,51.9293 30.8409,49.2657 28.0204,47.6375 Z" id="Path" fill="#D4AE73" fill-rule="nonzero"></path>
                            <path d="M33.2311,40.7828 L24.5134,35.75 C22.2058,34.4178 22.2046,32.2475 24.5107,30.9162 L25.4502,30.3738 L42.5437,40.242 L41.6042,40.7844 C39.2981,42.1157 35.5387,42.115 33.2311,40.7828 Z" id="Path" fill="#F3DAA4" fill-rule="nonzero"></path>
                            <path d="M39.1236,38.2681 L38.184,38.8106 C35.8776,40.142 32.9727,40.6348 30.6649,39.3024 L33.2291,40.7828 C35.537,42.1151 39.2967,42.1158 41.603,40.7844 L42.5426,40.2419 L39.1236,38.2681 Z" id="Path" fill="#D4AE73" fill-rule="nonzero"></path>
                            <path d="M29.7335,54.5431 L0.6746,37.7672 C1.6141,37.2248 3.152,37.2251 4.0922,37.7678 L29.7324,52.5701 C30.6725,53.1129 30.673,54.0007 29.7335,54.5431 Z" id="Path" fill="#BF935C" fill-rule="nonzero"></path>
                            <path d="M29.7333,52.5706 L25.4595,50.1033 C26.3997,50.6461 26.4002,51.534 25.4606,52.0765 L29.7344,54.5437 C30.674,54.0013 30.6735,53.1134 29.7333,52.5706 Z" id="Path" fill="#9F6C47" fill-rule="nonzero" opacity="0.2"></path>
                            <path d="M45.9599,40.2424 L25.4478,28.4005 L22.8854,29.8798 C21.9459,30.4222 21.9464,31.31 22.8865,31.8528 L39.98,41.721 C40.9202,42.2637 42.4581,42.264 43.3976,41.7216 L45.9599,40.2424 Z" id="Path" fill="#F9A74E" fill-rule="nonzero"></path>
                            <path d="M45.9599,40.2424 L25.4478,28.4005 L22.8854,29.8798 C21.9459,30.4222 21.9464,31.31 22.8865,31.8528 L39.98,41.721 C40.9202,42.2637 42.4581,42.264 43.3976,41.7216 L45.9599,40.2424 Z" id="Path" fill="#BF935C" fill-rule="nonzero"></path>
                            <path d="M41.6856,37.7749 L37.4135,38.2674 C38.2682,38.7608 36.6453,39.7964 35.7051,39.2536 L39.9789,41.7209 C40.9191,42.2637 42.4572,42.264 43.3968,41.7216 L45.9594,40.2422 L41.6856,37.7749 Z" id="Path" fill="#9F6C47" fill-rule="nonzero" opacity="0.2"></path>
                            <path d="M75.0005,25.4498 L91.239,34.8246 L90.385,35.3177 C81.417,40.4951 66.8923,40.4924 57.9182,35.3116" id="Path" stroke="#BF935C" stroke-width="4" stroke-linecap="round" stroke-linejoin="round"></path>
                            <path d="M51.0699,11.6348 L34.8311,2.26001 L33.9769,2.7531 C25.0087,7.9305 25.0135,16.3157 33.9876,21.4966" id="Path" stroke="#E6C591" stroke-width="4" stroke-linecap="round" stroke-linejoin="round"></path>
                            <path d="M40.4062,39.9951 L25.8767,31.6071 C20.4068,28.4493 20.4039,23.4181 25.8703,20.2624 L52.7749,4.7301 L86.9619,24.4665 L60.0573,39.9988 C54.5909,43.1545 45.8761,43.1529 40.4062,39.9951 Z" id="Path" fill="url(#linearGradient-16)" fill-rule="nonzero"></path>
                            <path d="M40.4062,39.9951 L25.8767,31.6071 C20.4068,28.4493 20.4039,23.4181 25.8703,20.2624 L52.7749,4.7301 L86.9619,24.4665 L60.0573,39.9988 C54.5909,43.1545 45.8761,43.1529 40.4062,39.9951 Z" id="Path" fill="#F3DAA4" fill-rule="nonzero"></path>
                            <path d="M55.3394,9.1691 C55.3394,9.1691 40.8194,17.5516 38.257,19.0308" id="Path" stroke="#FFFFFF" stroke-width="2" opacity="0.15" stroke-linecap="round" stroke-linejoin="round"></path>
                            <path d="M82.8675,22.2867 L56.0775,37.7528 C50.6344,40.8951 42.3679,41.1308 37.4373,38.2843 L41.2893,40.5082 C46.2199,43.3547 54.4865,43.1189 59.9295,39.9766 L86.7196,24.5105 L82.8675,22.2867 Z" id="Path" fill="#D4AE73" fill-rule="nonzero"></path>
                            <polygon id="Path" fill="#BF935C" fill-rule="nonzero" points="89.526 25.9466 50.2109 3.24976 50.2126 6.2092 84.3996 25.9457"></polygon>
                            <polygon id="Path" fill="#9F6C47" fill-rule="nonzero" opacity="0.2" points="84.8922 23.0104 80.56 23.621 84.6532 25.984 89.804 25.846"></polygon>
                            <path d="M93.796,24.4673 L52.7718,0.78357 C51.8317,0.24082 50.2938,0.24053 49.3543,0.78293 C48.4147,1.32532 48.4152,2.21317 49.3554,2.75592 L90.38,26.4396 C91.32,26.9824 92.858,26.9827 93.797,26.4403 C94.737,25.8979 94.736,25.01 93.796,24.4673 Z" id="Path" fill="#F3DAA4" fill-rule="nonzero"></path>
                            <path d="M93.797,24.4676 L88.668,21.5068 C89.608,22.0496 89.609,22.9376 88.669,23.48 C87.729,24.0225 86.1914,24.0222 85.2512,23.4794 L90.38,26.4401 C91.32,26.9829 92.858,26.9832 93.798,26.4408 C94.737,25.8983 94.737,25.0104 93.797,24.4676 Z" id="Path" fill="#DAB287" fill-rule="nonzero"></path>
                            <path d="M34.4985,21.2004 L32.5339,22.3347" id="Path" stroke="#FFFFFF" stroke-width="2" opacity="0.15" stroke-linecap="round" stroke-linejoin="round"></path>
                        </g>
                    </g>
                </g>
            </g>
        </g>
    </g>
</svg>