<?xml version="1.0" encoding="UTF-8"?>
<svg width="445px" height="420px" viewBox="0 0 445 420" version="1.1" xmlns="http://www.w3.org/2000/svg" xmlns:xlink="http://www.w3.org/1999/xlink">
    <!-- Generator: Sketch 54.1 (76490) - https://sketchapp.com -->
    <title>coins-golden</title>
    <desc>Created with Sketch.</desc>
    <defs>
        <filter x="-52.4%" y="-56.8%" width="204.7%" height="213.9%" filterUnits="objectBoundingBox" id="filter-1">
            <feOffset dx="0" dy="5" in="SourceAlpha" result="shadowOffsetOuter1"></feOffset>
            <feGaussianBlur stdDeviation="38" in="shadowOffsetOuter1" result="shadowBlurOuter1"></feGaussianBlur>
            <feColorMatrix values="0 0 0 0 0.996078432   0 0 0 0 0.996078432   0 0 0 0 0.980392158  0 0 0 0.25 0" type="matrix" in="shadowBlurOuter1" result="shadowMatrixOuter1"></feColorMatrix>
            <feMerge>
                <feMergeNode in="shadowMatrixOuter1"></feMergeNode>
                <feMergeNode in="SourceGraphic"></feMergeNode>
            </feMerge>
        </filter>
        <linearGradient x1="3131%" y1="3054%" x2="3132%" y2="3054%" id="linearGradient-2">
            <stop stop-color="#FFBB96" offset="0%"></stop>
            <stop stop-color="#FFFBC9" offset="23.0000004%"></stop>
            <stop stop-color="#F9B673" offset="54.0000021%"></stop>
            <stop stop-color="#F9B876" offset="63.9999986%"></stop>
            <stop stop-color="#FABE81" offset="72.0000029%"></stop>
            <stop stop-color="#FCC993" offset="81.0000002%"></stop>
            <stop stop-color="#FED2A3" offset="86.0000014%"></stop>
            <stop stop-color="#FFC28C" offset="97.0000029%"></stop>
        </linearGradient>
        <linearGradient x1="0%" y1="0%" x2="0%" y2="0%" id="linearGradient-3">
            <stop stop-color="#FFBB96" offset="0%"></stop>
            <stop stop-color="#FFFBC9" offset="23.0000004%"></stop>
            <stop stop-color="#F9B673" offset="54.0000021%"></stop>
            <stop stop-color="#F9B876" offset="63.9999986%"></stop>
            <stop stop-color="#FABE81" offset="72.0000029%"></stop>
            <stop stop-color="#FCC993" offset="81.0000002%"></stop>
            <stop stop-color="#FED2A3" offset="86.0000014%"></stop>
            <stop stop-color="#FFC28C" offset="97.0000029%"></stop>
        </linearGradient>
        <linearGradient x1="6050.99983%" y1="285.346343%" x2="2987.99984%" y2="1408.52384%" id="linearGradient-4">
            <stop stop-color="#DAB287" offset="3.99999991%"></stop>
            <stop stop-color="#DFBFA1" offset="40.0000006%"></stop>
            <stop stop-color="#E4C9AF" offset="100%"></stop>
        </linearGradient>
        <radialGradient cx="2484.99998%" cy="4279.00003%" fx="2484.99998%" fy="4279.00003%" r="6298.00378%" gradientTransform="translate(24.850000,42.790000),scale(0.312480,1.000000),translate(-24.850000,-42.790000)" id="radialGradient-5">
            <stop stop-color="#FFFFFF" offset="0%"></stop>
            <stop stop-color="#000000" offset="100%"></stop>
        </radialGradient>
        <linearGradient x1="4415.99989%" y1="885.821409%" x2="2125.99997%" y2="1726.01894%" id="linearGradient-6">
            <stop stop-color="#E4C9AF" offset="3.99999991%"></stop>
            <stop stop-color="#F0D8C0" offset="40.0000006%"></stop>
            <stop stop-color="#FFFCFA" offset="100%"></stop>
        </linearGradient>
        <radialGradient cx="3708.99993%" cy="2861.00003%" fx="3708.99993%" fy="2861.00003%" r="2720.53547%" gradientTransform="translate(37.089999,28.610000),scale(0.318320,1.000000),translate(-37.089999,-28.610000)" id="radialGradient-7">
            <stop stop-color="#FFFFFF" offset="0%"></stop>
            <stop stop-color="#000000" offset="100%"></stop>
        </radialGradient>
        <linearGradient x1="3131%" y1="3054%" x2="3132%" y2="3054%" id="linearGradient-8">
            <stop stop-color="#FFBB96" offset="0%"></stop>
            <stop stop-color="#FFFBC9" offset="23.0000004%"></stop>
            <stop stop-color="#F9B673" offset="54.0000021%"></stop>
            <stop stop-color="#F9B876" offset="63.9999986%"></stop>
            <stop stop-color="#FABE81" offset="72.0000029%"></stop>
            <stop stop-color="#FCC993" offset="81.0000002%"></stop>
            <stop stop-color="#FED2A3" offset="86.0000014%"></stop>
            <stop stop-color="#FFC28C" offset="97.0000029%"></stop>
        </linearGradient>
        <linearGradient x1="4415.99989%" y1="885.821232%" x2="2125.99997%" y2="1726.01858%" id="linearGradient-9">
            <stop stop-color="#E4C9AF" offset="3.99999991%"></stop>
            <stop stop-color="#F0D8C0" offset="40.0000006%"></stop>
            <stop stop-color="#FFFCFA" offset="100%"></stop>
        </linearGradient>
        <radialGradient cx="3708.99993%" cy="2861.00003%" fx="3708.99993%" fy="2861.00003%" r="2720.53574%" gradientTransform="translate(37.089999,28.610000),scale(0.318320,1.000000),translate(-37.089999,-28.610000)" id="radialGradient-10">
            <stop stop-color="#FFFFFF" offset="0%"></stop>
            <stop stop-color="#000000" offset="100%"></stop>
        </radialGradient>
        <linearGradient x1="3131%" y1="3054%" x2="3132%" y2="3054%" id="linearGradient-11">
            <stop stop-color="#FFBB96" offset="0%"></stop>
            <stop stop-color="#FFFBC9" offset="23.0000004%"></stop>
            <stop stop-color="#F9B673" offset="54.0000021%"></stop>
            <stop stop-color="#F9B876" offset="63.9999986%"></stop>
            <stop stop-color="#FABE81" offset="72.0000029%"></stop>
            <stop stop-color="#FCC993" offset="81.0000002%"></stop>
            <stop stop-color="#FED2A3" offset="86.0000014%"></stop>
            <stop stop-color="#FFC28C" offset="97.0000029%"></stop>
        </linearGradient>
        <linearGradient x1="4415.99989%" y1="885.821338%" x2="2125.99997%" y2="1726.0188%" id="linearGradient-12">
            <stop stop-color="#E4C9AF" offset="3.99999991%"></stop>
            <stop stop-color="#F0D8C0" offset="40.0000006%"></stop>
            <stop stop-color="#FFFCFA" offset="100%"></stop>
        </linearGradient>
        <radialGradient cx="3708.99993%" cy="2861.00003%" fx="3708.99993%" fy="2861.00003%" r="2720.53637%" gradientTransform="translate(37.089999,28.610000),scale(0.318320,1.000000),translate(-37.089999,-28.610000)" id="radialGradient-13">
            <stop stop-color="#FFFFFF" offset="0%"></stop>
            <stop stop-color="#000000" offset="100%"></stop>
        </radialGradient>
        <linearGradient x1="5818.30433%" y1="2004.87893%" x2="5553.79633%" y2="2231.81747%" id="linearGradient-14">
            <stop stop-color="#DAB287" offset="4%"></stop>
            <stop stop-color="#DFBFA1" offset="40%"></stop>
            <stop stop-color="#E4C9AF" offset="100%"></stop>
        </linearGradient>
        <linearGradient x1="3131%" y1="3054%" x2="3132%" y2="3054%" id="linearGradient-15">
            <stop stop-color="#FFBB96" offset="0%"></stop>
            <stop stop-color="#FFFBC9" offset="23.0000004%"></stop>
            <stop stop-color="#F9B673" offset="54.0000021%"></stop>
            <stop stop-color="#F9B876" offset="63.9999986%"></stop>
            <stop stop-color="#FABE81" offset="72.0000029%"></stop>
            <stop stop-color="#FCC993" offset="81.0000002%"></stop>
            <stop stop-color="#FED2A3" offset="86.0000014%"></stop>
            <stop stop-color="#FFC28C" offset="97.0000029%"></stop>
        </linearGradient>
        <linearGradient x1="0%" y1="0%" x2="0%" y2="0%" id="linearGradient-16">
            <stop stop-color="#FFBB96" offset="0%"></stop>
            <stop stop-color="#FFFBC9" offset="23.0000004%"></stop>
            <stop stop-color="#F9B673" offset="54.0000021%"></stop>
            <stop stop-color="#F9B876" offset="63.9999986%"></stop>
            <stop stop-color="#FABE81" offset="72.0000029%"></stop>
            <stop stop-color="#FCC993" offset="81.0000002%"></stop>
            <stop stop-color="#FED2A3" offset="86.0000014%"></stop>
            <stop stop-color="#FFC28C" offset="97.0000029%"></stop>
        </linearGradient>
        <linearGradient x1="6050.99983%" y1="285.346335%" x2="2987.99984%" y2="1408.5238%" id="linearGradient-17">
            <stop stop-color="#DAB287" offset="3.99999991%"></stop>
            <stop stop-color="#DFBFA1" offset="40.0000006%"></stop>
            <stop stop-color="#E4C9AF" offset="100%"></stop>
        </linearGradient>
        <radialGradient cx="2484.99998%" cy="4279.00003%" fx="2484.99998%" fy="4279.00003%" r="6298.00258%" gradientTransform="translate(24.850000,42.790000),scale(0.312480,1.000000),translate(-24.850000,-42.790000)" id="radialGradient-18">
            <stop stop-color="#FFFFFF" offset="0%"></stop>
            <stop stop-color="#000000" offset="100%"></stop>
        </radialGradient>
        <linearGradient x1="4415.99989%" y1="885.821445%" x2="2125.99997%" y2="1726.01901%" id="linearGradient-19">
            <stop stop-color="#E4C9AF" offset="3.99999991%"></stop>
            <stop stop-color="#F0D8C0" offset="40.0000006%"></stop>
            <stop stop-color="#FFFCFA" offset="100%"></stop>
        </linearGradient>
        <radialGradient cx="3708.99993%" cy="2861.00003%" fx="3708.99993%" fy="2861.00003%" r="2720.53634%" gradientTransform="translate(37.089999,28.610000),scale(0.318320,1.000000),translate(-37.089999,-28.610000)" id="radialGradient-20">
            <stop stop-color="#FFFFFF" offset="0%"></stop>
            <stop stop-color="#000000" offset="100%"></stop>
        </radialGradient>
        <linearGradient x1="3131%" y1="3054%" x2="3132%" y2="3054%" id="linearGradient-21">
            <stop stop-color="#FFBB96" offset="0%"></stop>
            <stop stop-color="#FFFBC9" offset="23.0000004%"></stop>
            <stop stop-color="#F9B673" offset="54.0000021%"></stop>
            <stop stop-color="#F9B876" offset="63.9999986%"></stop>
            <stop stop-color="#FABE81" offset="72.0000029%"></stop>
            <stop stop-color="#FCC993" offset="81.0000002%"></stop>
            <stop stop-color="#FED2A3" offset="86.0000014%"></stop>
            <stop stop-color="#FFC28C" offset="97.0000029%"></stop>
        </linearGradient>
        <linearGradient x1="6050.99983%" y1="285.34647%" x2="2987.99984%" y2="1408.52458%" id="linearGradient-22">
            <stop stop-color="#DAB287" offset="3.99999991%"></stop>
            <stop stop-color="#DFBFA1" offset="40.0000006%"></stop>
            <stop stop-color="#E4C9AF" offset="100%"></stop>
        </linearGradient>
        <radialGradient cx="2484.99998%" cy="4279.00003%" fx="2484.99998%" fy="4279.00003%" r="6298.00571%" gradientTransform="translate(24.850000,42.790000),scale(0.312480,1.000000),translate(-24.850000,-42.790000)" id="radialGradient-23">
            <stop stop-color="#FFFFFF" offset="0%"></stop>
            <stop stop-color="#000000" offset="100%"></stop>
        </radialGradient>
        <linearGradient x1="4415.99989%" y1="885.821305%" x2="2125.99997%" y2="1726.01873%" id="linearGradient-24">
            <stop stop-color="#E4C9AF" offset="3.99999991%"></stop>
            <stop stop-color="#F0D8C0" offset="40.0000006%"></stop>
            <stop stop-color="#FFFCFA" offset="100%"></stop>
        </linearGradient>
        <radialGradient cx="3708.99993%" cy="2861.00003%" fx="3708.99993%" fy="2861.00003%" r="2720.53599%" gradientTransform="translate(37.089999,28.610000),scale(0.318320,1.000000),translate(-37.089999,-28.610000)" id="radialGradient-25">
            <stop stop-color="#FFFFFF" offset="0%"></stop>
            <stop stop-color="#000000" offset="100%"></stop>
        </radialGradient>
        <linearGradient x1="3131%" y1="3054%" x2="3132%" y2="3054%" id="linearGradient-26">
            <stop stop-color="#FFBB96" offset="0%"></stop>
            <stop stop-color="#FFFBC9" offset="23.0000004%"></stop>
            <stop stop-color="#F9B673" offset="54.0000021%"></stop>
            <stop stop-color="#F9B876" offset="63.9999986%"></stop>
            <stop stop-color="#FABE81" offset="72.0000029%"></stop>
            <stop stop-color="#FCC993" offset="81.0000002%"></stop>
            <stop stop-color="#FED2A3" offset="86.0000014%"></stop>
            <stop stop-color="#FFC28C" offset="97.0000029%"></stop>
        </linearGradient>
        <linearGradient x1="0%" y1="0%" x2="0%" y2="0%" id="linearGradient-27">
            <stop stop-color="#FFBB96" offset="0%"></stop>
            <stop stop-color="#FFFBC9" offset="23.0000004%"></stop>
            <stop stop-color="#F9B673" offset="54.0000021%"></stop>
            <stop stop-color="#F9B876" offset="63.9999986%"></stop>
            <stop stop-color="#FABE81" offset="72.0000029%"></stop>
            <stop stop-color="#FCC993" offset="81.0000002%"></stop>
            <stop stop-color="#FED2A3" offset="86.0000014%"></stop>
            <stop stop-color="#FFC28C" offset="97.0000029%"></stop>
        </linearGradient>
        <linearGradient x1="6050.99983%" y1="285.346261%" x2="2987.99984%" y2="1408.52337%" id="linearGradient-28">
            <stop stop-color="#DAB287" offset="3.99999991%"></stop>
            <stop stop-color="#DFBFA1" offset="40.0000006%"></stop>
            <stop stop-color="#E4C9AF" offset="100%"></stop>
        </linearGradient>
        <radialGradient cx="3708.99993%" cy="2861.00003%" fx="3708.99993%" fy="2861.00003%" r="2720.53709%" gradientTransform="translate(37.089999,28.610000),scale(0.318319,1.000000),translate(-37.089999,-28.610000)" id="radialGradient-29">
            <stop stop-color="#FFFFFF" offset="0%"></stop>
            <stop stop-color="#000000" offset="100%"></stop>
        </radialGradient>
    </defs>
    <g id="Page-1" stroke="none" stroke-width="1" fill="none" fill-rule="evenodd">
        <g id="Frame-624658" transform="translate(-2172.000000, -859.000000)">
            <g id="Group-624640" transform="translate(2199.000000, 246.000000)">
                <g id="coins-golden" filter="url(#filter-1)" transform="translate(46.000000, 680.851807)">
                    <g id="Group-624562" transform="translate(32.013428, 0.000000)">
                        <g id="Group-624554" transform="translate(1.006592, 53.999390)">
                            <g id="Group" opacity="0.150000006" transform="translate(78.447021, 18.538208)" fill="url(#linearGradient-2)" fill-rule="nonzero">
                                <path d="M0.0244827271,0 C-0.0306034062,0.26605828 0.0244827271,0.478910586 0.0244827271,0.691757202 L0.0244827271,0 Z" id="Vector"></path>
                            </g>
                            <path d="M0,47.7456055 L0,71.0376223 L0,71.7242407 C0,98.1324239 35.6721327,119.892761 79.803656,119.892761 C123.935179,119.892761 159.556351,98.3436892 159.556351,71.7242407 L159.556351,71.0376223 L159.556351,47.7456055 L0,47.7456055 Z" id="Vector" fill="#BB9986" fill-rule="nonzero"></path>
                            <g id="Group" style="mix-blend-mode: multiply;" transform="translate(0.000000, 66.706543)" fill-rule="nonzero">
                                <path d="M0,0 L0,4.43658473 L0,5.12320455 C0,31.5314422 35.6721327,53.2918243 79.803656,53.2918243 C123.935179,53.2918243 159.556351,31.7427079 159.556351,5.12320455 L159.556351,4.43658473 L159.556351,0 C159.556351,26.5666882 123.833262,48.1158122 79.803656,48.1158122 C35.723094,48.1158122 0,26.5666882 0,0 Z" id="Vector" fill-opacity="0.5" fill="#A79488" style="mix-blend-mode: multiply;"></path>
                                <path d="M159.554199,1.47924805 L159.554199,2.17101288 L159.554199,1.47924805 Z" id="Vector" fill="url(#linearGradient-3)" style="mix-blend-mode: multiply;"></path>
                            </g>
                            <g id="Group" style="mix-blend-mode: multiply;" transform="translate(3.981445, 55.668091)" fill="#BB9986" fill-opacity="0.5" fill-rule="nonzero">
                                <path d="M102.472168,61.5333784 L102.472168,0.372802734 L100.22998,0.372802734 L100.22998,62.0087204 L102.472168,61.5333784 Z" id="Vector" style="mix-blend-mode: multiply;"></path>
                                <path d="M112.529388,58.8923698 L112.529388,0.372802734 L110.287109,0.372802734 L110.287109,59.5789566 L112.529388,58.8923698 Z" id="Vector" style="mix-blend-mode: multiply;"></path>
                                <path d="M122.557129,55.1427056 L122.557129,0.372802734 L120.314941,0.372802734 L120.314941,56.1462173 L122.557129,55.1427056 Z" id="Vector" style="mix-blend-mode: multiply;"></path>
                                <path d="M92.4308167,63.4873123 L92.4308167,0.372802734 L90.1884766,0.372802734 L90.1884766,63.4873123 L92.4308167,63.4873123 Z" id="Vector" style="mix-blend-mode: multiply;"></path>
                                <path d="M142.592377,42.4621006 L142.592377,0.209228516 L140.350098,0.209228516 L140.350098,44.4162903 C141.114513,43.7824972 141.878922,43.1487097 142.592377,42.4621006 Z" id="Vector" style="mix-blend-mode: multiply;"></path>
                                <path d="M152.634354,29.1040424 L152.634354,0.372802734 L150.39209,0.372802734 L150.39209,33.2236099 C151.207454,31.8504254 151.97187,30.477227 152.634354,29.1040424 Z" id="Vector" style="mix-blend-mode: multiply;"></path>
                                <path d="M132.551178,50.0194626 L132.551178,0.372802734 L130.308838,0.372802734 L130.308838,51.2870255 L132.551178,50.0194626 Z" id="Vector" style="mix-blend-mode: multiply;"></path>
                                <path d="M82.4521484,64.1743088 L82.4521484,0.372802734 L80.2099609,0.372802734 L80.2099609,64.1743088 L82.4521484,64.1743088 Z" id="Vector" style="mix-blend-mode: multiply;"></path>
                                <path d="M72.424408,64.1743088 L72.424408,0.372802734 L70.1821289,0.372802734 L70.1821289,64.1743088 L72.424408,64.1743088 Z" id="Vector" style="mix-blend-mode: multiply;"></path>
                                <path d="M52.388588,62.2201309 L52.388588,0.372802734 L50.1462402,0.372802734 L50.1462402,61.7447877 L52.388588,62.2201309 Z" id="Vector" style="mix-blend-mode: multiply;"></path>
                                <path d="M62.3687439,63.3793106 L62.3687439,0 L60.1264648,0 L60.1264648,63.3793106 L62.3687439,63.3793106 Z" id="Vector" style="mix-blend-mode: multiply;"></path>
                                <path d="M42.3472443,59.843132 L42.3472443,0.372802734 L40.1049805,0.372802734 L40.1049805,59.2093308 L42.3472443,59.843132 Z" id="Vector" style="mix-blend-mode: multiply;"></path>
                                <path d="M2.24226761,34.8611374 L2.24226761,0.372802734 L0,0.372802734 L0,31.1640878 C0.661911025,32.4499765 1.41121919,33.6854324 2.24226761,34.8611374 Z" id="Vector" style="mix-blend-mode: multiply;"></path>
                                <path d="M12.2834473,45.2131271 L12.2834473,0.372802734 L10.0412598,0.372802734 L10.0412598,43.4174011 C10.7546822,44.0511865 11.5190661,44.6321572 12.2834473,45.2131271 Z" id="Vector" style="mix-blend-mode: multiply;"></path>
                                <path d="M32.3042831,56.3573074 L32.3042831,0.372802734 L30.0620117,0.372802734 L30.0620117,55.4594523 L32.3042831,56.3573074 Z" id="Vector" style="mix-blend-mode: multiply;"></path>
                                <path d="M22.2636757,51.8150711 L22.2636757,0.372802734 L20.0214844,0.372802734 L20.0214844,50.6003179 L22.2636757,51.8150711 Z" id="Vector" style="mix-blend-mode: multiply;"></path>
                            </g>
                            <path d="M79.8040875,96.3362961 C35.7297776,96.3362961 0.00048828125,74.7706902 0.00048828125,48.1681581 C0.00048828125,21.565626 35.7297776,0 79.8040875,0 C123.878397,0 159.607697,21.565626 159.607697,48.1681581 C159.607697,74.7706902 123.878397,96.3362961 79.8040875,96.3362961 Z" id="Vector" fill="url(#linearGradient-4)"></path>
                            <path d="M0.0952148438,48.8023682 C0.0952148438,49.3833423 0.0952148438,49.911499 0.0952148438,50.4924732 C0.0952148438,76.9003897 35.7673331,98.6605072 79.8988327,98.6605072 C124.030332,98.6605072 159.651489,77.1116528 159.651489,50.4924732 C159.651489,49.911499 159.651489,49.3833423 159.651489,48.8023682 C157.969804,74.153969 122.705367,95.2802971 79.7969101,95.2802971 C36.6336514,95.2802971 1.5730595,74.6293098 0.0952148438,48.8023682 Z" id="Vector" fill="url(#radialGradient-5)" fill-rule="nonzero" style="mix-blend-mode: screen;"></path>
                            <path d="M79.8049454,84.1886368 C46.8846887,84.1886368 20.1306152,68.0268824 20.1306152,48.1679929 C20.1306152,28.3091033 46.8337299,12.1473389 79.8049454,12.1473389 C112.776161,12.1473389 139.428314,28.2562871 139.428314,48.1679929 C139.428314,68.0268824 112.725202,84.1886368 79.8049454,84.1886368 Z" id="Vector" fill="url(#linearGradient-6)" fill-rule="nonzero"></path>
                            <path d="M141.412498,48.0624695 C141.412498,47.3758594 141.412498,46.7420509 141.412498,46.108257 C141.412498,26.1965642 114.709374,10.0876465 81.789103,10.0876465 C48.8688316,10.0876465 22.1147461,26.1965642 22.1147461,46.108257 C22.1147461,46.7420509 22.1147461,47.3758594 22.1147461,48.0624695 C23.9493124,29.0486518 49.8880389,13.9432239 81.941987,13.9432239 C113.792095,13.9432239 139.730813,29.0486518 141.412498,48.0624695 Z" id="Vector" fill="url(#radialGradient-7)" fill-rule="nonzero" style="mix-blend-mode: screen;"></path>
                            <path d="M139.272118,50.1753311 C139.272118,49.4887152 139.272118,48.8549215 139.272118,48.2211222 C139.272118,28.30926 112.568986,12.2001953 79.6487172,12.2001953 C46.7284485,12.2001953 19.9743652,28.30926 19.9743652,48.2211222 C19.9743652,48.8549215 19.9743652,49.4887152 19.9743652,50.1753311 C21.9618117,31.1085352 47.9005349,16.0558055 79.8016012,16.0558055 C111.651706,16.0558055 137.590432,31.1613518 139.272118,50.1753311 Z" id="Vector" fill="#C08E6A" fill-rule="nonzero" style="mix-blend-mode: multiply;"></path>
                        </g>
                        <g id="Group-624555" transform="translate(1.006592, 26.999512)">
                            <g id="Group" opacity="0.150000006" transform="translate(78.447021, 18.538330)" fill="url(#linearGradient-8)" fill-rule="nonzero">
                                <path d="M0.0244827271,0 C-0.0306034062,0.266061215 0.0244827271,0.478915868 0.0244827271,0.691764832 L0.0244827271,0 Z" id="Vector"></path>
                            </g>
                            <path d="M0,47.7458496 L0,71.0378664 L0,71.7244848 C0,98.132668 35.6721327,119.893005 79.803656,119.893005 C123.935179,119.893005 159.556351,98.3439333 159.556351,71.7244848 L159.556351,71.0378664 L159.556351,47.7458496 L0,47.7458496 Z" id="Vector" fill="#BB9986" fill-rule="nonzero"></path>
                            <g id="Group" style="mix-blend-mode: multiply;" transform="translate(0.000000, 66.706665)" fill-rule="nonzero">
                                <path d="M0,0 L0,4.43658663 L0,5.12320675 C0,31.5314557 35.6721327,53.2918472 79.803656,53.2918472 C123.935179,53.2918472 159.556351,31.7427215 159.556351,5.12320675 L159.556351,4.43658663 L159.556351,0 C159.556351,26.5666996 123.833262,48.1158328 79.803656,48.1158328 C35.723094,48.1158328 0,26.5666996 0,0 Z" id="Vector" fill-opacity="0.5" fill="#A79488" style="mix-blend-mode: multiply;"></path>
                                <path d="M159.554199,1.47949219 L159.554199,2.17125702 L159.554199,1.47949219 Z" id="Vector" fill="url(#linearGradient-3)" style="mix-blend-mode: multiply;"></path>
                            </g>
                            <g id="Group" style="mix-blend-mode: multiply;" transform="translate(3.981445, 55.668579)" fill="#BB9986" fill-opacity="0.5" fill-rule="nonzero">
                                <path d="M102.472168,61.5333784 L102.472168,0.372802734 L100.22998,0.372802734 L100.22998,62.0087204 L102.472168,61.5333784 Z" id="Vector" style="mix-blend-mode: multiply;"></path>
                                <path d="M112.529388,58.8923698 L112.529388,0.372802734 L110.287109,0.372802734 L110.287109,59.5789566 L112.529388,58.8923698 Z" id="Vector" style="mix-blend-mode: multiply;"></path>
                                <path d="M122.557129,55.1427056 L122.557129,0.372802734 L120.314941,0.372802734 L120.314941,56.1462173 L122.557129,55.1427056 Z" id="Vector" style="mix-blend-mode: multiply;"></path>
                                <path d="M92.4308167,63.4873123 L92.4308167,0.372802734 L90.1884766,0.372802734 L90.1884766,63.4873123 L92.4308167,63.4873123 Z" id="Vector" style="mix-blend-mode: multiply;"></path>
                                <path d="M142.592377,42.4620933 L142.592377,0.209228516 L140.350098,0.209228516 L140.350098,44.4162827 C141.114513,43.7824897 141.878922,43.1487023 142.592377,42.4620933 Z" id="Vector" style="mix-blend-mode: multiply;"></path>
                                <path d="M152.634354,29.1040491 L152.634354,0.372802734 L150.39209,0.372802734 L150.39209,33.2236176 C151.207454,31.8504327 151.97187,30.477234 152.634354,29.1040491 Z" id="Vector" style="mix-blend-mode: multiply;"></path>
                                <path d="M132.551178,50.0194626 L132.551178,0.372802734 L130.308838,0.372802734 L130.308838,51.2870255 L132.551178,50.0194626 Z" id="Vector" style="mix-blend-mode: multiply;"></path>
                                <path d="M82.4521484,64.1743088 L82.4521484,0.372802734 L80.2099609,0.372802734 L80.2099609,64.1743088 L82.4521484,64.1743088 Z" id="Vector" style="mix-blend-mode: multiply;"></path>
                                <path d="M72.424408,64.1743088 L72.424408,0.372802734 L70.1821289,0.372802734 L70.1821289,64.1743088 L72.424408,64.1743088 Z" id="Vector" style="mix-blend-mode: multiply;"></path>
                                <path d="M52.388588,62.2201309 L52.388588,0.372802734 L50.1462402,0.372802734 L50.1462402,61.7447877 L52.388588,62.2201309 Z" id="Vector" style="mix-blend-mode: multiply;"></path>
                                <path d="M62.3687439,63.3793106 L62.3687439,0 L60.1264648,0 L60.1264648,63.3793106 L62.3687439,63.3793106 Z" id="Vector" style="mix-blend-mode: multiply;"></path>
                                <path d="M42.3472443,59.8431625 L42.3472443,0.372802734 L40.1049805,0.372802734 L40.1049805,59.209361 L42.3472443,59.8431625 Z" id="Vector" style="mix-blend-mode: multiply;"></path>
                                <path d="M2.24226761,34.8611526 L2.24226761,0.372802734 L0,0.372802734 L0,31.1641015 C0.661911025,32.4499907 1.41121919,33.6854472 2.24226761,34.8611526 Z" id="Vector" style="mix-blend-mode: multiply;"></path>
                                <path d="M12.2834473,45.2131271 L12.2834473,0.372802734 L10.0412598,0.372802734 L10.0412598,43.4174011 C10.7546822,44.0511865 11.5190661,44.6321572 12.2834473,45.2131271 Z" id="Vector" style="mix-blend-mode: multiply;"></path>
                                <path d="M32.3042831,56.3573074 L32.3042831,0.372802734 L30.0620117,0.372802734 L30.0620117,55.4594523 L32.3042831,56.3573074 Z" id="Vector" style="mix-blend-mode: multiply;"></path>
                                <path d="M22.2636757,51.8150711 L22.2636757,0.372802734 L20.0214844,0.372802734 L20.0214844,50.6003179 L22.2636757,51.8150711 Z" id="Vector" style="mix-blend-mode: multiply;"></path>
                            </g>
                            <path d="M79.8040875,96.3362961 C35.7297776,96.3362961 0.00048828125,74.7706902 0.00048828125,48.1681581 C0.00048828125,21.565626 35.7297776,0 79.8040875,0 C123.878397,0 159.607697,21.565626 159.607697,48.1681581 C159.607697,74.7706902 123.878397,96.3362961 79.8040875,96.3362961 Z" id="Vector" fill="url(#linearGradient-4)"></path>
                            <path d="M0.0952148438,48.8026123 C0.0952148438,49.3835865 0.0952148438,49.9117432 0.0952148438,50.4927173 C0.0952148438,76.9006338 35.7673331,98.6607513 79.8988327,98.6607513 C124.030332,98.6607513 159.651489,77.1118969 159.651489,50.4927173 C159.651489,49.9117432 159.651489,49.3835865 159.651489,48.8026123 C157.969804,74.1542131 122.705367,95.2805413 79.7969101,95.2805413 C36.6336514,95.2805413 1.5730595,74.6295539 0.0952148438,48.8026123 Z" id="Vector" fill="url(#radialGradient-5)" fill-rule="nonzero" style="mix-blend-mode: screen;"></path>
                            <path d="M79.8049454,84.1888733 C46.8846887,84.1888733 20.1306152,68.0271207 20.1306152,48.1682332 C20.1306152,28.3093457 46.8337299,12.147583 79.8049454,12.147583 C112.776161,12.147583 139.428314,28.2565296 139.428314,48.1682332 C139.428314,68.0271207 112.725202,84.1888733 79.8049454,84.1888733 Z" id="Vector" fill="url(#linearGradient-9)" fill-rule="nonzero"></path>
                            <path d="M141.412498,48.0627098 C141.412498,47.3760998 141.412498,46.7422914 141.412498,46.1084975 C141.412498,26.1968067 114.709374,10.0878906 81.789103,10.0878906 C48.8688316,10.0878906 22.1147461,26.1968067 22.1147461,46.1084975 C22.1147461,46.7422914 22.1147461,47.3760998 22.1147461,48.0627098 C23.9493124,29.0488941 49.8880389,13.9434676 81.941987,13.9434676 C113.792095,13.9434676 139.730813,29.0488941 141.412498,48.0627098 Z" id="Vector" fill="url(#radialGradient-10)" fill-rule="nonzero" style="mix-blend-mode: screen;"></path>
                            <path d="M139.272118,50.1755676 C139.272118,49.4889519 139.272118,48.8551583 139.272118,48.2213591 C139.272118,28.309501 112.568986,12.2004395 79.6487172,12.2004395 C46.7284485,12.2004395 19.9743652,28.309501 19.9743652,48.2213591 C19.9743652,48.8551583 19.9743652,49.4889519 19.9743652,50.1755676 C21.9618117,31.1087756 47.9005349,16.0560488 79.8016012,16.0560488 C111.651706,16.0560488 137.590432,31.1615921 139.272118,50.1755676 Z" id="Vector" fill="#C08E6A" fill-rule="nonzero" style="mix-blend-mode: multiply;"></path>
                        </g>
                        <g id="Group-624556">
                            <g id="Group-624551">
                                <g id="Group" opacity="0.150000006" transform="translate(78.447021, 18.538330)" fill="url(#linearGradient-11)" fill-rule="nonzero">
                                    <path d="M0.0244750977,0 C-0.0305938695,0.266061215 0.0244750977,0.478915868 0.0244750977,0.691764832 L0.0244750977,0 Z" id="Vector"></path>
                                </g>
                                <path d="M0,47.7456055 L0,71.0376173 L0,71.7242356 C0,98.1324132 35.6721361,119.892746 79.8036637,119.892746 C123.935191,119.892746 159.556366,98.3436785 159.556366,71.7242356 L159.556366,71.0376173 L159.556366,47.7456055 L0,47.7456055 Z" id="Vector" fill="#BB9986" fill-rule="nonzero"></path>
                                <g id="Group" style="mix-blend-mode: multiply;" transform="translate(0.000000, 66.706543)" fill-rule="nonzero">
                                    <path d="M0,0 L0,4.43658663 L0,5.12320675 C0,31.5314557 35.6721361,53.2918472 79.8036637,53.2918472 C123.935191,53.2918472 159.556366,31.7427215 159.556366,5.12320675 L159.556366,4.43658663 L159.556366,0 C159.556366,26.5666996 123.833273,48.1158328 79.8036637,48.1158328 C35.7230974,48.1158328 0,26.5666996 0,0 Z" id="Vector" fill-opacity="0.5" fill="#A79488" style="mix-blend-mode: multiply;"></path>
                                    <path d="M159.553955,1.47949219 L159.553955,2.17125702 L159.553955,1.47949219 Z" id="Vector" fill="url(#linearGradient-3)" style="mix-blend-mode: multiply;"></path>
                                </g>
                                <g id="Group" style="mix-blend-mode: multiply;" transform="translate(3.981445, 55.668335)" fill="#BB9986" fill-opacity="0.5" fill-rule="nonzero">
                                    <path d="M102.472168,61.5333822 L102.472168,0.372802734 L100.22998,0.372802734 L100.22998,62.0087242 L102.472168,61.5333822 Z" id="Vector" style="mix-blend-mode: multiply;"></path>
                                    <path d="M112.529617,58.8923736 L112.529617,0.372802734 L110.287354,0.372802734 L110.287354,59.5789604 L112.529617,58.8923736 Z" id="Vector" style="mix-blend-mode: multiply;"></path>
                                    <path d="M122.556885,55.1427169 L122.556885,0.372802734 L120.314697,0.372802734 L120.314697,56.1462288 L122.556885,55.1427169 Z" id="Vector" style="mix-blend-mode: multiply;"></path>
                                    <path d="M92.431076,63.4873085 L92.431076,0.372802734 L90.1887207,0.372802734 L90.1887207,63.4873085 L92.431076,63.4873085 Z" id="Vector" style="mix-blend-mode: multiply;"></path>
                                    <path d="M142.592377,42.4620933 L142.592377,0.209228516 L140.350098,0.209228516 L140.350098,44.4162827 C141.114513,43.7824897 141.878922,43.1487023 142.592377,42.4620933 Z" id="Vector" style="mix-blend-mode: multiply;"></path>
                                    <path d="M152.634598,29.1040391 L152.634598,0.372802734 L150.392334,0.372802734 L150.392334,33.2236061 C151.207698,31.8504217 151.972114,30.4772235 152.634598,29.1040391 Z" id="Vector" style="mix-blend-mode: multiply;"></path>
                                    <path d="M132.551178,50.0194664 L132.551178,0.372802734 L130.308838,0.372802734 L130.308838,51.2870293 L132.551178,50.0194664 Z" id="Vector" style="mix-blend-mode: multiply;"></path>
                                    <path d="M82.4519043,64.174305 L82.4519043,0.372802734 L80.2097168,0.372802734 L80.2097168,64.174305 L82.4519043,64.174305 Z" id="Vector" style="mix-blend-mode: multiply;"></path>
                                    <path d="M72.4246368,64.174305 L72.4246368,0.372802734 L70.182373,0.372802734 L70.182373,64.174305 L72.4246368,64.174305 Z" id="Vector" style="mix-blend-mode: multiply;"></path>
                                    <path d="M52.3885956,62.2201347 L52.3885956,0.372802734 L50.1462402,0.372802734 L50.1462402,61.7447915 L52.3885956,62.2201347 Z" id="Vector" style="mix-blend-mode: multiply;"></path>
                                    <path d="M62.3689728,63.3793144 L62.3689728,0 L60.126709,0 L60.126709,63.3793144 L62.3689728,63.3793144 Z" id="Vector" style="mix-blend-mode: multiply;"></path>
                                    <path d="M42.3472519,59.8431435 L42.3472519,0.372802734 L40.1049805,0.372802734 L40.1049805,59.2093421 L42.3472519,59.8431435 Z" id="Vector" style="mix-blend-mode: multiply;"></path>
                                    <path d="M2.24226761,34.8611488 L2.24226761,0.372802734 L0,0.372802734 L0,31.1640981 C0.661911025,32.4499872 1.41121919,33.6854435 2.24226761,34.8611488 Z" id="Vector" style="mix-blend-mode: multiply;"></path>
                                    <path d="M12.2834511,45.2131233 L12.2834511,0.372802734 L10.0412598,0.372802734 L10.0412598,43.4173974 C10.7546834,44.0511827 11.5190686,44.6321534 12.2834511,45.2131233 Z" id="Vector" style="mix-blend-mode: multiply;"></path>
                                    <path d="M32.3045273,56.3573112 L32.3045273,0.372802734 L30.0622559,0.372802734 L30.0622559,55.459456 L32.3045273,56.3573112 Z" id="Vector" style="mix-blend-mode: multiply;"></path>
                                    <path d="M22.263916,51.8150673 L22.263916,0.372802734 L20.0217285,0.372802734 L20.0217285,50.6003142 L22.263916,51.8150673 Z" id="Vector" style="mix-blend-mode: multiply;"></path>
                                </g>
                                <path d="M79.8038434,96.3362961 C35.7295335,96.3362961 0.000244140625,74.7706902 0.000244140625,48.1681581 C0.000244140625,21.565626 35.7295335,0 79.8038434,0 C123.878153,0 159.607452,21.565626 159.607452,48.1681581 C159.607452,74.7706902 123.878153,96.3362961 79.8038434,96.3362961 Z" id="Vector" fill="url(#linearGradient-4)"></path>
                                <path d="M0.0952148438,48.8023682 C0.0952148438,49.3833423 0.0952148438,49.911499 0.0952148438,50.4924732 C0.0952148438,76.9003897 35.7673331,98.6605072 79.8988327,98.6605072 C124.030332,98.6605072 159.651489,77.1116528 159.651489,50.4924732 C159.651489,49.911499 159.651489,49.3833423 159.651489,48.8023682 C157.969804,74.153969 122.705367,95.2802971 79.7969101,95.2802971 C36.6336514,95.2802971 1.5730595,74.6293098 0.0952148438,48.8023682 Z" id="Vector" fill="url(#radialGradient-5)" fill-rule="nonzero" style="mix-blend-mode: screen;"></path>
                                <path d="M79.8049416,84.1888733 C46.884687,84.1888733 20.1306152,68.0271207 20.1306152,48.1682332 C20.1306152,28.3093457 46.8337282,12.147583 79.8049416,12.147583 C112.776155,12.147583 139.428307,28.2565296 139.428307,48.1682332 C139.428307,68.0271207 112.725196,84.1888733 79.8049416,84.1888733 Z" id="Vector" fill="url(#linearGradient-12)" fill-rule="nonzero"></path>
                                <path d="M141.412758,48.0624619 C141.412758,47.3758519 141.412758,46.7420436 141.412758,46.1082498 C141.412758,26.1965609 114.70963,10.0876465 81.7893547,10.0876465 C48.8690791,10.0876465 22.1149902,26.1965609 22.1149902,46.1082498 C22.1149902,46.7420436 22.1149902,47.3758519 22.1149902,48.0624619 C23.9495567,29.048648 49.8882866,13.9432231 81.9422388,13.9432231 C113.79235,13.9432231 139.731072,29.048648 141.412758,48.0624619 Z" id="Vector" fill="url(#radialGradient-13)" fill-rule="nonzero" style="mix-blend-mode: screen;"></path>
                                <path d="M139.272133,50.1753273 C139.272133,49.4887115 139.272133,48.8549178 139.272133,48.2211185 C139.272133,28.3092584 112.568998,12.2001953 79.6487249,12.2001953 C46.728452,12.2001953 19.9743652,28.3092584 19.9743652,48.2211185 C19.9743652,48.8549178 19.9743652,49.4887115 19.9743652,50.1753273 C21.961812,31.1085333 47.9005385,16.0558051 79.8016089,16.0558051 C111.651718,16.0558051 137.590447,31.1613499 139.272133,50.1753273 Z" id="Vector" fill-opacity="0.800000012" fill="#C08E6A" fill-rule="nonzero" style="mix-blend-mode: multiply;"></path>
                            </g>
                            <g id="5" transform="translate(33.986572, 20.148193)">
                                <polygon id="Path" fill="#B57951" fill-rule="nonzero" points="38.6781 38.1699 30.3269 33.3484 14.4597 42.5093 22.8108 47.3309"></polygon>
                                <polygon id="Path" fill="#B57951" fill-rule="nonzero" opacity="0.2" points="38.686 38.1699 36.1807 36.7234 20.3134 45.8843 22.8188 47.3308"></polygon>
                                <path d="M26.9808,48.7765 L11.9487,40.0976 C9.1928,38.5065 4.6832,38.5065 1.9273,40.0976 L26.9808,54.5623 C29.7367,52.9712 29.7367,50.3676 26.9808,48.7765 Z" id="Path" fill="#B57951" fill-rule="nonzero"></path>
                                <path d="M26.9935,48.7769 L22.8179,46.3661 C25.5738,47.9572 25.5738,50.5608 22.8179,52.152 L26.9935,54.5627 C29.7494,52.9716 29.7494,50.368 26.9935,48.7769 Z" id="Path" fill="#B57951" fill-rule="nonzero"></path>
                                <path d="M32.0717,42.0749 L23.5535,37.1569 C21.2987,35.855 21.2987,33.7336 23.5535,32.4317 L24.4722,31.9014 L41.1745,41.5445 L40.2559,42.0749 C38.0011,43.3767 34.3266,43.3767 32.0717,42.0749 Z" id="Path" fill="#B57951" fill-rule="nonzero"></path>
                                <path d="M37.8483,39.6158 L36.9296,40.1461 C34.6748,41.4479 31.8354,41.9301 29.5806,40.6283 L32.0859,42.0748 C34.3408,43.3766 38.0153,43.3766 40.2701,42.0747 L41.1887,41.5444 L37.8483,39.6158 Z" id="Path" fill="#B57951" fill-rule="nonzero"></path>
                                <path d="M28.6564,55.5263 L0.2624,39.133 C1.181,38.6026 2.6842,38.6026 3.6029,39.133 L28.6564,53.5977 C29.575,54.1281 29.575,54.9959 28.6564,55.5263 Z" id="Path" fill="#B57951" fill-rule="nonzero"></path>
                                <path d="M28.6622,53.5979 L24.4866,51.1871 C25.4052,51.7175 25.4052,52.5854 24.4866,53.1158 L28.6622,55.5265 C29.5808,54.9962 29.5808,54.1283 28.6622,53.5979 Z" id="Path" fill="#B57951" fill-rule="nonzero" opacity="0.2"></path>
                                <path d="M44.515,41.5445 L24.4722,29.9728 L21.9668,31.4192 C21.0482,31.9496 21.0482,32.8175 21.9668,33.3479 L38.6692,42.991 C39.5878,43.5214 41.091,43.5214 42.0097,42.991 L44.515,41.5445 Z" id="Path" fill="#B57951" fill-rule="nonzero"></path>
                                <path d="M44.515,41.5445 L24.4722,29.9728 L21.9668,31.4192 C21.0482,31.9496 21.0482,32.8175 21.9668,33.3479 L38.6692,42.991 C39.5878,43.5214 41.091,43.5214 42.0097,42.991 L44.515,41.5445 Z" id="Path" fill="#B57951" fill-rule="nonzero"></path>
                                <path d="M40.3536,39.1337 L36.178,39.6159 C37.0131,40.0981 35.4264,41.1106 34.5078,40.5802 L38.6833,42.991 C39.602,43.5214 41.1052,43.5214 42.0238,42.991 L44.5292,41.5445 L40.3536,39.1337 Z" id="Path" fill="#B57951" fill-rule="nonzero" opacity="0.2"></path>
                                <path d="M72.9185,27.0793 L88.786,36.2403 L87.951,36.7225 C79.1818,41.7851 64.9848,41.7851 56.2161,36.7225" id="Path" stroke="#B57951" stroke-width="0.49635" stroke-linecap="round" stroke-linejoin="round"></path>
                                <path d="M49.5308,13.5792 L33.6636,4.41821 L32.8285,4.90037 C24.0597,9.963 24.0597,18.1597 32.8285,23.2223" id="Path" stroke="#B57951" stroke-width="0.49635" stroke-linecap="round" stroke-linejoin="round"></path>
                                <path d="M39.1029,41.3014 L24.9059,33.1048 C19.5612,30.019 19.5612,25.101 24.9059,22.0152 L51.2122,6.8273 L84.6169,26.1135 L58.3107,41.3014 C52.9659,44.3872 44.4477,44.3872 39.1029,41.3014 Z" id="Path" fill="#B57951" fill-rule="nonzero"></path>
                                <path d="M53.7148,11.1677 C53.7148,11.1677 39.5178,19.3644 37.0125,20.8108" id="Path" stroke="#B57951" stroke-width="0.124473" opacity="0.15" stroke-linecap="round" stroke-linejoin="round"></path>
                                <path d="M80.615,23.9841 L54.4208,39.1073 C49.0988,42.18 41.0186,42.4119 36.2008,39.6304 L39.9647,41.8035 C44.7825,44.585 52.8627,44.3531 58.1847,41.2804 L84.3789,26.1572 L80.615,23.9841 Z" id="Path" fill="#B57951" fill-rule="nonzero"></path>
                                <polygon id="Path" fill="#B57951" fill-rule="nonzero" points="87.125 27.5604 48.7095 5.38123 48.7095 8.2742 82.1142 27.5604"></polygon>
                                <polygon id="Path" fill="#B57951" fill-rule="nonzero" opacity="0.2" points="82.5918 24.6918 78.3574 25.2894 82.3566 27.5983 87.391 27.4625"></polygon>
                                <path d="M91.285,26.1151 L51.1998,2.97164 C50.2811,2.44126 48.7779,2.44126 47.8593,2.97163 C46.9407,3.50201 46.9407,4.36989 47.8593,4.90026 L87.945,28.0437 C88.864,28.5741 90.367,28.5741 91.285,28.0437 C92.204,27.5134 92.204,26.6455 91.285,26.1151 Z" id="Path" fill="#B57951" fill-rule="nonzero"></path>
                                <path d="M91.292,26.1146 L86.281,23.2217 C87.2,23.7521 87.2,24.6199 86.281,25.1503 C85.363,25.6807 83.8594,25.6807 82.9408,25.1503 L87.951,28.0432 C88.87,28.5736 90.373,28.5736 91.292,28.0432 C92.211,27.5129 92.211,26.645 91.292,26.1146 Z" id="Path" fill="#B57951" fill-rule="nonzero"></path>
                                <path d="M33.3333,22.933 L31.4125,24.0419" id="Path" stroke="#B57951" stroke-width="0.124473" opacity="0.15" stroke-linecap="round" stroke-linejoin="round"></path>
                                <polygon id="Path" fill="#DAB287" fill-rule="nonzero" points="38.6783 36.4372 30.3271 31.6156 14.4599 40.7766 22.8111 45.5981"></polygon>
                                <polygon id="Path" fill="#8C685C" fill-rule="nonzero" opacity="0.2" points="38.6863 36.4371 36.1809 34.9906 20.3137 44.1516 22.819 45.598"></polygon>
                                <path d="M26.9811,47.0437 L11.9489,38.3649 C9.1931,36.7737 4.6834,36.7737 1.9275,38.3649 L26.9811,52.8295 C29.737,51.2384 29.737,48.6348 26.9811,47.0437 Z" id="Path" fill="#E3C7AC" fill-rule="nonzero"></path>
                                <path d="M26.9937,47.0441 L22.8181,44.6333 C25.574,46.2244 25.574,48.8281 22.8181,50.4192 L26.9937,52.8299 C29.7496,51.2388 29.7496,48.6352 26.9937,47.0441 Z" id="Path" fill="#DAB287" fill-rule="nonzero"></path>
                                <path d="M32.072,40.3421 L23.5538,35.4241 C21.299,34.1223 21.299,32.0008 23.5538,30.6989 L24.4724,30.1686 L41.1748,39.8117 L40.2562,40.3421 C38.0013,41.6439 34.3268,41.6439 32.072,40.3421 Z" id="Path" fill="#DFBFA1" fill-rule="nonzero"></path>
                                <path d="M37.8485,37.883 L36.9299,38.4133 C34.6751,39.7152 31.8357,40.1973 29.5808,38.8955 L32.0862,40.342 C34.341,41.6438 38.0155,41.6438 40.2703,40.342 L41.189,39.8116 L37.8485,37.883 Z" id="Path" fill="#DAB287" fill-rule="nonzero"></path>
                                <path d="M28.6566,53.7935 L0.2626,37.4002 C1.1813,36.8699 2.6845,36.8699 3.6031,37.4002 L28.6566,51.8649 C29.5753,52.3953 29.5753,53.2632 28.6566,53.7935 Z" id="Path" fill="#DAB287" fill-rule="nonzero"></path>
                                <path d="M28.6624,51.8651 L24.4868,49.4543 C25.4054,49.9847 25.4054,50.8526 24.4868,51.383 L28.6624,53.7937 C29.581,53.2634 29.581,52.3955 28.6624,51.8651 Z" id="Path" fill="#8C685C" fill-rule="nonzero" opacity="0.2"></path>
                                <path d="M44.5153,39.8117 L24.4724,28.24 L21.9671,29.6865 C21.0484,30.2168 21.0484,31.0847 21.9671,31.6151 L38.6694,41.2582 C39.5881,41.7886 41.0913,41.7886 42.0099,41.2582 L44.5153,39.8117 Z" id="Path" fill="#F9A74E" fill-rule="nonzero"></path>
                                <path d="M44.5152,39.8117 L24.4724,28.24 L21.9671,29.6865 C21.0484,30.2168 21.0484,31.0847 21.9671,31.6151 L38.6694,41.2582 C39.5881,41.7886 41.0913,41.7886 42.0099,41.2582 L44.5152,39.8117 Z" id="Path" fill="#DAB287" fill-rule="nonzero"></path>
                                <path d="M40.3538,37.401 L36.1782,37.8831 C37.0134,38.3653 35.4266,39.3778 34.508,38.8474 L38.6836,41.2582 C39.6022,41.7886 41.1054,41.7886 42.0241,41.2582 L44.5294,39.8117 L40.3538,37.401 Z" id="Path" fill="#8C685C" fill-rule="nonzero" opacity="0.2"></path>
                                <path d="M72.9187,25.3466 L88.786,34.5075 L87.951,34.9897 C79.1821,40.0523 64.9851,40.0523 56.2163,34.9897" id="Path" stroke="#DAB287" stroke-width="0.49635" stroke-linecap="round" stroke-linejoin="round"></path>
                                <path d="M49.5311,11.8464 L33.6638,2.68542 L32.8287,3.16758 C24.06,8.2302 24.06,16.4269 32.8287,21.4895" id="Path" stroke="#DAB287" stroke-width="0.49635" stroke-linecap="round" stroke-linejoin="round"></path>
                                <path d="M39.1032,39.5686 L24.9062,31.372 C19.5614,28.2862 19.5614,23.3682 24.9062,20.2824 L51.2124,5.09448 L84.6171,24.3807 L58.3109,39.5686 C52.9661,42.6544 44.4479,42.6544 39.1032,39.5686 Z" id="Path" fill="#E3C7AC" fill-rule="nonzero"></path>
                                <path d="M39.1032,39.5686 L24.9062,31.372 C19.5614,28.2862 19.5614,23.3682 24.9062,20.2824 L51.2124,5.09448 L84.6171,24.3807 L58.3109,39.5686 C52.9661,42.6544 44.4479,42.6544 39.1032,39.5686 Z" id="Path" fill="#E3C7AC" fill-rule="nonzero"></path>
                                <path d="M53.7151,9.4349 C53.7151,9.4349 39.5181,17.6316 37.0127,19.0781" id="Path" stroke="#FFFFFF" stroke-width="0.124473" opacity="0.15" stroke-linecap="round" stroke-linejoin="round"></path>
                                <path d="M80.6153,22.2513 L54.421,37.3745 C49.099,40.4472 41.0189,40.6792 36.2011,37.8976 L39.965,40.0707 C44.7828,42.8522 52.863,42.6203 58.185,39.5476 L84.3792,24.4244 L80.6153,22.2513 Z" id="Path" fill="#DAB287" fill-rule="nonzero"></path>
                                <polygon id="Path" fill="#DAB287" fill-rule="nonzero" points="87.125 25.8276 48.7097 3.64844 48.7097 6.5414 82.1145 25.8276"></polygon>
                                <polygon id="Path" fill="#8C685C" fill-rule="nonzero" opacity="0.2" points="82.5921 22.959 78.3577 23.5566 82.3569 25.8655 87.391 25.7297"></polygon>
                                <path d="M91.286,24.3823 L51.2,1.23885 C50.2814,0.70848 48.7782,0.70848 47.8595,1.23885 C46.9409,1.76922 46.9409,2.6371 47.8596,3.16747 L87.945,26.3109 C88.864,26.8413 90.367,26.8413 91.286,26.3109 C92.204,25.7806 92.204,24.9127 91.286,24.3823 Z" id="Path" fill="#E3C7AC" fill-rule="nonzero"></path>
                                <path d="M91.286,24.3823 L51.2,1.23885 C50.2814,0.70848 48.7782,0.70848 47.8595,1.23885 C46.9409,1.76922 46.9409,2.6371 47.8596,3.16747 L87.945,26.3109 C88.864,26.8413 90.367,26.8413 91.286,26.3109 C92.204,25.7806 92.204,24.9127 91.286,24.3823 Z" id="Path" fill="url(#linearGradient-14)" fill-rule="nonzero"></path>
                                <path d="M91.292,24.3818 L86.281,21.4889 C87.2,22.0193 87.2,22.8871 86.281,23.4175 C85.363,23.9479 83.8597,23.9479 82.941,23.4175 L87.952,26.3104 C88.87,26.8408 90.374,26.8408 91.292,26.3104 C92.211,25.7801 92.211,24.9122 91.292,24.3818 Z" id="Path" fill="#DAB287" fill-rule="nonzero"></path>
                                <path d="M33.3335,21.2002 L31.4127,22.3092" id="Path" stroke="#FFFFFF" stroke-width="0.124473" opacity="0.15" stroke-linecap="round" stroke-linejoin="round"></path>
                            </g>
                        </g>
                    </g>
                    <g id="Group-624563" transform="translate(136.998291, 89.998535)">
                        <g id="Group-624557" transform="translate(0.000000, 26.999756)">
                            <g id="Group" opacity="0.150000006" transform="translate(78.461914, 18.538086)" fill="url(#linearGradient-15)" fill-rule="nonzero">
                                <path d="M0.0244598389,0 C-0.030574796,0.26605828 0.0244598389,0.478910586 0.0244598389,0.691757202 L0.0244598389,0 Z" id="Vector"></path>
                            </g>
                            <path d="M0,47.7457275 L0,71.0377443 L0,71.7243627 C0,98.132546 35.6721361,119.892883 79.8036637,119.892883 C123.935191,119.892883 159.556366,98.3438112 159.556366,71.7243627 L159.556366,71.0377443 L159.556366,47.7457275 L0,47.7457275 Z" id="Vector" fill="#BB9986" fill-rule="nonzero"></path>
                            <g id="Group" style="mix-blend-mode: multiply;" transform="translate(0.000000, 66.706543)" fill-rule="nonzero">
                                <path d="M0,0 L0,4.436586 L0,5.12320601 C0,31.5314512 35.6721361,53.2918396 79.8036637,53.2918396 C123.935191,53.2918396 159.556366,31.742717 159.556366,5.12320601 L159.556366,4.436586 L159.556366,0 C159.556366,26.5666958 123.833273,48.115826 79.8036637,48.115826 C35.7230974,48.115826 0,26.5666958 0,0 Z" id="Vector" fill-opacity="0.5" fill="#A79488" style="mix-blend-mode: multiply;"></path>
                                <path d="M159.553711,1.47961426 L159.553711,2.17138672 L159.553711,1.47961426 Z" id="Vector" fill="url(#linearGradient-16)" style="mix-blend-mode: multiply;"></path>
                            </g>
                            <g id="Group" style="mix-blend-mode: multiply;" transform="translate(3.982178, 55.668213)" fill="#BB9986" fill-opacity="0.5" fill-rule="nonzero">
                                <path d="M102.472168,61.533386 L102.472168,0.372802734 L100.22998,0.372802734 L100.22998,62.008728 L102.472168,61.533386 Z" id="Vector" style="mix-blend-mode: multiply;"></path>
                                <path d="M112.529373,58.8923773 L112.529373,0.372802734 L110.287109,0.372802734 L110.287109,59.5789642 L112.529373,58.8923773 Z" id="Vector" style="mix-blend-mode: multiply;"></path>
                                <path d="M122.557129,55.1427131 L122.557129,0.372802734 L120.314941,0.372802734 L120.314941,56.146225 L122.557129,55.1427131 Z" id="Vector" style="mix-blend-mode: multiply;"></path>
                                <path d="M92.4308167,63.4873047 L92.4308167,0.372802734 L90.1884766,0.372802734 L90.1884766,63.4873047 L92.4308167,63.4873047 Z" id="Vector" style="mix-blend-mode: multiply;"></path>
                                <path d="M142.592377,42.4622081 L142.592377,0.209350586 L140.350098,0.209350586 L140.350098,44.4163971 C141.114513,43.7826042 141.878922,43.148817 142.592377,42.4622081 Z" id="Vector" style="mix-blend-mode: multiply;"></path>
                                <path d="M152.634369,29.1040491 L152.634369,0.372802734 L150.39209,0.372802734 L150.39209,33.2236176 C151.20746,31.8504327 151.971881,30.477234 152.634369,29.1040491 Z" id="Vector" style="mix-blend-mode: multiply;"></path>
                                <path d="M132.551178,50.0194552 L132.551178,0.372802734 L130.308838,0.372802734 L130.308838,51.2870178 L132.551178,50.0194552 Z" id="Vector" style="mix-blend-mode: multiply;"></path>
                                <path d="M82.4521484,64.1743011 L82.4521484,0.372802734 L80.2099609,0.372802734 L80.2099609,64.1743011 L82.4521484,64.1743011 Z" id="Vector" style="mix-blend-mode: multiply;"></path>
                                <path d="M72.4246368,64.1743011 L72.4246368,0.372802734 L70.182373,0.372802734 L70.182373,64.1743011 L72.4246368,64.1743011 Z" id="Vector" style="mix-blend-mode: multiply;"></path>
                                <path d="M52.3885803,62.2201385 L52.3885803,0.372802734 L50.1462402,0.372802734 L50.1462402,61.7447952 L52.3885803,62.2201385 Z" id="Vector" style="mix-blend-mode: multiply;"></path>
                                <path d="M62.3687439,63.379303 L62.3687439,0 L60.1264648,0 L60.1264648,63.379303 L62.3687439,63.379303 Z" id="Vector" style="mix-blend-mode: multiply;"></path>
                                <path d="M42.3472595,59.8431396 L42.3472595,0.372802734 L40.1049805,0.372802734 L40.1049805,59.2093384 L42.3472595,59.8431396 Z" id="Vector" style="mix-blend-mode: multiply;"></path>
                                <path d="M2.24226379,34.861145 L2.24226379,0.372802734 L0,0.372802734 L0,31.1640947 C0.661909899,32.4499836 1.41121679,33.6854398 2.24226379,34.861145 Z" id="Vector" style="mix-blend-mode: multiply;"></path>
                                <path d="M12.2836914,45.2131195 L12.2836914,0.372802734 L10.0415039,0.372802734 L10.0415039,43.4173938 C10.7549263,44.051179 11.5193102,44.6321497 12.2836914,45.2131195 Z" id="Vector" style="mix-blend-mode: multiply;"></path>
                                <path d="M32.3042908,56.3572998 L32.3042908,0.372802734 L30.0620117,0.372802734 L30.0620117,55.4594448 L32.3042908,56.3572998 Z" id="Vector" style="mix-blend-mode: multiply;"></path>
                                <path d="M22.2636719,51.8150635 L22.2636719,0.372802734 L20.0214844,0.372802734 L20.0214844,50.6003105 L22.2636719,51.8150635 Z" id="Vector" style="mix-blend-mode: multiply;"></path>
                            </g>
                            <path d="M79.8043393,96.3363037 C35.7300252,96.3363037 0.000732421875,74.7706961 0.000732421875,48.1681619 C0.000732421875,21.5656277 35.7300252,0 79.8043393,0 C123.878653,0 159.607956,21.5656277 159.607956,48.1681619 C159.607956,74.7706961 123.878653,96.3363037 79.8043393,96.3363037 Z" id="Vector" fill="url(#linearGradient-17)"></path>
                            <path d="M0.0952148438,48.8022461 C0.0952148438,49.3832203 0.0952148438,49.911377 0.0952148438,50.4923511 C0.0952148438,76.9002676 35.7673263,98.6603851 79.8988175,98.6603851 C124.030309,98.6603851 159.651459,77.1115307 159.651459,50.4923511 C159.651459,49.911377 159.651459,49.3832203 159.651459,48.8022461 C157.969774,74.1538469 122.705343,95.280175 79.7968948,95.280175 C36.6336444,95.280175 1.57305922,74.6291877 0.0952148438,48.8022461 Z" id="Vector" fill="url(#radialGradient-18)" fill-rule="nonzero" style="mix-blend-mode: screen;"></path>
                            <path d="M79.8049377,84.1888733 C46.8846853,84.1888733 20.1306152,68.0271207 20.1306152,48.1682332 C20.1306152,28.3093457 46.8337264,12.147583 79.8049377,12.147583 C112.776149,12.147583 139.428299,28.2565296 139.428299,48.1682332 C139.428299,68.0271207 112.72519,84.1888733 79.8049377,84.1888733 Z" id="Vector" fill="url(#linearGradient-19)" fill-rule="nonzero"></path>
                            <path d="M141.412781,48.0625916 C141.412781,47.3759815 141.412781,46.742173 141.412781,46.1083791 C141.412781,26.1966863 114.709648,10.0877686 81.7893662,10.0877686 C48.8690843,10.0877686 22.1149902,26.1966863 22.1149902,46.1083791 C22.1149902,46.742173 22.1149902,47.3759815 22.1149902,48.0625916 C23.9495571,29.0487739 49.8882919,13.9433459 81.9422502,13.9433459 C113.792368,13.9433459 139.731094,29.0487739 141.412781,48.0625916 Z" id="Vector" fill="url(#radialGradient-20)" fill-rule="nonzero" style="mix-blend-mode: screen;"></path>
                            <path d="M139.272141,50.1753082 C139.272141,49.4886927 139.272141,48.8548994 139.272141,48.2211005 C139.272141,28.3092503 112.569004,12.2001953 79.6487287,12.2001953 C46.7284537,12.2001953 19.9743652,28.3092503 19.9743652,48.2211005 C19.9743652,48.8548994 19.9743652,49.4886927 19.9743652,50.1753082 C21.9618121,31.1085238 47.9005403,16.0558031 79.8016127,16.0558031 C111.651724,16.0558031 137.590455,31.1613404 139.272141,50.1753082 Z" id="Vector" fill="#C08E6A" fill-rule="nonzero" style="mix-blend-mode: multiply;"></path>
                        </g>
                        <g id="Group-624558" transform="translate(0.000488, 0.000000)">
                            <g id="Group-624551">
                                <g id="Group" opacity="0.150000006" transform="translate(78.461914, 18.538330)" fill="url(#linearGradient-21)" fill-rule="nonzero">
                                    <path d="M0.0244598389,0 C-0.030574796,0.266064149 0.0244598389,0.47892115 0.0244598389,0.691772461 L0.0244598389,0 Z" id="Vector"></path>
                                </g>
                                <path d="M0,47.7456055 L0,71.0376223 L0,71.7242407 C0,98.1324239 35.6721395,119.892761 79.8036713,119.892761 C123.935203,119.892761 159.556381,98.3436892 159.556381,71.7242407 L159.556381,71.0376223 L159.556381,47.7456055 L0,47.7456055 Z" id="Vector" fill="#BB9986" fill-rule="nonzero"></path>
                                <g id="Group" style="mix-blend-mode: multiply;" transform="translate(0.000000, 66.706787)" fill-rule="nonzero">
                                    <path d="M0,0 L0,4.436586 L0,5.12320601 C0,31.5314512 35.6721395,53.2918396 79.8036713,53.2918396 C123.935203,53.2918396 159.556381,31.742717 159.556381,5.12320601 L159.556381,4.436586 L159.556381,0 C159.556381,26.5666958 123.833285,48.115826 79.8036713,48.115826 C35.7231009,48.115826 0,26.5666958 0,0 Z" id="Vector" fill-opacity="0.5" fill="#A79488" style="mix-blend-mode: multiply;"></path>
                                    <path d="M159.553711,1.47924805 L159.553711,2.17102051 L159.553711,1.47924805 Z" id="Vector" fill="url(#linearGradient-16)" style="mix-blend-mode: multiply;"></path>
                                </g>
                                <g id="Group" style="mix-blend-mode: multiply;" transform="translate(3.982178, 55.668335)" fill="#BB9986" fill-opacity="0.5" fill-rule="nonzero">
                                    <path d="M102.472168,61.5333708 L102.472168,0.372802734 L100.22998,0.372802734 L100.22998,62.0087128 L102.472168,61.5333708 Z" id="Vector" style="mix-blend-mode: multiply;"></path>
                                    <path d="M112.529373,58.8923623 L112.529373,0.372802734 L110.287109,0.372802734 L110.287109,59.578949 L112.529373,58.8923623 Z" id="Vector" style="mix-blend-mode: multiply;"></path>
                                    <path d="M122.557129,55.1426982 L122.557129,0.372802734 L120.314941,0.372802734 L120.314941,56.1462097 L122.557129,55.1426982 Z" id="Vector" style="mix-blend-mode: multiply;"></path>
                                    <path d="M92.4308167,63.4872894 L92.4308167,0.372802734 L90.1884766,0.372802734 L90.1884766,63.4872894 L92.4308167,63.4872894 Z" id="Vector" style="mix-blend-mode: multiply;"></path>
                                    <path d="M142.592377,42.4618419 L142.592377,0.208984375 L140.350098,0.208984375 L140.350098,44.4160309 C141.114513,43.782238 141.878922,43.1484508 142.592377,42.4618419 Z" id="Vector" style="mix-blend-mode: multiply;"></path>
                                    <path d="M152.634369,29.1040358 L152.634369,0.372802734 L150.39209,0.372802734 L150.39209,33.2236023 C151.20746,31.8504181 151.971881,30.47722 152.634369,29.1040358 Z" id="Vector" style="mix-blend-mode: multiply;"></path>
                                    <path d="M132.551178,50.0194552 L132.551178,0.372802734 L130.308838,0.372802734 L130.308838,51.2870178 L132.551178,50.0194552 Z" id="Vector" style="mix-blend-mode: multiply;"></path>
                                    <path d="M82.4521484,64.1743011 L82.4521484,0.372802734 L80.2099609,0.372802734 L80.2099609,64.1743011 L82.4521484,64.1743011 Z" id="Vector" style="mix-blend-mode: multiply;"></path>
                                    <path d="M72.4246368,64.1743011 L72.4246368,0.372802734 L70.182373,0.372802734 L70.182373,64.1743011 L72.4246368,64.1743011 Z" id="Vector" style="mix-blend-mode: multiply;"></path>
                                    <path d="M52.3885803,62.2201233 L52.3885803,0.372802734 L50.1462402,0.372802734 L50.1462402,61.7447801 L52.3885803,62.2201233 Z" id="Vector" style="mix-blend-mode: multiply;"></path>
                                    <path d="M62.3687439,63.3793182 L62.3687439,0 L60.1264648,0 L60.1264648,63.3793182 L62.3687439,63.3793182 Z" id="Vector" style="mix-blend-mode: multiply;"></path>
                                    <path d="M42.3472443,59.8431396 L42.3472443,0.372802734 L40.1049805,0.372802734 L40.1049805,59.2093384 L42.3472443,59.8431396 Z" id="Vector" style="mix-blend-mode: multiply;"></path>
                                    <path d="M2.24226379,34.8611298 L2.24226379,0.372802734 L0,0.372802734 L0,31.164081 C0.661909899,32.4499695 1.41121679,33.6854251 2.24226379,34.8611298 Z" id="Vector" style="mix-blend-mode: multiply;"></path>
                                    <path d="M12.2834473,45.2131042 L12.2834473,0.372802734 L10.0412598,0.372802734 L10.0412598,43.4173791 C10.7546822,44.0511642 11.5190661,44.6321346 12.2834473,45.2131042 Z" id="Vector" style="mix-blend-mode: multiply;"></path>
                                    <path d="M32.3042908,56.3572845 L32.3042908,0.372802734 L30.0620117,0.372802734 L30.0620117,55.4594298 L32.3042908,56.3572845 Z" id="Vector" style="mix-blend-mode: multiply;"></path>
                                    <path d="M22.2636566,51.8150482 L22.2636566,0.372802734 L20.0214844,0.372802734 L20.0214844,50.6002956 L22.2636566,51.8150482 Z" id="Vector" style="mix-blend-mode: multiply;"></path>
                                </g>
                                <path d="M79.8184766,96.3363037 C35.7441751,96.3363037 0.0148925781,74.7706961 0.0148925781,48.1681619 C0.0148925781,21.5656277 35.7441751,0 79.8184766,0 C123.892778,0 159.62207,21.5656277 159.62207,48.1681619 C159.62207,74.7706961 123.892778,96.3363037 79.8184766,96.3363037 Z" id="Vector" fill="url(#linearGradient-22)"></path>
                                <path d="M0.0952148438,48.8026123 C0.0952148438,49.3835863 0.0952148438,49.9117428 0.0952148438,50.4927168 C0.0952148438,76.9006252 35.7673331,98.6607361 79.8988327,98.6607361 C124.030332,98.6607361 159.651489,77.1118883 159.651489,50.4927168 C159.651489,49.9117428 159.651489,49.3835863 159.651489,48.8026123 C157.969804,74.1542054 122.705367,95.280527 79.7969101,95.280527 C36.6336514,95.280527 1.5730595,74.629546 0.0952148438,48.8026123 Z" id="Vector" fill="url(#radialGradient-23)" fill-rule="nonzero" style="mix-blend-mode: screen;"></path>
                                <path d="M79.8049301,84.188858 C46.8846819,84.188858 20.1306152,68.0271088 20.1306152,48.1682256 C20.1306152,28.3093423 46.833723,12.147583 79.8049301,12.147583 C112.776137,12.147583 139.428284,28.2565262 139.428284,48.1682256 C139.428284,68.0271088 112.725178,84.188858 79.8049301,84.188858 Z" id="Vector" fill="url(#linearGradient-24)" fill-rule="nonzero"></path>
                                <path d="M141.412766,48.0627136 C141.412766,47.3761035 141.412766,46.7422951 141.412766,46.1085011 C141.412766,26.1968083 114.709636,10.0878906 81.7893585,10.0878906 C48.8690809,10.0878906 22.1149902,26.1968083 22.1149902,46.1085011 C22.1149902,46.7422951 22.1149902,47.3761035 22.1149902,48.0627136 C23.9495569,29.048896 49.8882884,13.943468 81.9422426,13.943468 C113.792356,13.943468 139.731079,29.048896 141.412766,48.0627136 Z" id="Vector" fill="url(#radialGradient-25)" fill-rule="nonzero" style="mix-blend-mode: screen;"></path>
                                <path d="M139.272125,50.1755905 C139.272125,49.4889743 139.272125,48.8551803 139.272125,48.2213808 C139.272125,28.3095107 112.568992,12.2004395 79.648721,12.2004395 C46.7284503,12.2004395 19.9743652,28.3095107 19.9743652,48.2213808 C19.9743652,48.8551803 19.9743652,49.4889743 19.9743652,50.1755905 C21.9618118,31.108787 47.9005367,16.0560512 79.8016051,16.0560512 C111.651712,16.0560512 137.59044,31.1616035 139.272125,50.1755905 Z" id="Vector" fill-opacity="0.800000012" fill="#C08E6A" fill-rule="nonzero" style="mix-blend-mode: multiply;"></path>
                            </g>
                            <g id="5" transform="translate(34.001221, 20.149658)">
                                <polygon id="Path" fill="#B57951" fill-rule="nonzero" points="38.6781 38.1699 30.3269 33.3484 14.4597 42.5093 22.8108 47.3309"></polygon>
                                <polygon id="Path" fill="#B57951" fill-rule="nonzero" opacity="0.2" points="38.686 38.1699 36.1807 36.7234 20.3134 45.8843 22.8188 47.3308"></polygon>
                                <path d="M26.9808,48.7765 L11.9487,40.0976 C9.1928,38.5065 4.6832,38.5065 1.9273,40.0976 L26.9808,54.5623 C29.7367,52.9712 29.7367,50.3676 26.9808,48.7765 Z" id="Path" fill="#B57951" fill-rule="nonzero"></path>
                                <path d="M26.9935,48.7769 L22.8179,46.3661 C25.5738,47.9572 25.5738,50.5608 22.8179,52.152 L26.9935,54.5627 C29.7494,52.9716 29.7494,50.368 26.9935,48.7769 Z" id="Path" fill="#B57951" fill-rule="nonzero"></path>
                                <path d="M32.0717,42.0749 L23.5535,37.1569 C21.2987,35.855 21.2987,33.7336 23.5535,32.4317 L24.4722,31.9014 L41.1745,41.5445 L40.2559,42.0749 C38.0011,43.3767 34.3266,43.3767 32.0717,42.0749 Z" id="Path" fill="#B57951" fill-rule="nonzero"></path>
                                <path d="M37.8483,39.6158 L36.9296,40.1461 C34.6748,41.4479 31.8354,41.9301 29.5806,40.6283 L32.0859,42.0748 C34.3408,43.3766 38.0153,43.3766 40.2701,42.0747 L41.1887,41.5444 L37.8483,39.6158 Z" id="Path" fill="#B57951" fill-rule="nonzero"></path>
                                <path d="M28.6564,55.5263 L0.2624,39.133 C1.181,38.6026 2.6842,38.6026 3.6029,39.133 L28.6564,53.5977 C29.575,54.1281 29.575,54.9959 28.6564,55.5263 Z" id="Path" fill="#B57951" fill-rule="nonzero"></path>
                                <path d="M28.6622,53.5979 L24.4866,51.1871 C25.4052,51.7175 25.4052,52.5854 24.4866,53.1158 L28.6622,55.5265 C29.5808,54.9962 29.5808,54.1283 28.6622,53.5979 Z" id="Path" fill="#B57951" fill-rule="nonzero" opacity="0.2"></path>
                                <path d="M44.515,41.5445 L24.4722,29.9728 L21.9668,31.4192 C21.0482,31.9496 21.0482,32.8175 21.9668,33.3479 L38.6692,42.991 C39.5878,43.5214 41.091,43.5214 42.0097,42.991 L44.515,41.5445 Z" id="Path" fill="#B57951" fill-rule="nonzero"></path>
                                <path d="M44.515,41.5445 L24.4722,29.9728 L21.9668,31.4192 C21.0482,31.9496 21.0482,32.8175 21.9668,33.3479 L38.6692,42.991 C39.5878,43.5214 41.091,43.5214 42.0097,42.991 L44.515,41.5445 Z" id="Path" fill="#B57951" fill-rule="nonzero"></path>
                                <path d="M40.3536,39.1337 L36.178,39.6159 C37.0131,40.0981 35.4264,41.1106 34.5078,40.5802 L38.6833,42.991 C39.602,43.5214 41.1052,43.5214 42.0238,42.991 L44.5292,41.5445 L40.3536,39.1337 Z" id="Path" fill="#B57951" fill-rule="nonzero" opacity="0.2"></path>
                                <path d="M72.9185,27.0793 L88.786,36.2403 L87.951,36.7225 C79.1818,41.7851 64.9848,41.7851 56.2161,36.7225" id="Path" stroke="#B57951" stroke-width="0.49635" stroke-linecap="round" stroke-linejoin="round"></path>
                                <path d="M49.5308,13.5792 L33.6636,4.41821 L32.8285,4.90037 C24.0597,9.963 24.0597,18.1597 32.8285,23.2223" id="Path" stroke="#B57951" stroke-width="0.49635" stroke-linecap="round" stroke-linejoin="round"></path>
                                <path d="M39.1029,41.3014 L24.9059,33.1048 C19.5612,30.019 19.5612,25.101 24.9059,22.0152 L51.2122,6.8273 L84.6169,26.1135 L58.3107,41.3014 C52.9659,44.3872 44.4477,44.3872 39.1029,41.3014 Z" id="Path" fill="#B57951" fill-rule="nonzero"></path>
                                <path d="M53.7148,11.1677 C53.7148,11.1677 39.5178,19.3644 37.0125,20.8108" id="Path" stroke="#B57951" stroke-width="0.124473" opacity="0.15" stroke-linecap="round" stroke-linejoin="round"></path>
                                <path d="M80.615,23.9841 L54.4208,39.1073 C49.0988,42.18 41.0186,42.4119 36.2008,39.6304 L39.9647,41.8035 C44.7825,44.585 52.8627,44.3531 58.1847,41.2804 L84.3789,26.1572 L80.615,23.9841 Z" id="Path" fill="#B57951" fill-rule="nonzero"></path>
                                <polygon id="Path" fill="#B57951" fill-rule="nonzero" points="87.125 27.5604 48.7095 5.38123 48.7095 8.2742 82.1142 27.5604"></polygon>
                                <polygon id="Path" fill="#B57951" fill-rule="nonzero" opacity="0.2" points="82.5918 24.6918 78.3574 25.2894 82.3566 27.5983 87.391 27.4625"></polygon>
                                <path d="M91.285,26.1151 L51.1998,2.97164 C50.2811,2.44126 48.7779,2.44126 47.8593,2.97163 C46.9407,3.50201 46.9407,4.36989 47.8593,4.90026 L87.945,28.0437 C88.864,28.5741 90.367,28.5741 91.285,28.0437 C92.204,27.5134 92.204,26.6455 91.285,26.1151 Z" id="Path" fill="#B57951" fill-rule="nonzero"></path>
                                <path d="M91.292,26.1146 L86.281,23.2217 C87.2,23.7521 87.2,24.6199 86.281,25.1503 C85.363,25.6807 83.8594,25.6807 82.9408,25.1503 L87.951,28.0432 C88.87,28.5736 90.373,28.5736 91.292,28.0432 C92.211,27.5129 92.211,26.645 91.292,26.1146 Z" id="Path" fill="#B57951" fill-rule="nonzero"></path>
                                <path d="M33.3333,22.933 L31.4125,24.0419" id="Path" stroke="#B57951" stroke-width="0.124473" opacity="0.15" stroke-linecap="round" stroke-linejoin="round"></path>
                                <polygon id="Path" fill="#DAB287" fill-rule="nonzero" points="38.6783 36.4372 30.3271 31.6156 14.4599 40.7766 22.8111 45.5981"></polygon>
                                <polygon id="Path" fill="#8C685C" fill-rule="nonzero" opacity="0.2" points="38.6863 36.4371 36.1809 34.9906 20.3137 44.1516 22.819 45.598"></polygon>
                                <path d="M26.9811,47.0437 L11.9489,38.3649 C9.1931,36.7737 4.6834,36.7737 1.9275,38.3649 L26.9811,52.8295 C29.737,51.2384 29.737,48.6348 26.9811,47.0437 Z" id="Path" fill="#E3C7AC" fill-rule="nonzero"></path>
                                <path d="M26.9937,47.0441 L22.8181,44.6333 C25.574,46.2244 25.574,48.8281 22.8181,50.4192 L26.9937,52.8299 C29.7496,51.2388 29.7496,48.6352 26.9937,47.0441 Z" id="Path" fill="#DAB287" fill-rule="nonzero"></path>
                                <path d="M32.072,40.3421 L23.5538,35.4241 C21.299,34.1223 21.299,32.0008 23.5538,30.6989 L24.4724,30.1686 L41.1748,39.8117 L40.2562,40.3421 C38.0013,41.6439 34.3268,41.6439 32.072,40.3421 Z" id="Path" fill="#DFBFA1" fill-rule="nonzero"></path>
                                <path d="M37.8485,37.883 L36.9299,38.4133 C34.6751,39.7152 31.8357,40.1973 29.5808,38.8955 L32.0862,40.342 C34.341,41.6438 38.0155,41.6438 40.2703,40.342 L41.189,39.8116 L37.8485,37.883 Z" id="Path" fill="#DAB287" fill-rule="nonzero"></path>
                                <path d="M28.6566,53.7935 L0.2626,37.4002 C1.1813,36.8699 2.6845,36.8699 3.6031,37.4002 L28.6566,51.8649 C29.5753,52.3953 29.5753,53.2632 28.6566,53.7935 Z" id="Path" fill="#DAB287" fill-rule="nonzero"></path>
                                <path d="M28.6624,51.8651 L24.4868,49.4543 C25.4054,49.9847 25.4054,50.8526 24.4868,51.383 L28.6624,53.7937 C29.581,53.2634 29.581,52.3955 28.6624,51.8651 Z" id="Path" fill="#8C685C" fill-rule="nonzero" opacity="0.2"></path>
                                <path d="M44.5153,39.8117 L24.4724,28.24 L21.9671,29.6865 C21.0484,30.2168 21.0484,31.0847 21.9671,31.6151 L38.6694,41.2582 C39.5881,41.7886 41.0913,41.7886 42.0099,41.2582 L44.5153,39.8117 Z" id="Path" fill="#F9A74E" fill-rule="nonzero"></path>
                                <path d="M44.5152,39.8117 L24.4724,28.24 L21.9671,29.6865 C21.0484,30.2168 21.0484,31.0847 21.9671,31.6151 L38.6694,41.2582 C39.5881,41.7886 41.0913,41.7886 42.0099,41.2582 L44.5152,39.8117 Z" id="Path" fill="#DAB287" fill-rule="nonzero"></path>
                                <path d="M40.3538,37.401 L36.1782,37.8831 C37.0134,38.3653 35.4266,39.3778 34.508,38.8474 L38.6836,41.2582 C39.6022,41.7886 41.1054,41.7886 42.0241,41.2582 L44.5294,39.8117 L40.3538,37.401 Z" id="Path" fill="#8C685C" fill-rule="nonzero" opacity="0.2"></path>
                                <path d="M72.9187,25.3466 L88.786,34.5075 L87.951,34.9897 C79.1821,40.0523 64.9851,40.0523 56.2163,34.9897" id="Path" stroke="#DAB287" stroke-width="0.49635" stroke-linecap="round" stroke-linejoin="round"></path>
                                <path d="M49.5311,11.8464 L33.6638,2.68542 L32.8287,3.16758 C24.06,8.2302 24.06,16.4269 32.8287,21.4895" id="Path" stroke="#DAB287" stroke-width="0.49635" stroke-linecap="round" stroke-linejoin="round"></path>
                                <path d="M39.1032,39.5686 L24.9062,31.372 C19.5614,28.2862 19.5614,23.3682 24.9062,20.2824 L51.2124,5.09448 L84.6171,24.3807 L58.3109,39.5686 C52.9661,42.6544 44.4479,42.6544 39.1032,39.5686 Z" id="Path" fill="#E3C7AC" fill-rule="nonzero"></path>
                                <path d="M39.1032,39.5686 L24.9062,31.372 C19.5614,28.2862 19.5614,23.3682 24.9062,20.2824 L51.2124,5.09448 L84.6171,24.3807 L58.3109,39.5686 C52.9661,42.6544 44.4479,42.6544 39.1032,39.5686 Z" id="Path" fill="#E3C7AC" fill-rule="nonzero"></path>
                                <path d="M53.7151,9.4349 C53.7151,9.4349 39.5181,17.6316 37.0127,19.0781" id="Path" stroke="#FFFFFF" stroke-width="0.124473" opacity="0.15" stroke-linecap="round" stroke-linejoin="round"></path>
                                <path d="M80.6153,22.2513 L54.421,37.3745 C49.099,40.4472 41.0189,40.6792 36.2011,37.8976 L39.965,40.0707 C44.7828,42.8522 52.863,42.6203 58.185,39.5476 L84.3792,24.4244 L80.6153,22.2513 Z" id="Path" fill="#DAB287" fill-rule="nonzero"></path>
                                <polygon id="Path" fill="#DAB287" fill-rule="nonzero" points="87.125 25.8276 48.7097 3.64844 48.7097 6.5414 82.1145 25.8276"></polygon>
                                <polygon id="Path" fill="#8C685C" fill-rule="nonzero" opacity="0.2" points="82.5921 22.959 78.3577 23.5566 82.3569 25.8655 87.391 25.7297"></polygon>
                                <path d="M91.286,24.3823 L51.2,1.23885 C50.2814,0.70848 48.7782,0.70848 47.8595,1.23885 C46.9409,1.76922 46.9409,2.6371 47.8596,3.16747 L87.945,26.3109 C88.864,26.8413 90.367,26.8413 91.286,26.3109 C92.204,25.7806 92.204,24.9127 91.286,24.3823 Z" id="Path" fill="#E3C7AC" fill-rule="nonzero"></path>
                                <path d="M91.286,24.3823 L51.2,1.23885 C50.2814,0.70848 48.7782,0.70848 47.8595,1.23885 C46.9409,1.76922 46.9409,2.6371 47.8596,3.16747 L87.945,26.3109 C88.864,26.8413 90.367,26.8413 91.286,26.3109 C92.204,25.7806 92.204,24.9127 91.286,24.3823 Z" id="Path" fill="url(#linearGradient-14)" fill-rule="nonzero"></path>
                                <path d="M91.292,24.3818 L86.281,21.4889 C87.2,22.0193 87.2,22.8871 86.281,23.4175 C85.363,23.9479 83.8597,23.9479 82.941,23.4175 L87.952,26.3104 C88.87,26.8408 90.374,26.8408 91.292,26.3104 C92.211,25.7801 92.211,24.9122 91.292,24.3818 Z" id="Path" fill="#DAB287" fill-rule="nonzero"></path>
                                <path d="M33.3335,21.2002 L31.4127,22.3092" id="Path" stroke="#FFFFFF" stroke-width="0.124473" opacity="0.15" stroke-linecap="round" stroke-linejoin="round"></path>
                            </g>
                        </g>
                    </g>
                    <g id="Group-624564" transform="translate(0.000000, 153.998047)">
                        <g id="Group-624551">
                            <g id="Group" opacity="0.150000006" transform="translate(78.461914, 18.538330)" fill="url(#linearGradient-26)" fill-rule="nonzero">
                                <path d="M0.0244750977,0 C-0.0305938695,0.266064149 0.0244750977,0.47892115 0.0244750977,0.691772461 L0.0244750977,0 Z" id="Vector"></path>
                            </g>
                            <path d="M0,47.7456055 L0,71.0376173 L0,71.7242356 C0,98.1324132 35.6721361,119.892746 79.8036637,119.892746 C123.935191,119.892746 159.556366,98.3436785 159.556366,71.7242356 L159.556366,71.0376173 L159.556366,47.7456055 L0,47.7456055 Z" id="Vector" fill="#BB9986" fill-rule="nonzero"></path>
                            <g id="Group" style="mix-blend-mode: multiply;" transform="translate(0.000000, 66.706543)" fill-rule="nonzero">
                                <path d="M0,0 L0,4.43658473 L0,5.12320455 C0,31.5314422 35.6721361,53.2918243 79.8036637,53.2918243 C123.935191,53.2918243 159.556366,31.7427079 159.556366,5.12320455 L159.556366,4.43658473 L159.556366,0 C159.556366,26.5666882 123.833273,48.1158122 79.8036637,48.1158122 C35.7230974,48.1158122 0,26.5666882 0,0 Z" id="Vector" fill-opacity="0.5" fill="#A79488" style="mix-blend-mode: multiply;"></path>
                                <path d="M159.553711,1.47949219 L159.553711,2.17124939 L159.553711,1.47949219 Z" id="Vector" fill="url(#linearGradient-27)" style="mix-blend-mode: multiply;"></path>
                            </g>
                            <g id="Group" style="mix-blend-mode: multiply;" transform="translate(3.966797, 55.668335)" fill="#BB9986" fill-opacity="0.5" fill-rule="nonzero">
                                <path d="M102.472183,61.533386 L102.472183,0.372802734 L100.22998,0.372802734 L100.22998,62.008728 L102.472183,61.533386 Z" id="Vector" style="mix-blend-mode: multiply;"></path>
                                <path d="M112.529373,58.8923623 L112.529373,0.372802734 L110.287109,0.372802734 L110.287109,59.578949 L112.529373,58.8923623 Z" id="Vector" style="mix-blend-mode: multiply;"></path>
                                <path d="M122.557129,55.1426982 L122.557129,0.372802734 L120.314941,0.372802734 L120.314941,56.1462097 L122.557129,55.1426982 Z" id="Vector" style="mix-blend-mode: multiply;"></path>
                                <path d="M92.4308243,63.4873047 L92.4308243,0.372802734 L90.1884766,0.372802734 L90.1884766,63.4873047 L92.4308243,63.4873047 Z" id="Vector" style="mix-blend-mode: multiply;"></path>
                                <path d="M142.592361,42.462086 L142.592361,0.209228516 L140.350098,0.209228516 L140.350098,44.416275 C141.114508,43.7824822 141.878912,43.1486949 142.592361,42.462086 Z" id="Vector" style="mix-blend-mode: multiply;"></path>
                                <path d="M152.634369,29.1040491 L152.634369,0.372802734 L150.39209,0.372802734 L150.39209,33.2236176 C151.20746,31.8504327 151.971881,30.477234 152.634369,29.1040491 Z" id="Vector" style="mix-blend-mode: multiply;"></path>
                                <path d="M132.551178,50.0194552 L132.551178,0.372802734 L130.308838,0.372802734 L130.308838,51.2870178 L132.551178,50.0194552 Z" id="Vector" style="mix-blend-mode: multiply;"></path>
                                <path d="M82.4521484,64.1743164 L82.4521484,0.372802734 L80.2099609,0.372802734 L80.2099609,64.1743164 L82.4521484,64.1743164 Z" id="Vector" style="mix-blend-mode: multiply;"></path>
                                <path d="M72.4246445,64.1743164 L72.4246445,0.372802734 L70.182373,0.372802734 L70.182373,64.1743164 L72.4246445,64.1743164 Z" id="Vector" style="mix-blend-mode: multiply;"></path>
                                <path d="M52.388588,62.2201233 L52.388588,0.372802734 L50.1462402,0.372802734 L50.1462402,61.7447801 L52.388588,62.2201233 Z" id="Vector" style="mix-blend-mode: multiply;"></path>
                                <path d="M62.3687363,63.379303 L62.3687363,0 L60.1264648,0 L60.1264648,63.379303 L62.3687363,63.379303 Z" id="Vector" style="mix-blend-mode: multiply;"></path>
                                <path d="M42.3472481,59.8431396 L42.3472481,0.372802734 L40.1049805,0.372802734 L40.1049805,59.2093384 L42.3472481,59.8431396 Z" id="Vector" style="mix-blend-mode: multiply;"></path>
                                <path d="M2.24226999,34.8611298 L2.24226999,0.372802734 L0,0.372802734 L0,31.164081 C0.661911729,32.4499695 1.41122069,33.6854251 2.24226999,34.8611298 Z" id="Vector" style="mix-blend-mode: multiply;"></path>
                                <path d="M12.2836962,45.2131042 L12.2836962,0.372802734 L10.0415039,0.372802734 L10.0415039,43.4173791 C10.7549279,44.0511642 11.5193133,44.6321346 12.2836962,45.2131042 Z" id="Vector" style="mix-blend-mode: multiply;"></path>
                                <path d="M32.3042831,56.3572998 L32.3042831,0.372802734 L30.0620117,0.372802734 L30.0620117,55.4594448 L32.3042831,56.3572998 Z" id="Vector" style="mix-blend-mode: multiply;"></path>
                                <path d="M22.2636757,51.8150635 L22.2636757,0.372802734 L20.0214844,0.372802734 L20.0214844,50.6003105 L22.2636757,51.8150635 Z" id="Vector" style="mix-blend-mode: multiply;"></path>
                            </g>
                            <path d="M79.8036069,96.3362885 C35.7292928,96.3362885 0,74.7706843 0,48.1681543 C0,21.5656243 35.7292928,0 79.8036069,0 C123.877921,0 159.607224,21.5656243 159.607224,48.1681543 C159.607224,74.7706843 123.877921,96.3362885 79.8036069,96.3362885 Z" id="Vector" fill="url(#linearGradient-28)"></path>
                            <path d="M0.0952148438,48.8023682 C0.0952148438,49.3833421 0.0952148438,49.9114987 0.0952148438,50.4924727 C0.0952148438,76.9003811 35.7673331,98.6604919 79.8988327,98.6604919 C124.030332,98.6604919 159.651489,77.1116441 159.651489,50.4924727 C159.651489,49.9114987 159.651489,49.3833421 159.651489,48.8023682 C157.969804,74.1539612 122.705367,95.2802829 79.7969101,95.2802829 C36.6336514,95.2802829 1.5730595,74.6293019 0.0952148438,48.8023682 Z" id="Vector" fill="url(#radialGradient-23)" fill-rule="nonzero" style="mix-blend-mode: screen;"></path>
                            <path d="M79.8049377,84.1886292 C46.8846853,84.1886292 20.1306152,68.0268765 20.1306152,48.167989 C20.1306152,28.3091016 46.8337264,12.1473389 79.8049377,12.1473389 C112.776149,12.1473389 139.428299,28.2562854 139.428299,48.167989 C139.428299,68.0268765 112.72519,84.1886292 79.8049377,84.1886292 Z" id="Vector" fill="url(#linearGradient-19)" fill-rule="nonzero"></path>
                            <path d="M141.412521,48.0626984 C141.412521,47.3760886 141.412521,46.7422803 141.412521,46.1084867 C141.412521,26.1968018 114.709392,10.0878906 81.7891144,10.0878906 C48.8688367,10.0878906 22.1147461,26.1968018 22.1147461,46.1084867 C22.1147461,46.7422803 22.1147461,47.3760886 22.1147461,48.0626984 C23.9493127,29.0488883 49.8880442,13.9434665 81.9419984,13.9434665 C113.792112,13.9434665 139.730835,29.0488883 141.412521,48.0626984 Z" id="Vector" fill="url(#radialGradient-29)" fill-rule="nonzero" style="mix-blend-mode: screen;"></path>
                            <path d="M139.272125,50.1753387 C139.272125,49.4887227 139.272125,48.8549288 139.272125,48.2211294 C139.272125,28.3092633 112.568992,12.2001953 79.648721,12.2001953 C46.7284503,12.2001953 19.9743652,28.3092633 19.9743652,48.2211294 C19.9743652,48.8549288 19.9743652,49.4887227 19.9743652,50.1753387 C21.9618118,31.108539 47.9005367,16.0558062 79.8016051,16.0558062 C111.651712,16.0558062 137.59044,31.1613556 139.272125,50.1753387 Z" id="Vector" fill-opacity="0.800000012" fill="#C08E6A" fill-rule="nonzero" style="mix-blend-mode: multiply;"></path>
                        </g>
                        <g id="5" transform="translate(34.000000, 20.150146)">
                            <polygon id="Path" fill="#B57951" fill-rule="nonzero" points="38.6781 38.1699 30.3269 33.3484 14.4597 42.5093 22.8108 47.3309"></polygon>
                            <polygon id="Path" fill="#B57951" fill-rule="nonzero" opacity="0.2" points="38.686 38.1699 36.1807 36.7234 20.3134 45.8843 22.8188 47.3308"></polygon>
                            <path d="M26.9808,48.7765 L11.9487,40.0976 C9.1928,38.5065 4.6832,38.5065 1.9273,40.0976 L26.9808,54.5623 C29.7367,52.9712 29.7367,50.3676 26.9808,48.7765 Z" id="Path" fill="#B57951" fill-rule="nonzero"></path>
                            <path d="M26.9935,48.7769 L22.8179,46.3661 C25.5738,47.9572 25.5738,50.5608 22.8179,52.152 L26.9935,54.5627 C29.7494,52.9716 29.7494,50.368 26.9935,48.7769 Z" id="Path" fill="#B57951" fill-rule="nonzero"></path>
                            <path d="M32.0717,42.0749 L23.5535,37.1569 C21.2987,35.855 21.2987,33.7336 23.5535,32.4317 L24.4722,31.9014 L41.1745,41.5445 L40.2559,42.0749 C38.0011,43.3767 34.3266,43.3767 32.0717,42.0749 Z" id="Path" fill="#B57951" fill-rule="nonzero"></path>
                            <path d="M37.8483,39.6158 L36.9296,40.1461 C34.6748,41.4479 31.8354,41.9301 29.5806,40.6283 L32.0859,42.0748 C34.3408,43.3766 38.0153,43.3766 40.2701,42.0747 L41.1887,41.5444 L37.8483,39.6158 Z" id="Path" fill="#B57951" fill-rule="nonzero"></path>
                            <path d="M28.6564,55.5263 L0.2624,39.133 C1.181,38.6026 2.6842,38.6026 3.6029,39.133 L28.6564,53.5977 C29.575,54.1281 29.575,54.9959 28.6564,55.5263 Z" id="Path" fill="#B57951" fill-rule="nonzero"></path>
                            <path d="M28.6622,53.5979 L24.4866,51.1871 C25.4052,51.7175 25.4052,52.5854 24.4866,53.1158 L28.6622,55.5265 C29.5808,54.9962 29.5808,54.1283 28.6622,53.5979 Z" id="Path" fill="#B57951" fill-rule="nonzero" opacity="0.2"></path>
                            <path d="M44.515,41.5445 L24.4722,29.9728 L21.9668,31.4192 C21.0482,31.9496 21.0482,32.8175 21.9668,33.3479 L38.6692,42.991 C39.5878,43.5214 41.091,43.5214 42.0097,42.991 L44.515,41.5445 Z" id="Path" fill="#B57951" fill-rule="nonzero"></path>
                            <path d="M44.515,41.5445 L24.4722,29.9728 L21.9668,31.4192 C21.0482,31.9496 21.0482,32.8175 21.9668,33.3479 L38.6692,42.991 C39.5878,43.5214 41.091,43.5214 42.0097,42.991 L44.515,41.5445 Z" id="Path" fill="#B57951" fill-rule="nonzero"></path>
                            <path d="M40.3536,39.1337 L36.178,39.6159 C37.0131,40.0981 35.4264,41.1106 34.5078,40.5802 L38.6833,42.991 C39.602,43.5214 41.1052,43.5214 42.0238,42.991 L44.5292,41.5445 L40.3536,39.1337 Z" id="Path" fill="#B57951" fill-rule="nonzero" opacity="0.2"></path>
                            <path d="M72.9185,27.0793 L88.786,36.2403 L87.951,36.7225 C79.1818,41.7851 64.9848,41.7851 56.2161,36.7225" id="Path" stroke="#B57951" stroke-width="0.49635" stroke-linecap="round" stroke-linejoin="round"></path>
                            <path d="M49.5308,13.5792 L33.6636,4.41821 L32.8285,4.90037 C24.0597,9.963 24.0597,18.1597 32.8285,23.2223" id="Path" stroke="#B57951" stroke-width="0.49635" stroke-linecap="round" stroke-linejoin="round"></path>
                            <path d="M39.1029,41.3014 L24.9059,33.1048 C19.5612,30.019 19.5612,25.101 24.9059,22.0152 L51.2122,6.8273 L84.6169,26.1135 L58.3107,41.3014 C52.9659,44.3872 44.4477,44.3872 39.1029,41.3014 Z" id="Path" fill="#B57951" fill-rule="nonzero"></path>
                            <path d="M53.7148,11.1677 C53.7148,11.1677 39.5178,19.3644 37.0125,20.8108" id="Path" stroke="#B57951" stroke-width="0.124473" opacity="0.15" stroke-linecap="round" stroke-linejoin="round"></path>
                            <path d="M80.615,23.9841 L54.4208,39.1073 C49.0988,42.18 41.0186,42.4119 36.2008,39.6304 L39.9647,41.8035 C44.7825,44.585 52.8627,44.3531 58.1847,41.2804 L84.3789,26.1572 L80.615,23.9841 Z" id="Path" fill="#B57951" fill-rule="nonzero"></path>
                            <polygon id="Path" fill="#B57951" fill-rule="nonzero" points="87.125 27.5604 48.7095 5.38123 48.7095 8.2742 82.1142 27.5604"></polygon>
                            <polygon id="Path" fill="#B57951" fill-rule="nonzero" opacity="0.2" points="82.5918 24.6918 78.3574 25.2894 82.3566 27.5983 87.391 27.4625"></polygon>
                            <path d="M91.285,26.1151 L51.1998,2.97164 C50.2811,2.44126 48.7779,2.44126 47.8593,2.97163 C46.9407,3.50201 46.9407,4.36989 47.8593,4.90026 L87.945,28.0437 C88.864,28.5741 90.367,28.5741 91.285,28.0437 C92.204,27.5134 92.204,26.6455 91.285,26.1151 Z" id="Path" fill="#B57951" fill-rule="nonzero"></path>
                            <path d="M91.292,26.1146 L86.281,23.2217 C87.2,23.7521 87.2,24.6199 86.281,25.1503 C85.363,25.6807 83.8594,25.6807 82.9408,25.1503 L87.951,28.0432 C88.87,28.5736 90.373,28.5736 91.292,28.0432 C92.211,27.5129 92.211,26.645 91.292,26.1146 Z" id="Path" fill="#B57951" fill-rule="nonzero"></path>
                            <path d="M33.3333,22.933 L31.4125,24.0419" id="Path" stroke="#B57951" stroke-width="0.124473" opacity="0.15" stroke-linecap="round" stroke-linejoin="round"></path>
                            <polygon id="Path" fill="#DAB287" fill-rule="nonzero" points="38.6783 36.4372 30.3271 31.6156 14.4599 40.7766 22.8111 45.5981"></polygon>
                            <polygon id="Path" fill="#8C685C" fill-rule="nonzero" opacity="0.2" points="38.6863 36.4371 36.1809 34.9906 20.3137 44.1516 22.819 45.598"></polygon>
                            <path d="M26.9811,47.0437 L11.9489,38.3649 C9.1931,36.7737 4.6834,36.7737 1.9275,38.3649 L26.9811,52.8295 C29.737,51.2384 29.737,48.6348 26.9811,47.0437 Z" id="Path" fill="#E3C7AC" fill-rule="nonzero"></path>
                            <path d="M26.9937,47.0441 L22.8181,44.6333 C25.574,46.2244 25.574,48.8281 22.8181,50.4192 L26.9937,52.8299 C29.7496,51.2388 29.7496,48.6352 26.9937,47.0441 Z" id="Path" fill="#DAB287" fill-rule="nonzero"></path>
                            <path d="M32.072,40.3421 L23.5538,35.4241 C21.299,34.1223 21.299,32.0008 23.5538,30.6989 L24.4724,30.1686 L41.1748,39.8117 L40.2562,40.3421 C38.0013,41.6439 34.3268,41.6439 32.072,40.3421 Z" id="Path" fill="#DFBFA1" fill-rule="nonzero"></path>
                            <path d="M37.8485,37.883 L36.9299,38.4133 C34.6751,39.7152 31.8357,40.1973 29.5808,38.8955 L32.0862,40.342 C34.341,41.6438 38.0155,41.6438 40.2703,40.342 L41.189,39.8116 L37.8485,37.883 Z" id="Path" fill="#DAB287" fill-rule="nonzero"></path>
                            <path d="M28.6566,53.7935 L0.2626,37.4002 C1.1813,36.8699 2.6845,36.8699 3.6031,37.4002 L28.6566,51.8649 C29.5753,52.3953 29.5753,53.2632 28.6566,53.7935 Z" id="Path" fill="#DAB287" fill-rule="nonzero"></path>
                            <path d="M28.6624,51.8651 L24.4868,49.4543 C25.4054,49.9847 25.4054,50.8526 24.4868,51.383 L28.6624,53.7937 C29.581,53.2634 29.581,52.3955 28.6624,51.8651 Z" id="Path" fill="#8C685C" fill-rule="nonzero" opacity="0.2"></path>
                            <path d="M44.5153,39.8117 L24.4724,28.24 L21.9671,29.6865 C21.0484,30.2168 21.0484,31.0847 21.9671,31.6151 L38.6694,41.2582 C39.5881,41.7886 41.0913,41.7886 42.0099,41.2582 L44.5153,39.8117 Z" id="Path" fill="#F9A74E" fill-rule="nonzero"></path>
                            <path d="M44.5152,39.8117 L24.4724,28.24 L21.9671,29.6865 C21.0484,30.2168 21.0484,31.0847 21.9671,31.6151 L38.6694,41.2582 C39.5881,41.7886 41.0913,41.7886 42.0099,41.2582 L44.5152,39.8117 Z" id="Path" fill="#DAB287" fill-rule="nonzero"></path>
                            <path d="M40.3538,37.401 L36.1782,37.8831 C37.0134,38.3653 35.4266,39.3778 34.508,38.8474 L38.6836,41.2582 C39.6022,41.7886 41.1054,41.7886 42.0241,41.2582 L44.5294,39.8117 L40.3538,37.401 Z" id="Path" fill="#8C685C" fill-rule="nonzero" opacity="0.2"></path>
                            <path d="M72.9187,25.3466 L88.786,34.5075 L87.951,34.9897 C79.1821,40.0523 64.9851,40.0523 56.2163,34.9897" id="Path" stroke="#DAB287" stroke-width="0.49635" stroke-linecap="round" stroke-linejoin="round"></path>
                            <path d="M49.5311,11.8464 L33.6638,2.68542 L32.8287,3.16758 C24.06,8.2302 24.06,16.4269 32.8287,21.4895" id="Path" stroke="#DAB287" stroke-width="0.49635" stroke-linecap="round" stroke-linejoin="round"></path>
                            <path d="M39.1032,39.5686 L24.9062,31.372 C19.5614,28.2862 19.5614,23.3682 24.9062,20.2824 L51.2124,5.09448 L84.6171,24.3807 L58.3109,39.5686 C52.9661,42.6544 44.4479,42.6544 39.1032,39.5686 Z" id="Path" fill="#E3C7AC" fill-rule="nonzero"></path>
                            <path d="M39.1032,39.5686 L24.9062,31.372 C19.5614,28.2862 19.5614,23.3682 24.9062,20.2824 L51.2124,5.09448 L84.6171,24.3807 L58.3109,39.5686 C52.9661,42.6544 44.4479,42.6544 39.1032,39.5686 Z" id="Path" fill="#E3C7AC" fill-rule="nonzero"></path>
                            <path d="M53.7151,9.4349 C53.7151,9.4349 39.5181,17.6316 37.0127,19.0781" id="Path" stroke="#FFFFFF" stroke-width="0.124473" opacity="0.15" stroke-linecap="round" stroke-linejoin="round"></path>
                            <path d="M80.6153,22.2513 L54.421,37.3745 C49.099,40.4472 41.0189,40.6792 36.2011,37.8976 L39.965,40.0707 C44.7828,42.8522 52.863,42.6203 58.185,39.5476 L84.3792,24.4244 L80.6153,22.2513 Z" id="Path" fill="#DAB287" fill-rule="nonzero"></path>
                            <polygon id="Path" fill="#DAB287" fill-rule="nonzero" points="87.125 25.8276 48.7097 3.64844 48.7097 6.5414 82.1145 25.8276"></polygon>
                            <polygon id="Path" fill="#8C685C" fill-rule="nonzero" opacity="0.2" points="82.5921 22.959 78.3577 23.5566 82.3569 25.8655 87.391 25.7297"></polygon>
                            <path d="M91.286,24.3823 L51.2,1.23885 C50.2814,0.70848 48.7782,0.70848 47.8595,1.23885 C46.9409,1.76922 46.9409,2.6371 47.8596,3.16747 L87.945,26.3109 C88.864,26.8413 90.367,26.8413 91.286,26.3109 C92.204,25.7806 92.204,24.9127 91.286,24.3823 Z" id="Path" fill="#E3C7AC" fill-rule="nonzero"></path>
                            <path d="M91.286,24.3823 L51.2,1.23885 C50.2814,0.70848 48.7782,0.70848 47.8595,1.23885 C46.9409,1.76922 46.9409,2.6371 47.8596,3.16747 L87.945,26.3109 C88.864,26.8413 90.367,26.8413 91.286,26.3109 C92.204,25.7806 92.204,24.9127 91.286,24.3823 Z" id="Path" fill="url(#linearGradient-14)" fill-rule="nonzero"></path>
                            <path d="M91.292,24.3818 L86.281,21.4889 C87.2,22.0193 87.2,22.8871 86.281,23.4175 C85.363,23.9479 83.8597,23.9479 82.941,23.4175 L87.952,26.3104 C88.87,26.8408 90.374,26.8408 91.292,26.3104 C92.211,25.7801 92.211,24.9122 91.292,24.3818 Z" id="Path" fill="#DAB287" fill-rule="nonzero"></path>
                            <path d="M33.3335,21.2002 L31.4127,22.3092" id="Path" stroke="#FFFFFF" stroke-width="0.124473" opacity="0.15" stroke-linecap="round" stroke-linejoin="round"></path>
                        </g>
                    </g>
                </g>
            </g>
        </g>
    </g>
</svg>