<svg width="270" height="157" viewBox="0 0 270 157" fill="none" xmlns="http://www.w3.org/2000/svg">
<rect width="270" height="157" rx="24" fill="#150A30"/>
<mask id="mask0" mask-type="alpha" maskUnits="userSpaceOnUse" x="0" y="0" width="270" height="157">
<rect width="270" height="157" rx="24" fill="white"/>
</mask>
<g mask="url(#mask0)">
<circle cx="110" cy="30" r="2" fill="#00E7FF"/>
<circle cx="60" cy="100" r="2" fill="#00E7FF"/>
<circle cx="55.5" cy="63.5" r="1.5" fill="#00E7FF"/>
<circle opacity="0.5" cx="76" cy="48" r="2" fill="#00E7FF"/>
<circle cx="146.5" cy="47.5" r="1.5" fill="#00E7FF"/>
<circle cx="217" cy="88" r="2" fill="#00E7FF"/>
<circle opacity="0.5" cx="196.5" cy="37.5" r="1.5" fill="#00E7FF"/>
<circle opacity="0.5" cx="166.5" cy="17.5" r="1.5" fill="#00E7FF"/>
<circle opacity="0.5" cx="96" cy="7" r="1" fill="#00E7FF"/>
<circle opacity="0.5" cx="46" cy="37" r="1" fill="#00E7FF"/>
<path d="M-12 158.459L32.2249 127" stroke="url(#paint0_linear)" stroke-linecap="square"/>
<path d="M18.0912 158.459L52.7416 127" stroke="url(#paint1_linear)" stroke-linecap="square"/>
<path d="M48.1824 158.459L74.1702 127" stroke="url(#paint2_linear)" stroke-linecap="square"/>
<path d="M77.8176 158.459L94.6869 127" stroke="url(#paint3_linear)" stroke-linecap="square"/>
<path d="M107.909 158.459L116.116 127" stroke="url(#paint4_linear)" stroke-linecap="square"/>
<path d="M138.456 158.459L137.088 127" stroke="url(#paint5_linear)" stroke-linecap="square"/>
<path d="M167.635 158.459L157.149 127" stroke="url(#paint6_linear)" stroke-linecap="square"/>
<path d="M197.726 158.459L178.578 127" stroke="url(#paint7_linear)" stroke-linecap="square"/>
<path d="M227.818 158.459L199.55 127" stroke="url(#paint8_linear)" stroke-linecap="square"/>
<path d="M257.909 158.459L220.523 127" stroke="url(#paint9_linear)" stroke-linecap="square"/>
<path d="M288 158.459L241.04 127" stroke="url(#paint10_linear)" stroke-linecap="square"/>
<path d="M-22 157C-22 157 43.4408 156.521 109.218 132.668C174.996 108.816 238 56 238 56" stroke="url(#paint11_linear)" stroke-width="4" stroke-linecap="round" stroke-linejoin="round"/>
<path fill-rule="evenodd" clip-rule="evenodd" d="M220.71 64.2046L236.032 51.349C238.147 49.5742 241.301 49.8502 243.075 51.9653C244.85 54.0806 244.575 57.2343 242.459 59.0092L227.138 71.8644L220.71 64.2046Z" fill="url(#paint12_linear)"/>
<g filter="url(#filter0_d)">
<path d="M90.64 90.64C86.4 90.64 82.9067 89.24 80.16 86.44C77.3867 83.6133 76 80.1333 76 76C76 71.8667 77.3867 68.3867 80.16 65.56C82.9067 62.76 86.4 61.36 90.64 61.36C93.2 61.36 95.5733 61.9733 97.76 63.2C99.9733 64.4267 101.693 66.08 102.92 68.16L95.96 72.16C95.5067 71.2533 94.8 70.5333 93.84 70C92.88 69.4667 91.8133 69.2 90.64 69.2C88.6933 69.2 87.0933 69.84 85.84 71.12C84.6133 72.3733 84 74 84 76C84 78 84.6133 79.6267 85.84 80.88C87.0933 82.16 88.6933 82.8 90.64 82.8C91.84 82.8 92.9067 82.5333 93.84 82C94.8 81.4667 95.5067 80.7333 95.96 79.8L102.92 83.8C101.693 85.9067 99.9733 87.5733 97.76 88.8C95.5733 90.0267 93.2 90.64 90.64 90.64ZM126.13 89.96H117.57L113.13 81.16H111.13V89.96H103.13V61.96H114.33C117.37 61.96 119.903 62.8667 121.93 64.68C123.93 66.4667 124.93 68.84 124.93 71.8C124.93 73.4533 124.543 74.9467 123.77 76.28C123.023 77.6133 121.97 78.6933 120.61 79.52L126.13 89.96ZM114.17 69.32H111.13V74.52H114.17C115.023 74.5467 115.69 74.3333 116.17 73.88C116.676 73.4267 116.93 72.7867 116.93 71.96C116.93 71.1333 116.676 70.4933 116.17 70.04C115.69 69.56 115.023 69.32 114.17 69.32ZM151.911 90H143.311L142.351 86.4H134.271L133.311 90H124.711L133.631 62H142.991L151.911 90ZM138.311 71.4L135.991 80H140.631L138.311 71.4ZM161.211 90.64C158.198 90.64 155.678 90.0133 153.651 88.76C151.625 87.5067 150.251 85.7867 149.531 83.6L156.371 79.64C157.305 82.0133 158.985 83.2 161.411 83.2C163.225 83.2 164.131 82.72 164.131 81.76C164.131 81.1733 163.811 80.7467 163.171 80.48C162.851 80.3467 162.518 80.2267 162.171 80.12C162.091 80.0933 161.611 79.9467 160.731 79.68L159.171 79.24C153.598 77.56 150.811 74.56 150.811 70.24C150.811 67.68 151.731 65.56 153.571 63.88C155.465 62.2 157.905 61.36 160.891 61.36C163.291 61.36 165.425 61.9333 167.291 63.08C169.158 64.2 170.531 65.8 171.411 67.88L164.771 71.76C163.998 69.7867 162.718 68.8 160.931 68.8C160.265 68.8 159.745 68.9467 159.371 69.24C158.998 69.5067 158.811 69.8533 158.811 70.28C158.811 70.8667 159.118 71.32 159.731 71.64C160.318 71.9333 161.531 72.3467 163.371 72.88C165.851 73.6267 167.838 74.52 169.331 75.56C171.198 76.84 172.131 78.88 172.131 81.68C172.131 84.5067 171.158 86.7067 169.211 88.28C167.265 89.8533 164.598 90.64 161.211 90.64ZM187.334 71.92V62H195.334V90H187.334V79.68H180.534V90H172.534V62H180.534V71.92H187.334Z" fill="#00E7FF"/>
</g>
</g>
<defs>
<filter id="filter0_d" x="56" y="41.36" width="159.334" height="69.28" filterUnits="userSpaceOnUse" color-interpolation-filters="sRGB">
<feFlood flood-opacity="0" result="BackgroundImageFix"/>
<feColorMatrix in="SourceAlpha" type="matrix" values="0 0 0 0 0 0 0 0 0 0 0 0 0 0 0 0 0 0 127 0"/>
<feOffset/>
<feGaussianBlur stdDeviation="10"/>
<feColorMatrix type="matrix" values="0 0 0 0 0.205107 0 0 0 0 0.923915 0 0 0 0 1 0 0 0 0.39923 0"/>
<feBlend mode="normal" in2="BackgroundImageFix" result="effect1_dropShadow"/>
<feBlend mode="normal" in="SourceGraphic" in2="effect1_dropShadow" result="shape"/>
</filter>
<linearGradient id="paint0_linear" x1="-12" y1="127" x2="-12" y2="158.459" gradientUnits="userSpaceOnUse">
<stop stop-color="#35165D"/>
<stop offset="1" stop-color="#B78FFF"/>
</linearGradient>
<linearGradient id="paint1_linear" x1="18.0912" y1="127" x2="18.0912" y2="158.459" gradientUnits="userSpaceOnUse">
<stop stop-color="#35165D"/>
<stop offset="1" stop-color="#B78FFF"/>
</linearGradient>
<linearGradient id="paint2_linear" x1="48.1824" y1="127" x2="48.1824" y2="158.459" gradientUnits="userSpaceOnUse">
<stop stop-color="#35165D"/>
<stop offset="1" stop-color="#B78FFF"/>
</linearGradient>
<linearGradient id="paint3_linear" x1="77.8176" y1="127" x2="77.8176" y2="158.459" gradientUnits="userSpaceOnUse">
<stop stop-color="#35165D"/>
<stop offset="1" stop-color="#B78FFF"/>
</linearGradient>
<linearGradient id="paint4_linear" x1="107.909" y1="127" x2="107.909" y2="158.459" gradientUnits="userSpaceOnUse">
<stop stop-color="#35165D"/>
<stop offset="1" stop-color="#B78FFF"/>
</linearGradient>
<linearGradient id="paint5_linear" x1="137.088" y1="127" x2="137.088" y2="158.459" gradientUnits="userSpaceOnUse">
<stop stop-color="#35165D"/>
<stop offset="1" stop-color="#B78FFF"/>
</linearGradient>
<linearGradient id="paint6_linear" x1="157.149" y1="127" x2="157.149" y2="158.459" gradientUnits="userSpaceOnUse">
<stop stop-color="#35165D"/>
<stop offset="1" stop-color="#B78FFF"/>
</linearGradient>
<linearGradient id="paint7_linear" x1="178.578" y1="127" x2="178.578" y2="158.459" gradientUnits="userSpaceOnUse">
<stop stop-color="#35165D"/>
<stop offset="1" stop-color="#B78FFF"/>
</linearGradient>
<linearGradient id="paint8_linear" x1="199.55" y1="127" x2="199.55" y2="158.459" gradientUnits="userSpaceOnUse">
<stop stop-color="#35165D"/>
<stop offset="1" stop-color="#B78FFF"/>
</linearGradient>
<linearGradient id="paint9_linear" x1="220.523" y1="127" x2="220.523" y2="158.459" gradientUnits="userSpaceOnUse">
<stop stop-color="#35165D"/>
<stop offset="1" stop-color="#B78FFF"/>
</linearGradient>
<linearGradient id="paint10_linear" x1="241.04" y1="127" x2="241.04" y2="158.459" gradientUnits="userSpaceOnUse">
<stop stop-color="#35165D"/>
<stop offset="1" stop-color="#B78FFF"/>
</linearGradient>
<linearGradient id="paint11_linear" x1="96.8936" y1="69.8128" x2="29.2622" y2="188.868" gradientUnits="userSpaceOnUse">
<stop stop-color="#00F5FF"/>
<stop offset="1" stop-color="#FF00BB" stop-opacity="0.01"/>
</linearGradient>
<linearGradient id="paint12_linear" x1="239.862" y1="48.1349" x2="220.71" y2="64.2046" gradientUnits="userSpaceOnUse">
<stop stop-color="#00F5FF"/>
<stop offset="1" stop-color="#00E7FF" stop-opacity="0.01"/>
</linearGradient>
</defs>
</svg>
