<svg width="139" height="150" viewBox="0 0 139 150" fill="none" xmlns="http://www.w3.org/2000/svg">
	<g filter="url(#filter0_d_67_267)">
		<path d="M77.153 90.0986L90.856 82.0416L106.165 108.078L92.462 116.135L77.153 90.0986Z" fill="#BF935C" />
		<path opacity="0.2" d="M77.153 90.0987L81.264 87.6807L96.573 113.717L92.462 116.135L77.153 90.0987Z" fill="#9F6C47" />
		<path d="M86.175 117.987L110.841 103.483C115.363 100.824 121.238 102.348 123.897 106.87L82.788 131.043C80.129 126.521 81.653 120.646 86.175 117.987Z" fill="#F3DAA4" />
		<path d="M86.175 117.988L93.026 113.959C88.504 116.618 86.98 122.493 89.639 127.015L82.787 131.044C80.128 126.522 81.653 120.647 86.175 117.988Z" fill="#D4AE73" />
		<path d="M83.462 101.143L97.439 92.9236C101.138 90.7476 102.38 85.9607 100.205 82.2607L99.319 80.7537L71.912 96.8687L72.799 98.3756C74.974 102.076 79.762 103.318 83.462 101.143Z" fill="#F3DAA4" />
		<path d="M77.394 93.6447L78.28 95.1526C80.456 98.8516 83.873 100.9 87.573 98.7246L83.462 101.142C79.762 103.317 74.974 102.075 72.799 98.3756L71.913 96.8676L77.394 93.6447Z" fill="#D4AE73" />
		<path d="M80.047 132.656L126.637 105.26C125.751 103.753 123.792 103.245 122.285 104.131L81.176 128.304C79.668 129.19 79.16 131.149 80.047 132.656Z" fill="#BF935C" />
		<path opacity="0.2" d="M81.176 128.303L88.028 124.274C86.52 125.161 86.012 127.119 86.898 128.626L80.047 132.655C79.161 131.148 79.669 129.189 81.176 128.303Z" fill="#9F6C47" />
		<path d="M67.56 95.7406L100.447 76.4016L102.865 80.5126C103.751 82.0196 103.243 83.9786 101.736 84.8646L74.33 100.981C72.822 101.867 70.864 101.359 69.977 99.8506L67.56 95.7406Z" fill="#F9A74E" />
		<path d="M67.56 95.7406L100.447 76.4016L102.865 80.5126C103.751 82.0196 103.243 83.9786 101.736 84.8646L74.33 100.981C72.822 101.867 70.864 101.359 69.977 99.8506L67.56 95.7406Z" fill="#BF935C" />
		<path opacity="0.2" d="M74.412 91.7106L79.57 94.2096C78.2 95.0156 79.674 97.8366 81.182 96.9506L74.33 100.98C72.823 101.866 70.865 101.358 69.978 99.8506L67.561 95.7396L74.412 91.7106Z" fill="#9F6C47" />
		<path d="M39.035 53.5016L13 68.8106L13.805 70.1816C22.266 84.5696 40.762 89.3676 55.151 80.9076" stroke="#BF935C" stroke-width="2.86585" stroke-miterlimit="10" stroke-linecap="round" stroke-linejoin="round" />
		<path d="M77.403 30.9386L103.439 15.6296L104.245 16.9996C112.705 31.3876 107.907 49.8846 93.519 58.3446" stroke="#E6C591" stroke-width="2.86585" stroke-miterlimit="10" stroke-linecap="round" stroke-linejoin="round" />
		<path d="M74.774 97.0296L98.069 83.3316C106.839 78.1746 109.718 67.0766 104.562 58.3066L79.18 15.1416L24.368 47.3726L49.749 90.5376C54.906 99.3076 66.004 102.187 74.774 97.0296Z" fill="#F3DAA4" />
		<path opacity="0.15" d="M73.375 24.0876C73.375 24.0876 87.073 47.3827 89.491 51.4937" stroke="white" stroke-width="1.43293" stroke-miterlimit="10" stroke-linecap="round" stroke-linejoin="round" />
		<path d="M30.824 43.9196L56.097 86.9006C61.232 95.6326 71.624 98.8876 79.529 94.2386L73.353 97.8706C65.448 102.519 55.056 99.2646 49.921 90.5316L24.648 47.5516L30.824 43.9196Z" fill="#D4AE73" />
		<path d="M20.257 49.7906L83.291 12.7246L81.597 19.2536L26.785 51.4836L20.257 49.7906Z" fill="#BF935C" />
		<path opacity="0.2" d="M27.835 44.8456L33.002 47.6256L26.44 51.4836L19.961 49.4756L27.835 44.8456Z" fill="#9F6C47" />
		<path d="M15.663 45.1126L81.437 6.43663C82.945 5.54963 84.903 6.05763 85.789 7.56563C86.676 9.07263 86.168 11.0306 84.66 11.9176L18.886 50.5946C17.378 51.4806 15.42 50.9726 14.534 49.4646C13.647 47.9576 14.155 45.9996 15.663 45.1126Z" fill="#F3DAA4" />
		<path d="M15.663 45.1146L23.885 40.2796C22.378 41.1656 21.87 43.1246 22.756 44.6316C23.642 46.1396 25.601 46.6476 27.108 45.7606L18.886 50.5956C17.379 51.4816 15.42 50.9736 14.534 49.4666C13.648 47.9586 14.156 46.0006 15.663 45.1146Z" fill="#DAB287" />
		<path opacity="0.15" d="M93.036 57.5226L94.889 60.6746" stroke="white" stroke-width="1.43293" stroke-miterlimit="10" stroke-linecap="round" stroke-linejoin="round" />
	</g>
	<defs>
		<filter id="filter0_d_67_267" x="0.103414" y="0.26829" width="137.997" height="149.582" filterUnits="userSpaceOnUse" color-interpolation-filters="sRGB">
			<feFlood flood-opacity="0" result="BackgroundImageFix" />
			<feColorMatrix in="SourceAlpha" type="matrix" values="0 0 0 0 0 0 0 0 0 0 0 0 0 0 0 0 0 0 127 0" result="hardAlpha" />
			<feOffset dy="5.73171" />
			<feGaussianBlur stdDeviation="5.73171" />
			<feColorMatrix type="matrix" values="0 0 0 0 0.691667 0 0 0 0 0.564891 0 0 0 0 0.394826 0 0 0 1 0" />
			<feBlend mode="normal" in2="BackgroundImageFix" result="effect1_dropShadow_67_267" />
			<feBlend mode="normal" in="SourceGraphic" in2="effect1_dropShadow_67_267" result="shape" />
		</filter>
	</defs>
</svg>
