<svg width="49" height="52" viewBox="0 0 49 52" fill="none" xmlns="http://www.w3.org/2000/svg">
<g clip-path="url(#clip0)" filter="url(#filter0_dd)">
<path d="M24.8192 5.77734L11.9091 19.4518L13.6922 34.0636L24.8192 38.9572V39.1364L35.9463 34.2428L37.7294 19.631L24.8192 5.77734Z" fill="#A2FF5A"/>
<path d="M25.8697 38.5988V38.5161L14.7427 33.6363L12.9596 19.0107L25.1648 6.08061L24.8192 5.77734L11.9091 19.3829L13.6922 33.9947L24.8192 38.8745V39.0537L25.8697 38.5988Z" fill="white"/>
<path d="M24.82 5.77734L5.97998 15.7437L11.9098 19.4518L24.82 5.77734Z" fill="#A2FF5A"/>
<path opacity="0.4" d="M19.7748 8.4378L11.5781 17.136L7.80454 14.765L5.97998 15.7437L11.9098 19.4518L24.82 5.77734L19.7748 8.4378Z" fill="white"/>
<path d="M5.9801 15.7432L7.01679 37.6333L13.693 34.0631L13.3751 31.4853L11.9099 19.4513L5.9801 15.7432Z" fill="#8ED84E"/>
<path d="M43.0656 15.5094L37.7301 19.631L24.8199 5.77734L43.0656 15.5094Z" fill="#8ED84E"/>
<path d="M13.6911 34.0635L24.8182 38.9571V46.2216L7.01489 37.6337L13.6911 34.0635Z" fill="#75BA4D"/>
<path d="M24.8199 38.9575L35.947 34.2432L43.0656 37.6342L24.8199 46.2221V38.9575Z" fill="#8ED84E"/>
<path d="M37.7297 19.6304L35.9467 34.2423L43.0652 37.6333V15.5088L37.7297 19.6304Z" fill="#75BA4D"/>
<path opacity="0.5" d="M40.6601 22.0024L43.0652 18.446V15.3857L37.7297 19.5074L35.9467 34.1192L37.7712 34.9876L40.6601 22.0024Z" fill="#349155"/>
<path opacity="0.5" d="M35.9463 34.243L37.7293 19.6312L28.8553 16.9707L35.9463 34.243Z" fill="#349155"/>
<path opacity="0.4" d="M35.2398 16.9707L36.2488 18.0459L16.8697 35.4698L13.6906 34.0638L13.2621 30.5349L35.2398 16.9707Z" fill="white"/>
<path opacity="0.5" d="M13.6931 34.0632L21.2955 29.9277L35.9472 34.2424L24.8202 38.9567L13.6931 34.0632Z" fill="#349155"/>
<path opacity="0.4" d="M24.8199 38.9575L37.0528 25.1865L35.947 34.2431L24.8199 38.9575Z" fill="white"/>
<path opacity="0.4" d="M12.269 22.4571L29.5609 10.8779L30.0309 11.3742L12.7805 26.5788L12.269 22.4571Z" fill="white"/>
<path opacity="0.5" d="M13.0002 34.4359C13.0002 34.4359 20.6855 38.0889 21.8742 39.7844C23.063 41.4799 24.8184 46.2081 24.8184 46.2081V38.9435L13.6914 33.9121L13.0002 34.4359Z" fill="#349155"/>
<path opacity="0.5" d="M5.9801 17.2871C5.9801 17.2871 8.57872 17.6179 9.83656 20.8435C11.0944 24.0692 13.0019 34.4491 13.0019 34.4491L13.7621 34.0769L11.9099 19.465L5.9801 15.7432V17.2871Z" fill="#349155"/>
<path d="M7.01489 37.6334L13.7602 34.0631L13.6911 33.5117L7.01489 37.6334Z" fill="white"/>
<path d="M37.731 19.5064L43.0665 15.5088L36.9431 18.7896L37.731 19.5064Z" fill="white"/>
<path opacity="0.5" d="M24.7511 40.7625L31.9388 38.5018C38.8223 36.6133 41.6974 38.2674 41.6974 38.2674L43.0658 37.6196L35.9473 34.2285L24.8202 38.9291L24.7511 40.7625Z" fill="#349155"/>
<path d="M24.8199 38.9577V46.2223L25.8702 38.5166L24.8199 38.9577Z" fill="white"/>
</g>
<defs>
<filter id="filter0_dd" x="-0.26667" y="-0.000434399" width="49.1111" height="52" filterUnits="userSpaceOnUse" color-interpolation-filters="sRGB">
<feFlood flood-opacity="0" result="BackgroundImageFix"/>
<feColorMatrix in="SourceAlpha" type="matrix" values="0 0 0 0 0 0 0 0 0 0 0 0 0 0 0 0 0 0 127 0" result="hardAlpha"/>
<feOffset/>
<feGaussianBlur stdDeviation="1.44444"/>
<feColorMatrix type="matrix" values="0 0 0 0 1 0 0 0 0 1 0 0 0 0 1 0 0 0 0.15 0"/>
<feBlend mode="normal" in2="BackgroundImageFix" result="effect1_dropShadow"/>
<feColorMatrix in="SourceAlpha" type="matrix" values="0 0 0 0 0 0 0 0 0 0 0 0 0 0 0 0 0 0 127 0" result="hardAlpha"/>
<feOffset/>
<feGaussianBlur stdDeviation="2.88889"/>
<feColorMatrix type="matrix" values="0 0 0 0 0.654902 0 0 0 0 1 0 0 0 0 0.388235 0 0 0 1 0"/>
<feBlend mode="normal" in2="effect1_dropShadow" result="effect2_dropShadow"/>
<feBlend mode="normal" in="SourceGraphic" in2="effect2_dropShadow" result="shape"/>
</filter>
<clipPath id="clip0">
<rect width="37.5556" height="40.4444" fill="white" transform="translate(5.51111 5.77734)"/>
</clipPath>
</defs>
</svg>
