<?xml version="1.0" encoding="UTF-8"?>
<svg width="45px" height="51px" viewBox="0 0 45 51" version="1.1" xmlns="http://www.w3.org/2000/svg" xmlns:xlink="http://www.w3.org/1999/xlink">
    <!-- Generator: Sketch 54.1 (76490) - https://sketchapp.com -->
    <title>
		Emblem-small-steel
	</title>
    <desc>
		Created with Sketch.
	</desc>
    <defs>
        <linearGradient x1="34.4477916%" y1="12.0479858%" x2="67.7739563%" y2="88.9829783%" id="linearGradient-1esscxvsdf">
            <stop stop-color="#FAFAFA" offset="0%"></stop>
            <stop stop-color="#C2C4CD" offset="100%"></stop>
        </linearGradient>
        <linearGradient x1="31.3367581%" y1="12.8048803%" x2="65.2698216%" y2="85.5691075%" id="linearGradient-2esshghgjhdsdf52310">
            <stop stop-color="#CDCFD6" offset="0%"></stop>
            <stop stop-color="#EFEFF1" offset="100%"></stop>
        </linearGradient>
        <linearGradient x1="35.0099259%" y1="10.162602%" x2="71.5666785%" y2="86.585367%" id="linearGradient-36541sdfsdfsdfsd">
            <stop stop-color="#DDDFE2" offset="0%"></stop>
            <stop stop-color="#FFFFFF" offset="100%"></stop>
        </linearGradient>
        <path d="M4.50599783e-06,10.9660639 L3.89491255e-07,28.7105708 C1.49447769e-07,29.745296 0.566009579,30.6971283 1.47513599,31.1912391 L15.7393835,38.9438676 C16.5801369,39.4008176 17.5951196,39.4008176 18.435873,38.9438674 L32.7001175,31.1912387 C33.6092433,30.6971281 34.1752526,29.7452966 34.1752529,28.710572 L34.1752581,10.9660671 C34.1752584,9.93134165 33.6092488,8.97950917 32.7001222,8.48539836 L18.4358727,0.732771514 C17.5951195,0.275821724 16.5801371,0.275821763 15.7393839,0.732771618 L1.47514027,8.48539672 C0.566014183,8.9795073 4.74604122e-06,9.93133902 4.50599783e-06,10.9660639 Z" id="path-4651321sdfsdfdsf"></path>
        <radialGradient cx="50%" cy="50%" fx="50%" fy="50%" r="58.0487773%" gradientTransform="translate(0.500000,0.500000),scale(1.000000,0.861345),rotate(90.000000),translate(-0.500000,-0.500000)" id="radialGradient-6">
            <stop stop-color="#F5F7FF" offset="0%"></stop>
            <stop stop-color="#B3B5C5" offset="100%"></stop>
        </radialGradient>
        <linearGradient x1="50%" y1="3.06161713e-15%" x2="50%" y2="100%" id="linearGradient-76564pghlj">
            <stop stop-color="#FFFFFF" offset="0%"></stop>
            <stop stop-color="#F2EDED" stop-opacity="0" offset="100%"></stop>
        </linearGradient>
        <linearGradient x1="49.9999967%" y1="47.2007536%" x2="49.7757815%" y2="68.475025%" id="linearGradient-8++6dsfsdfsdfsd">
            <stop stop-color="#FFFFFF" stop-opacity="0" offset="0%"></stop>
            <stop stop-color="#D0DBFF" offset="100%"></stop>
        </linearGradient>
        <filter x="-35.5%" y="-30.6%" width="172.2%" height="163.4%" filterUnits="objectBoundingBox" id="filter-96sdfsdfsdgfgfhh">
            <feOffset dx="0" dy="1.40206194" in="SourceAlpha" result="shadowOffsetOuter1"></feOffset>
            <feGaussianBlur stdDeviation="1.40206194" in="shadowOffsetOuter1" result="shadowBlurOuter1"></feGaussianBlur>
            <feColorMatrix values="0 0 0 0 0.656944394   0 0 0 0 0.668888867   0 0 0 0 0.716666639  0 0 0 1 0" type="matrix" in="shadowBlurOuter1" result="shadowMatrixOuter1"></feColorMatrix>
            <feMerge>
                <feMergeNode in="shadowMatrixOuter1"></feMergeNode>
                <feMergeNode in="SourceGraphic"></feMergeNode>
            </feMerge>
        </filter>
    </defs>
    <g id="Page-1joiemioj" stroke="none" stroke-width="1" fill="none" fill-rule="evenodd">
        <g id="Frame-624658" transform="translate(-680.000000, -771.000000)">
            <g id="Group-624637" transform="translate(675.000000, 376.000000)">
                <g id="Frame-624736" transform="translate(5.978699, 395.000000)">
                    <g>
                        <g>
                            <g>
                                <g>
                                    <g>
                                        <path d="M5.86580179e-06,13.6882285 L4.10466213e-07,37.2250115 C1.57480601e-07,38.3165057 0.596846703,39.3206266 1.55565453,39.8422081 L20.4834881,50.1387531 C21.3712149,50.6216673 22.4432164,50.6216672 23.3309432,50.138753 L42.2587727,39.8422077 C43.2175799,39.3206264 43.8144262,38.3165063 43.8144266,37.2250127 L43.8144335,13.6882324 C43.8144339,12.596738 43.2175871,11.5926169 42.258779,11.0710354 L23.3309429,0.774492545 C22.4432163,0.291578642 21.3712151,0.291578684 20.4834886,0.774492655 L1.55566017,11.0710332 C0.596852672,11.5926144 6.11878731e-06,12.5967347 5.86580179e-06,13.6882285 Z" id="Unions4lkfdsksjn4" fill="url(#linearGradient-1esscxvsdf)"></path>
                                        <path d="M3.33014407,15.7115632 L3.33013957,35.1132598 C3.33013932,36.2006465 3.92473974,37.2009886 4.8799393,37.7206073 L20.4628277,46.1975377 C21.3472139,46.6786346 22.4151812,46.6786346 23.2995673,46.1975376 L38.8824541,37.7206069 C39.8376531,37.2009884 40.4322534,36.200647 40.4322537,35.1132609 L40.4322582,15.7115663 C40.4322584,14.6241794 39.8376578,13.6238372 38.8824579,13.1042186 L23.2995669,4.62729081 C22.415181,4.14619424 21.3472141,4.14619429 20.4628283,4.62729095 L4.87994406,13.104217 C3.92474479,13.6238354 3.33014432,14.6241769 3.33014407,15.7115632 Z" id="Unions4lkfdsksjn4" fill="url(#linearGradient-2esshghgjhdsdf52310)"></path>
                                        <path d="M3.33014407,15.7115632 L3.33013957,35.1132598 C3.33013932,36.2006465 3.92473974,37.2009886 4.8799393,37.7206073 L20.4628277,46.1975377 C21.3472139,46.6786346 22.4151812,46.6786346 23.2995673,46.1975376 L38.8824541,37.7206069 C39.8376531,37.2009884 40.4322534,36.200647 40.4322537,35.1132609 L40.4322582,15.7115663 C40.4322584,14.6241794 39.8376578,13.6238372 38.8824579,13.1042186 L23.2995669,4.62729081 C22.415181,4.14619424 21.3472141,4.14619429 20.4628283,4.62729095 L4.87994406,13.104217 C3.92474479,13.6238354 3.33014432,14.6241769 3.33014407,15.7115632 Z" id="Unions4lkfdsksjn4" stroke="url(#linearGradient-36541sdfsdfsdfsd)" stroke-width="0.175257742" stroke-dasharray="0,0"></path>
                                        <g opacity="0.5" transform="translate(4.908691, 5.608276)">
                                            <mask id="mask-5584651dvcbvcbcvbcvb" fill="white">
                                                <use xlink:href="#path-4651321sdfsdfdsf"></use>
                                            </mask>
                                            <use id="Unions4lkfdsksjn4" fill="#A6D3DE" xlink:href="#path-4651321sdfsdfdsf"></use>
                                            <path d="M4.50599783e-06,10.9660639 L3.89491255e-07,28.7105708 C1.49447769e-07,29.745296 0.566009579,30.6971283 1.47513599,31.1912391 L15.7393835,38.9438676 C16.5801369,39.4008176 17.5951196,39.4008176 18.435873,38.9438674 L32.7001175,31.1912387 C33.6092433,30.6971281 34.1752526,29.7452966 34.1752529,28.710572 L34.1752581,10.9660671 C34.1752584,9.93134165 33.6092488,8.97950917 32.7001222,8.48539836 L18.4358727,0.732771514 C17.5951195,0.275821724 16.5801371,0.275821763 15.7393839,0.732771618 L1.47514027,8.48539672 C0.566014183,8.9795073 4.74604122e-06,9.93133902 4.50599783e-06,10.9660639 Z" id="Innershadow0.1fill" fill="url(#radialGradient-6)" mask="url(#mask-5584651dvcbvcbcvbcvb)"></path>
                                            <g mask="url(#mask-5584651dvcbvcbcvbcvb)">
                                                <g transform="translate(-7.071289, -0.785645)">
                                                    <path d="M21.3012889,41.2460022 L27.0144493,41.2460022 L27.6932406,0 L20.6224976,0 L21.3012889,41.2460022 Z" fill="url(#linearGradient-76564pghlj)" opacity="0.5"></path>
                                                    <path d="M10.5166418,42.2148696 L16.2298023,42.2148696 L16.9085936,0.968867382 L9.83785052,0.968867382 L10.5166418,42.2148696 Z" fill="url(#linearGradient-76564pghlj)" opacity="0.5" transform="translate(13.373222, 21.591868) rotate(-30.000000) translate(-13.373222, -21.591868) "></path>
                                                    <path d="M30.5511725,42.2148407 L36.2643329,42.2148407 L36.9431242,0.968838534 L29.8723812,0.968838534 L30.5511725,42.2148407 Z" fill="url(#linearGradient-76564pghlj)" opacity="0.5" transform="translate(33.407753, 21.591840) rotate(30.000000) translate(-33.407753, -21.591840) "></path>
                                                    <path d="M7.07055664,18.2661133 L41.2458153,18.2661133 L41.2458153,40.4603882 L7.07055664,40.4603882 L7.07055664,18.2661133 Z" fill="url(#linearGradient-8++6dsfsdfsdfsd)"></path>
                                                </g>
                                            </g>
                                            <path d="M4.50599783e-06,10.9660639 L3.89491255e-07,28.7105708 C1.49447769e-07,29.745296 0.566009579,30.6971283 1.47513599,31.1912391 L15.7393835,38.9438676 C16.5801369,39.4008176 17.5951196,39.4008176 18.435873,38.9438674 L32.7001175,31.1912387 C33.6092433,30.6971281 34.1752526,29.7452966 34.1752529,28.710572 L34.1752581,10.9660671 C34.1752584,9.93134165 33.6092488,8.97950917 32.7001222,8.48539836 L18.4358727,0.732771514 C17.5951195,0.275821724 16.5801371,0.275821763 15.7393839,0.732771618 L1.47514027,8.48539672 C0.566014183,8.9795073 4.74604122e-06,9.93133902 4.50599783e-06,10.9660639 Z" id="Innershadow0.1fill" fill-opacity="0.00100000005" fill="#6052B4" mask="url(#mask-5584651dvcbvcbcvbcvb)"></path>
                                        </g>
                                    </g>
                                </g>
                            </g>
                        </g>
                        <g id="Group-624479" filter="url(#filter-96sdfsdfsdgfgfhh)" transform="translate(9.047729, 12.918457)">
                            <path d="M14.7763484,17.1094971 L14.7763484,24.4977064 L10.8878174,24.4977064 L10.8878174,17.1094971 L14.7763484,17.1094971 Z" id="Vector616516548498sdfsdfsdfsdklfjklsdf" fill="#D7D9DE"></path>
                            <path d="M14.7758732,17.1094971 L14.7758732,24.4977064 L13.609314,24.4977064 L13.609314,17.1094971 L14.7758732,17.1094971 Z" id="Vector616516548498sdfsdfsdfsdklfjklsdf" fill="#C8CAD2" opacity="0.200000003"></path>
                            <path d="M9.33281345,24.1088867 C8.04959823,24.1088867 6.99969482,25.15879 6.99969482,26.4420052 L18.665288,26.4420052 C18.665288,25.15879 17.6153846,24.1088867 16.3321693,24.1088867 L9.33281345,24.1088867 Z" id="Vector616516548498sdfsdfsdfsdklfjklsdf" fill="#EFEFF1" fill-rule="nonzero"></path>
                            <path d="M14.3876343,24.1088867 C15.6708494,24.1088867 16.7207527,25.15879 16.7207527,26.4420052 L18.6650181,26.4420052 C18.6650181,25.15879 17.6151148,24.1088867 16.3318996,24.1088867 L14.3876343,24.1088867 Z" id="Vector616516548498sdfsdfsdfsdklfjklsdf" fill="#E7E8EB" fill-rule="nonzero"></path>
                            <path d="M10.8482519,20.2203255 C9.79834848,20.2203255 8.94287109,19.3648481 8.94287109,18.3149448 L8.94287109,17.887207 L16.719933,17.887207 L16.719933,18.3149448 C16.719933,19.3648481 15.8644556,20.2203255 14.8145523,20.2203255 L10.8482519,20.2203255 Z" id="Vector616516548498sdfsdfsdfsdklfjklsdf" fill="#EFEFF1" fill-rule="nonzero"></path>
                            <path d="M15.1647179,18.3149448 C15.1647179,19.3648481 14.6980946,20.2203255 13.6481934,20.2203255 L14.8147503,20.2203255 C15.8646515,20.2203255 16.7201271,19.3648481 16.7201271,18.3149448 L16.7201271,17.887207 L15.1647179,17.887207 L15.1647179,18.3149448 Z" id="Vector616516548498sdfsdfsdfsdklfjklsdf" fill="#E7E8EB" fill-rule="nonzero"></path>
                            <path d="M6.22137451,26.4420128 C6.22137451,26.0142744 6.57134229,25.6643066 6.99908071,25.6643066 L18.6646737,25.6643066 C19.0924122,25.6643066 19.44238,26.0142744 19.44238,26.4420128 L6.22137451,26.4420128 Z" id="Vector616516548498sdfsdfsdfsdklfjklsdf" fill="#D7D9DE" fill-rule="nonzero"></path>
                            <path d="M16.7208862,25.6643066 C17.1486246,25.6643066 17.4985924,26.0142744 17.4985924,26.4420128 L19.4428577,26.4420128 C19.4428577,26.0142744 19.09289,25.6643066 18.6651516,25.6643066 L16.7208862,25.6643066 Z" id="Vector616516548498sdfsdfsdfsdklfjklsdf" fill="#C8CAD2" fill-rule="nonzero" opacity="0.200000003"></path>
                            <path d="M8.16625977,17.1094971 L8.16625977,18.2760564 C8.16625977,18.7037948 8.51622752,19.0537626 8.94396591,19.0537626 L16.7210274,19.0537626 C17.1487658,19.0537626 17.4987335,18.7037948 17.4987335,18.2760564 L17.4987335,17.1094971 L8.16625977,17.1094971 Z" id="Vector616516548498sdfsdfsdfsdklfjklsdf" fill="#F9A74E" fill-rule="nonzero"></path>
                            <path d="M8.16625977,17.1094971 L8.16625977,18.2760564 C8.16625977,18.7037948 8.51622752,19.0537626 8.94396591,19.0537626 L16.7210274,19.0537626 C17.1487658,19.0537626 17.4987335,18.7037948 17.4987335,18.2760564 L17.4987335,17.1094971 L8.16625977,17.1094971 Z" id="Vector616516548498sdfsdfsdfsdklfjklsdf" fill="#D7D9DE" fill-rule="nonzero"></path>
                            <path d="M14.7759399,18.2760564 C15.164793,18.2760564 15.2036783,19.0537626 14.7759399,19.0537626 L16.7202053,19.0537626 C17.1479437,19.0537626 17.4979115,18.7037948 17.4979115,18.2760564 L17.4979115,17.1094971 L15.5536461,17.1094971 L14.7759399,18.2760564 Z" id="Vector616516548498sdfsdfsdfsdklfjklsdf" fill="#C8CAD2" fill-rule="nonzero" opacity="0.200000003"></path>
                            <path d="M18.2758179,4.66625977 L25.6640272,4.66625977 L25.6640272,5.05511293 C25.6640272,9.1380712 22.3587757,12.4433231 18.2758179,12.4433231" id="Vector616516548498sdfsdfsdfsdklfjklsdf" stroke="#D7D9DE" stroke-width="0.70103097" stroke-linecap="round" stroke-linejoin="round" stroke-dasharray="0,0" fill-rule="nonzero"></path>
                            <path d="M7.38820934,4.66625977 L0,4.66625977 L0,5.05511293 C0,9.1380712 3.30525155,12.4433231 7.38820934,12.4433231" id="Vector616516548498sdfsdfsdfsdklfjklsdf" stroke="#EFEFF1" stroke-width="0.70103097" stroke-linecap="round" stroke-linejoin="round" stroke-dasharray="0,0" fill-rule="nonzero"></path>
                            <path d="M9.44550446,18.276104 C6.95684461,18.276104 4.97369385,16.2929531 4.97369385,13.8042931 L4.97369385,1.55541992 L20.5278177,1.55541992 L20.5278177,13.8042931 C20.5278177,16.2929531 18.544667,18.276104 16.0560071,18.276104 L9.44550446,18.276104 Z" id="Vector616516548498sdfsdfsdfsdklfjklsdf" fill="#EFEFF1" fill-rule="nonzero"></path>
                            <path d="M7.38800049,2.72192383 C7.38800049,2.72192383 7.38800049,9.33242769 7.38800049,10.4989872" id="Vector616516548498sdfsdfsdfsdklfjklsdf" stroke="#FFFFFF" stroke-width="0.350515485" opacity="0.300000012" stroke-linecap="round" stroke-linejoin="round" stroke-dasharray="0,0" fill-rule="nonzero"></path>
                            <path d="M18.8204174,13.8246452 C18.8204174,16.302708 17.0327887,18.2774143 14.7894897,18.2774143 L16.542067,18.2774143 C18.7853659,18.2774143 20.5729947,16.302708 20.5729947,13.8246452 L20.5729947,1.62792969 L18.8204174,1.62792969 L18.8204174,13.8246452 Z" id="Vector616516548498sdfsdfsdfsdklfjklsdf" fill="#E7E8EB" fill-rule="nonzero"></path>
                            <path d="M3.88812256,1.55541992 L5.0546819,2.72197914 L20.6088065,2.72197914 L21.7753658,1.55541992 L3.88812256,1.55541992 Z" id="Vector616516548498sdfsdfsdfsdklfjklsdf" fill="#D7D9DE" fill-rule="nonzero"></path>
                            <path d="M18.819397,2.67944074 L20.6815103,2.67944074 L21.7987783,1.45263672 L19.5642423,1.45263672 L18.819397,2.67944074 Z" id="Vector616516548498sdfsdfsdfsdklfjklsdf" fill="#C8CAD2" fill-rule="nonzero" opacity="0.200000003"></path>
                            <path d="M3.49926376,0 C3.07152537,0 2.72155762,0.349967488 2.72155762,0.77770555 C2.72155762,1.20544361 3.07152537,1.5554111 3.49926376,1.5554111 L22.1642113,1.5554111 C22.5919497,1.5554111 22.9419174,1.20544361 22.9419174,0.77770555 C22.9419174,0.349967488 22.5919497,0 22.1642113,0 L3.49926376,0 Z" id="Vector616516548498sdfsdfsdfsdklfjklsdf" fill="#EFEFF1" fill-rule="nonzero"></path>
                            <path d="M19.8306885,0 C20.2584269,0 20.6083947,0.349967488 20.6083947,0.77770555 C20.6083947,1.20544361 20.2584269,1.5554111 19.8306885,1.5554111 L22.1638071,1.5554111 C22.5915455,1.5554111 22.9415133,1.20544361 22.9415133,0.77770555 C22.9415133,0.349967488 22.5915455,0 22.1638071,0 L19.8306885,0 Z" id="Vector616516548498sdfsdfsdfsdklfjklsdf" fill="#E7E8EB" fill-rule="nonzero"></path>
                            <path d="M7.38800049,12.2099609 L7.38800049,13.1043246" id="Vector616516548498sdfsdfsdfsdklfjklsdf" stroke="#FFFFFF" stroke-width="0.350515485" opacity="0.300000012" stroke-linecap="round" stroke-linejoin="round" stroke-dasharray="0,0"></path>
                        </g>
                    </g>
                </g>
            </g>
        </g>
    </g>
</svg>