<?xml version="1.0" encoding="UTF-8"?>
<svg width="55px" height="61px" viewBox="0 0 55 61" version="1.1" xmlns="http://www.w3.org/2000/svg" xmlns:xlink="http://www.w3.org/1999/xlink">
    <!-- Generator: Sketch 54.1 (76490) - https://sketchapp.com -->
    <title>Emblem-small-silver</title>
    <desc>Created with Sketch.</desc>
    <defs>
        <filter x="-64.3%" y="-47.1%" width="230.7%" height="197.0%" filterUnits="objectBoundingBox" id="cxvvcbfilterfdbvccvbew6512">
            <feOffset dx="0" dy="0" in="SourceAlpha" result="shadowOffsetOuter1"></feOffset>
            <feGaussianBlur stdDeviation="1.61304665" in="shadowOffsetOuter1" result="shadowBlurOuter1"></feGaussianBlur>
            <feColorMatrix values="0 0 0 0 0.55859375   0 0 0 0 0.869296908   0 0 0 0 0.9375  0 0 0 0.0399999991 0" type="matrix" in="shadowBlurOuter1" result="shadowMatrixOuter1"></feColorMatrix>
            <feOffset dx="0" dy="0.64521867" in="SourceAlpha" result="shadowOffsetOuter2"></feOffset>
            <feGaussianBlur stdDeviation="4.83914042" in="shadowOffsetOuter2" result="shadowBlurOuter2"></feGaussianBlur>
            <feColorMatrix values="0 0 0 0 0.925490201   0 0 0 0 0.929411769   0 0 0 0 0.937254906  0 0 0 0.479999989 0" type="matrix" in="shadowBlurOuter2" result="shadowMatrixOuter2"></feColorMatrix>
            <feMerge>
                <feMergeNode in="shadowMatrixOuter1"></feMergeNode>
                <feMergeNode in="shadowMatrixOuter2"></feMergeNode>
                <feMergeNode in="SourceGraphic"></feMergeNode>
            </feMerge>
        </filter>
        <linearGradient x1="34.4014712%" y1="12.0479858%" x2="67.8268939%" y2="88.9829783%" id="_a_aa_02__1">
            <stop stop-color="#FAFAFA" offset="0%"></stop>
            <stop stop-color="#C2C4CD" offset="100%"></stop>
        </linearGradient>
        <linearGradient x1="31.2811659%" y1="12.8048803%" x2="65.3153058%" y2="85.5691075%" id="_a_aa_01655">
            <stop stop-color="#CDCFD6" offset="0%"></stop>
            <stop stop-color="#EFEFF1" offset="100%"></stop>
        </linearGradient>
        <linearGradient x1="34.965275%" y1="10.162602%" x2="71.6309191%" y2="86.585367%" id="_a_aa_01652">
            <stop stop-color="#DDDFE2" offset="0%"></stop>
            <stop stop-color="#FFFFFF" offset="100%"></stop>
        </linearGradient>
        <path d="M4.18547701e-06,9.10079601 L1.89146701e-07,26.3016734 C7.25872063e-08,26.803365 0.274596909,27.2648144 0.715540687,27.5041115 L14.6170014,35.0483366 C15.0240021,35.269213 15.5151101,35.269213 15.9221107,35.0483366 L29.8235683,27.5041112 C30.2645118,27.2648143 30.5391085,26.8033653 30.5391086,26.3016739 L30.5391138,9.10079843 C30.5391139,8.59910667 30.264517,8.13765723 29.8235731,7.89836015 L15.9221105,0.354136585 C15.51511,0.133260343 15.0240022,0.133260362 14.6170017,0.354136636 L0.715544765,7.8983585 C0.274601142,8.13765547 4.30203646e-06,8.59910455 4.18547701e-06,9.10079601 Z" id="path-5"></path>
        <radialGradient cx="50%" cy="50%" fx="50%" fy="50%" r="57.9625091%" gradientTransform="translate(0.500000,0.500000),scale(1.000000,0.862627),rotate(90.000000),translate(-0.500000,-0.500000)" id="radialGradient-7">
            <stop stop-color="#F5F7FF" offset="0%"></stop>
            <stop stop-color="#B3B5C5" offset="100%"></stop>
        </radialGradient>
        <linearGradient x1="50%" y1="3.06161713e-15%" x2="50%" y2="100%" id="linearGradient-81xcvserrgfdfg3213524sdf1z32zxc">
            <stop stop-color="#FFFFFF" offset="0%"></stop>
            <stop stop-color="#F2EDED" stop-opacity="0" offset="100%"></stop>
        </linearGradient>
        <linearGradient x1="50%" y1="3.06161713e-15%" x2="50%" y2="100%" id="linearGradient-9s5d4fsdf1xc1vxcv15erf312fas3">
            <stop stop-color="#FFFFFF" offset="0%"></stop>
            <stop stop-color="#F2EDED" stop-opacity="0" offset="100%"></stop>
        </linearGradient>
        <linearGradient x1="49.9999967%" y1="47.2090671%" x2="49.7757815%" y2="68.420156%" id="lg2348jdfs_Q_as_zsxzc216541fs3e6513sdxcvcxv12654t5r">
            <stop stop-color="#FFFFFF" stop-opacity="0" offset="0%"></stop>
            <stop stop-color="#D0DBFF" offset="100%"></stop>
        </linearGradient>
        <filter x="-38.4%" y="-33.1%" width="176.1%" height="166.8%" filterUnits="objectBoundingBox" id="filterxcvxcvxc8412sdfxcv">
            <feOffset dx="0" dy="1.26520813" in="SourceAlpha" result="shadowOffsetOuter1"></feOffset>
            <feGaussianBlur stdDeviation="1.26520813" in="shadowOffsetOuter1" result="shadowBlurOuter1"></feGaussianBlur>
            <feColorMatrix values="0 0 0 0 0.612500012   0 0 0 0 0.62890625   0 0 0 0 0.699999988  0 0 0 1 0" type="matrix" in="shadowBlurOuter1" result="shadowMatrixOuter1"></feColorMatrix>
            <feMerge>
                <feMergeNode in="shadowMatrixOuter1"></feMergeNode>
                <feMergeNode in="SourceGraphic"></feMergeNode>
            </feMerge>
        </filter>
        <filter x="-160.0%" y="-160.0%" width="420.0%" height="420.0%" filterUnits="objectBoundingBox" id="filtersf13216851">
            <feGaussianBlur stdDeviation="1.16191912" in="SourceGraphic"></feGaussianBlur>
        </filter>
        <filter x="-120.0%" y="-120.0%" width="340.0%" height="340.0%" filterUnits="objectBoundingBox" id="fixcvxcvioutu43548u98">
            <feGaussianBlur stdDeviation="0.290479779" in="SourceGraphic"></feGaussianBlur>
        </filter>
        <filter x="-40.0%" y="-40.0%" width="180.0%" height="180.0%" filterUnits="objectBoundingBox" id="fixcvxcvxcvxcv22">
            <feGaussianBlur stdDeviation="0.0968265891" in="SourceGraphic"></feGaussianBlur>
        </filter>
        <filter x="-24.0%" y="-24.0%" width="148.0%" height="148.0%" filterUnits="objectBoundingBox" id="filterweoij80op">
            <feGaussianBlur stdDeviation="0.193653178" in="SourceGraphic"></feGaussianBlur>
        </filter>
        <filter x="-68.6%" y="-68.6%" width="237.1%" height="237.1%" filterUnits="objectBoundingBox" id="sdfcxmv16">
            <feGaussianBlur stdDeviation="0.387306356" in="SourceGraphic"></feGaussianBlur>
        </filter>
        <filter x="-150.0%" y="-150.0%" width="400.0%" height="400.0%" filterUnits="objectBoundingBox" id="filtersdf1651685117">
            <feGaussianBlur stdDeviation="0.968265915" in="SourceGraphic"></feGaussianBlur>
        </filter>
        <filter x="-150.0%" y="-150.0%" width="400.0%" height="400.0%" filterUnits="objectBoundingBox">
            <feGaussianBlur stdDeviation="0.968265915" in="SourceGraphic"></feGaussianBlur>
        </filter>
        <linearGradient x1="50.0000051%" y1="0.854700902%" x2="50.0000245%" y2="67.5213965%" id="e_xzc324_s32q324y72847yqqq">
            <stop stop-color="#585B77" stop-opacity="0.75" offset="0%"></stop>
            <stop stop-color="#525787" stop-opacity="0" offset="100%"></stop>
        </linearGradient>
        <linearGradient x1="45.3287677%" y1="72.8373434%" x2="102.638359%" y2="43.3816227%" id="__sdfs__4512_2387yiuye_xzc324">
            <stop stop-color="#D5D7D9" offset="0%"></stop>
            <stop stop-color="#E2E3E7" offset="100%"></stop>
        </linearGradient>
        <path d="M0.493373992,2.1925456 L0.378307832,2.12686716 L0.456624971,2.12473777 L0.455844761,2.12329816 L0.458261191,2.12469329 L8.49542694,1.90616897 L7.74335104,6.33074091 L4.28827331,9.1947428 L0.493373992,2.1925456 Z" id="path-21"></path>
        <linearGradient x1="61.429022%" y1="12.5753294%" x2="40.2056735%" y2="44.8554531%" id="__sdfs__4512324">
            <stop stop-color="#CCCFDD" offset="0%"></stop>
            <stop stop-color="#D9DBE4" offset="25.9135038%"></stop>
            <stop stop-color="#E2E3E7" offset="87.8536344%"></stop>
        </linearGradient>
        <linearGradient x1="47.3025302%" y1="77.5794062%" x2="66.7533883%" y2="62.9032212%" id="__sdfsdfjklvxc89345asdxzc">
            <stop stop-color="#F4F5F8" offset="0%"></stop>
            <stop stop-color="#F5F6F6" offset="100%"></stop>
        </linearGradient>
        <linearGradient x1="45.3324479%" y1="72.8373434%" x2="102.596887%" y2="43.3816227%" id="linearGradientxcvxcvxcvklmxcvxcv">
            <stop stop-color="#D5D7D9" offset="0%"></stop>
            <stop stop-color="#E2E3E7" offset="100%"></stop>
        </linearGradient>
        <path d="M0.432164736,6.33034643 L-0.319748316,1.90673258 L7.7156771,2.12520958 L7.7188573,2.12337349 L7.71783049,2.12526812 L7.79737079,2.12743076 L7.68050752,2.19413498 L3.88642875,9.19481812 L0.430669228,6.33120987 L0.432164736,6.33034643 Z" id="path-26"></path>
        <linearGradient x1="50.0000051%" y1="0.854700902%" x2="50.0000245%" y2="67.5213965%" id="_a_aa_01655sd1">
            <stop stop-color="#585B77" stop-opacity="0.75" offset="0%"></stop>
            <stop stop-color="#525787" stop-opacity="0" offset="100%"></stop>
        </linearGradient>
        <linearGradient x1="45.6766037%" y1="72.8373434%" x2="98.7187257%" y2="43.3816227%" id="linearGradient_2_sdfsdfsdf9sdfsdfcxvxcvxcv">
            <stop stop-color="#D5D7D9" offset="0%"></stop>
            <stop stop-color="#E2E3E7" offset="100%"></stop>
        </linearGradient>
        <path d="M3.29670684,2.10947858e-08 L6.83466987,1.31246982 L3.29670746,7.07592585 L3.29670684,2.10947858e-08 Z M3.29670494,-5.97501532e-07 L3.29670556,7.07592523 L-0.241257862,1.31246982 L3.29670494,-5.97501532e-07 Z" id="path__30__weiorj3489u_dfkvncx"></path>
        <linearGradient x1="59.9685509%" y1="47.7272781%" x2="43.5958676%" y2="92.0138396%" id="linearGradient_32sdfcv2132178964512xcvxcv">
            <stop stop-color="#DBDCE1" offset="0%"></stop>
            <stop stop-color="#F2F3F8" offset="100%"></stop>
        </linearGradient>
        <linearGradient x1="47.3025305%" y1="77.5794062%" x2="66.7533861%" y2="62.9032212%" id="linearGradient33_32165841sdf">
            <stop stop-color="#F4F5F8" offset="0%"></stop>
            <stop stop-color="#F5F6F6" offset="100%"></stop>
        </linearGradient>
    </defs>
    <g stroke="none" stroke-width="1" fill="none" fill-rule="evenodd">
        <g transform="translate(-1683.000000, -764.000000)">
            <g transform="translate(1662.000000, 325.000000)">
                <g transform="translate(21.000000, 441.924316)">
                    <g>
                        <g filter="url(#cxvvcbfilterfdbvccvbew6512)" transform="translate(6.959106, 0.620605)">
                            <g transform="translate(4.551514, 27.090332)">
                                <g>
                                    <g>
                                        <path d="M0.192882617,17.7896697 L14.8184282,26.2530954 C14.9377269,26.3221304 15.084765,26.322396 15.2043123,26.2537922 L30.2151317,17.6396359 C30.3351874,17.5707404 30.4092236,17.442893 30.4092236,17.3044735 L30.4092236,0.149780273 L0,0.149780273 L1.66533454e-15,17.455204 C1.68222497e-15,17.5931249 0.0735081249,17.7205907 0.192882617,17.7896697 Z" id="v_01_aaa_255_01-301" fill="#D8DCEF"></path>
                                        <path d="M8.83814907,22.7924595 L0.192882641,17.7896678 C0.0735081356,17.7205889 -2.51189045e-16,17.5931231 -1.55431223e-15,17.4552022 L0,0.149780273 L8.83814907,0.149780273 L8.83814907,22.7924595 Z" id="Intersect" fill="#BCC1D2"></path>
                                        <path d="M8.54284668,0.149902344 L8.84244496,0.149902344 L8.84244496,22.791469 L8.54284668,22.6180992 L8.54284668,0.149902344 Z" id="Intersect" fill="#F9F9FC"></path>
                                        <path d="M30.4071045,22.6426792 L21.7618381,17.6398876 C21.6424636,17.5708086 21.5689554,17.4433428 21.5689554,17.3054219 L21.5689554,0 L30.4071045,0 L30.4071045,22.6426792 Z" id="Intersect" fill="#BCC1D2" transform="translate(25.988030, 11.321340) scale(1, -1) rotate(-180.000000) translate(-25.988030, -11.321340) "></path>
                                        <path d="M21.8706055,22.4681968 L21.5710072,22.6415667 L21.5710072,3.55271368e-15 L21.8706055,-7.3092227e-16 L21.8706055,22.4681968 Z" id="Intersect" fill="#F9F9FC"></path>
                                    </g>
                                </g>
                            </g>
                            <g>
                                <path d="M5.40915811e-06,11.4922359 L1.99332672e-07,33.9363784 C7.64887761e-08,34.4655949 0.289557604,34.952394 0.754598168,35.2049953 L18.887261,45.0543191 C19.3170014,45.2877461 19.8356986,45.287746 20.2654389,45.0543191 L38.3980976,35.2049951 C38.8631378,34.9523939 39.1526953,34.4655952 39.1526954,33.936379 L39.1527021,11.4922388 C39.1527022,10.9630222 38.8631446,10.476223 38.3981039,10.2236217 L20.2654387,0.374300011 C19.8356985,0.140873212 19.3170015,0.140873232 18.8872612,0.374300064 L0.754603464,10.2236195 C0.289563063,10.4762207 5.53200196e-06,10.9630195 5.40915811e-06,11.4922359 Z" id="Union__cxvnmxcewirwerj8651" fill="url(#_a_aa_02__1)"></path>
                                <path d="M2.97400357,13.300272 L2.97399922,32.0493475 C2.9739991,32.5765726 3.26246699,33.0615397 3.72575754,33.3131905 L18.8647821,41.5364254 C19.2929053,41.7689739 19.8096505,41.7689738 20.2377736,41.5364253 L35.3767963,33.3131903 C35.8400866,33.0615396 36.1285544,32.5765728 36.1285545,32.049348 L36.1285589,13.3002743 C36.128559,12.7730492 35.840091,12.2880819 35.3768003,12.0364312 L20.2377734,3.81319895 C19.8096504,3.58065065 19.2929054,3.58065067 18.8647824,3.81319902 L3.72576202,12.0364296 C3.26247161,12.2880802 2.9740037,12.7730471 2.97400357,13.300272 Z" id="Union__cxvnmxcewirwerj8651" fill="url(#_a_aa_01655)"></path>
                                <path d="M2.97400357,13.300272 L2.97399922,32.0493475 C2.9739991,32.5765726 3.26246699,33.0615397 3.72575754,33.3131905 L18.8647821,41.5364254 C19.2929053,41.7689739 19.8096505,41.7689738 20.2377736,41.5364253 L35.3767963,33.3131903 C35.8400866,33.0615396 36.1285544,32.5765728 36.1285545,32.049348 L36.1285589,13.3002743 C36.128559,12.7730492 35.840091,12.2880819 35.3768003,12.0364312 L20.2377734,3.81319895 C19.8096504,3.58065065 19.2929054,3.58065067 18.8647824,3.81319902 L3.72576202,12.0364296 C3.26247161,12.2880802 2.9740037,12.7730471 2.97400357,13.300272 Z" id="Union__cxvnmxcewirwerj8651" stroke="url(#_a_aa_01652)" stroke-width="0.0849227533" stroke-dasharray="0,0"></path>
                                <g opacity="0.5" transform="translate(4.388062, 5.004028)">
                                    <mask id="mask6sdfewsesfsdf8421313" fill="white">
                                        <use xlink:href="#path-5"></use>
                                    </mask>
                                    <use id="Union__cxvnmxcewirwerj8651" fill="#A6D3DE" xlink:href="#path-5"></use>
                                    <path d="M4.18547701e-06,9.10079601 L1.89146701e-07,26.3016734 C7.25872063e-08,26.803365 0.274596909,27.2648144 0.715540687,27.5041115 L14.6170014,35.0483366 C15.0240021,35.269213 15.5151101,35.269213 15.9221107,35.0483366 L29.8235683,27.5041112 C30.2645118,27.2648143 30.5391085,26.8033653 30.5391086,26.3016739 L30.5391138,9.10079843 C30.5391139,8.59910667 30.264517,8.13765723 29.8235731,7.89836015 L15.9221105,0.354136585 C15.51511,0.133260343 15.0240022,0.133260362 14.6170017,0.354136636 L0.715544765,7.8983585 C0.274601142,8.13765547 4.30203646e-06,8.59910455 4.18547701e-06,9.10079601 Z" id="Innershadow0.1fill" fill="url(#radialGradient-7)" mask="url(#mask6sdfewsesfsdf8421313)"></path>
                                    <g id="Group-57" mask="url(#mask6sdfewsesfsdf8421313)">
                                        <g transform="translate(-6.316040, -0.701050)">
                                            <path d="M19.0354028,36.8027763 L24.1406989,36.8027763 L24.7472687,0 L18.428833,0 L19.0354028,36.8027763 Z" fill="url(#linearGradient-81xcvserrgfdfg3213524sdf1z32zxc)" opacity="0.5"></path>
                                            <path d="M9.39864677,37.6739052 L14.502048,37.6739052 L15.1083927,0.857430241 L8.79230211,0.857430241 L9.39864677,37.6739052 Z" fill="url(#linearGradient-9s5d4fsdf1xc1vxcv15erf312fas3)" opacity="0.5" transform="translate(11.950347, 19.265668) rotate(-29.963124) translate(-11.950347, -19.265668) "></path>
                                            <path d="M27.3017843,37.6740088 L32.4051855,37.6740088 L33.0115302,0.857533912 L26.6954396,0.857533912 L27.3017843,37.6740088 Z" fill="url(#linearGradient-9s5d4fsdf1xc1vxcv15erf312fas3)" opacity="0.5" transform="translate(29.853485, 19.265771) rotate(29.963115) translate(-29.853485, -19.265771) "></path>
                                            <path d="M6.31628418,16.2982178 L36.8553982,16.2982178 L36.8553982,36.1016159 L6.31628418,36.1016159 L6.31628418,16.2982178 Z" fill="url(#lg2348jdfs_Q_as_zsxzc216541fs3e6513sdxcvcxv12654t5r)"></path>
                                        </g>
                                    </g>
                                    <path d="M4.18547701e-06,9.10079553 L1.89146693e-07,26.3016727 C7.25872058e-08,26.8033643 0.274596883,27.2648137 0.715540628,27.5041108 L14.6170009,35.0483366 C15.0240016,35.269213 15.5151096,35.269213 15.9221102,35.0483365 L29.8235683,27.5041105 C30.2645117,27.2648135 30.5391085,26.8033646 30.5391086,26.3016733 L30.5391138,9.10079821 C30.5391139,8.59910644 30.264517,8.13765699 29.8235731,7.89835992 L15.92211,0.354136553 C15.5151095,0.13326033 15.0240017,0.133260352 14.6170012,0.354136613 L0.715544779,7.89835802 C0.274601148,8.13765499 4.30203646e-06,8.59910407 4.18547701e-06,9.10079553 Z" id="Innershadow0.1fill" fill-opacity="0.00100000005" fill="#6052B4" mask="url(#mask6sdfewsesfsdf8421313)"></path>
                                </g>
                            </g>
                        </g>
                        <g id="Group-624479" filter="url(#filterxcvxcvxc8412sdfxcv)" transform="translate(14.963257, 12.278198)">
                            <path d="M13.3369789,15.4395752 L13.3369789,22.1066294 L9.82800293,22.1066294 L9.82800293,15.4395752 L13.3369789,15.4395752 Z" id="v_01_aaa_255_01" fill="#D7D9DE"></path>
                            <path d="M13.3346753,15.4395752 L13.3346753,22.1066294 L12.2819824,22.1066294 L12.2819824,15.4395752 L13.3346753,15.4395752 Z" id="v_01_aaa_255_01" fill="#C8CAD2" opacity="0.200000003"></path>
                            <path d="M8.42166977,21.7556152 C7.26370771,21.7556152 6.31628418,22.7030389 6.31628418,23.861001 L16.8432121,23.861001 C16.8432121,22.7030389 15.8957886,21.7556152 14.7378265,21.7556152 L8.42166977,21.7556152 Z" id="v_01_aaa_255_01" fill="#EFEFF1" fill-rule="nonzero"></path>
                            <path d="M12.9831543,21.7556152 C14.1411163,21.7556152 15.0885399,22.7030389 15.0885399,23.861001 L16.8430278,23.861001 C16.8430278,22.7030389 15.8956043,21.7556152 14.7376423,21.7556152 L12.9831543,21.7556152 Z" id="v_01_aaa_255_01" fill="#E7E8EB" fill-rule="nonzero"></path>
                            <path d="M9.78861263,18.2466211 C8.8411891,18.2466211 8.06921387,17.4746458 8.06921387,16.5272222 L8.06921387,16.1412354 L15.0871658,16.1412354 L15.0871658,16.5272222 C15.0871658,17.4746458 14.3151906,18.2466211 13.3677671,18.2466211 L9.78861263,18.2466211 Z" id="v_01_aaa_255_01" fill="#EFEFF1" fill-rule="nonzero"></path>
                            <path d="M13.685637,16.5272222 C13.685637,17.4746458 13.2645603,18.2466211 12.3171387,18.2466211 L13.3698293,18.2466211 C14.3172509,18.2466211 15.0892246,17.4746458 15.0892246,16.5272222 L15.0892246,16.1412354 L13.685637,16.1412354 L13.685637,16.5272222 Z" id="v_01_aaa_255_01" fill="#E7E8EB" fill-rule="nonzero"></path>
                            <path d="M5.6151123,23.861097 C5.6151123,23.4751096 5.93092013,23.1593018 6.31690749,23.1593018 L16.8438353,23.1593018 C17.2298226,23.1593018 17.5456305,23.4751096 17.5456305,23.861097 L5.6151123,23.861097 Z" id="v_01_aaa_255_01" fill="#D7D9DE" fill-rule="nonzero"></path>
                            <path d="M15.0866699,23.1593018 C15.4726573,23.1593018 15.7884651,23.4751096 15.7884651,23.861097 L17.542953,23.861097 C17.542953,23.4751096 17.2271452,23.1593018 16.8411578,23.1593018 L15.0866699,23.1593018 Z" id="v_01_aaa_255_01" fill="#C8CAD2" fill-rule="nonzero" opacity="0.200000003"></path>
                            <path d="M7.36804199,15.4395752 L7.36804199,16.492268 C7.36804199,16.8782554 7.68384985,17.1940632 8.06983725,17.1940632 L15.0877899,17.1940632 C15.4737773,17.1940632 15.7895851,16.8782554 15.7895851,16.492268 L15.7895851,15.4395752 L7.36804199,15.4395752 Z" id="v_01_aaa_255_01" fill="#F9A74E" fill-rule="nonzero"></path>
                            <path d="M7.36804199,15.4395752 L7.36804199,16.492268 C7.36804199,16.8782554 7.68384985,17.1940632 8.06983725,17.1940632 L15.0877899,17.1940632 C15.4737773,17.1940632 15.7895851,16.8782554 15.7895851,16.492268 L15.7895851,15.4395752 L7.36804199,15.4395752 Z" id="v_01_aaa_255_01" fill="#D7D9DE" fill-rule="nonzero"></path>
                            <path d="M13.3337402,16.492268 C13.6846378,16.492268 13.7197276,17.1940632 13.3337402,17.1940632 L15.0882282,17.1940632 C15.4742155,17.1940632 15.7900233,16.8782554 15.7900233,16.492268 L15.7900233,15.4395752 L14.0355354,15.4395752 L13.3337402,16.492268 Z" id="v_01_aaa_255_01" fill="#C8CAD2" fill-rule="nonzero" opacity="0.200000003"></path>
                            <path d="M16.494873,4.21081543 L23.1619272,4.21081543 L23.1619272,4.5617131 C23.1619272,8.24613863 20.1792977,11.2287688 16.494873,11.2287688" id="v_01_aaa_255_01" stroke="#D7D9DE" stroke-width="0.632604063" stroke-linecap="round" stroke-linejoin="round" stroke-dasharray="0,0" fill-rule="nonzero"></path>
                            <path d="M6.66705418,4.21081543 L0,4.21081543 L0,4.5617131 C0,8.24613863 2.9826295,11.2287688 6.66705418,11.2287688" id="v_01_aaa_255_01" stroke="#EFEFF1" stroke-width="0.632604063" stroke-linecap="round" stroke-linejoin="round" stroke-dasharray="0,0" fill-rule="nonzero"></path>
                            <path d="M8.59867687,16.4921618 C6.35293221,16.4921618 4.56335449,14.702584 4.56335449,12.4568392 L4.56335449,1.40356445 L18.5992584,1.40356445 L18.5992584,12.4568392 C18.5992584,14.702584 16.8096807,16.4921618 14.563936,16.4921618 L8.59867687,16.4921618 Z" id="v_01_aaa_255_01" fill="#EFEFF1" fill-rule="nonzero"></path>
                            <path d="M6.66687012,2.45629883 C6.66687012,2.45629883 6.66687012,8.42155921 6.66687012,9.47425222" id="v_01_aaa_255_01" stroke="#FFFFFF" stroke-width="0.316302031" opacity="0.300000012" stroke-linecap="round" stroke-linejoin="round" stroke-dasharray="0,0" fill-rule="nonzero"></path>
                            <path d="M16.9829328,12.4752027 C16.9829328,14.7113848 15.3697923,16.4933424 13.345459,16.4933424 L14.9269693,16.4933424 C16.9513026,16.4933424 18.5644431,14.7113848 18.5644431,12.4752027 L18.5644431,1.46899414 L16.9829328,1.46899414 L16.9829328,12.4752027 Z" id="v_01_aaa_255_01" fill="#E7E8EB" fill-rule="nonzero"></path>
                            <path d="M3.51159668,1.40356445 L4.56428942,2.45625734 L18.6001927,2.45625734 L19.6528854,1.40356445 L3.51159668,1.40356445 Z" id="v_01_aaa_255_01" fill="#D7D9DE" fill-rule="nonzero"></path>
                            <path d="M16.9798584,2.41784823 L18.6602132,2.41784823 L19.668426,1.31079102 L17.6520003,1.31079102 L16.9798584,2.41784823 Z" id="v_01_aaa_255_01" fill="#C8CAD2" fill-rule="nonzero" opacity="0.200000003"></path>
                            <path d="M3.15589677,0 C2.7699094,0 2.45410156,0.315807546 2.45410156,0.701794565 C2.45410156,1.08778158 2.7699094,1.40358913 3.15589677,1.40358913 L19.9989818,1.40358913 C20.3849692,1.40358913 20.7007771,1.08778158 20.7007771,0.701794565 C20.7007771,0.315807546 20.3849692,0 19.9989818,0 L3.15589677,0 Z" id="v_01_aaa_255_01" fill="#EFEFF1" fill-rule="nonzero"></path>
                            <path d="M17.8972168,0 C18.2832042,0 18.599012,0.315807546 18.599012,0.701794565 C18.599012,1.08778158 18.2832042,1.40358913 17.8972168,1.40358913 L20.0026025,1.40358913 C20.3885898,1.40358913 20.7043977,1.08778158 20.7043977,0.701794565 C20.7043977,0.315807546 20.3885898,0 20.0026025,0 L17.8972168,0 Z" id="v_01_aaa_255_01" fill="#E7E8EB" fill-rule="nonzero"></path>
                            <path d="M6.66687012,11.0181885 L6.66687012,11.8252544" id="v_01_aaa_255_01" stroke="#FFFFFF" stroke-width="0.316302031" opacity="0.300000012" stroke-linecap="round" stroke-linejoin="round" stroke-dasharray="0,0"></path>
                        </g>
                        <g transform="translate(0.000000, 1.253296)">
                            <g>
                                <path d="M9.07672596,2.1785984 C9.6783293,2.1785984 10.1660252,1.69090254 10.1660252,1.0892992 C10.1660252,0.487695865 9.6783293,0 9.07672596,0 C8.47512262,0 7.98742676,0.487695865 7.98742676,1.0892992 C7.98742676,1.69090254 8.47512262,2.1785984 9.07672596,2.1785984 Z" id="Ellipse-12" fill="#AAC9FF" filter="url(#filtersf13216851)"></path>
                                <path d="M12.7094132,3.3887971 C12.9099476,3.3887971 13.0725129,3.22623182 13.0725129,3.02569738 C13.0725129,2.82516294 12.9099476,2.66259766 12.7094132,2.66259766 C12.5088788,2.66259766 12.3463135,2.82516294 12.3463135,3.02569738 C12.3463135,3.22623182 12.5088788,3.3887971 12.7094132,3.3887971 Z" id="Ellipse-20" fill="#AAC9FF" filter="url(#fixcvxcvioutu43548u98)"></path>
                                <path d="M15.1283585,47.4449494 C15.328893,47.4449494 15.4914582,47.2823842 15.4914582,47.0818497 C15.4914582,46.8813153 15.328893,46.71875 15.1283585,46.71875 C14.9278241,46.71875 14.7652588,46.8813153 14.7652588,47.0818497 C14.7652588,47.2823842 14.9278241,47.4449494 15.1283585,47.4449494 Z" id="Ellipse-21" fill="#AAC9FF" filter="url(#fixcvxcvxcvxcv22)"></path>
                                <path d="M1.21033251,30.9845078 C1.8787807,30.9845078 2.42066503,30.4426235 2.42066503,29.7741753 C2.42066503,29.1057271 1.8787807,28.5638428 1.21033251,28.5638428 C0.541884324,28.5638428 0,29.1057271 0,29.7741753 C0,30.4426235 0.541884324,30.9845078 1.21033251,30.9845078 Z" id="Ellipse-19" fill="#AACCFF" filter="url(#filterweoij80op)"></path>
                                <path d="M42.7241858,6.05164313 C43.1920995,6.05164313 43.5714185,5.67232413 43.5714185,5.20441043 C43.5714185,4.73649673 43.1920995,4.35717773 42.7241858,4.35717773 C42.2562721,4.35717773 41.8769531,4.73649673 41.8769531,5.20441043 C41.8769531,5.67232413 42.2562721,6.05164313 42.7241858,6.05164313 Z" id="Ellipse-17" fill="#AACCFF" filter="url(#sdfcxmv16)"></path>
                                <path d="M52.2874797,21.5438315 C52.8222382,21.5438315 53.2557455,21.1103241 53.2557455,20.5755656 C53.2557455,20.0408072 52.8222382,19.6072998 52.2874797,19.6072998 C51.7527212,19.6072998 51.3192139,20.0408072 51.3192139,20.5755656 C51.3192139,21.1103241 51.7527212,21.5438315 52.2874797,21.5438315 Z" id="Ellipse-9" fill="#AACCFF" filter="url(#filtersdf1651685117)"></path>
                                <path d="M22.5114787,52.770516 C23.0462372,52.770516 23.4797446,52.3370087 23.4797446,51.8022502 C23.4797446,51.2674918 23.0462372,50.8339844 22.5114787,50.8339844 C21.9767203,50.8339844 21.5432129,51.2674918 21.5432129,51.8022502 C21.5432129,52.3370087 21.9767203,52.770516 22.5114787,52.770516 Z" id="Ellipse-18" fill="#AACCFF" filter="url(#cxvvcbfilterfdbvccvbew65128)"></path>
                            </g>
                        </g>
                        <g transform="translate(35.149536, 26.082886)">
                            <path d="M6.3260668,10.9569936 L10.0956217,0.700298851 L2.55651195,0.700298851 L6.3260668,10.9569936 Z" id="v_01_aaa_255_01230_jksdnfadfjk654120" fill="url(#e_xzc324_s32q324y72847yqqq)" transform="translate(6.326067, 5.828646) scale(1, -1) rotate(59.999987) translate(-6.326067, -5.828646) "></path>
                            <g id="sdf53543_8651321_sdfxv_45" transform="translate(3.762596, 3.203848)">
                                <mask id="mask_2_2_010" fill="white">
                                    <use xlink:href="#path-21"></use>
                                </mask>
                                <use id="Union__cxvnmxcewirwerj8651" fill="url(#__sdfs__4512_2387yiuye_xzc324)" xlink:href="#path-21"></use>
                                <g id="Group_113_edsweijfdsf" mask="url(#mask_2_2_010)">
                                    <g transform="translate(-0.390347, -0.668054)">
                                        <path d="M5.20451395,1.79028635 L5.23829411,11.2666534 L1.03361939,3.50333219 L5.20451395,1.79028635 Z" id="v_01_aaa_255_0144_sdfsdf_qweu89u32489u" fill="url(#__sdfs__4512324)" transform="translate(3.135957, 6.528470) scale(1, -1) rotate(59.999952) translate(-3.135957, -6.528470) "></path>
                                        <path d="M7.39756064,-1.6264995 L7.39756064,7.60905138 L3.22666602,0.0865462287 L7.39756064,-1.6264995 Z" id="v_01_aaa_255_0145_31s58612sdfxcv51zxas" fill="url(#__sdfsdfjklvxc89345asdxzc)" transform="translate(5.312113, 2.991276) rotate(119.999993) translate(-5.312113, -2.991276) "></path>
                                    </g>
                                </g>
                            </g>
                        </g>
                        <g id="Group-624489" transform="translate(4.581629, 26.082886)">
                            <path d="M7.22999971,10.9569936 L10.9995546,0.700298851 L3.46044486,0.700298851 L7.22999971,10.9569936 Z" id="v_01_aaa_255_01230_jksdnfadfjk654120" fill="url(#e_xzc324_s32q324y72847yqqq)" transform="translate(7.230000, 5.828646) rotate(-120.000013) translate(-7.230000, -5.828646) "></path>
                            <g id="sdf53543_8651321_sdfxv_45" transform="translate(1.612177, 3.203284)">
                                <mask id="mask_27_poihjsdf43_435" fill="white">
                                    <use xlink:href="#path-26"></use>
                                </mask>
                                <use id="Union__cxvnmxcewirwerj8651" fill="url(#linearGradientxcvxcvxcvklmxcvxcv)" xlink:href="#path-26"></use>
                                <g id="Group_113_edsweijfdsf" mask="url(#mask_27_poihjsdf43_435)">
                                    <g transform="translate(0.222516, -0.669155)">
                                        <path d="M7.27440106,1.79182829 L7.30818122,11.2681953 L3.1035065,3.50487412 L7.27440106,1.79182829 Z" id="v_01_aaa_255_0144_sdfsdf_qweu89u32489u" fill="url(#__sdfs__4512324)" transform="translate(5.205844, 6.530012) rotate(-120.000048) translate(-5.205844, -6.530012) "></path>
                                        <path d="M5.10903107,-1.6248355 L5.10903107,7.61071539 L0.938136452,0.0882102325 L5.10903107,-1.6248355 Z" id="v_01_aaa_255_0145_31s58612sdfxcv51zxas" fill="url(#__sdfsdfjklvxc89345asdxzc)" transform="translate(3.023584, 2.992940) scale(1, -1) rotate(-60.000007) translate(-3.023584, -2.992940) "></path>
                                    </g>
                                </g>
                            </g>
                        </g>
                        <g transform="translate(23.175049, 0.000000)">
                            <path d="M3.29732776,9.95150614 L6.22295141,1.99108887 L0.371704102,1.99108887 L3.29732776,9.95150614 Z" fill="url(#_a_aa_01655sd1)"></path>
                            <g id="sdf53543_8651321_sdfxv_45" transform="translate(0.000047, 0.000000)">
                                <mask id="mask31__weijjknxvcasdkj" fill="white">
                                    <use xlink:href="#path__30__weiorj3489u_dfkvncx"></use>
                                </mask>
                                <use id="Union__cxvnmxcewirwerj8651" fill="url(#linearGradient_2_sdfsdfsdf9sdfsdfcxvxcvxcv)" xlink:href="#path__30__weiorj3489u_dfkvncx"></use>
                                <g id="Group_113_edsweijfdsf" mask="url(#mask31__weijjknxvcasdkj)">
                                    <g transform="translate(-0.188761, -0.147949)">
                                        <path d="M7.01171255,-1.53200062e-07 L7.01171255,7.76528152 L3.50481081,1.44033435 L7.01171255,-1.53200062e-07 Z" id="v_01_aaa_255_0144_sdfsdf_qweu89u32489u" fill="url(#linearGradient_32sdfcv2132178964512xcvxcv)" transform="translate(5.258262, 3.882641) scale(1, -1) rotate(-179.999995) translate(-5.258262, -3.882641) "></path>
                                        <path d="M3.50689554,0.000121610529 L3.50689554,7.76540329 L-6.19888692e-06,1.44045612 L3.50689554,0.000121610529 Z" id="v_01_aaa_255_0145_31s58612sdfxcv51zxas" fill="url(#linearGradient33_32165841sdf)" transform="translate(1.753445, 3.882762) rotate(-0.000005) translate(-1.753445, -3.882762) "></path>
                                    </g>
                                </g>
                            </g>
                        </g>
                    </g>
                </g>
            </g>
        </g>
    </g>
</svg>