<?xml version="1.0" encoding="UTF-8"?>
<svg width="100px" height="25px" viewBox="0 0 100 25" version="1.1" xmlns="http://www.w3.org/2000/svg" xmlns:xlink="http://www.w3.org/1999/xlink">
    <!-- Generator: Sketch 56.3 (81716) - https://sketch.com -->
    <title>Group 2</title>
    <desc>Created with Sketch.</desc>
    <defs>
        <filter x="-6.8%" y="-32.5%" width="113.5%" height="165.0%" filterUnits="objectBoundingBox" id="filter-1">
            <feOffset dx="0" dy="1" in="SourceAlpha" result="shadowOffsetOuter1"></feOffset>
            <feGaussianBlur stdDeviation="1" in="shadowOffsetOuter1" result="shadowBlurOuter1"></feGaussianBlur>
            <feColorMatrix values="0 0 0 0 0   0 0 0 0 0   0 0 0 0 0  0 0 0 0.5 0" type="matrix" in="shadowBlurOuter1" result="shadowMatrixOuter1"></feColorMatrix>
            <feMerge>
                <feMergeNode in="shadowMatrixOuter1"></feMergeNode>
                <feMergeNode in="SourceGraphic"></feMergeNode>
            </feMerge>
        </filter>
    </defs>
    <g id="UI" stroke="none" stroke-width="1" fill="none" fill-rule="evenodd">
        <g id="Wallet-Deposit" transform="translate(-841.000000, -680.000000)" fill-rule="nonzero">
            <g id="Group-2" transform="translate(455.000000, 101.000000)">
                <g filter="url(#filter-1)" transform="translate(388.325714, 580.866667)">
                    <path d="M3.5352381,15.4666667 L3.5352381,9.78819048 L9.28,9.78819048 L9.28,6.38552381 L3.5352381,6.38552381 L3.5352381,3.40266667 L9.39047619,3.40266667 L9.39047619,0 L0,0 L0,15.4666667 L3.5352381,15.4666667 Z M14.7817143,15.776 C16.2620952,15.776 17.3447619,15.2678095 18.0739048,14.4281905 L18.0739048,15.4666667 L21.3881905,15.4666667 L21.3881905,4.41904762 L18.0739048,4.41904762 L18.0739048,5.45752381 C17.3447619,4.61790476 16.2620952,4.10971429 14.7817143,4.10971429 C11.8872381,4.10971429 9.50095238,6.65066667 9.50095238,9.94285714 C9.50095238,13.2350476 11.8872381,15.776 14.7817143,15.776 Z M15.4445714,12.6384762 C13.92,12.6384762 12.8152381,11.6 12.8152381,9.94285714 C12.8152381,8.28571429 13.92,7.2472381 15.4445714,7.2472381 C16.9691429,7.2472381 18.0739048,8.28571429 18.0739048,9.94285714 C18.0739048,11.6 16.9691429,12.6384762 15.4445714,12.6384762 Z M26.4700952,15.776 C27.928381,15.776 29.0331429,15.2457143 29.6297143,14.4281905 L29.6297143,15.4666667 L32.944,15.4666667 L32.944,4.41904762 L29.6297143,4.41904762 L29.6297143,10.4510476 C29.6297143,12.0198095 28.7900952,12.7268571 27.5748571,12.7268571 C26.5142857,12.7268571 25.6525714,12.0860952 25.6525714,10.7161905 L25.6525714,4.41904762 L22.3382857,4.41904762 L22.3382857,11.2022857 C22.3382857,14.1851429 24.2384762,15.776 26.4700952,15.776 Z M39.351619,15.776 C41.5169524,15.776 43.3950476,14.6491429 44.3451429,12.9257143 L41.4506667,11.2685714 C41.0971429,12.0419048 40.279619,12.5059048 39.3074286,12.5059048 C37.8712381,12.5059048 36.8106667,11.4674286 36.8106667,9.94285714 C36.8106667,8.41828571 37.8712381,7.37980952 39.3074286,7.37980952 C40.279619,7.37980952 41.0750476,7.84380952 41.4506667,8.61714286 L44.3451429,6.93790476 C43.3950476,5.23657143 41.4948571,4.10971429 39.351619,4.10971429 C35.9931429,4.10971429 33.496381,6.65066667 33.496381,9.94285714 C33.496381,13.2350476 35.9931429,15.776 39.351619,15.776 Z M49.6921905,15.776 C51.7912381,15.776 53.4262857,15.0026667 54.5089524,13.5001905 L51.8575238,11.975619 C51.415619,12.4617143 50.6422857,12.8152381 49.736381,12.8152381 C48.5211429,12.8152381 47.5047619,12.4175238 47.0849524,11.2685714 L54.9287619,11.2685714 C55.0171429,10.8487619 55.0613333,10.4068571 55.0613333,9.94285714 C55.0613333,6.60647619 52.6750476,4.10971429 49.4491429,4.10971429 C45.9580952,4.10971429 43.5718095,6.65066667 43.5718095,9.94285714 C43.5718095,13.2350476 45.9139048,15.776 49.6921905,15.776 Z M51.7691429,8.79390476 L47.0186667,8.79390476 C47.328,7.66704762 48.167619,7.04838095 49.4270476,7.04838095 C50.4213333,7.04838095 51.415619,7.51238095 51.7691429,8.79390476 Z M61.7561905,15.4666667 L61.7561905,12.4617143 C60.2979048,12.5500952 59.480381,12.4617143 59.480381,11.511619 L59.480381,7.6007619 L61.7561905,7.6007619 L61.7561905,4.41904762 L59.480381,4.41904762 L59.480381,1.32571429 L56.1660952,2.32 L56.1660952,4.41904762 L54.3984762,4.41904762 L54.3984762,7.6007619 L56.1660952,7.6007619 L56.1660952,11.511619 C56.1660952,14.6049524 57.4255238,15.9085714 61.7561905,15.4666667 Z" id="Faucet" fill="#FFFFFF"></path>
                    <path d="M65.2495238,15.4666667 L65.2495238,10.6057143 L67.5695238,10.6057143 C70.6186667,10.6057143 72.9828571,8.24152381 72.9828571,5.30285714 C72.9828571,2.36419048 70.6186667,0 67.5695238,0 L61.7142857,0 L61.7142857,15.4666667 L65.2495238,15.4666667 Z M67.5695238,7.29142857 L65.2495238,7.29142857 L65.2495238,3.31428571 L67.5695238,3.31428571 C68.6521905,3.31428571 69.447619,4.176 69.447619,5.30285714 C69.447619,6.42971429 68.6521905,7.29142857 67.5695238,7.29142857 Z M77.3798095,15.776 C78.8601905,15.776 79.9428571,15.2678095 80.672,14.4281905 L80.672,15.4666667 L83.9862857,15.4666667 L83.9862857,4.41904762 L80.672,4.41904762 L80.672,5.45752381 C79.9428571,4.61790476 78.8601905,4.10971429 77.3798095,4.10971429 C74.4853333,4.10971429 72.0990476,6.65066667 72.0990476,9.94285714 C72.0990476,13.2350476 74.4853333,15.776 77.3798095,15.776 Z M78.0426667,12.6384762 C76.5180952,12.6384762 75.4133333,11.6 75.4133333,9.94285714 C75.4133333,8.28571429 76.5180952,7.2472381 78.0426667,7.2472381 C79.5672381,7.2472381 80.672,8.28571429 80.672,9.94285714 C80.672,11.6 79.5672381,12.6384762 78.0426667,12.6384762 Z M91.808,15.1352381 L95.5862857,4.41904762 L92.0510476,4.41904762 L89.9740952,11.1801905 L87.5215238,4.41904762 L83.8758095,4.41904762 L88.2727619,14.9584762 C87.7866667,16.3062857 87.0575238,16.792381 85.5108571,16.792381 L85.5108571,19.8857143 C88.6041905,20.040381 90.5706667,18.648381 91.808,15.1352381 Z" id="Pay" fill="#4B4BF3"></path>
                </g>
            </g>
        </g>
    </g>
</svg>