<svg xmlns="http://www.w3.org/2000/svg" width="22" height="22" viewBox="0 0 22 22" fill="none">
	<path d="M 3.301 1.136 L 3.065 0.164 L 3.065 0.165 L 3.301 1.136 Z M 1.345 2.926 L 0.435 2.513 L 0.434 2.514 L 1.345 2.926 Z M 11.661 1.025 L 11.659 0.025 L 11.659 0.025 L 11.661 1.025 Z M 19.652 1.003 L 20.652 1.003 L 20.652 0 L 19.649 0.003 L 19.652 1.003 Z M 19.223 6.02 L 18.338 5.555 L 18.338 5.555 L 19.223 6.02 Z M 18.068 7.25 L 18.563 8.119 L 18.563 8.119 L 18.068 7.25 Z M 12.308 7.667 L 12.309 8.667 L 12.309 8.667 L 12.308 7.667 Z M 7.274 7.67 L 7.273 6.67 L 6.274 6.67 L 6.274 7.67 L 7.274 7.67 Z M 7.274 21.003 L 7.269 22.003 L 8.274 22.008 L 8.274 21.003 L 7.274 21.003 Z M 5.565 20.995 L 5.569 19.995 L 5.569 19.995 L 5.565 20.995 Z M 1.339 19.059 L 2.249 18.642 L 2.249 18.642 L 1.339 19.059 Z M 10.277 17.687 L 9.277 17.687 L 9.277 18.687 L 10.277 18.687 L 10.277 17.687 Z M 16.776 11.003 L 17.776 11.003 L 17.776 10.003 L 16.776 10.003 L 16.776 11.003 Z M 3.065 0.165 C 2.493 0.304 1.944 0.684 1.527 1.065 C 1.097 1.459 0.68 1.971 0.435 2.513 L 2.256 3.339 C 2.361 3.108 2.586 2.807 2.877 2.54 C 3.183 2.261 3.436 2.133 3.538 2.108 L 3.065 0.165 Z M 11.659 0.025 C 9.459 0.031 7.416 0.046 5.896 0.066 C 5.137 0.076 4.505 0.088 4.049 0.1 C 3.822 0.106 3.633 0.112 3.492 0.119 C 3.422 0.122 3.358 0.126 3.303 0.13 C 3.279 0.132 3.17 0.139 3.065 0.164 L 3.538 2.108 C 3.458 2.127 3.402 2.128 3.458 2.124 C 3.483 2.122 3.524 2.119 3.585 2.117 C 3.706 2.111 3.879 2.105 4.102 2.099 C 4.545 2.087 5.167 2.076 5.923 2.066 C 7.434 2.046 9.469 2.031 11.664 2.025 L 11.659 0.025 Z M 19.649 0.003 L 11.659 0.025 L 11.664 2.025 L 19.655 2.003 L 19.649 0.003 Z M 20.652 3.104 L 20.652 1.003 L 18.652 1.003 L 18.652 3.104 L 20.652 3.104 Z M 20.107 6.486 C 20.331 6.062 20.486 5.683 20.568 5.13 C 20.641 4.635 20.652 4.01 20.652 3.104 L 18.652 3.104 C 18.652 4.038 18.637 4.514 18.589 4.838 C 18.55 5.104 18.491 5.264 18.338 5.555 L 20.107 6.486 Z M 18.563 8.119 C 19.198 7.757 19.761 7.145 20.107 6.486 L 18.338 5.555 C 18.149 5.913 17.842 6.228 17.572 6.382 L 18.563 8.119 Z M 12.309 8.667 C 14.721 8.665 16.033 8.662 16.823 8.605 C 17.227 8.575 17.55 8.529 17.843 8.442 C 18.148 8.35 18.372 8.228 18.563 8.119 L 17.572 6.381 C 17.413 6.472 17.35 6.502 17.27 6.525 C 17.178 6.553 17.018 6.585 16.678 6.61 C 15.98 6.66 14.763 6.665 12.307 6.667 L 12.309 8.667 Z M 7.274 8.67 L 12.309 8.667 L 12.308 6.667 L 7.273 6.67 L 7.274 8.67 Z M 8.274 14.336 L 8.274 7.67 L 6.274 7.67 L 6.274 14.336 L 8.274 14.336 Z M 8.274 21.003 L 8.274 14.336 L 6.274 14.336 L 6.274 21.003 L 8.274 21.003 Z M 5.56 21.995 L 7.269 22.003 L 7.278 20.003 L 5.569 19.995 L 5.56 21.995 Z M 0.43 19.475 C 0.838 20.365 1.406 21.057 2.331 21.48 C 3.188 21.873 4.257 21.989 5.56 21.995 L 5.569 19.995 C 4.322 19.989 3.614 19.868 3.164 19.662 C 2.781 19.487 2.511 19.216 2.249 18.642 L 0.43 19.475 Z M 0 11.003 C 0 14.346 0.007 16.216 0.054 17.333 C 0.101 18.457 0.192 18.954 0.43 19.475 L 2.249 18.642 C 2.176 18.484 2.097 18.306 2.052 17.249 C 2.007 16.184 2 14.366 2 11.003 L 0 11.003 Z M 0.434 2.514 C 0.196 3.041 0.102 3.526 0.054 4.655 C 0.007 5.769 0 7.639 0 11.003 L 2 11.003 C 2 7.618 2.007 5.801 2.052 4.74 C 2.097 3.693 2.177 3.515 2.256 3.339 L 0.434 2.514 Z M 11.277 14.637 C 11.277 13.182 12.456 12.003 13.911 12.003 L 13.911 10.003 C 11.352 10.003 9.277 12.078 9.277 14.637 L 11.277 14.637 Z M 11.277 17.687 L 11.277 14.637 L 9.277 14.637 L 9.277 17.687 L 11.277 17.687 Z M 13.142 16.687 L 10.277 16.687 L 10.277 18.687 L 13.142 18.687 L 13.142 16.687 Z M 15.776 14.053 C 15.776 15.508 14.596 16.687 13.142 16.687 L 13.142 18.687 C 15.701 18.687 17.776 16.613 17.776 14.053 L 15.776 14.053 Z M 15.776 11.003 L 15.776 14.053 L 17.776 14.053 L 17.776 11.003 L 15.776 11.003 Z M 13.911 12.003 L 16.776 12.003 L 16.776 10.003 L 13.911 10.003 L 13.911 12.003 Z" fill="black" />
</svg>
