<svg width="136" height="40" viewBox="0 0 136 40" fill="none" xmlns="http://www.w3.org/2000/svg" xmlns:xlink="http://www.w3.org/1999/xlink">
	<g clip-path="url(#clip0_10_43)">
		<rect x="0.38562" width="135" height="40" rx="3" fill="#C53F7F" style="" />
		<mask id="mask0_10_43" style="mask-type:alpha" maskUnits="userSpaceOnUse" x="0" y="0" width="136" height="40">
			<rect x="0.38562" width="135" height="40" rx="3" fill="white" />
		</mask>
		<g mask="url(#mask0_10_43)">
			<circle cx="15.8856" cy="20.5" r="25.5" fill="white" stroke="black" stroke-width="2" />
		</g>
		<mask id="mask1_10_43" style="mask-type:alpha" maskUnits="userSpaceOnUse" x="8" y="8" width="24" height="25">
			<rect x="8.38562" y="8" width="23.4906" height="25" fill="url(#pattern1)" />
		</mask>
		<g mask="url(#mask1_10_43)" />
		<path d="M56.0796 10.3899H51.0396V13.3779H55.9356V15.7539H51.0396V20.6139H48.5556V8.01386H56.0796V10.3899ZM60.6736 18.2379H65.9836V20.6139H58.1896V8.01386H65.8936V10.3899H60.6736V13.0719H65.4436V15.4119H60.6736V18.2379ZM78.0065 8.01386L73.6865 15.6999V20.6139H71.2205V15.6999L66.9185 8.01386H69.7265L72.4625 13.2699L75.1985 8.01386H78.0065ZM89.2022 18.9759C87.9302 20.2359 86.3822 20.8659 84.5582 20.8659C82.7342 20.8659 81.1862 20.2359 79.9142 18.9759C78.6542 17.7039 78.0242 16.1499 78.0242 14.3139C78.0242 12.4779 78.6542 10.9299 79.9142 9.66986C81.1862 8.39786 82.7342 7.76186 84.5582 7.76186C86.3822 7.76186 87.9302 8.39786 89.2022 9.66986C90.4742 10.9299 91.1102 12.4779 91.1102 14.3139C91.1102 16.1499 90.4742 17.7039 89.2022 18.9759ZM81.6602 17.2839C82.4402 18.0519 83.4062 18.4359 84.5582 18.4359C85.7102 18.4359 86.6762 18.0519 87.4562 17.2839C88.2362 16.5039 88.6262 15.5139 88.6262 14.3139C88.6262 13.1139 88.2362 12.1239 87.4562 11.3439C86.6762 10.5639 85.7102 10.1739 84.5582 10.1739C83.4062 10.1739 82.4402 10.5639 81.6602 11.3439C80.8802 12.1239 80.4902 13.1139 80.4902 14.3139C80.4902 15.5139 80.8802 16.5039 81.6602 17.2839ZM100.068 20.6139L97.53 16.2399H95.64V20.6139H93.156V8.01386H98.196C99.36 8.01386 100.35 8.42186 101.166 9.23786C101.982 10.0539 102.39 11.0379 102.39 12.1899C102.39 12.9699 102.168 13.6959 101.724 14.3679C101.28 15.0279 100.692 15.5259 99.96 15.8619L102.75 20.6139H100.068ZM95.64 10.3359V14.0619H98.196C98.664 14.0619 99.066 13.8819 99.402 13.5219C99.738 13.1499 99.906 12.7059 99.906 12.1899C99.906 11.6739 99.738 11.2359 99.402 10.8759C99.066 10.5159 98.664 10.3359 98.196 10.3359H95.64ZM111.425 20.6139L108.887 16.2399H106.997V20.6139H104.513V8.01386H109.553C110.717 8.01386 111.707 8.42186 112.523 9.23786C113.339 10.0539 113.747 11.0379 113.747 12.1899C113.747 12.9699 113.525 13.6959 113.081 14.3679C112.637 15.0279 112.049 15.5259 111.317 15.8619L114.107 20.6139H111.425ZM106.997 10.3359V14.0619H109.553C110.021 14.0619 110.423 13.8819 110.759 13.5219C111.095 13.1499 111.263 12.7059 111.263 12.1899C111.263 11.6739 111.095 11.2359 110.759 10.8759C110.423 10.5159 110.021 10.3359 109.553 10.3359H106.997ZM123.969 20.6139L123.213 18.3459H118.191L117.435 20.6139H114.753L119.163 8.01386H122.241L126.669 20.6139H123.969ZM118.983 16.0239H122.439L120.711 10.8759L118.983 16.0239Z" fill="white" />
		<path d="M51.0816 33.14C50.3016 33.14 49.6616 32.92 49.1616 32.48C48.6616 32.04 48.4116 31.45 48.4116 30.71V26H49.7816V30.6C49.7816 30.9667 49.8849 31.2567 50.0916 31.47C50.3049 31.6833 50.6349 31.79 51.0816 31.79C51.5282 31.79 51.8549 31.6833 52.0616 31.47C52.2749 31.2567 52.3816 30.9667 52.3816 30.6V26H53.7616V30.71C53.7616 31.45 53.5116 32.04 53.0116 32.48C52.5116 32.92 51.8682 33.14 51.0816 33.14ZM60.2348 26V27.32H58.3448V33H56.9648V27.32H55.0848V26H60.2348ZM61.6052 26H62.9852V33H61.6052V26ZM66.2609 31.68H68.9309V33H64.8809V26H66.2609V31.68ZM70.3149 26H71.6949V33H70.3149V26ZM78.2207 26V27.32H76.3307V33H74.9507V27.32H73.0707V26H78.2207ZM79.5911 26H80.9711V33H79.5911V26ZM84.2469 31.68H87.1969V33H82.8669V26H87.1469V27.32H84.2469V28.81H86.8969V30.11H84.2469V31.68ZM91.1596 33.14C90.4663 33.14 89.8829 32.9867 89.4096 32.68C88.9363 32.3667 88.6029 31.9433 88.4096 31.41L89.5896 30.72C89.8629 31.4333 90.3996 31.79 91.1996 31.79C91.5863 31.79 91.8696 31.72 92.0496 31.58C92.2296 31.44 92.3196 31.2633 92.3196 31.05C92.3196 30.8033 92.2096 30.6133 91.9896 30.48C91.7696 30.34 91.3763 30.19 90.8096 30.03C90.4963 29.9367 90.2296 29.8433 90.0096 29.75C89.7963 29.6567 89.5796 29.5333 89.3596 29.38C89.1463 29.22 88.9829 29.02 88.8696 28.78C88.7563 28.54 88.6996 28.26 88.6996 27.94C88.6996 27.3067 88.9229 26.8033 89.3696 26.43C89.8229 26.05 90.3663 25.86 90.9996 25.86C91.5663 25.86 92.0629 26 92.4896 26.28C92.9229 26.5533 93.2596 26.9367 93.4996 27.43L92.3396 28.1C92.0596 27.5 91.6129 27.2 90.9996 27.2C90.7129 27.2 90.4863 27.2667 90.3196 27.4C90.1596 27.5267 90.0796 27.6933 90.0796 27.9C90.0796 28.12 90.1696 28.3 90.3496 28.44C90.5363 28.5733 90.8896 28.72 91.4096 28.88C91.6229 28.9467 91.7829 29 91.8896 29.04C92.0029 29.0733 92.1529 29.13 92.3396 29.21C92.5329 29.2833 92.6796 29.3533 92.7796 29.42C92.8863 29.4867 93.0063 29.5767 93.1396 29.69C93.2729 29.8033 93.3729 29.92 93.4396 30.04C93.5129 30.16 93.5729 30.3067 93.6196 30.48C93.6729 30.6467 93.6996 30.83 93.6996 31.03C93.6996 31.6767 93.4629 32.19 92.9896 32.57C92.5229 32.95 91.9129 33.14 91.1596 33.14Z" fill="white" />
	</g>
	<defs>
		<clipPath id="clip0_10_43">
			<rect width="135" height="40" fill="white" transform="translate(0.38562)" />
		</clipPath>
	</defs>
	<path style="paint-order: stroke markers; fill: rgb(0, 0, 0);" d="M 31.691 8.024 L 12.012 8.016 C 9.948 8.269 8.64 9.511 8.407 11.874 L 8.409 29.084 C 8.444 30.61 9.699 32.229 10.678 32.588 L 16.221 32.563 L 16.2 16.3 L 28.394 16.348 C 30.12 16.206 31.689 14.581 31.7 13.3 L 31.691 8.024 Z" />
	<path style="fill: rgb(0, 0, 0);" d="M 19.865 28.923 L 19.914 24.235 C 19.922 22.348 21.104 20.821 23.5 20.4 L 27.93 20.446 L 27.9 25.1 C 27.78 26.925 26.485 28.428 24.456 28.851 L 19.865 28.923 Z" />
</svg>
