<?xml version="1.0" encoding="UTF-8"?>
<svg width="18px" height="22px" viewBox="0 0 18 22" version="1.1" xmlns="http://www.w3.org/2000/svg" xmlns:xlink="http://www.w3.org/1999/xlink">
    <!-- Generator: Sketch 56.3 (81716) - https://sketch.com -->
    <title>file-text (5)</title>
    <desc>Created with Sketch.</desc>
    <g id="UI" stroke="none" stroke-width="1" fill="none" fill-rule="evenodd" stroke-linecap="round" stroke-linejoin="round">
        <g id="Wallet-Deposit" transform="translate(-878.000000, -266.000000)" stroke="#FFFFFF" stroke-width="2">
            <g id="Group-2" transform="translate(455.000000, 101.000000)">
                <g id="Group" transform="translate(30.000000, 74.000000)">
                    <g id="data">
                        <g id="Group-7" transform="translate(2.000000, 82.000000)">
                            <g id="Group-9" transform="translate(379.000000, 0.000000)">
                                <g id="file-text-(5)" transform="translate(13.000000, 10.000000)">
                                    <path d="M10,0 L2,0 C0.8954305,0 0,0.8954305 0,2 L0,18 C0,19.1045695 0.8954305,20 2,20 L14,20 C15.1045695,20 16,19.1045695 16,18 L16,6 L10,0 Z" id="Path"></path>
                                    <polyline id="Path" points="10 0 10 6 16 6"></polyline>
                                    <path d="M12,11 L4,11" id="Path"></path>
                                    <path d="M12,15 L4,15" id="Path"></path>
                                    <polyline id="Path" points="6 7 5 7 4 7"></polyline>
                                </g>
                            </g>
                        </g>
                    </g>
                </g>
            </g>
        </g>
    </g>
</svg>