<svg version="1.2" baseProfile="tiny-ps" xmlns="http://www.w3.org/2000/svg" viewBox="0 0 15 20" width="15" height="20">
	<title>fire</title>
	<style>
		tspan { white-space:pre }
		.shp0 { fill: #ffffff } 
	</style>
	<g >
		<path fill-rule="evenodd" class="shp0" d="M15 12.5C15 16.63 11.65 19.99 7.52 20C7.52 20 7.52 20 7.52 20C7.51 20 7.51 20 7.5 20C3.36 20 0 16.63 0 12.5C0 12.36 0 12.22 0.01 12.07C0.13 7.82 2.23 6.75 2.32 6.71C2.44 6.65 2.58 6.65 2.7 6.72C2.81 6.78 2.89 6.89 2.91 7.02C2.92 7.05 3.3 9.59 5 9.96C5.01 8.86 5.06 7.21 5.43 5.73C5.97 3.61 7.5 1.4 9.34 0.08C9.47 -0.01 9.63 -0.03 9.77 0.05C9.91 0.12 10 0.26 10 0.42C10 2.36 10.98 3.68 12.11 5.21C13.34 6.86 14.73 8.73 14.96 11.71C14.96 11.71 15 12.29 15 12.5ZM10 16.5C10 16.43 9.99 16.35 9.99 16.28C9.9 15.07 9.4 14.37 8.92 13.68C8.58 13.2 8.24 12.71 8.06 12.1C7.66 12.57 7.35 13.15 7.22 13.7C7.07 14.32 7.06 15 7.06 15.6C7.06 15.83 6.87 16.01 6.64 16.01C5.94 16.01 5.51 15.54 5.27 15.02C5.14 15.3 5.02 15.72 5 16.34C5 16.4 5 16.45 5 16.5C5 17.97 6.12 19.17 7.5 19.17C8.88 19.17 10 17.97 10 16.5Z" />
	</g>
</svg>