<svg width="40" height="41" viewBox="0 0 40 41" fill="none" xmlns="http://www.w3.org/2000/svg">
	<circle cx="20" cy="20.7983" r="20" fill="black" fill-opacity="0.15" />
	<path fill-rule="evenodd" clip-rule="evenodd" d="M12.4949 7.84122C12.1746 7.91788 11.8824 8.08683 11.6485 8.33063C11.0391 8.96585 11.0077 10.0162 11.5797 10.6314L11.7138 10.7756L11.3169 11.08C9.69776 12.3221 8.17518 14.2929 7.28321 16.3011C6.08739 18.9934 5.71207 22.0754 6.22164 25.0182C6.64371 27.4554 7.69514 29.8067 9.20666 31.6937C10.0646 32.7648 11.7301 34.2469 12.5352 34.656L12.8156 34.7983H20.5002H28.1849L28.4653 34.6573C29.2202 34.2775 30.7948 32.894 31.6769 31.8356C32.9927 30.2567 34.0312 28.1769 34.5522 26.0771C35.3561 22.8371 35.0707 19.3824 33.7523 16.3902C32.8345 14.3074 31.3232 12.3378 29.6692 11.0691L29.2867 10.7756L29.4207 10.6314C29.8331 10.188 29.9508 9.40602 29.6912 8.83424C29.5223 8.46225 29.1686 8.10405 28.8078 7.93977L28.5189 7.80821L20.6136 7.79921C16.1176 7.79408 12.6163 7.8122 12.4949 7.84122ZM28.4687 9.06572C28.9091 9.3965 28.708 10.0029 28.1289 10.0903C27.6757 10.1586 27.4347 10.6182 27.6726 10.9599C27.7215 11.0301 27.9464 11.213 28.1724 11.3665C29.1913 12.058 30.2734 13.0664 30.9913 13.9934C32.5008 15.9424 33.4162 18.159 33.7688 20.719C33.8803 21.5288 33.8648 23.5562 33.7408 24.3671C33.166 28.1286 31.338 31.2122 28.4452 33.3002L27.9522 33.656L20.5002 33.6561L13.0483 33.6563L12.5666 33.3078C9.65939 31.2046 7.83035 28.1241 7.25834 24.3671C7.11927 23.4539 7.11927 21.4042 7.25834 20.491C7.61824 18.1272 8.46249 16.0621 9.80197 14.269C10.5641 13.2489 11.5271 12.3069 12.6217 11.5108L12.9319 11.2853L16.0974 11.2568L19.2629 11.2283L19.4282 11.0421C19.6516 10.7906 19.6516 10.526 19.4282 10.2744L19.2629 10.0883L15.9289 10.0598C14.0952 10.0441 12.5629 10.0104 12.5237 9.98492C12.3837 9.89378 12.2723 9.5948 12.3077 9.40516C12.3474 9.1922 12.4852 9.04816 12.7164 8.97805C12.8054 8.95103 16.3509 8.93325 20.5953 8.93861C28.2924 8.94824 28.3126 8.94852 28.4687 9.06572ZM24.3254 14.9633C23.3791 15.0401 22.233 15.1727 20.3586 15.4223C17.2925 15.8305 16.5512 15.8941 14.8334 15.8964C13.2451 15.8984 12.4596 15.8317 11.4616 15.6102C10.5001 15.3967 10.3874 15.4255 10.0373 15.9739C9.28532 17.1516 8.71988 18.6402 8.41886 20.2345C8.30557 20.8344 8.28971 21.0973 8.28971 22.3721C8.28971 23.6443 8.30574 23.9109 8.41829 24.5096C9.01597 27.6881 10.5824 30.3386 12.9322 32.1478L13.3765 32.4898H20.4987H27.621L27.9512 32.239C30.0346 30.6569 31.677 28.1945 32.3433 25.6543C32.4344 25.3069 32.5509 24.7918 32.6022 24.5096C32.7248 23.8354 32.7762 21.8308 32.6902 21.0807C32.5232 19.6252 32.1197 18.2382 31.4981 16.9827C30.9948 15.9664 30.7799 15.642 30.5306 15.5219C30.2709 15.3968 29.1971 15.1602 28.3772 15.0474C27.5977 14.9402 25.219 14.8908 24.3254 14.9633ZM28.1489 16.1912C28.5688 16.245 29.1537 16.3431 29.4486 16.4092L29.9848 16.5294L30.3056 17.1111C32.7544 21.5498 31.6457 27.6509 27.8006 30.8959L27.2966 31.3213H20.5002H13.7038L13.1998 30.8959C11.5495 29.5031 10.3057 27.4506 9.7347 25.1778C9.46496 24.1041 9.37684 23.2498 9.40999 22.03C9.44173 20.8633 9.53319 20.2387 9.81908 19.237C10.1401 18.1125 10.8444 16.6395 11.0328 16.6988C11.2844 16.7779 12.5364 16.961 13.2266 17.0196C14.1656 17.0991 16.1928 17.0555 17.3835 16.9301C17.8354 16.8825 19.1869 16.7162 20.3869 16.5605C23.0031 16.2212 23.4876 16.166 24.4104 16.1022C25.4162 16.0326 27.253 16.0764 28.1489 16.1912ZM17.7235 19.6131C15.7262 19.9835 14.2063 21.146 13.264 23.0235C13.1225 23.3055 13.0086 23.6125 13.0086 23.7119C13.0086 24.1052 13.7302 25.2957 14.3957 26.0004C16.5982 28.3327 19.8736 28.4313 22.0983 26.2324C22.3275 26.0059 22.6527 25.6331 22.8213 25.4039L23.1277 24.9872L23.5197 25.4193C24.4037 26.394 25.4311 26.8833 26.6205 26.8961C27.1716 26.902 27.3853 26.8406 27.6607 26.5975C27.854 26.4269 27.9805 26.0967 27.9805 25.7631C27.9805 25.3845 27.8973 25.2056 27.5322 24.8002C27.175 24.4035 27.0531 24.0806 27.0843 23.6143C27.1143 23.1678 27.2305 22.9213 27.616 22.4868C27.9463 22.1145 28.0118 21.9218 27.9672 21.4546C27.9338 21.1053 27.7146 20.805 27.3539 20.6147C27.1247 20.4937 27.0489 20.4842 26.5071 20.5081C25.3897 20.5572 24.566 20.9484 23.6644 21.8585L23.1167 22.4112L22.8921 22.0923C22.0824 20.9433 20.8961 20.0794 19.6755 19.7498C19.2381 19.6317 18.0657 19.5496 17.7235 19.6131ZM19.5704 20.9183C20.6872 21.295 21.6808 22.1644 22.3258 23.3295L22.5362 23.7097L22.3602 24.0241C21.8843 24.8746 21.1294 25.6739 20.3869 26.1134C18.7202 27.1 16.8061 26.8034 15.3432 25.332C14.9796 24.9662 14.318 24.0495 14.2405 23.8042C14.1724 23.588 14.6843 22.7539 15.2547 22.1518C15.8897 21.4815 16.7186 20.9918 17.526 20.8096C18.1145 20.6769 18.9932 20.7236 19.5704 20.9183ZM26.6232 21.8912C26.492 22.0343 26.2939 22.3438 26.1828 22.579C26.0091 22.947 25.9771 23.0803 25.9535 23.5336C25.9124 24.3235 26.0871 24.8519 26.5979 25.4828L26.8586 25.8047L26.4987 25.7654C25.7971 25.6888 25.3068 25.4875 24.7675 25.0546C24.4576 24.8058 24.0232 24.2649 23.8346 23.8931L23.7228 23.6727L23.9107 23.3525C24.1798 22.8943 24.8789 22.2043 25.2963 21.985C25.695 21.7756 26.1856 21.6427 26.5852 21.6358L26.8616 21.631L26.6232 21.8912ZM16.0921 22.4009C15.7233 22.5621 15.6586 23.1403 15.9837 23.3694C16.1913 23.5157 16.5182 23.4791 16.7078 23.2885C17.0054 22.9891 16.8978 22.5223 16.496 22.3686C16.3214 22.3018 16.3183 22.3021 16.0921 22.4009Z" fill="currentColor" fill-opacity="0.5" />
</svg>
