<svg width="137" height="180" viewBox="0 0 137 180" fill="none" xmlns="http://www.w3.org/2000/svg">
  <g>
    <path d="M29.6377 5.2751C27.002 5.54056 24.3473 5.91981 21.7305 6.43178C20.1595 6.57826 19.0052 7.97056 19.1517 9.54156C19.2982 11.1126 20.6905 12.2669 22.2615 12.1204L22.2425 12.0446H22.7924C25.2385 11.5705 27.7226 11.2102 30.1876 10.9637C31.7586 10.812 32.9087 9.41547 32.757 7.84446C32.6053 6.27345 31.2087 5.1234 29.6377 5.2751Z" fill="#8030fc" />
    <path d="M43.5558 4.91481C41.9848 4.82047 40.6352 6.01745 40.5409 7.58846C40.4465 9.15947 41.6435 10.5091 43.2145 10.6034C45.7175 10.7931 48.2015 11.0585 50.6476 11.4378H51.0838C52.6548 11.553 54.0215 10.373 54.1367 8.80203C54.2519 7.2315 53.0719 5.86433 51.5009 5.74914C48.8842 5.35093 46.2105 5.0665 43.5558 4.91481Z" fill="#8030fc" />
    <path d="M2.13292 18.6412C2.12296 18.6412 2.11348 18.6431 2.104 18.6431H2.16089C2.15141 18.6431 2.1424 18.6412 2.13292 18.6412Z" fill="#8030fc" />
    <path d="M8.69491 9.9913C8.5617 10.0278 8.43133 10.0743 8.30476 10.1297C5.82073 11.0399 3.33669 12.0259 0.947472 13.2205C-0.477054 13.8833 -1.09427 15.5752 -0.431543 16.9992C0.0330278 17.998 1.03328 18.6361 2.13308 18.6418C2.54361 18.6337 2.94797 18.5385 3.31773 18.3593C5.55526 17.2974 7.86863 16.3303 10.201 15.477C11.7165 15.0608 12.6073 13.4955 12.191 11.9809C11.7753 10.4663 10.21 9.57508 8.69491 9.9913Z" fill="#8030fc" />
    <path d="M43.5558 173.848C41.0718 174.038 38.5688 174.095 36.0848 174.019C34.5137 173.977 33.2063 175.216 33.1646 176.787C33.1229 178.358 34.3621 179.666 35.9331 179.707H38.3412C40.2375 179.707 42.1337 179.707 43.9161 179.537C45.4871 179.438 46.6798 178.083 46.5803 176.512C46.4807 174.941 45.1268 173.748 43.5558 173.848Z" fill="#8030fc" />
    <path d="M117.565 112.676C116.958 115.084 116.218 117.474 115.384 119.806C114.89 121.271 115.656 122.863 117.11 123.39C118.588 123.92 120.217 123.151 120.747 121.673C120.748 121.67 120.749 121.667 120.75 121.664C121.641 119.161 122.419 116.601 123.083 114.079C123.47 112.556 122.549 111.007 121.025 110.619C119.502 110.231 117.952 111.153 117.565 112.676Z" fill="#8030fc" />
    <path d="M123.007 70.2392C122.553 68.7356 120.965 67.8846 119.462 68.3392C118.036 68.7697 117.184 70.2269 117.508 71.6804C118.134 74.0696 118.646 76.5347 119.063 78.9808C119.308 80.3209 120.469 81.2989 121.831 81.3131H122.305C123.855 81.0614 124.907 79.6018 124.657 78.0516C124.221 75.4349 123.671 72.7991 123.007 70.2392Z" fill="#8030fc" />
    <path fill-rule="evenodd" clip-rule="evenodd" d="M136.205 44.6219L131.18 39.3884C130.46 38.6697 129.403 38.4071 128.43 38.7057L119.366 41.4552L108.748 30.1917L132.583 16.9183C133.972 16.2788 134.579 14.6343 133.939 13.2458C133.806 12.9552 133.623 12.6902 133.398 12.4627L126.705 5.76906C125.975 5.06794 124.921 4.82048 123.955 5.12435L93.7486 14.2641L83.585 3.47465C80.9947 0.479589 76.7781 -0.521134 73.1179 0.990617H72.9472C70.1878 2.12645 67.9962 4.31799 66.8604 7.07745C66.5741 7.798 66.3707 8.54843 66.2536 9.31497L65.0969 8.91677C63.5994 8.43513 61.9947 9.25856 61.5131 10.7561C61.0315 12.2536 61.8549 13.8583 63.3524 14.3399C64.8125 14.814 66.2726 15.3449 67.7327 15.8948C68.1721 16.5822 68.6874 17.2184 69.2686 17.791L79.9822 27.9547L76.9103 38.0994C46.8658 16.668 5.13647 23.6503 -16.295 53.6948C-37.7264 83.7392 -30.7441 125.468 -0.699587 146.9C29.3449 168.331 71.0743 161.349 92.5057 131.304C109.596 107.345 109 75.0257 91.0371 51.7137L95.8914 42.9532L107.155 53.572L104.443 62.5411C104.117 63.5266 104.374 64.6122 105.107 65.3475C105.107 65.3475 110.663 70.8465 110.796 71.0361C112.109 71.7974 113.792 71.3499 114.553 70.0363C114.565 70.0159 114.577 69.9951 114.588 69.9742L122.002 56.3784L135.389 49.078C136.778 48.438 137.386 46.7935 136.746 45.405C136.612 45.1144 136.429 44.8494 136.205 44.6219ZM38.2656 31.329C39.5299 31.329 40.7937 31.3669 42.058 31.4428C52.8095 41.3599 49.6428 50.4049 42.4372 58.5586C38.185 63.0682 33.6232 67.2754 28.7845 71.1494C21.7875 77.1035 15.2646 82.6594 12.7995 88.2152C9.87936 94.8141 12.0221 100.787 23.8165 106.002C29.7137 108.618 32.9183 110.647 34.1698 112.183C34.1883 112.206 34.2063 112.221 34.2248 112.235C34.1859 112.247 34.1466 112.26 34.0939 112.278C31.2382 113.366 28.1986 113.887 25.1438 113.814C10.8464 114.421 0.663788 105.281 -7.2434 98.2083C-12.932 93.1454 -17.6536 88.9358 -22.5648 88.8979C-21.7532 73.9183 -15.4393 59.765 -4.83522 49.1534C6.59655 37.7268 22.1023 31.3143 38.2656 31.329ZM99.4562 92.349C99.4477 118.777 82.4581 142.208 57.3414 150.43C56.6361 145.986 57.4581 141.433 59.6738 137.517C62.6783 132.691 66.5333 128.451 71.051 125.002C88.553 110.401 89.5391 102.247 90.2975 95.9707C90.7716 92.0077 91.1319 89.0496 98.9632 84.7452C99.2775 87.2676 99.4358 89.8071 99.4373 92.349H99.4562ZM97.9961 79.1324C86.069 85.2003 85.5381 89.5236 84.8175 95.4208C84.1728 100.73 83.3385 107.67 67.5241 120.868C62.4588 124.743 58.1521 129.519 54.8195 134.957C51.914 140.093 50.9071 146.087 51.9752 151.89C19.0812 159.409 -13.6801 138.839 -21.1995 105.946C-22.0594 102.184 -22.561 98.3486 -22.6975 94.4917C-19.6825 94.4917 -15.7763 98.0755 -10.9789 102.342C-2.2943 110.097 8.81748 119.996 25.3714 119.408C29.2719 119.475 33.1444 118.739 36.7486 117.246C38.268 116.574 39.418 115.272 39.8963 113.681C40.3002 111.907 39.7878 110.048 38.5311 108.732C36.7486 106.552 32.8424 103.973 26.1299 100.977C18.1089 97.4308 16.3644 93.9797 17.9382 90.4528C19.8344 86.0156 25.9402 80.9717 32.4253 75.2831C37.4787 71.1991 42.2372 66.7639 46.6658 62.0096C54.5919 52.9837 58.6688 43.1424 50.6099 32.3719C59.5662 34.2027 67.9929 38.034 75.2606 43.5785L70.8993 57.9707C70.5774 58.9567 70.8334 60.04 71.563 60.7771C71.563 60.7771 78.6359 67.7931 78.8634 67.9258C80.177 68.6871 81.8594 68.2396 82.6212 66.926C82.6331 66.9057 82.6444 66.8848 82.6558 66.8639L88.1738 56.8899C91.431 61.4891 94.0345 66.5179 95.9103 71.832C96.7579 74.2193 97.4543 76.6579 97.9961 79.1324ZM118.892 51.8649C118.345 52.1366 117.904 52.5836 117.641 53.1354L116.427 55.6005L111.706 64.1334L110.322 62.6164L113.071 53.5336C113.391 52.4693 113.04 51.3174 112.18 50.6134L97.2187 36.5246C96.1355 35.4604 94.3948 35.476 93.3305 36.5592C93.3049 36.5853 93.2803 36.6114 93.2556 36.6384C93.066 36.847 79.6029 61.0995 79.6029 61.0995L76.6638 58.1603L85.8415 27.9158C86.1704 26.8459 85.8177 25.6835 84.9502 24.9767L73.042 13.7701C71.7242 12.6537 71.2862 10.8092 71.9612 9.21921C72.5661 7.84162 73.6706 6.74419 75.052 6.14736H75.1468C76.7174 5.54104 78.4993 5.99803 79.584 7.28508L90.9612 19.307C91.6756 20.0741 92.764 20.3684 93.7676 20.0655L124.107 10.9068L127.046 13.846L102.964 27.0815C101.631 27.8087 101.14 29.4792 101.868 30.8118C101.879 30.8327 101.89 30.8531 101.902 30.8739C102.016 31.0825 116.522 46.5176 116.522 46.5176C117.241 47.278 118.329 47.5648 119.328 47.2571L128.449 44.5076L129.871 45.9298L121.338 50.6514L118.892 51.8649Z" fill="#8030fc" />
    <path d="M113.886 130.539C112.527 129.828 110.85 130.323 110.094 131.658C108.899 133.838 107.591 135.981 106.188 138.029C105.282 139.317 105.592 141.096 106.88 142.002C108.168 142.908 109.946 142.598 110.852 141.31C112.331 139.11 113.735 136.816 115.024 134.502C115.82 133.147 115.367 131.404 114.012 130.609C113.971 130.585 113.929 130.561 113.886 130.539Z" fill="#8030fc" />
    <path d="M120.124 91.8924C120.123 91.9308 120.123 91.9692 120.125 92.0076V92.3299C120.125 94.814 120.011 97.317 119.783 99.801C119.641 101.365 120.794 102.749 122.358 102.891C122.359 102.891 122.361 102.892 122.362 102.892H122.628C124.128 102.906 125.381 101.752 125.491 100.256C125.737 97.6204 125.851 94.9467 125.851 92.292V91.9128C125.841 90.3494 124.57 89.0874 123.007 89.0874C121.436 89.0661 120.146 90.3219 120.124 91.8924Z" fill="#8030fc" />
    <path d="M15.8524 170.928C14.3705 170.407 12.7469 171.186 12.2254 172.668C11.704 174.149 12.4833 175.773 13.9652 176.295C14.0738 176.333 14.1852 176.364 14.2975 176.389C16.8384 177.11 19.4552 177.736 22.072 178.286H22.6029C24.1739 178.432 25.5662 177.278 25.7127 175.707C25.8592 174.136 24.7049 172.743 23.1339 172.596C20.6688 172.179 18.2227 171.648 15.8524 170.928Z" fill="#8030fc" />
    <path d="M63.6937 169.98V170.056C61.3424 170.834 58.9153 171.497 56.5071 171.952C54.973 172.298 54.0093 173.822 54.3549 175.356C54.7005 176.89 56.2245 177.854 57.7586 177.508C60.3374 176.92 62.9352 176.2 65.4572 175.384C66.9315 174.841 67.6862 173.206 67.1434 171.732C66.629 170.336 65.1249 169.572 63.6937 169.98Z" fill="#8030fc" />
    <path d="M-2.99583 162.85C-4.35209 162.054 -6.0966 162.508 -6.89254 163.864C-7.68847 165.221 -7.23433 166.965 -5.87807 167.761C-3.58366 169.107 -1.21339 170.359 1.19479 171.554C2.61884 172.224 4.3169 171.612 4.98721 170.188C5.65752 168.764 5.04646 167.066 3.62194 166.396C1.36545 165.277 -0.853115 164.064 -2.99583 162.85Z" fill="#8030fc" />
    <path d="M97.9579 148.231H97.9769C96.2703 150.127 94.4689 151.796 92.6296 153.445C91.4568 154.492 91.3548 156.292 92.402 157.465C93.4492 158.638 95.2492 158.74 96.422 157.693C98.3182 155.929 100.328 154.052 102.111 152.118C103.17 150.957 103.088 149.158 101.928 148.099C100.788 147.059 99.0264 147.117 97.9579 148.231Z" fill="#8030fc" />
    <path d="M82.3346 161.305C82.2891 161.332 82.2445 161.36 82.2009 161.39V161.314C80.1151 162.642 77.9344 163.893 75.7348 165.107C74.3369 165.824 73.7851 167.539 74.5023 168.937C75.2195 170.335 76.9347 170.887 78.3327 170.17C80.684 168.956 83.0163 167.61 85.2538 166.188C86.602 165.381 87.0419 163.635 86.2356 162.287C85.4297 160.939 83.6833 160.499 82.3346 161.305Z" fill="#8030fc" />
  </g>
</svg>