<svg width="99" height="99" viewBox="0 0 99 99" fill="none" xmlns="http://www.w3.org/2000/svg">
<g >
<path d="M89.8517 49.0981C89.8517 71.4644 71.7203 89.5958 49.3541 89.5958C26.9878 89.5958 8.85645 71.4644 8.85645 49.0981C8.85645 26.7319 26.9878 8.60052 49.3541 8.60052C71.7203 8.60052 89.8517 26.7319 89.8517 49.0981ZM12.3952 49.0981C12.3952 69.51 28.9423 86.057 49.3541 86.057C69.7659 86.057 86.3129 69.51 86.3129 49.0981C86.3129 28.6863 69.7659 12.1393 49.3541 12.1393C28.9423 12.1393 12.3952 28.6863 12.3952 49.0981Z" fill="url(#paint0_linear_63_4713)"/>
<path d="M46.9429 66.6081C37.298 66.6081 29.5582 58.771 29.5582 49.2716C29.5582 39.6534 37.4171 31.9351 46.9429 31.9351C56.5878 31.9351 82.1885 49.2716 82.1885 49.2716C82.1885 49.2716 56.5878 66.6081 46.9429 66.6081Z" fill="url(#paint1_linear_63_4713)"/>
<path d="M28.9635 49.2714C28.9635 39.297 37.0605 31.3412 46.9435 31.3412C56.5884 31.3412 81.4746 48.084 82.5463 48.7964L83.2607 49.2714L82.5463 49.7464C81.4746 50.4589 56.7075 67.2016 46.9435 67.2016C37.0605 67.2016 28.9635 59.1271 28.9635 49.2714ZM81.1174 49.2714C76.8308 46.4216 55.3977 32.5286 46.9435 32.5286C37.6558 32.5286 30.1542 40.0094 30.1542 49.2714C30.1542 58.5334 37.6558 66.0142 46.9435 66.0142C55.3977 66.0142 76.8308 52.0025 81.1174 49.2714Z" fill="url(#paint2_linear_63_4713)"/>
<g filter="url(#filter1_d_63_4713)">
<path d="M46.7934 74.1649C32.9735 74.1649 21.684 62.9061 21.684 49.1238C21.684 35.3415 32.9735 24.0827 46.7934 24.0827C60.6133 24.0827 71.9028 35.3415 71.9028 49.1238C72.0974 62.9061 60.8079 74.1649 46.7934 74.1649Z" fill="url(#paint3_linear_63_4713)"/>
</g>
<g filter="url(#filter2_i_63_4713)">
<path d="M67.4099 53.7516C64.8197 65.5256 53.3705 72.9615 41.7635 70.408C30.1566 67.8546 22.8851 56.3002 25.4753 44.5263C28.0654 32.7523 39.5147 25.3165 51.1216 27.8699C62.7285 30.4233 70.0001 41.9777 67.4099 53.7516Z" fill="url(#paint4_linear_63_4713)"/>
<path d="M67.4099 53.7516C64.8197 65.5256 53.3705 72.9615 41.7635 70.408C30.1566 67.8546 22.8851 56.3002 25.4753 44.5263C28.0654 32.7523 39.5147 25.3165 51.1216 27.8699C62.7285 30.4233 70.0001 41.9777 67.4099 53.7516Z" fill="url(#paint5_linear_63_4713)"/>
<path d="M67.4099 53.7516C64.8197 65.5256 53.3705 72.9615 41.7635 70.408C30.1566 67.8546 22.8851 56.3002 25.4753 44.5263C28.0654 32.7523 39.5147 25.3165 51.1216 27.8699C62.7285 30.4233 70.0001 41.9777 67.4099 53.7516Z" fill="url(#paint6_linear_63_4713)" style="mix-blend-mode:soft-light"/>
</g>
<mask id="path-6-outside-1_63_4713" maskUnits="userSpaceOnUse" x="27.7521" y="41.8244" width="40.3713" height="15.6717" fill="black">
<rect fill="white" x="27.7521" y="41.8244" width="40.3713" height="15.6717"/>
<path fill-rule="evenodd" clip-rule="evenodd" d="M53.2797 45.1493C53.3682 45.2396 53.5038 45.2851 53.6866 45.2858C54.1275 45.2463 54.475 45.0884 54.728 44.8122C54.9713 44.5369 55.0946 44.2527 55.0972 43.9599C55.0939 43.8187 55.0332 43.6848 54.9149 43.5581C54.7968 43.4413 54.6369 43.3827 54.435 43.3827C54.013 43.4309 53.6907 43.6065 53.467 43.9095C53.2435 44.222 53.1351 44.5193 53.1417 44.8021C53.1448 44.934 53.1908 45.0498 53.2797 45.1493ZM52.7044 51.4592C52.8439 51.3257 52.9815 51.1899 53.1171 51.0518C53.0977 51.1411 53.0822 51.2278 53.0705 51.3119C53.0688 51.7012 53.1466 51.9919 53.3035 52.1842C53.4511 52.3763 53.6201 52.4738 53.8112 52.4768C53.9065 52.4783 53.9931 52.4561 54.071 52.4098C54.1394 52.3538 54.1943 52.2788 54.2352 52.1844C54.5362 51.6765 55.184 50.8943 56.1793 49.837C57.1745 48.7705 58.0581 47.9349 58.8303 47.3298C58.4045 47.8452 57.9652 48.5124 57.5121 49.331C57.0588 50.1498 56.8041 50.872 56.7483 51.4978C56.7394 51.8109 56.8088 52.059 56.9564 52.2415C57.1038 52.4339 57.3064 52.5318 57.5643 52.5359C58.1288 52.5068 58.7593 52.1749 59.4558 51.5403C59.5883 51.4196 59.7198 51.2966 59.8504 51.1713C59.8319 51.6202 59.9317 51.9811 60.1494 52.2541C60.3926 52.5595 60.7574 52.7337 61.2432 52.7766C61.7968 52.816 62.3549 52.6948 62.9172 52.4128C63.4709 52.1208 63.9823 51.7399 64.4511 51.27C64.5166 51.2853 64.5782 51.2954 64.6352 51.3005C64.9686 51.3298 65.3475 51.2591 65.7716 51.0882C66.2065 50.9089 66.6853 50.6006 67.2079 50.1639C67.2443 50.0157 67.2162 49.8855 67.1237 49.7731C67.0308 49.6608 66.9241 49.6277 66.8031 49.6738C66.494 49.9306 66.2027 50.118 65.9291 50.2358C65.6554 50.3537 65.4078 50.4124 65.1866 50.4118C65.4377 50.0742 65.6412 49.7325 65.7972 49.3863C65.9522 49.0499 66.0477 48.7267 66.0837 48.4175C66.1286 48.0334 66.0648 47.6727 65.8926 47.3356C65.7104 46.9978 65.3921 46.7994 64.9371 46.7401C64.7463 46.7233 64.5676 46.7313 64.4001 46.7638C64.2325 46.7965 64.0819 46.8495 63.9487 46.9229L63.9341 46.9216C63.2131 46.9148 62.3989 47.3354 61.4911 48.1832C60.961 48.6793 60.5545 49.211 60.2716 49.7785C60.0091 50.0445 59.7663 50.2763 59.5433 50.4737C59.1215 50.8565 58.8437 51.0513 58.7099 51.0586C58.6143 51.0571 58.5684 50.9902 58.5722 50.8572C58.5911 50.5253 58.7624 50.0438 59.0862 49.4128C59.4003 48.7818 59.7999 48.1663 60.2851 47.5663C60.3238 47.5479 60.3485 47.5197 60.3593 47.4819C60.3793 47.4444 60.3901 47.402 60.3915 47.3543C60.3975 47.1457 60.2936 46.9305 60.0804 46.7087C59.8669 46.4775 59.5696 46.3495 59.1884 46.3243C58.7947 46.3846 58.161 46.8351 57.2869 47.6757C56.4027 48.5257 55.5997 49.3818 54.8779 50.2437C55.162 49.6502 55.4794 49.0808 55.8293 48.5357C56.1794 47.9812 56.5076 47.526 56.8141 47.1699C56.853 47.1421 56.8733 47.0996 56.875 47.0427C56.8696 46.891 56.7835 46.728 56.6165 46.5546C56.4396 46.3905 56.2463 46.2972 56.0369 46.2748C55.6892 46.4024 55.1349 47.0773 54.3742 48.2992C54.1591 48.6473 53.9701 48.9773 53.8072 49.289C53.4276 49.7263 53.0758 50.094 52.7521 50.3915C52.3179 50.8005 52.0094 51.0138 51.8269 51.0317C51.7304 51.0363 51.6809 50.9726 51.6777 50.8399C51.6888 50.4892 51.8879 49.9351 52.2753 49.1781C52.653 48.4312 53.0807 47.7388 53.5576 47.1006C53.5953 47.0705 53.6137 47.0269 53.6124 46.9702C53.5999 46.8478 53.4904 46.7014 53.2839 46.5311C53.0871 46.3606 52.8823 46.2709 52.6701 46.2617C52.345 46.3813 51.8157 47.0549 51.0828 48.2827C50.8868 48.6082 50.7148 48.9254 50.5667 49.2344C50.3426 49.5146 50.1152 49.7808 49.8847 50.0335C49.5448 50.3858 49.22 50.6797 48.9102 50.9149C48.9822 50.4418 49.006 49.8296 48.9814 49.0783C48.9471 48.3279 49.0788 47.6114 49.3759 46.9288C49.4298 46.8769 49.4543 46.8176 49.4496 46.7512C49.4178 46.5728 49.2659 46.3945 48.9941 46.2167C48.7222 46.0388 48.4567 45.9512 48.1976 45.9534C48.1403 45.9581 48.0837 45.9724 48.0278 45.9961C47.9813 46.0191 47.9406 46.0557 47.906 46.1062C47.8712 46.1569 47.8329 46.2267 47.7913 46.316C47.5434 46.7465 47.2059 47.2652 46.7787 47.8726C46.4258 48.3724 46.1351 48.7765 45.907 49.0848C45.8893 49.0947 45.8743 49.1077 45.862 49.1236C45.7022 49.3664 45.5468 49.5936 45.3957 49.8051C45.3721 49.7221 45.3496 49.6374 45.3283 49.5513C45.3222 49.466 45.291 49.4307 45.2343 49.4448C45.1395 49.4622 45.0396 49.5418 44.9345 49.684C44.8204 49.8365 44.7643 49.9937 44.7664 50.1556C44.7758 50.288 44.7954 50.4211 44.8253 50.555C44.7463 50.6514 44.6688 50.7428 44.5927 50.8292C44.1973 51.2797 43.9098 51.5234 43.7307 51.5606C43.6829 51.5678 43.6471 51.5545 43.6232 51.52C43.5908 51.4966 43.5703 51.4524 43.5614 51.3872C43.5339 51.0403 43.6709 50.4731 43.9722 49.6861C44.2746 48.9083 44.6275 48.1799 45.0307 47.5003C45.0648 47.4666 45.0784 47.4217 45.0707 47.3659C45.0449 47.2467 44.9201 47.1139 44.6965 46.968C44.4729 46.8222 44.2551 46.7562 44.0435 46.7698C43.9672 46.7815 43.8715 46.8629 43.7559 47.0136C43.6403 47.1644 43.5074 47.3653 43.357 47.6164C43.3172 47.3947 43.2148 47.211 43.0495 47.0657C42.8842 46.9203 42.6298 46.8696 42.2862 46.913C41.1111 47.199 40.1499 47.9884 39.4026 49.2809C38.6551 50.5737 38.3257 51.7259 38.4142 52.7376C38.4594 53.0724 38.5816 53.329 38.7804 53.5071C38.9683 53.6774 39.2486 53.7387 39.6206 53.6906C40.0936 53.5986 40.5376 53.2926 40.9528 52.7728C41.3787 52.2608 41.7571 51.6851 42.088 51.0452C42.0433 51.2895 42.0117 51.5222 41.9932 51.7434C41.9745 51.9647 41.9778 52.1683 42.003 52.3542C42.0433 52.652 42.1412 52.8741 42.2971 53.0209C42.4528 53.1678 42.6496 53.2228 42.8874 53.1861C43.453 53.0609 44.0496 52.627 44.6772 51.8844C44.8267 51.7075 44.9728 51.5277 45.1154 51.3449C45.2091 51.529 45.3213 51.7144 45.4521 51.9011C45.8592 52.4968 46.4419 52.7919 47.2001 52.7866L47.2431 52.783C47.8716 52.7122 48.5468 52.3514 49.2686 51.7005C49.5018 51.4903 49.7319 51.2639 49.9588 51.0213C49.923 51.2156 49.8991 51.4058 49.8871 51.5919C49.8944 51.904 49.9725 52.1468 50.121 52.3196C50.27 52.502 50.4792 52.5867 50.749 52.5741C51.3549 52.5078 52.0067 52.1362 52.7044 51.4592ZM36.912 45.1539C36.0991 44.7457 35.036 44.7054 33.7226 45.0334C32.3402 45.4392 31.1606 46.1048 30.1832 47.0298C29.2036 47.9458 28.795 48.8442 28.958 49.7244C29.0806 50.1141 29.2925 50.3712 29.5935 50.4959C29.9012 50.609 30.171 50.6337 30.4026 50.5708C30.5045 50.543 30.5785 50.5033 30.6244 50.4513C30.6679 50.3904 30.6706 50.3257 30.6327 50.2572C30.4952 49.5864 30.7785 48.8156 31.4823 47.9453C32.1858 47.0749 33.1895 46.4379 34.4929 46.0337C35.227 45.8438 35.803 45.8247 36.2205 45.9767C36.6378 46.1285 36.9036 46.4204 37.0174 46.8516C37.1719 47.6262 36.9766 48.4664 36.4314 49.3723C35.8859 50.2785 35.1839 50.8728 34.3252 51.1557C34.1308 51.2086 33.9751 51.2215 33.8588 51.1941C34.0488 50.2965 34.2482 49.5092 34.457 48.8325C34.6588 48.1677 34.9229 47.776 35.2492 47.6577C35.3071 47.6518 35.3464 47.6312 35.3669 47.5962C35.3806 47.5728 35.3814 47.5382 35.3693 47.4922C35.3285 47.3755 35.2205 47.2671 35.0453 47.1672C34.8675 47.0583 34.6663 47.0294 34.4415 47.0807C33.6545 47.5606 32.9653 48.8058 32.3738 50.8162C31.794 52.8334 31.0783 54.0907 30.2265 54.5882C30.0665 54.622 29.9504 54.6142 29.8778 54.5651C29.8144 54.5136 29.7353 54.4957 29.6404 54.5116C29.5476 54.5369 29.4878 54.5926 29.461 54.6785C29.4339 54.7648 29.4363 54.8675 29.4678 54.9866C29.5477 55.2895 29.7551 55.5676 30.09 55.8207C30.4248 56.0737 30.8368 56.1485 31.3259 56.045C31.9392 55.8485 32.429 55.371 32.7946 54.6122C33.1512 53.8561 33.4416 52.9999 33.6659 52.0434C33.8581 52.2077 34.0882 52.3269 34.3561 52.4016C34.6216 52.4672 34.9316 52.4566 35.2862 52.3698C36.2559 52.0566 37.0811 51.3646 37.7619 50.2939C38.4399 49.2143 38.6651 48.1101 38.4369 46.9817C38.2212 46.165 37.713 45.5557 36.912 45.1539ZM41.2572 51.2369C40.8342 51.8667 40.5086 52.2039 40.2802 52.2486C40.1557 52.2679 40.0828 52.1981 40.0612 52.0386C40.0453 51.4866 40.311 50.6709 40.8589 49.5914C41.3967 48.5137 41.9549 47.8727 42.5331 47.6685C42.6287 47.6537 42.7262 47.6867 42.8249 47.7669C42.9139 47.8489 42.9735 47.964 43.0035 48.1123L43.013 48.1826C43.0168 48.2106 43.0149 48.2349 43.0081 48.2549L42.778 48.7209C42.1882 49.7781 41.6811 50.6168 41.2572 51.2369ZM46.2921 49.6433C46.0942 49.9674 45.8874 50.2837 45.6716 50.5923C45.7313 50.7321 45.795 50.8662 45.8629 50.9946C46.0943 51.4142 46.3733 51.6248 46.6999 51.6264C47.1069 51.5454 47.3516 51.1389 47.4343 50.4073C47.5061 49.6672 47.5461 48.8774 47.5536 48.0375C47.3687 48.2723 47.1569 48.5328 46.9181 48.8195C46.705 49.0945 46.4963 49.3691 46.2921 49.6433ZM64.8096 49.2157C64.6683 49.5092 64.4836 49.8032 64.2551 50.0983C63.9996 49.8752 63.8137 49.5961 63.6976 49.2609C63.5706 48.9344 63.5249 48.6202 63.5603 48.3173C63.5693 48.2418 63.5821 48.1712 63.5996 48.1058C63.6167 48.0405 63.6384 47.9803 63.6644 47.9252C63.7821 47.8306 63.8983 47.7501 64.0129 47.6837C64.1273 47.6174 64.24 47.5653 64.3515 47.5272C64.6386 47.5622 64.8409 47.6564 64.959 47.8101C65.0661 47.9726 65.1061 48.172 65.0785 48.4082C65.0497 48.6542 64.9601 48.9234 64.8096 49.2157ZM62.8036 51.3972C62.525 51.5443 62.2656 51.6072 62.0261 51.5861C61.8535 51.5709 61.7349 51.5081 61.6704 51.3972C61.595 51.2953 61.5696 51.1403 61.5938 50.9324C61.6451 50.5745 61.7916 50.1914 62.033 49.7833C62.2851 49.3666 62.5827 48.973 62.9263 48.6025L62.9197 48.6592C62.8734 49.0559 62.9096 49.4504 63.0286 49.8425C63.1486 50.2253 63.3429 50.5525 63.6114 50.8243C63.3505 51.0686 63.0812 51.2595 62.8036 51.3972Z"/>
</mask>
<path fill-rule="evenodd" clip-rule="evenodd" d="M53.2797 45.1493C53.3682 45.2396 53.5038 45.2851 53.6866 45.2858C54.1275 45.2463 54.475 45.0884 54.728 44.8122C54.9713 44.5369 55.0946 44.2527 55.0972 43.9599C55.0939 43.8187 55.0332 43.6848 54.9149 43.5581C54.7968 43.4413 54.6369 43.3827 54.435 43.3827C54.013 43.4309 53.6907 43.6065 53.467 43.9095C53.2435 44.222 53.1351 44.5193 53.1417 44.8021C53.1448 44.934 53.1908 45.0498 53.2797 45.1493ZM52.7044 51.4592C52.8439 51.3257 52.9815 51.1899 53.1171 51.0518C53.0977 51.1411 53.0822 51.2278 53.0705 51.3119C53.0688 51.7012 53.1466 51.9919 53.3035 52.1842C53.4511 52.3763 53.6201 52.4738 53.8112 52.4768C53.9065 52.4783 53.9931 52.4561 54.071 52.4098C54.1394 52.3538 54.1943 52.2788 54.2352 52.1844C54.5362 51.6765 55.184 50.8943 56.1793 49.837C57.1745 48.7705 58.0581 47.9349 58.8303 47.3298C58.4045 47.8452 57.9652 48.5124 57.5121 49.331C57.0588 50.1498 56.8041 50.872 56.7483 51.4978C56.7394 51.8109 56.8088 52.059 56.9564 52.2415C57.1038 52.4339 57.3064 52.5318 57.5643 52.5359C58.1288 52.5068 58.7593 52.1749 59.4558 51.5403C59.5883 51.4196 59.7198 51.2966 59.8504 51.1713C59.8319 51.6202 59.9317 51.9811 60.1494 52.2541C60.3926 52.5595 60.7574 52.7337 61.2432 52.7766C61.7968 52.816 62.3549 52.6948 62.9172 52.4128C63.4709 52.1208 63.9823 51.7399 64.4511 51.27C64.5166 51.2853 64.5782 51.2954 64.6352 51.3005C64.9686 51.3298 65.3475 51.2591 65.7716 51.0882C66.2065 50.9089 66.6853 50.6006 67.2079 50.1639C67.2443 50.0157 67.2162 49.8855 67.1237 49.7731C67.0308 49.6608 66.9241 49.6277 66.8031 49.6738C66.494 49.9306 66.2027 50.118 65.9291 50.2358C65.6554 50.3537 65.4078 50.4124 65.1866 50.4118C65.4377 50.0742 65.6412 49.7325 65.7972 49.3863C65.9522 49.0499 66.0477 48.7267 66.0837 48.4175C66.1286 48.0334 66.0648 47.6727 65.8926 47.3356C65.7104 46.9978 65.3921 46.7994 64.9371 46.7401C64.7463 46.7233 64.5676 46.7313 64.4001 46.7638C64.2325 46.7965 64.0819 46.8495 63.9487 46.9229L63.9341 46.9216C63.2131 46.9148 62.3989 47.3354 61.4911 48.1832C60.961 48.6793 60.5545 49.211 60.2716 49.7785C60.0091 50.0445 59.7663 50.2763 59.5433 50.4737C59.1215 50.8565 58.8437 51.0513 58.7099 51.0586C58.6143 51.0571 58.5684 50.9902 58.5722 50.8572C58.5911 50.5253 58.7624 50.0438 59.0862 49.4128C59.4003 48.7818 59.7999 48.1663 60.2851 47.5663C60.3238 47.5479 60.3485 47.5197 60.3593 47.4819C60.3793 47.4444 60.3901 47.402 60.3915 47.3543C60.3975 47.1457 60.2936 46.9305 60.0804 46.7087C59.8669 46.4775 59.5696 46.3495 59.1884 46.3243C58.7947 46.3846 58.161 46.8351 57.2869 47.6757C56.4027 48.5257 55.5997 49.3818 54.8779 50.2437C55.162 49.6502 55.4794 49.0808 55.8293 48.5357C56.1794 47.9812 56.5076 47.526 56.8141 47.1699C56.853 47.1421 56.8733 47.0996 56.875 47.0427C56.8696 46.891 56.7835 46.728 56.6165 46.5546C56.4396 46.3905 56.2463 46.2972 56.0369 46.2748C55.6892 46.4024 55.1349 47.0773 54.3742 48.2992C54.1591 48.6473 53.9701 48.9773 53.8072 49.289C53.4276 49.7263 53.0758 50.094 52.7521 50.3915C52.3179 50.8005 52.0094 51.0138 51.8269 51.0317C51.7304 51.0363 51.6809 50.9726 51.6777 50.8399C51.6888 50.4892 51.8879 49.9351 52.2753 49.1781C52.653 48.4312 53.0807 47.7388 53.5576 47.1006C53.5953 47.0705 53.6137 47.0269 53.6124 46.9702C53.5999 46.8478 53.4904 46.7014 53.2839 46.5311C53.0871 46.3606 52.8823 46.2709 52.6701 46.2617C52.345 46.3813 51.8157 47.0549 51.0828 48.2827C50.8868 48.6082 50.7148 48.9254 50.5667 49.2344C50.3426 49.5146 50.1152 49.7808 49.8847 50.0335C49.5448 50.3858 49.22 50.6797 48.9102 50.9149C48.9822 50.4418 49.006 49.8296 48.9814 49.0783C48.9471 48.3279 49.0788 47.6114 49.3759 46.9288C49.4298 46.8769 49.4543 46.8176 49.4496 46.7512C49.4178 46.5728 49.2659 46.3945 48.9941 46.2167C48.7222 46.0388 48.4567 45.9512 48.1976 45.9534C48.1403 45.9581 48.0837 45.9724 48.0278 45.9961C47.9813 46.0191 47.9406 46.0557 47.906 46.1062C47.8712 46.1569 47.8329 46.2267 47.7913 46.316C47.5434 46.7465 47.2059 47.2652 46.7787 47.8726C46.4258 48.3724 46.1351 48.7765 45.907 49.0848C45.8893 49.0947 45.8743 49.1077 45.862 49.1236C45.7022 49.3664 45.5468 49.5936 45.3957 49.8051C45.3721 49.7221 45.3496 49.6374 45.3283 49.5513C45.3222 49.466 45.291 49.4307 45.2343 49.4448C45.1395 49.4622 45.0396 49.5418 44.9345 49.684C44.8204 49.8365 44.7643 49.9937 44.7664 50.1556C44.7758 50.288 44.7954 50.4211 44.8253 50.555C44.7463 50.6514 44.6688 50.7428 44.5927 50.8292C44.1973 51.2797 43.9098 51.5234 43.7307 51.5606C43.6829 51.5678 43.6471 51.5545 43.6232 51.52C43.5908 51.4966 43.5703 51.4524 43.5614 51.3872C43.5339 51.0403 43.6709 50.4731 43.9722 49.6861C44.2746 48.9083 44.6275 48.1799 45.0307 47.5003C45.0648 47.4666 45.0784 47.4217 45.0707 47.3659C45.0449 47.2467 44.9201 47.1139 44.6965 46.968C44.4729 46.8222 44.2551 46.7562 44.0435 46.7698C43.9672 46.7815 43.8715 46.8629 43.7559 47.0136C43.6403 47.1644 43.5074 47.3653 43.357 47.6164C43.3172 47.3947 43.2148 47.211 43.0495 47.0657C42.8842 46.9203 42.6298 46.8696 42.2862 46.913C41.1111 47.199 40.1499 47.9884 39.4026 49.2809C38.6551 50.5737 38.3257 51.7259 38.4142 52.7376C38.4594 53.0724 38.5816 53.329 38.7804 53.5071C38.9683 53.6774 39.2486 53.7387 39.6206 53.6906C40.0936 53.5986 40.5376 53.2926 40.9528 52.7728C41.3787 52.2608 41.7571 51.6851 42.088 51.0452C42.0433 51.2895 42.0117 51.5222 41.9932 51.7434C41.9745 51.9647 41.9778 52.1683 42.003 52.3542C42.0433 52.652 42.1412 52.8741 42.2971 53.0209C42.4528 53.1678 42.6496 53.2228 42.8874 53.1861C43.453 53.0609 44.0496 52.627 44.6772 51.8844C44.8267 51.7075 44.9728 51.5277 45.1154 51.3449C45.2091 51.529 45.3213 51.7144 45.4521 51.9011C45.8592 52.4968 46.4419 52.7919 47.2001 52.7866L47.2431 52.783C47.8716 52.7122 48.5468 52.3514 49.2686 51.7005C49.5018 51.4903 49.7319 51.2639 49.9588 51.0213C49.923 51.2156 49.8991 51.4058 49.8871 51.5919C49.8944 51.904 49.9725 52.1468 50.121 52.3196C50.27 52.502 50.4792 52.5867 50.749 52.5741C51.3549 52.5078 52.0067 52.1362 52.7044 51.4592ZM36.912 45.1539C36.0991 44.7457 35.036 44.7054 33.7226 45.0334C32.3402 45.4392 31.1606 46.1048 30.1832 47.0298C29.2036 47.9458 28.795 48.8442 28.958 49.7244C29.0806 50.1141 29.2925 50.3712 29.5935 50.4959C29.9012 50.609 30.171 50.6337 30.4026 50.5708C30.5045 50.543 30.5785 50.5033 30.6244 50.4513C30.6679 50.3904 30.6706 50.3257 30.6327 50.2572C30.4952 49.5864 30.7785 48.8156 31.4823 47.9453C32.1858 47.0749 33.1895 46.4379 34.4929 46.0337C35.227 45.8438 35.803 45.8247 36.2205 45.9767C36.6378 46.1285 36.9036 46.4204 37.0174 46.8516C37.1719 47.6262 36.9766 48.4664 36.4314 49.3723C35.8859 50.2785 35.1839 50.8728 34.3252 51.1557C34.1308 51.2086 33.9751 51.2215 33.8588 51.1941C34.0488 50.2965 34.2482 49.5092 34.457 48.8325C34.6588 48.1677 34.9229 47.776 35.2492 47.6577C35.3071 47.6518 35.3464 47.6312 35.3669 47.5962C35.3806 47.5728 35.3814 47.5382 35.3693 47.4922C35.3285 47.3755 35.2205 47.2671 35.0453 47.1672C34.8675 47.0583 34.6663 47.0294 34.4415 47.0807C33.6545 47.5606 32.9653 48.8058 32.3738 50.8162C31.794 52.8334 31.0783 54.0907 30.2265 54.5882C30.0665 54.622 29.9504 54.6142 29.8778 54.5651C29.8144 54.5136 29.7353 54.4957 29.6404 54.5116C29.5476 54.5369 29.4878 54.5926 29.461 54.6785C29.4339 54.7648 29.4363 54.8675 29.4678 54.9866C29.5477 55.2895 29.7551 55.5676 30.09 55.8207C30.4248 56.0737 30.8368 56.1485 31.3259 56.045C31.9392 55.8485 32.429 55.371 32.7946 54.6122C33.1512 53.8561 33.4416 52.9999 33.6659 52.0434C33.8581 52.2077 34.0882 52.3269 34.3561 52.4016C34.6216 52.4672 34.9316 52.4566 35.2862 52.3698C36.2559 52.0566 37.0811 51.3646 37.7619 50.2939C38.4399 49.2143 38.6651 48.1101 38.4369 46.9817C38.2212 46.165 37.713 45.5557 36.912 45.1539ZM41.2572 51.2369C40.8342 51.8667 40.5086 52.2039 40.2802 52.2486C40.1557 52.2679 40.0828 52.1981 40.0612 52.0386C40.0453 51.4866 40.311 50.6709 40.8589 49.5914C41.3967 48.5137 41.9549 47.8727 42.5331 47.6685C42.6287 47.6537 42.7262 47.6867 42.8249 47.7669C42.9139 47.8489 42.9735 47.964 43.0035 48.1123L43.013 48.1826C43.0168 48.2106 43.0149 48.2349 43.0081 48.2549L42.778 48.7209C42.1882 49.7781 41.6811 50.6168 41.2572 51.2369ZM46.2921 49.6433C46.0942 49.9674 45.8874 50.2837 45.6716 50.5923C45.7313 50.7321 45.795 50.8662 45.8629 50.9946C46.0943 51.4142 46.3733 51.6248 46.6999 51.6264C47.1069 51.5454 47.3516 51.1389 47.4343 50.4073C47.5061 49.6672 47.5461 48.8774 47.5536 48.0375C47.3687 48.2723 47.1569 48.5328 46.9181 48.8195C46.705 49.0945 46.4963 49.3691 46.2921 49.6433ZM64.8096 49.2157C64.6683 49.5092 64.4836 49.8032 64.2551 50.0983C63.9996 49.8752 63.8137 49.5961 63.6976 49.2609C63.5706 48.9344 63.5249 48.6202 63.5603 48.3173C63.5693 48.2418 63.5821 48.1712 63.5996 48.1058C63.6167 48.0405 63.6384 47.9803 63.6644 47.9252C63.7821 47.8306 63.8983 47.7501 64.0129 47.6837C64.1273 47.6174 64.24 47.5653 64.3515 47.5272C64.6386 47.5622 64.8409 47.6564 64.959 47.8101C65.0661 47.9726 65.1061 48.172 65.0785 48.4082C65.0497 48.6542 64.9601 48.9234 64.8096 49.2157ZM62.8036 51.3972C62.525 51.5443 62.2656 51.6072 62.0261 51.5861C61.8535 51.5709 61.7349 51.5081 61.6704 51.3972C61.595 51.2953 61.5696 51.1403 61.5938 50.9324C61.6451 50.5745 61.7916 50.1914 62.033 49.7833C62.2851 49.3666 62.5827 48.973 62.9263 48.6025L62.9197 48.6592C62.8734 49.0559 62.9096 49.4504 63.0286 49.8425C63.1486 50.2253 63.3429 50.5525 63.6114 50.8243C63.3505 51.0686 63.0812 51.2595 62.8036 51.3972Z" fill="white"/>
<path d="M53.6866 45.2858L53.6744 46.014L53.7084 46.0141L53.7422 46.0111L53.6866 45.2858ZM53.2797 45.1493L52.7346 45.6385L52.7457 45.651L52.7575 45.663L53.2797 45.1493ZM54.728 44.8122L55.2614 45.3007L55.2702 45.2907L54.728 44.8122ZM55.0972 43.9599L55.8247 43.9572L55.8248 43.9453L55.8246 43.9334L55.0972 43.9599ZM54.9149 43.5581L55.4492 43.0571L55.4397 43.0469L55.4298 43.0371L54.9149 43.5581ZM54.435 43.3827L54.4445 42.6545L54.403 42.6545L54.3618 42.6592L54.435 43.3827ZM53.467 43.9095L52.8839 43.4815L52.8773 43.4907L53.467 43.9095ZM53.1417 44.8021L53.869 44.7756L53.869 44.7755L53.1417 44.8021ZM53.1171 51.0518L53.828 51.1972L54.3559 48.7581L52.6015 50.5448L53.1171 51.0518ZM52.7044 51.4592L52.2052 50.936L52.2015 50.9395L52.7044 51.4592ZM53.0705 51.3119L52.35 51.2205L52.3432 51.2691L52.343 51.3181L53.0705 51.3119ZM53.3035 52.1842L53.8826 51.7359L53.876 51.7274L53.8693 51.7191L53.3035 52.1842ZM53.8112 52.4768L53.8322 51.7487L53.832 51.7487L53.8112 52.4768ZM54.071 52.4098L54.4365 53.0346L54.4843 53.0063L54.5273 52.971L54.071 52.4098ZM54.2352 52.1844L53.6107 51.8189L53.5868 51.8592L53.5682 51.9022L54.2352 52.1844ZM56.1793 49.837L56.7058 50.3327L56.708 50.3303L56.1793 49.837ZM58.8303 47.3298L59.3885 47.7895L58.3864 46.7586L58.8303 47.3298ZM57.5121 49.331L58.1474 49.6776L58.1474 49.6776L57.5121 49.331ZM56.7483 51.4978L56.0237 51.4423L56.0217 51.4643L56.0211 51.4863L56.7483 51.4978ZM56.9564 52.2415L57.5357 51.7937L57.5301 51.7863L57.5243 51.7791L56.9564 52.2415ZM57.5643 52.5359L57.5436 53.2639L57.568 53.2643L57.5923 53.2631L57.5643 52.5359ZM59.4558 51.5403L59.9417 52.0759L59.9417 52.0759L59.4558 51.5403ZM59.8504 51.1713L60.5773 51.1918L60.6508 49.4012L59.3505 50.6487L59.8504 51.1713ZM60.1494 52.2541L60.7207 51.7959L60.7203 51.7954L60.1494 52.2541ZM61.2432 52.7766L61.17 53.5021L61.1824 53.503L61.2432 52.7766ZM62.9172 52.4128L63.2363 53.063L63.2431 53.0596L63.2498 53.0561L62.9172 52.4128ZM64.4511 51.27L64.6257 50.5609L64.2296 50.468L63.9395 50.7588L64.4511 51.27ZM64.6352 51.3005L64.5613 52.0258L64.5623 52.0259L64.6352 51.3005ZM65.7716 51.0882L66.0359 51.7632L66.0414 51.761L65.7716 51.0882ZM67.2079 50.1639L67.6699 50.7204L67.8563 50.5646L67.9142 50.3293L67.2079 50.1639ZM67.1237 49.7731L67.6877 49.3059L67.6865 49.3044L67.1237 49.7731ZM66.8031 49.6738L66.5518 48.9938L66.4373 49.0374L66.3428 49.1159L66.8031 49.6738ZM65.9291 50.2358L65.6489 49.5674L65.6487 49.5675L65.9291 50.2358ZM65.1866 50.4118L64.6051 49.9818L63.7465 51.1362L65.1753 51.14L65.1866 50.4118ZM65.7972 49.3863L65.1372 49.0884L65.1346 49.0941L65.7972 49.3863ZM66.0837 48.4175L65.3612 48.3421L65.3612 48.3422L66.0837 48.4175ZM65.8926 47.3356L66.5412 46.9975L66.5376 46.9904L66.5338 46.9834L65.8926 47.3356ZM64.9371 46.7401L65.0401 46.018L65.0251 46.016L65.01 46.0147L64.9371 46.7401ZM64.4001 46.7638L64.2704 46.049L64.2699 46.0491L64.4001 46.7638ZM63.9487 46.9229L63.8754 47.6483L64.097 47.6679L64.2933 47.5597L63.9487 46.9229ZM63.9341 46.9216L64.0074 46.1962L63.979 46.1937L63.9504 46.1935L63.9341 46.9216ZM61.4911 48.1832L60.9985 47.6537L60.998 47.6542L61.4911 48.1832ZM60.2716 49.7785L60.786 50.2868L60.869 50.2026L60.9218 50.0968L60.2716 49.7785ZM59.5433 50.4737L59.0652 49.9309L59.0584 49.9371L59.5433 50.4737ZM58.7099 51.0586L58.6891 51.7867L58.7147 51.7871L58.7403 51.7857L58.7099 51.0586ZM58.5722 50.8572L57.8458 50.825L57.8452 50.8355L57.8449 50.8461L58.5722 50.8572ZM59.0862 49.4128L59.7325 49.739L59.7366 49.7308L59.0862 49.4128ZM60.2851 47.5663L59.9806 46.9089L59.8282 46.9812L59.722 47.1125L60.2851 47.5663ZM60.3593 47.4819L59.7188 47.1448L59.6812 47.2151L59.6595 47.2916L60.3593 47.4819ZM60.3915 47.3543L59.6643 47.3426L59.6643 47.3431L60.3915 47.3543ZM60.0804 46.7087L59.5431 47.2066L59.548 47.2119L59.553 47.2171L60.0804 46.7087ZM59.1884 46.3243L59.2455 45.5977L59.1662 45.5925L59.0874 45.6046L59.1884 46.3243ZM57.2869 47.6757L57.7873 48.1977L57.7874 48.1977L57.2869 47.6757ZM54.8779 50.2437L54.2226 49.9361L55.433 50.7072L54.8779 50.2437ZM55.8293 48.5357L56.44 48.9237L56.4429 48.919L55.8293 48.5357ZM56.8141 47.1699L56.3958 46.5796L56.3235 46.6313L56.2655 46.6988L56.8141 47.1699ZM56.875 47.0427L57.6022 47.0547L57.6029 47.031L57.6021 47.0073L56.875 47.0427ZM56.6165 46.5546L57.1432 46.0456L57.1294 46.0312L57.1147 46.0176L56.6165 46.5546ZM56.0369 46.2748L56.1234 45.5507L55.9545 45.5327L55.7942 45.5915L56.0369 46.2748ZM54.3742 48.2992L53.7581 47.9199L53.7568 47.922L54.3742 48.2992ZM53.8072 49.289L54.3537 49.7625L54.4107 49.6969L54.4509 49.62L53.8072 49.289ZM52.7521 50.3915L52.2637 49.858L52.2571 49.8643L52.7521 50.3915ZM51.8269 51.0317L51.8522 51.7591L51.8705 51.7582L51.8887 51.7564L51.8269 51.0317ZM51.6777 50.8399L50.9506 50.8264L50.95 50.8464L50.9504 50.8664L51.6777 50.8399ZM52.2753 49.1781L52.9219 49.5035L52.9236 49.5003L52.2753 49.1781ZM53.5576 47.1006L53.108 46.534L53.0339 46.5933L52.977 46.6693L53.5576 47.1006ZM53.6124 46.9702L54.3397 46.9439L54.3391 46.9153L54.3362 46.8869L53.6124 46.9702ZM53.2839 46.5311L52.8037 47.0843L52.8103 47.0899L52.817 47.0955L53.2839 46.5311ZM52.6701 46.2617L52.7112 45.5342L52.5649 45.5278L52.4269 45.5786L52.6701 46.2617ZM51.0828 48.2827L51.7046 48.6525L51.706 48.6502L51.0828 48.2827ZM50.5667 49.2344L51.1323 49.6851L51.1852 49.6189L51.2219 49.5425L50.5667 49.2344ZM49.8847 50.0335L50.4049 50.5358L50.412 50.5284L50.419 50.5208L49.8847 50.0335ZM48.9102 50.9149L48.191 50.8142L47.9234 52.572L49.345 51.4931L48.9102 50.9149ZM48.9814 49.0783L49.7086 49.0451L49.7082 49.0357L48.9814 49.0783ZM49.3759 46.9288L48.8748 46.4075L48.7685 46.51L48.7096 46.6452L49.3759 46.9288ZM49.4496 46.7512L50.1753 46.6904L50.1726 46.652L50.1658 46.6143L49.4496 46.7512ZM48.9941 46.2167L48.5907 46.8278L48.5907 46.8278L48.9941 46.2167ZM48.1976 45.9534L48.2009 45.2252L48.1738 45.2255L48.1468 45.2277L48.1976 45.9534ZM48.0278 45.9961L47.7512 45.3262L47.7316 45.3345L47.7125 45.344L48.0278 45.9961ZM47.906 46.1062L47.3083 45.6987L47.308 45.6992L47.906 46.1062ZM47.7913 46.316L48.4205 46.6735L48.4365 46.6456L48.4501 46.6165L47.7913 46.316ZM46.7787 47.8726L47.371 48.2878L47.3718 48.2867L46.7787 47.8726ZM45.907 49.0848L46.2541 49.7203L46.3943 49.6423L46.4898 49.5132L45.907 49.0848ZM45.862 49.1236L45.2879 48.6837L45.2711 48.7056L45.256 48.7286L45.862 49.1236ZM45.3957 49.8051L44.6957 50.0124L45.1054 51.4562L45.9857 50.2235L45.3957 49.8051ZM45.3283 49.5513L44.6026 49.6126L44.6071 49.6748L44.622 49.7352L45.3283 49.5513ZM45.2343 49.4448L45.3563 50.161L45.379 50.1569L45.4014 50.1513L45.2343 49.4448ZM44.9345 49.684L45.5147 50.1159L45.5174 50.1122L44.9345 49.684ZM44.7664 50.1556L44.039 50.1745L44.0393 50.1956L44.0407 50.2166L44.7664 50.1556ZM44.8253 50.555L45.3856 51.0121L45.6127 50.7347L45.5354 50.3878L44.8253 50.555ZM44.5927 50.8292L44.0498 50.3515L44.0488 50.3526L44.5927 50.8292ZM43.7307 51.5606L43.8311 52.2804L43.8503 52.2775L43.8694 52.2735L43.7307 51.5606ZM43.6232 51.52L44.2226 51.0996L44.1533 50.9997L44.0548 50.9283L43.6232 51.52ZM43.5614 51.3872L42.8362 51.4541L42.8378 51.4744L42.8405 51.4945L43.5614 51.3872ZM43.9722 49.6861L43.2946 49.4296L43.2932 49.4332L43.9722 49.6861ZM45.0307 47.5003L44.5237 46.9846L44.4553 47.052L44.4063 47.1346L45.0307 47.5003ZM45.0707 47.3659L45.7915 47.2577L45.7877 47.2302L45.7818 47.203L45.0707 47.3659ZM44.6965 46.968L45.0994 46.3565L45.0991 46.3564L44.6965 46.968ZM44.0435 46.7698L44.0064 46.0431L43.974 46.0451L43.942 46.0501L44.0435 46.7698ZM43.7559 47.0136L43.1811 46.5747L43.1807 46.5751L43.7559 47.0136ZM43.357 47.6164L42.6409 47.7541L42.9817 49.6511L43.9797 47.9848L43.357 47.6164ZM43.0495 47.0657L42.5652 47.6153L42.5654 47.6155L43.0495 47.0657ZM42.2862 46.913L42.2043 46.1905L42.1632 46.1957L42.1229 46.2055L42.2862 46.913ZM39.4026 49.2809L38.7741 48.9223L38.7741 48.9223L39.4026 49.2809ZM38.4142 52.7376L37.6894 52.8104L37.6909 52.8273L37.6932 52.8442L38.4142 52.7376ZM38.7804 53.5071L39.2724 52.9644L39.2694 52.9617L38.7804 53.5071ZM39.6206 53.6906L39.7047 54.4127L39.7277 54.4097L39.7505 54.4053L39.6206 53.6906ZM40.9528 52.7728L40.3962 52.3112L40.3915 52.3168L40.3869 52.3226L40.9528 52.7728ZM42.088 51.0452L42.8035 51.1675L41.4428 50.7171L42.088 51.0452ZM41.9932 51.7434L42.7181 51.7953L42.7182 51.7949L41.9932 51.7434ZM42.003 52.3542L42.724 52.2473L42.7239 52.2471L42.003 52.3542ZM42.2971 53.0209L42.7998 52.488L42.7992 52.4875L42.2971 53.0209ZM42.8874 53.1861L42.9892 53.9057L43.0126 53.9021L43.0357 53.897L42.8874 53.1861ZM44.6772 51.8844L44.1244 51.4182L44.1243 51.4182L44.6772 51.8844ZM45.1154 51.3449L45.7645 51.0078L45.25 49.9968L44.5442 50.9013L45.1154 51.3449ZM45.4521 51.9011L46.0542 51.4847L46.0495 51.478L45.4521 51.9011ZM47.2001 52.7866L47.1958 53.5148L47.2234 53.5146L47.2508 53.5123L47.2001 52.7866ZM47.2431 52.783L47.2938 53.5087L47.3046 53.5078L47.3153 53.5066L47.2431 52.783ZM49.2686 51.7005L48.7856 51.1623L48.7855 51.1623L49.2686 51.7005ZM49.9588 51.0213L50.6742 51.1444L51.1205 48.7209L49.4308 50.5273L49.9588 51.0213ZM49.8871 51.5919L49.1611 51.5542L49.159 51.5862L49.1598 51.6183L49.8871 51.5919ZM50.121 52.3196L50.6868 51.8546L50.6811 51.8475L50.6751 51.8405L50.121 52.3196ZM50.749 52.5741L50.7737 53.3015L50.7963 53.3004L50.8188 53.298L50.749 52.5741ZM33.7226 45.0334L33.555 44.327L33.5405 44.3306L33.5261 44.3348L33.7226 45.0334ZM36.912 45.1539L36.5791 45.8056L36.5794 45.8058L36.912 45.1539ZM30.1832 47.0298L30.6762 47.5589L30.6794 47.5558L30.1832 47.0298ZM28.958 49.7244L28.2426 49.8659L28.2506 49.9093L28.2638 49.9512L28.958 49.7244ZM29.5935 50.4959L29.308 51.1693L29.3214 51.1748L29.335 51.1799L29.5935 50.4959ZM30.4026 50.5708L30.5847 51.2734L30.5853 51.2733L30.4026 50.5708ZM30.6244 50.4513L31.1669 50.9295L31.1923 50.9007L31.2146 50.8694L30.6244 50.4513ZM30.6327 50.2572L29.9199 50.4123L29.9421 50.5203L29.9953 50.6165L30.6327 50.2572ZM31.4823 47.9453L32.0454 48.3991L32.0455 48.3989L31.4823 47.9453ZM34.4929 46.0337L34.3194 45.3288L34.3025 45.3332L34.2857 45.3384L34.4929 46.0337ZM36.2205 45.9767L35.9641 46.6614L35.9642 46.6614L36.2205 45.9767ZM37.0174 46.8516L37.7309 46.7002L37.7266 46.6785L37.7209 46.6572L37.0174 46.8516ZM36.4314 49.3723L37.0532 49.7421L37.0532 49.7421L36.4314 49.3723ZM34.3252 51.1557L34.5077 51.8582L34.5263 51.8531L34.5446 51.8471L34.3252 51.1557ZM33.8588 51.1941L33.1472 51.0521L33.0011 51.7427L33.6839 51.9032L33.8588 51.1941ZM34.457 48.8325L35.1519 49.0391L35.1528 49.0359L34.457 48.8325ZM35.2492 47.6577L35.1839 46.9334L35.0943 46.9426L35.0093 46.9734L35.2492 47.6577ZM35.3669 47.5962L35.9931 47.9588L35.9937 47.9578L35.3669 47.5962ZM35.3693 47.4922L36.0729 47.298L36.0656 47.2706L36.0563 47.2439L35.3693 47.4922ZM35.0453 47.1672L34.6596 47.7896L34.6692 47.7955L34.6791 47.8011L35.0453 47.1672ZM34.4415 47.0807L34.2884 46.3709L34.1715 46.3976L34.0689 46.4601L34.4415 47.0807ZM32.3738 50.8162L31.6761 50.6188L31.6749 50.6232L32.3738 50.8162ZM30.2265 54.5882L30.3683 55.3005L30.4843 55.2759L30.5871 55.2159L30.2265 54.5882ZM29.8778 54.5651L29.4151 55.1329L29.4393 55.1525L29.4651 55.17L29.8778 54.5651ZM29.6404 54.5116L29.5289 53.7935L29.4931 53.7996L29.4579 53.8091L29.6404 54.5116ZM29.461 54.6785L30.1548 54.8885L30.1552 54.8874L29.461 54.6785ZM29.4678 54.9866L28.7642 55.1809L28.7642 55.1811L29.4678 54.9866ZM30.09 55.8207L29.6469 56.4039L29.647 56.4039L30.09 55.8207ZM31.3259 56.045L31.4677 56.7573L31.504 56.7496L31.5395 56.7382L31.3259 56.045ZM32.7946 54.6122L33.4492 54.9217L33.4518 54.916L32.7946 54.6122ZM33.6659 52.0434L34.1425 51.4871L33.2334 50.71L32.9577 51.8857L33.6659 52.0434ZM34.3561 52.4016L34.1525 53.1033L34.1629 53.1062L34.1733 53.1088L34.3561 52.4016ZM35.2862 52.3698L35.4504 53.077L35.4762 53.0707L35.5015 53.0625L35.2862 52.3698ZM37.7619 50.2939L38.3742 50.6792L38.3764 50.6757L37.7619 50.2939ZM38.4369 46.9817L39.15 46.8285L39.1458 46.8077L39.1404 46.7872L38.4369 46.9817ZM40.2802 52.2486L40.3823 52.9682L40.3967 52.966L40.4111 52.9632L40.2802 52.2486ZM41.2572 51.2369L40.6584 50.8309L40.655 50.836L41.2572 51.2369ZM40.0612 52.0386L39.3339 52.0689L39.3351 52.1076L39.3403 52.1458L40.0612 52.0386ZM40.8589 49.5914L41.5067 49.9146L41.5089 49.9101L40.8589 49.5914ZM42.5331 47.6685L42.4312 46.9489L42.3635 46.9593L42.2988 46.9822L42.5331 47.6685ZM42.8249 47.7669L43.3211 47.228L43.3049 47.2132L43.2879 47.1993L42.8249 47.7669ZM43.0035 48.1123L43.7244 48.0055L43.7213 47.9822L43.7166 47.9591L43.0035 48.1123ZM43.013 48.1826L42.292 48.2894L42.2922 48.2908L43.013 48.1826ZM43.0081 48.2549L43.6595 48.5707L43.6815 48.5264L43.6972 48.4795L43.0081 48.2549ZM42.778 48.7209L43.4121 49.0697L43.4212 49.0534L43.4294 49.0368L42.778 48.7209ZM45.6716 50.5923L45.0773 50.1799L44.8435 50.5143L45.002 50.8856L45.6716 50.5923ZM46.2921 49.6433L45.7108 49.2129L45.6904 49.2403L45.6726 49.2695L46.2921 49.6433ZM45.8629 50.9946L45.2188 51.3417L45.225 51.3528L45.8629 50.9946ZM46.6999 51.6264L46.687 52.3546L46.7607 52.355L46.8331 52.3405L46.6999 51.6264ZM47.4343 50.4073L48.1573 50.4799L48.1584 50.4685L47.4343 50.4073ZM47.5536 48.0375L48.2811 48.0347L48.3 45.9211L46.9845 47.5913L47.5536 48.0375ZM46.9181 48.8195L46.3618 48.3575L46.3534 48.3675L46.3454 48.3778L46.9181 48.8195ZM64.2551 50.0983L63.7729 50.6497L64.3516 51.155L64.828 50.5397L64.2551 50.0983ZM64.8096 49.2157L64.1638 48.8888L64.1592 48.8976L64.1549 48.9066L64.8096 49.2157ZM63.6976 49.2609L64.3852 49.0144L64.3808 49.0017L64.376 48.9892L63.6976 49.2609ZM63.5603 48.3173L62.8379 48.2405L62.8377 48.2419L63.5603 48.3173ZM63.5996 48.1058L64.3023 48.2853L64.3032 48.282L63.5996 48.1058ZM63.6644 47.9252L63.2133 47.3598L63.08 47.4669L63.0072 47.6214L63.6644 47.9252ZM64.0129 47.6837L64.3712 48.3128L64.3717 48.3125L64.0129 47.6837ZM64.3515 47.5272L64.4485 46.8044L64.283 46.7842L64.1243 46.8384L64.3515 47.5272ZM64.959 47.8101L65.5679 47.4037L65.5536 47.3821L65.5378 47.3615L64.959 47.8101ZM65.0785 48.4082L64.3559 48.3327L64.3559 48.3328L65.0785 48.4082ZM62.0261 51.5861L61.9528 52.3115L61.953 52.3115L62.0261 51.5861ZM62.8036 51.3972L62.4874 50.7455L62.479 50.7497L62.4707 50.7541L62.8036 51.3972ZM61.6704 51.3972L62.3003 51.0247L62.2805 50.9907L62.2571 50.9591L61.6704 51.3972ZM61.5938 50.9324L60.8737 50.8381L60.8723 50.8477L60.8712 50.8573L61.5938 50.9324ZM62.033 49.7833L61.412 49.412L61.4082 49.4182L62.033 49.7833ZM62.9263 48.6025L63.649 48.6769L63.9017 46.4876L62.3961 48.1108L62.9263 48.6025ZM62.9197 48.6592L63.6423 48.7346L63.6424 48.7335L62.9197 48.6592ZM63.0286 49.8425L62.3323 50.0625L62.3342 50.0685L63.0286 49.8425ZM63.6114 50.8243L64.1048 51.3531L64.6548 50.8381L64.132 50.3089L63.6114 50.8243ZM53.6988 44.5576C53.6647 44.5575 53.6649 44.553 53.6869 44.5604C53.7123 44.5689 53.7575 44.5905 53.8019 44.6357L52.7575 45.663C53.0292 45.9399 53.3835 46.0128 53.6744 46.014L53.6988 44.5576ZM54.1946 44.3239C54.0892 44.439 53.9262 44.534 53.631 44.5605L53.7422 46.0111C54.3288 45.9585 54.8607 45.7379 55.2613 45.3006L54.1946 44.3239ZM54.3698 43.9626C54.3691 44.0375 54.3418 44.1572 54.1857 44.3338L55.2702 45.2907C55.6008 44.9166 55.82 44.4678 55.8247 43.9572L54.3698 43.9626ZM54.3805 44.0591C54.3959 44.0756 54.3931 44.0771 54.3861 44.0617C54.3782 44.0443 54.3707 44.0177 54.3699 43.9865L55.8246 43.9334C55.8161 43.5764 55.6587 43.2813 55.4492 43.0571L54.3805 44.0591ZM54.4256 44.1109C54.4566 44.1109 54.4611 44.1154 54.449 44.1109C54.4429 44.1087 54.4345 44.1049 54.4249 44.0989C54.4153 44.0928 54.4069 44.086 54.4 44.0791L55.4298 43.0371C55.1508 42.7609 54.7946 42.6546 54.4445 42.6545L54.4256 44.1109ZM54.05 44.3374C54.1352 44.2221 54.2597 44.1345 54.5082 44.1062L54.3618 42.6592C53.7662 42.7272 53.2462 42.991 52.8839 43.4815L54.05 44.3374ZM53.869 44.7755C53.8672 44.6992 53.8939 44.556 54.0567 44.3283L52.8773 43.4907C52.5931 43.888 52.4029 44.3394 52.4144 44.8287L53.869 44.7755ZM53.8248 44.6602C53.8322 44.6684 53.8448 44.6856 53.8551 44.7114C53.8654 44.7373 53.8687 44.7605 53.869 44.7756L52.4144 44.8286C52.4216 45.1351 52.5341 45.4141 52.7346 45.6385L53.8248 44.6602ZM52.6015 50.5448C52.4712 50.6774 52.3391 50.8078 52.2052 50.936L53.2037 51.9824C53.3487 51.8435 53.4917 51.7024 53.6327 51.5588L52.6015 50.5448ZM53.791 51.4033C53.8 51.3386 53.8122 51.27 53.828 51.1972L52.4061 50.9064C52.3832 51.0123 52.3644 51.117 52.35 51.2205L53.791 51.4033ZM53.8693 51.7191C53.8622 51.7105 53.7967 51.6155 53.798 51.3057L52.343 51.3181C52.341 51.7868 52.4309 52.2733 52.7378 52.6492L53.8693 51.7191ZM53.832 51.7487C53.8449 51.7489 53.86 51.7508 53.8756 51.7552C53.8911 51.7595 53.9029 51.765 53.9102 51.7692C53.9241 51.7773 53.9125 51.7749 53.8826 51.7359L52.7245 52.6324C52.9654 52.9463 53.3212 53.1975 53.7904 53.2049L53.832 51.7487ZM53.7055 51.785C53.7263 51.7726 53.7501 51.7626 53.7749 51.7562C53.7994 51.7498 53.8194 51.7485 53.8322 51.7487L53.7903 53.2049C54.0118 53.2084 54.2337 53.1552 54.4365 53.0346L53.7055 51.785ZM53.5682 51.9022C53.5674 51.9041 53.5698 51.898 53.5777 51.8871C53.5859 51.876 53.5981 51.8622 53.6148 51.8486L54.5273 52.971C54.6998 52.8298 54.8213 52.6533 54.9021 52.4666L53.5682 51.9022ZM55.6528 49.3413C54.6586 50.3974 53.9582 51.2327 53.6107 51.8189L54.8596 52.55C55.1143 52.1204 55.7094 51.3912 56.7058 50.3327L55.6528 49.3413ZM58.3864 46.7586C57.5732 47.3958 56.6607 48.2612 55.6506 49.3436L56.708 50.3303C57.6882 49.2799 58.5429 48.474 59.2741 47.9009L58.3864 46.7586ZM58.1474 49.6776C58.5865 48.8843 59.0009 48.2587 59.3885 47.7895L58.272 46.8701C57.8081 47.4317 57.3439 48.1405 56.8768 48.9845L58.1474 49.6776ZM57.473 51.5533C57.5163 51.0666 57.7219 50.4463 58.1474 49.6776L56.8768 48.9844C56.3958 49.8534 56.0919 50.6774 56.0237 51.4423L57.473 51.5533ZM57.5243 51.7791C57.5152 51.7679 57.4699 51.7063 57.4755 51.5093L56.0211 51.4863C56.0088 51.9154 56.1024 52.35 56.3885 52.704L57.5243 51.7791ZM57.5851 51.8078C57.5651 51.8075 57.553 51.8054 57.5472 51.8041C57.5417 51.8029 57.5407 51.8021 57.5424 51.803C57.5431 51.8033 57.544 51.8038 57.5447 51.8043C57.5455 51.8048 57.5459 51.8051 57.5458 51.805C57.5458 51.805 57.5422 51.802 57.5357 51.7937L56.3771 52.6894C56.6667 53.0672 57.0809 53.2567 57.5436 53.2639L57.5851 51.8078ZM58.9698 51.0047C58.323 51.5941 57.8508 51.7925 57.5363 51.8086L57.5923 53.2631C58.4067 53.2212 59.1955 52.7558 59.9417 52.0759L58.9698 51.0047ZM59.3505 50.6487C59.2245 50.7696 59.0976 50.8883 58.9698 51.0047L59.9417 52.0759C60.079 51.9508 60.2152 51.8235 60.3503 51.6939L59.3505 50.6487ZM60.7203 51.7954C60.6374 51.6915 60.564 51.5161 60.5773 51.1918L59.1235 51.1507C59.0999 51.7244 59.226 52.2707 59.5786 52.7128L60.7203 51.7954ZM61.3164 52.0513C60.9758 52.0212 60.8132 51.9121 60.7207 51.7959L59.5782 52.7124C59.9719 53.2069 60.539 53.4463 61.17 53.502L61.3164 52.0513ZM62.598 51.7627C62.1386 51.9931 61.7111 52.0792 61.304 52.0503L61.1824 53.503C61.8825 53.5528 62.5712 53.3966 63.2363 53.063L62.598 51.7627ZM63.9395 50.7588C63.5205 51.1789 63.0688 51.5142 62.5845 51.7696L63.2498 53.0561C63.8731 52.7274 64.4442 52.3009 64.9626 51.7811L63.9395 50.7588ZM64.7091 50.5752C64.6897 50.5734 64.6619 50.5694 64.6257 50.5609L64.2764 51.979C64.3713 52.0013 64.4667 52.0173 64.5613 52.0258L64.7091 50.5752ZM65.5074 50.4132C65.1542 50.5556 64.8938 50.5914 64.7081 50.5751L64.5623 52.0259C65.0434 52.0682 65.5408 51.9627 66.0359 51.7632L65.5074 50.4132ZM66.7459 49.6074C66.2577 50.0154 65.8437 50.2745 65.5019 50.4155L66.0414 51.761C66.5693 51.5433 67.1129 51.1859 67.6699 50.7204L66.7459 49.6074ZM66.5598 50.2404C66.5406 50.2171 66.5153 50.1751 66.5029 50.1174C66.4907 50.0606 66.497 50.0173 66.5016 49.9985L67.9142 50.3293C68.0031 49.9679 67.9307 49.6012 67.6877 49.3059L66.5598 50.2404ZM67.0545 50.3538C66.9861 50.3799 66.8745 50.3983 66.7506 50.3599C66.6357 50.3242 66.5762 50.2602 66.561 50.2418L67.6865 49.3044C67.5783 49.1737 67.419 49.0369 67.1973 48.9682C66.9665 48.8967 66.7412 48.9215 66.5518 48.9938L67.0545 50.3538ZM66.2092 50.9041C66.5661 50.7505 66.9175 50.5191 67.2635 50.2317L66.3428 49.1159C66.0705 49.3421 65.8394 49.4854 65.6489 49.5674L66.2092 50.9041ZM65.1753 51.14C65.5244 51.1409 65.8732 51.049 66.2095 50.904L65.6487 49.5675C65.4376 49.6585 65.2912 49.6839 65.198 49.6836L65.1753 51.14ZM65.1346 49.0941C65.0028 49.3868 64.8276 49.6826 64.6051 49.9818L65.7682 50.8418C66.0478 50.4659 66.2796 50.0783 66.4597 49.6785L65.1346 49.0941ZM65.3612 48.3422C65.3355 48.562 65.2655 48.8101 65.1372 49.0884L66.4571 49.6842C66.6389 49.2897 66.7598 48.8914 66.8063 48.4928L65.3612 48.3422ZM65.2439 47.6737C65.3503 47.882 65.3896 48.0987 65.3612 48.3421L66.8063 48.4929C66.8676 47.9682 66.7792 47.4634 66.5412 46.9975L65.2439 47.6737ZM64.8342 47.4622C65.1096 47.4981 65.2002 47.593 65.2514 47.6878L66.5338 46.9834C66.2206 46.4027 65.6746 46.1006 65.0401 46.018L64.8342 47.4622ZM64.5298 47.4786C64.6228 47.4605 64.7327 47.454 64.8642 47.4655L65.01 46.0147C64.7598 45.9927 64.5124 46.002 64.2704 46.049L64.5298 47.4786ZM64.2933 47.5597C64.3513 47.5277 64.4279 47.4984 64.5302 47.4785L64.2699 46.0491C64.037 46.0945 63.8125 46.1712 63.6041 46.2861L64.2933 47.5597ZM63.8608 47.647L63.8754 47.6483L64.022 46.1975L64.0074 46.1962L63.8608 47.647ZM61.9838 48.7126C62.8447 47.9086 63.4805 47.6456 63.9179 47.6498L63.9504 46.1935C62.9457 46.1839 61.9532 46.7622 60.9985 47.6537L61.9838 48.7126ZM60.9218 50.0968C61.1601 49.6188 61.5095 49.1564 61.9843 48.7121L60.998 47.6542C60.4125 48.2021 59.9489 48.8033 59.6215 49.4601L60.9218 50.0968ZM60.0213 51.0164C60.2595 50.8056 60.5145 50.5619 60.786 50.2868L59.7573 49.2702C59.5037 49.5272 59.2731 49.747 59.0653 49.931L60.0213 51.0164ZM58.7403 51.7857C58.9178 51.776 59.0645 51.7134 59.151 51.6709C59.2488 51.6228 59.3436 51.5629 59.4311 51.5014C59.6065 51.3784 59.8074 51.2106 60.0282 51.0102L59.0584 49.9371C58.8574 50.1196 58.7085 50.2407 58.6061 50.3125C58.5547 50.3486 58.5286 50.3626 58.5235 50.3651C58.5071 50.3732 58.569 50.3376 58.6796 50.3316L58.7403 51.7857ZM57.8449 50.8461C57.8412 50.9777 57.8544 51.2084 58.0018 51.4238C58.1798 51.6842 58.4536 51.783 58.6891 51.7867L58.7307 50.3306C58.7901 50.3315 58.8767 50.3432 58.9711 50.3889C59.0695 50.4366 59.1494 50.5083 59.2058 50.5907C59.259 50.6685 59.2812 50.7407 59.2906 50.7856C59.3 50.8301 59.2996 50.8603 59.2994 50.8682L57.8449 50.8461ZM58.44 49.0867C58.1103 49.7292 57.8741 50.3287 57.8458 50.825L59.2985 50.8893C59.308 50.7219 59.4145 50.3584 59.7325 49.739L58.44 49.0867ZM59.722 47.1125C59.2059 47.7507 58.776 48.4114 58.4359 49.0949L59.7366 49.7308C60.0245 49.1523 60.3938 48.5819 60.8483 48.02L59.722 47.1125ZM59.6595 47.2916C59.6825 47.2105 59.7248 47.1277 59.789 47.0546C59.8521 46.9827 59.9218 46.9368 59.9806 46.9089L60.5896 48.2236C60.8025 48.1227 60.9848 47.934 61.059 47.6722L59.6595 47.2916ZM59.6643 47.3431C59.6658 47.2898 59.6793 47.2186 59.7188 47.1448L60.9997 47.8191C61.0793 47.6702 61.1145 47.5141 61.1187 47.3655L59.6643 47.3431ZM59.553 47.2171C59.6217 47.2885 59.6511 47.3369 59.6622 47.3597C59.6716 47.3793 59.6635 47.371 59.6643 47.3426L61.1187 47.3661C61.1326 46.886 60.8895 46.4935 60.6077 46.2003L59.553 47.2171ZM59.1312 47.0509C59.3693 47.0667 59.4792 47.1374 59.5431 47.2066L60.6177 46.2109C60.2547 45.8176 59.77 45.6324 59.2455 45.5977L59.1312 47.0509ZM57.7874 48.1977C58.2109 47.7904 58.5584 47.4951 58.8339 47.2993C58.9711 47.2018 59.0807 47.1359 59.1649 47.0941C59.2523 47.0507 59.2907 47.0439 59.2894 47.0441L59.0874 45.6046C58.7138 45.6618 58.3398 45.8752 58.0017 46.1155C57.6433 46.3702 57.2369 46.7204 56.7863 47.1537L57.7874 48.1977ZM55.433 50.7072C56.1361 49.8675 56.9207 49.0309 57.7873 48.1977L56.7864 47.1537C55.8847 48.0206 55.0632 48.8961 54.3228 49.7802L55.433 50.7072ZM55.2187 48.1477C54.8521 48.7189 54.5198 49.315 54.2226 49.9361L55.5333 50.5514C55.8042 49.9853 56.1067 49.4428 56.4399 48.9237L55.2187 48.1477ZM56.2655 46.6988C55.928 47.0909 55.5783 47.5781 55.2158 48.1524L56.4429 48.919C56.7806 48.3842 57.0873 47.9611 57.3627 47.6411L56.2655 46.6988ZM56.1478 47.0306C56.1494 46.9781 56.1606 46.8984 56.2032 46.8093C56.2478 46.7162 56.3154 46.6372 56.3958 46.5796L57.2324 47.7603C57.4966 47.571 57.5953 47.2909 57.6022 47.0547L56.1478 47.0306ZM56.0897 47.0636C56.1142 47.089 56.1315 47.1097 56.1435 47.1257C56.1556 47.1416 56.161 47.1512 56.1625 47.1541C56.1656 47.1599 56.1499 47.1326 56.148 47.0781L57.6021 47.0073C57.5875 46.5989 57.3646 46.2754 57.1432 46.0456L56.0897 47.0636ZM55.9503 46.9989C55.9831 47.0024 56.0369 47.0161 56.1182 47.0916L57.1147 46.0176C56.8422 45.7648 56.5095 45.5921 56.1234 45.5507L55.9503 46.9989ZM54.9903 48.6786C55.363 48.0799 55.6723 47.6363 55.92 47.3347C56.0439 47.1839 56.1425 47.0807 56.2168 47.0146C56.2981 46.9422 56.3171 46.9443 56.2795 46.9581L55.7942 45.5915C55.5828 45.6691 55.4021 45.8034 55.258 45.9316C55.1068 46.0662 54.9541 46.232 54.8009 46.4186C54.4944 46.7917 54.1462 47.2966 53.7581 47.9199L54.9903 48.6786ZM54.4509 49.62C54.6044 49.3262 54.7844 49.0118 54.9916 48.6764L53.7568 47.922C53.5339 48.2828 53.3358 48.6283 53.1635 48.9581L54.4509 49.62ZM53.2404 50.925C53.5899 50.6037 53.9613 50.2147 54.3537 49.7625L53.2606 48.8155C52.894 49.238 52.5617 49.5842 52.2637 49.8581L53.2404 50.925ZM51.8887 51.7564C52.1776 51.728 52.4322 51.5741 52.6035 51.4555C52.8007 51.3192 53.0166 51.1358 53.247 50.9187L52.2571 49.8643C52.0533 50.0562 51.898 50.184 51.7867 50.261C51.7315 50.2992 51.6983 50.317 51.6846 50.3235C51.6667 50.3319 51.6978 50.3136 51.765 50.307L51.8887 51.7564ZM50.9504 50.8664C50.9535 50.9981 50.9788 51.2305 51.1411 51.4391C51.337 51.6912 51.6194 51.7702 51.8522 51.7591L51.8015 50.3044C51.8596 50.3016 51.9465 50.3074 52.0438 50.3469C52.1456 50.3882 52.2311 50.4551 52.2936 50.5354C52.3526 50.6113 52.3794 50.6837 52.3916 50.7291C52.4036 50.774 52.4049 50.8051 52.4051 50.8134L50.9504 50.8664ZM51.6287 48.8528C51.2428 49.6068 50.9673 50.2938 50.9506 50.8264L52.4049 50.8534C52.4102 50.6845 52.533 50.2634 52.9219 49.5035L51.6287 48.8528ZM52.977 46.6693C52.4733 47.3434 52.0233 48.0726 51.6271 48.856L52.9236 49.5003C53.2828 48.7899 53.6881 48.1342 54.1382 47.5319L52.977 46.6693ZM52.8851 46.9964C52.8838 46.9421 52.8914 46.8612 52.9298 46.77C52.9698 46.675 53.0328 46.5941 53.108 46.534L54.0072 47.6672C54.2577 47.4669 54.3453 47.1848 54.3397 46.9439L52.8851 46.9964ZM52.817 47.0955C52.8541 47.1261 52.8821 47.1517 52.9025 47.1722C52.9232 47.193 52.9333 47.2056 52.9366 47.2099C52.9401 47.2146 52.9323 47.2053 52.9219 47.1822C52.9112 47.1587 52.8949 47.1148 52.8887 47.0534L54.3362 46.8869C54.3116 46.6466 54.2022 46.4569 54.1052 46.3273C54.0046 46.1928 53.8797 46.073 53.7509 45.9667L52.817 47.0955ZM52.6291 46.9891C52.6447 46.9898 52.7006 46.9949 52.8037 47.0843L53.7641 45.9779C53.4736 45.7262 53.1199 45.552 52.7112 45.5342L52.6291 46.9891ZM51.706 48.6502C52.0655 48.0481 52.3626 47.6032 52.5991 47.3021C52.7175 47.1514 52.8105 47.0498 52.8791 46.9861C52.9562 46.9145 52.9656 46.9255 52.9134 46.9447L52.4269 45.5786C52.2121 45.6576 52.0334 45.7977 51.897 45.9244C51.752 46.059 51.6059 46.225 51.4597 46.4111C51.1671 46.7837 50.833 47.2894 50.4595 47.9151L51.706 48.6502ZM51.2219 49.5425C51.3589 49.2567 51.5195 48.9601 51.7046 48.6525L50.4609 47.9128C50.2542 48.2562 50.0708 48.5941 49.9115 48.9264L51.2219 49.5425ZM50.419 50.5208C50.6607 50.2558 50.8985 49.9773 51.1323 49.6851L50.0011 48.7837C49.7866 49.0518 49.5697 49.3059 49.3503 49.5462L50.419 50.5208ZM49.345 51.4931C49.6919 51.2297 50.0451 50.9087 50.4049 50.5358L49.3644 49.5312C49.0444 49.8629 48.7481 50.1297 48.4754 50.3367L49.345 51.4931ZM48.2543 49.1115C48.2782 49.8404 48.2536 50.4032 48.191 50.8142L49.6294 51.0155C49.7109 50.4805 49.7339 49.8188 49.7085 49.0451L48.2543 49.1115ZM48.7096 46.6452C48.367 47.4321 48.2153 48.2604 48.2546 49.1209L49.7082 49.0357C49.6789 48.3954 49.7906 47.7907 50.0423 47.2125L48.7096 46.6452ZM48.7239 46.812C48.7186 46.7375 48.7298 46.6546 48.7632 46.574C48.7957 46.4955 48.8402 46.4409 48.8748 46.4075L49.8771 47.4502C50.0688 47.2654 50.1972 46.9993 50.1753 46.6904L48.7239 46.812ZM48.5907 46.8278C48.6898 46.8926 48.7374 46.9388 48.7558 46.9604C48.7732 46.9807 48.7456 46.9567 48.7334 46.8881L50.1658 46.6143C50.0801 46.1334 49.7133 45.8121 49.3975 45.6056L48.5907 46.8278ZM48.1943 46.6815C48.2782 46.6808 48.4067 46.7075 48.5907 46.8278L49.3975 45.6056C49.0376 45.3702 48.6352 45.2216 48.2009 45.2252L48.1943 46.6815ZM48.3044 46.666C48.2922 46.6711 48.2728 46.6771 48.2484 46.6791L48.1468 45.2277C48.0078 45.2392 47.8752 45.2736 47.7512 45.3262L48.3044 46.666ZM48.5036 46.5136C48.4788 46.5498 48.4278 46.6064 48.3432 46.6482L47.7125 45.344C47.5348 45.4318 47.4025 45.5617 47.3083 45.6987L48.5036 46.5136ZM48.4501 46.6165C48.4655 46.5833 48.4783 46.5581 48.4884 46.5398C48.4986 46.521 48.504 46.5131 48.5039 46.5132L47.308 45.6992C47.2409 45.7969 47.1829 45.9073 47.1326 46.0155L48.4501 46.6165ZM47.3718 48.2867C47.8062 47.669 48.1574 47.1303 48.4205 46.6735L47.1622 45.9584C46.9294 46.3626 46.6056 46.8615 46.1856 47.4586L47.3718 48.2867ZM46.4898 49.5132C46.7224 49.1988 47.0164 48.7899 47.371 48.2878L46.1864 47.4575C45.8351 47.955 45.5479 48.3542 45.3243 48.6565L46.4898 49.5132ZM46.436 49.5635C46.3864 49.628 46.3239 49.6815 46.2541 49.7203L45.56 48.4494C45.4546 48.508 45.3622 48.5873 45.2879 48.6837L46.436 49.5635ZM45.9857 50.2235C46.1429 50.0035 46.3036 49.7684 46.468 49.5187L45.256 48.7286C45.1008 48.9644 44.9507 49.1837 44.8057 49.3868L45.9857 50.2235ZM44.622 49.7352C44.6453 49.829 44.6698 49.9214 44.6957 50.0124L46.0957 49.5979C46.0744 49.5227 46.054 49.4459 46.0345 49.3673L44.622 49.7352ZM45.4014 50.1513C45.3331 50.1683 45.2229 50.1829 45.0925 50.1514C44.9535 50.1178 44.8366 50.0423 44.7523 49.9468C44.6089 49.7844 44.6029 49.6167 44.6026 49.6126L46.0539 49.49C46.0475 49.4006 46.0228 49.1726 45.8482 48.9747C45.6119 48.707 45.2872 48.6835 45.0671 48.7383L45.4014 50.1513ZM45.5174 50.1122C45.5451 50.0748 45.5529 50.0722 45.5373 50.0847C45.5214 50.0974 45.4604 50.142 45.3563 50.161L45.1122 48.7286C44.7313 48.7984 44.4854 49.0748 44.3516 49.2558L45.5174 50.1122ZM45.4939 50.1366C45.4939 50.14 45.4936 50.1438 45.493 50.1475C45.4924 50.1511 45.4917 50.1531 45.4917 50.1531C45.4917 50.153 45.4928 50.15 45.4962 50.1439C45.4995 50.1378 45.5053 50.1284 45.5147 50.1159L44.3544 49.2522C44.1599 49.5119 44.0344 49.8243 44.039 50.1745L45.4939 50.1366ZM45.5354 50.3878C45.5131 50.2877 45.4989 50.19 45.4921 50.0946L44.0407 50.2166C44.0528 50.3859 44.0778 50.5545 44.1151 50.7221L45.5354 50.3878ZM45.1356 51.3069C45.2181 51.2132 45.3015 51.1149 45.3856 51.0121L44.2649 50.0978C44.1912 50.1878 44.1195 50.2723 44.0498 50.3515L45.1356 51.3069ZM43.8694 52.2735C44.1513 52.2151 44.3883 52.0373 44.5468 51.9029C44.7294 51.748 44.9271 51.5445 45.1366 51.3057L44.0488 50.3526C43.8629 50.5644 43.7191 50.7081 43.6144 50.7969C43.5624 50.841 43.5303 50.8628 43.5163 50.8712C43.4982 50.8822 43.5265 50.8612 43.592 50.8476L43.8694 52.2735ZM43.0238 51.9404C43.1103 52.0652 43.2376 52.1753 43.4046 52.2381C43.5649 52.2983 43.7162 52.2979 43.8311 52.2804L43.6303 50.8407C43.6973 50.8305 43.8069 50.827 43.9314 50.8738C44.0626 50.9232 44.16 51.0094 44.2226 51.0996L43.0238 51.9404ZM42.8405 51.4945C42.8597 51.636 42.9251 51.9186 43.1916 52.1117L44.0548 50.9283C44.1564 51.0019 44.2136 51.0902 44.2436 51.1548C44.2723 51.2163 44.2801 51.2637 44.2823 51.28L42.8405 51.4945ZM43.2932 49.4332C42.9932 50.217 42.7942 50.9253 42.8362 51.4541L44.2866 51.3204C44.2736 51.1554 44.3486 50.7292 44.6511 49.9389L43.2932 49.4332ZM44.4063 47.1346C43.9814 47.8509 43.611 48.616 43.2946 49.4296L44.6497 49.9426C44.9382 49.2006 45.2736 48.509 45.655 47.8661L44.4063 47.1346ZM44.3499 47.4741C44.3424 47.4195 44.3409 47.3372 44.3696 47.2411C44.3994 47.141 44.4543 47.0529 44.5237 46.9846L45.5376 48.016C45.7678 47.7893 45.8244 47.4974 45.7915 47.2577L44.3499 47.4741ZM44.2936 47.5795C44.3339 47.6057 44.3645 47.628 44.387 47.6461C44.4099 47.6644 44.4213 47.6757 44.425 47.6797C44.429 47.6839 44.4202 47.6756 44.4072 47.6537C44.394 47.6316 44.3727 47.5896 44.3596 47.5289L45.7818 47.203C45.7308 46.9673 45.6007 46.7915 45.4905 46.6743C45.3759 46.5524 45.2388 46.4476 45.0994 46.3565L44.2936 47.5795ZM44.0805 47.4964C44.0996 47.4952 44.1656 47.496 44.2938 47.5796L45.0991 46.3564C44.7802 46.1483 44.4105 46.0172 44.0064 46.0431L44.0805 47.4964ZM44.3308 47.4524C44.3713 47.3997 44.388 47.3863 44.3808 47.3924C44.3761 47.3964 44.3565 47.4126 44.3223 47.4311C44.2882 47.4496 44.2278 47.4767 44.1449 47.4894L43.942 46.0501C43.7098 46.0858 43.5414 46.2076 43.4481 46.2867C43.3451 46.3741 43.2562 46.4768 43.1811 46.5747L44.3308 47.4524ZM43.9797 47.9848C44.1224 47.7466 44.2392 47.572 44.3311 47.452L43.1807 46.5751C43.0415 46.7569 42.8924 46.9839 42.7343 47.2479L43.9797 47.9848ZM42.5654 47.6155C42.6063 47.6514 42.6292 47.6887 42.6409 47.7541L44.0731 47.4786C44.0052 47.1007 43.8233 46.7707 43.5335 46.5159L42.5654 47.6155ZM42.3682 47.6354C42.4863 47.6205 42.5535 47.6267 42.5834 47.6327C42.6088 47.6377 42.5924 47.6392 42.5652 47.6153L43.5337 46.5161C43.1448 46.1738 42.6387 46.1356 42.2043 46.1905L42.3682 47.6354ZM40.0311 49.6395C40.7023 48.4787 41.5137 47.8482 42.4495 47.6204L42.1229 46.2055C40.7085 46.5499 39.5975 47.498 38.7741 48.9223L40.0311 49.6395ZM39.1389 52.6648C39.0683 51.8574 39.3261 50.859 40.0311 49.6395L38.7741 48.9223C37.9842 50.2885 37.5831 51.5944 37.6894 52.8104L39.1389 52.6648ZM39.2694 52.9617C39.2275 52.9242 39.1635 52.8411 39.1352 52.631L37.6932 52.8442C37.7552 53.3038 37.9356 53.7339 38.2914 54.0525L39.2694 52.9617ZM39.5366 52.9684C39.4097 52.9848 39.3338 52.9776 39.2953 52.9692C39.2619 52.9619 39.2625 52.9555 39.2724 52.9644L38.2884 54.0498C38.6935 54.4168 39.2227 54.475 39.7047 54.4127L39.5366 52.9684ZM40.3869 52.3226C40.0402 52.7566 39.7371 52.9279 39.4907 52.9758L39.7505 54.4053C40.4501 54.2692 41.0351 53.8286 41.5188 53.223L40.3869 52.3226ZM41.4428 50.7171C41.1345 51.3132 40.7851 51.8436 40.3962 52.3112L41.5095 53.2344C41.9722 52.6781 42.3796 52.0569 42.7332 51.3734L41.4428 50.7171ZM42.7182 51.7949C42.7345 51.5999 42.7626 51.3909 42.8035 51.1675L41.3724 50.923C41.3239 51.1881 41.2889 51.4445 41.2682 51.6919L42.7182 51.7949ZM42.7239 52.2471C42.707 52.1224 42.7032 51.973 42.7181 51.7953L41.2683 51.6915C41.2459 51.9565 41.2486 52.2142 41.2821 52.4613L42.7239 52.2471ZM42.7992 52.4875C42.7988 52.4871 42.7962 52.4846 42.7919 52.4784C42.7876 52.472 42.7808 52.4608 42.7729 52.4429C42.7566 52.4061 42.7371 52.3441 42.724 52.2473L41.2821 52.4611C41.3358 52.8584 41.48 53.2576 41.7951 53.5543L42.7992 52.4875ZM42.7856 52.4664C42.7683 52.4691 42.759 52.469 42.7566 52.4689C42.7545 52.4688 42.7581 52.4687 42.7656 52.4708C42.7733 52.473 42.7816 52.4764 42.7891 52.4807C42.7965 52.4849 42.8 52.4882 42.7998 52.488L41.7945 53.5537C42.1315 53.8718 42.5601 53.9719 42.9892 53.9057L42.7856 52.4664ZM44.1243 51.4182C43.5372 52.113 43.072 52.4015 42.7391 52.4751L43.0357 53.897C43.834 53.7204 44.562 53.141 45.2301 52.3505L44.1243 51.4182ZM44.5442 50.9013C44.4076 51.0765 44.2676 51.2488 44.1244 51.4182L45.2301 52.3505C45.3858 52.1663 45.538 51.9789 45.6866 51.7885L44.5442 50.9013ZM46.0495 51.478C45.936 51.3159 45.8416 51.1592 45.7645 51.0078L44.4663 51.6821C44.5766 51.8989 44.7066 52.1129 44.8546 52.3242L46.0495 51.478ZM47.2043 52.0584C46.673 52.0622 46.3197 51.8732 46.0542 51.4847L44.8499 52.3175C45.3987 53.1204 46.2108 53.5217 47.1958 53.5148L47.2043 52.0584ZM47.1923 52.0573L47.1493 52.0609L47.2508 53.5123L47.2938 53.5087L47.1923 52.0573ZM48.7855 51.1623C48.1214 51.7611 47.5855 52.0127 47.1708 52.0594L47.3153 53.5066C48.1576 53.4117 48.9721 52.9417 49.7517 52.2387L48.7855 51.1623ZM49.4308 50.5273C49.2174 50.7553 49.0023 50.9669 48.7856 51.1623L49.7516 52.2388C50.0013 52.0137 50.2464 51.7724 50.4869 51.5153L49.4308 50.5273ZM50.6131 51.6296C50.6232 51.4737 50.6433 51.312 50.6742 51.1444L49.2434 50.8982C49.2027 51.1191 49.1751 51.3379 49.1611 51.5542L50.6131 51.6296ZM50.6751 51.8405C50.668 51.8323 50.6192 51.7706 50.6144 51.5655L49.1598 51.6183C49.1696 52.0375 49.277 52.4612 49.567 52.7986L50.6751 51.8405ZM50.7244 51.8467C50.6743 51.8491 50.6616 51.8411 50.6701 51.8445C50.6739 51.8461 50.679 51.8488 50.6836 51.8523C50.6882 51.8557 50.6891 51.8573 50.6868 51.8546L49.5552 52.7846C49.8694 53.1695 50.3124 53.3231 50.7737 53.3015L50.7244 51.8467ZM52.2015 50.9395C51.5571 51.5648 51.0516 51.8095 50.6792 51.8503L50.8188 53.298C51.6583 53.2062 52.4563 52.7075 53.2073 51.9788L52.2015 50.9395ZM33.8901 45.7398C35.1128 45.4344 35.9792 45.5044 36.5791 45.8056L37.2449 44.5022C36.219 43.9871 34.9592 43.9763 33.555 44.327L33.8901 45.7398ZM30.6794 47.5558C31.5656 46.7172 32.6402 46.1074 33.919 45.7319L33.5261 44.3348C32.0402 44.7711 30.7555 45.4925 29.687 46.5037L30.6794 47.5558ZM29.6734 49.5828C29.5754 49.0535 29.7844 48.3927 30.6762 47.5589L29.6902 46.5006C28.6227 47.4988 28.0147 48.6349 28.2426 49.8659L29.6734 49.5828ZM29.879 49.8225C29.8213 49.7986 29.7284 49.74 29.6521 49.4975L28.2638 49.9512C28.4327 50.4882 28.7637 50.9439 29.308 51.1693L29.879 49.8225ZM30.2205 49.8682C30.1799 49.8793 30.0698 49.892 29.8519 49.8119L29.335 51.1799C29.7325 51.3259 30.1621 51.3882 30.5847 51.2734L30.2205 49.8682ZM30.0819 49.9732C30.1279 49.921 30.1723 49.8928 30.1963 49.8799C30.2197 49.8673 30.2305 49.8655 30.2199 49.8684L30.5853 51.2733C30.7566 51.2266 30.9866 51.1337 31.1669 50.9295L30.0819 49.9732ZM29.9953 50.6165C29.9641 50.56 29.9268 50.4626 29.9322 50.3353C29.9378 50.205 29.9857 50.1011 30.0342 50.0332L31.2146 50.8694C31.3065 50.7406 31.3776 50.5739 31.3859 50.3789C31.3941 50.1869 31.3393 50.0229 31.2701 49.8979L29.9953 50.6165ZM30.9191 47.4916C30.1619 48.428 29.7174 49.4239 29.9199 50.4123L31.3454 50.1021C31.273 49.7488 31.3951 49.2032 32.0454 48.3991L30.9191 47.4916ZM34.2857 45.3384C32.8743 45.7761 31.7338 46.4838 30.919 47.4917L32.0455 48.3989C32.6379 47.6661 33.5047 47.0997 34.7 46.729L34.2857 45.3384ZM36.4769 45.292C35.8559 45.066 35.1074 45.125 34.3194 45.3288L34.6664 46.7385C35.3466 46.5626 35.75 46.5835 35.9641 46.6614L36.4769 45.292ZM37.7209 46.6572C37.5474 45.9995 37.1155 45.5243 36.4768 45.2919L35.9642 46.6614C36.1602 46.7327 36.2599 46.8414 36.3139 47.046L37.7209 46.6572ZM37.0532 49.7421C37.6613 48.7318 37.9314 47.7049 37.7309 46.7002L36.3039 47.003C36.4125 47.5475 36.2919 48.201 35.8095 49.0024L37.0532 49.7421ZM34.5446 51.8471C35.5988 51.4998 36.4325 50.7735 37.0532 49.7421L35.8095 49.0024C35.3394 49.7835 34.7691 50.2458 34.1058 50.4643L34.5446 51.8471ZM33.6839 51.9032C33.972 51.9708 34.2661 51.9239 34.5077 51.8582L34.1428 50.4532C34.0771 50.471 34.0348 50.4774 34.0122 50.4793C33.9885 50.4812 33.9998 50.4771 34.0337 50.4851L33.6839 51.9032ZM33.7621 48.6258C33.5451 49.329 33.3405 50.1386 33.1472 51.0521L34.5705 51.3362C34.7571 50.4543 34.9512 49.6894 35.1518 49.0391L33.7621 48.6258ZM35.0093 46.9734C34.6545 47.102 34.3938 47.3581 34.205 47.6381C34.0172 47.9167 33.8743 48.2562 33.7611 48.629L35.1528 49.0359C35.2415 48.7439 35.3315 48.5553 35.4078 48.4422C35.483 48.3306 35.5175 48.3317 35.489 48.3421L35.0093 46.9734ZM34.7407 47.2336C34.8858 46.9863 35.1176 46.9402 35.1839 46.9334L35.3145 48.3821C35.4966 48.3633 35.807 48.2761 35.9931 47.9588L34.7407 47.2336ZM34.6657 47.6864C34.6605 47.6669 34.6489 47.6166 34.6505 47.5457C34.6521 47.4728 34.6685 47.3573 34.7402 47.2346L35.9937 47.9578C36.1587 47.6754 36.0994 47.3985 36.0729 47.298L34.6657 47.6864ZM34.6791 47.8011C34.7023 47.8144 34.7183 47.825 34.7285 47.8325C34.7387 47.8401 34.7415 47.8432 34.7394 47.8411C34.7354 47.8371 34.7047 47.805 34.6822 47.7405L36.0563 47.2439C35.9319 46.888 35.648 46.6682 35.4114 46.5333L34.6791 47.8011ZM34.5946 47.7905C34.6308 47.7823 34.6468 47.7845 34.6488 47.7847C34.6502 47.7849 34.6508 47.7851 34.6514 47.7853C34.652 47.7856 34.6546 47.7866 34.6596 47.7896L35.431 46.5449C35.0767 46.3278 34.6789 46.2817 34.2884 46.3709L34.5946 47.7905ZM33.0715 51.0136C33.3585 50.0382 33.6604 49.2797 33.9696 48.7211C34.283 48.155 34.5745 47.8474 34.8141 47.7013L34.0689 46.4601C33.5215 46.7939 33.0749 47.3488 32.699 48.0279C32.319 48.7144 31.9807 49.5838 31.6762 50.6188L33.0715 51.0136ZM30.5871 55.2159C31.1661 54.8778 31.6389 54.3189 32.0331 53.6264C32.4298 52.9295 32.7733 52.051 33.0728 51.0092L31.6749 50.6232C31.3945 51.5985 31.0902 52.3573 30.7712 52.9178C30.4497 53.4825 30.1387 53.8011 29.866 53.9604L30.5871 55.2159ZM29.4651 55.17C29.7913 55.3907 30.1627 55.344 30.3683 55.3005L30.0847 53.8758C30.0465 53.8839 30.0478 53.8792 30.0769 53.8812C30.1068 53.8832 30.1932 53.8943 30.2906 53.9602L29.4651 55.17ZM29.7519 55.2297C29.7225 55.2346 29.6693 55.2386 29.6023 55.2235C29.5325 55.2078 29.4678 55.1757 29.4151 55.1329L30.3406 53.9973C30.0903 53.794 29.792 53.7493 29.5289 53.7935L29.7519 55.2297ZM30.1552 54.8874C30.1344 54.9539 30.0918 55.0337 30.0176 55.1027C29.9451 55.1701 29.8709 55.201 29.8229 55.2141L29.4579 53.8091C29.142 53.8951 28.8747 54.1237 28.7668 54.4697L30.1552 54.8874ZM30.1713 54.7924C30.1619 54.7567 30.182 54.8017 30.1548 54.8885L28.7671 54.4685C28.6858 54.7278 28.7107 54.9782 28.7642 55.1809L30.1713 54.7924ZM30.5331 55.2375C30.2823 55.048 30.1981 54.8937 30.1713 54.7922L28.7642 55.1811C28.8973 55.6852 29.2278 56.0872 29.6469 56.4039L30.5331 55.2375ZM31.1841 55.3326C30.8598 55.4013 30.6714 55.342 30.5331 55.2375L29.647 56.4039C30.1783 56.8054 30.8139 56.8957 31.4677 56.7573L31.1841 55.3326ZM32.1401 54.3027C31.8344 54.9372 31.4783 55.2345 31.1123 55.3517L31.5395 56.7382C32.4 56.4626 33.0235 55.8048 33.4491 54.9217L32.1401 54.3027ZM32.9577 51.8857C32.7433 52.8004 32.4684 53.6065 32.1375 54.3083L33.4518 54.916C33.8339 54.1058 34.14 53.1993 34.3741 52.2011L32.9577 51.8857ZM34.5598 51.7C34.3821 51.6505 34.2477 51.577 34.1425 51.4871L33.1893 52.5997C33.4685 52.8383 33.7943 53.0034 34.1525 53.1033L34.5598 51.7ZM35.1219 51.6626C34.8459 51.7302 34.6598 51.7244 34.5389 51.6945L34.1733 53.1088C34.5833 53.21 35.0174 53.183 35.4504 53.077L35.1219 51.6626ZM37.1496 49.9086C36.5383 50.8701 35.84 51.4287 35.0709 51.6771L35.5015 53.0625C36.6717 52.6846 37.624 51.8592 38.3742 50.6792L37.1496 49.9086ZM37.7238 47.135C37.911 48.061 37.7358 48.975 37.1474 49.9121L38.3764 50.6757C39.1439 49.4535 39.4191 48.1593 39.15 46.8285L37.7238 47.135ZM36.5794 45.8058C37.21 46.122 37.5739 46.5723 37.7334 47.1762L39.1404 46.7872C38.8685 45.7577 38.216 44.9893 37.2446 44.5021L36.5794 45.8058ZM40.4111 52.9632C40.7614 52.8945 41.0355 52.6513 41.2157 52.4647C41.4216 52.2515 41.6364 51.9696 41.8593 51.6377L40.655 50.836C40.4549 51.1339 40.2955 51.3356 40.1757 51.4596C40.1163 51.5211 40.0786 51.551 40.0623 51.5623C40.0425 51.5759 40.0739 51.5488 40.1494 51.5341L40.4111 52.9632ZM39.3403 52.1458C39.361 52.2988 39.4212 52.5439 39.6255 52.7397C39.8615 52.9659 40.156 53.0032 40.3823 52.9682L40.1782 51.529C40.28 51.5133 40.4757 51.5253 40.6388 51.6816C40.7064 51.7464 40.7421 51.8128 40.76 51.8561C40.7774 51.8982 40.7815 51.9269 40.7821 51.9314L39.3403 52.1458ZM40.2112 49.2683C39.6586 50.3569 39.3123 51.3176 39.3339 52.0689L40.7884 52.0083C40.7782 51.6557 40.9634 50.985 41.5067 49.9145L40.2112 49.2683ZM42.2988 46.9822C41.4304 47.289 40.7605 48.1674 40.2089 49.2728L41.5089 49.9101C42.033 48.8599 42.4794 48.4565 42.7673 48.3548L42.2988 46.9822ZM43.2879 47.1993C43.0858 47.035 42.7896 46.8935 42.4312 46.9489L42.6349 48.3881C42.5597 48.3997 42.4908 48.3904 42.4375 48.3724C42.3882 48.3558 42.3634 48.3357 42.362 48.3346L43.2879 47.1993ZM43.7166 47.9591C43.664 47.6989 43.5457 47.4348 43.3211 47.228L42.3288 48.3058C42.3077 48.2865 42.2953 48.2675 42.2893 48.2559C42.2839 48.2456 42.2865 48.2464 42.2903 48.2654L43.7166 47.9591ZM43.7339 48.0758L43.7244 48.0055L42.2825 48.2191L42.292 48.2894L43.7339 48.0758ZM43.6972 48.4795C43.7478 48.3294 43.7493 48.1876 43.7337 48.0743L42.2922 48.2908C42.2843 48.2336 42.282 48.1403 42.3191 48.0303L43.6972 48.4795ZM43.4294 49.0368L43.6595 48.5707L42.3568 47.939L42.1266 48.405L43.4294 49.0368ZM41.8558 51.6428C42.2977 50.9966 42.8171 50.1362 43.4121 49.0697L42.1439 48.3721C41.5594 49.4199 41.0645 50.237 40.6585 50.8309L41.8558 51.6428ZM46.2658 51.0047C46.4905 50.6834 46.7057 50.3542 46.9115 50.0171L45.6726 49.2695C45.4827 49.5805 45.2842 49.884 45.0773 50.1799L46.2658 51.0047ZM46.5069 50.6476C46.4487 50.5375 46.3934 50.4213 46.3412 50.2989L45.002 50.8856C45.0691 51.0428 45.1414 51.1949 45.2189 51.3417L46.5069 50.6476ZM46.7128 50.8983C46.711 50.8983 46.7106 50.8981 46.7112 50.8982C46.7119 50.8983 46.7123 50.8985 46.7121 50.8984C46.712 50.8984 46.7101 50.8977 46.7065 50.8957C46.7028 50.8937 46.6968 50.8901 46.6885 50.8839C46.653 50.857 46.5849 50.7888 46.5009 50.6365L45.225 51.3528C45.5166 51.8815 45.9873 52.3512 46.687 52.3546L46.7128 50.8983ZM46.7114 50.3347C46.676 50.6481 46.6126 50.8151 46.567 50.8908C46.5471 50.9238 46.5372 50.9285 46.5441 50.9233C46.5472 50.921 46.552 50.9181 46.5576 50.9156C46.5602 50.9144 46.5625 50.9136 46.5642 50.913C46.566 50.9125 46.5669 50.9123 46.5668 50.9123L46.8331 52.3405C47.2694 52.2536 47.5972 51.985 47.8105 51.6308C48.0097 51.3001 48.1099 50.8981 48.1572 50.4799L46.7114 50.3347ZM46.8261 48.0404C46.8188 48.8614 46.7797 49.6297 46.7102 50.3461L48.1584 50.4685C48.2325 49.7048 48.2734 48.8933 48.2811 48.0347L46.8261 48.0404ZM47.4744 49.2815C47.7164 48.991 47.9327 48.725 48.1227 48.4838L46.9845 47.5913C46.8048 47.8195 46.5973 48.0746 46.3618 48.3575L47.4744 49.2815ZM46.8733 50.0737C47.0747 49.8033 47.2806 49.5324 47.4908 49.2611L46.3454 48.3778C46.1294 48.6565 45.918 48.9349 45.7108 49.2129L46.8733 50.0737ZM64.828 50.5397C65.0838 50.2093 65.2975 49.8714 65.4642 49.5249L64.1549 48.9066C64.0392 49.1471 63.8834 49.3971 63.6823 49.6569L64.828 50.5397ZM63.0099 49.5074C63.1651 49.9553 63.4195 50.3412 63.7729 50.6497L64.7373 49.5469C64.5797 49.4093 64.4623 49.2368 64.3852 49.0144L63.0099 49.5074ZM62.8377 48.2419C62.7865 48.6798 62.8561 49.1133 63.0192 49.5326L64.376 48.9892C64.2851 48.7556 64.2633 48.5605 64.2829 48.3928L62.8377 48.2419ZM62.8969 47.9263C62.8688 48.0316 62.8502 48.1373 62.8379 48.2405L64.2827 48.3941C64.2884 48.3463 64.2955 48.3109 64.3023 48.2853L62.8969 47.9263ZM63.0072 47.6214C62.9603 47.7209 62.9236 47.8243 62.896 47.9296L64.3032 48.282C64.3098 48.2568 64.3166 48.2396 64.3215 48.2291L63.0072 47.6214ZM63.6546 47.0546C63.5035 47.1422 63.3565 47.2447 63.2133 47.3598L64.1154 48.4907C64.2077 48.4165 64.2931 48.3581 64.3712 48.3128L63.6546 47.0546ZM64.1243 46.8384C63.9625 46.8938 63.8058 46.9669 63.6541 47.055L64.3717 48.3125C64.4487 48.2678 64.5176 48.2369 64.5786 48.216L64.1243 46.8384ZM65.5378 47.3615C65.2563 46.9951 64.8348 46.8514 64.4485 46.8044L64.2545 48.2501C64.3436 48.261 64.3887 48.2776 64.4049 48.2851C64.4176 48.291 64.401 48.2857 64.3802 48.2587L65.5378 47.3615ZM65.801 48.4838C65.8442 48.1146 65.7867 47.7357 65.5679 47.4037L64.3502 48.2165C64.3508 48.2175 64.3534 48.2209 64.3558 48.2332C64.3586 48.2472 64.3623 48.2784 64.3559 48.3327L65.801 48.4838ZM65.4554 49.5427C65.6341 49.1956 65.7593 48.8404 65.801 48.4836L64.3559 48.3328C64.3401 48.468 64.2861 48.6512 64.1638 48.8888L65.4554 49.5427ZM61.953 52.3115C62.3687 52.3481 62.7699 52.2339 63.1366 52.0402L62.4707 50.7541C62.2802 50.8546 62.1624 50.8663 62.0991 50.8608L61.953 52.3115ZM61.0405 51.7697C61.2604 52.1476 61.6363 52.2835 61.9528 52.3115L62.0993 50.8608C62.0826 50.8593 62.1088 50.8588 62.155 50.8833C62.2075 50.9111 62.2621 50.9592 62.3003 51.0247L61.0405 51.7697ZM60.8712 50.8573C60.8386 51.1374 60.8481 51.5168 61.0837 51.8353L62.2571 50.9591C62.3011 51.0186 62.3111 51.0679 62.3126 51.0772C62.3134 51.0819 62.3125 51.0789 62.3124 51.0665C62.3124 51.0542 62.3132 51.0348 62.3164 51.0075L60.8712 50.8573ZM61.4082 49.4182C61.1319 49.8853 60.9422 50.3604 60.8737 50.8381L62.3139 51.0268C62.348 50.7887 62.4512 50.4974 62.6577 50.1483L61.4082 49.4182ZM62.3961 48.1108C62.0193 48.517 61.691 48.9509 61.412 49.412L62.654 50.1546C62.8792 49.7824 63.1461 49.4289 63.4565 49.0943L62.3961 48.1108ZM63.6424 48.7335L63.649 48.6769L62.2036 48.5282L62.197 48.5848L63.6424 48.7335ZM63.7249 49.6225C63.634 49.323 63.6079 49.0289 63.6423 48.7346L62.1972 48.5838C62.1388 49.0829 62.1852 49.5778 62.3323 50.0624L63.7249 49.6225ZM64.132 50.3089C63.9472 50.1219 63.8104 49.8952 63.7231 49.6165L62.3342 50.0685C62.4867 50.5553 62.7386 50.9831 63.0909 51.3397L64.132 50.3089ZM63.1199 52.0488C63.471 51.8747 63.7988 51.6396 64.1048 51.3531L63.1181 50.2955C62.9023 50.4976 62.6915 50.6442 62.4874 50.7455L63.1199 52.0488Z" fill="url(#paint7_linear_63_4713)" fill-opacity="0.5" mask="url(#path-6-outside-1_63_4713)"/>
</g>
<defs>
<filter id="filter0_d_63_4713" x="0.247751" y="0.680526" width="98.2125" height="98.2126" filterUnits="userSpaceOnUse" color-interpolation-filters="sRGB">
<feFlood flood-opacity="0" result="BackgroundImageFix"/>
<feColorMatrix in="SourceAlpha" type="matrix" values="0 0 0 0 0 0 0 0 0 0 0 0 0 0 0 0 0 0 127 0" result="hardAlpha"/>
<feOffset dy="0.688696"/>
<feGaussianBlur stdDeviation="4.30435"/>
<feComposite in2="hardAlpha" operator="out"/>
<feColorMatrix type="matrix" values="0 0 0 0 0 0 0 0 0 0 0 0 0 0 0 0 0 0 1 0"/>
<feBlend mode="normal" in2="BackgroundImageFix" result="effect1_dropShadow_63_4713"/>
<feBlend mode="normal" in="SourceGraphic" in2="effect1_dropShadow_63_4713" result="shape"/>
</filter>
<filter id="filter1_d_63_4713" x="19.5001" y="21.1713" width="56.0444" height="55.905" filterUnits="userSpaceOnUse" color-interpolation-filters="sRGB">
<feFlood flood-opacity="0" result="BackgroundImageFix"/>
<feColorMatrix in="SourceAlpha" type="matrix" values="0 0 0 0 0 0 0 0 0 0 0 0 0 0 0 0 0 0 127 0" result="hardAlpha"/>
<feOffset dx="0.727845"/>
<feGaussianBlur stdDeviation="1.45569"/>
<feColorMatrix type="matrix" values="0 0 0 0 0 0 0 0 0 0 0 0 0 0 0 0 0 0 0.15 0"/>
<feBlend mode="normal" in2="BackgroundImageFix" result="effect1_dropShadow_63_4713"/>
<feBlend mode="normal" in="SourceGraphic" in2="effect1_dropShadow_63_4713" result="shape"/>
</filter>
<filter id="filter2_i_63_4713" x="24.9521" y="25.9122" width="42.9814" height="44.9979" filterUnits="userSpaceOnUse" color-interpolation-filters="sRGB">
<feFlood flood-opacity="0" result="BackgroundImageFix"/>
<feBlend mode="normal" in="SourceGraphic" in2="BackgroundImageFix" result="shape"/>
<feColorMatrix in="SourceAlpha" type="matrix" values="0 0 0 0 0 0 0 0 0 0 0 0 0 0 0 0 0 0 127 0" result="hardAlpha"/>
<feOffset dy="-1.45569"/>
<feGaussianBlur stdDeviation="7.64238"/>
<feComposite in2="hardAlpha" operator="arithmetic" k2="-1" k3="1"/>
<feColorMatrix type="matrix" values="0 0 0 0 0.741667 0 0 0 0 0.741667 0 0 0 0 0.741667 0 0 0 0.15 0"/>
<feBlend mode="normal" in2="shape" result="effect1_innerShadow_63_4713"/>
</filter>
<linearGradient id="paint0_linear_63_4713" x1="20.1066" y1="78.3476" x2="87.395" y2="11.0604" gradientUnits="userSpaceOnUse">
<stop stop-color="#FFFB90"/>
<stop offset="0.1415" stop-color="#FBEA78"/>
<stop offset="0.2392" stop-color="#F8DC65"/>
<stop offset="0.2703" stop-color="#E6C758"/>
<stop offset="0.3368" stop-color="#C5A041"/>
<stop offset="0.3979" stop-color="#AD8330"/>
<stop offset="0.451" stop-color="#9E7226"/>
<stop offset="0.4902" stop-color="#996C22"/>
<stop offset="0.52" stop-color="#9D7126"/>
<stop offset="0.5575" stop-color="#AA8131"/>
<stop offset="0.5991" stop-color="#BE9B42"/>
<stop offset="0.6434" stop-color="#DABE5B"/>
<stop offset="0.6865" stop-color="#FBE878"/>
<stop offset="0.7724" stop-color="#FFFFAA"/>
<stop offset="0.8333" stop-color="#FBE878"/>
<stop offset="1" stop-color="#A4631B"/>
</linearGradient>
<linearGradient id="paint1_linear_63_4713" x1="66.809" y1="63.7482" x2="35.9254" y2="32.7786" gradientUnits="userSpaceOnUse">
<stop stop-color="#FFFB90"/>
<stop offset="0.1415" stop-color="#FBEA78"/>
<stop offset="0.2392" stop-color="#F8DC65"/>
<stop offset="0.2703" stop-color="#E6C758"/>
<stop offset="0.3368" stop-color="#C5A041"/>
<stop offset="0.3979" stop-color="#AD8330"/>
<stop offset="0.451" stop-color="#9E7226"/>
<stop offset="0.4902" stop-color="#996C22"/>
<stop offset="0.52" stop-color="#9D7126"/>
<stop offset="0.5575" stop-color="#AA8131"/>
<stop offset="0.5991" stop-color="#BE9B42"/>
<stop offset="0.6434" stop-color="#DABE5B"/>
<stop offset="0.6865" stop-color="#FBE878"/>
<stop offset="0.7724" stop-color="#FFFFAA"/>
<stop offset="0.8333" stop-color="#FBE878"/>
<stop offset="1" stop-color="#A4631B"/>
</linearGradient>
<linearGradient id="paint2_linear_63_4713" x1="56.0808" y1="31.2338" x2="56.0808" y2="67.2004" gradientUnits="userSpaceOnUse">
<stop stop-color="#FFFB90"/>
<stop offset="0.1415" stop-color="#FBEA78"/>
<stop offset="0.2392" stop-color="#F8DC65"/>
<stop offset="0.2703" stop-color="#E6C758"/>
<stop offset="0.3368" stop-color="#C5A041"/>
<stop offset="0.3979" stop-color="#AD8330"/>
<stop offset="0.451" stop-color="#9E7226"/>
<stop offset="0.4902" stop-color="#996C22"/>
<stop offset="0.52" stop-color="#9D7126"/>
<stop offset="0.5575" stop-color="#AA8131"/>
<stop offset="0.5991" stop-color="#BE9B42"/>
<stop offset="0.6434" stop-color="#DABE5B"/>
<stop offset="0.6865" stop-color="#FBE878"/>
<stop offset="0.7724" stop-color="#FFFFAA"/>
<stop offset="0.8333" stop-color="#FBE878"/>
<stop offset="1" stop-color="#A4631B"/>
</linearGradient>
<linearGradient id="paint3_linear_63_4713" x1="64.1654" y1="66.3298" x2="27.4065" y2="29.4708" gradientUnits="userSpaceOnUse">
<stop stop-color="#FFFB90"/>
<stop offset="0.1415" stop-color="#FBEA78"/>
<stop offset="0.2392" stop-color="#F8DC65"/>
<stop offset="0.2703" stop-color="#E6C758"/>
<stop offset="0.3368" stop-color="#C5A041"/>
<stop offset="0.3979" stop-color="#AD8330"/>
<stop offset="0.451" stop-color="#9E7226"/>
<stop offset="0.4902" stop-color="#996C22"/>
<stop offset="0.52" stop-color="#9D7126"/>
<stop offset="0.5575" stop-color="#AA8131"/>
<stop offset="0.5991" stop-color="#BE9B42"/>
<stop offset="0.6434" stop-color="#DABE5B"/>
<stop offset="0.6865" stop-color="#FBE878"/>
<stop offset="0.7724" stop-color="#FFFFAA"/>
<stop offset="0.8333" stop-color="#FBE878"/>
<stop offset="1" stop-color="#A4631B"/>
</linearGradient>
<linearGradient id="paint4_linear_63_4713" x1="24.9672" y1="32.0665" x2="66.0186" y2="69.567" gradientUnits="userSpaceOnUse">
<stop stop-color="#CD9E25"/>
<stop offset="1" stop-color="#A58431" stop-opacity="0"/>
</linearGradient>
<linearGradient id="paint5_linear_63_4713" x1="51.1216" y1="27.8699" x2="41.7635" y2="70.408" gradientUnits="userSpaceOnUse">
<stop stop-color="white" stop-opacity="0.4"/>
<stop offset="0.515625" stop-color="white" stop-opacity="0"/>
</linearGradient>
<linearGradient id="paint6_linear_63_4713" x1="51.1216" y1="27.8699" x2="41.7635" y2="70.408" gradientUnits="userSpaceOnUse">
<stop stop-color="white"/>
<stop offset="0.0001" stop-color="white" stop-opacity="0"/>
<stop offset="0.520833" stop-color="white" stop-opacity="0.24"/>
<stop offset="1" stop-color="white" stop-opacity="0.29"/>
</linearGradient>
<linearGradient id="paint7_linear_63_4713" x1="62.5016" y1="44.4369" x2="58.3033" y2="60.4675" gradientUnits="userSpaceOnUse">
<stop stop-color="#E6C758"/>
<stop offset="0.21875" stop-color="#C5A041"/>
<stop offset="0.333333" stop-color="#AD8330"/>
<stop offset="0.451" stop-color="#9E7226"/>
<stop offset="0.4902" stop-color="#996C22"/>
<stop offset="0.52" stop-color="#9D7126"/>
<stop offset="0.5575" stop-color="#AA8131"/>
<stop offset="0.5991" stop-color="#BE9B42"/>
<stop offset="0.703125" stop-color="#DABE5B"/>
<stop offset="0.817708" stop-color="#CFAC4E"/>
<stop offset="1" stop-color="#A4631B"/>
</linearGradient>
</defs>
</svg>
