<svg width="25" height="24" viewBox="0 0 25 24" fill="none" xmlns="http://www.w3.org/2000/svg">
	<path d="M4.625 2.2515L9.125 2.256C9.32391 2.256 9.51468 2.33502 9.65533 2.47567C9.79598 2.61632 9.875 2.80709 9.875 3.006C9.875 3.20491 9.79598 3.39568 9.65533 3.53633C9.51468 3.67698 9.32391 3.756 9.125 3.756L4.625 3.7515V8.25C4.625 8.44891 4.54598 8.63968 4.40533 8.78033C4.26468 8.92098 4.07391 9 3.875 9C3.67609 9 3.48532 8.92098 3.34467 8.78033C3.20402 8.63968 3.125 8.44891 3.125 8.25V2.25H4.625V2.2515ZM4.625 21.7485V21.75H3.125V15.75C3.125 15.5511 3.20402 15.3603 3.34467 15.2197C3.48532 15.079 3.67609 15 3.875 15C4.07391 15 4.26468 15.079 4.40533 15.2197C4.54598 15.3603 4.625 15.5511 4.625 15.75V20.2485L9.125 20.244C9.32391 20.244 9.51468 20.323 9.65533 20.4637C9.79598 20.6043 9.875 20.7951 9.875 20.994C9.875 21.1929 9.79598 21.3837 9.65533 21.5243C9.51468 21.665 9.32391 21.744 9.125 21.744L4.625 21.7485ZM21.125 2.2515V2.25H22.625V8.25C22.625 8.44891 22.546 8.63968 22.4053 8.78033C22.2647 8.92098 22.0739 9 21.875 9C21.6761 9 21.4853 8.92098 21.3447 8.78033C21.204 8.63968 21.125 8.44891 21.125 8.25V3.7515L16.625 3.756C16.4261 3.756 16.2353 3.67698 16.0947 3.53633C15.954 3.39568 15.875 3.20491 15.875 3.006C15.875 2.80709 15.954 2.61632 16.0947 2.47567C16.2353 2.33502 16.4261 2.256 16.625 2.256L21.125 2.2515ZM21.125 21.7485L16.625 21.744C16.4261 21.744 16.2353 21.665 16.0947 21.5243C15.954 21.3837 15.875 21.1929 15.875 20.994C15.875 20.7951 15.954 20.6043 16.0947 20.4637C16.2353 20.323 16.4261 20.244 16.625 20.244L21.125 20.2485V15.75C21.125 15.5511 21.204 15.3603 21.3447 15.2197C21.4853 15.079 21.6761 15 21.875 15C22.0739 15 22.2647 15.079 22.4053 15.2197C22.546 15.3603 22.625 15.5511 22.625 15.75V21.75H21.125V21.7485Z" fill="currentColor" />
	<rect x="9.875" y="9" width="6" height="6" rx="1" fill="currentColor" />
</svg>
