<svg width="147" height="175" viewBox="0 0 147 175" fill="none" xmlns="http://www.w3.org/2000/svg">
  <g>
    <path fill-rule="evenodd" clip-rule="evenodd" d="M107.369 38.9843C110.927 37.0437 113.838 34.7797 115.778 31.8687C119.013 26.3703 118.042 19.5781 113.191 11.8156C107.692 3.40622 101.547 -0.151594 94.7547 0.171843C79.2297 1.14216 65.6453 23.7828 59.5 34.7797C53.6781 23.7828 39.7703 1.14216 24.2453 0.171843C17.1297 -0.475032 10.9844 3.40622 5.80937 11.4922C0.634373 19.2547 -0.335938 26.0468 3.22188 31.5453C4.83907 34.4562 7.75 37.0437 11.6313 38.6609H-18.125C-23.6234 38.6609 -27.8281 42.8656 -27.8281 48.364V67.7703C-27.8281 73.2687 -23.6234 77.4734 -18.125 77.4734H-11.0094C-11.3328 78.4437 -11.6562 79.414 -11.6562 80.7078V164.802C-11.6562 170.3 -7.12812 174.505 -1.95312 174.505H52.0609H66.6156H120.953C126.452 174.505 130.656 169.977 130.656 164.802V81.0312C130.656 79.7375 130.333 78.7672 130.009 77.7968H137.125C142.623 77.7968 146.828 73.5922 146.828 68.0937V48.6875C146.828 43.189 142.623 38.9843 137.125 38.9843H107.369ZM72.4375 71.3281H66.9391H52.3844H49.4734C47.8562 71.3281 46.8859 70.0343 46.8859 68.7406V48.364C46.8859 47.0703 47.8562 45.7765 49.4734 45.7765C49.7969 45.7765 49.7969 45.7765 50.1203 45.7765C51.4141 45.7765 53.0312 45.7765 54.0016 45.7765H65.9688C67.2625 45.7765 68.5563 45.7765 69.85 45.7765C70.1734 45.7765 70.1734 45.7765 70.4969 45.7765C71.4672 45.4531 72.4375 46.7468 72.4375 48.0406V71.3281ZM107.692 15.05C111.25 20.5484 112.22 25.0765 110.28 28.3109C105.428 36.3968 86.3453 38.6609 71.7906 38.9843H69.85H65.9688C65.6453 38.9843 64.9984 38.9843 64.675 38.9843C70.8203 27.3406 83.4344 7.61091 95.0781 6.64059C99.6062 6.31716 103.811 9.2281 107.692 15.05ZM11.3078 15.05C15.1891 9.55153 19.0703 6.64059 23.275 6.64059C23.5984 6.64059 23.5984 6.64059 23.9219 6.64059C35.5656 7.61091 48.1797 27.3406 54.325 38.9843C54.0016 38.9843 53.3547 38.9843 53.0312 38.9843H49.15H47.2094C32.9781 38.6609 13.5719 36.7203 8.72031 28.3109C6.77969 25.0765 7.75 20.5484 11.3078 15.05ZM-21.3594 48.6875C-21.3594 46.7468 -20.0656 45.4531 -18.125 45.4531H40.4172C40.0938 46.4234 40.0938 47.0703 40.0938 48.0406V68.4172C40.0938 69.3875 40.4172 70.3578 40.4172 71.0047H-1.95312H-18.125C-20.0656 71.3281 -21.3594 70.0343 -21.3594 68.0937V48.6875ZM-5.1875 81.0312C-5.1875 79.0906 -3.89375 77.7968 -1.95312 77.7968H43.6516C43.3281 78.4437 43.3281 79.414 43.3281 80.0609V165.772C43.3281 166.742 43.3281 167.389 43.6516 168.036H-1.95312C-3.57031 168.359 -5.1875 166.742 -5.1875 165.125V81.0312ZM49.7969 166.095V80.0609C49.7969 78.7672 50.7672 77.7968 52.0609 77.7968H66.6156C67.9094 77.7968 68.8797 78.7672 68.8797 80.0609V165.772C68.8797 167.066 67.9094 168.036 66.6156 168.036H52.0609V168.359C50.7672 168.359 49.7969 167.389 49.7969 166.095ZM124.188 165.125C124.188 167.066 122.57 168.359 120.953 168.359H75.3484C75.6719 167.712 75.6719 166.742 75.6719 166.095V80.0609C75.6719 79.0906 75.6719 78.4437 75.3484 77.7968H120.953C122.894 77.7968 124.188 79.0906 124.188 81.0312V165.125ZM137.125 71.3281H120.953H78.9062V48.0406C78.9062 47.0703 78.5828 46.1 78.5828 45.4531H137.125C139.066 45.4531 140.359 46.7468 140.359 48.6875V68.0937C140.359 70.0343 139.066 71.3281 137.125 71.3281Z" fill="#B5EB8C" />
  </g>
</svg>