<svg width="21" height="21" viewBox="0 0 21 21" fill="none" xmlns="http://www.w3.org/2000/svg">
<g clip-path="url(#clip0_539_9669)">
<path d="M17.1882 10.8315V19.1865H3.82031V10.8315" stroke="white" stroke-width="2.00519" stroke-linecap="round" stroke-linejoin="round"/>
<path d="M18.8583 6.65381H2.14844V10.8313H18.8583V6.65381Z" stroke="white" stroke-width="2.00519" stroke-linecap="round" stroke-linejoin="round"/>
<path d="M10.5039 19.1862V6.65381" stroke="white" stroke-width="2.00519" stroke-linecap="round" stroke-linejoin="round"/>
<path d="M10.5037 6.6533H6.74401C6.19004 6.6533 5.65876 6.43324 5.26705 6.04152C4.87534 5.64981 4.65527 5.11853 4.65527 4.56457C4.65527 4.0106 4.87534 3.47932 5.26705 3.08761C5.65876 2.69589 6.19004 2.47583 6.74401 2.47583C9.66824 2.47583 10.5037 6.6533 10.5037 6.6533Z" stroke="white" stroke-width="2.00519" stroke-linecap="round" stroke-linejoin="round"/>
<path d="M10.5039 6.6533H14.2636C14.8176 6.6533 15.3489 6.43324 15.7406 6.04152C16.1323 5.64981 16.3524 5.11853 16.3524 4.56457C16.3524 4.0106 16.1323 3.47932 15.7406 3.08761C15.3489 2.69589 14.8176 2.47583 14.2636 2.47583C11.3394 2.47583 10.5039 6.6533 10.5039 6.6533Z" stroke="white" stroke-width="2.00519" stroke-linecap="round" stroke-linejoin="round"/>
</g>
<defs>
<clipPath id="clip0_539_9669">
<rect width="20.0519" height="20.0519" fill="white" transform="translate(0.478516 0.804688)"/>
</clipPath>
</defs>
</svg>
