<svg width="102" height="195" viewBox="0 0 102 195" fill="none" xmlns="http://www.w3.org/2000/svg">
	<path d="M67.7773 143.543C67.163 143.393 66.5139 143.492 65.9726 143.818L54.1163 150.999C53.8362 151.17 53.5941 151.397 53.4051 151.665C53.216 151.933 53.084 152.237 53.017 152.558C52.9507 152.879 52.9517 153.21 53.0199 153.531C53.088 153.851 53.2219 154.154 53.4131 154.42L60.8411 164.844C58.055 168.061 49.8749 176.516 36.0024 182.874C22.1833 176.538 13.9586 168.061 11.1637 164.844L18.6139 154.424C18.8035 154.157 18.9359 153.854 19.003 153.533C19.0702 153.212 19.0706 152.881 19.0042 152.56C18.9378 152.24 18.8061 151.936 18.6173 151.668C18.4284 151.4 18.1864 151.174 17.9063 151.003L6.04993 143.818C5.50873 143.491 4.85934 143.391 4.24462 143.542C3.62991 143.692 3.10021 144.08 2.77207 144.62C2.44393 145.161 2.34422 145.809 2.49487 146.423C2.64552 147.037 3.0342 147.565 3.5754 147.893L13.2332 153.736L6.21905 163.555C5.92599 163.964 5.77025 164.454 5.77425 164.956C5.77825 165.459 5.94178 165.947 6.2413 166.35C6.62405 166.87 15.8501 179.164 35.0322 187.678C35.3377 187.813 35.6682 187.882 36.0024 187.882C36.3352 187.883 36.6643 187.813 36.9682 187.678C56.1502 179.182 65.3763 166.888 65.759 166.35C66.0585 165.947 66.2221 165.459 66.2261 164.956C66.2301 164.454 66.0743 163.964 65.7813 163.555L58.7671 153.736L68.4249 147.888C68.6942 147.728 68.9292 147.517 69.1163 147.266C69.3035 147.015 69.4393 146.73 69.5158 146.426C69.5922 146.123 69.608 145.807 69.5621 145.498C69.5162 145.188 69.4096 144.891 69.2483 144.623C68.9207 144.082 68.3915 143.694 67.7773 143.543Z" fill="#B5EB8C" />
	<path d="M-29.3013 194.302C-28.8539 194.749 -28.2472 195 -27.6145 195H99.6145C100.247 195 100.854 194.749 101.301 194.302C101.749 193.856 102 193.25 102 192.618V188.175C102.003 176.975 99.0968 165.966 93.5646 156.223C88.0324 146.48 80.0635 138.336 70.4364 132.586C70.1676 132.425 69.8696 132.319 69.5596 132.273C69.2496 132.227 68.9336 132.243 68.6297 132.319C68.3257 132.395 68.0397 132.53 67.7881 132.717C67.5364 132.903 67.324 133.137 67.163 133.406C67.002 133.674 66.8955 133.972 66.8496 134.281C66.8038 134.591 66.8194 134.906 66.8956 135.21C66.9719 135.513 67.1073 135.798 67.294 136.05C67.4808 136.301 67.7153 136.513 67.9842 136.674C76.8797 142.029 84.2435 149.582 89.3657 158.604C94.488 167.626 97.1961 177.814 97.229 188.184V190.232H-25.229V188.184C-25.2253 177.412 -22.3197 166.839 -16.8166 157.573C-11.3136 148.307 -3.41558 140.69 6.04977 135.519C6.60454 135.214 7.01561 134.703 7.19256 134.096C7.3695 133.49 7.29783 132.838 6.99329 132.284C6.68876 131.73 6.17631 131.32 5.56869 131.143C4.96106 130.966 4.30804 131.038 3.75326 131.342C-6.46191 136.924 -14.9853 145.146 -20.9237 155.146C-26.8622 165.147 -29.9971 176.558 -30 188.184L-30 192.618C-30 193.25 -29.7487 193.856 -29.3013 194.302Z" fill="#B5EB8C" />
	<path d="M1.81358 14.1618C-7.25488 23.2152 -12.3563 35.49 -12.3716 48.2935V94.7786C-12.368 98.2915 -10.9687 101.66 -8.4805 104.144C-5.99235 106.628 -2.6187 108.025 0.900072 108.028H6.85496C7.48764 108.028 8.0944 107.777 8.54177 107.331C8.98914 106.884 9.24047 106.278 9.24047 105.647C9.24047 105.015 8.98914 104.409 8.54177 103.963C8.0944 103.516 7.48764 103.265 6.85496 103.265H0.900072C-1.35371 103.263 -3.51451 102.368 -5.10817 100.777C-6.70184 99.1859 -7.59819 97.0286 -7.60055 94.7786V48.2935C-7.46802 36.9938 -2.94047 26.188 5.02542 18.1596C12.9913 10.1311 23.7715 5.50886 35.0882 5.26946C46.4049 5.03006 57.3716 9.19228 65.671 16.8766C73.9704 24.561 78.9523 35.1656 79.5642 46.4496C79.597 47.0762 79.8761 47.6645 80.3409 48.0869C80.8057 48.5092 81.4187 48.7313 82.0466 48.705C82.6746 48.6786 83.2667 48.4059 83.6944 47.9462C84.1221 47.4864 84.3508 46.8768 84.3308 46.2496C83.8356 33.7954 78.5232 22.0179 69.5104 13.3929C60.4977 4.76791 48.4865 -0.0327638 36.0019 4.49939e-05C23.1771 0.0153314 10.882 5.10829 1.81358 14.1618Z" fill="#B5EB8C" />
	<path fill-rule="evenodd" clip-rule="evenodd" d="M84.3802 62.2541C84.3779 59.438 83.2566 56.7379 81.2624 54.7462C79.2682 52.7545 76.5641 51.6339 73.7433 51.6304H69.2482C68.9713 51.5235 68.6772 51.4678 68.3803 51.466C40.1458 51.466 32.3662 30.7516 32.0546 29.8763C31.891 29.4159 31.5899 29.0167 31.1921 28.7323C30.7942 28.4479 30.3186 28.292 29.8293 28.2856C29.342 28.2901 28.8677 28.4431 28.47 28.7242C28.0723 29.0053 27.7701 29.4011 27.604 29.8585C20.9682 48.0447 6.04985 51.3816 5.43122 51.5104C4.8929 51.6218 4.40951 51.9151 4.06252 52.3408C3.71554 52.7665 3.52618 53.2987 3.52637 53.8475V74.4597C3.53349 80.293 5.06228 86.0239 7.96222 91.088C10.8622 96.1522 15.0332 100.375 20.0648 103.341V120.056C20.0628 121.283 19.6526 122.474 18.8987 123.442L17.0384 125.832C15.8548 127.361 15.1243 129.19 14.93 131.112C14.7357 133.033 15.0853 134.971 15.9391 136.705L33.8616 172.842C34.0587 173.24 34.3634 173.575 34.7413 173.809C35.1192 174.044 35.5552 174.168 36.0001 174.168C36.445 174.168 36.881 174.044 37.2588 173.809C37.6367 173.575 37.9415 173.24 38.1386 172.842L56.0656 136.727C57.223 134.406 57.4536 131.733 56.7109 129.249C56.5122 128.669 56.0973 128.188 55.5524 127.906C55.0076 127.624 54.3748 127.562 53.7856 127.734C53.1963 127.906 52.6961 128.297 52.3888 128.828C52.0815 129.358 51.9908 129.987 52.1357 130.582C52.5304 131.911 52.4064 133.34 51.7886 134.581L36.0023 166.399L20.2116 134.59C19.7538 133.66 19.5666 132.62 19.6712 131.588C19.7758 130.557 20.1681 129.576 20.8036 128.756L22.6639 126.365C24.0693 124.561 24.8334 122.342 24.8358 120.056V105.687C29.7631 107.625 35.0797 108.373 40.3516 107.869C45.6236 107.365 50.7015 105.624 55.171 102.788C59.6406 99.9513 63.3751 96.1002 66.0698 91.5486C68.7646 86.9969 70.3432 81.8736 70.6768 76.5969H73.7166C75.1156 76.5986 76.5012 76.3252 77.7943 75.7922C79.0874 75.2592 80.2627 74.4771 81.253 73.4905C82.2432 72.5039 83.0291 71.3323 83.5657 70.0424C84.1023 68.7525 84.379 67.3698 84.3802 65.9731V62.2541ZM65.9993 74.4464C66.0029 79.3109 64.7721 84.0971 62.4216 88.3583C60.0712 92.6195 56.6779 96.2168 52.5582 98.8146C48.4385 101.412 43.7267 102.926 38.8627 103.214C33.9986 103.502 29.1407 102.555 24.7423 100.461C24.6099 99.9544 24.3134 99.5053 23.8989 99.1839C23.4844 98.8625 22.9751 98.6868 22.4503 98.6842C22.2175 98.6868 21.9865 98.7242 21.7649 98.7952C17.6427 96.2017 14.2457 92.608 11.8907 88.3495C9.53574 84.091 8.29953 79.3063 8.2974 74.4419V55.6515C12.6545 54.2474 23.3849 49.5687 29.9851 36.3101C31.6802 39.0902 33.7066 41.6549 36.0201 43.948C41.3964 49.2799 50.8851 55.576 65.9993 56.1802V74.202V74.4464ZM77.8825 70.1023C76.7825 71.2013 75.2905 71.8192 73.7344 71.8204H70.7703V56.398H73.7344C75.2898 56.3991 76.7811 57.0165 77.8809 58.1145C78.9807 59.2125 79.5991 60.7013 79.6003 62.2541V65.9598C79.6003 67.5133 78.9824 69.0033 77.8825 70.1023Z" fill="#B5EB8C" />
	<path fill-rule="evenodd" clip-rule="evenodd" d="M40.3683 110.752C38.1039 110.754 35.9329 111.653 34.3317 113.252C32.7306 114.85 31.83 117.018 31.8276 119.279V122.189C31.8276 122.502 31.8893 122.811 32.0092 123.1C32.1291 123.389 32.3048 123.652 32.5263 123.873C32.7479 124.094 33.0108 124.269 33.3003 124.389C33.5897 124.509 33.8999 124.57 34.2132 124.57H55.8074C61.6287 124.563 67.209 122.249 71.3224 118.137C75.4357 114.025 77.7455 108.45 77.7443 102.639V88.0426C77.7178 87.4282 77.4546 86.8477 77.0097 86.4224C76.5648 85.997 75.9726 85.7595 75.3566 85.7595C74.7406 85.7595 74.1484 85.997 73.7035 86.4224C73.2586 86.8477 72.9954 87.4282 72.9689 88.0426V102.639C72.9677 107.184 71.1598 111.543 67.9422 114.759C64.7245 117.974 60.3602 119.784 55.8074 119.789H51.4458V119.279C51.4435 117.02 50.5447 114.855 48.9464 113.257C47.3482 111.658 45.1806 110.758 42.9185 110.752H40.3683ZM36.5987 119.789V119.279C36.5998 118.281 36.9974 117.324 37.7041 116.619C38.4108 115.913 39.3689 115.516 40.3683 115.515H42.9185C43.9179 115.516 44.8761 115.913 45.5827 116.619C46.2894 117.324 46.687 118.281 46.6881 119.279V119.789H36.5987Z" fill="#B5EB8C" />
</svg>
