<svg width="20" height="20" viewBox="0 0 20 20" fill="none" xmlns="http://www.w3.org/2000/svg">
	<mask id="mask0255dtrunihash" mask-type="alpha" maskUnits="userSpaceOnUse" x="0" y="0" width="20" height="20">
		<rect width="20" height="20" fill="white" />
	</mask>
	<g mask="url(#mask0255dtrunihash)">
		<path fill-rule="evenodd" clip-rule="evenodd" d="M16.6665 17.5V7.91667C16.6665 7.80616 16.6226 7.70018 16.5445 7.62204C16.4663 7.5439 16.3603 7.5 16.2498 7.5H13.7498C13.6393 7.5 13.5333 7.5439 13.4552 7.62204C13.3771 7.70018 13.3332 7.80616 13.3332 7.91667V17.5H11.6665V11.25C11.6665 11.1395 11.6226 11.0335 11.5445 10.9554C11.4663 10.8772 11.3603 10.8333 11.2498 10.8333H8.74984C8.63933 10.8333 8.53335 10.8772 8.45521 10.9554C8.37707 11.0335 8.33317 11.1395 8.33317 11.25V17.5H6.6665V12.0833C6.6665 11.9728 6.62261 11.8668 6.54447 11.7887C6.46633 11.7106 6.36034 11.6667 6.24984 11.6667H3.74984C3.63933 11.6667 3.53335 11.7106 3.45521 11.7887C3.37707 11.8668 3.33317 11.9728 3.33317 12.0833V17.5H2.08317C1.97266 17.5 1.86668 17.5439 1.78854 17.622C1.7104 17.7002 1.6665 17.8062 1.6665 17.9167C1.6665 18.0272 1.7104 18.1332 1.78854 18.2113C1.86668 18.2894 1.97266 18.3333 2.08317 18.3333H17.9165C18.027 18.3333 18.133 18.2894 18.2111 18.2113C18.2893 18.1332 18.3332 18.0272 18.3332 17.9167C18.3332 17.8062 18.2893 17.7002 18.2111 17.622C18.133 17.5439 18.027 17.5 17.9165 17.5H16.6665ZM4.1665 17.5V12.5H5.83317V17.5H4.1665ZM9.1665 17.5V11.6667H10.8332V17.5H9.1665ZM14.1665 17.5V8.33333H15.8332V17.5H14.1665Z" fill="#9F8DD0" fill-opacity="0.7" />
		<path d="M2.24227 10.8016C2.29251 10.7801 2.33768 10.7483 2.37488 10.7083L6.29155 6.79992L9.33322 9.08325C9.4129 9.14395 9.51211 9.17325 9.61198 9.16557C9.71186 9.15789 9.80542 9.11376 9.87488 9.04159L15.8332 3.09159V4.58325C15.8332 4.69376 15.8771 4.79974 15.9553 4.87788C16.0334 4.95602 16.1394 4.99992 16.2499 4.99992C16.3604 4.99992 16.4664 4.95602 16.5445 4.87788C16.6227 4.79974 16.6665 4.69376 16.6665 4.58325V2.08325C16.6789 2.0312 16.6789 1.97697 16.6665 1.92492C16.6454 1.86536 16.6112 1.81127 16.5666 1.76658C16.5219 1.72189 16.4678 1.68773 16.4082 1.66659C16.3562 1.65419 16.3019 1.65419 16.2499 1.66659H13.7499C13.6394 1.66659 13.5334 1.71048 13.4553 1.78862C13.3771 1.86676 13.3332 1.97275 13.3332 2.08325C13.3332 2.19376 13.3771 2.29974 13.4553 2.37788C13.5334 2.45602 13.6394 2.49992 13.7499 2.49992H15.2416L9.54155 8.19992L6.49988 5.91659C6.4202 5.85588 6.32099 5.82659 6.22111 5.83427C6.12124 5.84195 6.02768 5.88608 5.95822 5.95825L1.79155 10.1249C1.75169 10.1623 1.71992 10.2075 1.6982 10.2577C1.67649 10.3078 1.66528 10.3619 1.66528 10.4166C1.66528 10.4712 1.67649 10.5253 1.6982 10.5755C1.71992 10.6257 1.75169 10.6708 1.79155 10.7083C1.82875 10.7483 1.87392 10.7801 1.92416 10.8016C1.97439 10.8231 2.02857 10.8339 2.08322 10.8333C2.13786 10.8339 2.19204 10.8231 2.24227 10.8016Z" fill="#9F8DD0" fill-opacity="0.7" />
	</g>
</svg>
