<svg width="22" height="20" viewBox="0 0 22 20" fill="none" xmlns="http://www.w3.org/2000/svg">
	<path d="M5.29479 10H1.05608C0.58789 10 0.208344 10.2297 0.208344 10.5132V19.2368C0.208344 19.5202 0.58789 19.75 1.05608 19.75H5.29479C5.76298 19.75 6.14253 19.5202 6.14253 19.2368V10.5132C6.14253 10.2297 5.76298 10 5.29479 10Z" fill="currentColor" />
	<path d="M8.07458 1.64294L8.07458 18.3571C8.07458 19.1264 8.45413 19.75 8.92233 19.75H13.161C13.6292 19.75 14.0088 19.1264 14.0088 18.3571V1.64294C14.0088 0.873688 13.6292 0.250088 13.161 0.250088H8.92233C8.45413 0.250088 8.07458 0.873688 8.07458 1.64294Z" fill="currentColor" />
	<path d="M15.9408 5.26435V18.6357C15.9408 19.2511 16.3204 19.75 16.7886 19.75H21.0273C21.4955 19.75 21.875 19.2511 21.875 18.6357V5.26435C21.875 4.64895 21.4955 4.15007 21.0273 4.15007H16.7886C16.3204 4.15007 15.9408 4.64895 15.9408 5.26435Z" fill="currentColor" />
</svg>
