<svg width="201" height="182" viewBox="0 0 201 182" fill="none" xmlns="http://www.w3.org/2000/svg">
<g filter="url(#filter0_dd)">
<path d="M139.489 30H61.5108L30 54.7273V54.9091V60.3636V60.5455L100.282 146H100.573L171 60.5455V60.3636V54.9091V54.7273L139.489 30Z" fill="url(#paint0_linear)"/>
<path d="M170.709 54.9091C169.402 55.4545 167.66 55.6364 165.917 55.6364C162.432 55.6364 159.383 54.5454 158.947 53.0909L148.347 37.2727L170.709 54.9091Z" fill="url(#paint1_linear)"/>
<path d="M158.657 53.2728C157.931 54.7273 154.591 55.6364 150.525 55.6364C146.459 55.6364 142.829 54.5455 142.248 53.0909L148.056 37.4546L158.657 53.2728Z" fill="url(#paint2_linear)"/>
<path opacity="0.5" d="M139.491 30.3635L147.768 36.909L132.811 30.3635H139.491Z" fill="url(#paint3_linear)"/>
<path d="M147.91 37.2729L141.957 53.0911L119.74 39.6366L132.518 30.5457L147.91 37.2729Z" fill="url(#paint4_linear)"/>
<path d="M119.74 40.0002L141.957 53.4548C140.94 54.7275 136.584 55.6366 131.792 55.6366C126.564 55.6366 122.208 54.5457 121.482 53.273C121.482 53.273 121.482 53.273 121.482 53.0911L119.74 40.0002Z" fill="url(#paint5_linear)"/>
<path d="M121.192 53.0906C120.466 54.5451 116.11 55.636 110.882 55.636C105.945 55.636 101.589 54.5451 100.718 53.2724L119.595 39.8179L121.192 53.0906Z" fill="url(#paint6_linear)"/>
<path d="M132.229 30.3635L119.595 39.4544L100.863 30.3635H132.229Z" fill="url(#paint7_linear)"/>
<path d="M119.305 39.6361L100.427 53.0907L81.6949 39.818L100.572 30.7271L119.305 39.6361Z" fill="url(#paint8_linear)"/>
<path d="M79.5173 53.0911C78.7912 54.5457 74.4349 55.6366 69.2073 55.6366C64.1249 55.6366 59.7686 54.5457 58.8973 53.273L81.2598 40.0002L79.5173 53.0911Z" fill="url(#paint9_linear)"/>
<path d="M79.662 53.0906L81.4046 39.8179L100.282 53.0906C99.4108 54.3633 95.0544 55.4542 89.972 55.4542C84.7444 55.636 80.3881 54.5451 79.662 53.0906Z" fill="url(#paint10_linear)"/>
<path d="M100.138 30.3635L81.4054 39.4544L68.772 30.3635H100.138Z" fill="url(#paint11_linear)"/>
<path opacity="0.6" d="M61.6569 30.3635H68.0461L53.525 36.7272L61.6569 30.3635Z" fill="url(#paint12_linear)"/>
<path d="M68.4807 30.5457L81.1141 39.6366L58.7516 52.9093L52.9431 37.2729L68.4807 30.5457Z" fill="url(#paint13_linear)"/>
<path d="M58.6073 53.0909C58.0265 54.5455 54.5414 55.6364 50.3303 55.6364C46.2644 55.6364 42.7793 54.5455 42.1985 53.2728L52.7989 37.4546L58.6073 53.0909Z" fill="url(#paint14_linear)"/>
<path d="M52.5063 37.4546L42.0512 53.091C41.6155 54.5455 38.5661 55.6364 35.081 55.6364C33.3385 55.6364 31.7412 55.4546 30.4343 54.9092L52.5063 37.4546Z" fill="url(#paint15_linear)"/>
<path opacity="0.6" d="M30.1443 60.3636C31.4512 59.8182 33.1938 59.6364 34.9363 59.6364C38.4214 59.6364 41.4708 60.7273 41.9065 62.1818L84.4533 126.545L30.1443 60.3636Z" fill="url(#paint16_linear)"/>
<path d="M42.1985 62.0001C42.9245 60.7274 46.2644 59.6365 50.3303 59.6365C54.3962 59.6365 58.0265 60.7274 58.6073 62.1819L85.3262 127.273L42.1985 62.0001Z" fill="#23AE88"/>
<path d="M79.517 62.1819C78.791 60.7274 74.2894 59.6365 69.0618 59.6365C63.9794 59.6365 59.6231 60.7274 58.7518 62.0001L91.1339 109.273L79.517 62.1819Z" fill="url(#paint17_linear)"/>
<path d="M79.8065 62.0001C80.6778 60.7274 85.0341 59.6365 89.9713 59.6365C95.0537 59.6365 99.5552 60.7274 100.281 62.1819L91.4234 109.273L79.8065 62.0001Z" fill="url(#paint18_linear)"/>
<path d="M86.0495 128.364L59.1854 63.0908L91.2771 109.818H91.4223L100.28 145.636L86.0495 128.364Z" fill="url(#paint19_linear)"/>
<path d="M100.427 145.273L91.5696 109.636L100.427 62.7273L109.285 109.818L100.427 145.273Z" fill="url(#paint20_linear)"/>
<path opacity="0.4" d="M141.958 62.0001C141.232 60.5456 136.731 59.6365 131.648 59.6365C126.566 59.6365 122.064 60.7274 121.338 62.0001L109.721 109.091L141.958 62.0001Z" fill="url(#paint21_linear)"/>
<path d="M109.43 109.273L100.572 62.1819C101.298 60.7274 105.8 59.6365 110.882 59.6365C116.11 59.6365 120.466 60.7274 121.192 62.1819L109.43 109.273Z" fill="url(#paint22_linear)"/>
<path d="M114.948 128.364L100.718 145.636L109.576 109.818L141.667 63.0908L114.948 128.364Z" fill="url(#paint23_linear)"/>
<path d="M142.248 62.0001C142.829 60.5456 146.459 59.6365 150.38 59.6365C154.445 59.6365 157.93 60.7274 158.511 62.0001L115.384 127.273L142.248 62.0001Z" fill="#1C9B75"/>
<path d="M116.402 126.546L158.949 62.1819C159.385 60.7274 162.434 59.6365 165.919 59.6365C167.807 59.6365 169.404 60.0001 170.856 60.5456L116.402 126.546Z" fill="url(#paint24_linear)"/>
<path d="M170.854 60.182C169.547 59.6366 167.804 59.2729 165.917 59.2729C162.432 59.2729 159.527 60.3638 158.801 61.6366C157.93 60.182 154.59 59.2729 150.524 59.2729C146.313 59.2729 142.973 60.3638 142.247 61.8184C141.231 60.3638 137.02 59.2729 131.792 59.2729C126.565 59.2729 122.353 60.3638 121.337 61.8184C120.32 60.3638 116.109 59.2729 110.882 59.2729C105.654 59.2729 101.443 60.3638 100.427 61.8184C99.5552 60.3638 95.1989 59.2729 89.9713 59.2729C84.7437 59.2729 80.5326 60.3638 79.5161 61.8184C78.4996 60.3638 74.2885 59.2729 69.061 59.2729C63.8334 59.2729 59.6222 60.3638 58.6057 61.8184C57.8797 60.3638 54.3946 59.2729 50.3287 59.2729C46.2628 59.2729 42.9229 60.3638 42.0517 61.6366C41.3256 60.182 38.4214 59.2729 34.9363 59.2729C33.1938 59.2729 31.4512 59.6365 30.1443 60.0002V55.0911C31.4512 55.6365 33.1938 55.8184 34.9363 55.8184C38.4214 55.8184 41.3256 54.7275 42.0517 53.4547C42.9229 54.9093 46.2628 55.8184 50.3287 55.8184C54.5398 55.8184 57.8797 54.7275 58.6057 53.2729C59.6222 54.7275 63.8334 55.8184 69.061 55.8184C74.2885 55.8184 78.4996 54.7275 79.5161 53.2729C80.5326 54.7275 84.7437 55.8184 89.9713 55.8184C95.1989 55.8184 99.41 54.7275 100.427 53.2729C101.298 54.7275 105.654 55.8184 110.882 55.8184C116.109 55.8184 120.32 54.7275 121.337 53.2729C122.353 54.7275 126.565 55.8184 131.792 55.8184C137.02 55.8184 141.231 54.7275 142.247 53.2729C142.973 54.7275 146.458 55.8184 150.524 55.8184C154.59 55.8184 157.93 54.7275 158.801 53.4547C159.527 54.9093 162.432 55.8184 165.917 55.8184C167.804 55.8184 169.547 55.4547 170.854 54.9093V60.182Z" fill="url(#paint25_radial)"/>
</g>
<defs>
<filter id="filter0_dd" x="0" y="0" width="201" height="181.314" filterUnits="userSpaceOnUse" color-interpolation-filters="sRGB">
<feFlood flood-opacity="0" result="BackgroundImageFix"/>
<feColorMatrix in="SourceAlpha" type="matrix" values="0 0 0 0 0 0 0 0 0 0 0 0 0 0 0 0 0 0 127 0" result="hardAlpha"/>
<feOffset/>
<feGaussianBlur stdDeviation="15"/>
<feColorMatrix type="matrix" values="0 0 0 0 1 0 0 0 0 1 0 0 0 0 1 0 0 0 0.2 0"/>
<feBlend mode="normal" in2="BackgroundImageFix" result="effect1_dropShadow"/>
<feColorMatrix in="SourceAlpha" type="matrix" values="0 0 0 0 0 0 0 0 0 0 0 0 0 0 0 0 0 0 127 0" result="hardAlpha"/>
<feOffset dy="5.31447"/>
<feGaussianBlur stdDeviation="15"/>
<feColorMatrix type="matrix" values="0 0 0 0 1 0 0 0 0 1 0 0 0 0 1 0 0 0 0.2 0"/>
<feBlend mode="normal" in2="effect1_dropShadow" result="effect2_dropShadow"/>
<feBlend mode="normal" in="SourceGraphic" in2="effect2_dropShadow" result="shape"/>
</filter>
<linearGradient id="paint0_linear" x1="100.485" y1="27.2698" x2="100.485" y2="148.67" gradientUnits="userSpaceOnUse">
<stop stop-color="#28BA93"/>
<stop offset="1" stop-color="#006147"/>
</linearGradient>
<linearGradient id="paint1_linear" x1="148.311" y1="46.4678" x2="170.647" y2="46.4678" gradientUnits="userSpaceOnUse">
<stop stop-color="#B5F8D1"/>
<stop offset="1" stop-color="#48EFB3"/>
</linearGradient>
<linearGradient id="paint2_linear" x1="142.209" y1="46.5288" x2="158.655" y2="46.5288" gradientUnits="userSpaceOnUse">
<stop stop-color="#28BA93"/>
<stop offset="1" stop-color="#006147"/>
</linearGradient>
<linearGradient id="paint3_linear" x1="143.208" y1="17.3775" x2="135.821" y2="43.6324" gradientUnits="userSpaceOnUse">
<stop stop-color="#FEFFFE"/>
<stop offset="1" stop-color="#78FFDE"/>
</linearGradient>
<linearGradient id="paint4_linear" x1="133.828" y1="28.0277" x2="133.828" y2="56.0911" gradientUnits="userSpaceOnUse">
<stop stop-color="#FEFFFE"/>
<stop offset="1" stop-color="#78FFDE"/>
</linearGradient>
<linearGradient id="paint5_linear" x1="114.988" y1="38.4526" x2="178.24" y2="74.4424" gradientUnits="userSpaceOnUse">
<stop stop-color="#28BA93"/>
<stop offset="1" stop-color="#006147"/>
</linearGradient>
<linearGradient id="paint6_linear" x1="94.2461" y1="104.645" x2="127.172" y2="39.8489" gradientUnits="userSpaceOnUse">
<stop stop-color="#28BA93"/>
<stop offset="1" stop-color="#006147"/>
</linearGradient>
<linearGradient id="paint7_linear" x1="116.312" y1="29.6641" x2="131.126" y2="63.1613" gradientUnits="userSpaceOnUse">
<stop stop-color="#28BA93"/>
<stop offset="1" stop-color="#006147"/>
</linearGradient>
<linearGradient id="paint8_linear" x1="100.455" y1="28.0269" x2="100.455" y2="56.0907" gradientUnits="userSpaceOnUse">
<stop stop-color="#FEFFFE"/>
<stop offset="1" stop-color="#78FFDE"/>
</linearGradient>
<linearGradient id="paint9_linear" x1="53.9385" y1="60.7237" x2="82.3672" y2="51.11" gradientUnits="userSpaceOnUse">
<stop stop-color="#28BA93"/>
<stop offset="1" stop-color="#006147"/>
</linearGradient>
<linearGradient id="paint10_linear" x1="92.6468" y1="55.4219" x2="120.589" y2="69.5448" gradientUnits="userSpaceOnUse">
<stop stop-color="#28BA93"/>
<stop offset="1" stop-color="#006147"/>
</linearGradient>
<linearGradient id="paint11_linear" x1="84.4021" y1="30.3517" x2="84.4021" y2="39.4693" gradientUnits="userSpaceOnUse">
<stop stop-color="#9BFFD7"/>
<stop offset="1" stop-color="#51BF9A"/>
</linearGradient>
<linearGradient id="paint12_linear" x1="46.9197" y1="15.8463" x2="57.4975" y2="24.4722" gradientUnits="userSpaceOnUse">
<stop stop-color="#28BA93"/>
<stop offset="1" stop-color="#006147"/>
</linearGradient>
<linearGradient id="paint13_linear" x1="67.0759" y1="28.0277" x2="67.0759" y2="56.0911" gradientUnits="userSpaceOnUse">
<stop stop-color="#FEFFFE"/>
<stop offset="1" stop-color="#78FFDE"/>
</linearGradient>
<linearGradient id="paint14_linear" x1="46.5155" y1="44.6404" x2="80.2297" y2="61.9964" gradientUnits="userSpaceOnUse">
<stop stop-color="#30E0B0"/>
<stop offset="1" stop-color="#008762"/>
</linearGradient>
<linearGradient id="paint15_linear" x1="30.2806" y1="46.5748" x2="52.4509" y2="46.5748" gradientUnits="userSpaceOnUse">
<stop stop-color="#48EFB3"/>
<stop offset="1" stop-color="#B5F8D1"/>
</linearGradient>
<linearGradient id="paint16_linear" x1="22.7364" y1="118.461" x2="88.7947" y2="88.0173" gradientUnits="userSpaceOnUse">
<stop stop-color="#B5F8D1"/>
<stop offset="1" stop-color="#48EFB3"/>
</linearGradient>
<linearGradient id="paint17_linear" x1="68.978" y1="61.4928" x2="94.4861" y2="107.434" gradientUnits="userSpaceOnUse">
<stop stop-color="#24D49F"/>
<stop offset="1" stop-color="#B5F8D1"/>
</linearGradient>
<linearGradient id="paint18_linear" x1="108.615" y1="80.8394" x2="80.9995" y2="84.0528" gradientUnits="userSpaceOnUse">
<stop stop-color="#1B9C7A"/>
<stop offset="0.123" stop-color="#179372"/>
<stop offset="0.6954" stop-color="#066F53"/>
<stop offset="1" stop-color="#006147"/>
</linearGradient>
<linearGradient id="paint19_linear" x1="101.091" y1="140.977" x2="46.2893" y2="79.0517" gradientUnits="userSpaceOnUse">
<stop stop-color="#5CBBA0"/>
<stop offset="1" stop-color="#006147"/>
</linearGradient>
<linearGradient id="paint20_linear" x1="100.466" y1="143.633" x2="100.466" y2="70.2182" gradientUnits="userSpaceOnUse">
<stop stop-color="#D4FFD8"/>
<stop offset="1" stop-color="#37C69F"/>
</linearGradient>
<linearGradient id="paint21_linear" x1="111.566" y1="110.278" x2="137.181" y2="71.1861" gradientUnits="userSpaceOnUse">
<stop stop-color="#B5F8D1"/>
<stop offset="1" stop-color="#48EFB3"/>
</linearGradient>
<linearGradient id="paint22_linear" x1="100.399" y1="81.7627" x2="146.324" y2="88.5116" gradientUnits="userSpaceOnUse">
<stop stop-color="#28BA93"/>
<stop offset="1" stop-color="#006147"/>
</linearGradient>
<linearGradient id="paint23_linear" x1="60.9129" y1="195.691" x2="165.112" y2="96.4535" gradientUnits="userSpaceOnUse">
<stop stop-color="#1B9E7B"/>
<stop offset="1" stop-color="#006147"/>
</linearGradient>
<linearGradient id="paint24_linear" x1="92.1026" y1="47.1076" x2="149.063" y2="79.8617" gradientUnits="userSpaceOnUse">
<stop stop-color="#28BA93"/>
<stop offset="1" stop-color="#006147"/>
</linearGradient>
<radialGradient id="paint25_radial" cx="0" cy="0" r="1" gradientUnits="userSpaceOnUse" gradientTransform="translate(75.0779 52.7242) scale(111.098 139.106)">
<stop stop-color="#FEFFFE"/>
<stop offset="0.4868" stop-color="#78FFDE"/>
<stop offset="0.5863" stop-color="#6CF0CF"/>
<stop offset="0.7786" stop-color="#4EC7A9"/>
<stop offset="1" stop-color="#259276"/>
</radialGradient>
</defs>
</svg>
