<svg width="270" height="157" viewBox="0 0 270 157" fill="none" xmlns="http://www.w3.org/2000/svg">
<g id="Group 7">
<g id="Rectangle Copy 2">
<rect width="270" height="157" rx="24" fill="#464961"/>
<rect width="270" height="157" rx="24" fill="url(#paint0_radial)"/>
</g>
<mask id="mask0" mask-type="alpha" maskUnits="userSpaceOnUse" x="0" y="0" width="270" height="157">
<g id="Mask">
<rect width="270" height="157" rx="24" fill="#3C3F56"/>
<rect width="270" height="157" rx="24" fill="url(#paint1_radial)"/>
</g>
</mask>
<g mask="url(#mask0)">
<g id="dice/four">
<g id="dice/five">
<g id="Rectangle" filter="url(#filter0_d)">
<rect x="243.655" y="53.7883" width="37" height="37" rx="3" transform="rotate(20 243.655 53.7883)" fill="white"/>
</g>
<circle id="Oval" cx="249.632" cy="66.6055" r="3" transform="rotate(20 249.632 66.6055)" fill="#394D5C"/>
<circle id="Oval Copy" cx="266.546" cy="72.7618" r="3" transform="rotate(20 266.546 72.7618)" fill="#394D5C"/>
<circle id="Oval Copy 2" cx="260.39" cy="89.6763" r="3" transform="rotate(20 260.39 89.6763)" fill="#394D5C"/>
<circle id="Oval Copy 3" cx="243.475" cy="83.5199" r="3" transform="rotate(20 243.475 83.5199)" fill="#394D5C"/>
</g>
</g>
<g id="dice/six">
<g id="dice/five_2">
<g id="Rectangle_2" filter="url(#filter1_d)">
<rect x="205.443" y="13.7883" width="37" height="37" rx="3" transform="rotate(20 205.443 13.7883)" fill="white"/>
</g>
<circle id="Oval_2" cx="211.42" cy="26.6054" r="3" transform="rotate(20 211.42 26.6054)" fill="#394D5C"/>
<circle id="Oval Copy_2" cx="228.334" cy="32.7618" r="3" transform="rotate(20 228.334 32.7618)" fill="#394D5C"/>
<circle id="Oval Copy 2_2" cx="222.178" cy="49.6763" r="3" transform="rotate(20 222.178 49.6763)" fill="#394D5C"/>
<circle id="Oval Copy 3_2" cx="205.263" cy="43.5199" r="3" transform="rotate(20 205.263 43.5199)" fill="#394D5C"/>
<circle id="Oval Copy 4" cx="225.256" cy="41.219" r="3" transform="rotate(20 225.256 41.219)" fill="#394D5C"/>
<circle id="Oval Copy 5" cx="208.342" cy="35.0627" r="3" transform="rotate(20 208.342 35.0627)" fill="#394D5C"/>
</g>
</g>
<g id="dice/five_3">
<g id="dice/five_4">
<g id="Rectangle_3" filter="url(#filter2_d)">
<rect x="44.4431" y="107.788" width="37" height="37" rx="3" transform="rotate(20 44.4431 107.788)" fill="white"/>
</g>
<circle id="Oval_3" cx="50.4198" cy="120.605" r="3" transform="rotate(20 50.4198 120.605)" fill="#394D5C"/>
<circle id="Oval Copy_3" cx="67.3343" cy="126.762" r="3" transform="rotate(20 67.3343 126.762)" fill="#394D5C"/>
<circle id="Oval Copy 2_3" cx="61.1779" cy="143.676" r="3" transform="rotate(20 61.1779 143.676)" fill="#394D5C"/>
<circle id="Oval Copy 3_3" cx="44.2635" cy="137.52" r="3" transform="rotate(20 44.2635 137.52)" fill="#394D5C"/>
<circle id="Oval Copy 4_2" cx="55.7989" cy="132.141" r="3" transform="rotate(20 55.7989 132.141)" fill="#394D5C"/>
</g>
</g>
<g id="dice/one">
<g id="dice/one_2">
<g id="Rectangle_4" filter="url(#filter3_d)">
<rect x="-10.2117" y="78.4431" width="37" height="37" rx="3" transform="rotate(-20 -10.2117 78.4431)" fill="white"/>
</g>
<circle id="Oval Copy 4_3" cx="12.8592" cy="89.2011" r="4" transform="rotate(-20 12.8592 89.2011)" fill="#394D5C"/>
</g>
</g>
</g>
<g id="Group 5" filter="url(#filter4_d)">
<path id="HASH" d="M114.589 54.768V47.8H118.749V66H114.589V58.772H108.869V66H104.709V47.8H108.869V54.768H114.589ZM137.993 66H133.443L132.533 63.14H125.773L124.863 66H120.313L126.501 47.8H131.805L137.993 66ZM129.153 52.558L127.021 59.24H131.285L129.153 52.558ZM145.534 66.364C143.714 66.364 142.18 65.974 140.932 65.194C139.684 64.3967 138.792 63.2873 138.254 61.866L141.842 59.786C142.57 61.4673 143.844 62.308 145.664 62.308C147.311 62.308 148.134 61.814 148.134 60.826C148.134 60.2713 147.866 59.8553 147.328 59.578C146.774 59.2487 145.786 58.8933 144.364 58.512C142.908 58.1133 141.678 57.5413 140.672 56.796C139.563 55.8947 139.008 54.6207 139.008 52.974C139.008 51.2927 139.606 49.9493 140.802 48.944C142.016 47.9387 143.454 47.436 145.118 47.436C146.609 47.436 147.926 47.7913 149.07 48.502C150.214 49.1953 151.116 50.2093 151.774 51.544L148.264 53.598C147.606 52.194 146.557 51.492 145.118 51.492C144.512 51.492 144.035 51.622 143.688 51.882C143.342 52.142 143.168 52.4713 143.168 52.87C143.168 53.3033 143.376 53.6933 143.792 54.04C144.243 54.3867 145.127 54.7507 146.444 55.132L148.134 55.678C148.568 55.8167 149.07 56.0507 149.642 56.38C150.266 56.692 150.734 57.03 151.046 57.394C151.878 58.2953 152.294 59.422 152.294 60.774C152.294 62.49 151.67 63.8593 150.422 64.882C149.174 65.87 147.545 66.364 145.534 66.364ZM164.127 54.768V47.8H168.287V66H164.127V58.772H158.407V66H154.247V47.8H158.407V54.768H164.127Z" fill="white"/>
<path id="DICE" d="M85.7072 72.8H99.0472C103.463 72.8 107.174 74.3487 110.179 77.446C113.185 80.5433 114.687 84.3613 114.687 88.9C114.687 93.4693 113.185 97.3027 110.179 100.4C107.205 103.467 103.494 105 99.0472 105H85.7072V72.8ZM95.3672 96.076H99.0472C100.918 96.076 102.451 95.4167 103.647 94.098C104.874 92.7487 105.487 91.016 105.487 88.9C105.487 86.784 104.874 85.0667 103.647 83.748C102.451 82.3987 100.918 81.724 99.0472 81.724H95.3672V96.076ZM118.141 105V72.8H127.341V105H118.141ZM147.618 105.736C142.742 105.736 138.725 104.126 135.566 100.906C132.377 97.6553 130.782 93.6533 130.782 88.9C130.782 84.1467 132.377 80.1447 135.566 76.894C138.725 73.674 142.742 72.064 147.618 72.064C150.562 72.064 153.291 72.7693 155.806 74.18C158.351 75.5907 160.329 77.492 161.74 79.884L153.736 84.484C153.215 83.4413 152.402 82.6133 151.298 82C150.194 81.3867 148.967 81.08 147.618 81.08C145.379 81.08 143.539 81.816 142.098 83.288C140.687 84.7293 139.982 86.6 139.982 88.9C139.982 91.2 140.687 93.0707 142.098 94.512C143.539 95.984 145.379 96.72 147.618 96.72C148.998 96.72 150.225 96.4133 151.298 95.8C152.402 95.1867 153.215 94.3433 153.736 93.27L161.74 97.87C160.329 100.293 158.351 102.209 155.806 103.62C153.291 105.031 150.562 105.736 147.618 105.736ZM173.251 92.948V96.536H185.211V105H164.051V72.8H184.981V81.172H173.251V84.668H183.831V92.948H173.251Z" fill="white"/>
</g>
</g>
<defs>
<filter id="filter0_d" x="227" y="51.7883" width="55.4234" height="55.4234" filterUnits="userSpaceOnUse" color-interpolation-filters="sRGB">
<feFlood flood-opacity="0" result="BackgroundImageFix"/>
<feColorMatrix in="SourceAlpha" type="matrix" values="0 0 0 0 0 0 0 0 0 0 0 0 0 0 0 0 0 0 127 0"/>
<feOffset dy="2"/>
<feGaussianBlur stdDeviation="2"/>
<feColorMatrix type="matrix" values="0 0 0 0 0 0 0 0 0 0 0 0 0 0 0 0 0 0 0.212003 0"/>
<feBlend mode="normal" in2="BackgroundImageFix" result="effect1_dropShadow"/>
<feBlend mode="normal" in="SourceGraphic" in2="effect1_dropShadow" result="shape"/>
</filter>
<filter id="filter1_d" x="188.788" y="11.7883" width="55.4234" height="55.4234" filterUnits="userSpaceOnUse" color-interpolation-filters="sRGB">
<feFlood flood-opacity="0" result="BackgroundImageFix"/>
<feColorMatrix in="SourceAlpha" type="matrix" values="0 0 0 0 0 0 0 0 0 0 0 0 0 0 0 0 0 0 127 0"/>
<feOffset dy="2"/>
<feGaussianBlur stdDeviation="2"/>
<feColorMatrix type="matrix" values="0 0 0 0 0 0 0 0 0 0 0 0 0 0 0 0 0 0 0.212003 0"/>
<feBlend mode="normal" in2="BackgroundImageFix" result="effect1_dropShadow"/>
<feBlend mode="normal" in="SourceGraphic" in2="effect1_dropShadow" result="shape"/>
</filter>
<filter id="filter2_d" x="27.7883" y="105.788" width="55.4234" height="55.4234" filterUnits="userSpaceOnUse" color-interpolation-filters="sRGB">
<feFlood flood-opacity="0" result="BackgroundImageFix"/>
<feColorMatrix in="SourceAlpha" type="matrix" values="0 0 0 0 0 0 0 0 0 0 0 0 0 0 0 0 0 0 127 0"/>
<feOffset dy="2"/>
<feGaussianBlur stdDeviation="2"/>
<feColorMatrix type="matrix" values="0 0 0 0 0 0 0 0 0 0 0 0 0 0 0 0 0 0 0.212003 0"/>
<feBlend mode="normal" in2="BackgroundImageFix" result="effect1_dropShadow"/>
<feBlend mode="normal" in="SourceGraphic" in2="effect1_dropShadow" result="shape"/>
</filter>
<filter id="filter3_d" x="-14.2117" y="63.7883" width="55.4234" height="55.4234" filterUnits="userSpaceOnUse" color-interpolation-filters="sRGB">
<feFlood flood-opacity="0" result="BackgroundImageFix"/>
<feColorMatrix in="SourceAlpha" type="matrix" values="0 0 0 0 0 0 0 0 0 0 0 0 0 0 0 0 0 0 127 0"/>
<feOffset dy="2"/>
<feGaussianBlur stdDeviation="2"/>
<feColorMatrix type="matrix" values="0 0 0 0 0 0 0 0 0 0 0 0 0 0 0 0 0 0 0.212003 0"/>
<feBlend mode="normal" in2="BackgroundImageFix" result="effect1_dropShadow"/>
<feBlend mode="normal" in="SourceGraphic" in2="effect1_dropShadow" result="shape"/>
</filter>
<filter id="filter4_d" x="69" y="40" width="133" height="95" filterUnits="userSpaceOnUse" color-interpolation-filters="sRGB">
<feFlood flood-opacity="0" result="BackgroundImageFix"/>
<feColorMatrix in="SourceAlpha" type="matrix" values="0 0 0 0 0 0 0 0 0 0 0 0 0 0 0 0 0 0 127 0"/>
<feOffset dy="12"/>
<feGaussianBlur stdDeviation="7"/>
<feColorMatrix type="matrix" values="0 0 0 0 0 0 0 0 0 0 0 0 0 0 0 0 0 0 0.176901 0"/>
<feBlend mode="normal" in2="BackgroundImageFix" result="effect1_dropShadow"/>
<feBlend mode="normal" in="SourceGraphic" in2="effect1_dropShadow" result="shape"/>
</filter>
<radialGradient id="paint0_radial" cx="0" cy="0" r="1" gradientUnits="userSpaceOnUse" gradientTransform="translate(135 61.4111) rotate(90) scale(157 270)">
<stop stop-color="#D7D7D7" stop-opacity="0.5"/>
<stop offset="1" stop-color="#7A7A7A" stop-opacity="0.5"/>
</radialGradient>
<radialGradient id="paint1_radial" cx="0" cy="0" r="1" gradientUnits="userSpaceOnUse" gradientTransform="translate(135 61.4111) rotate(90) scale(157 270)">
<stop stop-color="#D7D7D7" stop-opacity="0.5"/>
<stop offset="1" stop-color="#7A7A7A" stop-opacity="0.5"/>
</radialGradient>
</defs>
</svg>
