<svg width="411" height="341" viewBox="0 0 411 341" fill="none" xmlns="http://www.w3.org/2000/svg">
	<path d="M130.926 54.6263C200.077 47.7214 240.679 80.5193 252.336 97.7813C254.316 94.2404 267.777 90.2127 305.783 102.429C353.292 117.699 380.345 154.215 386.943 192.059C393.542 229.902 370.448 272.394 353.292 285.008C336.136 297.623 324.919 304.926 291.927 305.59C265.533 306.121 243.539 298.729 235.841 294.967C236.061 299.836 220.533 309.839 156.66 310.901C92.7881 311.963 60.9839 279.033 53.0659 262.435V247.164C53.0659 245.173 51.6142 240.26 45.8077 236.542C40.0011 232.824 29.7516 219.058 25.3527 212.64C24.6928 203.124 22.977 181.038 21.3934 168.821C19.8098 156.605 31.7309 148.682 37.8894 146.248V102.429C40.0888 89.3717 61.7754 61.5311 130.926 54.6263Z" fill="#FF0000" />
	<path d="M269.818 216.248C248.828 197.521 211.251 185.041 168.391 185.041C125.531 185.041 87.9548 197.521 66.9643 216.248H49.2441C49.2441 235.551 51.1548 242.114 51.4714 250.736C52.7968 286.994 102.589 316.429 168.394 316.429C234.198 316.429 284.963 286.987 286.43 250.736C286.778 242.098 287.541 237.024 287.541 216.166L269.818 216.248Z" fill="#C6640C" />
	<path d="M216.039 257.917C214.655 282.669 216.039 310.865 216.039 310.865C241.045 304.68 261.224 293.742 273.468 280.1C287.546 260.645 285.335 240.424 285.335 221.381C285.333 221.379 217.335 234.76 216.039 257.917Z" fill="#A3490A" />
	<path d="M149.661 315.615L147.117 281.261L134.723 240.817L60.7363 226.725L63.2505 279.063C69.1057 286 76.9763 292.265 86.4911 297.596L86.8486 251.616L119.046 267.685L121.005 279.336L120.358 310.728C129.499 313.034 139.317 314.699 149.661 315.615Z" fill="#DD8D19" />
	<path d="M287.542 216.163C287.542 252.444 234.197 285.279 168.395 285.279C102.593 285.279 49.248 252.531 49.248 216.248C49.248 179.965 102.593 150.555 168.395 150.555C234.197 150.555 287.542 179.883 287.542 216.163Z" fill="url(#paint0_radial_233_13174)" />
	<path opacity="0.7" d="M102.5 221.463L74.65 175.699C66.3627 181.516 59.8153 188.122 55.4473 195.28L121.006 279.333C129.068 281.298 136.761 282.927 145.711 283.961L102.5 221.463Z" fill="#FCFFAC" />
	<path d="M134.957 181.645L140.024 178.364L123.547 155.369C120.409 156.071 117.337 156.845 114.34 157.69L134.957 181.645Z" fill="#FCFFAC" />
	<path opacity="0.7" d="M221.953 191.338L271.588 249.957C274.546 246.942 276.553 244.564 279.197 240.918L199.685 152.848C194.233 152.033 188.631 151.425 182.898 151.042L221.953 191.338Z" fill="#FCFFAC" />
	<path d="M170.619 267.682C219.683 267.682 259.457 245.752 259.457 218.7C259.457 191.649 219.683 169.719 170.619 169.719C121.555 169.719 81.7812 191.649 81.7812 218.7C81.7812 245.752 121.555 267.682 170.619 267.682Z" fill="#FCFFAC" />
	<path d="M168.394 265.499C217.728 265.499 257.721 243.449 257.721 216.248C257.721 189.048 217.728 166.998 168.394 166.998C119.06 166.998 79.0664 189.048 79.0664 216.248C79.0664 243.449 119.06 265.499 168.394 265.499Z" fill="#FBAA12" />
	<path opacity="0.3" d="M241.508 187.942C247.611 194.606 251.047 202.139 251.047 210.113C251.047 237.313 211.052 259.365 161.72 259.365C131.493 259.365 104.772 251.087 88.6074 238.418C103.324 254.483 133.526 265.498 168.395 265.498C217.73 265.498 257.725 243.446 257.725 216.248C257.725 205.713 251.726 195.95 241.508 187.942Z" fill="#EA831C" />
	<path opacity="0.25" d="M52.9258 199.988C64.0917 220.188 98.1543 234.884 138.443 234.884C187.814 234.884 227.834 212.818 227.834 185.597C227.834 173.629 220.098 162.659 207.233 154.121C195.058 151.808 181.993 150.553 168.395 150.553C112.77 150.555 66.048 171.571 52.9258 199.988Z" fill="#FFFFEB" />
	<path d="M178.605 216.86C194.308 217.53 234.364 220.786 207.862 236.471C180.09 252.904 171.946 238.067 168.949 225.737C165.952 238.067 157.808 252.904 130.038 236.471C103.534 220.786 143.591 217.53 159.295 216.86C143.591 216.193 103.536 212.934 130.038 197.252C157.808 180.819 164.836 197.145 167.838 209.472C170.835 197.145 180.09 180.819 207.862 197.252C234.364 212.934 194.308 216.193 178.605 216.86Z" fill="#C6640C" />
	<path d="M177.492 215.635C193.196 216.302 233.253 219.561 206.749 235.243C178.977 251.676 170.835 236.837 167.838 224.51C164.839 236.837 156.697 251.676 128.927 235.243C102.423 219.559 142.477 216.302 158.182 215.635C142.477 214.965 102.425 211.708 128.927 196.024C156.697 179.591 164.839 194.43 167.838 206.758C170.835 194.428 178.977 179.591 206.749 196.024C233.253 211.708 193.194 214.965 177.492 215.635Z" fill="#FCE13C" />
	<path d="M149.082 216.2C133.56 217.487 112.827 221.015 122.626 230.65C114.154 219.937 152.92 216.54 149.082 216.2Z" fill="#FCFFAC" />
	<path d="M168.95 207.985C171.947 195.655 180.091 180.818 207.863 197.252C210.681 198.919 212.742 200.447 214.163 201.845C212.803 200.124 210.416 198.195 206.75 196.024C180.068 180.235 171.508 193.312 168.217 205.298C168.492 206.197 168.736 207.097 168.95 207.985Z" fill="#FCFFAC" />
	<path d="M187.704 216.295C184.295 216.577 208.865 218.791 214.932 223.977C211.885 219.39 198.729 217.272 187.704 216.295Z" fill="#FCFFAC" />
	<path d="M130.041 197.252C147.039 187.193 156.684 188.851 162.293 194.478C156.875 187.912 147.108 185.268 128.93 196.024C119.467 201.624 118.493 205.637 121.861 208.518C120.023 205.755 121.854 202.098 130.041 197.252Z" fill="#FCFFAC" />
	<path opacity="0.25" d="M204.47 218.821C195.891 216.712 184.363 215.926 177.49 215.635C193.194 214.965 233.251 211.708 206.747 196.024C178.975 179.591 170.833 194.43 167.836 206.758C164.837 194.428 156.695 179.591 128.925 196.024C102.421 211.708 142.475 214.965 158.18 215.635C142.717 216.293 103.637 219.463 127.763 234.537C131.264 234.767 134.83 234.885 138.44 234.885C147.668 234.885 156.568 234.116 164.942 232.683C166.262 230.078 167.173 227.233 167.836 224.512C168.414 226.887 169.182 229.354 170.248 231.674C183.434 228.905 195.126 224.462 204.47 218.821Z" fill="#FFFFEB" />
	<path d="M81.2937 218.088C81.2937 190.888 121.286 168.838 170.621 168.838C200.933 168.838 227.719 177.164 243.868 189.892C228.027 176.133 200.145 166.998 168.394 166.998C119.059 166.998 79.0664 189.05 79.0664 216.248C79.0664 226.736 85.0103 236.46 95.1469 244.447C86.3722 236.827 81.2937 227.783 81.2937 218.088Z" fill="#CF7310" />
	<path d="M92.0527 231.065C92.0527 254.788 117.322 275.26 153.829 284.738C158.604 285.093 163.464 285.278 168.395 285.278C234.199 285.278 287.542 252.445 287.542 216.162C287.542 207.073 284.196 198.421 278.143 190.557C258.519 178.993 230.59 171.765 199.597 171.765C140.203 171.769 92.0527 198.316 92.0527 231.065Z" fill="#916C5D" style="mix-blend-mode:screen" />
	<path d="M241.457 162.036C220.464 143.309 182.89 130.829 140.03 130.829C97.17 130.829 59.5958 143.309 38.603 162.036H20.8828C20.8828 181.341 22.7913 187.902 23.1078 196.524C24.4355 232.782 74.2278 262.219 140.032 262.219C205.837 262.219 256.602 232.778 258.068 196.524C258.419 187.886 259.18 182.812 259.18 161.952L241.457 162.036Z" fill="#C6640C" />
	<path d="M187.67 203.704C186.285 228.456 187.67 256.65 187.67 256.65C212.676 250.465 232.853 239.527 245.101 225.888C259.177 206.434 256.964 186.211 256.964 167.168C256.961 167.168 188.966 180.55 187.67 203.704Z" fill="#A3490A" />
	<path d="M121.291 261.401L118.748 227.047L106.354 186.603L32.3672 172.511L34.8814 224.851C40.7365 231.788 48.6071 238.053 58.1219 243.382L58.4795 197.402L90.6746 213.471L92.6377 225.122L91.9886 256.511C101.13 258.823 110.945 260.485 121.291 261.401Z" fill="#DD8D19" />
	<path d="M259.173 161.949C259.173 198.232 205.828 231.065 140.026 231.065C74.2239 231.065 20.8789 198.317 20.8789 162.034C20.8789 125.753 74.2239 96.3408 140.026 96.3408C205.828 96.3408 259.173 125.671 259.173 161.949Z" fill="url(#paint1_radial_233_13174)" />
	<path opacity="0.7" d="M74.125 167.249L46.275 121.485C37.9877 127.302 31.4425 133.908 27.0723 141.068L92.6331 225.121C100.69 227.085 108.388 228.713 117.336 229.749L74.125 167.249Z" fill="#FCFFAC" />
	<path d="M106.582 127.432L111.649 124.15L95.1722 101.155C92.034 101.859 88.9619 102.633 85.9648 103.476L106.582 127.432Z" fill="#FCFFAC" />
	<path opacity="0.7" d="M193.578 137.126L243.213 195.748C246.169 192.733 248.178 190.355 250.822 186.709L171.31 98.639C165.858 97.8237 160.256 97.2156 154.523 96.833L193.578 137.126Z" fill="#FCFFAC" />
	<path d="M142.25 213.47C191.314 213.47 231.088 191.54 231.088 164.488C231.088 137.437 191.314 115.507 142.25 115.507C93.1861 115.507 53.4121 137.437 53.4121 164.488C53.4121 191.54 93.1861 213.47 142.25 213.47Z" fill="#FCFFAC" />
	<path d="M140.025 211.284C189.359 211.284 229.352 189.234 229.352 162.034C229.352 134.833 189.359 112.783 140.025 112.783C90.6905 112.783 50.6973 134.833 50.6973 162.034C50.6973 189.234 90.6905 211.284 140.025 211.284Z" fill="#FBAA12" />
	<path opacity="0.3" d="M213.138 133.73C219.242 140.394 222.678 147.928 222.678 155.901C222.678 183.101 182.685 205.153 133.351 205.153C103.123 205.153 76.4007 196.875 60.2383 184.206C74.9523 200.271 105.157 211.286 140.026 211.286C189.36 211.286 229.356 189.237 229.356 162.036C229.356 151.501 223.357 141.738 213.138 133.73Z" fill="#EA831C" />
	<path opacity="0.25" d="M24.5566 145.776C35.7226 165.976 69.7851 180.672 110.076 180.672C159.445 180.672 199.465 158.606 199.465 131.385C199.465 119.417 191.729 108.447 178.862 99.9095C166.689 97.5957 153.624 96.3408 140.026 96.3408C84.4012 96.3408 37.6765 117.359 24.5566 145.776Z" fill="#FFFFEB" />
	<path d="M150.24 162.648C165.942 163.316 205.999 166.575 179.495 182.256C151.722 198.69 143.581 183.853 140.584 171.526C137.587 183.853 129.443 198.692 101.673 182.256C75.1687 166.575 115.225 163.316 130.93 162.648C115.225 161.981 75.171 158.722 101.673 143.04C129.443 126.607 136.471 142.933 139.472 155.261C142.472 142.933 151.722 126.607 179.495 143.04C205.999 158.722 165.942 161.979 150.24 162.648Z" fill="#C6640C" />
	<path d="M149.127 161.421C164.832 162.089 204.884 165.348 178.382 181.032C150.612 197.465 142.47 182.626 139.471 170.299C136.472 182.628 128.332 197.465 100.56 181.032C74.0557 165.348 114.11 162.091 129.815 161.421C114.11 160.754 74.058 157.495 100.56 141.813C128.332 125.38 136.472 140.217 139.471 152.547C142.47 140.217 150.612 125.38 178.382 141.813C204.884 157.498 164.829 160.754 149.127 161.421Z" fill="#FCE13C" />
	<path d="M120.717 161.988C105.195 163.275 84.4593 166.803 94.2588 176.438C85.787 165.723 124.552 162.328 120.717 161.988Z" fill="#FCFFAC" />
	<path d="M140.579 153.771C143.576 141.444 151.718 126.604 179.49 143.038C182.309 144.705 184.37 146.233 185.792 147.631C184.432 145.912 182.043 143.981 178.379 141.812C151.695 126.023 143.134 139.1 139.846 151.084C140.121 151.985 140.363 152.885 140.579 153.771Z" fill="#FCFFAC" />
	<path d="M159.335 162.084C155.925 162.366 180.498 164.58 186.563 169.766C183.516 165.179 170.359 163.059 159.335 162.084Z" fill="#FCFFAC" />
	<path d="M101.67 143.038C118.668 132.979 128.311 134.639 133.922 140.264C128.504 133.696 118.737 131.054 100.559 141.81C91.0962 147.408 90.1215 151.423 93.4897 154.304C91.6519 151.541 93.4829 147.884 101.67 143.038Z" fill="#FCFFAC" />
	<path opacity="0.25" d="M176.105 164.608C167.523 162.502 155.995 161.714 149.127 161.422C164.832 160.755 204.884 157.496 178.382 141.814C150.612 125.381 142.47 140.218 139.471 152.548C136.472 140.218 128.332 125.381 100.56 141.814C74.0557 157.499 114.11 160.755 129.815 161.422C114.351 162.081 75.2696 165.251 99.396 180.325C102.899 180.555 106.465 180.673 110.077 180.673C119.302 180.673 128.202 179.903 136.576 178.471C137.897 175.866 138.808 173.021 139.471 170.3C140.047 172.675 140.817 175.144 141.88 177.464C155.064 174.69 166.758 170.25 176.105 164.608Z" fill="#FFFFEB" />
	<path d="M52.9223 163.874C52.9223 136.673 92.9174 114.623 142.25 114.623C172.564 114.623 199.35 122.947 215.497 135.678C199.658 121.918 171.776 112.783 140.025 112.783C90.6901 112.783 50.6973 134.833 50.6973 162.034C50.6973 172.521 56.6412 182.245 66.7778 190.232C58.0031 182.612 52.9223 173.571 52.9223 163.874Z" fill="#CF7310" />
	<path d="M256.237 176.671C250.171 153.004 213.904 133.886 169.461 132.421C120.153 130.798 79.4569 151.519 78.5619 178.704C77.7216 204.195 112.176 226.319 157.122 230.318C206.106 226.01 245.463 203.584 256.237 176.671Z" fill="#916C5D" style="mix-blend-mode:screen" />
	<path d="M255.065 106.693C234.703 87.2856 197.557 73.5758 154.717 72.1661C111.878 70.7542 73.9162 81.9884 52.3176 100.016L34.6065 99.4331C33.9734 118.725 35.6655 125.347 35.6974 133.974C35.8295 170.255 84.6266 201.313 150.392 203.481C216.163 205.649 267.868 177.893 270.528 141.71C271.161 133.086 272.093 128.041 272.776 107.194L255.065 106.693Z" fill="#C6640C" />
	<path d="M199.932 146.568C197.732 171.261 198.187 199.487 198.187 199.487C223.384 194.128 243.91 183.862 256.597 170.63C271.307 151.648 269.761 131.364 270.389 112.332C270.391 112.332 201.991 123.468 199.932 146.568Z" fill="#A3490A" />
	<path d="M131.691 202.048L130.277 167.628L119.222 126.8L45.7363 110.277L46.5266 162.673C52.1517 169.799 59.8151 176.319 69.1454 181.96L71.0151 136.016L102.666 153.135L104.242 164.845L102.561 196.198C111.623 198.808 121.379 200.794 131.691 202.048Z" fill="#DD8D19" />
	<path d="M272.775 107.193C271.584 143.455 217.187 174.514 151.419 172.348C85.6486 170.182 33.4126 135.694 34.606 99.4313C35.8016 63.1688 90.0849 35.5284 155.853 37.6965C221.621 39.8645 273.971 70.9301 272.775 107.193Z" fill="url(#paint2_radial_233_13174)" />
	<path opacity="0.7" d="M87.6609 106.398L61.33 59.7412C52.856 65.282 46.099 71.67 41.4941 78.6798L104.254 164.844C112.245 167.073 119.881 168.955 128.788 170.282L87.6609 106.398Z" fill="#FCFFAC" />
	<path d="M121.409 67.6699L126.581 64.5545L110.87 41.0293C107.711 41.6282 104.616 42.3046 101.592 43.047L121.409 67.6699Z" fill="#FCFFAC" />
	<path opacity="0.7" d="M208.04 80.2214L255.722 140.444C258.775 137.527 260.859 135.218 263.622 131.66L187.052 41.0234C181.632 40.0259 176.05 39.2357 170.334 38.6641L208.04 80.2214Z" fill="#FCFFAC" />
	<path d="M154.273 154.837C203.311 156.451 243.786 135.841 244.676 108.802C245.566 81.7642 206.534 58.5368 157.496 56.9227C108.458 55.3085 67.9836 75.9188 67.0936 102.957C66.2036 129.995 105.235 153.223 154.273 154.837Z" fill="#FCFFAC" />
	<path d="M152.124 152.575C201.434 154.198 242.132 133.475 243.027 106.288C243.922 79.1014 204.674 55.7465 155.365 54.1234C106.055 52.5003 65.3566 73.2237 64.4617 100.41C63.5668 127.597 102.815 150.952 152.124 152.575Z" fill="#FBAA12" />
	<path opacity="0.3" d="M227.695 77.4707C233.575 84.3324 236.761 91.973 236.499 99.9438C235.602 127.131 194.908 147.853 145.598 146.229C115.387 145.234 88.9557 136.081 73.2168 122.886C87.3934 139.426 117.218 151.43 152.068 152.578C201.376 154.202 242.072 133.48 242.969 106.295C243.316 95.7671 237.64 85.8127 227.695 77.4707Z" fill="#EA831C" />
	<path opacity="0.25" d="M38.8184 83.3037C49.3125 103.859 82.8763 119.669 123.142 120.996C172.484 122.622 213.21 101.885 214.103 74.6816C214.497 62.7209 207.127 51.5003 194.549 42.5457C182.459 39.8333 169.444 38.1481 155.852 37.6995C100.259 35.8662 52.8697 55.3331 38.8184 83.3037Z" fill="#FFFFEB" />
	<path d="M66.5751 102.326C67.4701 75.139 108.167 54.4172 157.474 56.0433C187.77 57.0408 214.267 66.2436 229.99 79.4979C214.608 65.221 187.045 55.1756 155.31 54.1303C106.005 52.5065 65.3066 73.2283 64.4116 100.413C64.0654 110.896 69.6883 120.809 79.5538 129.124C71.0365 121.219 66.254 112.016 66.5751 102.326Z" fill="#CF7310" />
	<path fill-rule="evenodd" clip-rule="evenodd" d="M95.4565 93.9848C95.4811 91.2504 97.7727 87.5447 100.265 86.2081C101.018 85.805 116.541 80.9089 134.763 75.3278L167.892 65.1808L171.777 71.4102C175.182 76.8696 175.628 78.0052 175.388 80.6019C175.218 82.4483 174.269 84.3706 172.869 85.7062C170.698 87.7766 169.931 88.0589 149.731 94.21L128.838 100.572L141.167 120.343L153.497 140.113L146.387 142.246C135.78 145.428 130.759 145.33 125.268 141.835C122.72 140.214 121.363 138.261 108.961 118.374C96.4794 98.3593 95.4351 96.4725 95.4565 93.9848ZM169.82 99.8721C157.476 103.625 153.003 115.542 159.83 126.489L164.455 125.083C176.799 121.331 181.271 109.414 174.444 98.4664L169.82 99.8721Z" fill="#CF7310" />
	<path fill-rule="evenodd" clip-rule="evenodd" d="M98.2807 90.557C98.3053 87.8227 100.597 84.117 103.09 82.7803C103.842 82.3773 119.365 77.4812 137.587 71.9001L170.716 61.753L174.601 67.9824C178.006 73.4419 178.452 74.5775 178.212 77.1742C178.042 79.0206 177.093 80.9429 175.693 82.2784C173.522 84.3489 172.755 84.6311 152.555 90.7823L131.662 97.1441L143.991 116.915L156.321 136.685L149.212 138.818C138.604 142 133.583 141.902 128.092 138.407C125.545 136.786 124.187 134.833 111.785 114.946C99.3036 94.9315 98.2593 93.0448 98.2807 90.557ZM172.642 96.4444C160.298 100.197 155.826 112.114 162.653 123.061L167.277 121.656C179.621 117.903 184.093 105.986 177.266 95.0386L172.642 96.4444Z" fill="#F9FCB3" />
	<path fill-rule="evenodd" clip-rule="evenodd" d="M97.1499 92.0834C97.1744 89.3491 99.4661 85.6433 101.959 84.3067C102.711 83.9036 118.234 79.0076 136.456 73.4265L169.586 63.2794L173.47 69.5088C176.875 74.9683 177.321 76.1039 177.081 78.7005C176.911 80.5469 175.962 82.4693 174.563 83.8048C172.391 85.8752 171.624 86.1575 151.424 92.3086L130.531 98.6705L142.861 118.441L155.19 138.212L148.081 140.344C137.473 143.526 132.452 143.429 126.961 139.934C124.414 138.312 123.056 136.359 110.654 116.472C98.1728 96.4579 97.1284 94.5711 97.1499 92.0834ZM171.513 97.9715C159.169 101.724 154.697 113.641 161.524 124.588L166.148 123.183C178.492 119.43 182.964 107.513 176.137 96.5657L171.513 97.9715Z" fill="#FDE868" />
	<path d="M376.236 263.714C393.874 221.269 375.555 165.99 329.691 132.059C283.827 98.129 225.609 96.7854 190.177 126.07L188.23 124.628L176.42 140.591C144.225 184.109 160.649 250.845 213.104 289.651C265.558 328.457 334.18 324.638 366.375 281.12L378.185 265.158L376.236 263.714Z" fill="#C6640C" />
	<path d="M373.999 217.49L284.777 267.278L253.791 310.537C296.995 324.203 342.071 313.978 366.379 281.12L378.19 265.158L376.24 263.714C379.203 256.588 381.15 249.098 382.123 241.409L373.999 217.49Z" fill="#A3490A" />
	<path d="M378.182 265.159C345.987 308.677 277.365 312.496 224.91 273.687C172.456 234.881 156.031 168.145 188.227 124.629C220.422 81.1109 289.041 77.2918 341.498 116.098C393.952 154.904 410.377 221.64 378.182 265.159Z" fill="url(#paint3_radial_233_13174)" />
	<path d="M378.182 265.159C345.987 308.677 277.365 312.496 224.91 273.687C172.456 234.881 156.031 168.145 188.227 124.629C220.422 81.1109 289.041 77.2918 341.498 116.098C393.952 154.904 410.377 221.64 378.182 265.159Z" fill="url(#paint4_radial_233_13174)" />
	<path opacity="0.7" d="M226.046 162.284L244.452 90.9707C232.685 93.059 221.608 97.1241 211.77 103.132L191.48 238.587C196.16 245.697 201.637 252.511 207.88 258.879L226.046 162.284Z" fill="#FCFFAC" />
	<path d="M287.25 133.666L294.205 132.716L301.472 95.4178C298.345 94.4112 295.212 93.5298 292.071 92.7715L287.25 133.666Z" fill="#FCFFAC" />
	<path opacity="0.7" d="M348.008 196.595L335.908 295.294C340.641 293.725 345.207 291.798 349.563 289.521L364.407 137.297C360.788 133.104 356.86 129.071 352.631 125.231L348.008 196.595Z" fill="#FCFFAC" />
	<path d="M239.345 257.841C278.455 286.773 329.618 283.924 353.621 251.477C377.624 219.031 365.377 169.273 326.268 140.341C287.158 111.409 235.995 114.258 211.992 146.705C187.989 179.151 200.236 228.908 239.345 257.841Z" fill="#FCFFAC" />
	<path d="M239.498 253.917C278.824 283.009 330.27 280.145 354.405 247.519C378.54 214.894 366.226 164.862 326.9 135.77C287.573 106.678 236.128 109.542 211.993 142.167C187.857 174.793 200.172 224.825 239.498 253.917Z" fill="#FBAA12" />
	<path opacity="0.3" d="M366.604 204.058C365.554 215.65 361.612 226.711 354.534 236.276C330.396 268.902 278.953 271.764 239.625 242.671C215.528 224.846 201.575 199.157 199.93 174.43C197.405 202.375 211.707 233.4 239.502 253.964C278.83 283.058 330.275 280.195 354.411 247.57C363.759 234.935 367.64 219.688 366.604 204.058Z" fill="#EA831C" />
	<path opacity="0.25" d="M205.585 107.296C196.562 138.109 210.675 175.824 242.792 199.582C282.143 228.698 333.627 225.831 357.779 193.182C368.398 178.828 371.967 161.108 369.289 143.278C361.639 133.326 352.336 124.114 341.498 116.096C297.155 83.2948 241.262 80.9491 205.585 107.296Z" fill="#FFFFEB" />
	<path d="M212.138 145.733C236.276 113.107 287.722 110.245 327.05 139.338C351.212 157.215 365.177 182.995 366.758 207.786C366.339 181.938 352.219 154.544 326.911 135.819C287.583 106.726 236.137 109.589 211.999 142.214C202.694 154.792 198.806 169.962 199.799 185.518C199.565 171.201 203.534 157.361 212.138 145.733Z" fill="#CF7310" />
	<path fill-rule="evenodd" clip-rule="evenodd" d="M227.676 169.391C228.611 165.504 232.36 160.781 235.543 159.48C236.503 159.088 255.188 155.867 277.065 152.322L316.841 145.877L319.042 155.685C320.971 164.28 321.085 166.005 319.959 169.644C319.158 172.232 317.478 174.74 315.496 176.303C312.423 178.727 311.486 178.943 287.245 182.822L262.173 186.833L269.159 217.961L276.144 249.088L267.624 250.407C254.91 252.375 249.425 251.024 244.551 244.721C242.29 241.797 241.446 238.689 234.42 207.378C227.348 175.866 226.827 172.928 227.676 169.391ZM310.249 195.29C293.887 197.898 283.564 213.118 287.192 229.284L287.627 231.221L290.367 230.785C306.729 228.176 317.052 212.956 313.424 196.79L312.99 194.853L310.249 195.29Z" fill="#CF7310" />
	<path fill-rule="evenodd" clip-rule="evenodd" d="M231.916 165.193C232.851 161.305 236.6 156.583 239.783 155.282C240.743 154.89 259.428 151.668 281.305 148.124L321.081 141.679L323.282 151.487C325.211 160.082 325.325 161.807 324.199 165.446C323.399 168.034 321.718 170.542 319.736 172.105C316.663 174.528 315.726 174.745 291.486 178.624L266.413 182.635L273.399 213.762L280.384 244.89L271.864 246.209C259.151 248.177 253.665 246.825 248.791 240.523C246.53 237.599 245.686 234.491 238.66 203.18C231.588 171.668 231.067 168.73 231.916 165.193ZM306.589 192.351C294.59 194.264 287.02 205.425 289.681 217.28L291.867 227.023L302.508 225.327C314.507 223.414 322.077 212.253 319.416 200.397L317.23 190.655L306.589 192.351Z" fill="#F9FCB3" />
	<path fill-rule="evenodd" clip-rule="evenodd" d="M230.166 167.092C231.101 163.205 234.85 158.482 238.033 157.181C238.993 156.789 257.678 153.568 279.555 150.023L319.331 143.578L321.532 153.386C323.461 161.982 323.575 163.706 322.449 167.345C321.649 169.933 319.968 172.441 317.986 174.004C314.913 176.428 313.976 176.644 289.736 180.523L264.663 184.534L271.649 215.662L278.634 246.789L270.114 248.108C257.401 250.077 251.915 248.725 247.041 242.422C244.78 239.498 243.936 236.39 236.91 205.079C229.838 173.568 229.317 170.629 230.166 167.092ZM304.839 194.25C292.84 196.163 285.27 207.324 287.931 219.18L290.117 228.923L300.758 227.226C312.757 225.314 320.327 214.152 317.666 202.297L315.48 192.554L304.839 194.25Z" fill="#FDE868" />
	<path d="M96.502 32.6176C60.1964 64.8746 60.2405 62.7557 95.1732 96.5096C62.9085 60.1969 65.0276 60.2413 31.2815 95.1671C67.5871 62.91 67.543 65.0289 32.6103 31.275C64.875 67.5877 62.7561 67.5432 96.502 32.6176Z" fill="white" />
	<path d="M98.6251 64.6218C52.3125 63.6487 64.1315 52.3137 63.1683 98.6265C64.1315 52.3137 75.4688 64.1352 29.1562 63.1621C75.4688 64.1352 63.6499 75.4701 64.6131 29.1574C63.6499 75.4701 52.3125 63.6487 98.6251 64.6218Z" fill="white" />
	<path d="M193.81 44.709C167.248 69.162 167.253 67.5864 193.662 92.2165C169.203 65.6495 170.778 65.6547 146.154 92.0578C172.716 67.6047 172.711 69.1802 146.303 44.5502C170.761 71.1172 169.186 71.1119 193.81 44.709Z" fill="white" />
	<path d="M195.809 68.4694C161.372 68.3544 170.008 59.7741 169.901 94.2104C170.008 59.7741 178.591 68.4119 144.154 68.2969C178.591 68.4119 169.955 76.9922 170.062 42.5559C169.955 76.9922 161.372 68.3544 195.809 68.4694Z" fill="white" />
	<path d="M118.191 313.253C148.13 283.075 148.208 284.928 115.833 257.366C146.018 287.311 144.165 287.388 171.721 255.02C141.782 285.198 141.704 283.345 174.079 310.907C143.894 280.962 145.747 280.885 118.191 313.253Z" fill="white" />
	<path d="M114.574 285.412C155.084 283.711 145.384 294.264 143.675 253.754C145.384 294.264 134.829 284.561 175.34 282.861C134.829 284.561 144.53 274.009 146.238 314.519C144.53 274.009 155.084 283.711 114.574 285.412Z" fill="white" />
	<path d="M383.626 158.554C352.53 127.931 354.432 127.844 326.257 161.186C356.886 130.083 356.973 131.985 323.637 103.817C354.734 134.44 352.831 134.527 381.006 101.185C350.377 132.288 350.29 130.386 383.626 158.554Z" fill="white" />
	<path d="M355.06 162.374C353.161 120.789 364.031 130.708 322.447 132.616C364.031 130.708 354.11 141.582 352.211 99.9971C354.11 141.582 343.239 131.663 384.823 129.754C343.239 131.663 353.161 120.789 355.06 162.374Z" fill="white" />
	<defs>
		<radialGradient id="paint0_radial_233_13174" cx="0" cy="0" r="1" gradientUnits="userSpaceOnUse" gradientTransform="translate(168.395 217.916) scale(96.783)">
			<stop stop-color="#FBC01E" />
			<stop offset="0.4609" stop-color="#FDC822" />
			<stop offset="1" stop-color="#FCE13C" />
		</radialGradient>
		<radialGradient id="paint1_radial_233_13174" cx="0" cy="0" r="1" gradientUnits="userSpaceOnUse" gradientTransform="translate(140.025 163.704) scale(96.7831)">
			<stop stop-color="#FBC01E" />
			<stop offset="0.4609" stop-color="#FDC822" />
			<stop offset="1" stop-color="#FCE13C" />
		</radialGradient>
		<radialGradient id="paint2_radial_233_13174" cx="0" cy="0" r="1" gradientUnits="userSpaceOnUse" gradientTransform="translate(153.635 105.023) rotate(1.88529) scale(96.7836)">
			<stop stop-color="#FBC01E" />
			<stop offset="0.4609" stop-color="#FDC822" />
			<stop offset="1" stop-color="#FCE13C" />
		</radialGradient>
		<radialGradient id="paint3_radial_233_13174" cx="0" cy="0" r="1" gradientUnits="userSpaceOnUse" gradientTransform="translate(283.207 194.892) rotate(36.4929) scale(118.144 98.0133)">
			<stop stop-color="#FBC01E" />
			<stop offset="0.4609" stop-color="#FDC822" />
			<stop offset="1" stop-color="#FCE13C" />
		</radialGradient>
		<radialGradient id="paint4_radial_233_13174" cx="0" cy="0" r="1" gradientUnits="userSpaceOnUse" gradientTransform="translate(283.207 194.892) rotate(36.4929) scale(118.144 98.0133)">
			<stop stop-color="#FBC01E" />
			<stop offset="0.4609" stop-color="#FDC822" />
			<stop offset="1" stop-color="#FCE13C" />
		</radialGradient>
	</defs>
</svg>
