<svg xmlns="http://www.w3.org/2000/svg" width="435" height="232" viewBox="0 0 435 232" fill="none">
	<path d="M45.2791 84.841C33.1588 84.841 23.1097 80.814 15.1318 72.759C7.15404 64.704 3.16504 54.694 3.16504 42.727C3.16504 30.76 7.15404 20.7493 15.1318 12.6947C23.1097 4.64009 33.1588 0.612793 45.2791 0.612793C52.72 0.612793 59.5856 2.37719 65.8758 5.90579C72.1659 9.43449 77.0759 14.1906 80.6039 20.174L60.5828 31.6806C59.2787 29.0724 57.2459 27.0012 54.4843 25.467C51.7227 23.9328 48.6543 23.1657 45.2791 23.1657C39.6025 23.1657 34.9999 25.0068 31.4712 28.6889C27.9425 32.371 26.1782 37.0503 26.1782 42.727C26.1782 48.403 27.9425 53.083 31.4712 56.765C34.9999 60.447 39.6025 62.288 45.2791 62.288C48.731 62.288 51.7995 61.521 54.4843 59.987C57.2459 58.453 59.2787 56.343 60.5828 53.658L80.6039 65.165C77.0759 71.225 72.1659 76.019 65.8758 79.548C59.5856 83.077 52.72 84.841 45.2791 84.841ZM131.376 82.885L118.604 57.57H112.851V82.885H89.8369V2.33879H122.056C130.878 2.33879 138.165 4.94699 143.918 10.1633C149.672 15.3029 152.548 22.1301 152.548 30.645C152.548 35.401 151.436 39.6968 149.211 43.532C147.063 47.368 144.033 50.475 140.121 52.853L156 82.885H131.376ZM112.851 23.5109V38.4694H121.596C124.05 38.5462 125.968 37.9325 127.349 36.6284C128.806 35.3243 129.535 33.4833 129.535 31.1052C129.535 28.7272 128.806 26.8862 127.349 25.5821C125.968 24.2013 124.05 23.5109 121.596 23.5109H112.851ZM214.055 83L211.293 72.644H188.05L185.288 83H160.549L186.209 2.45389H213.134L238.794 83H214.055ZM192.997 54.233H206.345L199.671 29.4943L192.997 54.233ZM274.177 84.841C265.432 84.841 258.145 83.038 252.315 79.433C246.485 75.751 242.573 70.803 240.578 64.589L260.254 53.198C262.939 60.025 267.772 63.439 274.753 63.439C279.969 63.439 282.577 62.058 282.577 59.296C282.577 58.529 282.385 57.839 282.002 57.225C281.618 56.611 280.889 56.074 279.815 55.614C278.742 55.154 277.783 54.809 276.939 54.579C276.172 54.272 274.791 53.85 272.796 53.313C270.802 52.776 269.306 52.354 268.309 52.047C252.276 47.214 244.26 38.5845 244.26 26.1574C244.26 18.7932 246.907 12.6947 252.2 7.86199C257.569 3.02919 264.588 0.612793 273.257 0.612793C280.084 0.612793 286.182 2.22369 291.552 5.44559C296.999 8.66739 300.988 13.3084 303.519 19.3685L284.418 30.5299C282.193 24.8533 278.511 22.015 273.372 22.015C271.377 22.015 269.843 22.4369 268.769 23.2808C267.772 24.0479 267.273 25.0451 267.273 26.2725C267.273 27.9601 268.155 29.2642 269.92 30.1847C271.761 31.1052 275.251 32.2942 280.391 33.7517C284.226 34.9024 287.371 36.0147 289.826 37.0887C292.281 38.0859 294.851 39.5434 297.536 41.461C300.22 43.302 302.215 45.719 303.519 48.71C304.9 51.625 305.59 55.077 305.59 59.066C305.59 67.274 302.752 73.641 297.075 78.167C291.475 82.616 283.843 84.841 274.177 84.841ZM357.954 2.45389H380.967V83H357.954V53.313H338.393V83H315.38V2.45389H338.393V30.9902H357.954V2.45389Z" fill="white" />
</svg>
