<svg width="18" height="18" viewBox="0 0 18 18" fill="none" xmlns="http://www.w3.org/2000/svg">
  <mask id="mask0" mask-type="alpha" maskUnits="userSpaceOnUse" x="0" y="0" width="18" height="18">
    <rect width="18" height="18" fill="white" />
  </mask>
  <g mask="url(#mask0)">
    <path opacity="0.8" d="M8.37498 6.5604C8.18998 6.43679 8.04578 6.26109 7.96064 6.05552C7.87549 5.84995 7.85321 5.62375 7.89662 5.40552C7.94003 5.1873 8.04717 4.98684 8.20451 4.82951C8.36184 4.67217 8.5623 4.56503 8.78052 4.52162C8.99875 4.47821 9.22495 4.50049 9.43052 4.58564C9.63609 4.67078 9.81179 4.81498 9.9354 4.99998C10.059 5.18499 10.125 5.4025 10.125 5.625C10.125 5.92337 10.0065 6.20952 9.7955 6.4205C9.58452 6.63147 9.29837 6.75 9 6.75C8.7775 6.75 8.55999 6.68402 8.37498 6.5604Z" fill="#9F8DD0" />
    <path opacity="0.8" fill-rule="evenodd" clip-rule="evenodd" d="M4.9374 15.0801C3.73486 14.2766 2.7976 13.1346 2.24413 11.7984C1.69067 10.4622 1.54586 8.99189 1.82801 7.57341C2.11017 6.15492 2.80661 4.85196 3.82928 3.82928C4.85196 2.80661 6.15492 2.11017 7.57341 1.82801C8.99189 1.54586 10.4622 1.69067 11.7984 2.24413C13.1346 2.7976 14.2766 3.73486 15.0801 4.9374C15.8836 6.13993 16.3125 7.55373 16.3125 9C16.3125 10.9394 15.5421 12.7994 14.1707 14.1707C12.7994 15.5421 10.9394 16.3125 9 16.3125C7.55373 16.3125 6.13993 15.8836 4.9374 15.0801ZM5.56241 3.85528C4.54488 4.53518 3.75182 5.50153 3.2835 6.63215C2.81518 7.76277 2.69265 9.00687 2.93139 10.2071C3.17014 11.4074 3.75944 12.5099 4.62478 13.3752C5.49012 14.2406 6.59263 14.8299 7.79288 15.0686C8.99314 15.3074 10.2372 15.1848 11.3679 14.7165C12.4985 14.2482 13.4648 13.4551 14.1447 12.4376C14.8246 11.4201 15.1875 10.2238 15.1875 9C15.1875 7.35898 14.5356 5.78516 13.3752 4.62478C12.2148 3.4644 10.641 2.8125 9 2.8125C7.77623 2.8125 6.57994 3.17539 5.56241 3.85528Z" fill="#9F8DD0" />
    <path opacity="0.8" d="M8.20451 13.1705C7.99353 12.9595 7.875 12.6734 7.875 12.375V9C7.875 8.70163 7.99353 8.41548 8.20451 8.20451C8.41548 7.99353 8.70163 7.875 9 7.875C9.29837 7.875 9.58452 7.99353 9.79549 8.20451C10.0065 8.41548 10.125 8.70163 10.125 9V12.375C10.125 12.6734 10.0065 12.9595 9.79549 13.1705C9.58452 13.3815 9.29837 13.5 9 13.5C8.70163 13.5 8.41548 13.3815 8.20451 13.1705Z" fill="#9F8DD0" />
  </g>
</svg>