<?xml version="1.0" encoding="utf-8"?>
<svg width="169" height="46" viewBox="0 0 169 46" fill="none" xmlns="http://www.w3.org/2000/svg" xmlns:bx="https://boxy-svg.com">
	<g clip-path="url(#clip0_1_10256)">
		<rect x="0.263672" y="0.097168" width="168.736" height="45.131" rx="3.4791" fill="#00FFD7" />
		<mask id="mask0_1_10256" style="mask-type:alpha" maskUnits="userSpaceOnUse" x="0" y="0" width="169" height="46">
			<rect x="0.263672" width="168.736" height="45.131" rx="3.4791" fill="white" />
		</mask>
		<g mask="url(#mask0_1_10256)" transform="matrix(1, 0, 0, 1, 0, 1)">
			<path d="M 8 9.184 L 9.82 9.184 L 9.82 18.413 L 8 18.413 L 8 9.184 Z M 17.466 9.184 L 19.286 9.184 L 19.286 18.413 L 17.901 18.413 L 13.946 12.771 L 13.946 18.413 L 12.128 18.413 L 12.128 9.184 L 13.511 9.184 L 17.466 14.813 L 17.466 9.184 Z M 23.878 18.413 L 20.779 9.184 L 22.756 9.184 L 25.011 16.278 L 27.252 9.184 L 29.244 9.184 L 26.132 18.413 L 23.878 18.413 Z M 30.731 9.184 L 32.552 9.184 L 32.552 18.413 L 30.731 18.413 L 30.731 9.184 Z M 40.963 9.184 L 40.963 10.925 L 38.471 10.925 L 38.471 18.413 L 36.652 18.413 L 36.652 10.925 L 34.173 10.925 L 34.173 9.184 L 40.963 9.184 Z M 44.397 16.673 L 48.286 16.673 L 48.286 18.413 L 42.578 18.413 L 42.578 9.184 L 48.22 9.184 L 48.22 10.925 L 44.397 10.925 L 44.397 12.89 L 47.891 12.89 L 47.891 14.604 L 44.397 14.604 L 44.397 16.673 Z M 59.573 10.925 L 55.882 10.925 L 55.882 13.113 L 59.468 13.113 L 59.468 14.853 L 55.882 14.853 L 55.882 18.413 L 54.063 18.413 L 54.063 9.184 L 59.573 9.184 L 59.573 10.925 Z M 66.56 18.413 L 64.702 15.21 L 63.318 15.21 L 63.318 18.413 L 61.498 18.413 L 61.498 9.184 L 65.189 9.184 C 66.042 9.184 66.768 9.483 67.365 10.081 C 67.962 10.678 68.262 11.4 68.262 12.244 C 68.262 12.814 68.099 13.346 67.774 13.839 C 67.448 14.322 67.018 14.687 66.482 14.932 L 68.525 18.413 L 66.56 18.413 Z M 63.318 10.885 L 63.318 13.614 L 65.189 13.614 C 65.532 13.614 65.827 13.482 66.073 13.218 C 66.319 12.946 66.443 12.621 66.443 12.244 C 66.443 11.865 66.319 11.544 66.073 11.281 C 65.827 11.017 65.532 10.885 65.189 10.885 L 63.318 10.885 Z M 70.195 9.184 L 72.016 9.184 L 72.016 18.413 L 70.195 18.413 L 70.195 9.184 Z M 76.142 16.673 L 80.031 16.673 L 80.031 18.413 L 74.323 18.413 L 74.323 9.184 L 79.965 9.184 L 79.965 10.925 L 76.142 10.925 L 76.142 12.89 L 79.635 12.89 L 79.635 14.604 L 76.142 14.604 L 76.142 16.673 Z M 87.252 9.184 L 89.072 9.184 L 89.072 18.413 L 87.687 18.413 L 83.732 12.771 L 83.732 18.413 L 81.913 18.413 L 81.913 9.184 L 83.297 9.184 L 87.252 14.813 L 87.252 9.184 Z M 95.048 9.184 C 96.313 9.184 97.368 9.628 98.212 10.516 C 99.064 11.403 99.49 12.498 99.49 13.799 C 99.49 15.1 99.064 16.193 98.212 17.081 C 97.368 17.969 96.313 18.413 95.048 18.413 L 91.382 18.413 L 91.382 9.184 L 95.048 9.184 Z M 95.048 16.673 C 95.847 16.673 96.498 16.41 96.998 15.881 C 97.5 15.345 97.75 14.651 97.75 13.799 C 97.75 12.946 97.5 12.256 96.998 11.73 C 96.498 11.192 95.847 10.925 95.048 10.925 L 93.202 10.925 L 93.202 16.673 L 95.048 16.673 Z M 104.195 18.598 C 103.282 18.598 102.513 18.396 101.889 17.992 C 101.265 17.579 100.825 17.02 100.571 16.316 L 102.126 15.407 C 102.487 16.348 103.194 16.818 104.249 16.818 C 104.758 16.818 105.132 16.726 105.37 16.541 C 105.606 16.356 105.725 16.123 105.725 15.842 C 105.725 15.517 105.581 15.266 105.29 15.091 C 105 14.907 104.482 14.708 103.735 14.497 C 103.322 14.375 102.97 14.252 102.68 14.129 C 102.398 14.005 102.113 13.843 101.823 13.64 C 101.541 13.429 101.326 13.166 101.177 12.85 C 101.027 12.533 100.953 12.164 100.953 11.742 C 100.953 10.907 101.247 10.243 101.837 9.752 C 102.434 9.251 103.15 9 103.986 9 C 104.733 9 105.387 9.184 105.949 9.554 C 106.521 9.915 106.965 10.42 107.28 11.07 L 105.752 11.953 C 105.382 11.162 104.794 10.766 103.986 10.766 C 103.607 10.766 103.308 10.855 103.089 11.03 C 102.878 11.197 102.772 11.417 102.772 11.69 C 102.772 11.979 102.891 12.217 103.129 12.401 C 103.374 12.578 103.84 12.771 104.525 12.982 C 104.807 13.069 105.018 13.139 105.159 13.193 C 105.308 13.236 105.505 13.31 105.752 13.417 C 106.007 13.513 106.2 13.606 106.331 13.693 C 106.472 13.781 106.631 13.9 106.806 14.05 C 106.982 14.198 107.114 14.353 107.202 14.51 C 107.298 14.669 107.378 14.862 107.439 15.091 C 107.509 15.311 107.545 15.553 107.545 15.816 C 107.545 16.668 107.233 17.345 106.609 17.846 C 105.994 18.347 105.189 18.598 104.195 18.598 Z M 120.964 17.886 L 119.515 18.716 L 118.67 17.806 C 117.958 18.333 117.132 18.598 116.192 18.598 C 115.243 18.598 114.465 18.351 113.859 17.859 C 113.261 17.359 112.962 16.691 112.962 15.856 C 112.962 15.311 113.094 14.806 113.357 14.339 C 113.621 13.873 114.003 13.496 114.505 13.206 C 114.205 12.731 114.056 12.217 114.056 11.663 C 114.056 10.881 114.328 10.243 114.873 9.752 C 115.418 9.251 116.109 9 116.944 9 C 117.602 9 118.191 9.171 118.71 9.514 C 119.237 9.848 119.628 10.335 119.883 10.977 L 118.328 11.874 C 118.073 11.136 117.62 10.766 116.969 10.766 C 116.653 10.766 116.39 10.858 116.179 11.044 C 115.977 11.228 115.876 11.461 115.876 11.742 C 115.876 11.988 115.932 12.213 116.047 12.415 C 116.17 12.617 116.363 12.859 116.627 13.139 L 118.604 15.302 C 118.798 14.889 118.947 14.378 119.053 13.772 L 120.581 14.642 C 120.415 15.354 120.147 16 119.778 16.581 L 120.964 17.886 Z M 116.311 16.924 C 116.767 16.924 117.177 16.814 117.537 16.594 L 115.546 14.432 C 115.528 14.414 115.519 14.4 115.519 14.393 C 115.037 14.691 114.795 15.116 114.795 15.67 C 114.795 16.049 114.922 16.352 115.177 16.581 C 115.441 16.809 115.818 16.924 116.311 16.924 Z" fill="#0D3960" style="" />
			<path d="M 10.3 33.703 L 15.219 33.703 L 15.219 35.903 L 8 35.903 L 8 24.234 L 15.136 24.234 L 15.136 26.434 L 10.3 26.434 L 10.3 28.918 L 14.718 28.918 L 14.718 31.085 L 10.3 31.085 L 10.3 33.703 Z M 25.856 35.903 L 25.155 33.803 L 20.504 33.803 L 19.803 35.903 L 17.32 35.903 L 21.404 24.234 L 24.256 24.234 L 28.356 35.903 L 25.856 35.903 Z M 21.238 31.652 L 24.439 31.652 L 22.838 26.885 L 21.238 31.652 Z M 37.225 35.903 L 34.874 31.852 L 33.123 31.852 L 33.123 35.903 L 30.823 35.903 L 30.823 24.234 L 35.492 24.234 C 36.569 24.234 37.487 24.612 38.242 25.368 C 38.998 26.124 39.376 27.034 39.376 28.102 C 39.376 28.823 39.171 29.496 38.759 30.119 C 38.348 30.729 37.803 31.191 37.125 31.503 L 39.709 35.903 L 37.225 35.903 Z M 33.123 26.384 L 33.123 29.835 L 35.492 29.835 C 35.925 29.835 36.297 29.668 36.608 29.335 C 36.92 28.99 37.075 28.58 37.075 28.102 C 37.075 27.624 36.92 27.217 36.608 26.885 C 36.297 26.551 35.925 26.384 35.492 26.384 L 33.123 26.384 Z M 49.149 24.234 L 51.45 24.234 L 51.45 35.903 L 49.699 35.903 L 44.698 28.769 L 44.698 35.903 L 42.398 35.903 L 42.398 24.234 L 44.147 24.234 L 49.149 31.352 L 49.149 24.234 Z M 71.871 24.234 L 71.871 35.903 L 69.587 35.903 L 69.587 28.335 L 66.302 33.754 L 66.035 33.754 L 62.751 28.351 L 62.751 35.903 L 60.451 35.903 L 60.451 24.234 L 62.818 24.234 L 66.168 29.752 L 69.503 24.234 L 71.871 24.234 Z M 85.198 34.386 C 84.02 35.554 82.587 36.137 80.897 36.137 C 79.208 36.137 77.774 35.554 76.595 34.386 C 75.429 33.209 74.844 31.77 74.844 30.068 C 74.844 28.367 75.429 26.934 76.595 25.768 C 77.774 24.589 79.208 24 80.897 24 C 82.587 24 84.02 24.589 85.198 25.768 C 86.376 26.934 86.965 28.367 86.965 30.068 C 86.965 31.77 86.376 33.209 85.198 34.386 Z M 78.212 32.82 C 78.935 33.53 79.829 33.886 80.897 33.886 C 81.964 33.886 82.858 33.53 83.581 32.82 C 84.304 32.097 84.665 31.18 84.665 30.068 C 84.665 28.958 84.304 28.04 83.581 27.317 C 82.858 26.596 81.964 26.234 80.897 26.234 C 79.829 26.234 78.935 26.596 78.212 27.317 C 77.491 28.04 77.129 28.958 77.129 30.068 C 77.129 31.18 77.491 32.097 78.212 32.82 Z M 96.668 24.234 L 98.968 24.234 L 98.968 35.903 L 97.219 35.903 L 92.217 28.769 L 92.217 35.903 L 89.916 35.903 L 89.916 24.234 L 91.667 24.234 L 96.668 31.352 L 96.668 24.234 Z M 104.768 33.703 L 109.686 33.703 L 109.686 35.903 L 102.468 35.903 L 102.468 24.234 L 109.602 24.234 L 109.602 26.434 L 104.768 26.434 L 104.768 28.918 L 109.186 28.918 L 109.186 31.085 L 104.768 31.085 L 104.768 33.703 Z M 121.878 24.234 L 117.876 31.352 L 117.876 35.903 L 115.592 35.903 L 115.592 31.352 L 111.608 24.234 L 114.208 24.234 L 116.742 29.101 L 119.276 24.234 L 121.878 24.234 Z" fill="#0D3960" style="" bx:origin="0.499341 0.496828" />
			<ellipse cx="144.399" cy="32.9995" rx="16.278" ry="16.1003" fill="#276DB0" stroke="black" stroke-width="1.30466" />
			<ellipse cx="153.556" cy="15.893" rx="7.12161" ry="7.04386" fill="white" stroke="black" stroke-width="1.30466" />
			<rect x="152.538" y="11.8678" width="2.03475" height="8.05013" fill="black" />
			<rect x="157.625" y="14.8867" width="2.01253" height="8.13898" transform="rotate(90 157.625 14.8867)" fill="black" />
			<mask id="path-10-outside-1_1_10256" maskUnits="userSpaceOnUse" x="134.26" y="21.7994" width="20" height="28" fill="black">
				<rect fill="white" x="134.26" y="21.7994" width="20" height="28" />
				<path fill-rule="evenodd" clip-rule="evenodd" d="M144.399 23.7994C142.473 23.7994 140.911 25.3441 140.911 27.2495C140.911 29.1549 142.473 30.6996 144.399 30.6996C146.326 30.6996 147.887 29.1549 147.887 27.2495C147.887 25.3441 146.326 23.7994 144.399 23.7994ZM147.887 32.9994H140.91C138.342 32.9994 136.26 35.059 136.26 37.5995V45.5806C136.997 46.0536 137.775 46.4614 138.585 46.7997V38.7495H140.91V47.5322C143.202 48.0888 145.595 48.0888 147.887 47.5322V38.7495H150.212V46.7997C151.022 46.4604 151.8 46.0513 152.538 45.5772V37.5995C152.538 35.059 150.455 32.9994 147.887 32.9994Z" />
			</mask>
			<path fill-rule="evenodd" clip-rule="evenodd" d="M144.399 23.7994C142.473 23.7994 140.911 25.3441 140.911 27.2495C140.911 29.1549 142.473 30.6996 144.399 30.6996C146.326 30.6996 147.887 29.1549 147.887 27.2495C147.887 25.3441 146.326 23.7994 144.399 23.7994ZM147.887 32.9994H140.91C138.342 32.9994 136.26 35.059 136.26 37.5995V45.5806C136.997 46.0536 137.775 46.4614 138.585 46.7997V38.7495H140.91V47.5322C143.202 48.0888 145.595 48.0888 147.887 47.5322V38.7495H150.212V46.7997C151.022 46.4604 151.8 46.0513 152.538 45.5772V37.5995C152.538 35.059 150.455 32.9994 147.887 32.9994Z" fill="#82CDFF" />
			<path d="M136.26 45.5806H134.955V46.2939L135.555 46.6789L136.26 45.5806ZM138.585 46.7997L138.082 48.0035L139.89 48.7586V46.7997H138.585ZM138.585 38.7495V37.4449H137.28V38.7495H138.585ZM140.91 38.7495H142.215V37.4449H140.91V38.7495ZM140.91 47.5322H139.606V48.5579L140.603 48.8L140.91 47.5322ZM147.887 47.5322L148.195 48.8L149.191 48.5579V47.5322H147.887ZM147.887 38.7495V37.4449H146.582V38.7495H147.887ZM150.212 38.7495H151.517V37.4449H150.212V38.7495ZM150.212 46.7997H148.908V48.7607L150.716 48.003L150.212 46.7997ZM152.538 45.5772L153.243 46.6746L153.842 46.2895V45.5772H152.538ZM142.216 27.2495C142.216 26.0781 143.18 25.1041 144.399 25.1041V22.4948C141.766 22.4948 139.606 24.61 139.606 27.2495H142.216ZM144.399 29.3949C143.18 29.3949 142.216 28.4209 142.216 27.2495H139.606C139.606 29.8889 141.766 32.0042 144.399 32.0042V29.3949ZM146.583 27.2495C146.583 28.4209 145.619 29.3949 144.399 29.3949V32.0042C147.033 32.0042 149.192 29.8889 149.192 27.2495H146.583ZM144.399 25.1041C145.619 25.1041 146.583 26.0781 146.583 27.2495H149.192C149.192 24.61 147.033 22.4948 144.399 22.4948V25.1041ZM140.91 34.3041H147.887V31.6948H140.91V34.3041ZM137.564 37.5995C137.564 35.793 139.049 34.3041 140.91 34.3041V31.6948C137.635 31.6948 134.955 34.325 134.955 37.5995H137.564ZM137.564 45.5806V37.5995H134.955V45.5806H137.564ZM139.088 45.5958C138.348 45.2867 137.637 44.9142 136.964 44.4824L135.555 46.6789C136.357 47.193 137.203 47.6361 138.082 48.0035L139.088 45.5958ZM137.28 38.7495V46.7997H139.89V38.7495H137.28ZM140.91 37.4449H138.585V40.0542H140.91V37.4449ZM142.215 47.5322V38.7495H139.606V47.5322H142.215ZM147.579 46.2644C145.49 46.7719 143.308 46.7719 141.218 46.2644L140.603 48.8C143.096 49.4058 145.701 49.4058 148.195 48.8L147.579 46.2644ZM146.582 38.7495V47.5322H149.191V38.7495H146.582ZM150.212 37.4449H147.887V40.0542H150.212V37.4449ZM151.517 46.7997V38.7495H148.908V46.7997H151.517ZM151.832 44.4798C151.159 44.9127 150.448 45.2864 149.708 45.5963L150.716 48.003C151.596 47.6344 152.442 47.1899 153.243 46.6746L151.832 44.4798ZM151.233 37.5995V45.5772H153.842V37.5995H151.233ZM147.887 34.3041C149.748 34.3041 151.233 35.793 151.233 37.5995H153.842C153.842 34.325 151.162 31.6948 147.887 31.6948V34.3041Z" fill="black" mask="url(#path-10-outside-1_1_10256)" />
		</g>
	</g>
	<defs>
		<clipPath id="clip0_1_10256">
			<rect x="0.263672" width="168.736" height="45.2283" fill="white" />
		</clipPath>
	</defs>
</svg>
