<svg width="146" height="179" viewBox="0 0 146 179" fill="none" xmlns="http://www.w3.org/2000/svg">
  <g>
    <path d="M85.6191 42.5682V49.8613C85.6191 51.4106 86.8746 52.6664 88.4242 52.6664C89.9739 52.6664 91.2293 51.4106 91.2293 49.8613V42.5682C91.2293 41.0193 89.9739 39.7631 88.4242 39.7631C86.8746 39.7631 85.6191 41.0189 85.6191 42.5682Z" fill="#B5EB8C" />
  </g>
  <g>
    <path d="M85.6191 62.2035V69.4967C85.6191 71.0459 86.8746 72.3018 88.4242 72.3018C89.9739 72.3018 91.2293 71.0459 91.2293 69.4967V62.2035C91.2293 60.6539 89.9739 59.3984 88.4242 59.3984C86.8746 59.3984 85.6191 60.6543 85.6191 62.2035Z" fill="#B5EB8C" />
  </g>
  <g>
    <path d="M94.5951 53.2275C93.0455 53.2275 91.79 54.4833 91.79 56.0326C91.79 57.5819 93.0455 58.8377 94.5951 58.8377H101.888C103.438 58.8377 104.693 57.5819 104.693 56.0326C104.693 54.4833 103.438 53.2275 101.888 53.2275H94.5951Z" fill="#B5EB8C" />
  </g>
  <g>
    <path d="M74.9599 53.2275C73.4102 53.2275 72.1548 54.4833 72.1548 56.0326C72.1548 57.5819 73.4102 58.8377 74.9599 58.8377H82.253C83.8026 58.8377 85.0581 57.5819 85.0581 56.0326C85.0581 54.4833 83.8026 53.2275 82.253 53.2275H74.9599Z" fill="#B5EB8C" />
  </g>
  <g>
    <path d="M143.195 77.9824H108.657C107.913 77.9824 107.2 78.2777 106.673 78.8041C98.5366 86.9404 88.7879 91.734 75.9939 93.8894C64.2083 95.8747 50.8447 95.4531 36.6955 95.0076C30.1784 94.802 23.4393 94.5893 16.4637 94.5893H8.02253C3.05169 94.5893 -1.71724 96.6384 -5.1473 100.221C-6.45073 87.7104 -9.71504 79.3412 -15.0244 74.803C-18.9461 71.4516 -23.9115 70.2216 -29.7815 71.1467C-36.0119 72.1293 -40.5708 76.6236 -42.2895 83.4778C-44.8447 93.6665 -40.7627 108.987 -25.8841 120.247C-16.1979 127.577 -13.656 136.282 -14.9454 140.122C-15.5261 141.85 -16.8646 142.691 -19.0381 142.691C-20.5877 142.691 -21.8432 143.947 -21.8432 145.496C-21.8432 147.045 -20.5877 148.301 -19.0381 148.301C-14.4212 148.301 -10.9908 145.971 -9.62719 141.908C-8.42084 138.316 -8.99928 133.742 -11.2555 129.028C-13.5847 124.16 -17.4729 119.577 -22.4995 115.774C-31.4478 109.001 -39.755 96.4332 -36.8484 84.8429C-36.175 82.1593 -34.2489 77.5313 -28.9085 76.6893C-24.6723 76.0208 -21.3245 76.8001 -18.6697 79.0684C-13.2721 83.6812 -10.4039 94.5735 -10.1285 111.454C-10.1982 112.448 -10.1894 113.452 -10.0912 114.456C-10.0912 114.458 -10.0908 114.46 -10.0905 114.462C-10.0901 114.467 -10.0894 114.472 -10.089 114.477C-8.36325 132.003 1.22259 152.883 37.0794 152.883C57.4287 152.883 74.6074 148.383 88.1382 139.509C89.4339 138.66 89.7953 136.921 88.9455 135.625C88.0958 134.329 86.3579 133.968 85.0614 134.818C72.2829 143.199 56.5878 147.273 37.0794 147.273C11.6984 147.273 -2.28757 136.083 -4.4954 114.016C-4.49614 113.184 -4.50426 112.368 -4.51644 111.561C-4.27982 108.896 -3.18864 106.393 -1.3326 104.345C1.05648 101.71 4.46623 100.199 8.02216 100.199H16.4637C23.3504 100.199 30.0451 100.41 36.5183 100.614C65.3766 101.525 90.3564 102.311 109.802 83.5926H129.908C127.015 85.4911 123.793 88.0249 120.416 91.4022C117.729 94.0888 115.276 98.2575 112.435 103.084C107.931 110.738 102.325 120.264 93.2191 128.505C92.0707 129.545 91.9821 131.318 93.022 132.467C94.0618 133.617 95.8352 133.704 96.9843 132.665C106.725 123.848 112.572 113.913 117.27 105.93C119.916 101.434 122.202 97.551 124.383 95.3697C132.789 86.9636 140.6 83.9758 143.536 83.5723C145.008 83.3915 146.085 82.0965 145.995 80.6166C145.904 79.1364 144.678 77.9824 143.195 77.9824Z" fill="#B5EB8C" />
  </g>
  <g>
    <path d="M64.2166 156.201C63.3199 154.938 61.5691 154.64 60.3055 155.537C59.0419 156.434 58.7448 158.185 59.6418 159.448C63.5613 164.971 68.4044 169.515 74.1125 173.039H14.9341C20.6447 169.515 25.4874 164.971 29.4073 159.448C30.304 158.185 30.0068 156.434 28.7436 155.537C27.48 154.64 25.7292 154.938 24.8326 156.201C19.1345 164.229 11.2094 169.941 1.27734 173.178C-0.033844 173.605 -0.840048 174.922 -0.623731 176.285C-0.407415 177.647 0.767561 178.65 2.14667 178.65H86.8951C88.2746 178.65 89.4488 177.647 89.6655 176.285C89.8822 174.923 89.0756 173.605 87.7644 173.178C77.8371 169.941 69.9146 164.228 64.2166 156.201Z" fill="#B5EB8C" />
  </g>
  <g>
    <path fill-rule="evenodd" clip-rule="evenodd" d="M44.4917 73.8052L59.2015 48.3272C59.7028 47.4593 59.7028 46.3899 59.2015 45.5221C58.7003 44.6542 57.7748 44.1193 56.7722 44.1193H23.1092C22.107 44.1193 21.1812 44.6542 20.6799 45.5221C20.1786 46.3899 20.1786 47.4593 20.6799 48.3272L35.3905 73.8063C28.9254 75.3338 23.0911 80.0995 18.942 87.3944C18.176 88.7414 18.647 90.4538 19.9936 91.2198C21.3406 91.9854 23.0531 91.5144 23.819 90.1681C27.8973 82.9972 33.7737 78.8842 39.9409 78.8842C46.2292 78.8842 52.1797 83.129 56.2665 90.5299C56.7778 91.4564 57.7364 91.9795 58.7246 91.9795C59.1831 91.9795 59.6486 91.8669 60.0779 91.6296C61.4337 90.8809 61.9258 89.174 61.1772 87.8182C57.0122 80.2752 51.0904 75.3586 44.4917 73.8052ZM27.9675 49.7295H51.9136L39.9405 70.4671L27.9675 49.7295Z" fill="#B5EB8C" />
  </g>
  <g>
    <path d="M48.5931 1.61499C34.9858 1.61499 26.4782 7.65302 17.4708 14.0458C16.9319 14.4282 16.3896 14.8132 15.8433 15.199C14.5775 16.0927 14.2763 17.8424 15.1692 19.1086C15.7163 19.883 16.5831 20.2965 17.4638 20.2965C18.0227 20.2965 18.5875 20.1296 19.0788 19.783C19.6288 19.3943 20.1752 19.0071 20.7182 18.6217C29.3339 12.5069 36.775 7.22593 48.5931 7.22593C58.0807 7.22593 63.8349 10.5305 68.2122 13.7627C69.4584 14.6829 71.214 14.4186 72.135 13.1724C73.0557 11.9255 72.791 10.1695 71.5448 9.24919C66.7319 5.6951 59.7733 1.61499 48.5931 1.61499Z" fill="#B5EB8C" />
  </g>
  <g>
    <path d="M99.1995 26.6081C90.1423 25.3142 84.5354 20.3626 79.1135 15.5744C77.9522 14.549 76.1792 14.6586 75.1537 15.8203C74.1282 16.9816 74.2382 18.7546 75.3996 19.7797C80.8743 24.6143 87.6875 30.6306 98.4066 32.1618C105.796 33.2171 111.29 36.7483 114.295 42.3733C117.904 49.1293 117.767 58.638 113.946 66.5993C113.275 67.9957 113.864 69.672 115.261 70.342C115.653 70.5299 116.065 70.6192 116.473 70.6192C117.518 70.6192 118.521 70.0323 119.004 69.0275C123.572 59.5088 123.666 48.009 119.243 39.7295C116.536 34.6631 110.861 28.2736 99.1995 26.6081Z" fill="#B5EB8C" />
  </g>
  <g>
    <path d="M103.571 10.591C102.021 10.591 100.766 11.8469 100.766 13.3961C100.766 14.9454 102.021 16.2016 103.571 16.2016C115.283 16.2016 133.865 25.34 133.865 49.8613C133.865 51.4106 135.12 52.6664 136.67 52.6664C138.219 52.6664 139.475 51.4106 139.475 49.8613C139.475 34.0233 132.585 24.6789 126.805 19.6287C120.327 13.9698 111.642 10.591 103.571 10.591Z" fill="#B5EB8C" />
  </g>
  <g>
    <path fill-rule="evenodd" clip-rule="evenodd" d="M4.41343 19.9542C-0.313412 18.9959 -3.98636 15.3226 -4.94501 10.5958L-6.14251 4.68916C-6.66041 2.13434 -8.84277 0.349915 -11.4496 0.349915C-14.0565 0.349915 -16.2389 2.13434 -16.7564 4.68916L-17.9539 10.5958C-18.9126 15.3226 -22.5862 18.9959 -27.3124 19.9542L-33.2193 21.1517C-35.7738 21.6696 -37.5582 23.852 -37.5586 26.4585C-37.5586 29.0646 -35.7742 31.2474 -33.2193 31.7653L-27.3124 32.9628C-22.5859 33.921 -18.9122 37.5947 -17.9539 42.3212L-16.7568 48.2282C-16.2389 50.783 -14.0565 52.5674 -11.45 52.5674C-8.84277 52.5674 -6.66041 50.783 -6.14288 48.2282L-4.94539 42.3216C-3.98673 37.5947 -0.313778 33.9214 4.41307 32.9631L10.3201 31.7656C12.8749 31.2477 14.6593 29.065 14.6593 26.4585C14.6597 23.8516 12.8752 21.6693 10.3204 21.1517L4.41343 19.9542ZM-10.443 41.2068L-11.4496 46.1691L-12.4552 41.2068C-13.8631 34.2662 -19.257 28.8719 -26.1972 27.4651L-31.1595 26.4578L-26.1972 25.4515C-19.257 24.0447 -13.8627 18.6508 -12.4552 11.7098L-11.4489 6.74786L-10.4426 11.7102C-9.0351 18.6508 -3.64121 24.0451 3.299 25.4522L8.26173 26.4592L3.29863 27.4648C-3.64195 28.8723 -9.0362 34.2662 -10.443 41.2068Z" fill="#B5EB8C" />
  </g>
</svg>