<svg width="193" height="189" viewBox="0 0 193 189" fill="none" xmlns="http://www.w3.org/2000/svg">
	<g filter="url(#filter0_d_239_19563)">
		<path fill-rule="evenodd" clip-rule="evenodd" d="M93.4695 105.513C87.4568 98.2203 86.3416 89.8307 87.2381 84.1285L71.5104 72.3643L19.721 36.8722C21.2235 50.8797 33.7896 82.9868 72.034 99.3559C82.6962 103.919 89.4723 105.651 93.4695 105.513Z" fill="url(#paint0_linear_239_19563)" />
		<path d="M71.1086 72.9304L20.6078 38.3214C22.7979 52.8201 35.6643 83.0339 72.306 98.717C81.7491 102.759 88.0455 104.531 92.0214 104.791C86.7973 97.7873 85.7272 89.9846 86.4904 84.4357L71.1086 72.9304Z" stroke="url(#paint1_linear_239_19563)" stroke-width="1.38819" />
		<g filter="url(#filter1_d_239_19563)">
			<path fill-rule="evenodd" clip-rule="evenodd" d="M104.619 114.026C93.7502 108.433 89.0392 100.083 87.606 92.7533L29.922 74.5209C42.0937 93.3989 74.0135 127.756 104.32 114.161C104.42 114.116 104.52 114.071 104.619 114.026Z" fill="url(#paint2_linear_239_19563)" />
		</g>
		<path d="M86.9702 93.3485L31.1606 75.7085C37.3685 84.9895 47.9252 97.4284 60.5132 106.19C73.4989 115.228 88.524 120.275 103.159 114.121C93.0325 108.542 88.4623 100.513 86.9702 93.3485Z" stroke="url(#paint3_linear_239_19563)" stroke-width="1.15683" />
		<path opacity="0.8" d="M75.1226 106.15L93.4095 106.883L96.0429 109.525L75.1226 106.15Z" fill="url(#paint4_linear_239_19563)" />
		<g filter="url(#filter2_d_239_19563)">
			<path fill-rule="evenodd" clip-rule="evenodd" d="M123.164 119.703C110.17 117.91 101.533 113.512 95.9667 108.196L49.5631 103.479C61.491 119.575 92.7647 145.096 123.164 119.703Z" fill="url(#paint5_linear_239_19563)" />
		</g>
		<path d="M95.712 108.75L50.8273 104.188C56.8855 112.011 67.2345 121.668 79.6512 126.611C92.3015 131.647 107.098 131.796 121.782 120.085C109.521 118.187 101.196 113.923 95.712 108.75Z" stroke="url(#paint6_linear_239_19563)" stroke-width="1.15683" />
		<path d="M81.6058 120.755L104.652 114.286L107.639 115.874L81.6058 120.755Z" fill="url(#paint7_linear_239_19563)" />
		<g filter="url(#filter3_d_239_19563)">
			<path fill-rule="evenodd" clip-rule="evenodd" d="M106.371 115.086C113.657 118.406 123.45 120.548 136.468 120.569C141.501 120.578 145.932 120.747 149.823 121.051L150.203 121.113C105.56 150.992 76.5492 135.553 67.4164 123.89L106.371 115.086Z" fill="url(#paint8_linear_239_19563)" />
		</g>
		<path d="M149.818 121.05C145.928 120.747 141.498 120.577 136.467 120.569C123.45 120.548 113.657 118.406 106.371 115.086L67.4163 123.891" stroke="url(#paint9_linear_239_19563)" stroke-width="1.15683" />
		<path d="M114.471 131.537L122.052 119.416L125.217 119.773L114.471 131.537Z" fill="url(#paint10_linear_239_19563)" />
		<path fill-rule="evenodd" clip-rule="evenodd" d="M123.419 119.737C127.359 120.269 131.697 120.561 136.468 120.569C148.199 120.588 156.66 121.484 162.638 122.906C162.814 124.292 160.108 125.706 154.773 125.697C143.957 125.679 136.367 129.06 124.216 137.07C112.409 144.853 107.871 145.753 104.424 144.84C108.12 139.755 117.526 127.313 123.419 119.737Z" fill="url(#paint11_linear_239_19563)" />
		<path d="M136.467 121.147C131.805 121.14 127.551 120.862 123.671 120.355C118.036 127.607 109.365 139.069 105.419 144.459C108.542 144.942 113.09 143.711 123.898 136.587C136.084 128.554 143.789 125.101 154.774 125.118C157.4 125.123 159.33 124.776 160.559 124.287C161.175 124.042 161.581 123.775 161.815 123.529C161.878 123.463 161.927 123.401 161.964 123.343C156.078 122.008 147.823 121.166 136.467 121.147Z" stroke="url(#paint12_linear_239_19563)" stroke-width="1.15683" />
		<path d="M85.709 83.3076C84.9964 88.9335 85.7891 98.8877 90.4239 103.538" stroke="url(#paint13_linear_239_19563)" stroke-width="1.43874" />
		<g filter="url(#filter4_d_239_19563)">
			<path d="M134.884 121.722C90.7698 117.829 84.5997 99.4126 85.6663 84.2202C85.6852 83.9509 85.9721 83.7914 86.2134 83.9125C86.336 83.9741 86.416 84.0978 86.4234 84.2349C87.3311 101.193 95.1545 115.164 135.593 118.207C187.961 120.231 187.621 132.007 188.671 135.174C189.511 137.708 186.908 138.337 185.501 138.334C181.114 132.524 177.078 127.77 134.884 121.722Z" fill="url(#paint14_linear_239_19563)" />
			<path d="M134.884 121.722C90.7499 117.827 84.5941 99.396 85.6677 84.1997C85.6861 83.9402 85.9625 83.7866 86.195 83.9033C86.3265 83.9693 86.4057 84.1084 86.3971 84.2553C85.4004 101.387 93.0663 116.562 135.593 118.207C187.961 120.231 187.621 132.007 188.671 135.174C189.511 137.708 186.908 138.337 185.501 138.334C187.151 133.062 178.757 125.594 134.884 121.722Z" fill="url(#paint15_linear_239_19563)" />
			<path fill-rule="evenodd" clip-rule="evenodd" d="M135.594 118.206C134.477 119.121 132.672 120.392 130.829 121.394C121.607 120.321 114.141 118.523 108.267 116.314C107.289 115.882 106.332 115.526 105.53 115.168C106.075 114.624 107.159 114.126 108.697 114.118C115.542 116.244 124.345 117.762 135.594 118.206Z" fill="url(#paint16_linear_239_19563)" />
			<g filter="url(#filter5_f_239_19563)">
				<path d="M85.709 83.6593V83.6593C86.1352 83.8733 86.391 84.3229 86.3684 84.7993C85.5668 101.707 93.5169 116.58 135.593 118.207C187.961 120.231 187.621 132.007 188.671 135.174C189.511 137.708 186.908 138.337 185.501 138.334" stroke="url(#paint17_linear_239_19563)" stroke-width="0.639442" />
			</g>
			<g filter="url(#filter6_f_239_19563)">
				<path d="M185.163 130.244C177.999 123.62 162.611 120.653 155.813 120.173C148.487 119.282 132.253 117.954 125.922 118.366" stroke="#EED7B5" stroke-width="0.799302" />
			</g>
		</g>
	</g>
	<defs>
		<filter id="filter0_d_239_19563" x="16.5225" y="36.8711" width="175.829" height="114.653" filterUnits="userSpaceOnUse" color-interpolation-filters="sRGB">
			<feFlood flood-opacity="0" result="BackgroundImageFix" />
			<feColorMatrix in="SourceAlpha" type="matrix" values="0 0 0 0 0 0 0 0 0 0 0 0 0 0 0 0 0 0 127 0" result="hardAlpha" />
			<feOffset dy="3.19721" />
			<feGaussianBlur stdDeviation="1.5986" />
			<feColorMatrix type="matrix" values="0 0 0 0 0.38125 0 0 0 0 0.416833 0 0 0 0 0.508333 0 0 0 0.38 0" />
			<feBlend mode="normal" in2="BackgroundImageFix" result="effect1_dropShadow_239_19563" />
			<feBlend mode="normal" in="SourceGraphic" in2="effect1_dropShadow_239_19563" result="shape" />
		</filter>
		<filter id="filter1_d_239_19563" x="25.2946" y="71.4356" width="80.867" height="48.9129" filterUnits="userSpaceOnUse" color-interpolation-filters="sRGB">
			<feFlood flood-opacity="0" result="BackgroundImageFix" />
			<feColorMatrix in="SourceAlpha" type="matrix" values="0 0 0 0 0 0 0 0 0 0 0 0 0 0 0 0 0 0 127 0" result="hardAlpha" />
			<feOffset dx="-1.54244" />
			<feGaussianBlur stdDeviation="1.54244" />
			<feColorMatrix type="matrix" values="0 0 0 0 0.446731 0 0 0 0 0.444028 0 0 0 0 0.579167 0 0 0 0.12 0" />
			<feBlend mode="normal" in2="BackgroundImageFix" result="effect1_dropShadow_239_19563" />
			<feBlend mode="normal" in="SourceGraphic" in2="effect1_dropShadow_239_19563" result="shape" />
		</filter>
		<filter id="filter2_d_239_19563" x="44.9357" y="100.394" width="79.7708" height="33.1326" filterUnits="userSpaceOnUse" color-interpolation-filters="sRGB">
			<feFlood flood-opacity="0" result="BackgroundImageFix" />
			<feColorMatrix in="SourceAlpha" type="matrix" values="0 0 0 0 0 0 0 0 0 0 0 0 0 0 0 0 0 0 127 0" result="hardAlpha" />
			<feOffset dx="-1.54244" />
			<feGaussianBlur stdDeviation="1.54244" />
			<feColorMatrix type="matrix" values="0 0 0 0 0.446731 0 0 0 0 0.444028 0 0 0 0 0.579167 0 0 0 0.12 0" />
			<feBlend mode="normal" in2="BackgroundImageFix" result="effect1_dropShadow_239_19563" />
			<feBlend mode="normal" in="SourceGraphic" in2="effect1_dropShadow_239_19563" result="shape" />
		</filter>
		<filter id="filter3_d_239_19563" x="59.7043" y="105.775" width="98.211" height="38.7613" filterUnits="userSpaceOnUse" color-interpolation-filters="sRGB">
			<feFlood flood-opacity="0" result="BackgroundImageFix" />
			<feColorMatrix in="SourceAlpha" type="matrix" values="0 0 0 0 0 0 0 0 0 0 0 0 0 0 0 0 0 0 127 0" result="hardAlpha" />
			<feOffset dy="-1.5986" />
			<feGaussianBlur stdDeviation="3.85609" />
			<feColorMatrix type="matrix" values="0 0 0 0 0.365689 0 0 0 0 0.351111 0 0 0 0 0.533333 0 0 0 0.2 0" />
			<feBlend mode="normal" in2="BackgroundImageFix" result="effect1_dropShadow_239_19563" />
			<feBlend mode="normal" in="SourceGraphic" in2="effect1_dropShadow_239_19563" result="shape" />
		</filter>
		<filter id="filter4_d_239_19563" x="83.96" y="83.374" width="108.392" height="60.0761" filterUnits="userSpaceOnUse" color-interpolation-filters="sRGB">
			<feFlood flood-opacity="0" result="BackgroundImageFix" />
			<feColorMatrix in="SourceAlpha" type="matrix" values="0 0 0 0 0 0 0 0 0 0 0 0 0 0 0 0 0 0 127 0" result="hardAlpha" />
			<feOffset dx="0.799302" dy="2.39791" />
			<feGaussianBlur stdDeviation="1.19895" />
			<feColorMatrix type="matrix" values="0 0 0 0 0.7 0 0 0 0 0.526167 0 0 0 0 0.265417 0 0 0 0.5 0" />
			<feBlend mode="normal" in2="BackgroundImageFix" result="effect1_dropShadow_239_19563" />
			<feBlend mode="normal" in="SourceGraphic" in2="effect1_dropShadow_239_19563" result="shape" />
		</filter>
		<filter id="filter5_f_239_19563" x="85.3256" y="83.1342" width="104.068" height="55.7599" filterUnits="userSpaceOnUse" color-interpolation-filters="sRGB">
			<feFlood flood-opacity="0" result="BackgroundImageFix" />
			<feBlend mode="normal" in="SourceGraphic" in2="BackgroundImageFix" result="shape" />
			<feGaussianBlur stdDeviation="0.119895" result="effect1_foregroundBlur_239_19563" />
		</filter>
		<filter id="filter6_f_239_19563" x="122.699" y="114.691" width="65.9325" height="19.0429" filterUnits="userSpaceOnUse" color-interpolation-filters="sRGB">
			<feFlood flood-opacity="0" result="BackgroundImageFix" />
			<feBlend mode="normal" in="SourceGraphic" in2="BackgroundImageFix" result="shape" />
			<feGaussianBlur stdDeviation="1.5986" result="effect1_foregroundBlur_239_19563" />
		</filter>
		<linearGradient id="paint0_linear_239_19563" x1="20.1463" y1="36.4483" x2="69.8778" y2="88.5641" gradientUnits="userSpaceOnUse">
			<stop offset="0.220856" stop-color="#FAFAFA" />
			<stop offset="1" stop-color="#D8D9E1" />
		</linearGradient>
		<linearGradient id="paint1_linear_239_19563" x1="19.8488" y1="36.7428" x2="97.0148" y2="94.0368" gradientUnits="userSpaceOnUse">
			<stop stop-color="#F8F8F9" stop-opacity="0.46" />
			<stop offset="0.575358" stop-color="#F8F8F9" />
			<stop offset="0.783289" stop-color="white" />
			<stop offset="0.884809" stop-color="white" stop-opacity="0.19" />
		</linearGradient>
		<linearGradient id="paint2_linear_239_19563" x1="39.2246" y1="65.2486" x2="79.3265" y2="106.814" gradientUnits="userSpaceOnUse">
			<stop offset="0.220856" stop-color="#FAFAFA" />
			<stop offset="1" stop-color="#D8D9E1" />
		</linearGradient>
		<linearGradient id="paint3_linear_239_19563" x1="38.7695" y1="65.7109" x2="99.1828" y2="114.134" gradientUnits="userSpaceOnUse">
			<stop stop-color="#F8F8F9" stop-opacity="0.46" />
			<stop offset="0.292773" stop-color="#F8F8F9" stop-opacity="0.45" />
			<stop offset="0.629289" stop-color="white" stop-opacity="0.51" />
			<stop offset="0.742389" stop-color="white" stop-opacity="0.12" />
		</linearGradient>
		<linearGradient id="paint4_linear_239_19563" x1="84.7973" y1="104.231" x2="91.6395" y2="113.914" gradientUnits="userSpaceOnUse">
			<stop offset="0.374859" stop-color="#AD8357" />
			<stop offset="0.986946" stop-color="#714538" />
		</linearGradient>
		<linearGradient id="paint5_linear_239_19563" x1="64.1342" y1="88.9553" x2="95.8844" y2="121.418" gradientUnits="userSpaceOnUse">
			<stop offset="0.220856" stop-color="#FAFAFA" />
			<stop offset="1" stop-color="#D8D9E1" />
		</linearGradient>
		<linearGradient id="paint6_linear_239_19563" x1="63.7047" y1="89.3828" x2="109.563" y2="129.781" gradientUnits="userSpaceOnUse">
			<stop stop-color="#F8F8F9" stop-opacity="0.46" />
			<stop offset="0.21882" stop-color="#F8F8F9" stop-opacity="0.67" />
			<stop offset="0.45675" stop-color="white" stop-opacity="0.46" />
			<stop offset="0.742389" stop-color="white" stop-opacity="0" />
		</linearGradient>
		<linearGradient id="paint7_linear_239_19563" x1="95.1344" y1="113.748" x2="101.938" y2="121.867" gradientUnits="userSpaceOnUse">
			<stop offset="0.374859" stop-color="#AD8357" />
			<stop offset="0.986946" stop-color="#714538" />
		</linearGradient>
		<linearGradient id="paint8_linear_239_19563" x1="96.8091" y1="115.923" x2="106.534" y2="138.804" gradientUnits="userSpaceOnUse">
			<stop stop-color="#EFEFEF" />
			<stop offset="0.411026" stop-color="#DEDFE6" />
			<stop offset="0.58979" stop-color="#D1D2D9" />
			<stop offset="1" stop-color="#D1D2D9" />
		</linearGradient>
		<linearGradient id="paint9_linear_239_19563" x1="71.1756" y1="124.196" x2="108.181" y2="134.377" gradientUnits="userSpaceOnUse">
			<stop stop-color="#F8F8F9" stop-opacity="0.86" />
			<stop offset="0.319253" stop-color="#F8F8F9" />
			<stop offset="0.615431" stop-color="white" stop-opacity="0.88" />
			<stop offset="0.867925" stop-color="white" />
		</linearGradient>
		<linearGradient id="paint10_linear_239_19563" x1="115.183" y1="125.911" x2="117.825" y2="119.312" gradientUnits="userSpaceOnUse">
			<stop offset="0.374859" stop-color="#AD8357" />
			<stop offset="0.986946" stop-color="#714538" />
		</linearGradient>
		<linearGradient id="paint11_linear_239_19563" x1="122.052" y1="120.932" x2="135.951" y2="148.054" gradientUnits="userSpaceOnUse">
			<stop offset="0.0306468" stop-color="#DBDCE7" />
			<stop offset="0.274204" stop-color="#CBCCD7" />
			<stop offset="0.675444" stop-color="#D1D2D9" />
		</linearGradient>
		<linearGradient id="paint12_linear_239_19563" x1="118.003" y1="124.95" x2="145.286" y2="145.864" gradientUnits="userSpaceOnUse">
			<stop stop-color="#F8F8F9" stop-opacity="0.78" />
			<stop offset="0.319253" stop-color="#F8F8F9" stop-opacity="0" />
			<stop offset="0.615431" stop-color="white" stop-opacity="0" />
			<stop offset="0.867925" stop-color="white" stop-opacity="0" />
		</linearGradient>
		<linearGradient id="paint13_linear_239_19563" x1="81.9216" y1="87.4338" x2="94.2107" y2="99.7631" gradientUnits="userSpaceOnUse">
			<stop stop-color="white" />
			<stop offset="1" stop-color="white" stop-opacity="0" />
		</linearGradient>
		<linearGradient id="paint14_linear_239_19563" x1="84.9948" y1="90.3403" x2="186.735" y2="136.402" gradientUnits="userSpaceOnUse">
			<stop stop-color="#594530" />
			<stop offset="0.667292" stop-color="#7A5D3F" />
			<stop offset="1" stop-color="#564029" />
		</linearGradient>
		<linearGradient id="paint15_linear_239_19563" x1="77.6069" y1="91.7351" x2="189.743" y2="124.977" gradientUnits="userSpaceOnUse">
			<stop stop-color="#926C45" />
			<stop offset="0.198565" stop-color="#B98D5F" />
			<stop offset="0.568549" stop-color="#B98D5F" />
			<stop offset="1" stop-color="#94693C" />
		</linearGradient>
		<linearGradient id="paint16_linear_239_19563" x1="114.328" y1="111.313" x2="121.337" y2="126.799" gradientUnits="userSpaceOnUse">
			<stop stop-color="#B98D5F" />
			<stop offset="0.0810439" stop-color="#B98D5F" />
			<stop offset="0.312564" stop-color="#ECD4AF" />
			<stop offset="0.465883" stop-color="#FDEED8" />
			<stop offset="0.619479" stop-color="#ECD4AF" />
			<stop offset="0.845306" stop-color="#B98D5F" />
			<stop offset="1" stop-color="#B98D5F" />
		</linearGradient>
		<linearGradient id="paint17_linear_239_19563" x1="103.07" y1="113.054" x2="177.966" y2="121.968" gradientUnits="userSpaceOnUse">
			<stop offset="0.00453841" stop-color="#B98D5F" />
			<stop offset="0.184436" stop-color="white" />
			<stop offset="0.808004" stop-color="#D3B790" />
			<stop offset="0.912608" stop-color="#F7E1C2" />
			<stop offset="1" stop-color="#D3B790" />
		</linearGradient>
	</defs>
</svg>
