<svg width="625" height="420" viewBox="0 0 625 420" fill="none" xmlns="http://www.w3.org/2000/svg">
	<path d="M232.562 217.52L2.66406 339.387L49.2175 418.556L267.477 276.897L232.562 217.52Z" fill="url(#paint0_linear_21_4)" />
	<path d="M271.428 281.484L260.824 391.465L352.663 390.733L340.308 280.935L271.428 281.484Z" fill="url(#paint1_linear_21_4)" />
	<path d="M345.769 277.1L566.258 415.265L611.544 335.363L379.734 217.174L345.769 277.1Z" fill="url(#paint2_linear_21_4)" />
	<path d="M232.485 207.887L0.675293 89.6982L45.9616 9.79696L266.45 147.961L232.485 207.887Z" fill="url(#paint3_linear_21_4)" />
	<path d="M344.729 146.511L562.988 4.85254L609.541 84.0223L379.644 205.889L344.729 146.511Z" fill="url(#paint4_linear_21_4)" />
	<path d="M280.363 223.623L12.8735 85.2115L58.1599 5.31027L314.328 163.697L280.363 223.623Z" fill="url(#paint5_linear_21_4)" />
	<path d="M320.08 163.692L575.187 0.365723L621.74 79.5354L354.995 223.069L320.08 163.692Z" fill="url(#paint6_linear_21_4)" />
	<path d="M278.789 277.636L267.289 33.6359L359.289 33.6359L347.789 277.636L278.789 277.636Z" fill="url(#paint7_linear_21_4)" />
	<path d="M282.539 277.636L272.289 33.6359L354.289 33.6359L344.039 277.636L282.539 277.636Z" fill="url(#paint8_linear_21_4)" />
	<defs>
		<linearGradient id="paint0_linear_21_4" x1="25.9408" y1="378.972" x2="250.019" y2="247.209" gradientUnits="userSpaceOnUse">
			<stop stop-color="#FFF6D6" stop-opacity="0" />
			<stop offset="1" stop-color="#FFEFC5" stop-opacity="0.4" />
		</linearGradient>
		<linearGradient id="paint1_linear_21_4" x1="306.744" y1="391.099" x2="305.868" y2="281.209" gradientUnits="userSpaceOnUse">
			<stop stop-color="#FFF6D6" stop-opacity="0" />
			<stop offset="1" stop-color="#FFEFC5" stop-opacity="0.4" />
		</linearGradient>
		<linearGradient id="paint2_linear_21_4" x1="588.901" y1="375.314" x2="362.752" y2="247.137" gradientUnits="userSpaceOnUse">
			<stop stop-color="#FFF6D6" stop-opacity="0" />
			<stop offset="1" stop-color="#FFEFC5" stop-opacity="0.4" />
		</linearGradient>
		<linearGradient id="paint3_linear_21_4" x1="23.3185" y1="49.7476" x2="249.468" y2="177.924" gradientUnits="userSpaceOnUse">
			<stop stop-color="#FFF6D6" stop-opacity="0" />
			<stop offset="1" stop-color="#FFEFC5" stop-opacity="0.4" />
		</linearGradient>
		<linearGradient id="paint4_linear_21_4" x1="586.265" y1="44.4374" x2="362.186" y2="176.2" gradientUnits="userSpaceOnUse">
			<stop stop-color="#FFF6D6" stop-opacity="0" />
			<stop offset="1" stop-color="#FFEFC5" stop-opacity="0.4" />
		</linearGradient>
		<linearGradient id="paint5_linear_21_4" x1="35.5167" y1="45.2609" x2="297.345" y2="193.66" gradientUnits="userSpaceOnUse">
			<stop stop-color="#FFF6D6" stop-opacity="0" />
			<stop offset="1" stop-color="#FFEFC5" stop-opacity="0.4" />
		</linearGradient>
		<linearGradient id="paint6_linear_21_4" x1="598.463" y1="39.9506" x2="337.537" y2="193.38" gradientUnits="userSpaceOnUse">
			<stop stop-color="#FFF6D6" stop-opacity="0" />
			<stop offset="1" stop-color="#FFEFC5" stop-opacity="0.4" />
		</linearGradient>
		<linearGradient id="paint7_linear_21_4" x1="313.289" y1="33.6359" x2="313.289" y2="277.636" gradientUnits="userSpaceOnUse">
			<stop stop-color="#FFF6D6" stop-opacity="0" />
			<stop offset="1" stop-color="#FFEFC5" stop-opacity="0.4" />
		</linearGradient>
		<linearGradient id="paint8_linear_21_4" x1="313.289" y1="33.6359" x2="313.289" y2="277.636" gradientUnits="userSpaceOnUse">
			<stop stop-color="#FFF6D6" stop-opacity="0" />
			<stop offset="1" stop-color="#FFEFC5" stop-opacity="0.4" />
		</linearGradient>
	</defs>
</svg>
