<svg width="394" height="371" viewBox="0 0 394 371" fill="none" xmlns="http://www.w3.org/2000/svg">
	<path d="M170.544 192.16L76.9713 343.265L124.986 370.479L206.556 212.57L170.544 192.16Z" fill="url(#paint0_linear_66_2)" />
	<path d="M188.586 214.398L272.265 370.486L320.438 342.16L224.715 193.153L188.586 214.398Z" fill="url(#paint1_linear_66_2)" />
	<path d="M213.724 207.941L393.079 213.411L392.639 158.221L213.394 166.548L213.724 207.941Z" fill="url(#paint2_linear_66_2)" />
	<path d="M181.709 205.579L0.912292 213.918L0.473267 158.728L181.379 164.186L181.709 205.579Z" fill="url(#paint3_linear_66_2)" />
	<path d="M184.371 162.455L268.061 0.804718L316.077 28.0189L220.383 182.866L184.371 162.455Z" fill="url(#paint4_linear_66_2)" />
	<defs>
		<linearGradient id="paint0_linear_66_2" x1="100.979" y1="356.872" x2="188.55" y2="202.365" gradientUnits="userSpaceOnUse">
			<stop stop-color="#FFF6D6" stop-opacity="0" />
			<stop offset="1" stop-color="#FFEFC5" stop-opacity="0.4" />
		</linearGradient>
		<linearGradient id="paint1_linear_66_2" x1="296.352" y1="356.323" x2="206.651" y2="203.775" gradientUnits="userSpaceOnUse">
			<stop stop-color="#FFF6D6" stop-opacity="0" />
			<stop offset="1" stop-color="#FFEFC5" stop-opacity="0.4" />
		</linearGradient>
		<linearGradient id="paint2_linear_66_2" x1="392.859" y1="185.816" x2="213.559" y2="187.244" gradientUnits="userSpaceOnUse">
			<stop stop-color="#FFF6D6" stop-opacity="0" />
			<stop offset="1" stop-color="#FFEFC5" stop-opacity="0.4" />
		</linearGradient>
		<linearGradient id="paint3_linear_66_2" x1="0.692267" y1="186.323" x2="181.544" y2="184.882" gradientUnits="userSpaceOnUse">
			<stop stop-color="#FFF6D6" stop-opacity="0" />
			<stop offset="1" stop-color="#FFEFC5" stop-opacity="0.4" />
		</linearGradient>
		<linearGradient id="paint4_linear_66_2" x1="292.069" y1="14.4118" x2="202.377" y2="172.661" gradientUnits="userSpaceOnUse">
			<stop stop-color="#FFF6D6" stop-opacity="0" />
			<stop offset="1" stop-color="#FFEFC5" stop-opacity="0.4" />
		</linearGradient>
	</defs>
</svg>
