<svg width="180" height="185" viewBox="0 0 180 185" fill="none" xmlns="http://www.w3.org/2000/svg">
	<g opacity="0.5" filter="url(#filter0_f_239_19624)">
		<circle r="4.27508" transform="matrix(-0.861972 0.506955 0.506955 0.861972 60.5233 43.3132)" fill="url(#paint0_radial_239_19624)" />
	</g>
	<g filter="url(#filter1_f_239_19624)">
		<path fill-rule="evenodd" clip-rule="evenodd" d="M124.471 150.637C94.9612 167.992 56.969 158.14 39.6132 128.63C22.2574 99.1197 32.1103 61.1275 61.6202 43.7717C91.1302 26.4159 129.122 36.2688 146.478 65.7787C163.834 95.2887 153.981 133.281 124.471 150.637ZM125.194 151.865C95.0052 169.62 56.1397 159.54 38.3849 129.352C20.6301 99.1638 30.7095 60.2982 60.8978 42.5434C91.0861 24.7886 129.952 34.868 147.706 65.0563C165.461 95.2446 155.382 134.11 125.194 151.865Z" fill="url(#paint1_linear_239_19624)" />
	</g>
	<path fill-rule="evenodd" clip-rule="evenodd" d="M124.471 150.637C94.9612 167.992 56.969 158.14 39.6132 128.63C22.2574 99.1197 32.1103 61.1275 61.6202 43.7717C91.1302 26.4159 129.122 36.2688 146.478 65.7787C163.834 95.2887 153.981 133.281 124.471 150.637ZM125.194 151.865C95.0052 169.62 56.1397 159.54 38.3849 129.352C20.6301 99.1638 30.7095 60.2982 60.8978 42.5434C91.0861 24.7886 129.952 34.868 147.706 65.0563C165.461 95.2446 155.382 134.11 125.194 151.865Z" fill="url(#paint2_linear_239_19624)" />
	<g filter="url(#filter2_f_239_19624)">
		<path d="M54.7447 33.4054L58.4375 42.6709L51.337 48.7309L60.0839 45.4704L66.387 53.2008L62.6943 43.9352L69.7948 37.8752L61.0478 41.1357L54.7447 33.4054Z" fill="white" />
	</g>
	<defs>
		<filter id="filter0_f_239_19624" x="52.5974" y="35.3869" width="15.8516" height="15.8521" filterUnits="userSpaceOnUse" color-interpolation-filters="sRGB">
			<feFlood flood-opacity="0" result="BackgroundImageFix" />
			<feBlend mode="normal" in="SourceGraphic" in2="BackgroundImageFix" result="shape" />
			<feGaussianBlur stdDeviation="1.82509" result="effect1_foregroundBlur_239_19624" />
		</filter>
		<filter id="filter1_f_239_19624" x="11.3712" y="15.5294" width="163.349" height="163.349" filterUnits="userSpaceOnUse" color-interpolation-filters="sRGB">
			<feFlood flood-opacity="0" result="BackgroundImageFix" />
			<feBlend mode="normal" in="SourceGraphic" in2="BackgroundImageFix" result="shape" />
			<feGaussianBlur stdDeviation="9.12545" result="effect1_foregroundBlur_239_19624" />
		</filter>
		<filter id="filter2_f_239_19624" x="50.2419" y="32.3102" width="20.6481" height="21.986" filterUnits="userSpaceOnUse" color-interpolation-filters="sRGB">
			<feFlood flood-opacity="0" result="BackgroundImageFix" />
			<feBlend mode="normal" in="SourceGraphic" in2="BackgroundImageFix" result="shape" />
			<feGaussianBlur stdDeviation="0.547527" result="effect1_foregroundBlur_239_19624" />
		</filter>
		<radialGradient id="paint0_radial_239_19624" cx="0" cy="0" r="1" gradientUnits="userSpaceOnUse" gradientTransform="translate(4.27508 4.27508) rotate(90) scale(6.84012)">
			<stop stop-color="#E7ECFF" />
			<stop offset="0.979167" stop-color="#ABC3FF" stop-opacity="0.8825" />
			<stop offset="1" stop-color="#AACCFF" stop-opacity="0.88" />
		</radialGradient>
		<linearGradient id="paint1_linear_239_19624" x1="61.0543" y1="43.278" x2="112.587" y2="130.899" gradientUnits="userSpaceOnUse">
			<stop stop-color="#D2DFFF" stop-opacity="0.89" />
			<stop offset="0.28125" stop-color="#CCDDFF" stop-opacity="0.2" />
			<stop offset="1" stop-color="#56D7E0" stop-opacity="0" />
		</linearGradient>
		<linearGradient id="paint2_linear_239_19624" x1="61.0543" y1="43.278" x2="112.587" y2="130.899" gradientUnits="userSpaceOnUse">
			<stop stop-color="#DEE7FF" />
			<stop offset="0.0722622" stop-color="#CCDDFF" stop-opacity="0.33" />
			<stop offset="1" stop-color="#98C6F0" stop-opacity="0" />
		</linearGradient>
	</defs>
</svg>
