<svg width="705" height="341" viewBox="0 0 705 341" fill="none" xmlns="http://www.w3.org/2000/svg">
	<mask id="mask0_263_525" style="mask-type:alpha" maskUnits="userSpaceOnUse" x="180" y="17" width="448" height="434">
		<path d="M288.992 164.99C183.003 278.574 148.366 401.557 211.601 439.668C274.853 477.792 412.014 416.593 517.995 302.996C623.992 189.398 658.638 66.441 595.402 28.3235C532.167 -9.77434 394.981 51.3792 288.992 164.99Z" fill="url(#paint0_radial_263_525)" />
	</mask>
	<g mask="url(#mask0_263_525)">
		<path d="M288.992 164.99C183.003 278.574 148.366 401.557 211.601 439.668C274.853 477.792 412.014 416.593 517.995 302.996C623.992 189.398 658.638 66.441 595.402 28.3235C532.167 -9.77434 394.981 51.3792 288.992 164.99Z" fill="url(#paint1_radial_263_525)" />
	</g>
	<path fill-rule="evenodd" clip-rule="evenodd" d="M477.832 -5.38547C450.385 114.331 425.026 146.445 344.278 228.809C423.564 163.883 458.365 124.785 496.5 4.00012L477.832 -5.38547Z" fill="url(#paint2_radial_263_525)" />
	<path fill-rule="evenodd" clip-rule="evenodd" d="M585 4.00002C538.086 123.83 500.5 206 423.5 271C505.108 221 546.768 131.418 602.398 12.7468L585 4.00002Z" fill="url(#paint3_radial_263_525)" />
	<path fill-rule="evenodd" clip-rule="evenodd" d="M564.456 -29.3295C490.508 170.906 368.549 285.44 217.795 328.912C365.911 300.939 500.059 187.25 585 -19.0001L564.456 -29.3295Z" fill="url(#paint4_radial_263_525)" />
	<path fill-rule="evenodd" clip-rule="evenodd" d="M526.395 -30.8624C469.718 117.313 425.428 197.111 293.887 283.549C407.959 229.637 477.054 141.136 548.001 -20L526.395 -30.8624Z" fill="url(#paint5_radial_263_525)" />
	<path fill-rule="evenodd" clip-rule="evenodd" d="M582.689 -1.20941C508.233 178.745 423.638 266.308 273.829 325.944C417.386 285.256 517.212 193.579 602 8.49976L582.689 -1.20941Z" fill="url(#paint6_radial_263_525)" />
	<defs>
		<radialGradient id="paint0_radial_263_525" cx="0" cy="0" r="1" gradientUnits="userSpaceOnUse" gradientTransform="translate(403.508 233.997) rotate(-148.922) scale(133.695 275.205)">
			<stop stop-color="white" />
			<stop offset="0.0994" stop-color="#E1E1E1" />
			<stop offset="0.435" stop-color="#828282" />
			<stop offset="0.7068" stop-color="#3C3C3C" />
			<stop offset="0.9014" stop-color="#111111" />
			<stop offset="1" />
		</radialGradient>
		<radialGradient id="paint1_radial_263_525" cx="0" cy="0" r="1" gradientUnits="userSpaceOnUse" gradientTransform="translate(403.493 233.991) rotate(-149.511) scale(117.558 280.806)">
			<stop stop-color="#FFEC29" />
			<stop offset="0.1534" stop-color="#FFD026" />
			<stop offset="0.5587" stop-color="#FF8B1E" stop-opacity="0.53" />
			<stop offset="0.8515" stop-color="#FF6019" stop-opacity="0" />
			<stop offset="1" stop-color="#FF4F17" stop-opacity="0" />
		</radialGradient>
		<radialGradient id="paint2_radial_263_525" cx="0" cy="0" r="1" gradientUnits="userSpaceOnUse" gradientTransform="translate(349.108 226.678) rotate(-50.0893) scale(260.249 152.803)">
			<stop stop-color="#FFEC29" />
			<stop offset="0.1534" stop-color="#FFD026" />
			<stop offset="0.5587" stop-color="#FF8B1E" stop-opacity="0.53" />
			<stop offset="0.8515" stop-color="#FF6019" stop-opacity="0" />
			<stop offset="1" stop-color="#FF4F17" stop-opacity="0" />
		</radialGradient>
		<radialGradient id="paint3_radial_263_525" cx="0" cy="0" r="1" gradientUnits="userSpaceOnUse" gradientTransform="translate(428.678 268.335) rotate(-51.5147) scale(299.06 156.522)">
			<stop stop-color="#FFEC29" />
			<stop offset="0.1534" stop-color="#FFD026" />
			<stop offset="0.5587" stop-color="#FF8B1E" stop-opacity="0.53" />
			<stop offset="0.8515" stop-color="#FF6019" stop-opacity="0" />
			<stop offset="1" stop-color="#FF4F17" stop-opacity="0" />
		</radialGradient>
		<radialGradient id="paint4_radial_263_525" cx="0" cy="0" r="1" gradientUnits="userSpaceOnUse" gradientTransform="translate(233 328.5) rotate(-35.9605) scale(504.064 561.812)">
			<stop stop-color="#FFEC29" />
			<stop offset="0.1534" stop-color="#FFD026" />
			<stop offset="0.5587" stop-color="#FF8B1E" stop-opacity="0.53" />
			<stop offset="0.8515" stop-color="#FF6019" stop-opacity="0" />
			<stop offset="1" stop-color="#FF4F17" stop-opacity="0" />
		</radialGradient>
		<radialGradient id="paint5_radial_263_525" cx="0" cy="0" r="1" gradientUnits="userSpaceOnUse" gradientTransform="translate(302.796 281.502) rotate(-44.5731) scale(382.913 313.36)">
			<stop stop-color="#FFEC29" />
			<stop offset="0.1534" stop-color="#FFD026" />
			<stop offset="0.5587" stop-color="#FF8B1E" stop-opacity="0.53" />
			<stop offset="0.8515" stop-color="#FF6019" stop-opacity="0" />
			<stop offset="1" stop-color="#FF4F17" stop-opacity="0" />
		</radialGradient>
		<radialGradient id="paint6_radial_263_525" cx="0" cy="0" r="1" gradientUnits="userSpaceOnUse" gradientTransform="translate(287.124 325.33) rotate(-36.9829) scale(452.545 490.688)">
			<stop stop-color="#FFEC29" />
			<stop offset="0.1534" stop-color="#FFD026" />
			<stop offset="0.5587" stop-color="#FF8B1E" stop-opacity="0.53" />
			<stop offset="0.8515" stop-color="#FF6019" stop-opacity="0" />
			<stop offset="1" stop-color="#FF4F17" stop-opacity="0" />
		</radialGradient>
	</defs>
</svg>
