<svg width="91" height="82" viewBox="0 0 91 82" fill="none" xmlns="http://www.w3.org/2000/svg">
	<g>
		<path d="M24.9393 1.28828L63.3703 0.00298263C65.3173 -0.0621174 67.1443 0.942484 68.1313 2.62148L89.4253 38.8272C90.4123 40.5062 90.4033 42.5907 89.4003 44.2605L69.5993 77.2233C68.6713 78.7693 67.0223 79.7391 65.2193 79.7994L26.7883 81.0847C24.8413 81.1498 23.0153 80.1452 22.0273 78.4662L0.733311 42.2606C-0.253689 40.5816 -0.243688 38.497 0.759312 36.8272L20.5593 3.86438C21.4883 2.31848 23.1373 1.34858 24.9393 1.28828Z" fill="url(#paint0_linear_57_1807)" />
		<path d="M28.4564 7.19869L60.0963 6.14049C62.0353 6.07559 63.8554 7.07649 64.8394 8.74919L82.3914 38.594C83.3754 40.2666 83.3663 42.3434 82.3663 44.0068L66.0653 71.1444C65.1403 72.6846 63.4974 73.6508 61.7014 73.7108L30.0623 74.769C28.1223 74.8339 26.3033 73.833 25.3193 72.1603L7.76636 42.3155C6.78236 40.6428 6.79232 38.5661 7.79132 36.9026L24.0933 9.76509C25.0183 8.22489 26.6614 7.25869 28.4564 7.19869Z" fill="url(#paint1_linear_57_1807)" />
		<g filter="url(#filter0_f_57_1807)">
			<path d="M28.4564 7.19869L60.0963 6.14049C62.0353 6.07559 63.8554 7.07649 64.8394 8.74919L82.3914 38.594C83.3754 40.2666 83.3663 42.3434 82.3663 44.0068L66.0653 71.1444C65.1403 72.6846 63.4974 73.6508 61.7014 73.7108L30.0623 74.769C28.1223 74.8339 26.3033 73.833 25.3193 72.1603L7.76636 42.3155C6.78236 40.6428 6.79232 38.5661 7.79132 36.9026L24.0933 9.76509C25.0183 8.22489 26.6614 7.25869 28.4564 7.19869Z" stroke="url(#paint2_linear_57_1807)" stroke-width="0.312761" />
		</g>
		<g opacity="0.5">
			<mask id="mask0_57_1807" style="mask-type:alpha" maskUnits="userSpaceOnUse" x="9" y="9" width="71" height="64">
				<g opacity="0.5">
					<path opacity="0.5" d="M29.7243 10.0005L58.6793 9.02121C60.5253 8.95871 62.2574 9.91081 63.1934 11.5025L79.2464 38.7981C80.1834 40.3898 80.1734 42.366 79.2224 43.9486L64.2934 68.779C63.4134 70.2426 61.8523 71.1608 60.1453 71.2186L31.1894 72.1979C29.3444 72.2603 27.6123 71.3082 26.6763 69.7165L10.6234 42.4209C9.68637 40.8293 9.69636 38.853 10.6474 37.2705L25.5764 12.44C26.4564 10.9765 28.0173 10.0582 29.7243 10.0005Z" fill="#A6D3DE" />
				</g>
			</mask>
			<g mask="url(#mask0_57_1807)">
				<g opacity="0.5">
					<path opacity="0.5" d="M29.7243 10.0005L58.6793 9.02121C60.5253 8.95871 62.2574 9.91081 63.1934 11.5025L79.2464 38.7981C80.1834 40.3898 80.1734 42.366 79.2224 43.9486L64.2934 68.779C63.4134 70.2426 61.8523 71.1608 60.1453 71.2186L31.1894 72.1979C29.3444 72.2603 27.6123 71.3082 26.6763 69.7165L10.6234 42.4209C9.68637 40.8293 9.69636 38.853 10.6474 37.2705L25.5764 12.44C26.4564 10.9765 28.0173 10.0582 29.7243 10.0005Z" fill="url(#paint3_radial_57_1807)" />
					<path opacity="0.5" d="M67.9863 69.7467L31.7153 5.68561L20.8383 12.0825L59.1984 74.9154L67.9863 69.7467Z" fill="url(#paint4_linear_57_1807)" />
					<path opacity="0.5" d="M67.7953 69.1015L68.4133 -4.51257L55.7963 -4.41097L57.5993 69.1836L67.7953 69.1015Z" fill="url(#paint5_linear_57_1807)" />
					<path opacity="0.5" d="M66.1183 64.1741L2.67535 26.8312L-3.54565 37.8093L61.0913 73.0445L66.1183 64.1741Z" fill="url(#paint6_linear_57_1807)" />
					<path opacity="0.5" d="M16.517 52.44L69.0873 21.5216L89.1665 55.6621L36.5961 86.5805L16.517 52.44Z" fill="url(#paint7_linear_57_1807)" />
					<g opacity="0.5" filter="url(#filter1_i_57_1807)">
						<path opacity="0.5" d="M29.7243 10.0005L58.6793 9.02121C60.5253 8.95871 62.2574 9.91081 63.1934 11.5025L79.2464 38.7981C80.1834 40.3898 80.1734 42.366 79.2224 43.9486L64.2934 68.779C63.4134 70.2426 61.8523 71.1608 60.1453 71.2186L31.1894 72.1979C29.3444 72.2603 27.6123 71.3082 26.6763 69.7165L10.6234 42.4209C9.68637 40.8293 9.69636 38.853 10.6474 37.2705L25.5764 12.44C26.4564 10.9765 28.0173 10.0582 29.7243 10.0005Z" fill="#6052B4" fill-opacity="0.01" />
					</g>
				</g>
			</g>
		</g>
		<g filter="url(#filter2_d_57_1807)">
			<path d="M46.2673 49.311L52.2493 45.7931L58.9333 57.158L52.9514 60.676L46.2673 49.311Z" fill="#D7D9DE" />
			<path opacity="0.2" d="M46.2683 49.3103L48.0623 48.2549L54.7473 59.6198L52.9523 60.6752L46.2683 49.3103Z" fill="#C8CAD2" />
			<path d="M50.2083 61.4832L60.9743 55.1509C62.9483 53.99 65.5133 54.6551 66.6743 56.6291L48.7293 67.1829C47.5693 65.209 48.2343 62.6442 50.2083 61.4832Z" fill="#EFEFF1" />
			<path d="M50.2073 61.4826L53.1984 59.7236C51.2244 60.8845 50.5593 63.4494 51.7203 65.4233L48.7293 67.1823C47.5683 65.2084 48.2333 62.6435 50.2073 61.4826Z" fill="#E7E8EB" />
			<path d="M49.0223 54.1306L55.1234 50.5423C56.7384 49.5925 57.2803 47.5026 56.3303 45.8875L55.9434 45.2296L43.9803 52.2655L44.3673 52.9235C45.3173 54.5385 47.4073 55.0805 49.0223 54.1306Z" fill="#EFEFF1" />
			<path d="M46.3734 50.8594L46.7603 51.5174C47.7093 53.1324 49.2013 54.0262 50.8163 53.0763L49.0223 54.1317C47.4073 55.0816 45.3173 54.5396 44.3673 52.9245L43.9803 52.2666L46.3734 50.8594Z" fill="#E7E8EB" />
			<path d="M47.5333 67.887L67.8704 55.9259C67.4834 55.2679 66.6283 55.0462 65.9703 55.4332L48.0253 65.9871C47.3673 66.374 47.1463 67.229 47.5333 67.887Z" fill="#D7D9DE" />
			<path opacity="0.2" d="M48.0243 65.9876L51.0153 64.2286C50.3573 64.6156 50.1353 65.4705 50.5223 66.1285L47.5323 67.8875C47.1453 67.2295 47.3663 66.3746 48.0243 65.9876Z" fill="#C8CAD2" />
			<path d="M42.0803 51.7723L56.4354 43.3292L57.4913 45.1237C57.8783 45.7816 57.6564 46.6366 56.9984 47.0236L45.0353 54.0595C44.3773 54.4465 43.5223 54.2247 43.1353 53.5668L42.0803 51.7723Z" fill="#F9A74E" />
			<path d="M42.0803 51.7723L56.4354 43.3292L57.4913 45.1237C57.8783 45.7816 57.6564 46.6366 56.9984 47.0236L45.0353 54.0595C44.3773 54.4465 43.5223 54.2247 43.1353 53.5668L42.0803 51.7723Z" fill="#D7D9DE" />
			<path opacity="0.2" d="M45.0723 50.0112L47.3243 51.1021C46.7263 51.4539 47.3693 52.6854 48.0273 52.2984L45.0374 54.0574C44.3794 54.4443 43.5243 54.2226 43.1373 53.5646L42.0814 51.7702L45.0723 50.0112Z" fill="#C8CAD2" />
			<path d="M29.6263 33.335L18.2614 40.0192L18.6133 40.6173C22.3073 46.898 30.3824 48.992 36.6624 45.2982" stroke="#D7D9DE" stroke-width="1.25105" stroke-miterlimit="10" stroke-linecap="round" stroke-linejoin="round" />
			<path d="M46.3743 23.4859L57.7393 16.8018L58.0903 17.4C61.7843 23.6806 59.6903 31.7552 53.4103 35.4491" stroke="#EFEFF1" stroke-width="1.25105" stroke-miterlimit="10" stroke-linecap="round" stroke-linejoin="round" />
			<path d="M45.3543 52.2616L55.5233 46.2811C59.3513 44.0296 60.6073 39.1849 58.3563 35.3567L47.2744 16.5147L23.3483 30.5866L34.4304 49.4285C36.6814 53.2567 41.5263 54.5131 45.3543 52.2616Z" fill="#EFEFF1" />
			<path opacity="0.3" d="M44.6154 20.4942C44.6154 20.4942 50.5963 30.6629 51.6513 32.4573" stroke="white" stroke-width="0.625523" stroke-miterlimit="10" stroke-linecap="round" stroke-linejoin="round" />
			<path d="M26.0413 29.1527L37.0753 47.9144C39.3173 51.7263 43.8533 53.1467 47.3043 51.1171L44.6083 52.7027C41.1573 54.7322 36.6213 53.3119 34.3793 49.5L23.3453 30.7383L26.0413 29.1527Z" fill="#E7E8EB" />
			<path d="M21.4293 31.7149L48.9443 15.5323L48.2053 18.3821L24.2783 32.454L21.4293 31.7149Z" fill="#D7D9DE" />
			<path opacity="0.2" d="M24.7363 29.5587L26.9923 30.7719L24.1273 32.4566L21.2993 31.5802L24.7363 29.5587Z" fill="#C8CAD2" />
			<path d="M19.4243 29.6748L48.1353 12.7886C48.7933 12.4017 49.6483 12.6234 50.0353 13.2814C50.4223 13.9393 50.2003 14.7942 49.5423 15.1812L20.8313 32.0674C20.1733 32.4544 19.3183 32.2327 18.9313 31.5747C18.5443 30.9168 18.7663 30.0618 19.4243 29.6748Z" fill="#EFEFF1" />
			<path d="M19.4233 29.6743L23.0123 27.5635C22.3543 27.9505 22.1323 28.8055 22.5193 29.4634C22.9063 30.1214 23.7613 30.3431 24.4193 29.9562L20.8303 32.0669C20.1723 32.4539 19.3173 32.2322 18.9303 31.5742C18.5433 30.9162 18.7653 30.0613 19.4233 29.6743Z" fill="#E7E8EB" />
			<path opacity="0.3" d="M53.2003 35.0898L54.0093 36.4656" stroke="white" stroke-width="0.625523" stroke-miterlimit="10" stroke-linecap="round" stroke-linejoin="round" />
		</g>
	</g>
	<defs>
		<filter id="filter0_f_57_1807" x="6.78494" y="5.88731" width="76.5882" height="69.1349" filterUnits="userSpaceOnUse" color-interpolation-filters="sRGB">
			<feFlood flood-opacity="0" result="BackgroundImageFix" />
			<feBlend mode="normal" in="SourceGraphic" in2="BackgroundImageFix" result="shape" />
			<feGaussianBlur stdDeviation="0.0469142" result="effect1_foregroundBlur_57_1807" />
		</filter>
		<filter id="filter1_i_57_1807" x="9.92731" y="9.01831" width="70.0151" height="63.1825" filterUnits="userSpaceOnUse" color-interpolation-filters="sRGB">
			<feFlood flood-opacity="0" result="BackgroundImageFix" />
			<feBlend mode="normal" in="SourceGraphic" in2="BackgroundImageFix" result="shape" />
			<feColorMatrix in="SourceAlpha" type="matrix" values="0 0 0 0 0 0 0 0 0 0 0 0 0 0 0 0 0 0 127 0" result="hardAlpha" />
			<feOffset />
			<feGaussianBlur stdDeviation="2.10305" />
			<feComposite in2="hardAlpha" operator="arithmetic" k2="-1" k3="1" />
			<feColorMatrix type="matrix" values="0 0 0 0 0.297222 0 0 0 0 0.329917 0 0 0 0 0.445833 0 0 0 1 0" />
			<feBlend mode="normal" in2="shape" result="effect1_innerShadow_57_1807" />
		</filter>
		<filter id="filter2_d_57_1807" x="12.6316" y="10.0961" width="60.2429" height="65.2977" filterUnits="userSpaceOnUse" color-interpolation-filters="sRGB">
			<feFlood flood-opacity="0" result="BackgroundImageFix" />
			<feColorMatrix in="SourceAlpha" type="matrix" values="0 0 0 0 0 0 0 0 0 0 0 0 0 0 0 0 0 0 127 0" result="hardAlpha" />
			<feOffset dy="2.50209" />
			<feGaussianBlur stdDeviation="2.50209" />
			<feColorMatrix type="matrix" values="0 0 0 0 0.656944 0 0 0 0 0.668889 0 0 0 0 0.716667 0 0 0 1 0" />
			<feBlend mode="normal" in2="BackgroundImageFix" result="effect1_dropShadow_57_1807" />
			<feBlend mode="normal" in="SourceGraphic" in2="effect1_dropShadow_57_1807" result="shape" />
		</filter>
		<linearGradient id="paint0_linear_57_1807" x1="41.7523" y1="2.49648" x2="46.8603" y2="80.5878" gradientUnits="userSpaceOnUse">
			<stop stop-color="#FAFAFA" />
			<stop offset="1" stop-color="#C2C4CD" />
		</linearGradient>
		<linearGradient id="paint1_linear_57_1807" x1="44.9543" y1="7.32809" x2="47.1853" y2="70.965" gradientUnits="userSpaceOnUse">
			<stop stop-color="#CDCFD6" />
			<stop offset="1" stop-color="#EFEFF1" />
		</linearGradient>
		<linearGradient id="paint2_linear_57_1807" x1="41.0923" y1="7.24059" x2="42.7293" y2="74.4929" gradientUnits="userSpaceOnUse">
			<stop stop-color="#DDDFE2" />
			<stop offset="1" stop-color="white" />
		</linearGradient>
		<radialGradient id="paint3_radial_57_1807" cx="0" cy="0" r="1" gradientUnits="userSpaceOnUse" gradientTransform="translate(44.9344 40.6095) rotate(59.5388) scale(35.4031 30.4942)">
			<stop stop-color="#F5F7FF" />
			<stop offset="1" stop-color="#B3B5C5" />
		</radialGradient>
		<linearGradient id="paint4_linear_57_1807" x1="26.2763" y1="8.88411" x2="63.5923" y2="72.3311" gradientUnits="userSpaceOnUse">
			<stop stop-color="white" />
			<stop offset="1" stop-color="#F2EDED" stop-opacity="0" />
		</linearGradient>
		<linearGradient id="paint5_linear_57_1807" x1="62.1053" y1="-4.46177" x2="62.6973" y2="69.1425" gradientUnits="userSpaceOnUse">
			<stop stop-color="white" />
			<stop offset="1" stop-color="#F2EDED" stop-opacity="0" />
		</linearGradient>
		<linearGradient id="paint6_linear_57_1807" x1="-0.434655" y1="32.3203" x2="63.6043" y2="68.6093" gradientUnits="userSpaceOnUse">
			<stop stop-color="white" />
			<stop offset="1" stop-color="#F2EDED" stop-opacity="0" />
		</linearGradient>
		<linearGradient id="paint7_linear_57_1807" x1="51.5091" y1="51.7851" x2="61.7959" y2="68.9127" gradientUnits="userSpaceOnUse">
			<stop stop-color="white" stop-opacity="0" />
			<stop offset="1" stop-color="#D0DBFF" />
		</linearGradient>
	</defs>
</svg>
