<svg width="174" height="175" viewBox="0 0 174 175" fill="none" xmlns="http://www.w3.org/2000/svg">
	<g>
		<g filter="url(#filter0_dd_57_1682)">
			<path d="M122.539 95.7988L109.341 73.3578L68.6678 97.2788L81.7458 119.516C82.1128 120.139 82.7848 120.519 83.5078 120.511L108.722 120.242C109.442 120.234 110.103 119.844 110.457 119.217L122.557 97.8158C122.911 97.1888 122.905 96.4198 122.539 95.7988Z" fill="#D8DCEF" />
			<path fill-rule="evenodd" clip-rule="evenodd" d="M97.5197 80.3108L115.331 110.596L122.557 97.8158C122.911 97.1888 122.905 96.4198 122.539 95.7988L109.341 73.3578L97.5197 80.3108Z" fill="#BCC1D2" />
			<path fill-rule="evenodd" clip-rule="evenodd" d="M115.597 110.126L97.9218 80.0728L97.5208 80.3088L115.333 110.594L115.597 110.126Z" fill="#F9F9FC" />
			<path fill-rule="evenodd" clip-rule="evenodd" d="M80.3718 90.1268L98.1837 120.412L83.5027 120.515C82.7827 120.52 82.1137 120.141 81.7487 119.52L68.5508 97.0788L80.3718 90.1268Z" fill="#BCC1D2" />
			<path fill-rule="evenodd" clip-rule="evenodd" d="M97.6447 120.416L79.9698 90.3628L80.3708 90.1278L98.1818 120.412L97.6447 120.416Z" fill="#F9F9FC" />
			<path d="M71.9098 48.6038L97.8817 47.7188C100.645 47.6248 103.237 49.0498 104.639 51.4318L119.098 76.0168C120.499 78.3988 120.484 81.3578 119.059 83.7258L105.664 105.995C104.347 108.184 102.012 109.557 99.4588 109.644L73.4868 110.529C70.7238 110.623 68.1318 109.198 66.7298 106.816L52.2708 82.2308C50.8698 79.8488 50.8848 76.8898 52.3098 74.5218L65.7048 52.2528C67.0218 50.0638 69.3568 48.6908 71.9098 48.6038Z" fill="url(#paint0_linear_57_1682)" />
			<path d="M74.6308 53.1888L95.3428 52.4838C98.0948 52.3898 100.678 53.8098 102.074 56.1828L113.638 75.8458C115.034 78.2188 115.02 81.1668 113.6 83.5258L102.918 101.285C101.606 103.465 99.2798 104.834 96.7368 104.92L76.0248 105.626C73.2728 105.72 70.6898 104.3 69.2938 101.926L57.7298 82.2638C56.3338 79.8898 56.3478 76.9428 57.7678 74.5828L68.4498 56.8248C69.7618 54.6438 72.0878 53.2758 74.6308 53.1888Z" fill="url(#paint1_linear_57_1682)" />
			<g filter="url(#filter1_f_57_1682)">
				<path d="M74.6308 53.1888L95.3428 52.4838C98.0948 52.3898 100.678 53.8098 102.074 56.1828L113.638 75.8458C115.034 78.2188 115.02 81.1668 113.6 83.5258L102.918 101.285C101.606 103.465 99.2798 104.834 96.7368 104.92L76.0248 105.626C73.2728 105.72 70.6898 104.3 69.2938 101.926L57.7298 82.2638C56.3338 79.8898 56.3478 76.9428 57.7678 74.5828L68.4498 56.8248C69.7618 54.6438 72.0878 53.2758 74.6308 53.1888Z" stroke="url(#paint2_linear_57_1682)" stroke-width="0.443555" />
			</g>
			<g opacity="0.5">
				<mask id="mask0_57_1682" style="mask-type:alpha" maskUnits="userSpaceOnUse" x="58" y="54" width="55" height="50">
					<g opacity="0.5">
						<path opacity="0.5" d="M75.5228 55.3648L94.3397 54.7168C96.9587 54.6268 99.4167 55.9768 100.745 58.2358L111.246 76.0898C112.574 78.3478 112.56 81.1528 111.208 83.3978L101.497 99.5278C100.249 101.6 98.0378 102.901 95.6208 102.984L76.8038 103.632C74.1858 103.722 71.7278 102.372 70.3988 100.113L59.8988 82.2588C58.5698 80.0008 58.5848 77.1958 59.9358 74.9508L69.6478 58.8208C70.8948 56.7488 73.1058 55.4488 75.5228 55.3648Z" fill="#A6D3DE" />
					</g>
				</mask>
				<g mask="url(#mask0_57_1682)">
					<g opacity="0.5">
						<path opacity="0.5" d="M75.5228 55.3648L94.3397 54.7168C96.9587 54.6268 99.4167 55.9768 100.745 58.2358L111.246 76.0898C112.574 78.3478 112.56 81.1528 111.208 83.3978L101.497 99.5278C100.249 101.6 98.0378 102.901 95.6208 102.984L76.8038 103.632C74.1858 103.722 71.7278 102.372 70.3988 100.113L59.8988 82.2588C58.5698 80.0008 58.5848 77.1958 59.9358 74.9508L69.6478 58.8208C70.8948 56.7488 73.1058 55.4488 75.5228 55.3648Z" fill="url(#paint3_radial_57_1682)" />
						<path opacity="0.5" d="M103.459 101.778L75.3198 52.0758L66.8688 57.0458L96.6308 105.794L103.459 101.778Z" fill="url(#paint4_linear_57_1682)" />
						<path opacity="0.5" d="M103.311 101.277L103.829 44.1428L94.0287 44.2278L95.3918 101.346L103.311 101.277Z" fill="url(#paint5_linear_57_1682)" />
						<path opacity="0.5" d="M102.011 97.4528L52.7548 68.5018L47.9167 77.0258L98.1017 104.34L102.011 97.4528Z" fill="url(#paint6_linear_57_1682)" />
						<path opacity="0.5" d="M63.4932 88.3721L104.34 64.3488L119.918 90.8362L79.0713 114.859L63.4932 88.3721Z" fill="url(#paint7_linear_57_1682)" />
						<g opacity="0.5" filter="url(#filter2_i_57_1682)">
							<path opacity="0.5" d="M75.5228 55.3648L94.3397 54.7168C96.9587 54.6268 99.4167 55.9768 100.745 58.2358L111.246 76.0898C112.574 78.3478 112.56 81.1528 111.208 83.3978L101.497 99.5278C100.249 101.6 98.0378 102.901 95.6208 102.984L76.8038 103.632C74.1858 103.722 71.7278 102.372 70.3988 100.113L59.8988 82.2588C58.5698 80.0008 58.5848 77.1958 59.9358 74.9508L69.6478 58.8208C70.8948 56.7488 73.1058 55.4488 75.5228 55.3648Z" fill="#6052B4" fill-opacity="0.01" />
						</g>
					</g>
				</g>
			</g>
		</g>
		<g filter="url(#filter3_d_57_1682)">
			<path d="M86.7747 86.3718L91.4678 83.6108L96.7128 92.5288L92.0197 95.2888L86.7747 86.3718Z" fill="#D7D9DE" />
			<path opacity="0.2" d="M86.7747 86.3718L88.1828 85.5438L93.4278 94.4608L92.0197 95.2888L86.7747 86.3718Z" fill="#C8CAD2" />
			<path d="M89.8668 95.9238L98.3148 90.9558C99.8638 90.0448 101.876 90.5669 102.787 92.1159L88.7068 100.397C87.7958 98.8478 88.3178 96.8348 89.8668 95.9238Z" fill="#EFEFF1" />
			<path d="M88.9368 90.1538L93.7238 87.3378C94.9918 86.5928 95.4167 84.9528 94.6707 83.6858L94.3678 83.1698L84.9808 88.6898L85.2848 89.2068C86.0298 90.4738 87.6698 90.8988 88.9368 90.1538Z" fill="#EFEFF1" />
			<path d="M86.8578 87.5858L87.1618 88.1028C87.9068 89.3698 89.0778 90.0708 90.3448 89.3258L88.9368 90.1538C87.6698 90.8988 86.0298 90.4738 85.2848 89.2068L84.9808 88.6898L86.8578 87.5858Z" fill="#E7E8EB" />
			<path d="M87.7677 100.948L103.725 91.5628C103.421 91.0458 102.751 90.8719 102.234 91.1759L88.1537 99.4568C87.6377 99.7608 87.4637 100.431 87.7677 100.948Z" fill="#D7D9DE" />
			<path d="M83.4908 88.3028L94.7548 81.6788L95.5828 83.0868C95.8858 83.6028 95.7118 84.2738 95.1958 84.5768L85.8087 90.0978C85.2927 90.4018 84.6218 90.2278 84.3188 89.7108L83.4908 88.3028Z" fill="#F9A74E" />
			<path d="M83.4908 88.3028L94.7548 81.6788L95.5828 83.0868C95.8858 83.6028 95.7118 84.2738 95.1958 84.5768L85.8087 90.0978C85.2927 90.4018 84.6218 90.2278 84.3188 89.7108L83.4908 88.3028Z" fill="#D7D9DE" />
			<path opacity="0.2" d="M85.8368 86.9228L87.6038 87.7788C87.1348 88.0548 87.6398 89.0208 88.1558 88.7178L85.8098 90.0978C85.2928 90.4018 84.6218 90.2278 84.3188 89.7108L83.4908 88.3028L85.8368 86.9228Z" fill="#C8CAD2" />
			<path d="M73.7178 73.8368L64.8008 79.0808L65.0768 79.5508C67.9748 84.4788 74.3108 86.1218 79.2388 83.2238" stroke="#D7D9DE" stroke-width="3.30412" stroke-miterlimit="10" stroke-linecap="round" stroke-linejoin="round" />
			<path d="M86.8588 66.1088L95.7768 60.8638L96.0528 61.3338C98.9508 66.2618 97.3078 72.5968 92.3798 75.4948" stroke="#EFEFF1" stroke-width="3.30412" stroke-miterlimit="10" stroke-linecap="round" stroke-linejoin="round" />
			<path d="M85.9608 88.7458L93.9398 84.0538C96.9438 82.2868 97.9288 78.4858 96.1628 75.4818L87.4678 60.6978L68.6948 71.7388L77.3898 86.5228C79.1558 89.5268 82.9578 90.5128 85.9608 88.7458Z" fill="#EFEFF1" />
			<path opacity="0.3" d="M85.4798 63.7628C85.4798 63.7628 90.1728 71.7408 91.0008 73.1488" stroke="white" stroke-width="1.65206" stroke-miterlimit="10" stroke-linecap="round" stroke-linejoin="round" />
			<path d="M70.9058 70.5578L79.5627 85.2788C81.3217 88.2698 84.8817 89.3838 87.5887 87.7918L85.4738 89.0358C82.7668 90.6278 79.2068 89.5138 77.4478 86.5228L68.7898 71.8018L70.9058 70.5578Z" fill="#E7E8EB" />
			<path d="M67.2868 72.5658L88.8758 59.8688L88.2957 62.1048L69.5228 73.1458L67.2868 72.5658Z" fill="#D7D9DE" />
			<path opacity="0.2" d="M69.8817 70.8718L71.6518 71.8238L69.4037 73.1458L67.1848 72.4588L69.8817 70.8718Z" fill="#C8CAD2" />
			<path d="M65.7128 70.9668L88.2408 57.7168C88.7568 57.4128 89.4278 57.5868 89.7308 58.1038C90.0348 58.6198 89.8608 59.2909 89.3448 59.5939L66.8168 72.8439C66.3008 73.1469 65.6298 72.9728 65.3258 72.4568C65.0228 71.9408 65.1968 71.2698 65.7128 70.9668Z" fill="#EFEFF1" />
			<path d="M65.7128 70.9658L68.5287 69.3098C68.0117 69.6128 67.8378 70.2838 68.1418 70.7998C68.4458 71.3168 69.1158 71.4908 69.6328 71.1868L66.8168 72.8428C66.2998 73.1468 65.6297 72.9728 65.3257 72.4558C65.0217 71.9398 65.1958 71.2688 65.7128 70.9658Z" fill="#E7E8EB" />
			<path opacity="0.3" d="M92.2148 75.2138L92.8498 76.2928" stroke="white" stroke-width="1.65206" stroke-miterlimit="10" stroke-linecap="round" stroke-linejoin="round" />
		</g>
		<g filter="url(#filter4_f_57_1682)">
			<path d="M93.3767 38.7708C92.572 39.244 91.5361 38.9754 91.0628 38.1707C90.5896 37.3661 90.8582 36.3301 91.6629 35.8569C92.4675 35.3836 93.5035 35.6523 93.9767 36.457C94.45 37.2616 94.1813 38.2976 93.3767 38.7708Z" fill="#AAC9FF" />
		</g>
		<g filter="url(#filter5_f_57_1682)">
			<path d="M89.4734 43.2455C89.2052 43.4032 88.8598 43.3137 88.7021 43.0455C88.5443 42.7772 88.6339 42.4319 88.9021 42.2742C89.1703 42.1164 89.5157 42.206 89.6734 42.4742C89.8311 42.7424 89.7416 43.0877 89.4734 43.2455Z" fill="#AAC9FF" />
		</g>
		<g filter="url(#filter6_f_57_1682)">
			<path d="M126.559 71.1097C125.665 71.6355 124.514 71.337 123.988 70.4429C123.462 69.5489 123.761 68.3978 124.655 67.872C125.549 67.3462 126.7 67.6447 127.226 68.5387C127.751 69.4328 127.453 70.5838 126.559 71.1097Z" fill="#AACCFF" />
		</g>
		<g filter="url(#filter7_f_57_1682)">
			<path d="M51.4212 70.419C50.7954 70.7871 49.9897 70.5781 49.6216 69.9523C49.2535 69.3264 49.4625 68.5207 50.0883 68.1526C50.7141 67.7846 51.5199 67.9935 51.8879 68.6194C52.256 69.2452 52.0471 70.0509 51.4212 70.419Z" fill="#AACCFF" />
		</g>
		<g filter="url(#filter8_f_57_1682)">
			<path d="M50.8184 98.6609C50.1032 99.0816 49.1823 98.8427 48.7617 98.1275C48.341 97.4123 48.5798 96.4914 49.2951 96.0708C50.0103 95.6501 50.9311 95.8889 51.3518 96.6042C51.7725 97.3194 51.5337 98.2402 50.8184 98.6609Z" fill="#AACCFF" />
		</g>
		<g filter="url(#filter9_f_57_1682)">
			<path d="M76.3638 95.4308L73.6058 112.161L63.4278 106.394L76.3638 95.4308Z" fill="url(#paint8_linear_57_1682)" />
		</g>
		<g filter="url(#filter10_f_57_1682)">
			<path d="M104.168 79.0758L120.13 84.7968L120.036 73.0988L104.168 79.0758Z" fill="url(#paint9_linear_57_1682)" />
		</g>
		<mask id="mask1_57_1682" style="mask-type:alpha" maskUnits="userSpaceOnUse" x="108" y="74" width="14" height="12">
			<g>
				<path fill-rule="evenodd" clip-rule="evenodd" d="M118.256 85.6308C118.952 86.0508 119.858 85.7298 120.135 84.9658L121.97 79.8938C121.97 79.8938 121.97 79.8928 121.969 79.8928C121.969 79.8928 121.968 79.8928 121.968 79.8918L120.052 74.8518C119.763 74.0918 118.852 73.7858 118.163 74.2158L108.917 79.9978H108.914C108.913 79.9978 108.913 79.9988 108.914 79.9988V79.9999L108.882 80.0198C108.862 80.0328 108.871 80.0638 108.895 80.0628L109.002 80.0618C109.012 80.0618 109.022 80.0648 109.031 80.0698L118.256 85.6308Z" fill="url(#paint10_linear_57_1682)" />
			</g>
		</mask>
		<g mask="url(#mask1_57_1682)">
			<g>
				<path d="M122.243 79.9268L119.637 86.4198L107.539 79.9928L122.243 79.9268Z" fill="url(#paint11_linear_57_1682)" />
				<path d="M122.243 79.9278L119.533 73.4768L107.913 80.0428L122.243 79.9278Z" fill="url(#paint12_linear_57_1682)" />
			</g>
		</g>
		<mask id="mask2_57_1682" style="mask-type:alpha" maskUnits="userSpaceOnUse" x="65" y="47" width="9" height="11">
			<g>
				<path fill-rule="evenodd" clip-rule="evenodd" d="M67.3998 47.8738H67.3988C67.3978 47.8738 67.3978 47.8738 67.3978 47.8738C67.3988 47.8748 67.3988 47.8749 67.3978 47.8749L65.6828 49.9788C64.6558 51.2388 65.0368 53.1228 66.4718 53.8858L72.9628 57.3359C72.9628 57.3359 72.9628 57.3358 72.9628 57.3368H72.9637C72.9637 57.3378 72.9637 57.3368 72.9637 57.3368C72.9637 57.3368 72.9638 57.3368 72.9648 57.3368L72.9637 57.3359C72.9637 57.3349 72.9637 57.3348 72.9637 57.3348L73.1028 49.9848C73.1338 48.3598 71.6718 47.1118 70.0718 47.3968L67.3998 47.8738Z" fill="url(#paint13_linear_57_1682)" />
			</g>
		</mask>
		<g mask="url(#mask2_57_1682)">
			<g>
				<path d="M67.2567 47.6898L63.6998 52.3748L73.3658 58.0758L67.2567 47.6898Z" fill="url(#paint14_linear_57_1682)" />
				<path d="M67.2558 47.6898L73.0788 46.8578L73.3638 58.0758L67.2558 47.6898Z" fill="url(#paint15_linear_57_1682)" />
			</g>
		</g>
	</g>
	<defs>
		<filter id="filter0_dd_57_1682" x="0.680408" y="0.534448" width="172.687" height="173.9" filterUnits="userSpaceOnUse" color-interpolation-filters="sRGB">
			<feFlood flood-opacity="0" result="BackgroundImageFix" />
			<feColorMatrix in="SourceAlpha" type="matrix" values="0 0 0 0 0 0 0 0 0 0 0 0 0 0 0 0 0 0 127 0" result="hardAlpha" />
			<feOffset />
			<feGaussianBlur stdDeviation="8.425" />
			<feColorMatrix type="matrix" values="0 0 0 0 0.558594 0 0 0 0 0.869297 0 0 0 0 0.9375 0 0 0 0.04 0" />
			<feBlend mode="normal" in2="BackgroundImageFix" result="effect1_dropShadow_57_1682" />
			<feColorMatrix in="SourceAlpha" type="matrix" values="0 0 0 0 0 0 0 0 0 0 0 0 0 0 0 0 0 0 127 0" result="hardAlpha" />
			<feOffset dy="3.37" />
			<feGaussianBlur stdDeviation="25.275" />
			<feColorMatrix type="matrix" values="0 0 0 0 0.92549 0 0 0 0 0.929412 0 0 0 0 0.937255 0 0 0 0.48 0" />
			<feBlend mode="normal" in2="effect1_dropShadow_57_1682" result="effect2_dropShadow_57_1682" />
			<feBlend mode="normal" in="SourceGraphic" in2="effect2_dropShadow_57_1682" result="shape" />
		</filter>
		<filter id="filter1_f_57_1682" x="56.3379" y="52.1246" width="58.6919" height="53.8605" filterUnits="userSpaceOnUse" color-interpolation-filters="sRGB">
			<feFlood flood-opacity="0" result="BackgroundImageFix" />
			<feBlend mode="normal" in="SourceGraphic" in2="BackgroundImageFix" result="shape" />
			<feGaussianBlur stdDeviation="0.0665332" result="effect1_foregroundBlur_57_1682" />
		</filter>
		<filter id="filter2_i_57_1682" x="58.9122" y="54.7126" width="53.3197" height="48.9235" filterUnits="userSpaceOnUse" color-interpolation-filters="sRGB">
			<feFlood flood-opacity="0" result="BackgroundImageFix" />
			<feBlend mode="normal" in="SourceGraphic" in2="BackgroundImageFix" result="shape" />
			<feColorMatrix in="SourceAlpha" type="matrix" values="0 0 0 0 0 0 0 0 0 0 0 0 0 0 0 0 0 0 127 0" result="hardAlpha" />
			<feOffset />
			<feGaussianBlur stdDeviation="2.98252" />
			<feComposite in2="hardAlpha" operator="arithmetic" k2="-1" k3="1" />
			<feColorMatrix type="matrix" values="0 0 0 0 0.297222 0 0 0 0 0.329917 0 0 0 0 0.445833 0 0 0 1 0" />
			<feBlend mode="normal" in2="shape" result="effect1_innerShadow_57_1682" />
		</filter>
		<filter id="filter3_d_57_1682" x="49.932" y="50.9589" width="67.0092" height="69.8136" filterUnits="userSpaceOnUse" color-interpolation-filters="sRGB">
			<feFlood flood-opacity="0" result="BackgroundImageFix" />
			<feColorMatrix in="SourceAlpha" type="matrix" values="0 0 0 0 0 0 0 0 0 0 0 0 0 0 0 0 0 0 127 0" result="hardAlpha" />
			<feOffset dy="6.60823" />
			<feGaussianBlur stdDeviation="6.60823" />
			<feColorMatrix type="matrix" values="0 0 0 0 0.6125 0 0 0 0 0.628906 0 0 0 0 0.7 0 0 0 1 0" />
			<feBlend mode="normal" in2="BackgroundImageFix" result="effect1_dropShadow_57_1682" />
			<feBlend mode="normal" in="SourceGraphic" in2="effect1_dropShadow_57_1682" result="shape" />
		</filter>
		<filter id="filter4_f_57_1682" x="75.6574" y="20.4514" width="33.7248" height="33.7248" filterUnits="userSpaceOnUse" color-interpolation-filters="sRGB">
			<feFlood flood-opacity="0" result="BackgroundImageFix" />
			<feBlend mode="normal" in="SourceGraphic" in2="BackgroundImageFix" result="shape" />
			<feGaussianBlur stdDeviation="7.58594" result="effect1_foregroundBlur_57_1682" />
		</filter>
		<filter id="filter5_f_57_1682" x="84.8313" y="38.4034" width="8.71293" height="8.71295" filterUnits="userSpaceOnUse" color-interpolation-filters="sRGB">
			<feFlood flood-opacity="0" result="BackgroundImageFix" />
			<feBlend mode="normal" in="SourceGraphic" in2="BackgroundImageFix" result="shape" />
			<feGaussianBlur stdDeviation="1.89648" result="effect1_foregroundBlur_57_1682" />
		</filter>
		<filter id="filter6_f_57_1682" x="121.2" y="65.0838" width="8.814" height="8.81399" filterUnits="userSpaceOnUse" color-interpolation-filters="sRGB">
			<feFlood flood-opacity="0" result="BackgroundImageFix" />
			<feBlend mode="normal" in="SourceGraphic" in2="BackgroundImageFix" result="shape" />
			<feGaussianBlur stdDeviation="1.26432" result="effect1_foregroundBlur_57_1682" />
		</filter>
		<filter id="filter7_f_57_1682" x="44.3826" y="62.9137" width="12.7443" height="12.7443" filterUnits="userSpaceOnUse" color-interpolation-filters="sRGB">
			<feFlood flood-opacity="0" result="BackgroundImageFix" />
			<feBlend mode="normal" in="SourceGraphic" in2="BackgroundImageFix" result="shape" />
			<feGaussianBlur stdDeviation="2.52865" result="effect1_foregroundBlur_57_1682" />
		</filter>
		<filter id="filter8_f_57_1682" x="35.9108" y="83.2199" width="28.2918" height="28.2918" filterUnits="userSpaceOnUse" color-interpolation-filters="sRGB">
			<feFlood flood-opacity="0" result="BackgroundImageFix" />
			<feBlend mode="normal" in="SourceGraphic" in2="BackgroundImageFix" result="shape" />
			<feGaussianBlur stdDeviation="6.32161" result="effect1_foregroundBlur_57_1682" />
		</filter>
		<filter id="filter9_f_57_1682" x="58.2696" y="90.2727" width="23.2523" height="27.0463" filterUnits="userSpaceOnUse" color-interpolation-filters="sRGB">
			<feFlood flood-opacity="0" result="BackgroundImageFix" />
			<feBlend mode="normal" in="SourceGraphic" in2="BackgroundImageFix" result="shape" />
			<feGaussianBlur stdDeviation="2.57907" result="effect1_foregroundBlur_57_1682" />
		</filter>
		<filter id="filter10_f_57_1682" x="99.0096" y="67.9407" width="26.2783" height="22.0143" filterUnits="userSpaceOnUse" color-interpolation-filters="sRGB">
			<feFlood flood-opacity="0" result="BackgroundImageFix" />
			<feBlend mode="normal" in="SourceGraphic" in2="BackgroundImageFix" result="shape" />
			<feGaussianBlur stdDeviation="2.57907" result="effect1_foregroundBlur_57_1682" />
		</filter>
		<linearGradient id="paint0_linear_57_1682" x1="83.1188" y1="49.5958" x2="87.1198" y2="110.198" gradientUnits="userSpaceOnUse">
			<stop stop-color="#FAFAFA" />
			<stop offset="1" stop-color="#C2C4CD" />
		</linearGradient>
		<linearGradient id="paint1_linear_57_1682" x1="85.6038" y1="53.3438" x2="87.3658" y2="102.731" gradientUnits="userSpaceOnUse">
			<stop stop-color="#CDCFD6" />
			<stop offset="1" stop-color="#EFEFF1" />
		</linearGradient>
		<linearGradient id="paint2_linear_57_1682" x1="82.6048" y1="53.2778" x2="83.9068" y2="105.472" gradientUnits="userSpaceOnUse">
			<stop stop-color="#DDDFE2" />
			<stop offset="1" stop-color="white" />
		</linearGradient>
		<radialGradient id="paint3_radial_57_1682" cx="0" cy="0" r="1" gradientUnits="userSpaceOnUse" gradientTransform="translate(85.5718 79.1748) rotate(59.5388) scale(27.4669 23.6937)">
			<stop stop-color="#F5F7FF" />
			<stop offset="1" stop-color="#B3B5C5" />
		</radialGradient>
		<linearGradient id="paint4_linear_57_1682" x1="71.0948" y1="54.5608" x2="100.045" y2="103.786" gradientUnits="userSpaceOnUse">
			<stop stop-color="white" />
			<stop offset="1" stop-color="#F2EDED" stop-opacity="0" />
		</linearGradient>
		<linearGradient id="paint5_linear_57_1682" x1="98.9288" y1="44.1848" x2="99.4248" y2="101.311" gradientUnits="userSpaceOnUse">
			<stop stop-color="white" />
			<stop offset="1" stop-color="#F2EDED" stop-opacity="0" />
		</linearGradient>
		<linearGradient id="paint6_linear_57_1682" x1="50.3357" y1="72.7638" x2="100.02" y2="100.96" gradientUnits="userSpaceOnUse">
			<stop stop-color="white" />
			<stop offset="1" stop-color="#F2EDED" stop-opacity="0" />
		</linearGradient>
		<linearGradient id="paint7_linear_57_1682" x1="90.6717" y1="87.8461" x2="98.6523" y2="101.134" gradientUnits="userSpaceOnUse">
			<stop stop-color="white" stop-opacity="0" />
			<stop offset="1" stop-color="#D0DBFF" />
		</linearGradient>
		<linearGradient id="paint8_linear_57_1682" x1="68.4498" y1="109.396" x2="73.8148" y2="99.9278" gradientUnits="userSpaceOnUse">
			<stop stop-color="#585B77" stop-opacity="0.75" />
			<stop offset="1" stop-color="#525787" stop-opacity="0" />
		</linearGradient>
		<linearGradient id="paint9_linear_57_1682" x1="120.219" y1="78.9468" x2="109.337" y2="79.0338" gradientUnits="userSpaceOnUse">
			<stop stop-color="#585B77" stop-opacity="0.75" />
			<stop offset="1" stop-color="#525787" stop-opacity="0" />
		</linearGradient>
		<linearGradient id="paint10_linear_57_1682" x1="112.433" y1="80.5578" x2="118.33" y2="76.0818" gradientUnits="userSpaceOnUse">
			<stop stop-color="#D5D7D9" />
			<stop offset="1" stop-color="#E2E3E7" />
		</linearGradient>
		<linearGradient id="paint11_linear_57_1682" x1="120.389" y1="79.3638" x2="119.944" y2="86.7248" gradientUnits="userSpaceOnUse">
			<stop stop-color="#CCCFDD" />
			<stop offset="0.259135" stop-color="#D9DBE4" />
			<stop offset="0.878536" stop-color="#E2E3E7" />
		</linearGradient>
		<linearGradient id="paint12_linear_57_1682" x1="111.093" y1="75.9248" x2="110.216" y2="81.6138" gradientUnits="userSpaceOnUse">
			<stop stop-color="#F4F5F8" />
			<stop offset="1" stop-color="#F5F6F7" />
		</linearGradient>
		<linearGradient id="paint13_linear_57_1682" x1="71.0898" y1="54.9798" x2="72.1678" y2="49.2468" gradientUnits="userSpaceOnUse">
			<stop stop-color="#D5D7D9" />
			<stop offset="1" stop-color="#E2E3E7" />
		</linearGradient>
		<linearGradient id="paint14_linear_57_1682" x1="70.1198" y1="52.6778" x2="66.1668" y2="56.4988" gradientUnits="userSpaceOnUse">
			<stop stop-color="#DBDCE1" />
			<stop offset="1" stop-color="#F2F3F8" />
		</linearGradient>
		<linearGradient id="paint15_linear_57_1682" x1="74.9598" y1="54.0038" x2="71.2358" y2="57.0938" gradientUnits="userSpaceOnUse">
			<stop stop-color="#F4F5F8" />
			<stop offset="1" stop-color="#F5F6F7" />
		</linearGradient>
	</defs>
</svg>
