<svg version="1.2" baseProfile="tiny-ps" xmlns="http://www.w3.org/2000/svg" viewBox="0 0 19 14" width="19" height="14">
	<title>live</title>
	<style>
		tspan { white-space:pre }
		.shp0 { fill: #ffffff } 
	</style>
	<g >
		<path class="shp0" d="M10.4 8.24C9.66 8.98 8.45 8.98 7.71 8.24C6.96 7.49 6.96 6.29 7.71 5.55C8.45 4.8 9.66 4.8 10.4 5.55C11.14 6.29 11.14 7.49 10.4 8.24ZM13 11.12C12.77 11.12 12.54 11.03 12.36 10.85C12.01 10.5 12.01 9.92 12.36 9.57C13.08 8.85 13.48 7.9 13.48 6.89C13.48 5.88 13.08 4.93 12.36 4.21C12.01 3.86 12.01 3.29 12.36 2.93C12.72 2.58 13.29 2.58 13.64 2.93C14.7 3.99 15.29 5.39 15.29 6.89C15.29 8.39 14.7 9.79 13.64 10.85C13.47 11.03 13.23 11.12 13 11.12ZM15.05 13.78C14.82 13.78 14.59 13.69 14.41 13.52C14.06 13.16 14.06 12.59 14.41 12.24C15.84 10.81 16.63 8.91 16.63 6.89C16.63 4.87 15.84 2.97 14.41 1.55C14.06 1.19 14.06 0.62 14.41 0.27C14.76 -0.09 15.34 -0.09 15.69 0.26C17.46 2.03 18.44 4.39 18.44 6.89C18.44 9.39 17.46 11.75 15.69 13.52C15.51 13.69 15.28 13.78 15.05 13.78ZM5.1 11.12C4.87 11.12 4.64 11.03 4.46 10.85C3.4 9.79 2.82 8.39 2.82 6.89C2.82 5.39 3.4 3.99 4.46 2.93C4.81 2.58 5.39 2.58 5.74 2.93C6.09 3.29 6.09 3.86 5.74 4.21C5.02 4.93 4.63 5.88 4.63 6.89C4.63 7.9 5.02 8.85 5.74 9.57C6.09 9.92 6.09 10.5 5.74 10.85C5.56 11.03 5.33 11.12 5.1 11.12ZM3.05 13.78C2.82 13.78 2.59 13.69 2.41 13.52C0.64 11.75 -0.34 9.39 -0.34 6.89C-0.34 4.39 0.64 2.03 2.41 0.26C2.77 -0.09 3.34 -0.09 3.69 0.27C4.05 0.62 4.05 1.19 3.69 1.55C2.26 2.97 1.47 4.87 1.47 6.89C1.47 8.91 2.26 10.81 3.69 12.24C4.05 12.59 4.05 13.16 3.69 13.52C3.52 13.69 3.28 13.78 3.05 13.78Z" />
	</g>
</svg>