<svg width="30" height="14" viewBox="0 0 30 14" fill="none" xmlns="http://www.w3.org/2000/svg">
<path opacity="0.2" d="M22.4043 0C19.0615 0 16.2819 2.09106 13.9073 6.39307L13.9053 6.39551C12.0098 9.83008 9.94629 11.5 7.5957 11.5C4.78613 11.5 2.5 9.48145 2.5 7C2.5 4.51855 4.78613 2.5 7.5957 2.5C8.52253 2.51019 9.43857 2.70023 10.293 3.05957C10.5995 3.18554 10.9436 3.18465 11.2495 3.05711C11.5554 2.92956 11.7982 2.6858 11.9245 2.37936C12.0508 2.07292 12.0503 1.72888 11.9231 1.42282C11.7959 1.11675 11.5524 0.873707 11.2461 0.74707C10.0889 0.26474 8.84931 0.0110466 7.5957 0C3.40723 0 0 3.14062 0 7C0 10.8594 3.40723 14 7.5957 14C10.9394 14 13.7188 11.9082 16.0947 7.60449L16.0954 7.60254C17.9899 4.16943 20.054 2.5 22.4043 2.5C25.2139 2.5 27.5 4.51855 27.5 7C27.5 9.48145 25.2139 11.5 22.4043 11.5C21.4774 11.4896 20.5613 11.2993 19.707 10.9395C19.4005 10.8135 19.0564 10.8144 18.7505 10.9419C18.4446 11.0695 18.2018 11.3132 18.0755 11.6197C17.9492 11.9261 17.9497 12.2701 18.0769 12.5762C18.2041 12.8823 18.4476 13.1253 18.7539 13.252C19.911 13.7348 21.1506 13.9888 22.4043 14C26.5928 14 30 10.8594 30 7C30 3.14062 26.5928 0 22.4043 0Z" fill="white"/>
</svg>
