<svg version="1.2" baseProfile="tiny-ps" xmlns="http://www.w3.org/2000/svg" viewBox="0 0 517 540" width="517" height="540"><title>medal_58-svg</title><defs><linearGradient id="grd1" gradientUnits="userSpaceOnUse"  x1="227.615" y1="45" x2="227.615" y2="211.139"><stop offset="0" stop-color="#aaccff" stop-opacity="0.01" /><stop offset="1" stop-color="#aaccff" stop-opacity="0.3" /></linearGradient><linearGradient id="grd2" gradientUnits="userSpaceOnUse"  x1="451.159" y1="335.351" x2="307.278" y2="252.282"><stop offset="0" stop-color="#aaccff" stop-opacity="0.01" /><stop offset="1" stop-color="#aaccff" stop-opacity="0.3" /></linearGradient><linearGradient id="grd3" gradientUnits="userSpaceOnUse"  x1="285.265" y1="465.852" x2="285.265" y2="299.712"><stop offset="0" stop-color="#aaccff" stop-opacity="0.01" /><stop offset="1" stop-color="#aaccff" stop-opacity="0.3" /></linearGradient><linearGradient id="grd4" gradientUnits="userSpaceOnUse"  x1="91.35" y1="386.713" x2="235.231" y2="303.643"><stop offset="0" stop-color="#aaccff" stop-opacity="0.01" /><stop offset="1" stop-color="#aaccff" stop-opacity="0.3" /></linearGradient><linearGradient id="grd5" gradientUnits="userSpaceOnUse"  x1="451.159" y1="175.761" x2="307.278" y2="258.831"><stop offset="0" stop-color="#aaccff" stop-opacity="0.01" /><stop offset="1" stop-color="#aaccff" stop-opacity="0.3" /></linearGradient><linearGradient id="grd6" gradientUnits="userSpaceOnUse"  x1="91.35" y1="124.401" x2="235.231" y2="207.471"><stop offset="0" stop-color="#aaccff" stop-opacity="0.01" /><stop offset="1" stop-color="#aaccff" stop-opacity="0.3" /></linearGradient><linearGradient id="grd7" gradientUnits="userSpaceOnUse"  x1="71.345" y1="242.703" x2="64.174" y2="202.728"><stop offset="0" stop-color="#c3c5d1"  /><stop offset="0.875" stop-color="#f9f9f9"  /></linearGradient><linearGradient id="grd8" gradientUnits="userSpaceOnUse"  x1="107.485" y1="186.956" x2="114.011" y2="232.114"><stop offset="0" stop-color="#f9f9f9"  /><stop offset="0.379" stop-color="#f9f9f9"  /><stop offset="0.481" stop-color="#dfdfe6"  /><stop offset="0.729" stop-color="#b8bac6"  /></linearGradient><linearGradient id="grd9" gradientUnits="userSpaceOnUse"  x1="94.079" y1="274.247" x2="86.963" y2="233.274"><stop offset="0" stop-color="#c3c5d1"  /><stop offset="0.875" stop-color="#f9f9f9"  /></linearGradient><linearGradient id="grd10" gradientUnits="userSpaceOnUse"  x1="135.23" y1="226.941" x2="138.532" y2="264.351"><stop offset="0" stop-color="#f4f4f5"  /><stop offset="0.306" stop-color="#f4f4f5"  /><stop offset="0.462" stop-color="#e8e9ec"  /><stop offset="0.682" stop-color="#dfdfe6"  /><stop offset="1" stop-color="#b8bac6"  /></linearGradient><linearGradient id="grd11" gradientUnits="userSpaceOnUse"  x1="444.478" y1="242.703" x2="451.649" y2="202.728"><stop offset="0" stop-color="#c3c5d1"  /><stop offset="0.875" stop-color="#f9f9f9"  /></linearGradient><linearGradient id="grd12" gradientUnits="userSpaceOnUse"  x1="408.338" y1="186.956" x2="401.812" y2="232.114"><stop offset="0" stop-color="#f9f9f9"  /><stop offset="0.379" stop-color="#f9f9f9"  /><stop offset="0.481" stop-color="#dfdfe6"  /><stop offset="0.729" stop-color="#b8bac6"  /></linearGradient><linearGradient id="grd13" gradientUnits="userSpaceOnUse"  x1="421.744" y1="274.247" x2="428.86" y2="233.274"><stop offset="0" stop-color="#c3c5d1"  /><stop offset="0.875" stop-color="#f9f9f9"  /></linearGradient><linearGradient id="grd14" gradientUnits="userSpaceOnUse"  x1="380.593" y1="226.941" x2="377.291" y2="264.351"><stop offset="0" stop-color="#f4f4f5"  /><stop offset="0.306" stop-color="#f4f4f5"  /><stop offset="0.462" stop-color="#e8e9ec"  /><stop offset="0.682" stop-color="#dfdfe6"  /><stop offset="1" stop-color="#b8bac6"  /></linearGradient><linearGradient id="grd15" gradientUnits="userSpaceOnUse"  x1="235.122" y1="446.051" x2="203.379" y2="447.357"><stop offset="0" stop-color="#91b1e3"  /><stop offset="0.209" stop-color="#f0f6ff"  /><stop offset="0.515" stop-color="#a4bfe9"  /><stop offset="0.728" stop-color="#8bade0"  /><stop offset="0.972" stop-color="#d0def3"  /></linearGradient><linearGradient id="grd16" gradientUnits="userSpaceOnUse"  x1="212.532" y1="376.785" x2="243.521" y2="386.262"><stop offset="0" stop-color="#fafcff"  /><stop offset="0.31" stop-color="#d7e6fc"  /><stop offset="0.524" stop-color="#c1d8f4"  /><stop offset="0.772" stop-color="#bbd6ff"  /><stop offset="1" stop-color="#ffffff"  /></linearGradient><linearGradient id="grd17" gradientUnits="userSpaceOnUse"  x1="167.791" y1="336.398" x2="203.959" y2="344.403"><stop offset="0" stop-color="#91b1e3"  /><stop offset="0.209" stop-color="#f0f6ff"  /><stop offset="0.648" stop-color="#a4bfe9"  /><stop offset="0.78" stop-color="#8bade0"  /><stop offset="0.972" stop-color="#93b3e4"  /></linearGradient><linearGradient id="grd18" gradientUnits="userSpaceOnUse"  x1="173.255" y1="352.203" x2="209.935" y2="363.872"><stop offset="0" stop-color="#fafcff"  /><stop offset="0.31" stop-color="#d7e6fc"  /><stop offset="0.524" stop-color="#c1d8f4"  /><stop offset="0.772" stop-color="#bbd6ff"  /><stop offset="1" stop-color="#ffffff"  /></linearGradient><linearGradient id="grd19" gradientUnits="userSpaceOnUse"  x1="281.73" y1="446.051" x2="313.473" y2="447.357"><stop offset="0" stop-color="#91b1e3"  /><stop offset="0.209" stop-color="#f0f6ff"  /><stop offset="0.515" stop-color="#a4bfe9"  /><stop offset="0.728" stop-color="#8bade0"  /><stop offset="0.972" stop-color="#d0def3"  /></linearGradient><linearGradient id="grd20" gradientUnits="userSpaceOnUse"  x1="304.322" y1="376.785" x2="273.333" y2="386.262"><stop offset="0" stop-color="#fafcff"  /><stop offset="0.31" stop-color="#d7e6fc"  /><stop offset="0.524" stop-color="#c1d8f4"  /><stop offset="0.772" stop-color="#bbd6ff"  /><stop offset="1" stop-color="#ffffff"  /></linearGradient><linearGradient id="grd21" gradientUnits="userSpaceOnUse"  x1="349.061" y1="336.398" x2="312.893" y2="344.403"><stop offset="0" stop-color="#91b1e3"  /><stop offset="0.209" stop-color="#f0f6ff"  /><stop offset="0.648" stop-color="#a4bfe9"  /><stop offset="0.78" stop-color="#8bade0"  /><stop offset="0.972" stop-color="#93b3e4"  /></linearGradient><linearGradient id="grd22" gradientUnits="userSpaceOnUse"  x1="343.597" y1="352.203" x2="306.917" y2="363.872"><stop offset="0" stop-color="#fafcff"  /><stop offset="0.31" stop-color="#d7e6fc"  /><stop offset="0.524" stop-color="#c1d8f4"  /><stop offset="0.772" stop-color="#bbd6ff"  /><stop offset="1" stop-color="#ffffff"  /></linearGradient><linearGradient id="grd23" gradientUnits="userSpaceOnUse"  x1="218.788" y1="491.409" x2="289.37" y2="495.879"><stop offset="0" stop-color="#91b1e3"  /><stop offset="0.209" stop-color="#f0f6ff"  /><stop offset="0.648" stop-color="#a4bfe9"  /><stop offset="0.78" stop-color="#8bade0"  /><stop offset="0.972" stop-color="#93b3e4"  /></linearGradient><linearGradient id="grd24" gradientUnits="userSpaceOnUse"  x1="268.895" y1="390.316" x2="207.467" y2="422.382"><stop offset="0" stop-color="#fafcff"  /><stop offset="0.31" stop-color="#d7e6fc"  /><stop offset="0.524" stop-color="#c1d8f4"  /><stop offset="0.772" stop-color="#bbd6ff"  /><stop offset="1" stop-color="#ffffff"  /></linearGradient><linearGradient id="grd25" gradientUnits="userSpaceOnUse"  x1="257.503" y1="431" x2="257.503" y2="447.95"><stop offset="0" stop-color="#6a88c3"  /><stop offset="0.479" stop-color="#e4effd"  /><stop offset="1" stop-color="#e1ecfd"  /></linearGradient><linearGradient id="grd26" gradientUnits="userSpaceOnUse"  x1="250.016" y1="431.434" x2="250.016" y2="444.962"><stop offset="0" stop-color="#e2f5ff" stop-opacity="0.01" /><stop offset="0.479" stop-color="#b6cafe"  /><stop offset="1" stop-color="#ccd7ff"  /></linearGradient><linearGradient id="grd27" gradientUnits="userSpaceOnUse"  x1="265.804" y1="431.434" x2="265.804" y2="444.962"><stop offset="0" stop-color="#e2f5ff" stop-opacity="0.01" /><stop offset="0.479" stop-color="#b6cafe"  /><stop offset="1" stop-color="#ccd7ff"  /></linearGradient><linearGradient id="grd28" gradientUnits="userSpaceOnUse"  x1="258.624" y1="445.012" x2="256.927" y2="441.662"><stop offset="0" stop-color="#c9defc"  /><stop offset="0.31" stop-color="#ecf4ff"  /><stop offset="0.524" stop-color="#eaf6ff"  /><stop offset="0.614" stop-color="#cce7ff"  /><stop offset="1" stop-color="#cee4f9"  /></linearGradient><linearGradient id="grd29" gradientUnits="userSpaceOnUse"  x1="109.331" y1="210.364" x2="248.786" y2="415.543"><stop offset="0" stop-color="#fafafa"  /><stop offset="1" stop-color="#c2c4cd"  /></linearGradient><linearGradient id="grd30" gradientUnits="userSpaceOnUse"  x1="127.478" y1="219.858" x2="246.608" y2="382.665"><stop offset="0" stop-color="#cdcfd6"  /><stop offset="1" stop-color="#efeff1"  /></linearGradient><linearGradient id="grd31" gradientUnits="userSpaceOnUse"  x1="134.106" y1="217.716" x2="262.021" y2="388.141"><stop offset="0" stop-color="#dddfe2"  /><stop offset="1" stop-color="#ffffff"  /></linearGradient><clipPath clipPathUnits="userSpaceOnUse" id="cp1"><path d="M169.42 190.42C164.23 193.24 161 198.67 161 204.57L161 305.82C161 311.72 164.23 317.15 169.42 319.97L250.81 364.21C255.6 366.82 261.39 366.82 266.19 364.21L347.58 319.97C352.77 317.15 356 311.72 356 305.82L356 204.57C356 198.67 352.77 193.24 347.58 190.42L266.19 146.18C261.39 143.57 255.6 143.57 250.81 146.18L169.42 190.42Z" /></clipPath><radialGradient id="grd32" gradientUnits="userSpaceOnUse"  cx="258.5" cy="255.195" r="113.195"><stop offset="0" stop-color="#f5f7ff"  /><stop offset="1" stop-color="#b3b5c5"  /></radialGradient><linearGradient id="grd33" gradientUnits="userSpaceOnUse"  x1="238.327" y1="137.517" x2="238.327" y2="372.862"><stop offset="0" stop-color="#ffffff"  /><stop offset="1" stop-color="#f2eded" stop-opacity="0.01" /></linearGradient><linearGradient id="grd34" gradientUnits="userSpaceOnUse"  x1="120.655" y1="168.896" x2="238.327" y2="372.711"><stop offset="0" stop-color="#ffffff"  /><stop offset="1" stop-color="#f2eded" stop-opacity="0.01" /></linearGradient><linearGradient id="grd35" gradientUnits="userSpaceOnUse"  x1="352.637" y1="148.724" x2="234.965" y2="352.539"><stop offset="0" stop-color="#ffffff"  /><stop offset="1" stop-color="#f2eded" stop-opacity="0.01" /></linearGradient><linearGradient id="grd36" gradientUnits="userSpaceOnUse"  x1="209.318" y1="296.513" x2="209.134" y2="360.393"><stop offset="0" stop-color="#ffffff" stop-opacity="0.01" /><stop offset="1" stop-color="#d0dbff"  /></linearGradient></defs><style>tspan { white-space:pre }.shp0 { fill: url(#grd1) } .shp1 { fill: url(#grd2) } .shp2 { fill: url(#grd3) } .shp3 { fill: url(#grd4) } .shp4 { fill: url(#grd5) } .shp5 { fill: url(#grd6) } .shp6 { fill: url(#grd7) } .shp7 { fill: none;stroke: url(#grd8);stroke-width: 2.294 } .shp8 { fill: url(#grd9) } .shp9 { fill: none;stroke: url(#grd10);stroke-width: 2.294 } .shp10 { fill: url(#grd11) } .shp11 { fill: none;stroke: url(#grd12);stroke-width: 2.294 } .shp12 { fill: url(#grd13) } .shp13 { fill: none;stroke: url(#grd14);stroke-width: 2.294 } .shp14 { fill: #9cb7ed } .shp15 { fill: none;stroke: url(#grd15) } .shp16 { fill: url(#grd16) } .shp17 { fill: #e3effb } .shp18 { fill: #c6d9ff } .shp19 { fill: none;stroke: url(#grd17) } .shp20 { fill: url(#grd18) } .shp21 { fill: #f2f9ff } .shp22 { fill: none;stroke: url(#grd19) } .shp23 { fill: url(#grd20) } .shp24 { fill: none;stroke: url(#grd21) } .shp25 { fill: url(#grd22) } .shp26 { fill: #6a88c4 } .shp27 { fill: none;stroke: url(#grd23);stroke-width: 2 } .shp28 { fill: url(#grd24) } .shp29 { fill: url(#grd25) } .shp30 { fill: url(#grd26) } .shp31 { fill: url(#grd27) } .shp32 { fill: url(#grd28) } .shp33 { fill: url(#grd29) } .shp34 { fill: url(#grd30) } .shp35 { fill: none;stroke: url(#grd31) } .shp36 { fill: #a6d3de } .shp37 { fill: url(#grd32) } .shp38 { opacity: 0.502;fill: url(#grd33) } .shp39 { opacity: 0.502;fill: url(#grd34) } .shp40 { opacity: 0.502;fill: url(#grd35) } .shp41 { fill: url(#grd36) } .shp42 { opacity: 0.012;fill: #6052b4 } .shp43 { fill: #d1d7e3 } .shp44 { opacity: 0.2;fill: #c5c7cf } .shp45 { fill: #eaebed } .shp46 { fill: #e1e1e1 } .shp47 { fill: #c5c7cf } .shp48 { fill: #f9a74e } .shp49 { fill: none;stroke: #c5c7cf;stroke-linecap:round;stroke-linejoin:round;stroke-width: 4 } .shp50 { fill: none;stroke: #d8dfed;stroke-linecap:round;stroke-linejoin:round;stroke-width: 4 } .shp51 { opacity: 0.302;fill: none;stroke: #ffffff;stroke-linecap:round;stroke-linejoin:round;stroke-width: 2 } </style><path fill-rule="evenodd" class="shp0" d="M234.95 211.14L278.98 211.14L286.31 45L227.62 45L234.95 211.14Z" /><path fill-rule="evenodd" class="shp1" d="M303.61 258.64L281.6 296.76L421.81 386.19L451.16 335.35L303.61 258.64Z" /><path fill-rule="evenodd" class="shp2" d="M277.93 299.71L233.9 299.71L226.57 465.85L285.26 465.85L277.93 299.71Z" /><path fill-rule="evenodd" class="shp3" d="M231.56 297.29L209.55 259.16L62 335.88L91.35 386.71L231.56 297.29Z" /><path fill-rule="evenodd" class="shp4" d="M303.61 252.48L281.6 214.35L421.81 124.93L451.16 175.76L303.61 252.48Z" /><path fill-rule="evenodd" class="shp5" d="M231.56 213.82L209.55 251.95L62 175.24L91.35 124.4L231.56 213.82Z" /><g ><path fill-rule="evenodd" class="shp6" d="M150.5 235.29L86.07 235.29C71.25 235.29 53 219.81 53 194L150.5 194L150.5 235.29Z" /><path class="shp7" d="M150.5 235.29L86.07 235.29C71.25 235.29 53 219.81 53 194L150.5 194L150.5 235.29Z" /><path fill-rule="evenodd" class="shp8" d="M184.91 272L120.48 272C105.66 272 87.41 256.51 87.41 230.71L184.91 230.71L184.91 272Z" /><path class="shp9" d="M184.91 272L120.48 272C105.66 272 87.41 256.51 87.41 230.71L184.91 230.71L184.91 272Z" /><path fill-rule="evenodd" class="shp10" d="M365.32 235.29L429.75 235.29C444.58 235.29 462.82 219.81 462.82 194L365.32 194L365.32 235.29Z" /><path class="shp11" d="M365.32 235.29L429.75 235.29C444.58 235.29 462.82 219.81 462.82 194L365.32 194L365.32 235.29Z" /><path fill-rule="evenodd" class="shp12" d="M330.91 272L395.34 272C410.17 272 428.41 256.51 428.41 230.71L330.91 230.71L330.91 272Z" /><path class="shp13" d="M330.91 272L395.34 272C410.17 272 428.41 256.51 428.41 230.71L330.91 230.71L330.91 272Z" /><g ><path fill-rule="evenodd" class="shp14" d="M201.91 410.84L231.44 426.71C232.1 427.07 232.91 426.59 232.91 425.83C232.91 392.73 232.94 354.94 232.94 322L201.91 322L201.91 410.84Z" /><path class="shp15" d="M201.91 410.84L231.44 426.71C232.1 427.07 232.91 426.59 232.91 425.83C232.91 392.73 232.94 354.94 232.94 322L201.91 322L201.91 410.84Z" /></g><path fill-rule="evenodd" class="shp16" d="M204.48 372L203.91 372L203.91 407.34L204.15 407.38C204.93 407.51 205.81 407.97 206.52 408.65C207.23 409.32 207.75 410.19 207.88 411.11L207.91 411.26L230.84 423L230.84 383.63L230.28 383.63L230.28 422.11L208.42 410.87C208.24 409.86 207.65 408.94 206.91 408.24C206.2 407.56 205.32 407.06 204.48 406.86L204.48 372Z" /><path fill-rule="evenodd" class="shp17" d="M230.84 416.59L230.28 416.62C230.32 417.56 230.27 418.87 229.76 419.75C229.5 420.17 229.15 420.48 228.64 420.61C228.12 420.74 227.4 420.69 226.41 420.31L226.21 420.83C227.26 421.24 228.1 421.33 228.78 421.16C229.46 420.99 229.93 420.56 230.24 420.03C230.86 419 230.89 417.53 230.84 416.59Z" /><g ><path fill-rule="evenodd" class="shp18" d="M196.93 322L160.91 322L160.91 389.46C160.91 390.61 161.57 391.66 162.6 392.16L196.93 408.84L196.93 322Z" /><path class="shp19" d="M196.93 322L160.91 322L160.91 389.46C160.91 390.61 161.57 391.66 162.6 392.16L196.93 408.84L196.93 322Z" /></g><path fill-rule="evenodd" class="shp20" d="M163.58 346L162.91 346L162.91 387.7L163.19 387.74C164.12 387.9 165.15 388.44 165.99 389.24C166.82 390.04 167.44 391.07 167.6 392.14L167.62 392.32L194.69 405L194.69 359.73L194.02 359.73L194.02 403.95L168.23 391.87C168.01 390.68 167.32 389.59 166.45 388.76C165.61 387.96 164.58 387.37 163.58 387.14L163.58 346Z" /><path fill-rule="evenodd" class="shp21" d="M194.69 397.43L194.02 397.47C194.08 398.58 194.02 400.13 193.41 401.16C193.11 401.66 192.69 402.03 192.09 402.18C191.48 402.33 190.63 402.27 189.46 401.82L189.22 402.44C190.46 402.93 191.46 403.03 192.25 402.83C193.06 402.63 193.62 402.13 193.99 401.5C194.71 400.28 194.75 398.55 194.69 397.43Z" /><g ><path fill-rule="evenodd" class="shp14" d="M314.94 410.84L285.41 426.71C284.75 427.07 283.94 426.59 283.94 425.83C283.94 392.73 283.91 354.94 283.91 322L314.94 322L314.94 410.84Z" /><path class="shp22" d="M314.94 410.84L285.41 426.71C284.75 427.07 283.94 426.59 283.94 425.83C283.94 392.73 283.91 354.94 283.91 322L314.94 322L314.94 410.84Z" /></g><path fill-rule="evenodd" class="shp23" d="M312.37 372L312.94 372L312.94 407.34L312.7 407.38C311.92 407.51 311.05 407.97 310.34 408.65C309.63 409.32 309.1 410.19 308.97 411.11L308.95 411.26L286.01 423L286.01 383.63L286.58 383.63L286.58 422.11L308.43 410.87C308.62 409.86 309.21 408.94 309.95 408.24C310.66 407.56 311.53 407.06 312.37 406.86L312.37 372Z" /><path fill-rule="evenodd" class="shp17" d="M286.01 416.59L286.58 416.62C286.53 417.56 286.58 418.87 287.1 419.75C287.35 420.17 287.7 420.48 288.21 420.61C288.74 420.74 289.45 420.69 290.44 420.31L290.65 420.83C289.6 421.24 288.75 421.33 288.08 421.16C287.39 420.99 286.92 420.56 286.61 420.03C286 419 285.96 417.53 286.01 416.59Z" /><g ><path fill-rule="evenodd" class="shp18" d="M319.93 322L355.94 322L355.94 389.46C355.94 390.61 355.29 391.66 354.25 392.16L319.93 408.84L319.93 322Z" /><path class="shp24" d="M319.93 322L355.94 322L355.94 389.46C355.94 390.61 355.29 391.66 354.25 392.16L319.93 408.84L319.93 322Z" /></g><path fill-rule="evenodd" class="shp25" d="M353.27 346L353.94 346L353.94 387.7L353.66 387.74C352.74 387.9 351.71 388.44 350.87 389.24C350.03 390.04 349.41 391.07 349.25 392.14L349.23 392.32L322.16 405L322.16 359.73L322.83 359.73L322.83 403.95L348.62 391.87C348.84 390.68 349.53 389.59 350.41 388.76C351.24 387.96 352.27 387.37 353.27 387.14L353.27 346Z" /><path fill-rule="evenodd" class="shp21" d="M322.16 397.43L322.83 397.47C322.77 398.58 322.83 400.13 323.44 401.16C323.74 401.66 324.16 402.03 324.76 402.18C325.38 402.33 326.22 402.27 327.39 401.82L327.63 402.44C326.39 402.93 325.39 403.03 324.6 402.83C323.79 402.63 323.24 402.13 322.87 401.5C322.15 400.28 322.11 398.55 322.16 397.43Z" /><g ><path fill-rule="evenodd" class="shp26" d="M292.91 296L292.91 435.69L259.48 456.08C258.55 456.65 257.39 456.64 256.47 456.08L223.91 436.17L223.91 296L292.91 296Z" /><path class="shp27" d="M292.91 296L292.91 435.69L259.48 456.08C258.55 456.65 257.39 456.64 256.47 456.08L223.91 436.17L223.91 296L292.91 296Z" /></g><path fill-rule="evenodd" class="shp28" d="M228.41 383L228.41 433.22L257.91 451.41L287.91 433.22L287.91 383L288.91 383L288.91 433.78L257.91 452.59L227.41 433.78L227.41 383L228.41 383Z" /><path fill-rule="evenodd" class="shp29" d="M258.34 449.14L257.47 449.14L257.47 431L258.34 431L258.34 449.14Z" /><path fill-rule="evenodd" class="shp30" d="M250.02 444.9L250.16 444.04C251.31 444.24 253.12 443.9 254.65 442.13C256.18 440.36 257.48 437.11 257.48 431.43L258.35 431.43C258.35 437.23 257.03 440.72 255.31 442.7C253.57 444.7 251.47 445.14 250.02 444.9Z" /><path fill-rule="evenodd" class="shp31" d="M265.8 444.9L265.66 444.04C264.5 444.24 262.7 443.9 261.17 442.13C259.64 440.36 258.34 437.11 258.34 431.43L257.48 431.43C257.48 437.23 258.79 440.72 260.51 442.7C262.25 444.7 264.35 445.14 265.8 444.9Z" /><path fill-rule="evenodd" class="shp32" d="M247.91 444.04L250.08 444.04L257.91 448.67L265.73 444L267.65 444L258.09 449.54C257.97 449.59 257.84 449.59 257.73 449.54L247.91 444.04Z" /><g ><path fill-rule="evenodd" class="shp33" d="M141.88 173.17C136.41 176.15 133 181.88 133 188.1L133 322.4C133 328.63 136.41 334.36 141.88 337.33L249.88 396.09C254.94 398.84 261.06 398.84 266.12 396.09L374.12 337.33C379.59 334.36 383 328.63 383 322.4L383 188.1C383 181.88 379.59 176.15 374.12 173.17L266.12 114.42C261.06 111.66 254.94 111.66 249.88 114.42L141.88 173.17Z" /><path fill-rule="evenodd" class="shp34" d="M160.84 184.77C155.39 187.74 152 193.44 152 199.65L152 310.35C152 316.56 155.39 322.26 160.84 325.23L249.76 373.6C254.8 376.34 260.9 376.34 265.94 373.6L354.86 325.23C360.31 322.26 363.7 316.56 363.7 310.35L363.7 199.65C363.7 193.44 360.31 187.74 354.86 184.77L265.94 136.4C260.9 133.66 254.8 133.66 249.76 136.4L160.84 184.77Z" /><path class="shp35" d="M160.84 184.77C155.39 187.74 152 193.44 152 199.65L152 310.35C152 316.56 155.39 322.26 160.84 325.23L249.76 373.6C254.8 376.34 260.9 376.34 265.94 373.6L354.86 325.23C360.31 322.26 363.7 316.56 363.7 310.35L363.7 199.65C363.7 193.44 360.31 187.74 354.86 184.77L265.94 136.4C260.9 133.66 254.8 133.66 249.76 136.4L160.84 184.77Z" /><g style="opacity: 0.502"><path fill-rule="evenodd" class="shp36" d="M169.42 190.42C164.23 193.24 161 198.67 161 204.57L161 305.82C161 311.72 164.23 317.15 169.42 319.97L250.81 364.21C255.6 366.82 261.39 366.82 266.19 364.21L347.58 319.97C352.77 317.15 356 311.72 356 305.82L356 204.57C356 198.67 352.77 193.24 347.58 190.42L266.19 146.18C261.39 143.57 255.6 143.57 250.81 146.18L169.42 190.42Z" /><g clip-path="url(#cp1)"><g ><g ><g ><path fill-rule="evenodd" class="shp37" d="M169.42 190.42C164.23 193.24 161 198.67 161 204.57L161 305.82C161 311.72 164.23 317.15 169.42 319.97L250.81 364.21C255.6 366.82 261.39 366.82 266.19 364.21L347.58 319.97C352.77 317.15 356 311.72 356 305.82L356 204.57C356 198.67 352.77 193.24 347.58 190.42L266.19 146.18C261.39 143.57 255.6 143.57 250.81 146.18L169.42 190.42Z" /><path fill-rule="evenodd" class="shp38" d="M242.2 372.86L274.8 372.86L278.67 137.52L238.33 137.52L242.2 372.86Z" /><path fill-rule="evenodd" class="shp39" d="M241.68 370.77L269.91 354.48L155.59 148.72L120.66 168.9L241.68 370.77Z" /><path fill-rule="evenodd" class="shp40" d="M238.32 354.48L266.55 370.77L387.58 168.9L352.64 148.72L238.32 354.48Z" /><path class="shp41" d="M161 241.74L356 241.74L356 368.38L161 368.38L161 241.74Z" /><path fill-rule="evenodd" class="shp42" d="M169.42 190.42C164.23 193.24 161 198.67 161 204.57L161 305.82C161 311.72 164.23 317.15 169.42 319.97L250.81 364.21C255.6 366.82 261.39 366.82 266.19 364.21L347.58 319.97C352.77 317.15 356 311.72 356 305.82L356 204.57C356 198.67 352.77 193.24 347.58 190.42L266.19 146.18C261.39 143.57 255.6 143.57 250.81 146.18L169.42 190.42Z" /></g></g></g></g></g></g></g><g ><path fill-rule="evenodd" class="shp43" d="M268.93 281.34L268.93 323.49L246.74 323.49L246.74 281.34L268.93 281.34Z" /><path fill-rule="evenodd" class="shp44" d="M268.93 281.34L268.93 323.49L262.27 323.49L262.27 281.34L268.93 281.34Z" /><path class="shp45" d="M237.87 321.27C230.54 321.27 224.56 327.26 224.56 334.59L291.12 334.59C291.12 327.26 285.13 321.27 277.81 321.27L237.87 321.27Z" /><path class="shp46" d="M266.71 321.27C274.03 321.27 280.02 327.26 280.02 334.59L291.12 334.59C291.12 327.26 285.13 321.27 277.81 321.27L266.71 321.27Z" /><path class="shp45" d="M246.52 299.09C240.53 299.09 235.65 294.21 235.65 288.22L235.65 285.77L280.02 285.77L280.02 288.22C280.02 294.21 275.14 299.09 269.15 299.09L246.52 299.09Z" /><path class="shp47" d="M271.15 288.22C271.15 294.21 268.49 299.09 262.5 299.09L269.15 299.09C275.14 299.09 280.02 294.21 280.02 288.22L280.02 285.77L271.15 285.77L271.15 288.22Z" /><path class="shp43" d="M220.12 334.59C220.12 332.15 222.11 330.15 224.56 330.15L291.12 330.15C293.56 330.15 295.56 332.15 295.56 334.59L220.12 334.59Z" /><path class="shp44" d="M280.02 330.15C282.46 330.15 284.46 332.15 284.46 334.59L295.56 334.59C295.56 332.15 293.56 330.15 291.12 330.15L280.02 330.15Z" /><path class="shp48" d="M231.21 281.34L231.21 287.99C231.21 290.43 233.21 292.43 235.65 292.43L280.02 292.43C282.46 292.43 284.46 290.43 284.46 287.99L284.46 281.34L231.21 281.34Z" /><path class="shp43" d="M231.21 281.34L231.21 287.99C231.21 290.43 233.21 292.43 235.65 292.43L280.02 292.43C282.46 292.43 284.46 290.43 284.46 287.99L284.46 281.34L231.21 281.34Z" /><path class="shp44" d="M268.93 287.99C271.15 287.99 271.37 292.43 268.93 292.43L280.02 292.43C282.46 292.43 284.46 290.43 284.46 287.99L284.46 281.34L273.37 281.34L268.93 287.99Z" /><path class="shp49" d="M288.9 210.34L331.06 210.34L331.06 212.56C331.06 235.85 312.19 254.71 288.9 254.71" /><path class="shp50" d="M226.77 210.34L184.62 210.34L184.62 212.56C184.62 235.85 203.48 254.71 226.77 254.71" /><path class="shp45" d="M238.98 287.99C224.78 287.99 213.46 276.68 213.46 262.48L213.46 192.59L302.21 192.59L302.21 262.48C302.21 276.68 290.89 287.99 276.69 287.99L238.98 287.99Z" /><path class="shp51" d="M226.77 199.24C226.77 199.24 226.77 236.96 226.77 243.62" /><path class="shp46" d="M292 262.59C292 276.73 281.8 288 269 288L279 288C291.8 288 302 276.73 302 262.59L302 193L292 193L292 262.59Z" /><path class="shp43" d="M206.81 192.59L213.46 199.24L302.21 199.24L308.87 192.59L206.81 192.59Z" /><path class="shp44" d="M292 199L302.63 199L309 192L296.25 192L292 199Z" /><path class="shp45" d="M204.59 183.71C202.15 183.71 200.15 185.71 200.15 188.15C200.15 190.59 202.15 192.59 204.59 192.59L311.09 192.59C313.53 192.59 315.52 190.59 315.52 188.15C315.52 185.71 313.53 183.71 311.09 183.71L204.59 183.71Z" /><path class="shp46" d="M297.77 183.71C300.21 183.71 302.21 185.71 302.21 188.15C302.21 190.59 300.21 192.59 297.77 192.59L311.09 192.59C313.53 192.59 315.52 190.59 315.52 188.15C315.52 185.71 313.53 183.71 311.09 183.71L297.77 183.71Z" /><path class="shp51" d="M226.77 253.38L226.77 258.48" /></g></svg>