<svg version="1.2" baseProfile="tiny-ps" xmlns="http://www.w3.org/2000/svg" viewBox="0 0 517 540" width="517" height="540"><title>medal_1-svg</title><defs><linearGradient id="grd1" gradientUnits="userSpaceOnUse"  x1="109.331" y1="195.364" x2="248.787" y2="400.543"><stop offset="0" stop-color="#fafafa"  /><stop offset="1" stop-color="#c2c4cd"  /></linearGradient><linearGradient id="grd2" gradientUnits="userSpaceOnUse"  x1="127.479" y1="204.858" x2="246.609" y2="367.665"><stop offset="0" stop-color="#cdcfd6"  /><stop offset="1" stop-color="#efeff1"  /></linearGradient><linearGradient id="grd3" gradientUnits="userSpaceOnUse"  x1="134.106" y1="202.716" x2="262.021" y2="373.141"><stop offset="0" stop-color="#dddfe2"  /><stop offset="1" stop-color="#ffffff"  /></linearGradient><clipPath clipPathUnits="userSpaceOnUse" id="cp1"><path d="M169.42 175.42C164.23 178.24 161 183.67 161 189.57L161 290.82C161 296.72 164.23 302.15 169.42 304.97L250.81 349.21C255.6 351.82 261.4 351.82 266.19 349.21L347.58 304.97C352.77 302.15 356 296.72 356 290.82L356 189.57C356 183.67 352.77 178.24 347.58 175.42L266.19 131.18C261.4 128.57 255.6 128.57 250.81 131.18L169.42 175.42Z" /></clipPath><radialGradient id="grd4" gradientUnits="userSpaceOnUse"  cx="258.5" cy="240.195" r="113.195"><stop offset="0" stop-color="#f5f7ff"  /><stop offset="1" stop-color="#b3b5c5"  /></radialGradient><linearGradient id="grd5" gradientUnits="userSpaceOnUse"  x1="238.328" y1="122.517" x2="238.328" y2="357.862"><stop offset="0" stop-color="#ffffff"  /><stop offset="1" stop-color="#f2eded" stop-opacity="0.01" /></linearGradient><linearGradient id="grd6" gradientUnits="userSpaceOnUse"  x1="120.655" y1="153.897" x2="238.328" y2="357.711"><stop offset="0" stop-color="#ffffff"  /><stop offset="1" stop-color="#f2eded" stop-opacity="0.01" /></linearGradient><linearGradient id="grd7" gradientUnits="userSpaceOnUse"  x1="352.638" y1="133.724" x2="234.966" y2="337.539"><stop offset="0" stop-color="#ffffff"  /><stop offset="1" stop-color="#f2eded" stop-opacity="0.01" /></linearGradient><linearGradient id="grd8" gradientUnits="userSpaceOnUse"  x1="209.319" y1="281.513" x2="209.134" y2="345.393"><stop offset="0" stop-color="#ffffff" stop-opacity="0.01" /><stop offset="1" stop-color="#d0dbff"  /></linearGradient></defs><style>tspan { white-space:pre }.shp0 { fill: url(#grd1) } .shp1 { fill: url(#grd2) } .shp2 { fill: none;stroke: url(#grd3) } .shp3 { fill: #a6d3de } .shp4 { fill: url(#grd4) } .shp5 { opacity: 0.502;fill: url(#grd5) } .shp6 { opacity: 0.502;fill: url(#grd6) } .shp7 { opacity: 0.502;fill: url(#grd7) } .shp8 { fill: url(#grd8) } .shp9 { opacity: 0.012;fill: #6052b4 } .shp10 { fill: #d7d9de } .shp11 { opacity: 0.2;fill: #c8cad2 } .shp12 { fill: #efeff1 } .shp13 { fill: #e7e8eb } .shp14 { fill: #f9a74e } .shp15 { fill: none;stroke: #d7d9de;stroke-linecap:round;stroke-linejoin:round;stroke-width: 4 } .shp16 { fill: none;stroke: #efeff1;stroke-linecap:round;stroke-linejoin:round;stroke-width: 4 } .shp17 { opacity: 0.302;fill: none;stroke: #ffffff;stroke-linecap:round;stroke-linejoin:round;stroke-width: 2 } </style><path fill-rule="evenodd" class="shp0" d="M141.88 158.17C136.41 161.15 133 166.88 133 173.1L133 307.4C133 313.63 136.41 319.36 141.88 322.34L249.88 381.09C254.94 383.84 261.06 383.84 266.12 381.09L374.12 322.34C379.59 319.36 383 313.63 383 307.4L383 173.1C383 166.88 379.59 161.15 374.12 158.17L266.12 99.42C261.06 96.66 254.94 96.66 249.88 99.42L141.88 158.17Z" /><path fill-rule="evenodd" class="shp1" d="M160.84 169.77C155.39 172.74 152 178.44 152 184.65L152 295.35C152 301.56 155.39 307.26 160.84 310.23L249.76 358.6C254.8 361.34 260.9 361.34 265.94 358.6L354.86 310.23C360.31 307.26 363.7 301.56 363.7 295.35L363.7 184.65C363.7 178.44 360.31 172.74 354.86 169.77L265.94 121.4C260.9 118.66 254.8 118.66 249.76 121.4L160.84 169.77Z" /><path class="shp2" d="M160.84 169.77C155.39 172.74 152 178.44 152 184.65L152 295.35C152 301.56 155.39 307.26 160.84 310.23L249.76 358.6C254.8 361.34 260.9 361.34 265.94 358.6L354.86 310.23C360.31 307.26 363.7 301.56 363.7 295.35L363.7 184.65C363.7 178.44 360.31 172.74 354.86 169.77L265.94 121.4C260.9 118.66 254.8 118.66 249.76 121.4L160.84 169.77Z" /><g style="opacity: 0.502"><path fill-rule="evenodd" class="shp3" d="M169.42 175.42C164.23 178.24 161 183.67 161 189.57L161 290.82C161 296.72 164.23 302.15 169.42 304.97L250.81 349.21C255.6 351.82 261.4 351.82 266.19 349.21L347.58 304.97C352.77 302.15 356 296.72 356 290.82L356 189.57C356 183.67 352.77 178.24 347.58 175.42L266.19 131.18C261.4 128.57 255.6 128.57 250.81 131.18L169.42 175.42Z" /><g clip-path="url(#cp1)"><g ><g ><path fill-rule="evenodd" class="shp4" d="M169.42 175.42C164.23 178.24 161 183.67 161 189.57L161 290.82C161 296.72 164.23 302.15 169.42 304.97L250.81 349.21C255.6 351.82 261.4 351.82 266.19 349.21L347.58 304.97C352.77 302.15 356 296.72 356 290.82L356 189.57C356 183.67 352.77 178.24 347.58 175.42L266.19 131.18C261.4 128.57 255.6 128.57 250.81 131.18L169.42 175.42Z" /><path fill-rule="evenodd" class="shp5" d="M242.2 357.86L274.8 357.86L278.67 122.52L238.33 122.52L242.2 357.86Z" /><path fill-rule="evenodd" class="shp6" d="M241.68 355.77L269.91 339.47L155.59 133.72L120.66 153.9L241.68 355.77Z" /><path fill-rule="evenodd" class="shp7" d="M238.32 339.47L266.55 355.77L387.58 153.9L352.64 133.72L238.32 339.47Z" /><path class="shp8" d="M161 226.74L356 226.74L356 353.38L161 353.38L161 226.74Z" /><path fill-rule="evenodd" class="shp9" d="M169.42 175.42C164.23 178.24 161 183.67 161 189.57L161 290.82C161 296.72 164.23 302.15 169.42 304.97L250.81 349.21C255.6 351.82 261.4 351.82 266.19 349.21L347.58 304.97C352.77 302.15 356 296.72 356 290.82L356 189.57C356 183.67 352.77 178.24 347.58 175.42L266.19 131.18C261.4 128.57 255.6 128.57 250.81 131.18L169.42 175.42Z" /></g></g></g></g><g ><path fill-rule="evenodd" class="shp10" d="M268.93 266.34L268.93 308.49L246.74 308.49L246.74 266.34L268.93 266.34Z" /><path fill-rule="evenodd" class="shp11" d="M268.93 266.34L268.93 308.49L262.27 308.49L262.27 266.34L268.93 266.34Z" /><path class="shp12" d="M237.87 306.27C230.54 306.27 224.56 312.26 224.56 319.59L291.12 319.59C291.12 312.26 285.13 306.27 277.81 306.27L237.87 306.27Z" /><path class="shp13" d="M266.71 306.27C274.03 306.27 280.02 312.26 280.02 319.59L291.12 319.59C291.12 312.26 285.13 306.27 277.81 306.27L266.71 306.27Z" /><path class="shp12" d="M246.52 284.09C240.53 284.09 235.65 279.21 235.65 273.22L235.65 270.77L280.02 270.77L280.02 273.22C280.02 279.21 275.14 284.09 269.15 284.09L246.52 284.09Z" /><path class="shp13" d="M271.15 273.22C271.15 279.21 268.49 284.09 262.5 284.09L269.15 284.09C275.14 284.09 280.02 279.21 280.02 273.22L280.02 270.77L271.15 270.77L271.15 273.22Z" /><path class="shp10" d="M220.12 319.59C220.12 317.15 222.11 315.15 224.56 315.15L291.12 315.15C293.56 315.15 295.56 317.15 295.56 319.59L220.12 319.59Z" /><path class="shp11" d="M280.02 315.15C282.46 315.15 284.46 317.15 284.46 319.59L295.56 319.59C295.56 317.15 293.56 315.15 291.12 315.15L280.02 315.15Z" /><path class="shp14" d="M231.21 266.34L231.21 272.99C231.21 275.43 233.21 277.43 235.65 277.43L280.02 277.43C282.46 277.43 284.46 275.43 284.46 272.99L284.46 266.34L231.21 266.34Z" /><path class="shp10" d="M231.21 266.34L231.21 272.99C231.21 275.43 233.21 277.43 235.65 277.43L280.02 277.43C282.46 277.43 284.46 275.43 284.46 272.99L284.46 266.34L231.21 266.34Z" /><path class="shp11" d="M268.93 272.99C271.15 272.99 271.37 277.43 268.93 277.43L280.02 277.43C282.46 277.43 284.46 275.43 284.46 272.99L284.46 266.34L273.37 266.34L268.93 272.99Z" /><path class="shp15" d="M288.9 195.34L331.06 195.34L331.06 197.56C331.06 220.85 312.19 239.71 288.9 239.71" /><path class="shp16" d="M226.77 195.34L184.62 195.34L184.62 197.56C184.62 220.85 203.48 239.71 226.77 239.71" /><path class="shp12" d="M238.52 272.99C224.32 272.99 213 261.68 213 247.48L213 177.59L301.75 177.59L301.75 247.48C301.75 261.68 290.43 272.99 276.23 272.99L238.52 272.99Z" /><path class="shp17" d="M226.77 184.24C226.77 184.24 226.77 221.96 226.77 228.62" /><path class="shp13" d="M292 247.59C292 261.73 281.8 273 269 273L279 273C291.8 273 302 261.73 302 247.59L302 178L292 178L292 247.59Z" /><path class="shp10" d="M206.81 177.59L213.46 184.24L302.21 184.24L308.87 177.59L206.81 177.59Z" /><path class="shp11" d="M292 184L302.63 184L309 177L296.25 177L292 184Z" /><path class="shp12" d="M204.59 168.71C202.15 168.71 200.15 170.71 200.15 173.15C200.15 175.59 202.15 177.59 204.59 177.59L311.09 177.59C313.53 177.59 315.52 175.59 315.52 173.15C315.52 170.71 313.53 168.71 311.09 168.71L204.59 168.71Z" /><path class="shp13" d="M297.77 168.71C300.21 168.71 302.21 170.71 302.21 173.15C302.21 175.59 300.21 177.59 297.77 177.59L311.09 177.59C313.53 177.59 315.52 175.59 315.52 173.15C315.52 170.71 313.53 168.71 311.09 168.71L297.77 168.71Z" /><path class="shp17" d="M226.77 238.38L226.77 243.48" /></g></svg>