<svg version="1.2" baseProfile="tiny-ps" xmlns="http://www.w3.org/2000/svg" viewBox="0 0 517 540" width="517" height="540"><title>medal_23-svg</title><defs><linearGradient id="grd1" gradientUnits="userSpaceOnUse"  x1="108.331" y1="213.364" x2="247.787" y2="418.543"><stop offset="0" stop-color="#ede9ea"  /><stop offset="1" stop-color="#beb5b6"  /></linearGradient><linearGradient id="grd2" gradientUnits="userSpaceOnUse"  x1="126.479" y1="222.858" x2="245.609" y2="385.665"><stop offset="0" stop-color="#c3bbbb"  /><stop offset="1" stop-color="#ece8e9"  /></linearGradient><linearGradient id="grd3" gradientUnits="userSpaceOnUse"  x1="133.106" y1="220.716" x2="261.021" y2="391.141"><stop offset="0" stop-color="#c9c2c3"  /><stop offset="1" stop-color="#ffffff"  /></linearGradient><clipPath clipPathUnits="userSpaceOnUse" id="cp1"><path d="M168.42 193.42C163.23 196.24 160 201.67 160 207.57L160 308.82C160 314.72 163.23 320.15 168.42 322.97L249.81 367.21C254.6 369.82 260.4 369.82 265.19 367.21L346.58 322.97C351.77 320.15 355 314.72 355 308.82L355 207.57C355 201.67 351.77 196.24 346.58 193.42L265.19 149.18C260.4 146.57 254.6 146.57 249.81 149.18L168.42 193.42Z" /></clipPath><radialGradient id="grd4" gradientUnits="userSpaceOnUse"  cx="257.5" cy="258.195" r="113.195"><stop offset="0" stop-color="#dfd6d5"  /><stop offset="1" stop-color="#918888"  /></radialGradient><linearGradient id="grd5" gradientUnits="userSpaceOnUse"  x1="237.328" y1="140.517" x2="237.328" y2="375.862"><stop offset="0" stop-color="#ffffff"  /><stop offset="1" stop-color="#f2eded" stop-opacity="0.01" /></linearGradient><linearGradient id="grd6" gradientUnits="userSpaceOnUse"  x1="119.655" y1="171.897" x2="237.328" y2="375.711"><stop offset="0" stop-color="#ffffff"  /><stop offset="1" stop-color="#f2eded" stop-opacity="0.01" /></linearGradient><linearGradient id="grd7" gradientUnits="userSpaceOnUse"  x1="351.638" y1="151.724" x2="233.966" y2="355.539"><stop offset="0" stop-color="#ffffff"  /><stop offset="1" stop-color="#f2eded" stop-opacity="0.01" /></linearGradient><linearGradient id="grd8" gradientUnits="userSpaceOnUse"  x1="208.319" y1="299.513" x2="208.134" y2="363.393"><stop offset="0" stop-color="#dedada" stop-opacity="0.01" /><stop offset="1" stop-color="#decfcf"  /></linearGradient></defs><style>tspan { white-space:pre }.shp0 { fill: #8c7a79 } .shp1 { fill: url(#grd1) } .shp2 { fill: url(#grd2) } .shp3 { fill: none;stroke: url(#grd3) } .shp4 { fill: #a6d3de } .shp5 { fill: url(#grd4) } .shp6 { opacity: 0.502;fill: url(#grd5) } .shp7 { opacity: 0.502;fill: url(#grd6) } .shp8 { opacity: 0.502;fill: url(#grd7) } .shp9 { fill: url(#grd8) } .shp10 { opacity: 0.031;fill: #bcb0ae } .shp11 { fill: #c4bbbc } .shp12 { opacity: 0.2;fill: #8c7a79 } .shp13 { fill: #ede9ea } .shp14 { fill: #ded9da } .shp15 { fill: #f9a74e } .shp16 { fill: none;stroke: #c4bbbc;stroke-linecap:round;stroke-linejoin:round;stroke-width: 4 } .shp17 { fill: none;stroke: #ded9da;stroke-linecap:round;stroke-linejoin:round;stroke-width: 4 } .shp18 { opacity: 0.302;fill: none;stroke: #ffffff;stroke-linecap:round;stroke-linejoin:round;stroke-width: 2 } </style><g ><path fill-rule="evenodd" class="shp0" d="M150 404.06C150 406.19 152.15 407.64 154.12 406.85L233.5 375L233.5 296L150 296L150 404.06Z" /><path fill-rule="evenodd" class="shp0" d="M362.5 404.06C362.5 406.19 360.35 407.64 358.38 406.85L279 375L279 296L362.5 296L362.5 404.06Z" /><g ><path fill-rule="evenodd" class="shp1" d="M140.88 176.17C135.41 179.15 132 184.88 132 191.1L132 325.4C132 331.63 135.41 337.36 140.88 340.34L248.88 399.09C253.94 401.84 260.06 401.84 265.12 399.09L373.12 340.34C378.59 337.36 382 331.63 382 325.4L382 191.1C382 184.88 378.59 179.15 373.12 176.17L265.12 117.42C260.06 114.66 253.94 114.66 248.88 117.42L140.88 176.17Z" /><path fill-rule="evenodd" class="shp2" d="M159.84 187.77C154.39 190.74 151 196.44 151 202.65L151 313.35C151 319.56 154.39 325.26 159.84 328.23L248.76 376.6C253.8 379.34 259.9 379.34 264.94 376.6L353.86 328.23C359.31 325.26 362.7 319.56 362.7 313.35L362.7 202.65C362.7 196.44 359.31 190.74 353.86 187.77L264.94 139.4C259.9 136.66 253.8 136.66 248.76 139.4L159.84 187.77Z" /><path class="shp3" d="M159.84 187.77C154.39 190.74 151 196.44 151 202.65L151 313.35C151 319.56 154.39 325.26 159.84 328.23L248.76 376.6C253.8 379.34 259.9 379.34 264.94 376.6L353.86 328.23C359.31 325.26 362.7 319.56 362.7 313.35L362.7 202.65C362.7 196.44 359.31 190.74 353.86 187.77L264.94 139.4C259.9 136.66 253.8 136.66 248.76 139.4L159.84 187.77Z" /><g style="opacity: 0.502"><path fill-rule="evenodd" class="shp4" d="M168.42 193.42C163.23 196.24 160 201.67 160 207.57L160 308.82C160 314.72 163.23 320.15 168.42 322.97L249.81 367.21C254.6 369.82 260.4 369.82 265.19 367.21L346.58 322.97C351.77 320.15 355 314.72 355 308.82L355 207.57C355 201.67 351.77 196.24 346.58 193.42L265.19 149.18C260.4 146.57 254.6 146.57 249.81 149.18L168.42 193.42Z" /><g clip-path="url(#cp1)"><g ><g ><path fill-rule="evenodd" class="shp5" d="M168.42 193.42C163.23 196.24 160 201.67 160 207.57L160 308.82C160 314.72 163.23 320.15 168.42 322.97L249.81 367.21C254.6 369.82 260.4 369.82 265.19 367.21L346.58 322.97C351.77 320.15 355 314.72 355 308.82L355 207.57C355 201.67 351.77 196.24 346.58 193.42L265.19 149.18C260.4 146.57 254.6 146.57 249.81 149.18L168.42 193.42Z" /><path fill-rule="evenodd" class="shp6" d="M241.2 375.86L273.8 375.86L277.67 140.52L237.33 140.52L241.2 375.86Z" /><path fill-rule="evenodd" class="shp7" d="M240.68 373.77L268.91 357.48L154.59 151.72L119.66 171.9L240.68 373.77Z" /><path fill-rule="evenodd" class="shp8" d="M237.32 357.48L265.55 373.77L386.58 171.9L351.64 151.72L237.32 357.48Z" /><path class="shp9" d="M160 244.74L355 244.74L355 371.38L160 371.38L160 244.74Z" /><path fill-rule="evenodd" class="shp10" d="M168.42 193.42C163.23 196.24 160 201.67 160 207.57L160 308.82C160 314.72 163.23 320.15 168.42 322.97L249.81 367.21C254.6 369.82 260.4 369.82 265.19 367.21L346.58 322.97C351.77 320.15 355 314.72 355 308.82L355 207.57C355 201.67 351.77 196.24 346.58 193.42L265.19 149.18C260.4 146.57 254.6 146.57 249.81 149.18L168.42 193.42Z" /></g></g></g></g></g></g><g ><path fill-rule="evenodd" class="shp11" d="M268.93 284.34L268.93 326.49L246.74 326.49L246.74 284.34L268.93 284.34Z" /><path fill-rule="evenodd" class="shp12" d="M268.93 284.34L268.93 326.49L262.27 326.49L262.27 284.34L268.93 284.34Z" /><path class="shp13" d="M237.87 324.27C230.54 324.27 224.56 330.26 224.56 337.59L291.12 337.59C291.12 330.26 285.13 324.27 277.81 324.27L237.87 324.27Z" /><path class="shp14" d="M266.71 324.27C274.03 324.27 280.02 330.26 280.02 337.59L291.12 337.59C291.12 330.26 285.13 324.27 277.81 324.27L266.71 324.27Z" /><path class="shp13" d="M246.52 302.09C240.53 302.09 235.65 297.21 235.65 291.22L235.65 288.77L280.02 288.77L280.02 291.22C280.02 297.21 275.14 302.09 269.15 302.09L246.52 302.09Z" /><path class="shp14" d="M271.15 291.22C271.15 297.21 268.49 302.09 262.5 302.09L269.15 302.09C275.14 302.09 280.02 297.21 280.02 291.22L280.02 288.77L271.15 288.77L271.15 291.22Z" /><path class="shp11" d="M220.12 337.59C220.12 335.15 222.11 333.15 224.56 333.15L291.12 333.15C293.56 333.15 295.56 335.15 295.56 337.59L220.12 337.59Z" /><path class="shp12" d="M280.02 333.15C282.46 333.15 284.46 335.15 284.46 337.59L295.56 337.59C295.56 335.15 293.56 333.15 291.12 333.15L280.02 333.15Z" /><path class="shp15" d="M231.21 284.34L231.21 290.99C231.21 293.43 233.21 295.43 235.65 295.43L280.02 295.43C282.46 295.43 284.46 293.43 284.46 290.99L284.46 284.34L231.21 284.34Z" /><path class="shp11" d="M231.21 284.34L231.21 290.99C231.21 293.43 233.21 295.43 235.65 295.43L280.02 295.43C282.46 295.43 284.46 293.43 284.46 290.99L284.46 284.34L231.21 284.34Z" /><path class="shp12" d="M268.93 290.99C271.15 290.99 271.37 295.43 268.93 295.43L280.02 295.43C282.46 295.43 284.46 293.43 284.46 290.99L284.46 284.34L273.37 284.34L268.93 290.99Z" /><path class="shp16" d="M288.9 213.34L331.06 213.34L331.06 215.56C331.06 238.85 312.19 257.71 288.9 257.71" /><path class="shp17" d="M226.77 213.34L184.62 213.34L184.62 215.56C184.62 238.85 203.48 257.71 226.77 257.71" /><path class="shp13" d="M238.98 290.99C224.78 290.99 213.46 279.68 213.46 265.48L213.46 195.59L302.21 195.59L302.21 265.48C302.21 279.68 290.89 290.99 276.69 290.99L238.98 290.99Z" /><path class="shp18" d="M226.77 202.24C226.77 202.24 226.77 239.96 226.77 246.62" /><path class="shp14" d="M292 265.59C292 279.73 281.8 291 269 291L279 291C291.8 291 302 279.73 302 265.59L302 196L292 196L292 265.59Z" /><path class="shp11" d="M206.81 195.59L213.46 202.24L302.21 202.24L308.87 195.59L206.81 195.59Z" /><path class="shp12" d="M292 202L302.63 202L309 195L296.25 195L292 202Z" /><path class="shp13" d="M204.59 186.71C202.15 186.71 200.15 188.71 200.15 191.15C200.15 193.59 202.15 195.59 204.59 195.59L311.09 195.59C313.53 195.59 315.52 193.59 315.52 191.15C315.52 188.71 313.53 186.71 311.09 186.71L204.59 186.71Z" /><path class="shp14" d="M297.77 186.71C300.21 186.71 302.21 188.71 302.21 191.15C302.21 193.59 300.21 195.59 297.77 195.59L311.09 195.59C313.53 195.59 315.52 193.59 315.52 191.15C315.52 188.71 313.53 186.71 311.09 186.71L297.77 186.71Z" /><path class="shp18" d="M226.77 256.38L226.77 261.48" /></g></svg>