<svg version="1.2" baseProfile="tiny-ps" xmlns="http://www.w3.org/2000/svg" viewBox="0 0 517 540" width="517" height="540"><title>medal_46-svg</title><defs><linearGradient id="grd1" gradientUnits="userSpaceOnUse"  x1="229.615" y1="55" x2="229.615" y2="221.139"><stop offset="0" stop-color="#ffbeaa" stop-opacity="0.01" /><stop offset="1" stop-color="#ffc9aa" stop-opacity="0.3" /></linearGradient><linearGradient id="grd2" gradientUnits="userSpaceOnUse"  x1="453.159" y1="345.351" x2="309.278" y2="262.282"><stop offset="0" stop-color="#ffbeaa" stop-opacity="0.01" /><stop offset="1" stop-color="#ffc9aa" stop-opacity="0.3" /></linearGradient><linearGradient id="grd3" gradientUnits="userSpaceOnUse"  x1="287.265" y1="475.852" x2="287.265" y2="309.712"><stop offset="0" stop-color="#ffbeaa" stop-opacity="0.01" /><stop offset="1" stop-color="#ffc9aa" stop-opacity="0.3" /></linearGradient><linearGradient id="grd4" gradientUnits="userSpaceOnUse"  x1="93.35" y1="396.713" x2="237.231" y2="313.643"><stop offset="0" stop-color="#ffbeaa" stop-opacity="0.01" /><stop offset="1" stop-color="#ffc9aa" stop-opacity="0.3" /></linearGradient><linearGradient id="grd5" gradientUnits="userSpaceOnUse"  x1="453.159" y1="185.761" x2="309.278" y2="268.831"><stop offset="0" stop-color="#ffbeaa" stop-opacity="0.01" /><stop offset="1" stop-color="#ffc9aa" stop-opacity="0.3" /></linearGradient><linearGradient id="grd6" gradientUnits="userSpaceOnUse"  x1="93.35" y1="134.401" x2="237.231" y2="217.471"><stop offset="0" stop-color="#ffbeaa" stop-opacity="0.01" /><stop offset="1" stop-color="#ffc9aa" stop-opacity="0.3" /></linearGradient><linearGradient id="grd7" gradientUnits="userSpaceOnUse"  x1="108" y1="225" x2="108" y2="310"><stop offset="0" stop-color="#efd9bd"  /><stop offset="1" stop-color="#c39470"  /></linearGradient><linearGradient id="grd8" gradientUnits="userSpaceOnUse"  x1="90" y1="246.25" x2="142.401" y2="290.637"><stop offset="0" stop-color="#f3ddc4"  /><stop offset="0.379" stop-color="#f3ddc4"  /><stop offset="0.463" stop-color="#f3ddc4"  /><stop offset="1" stop-color="#74523f"  /></linearGradient><linearGradient id="grd9" gradientUnits="userSpaceOnUse"  x1="410" y1="225" x2="410" y2="310"><stop offset="0" stop-color="#efd9bd"  /><stop offset="1" stop-color="#c39470"  /></linearGradient><linearGradient id="grd10" gradientUnits="userSpaceOnUse"  x1="428" y1="246.25" x2="375.599" y2="290.637"><stop offset="0" stop-color="#f3ddc4"  /><stop offset="0.379" stop-color="#f3ddc4"  /><stop offset="0.463" stop-color="#f3ddc4"  /><stop offset="1" stop-color="#74523f"  /></linearGradient><linearGradient id="grd11" gradientUnits="userSpaceOnUse"  x1="208.538" y1="516.48" x2="306.699" y2="519.344"><stop offset="0" stop-color="#d8b697"  /><stop offset="0.374" stop-color="#f0d6bd"  /><stop offset="0.72" stop-color="#c89e78"  /><stop offset="0.938" stop-color="#dfcbb9"  /></linearGradient><linearGradient id="grd12" gradientUnits="userSpaceOnUse"  x1="160.939" y1="476.846" x2="203.25" y2="477.499"><stop offset="0" stop-color="#d8b697"  /><stop offset="0.374" stop-color="#f0d6bd"  /><stop offset="0.72" stop-color="#c89e78"  /><stop offset="0.938" stop-color="#dfcbb9"  /></linearGradient><linearGradient id="grd13" gradientUnits="userSpaceOnUse"  x1="358.061" y1="476.846" x2="315.75" y2="477.499"><stop offset="0" stop-color="#d8b697"  /><stop offset="0.374" stop-color="#f0d6bd"  /><stop offset="0.72" stop-color="#c89e78"  /><stop offset="0.938" stop-color="#dfcbb9"  /></linearGradient><linearGradient id="grd14" gradientUnits="userSpaceOnUse"  x1="354.372" y1="452.723" x2="319.629" y2="453.567"><stop offset="0" stop-color="#d8b697"  /><stop offset="0.374" stop-color="#f0d6bd"  /><stop offset="0.72" stop-color="#c89e78"  /><stop offset="0.938" stop-color="#dfcbb9"  /></linearGradient><linearGradient id="grd15" gradientUnits="userSpaceOnUse"  x1="197.462" y1="445.883" x2="273.363" y2="487.309"><stop offset="0.192" stop-color="#dfcbb9"  /><stop offset="0.475" stop-color="#d8b290"  /><stop offset="0.678" stop-color="#debfa4"  /><stop offset="0.866" stop-color="#dfcbb9"  /></linearGradient><linearGradient id="grd16" gradientUnits="userSpaceOnUse"  x1="165.128" y1="452.723" x2="199.871" y2="453.567"><stop offset="0" stop-color="#d8b697"  /><stop offset="0.374" stop-color="#f0d6bd"  /><stop offset="0.72" stop-color="#c89e78"  /><stop offset="0.938" stop-color="#dfcbb9"  /></linearGradient><linearGradient id="grd17" gradientUnits="userSpaceOnUse"  x1="110.331" y1="223.364" x2="249.787" y2="428.543"><stop offset="0" stop-color="#f1dcc1"  /><stop offset="1" stop-color="#bd8a65"  /></linearGradient><linearGradient id="grd18" gradientUnits="userSpaceOnUse"  x1="128.479" y1="232.858" x2="247.609" y2="395.665"><stop offset="0" stop-color="#bf8e69"  /><stop offset="1" stop-color="#e4c196"  /></linearGradient><linearGradient id="grd19" gradientUnits="userSpaceOnUse"  x1="135.106" y1="230.716" x2="263.021" y2="401.141"><stop offset="0" stop-color="#ebd4b7"  /><stop offset="1" stop-color="#ffe3ce"  /></linearGradient><clipPath clipPathUnits="userSpaceOnUse" id="cp1"><path d="M170.42 203.42C165.23 206.24 162 211.67 162 217.57L162 318.82C162 324.72 165.23 330.15 170.42 332.97L251.81 377.21C256.6 379.82 262.4 379.82 267.19 377.21L348.58 332.97C353.77 330.15 357 324.72 357 318.82L357 217.57C357 211.67 353.77 206.24 348.58 203.42L267.19 159.18C262.4 156.57 256.6 156.57 251.81 159.18L170.42 203.42Z" /></clipPath><radialGradient id="grd20" gradientUnits="userSpaceOnUse"  cx="259.5" cy="268.195" r="113.195"><stop offset="0" stop-color="#e3c29c"  /><stop offset="1" stop-color="#d1a479"  /></radialGradient><linearGradient id="grd21" gradientUnits="userSpaceOnUse"  x1="239.328" y1="150.517" x2="239.328" y2="385.862"><stop offset="0" stop-color="#ffffff"  /><stop offset="1" stop-color="#f2eded" stop-opacity="0.01" /></linearGradient><linearGradient id="grd22" gradientUnits="userSpaceOnUse"  x1="121.655" y1="181.896" x2="239.328" y2="385.711"><stop offset="0" stop-color="#ffffff"  /><stop offset="1" stop-color="#f2eded" stop-opacity="0.01" /></linearGradient><linearGradient id="grd23" gradientUnits="userSpaceOnUse"  x1="353.638" y1="161.724" x2="235.966" y2="365.539"><stop offset="0" stop-color="#ffffff"  /><stop offset="1" stop-color="#f2eded" stop-opacity="0.01" /></linearGradient><linearGradient id="grd24" gradientUnits="userSpaceOnUse"  x1="210.319" y1="309.513" x2="210.134" y2="373.393"><stop offset="0.292" stop-color="#fffaf7" stop-opacity="0.01" /><stop offset="1" stop-color="#e4cbad"  /></linearGradient></defs><style>tspan { white-space:pre }.shp0 { fill: url(#grd1) } .shp1 { fill: url(#grd2) } .shp2 { fill: url(#grd3) } .shp3 { fill: url(#grd4) } .shp4 { fill: url(#grd5) } .shp5 { fill: url(#grd6) } .shp6 { fill: url(#grd7) } .shp7 { fill: none;stroke: url(#grd8);stroke-width: 2 } .shp8 { fill: url(#grd9) } .shp9 { fill: none;stroke: url(#grd10);stroke-width: 2 } .shp10 { fill: #bb9986;stroke: url(#grd11);stroke-width: 2 } .shp11 { fill: #8c685c;stroke: url(#grd12);stroke-width: 2 } .shp12 { fill: #8c685c;stroke: url(#grd13);stroke-width: 2 } .shp13 { fill: #8c685c } .shp14 { fill: none;stroke: url(#grd14) } .shp15 { fill: url(#grd15) } .shp16 { fill: none;stroke: url(#grd16) } .shp17 { fill: url(#grd17) } .shp18 { fill: url(#grd18) } .shp19 { fill: none;stroke: url(#grd19) } .shp20 { fill: #a6d3de } .shp21 { fill: url(#grd20) } .shp22 { opacity: 0.502;fill: url(#grd21) } .shp23 { opacity: 0.502;fill: url(#grd22) } .shp24 { opacity: 0.502;fill: url(#grd23) } .shp25 { fill: url(#grd24) } .shp26 { opacity: 0.031;fill: #f5c4af } .shp27 { fill: #c08e6a } .shp28 { opacity: 0.2;fill: #8c685c } .shp29 { fill: #dfbfa1 } .shp30 { fill: #dab287 } .shp31 { fill: #f9a74e } .shp32 { fill: none;stroke: #c08e6a;stroke-linecap:round;stroke-linejoin:round;stroke-width: 4 } .shp33 { fill: none;stroke: #dab287;stroke-linecap:round;stroke-linejoin:round;stroke-width: 4 } .shp34 { opacity: 0.149;fill: none;stroke: #ffffff;stroke-linecap:round;stroke-linejoin:round;stroke-width: 2 } </style><path fill-rule="evenodd" class="shp0" d="M236.95 221.14L280.98 221.14L288.31 55L229.62 55L236.95 221.14Z" /><path fill-rule="evenodd" class="shp1" d="M305.61 268.64L283.6 306.76L423.81 396.19L453.16 345.35L305.61 268.64Z" /><path fill-rule="evenodd" class="shp2" d="M279.93 309.71L235.9 309.71L228.57 475.85L287.26 475.85L279.93 309.71Z" /><path fill-rule="evenodd" class="shp3" d="M233.56 307.29L211.55 269.16L64 345.88L93.35 396.71L233.56 307.29Z" /><path fill-rule="evenodd" class="shp4" d="M305.61 262.48L283.6 224.35L423.81 134.93L453.16 185.76L305.61 262.48Z" /><path fill-rule="evenodd" class="shp5" d="M233.56 223.82L211.55 261.95L64 185.24L93.35 134.4L233.56 223.82Z" /><g ><path fill-rule="evenodd" class="shp6" d="M108 225L108 281.17C108 294.09 121.5 310 144 310L144 225L108 225Z" /><path class="shp7" d="M108 225L108 281.17C108 294.09 121.5 310 144 310L144 225L108 225Z" /><path fill-rule="evenodd" class="shp8" d="M410 225L410 281.17C410 294.09 396.5 310 374 310L374 225L410 225Z" /><path class="shp9" d="M410 225L410 281.17C410 294.09 396.5 310 374 310L374 225L410 225Z" /><path fill-rule="evenodd" class="shp10" d="M308.5 302L308.5 441.77L260.57 469.28C259.68 469.79 258.59 469.79 257.69 469.28L211 442.26L211 302L308.5 302Z" /><path fill-rule="evenodd" class="shp11" d="M204 439.04L163.42 415.24C162.54 414.72 162 413.77 162 412.75L162 302L204 302L204 439.04Z" /><path fill-rule="evenodd" class="shp12" d="M315 439.04L355.58 415.24C356.46 414.72 357 413.77 357 412.75L357 302L315 302L315 439.04Z" /><path fill-rule="evenodd" class="shp13" d="M353.5 361.5L353.5 409C351.33 409.17 346.9 411 346.5 417L319 433L319 378.5" /><path class="shp14" d="M353.5 361.5L353.5 409C351.33 409.17 346.9 411 346.5 417L319 433L319 378.5" /><path fill-rule="evenodd" class="shp15" d="M215.5 436.58L215.5 388L214.5 388L214.5 437.42L214.92 437.49C216.39 437.74 217.65 438.09 218.73 439.06C219.81 440.03 220.78 441.67 221.51 444.62L221.57 444.83L258.87 466L260 466L260.28 465.92L297.43 444.83L297.49 444.62C298.22 441.67 299.19 440.03 300.27 439.06C301.35 438.09 302.61 437.74 304.08 437.49L304.5 437.42L304.5 388L303.5 388L303.5 436.58C302.12 436.84 300.78 437.26 299.6 438.31C298.34 439.44 297.32 441.24 296.57 444.17L259.87 465L259.13 465L222.43 444.17C221.68 441.24 220.66 439.44 219.4 438.31C218.22 437.26 216.88 436.84 215.5 436.58Z" /><path fill-rule="evenodd" class="shp13" d="M166 361.5L166 409C168.17 409.17 172.6 411 173 417L200.5 433L200.5 378.5" /><path class="shp16" d="M166 361.5L166 409C168.17 409.17 172.6 411 173 417L200.5 433L200.5 378.5" /><g ><path fill-rule="evenodd" class="shp17" d="M142.88 186.17C137.41 189.15 134 194.88 134 201.1L134 335.4C134 341.63 137.41 347.36 142.88 350.33L250.88 409.09C255.94 411.84 262.06 411.84 267.12 409.09L375.12 350.33C380.59 347.36 384 341.63 384 335.4L384 201.1C384 194.88 380.59 189.15 375.12 186.17L267.12 127.42C262.06 124.66 255.94 124.66 250.88 127.42L142.88 186.17Z" /><path fill-rule="evenodd" class="shp18" d="M161.84 197.77C156.39 200.74 153 206.44 153 212.65L153 323.35C153 329.56 156.39 335.26 161.84 338.23L250.76 386.6C255.8 389.34 261.9 389.34 266.94 386.6L355.86 338.23C361.31 335.26 364.7 329.56 364.7 323.35L364.7 212.65C364.7 206.44 361.31 200.74 355.86 197.77L266.94 149.4C261.9 146.66 255.8 146.66 250.76 149.4L161.84 197.77Z" /><path class="shp19" d="M161.84 197.77C156.39 200.74 153 206.44 153 212.65L153 323.35C153 329.56 156.39 335.26 161.84 338.23L250.76 386.6C255.8 389.34 261.9 389.34 266.94 386.6L355.86 338.23C361.31 335.26 364.7 329.56 364.7 323.35L364.7 212.65C364.7 206.44 361.31 200.74 355.86 197.77L266.94 149.4C261.9 146.66 255.8 146.66 250.76 149.4L161.84 197.77Z" /><g style="opacity: 0.502"><path fill-rule="evenodd" class="shp20" d="M170.42 203.42C165.23 206.24 162 211.67 162 217.57L162 318.82C162 324.72 165.23 330.15 170.42 332.97L251.81 377.21C256.6 379.82 262.4 379.82 267.19 377.21L348.58 332.97C353.77 330.15 357 324.72 357 318.82L357 217.57C357 211.67 353.77 206.24 348.58 203.42L267.19 159.18C262.4 156.57 256.6 156.57 251.81 159.18L170.42 203.42Z" /><g clip-path="url(#cp1)"><g ><g ><g ><path fill-rule="evenodd" class="shp21" d="M170.42 203.42C165.23 206.24 162 211.67 162 217.57L162 318.82C162 324.72 165.23 330.15 170.42 332.97L251.81 377.21C256.6 379.82 262.4 379.82 267.19 377.21L348.58 332.97C353.77 330.15 357 324.72 357 318.82L357 217.57C357 211.67 353.77 206.24 348.58 203.42L267.19 159.18C262.4 156.57 256.6 156.57 251.81 159.18L170.42 203.42Z" /><path fill-rule="evenodd" class="shp22" d="M243.2 385.86L275.8 385.86L279.67 150.52L239.33 150.52L243.2 385.86Z" /><path fill-rule="evenodd" class="shp23" d="M242.68 383.77L270.91 367.48L156.59 161.72L121.66 181.9L242.68 383.77Z" /><path fill-rule="evenodd" class="shp24" d="M239.32 367.48L267.55 383.77L388.58 181.9L353.64 161.72L239.32 367.48Z" /><path class="shp25" d="M162 254.74L357 254.74L357 381.38L162 381.38L162 254.74Z" /><path fill-rule="evenodd" class="shp26" d="M170.42 203.42C165.23 206.24 162 211.67 162 217.57L162 318.82C162 324.72 165.23 330.15 170.42 332.97L251.81 377.21C256.6 379.82 262.4 379.82 267.19 377.21L348.58 332.97C353.77 330.15 357 324.72 357 318.82L357 217.57C357 211.67 353.77 206.24 348.58 203.42L267.19 159.18C262.4 156.57 256.6 156.57 251.81 159.18L170.42 203.42Z" /></g></g></g></g></g></g></g><g ><path fill-rule="evenodd" class="shp27" d="M269.66 294.34L269.66 336.49L247.47 336.49L247.47 294.34L269.66 294.34Z" /><path fill-rule="evenodd" class="shp28" d="M269.66 294.34L269.66 336.49L263.01 336.49L263.01 294.34L269.66 294.34Z" /><path class="shp29" d="M238.6 334.27C231.28 334.27 225.29 340.26 225.29 347.59L291.85 347.59C291.85 340.26 285.86 334.27 278.54 334.27L238.6 334.27Z" /><path class="shp30" d="M267.44 334.27C274.76 334.27 280.76 340.26 280.76 347.59L291.85 347.59C291.85 340.26 285.86 334.27 278.54 334.27L267.44 334.27Z" /><path class="shp29" d="M247.25 312.09C241.26 312.09 236.38 307.21 236.38 301.22L236.38 298.77L280.76 298.77L280.76 301.22C280.76 307.21 275.88 312.09 269.88 312.09L247.25 312.09Z" /><path class="shp30" d="M271.88 301.22C271.88 307.21 269.22 312.09 263.23 312.09L269.88 312.09C275.87 312.09 280.75 307.21 280.75 301.22L280.75 298.77L271.88 298.77L271.88 301.22Z" /><path class="shp27" d="M220.85 347.59C220.85 345.15 222.85 343.15 225.29 343.15L291.85 343.15C294.29 343.15 296.29 345.15 296.29 347.59L220.85 347.59Z" /><path class="shp28" d="M280.76 343.15C283.2 343.15 285.19 345.15 285.19 347.59L296.29 347.59C296.29 345.15 294.29 343.15 291.85 343.15L280.76 343.15Z" /><path class="shp31" d="M231.94 294.34L231.94 300.99C231.94 303.43 233.94 305.43 236.38 305.43L280.76 305.43C283.2 305.43 285.19 303.43 285.19 300.99L285.19 294.34L231.94 294.34Z" /><path class="shp27" d="M231.94 294.34L231.94 300.99C231.94 303.43 233.94 305.43 236.38 305.43L280.76 305.43C283.2 305.43 285.19 303.43 285.19 300.99L285.19 294.34L231.94 294.34Z" /><path class="shp28" d="M269.66 300.99C271.88 300.99 272.1 305.43 269.66 305.43L280.76 305.43C283.2 305.43 285.19 303.43 285.19 300.99L285.19 294.34L274.1 294.34L269.66 300.99Z" /><path class="shp32" d="M289.63 223.34L331.79 223.34L331.79 225.56C331.79 248.85 312.93 267.71 289.63 267.71" /><path class="shp33" d="M227.51 223.34L185.35 223.34L185.35 225.56C185.35 248.85 204.21 267.71 227.51 267.71" /><path class="shp29" d="M239.71 300.99C225.51 300.99 214.19 289.68 214.19 275.48L214.19 205.59L302.94 205.59L302.94 275.48C302.94 289.68 291.63 300.99 277.43 300.99L239.71 300.99Z" /><path class="shp34" d="M227.51 212.24C227.51 212.24 227.51 249.96 227.51 256.62" /><path class="shp30" d="M292.73 275.59C292.73 289.73 282.53 301 269.73 301L279.73 301C292.53 301 302.73 289.73 302.73 275.59L302.73 206L292.73 206L292.73 275.59Z" /><path class="shp27" d="M207.54 205.59L214.19 212.24L302.94 212.24L309.6 205.59L207.54 205.59Z" /><path class="shp28" d="M292.73 212L303.36 212L309.73 205L296.98 205L292.73 212Z" /><path class="shp29" d="M205.32 196.71C202.88 196.71 200.88 198.71 200.88 201.15C200.88 203.59 202.88 205.59 205.32 205.59L311.82 205.59C314.26 205.59 316.26 203.59 316.26 201.15C316.26 198.71 314.26 196.71 311.82 196.71L205.32 196.71Z" /><path class="shp30" d="M298.51 196.71C300.95 196.71 302.94 198.71 302.94 201.15C302.94 203.59 300.95 205.59 298.51 205.59L311.82 205.59C314.26 205.59 316.26 203.59 316.26 201.15C316.26 198.71 314.26 196.71 311.82 196.71L298.51 196.71Z" /><path class="shp34" d="M227.51 266.38L227.51 271.48" /></g></svg>