<svg version="1.2" baseProfile="tiny-ps" xmlns="http://www.w3.org/2000/svg" viewBox="0 0 517 540" width="517" height="540"><title>medal_32-svg</title><defs><linearGradient id="grd1" gradientUnits="userSpaceOnUse"  x1="110.562" y1="200.163" x2="248.378" y2="403.232"><stop offset="0" stop-color="#fafafa"  /><stop offset="1" stop-color="#c2c4cd"  /></linearGradient><linearGradient id="grd2" gradientUnits="userSpaceOnUse"  x1="128.532" y1="209.551" x2="246.273" y2="370.7"><stop offset="0" stop-color="#cdcfd6"  /><stop offset="1" stop-color="#efeff1"  /></linearGradient><linearGradient id="grd3" gradientUnits="userSpaceOnUse"  x1="135.095" y1="207.432" x2="261.523" y2="376.128"><stop offset="0" stop-color="#dddfe2"  /><stop offset="1" stop-color="#ffffff"  /></linearGradient><clipPath clipPathUnits="userSpaceOnUse" id="cp1"><path d="M166.25 182.51C163.46 184.02 161.73 186.94 161.73 190.11L161.73 298.87C161.73 302.05 163.46 304.96 166.25 306.48L254.15 354.18C256.73 355.57 259.83 355.57 262.41 354.18L350.31 306.48C353.09 304.96 354.83 302.05 354.83 298.87L354.83 190.11C354.83 186.94 353.09 184.02 350.31 182.51L262.41 134.8C259.83 133.41 256.73 133.41 254.15 134.8L166.25 182.51Z" /></clipPath><radialGradient id="grd4" gradientUnits="userSpaceOnUse"  cx="258.279" cy="244.491" r="111.926"><stop offset="0" stop-color="#f5f7ff"  /><stop offset="1" stop-color="#b3b5c5"  /></radialGradient><linearGradient id="grd5" gradientUnits="userSpaceOnUse"  x1="238.304" y1="128.132" x2="238.304" y2="360.838"><stop offset="0" stop-color="#ffffff"  /><stop offset="1" stop-color="#f2eded" stop-opacity="0.01" /></linearGradient><linearGradient id="grd6" gradientUnits="userSpaceOnUse"  x1="121.907" y1="159.083" x2="238.174" y2="360.763"><stop offset="0" stop-color="#ffffff"  /><stop offset="1" stop-color="#f2eded" stop-opacity="0.01" /></linearGradient><linearGradient id="grd7" gradientUnits="userSpaceOnUse"  x1="351.371" y1="139.138" x2="235.104" y2="340.817"><stop offset="0" stop-color="#ffffff"  /><stop offset="1" stop-color="#f2eded" stop-opacity="0.01" /></linearGradient><linearGradient id="grd8" gradientUnits="userSpaceOnUse"  x1="209.577" y1="285.344" x2="209.395" y2="348.508"><stop offset="0" stop-color="#ffffff" stop-opacity="0.01" /><stop offset="1" stop-color="#d0dbff"  /></linearGradient><linearGradient id="grd9" gradientUnits="userSpaceOnUse"  x1="371.951" y1="328.477" x2="334.508" y2="306.859"><stop offset="0" stop-color="#585b77" stop-opacity="0.75" /><stop offset="1" stop-color="#525787" stop-opacity="0.01" /></linearGradient><linearGradient id="grd10" gradientUnits="userSpaceOnUse"  x1="366.974" y1="337.362" x2="398.926" y2="322.445"><stop offset="0" stop-color="#d5d7d9"  /><stop offset="1" stop-color="#e2e3e7"  /></linearGradient><clipPath clipPathUnits="userSpaceOnUse" id="cp2"><path d="M385.05 322.21L363.2 340.32L339.2 296.04L338.48 295.63L338.97 295.62L338.97 295.6L338.99 295.62L389.8 294.24L385.05 322.21L385.05 322.21L385.05 322.21Z" /></clipPath><linearGradient id="grd11" gradientUnits="userSpaceOnUse"  x1="406.418" y1="336.951" x2="387.543" y2="361.489"><stop offset="0" stop-color="#cccfdd"  /><stop offset="0.259" stop-color="#d9dbe4"  /><stop offset="0.878" stop-color="#e2e3e7"  /></linearGradient><linearGradient id="grd12" gradientUnits="userSpaceOnUse"  x1="329.961" y1="273.552" x2="318.692" y2="296.633"><stop offset="0" stop-color="#f4f5f8"  /><stop offset="1" stop-color="#f5f6f7"  /></linearGradient><linearGradient id="grd13" gradientUnits="userSpaceOnUse"  x1="145.019" y1="328.477" x2="182.463" y2="306.859"><stop offset="0" stop-color="#585b77" stop-opacity="0.75" /><stop offset="1" stop-color="#525787" stop-opacity="0.01" /></linearGradient><linearGradient id="grd14" gradientUnits="userSpaceOnUse"  x1="160.074" y1="337.362" x2="192.025" y2="322.445"><stop offset="0" stop-color="#d5d7d9"  /><stop offset="1" stop-color="#e2e3e7"  /></linearGradient><clipPath clipPathUnits="userSpaceOnUse" id="cp3"><path d="M177.98 295.62L127.17 294.24L131.92 322.21L131.92 322.21L131.92 322.21L153.77 340.32L177.77 296.04L178.49 295.63L178 295.62L178 295.6L177.98 295.62Z" /></clipPath><linearGradient id="grd15" gradientUnits="userSpaceOnUse"  x1="110.553" y1="336.951" x2="129.428" y2="361.489"><stop offset="0" stop-color="#cccfdd"  /><stop offset="0.259" stop-color="#d9dbe4"  /><stop offset="0.878" stop-color="#e2e3e7"  /></linearGradient><linearGradient id="grd16" gradientUnits="userSpaceOnUse"  x1="187.01" y1="273.552" x2="198.279" y2="296.633"><stop offset="0" stop-color="#f4f5f8"  /><stop offset="1" stop-color="#f5f6f7"  /></linearGradient><linearGradient id="grd17" gradientUnits="userSpaceOnUse"  x1="245.103" y1="110.02" x2="245.103" y2="143.576"><stop offset="0" stop-color="#585b77" stop-opacity="0.75" /><stop offset="1" stop-color="#525787" stop-opacity="0.01" /></linearGradient><linearGradient id="grd18" gradientUnits="userSpaceOnUse"  x1="261.519" y1="143.254" x2="287.636" y2="131.52"><stop offset="0" stop-color="#d5d7d9"  /><stop offset="1" stop-color="#e2e3e7"  /></linearGradient><clipPath clipPathUnits="userSpaceOnUse" id="cp4"><path d="M257.46 97L279.82 105.3L257.46 141.74L257.46 141.74L257.46 141.74L257.45 141.74L257.45 141.74L235.09 105.3L257.45 97L257.45 97L257.46 97L257.46 97L257.46 97Z" /></clipPath><linearGradient id="grd19" gradientUnits="userSpaceOnUse"  x1="262.735" y1="99.791" x2="284.597" y2="105.237"><stop offset="0" stop-color="#dbdce1"  /><stop offset="1" stop-color="#f2f3f8"  /></linearGradient><linearGradient id="grd20" gradientUnits="userSpaceOnUse"  x1="245.183" y1="157.57" x2="266.728" y2="156.073"><stop offset="0" stop-color="#f4f5f8"  /><stop offset="1" stop-color="#f5f6f7"  /></linearGradient><linearGradient id="grd21" gradientUnits="userSpaceOnUse"  x1="110.562" y1="199.163" x2="248.378" y2="402.232"><stop offset="0" stop-color="#fafafa"  /><stop offset="1" stop-color="#c2c4cd"  /></linearGradient><linearGradient id="grd22" gradientUnits="userSpaceOnUse"  x1="128.532" y1="208.551" x2="246.273" y2="369.7"><stop offset="0" stop-color="#cdcfd6"  /><stop offset="1" stop-color="#efeff1"  /></linearGradient><linearGradient id="grd23" gradientUnits="userSpaceOnUse"  x1="135.095" y1="206.432" x2="261.523" y2="375.128"><stop offset="0" stop-color="#dddfe2"  /><stop offset="1" stop-color="#ffffff"  /></linearGradient><radialGradient id="grd24" gradientUnits="userSpaceOnUse"  cx="258.279" cy="243.491" r="111.926"><stop offset="0" stop-color="#f5f7ff"  /><stop offset="1" stop-color="#b3b5c5"  /></radialGradient><linearGradient id="grd25" gradientUnits="userSpaceOnUse"  x1="238.304" y1="127.132" x2="238.304" y2="359.838"><stop offset="0" stop-color="#ffffff"  /><stop offset="1" stop-color="#f2eded" stop-opacity="0.01" /></linearGradient><linearGradient id="grd26" gradientUnits="userSpaceOnUse"  x1="121.907" y1="158.083" x2="238.174" y2="359.763"><stop offset="0" stop-color="#ffffff"  /><stop offset="1" stop-color="#f2eded" stop-opacity="0.01" /></linearGradient><linearGradient id="grd27" gradientUnits="userSpaceOnUse"  x1="351.371" y1="138.138" x2="235.104" y2="339.817"><stop offset="0" stop-color="#ffffff"  /><stop offset="1" stop-color="#f2eded" stop-opacity="0.01" /></linearGradient><linearGradient id="grd28" gradientUnits="userSpaceOnUse"  x1="209.577" y1="284.344" x2="209.395" y2="347.508"><stop offset="0" stop-color="#ffffff" stop-opacity="0.01" /><stop offset="1" stop-color="#d0dbff"  /></linearGradient><linearGradient id="grd29" gradientUnits="userSpaceOnUse"  x1="222.623" y1="217.135" x2="248.182" y2="287.089"><stop offset="0.169" stop-color="#f4f3f8"  /><stop offset="0.36" stop-color="#ffffff"  /><stop offset="0.452" stop-color="#ffffff"  /><stop offset="0.628" stop-color="#e7e6ee"  /><stop offset="0.804" stop-color="#f3f3f3"  /></linearGradient><linearGradient id="grd30" gradientUnits="userSpaceOnUse"  x1="371.951" y1="327.477" x2="334.508" y2="305.859"><stop offset="0" stop-color="#585b77" stop-opacity="0.75" /><stop offset="1" stop-color="#525787" stop-opacity="0.01" /></linearGradient><linearGradient id="grd31" gradientUnits="userSpaceOnUse"  x1="366.974" y1="336.362" x2="398.926" y2="321.445"><stop offset="0" stop-color="#d5d7d9"  /><stop offset="1" stop-color="#e2e3e7"  /></linearGradient><linearGradient id="grd32" gradientUnits="userSpaceOnUse"  x1="406.418" y1="335.951" x2="387.543" y2="360.489"><stop offset="0" stop-color="#cccfdd"  /><stop offset="0.259" stop-color="#d9dbe4"  /><stop offset="0.878" stop-color="#e2e3e7"  /></linearGradient><linearGradient id="grd33" gradientUnits="userSpaceOnUse"  x1="329.961" y1="272.552" x2="318.692" y2="295.633"><stop offset="0" stop-color="#f4f5f8"  /><stop offset="1" stop-color="#f5f6f7"  /></linearGradient><linearGradient id="grd34" gradientUnits="userSpaceOnUse"  x1="145.019" y1="327.477" x2="182.463" y2="305.859"><stop offset="0" stop-color="#585b77" stop-opacity="0.75" /><stop offset="1" stop-color="#525787" stop-opacity="0.01" /></linearGradient><linearGradient id="grd35" gradientUnits="userSpaceOnUse"  x1="160.074" y1="336.362" x2="192.025" y2="321.445"><stop offset="0" stop-color="#d5d7d9"  /><stop offset="1" stop-color="#e2e3e7"  /></linearGradient><linearGradient id="grd36" gradientUnits="userSpaceOnUse"  x1="110.553" y1="335.951" x2="129.428" y2="360.489"><stop offset="0" stop-color="#cccfdd"  /><stop offset="0.259" stop-color="#d9dbe4"  /><stop offset="0.878" stop-color="#e2e3e7"  /></linearGradient><linearGradient id="grd37" gradientUnits="userSpaceOnUse"  x1="187.01" y1="272.552" x2="198.279" y2="295.633"><stop offset="0" stop-color="#f4f5f8"  /><stop offset="1" stop-color="#f5f6f7"  /></linearGradient><linearGradient id="grd38" gradientUnits="userSpaceOnUse"  x1="245.103" y1="109.02" x2="245.103" y2="142.576"><stop offset="0" stop-color="#585b77" stop-opacity="0.75" /><stop offset="1" stop-color="#525787" stop-opacity="0.01" /></linearGradient><linearGradient id="grd39" gradientUnits="userSpaceOnUse"  x1="261.519" y1="142.254" x2="287.636" y2="130.52"><stop offset="0" stop-color="#d5d7d9"  /><stop offset="1" stop-color="#e2e3e7"  /></linearGradient><linearGradient id="grd40" gradientUnits="userSpaceOnUse"  x1="262.735" y1="98.791" x2="284.597" y2="104.237"><stop offset="0" stop-color="#dbdce1"  /><stop offset="1" stop-color="#f2f3f8"  /></linearGradient><linearGradient id="grd41" gradientUnits="userSpaceOnUse"  x1="245.183" y1="156.57" x2="266.728" y2="155.073"><stop offset="0" stop-color="#f4f5f8"  /><stop offset="1" stop-color="#f5f6f7"  /></linearGradient><linearGradient id="grd42" gradientUnits="userSpaceOnUse"  x1="110.562" y1="198.163" x2="248.378" y2="401.232"><stop offset="0" stop-color="#fafafa"  /><stop offset="1" stop-color="#c2c4cd"  /></linearGradient><linearGradient id="grd43" gradientUnits="userSpaceOnUse"  x1="128.532" y1="207.551" x2="246.273" y2="368.7"><stop offset="0" stop-color="#cdcfd6"  /><stop offset="1" stop-color="#efeff1"  /></linearGradient><linearGradient id="grd44" gradientUnits="userSpaceOnUse"  x1="135.095" y1="205.432" x2="261.523" y2="374.128"><stop offset="0" stop-color="#dddfe2"  /><stop offset="1" stop-color="#ffffff"  /></linearGradient><radialGradient id="grd45" gradientUnits="userSpaceOnUse"  cx="258.279" cy="242.491" r="111.926"><stop offset="0" stop-color="#f5f7ff"  /><stop offset="1" stop-color="#b3b5c5"  /></radialGradient><linearGradient id="grd46" gradientUnits="userSpaceOnUse"  x1="238.304" y1="126.132" x2="238.304" y2="358.838"><stop offset="0" stop-color="#ffffff"  /><stop offset="1" stop-color="#f2eded" stop-opacity="0.01" /></linearGradient><linearGradient id="grd47" gradientUnits="userSpaceOnUse"  x1="121.907" y1="157.083" x2="238.174" y2="358.763"><stop offset="0" stop-color="#ffffff"  /><stop offset="1" stop-color="#f2eded" stop-opacity="0.01" /></linearGradient><linearGradient id="grd48" gradientUnits="userSpaceOnUse"  x1="351.371" y1="137.138" x2="235.104" y2="338.817"><stop offset="0" stop-color="#ffffff"  /><stop offset="1" stop-color="#f2eded" stop-opacity="0.01" /></linearGradient><linearGradient id="grd49" gradientUnits="userSpaceOnUse"  x1="209.577" y1="283.344" x2="209.395" y2="346.508"><stop offset="0" stop-color="#ffffff" stop-opacity="0.01" /><stop offset="1" stop-color="#d0dbff"  /></linearGradient><linearGradient id="grd50" gradientUnits="userSpaceOnUse"  x1="222.623" y1="216.135" x2="248.182" y2="286.089"><stop offset="0.169" stop-color="#f4f3f8"  /><stop offset="0.36" stop-color="#ffffff"  /><stop offset="0.452" stop-color="#ffffff"  /><stop offset="0.628" stop-color="#e7e6ee"  /><stop offset="0.804" stop-color="#f3f3f3"  /></linearGradient><linearGradient id="grd51" gradientUnits="userSpaceOnUse"  x1="371.951" y1="326.477" x2="334.508" y2="304.859"><stop offset="0" stop-color="#585b77" stop-opacity="0.75" /><stop offset="1" stop-color="#525787" stop-opacity="0.01" /></linearGradient><linearGradient id="grd52" gradientUnits="userSpaceOnUse"  x1="366.974" y1="335.362" x2="398.926" y2="320.445"><stop offset="0" stop-color="#d5d7d9"  /><stop offset="1" stop-color="#e2e3e7"  /></linearGradient><linearGradient id="grd53" gradientUnits="userSpaceOnUse"  x1="406.418" y1="334.951" x2="387.543" y2="359.489"><stop offset="0" stop-color="#cccfdd"  /><stop offset="0.259" stop-color="#d9dbe4"  /><stop offset="0.878" stop-color="#e2e3e7"  /></linearGradient><linearGradient id="grd54" gradientUnits="userSpaceOnUse"  x1="329.961" y1="271.552" x2="318.692" y2="294.633"><stop offset="0" stop-color="#f4f5f8"  /><stop offset="1" stop-color="#f5f6f7"  /></linearGradient><linearGradient id="grd55" gradientUnits="userSpaceOnUse"  x1="145.019" y1="326.477" x2="182.463" y2="304.859"><stop offset="0" stop-color="#585b77" stop-opacity="0.75" /><stop offset="1" stop-color="#525787" stop-opacity="0.01" /></linearGradient><linearGradient id="grd56" gradientUnits="userSpaceOnUse"  x1="160.074" y1="335.362" x2="192.025" y2="320.445"><stop offset="0" stop-color="#d5d7d9"  /><stop offset="1" stop-color="#e2e3e7"  /></linearGradient><linearGradient id="grd57" gradientUnits="userSpaceOnUse"  x1="110.553" y1="334.951" x2="129.428" y2="359.489"><stop offset="0" stop-color="#cccfdd"  /><stop offset="0.259" stop-color="#d9dbe4"  /><stop offset="0.878" stop-color="#e2e3e7"  /></linearGradient><linearGradient id="grd58" gradientUnits="userSpaceOnUse"  x1="187.01" y1="271.552" x2="198.279" y2="294.633"><stop offset="0" stop-color="#f4f5f8"  /><stop offset="1" stop-color="#f5f6f7"  /></linearGradient><linearGradient id="grd59" gradientUnits="userSpaceOnUse"  x1="245.103" y1="108.02" x2="245.103" y2="141.576"><stop offset="0" stop-color="#585b77" stop-opacity="0.75" /><stop offset="1" stop-color="#525787" stop-opacity="0.01" /></linearGradient><linearGradient id="grd60" gradientUnits="userSpaceOnUse"  x1="261.519" y1="141.254" x2="287.636" y2="129.52"><stop offset="0" stop-color="#d5d7d9"  /><stop offset="1" stop-color="#e2e3e7"  /></linearGradient><linearGradient id="grd61" gradientUnits="userSpaceOnUse"  x1="262.735" y1="97.791" x2="284.597" y2="103.237"><stop offset="0" stop-color="#dbdce1"  /><stop offset="1" stop-color="#f2f3f8"  /></linearGradient><linearGradient id="grd62" gradientUnits="userSpaceOnUse"  x1="245.183" y1="155.57" x2="266.728" y2="154.073"><stop offset="0" stop-color="#f4f5f8"  /><stop offset="1" stop-color="#f5f6f7"  /></linearGradient><linearGradient id="grd63" gradientUnits="userSpaceOnUse"  x1="110.562" y1="149.163" x2="248.378" y2="352.232"><stop offset="0" stop-color="#fafafa"  /><stop offset="1" stop-color="#c2c4cd"  /></linearGradient><linearGradient id="grd64" gradientUnits="userSpaceOnUse"  x1="128.532" y1="158.551" x2="246.273" y2="319.7"><stop offset="0" stop-color="#cdcfd6"  /><stop offset="1" stop-color="#efeff1"  /></linearGradient><linearGradient id="grd65" gradientUnits="userSpaceOnUse"  x1="135.095" y1="156.432" x2="261.523" y2="325.128"><stop offset="0" stop-color="#dddfe2"  /><stop offset="1" stop-color="#ffffff"  /></linearGradient><radialGradient id="grd66" gradientUnits="userSpaceOnUse"  cx="258.279" cy="193.491" r="111.926"><stop offset="0" stop-color="#f5f7ff"  /><stop offset="1" stop-color="#b3b5c5"  /></radialGradient><linearGradient id="grd67" gradientUnits="userSpaceOnUse"  x1="238.304" y1="77.132" x2="238.304" y2="309.838"><stop offset="0" stop-color="#ffffff"  /><stop offset="1" stop-color="#f2eded" stop-opacity="0.01" /></linearGradient><linearGradient id="grd68" gradientUnits="userSpaceOnUse"  x1="121.907" y1="108.083" x2="238.174" y2="309.763"><stop offset="0" stop-color="#ffffff"  /><stop offset="1" stop-color="#f2eded" stop-opacity="0.01" /></linearGradient><linearGradient id="grd69" gradientUnits="userSpaceOnUse"  x1="351.371" y1="88.138" x2="235.104" y2="289.817"><stop offset="0" stop-color="#ffffff"  /><stop offset="1" stop-color="#f2eded" stop-opacity="0.01" /></linearGradient><linearGradient id="grd70" gradientUnits="userSpaceOnUse"  x1="209.577" y1="234.344" x2="209.395" y2="297.508"><stop offset="0" stop-color="#ffffff" stop-opacity="0.01" /><stop offset="1" stop-color="#d0dbff"  /></linearGradient><linearGradient id="grd71" gradientUnits="userSpaceOnUse"  x1="222.623" y1="167.135" x2="248.182" y2="237.089"><stop offset="0.169" stop-color="#f4f3f8"  /><stop offset="0.36" stop-color="#ffffff"  /><stop offset="0.452" stop-color="#ffffff"  /><stop offset="0.628" stop-color="#e7e6ee"  /><stop offset="0.804" stop-color="#f3f3f3"  /></linearGradient><linearGradient id="grd72" gradientUnits="userSpaceOnUse"  x1="371.951" y1="277.477" x2="334.508" y2="255.859"><stop offset="0" stop-color="#585b77" stop-opacity="0.75" /><stop offset="1" stop-color="#525787" stop-opacity="0.01" /></linearGradient><linearGradient id="grd73" gradientUnits="userSpaceOnUse"  x1="366.974" y1="286.362" x2="398.926" y2="271.445"><stop offset="0" stop-color="#d5d7d9"  /><stop offset="1" stop-color="#e2e3e7"  /></linearGradient><linearGradient id="grd74" gradientUnits="userSpaceOnUse"  x1="406.418" y1="285.951" x2="387.543" y2="310.489"><stop offset="0" stop-color="#cccfdd"  /><stop offset="0.259" stop-color="#d9dbe4"  /><stop offset="0.878" stop-color="#e2e3e7"  /></linearGradient><linearGradient id="grd75" gradientUnits="userSpaceOnUse"  x1="329.961" y1="222.552" x2="318.692" y2="245.633"><stop offset="0" stop-color="#f4f5f8"  /><stop offset="1" stop-color="#f5f6f7"  /></linearGradient><linearGradient id="grd76" gradientUnits="userSpaceOnUse"  x1="145.019" y1="277.477" x2="182.463" y2="255.859"><stop offset="0" stop-color="#585b77" stop-opacity="0.75" /><stop offset="1" stop-color="#525787" stop-opacity="0.01" /></linearGradient><linearGradient id="grd77" gradientUnits="userSpaceOnUse"  x1="160.074" y1="286.362" x2="192.025" y2="271.445"><stop offset="0" stop-color="#d5d7d9"  /><stop offset="1" stop-color="#e2e3e7"  /></linearGradient><linearGradient id="grd78" gradientUnits="userSpaceOnUse"  x1="110.553" y1="285.951" x2="129.428" y2="310.489"><stop offset="0" stop-color="#cccfdd"  /><stop offset="0.259" stop-color="#d9dbe4"  /><stop offset="0.878" stop-color="#e2e3e7"  /></linearGradient><linearGradient id="grd79" gradientUnits="userSpaceOnUse"  x1="187.01" y1="222.552" x2="198.279" y2="245.633"><stop offset="0" stop-color="#f4f5f8"  /><stop offset="1" stop-color="#f5f6f7"  /></linearGradient><linearGradient id="grd80" gradientUnits="userSpaceOnUse"  x1="245.103" y1="59.02" x2="245.103" y2="92.576"><stop offset="0" stop-color="#585b77" stop-opacity="0.75" /><stop offset="1" stop-color="#525787" stop-opacity="0.01" /></linearGradient><linearGradient id="grd81" gradientUnits="userSpaceOnUse"  x1="261.519" y1="92.254" x2="287.636" y2="80.52"><stop offset="0" stop-color="#d5d7d9"  /><stop offset="1" stop-color="#e2e3e7"  /></linearGradient><linearGradient id="grd82" gradientUnits="userSpaceOnUse"  x1="262.735" y1="48.791" x2="284.597" y2="54.237"><stop offset="0" stop-color="#dbdce1"  /><stop offset="1" stop-color="#f2f3f8"  /></linearGradient><linearGradient id="grd83" gradientUnits="userSpaceOnUse"  x1="245.183" y1="106.57" x2="266.728" y2="105.073"><stop offset="0" stop-color="#f4f5f8"  /><stop offset="1" stop-color="#f5f6f7"  /></linearGradient></defs><style>tspan { white-space:pre }.shp0 { fill: #d8dcef } .shp1 { fill: #bcc1d2 } .shp2 { fill: #f9f9fc } .shp3 { fill: url(#grd1) } .shp4 { fill: url(#grd2) } .shp5 { fill: none;stroke: url(#grd3);stroke-width: 0.537 } .shp6 { fill: #a6d3de } .shp7 { fill: url(#grd4) } .shp8 { opacity: 0.502;fill: url(#grd5) } .shp9 { opacity: 0.502;fill: url(#grd6) } .shp10 { opacity: 0.502;fill: url(#grd7) } .shp11 { fill: url(#grd8) } .shp12 { opacity: 0.012;fill: #6052b4 } .shp13 { fill: #d7d9de } .shp14 { opacity: 0.2;fill: #c8cad2 } .shp15 { fill: #efeff1 } .shp16 { fill: #e7e8eb } .shp17 { fill: #f9a74e } .shp18 { fill: none;stroke: #d7d9de;stroke-linecap:round;stroke-linejoin:round;stroke-width: 4 } .shp19 { fill: none;stroke: #efeff1;stroke-linecap:round;stroke-linejoin:round;stroke-width: 4 } .shp20 { opacity: 0.302;fill: none;stroke: #ffffff;stroke-linecap:round;stroke-linejoin:round;stroke-width: 2 } .shp21 { fill: #aac9ff } .shp22 { fill: #aaccff } .shp23 { fill: url(#grd9) } .shp24 { fill: url(#grd10) } .shp25 { fill: url(#grd11) } .shp26 { fill: url(#grd12) } .shp27 { fill: url(#grd13) } .shp28 { fill: url(#grd14) } .shp29 { fill: url(#grd15) } .shp30 { fill: url(#grd16) } .shp31 { fill: url(#grd17) } .shp32 { fill: url(#grd18) } .shp33 { fill: url(#grd19) } .shp34 { fill: url(#grd20) } .shp35 { fill: url(#grd21) } .shp36 { fill: url(#grd22) } .shp37 { fill: none;stroke: url(#grd23);stroke-width: 0.537 } .shp38 { fill: url(#grd24) } .shp39 { opacity: 0.502;fill: url(#grd25) } .shp40 { opacity: 0.502;fill: url(#grd26) } .shp41 { opacity: 0.502;fill: url(#grd27) } .shp42 { fill: url(#grd28) } .shp43 { fill: url(#grd29) } .shp44 { fill: url(#grd30) } .shp45 { fill: url(#grd31) } .shp46 { fill: url(#grd32) } .shp47 { fill: url(#grd33) } .shp48 { fill: url(#grd34) } .shp49 { fill: url(#grd35) } .shp50 { fill: url(#grd36) } .shp51 { fill: url(#grd37) } .shp52 { fill: url(#grd38) } .shp53 { fill: url(#grd39) } .shp54 { fill: url(#grd40) } .shp55 { fill: url(#grd41) } .shp56 { fill: url(#grd42) } .shp57 { fill: url(#grd43) } .shp58 { fill: none;stroke: url(#grd44);stroke-width: 0.537 } .shp59 { fill: url(#grd45) } .shp60 { opacity: 0.502;fill: url(#grd46) } .shp61 { opacity: 0.502;fill: url(#grd47) } .shp62 { opacity: 0.502;fill: url(#grd48) } .shp63 { fill: url(#grd49) } .shp64 { fill: url(#grd50) } .shp65 { fill: url(#grd51) } .shp66 { fill: url(#grd52) } .shp67 { fill: url(#grd53) } .shp68 { fill: url(#grd54) } .shp69 { fill: url(#grd55) } .shp70 { fill: url(#grd56) } .shp71 { fill: url(#grd57) } .shp72 { fill: url(#grd58) } .shp73 { fill: url(#grd59) } .shp74 { fill: url(#grd60) } .shp75 { fill: url(#grd61) } .shp76 { fill: url(#grd62) } .shp77 { fill: url(#grd63) } .shp78 { fill: url(#grd64) } .shp79 { fill: none;stroke: url(#grd65);stroke-width: 0.537 } .shp80 { fill: url(#grd66) } .shp81 { opacity: 0.502;fill: url(#grd67) } .shp82 { opacity: 0.502;fill: url(#grd68) } .shp83 { opacity: 0.502;fill: url(#grd69) } .shp84 { fill: url(#grd70) } .shp85 { fill: url(#grd71) } .shp86 { fill: url(#grd72) } .shp87 { fill: url(#grd73) } .shp88 { fill: url(#grd74) } .shp89 { fill: url(#grd75) } .shp90 { fill: url(#grd76) } .shp91 { fill: url(#grd77) } .shp92 { fill: url(#grd78) } .shp93 { fill: url(#grd79) } .shp94 { fill: url(#grd80) } .shp95 { fill: url(#grd81) } .shp96 { fill: url(#grd82) } .shp97 { fill: url(#grd83) } </style><g ><path fill-rule="evenodd" class="shp0" d="M162.77 382.59C162.77 383.46 163.24 384.27 163.99 384.7L256.47 438.22C257.22 438.66 258.16 438.66 258.91 438.22L353.82 383.76C354.58 383.32 355.05 382.51 355.05 381.64L355.05 273.17L162.77 273.17L162.77 382.59Z" /><path fill-rule="evenodd" class="shp1" d="M218.66 416.34L163.99 384.7C163.24 384.27 162.77 383.46 162.77 382.59L162.77 273.17L218.66 273.17L218.66 416.34Z" /><path fill-rule="evenodd" class="shp2" d="M216.76 415.24L216.76 273.17L218.66 273.17L218.66 416.34L216.76 415.24Z" /><path fill-rule="evenodd" class="shp1" d="M299.17 415.39L353.83 383.76C354.59 383.32 355.05 382.51 355.05 381.64L355.05 272.22L299.17 272.22L299.17 415.39Z" /><path fill-rule="evenodd" class="shp2" d="M301.06 272.22L299.17 272.22L299.17 415.39L301.06 414.29L301.06 272.22Z" /><path fill-rule="evenodd" class="shp3" d="M138.77 165.57C135.83 167.17 134 170.24 134 173.59L134 315.51C134 318.85 135.83 321.93 138.77 323.53L253.43 385.81C256.14 387.28 259.42 387.28 262.14 385.81L376.79 323.53C379.73 321.93 381.56 318.85 381.56 315.51L381.56 173.59C381.56 170.24 379.73 167.17 376.79 165.57L262.14 103.29C259.42 101.82 256.14 101.82 253.43 103.29L138.77 165.57Z" /><path fill-rule="evenodd" class="shp4" d="M157.57 177.03C154.64 178.62 152.81 181.69 152.81 185.02L152.81 303.57C152.81 306.91 154.64 309.98 157.57 311.57L253.29 363.56C256 365.03 259.27 365.03 261.97 363.56L357.7 311.57C360.63 309.98 362.45 306.91 362.45 303.57L362.45 185.02C362.45 181.69 360.63 178.62 357.7 177.03L261.97 125.04C259.27 123.56 256 123.56 253.29 125.04L157.57 177.03Z" /><path class="shp5" d="M157.57 177.03C154.64 178.62 152.81 181.69 152.81 185.02L152.81 303.57C152.81 306.91 154.64 309.98 157.57 311.57L253.29 363.56C256 365.03 259.27 365.03 261.97 363.56L357.7 311.57C360.63 309.98 362.45 306.91 362.45 303.57L362.45 185.02C362.45 181.69 360.63 178.62 357.7 177.03L261.97 125.04C259.27 123.56 256 123.56 253.29 125.04L157.57 177.03Z" /><g style="opacity: 0.502"><path fill-rule="evenodd" class="shp6" d="M166.25 182.51C163.46 184.02 161.73 186.94 161.73 190.11L161.73 298.87C161.73 302.05 163.46 304.96 166.25 306.48L254.15 354.18C256.73 355.57 259.83 355.57 262.41 354.18L350.31 306.48C353.09 304.96 354.83 302.05 354.83 298.87L354.83 190.11C354.83 186.94 353.09 184.02 350.31 182.51L262.41 134.8C259.83 133.41 256.73 133.41 254.15 134.8L166.25 182.51Z" /><g clip-path="url(#cp1)"><g ><g ><g ><path fill-rule="evenodd" class="shp7" d="M166.25 182.51C163.46 184.02 161.73 186.94 161.73 190.11L161.73 298.87C161.73 302.05 163.46 304.96 166.25 306.48L254.15 354.18C256.73 355.57 259.83 355.57 262.41 354.18L350.31 306.48C353.09 304.96 354.83 302.05 354.83 298.87L354.83 190.11C354.83 186.94 353.09 184.02 350.31 182.51L262.41 134.8C259.83 133.41 256.73 133.41 254.15 134.8L166.25 182.51Z" /><path fill-rule="evenodd" class="shp8" d="M242.14 360.84L274.42 360.84L278.26 128.13L238.3 128.13L242.14 360.84Z" /><path fill-rule="evenodd" class="shp9" d="M241.5 358.85L269.45 342.73L156.51 139.14L121.91 159.08L241.5 358.85Z" /><path fill-rule="evenodd" class="shp10" d="M238.43 342.73L266.38 358.85L385.97 159.08L351.37 139.14L238.43 342.73Z" /><path class="shp11" d="M161.73 231.19L354.83 231.19L354.83 356.41L161.73 356.41L161.73 231.19Z" /><path fill-rule="evenodd" class="shp12" d="M166.25 182.51C163.46 184.02 161.73 186.94 161.73 190.11L161.73 298.87C161.73 302.05 163.46 304.96 166.25 306.48L254.15 354.18C256.73 355.57 259.83 355.57 262.41 354.18L350.31 306.48C353.09 304.96 354.83 302.05 354.83 298.87L354.83 190.11C354.83 186.94 353.09 184.02 350.31 182.51L262.41 134.8C259.83 133.41 256.73 133.41 254.15 134.8L166.25 182.51Z" /></g></g></g></g></g></g><g ><path fill-rule="evenodd" class="shp13" d="M268.93 272.26L268.93 314.42L246.74 314.42L246.74 272.26L268.93 272.26Z" /><path fill-rule="evenodd" class="shp14" d="M268.93 272.26L268.93 314.42L262.27 314.42L262.27 272.26L268.93 272.26Z" /><path class="shp15" d="M237.87 312.2C230.55 312.2 224.56 318.19 224.56 325.51L291.12 325.51C291.12 318.19 285.13 312.2 277.81 312.2L237.87 312.2Z" /><path class="shp16" d="M266.71 312.2C274.03 312.2 280.02 318.19 280.02 325.51L291.12 325.51C291.12 318.19 285.13 312.2 277.81 312.2L266.71 312.2Z" /><path class="shp15" d="M246.52 290.01C240.53 290.01 235.65 285.13 235.65 279.14L235.65 276.7L280.02 276.7L280.02 279.14C280.02 285.13 275.14 290.01 269.15 290.01L246.52 290.01Z" /><path class="shp16" d="M271.15 279.14C271.15 285.13 268.49 290.01 262.5 290.01L269.15 290.01C275.14 290.01 280.02 285.13 280.02 279.14L280.02 276.7L271.15 276.7L271.15 279.14Z" /><path class="shp13" d="M220.12 325.51C220.12 323.07 222.11 321.07 224.56 321.07L291.12 321.07C293.56 321.07 295.56 323.07 295.56 325.51L220.12 325.51Z" /><path class="shp14" d="M280.02 321.07C282.46 321.07 284.46 323.07 284.46 325.51L295.56 325.51C295.56 323.07 293.56 321.07 291.12 321.07L280.02 321.07Z" /><path class="shp17" d="M231.21 272.26L231.21 278.92C231.21 281.36 233.21 283.35 235.65 283.35L280.02 283.35C282.46 283.35 284.46 281.36 284.46 278.92L284.46 272.26L231.21 272.26Z" /><path class="shp13" d="M231.21 272.26L231.21 278.92C231.21 281.36 233.21 283.35 235.65 283.35L280.02 283.35C282.46 283.35 284.46 281.36 284.46 278.92L284.46 272.26L231.21 272.26Z" /><path class="shp14" d="M268.93 278.92C271.15 278.92 271.37 283.35 268.93 283.35L280.02 283.35C282.46 283.35 284.46 281.36 284.46 278.92L284.46 272.26L273.37 272.26L268.93 278.92Z" /><path class="shp18" d="M288.9 201.26L331.06 201.26L331.06 203.48C331.06 226.78 312.2 245.64 288.9 245.64" /><path class="shp19" d="M226.77 201.26L184.62 201.26L184.62 203.48C184.62 226.78 203.48 245.64 226.77 245.64" /><path class="shp15" d="M238.98 278.92C224.78 278.92 213.46 267.6 213.46 253.4L213.46 183.51L302.21 183.51L302.21 253.4C302.21 267.6 290.9 278.92 276.7 278.92L238.98 278.92Z" /><path class="shp20" d="M226.77 190.17C226.77 190.17 226.77 227.89 226.77 234.54" /><path class="shp16" d="M292 253.52C292 267.66 281.8 278.92 269 278.92L279 278.92C291.8 278.92 302 267.66 302 253.52L302 183.92L292 183.92L292 253.52Z" /><path class="shp13" d="M206.81 183.51L213.46 190.17L302.21 190.17L308.87 183.51L206.81 183.51Z" /><path class="shp14" d="M292 189.92L302.63 189.92L309 182.92L296.25 182.92L292 189.92Z" /><path class="shp15" d="M204.59 174.64C202.15 174.64 200.15 176.63 200.15 179.07C200.15 181.51 202.15 183.51 204.59 183.51L311.09 183.51C313.53 183.51 315.52 181.51 315.52 179.07C315.52 176.63 313.53 174.64 311.09 174.64L204.59 174.64Z" /><path class="shp16" d="M297.77 174.64C300.21 174.64 302.21 176.63 302.21 179.07C302.21 181.51 300.21 183.51 297.77 183.51L311.09 183.51C313.53 183.51 315.52 181.51 315.52 179.07C315.52 176.63 313.53 174.64 311.09 174.64L297.77 174.64Z" /><path class="shp20" d="M226.77 244.31L226.77 249.41" /></g><g ><path class="shp21" d="M147.4 118.7C143.59 118.7 140.51 115.62 140.51 111.81C140.51 108 143.59 104.92 147.4 104.92C151.21 104.92 154.29 108 154.29 111.81C154.29 115.62 151.21 118.7 147.4 118.7Z" /></g><g ><path class="shp21" d="M170.36 126.35C169.09 126.35 168.06 125.33 168.06 124.06C168.06 122.79 169.09 121.76 170.36 121.76C171.63 121.76 172.65 122.79 172.65 124.06C172.65 125.33 171.63 126.35 170.36 126.35Z" /></g><g ><path class="shp21" d="M185.66 404.92C184.39 404.92 183.37 403.9 183.37 402.63C183.37 401.36 184.39 400.33 185.66 400.33C186.93 400.33 187.96 401.36 187.96 402.63C187.96 403.9 186.93 404.92 185.66 404.92Z" /></g><g ><path class="shp22" d="M97.65 300.84C93.42 300.84 90 297.42 90 293.19C90 288.96 93.42 285.54 97.65 285.54C101.89 285.54 105.31 288.96 105.31 293.19C105.31 297.42 101.89 300.84 97.65 300.84Z" /></g><g ><path class="shp22" d="M360.15 143.19C357.19 143.19 354.79 140.79 354.79 137.83C354.79 134.87 357.19 132.48 360.15 132.48C363.11 132.48 365.51 134.87 365.51 137.83C365.51 140.79 363.11 143.19 360.15 143.19Z" /></g><g ><path class="shp22" d="M420.61 241.15C417.22 241.15 414.49 238.41 414.49 235.03C414.49 231.64 417.22 228.9 420.61 228.9C424 228.9 426.73 231.64 426.73 235.03C426.73 238.41 424 241.15 420.61 241.15Z" /></g><g ><path class="shp22" d="M232.35 438.6C228.96 438.6 226.22 435.86 226.22 432.47C226.22 429.09 228.96 426.35 232.35 426.35C235.73 426.35 238.47 429.09 238.47 432.47C238.47 435.86 235.73 438.6 232.35 438.6Z" /></g><path fill-rule="evenodd" class="shp23" d="M324.21 282.57L392.29 294.35L368.46 335.63L324.21 282.57Z" /><path fill-rule="evenodd" class="shp24" d="M385.05 322.21L363.2 340.32L339.2 296.04L338.48 295.63L338.97 295.62L338.97 295.6L338.99 295.62L389.8 294.24L385.05 322.21L385.05 322.21L385.05 322.21Z" /><g clip-path="url(#cp2)"><g ><g ><g ><path fill-rule="evenodd" class="shp25" d="M385.94 322.89L334.16 292.75L363.37 340.32L385.94 322.89Z" /><path fill-rule="evenodd" class="shp26" d="M385.94 322.89L335.37 293.69L389.75 294.64L385.94 322.89Z" /></g></g></g></g><path fill-rule="evenodd" class="shp27" d="M192.76 282.57L124.68 294.35L148.51 335.63L192.76 282.57Z" /><path fill-rule="evenodd" class="shp28" d="M177.98 295.62L127.17 294.24L131.92 322.21L131.92 322.21L131.92 322.21L153.77 340.32L177.77 296.04L178.49 295.63L178 295.62L178 295.6L177.98 295.62Z" /><g clip-path="url(#cp3)"><g ><g ><g ><path fill-rule="evenodd" class="shp29" d="M131.03 322.89L182.81 292.75L153.6 340.32L131.03 322.89Z" /><path fill-rule="evenodd" class="shp30" d="M131.03 322.89L181.6 293.69L127.22 294.64L131.03 322.89Z" /></g></g></g></g><path fill-rule="evenodd" class="shp31" d="M257.44 159.92L275.93 109.59L238.94 109.59L257.44 159.92Z" /><path fill-rule="evenodd" class="shp32" d="M257.46 97L279.82 105.3L257.46 141.74L257.46 141.74L257.46 141.74L257.45 141.74L257.45 141.74L235.09 105.3L257.45 97L257.45 97L257.46 97L257.46 97L257.46 97Z" /><g clip-path="url(#cp4)"><g ><g ><g ><path fill-rule="evenodd" class="shp33" d="M257.58 96.06L257.58 145.17L279.75 105.17L257.58 96.06Z" /><path fill-rule="evenodd" class="shp34" d="M257.58 96.07L257.58 145.17L235.4 105.17L257.58 96.07Z" /><path fill-rule="evenodd" class="shp0" d="M162.77 381.59C162.77 382.46 163.24 383.27 163.99 383.7L256.47 437.22C257.22 437.66 258.16 437.66 258.91 437.22L353.82 382.76C354.58 382.32 355.05 381.51 355.05 380.64L355.05 272.17L162.77 272.17L162.77 381.59Z" /><path fill-rule="evenodd" class="shp1" d="M218.66 415.34L163.99 383.7C163.24 383.27 162.77 382.46 162.77 381.59L162.77 272.17L218.66 272.17L218.66 415.34Z" /><path fill-rule="evenodd" class="shp2" d="M216.76 414.24L216.76 272.17L218.66 272.17L218.66 415.34L216.76 414.24Z" /><path fill-rule="evenodd" class="shp1" d="M299.17 414.39L353.83 382.76C354.59 382.32 355.05 381.51 355.05 380.64L355.05 271.22L299.17 271.22L299.17 414.39Z" /><path fill-rule="evenodd" class="shp2" d="M301.06 271.22L299.17 271.22L299.17 414.39L301.06 413.29L301.06 271.22Z" /><path fill-rule="evenodd" class="shp35" d="M138.77 164.57C135.83 166.17 134 169.24 134 172.59L134 314.51C134 317.85 135.83 320.93 138.77 322.53L253.43 384.81C256.14 386.28 259.42 386.28 262.14 384.81L376.79 322.53C379.73 320.93 381.56 317.85 381.56 314.51L381.56 172.59C381.56 169.24 379.73 166.17 376.79 164.57L262.14 102.29C259.42 100.82 256.14 100.82 253.43 102.29L138.77 164.57Z" /><path fill-rule="evenodd" class="shp36" d="M157.57 176.03C154.64 177.62 152.81 180.69 152.81 184.02L152.81 302.57C152.81 305.91 154.64 308.98 157.57 310.57L253.29 362.56C256 364.03 259.27 364.03 261.97 362.56L357.7 310.57C360.63 308.98 362.45 305.91 362.45 302.57L362.45 184.02C362.45 180.69 360.63 177.62 357.7 176.03L261.97 124.04C259.27 122.56 256 122.56 253.29 124.04L157.57 176.03Z" /><path class="shp37" d="M157.57 176.03C154.64 177.62 152.81 180.69 152.81 184.02L152.81 302.57C152.81 305.91 154.64 308.98 157.57 310.57L253.29 362.56C256 364.03 259.27 364.03 261.97 362.56L357.7 310.57C360.63 308.98 362.45 305.91 362.45 302.57L362.45 184.02C362.45 180.69 360.63 177.62 357.7 176.03L261.97 124.04C259.27 122.56 256 122.56 253.29 124.04L157.57 176.03Z" /><path fill-rule="evenodd" class="shp6" d="M166.25 181.51C163.46 183.02 161.73 185.94 161.73 189.11L161.73 297.87C161.73 301.05 163.46 303.96 166.25 305.48L254.15 353.18C256.73 354.57 259.83 354.57 262.41 353.18L350.31 305.48C353.09 303.96 354.83 301.05 354.83 297.87L354.83 189.11C354.83 185.94 353.09 183.02 350.31 181.51L262.41 133.8C259.83 132.41 256.73 132.41 254.15 133.8L166.25 181.51Z" /><path fill-rule="evenodd" class="shp38" d="M166.25 181.51C163.46 183.02 161.73 185.94 161.73 189.11L161.73 297.87C161.73 301.05 163.46 303.96 166.25 305.48L254.15 353.18C256.73 354.57 259.83 354.57 262.41 353.18L350.31 305.48C353.09 303.96 354.83 301.05 354.83 297.87L354.83 189.11C354.83 185.94 353.09 183.02 350.31 181.51L262.41 133.8C259.83 132.41 256.73 132.41 254.15 133.8L166.25 181.51Z" /><path fill-rule="evenodd" class="shp39" d="M242.14 359.84L274.42 359.84L278.26 127.13L238.3 127.13L242.14 359.84Z" /><path fill-rule="evenodd" class="shp40" d="M241.5 357.85L269.45 341.73L156.51 138.14L121.91 158.08L241.5 357.85Z" /><path fill-rule="evenodd" class="shp41" d="M238.43 341.73L266.38 357.85L385.97 158.08L351.37 138.14L238.43 341.73Z" /><path class="shp42" d="M161.73 230.19L354.83 230.19L354.83 355.41L161.73 355.41L161.73 230.19Z" /><path fill-rule="evenodd" class="shp12" d="M166.25 181.51C163.46 183.02 161.73 185.94 161.73 189.11L161.73 297.87C161.73 301.05 163.46 303.96 166.25 305.48L254.15 353.18C256.73 354.57 259.83 354.57 262.41 353.18L350.31 305.48C353.09 303.96 354.83 301.05 354.83 297.87L354.83 189.11C354.83 185.94 353.09 183.02 350.31 181.51L262.41 133.8C259.83 132.41 256.73 132.41 254.15 133.8L166.25 181.51Z" /><path fill-rule="evenodd" class="shp13" d="M268.93 271.26L268.93 313.42L246.74 313.42L246.74 271.26L268.93 271.26Z" /><path fill-rule="evenodd" class="shp14" d="M268.93 271.26L268.93 313.42L262.27 313.42L262.27 271.26L268.93 271.26Z" /><path class="shp15" d="M237.87 311.2C230.55 311.2 224.56 317.19 224.56 324.51L291.12 324.51C291.12 317.19 285.13 311.2 277.81 311.2L237.87 311.2Z" /><path class="shp16" d="M266.71 311.2C274.03 311.2 280.02 317.19 280.02 324.51L291.12 324.51C291.12 317.19 285.13 311.2 277.81 311.2L266.71 311.2Z" /><path class="shp15" d="M246.52 289.01C240.53 289.01 235.65 284.13 235.65 278.14L235.65 275.7L280.02 275.7L280.02 278.14C280.02 284.13 275.14 289.01 269.15 289.01L246.52 289.01Z" /><path class="shp16" d="M271.15 278.14C271.15 284.13 268.49 289.01 262.5 289.01L269.15 289.01C275.14 289.01 280.02 284.13 280.02 278.14L280.02 275.7L271.15 275.7L271.15 278.14Z" /><path class="shp13" d="M220.12 324.51C220.12 322.07 222.11 320.07 224.56 320.07L291.12 320.07C293.56 320.07 295.56 322.07 295.56 324.51L220.12 324.51Z" /><path class="shp14" d="M280.02 320.07C282.46 320.07 284.46 322.07 284.46 324.51L295.56 324.51C295.56 322.07 293.56 320.07 291.12 320.07L280.02 320.07Z" /><path class="shp17" d="M231.21 271.26L231.21 277.92C231.21 280.36 233.21 282.35 235.65 282.35L280.02 282.35C282.46 282.35 284.46 280.36 284.46 277.92L284.46 271.26L231.21 271.26Z" /><path class="shp13" d="M231.21 271.26L231.21 277.92C231.21 280.36 233.21 282.35 235.65 282.35L280.02 282.35C282.46 282.35 284.46 280.36 284.46 277.92L284.46 271.26L231.21 271.26Z" /><path class="shp14" d="M268.93 277.92C271.15 277.92 271.37 282.35 268.93 282.35L280.02 282.35C282.46 282.35 284.46 280.36 284.46 277.92L284.46 271.26L273.37 271.26L268.93 277.92Z" /><path class="shp18" d="M288.9 200.26L331.06 200.26L331.06 202.48C331.06 225.78 312.2 244.64 288.9 244.64" /><path class="shp19" d="M226.77 200.26L184.62 200.26L184.62 202.48C184.62 225.78 203.48 244.64 226.77 244.64" /><path class="shp15" d="M238.98 277.92C224.78 277.92 213.46 266.6 213.46 252.4L213.46 182.51L302.21 182.51L302.21 252.4C302.21 266.6 290.9 277.92 276.7 277.92L238.98 277.92Z" /><path class="shp20" d="M226.77 189.17C226.77 189.17 226.77 226.89 226.77 233.54" /><path class="shp16" d="M292 252.52C292 266.66 281.8 277.92 269 277.92L279 277.92C291.8 277.92 302 266.66 302 252.52L302 182.92L292 182.92L292 252.52Z" /><path class="shp13" d="M206.81 182.51L213.46 189.17L302.21 189.17L308.87 182.51L206.81 182.51Z" /><path class="shp14" d="M292 188.92L302.63 188.92L309 181.92L296.25 181.92L292 188.92Z" /><path class="shp15" d="M204.59 173.64C202.15 173.64 200.15 175.63 200.15 178.07C200.15 180.51 202.15 182.51 204.59 182.51L311.09 182.51C313.53 182.51 315.52 180.51 315.52 178.07C315.52 175.63 313.53 173.64 311.09 173.64L204.59 173.64Z" /><path class="shp16" d="M297.77 173.64C300.21 173.64 302.21 175.63 302.21 178.07C302.21 180.51 300.21 182.51 297.77 182.51L311.09 182.51C313.53 182.51 315.52 180.51 315.52 178.07C315.52 175.63 313.53 173.64 311.09 173.64L297.77 173.64Z" /><path class="shp20" d="M226.77 243.31L226.77 248.41" /><path class="shp43" d="M248.92 220.02L255.94 211.38L255.94 202.92L228.64 202.92L228.64 213.18L242.74 213.18L236.02 221.4L240.16 227.52L242.44 227.52C245.56 227.52 247.18 229.08 247.18 231.42C247.18 233.76 245.56 235.38 242.44 235.38C239.2 235.38 237.52 233.76 236.68 231L227.32 236.34C229.84 242.82 235.72 245.82 242.44 245.82C250.66 245.82 257.86 241.2 257.86 231.72C257.86 225.72 254.08 221.64 248.92 220.02ZM260.38 244.92L289.78 244.92L289.78 234.54L276.64 234.54L282.34 228.6C286.18 224.58 289.06 220.62 289.06 215.34C289.06 206.76 282.04 202.02 274.48 202.02C268.36 202.02 262.54 205.08 259.72 211.68L268.96 216.84C270.1 214.2 271.96 212.46 274.6 212.46C277 212.46 278.32 213.96 278.32 215.94C278.32 217.98 276.64 219.9 274.3 222.42L260.38 237.12L260.38 244.92Z" /><path class="shp21" d="M147.4 117.7C143.59 117.7 140.51 114.62 140.51 110.81C140.51 107 143.59 103.92 147.4 103.92C151.21 103.92 154.29 107 154.29 110.81C154.29 114.62 151.21 117.7 147.4 117.7Z" /><path class="shp21" d="M170.36 125.35C169.09 125.35 168.06 124.33 168.06 123.06C168.06 121.79 169.09 120.76 170.36 120.76C171.63 120.76 172.65 121.79 172.65 123.06C172.65 124.33 171.63 125.35 170.36 125.35Z" /><path class="shp21" d="M185.66 403.92C184.39 403.92 183.37 402.9 183.37 401.63C183.37 400.36 184.39 399.33 185.66 399.33C186.93 399.33 187.96 400.36 187.96 401.63C187.96 402.9 186.93 403.92 185.66 403.92Z" /><path class="shp22" d="M97.65 299.84C93.42 299.84 90 296.42 90 292.19C90 287.96 93.42 284.54 97.65 284.54C101.89 284.54 105.31 287.96 105.31 292.19C105.31 296.42 101.89 299.84 97.65 299.84Z" /><path class="shp22" d="M360.15 142.19C357.19 142.19 354.79 139.79 354.79 136.83C354.79 133.87 357.19 131.48 360.15 131.48C363.11 131.48 365.51 133.87 365.51 136.83C365.51 139.79 363.11 142.19 360.15 142.19Z" /><path class="shp22" d="M420.61 240.15C417.22 240.15 414.49 237.41 414.49 234.03C414.49 230.64 417.22 227.9 420.61 227.9C424 227.9 426.73 230.64 426.73 234.03C426.73 237.41 424 240.15 420.61 240.15Z" /><path class="shp22" d="M232.35 437.6C228.96 437.6 226.22 434.86 226.22 431.47C226.22 428.09 228.96 425.35 232.35 425.35C235.73 425.35 238.47 428.09 238.47 431.47C238.47 434.86 235.73 437.6 232.35 437.6Z" /><path fill-rule="evenodd" class="shp44" d="M324.21 281.57L392.29 293.35L368.46 334.63L324.21 281.57Z" /><path fill-rule="evenodd" class="shp45" d="M385.05 321.21L363.2 339.32L339.2 295.04L338.48 294.63L338.97 294.62L338.97 294.6L338.99 294.62L389.8 293.24L385.05 321.21L385.05 321.21L385.05 321.21Z" /><path fill-rule="evenodd" class="shp46" d="M385.94 321.89L334.16 291.75L363.37 339.32L385.94 321.89Z" /><path fill-rule="evenodd" class="shp47" d="M385.94 321.89L335.37 292.69L389.75 293.64L385.94 321.89Z" /><path fill-rule="evenodd" class="shp48" d="M192.76 281.57L124.68 293.35L148.51 334.63L192.76 281.57Z" /><path fill-rule="evenodd" class="shp49" d="M177.98 294.62L127.17 293.24L131.92 321.21L131.92 321.21L131.92 321.21L153.77 339.32L177.77 295.04L178.49 294.63L178 294.62L178 294.6L177.98 294.62Z" /><path fill-rule="evenodd" class="shp50" d="M131.03 321.89L182.81 291.75L153.6 339.32L131.03 321.89Z" /><path fill-rule="evenodd" class="shp51" d="M131.03 321.89L181.6 292.69L127.22 293.64L131.03 321.89Z" /><path fill-rule="evenodd" class="shp52" d="M257.44 158.92L275.93 108.59L238.94 108.59L257.44 158.92Z" /><path fill-rule="evenodd" class="shp53" d="M257.46 96L279.82 104.3L257.46 140.74L257.46 140.74L257.46 140.74L257.45 140.74L257.45 140.74L235.09 104.3L257.45 96L257.45 96L257.46 96L257.46 96L257.46 96Z" /><path fill-rule="evenodd" class="shp54" d="M257.58 95.06L257.58 144.17L279.75 104.17L257.58 95.06Z" /><path fill-rule="evenodd" class="shp55" d="M257.58 95.07L257.58 144.17L235.4 104.17L257.58 95.07Z" /><path fill-rule="evenodd" class="shp0" d="M162.77 380.59C162.77 381.46 163.24 382.27 163.99 382.7L256.47 436.22C257.22 436.66 258.16 436.66 258.91 436.22L353.82 381.76C354.58 381.32 355.05 380.51 355.05 379.64L355.05 271.17L162.77 271.17L162.77 380.59Z" /><path fill-rule="evenodd" class="shp1" d="M218.66 414.34L163.99 382.7C163.24 382.27 162.77 381.46 162.77 380.59L162.77 271.17L218.66 271.17L218.66 414.34Z" /><path fill-rule="evenodd" class="shp2" d="M216.76 413.24L216.76 271.17L218.66 271.17L218.66 414.34L216.76 413.24Z" /><path fill-rule="evenodd" class="shp1" d="M299.17 413.39L353.83 381.76C354.59 381.32 355.05 380.51 355.05 379.64L355.05 270.22L299.17 270.22L299.17 413.39Z" /><path fill-rule="evenodd" class="shp2" d="M301.06 270.22L299.17 270.22L299.17 413.39L301.06 412.29L301.06 270.22Z" /><path fill-rule="evenodd" class="shp56" d="M138.77 163.57C135.83 165.17 134 168.24 134 171.59L134 313.51C134 316.85 135.83 319.93 138.77 321.53L253.43 383.81C256.14 385.28 259.42 385.28 262.14 383.81L376.79 321.53C379.73 319.93 381.56 316.85 381.56 313.51L381.56 171.59C381.56 168.24 379.73 165.17 376.79 163.57L262.14 101.29C259.42 99.82 256.14 99.82 253.43 101.29L138.77 163.57Z" /><path fill-rule="evenodd" class="shp57" d="M157.57 175.03C154.64 176.62 152.81 179.69 152.81 183.02L152.81 301.57C152.81 304.91 154.64 307.98 157.57 309.57L253.29 361.56C256 363.03 259.27 363.03 261.97 361.56L357.7 309.57C360.63 307.98 362.45 304.91 362.45 301.57L362.45 183.02C362.45 179.69 360.63 176.62 357.7 175.03L261.97 123.04C259.27 121.56 256 121.56 253.29 123.04L157.57 175.03Z" /><path class="shp58" d="M157.57 175.03C154.64 176.62 152.81 179.69 152.81 183.02L152.81 301.57C152.81 304.91 154.64 307.98 157.57 309.57L253.29 361.56C256 363.03 259.27 363.03 261.97 361.56L357.7 309.57C360.63 307.98 362.45 304.91 362.45 301.57L362.45 183.02C362.45 179.69 360.63 176.62 357.7 175.03L261.97 123.04C259.27 121.56 256 121.56 253.29 123.04L157.57 175.03Z" /><path fill-rule="evenodd" class="shp6" d="M166.25 180.51C163.46 182.02 161.73 184.94 161.73 188.11L161.73 296.87C161.73 300.05 163.46 302.96 166.25 304.48L254.15 352.18C256.73 353.57 259.83 353.57 262.41 352.18L350.31 304.48C353.09 302.96 354.83 300.05 354.83 296.87L354.83 188.11C354.83 184.94 353.09 182.02 350.31 180.51L262.41 132.8C259.83 131.41 256.73 131.41 254.15 132.8L166.25 180.51Z" /><path fill-rule="evenodd" class="shp59" d="M166.25 180.51C163.46 182.02 161.73 184.94 161.73 188.11L161.73 296.87C161.73 300.05 163.46 302.96 166.25 304.48L254.15 352.18C256.73 353.57 259.83 353.57 262.41 352.18L350.31 304.48C353.09 302.96 354.83 300.05 354.83 296.87L354.83 188.11C354.83 184.94 353.09 182.02 350.31 180.51L262.41 132.8C259.83 131.41 256.73 131.41 254.15 132.8L166.25 180.51Z" /><path fill-rule="evenodd" class="shp60" d="M242.14 358.84L274.42 358.84L278.26 126.13L238.3 126.13L242.14 358.84Z" /><path fill-rule="evenodd" class="shp61" d="M241.5 356.85L269.45 340.73L156.51 137.14L121.91 157.08L241.5 356.85Z" /><path fill-rule="evenodd" class="shp62" d="M238.43 340.73L266.38 356.85L385.97 157.08L351.37 137.14L238.43 340.73Z" /><path class="shp63" d="M161.73 229.19L354.83 229.19L354.83 354.41L161.73 354.41L161.73 229.19Z" /><path fill-rule="evenodd" class="shp12" d="M166.25 180.51C163.46 182.02 161.73 184.94 161.73 188.11L161.73 296.87C161.73 300.05 163.46 302.96 166.25 304.48L254.15 352.18C256.73 353.57 259.83 353.57 262.41 352.18L350.31 304.48C353.09 302.96 354.83 300.05 354.83 296.87L354.83 188.11C354.83 184.94 353.09 182.02 350.31 180.51L262.41 132.8C259.83 131.41 256.73 131.41 254.15 132.8L166.25 180.51Z" /><path fill-rule="evenodd" class="shp13" d="M268.93 270.26L268.93 312.42L246.74 312.42L246.74 270.26L268.93 270.26Z" /><path fill-rule="evenodd" class="shp14" d="M268.93 270.26L268.93 312.42L262.27 312.42L262.27 270.26L268.93 270.26Z" /><path class="shp15" d="M237.87 310.2C230.55 310.2 224.56 316.19 224.56 323.51L291.12 323.51C291.12 316.19 285.13 310.2 277.81 310.2L237.87 310.2Z" /><path class="shp16" d="M266.71 310.2C274.03 310.2 280.02 316.19 280.02 323.51L291.12 323.51C291.12 316.19 285.13 310.2 277.81 310.2L266.71 310.2Z" /><path class="shp15" d="M246.52 288.01C240.53 288.01 235.65 283.13 235.65 277.14L235.65 274.7L280.02 274.7L280.02 277.14C280.02 283.13 275.14 288.01 269.15 288.01L246.52 288.01Z" /><path class="shp16" d="M271.15 277.14C271.15 283.13 268.49 288.01 262.5 288.01L269.15 288.01C275.14 288.01 280.02 283.13 280.02 277.14L280.02 274.7L271.15 274.7L271.15 277.14Z" /><path class="shp13" d="M220.12 323.51C220.12 321.07 222.11 319.07 224.56 319.07L291.12 319.07C293.56 319.07 295.56 321.07 295.56 323.51L220.12 323.51Z" /><path class="shp14" d="M280.02 319.07C282.46 319.07 284.46 321.07 284.46 323.51L295.56 323.51C295.56 321.07 293.56 319.07 291.12 319.07L280.02 319.07Z" /><path class="shp17" d="M231.21 270.26L231.21 276.92C231.21 279.36 233.21 281.35 235.65 281.35L280.02 281.35C282.46 281.35 284.46 279.36 284.46 276.92L284.46 270.26L231.21 270.26Z" /><path class="shp13" d="M231.21 270.26L231.21 276.92C231.21 279.36 233.21 281.35 235.65 281.35L280.02 281.35C282.46 281.35 284.46 279.36 284.46 276.92L284.46 270.26L231.21 270.26Z" /><path class="shp14" d="M268.93 276.92C271.15 276.92 271.37 281.35 268.93 281.35L280.02 281.35C282.46 281.35 284.46 279.36 284.46 276.92L284.46 270.26L273.37 270.26L268.93 276.92Z" /><path class="shp18" d="M288.9 199.26L331.06 199.26L331.06 201.48C331.06 224.78 312.2 243.64 288.9 243.64" /><path class="shp19" d="M226.77 199.26L184.62 199.26L184.62 201.48C184.62 224.78 203.48 243.64 226.77 243.64" /><path class="shp15" d="M238.98 276.92C224.78 276.92 213.46 265.6 213.46 251.4L213.46 181.51L302.21 181.51L302.21 251.4C302.21 265.6 290.9 276.92 276.7 276.92L238.98 276.92Z" /><path class="shp20" d="M226.77 188.17C226.77 188.17 226.77 225.89 226.77 232.54" /><path class="shp16" d="M292 251.52C292 265.66 281.8 276.92 269 276.92L279 276.92C291.8 276.92 302 265.66 302 251.52L302 181.92L292 181.92L292 251.52Z" /><path class="shp13" d="M206.81 181.51L213.46 188.17L302.21 188.17L308.87 181.51L206.81 181.51Z" /><path class="shp14" d="M292 187.92L302.63 187.92L309 180.92L296.25 180.92L292 187.92Z" /><path class="shp15" d="M204.59 172.64C202.15 172.64 200.15 174.63 200.15 177.07C200.15 179.51 202.15 181.51 204.59 181.51L311.09 181.51C313.53 181.51 315.52 179.51 315.52 177.07C315.52 174.63 313.53 172.64 311.09 172.64L204.59 172.64Z" /><path class="shp16" d="M297.77 172.64C300.21 172.64 302.21 174.63 302.21 177.07C302.21 179.51 300.21 181.51 297.77 181.51L311.09 181.51C313.53 181.51 315.52 179.51 315.52 177.07C315.52 174.63 313.53 172.64 311.09 172.64L297.77 172.64Z" /><path class="shp20" d="M226.77 242.31L226.77 247.41" /><path class="shp64" d="M248.92 219.02L255.94 210.38L255.94 201.92L228.64 201.92L228.64 212.18L242.74 212.18L236.02 220.4L240.16 226.52L242.44 226.52C245.56 226.52 247.18 228.08 247.18 230.42C247.18 232.76 245.56 234.38 242.44 234.38C239.2 234.38 237.52 232.76 236.68 230L227.32 235.34C229.84 241.82 235.72 244.82 242.44 244.82C250.66 244.82 257.86 240.2 257.86 230.72C257.86 224.72 254.08 220.64 248.92 219.02ZM260.38 243.92L289.78 243.92L289.78 233.54L276.64 233.54L282.34 227.6C286.18 223.58 289.06 219.62 289.06 214.34C289.06 205.76 282.04 201.02 274.48 201.02C268.36 201.02 262.54 204.08 259.72 210.68L268.96 215.84C270.1 213.2 271.96 211.46 274.6 211.46C277 211.46 278.32 212.96 278.32 214.94C278.32 216.98 276.64 218.9 274.3 221.42L260.38 236.12L260.38 243.92Z" /><path class="shp21" d="M147.4 116.7C143.59 116.7 140.51 113.62 140.51 109.81C140.51 106 143.59 102.92 147.4 102.92C151.21 102.92 154.29 106 154.29 109.81C154.29 113.62 151.21 116.7 147.4 116.7Z" /><path class="shp21" d="M170.36 124.35C169.09 124.35 168.06 123.33 168.06 122.06C168.06 120.79 169.09 119.76 170.36 119.76C171.63 119.76 172.65 120.79 172.65 122.06C172.65 123.33 171.63 124.35 170.36 124.35Z" /><path class="shp21" d="M185.66 402.92C184.39 402.92 183.37 401.9 183.37 400.63C183.37 399.36 184.39 398.33 185.66 398.33C186.93 398.33 187.96 399.36 187.96 400.63C187.96 401.9 186.93 402.92 185.66 402.92Z" /><path class="shp22" d="M97.65 298.84C93.42 298.84 90 295.42 90 291.19C90 286.96 93.42 283.54 97.65 283.54C101.89 283.54 105.31 286.96 105.31 291.19C105.31 295.42 101.89 298.84 97.65 298.84Z" /><path class="shp22" d="M360.15 141.19C357.19 141.19 354.79 138.79 354.79 135.83C354.79 132.87 357.19 130.48 360.15 130.48C363.11 130.48 365.51 132.87 365.51 135.83C365.51 138.79 363.11 141.19 360.15 141.19Z" /><path class="shp22" d="M420.61 239.15C417.22 239.15 414.49 236.41 414.49 233.03C414.49 229.64 417.22 226.9 420.61 226.9C424 226.9 426.73 229.64 426.73 233.03C426.73 236.41 424 239.15 420.61 239.15Z" /><path class="shp22" d="M232.35 436.6C228.96 436.6 226.22 433.86 226.22 430.47C226.22 427.09 228.96 424.35 232.35 424.35C235.73 424.35 238.47 427.09 238.47 430.47C238.47 433.86 235.73 436.6 232.35 436.6Z" /><path fill-rule="evenodd" class="shp65" d="M324.21 280.57L392.29 292.35L368.46 333.63L324.21 280.57Z" /><path fill-rule="evenodd" class="shp66" d="M385.05 320.21L363.2 338.32L339.2 294.04L338.48 293.63L338.97 293.62L338.97 293.6L338.99 293.62L389.8 292.24L385.05 320.21L385.05 320.21L385.05 320.21Z" /><path fill-rule="evenodd" class="shp67" d="M385.94 320.89L334.16 290.75L363.37 338.32L385.94 320.89Z" /><path fill-rule="evenodd" class="shp68" d="M385.94 320.89L335.37 291.69L389.75 292.64L385.94 320.89Z" /><path fill-rule="evenodd" class="shp69" d="M192.76 280.57L124.68 292.35L148.51 333.63L192.76 280.57Z" /><path fill-rule="evenodd" class="shp70" d="M177.98 293.62L127.17 292.24L131.92 320.21L131.92 320.21L131.92 320.21L153.77 338.32L177.77 294.04L178.49 293.63L178 293.62L178 293.6L177.98 293.62Z" /><path fill-rule="evenodd" class="shp71" d="M131.03 320.89L182.81 290.75L153.6 338.32L131.03 320.89Z" /><path fill-rule="evenodd" class="shp72" d="M131.03 320.89L181.6 291.69L127.22 292.64L131.03 320.89Z" /><path fill-rule="evenodd" class="shp73" d="M257.44 157.92L275.93 107.59L238.94 107.59L257.44 157.92Z" /><path fill-rule="evenodd" class="shp74" d="M257.46 95L279.82 103.3L257.46 139.74L257.46 139.74L257.46 139.74L257.45 139.74L257.45 139.74L235.09 103.3L257.45 95L257.45 95L257.46 95L257.46 95L257.46 95Z" /><path fill-rule="evenodd" class="shp75" d="M257.58 94.06L257.58 143.17L279.75 103.17L257.58 94.06Z" /><path fill-rule="evenodd" class="shp76" d="M257.58 94.07L257.58 143.17L235.4 103.17L257.58 94.07Z" /><path fill-rule="evenodd" class="shp0" d="M162.77 331.59C162.77 332.46 163.24 333.27 163.99 333.7L256.47 387.22C257.22 387.66 258.16 387.66 258.91 387.22L353.82 332.76C354.58 332.32 355.05 331.51 355.05 330.64L355.05 222.17L162.77 222.17L162.77 331.59Z" /><path fill-rule="evenodd" class="shp1" d="M218.66 365.34L163.99 333.7C163.24 333.27 162.77 332.46 162.77 331.59L162.77 222.17L218.66 222.17L218.66 365.34Z" /><path fill-rule="evenodd" class="shp2" d="M216.76 364.24L216.76 222.17L218.66 222.17L218.66 365.34L216.76 364.24Z" /><path fill-rule="evenodd" class="shp1" d="M299.17 364.39L353.83 332.76C354.59 332.32 355.05 331.51 355.05 330.64L355.05 221.22L299.17 221.22L299.17 364.39Z" /><path fill-rule="evenodd" class="shp2" d="M301.06 221.22L299.17 221.22L299.17 364.39L301.06 363.29L301.06 221.22Z" /><path fill-rule="evenodd" class="shp77" d="M138.77 114.57C135.83 116.17 134 119.24 134 122.59L134 264.51C134 267.85 135.83 270.93 138.77 272.53L253.43 334.81C256.14 336.28 259.42 336.28 262.14 334.81L376.79 272.53C379.73 270.93 381.56 267.85 381.56 264.51L381.56 122.59C381.56 119.24 379.73 116.17 376.79 114.57L262.14 52.29C259.42 50.82 256.14 50.82 253.43 52.29L138.77 114.57Z" /><path fill-rule="evenodd" class="shp78" d="M157.57 126.03C154.64 127.62 152.81 130.69 152.81 134.02L152.81 252.57C152.81 255.91 154.64 258.98 157.57 260.57L253.29 312.56C256 314.03 259.27 314.03 261.97 312.56L357.7 260.57C360.63 258.98 362.45 255.91 362.45 252.57L362.45 134.02C362.45 130.69 360.63 127.62 357.7 126.03L261.97 74.04C259.27 72.56 256 72.56 253.29 74.04L157.57 126.03Z" /><path class="shp79" d="M157.57 126.03C154.64 127.62 152.81 130.69 152.81 134.02L152.81 252.57C152.81 255.91 154.64 258.98 157.57 260.57L253.29 312.56C256 314.03 259.27 314.03 261.97 312.56L357.7 260.57C360.63 258.98 362.45 255.91 362.45 252.57L362.45 134.02C362.45 130.69 360.63 127.62 357.7 126.03L261.97 74.04C259.27 72.56 256 72.56 253.29 74.04L157.57 126.03Z" /><path fill-rule="evenodd" class="shp6" d="M166.25 131.51C163.46 133.02 161.73 135.94 161.73 139.11L161.73 247.87C161.73 251.05 163.46 253.96 166.25 255.48L254.15 303.18C256.73 304.57 259.83 304.57 262.41 303.18L350.31 255.48C353.09 253.96 354.83 251.05 354.83 247.87L354.83 139.11C354.83 135.94 353.09 133.02 350.31 131.51L262.41 83.8C259.83 82.41 256.73 82.41 254.15 83.8L166.25 131.51Z" /><path fill-rule="evenodd" class="shp80" d="M166.25 131.51C163.46 133.02 161.73 135.94 161.73 139.11L161.73 247.87C161.73 251.05 163.46 253.96 166.25 255.48L254.15 303.18C256.73 304.57 259.83 304.57 262.41 303.18L350.31 255.48C353.09 253.96 354.83 251.05 354.83 247.87L354.83 139.11C354.83 135.94 353.09 133.02 350.31 131.51L262.41 83.8C259.83 82.41 256.73 82.41 254.15 83.8L166.25 131.51Z" /><path fill-rule="evenodd" class="shp81" d="M242.14 309.84L274.42 309.84L278.26 77.13L238.3 77.13L242.14 309.84Z" /><path fill-rule="evenodd" class="shp82" d="M241.5 307.85L269.45 291.73L156.51 88.14L121.91 108.08L241.5 307.85Z" /><path fill-rule="evenodd" class="shp83" d="M238.43 291.73L266.38 307.85L385.97 108.08L351.37 88.14L238.43 291.73Z" /><path class="shp84" d="M161.73 180.19L354.83 180.19L354.83 305.41L161.73 305.41L161.73 180.19Z" /><path fill-rule="evenodd" class="shp12" d="M166.25 131.51C163.46 133.02 161.73 135.94 161.73 139.11L161.73 247.87C161.73 251.05 163.46 253.96 166.25 255.48L254.15 303.18C256.73 304.57 259.83 304.57 262.41 303.18L350.31 255.48C353.09 253.96 354.83 251.05 354.83 247.87L354.83 139.11C354.83 135.94 353.09 133.02 350.31 131.51L262.41 83.8C259.83 82.41 256.73 82.41 254.15 83.8L166.25 131.51Z" /><path fill-rule="evenodd" class="shp13" d="M268.93 221.26L268.93 263.42L246.74 263.42L246.74 221.26L268.93 221.26Z" /><path fill-rule="evenodd" class="shp14" d="M268.93 221.26L268.93 263.42L262.27 263.42L262.27 221.26L268.93 221.26Z" /><path class="shp15" d="M237.87 261.2C230.55 261.2 224.56 267.19 224.56 274.51L291.12 274.51C291.12 267.19 285.13 261.2 277.81 261.2L237.87 261.2Z" /><path class="shp16" d="M266.71 261.2C274.03 261.2 280.02 267.19 280.02 274.51L291.12 274.51C291.12 267.19 285.13 261.2 277.81 261.2L266.71 261.2Z" /><path class="shp15" d="M246.52 239.01C240.53 239.01 235.65 234.13 235.65 228.14L235.65 225.7L280.02 225.7L280.02 228.14C280.02 234.13 275.14 239.01 269.15 239.01L246.52 239.01Z" /><path class="shp16" d="M271.15 228.14C271.15 234.13 268.49 239.01 262.5 239.01L269.15 239.01C275.14 239.01 280.02 234.13 280.02 228.14L280.02 225.7L271.15 225.7L271.15 228.14Z" /><path class="shp13" d="M220.12 274.51C220.12 272.07 222.11 270.07 224.56 270.07L291.12 270.07C293.56 270.07 295.56 272.07 295.56 274.51L220.12 274.51Z" /><path class="shp14" d="M280.02 270.07C282.46 270.07 284.46 272.07 284.46 274.51L295.56 274.51C295.56 272.07 293.56 270.07 291.12 270.07L280.02 270.07Z" /><path class="shp17" d="M231.21 221.26L231.21 227.92C231.21 230.36 233.21 232.35 235.65 232.35L280.02 232.35C282.46 232.35 284.46 230.36 284.46 227.92L284.46 221.26L231.21 221.26Z" /><path class="shp13" d="M231.21 221.26L231.21 227.92C231.21 230.36 233.21 232.35 235.65 232.35L280.02 232.35C282.46 232.35 284.46 230.36 284.46 227.92L284.46 221.26L231.21 221.26Z" /><path class="shp14" d="M268.93 227.92C271.15 227.92 271.37 232.35 268.93 232.35L280.02 232.35C282.46 232.35 284.46 230.36 284.46 227.92L284.46 221.26L273.37 221.26L268.93 227.92Z" /><path class="shp18" d="M288.9 150.26L331.06 150.26L331.06 152.48C331.06 175.78 312.2 194.64 288.9 194.64" /><path class="shp19" d="M226.77 150.26L184.62 150.26L184.62 152.48C184.62 175.78 203.48 194.64 226.77 194.64" /><path class="shp15" d="M238.98 227.92C224.78 227.92 213.46 216.6 213.46 202.4L213.46 132.51L302.21 132.51L302.21 202.4C302.21 216.6 290.9 227.92 276.7 227.92L238.98 227.92Z" /><path class="shp20" d="M226.77 139.17C226.77 139.17 226.77 176.89 226.77 183.54" /><path class="shp16" d="M292 202.52C292 216.66 281.8 227.92 269 227.92L279 227.92C291.8 227.92 302 216.66 302 202.52L302 132.92L292 132.92L292 202.52Z" /><path class="shp13" d="M206.81 132.51L213.46 139.17L302.21 139.17L308.87 132.51L206.81 132.51Z" /><path class="shp14" d="M292 138.92L302.63 138.92L309 131.92L296.25 131.92L292 138.92Z" /><path class="shp15" d="M204.59 123.64C202.15 123.64 200.15 125.63 200.15 128.07C200.15 130.51 202.15 132.51 204.59 132.51L311.09 132.51C313.53 132.51 315.52 130.51 315.52 128.07C315.52 125.63 313.53 123.64 311.09 123.64L204.59 123.64Z" /><path class="shp16" d="M297.77 123.64C300.21 123.64 302.21 125.63 302.21 128.07C302.21 130.51 300.21 132.51 297.77 132.51L311.09 132.51C313.53 132.51 315.52 130.51 315.52 128.07C315.52 125.63 313.53 123.64 311.09 123.64L297.77 123.64Z" /><path class="shp20" d="M226.77 193.31L226.77 198.41" /><path class="shp85" d="M248.92 170.02L255.94 161.38L255.94 152.92L228.64 152.92L228.64 163.18L242.74 163.18L236.02 171.4L240.16 177.52L242.44 177.52C245.56 177.52 247.18 179.08 247.18 181.42C247.18 183.76 245.56 185.38 242.44 185.38C239.2 185.38 237.52 183.76 236.68 181L227.32 186.34C229.84 192.82 235.72 195.82 242.44 195.82C250.66 195.82 257.86 191.2 257.86 181.72C257.86 175.72 254.08 171.64 248.92 170.02ZM260.38 194.92L289.78 194.92L289.78 184.54L276.64 184.54L282.34 178.6C286.18 174.58 289.06 170.62 289.06 165.34C289.06 156.76 282.04 152.02 274.48 152.02C268.36 152.02 262.54 155.08 259.72 161.68L268.96 166.84C270.1 164.2 271.96 162.46 274.6 162.46C277 162.46 278.32 163.96 278.32 165.94C278.32 167.98 276.64 169.9 274.3 172.42L260.38 187.12L260.38 194.92Z" /><path class="shp21" d="M147.4 67.7C143.59 67.7 140.51 64.62 140.51 60.81C140.51 57 143.59 53.92 147.4 53.92C151.21 53.92 154.29 57 154.29 60.81C154.29 64.62 151.21 67.7 147.4 67.7Z" /><path class="shp21" d="M170.36 75.35C169.09 75.35 168.06 74.33 168.06 73.06C168.06 71.79 169.09 70.76 170.36 70.76C171.63 70.76 172.65 71.79 172.65 73.06C172.65 74.33 171.63 75.35 170.36 75.35Z" /><path class="shp21" d="M185.66 353.92C184.39 353.92 183.37 352.9 183.37 351.63C183.37 350.36 184.39 349.33 185.66 349.33C186.93 349.33 187.96 350.36 187.96 351.63C187.96 352.9 186.93 353.92 185.66 353.92Z" /><path class="shp22" d="M97.65 249.84C93.42 249.84 90 246.42 90 242.19C90 237.96 93.42 234.54 97.65 234.54C101.89 234.54 105.31 237.96 105.31 242.19C105.31 246.42 101.89 249.84 97.65 249.84Z" /><path class="shp22" d="M360.15 92.19C357.19 92.19 354.79 89.79 354.79 86.83C354.79 83.87 357.19 81.48 360.15 81.48C363.11 81.48 365.51 83.87 365.51 86.83C365.51 89.79 363.11 92.19 360.15 92.19Z" /><path class="shp22" d="M420.61 190.15C417.22 190.15 414.49 187.41 414.49 184.03C414.49 180.64 417.22 177.9 420.61 177.9C424 177.9 426.73 180.64 426.73 184.03C426.73 187.41 424 190.15 420.61 190.15Z" /><path class="shp22" d="M232.35 387.6C228.96 387.6 226.22 384.86 226.22 381.47C226.22 378.09 228.96 375.35 232.35 375.35C235.73 375.35 238.47 378.09 238.47 381.47C238.47 384.86 235.73 387.6 232.35 387.6Z" /><path fill-rule="evenodd" class="shp86" d="M324.21 231.57L392.29 243.35L368.46 284.63L324.21 231.57Z" /><path fill-rule="evenodd" class="shp87" d="M385.05 271.21L363.2 289.32L339.2 245.04L338.48 244.63L338.97 244.62L338.97 244.6L338.99 244.62L389.8 243.24L385.05 271.21L385.05 271.21L385.05 271.21Z" /><path fill-rule="evenodd" class="shp88" d="M385.94 271.89L334.16 241.75L363.37 289.32L385.94 271.89Z" /><path fill-rule="evenodd" class="shp89" d="M385.94 271.89L335.37 242.69L389.75 243.64L385.94 271.89Z" /><path fill-rule="evenodd" class="shp90" d="M192.76 231.57L124.68 243.35L148.51 284.63L192.76 231.57Z" /><path fill-rule="evenodd" class="shp91" d="M177.98 244.62L127.17 243.24L131.92 271.21L131.92 271.21L131.92 271.21L153.77 289.32L177.77 245.04L178.49 244.63L178 244.62L178 244.6L177.98 244.62Z" /><path fill-rule="evenodd" class="shp92" d="M131.03 271.89L182.81 241.75L153.6 289.32L131.03 271.89Z" /><path fill-rule="evenodd" class="shp93" d="M131.03 271.89L181.6 242.69L127.22 243.64L131.03 271.89Z" /><path fill-rule="evenodd" class="shp94" d="M257.44 108.92L275.93 58.59L238.94 58.59L257.44 108.92Z" /><path fill-rule="evenodd" class="shp95" d="M257.46 46L279.82 54.3L257.46 90.74L257.46 90.74L257.46 90.74L257.45 90.74L257.45 90.74L235.09 54.3L257.45 46L257.45 46L257.46 46L257.46 46L257.46 46Z" /><path fill-rule="evenodd" class="shp96" d="M257.58 45.06L257.58 94.17L279.75 54.17L257.58 45.06Z" /><path fill-rule="evenodd" class="shp97" d="M257.58 45.07L257.58 94.17L235.4 54.17L257.58 45.07Z" /></g></g></g></g></svg>