<svg version="1.2" baseProfile="tiny-ps" xmlns="http://www.w3.org/2000/svg" viewBox="0 0 619 540" width="619" height="540"><title>medal_64-svg</title><defs><radialGradient id="grd1" gradientUnits="userSpaceOnUse"  cx="309.163" cy="45.551" r="26.441"><stop offset="0" stop-color="#e7ecff"  /><stop offset="0.979" stop-color="#abc3ff" stop-opacity="0.88" /><stop offset="1" stop-color="#aaccff" stop-opacity="0.88" /></radialGradient><linearGradient id="grd2" gradientUnits="userSpaceOnUse"  x1="110.755" y1="46.47" x2="110.755" y2="439.529"><stop offset="0" stop-color="#d2dfff" stop-opacity="0.89" /><stop offset="0.281" stop-color="#ccddff" stop-opacity="0.2" /><stop offset="1" stop-color="#56d7e0" stop-opacity="0.01" /></linearGradient><linearGradient id="grd3" gradientUnits="userSpaceOnUse"  x1="110.755" y1="46.47" x2="110.755" y2="439.529"><stop offset="0" stop-color="#dee7ff"  /><stop offset="0.072" stop-color="#ccddff" stop-opacity="0.33" /><stop offset="1" stop-color="#98c6f0" stop-opacity="0.01" /></linearGradient><linearGradient id="grd4" gradientUnits="userSpaceOnUse"  x1="270.924" y1="3.112" x2="270.924" y2="210.528"><stop offset="0" stop-color="#aaccff" stop-opacity="0.01" /><stop offset="1" stop-color="#aaccff" stop-opacity="0.3" /></linearGradient><linearGradient id="grd5" gradientUnits="userSpaceOnUse"  x1="550.266" y1="365.698" x2="370.563" y2="261.792"><stop offset="0" stop-color="#aaccff" stop-opacity="0.01" /><stop offset="1" stop-color="#aaccff" stop-opacity="0.3" /></linearGradient><linearGradient id="grd6" gradientUnits="userSpaceOnUse"  x1="342.982" y1="528.522" x2="342.982" y2="321.106"><stop offset="0" stop-color="#aaccff" stop-opacity="0.01" /><stop offset="1" stop-color="#aaccff" stop-opacity="0.3" /></linearGradient><linearGradient id="grd7" gradientUnits="userSpaceOnUse"  x1="100.673" y1="429.821" x2="280.376" y2="325.915"><stop offset="0" stop-color="#aaccff" stop-opacity="0.01" /><stop offset="1" stop-color="#aaccff" stop-opacity="0.3" /></linearGradient><linearGradient id="grd8" gradientUnits="userSpaceOnUse"  x1="550.266" y1="166.264" x2="370.563" y2="270.169"><stop offset="0" stop-color="#aaccff" stop-opacity="0.01" /><stop offset="1" stop-color="#aaccff" stop-opacity="0.3" /></linearGradient><linearGradient id="grd9" gradientUnits="userSpaceOnUse"  x1="100.673" y1="102.14" x2="280.376" y2="206.047"><stop offset="0" stop-color="#aaccff" stop-opacity="0.01" /><stop offset="1" stop-color="#aaccff" stop-opacity="0.3" /></linearGradient><radialGradient id="grd10" gradientUnits="userSpaceOnUse"  cx="275.535" cy="443.155" r="63.044"><stop offset="0.432" stop-color="#023580"  /><stop offset="1" stop-color="#0d3d78"  /></radialGradient><linearGradient id="grd11" gradientUnits="userSpaceOnUse"  x1="270.679" y1="417.99" x2="231.907" y2="454.479"><stop offset="0.214" stop-color="#042861"  /><stop offset="0.574" stop-color="#195294"  /><stop offset="1" stop-color="#063988"  /><stop offset="1" stop-color="#063988"  /><stop offset="1" stop-color="#063988"  /></linearGradient><linearGradient id="grd12" gradientUnits="userSpaceOnUse"  x1="248.032" y1="481.081" x2="294.434" y2="534.167"><stop offset="0" stop-color="#4680b6" stop-opacity="0.1" /><stop offset="0.422" stop-color="#5693cb"  /><stop offset="1" stop-color="#4680b6" stop-opacity="0.45" /></linearGradient><linearGradient id="grd13" gradientUnits="userSpaceOnUse"  x1="237.652" y1="505.332" x2="244.163" y2="541.501"><stop offset="0" stop-color="#6f7384"  /><stop offset="1" stop-color="#c3c5ce"  /></linearGradient><linearGradient id="grd14" gradientUnits="userSpaceOnUse"  x1="259.375" y1="477.74" x2="257.443" y2="495.88"><stop offset="0" stop-color="#cccdd7"  /><stop offset="0.31" stop-color="#f3f3f4"  /><stop offset="0.524" stop-color="#eaeaec"  /><stop offset="0.614" stop-color="#c1c2ce"  /><stop offset="1" stop-color="#acadbf"  /></linearGradient><linearGradient id="grd15" gradientUnits="userSpaceOnUse"  x1="371.757" y1="456.214" x2="376.571" y2="481.225"><stop offset="0" stop-color="#bebfcc"  /><stop offset="0.31" stop-color="#dedfe3"  /><stop offset="0.524" stop-color="#ededef"  /><stop offset="0.614" stop-color="#babbc9"  /><stop offset="1" stop-color="#b6b7c6"  /></linearGradient><linearGradient id="grd16" gradientUnits="userSpaceOnUse"  x1="375.908" y1="469.58" x2="386.913" y2="503.334"><stop offset="0" stop-color="#6f7384"  /><stop offset="1" stop-color="#c3c5ce"  /></linearGradient><linearGradient id="grd17" gradientUnits="userSpaceOnUse"  x1="393.889" y1="399.865" x2="356.54" y2="441.342"><stop offset="0" stop-color="#4680b6" stop-opacity="0.1" /><stop offset="0.582" stop-color="#5693cb" stop-opacity="0.56" /><stop offset="1" stop-color="#4680b6" stop-opacity="0.45" /></linearGradient><linearGradient id="grd18" gradientUnits="userSpaceOnUse"  x1="247.084" y1="456.214" x2="242.269" y2="481.225"><stop offset="0" stop-color="#bebfcc"  /><stop offset="0.31" stop-color="#dedfe3"  /><stop offset="0.524" stop-color="#ededef"  /><stop offset="0.614" stop-color="#babbc9"  /><stop offset="1" stop-color="#b6b7c6"  /></linearGradient><linearGradient id="grd19" gradientUnits="userSpaceOnUse"  x1="242.933" y1="469.58" x2="231.928" y2="503.334"><stop offset="0" stop-color="#6f7384"  /><stop offset="1" stop-color="#c3c5ce"  /></linearGradient><linearGradient id="grd20" gradientUnits="userSpaceOnUse"  x1="224.95" y1="399.865" x2="262.299" y2="441.342"><stop offset="0" stop-color="#4680b6" stop-opacity="0.1" /><stop offset="0.582" stop-color="#5693cb" stop-opacity="0.56" /><stop offset="1" stop-color="#4680b6" stop-opacity="0.45" /></linearGradient><linearGradient id="grd21" gradientUnits="userSpaceOnUse"  x1="118.301" y1="214.555" x2="296.275" y2="476.797"><stop offset="0" stop-color="#fafafa"  /><stop offset="1" stop-color="#c2c4cd"  /></linearGradient><linearGradient id="grd22" gradientUnits="userSpaceOnUse"  x1="141.503" y1="226.679" x2="293.553" y2="434.785"><stop offset="0" stop-color="#cdcfd6"  /><stop offset="1" stop-color="#efeff1"  /></linearGradient><linearGradient id="grd23" gradientUnits="userSpaceOnUse"  x1="149.974" y1="223.943" x2="313.242" y2="441.796"><stop offset="0" stop-color="#dddfe2"  /><stop offset="1" stop-color="#ffffff"  /></linearGradient><clipPath clipPathUnits="userSpaceOnUse" id="cp1"><path d="M189.81 191.98C186.47 193.8 184.38 197.29 184.38 201.11L184.38 342.5C184.38 346.31 186.47 349.81 189.81 351.62L304.08 413.65C307.17 415.33 310.89 415.33 313.97 413.65L428.25 351.62C431.58 349.81 433.67 346.31 433.67 342.5L433.67 201.11C433.67 197.29 431.58 193.8 428.25 191.98L313.97 129.95C310.89 128.27 307.17 128.27 304.08 129.95L189.81 191.98Z" /></clipPath><radialGradient id="grd24" gradientUnits="userSpaceOnUse"  cx="309.03" cy="271.801" r="144.493"><stop offset="0" stop-color="#f5f7ff"  /><stop offset="1" stop-color="#b3b5c5"  /></radialGradient><linearGradient id="grd25" gradientUnits="userSpaceOnUse"  x1="283.24" y1="121.536" x2="283.24" y2="422.051"><stop offset="0" stop-color="#ffffff"  /><stop offset="1" stop-color="#f2eded" stop-opacity="0.01" /></linearGradient><linearGradient id="grd26" gradientUnits="userSpaceOnUse"  x1="132.953" y1="161.506" x2="283.098" y2="421.954"><stop offset="0" stop-color="#ffffff"  /><stop offset="1" stop-color="#f2eded" stop-opacity="0.01" /></linearGradient><linearGradient id="grd27" gradientUnits="userSpaceOnUse"  x1="429.232" y1="135.749" x2="279.086" y2="396.196"><stop offset="0" stop-color="#ffffff"  /><stop offset="1" stop-color="#f2eded" stop-opacity="0.01" /></linearGradient><linearGradient id="grd28" gradientUnits="userSpaceOnUse"  x1="246.157" y1="324.558" x2="245.922" y2="406.128"><stop offset="0" stop-color="#ffffff" stop-opacity="0.01" /><stop offset="1" stop-color="#d0dbff"  /></linearGradient><linearGradient id="grd29" gradientUnits="userSpaceOnUse"  x1="493.654" y1="251.779" x2="469.912" y2="238.106"><stop offset="0.209" stop-color="#aaaebc"  /><stop offset="0.583" stop-color="#e0e1f1"  /><stop offset="0.987" stop-color="#868c9d"  /></linearGradient><linearGradient id="grd30" gradientUnits="userSpaceOnUse"  x1="440.176" y1="171.816" x2="455.961" y2="306.155"><stop offset="0.221" stop-color="#fafafa"  /><stop offset="1" stop-color="#d8d9e1"  /></linearGradient><linearGradient id="grd31" gradientUnits="userSpaceOnUse"  x1="460.232" y1="110.209" x2="321.154" y2="220.807"><stop offset="0" stop-color="#f8f8f9" stop-opacity="0.46" /><stop offset="0.219" stop-color="#f8f8f9" stop-opacity="0.67" /><stop offset="0.457" stop-color="#ffffff" stop-opacity="0.46" /><stop offset="0.742" stop-color="#ffffff" stop-opacity="0.01" /></linearGradient><linearGradient id="grd32" gradientUnits="userSpaceOnUse"  x1="496.796" y1="294.851" x2="466.511" y2="264.701"><stop offset="0.209" stop-color="#9196aa"  /><stop offset="0.583" stop-color="#c9c9dc"  /><stop offset="0.987" stop-color="#797d87"  /></linearGradient><linearGradient id="grd33" gradientUnits="userSpaceOnUse"  x1="419.579" y1="296.484" x2="440.853" y2="367.555"><stop offset="0" stop-color="#efefef"  /><stop offset="0.411" stop-color="#dedfe6"  /><stop offset="0.59" stop-color="#d1d2d9"  /><stop offset="1" stop-color="#d1d2d9"  /></linearGradient><linearGradient id="grd34" gradientUnits="userSpaceOnUse"  x1="517.704" y1="211.313" x2="400.452" y2="264.185"><stop offset="0" stop-color="#f8f8f9" stop-opacity="0.86" /><stop offset="0.319" stop-color="#f8f8f9"  /><stop offset="0.615" stop-color="#ffffff" stop-opacity="0.88" /><stop offset="0.868" stop-color="#ffffff"  /></linearGradient><linearGradient id="grd35" gradientUnits="userSpaceOnUse"  x1="439.54" y1="349.441" x2="436.102" y2="334.13"><stop offset="0.209" stop-color="#717995"  /><stop offset="0.583" stop-color="#a4a5bb"  /><stop offset="0.987" stop-color="#797d87"  /></linearGradient><linearGradient id="grd36" gradientUnits="userSpaceOnUse"  x1="329.786" y1="331.772" x2="318.532" y2="419.11"><stop offset="0.031" stop-color="#dbdce7"  /><stop offset="0.274" stop-color="#cbccd7"  /><stop offset="0.676" stop-color="#d1d2d9"  /></linearGradient><linearGradient id="grd37" gradientUnits="userSpaceOnUse"  x1="335.147" y1="321.666" x2="309.197" y2="419.593"><stop offset="0" stop-color="#f8f8f9" stop-opacity="0.78" /><stop offset="0.319" stop-color="#f8f8f9" stop-opacity="0.01" /><stop offset="0.615" stop-color="#ffffff" stop-opacity="0.01" /><stop offset="0.868" stop-color="#ffffff" stop-opacity="0.01" /></linearGradient><linearGradient id="grd38" gradientUnits="userSpaceOnUse"  x1="291.341" y1="488.219" x2="737.271" y2="653.886"><stop offset="0" stop-color="#c4c4c4"  /><stop offset="1" stop-color="#63687b"  /></linearGradient><linearGradient id="grd39" gradientUnits="userSpaceOnUse"  x1="374.445" y1="328.56" x2="347.881" y2="362.082"><stop offset="0" stop-color="#ffffff" stop-opacity="0.01" /><stop offset="0.445" stop-color="#ffffff"  /><stop offset="1" stop-color="#ffffff" stop-opacity="0.01" /></linearGradient><linearGradient id="grd40" gradientUnits="userSpaceOnUse"  x1="356.978" y1="343.961" x2="357.794" y2="375.476"><stop offset="0.05" stop-color="#c4c4c4"  /><stop offset="0.454" stop-color="#ededed"  /><stop offset="1" stop-color="#c4c4c4" stop-opacity="0.01" /></linearGradient><linearGradient id="grd41" gradientUnits="userSpaceOnUse"  x1="125.18" y1="251.779" x2="148.921" y2="238.106"><stop offset="0.209" stop-color="#aaaebc"  /><stop offset="0.583" stop-color="#e0e1f1"  /><stop offset="0.987" stop-color="#868c9d"  /></linearGradient><linearGradient id="grd42" gradientUnits="userSpaceOnUse"  x1="86.558" y1="171.817" x2="102.344" y2="306.156"><stop offset="0.221" stop-color="#fafafa"  /><stop offset="1" stop-color="#d8d9e1"  /></linearGradient><linearGradient id="grd43" gradientUnits="userSpaceOnUse"  x1="158.598" y1="110.209" x2="297.677" y2="220.807"><stop offset="0" stop-color="#f8f8f9" stop-opacity="0.46" /><stop offset="0.219" stop-color="#f8f8f9" stop-opacity="0.67" /><stop offset="0.457" stop-color="#ffffff" stop-opacity="0.46" /><stop offset="0.742" stop-color="#ffffff" stop-opacity="0.01" /></linearGradient><linearGradient id="grd44" gradientUnits="userSpaceOnUse"  x1="122.034" y1="294.851" x2="152.318" y2="264.701"><stop offset="0.209" stop-color="#9196aa"  /><stop offset="0.583" stop-color="#c9c9dc"  /><stop offset="0.987" stop-color="#797d87"  /></linearGradient><linearGradient id="grd45" gradientUnits="userSpaceOnUse"  x1="146.059" y1="296.483" x2="167.334" y2="367.554"><stop offset="0" stop-color="#efefef"  /><stop offset="0.411" stop-color="#dedfe6"  /><stop offset="0.59" stop-color="#d1d2d9"  /><stop offset="1" stop-color="#d1d2d9"  /></linearGradient><linearGradient id="grd46" gradientUnits="userSpaceOnUse"  x1="101.126" y1="211.314" x2="218.379" y2="264.186"><stop offset="0" stop-color="#f8f8f9" stop-opacity="0.86" /><stop offset="0.319" stop-color="#f8f8f9"  /><stop offset="0.615" stop-color="#ffffff" stop-opacity="0.88" /><stop offset="0.868" stop-color="#ffffff"  /></linearGradient><linearGradient id="grd47" gradientUnits="userSpaceOnUse"  x1="179.291" y1="349.441" x2="182.729" y2="334.129"><stop offset="0.209" stop-color="#717995"  /><stop offset="0.583" stop-color="#a4a5bb"  /><stop offset="0.987" stop-color="#797d87"  /></linearGradient><linearGradient id="grd48" gradientUnits="userSpaceOnUse"  x1="289.044" y1="331.771" x2="300.298" y2="419.11"><stop offset="0.031" stop-color="#dbdce7"  /><stop offset="0.274" stop-color="#cbccd7"  /><stop offset="0.676" stop-color="#d1d2d9"  /></linearGradient><linearGradient id="grd49" gradientUnits="userSpaceOnUse"  x1="283.683" y1="321.665" x2="309.634" y2="419.593"><stop offset="0" stop-color="#f8f8f9" stop-opacity="0.78" /><stop offset="0.319" stop-color="#f8f8f9" stop-opacity="0.01" /><stop offset="0.615" stop-color="#ffffff" stop-opacity="0.01" /><stop offset="0.868" stop-color="#ffffff" stop-opacity="0.01" /></linearGradient><linearGradient id="grd50" gradientUnits="userSpaceOnUse"  x1="327.487" y1="488.218" x2="-118.443" y2="653.886"><stop offset="0" stop-color="#c4c4c4"  /><stop offset="1" stop-color="#63687b"  /></linearGradient><linearGradient id="grd51" gradientUnits="userSpaceOnUse"  x1="244.386" y1="328.559" x2="270.951" y2="362.081"><stop offset="0" stop-color="#ffffff" stop-opacity="0.01" /><stop offset="0.445" stop-color="#ffffff"  /><stop offset="1" stop-color="#ffffff" stop-opacity="0.01" /></linearGradient><linearGradient id="grd52" gradientUnits="userSpaceOnUse"  x1="210.409" y1="343.96" x2="211.227" y2="375.476"><stop offset="0.05" stop-color="#c4c4c4"  /><stop offset="0.454" stop-color="#ededed"  /><stop offset="1" stop-color="#c4c4c4" stop-opacity="0.01" /></linearGradient><linearGradient id="grd53" gradientUnits="userSpaceOnUse"  x1="329.224" y1="444.438" x2="329.224" y2="395.064"><stop offset="0" stop-color="#585b77" stop-opacity="0.75" /><stop offset="1" stop-color="#525787" stop-opacity="0.01" /></linearGradient><linearGradient id="grd54" gradientUnits="userSpaceOnUse"  x1="315.156" y1="461.587" x2="355.258" y2="442.589"><stop offset="0" stop-color="#d5d7d9"  /><stop offset="1" stop-color="#e2e3e7"  /></linearGradient><clipPath clipPathUnits="userSpaceOnUse" id="cp2"><path d="M308.8 459.35L308.8 459.35L308.8 459.35L308.8 459.35L308.8 459.35L342.03 447.02L308.8 392.95L308.8 392.94L308.8 392.94L308.8 392.94L308.8 392.95L275.56 447.02L308.8 459.35Z" /></clipPath><linearGradient id="grd55" gradientUnits="userSpaceOnUse"  x1="307.975" y1="493.056" x2="349.175" y2="485.37"><stop offset="0" stop-color="#9a9ca5"  /><stop offset="0.259" stop-color="#c4c6cf"  /><stop offset="0.878" stop-color="#edeff8"  /></linearGradient><linearGradient id="grd56" gradientUnits="userSpaceOnUse"  x1="317.441" y1="422.589" x2="289.056" y2="435.983"><stop offset="0" stop-color="#ffffff"  /><stop offset="0.523" stop-color="#f7f7f7"  /><stop offset="0.897" stop-color="#dadbe0"  /></linearGradient></defs><style>tspan { white-space:pre }.shp0 { fill: url(#grd1) } .shp1 { fill: url(#grd2) } .shp2 { fill: url(#grd3) } .shp3 { fill: #ffffff } .shp4 { fill: url(#grd4) } .shp5 { fill: url(#grd5) } .shp6 { fill: url(#grd6) } .shp7 { fill: url(#grd7) } .shp8 { fill: url(#grd8) } .shp9 { fill: url(#grd9) } .shp10 { fill: url(#grd10) } .shp11 { opacity: 0.8;fill: url(#grd11) } .shp12 { opacity: 0.8;fill: #0e3060 } .shp13 { fill: url(#grd12) } .shp14 { fill: url(#grd13) } .shp15 { fill: url(#grd14) } .shp16 { fill: #eeeff8 } .shp17 { fill: #063988 } .shp18 { fill: url(#grd15) } .shp19 { fill: url(#grd16) } .shp20 { fill: url(#grd17) } .shp21 { fill: url(#grd18) } .shp22 { fill: url(#grd19) } .shp23 { fill: url(#grd20) } .shp24 { fill: url(#grd21) } .shp25 { fill: url(#grd22) } .shp26 { fill: none;stroke: url(#grd23);stroke-width: 0.644 } .shp27 { fill: #a6d3de } .shp28 { fill: url(#grd24) } .shp29 { opacity: 0.502;fill: url(#grd25) } .shp30 { opacity: 0.502;fill: url(#grd26) } .shp31 { opacity: 0.502;fill: url(#grd27) } .shp32 { fill: url(#grd28) } .shp33 { opacity: 0.012;fill: #6052b4 } .shp34 { fill: url(#grd29) } .shp35 { fill: url(#grd30) } .shp36 { fill: none;stroke: url(#grd31);stroke-width: 1.083 } .shp37 { fill: url(#grd32) } .shp38 { fill: url(#grd33) } .shp39 { fill: none;stroke: url(#grd34);stroke-width: 1.083 } .shp40 { fill: url(#grd35) } .shp41 { fill: url(#grd36) } .shp42 { fill: none;stroke: url(#grd37);stroke-width: 1.083 } .shp43 { fill: url(#grd38) } .shp44 { fill: #c4c4c4 } .shp45 { fill: url(#grd39) } .shp46 { fill: url(#grd40) } .shp47 { fill: url(#grd41) } .shp48 { fill: url(#grd42) } .shp49 { fill: none;stroke: url(#grd43);stroke-width: 1.08 } .shp50 { fill: url(#grd44) } .shp51 { fill: url(#grd45) } .shp52 { fill: none;stroke: url(#grd46);stroke-width: 1.08 } .shp53 { fill: url(#grd47) } .shp54 { fill: url(#grd48) } .shp55 { fill: none;stroke: url(#grd49);stroke-width: 1.08 } .shp56 { fill: url(#grd50) } .shp57 { fill: url(#grd51) } .shp58 { fill: url(#grd52) } .shp59 { fill: url(#grd53) } .shp60 { fill: url(#grd54) } .shp61 { fill: url(#grd55) } .shp62 { fill: url(#grd56) } .shp63 { fill: #d4d5de } .shp64 { opacity: 0.2;fill: #a0a2b5 } .shp65 { fill: #efefef } .shp66 { fill: #d1d3dd } .shp67 { opacity: 0.2;fill: #9b9db1 } .shp68 { fill: #f9a74e } .shp69 { fill: none;stroke: #cacbd6;stroke-linecap:round;stroke-linejoin:round;stroke-width: 4.799 } .shp70 { fill: none;stroke: #d1d3dd;stroke-linecap:round;stroke-linejoin:round;stroke-width: 4.799 } .shp71 { opacity: 0.302;fill: none;stroke: #ffffff;stroke-linecap:round;stroke-linejoin:round;stroke-width: 2.4 } </style><g style="opacity: 0.502"><path class="shp0" d="M309.06 62.08C299.92 62.08 292.54 54.7 292.54 45.55C292.54 36.41 299.92 29.02 309.06 29.02C318.2 29.02 325.59 36.41 325.59 45.55C325.59 54.7 318.2 62.08 309.06 62.08Z" /></g><path fill-rule="evenodd" class="shp1" d="M306.31 534.12C170.92 534.12 61.18 424.34 61.18 288.91C61.18 153.49 170.92 43.72 306.31 43.72C441.69 43.72 551.43 153.49 551.43 288.91C551.43 424.34 441.69 534.12 306.31 534.12ZM545.92 288.91C545.92 156.54 438.64 49.22 306.31 49.22C173.97 49.22 66.69 156.54 66.69 288.91C66.69 421.3 173.97 528.61 306.31 528.61C438.64 528.61 545.92 421.3 545.92 288.91Z" /><path fill-rule="evenodd" class="shp2" d="M306.31 534.12C170.92 534.12 61.18 424.34 61.18 288.91C61.18 153.49 170.92 43.72 306.31 43.72C441.69 43.72 551.43 153.49 551.43 288.91C551.43 424.34 441.69 534.12 306.31 534.12ZM545.92 288.91C545.92 156.54 438.64 49.22 306.31 49.22C173.97 49.22 66.69 156.54 66.69 288.91C66.69 421.3 173.97 528.61 306.31 528.61C438.64 528.61 545.92 421.3 545.92 288.91Z" /><g ><path fill-rule="evenodd" class="shp3" d="M308.9 1.2L312.7 41.52L350.29 45.6L312.7 49.68L308.9 90L305.1 49.68L267.51 45.6L305.1 41.52L308.9 1.2Z" /></g><path fill-rule="evenodd" class="shp4" d="M280.1 210.53L335.12 210.53L344.29 3.11L270.92 3.11L280.1 210.53Z" /><path fill-rule="evenodd" class="shp5" d="M365.98 269.71L338.46 317.3L513.58 429.18L550.26 365.71L365.98 269.71Z" /><path fill-rule="evenodd" class="shp6" d="M333.82 321.11L278.79 321.11L269.61 528.53L342.98 528.53L333.82 321.11Z" /><path fill-rule="evenodd" class="shp7" d="M275.79 317.96L248.27 270.37L63.99 366.37L100.67 429.84L275.79 317.96Z" /><path fill-rule="evenodd" class="shp8" d="M365.98 262.25L338.46 214.66L513.58 102.78L550.26 166.25L365.98 262.25Z" /><path fill-rule="evenodd" class="shp9" d="M275.79 214L248.27 261.6L63.99 165.59L100.67 102.12L275.79 214Z" /><g ><path class="shp10" d="M370.78 419.53L370.78 479.54L309.42 510.19L248.06 479.54L248.06 419.53L370.78 419.53Z" /><path fill-rule="evenodd" class="shp11" d="M248.04 423.36L264.66 423.36C264.97 424.04 265.27 424.72 265.57 425.4C279.88 457.45 295.61 492.66 330.9 499.46L309.42 510.19L248.04 479.54L248.04 423.36Z" /><path fill-rule="evenodd" class="shp12" d="M310.05 467.41L249.33 436.78L249.33 425.28L370.14 425.28L370.14 436.78L310.05 467.41Z" /><path fill-rule="evenodd" class="shp13" d="M267.86 450.82C291.52 413.15 285.12 492.96 315.8 485.93C346.48 478.91 355.43 461.03 359.27 455.93C363.1 450.82 368.22 450.82 352.24 468.7C336.26 486.58 313.24 503.17 287.04 485.93C266.07 472.14 266.79 468.7 267.86 468.7C261.9 462.95 261.9 460.32 267.86 450.82Z" /><g ><path fill-rule="evenodd" class="shp14" d="M309.42 506.36L370.78 477.64L370.78 481.46L309.42 510.83L248.04 481.46L248.04 476.99L309.42 506.36Z" /><path fill-rule="evenodd" class="shp15" d="M309.42 502.54L370.78 473.8L370.78 478.91L309.42 507L248.04 478.91L248.04 473.16L309.42 502.54Z" /><path fill-rule="evenodd" class="shp16" d="M308.77 503.24L248.04 473.8L248.04 472.52L308.78 501.83L370.78 472.52L370.78 473.8L308.77 503.24Z" /></g><path class="shp17" d="M449.1 365.9L449.1 435.07L415.52 451.31L381.96 466.78L381.96 365.9L449.1 365.9Z" /><path fill-rule="evenodd" class="shp12" d="M449.4 394.63L382.28 429.74L382.28 402.94L449.4 370.37L449.4 394.63Z" /><g ><path fill-rule="evenodd" class="shp16" d="M381.64 467.41L381.64 466.14L449.4 434.86L449.4 436.13L381.64 467.41Z" /><path fill-rule="evenodd" class="shp18" d="M381.64 472.52L381.64 467.41L449.4 436.13L449.4 441.24L381.64 472.52Z" /><path fill-rule="evenodd" class="shp19" d="M381.64 475.08L381.64 472.52L449.4 441.24L449.4 443.8L381.64 475.08Z" /></g><path fill-rule="evenodd" class="shp20" d="M382.28 446.99L382.28 470.6L437.89 407.4L437.89 400.38L382.28 446.99Z" /><path class="shp17" d="M169.75 365.9L169.75 435.07L203.31 451.31L236.89 466.78L236.89 365.9L169.75 365.9Z" /><path fill-rule="evenodd" class="shp12" d="M169.45 394.63L236.55 429.74L236.55 402.94L169.45 370.37L169.45 394.63Z" /><g ><path fill-rule="evenodd" class="shp21" d="M237.19 472.52L237.19 467.41L169.43 436.13L169.43 441.24L237.19 472.52Z" /><path fill-rule="evenodd" class="shp22" d="M237.19 475.08L237.19 472.52L169.43 441.24L169.43 443.8L237.19 475.08Z" /><path fill-rule="evenodd" class="shp16" d="M237.19 467.41L237.19 466.14L169.43 434.86L169.43 436.13L237.19 467.41Z" /></g><path fill-rule="evenodd" class="shp23" d="M236.55 446.99L236.55 470.6L180.95 407.4L180.95 400.38L236.55 446.99Z" /><path fill-rule="evenodd" class="shp24" d="M154.31 170.11C150.78 172.03 148.58 175.73 148.58 179.75L148.58 364.01C148.58 368.02 150.78 371.71 154.31 373.63L303.17 454.51C306.42 456.28 310.35 456.28 313.61 454.51L462.46 373.63C465.99 371.71 468.18 368.02 468.18 364.01L468.18 179.75C468.18 175.73 465.99 172.03 462.46 170.11L313.61 89.24C310.35 87.47 306.42 87.47 303.17 89.24L154.31 170.11Z" /><path fill-rule="evenodd" class="shp25" d="M178.57 184.92C175.06 186.83 172.88 190.51 172.88 194.51L172.88 348.6C172.88 352.6 175.06 356.28 178.57 358.19L302.99 425.78C306.24 427.55 310.16 427.55 313.4 425.78L437.81 358.19C441.33 356.28 443.51 352.6 443.51 348.6L443.51 194.51C443.51 190.51 441.33 186.83 437.81 184.92L313.4 117.32C310.16 115.56 306.24 115.56 302.99 117.32L178.57 184.92Z" /><path class="shp26" d="M178.57 184.92C175.06 186.83 172.88 190.51 172.88 194.51L172.88 348.6C172.88 352.6 175.06 356.28 178.57 358.19L302.99 425.78C306.24 427.55 310.16 427.55 313.4 425.78L437.81 358.19C441.33 356.28 443.51 352.6 443.51 348.6L443.51 194.51C443.51 190.51 441.33 186.83 437.81 184.92L313.4 117.32C310.16 115.56 306.24 115.56 302.99 117.32L178.57 184.92Z" /><g style="opacity: 0.502"><path fill-rule="evenodd" class="shp27" d="M189.81 191.98C186.47 193.8 184.38 197.29 184.38 201.11L184.38 342.5C184.38 346.31 186.47 349.81 189.81 351.62L304.08 413.65C307.17 415.33 310.89 415.33 313.97 413.65L428.25 351.62C431.58 349.81 433.67 346.31 433.67 342.5L433.67 201.11C433.67 197.29 431.58 193.8 428.25 191.98L313.97 129.95C310.89 128.27 307.17 128.27 304.08 129.95L189.81 191.98Z" /><g clip-path="url(#cp1)"><g ><g ><g ><path fill-rule="evenodd" class="shp28" d="M189.81 191.98C186.47 193.8 184.38 197.29 184.38 201.11L184.38 342.5C184.38 346.31 186.47 349.81 189.81 351.62L304.08 413.65C307.17 415.33 310.89 415.33 313.97 413.65L428.25 351.62C431.58 349.81 433.67 346.31 433.67 342.5L433.67 201.11C433.67 197.29 431.58 193.8 428.25 191.98L313.97 129.95C310.89 128.27 307.17 128.27 304.08 129.95L189.81 191.98Z" /><path fill-rule="evenodd" class="shp29" d="M288.19 422.05L329.87 422.05L334.82 121.54L283.24 121.54L288.19 422.05Z" /><path fill-rule="evenodd" class="shp30" d="M287.37 419.48L323.45 398.66L177.64 135.74L132.98 161.51L287.37 419.48Z" /><path fill-rule="evenodd" class="shp31" d="M283.4 398.66L319.49 419.48L473.87 161.51L429.21 135.74L283.4 398.66Z" /><path class="shp32" d="M184.39 254.62L433.67 254.62L433.67 416.33L184.39 416.33L184.39 254.62Z" /><path fill-rule="evenodd" class="shp33" d="M189.81 191.98C186.47 193.8 184.38 197.29 184.38 201.11L184.38 342.5C184.38 346.31 186.47 349.81 189.81 351.62L304.08 413.65C307.17 415.33 310.89 415.33 313.97 413.65L428.25 351.62C431.58 349.81 433.67 346.31 433.67 342.5L433.67 201.11C433.67 197.29 431.58 193.8 428.25 191.98L313.97 129.95C310.89 128.27 307.17 128.27 304.08 129.95L189.81 191.98Z" /></g></g></g></g></g><g ><path fill-rule="evenodd" class="shp34" d="M504.84 229.39L457.42 271.21L459.86 260.36L504.84 229.39Z" /><path fill-rule="evenodd" class="shp35" d="M405.22 340.08C522.44 355.72 560.66 241.54 565.09 181.94L455.52 267.71C449.95 289.99 435.17 314.86 405.22 340.08Z" /><path class="shp36" d="M406.48 339.7C435.78 314.76 450.38 290.17 455.97 268.04L564.45 183.13C562.04 212.82 551.35 255.44 527 288.91C502.51 322.57 464.2 346.99 406.48 339.7Z" /><path fill-rule="evenodd" class="shp37" d="M511.75 276.55L438.25 305.69L443.27 296.93L511.75 276.55Z" /><path fill-rule="evenodd" class="shp38" d="M339.33 386.69C348.84 379.57 359.98 371.9 373.01 363.65C406.01 342.76 427.36 321.66 440.44 301.58L552.54 261.86C548.09 305.81 499.53 390.9 339.33 386.69Z" /><path class="shp39" d="M340.02 385.91C349.36 378.95 360.27 371.46 372.95 363.43C405.78 342.65 427.07 321.66 440.17 301.68L552.54 261.86" /><path fill-rule="evenodd" class="shp40" d="M445.96 356.08L400.07 343.5L407.48 337.56L445.96 356.08Z" /><path fill-rule="evenodd" class="shp41" d="M372.91 363.43C343.33 382.15 323.4 397.88 310.58 410.99C312.36 414.77 321.44 414.02 334.88 405.5C362.16 388.25 386.71 384.68 430.16 385.55C472.37 386.38 485.27 381.42 492.51 373.63C475.07 366.68 431.48 350.28 404.52 340.55C395.43 348.16 384.94 355.81 372.91 363.43Z" /><path class="shp42" d="M313.36 412.4C312.34 412.14 311.66 411.68 311.25 411.08C324.04 398.08 343.86 382.46 373.2 363.89C385.15 356.32 395.57 348.73 404.63 341.16C431.22 350.77 473.73 366.76 491.57 373.84C484.39 381.11 471.33 385.81 430.17 385C386.68 384.14 362.01 387.7 334.6 405.05C327.9 409.28 322.34 411.56 318.26 412.33C316.22 412.7 314.57 412.7 313.36 412.4Z" /><g ><path fill-rule="evenodd" class="shp43" d="M381.56 358.18C303.71 420.49 309.78 417.52 295.54 433.84L291.7 428.65C300.86 415.04 336.26 382.66 386.76 351.5C438.13 315.9 450 285.48 458.05 261C458.29 260.29 459.54 260.27 460.28 260.27C454.34 280.3 438.6 323.76 381.56 358.18Z" /><path fill-rule="evenodd" class="shp44" d="M381.56 359.66C324.53 394.08 296.9 423.95 291.7 434.58L290.22 429.38C299.38 415.79 325.86 388.6 376.37 357.43C435.28 321.08 451.75 282.38 458.79 261C459.03 260.29 459.54 260.27 460.28 260.27C454.34 280.3 438 324.06 381.56 359.66Z" /><path fill-rule="evenodd" class="shp45" d="M458.1 260.77L459.5 261.24C452.42 282.74 435.86 321.61 376.75 358.07C326.31 389.2 299.92 416.33 290.83 429.8L289.6 428.98C298.85 415.26 325.43 387.98 375.97 356.81C434.72 320.57 451.09 282.02 458.1 260.77Z" /><path fill-rule="evenodd" class="shp46" d="M357.81 374.83C365.08 369.91 373 364.84 381.57 359.66C392.95 352.49 402.69 344.99 411.05 337.4L404.61 337.4C396.47 344.09 387.13 350.8 376.37 357.43C368.45 362.33 361.12 367.12 354.35 371.77L357.81 374.83Z" /></g></g><g ><path fill-rule="evenodd" class="shp47" d="M113.99 229.39L161.41 271.21L158.97 260.35L113.99 229.39Z" /><path fill-rule="evenodd" class="shp48" d="M163.32 267.72C168.88 289.99 183.66 314.86 213.61 340.08C96.4 355.72 58.17 241.55 53.74 181.96L163.32 267.72Z" /><path class="shp49" d="M212.36 339.7C183.05 314.76 168.45 290.17 162.87 268.04L54.38 183.13C56.79 212.82 67.48 255.44 91.83 288.91C116.31 322.58 154.63 346.99 212.36 339.7Z" /><path fill-rule="evenodd" class="shp50" d="M107.08 276.55L180.57 305.69L175.56 296.93L107.08 276.55Z" /><path fill-rule="evenodd" class="shp51" d="M279.5 386.69C270 379.56 258.84 371.9 245.81 363.65C212.82 342.76 191.47 321.66 178.39 301.58L66.29 261.86C70.74 305.81 119.3 390.9 279.5 386.69Z" /><path class="shp52" d="M278.8 385.91C269.47 378.95 258.56 371.46 245.87 363.43C213.05 342.65 191.76 321.66 178.66 301.68L66.29 261.86" /><path fill-rule="evenodd" class="shp53" d="M172.88 356.08L218.76 343.5L211.35 337.56L172.88 356.08Z" /><path fill-rule="evenodd" class="shp54" d="M245.92 363.42C275.5 382.15 295.43 397.88 308.24 410.99C306.48 414.77 297.4 414.02 283.94 405.5C256.67 388.24 232.12 384.68 188.68 385.55C146.45 386.38 133.56 381.42 126.32 373.63C143.76 366.68 187.36 350.28 214.31 340.55C223.4 348.16 233.89 355.81 245.92 363.42Z" /><path class="shp55" d="M305.47 412.4C306.49 412.14 307.17 411.68 307.58 411.08C294.79 398.08 274.98 382.46 245.63 363.89C233.68 356.32 223.26 348.73 214.2 341.16C187.6 350.77 145.11 366.76 127.27 373.84C134.44 381.11 147.5 385.81 188.66 385.01C232.15 384.14 256.83 387.7 284.24 405.05C290.93 409.28 296.5 411.56 300.57 412.33C302.61 412.72 304.26 412.7 305.47 412.4Z" /><g ><path fill-rule="evenodd" class="shp56" d="M237.27 358.18C315.11 420.49 309.06 417.52 323.28 433.84L327.12 428.65C317.97 415.04 282.57 382.66 232.07 351.5C180.7 315.9 168.83 285.48 160.77 261C160.53 260.29 159.28 260.27 158.54 260.27C164.49 280.3 180.23 323.76 237.27 358.18Z" /><path fill-rule="evenodd" class="shp44" d="M237.27 359.66C294.3 394.08 321.93 423.95 327.12 434.58L328.61 429.38C319.46 415.79 292.97 388.6 242.47 357.43C183.55 321.08 167.08 282.38 160.04 261C159.8 260.29 159.3 260.27 158.55 260.27C164.49 280.3 180.83 324.06 237.27 359.66Z" /><path fill-rule="evenodd" class="shp57" d="M160.74 260.77L159.33 261.24C166.41 282.74 182.98 321.61 242.08 358.07C292.53 389.2 318.92 416.33 328 429.8L329.23 428.98C319.98 415.26 293.4 387.98 242.86 356.81C184.12 320.57 167.74 282.02 160.74 260.77Z" /><path fill-rule="evenodd" class="shp58" d="M261.02 374.83C253.75 369.91 245.84 364.84 237.26 359.66C225.89 352.49 216.15 344.99 207.78 337.4L214.23 337.4C222.36 344.09 231.71 350.8 242.47 357.43C250.38 362.33 257.71 367.12 264.48 371.76L261.02 374.83Z" /></g></g><path fill-rule="evenodd" class="shp59" d="M308.77 371.02L278.08 445.07L339.45 445.07L308.77 371.02Z" /><path fill-rule="evenodd" class="shp60" d="M308.8 459.35L308.8 459.35L308.8 459.35L308.8 459.35L308.8 459.35L342.03 447.02L308.8 392.95L308.8 392.94L308.8 392.94L308.8 392.94L308.8 392.95L275.56 447.02L308.8 459.35Z" /><g clip-path="url(#cp2)"><g ><g ><g ><path fill-rule="evenodd" class="shp61" d="M308.98 460.73L308.98 387.86L341.93 447.22L308.98 460.73Z" /><path fill-rule="evenodd" class="shp62" d="M308.98 460.73L308.98 387.86L276.03 447.22L308.98 460.73Z" /></g></g></g></g></g><g ><path fill-rule="evenodd" class="shp63" d="M322.61 293.21L322.61 343.79L295.99 343.79L295.99 293.21L322.61 293.21Z" /><path fill-rule="evenodd" class="shp64" d="M322.61 293.21L322.61 343.79L314.62 343.79L314.62 293.21L322.61 293.21Z" /><path class="shp65" d="M285.35 341.12C276.56 341.12 269.38 348.31 269.38 357.11L349.23 357.11C349.23 348.31 342.05 341.12 333.26 341.12L285.35 341.12Z" /><path class="shp66" d="M319.95 341.12C328.73 341.12 335.92 348.31 335.92 357.11L349.23 357.11C349.23 348.31 342.05 341.12 333.26 341.12L319.95 341.12Z" /><path class="shp65" d="M295.73 314.51C288.54 314.51 282.69 308.64 282.69 301.46L282.69 298.52L335.92 298.52L335.92 301.46C335.92 308.64 330.06 314.51 322.88 314.51L295.73 314.51Z" /><path class="shp66" d="M325.27 301.46C325.27 308.64 322.08 314.51 314.9 314.51L322.88 314.51C330.06 314.51 335.92 308.64 335.92 301.46L335.92 298.52L325.27 298.52L325.27 301.46Z" /><path class="shp63" d="M264.06 357.11C264.06 354.18 266.45 351.78 269.38 351.78L349.23 351.78C352.16 351.78 354.56 354.18 354.56 357.11L264.06 357.11Z" /><path class="shp67" d="M335.92 351.78C338.84 351.78 341.24 354.18 341.24 357.11L354.56 357.11C354.56 354.18 352.16 351.78 349.23 351.78L335.92 351.78Z" /><path class="shp68" d="M277.36 293.21L277.36 301.19C277.36 304.12 279.76 306.52 282.69 306.52L335.92 306.52C338.84 306.52 341.24 304.12 341.24 301.19L341.24 293.21L277.36 293.21Z" /><path class="shp63" d="M277.36 293.21L277.36 301.19C277.36 304.12 279.76 306.52 282.69 306.52L335.92 306.52C338.84 306.52 341.24 304.12 341.24 301.19L341.24 293.21L277.36 293.21Z" /><path class="shp64" d="M322.61 301.19C325.27 301.19 325.54 306.52 322.61 306.52L335.92 306.52C338.84 306.52 341.24 304.12 341.24 301.19L341.24 293.21L327.94 293.21L322.61 301.19Z" /><path class="shp69" d="M346.57 208.01L397.14 208.01L397.14 210.67C397.14 238.62 374.51 261.25 346.57 261.25" /><path class="shp70" d="M272.04 208.01L221.47 208.01L221.47 210.67C221.47 238.62 244.1 261.25 272.04 261.25" /><path class="shp65" d="M286.68 301.19C269.65 301.19 256.07 287.62 256.07 270.58L256.07 186.71L362.53 186.71L362.53 270.58C362.53 287.62 348.96 301.19 331.92 301.19L286.68 301.19Z" /><path class="shp71" d="M272.04 194.69C272.04 194.69 272.04 239.95 272.04 247.94" /><path class="shp66" d="M350.29 270.71C350.29 287.68 338.05 301.2 322.7 301.2L334.69 301.2C350.05 301.2 362.28 287.68 362.28 270.71L362.28 187.2L350.29 187.2L350.29 270.71Z" /><path class="shp63" d="M248.09 186.71L256.07 194.69L362.53 194.69L370.52 186.71L248.09 186.71Z" /><path class="shp64" d="M350.29 194.4L363.04 194.4L370.68 186L355.39 186L350.29 194.4Z" /><path class="shp65" d="M245.43 176.05C242.5 176.05 240.1 178.45 240.1 181.38C240.1 184.31 242.5 186.71 245.43 186.71L373.19 186.71C376.11 186.71 378.5 184.31 378.5 181.38C378.5 178.45 376.11 176.05 373.19 176.05L245.43 176.05Z" /><path class="shp66" d="M357.21 176.05C360.14 176.05 362.53 178.45 362.53 181.38C362.53 184.31 360.14 186.71 357.21 186.71L373.19 186.71C376.11 186.71 378.5 184.31 378.5 181.38C378.5 178.45 376.11 176.05 373.19 176.05L357.21 176.05Z" /><path class="shp71" d="M272.04 259.66L272.04 265.78" /></g></svg>