<svg version="1.2" baseProfile="tiny-ps" xmlns="http://www.w3.org/2000/svg" viewBox="0 0 517 540" width="517" height="540"><title>medal_70-svg</title><defs><clipPath clipPathUnits="userSpaceOnUse" id="cp1"><path d="M10 10L507 10L507 523.26L10 523.26L10 10Z" /></clipPath><linearGradient id="grd1" gradientUnits="userSpaceOnUse"  x1="504.837" y1="352.619" x2="323.321" y2="247.82"><stop offset="0" stop-color="#fff6d6" stop-opacity="0.01" /><stop offset="1" stop-color="#ffefc5" stop-opacity="0.4" /></linearGradient><linearGradient id="grd2" gradientUnits="userSpaceOnUse"  x1="297.022" y1="517.627" x2="297.022" y2="307.67"><stop offset="0" stop-color="#fff6d6" stop-opacity="0.01" /><stop offset="1" stop-color="#ffefc5" stop-opacity="0.4" /></linearGradient><linearGradient id="grd3" gradientUnits="userSpaceOnUse"  x1="50.911" y1="417.526" x2="232.427" y2="312.728"><stop offset="0" stop-color="#fff6d6" stop-opacity="0.01" /><stop offset="1" stop-color="#ffefc5" stop-opacity="0.4" /></linearGradient><linearGradient id="grd4" gradientUnits="userSpaceOnUse"  x1="504.837" y1="151.12" x2="323.321" y2="255.919"><stop offset="0" stop-color="#fff6d6" stop-opacity="0.01" /><stop offset="1" stop-color="#ffefc5" stop-opacity="0.4" /></linearGradient><linearGradient id="grd5" gradientUnits="userSpaceOnUse"  x1="50.911" y1="86.212" x2="232.427" y2="191.01"><stop offset="0" stop-color="#fff6d6" stop-opacity="0.01" /><stop offset="1" stop-color="#ffefc5" stop-opacity="0.4" /></linearGradient><linearGradient id="grd6" gradientUnits="userSpaceOnUse"  x1="49.263" y1="336.447" x2="147.171" y2="336.447"><stop offset="0" stop-color="#fff0da"  /><stop offset="0.322" stop-color="#ffe6c0" stop-opacity="0.22" /><stop offset="1" stop-color="#ffe6c0" stop-opacity="0.01" /></linearGradient><linearGradient id="grd7" gradientUnits="userSpaceOnUse"  x1="26.247" y1="359.168" x2="148.695" y2="359.075"><stop offset="0" stop-color="#ffc164"  /><stop offset="0.322" stop-color="#ffe6c0" stop-opacity="0.01" /><stop offset="1" stop-color="#ffe6c0" stop-opacity="0.01" /></linearGradient><linearGradient id="grd8" gradientUnits="userSpaceOnUse"  x1="470.066" y1="336.447" x2="372.159" y2="336.447"><stop offset="0" stop-color="#fff0da"  /><stop offset="0.322" stop-color="#ffe6c0" stop-opacity="0.22" /><stop offset="1" stop-color="#ffe6c0" stop-opacity="0.01" /></linearGradient><linearGradient id="grd9" gradientUnits="userSpaceOnUse"  x1="493.084" y1="359.168" x2="370.637" y2="359.076"><stop offset="0" stop-color="#ffc164"  /><stop offset="0.322" stop-color="#ffe6c0" stop-opacity="0.01" /><stop offset="1" stop-color="#ffe6c0" stop-opacity="0.01" /></linearGradient><linearGradient id="grd10" gradientUnits="userSpaceOnUse"  x1="313.248" y1="410.008" x2="317.304" y2="431.049"><stop offset="0" stop-color="#cfac82"  /><stop offset="0.31" stop-color="#fcedd7"  /><stop offset="0.524" stop-color="#f8edc0"  /><stop offset="0.614" stop-color="#cfac82"  /><stop offset="1" stop-color="#cfac82"  /></linearGradient><linearGradient id="grd11" gradientUnits="userSpaceOnUse"  x1="326.909" y1="413.525" x2="329.196" y2="428.963"><stop offset="0" stop-color="#463421"  /><stop offset="1" stop-color="#cfac82"  /></linearGradient><linearGradient id="grd12" gradientUnits="userSpaceOnUse"  x1="331.822" y1="362.624" x2="300.438" y2="397.426"><stop offset="0" stop-color="#4680b6" stop-opacity="0.1" /><stop offset="0.582" stop-color="#5693cb" stop-opacity="0.56" /><stop offset="1" stop-color="#4680b6" stop-opacity="0.45" /></linearGradient><linearGradient id="grd13" gradientUnits="userSpaceOnUse"  x1="323.014" y1="368.757" x2="309.9" y2="405.399"><stop offset="0" stop-color="#cfac82"  /><stop offset="0.31" stop-color="#fcedd7"  /><stop offset="0.524" stop-color="#f8edc0"  /><stop offset="0.614" stop-color="#cfac82"  /><stop offset="1" stop-color="#cfac82"  /></linearGradient><linearGradient id="grd14" gradientUnits="userSpaceOnUse"  x1="208.666" y1="410.008" x2="204.61" y2="431.049"><stop offset="0" stop-color="#cfac82"  /><stop offset="0.31" stop-color="#fcedd7"  /><stop offset="0.524" stop-color="#f8edc0"  /><stop offset="0.614" stop-color="#cfac82"  /><stop offset="1" stop-color="#cfac82"  /></linearGradient><linearGradient id="grd15" gradientUnits="userSpaceOnUse"  x1="195.004" y1="413.525" x2="192.717" y2="428.963"><stop offset="0" stop-color="#463421"  /><stop offset="1" stop-color="#cfac82"  /></linearGradient><linearGradient id="grd16" gradientUnits="userSpaceOnUse"  x1="190.093" y1="362.624" x2="221.477" y2="397.426"><stop offset="0" stop-color="#4680b6" stop-opacity="0.1" /><stop offset="0.582" stop-color="#5693cb" stop-opacity="0.56" /><stop offset="1" stop-color="#4680b6" stop-opacity="0.45" /></linearGradient><linearGradient id="grd17" gradientUnits="userSpaceOnUse"  x1="144.475" y1="368.757" x2="131.362" y2="405.4"><stop offset="0" stop-color="#cfac82"  /><stop offset="0.31" stop-color="#fcedd7"  /><stop offset="0.524" stop-color="#f8edc0"  /><stop offset="0.614" stop-color="#cfac82"  /><stop offset="1" stop-color="#cfac82"  /></linearGradient><radialGradient id="grd18" gradientUnits="userSpaceOnUse"  cx="232.537" cy="399.021" r="52.935"><stop offset="0.432" stop-color="#023580"  /><stop offset="1" stop-color="#0d3d78"  /></radialGradient><linearGradient id="grd19" gradientUnits="userSpaceOnUse"  x1="228.467" y1="377.868" x2="195.894" y2="408.477"><stop offset="0.214" stop-color="#042861"  /><stop offset="0.574" stop-color="#195294"  /><stop offset="1" stop-color="#063988"  /><stop offset="1" stop-color="#063988"  /><stop offset="1" stop-color="#063988"  /></linearGradient><linearGradient id="grd20" gradientUnits="userSpaceOnUse"  x1="209.44" y1="430.928" x2="248.487" y2="475.533"><stop offset="0" stop-color="#4680b6" stop-opacity="0.1" /><stop offset="0.422" stop-color="#5693cb"  /><stop offset="1" stop-color="#4680b6" stop-opacity="0.45" /></linearGradient><linearGradient id="grd21" gradientUnits="userSpaceOnUse"  x1="200.753" y1="451.333" x2="206.239" y2="481.761"><stop offset="0" stop-color="#584129"  /><stop offset="1" stop-color="#886c4e"  /></linearGradient><linearGradient id="grd22" gradientUnits="userSpaceOnUse"  x1="218.982" y1="428.119" x2="217.354" y2="443.379"><stop offset="0" stop-color="#cfac82"  /><stop offset="0.31" stop-color="#fcedd7"  /><stop offset="0.524" stop-color="#f8edc0"  /><stop offset="0.614" stop-color="#cfac82"  /><stop offset="1" stop-color="#cfac82"  /></linearGradient><linearGradient id="grd23" gradientUnits="userSpaceOnUse"  x1="222.46" y1="394.35" x2="215.315" y2="423.966"><stop offset="0" stop-color="#cfac82"  /><stop offset="0.31" stop-color="#fcedd7"  /><stop offset="0.524" stop-color="#f8edc0"  /><stop offset="0.614" stop-color="#cfac82"  /><stop offset="1" stop-color="#cfac82"  /></linearGradient><linearGradient id="grd24" gradientUnits="userSpaceOnUse"  x1="259.885" y1="419.969" x2="259.885" y2="440.918"><stop offset="0" stop-color="#fff5e2" stop-opacity="0.01" /><stop offset="0.479" stop-color="#feeab6"  /><stop offset="1" stop-color="#e0b179"  /></linearGradient><linearGradient id="grd25" gradientUnits="userSpaceOnUse"  x1="250.683" y1="420.506" x2="250.683" y2="437.224"><stop offset="0" stop-color="#fff5e2" stop-opacity="0.01" /><stop offset="0.479" stop-color="#feeab6"  /><stop offset="1" stop-color="#e0b179"  /></linearGradient><linearGradient id="grd26" gradientUnits="userSpaceOnUse"  x1="270.164" y1="420.506" x2="270.164" y2="437.224"><stop offset="0" stop-color="#fff5e2" stop-opacity="0.01" /><stop offset="0.479" stop-color="#feeab6"  /><stop offset="1" stop-color="#e0b179"  /></linearGradient><linearGradient id="grd27" gradientUnits="userSpaceOnUse"  x1="108.283" y1="250.76" x2="100.328" y2="261.392"><stop offset="0" stop-color="#d2ab68"  /><stop offset="1" stop-color="#b67d3f"  /></linearGradient><linearGradient id="grd28" gradientUnits="userSpaceOnUse"  x1="145.581" y1="93.306" x2="122.903" y2="123.619"><stop offset="0" stop-color="#d2ab68"  /><stop offset="1" stop-color="#b67d3f"  /></linearGradient><linearGradient id="grd29" gradientUnits="userSpaceOnUse"  x1="157.382" y1="102.061" x2="175.77" y2="130.462"><stop offset="0" stop-color="#d2ab68"  /><stop offset="1" stop-color="#b67d3f"  /></linearGradient><linearGradient id="grd30" gradientUnits="userSpaceOnUse"  x1="115.762" y1="185.171" x2="123.35" y2="189.82"><stop offset="0" stop-color="#d2ab68"  /><stop offset="1" stop-color="#b67d3f"  /></linearGradient><linearGradient id="grd31" gradientUnits="userSpaceOnUse"  x1="188.322" y1="89.396" x2="169.537" y2="69.007"><stop offset="0" stop-color="#d2ab68"  /><stop offset="1" stop-color="#b67d3f"  /></linearGradient><linearGradient id="grd32" gradientUnits="userSpaceOnUse"  x1="147.868" y1="82.749" x2="166.353" y2="100.543"><stop offset="0" stop-color="#f7e6b3"  /><stop offset="1" stop-color="#f7e6b3" stop-opacity="0.01" /></linearGradient><linearGradient id="grd33" gradientUnits="userSpaceOnUse"  x1="140.305" y1="175.23" x2="112.632" y2="212.22"><stop offset="0" stop-color="#d2ab68"  /><stop offset="1" stop-color="#b67d3f"  /></linearGradient><linearGradient id="grd34" gradientUnits="userSpaceOnUse"  x1="125.113" y1="192.447" x2="138.345" y2="195.838"><stop offset="0" stop-color="#f7e6b3"  /><stop offset="1" stop-color="#f7e6b3" stop-opacity="0.01" /></linearGradient><linearGradient id="grd35" gradientUnits="userSpaceOnUse"  x1="121.622" y1="135.818" x2="106.908" y2="155.486"><stop offset="0" stop-color="#d2ab68"  /><stop offset="1" stop-color="#b67d3f"  /></linearGradient><linearGradient id="grd36" gradientUnits="userSpaceOnUse"  x1="120.304" y1="156.002" x2="125.948" y2="168.144"><stop offset="0" stop-color="#c18e42"  /><stop offset="1" stop-color="#d2ab68"  /></linearGradient><linearGradient id="grd37" gradientUnits="userSpaceOnUse"  x1="132.215" y1="99.573" x2="113.61" y2="124.443"><stop offset="0" stop-color="#d2ab68"  /><stop offset="1" stop-color="#8e573c"  /></linearGradient><linearGradient id="grd38" gradientUnits="userSpaceOnUse"  x1="153.973" y1="115.59" x2="136.065" y2="139.526"><stop offset="0" stop-color="#d2ab68"  /><stop offset="1" stop-color="#b67d3f"  /></linearGradient><linearGradient id="grd39" gradientUnits="userSpaceOnUse"  x1="97.386" y1="184.155" x2="91.238" y2="192.374"><stop offset="0" stop-color="#d2ab68"  /><stop offset="1" stop-color="#b67d3f"  /></linearGradient><linearGradient id="grd40" gradientUnits="userSpaceOnUse"  x1="98.067" y1="163.625" x2="82.624" y2="184.269"><stop offset="0" stop-color="#c28766"  /><stop offset="1" stop-color="#8e573c"  /></linearGradient><linearGradient id="grd41" gradientUnits="userSpaceOnUse"  x1="135.414" y1="224.125" x2="115.229" y2="251.108"><stop offset="0" stop-color="#d2ab68"  /><stop offset="1" stop-color="#b67d3f"  /></linearGradient><linearGradient id="grd42" gradientUnits="userSpaceOnUse"  x1="106.366" y1="211.236" x2="93.597" y2="228.304"><stop offset="0" stop-color="#d2ab68"  /><stop offset="1" stop-color="#b67d3f"  /></linearGradient><linearGradient id="grd43" gradientUnits="userSpaceOnUse"  x1="97.754" y1="220.043" x2="97.754" y2="240.694"><stop offset="0" stop-color="#fada81"  /><stop offset="1" stop-color="#b67d3f"  /></linearGradient><linearGradient id="grd44" gradientUnits="userSpaceOnUse"  x1="109.691" y1="268.563" x2="103.478" y2="276.867"><stop offset="0" stop-color="#d2ab68"  /><stop offset="1" stop-color="#b67d3f"  /></linearGradient><linearGradient id="grd45" gradientUnits="userSpaceOnUse"  x1="191.317" y1="45.799" x2="169.025" y2="75.596"><stop offset="0" stop-color="#fcf1d5"  /><stop offset="1" stop-color="#ebce6a"  /></linearGradient><linearGradient id="grd46" gradientUnits="userSpaceOnUse"  x1="196.371" y1="49.588" x2="174.08" y2="79.386"><stop offset="0" stop-color="#d2ab68"  /><stop offset="1" stop-color="#b67d3f"  /></linearGradient><linearGradient id="grd47" gradientUnits="userSpaceOnUse"  x1="178.256" y1="75.631" x2="158.035" y2="102.661"><stop offset="0" stop-color="#d2ab68"  /><stop offset="1" stop-color="#b67d3f"  /></linearGradient><linearGradient id="grd48" gradientUnits="userSpaceOnUse"  x1="165.722" y1="89.391" x2="181.753" y2="97.388"><stop offset="0" stop-color="#f7e6b3"  /><stop offset="1" stop-color="#f7e6b3" stop-opacity="0.01" /></linearGradient><linearGradient id="grd49" gradientUnits="userSpaceOnUse"  x1="131.721" y1="111.232" x2="152.704" y2="128.966"><stop offset="0" stop-color="#f7e6b3"  /><stop offset="1" stop-color="#f7e6b3" stop-opacity="0.01" /></linearGradient><linearGradient id="grd50" gradientUnits="userSpaceOnUse"  x1="118.349" y1="117.4" x2="135.101" y2="141.336"><stop offset="0" stop-color="#f7e6b3"  /><stop offset="1" stop-color="#f7e6b3" stop-opacity="0.01" /></linearGradient><linearGradient id="grd51" gradientUnits="userSpaceOnUse"  x1="144.555" y1="120.953" x2="152.378" y2="140.13"><stop offset="0" stop-color="#ffdd78"  /><stop offset="1" stop-color="#fff1c8" stop-opacity="0.38" /></linearGradient><linearGradient id="grd52" gradientUnits="userSpaceOnUse"  x1="148.503" y1="125.967" x2="132.789" y2="146.972"><stop offset="0" stop-color="#d2ab68"  /><stop offset="1" stop-color="#b67d3f"  /></linearGradient><linearGradient id="grd53" gradientUnits="userSpaceOnUse"  x1="139.406" y1="125.874" x2="130.88" y2="150.221"><stop offset="0" stop-color="#ffda92"  /><stop offset="1" stop-color="#dcba84"  /></linearGradient><linearGradient id="grd54" gradientUnits="userSpaceOnUse"  x1="93.574" y1="138.009" x2="87.256" y2="164.442"><stop offset="0" stop-color="#f7e6b3"  /><stop offset="1" stop-color="#bc8647"  /></linearGradient><linearGradient id="grd55" gradientUnits="userSpaceOnUse"  x1="95.487" y1="147.724" x2="95.487" y2="168.567"><stop offset="0" stop-color="#d2ab68"  /><stop offset="1" stop-color="#8e573c"  /></linearGradient><linearGradient id="grd56" gradientUnits="userSpaceOnUse"  x1="84.066" y1="183.118" x2="92.248" y2="206.841"><stop offset="0" stop-color="#f7e6b3"  /><stop offset="1" stop-color="#f7e6b3" stop-opacity="0.01" /></linearGradient><linearGradient id="grd57" gradientUnits="userSpaceOnUse"  x1="126.254" y1="181.701" x2="107.405" y2="206.896"><stop offset="0" stop-color="#d2ab68"  /><stop offset="1" stop-color="#b67d3f"  /></linearGradient><linearGradient id="grd58" gradientUnits="userSpaceOnUse"  x1="109.173" y1="196.469" x2="130.113" y2="206.436"><stop offset="0" stop-color="#e0c087"  /><stop offset="0.281" stop-color="#ffe49e"  /><stop offset="1" stop-color="#753c1d"  /></linearGradient><linearGradient id="grd59" gradientUnits="userSpaceOnUse"  x1="80.072" y1="197.465" x2="81.133" y2="210.445"><stop offset="0" stop-color="#b18253"  /><stop offset="1" stop-color="#f7e6b3" stop-opacity="0.01" /></linearGradient><linearGradient id="grd60" gradientUnits="userSpaceOnUse"  x1="123.345" y1="217.364" x2="104.131" y2="243.047"><stop offset="0" stop-color="#d2ab68"  /><stop offset="1" stop-color="#b67d3f"  /></linearGradient><linearGradient id="grd61" gradientUnits="userSpaceOnUse"  x1="110.168" y1="233.732" x2="129.089" y2="252.768"><stop offset="0" stop-color="#f7e6b3"  /><stop offset="1" stop-color="#f7e6b3" stop-opacity="0.01" /></linearGradient><linearGradient id="grd62" gradientUnits="userSpaceOnUse"  x1="94.542" y1="220.956" x2="87.629" y2="230.197"><stop offset="0" stop-color="#d2ab68"  /><stop offset="1" stop-color="#b67d3f"  /></linearGradient><linearGradient id="grd63" gradientUnits="userSpaceOnUse"  x1="85.077" y1="231.714" x2="85.769" y2="240.223"><stop offset="0" stop-color="#fada81"  /><stop offset="1" stop-color="#9a5e33"  /></linearGradient><linearGradient id="grd64" gradientUnits="userSpaceOnUse"  x1="106.341" y1="258.112" x2="99.089" y2="267.806"><stop offset="0" stop-color="#fada81"  /><stop offset="1" stop-color="#b67d3f"  /></linearGradient><linearGradient id="grd65" gradientUnits="userSpaceOnUse"  x1="93.879" y1="268.018" x2="93.879" y2="281.191"><stop offset="0" stop-color="#d2ab68"  /><stop offset="1" stop-color="#b67d3f"  /></linearGradient><linearGradient id="grd66" gradientUnits="userSpaceOnUse"  x1="412.549" y1="250.76" x2="420.504" y2="261.392"><stop offset="0" stop-color="#d2ab68"  /><stop offset="1" stop-color="#b67d3f"  /></linearGradient><linearGradient id="grd67" gradientUnits="userSpaceOnUse"  x1="375.252" y1="93.306" x2="397.929" y2="123.619"><stop offset="0" stop-color="#d2ab68"  /><stop offset="1" stop-color="#b67d3f"  /></linearGradient><linearGradient id="grd68" gradientUnits="userSpaceOnUse"  x1="363.451" y1="102.061" x2="345.063" y2="130.462"><stop offset="0" stop-color="#d2ab68"  /><stop offset="1" stop-color="#b67d3f"  /></linearGradient><linearGradient id="grd69" gradientUnits="userSpaceOnUse"  x1="405.07" y1="185.173" x2="397.482" y2="189.821"><stop offset="0" stop-color="#d2ab68"  /><stop offset="1" stop-color="#b67d3f"  /></linearGradient><linearGradient id="grd70" gradientUnits="userSpaceOnUse"  x1="332.51" y1="89.397" x2="351.295" y2="69.007"><stop offset="0" stop-color="#d2ab68"  /><stop offset="1" stop-color="#b67d3f"  /></linearGradient><linearGradient id="grd71" gradientUnits="userSpaceOnUse"  x1="351.001" y1="82.749" x2="369.486" y2="100.543"><stop offset="0" stop-color="#f7e6b3"  /><stop offset="1" stop-color="#f7e6b3" stop-opacity="0.01" /></linearGradient><linearGradient id="grd72" gradientUnits="userSpaceOnUse"  x1="380.526" y1="175.23" x2="408.199" y2="212.22"><stop offset="0" stop-color="#d2ab68"  /><stop offset="1" stop-color="#b67d3f"  /></linearGradient><linearGradient id="grd73" gradientUnits="userSpaceOnUse"  x1="387.02" y1="192.447" x2="400.254" y2="195.839"><stop offset="0" stop-color="#f7e6b3"  /><stop offset="1" stop-color="#f7e6b3" stop-opacity="0.01" /></linearGradient><linearGradient id="grd74" gradientUnits="userSpaceOnUse"  x1="399.209" y1="135.819" x2="413.923" y2="155.488"><stop offset="0" stop-color="#d2ab68"  /><stop offset="1" stop-color="#b67d3f"  /></linearGradient><linearGradient id="grd75" gradientUnits="userSpaceOnUse"  x1="388.552" y1="156.003" x2="394.195" y2="168.146"><stop offset="0" stop-color="#c18e42"  /><stop offset="1" stop-color="#d2ab68"  /></linearGradient><linearGradient id="grd76" gradientUnits="userSpaceOnUse"  x1="388.616" y1="99.573" x2="407.222" y2="124.443"><stop offset="0" stop-color="#d2ab68"  /><stop offset="1" stop-color="#8e573c"  /></linearGradient><linearGradient id="grd77" gradientUnits="userSpaceOnUse"  x1="366.862" y1="115.59" x2="384.768" y2="139.525"><stop offset="0" stop-color="#d2ab68"  /><stop offset="1" stop-color="#b67d3f"  /></linearGradient><linearGradient id="grd78" gradientUnits="userSpaceOnUse"  x1="423.444" y1="184.155" x2="429.594" y2="192.374"><stop offset="0" stop-color="#d2ab68"  /><stop offset="1" stop-color="#b67d3f"  /></linearGradient><linearGradient id="grd79" gradientUnits="userSpaceOnUse"  x1="422.765" y1="163.625" x2="438.209" y2="184.27"><stop offset="0" stop-color="#c28766"  /><stop offset="1" stop-color="#8e573c"  /></linearGradient><linearGradient id="grd80" gradientUnits="userSpaceOnUse"  x1="385.417" y1="224.125" x2="405.604" y2="251.108"><stop offset="0" stop-color="#d2ab68"  /><stop offset="1" stop-color="#b67d3f"  /></linearGradient><linearGradient id="grd81" gradientUnits="userSpaceOnUse"  x1="414.467" y1="211.238" x2="427.235" y2="228.305"><stop offset="0" stop-color="#d2ab68"  /><stop offset="1" stop-color="#b67d3f"  /></linearGradient><linearGradient id="grd82" gradientUnits="userSpaceOnUse"  x1="395.373" y1="220.044" x2="395.373" y2="240.696"><stop offset="0" stop-color="#fada81"  /><stop offset="1" stop-color="#b67d3f"  /></linearGradient><linearGradient id="grd83" gradientUnits="userSpaceOnUse"  x1="411.142" y1="268.563" x2="417.354" y2="276.867"><stop offset="0" stop-color="#d2ab68"  /><stop offset="1" stop-color="#b67d3f"  /></linearGradient><linearGradient id="grd84" gradientUnits="userSpaceOnUse"  x1="329.515" y1="45.799" x2="351.806" y2="75.597"><stop offset="0" stop-color="#fcf1d5"  /><stop offset="1" stop-color="#ebce6a"  /></linearGradient><linearGradient id="grd85" gradientUnits="userSpaceOnUse"  x1="324.459" y1="49.588" x2="346.751" y2="79.386"><stop offset="0" stop-color="#d2ab68"  /><stop offset="1" stop-color="#b67d3f"  /></linearGradient><linearGradient id="grd86" gradientUnits="userSpaceOnUse"  x1="342.576" y1="75.631" x2="362.797" y2="102.661"><stop offset="0" stop-color="#d2ab68"  /><stop offset="1" stop-color="#b67d3f"  /></linearGradient><linearGradient id="grd87" gradientUnits="userSpaceOnUse"  x1="342.764" y1="89.391" x2="358.795" y2="97.388"><stop offset="0" stop-color="#f7e6b3"  /><stop offset="1" stop-color="#f7e6b3" stop-opacity="0.01" /></linearGradient><linearGradient id="grd88" gradientUnits="userSpaceOnUse"  x1="366.929" y1="111.234" x2="387.91" y2="128.967"><stop offset="0" stop-color="#f7e6b3"  /><stop offset="1" stop-color="#f7e6b3" stop-opacity="0.01" /></linearGradient><linearGradient id="grd89" gradientUnits="userSpaceOnUse"  x1="371.059" y1="117.398" x2="387.809" y2="141.333"><stop offset="0" stop-color="#f7e6b3"  /><stop offset="1" stop-color="#f7e6b3" stop-opacity="0.01" /></linearGradient><linearGradient id="grd90" gradientUnits="userSpaceOnUse"  x1="368.591" y1="120.956" x2="376.414" y2="140.132"><stop offset="0" stop-color="#ffdd78"  /><stop offset="1" stop-color="#fff1c8" stop-opacity="0.38" /></linearGradient><linearGradient id="grd91" gradientUnits="userSpaceOnUse"  x1="372.334" y1="125.965" x2="388.048" y2="146.971"><stop offset="0" stop-color="#d2ab68"  /><stop offset="1" stop-color="#b67d3f"  /></linearGradient><linearGradient id="grd92" gradientUnits="userSpaceOnUse"  x1="365.198" y1="125.873" x2="356.672" y2="150.22"><stop offset="0" stop-color="#ffda92"  /><stop offset="1" stop-color="#dcba84"  /></linearGradient><linearGradient id="grd93" gradientUnits="userSpaceOnUse"  x1="427.259" y1="138.009" x2="433.577" y2="164.442"><stop offset="0" stop-color="#f7e6b3"  /><stop offset="1" stop-color="#bc8647"  /></linearGradient><linearGradient id="grd94" gradientUnits="userSpaceOnUse"  x1="386.975" y1="147.725" x2="386.975" y2="168.564"><stop offset="0" stop-color="#d2ab68"  /><stop offset="1" stop-color="#8e573c"  /></linearGradient><linearGradient id="grd95" gradientUnits="userSpaceOnUse"  x1="389.369" y1="183.119" x2="397.55" y2="206.842"><stop offset="0" stop-color="#f7e6b3"  /><stop offset="1" stop-color="#f7e6b3" stop-opacity="0.01" /></linearGradient><linearGradient id="grd96" gradientUnits="userSpaceOnUse"  x1="394.58" y1="181.701" x2="413.429" y2="206.896"><stop offset="0" stop-color="#d2ab68"  /><stop offset="1" stop-color="#b67d3f"  /></linearGradient><linearGradient id="grd97" gradientUnits="userSpaceOnUse"  x1="385.693" y1="196.469" x2="406.632" y2="206.436"><stop offset="0" stop-color="#e0c087"  /><stop offset="0.281" stop-color="#ffe49e"  /><stop offset="1" stop-color="#753c1d"  /></linearGradient><linearGradient id="grd98" gradientUnits="userSpaceOnUse"  x1="387.268" y1="197.466" x2="388.329" y2="210.446"><stop offset="0" stop-color="#b18253"  /><stop offset="1" stop-color="#f7e6b3" stop-opacity="0.01" /></linearGradient><linearGradient id="grd99" gradientUnits="userSpaceOnUse"  x1="397.488" y1="217.365" x2="416.702" y2="243.047"><stop offset="0" stop-color="#d2ab68"  /><stop offset="1" stop-color="#b67d3f"  /></linearGradient><linearGradient id="grd100" gradientUnits="userSpaceOnUse"  x1="387.184" y1="233.733" x2="406.104" y2="252.769"><stop offset="0" stop-color="#f7e6b3"  /><stop offset="1" stop-color="#f7e6b3" stop-opacity="0.01" /></linearGradient><linearGradient id="grd101" gradientUnits="userSpaceOnUse"  x1="426.291" y1="220.956" x2="433.204" y2="230.197"><stop offset="0" stop-color="#d2ab68"  /><stop offset="1" stop-color="#b67d3f"  /></linearGradient><linearGradient id="grd102" gradientUnits="userSpaceOnUse"  x1="394.672" y1="231.714" x2="395.363" y2="240.224"><stop offset="0" stop-color="#fada81"  /><stop offset="1" stop-color="#9a5e33"  /></linearGradient><linearGradient id="grd103" gradientUnits="userSpaceOnUse"  x1="414.491" y1="258.111" x2="421.743" y2="267.806"><stop offset="0" stop-color="#fada81"  /><stop offset="1" stop-color="#b67d3f"  /></linearGradient><linearGradient id="grd104" gradientUnits="userSpaceOnUse"  x1="390.821" y1="268.018" x2="390.821" y2="281.191"><stop offset="0" stop-color="#d2ab68"  /><stop offset="1" stop-color="#b67d3f"  /></linearGradient><linearGradient id="grd105" gradientUnits="userSpaceOnUse"  x1="100.315" y1="207.648" x2="250.132" y2="428.073"><stop offset="0" stop-color="#fafafa"  /><stop offset="1" stop-color="#c2c4cd"  /></linearGradient><linearGradient id="grd106" gradientUnits="userSpaceOnUse"  x1="119.797" y1="217.849" x2="247.779" y2="392.753"><stop offset="0" stop-color="#cdcfd6"  /><stop offset="1" stop-color="#efeff1"  /></linearGradient><linearGradient id="grd107" gradientUnits="userSpaceOnUse"  x1="126.897" y1="215.547" x2="264.316" y2="398.636"><stop offset="0" stop-color="#dddfe2"  /><stop offset="1" stop-color="#ffffff"  /></linearGradient><clipPath clipPathUnits="userSpaceOnUse" id="cp2"><path d="M164.88 186.22C159.32 189.25 155.86 195.08 155.86 201.43L155.86 310.2C155.86 316.54 159.32 322.37 164.88 325.41L252.17 372.93C257.32 375.73 263.53 375.73 268.67 372.93L355.96 325.41C361.52 322.37 364.99 316.54 364.99 310.2L364.99 201.43C364.99 195.08 361.52 189.25 355.96 186.22L268.67 138.7C263.53 135.9 257.32 135.9 252.17 138.7L164.88 186.22Z" /></clipPath><radialGradient id="grd108" gradientUnits="userSpaceOnUse"  cx="260.421" cy="255.811" r="121.398"><stop offset="0" stop-color="#f5f7ff"  /><stop offset="1" stop-color="#b3b5c5"  /></radialGradient><linearGradient id="grd109" gradientUnits="userSpaceOnUse"  x1="238.785" y1="129.391" x2="238.785" y2="382.221"><stop offset="0" stop-color="#ffffff"  /><stop offset="1" stop-color="#f2eded" stop-opacity="0.01" /></linearGradient><linearGradient id="grd110" gradientUnits="userSpaceOnUse"  x1="112.478" y1="163.101" x2="238.894" y2="382.06"><stop offset="0" stop-color="#ffffff"  /><stop offset="1" stop-color="#f2eded" stop-opacity="0.01" /></linearGradient><linearGradient id="grd111" gradientUnits="userSpaceOnUse"  x1="361.487" y1="141.43" x2="235.072" y2="360.388"><stop offset="0" stop-color="#ffffff"  /><stop offset="1" stop-color="#f2eded" stop-opacity="0.01" /></linearGradient><linearGradient id="grd112" gradientUnits="userSpaceOnUse"  x1="207.675" y1="300.2" x2="207.476" y2="368.827"><stop offset="0" stop-color="#ffffff" stop-opacity="0.01" /><stop offset="1" stop-color="#d0dbff"  /></linearGradient><clipPath clipPathUnits="userSpaceOnUse" id="cp3"><path d="M164.88 186.22C159.32 189.25 155.86 195.08 155.86 201.43L155.86 310.2C155.86 316.54 159.32 322.37 164.88 325.41L252.17 372.93C257.32 375.73 263.53 375.73 268.67 372.93L355.96 325.41C361.52 322.37 364.99 316.54 364.99 310.2L364.99 201.43C364.99 195.08 361.52 189.25 355.96 186.22L268.67 138.7C263.53 135.9 257.32 135.9 252.17 138.7L164.88 186.22Z" /></clipPath><linearGradient id="grd113" gradientUnits="userSpaceOnUse"  x1="233.692" y1="154.92" x2="255.004" y2="171.367"><stop offset="0.024" stop-color="#dbba8f"  /><stop offset="0.344" stop-color="#ffefbe"  /><stop offset="1" stop-color="#debd84"  /></linearGradient><linearGradient id="grd114" gradientUnits="userSpaceOnUse"  x1="286.343" y1="153.844" x2="265.603" y2="168.324"><stop offset="0" stop-color="#a06e48"  /><stop offset="0.368" stop-color="#bd9666"  /><stop offset="1" stop-color="#a88255"  /></linearGradient><linearGradient id="grd115" gradientUnits="userSpaceOnUse"  x1="248.373" y1="140.938" x2="262.84" y2="155.405"><stop offset="0" stop-color="#c08d4e"  /><stop offset="1" stop-color="#e2c69f"  /></linearGradient><linearGradient id="grd116" gradientUnits="userSpaceOnUse"  x1="239.763" y1="149.515" x2="255.34" y2="164.018"><stop offset="0" stop-color="#c49357"  /><stop offset="0.483" stop-color="#ffffff" stop-opacity="0.87" /><stop offset="1" stop-color="#dfc299"  /></linearGradient><linearGradient id="grd117" gradientUnits="userSpaceOnUse"  x1="398.346" y1="47.698" x2="437.826" y2="193.483"><stop offset="0.221" stop-color="#fafafa"  /><stop offset="1" stop-color="#d8d9e1"  /></linearGradient><linearGradient id="grd118" gradientUnits="userSpaceOnUse"  x1="433.722" y1="-14.464" x2="313.214" y2="15.221"><stop offset="0" stop-color="#f8f8f9" stop-opacity="0.46" /><stop offset="0.575" stop-color="#f8f8f9"  /><stop offset="0.783" stop-color="#ffffff"  /><stop offset="0.885" stop-color="#ffffff" stop-opacity="0.19" /></linearGradient><linearGradient id="grd119" gradientUnits="userSpaceOnUse"  x1="398.171" y1="121.727" x2="422.586" y2="242.227"><stop offset="0.221" stop-color="#fafafa"  /><stop offset="1" stop-color="#d8d9e1"  /></linearGradient><linearGradient id="grd120" gradientUnits="userSpaceOnUse"  x1="425.528" y1="70.07" x2="311.285" y2="114.562"><stop offset="0" stop-color="#f8f8f9" stop-opacity="0.46" /><stop offset="0.293" stop-color="#f8f8f9" stop-opacity="0.45" /><stop offset="0.629" stop-color="#ffffff" stop-opacity="0.51" /><stop offset="0.742" stop-color="#ffffff" stop-opacity="0.12" /></linearGradient><linearGradient id="grd121" gradientUnits="userSpaceOnUse"  x1="391.851" y1="242.52" x2="393.402" y2="267.813"><stop offset="0.375" stop-color="#ad8357"  /><stop offset="0.987" stop-color="#714538"  /></linearGradient><linearGradient id="grd122" gradientUnits="userSpaceOnUse"  x1="374.079" y1="192.787" x2="385.525" y2="290.056"><stop offset="0.221" stop-color="#fafafa"  /><stop offset="1" stop-color="#d8d9e1"  /></linearGradient><linearGradient id="grd123" gradientUnits="userSpaceOnUse"  x1="392.076" y1="147.702" x2="289.027" y2="224.332"><stop offset="0" stop-color="#f8f8f9" stop-opacity="0.46" /><stop offset="0.219" stop-color="#f8f8f9" stop-opacity="0.67" /><stop offset="0.457" stop-color="#ffffff" stop-opacity="0.46" /><stop offset="0.742" stop-color="#ffffff" stop-opacity="0.01" /></linearGradient><linearGradient id="grd124" gradientUnits="userSpaceOnUse"  x1="376.165" y1="269.353" x2="373.901" y2="292.445"><stop offset="0.375" stop-color="#ad8357"  /><stop offset="0.987" stop-color="#714538"  /></linearGradient><linearGradient id="grd125" gradientUnits="userSpaceOnUse"  x1="357.775" y1="282.114" x2="373.185" y2="333.567"><stop offset="0" stop-color="#efefef"  /><stop offset="0.411" stop-color="#dedfe6"  /><stop offset="0.59" stop-color="#d1d2d9"  /><stop offset="1" stop-color="#d1d2d9"  /></linearGradient><linearGradient id="grd126" gradientUnits="userSpaceOnUse"  x1="431.251" y1="222.155" x2="345.348" y2="257.589"><stop offset="0" stop-color="#f8f8f9" stop-opacity="0.86" /><stop offset="0.319" stop-color="#f8f8f9"  /><stop offset="0.615" stop-color="#ffffff" stop-opacity="0.88" /><stop offset="0.868" stop-color="#ffffff"  /></linearGradient><linearGradient id="grd127" gradientUnits="userSpaceOnUse"  x1="351.004" y1="309.976" x2="347.537" y2="319.084"><stop offset="0.375" stop-color="#ad8357"  /><stop offset="0.987" stop-color="#714538"  /></linearGradient><linearGradient id="grd128" gradientUnits="userSpaceOnUse"  x1="292.861" y1="305.033" x2="282.715" y2="367.984"><stop offset="0.031" stop-color="#dbdce7"  /><stop offset="0.274" stop-color="#cbccd7"  /><stop offset="0.676" stop-color="#d1d2d9"  /></linearGradient><linearGradient id="grd129" gradientUnits="userSpaceOnUse"  x1="296.972" y1="297.842" x2="275.935" y2="368.117"><stop offset="0" stop-color="#f8f8f9" stop-opacity="0.78" /><stop offset="0.319" stop-color="#f8f8f9" stop-opacity="0.01" /><stop offset="0.615" stop-color="#ffffff" stop-opacity="0.01" /><stop offset="0.868" stop-color="#ffffff" stop-opacity="0.01" /></linearGradient><linearGradient id="grd130" gradientUnits="userSpaceOnUse"  x1="368.662" y1="237.323" x2="411.837" y2="265.873"><stop offset="0" stop-color="#ffffff"  /><stop offset="1" stop-color="#ffffff" stop-opacity="0.01" /></linearGradient><linearGradient id="grd131" gradientUnits="userSpaceOnUse"  x1="360.414" y1="111.799" x2="184.112" y2="154.834"><stop offset="0" stop-color="#594530"  /><stop offset="0.667" stop-color="#7a5d3f"  /><stop offset="1" stop-color="#564029"  /></linearGradient><linearGradient id="grd132" gradientUnits="userSpaceOnUse"  x1="379.134" y1="96.228" x2="201.917" y2="130.317"><stop offset="0" stop-color="#926c45"  /><stop offset="0.198" stop-color="#b98d5f"  /><stop offset="0.569" stop-color="#b98d5f"  /><stop offset="1" stop-color="#94693c"  /></linearGradient><linearGradient id="grd133" gradientUnits="userSpaceOnUse"  x1="338.704" y1="291.554" x2="347.945" y2="326.656"><stop offset="0" stop-color="#b98d5f"  /><stop offset="0.081" stop-color="#b98d5f"  /><stop offset="0.313" stop-color="#ecd4af"  /><stop offset="0.466" stop-color="#fdeed8"  /><stop offset="0.619" stop-color="#ecd4af"  /><stop offset="0.845" stop-color="#b98d5f"  /><stop offset="1" stop-color="#b98d5f"  /></linearGradient><linearGradient id="grd134" gradientUnits="userSpaceOnUse"  x1="378.358" y1="160.501" x2="249.945" y2="159.141"><stop offset="0.005" stop-color="#b98d5f"  /><stop offset="0.184" stop-color="#ffffff"  /><stop offset="0.808" stop-color="#d3b790"  /><stop offset="0.913" stop-color="#f7e1c2"  /><stop offset="1" stop-color="#d3b790"  /></linearGradient><linearGradient id="grd135" gradientUnits="userSpaceOnUse"  x1="74.795" y1="47.695" x2="114.274" y2="193.481"><stop offset="0.221" stop-color="#fafafa"  /><stop offset="1" stop-color="#d8d9e1"  /></linearGradient><linearGradient id="grd136" gradientUnits="userSpaceOnUse"  x1="85.335" y1="-14.465" x2="205.842" y2="15.22"><stop offset="0" stop-color="#f8f8f9" stop-opacity="0.46" /><stop offset="0.575" stop-color="#f8f8f9"  /><stop offset="0.783" stop-color="#ffffff"  /><stop offset="0.885" stop-color="#ffffff" stop-opacity="0.19" /></linearGradient><linearGradient id="grd137" gradientUnits="userSpaceOnUse"  x1="71.715" y1="121.725" x2="96.13" y2="242.226"><stop offset="0.221" stop-color="#fafafa"  /><stop offset="1" stop-color="#d8d9e1"  /></linearGradient><linearGradient id="grd138" gradientUnits="userSpaceOnUse"  x1="93.526" y1="70.069" x2="207.769" y2="114.561"><stop offset="0" stop-color="#f8f8f9" stop-opacity="0.46" /><stop offset="0.293" stop-color="#f8f8f9" stop-opacity="0.45" /><stop offset="0.629" stop-color="#ffffff" stop-opacity="0.51" /><stop offset="0.742" stop-color="#ffffff" stop-opacity="0.12" /></linearGradient><linearGradient id="grd139" gradientUnits="userSpaceOnUse"  x1="127.204" y1="242.518" x2="125.653" y2="267.812"><stop offset="0.375" stop-color="#ad8357"  /><stop offset="0.987" stop-color="#714538"  /></linearGradient><linearGradient id="grd140" gradientUnits="userSpaceOnUse"  x1="78.455" y1="192.785" x2="89.9" y2="290.054"><stop offset="0.221" stop-color="#fafafa"  /><stop offset="1" stop-color="#d8d9e1"  /></linearGradient><linearGradient id="grd141" gradientUnits="userSpaceOnUse"  x1="126.977" y1="147.702" x2="230.026" y2="224.331"><stop offset="0" stop-color="#f8f8f9" stop-opacity="0.46" /><stop offset="0.219" stop-color="#f8f8f9" stop-opacity="0.67" /><stop offset="0.457" stop-color="#ffffff" stop-opacity="0.46" /><stop offset="0.742" stop-color="#ffffff" stop-opacity="0.01" /></linearGradient><linearGradient id="grd142" gradientUnits="userSpaceOnUse"  x1="142.889" y1="269.352" x2="145.153" y2="292.444"><stop offset="0.375" stop-color="#ad8357"  /><stop offset="0.987" stop-color="#714538"  /></linearGradient><linearGradient id="grd143" gradientUnits="userSpaceOnUse"  x1="122.893" y1="282.112" x2="138.303" y2="333.566"><stop offset="0" stop-color="#efefef"  /><stop offset="0.411" stop-color="#dedfe6"  /><stop offset="0.59" stop-color="#d1d2d9"  /><stop offset="1" stop-color="#d1d2d9"  /></linearGradient><linearGradient id="grd144" gradientUnits="userSpaceOnUse"  x1="87.804" y1="222.154" x2="173.707" y2="257.588"><stop offset="0" stop-color="#f8f8f9" stop-opacity="0.86" /><stop offset="0.319" stop-color="#f8f8f9"  /><stop offset="0.615" stop-color="#ffffff" stop-opacity="0.88" /><stop offset="0.868" stop-color="#ffffff"  /></linearGradient><linearGradient id="grd145" gradientUnits="userSpaceOnUse"  x1="168.051" y1="309.975" x2="171.518" y2="319.083"><stop offset="0.375" stop-color="#ad8357"  /><stop offset="0.987" stop-color="#714538"  /></linearGradient><linearGradient id="grd146" gradientUnits="userSpaceOnUse"  x1="226.194" y1="305.032" x2="236.34" y2="367.982"><stop offset="0.031" stop-color="#dbdce7"  /><stop offset="0.274" stop-color="#cbccd7"  /><stop offset="0.676" stop-color="#d1d2d9"  /></linearGradient><linearGradient id="grd147" gradientUnits="userSpaceOnUse"  x1="222.084" y1="297.841" x2="243.12" y2="368.115"><stop offset="0" stop-color="#f8f8f9" stop-opacity="0.78" /><stop offset="0.319" stop-color="#f8f8f9" stop-opacity="0.01" /><stop offset="0.615" stop-color="#ffffff" stop-opacity="0.01" /><stop offset="0.868" stop-color="#ffffff" stop-opacity="0.01" /></linearGradient><linearGradient id="grd148" gradientUnits="userSpaceOnUse"  x1="150.393" y1="237.324" x2="107.219" y2="265.874"><stop offset="0" stop-color="#ffffff"  /><stop offset="1" stop-color="#ffffff" stop-opacity="0.01" /></linearGradient><linearGradient id="grd149" gradientUnits="userSpaceOnUse"  x1="158.64" y1="111.799" x2="334.942" y2="154.833"><stop offset="0" stop-color="#594530"  /><stop offset="0.667" stop-color="#7a5d3f"  /><stop offset="1" stop-color="#564029"  /></linearGradient><linearGradient id="grd150" gradientUnits="userSpaceOnUse"  x1="139.92" y1="96.228" x2="317.137" y2="130.317"><stop offset="0" stop-color="#926c45"  /><stop offset="0.198" stop-color="#b98d5f"  /><stop offset="0.569" stop-color="#b98d5f"  /><stop offset="1" stop-color="#94693c"  /></linearGradient><linearGradient id="grd151" gradientUnits="userSpaceOnUse"  x1="180.348" y1="291.555" x2="171.108" y2="326.658"><stop offset="0" stop-color="#b98d5f"  /><stop offset="0.081" stop-color="#b98d5f"  /><stop offset="0.313" stop-color="#ecd4af"  /><stop offset="0.466" stop-color="#fdeed8"  /><stop offset="0.619" stop-color="#ecd4af"  /><stop offset="0.845" stop-color="#b98d5f"  /><stop offset="1" stop-color="#b98d5f"  /></linearGradient><linearGradient id="grd152" gradientUnits="userSpaceOnUse"  x1="140.697" y1="160.501" x2="269.109" y2="159.141"><stop offset="0.005" stop-color="#b98d5f"  /><stop offset="0.184" stop-color="#ffffff"  /><stop offset="0.808" stop-color="#d3b790"  /><stop offset="0.913" stop-color="#f7e1c2"  /><stop offset="1" stop-color="#d3b790"  /></linearGradient><linearGradient id="grd153" gradientUnits="userSpaceOnUse"  x1="266.219" y1="415.808" x2="299.517" y2="400.406"><stop offset="0" stop-color="#d5d7d9"  /><stop offset="1" stop-color="#e2e3e7"  /></linearGradient><clipPath clipPathUnits="userSpaceOnUse" id="cp4"><path d="M261.33 413.83L261.33 413.95L261.15 413.88L260.98 413.95L260.98 413.83L233.09 403.35L260.98 357.85L260.98 357.91L260.98 357.85L288.87 403.35L261.33 413.83Z" /></clipPath><linearGradient id="grd154" gradientUnits="userSpaceOnUse"  x1="263.241" y1="440.282" x2="295.458" y2="435.848"><stop offset="0" stop-color="#9a9ca5"  /><stop offset="0.259" stop-color="#c4c6cf"  /><stop offset="0.878" stop-color="#e2e3e7"  /></linearGradient><linearGradient id="grd155" gradientUnits="userSpaceOnUse"  x1="245.685" y1="338.091" x2="272.539" y2="339.957"><stop offset="0" stop-color="#f4f5f8"  /><stop offset="1" stop-color="#f5f6f7"  /></linearGradient><linearGradient id="grd156" gradientUnits="userSpaceOnUse"  x1="258.675" y1="369.13" x2="269.845" y2="370.812"><stop offset="0" stop-color="#916437"  /><stop offset="0.522" stop-color="#af8356"  /><stop offset="1" stop-color="#af8356"  /></linearGradient><linearGradient id="grd157" gradientUnits="userSpaceOnUse"  x1="253.235" y1="436.824" x2="252.006" y2="437.937"><stop offset="0" stop-color="#cfac82"  /><stop offset="0.31" stop-color="#fcedd7"  /><stop offset="0.524" stop-color="#f8edc0"  /><stop offset="0.614" stop-color="#cfac82"  /><stop offset="1" stop-color="#cfac82"  /></linearGradient><linearGradient id="grd158" gradientUnits="userSpaceOnUse"  x1="504.837" y1="352.606" x2="298.471" y2="233.46"><stop offset="0" stop-color="#fff6d6" stop-opacity="0.01" /><stop offset="1" stop-color="#ffefc5" stop-opacity="0.4" /></linearGradient><linearGradient id="grd159" gradientUnits="userSpaceOnUse"  x1="297.472" y1="517.296" x2="297.472" y2="279.444"><stop offset="0" stop-color="#fff6d6" stop-opacity="0.01" /><stop offset="1" stop-color="#ffefc5" stop-opacity="0.4" /></linearGradient><linearGradient id="grd160" gradientUnits="userSpaceOnUse"  x1="50.911" y1="417.513" x2="259.262" y2="297.222"><stop offset="0" stop-color="#fff6d6" stop-opacity="0.01" /><stop offset="1" stop-color="#ffefc5" stop-opacity="0.4" /></linearGradient><linearGradient id="grd161" gradientUnits="userSpaceOnUse"  x1="504.837" y1="151.134" x2="294.683" y2="272.467"><stop offset="0" stop-color="#fff6d6" stop-opacity="0.01" /><stop offset="1" stop-color="#ffefc5" stop-opacity="0.4" /></linearGradient><linearGradient id="grd162" gradientUnits="userSpaceOnUse"  x1="50.911" y1="86.227" x2="262.276" y2="208.259"><stop offset="0" stop-color="#fff6d6" stop-opacity="0.01" /><stop offset="1" stop-color="#ffefc5" stop-opacity="0.4" /></linearGradient><linearGradient id="grd163" gradientUnits="userSpaceOnUse"  x1="49.263" y1="336.447" x2="147.171" y2="336.447"><stop offset="0" stop-color="#fff0da"  /><stop offset="0.322" stop-color="#ffe6c0" stop-opacity="0.22" /><stop offset="1" stop-color="#ffe6c0" stop-opacity="0.01" /></linearGradient><linearGradient id="grd164" gradientUnits="userSpaceOnUse"  x1="26.247" y1="359.168" x2="148.695" y2="359.075"><stop offset="0" stop-color="#ffc164"  /><stop offset="0.322" stop-color="#ffe6c0" stop-opacity="0.01" /><stop offset="1" stop-color="#ffe6c0" stop-opacity="0.01" /></linearGradient><linearGradient id="grd165" gradientUnits="userSpaceOnUse"  x1="470.066" y1="336.447" x2="372.159" y2="336.447"><stop offset="0" stop-color="#fff0da"  /><stop offset="0.322" stop-color="#ffe6c0" stop-opacity="0.22" /><stop offset="1" stop-color="#ffe6c0" stop-opacity="0.01" /></linearGradient><linearGradient id="grd166" gradientUnits="userSpaceOnUse"  x1="493.084" y1="359.168" x2="370.637" y2="359.076"><stop offset="0" stop-color="#ffc164"  /><stop offset="0.322" stop-color="#ffe6c0" stop-opacity="0.01" /><stop offset="1" stop-color="#ffe6c0" stop-opacity="0.01" /></linearGradient></defs><style>tspan { white-space:pre }.shp0 { fill: url(#grd1) } .shp1 { fill: url(#grd2) } .shp2 { fill: url(#grd3) } .shp3 { fill: url(#grd4) } .shp4 { fill: url(#grd5) } .shp5 { fill: url(#grd6) } .shp6 { fill: url(#grd7) } .shp7 { fill: url(#grd8) } .shp8 { fill: url(#grd9) } .shp9 { fill: #063988 } .shp10 { fill: #f8edc0 } .shp11 { fill: url(#grd10) } .shp12 { fill: url(#grd11) } .shp13 { fill: url(#grd12) } .shp14 { fill: url(#grd13) } .shp15 { opacity: 0.8;fill: #0e3060 } .shp16 { fill: url(#grd14) } .shp17 { fill: url(#grd15) } .shp18 { fill: url(#grd16) } .shp19 { fill: url(#grd17) } .shp20 { fill: url(#grd18) } .shp21 { opacity: 0.8;fill: url(#grd19) } .shp22 { fill: url(#grd20) } .shp23 { fill: url(#grd21) } .shp24 { fill: url(#grd22) } .shp25 { fill: url(#grd23) } .shp26 { fill: url(#grd24) } .shp27 { fill: url(#grd25) } .shp28 { fill: url(#grd26) } .shp29 { fill: url(#grd27) } .shp30 { fill: url(#grd28) } .shp31 { fill: url(#grd29) } .shp32 { fill: url(#grd30) } .shp33 { fill: url(#grd31) } .shp34 { fill: url(#grd32) } .shp35 { fill: url(#grd33) } .shp36 { fill: url(#grd34) } .shp37 { fill: url(#grd35) } .shp38 { fill: url(#grd36) } .shp39 { fill: url(#grd37) } .shp40 { fill: url(#grd38) } .shp41 { fill: url(#grd39) } .shp42 { fill: url(#grd40) } .shp43 { fill: url(#grd41) } .shp44 { fill: url(#grd42) } .shp45 { fill: url(#grd43) } .shp46 { fill: url(#grd44) } .shp47 { fill: url(#grd45) } .shp48 { fill: url(#grd46) } .shp49 { fill: url(#grd47) } .shp50 { fill: url(#grd48) } .shp51 { fill: url(#grd49) } .shp52 { fill: url(#grd50) } .shp53 { fill: url(#grd51) } .shp54 { fill: url(#grd52) } .shp55 { fill: url(#grd53) } .shp56 { fill: url(#grd54) } .shp57 { fill: url(#grd55) } .shp58 { fill: url(#grd56) } .shp59 { fill: url(#grd57) } .shp60 { fill: url(#grd58) } .shp61 { fill: url(#grd59) } .shp62 { fill: none;stroke: #fada81;stroke-width: 0.813 } .shp63 { fill: url(#grd60) } .shp64 { fill: url(#grd61) } .shp65 { fill: url(#grd62) } .shp66 { fill: url(#grd63) } .shp67 { fill: url(#grd64) } .shp68 { fill: url(#grd65) } .shp69 { fill: url(#grd66) } .shp70 { fill: url(#grd67) } .shp71 { fill: url(#grd68) } .shp72 { fill: url(#grd69) } .shp73 { fill: url(#grd70) } .shp74 { fill: url(#grd71) } .shp75 { fill: url(#grd72) } .shp76 { fill: url(#grd73) } .shp77 { fill: url(#grd74) } .shp78 { fill: url(#grd75) } .shp79 { fill: url(#grd76) } .shp80 { fill: url(#grd77) } .shp81 { fill: url(#grd78) } .shp82 { fill: url(#grd79) } .shp83 { fill: url(#grd80) } .shp84 { fill: url(#grd81) } .shp85 { fill: url(#grd82) } .shp86 { fill: url(#grd83) } .shp87 { fill: url(#grd84) } .shp88 { fill: url(#grd85) } .shp89 { fill: url(#grd86) } .shp90 { fill: url(#grd87) } .shp91 { fill: url(#grd88) } .shp92 { fill: url(#grd89) } .shp93 { fill: url(#grd90) } .shp94 { fill: url(#grd91) } .shp95 { fill: url(#grd92) } .shp96 { fill: url(#grd93) } .shp97 { fill: url(#grd94) } .shp98 { fill: url(#grd95) } .shp99 { fill: url(#grd96) } .shp100 { fill: url(#grd97) } .shp101 { fill: url(#grd98) } .shp102 { fill: url(#grd99) } .shp103 { fill: url(#grd100) } .shp104 { fill: url(#grd101) } .shp105 { fill: url(#grd102) } .shp106 { fill: url(#grd103) } .shp107 { fill: url(#grd104) } .shp108 { fill: url(#grd105) } .shp109 { fill: url(#grd106) } .shp110 { fill: none;stroke: url(#grd107);stroke-width: 1.074 } .shp111 { fill: #a6d3de } .shp112 { fill: url(#grd108) } .shp113 { opacity: 0.502;fill: url(#grd109) } .shp114 { opacity: 0.502;fill: url(#grd110) } .shp115 { opacity: 0.502;fill: url(#grd111) } .shp116 { fill: url(#grd112) } .shp117 { opacity: 0.012;fill: #6052b4 } .shp118 { fill: url(#grd113) } .shp119 { fill: url(#grd114) } .shp120 { fill: url(#grd115) } .shp121 { fill: url(#grd116) } .shp122 { fill: #c4c4c4 } .shp123 { fill: url(#grd117) } .shp124 { fill: none;stroke: url(#grd118);stroke-width: 1.865 } .shp125 { fill: url(#grd119) } .shp126 { fill: none;stroke: url(#grd120);stroke-width: 1.554 } .shp127 { opacity: 0.8;fill: url(#grd121) } .shp128 { fill: url(#grd122) } .shp129 { fill: none;stroke: url(#grd123);stroke-width: 1.554 } .shp130 { fill: url(#grd124) } .shp131 { fill: url(#grd125) } .shp132 { fill: none;stroke: url(#grd126);stroke-width: 1.554 } .shp133 { fill: url(#grd127) } .shp134 { fill: url(#grd128) } .shp135 { fill: none;stroke: url(#grd129);stroke-width: 1.554 } .shp136 { fill: none;stroke: url(#grd130);stroke-width: 1.932 } .shp137 { fill: url(#grd131) } .shp138 { fill: url(#grd132) } .shp139 { fill: url(#grd133) } .shp140 { fill: none;stroke: url(#grd134);stroke-width: 0.858 } .shp141 { fill: none;stroke: #eed7b5;stroke-width: 1.074 } .shp142 { fill: url(#grd135) } .shp143 { fill: none;stroke: url(#grd136);stroke-width: 1.865 } .shp144 { fill: url(#grd137) } .shp145 { fill: none;stroke: url(#grd138);stroke-width: 1.554 } .shp146 { opacity: 0.8;fill: url(#grd139) } .shp147 { fill: url(#grd140) } .shp148 { fill: none;stroke: url(#grd141);stroke-width: 1.554 } .shp149 { fill: url(#grd142) } .shp150 { fill: url(#grd143) } .shp151 { fill: none;stroke: url(#grd144);stroke-width: 1.554 } .shp152 { fill: url(#grd145) } .shp153 { fill: url(#grd146) } .shp154 { fill: none;stroke: url(#grd147);stroke-width: 1.554 } .shp155 { fill: none;stroke: url(#grd148);stroke-width: 1.932 } .shp156 { fill: url(#grd149) } .shp157 { fill: url(#grd150) } .shp158 { fill: url(#grd151) } .shp159 { fill: none;stroke: url(#grd152);stroke-width: 0.858 } .shp160 { fill: url(#grd153) } .shp161 { fill: url(#grd154) } .shp162 { fill: url(#grd155) } .shp163 { fill: url(#grd156) } .shp164 { fill: #eed6b3 } .shp165 { fill: url(#grd157) } .shp166 { fill: #ffd59b } .shp167 { fill: #fdd39a } .shp168 { fill: #aaccff } .shp169 { fill: url(#grd158) } .shp170 { fill: url(#grd159) } .shp171 { fill: url(#grd160) } .shp172 { fill: url(#grd161) } .shp173 { fill: url(#grd162) } .shp174 { fill: url(#grd163) } .shp175 { fill: url(#grd164) } .shp176 { fill: url(#grd165) } .shp177 { fill: url(#grd166) } .shp178 { fill: #bf935c } .shp179 { opacity: 0.2;fill: #9f6c47 } .shp180 { fill: #f3daa4 } .shp181 { fill: #d4ae73 } .shp182 { fill: #f9a74e } .shp183 { fill: none;stroke: #bf935c;stroke-linecap:round;stroke-linejoin:round;stroke-width: 3.849 } .shp184 { fill: none;stroke: #e6c591;stroke-linecap:round;stroke-linejoin:round;stroke-width: 3.849 } .shp185 { opacity: 0.149;fill: none;stroke: #ffffff;stroke-linecap:round;stroke-linejoin:round;stroke-width: 1.924 } .shp186 { fill: #dab287 } </style><g clip-path="url(#cp1)"><g ><g ><g ><path fill-rule="evenodd" class="shp0" d="M318.69 255.76L290.93 303.94L467.81 416.95L504.84 352.71L318.69 255.76Z" /><path fill-rule="evenodd" class="shp1" d="M287.76 307.67L232.23 307.67L222.97 517.62L297.02 517.62L287.76 307.67Z" /><path fill-rule="evenodd" class="shp2" d="M227.8 304.61L200.03 256.43L13.88 353.37L50.91 417.62L227.8 304.61Z" /><path fill-rule="evenodd" class="shp3" d="M318.69 247.97L290.93 199.8L467.81 86.78L504.84 151.03L318.69 247.97Z" /><path fill-rule="evenodd" class="shp4" d="M227.8 199.13L200.03 247.31L13.88 150.37L50.91 86.12L227.8 199.13Z" /><path fill-rule="evenodd" class="shp5" d="M28.62 238.37C28.62 365.3 131.34 468.19 258.06 468.19L258.06 471.75C129.39 471.75 25.08 367.26 25.08 238.37C25.08 109.48 129.39 5 258.06 5L258.06 8.54C131.34 8.54 28.62 111.45 28.62 238.37Z" /><path fill-rule="evenodd" class="shp6" d="M34.35 238.37C34.35 365.3 132.77 468.19 259.49 468.19L259.49 471.75C130.82 471.75 22.22 367.26 22.22 238.37C22.22 109.48 130.82 5 259.49 5L259.49 8.54C132.77 8.54 34.35 111.45 34.35 238.37Z" /><path fill-rule="evenodd" class="shp7" d="M490.71 238.37C490.71 365.3 387.99 468.19 261.28 468.19L261.28 471.74C389.94 471.74 494.24 367.26 494.24 238.37C494.24 109.48 389.94 5 261.28 5L261.28 8.54C387.99 8.54 490.71 111.45 490.71 238.37Z" /><path fill-rule="evenodd" class="shp8" d="M484.99 238.37C484.99 365.3 386.56 468.19 259.85 468.19L259.85 471.75C388.51 471.75 497.11 367.26 497.11 238.37C497.11 109.48 388.51 5 259.85 5L259.85 8.54C386.56 8.54 484.99 111.45 484.99 238.37Z" /><g ><path class="shp9" d="M378.14 334.03L378.14 392.23L349.97 405.88L321.81 418.89L321.81 334.03L378.14 334.03Z" /><g ><path fill-rule="evenodd" class="shp10" d="M321.55 419.43L321.55 418.36L378.4 392.03L378.4 393.11L321.55 419.43Z" /><path fill-rule="evenodd" class="shp11" d="M321.55 423.73L321.55 419.43L378.39 393.11L378.39 397.41L321.55 423.73Z" /><path fill-rule="evenodd" class="shp12" d="M321.55 425.88L321.55 423.73L378.39 397.41L378.39 399.55L321.55 425.88Z" /></g><path fill-rule="evenodd" class="shp13" d="M322.09 402.24L322.09 422.12L368.73 368.94L368.73 363.03L322.09 402.24Z" /><path fill-rule="evenodd" class="shp14" d="M375.71 385.51L375.26 385.59C373.78 385.83 372.14 386.71 370.78 388C369.45 389.28 368.45 390.92 368.2 392.65L368.16 392.94L333.54 409.18L333.54 409.19C333.49 409.21 333.44 409.23 333.4 409.25L324.77 413.3L324.77 403.23C324.73 402.48 324.74 401.78 324.77 401.17L324.77 375.92L325.84 375.92L325.84 403.19C325.92 404.57 326.18 406.04 326.83 407.13C327.3 407.93 327.97 408.53 328.95 408.77C329.9 409.01 331.19 408.92 332.98 408.26L367.19 392.21C367.53 390.3 368.65 388.56 370.05 387.22C371.39 385.94 373.04 384.99 374.64 384.62L374.64 349.07L375.71 349.07L375.71 385.51ZM329.41 409.94C329.15 409.91 328.91 409.87 328.68 409.81C327.39 409.48 326.49 408.68 325.91 407.67C325.88 407.64 325.86 407.61 325.84 407.57L325.84 411.61L329.41 409.94Z" /><path fill-rule="evenodd" class="shp15" d="M378.4 358.2L322.09 387.74L322.09 365.19L378.4 337.79L378.4 358.2Z" /><path class="shp9" d="M143.79 334.03L143.79 392.23L171.94 405.88L200.1 418.89L200.1 334.03L143.79 334.03Z" /><g ><path fill-rule="evenodd" class="shp10" d="M200.37 419.43L200.37 418.36L143.53 392.03L143.53 393.11L200.37 419.43Z" /><path fill-rule="evenodd" class="shp16" d="M200.37 423.73L200.37 419.43L143.53 393.11L143.53 397.41L200.37 423.73Z" /><path fill-rule="evenodd" class="shp17" d="M200.37 425.88L200.37 423.73L143.53 397.41L143.53 399.55L200.37 425.88Z" /></g><path fill-rule="evenodd" class="shp18" d="M199.83 402.24L199.83 422.12L153.18 368.94L153.18 363.03L199.83 402.24Z" /><path fill-rule="evenodd" class="shp19" d="M146.21 349.07L147.28 349.07L147.28 384.62C148.87 384.99 150.53 385.94 151.87 387.22C153.27 388.56 154.38 390.3 154.73 392.21L188.93 408.25C190.72 408.92 192.03 409.01 192.98 408.77C193.95 408.53 194.61 407.93 195.09 407.13C195.74 406.04 196 404.59 196.07 403.21L196.07 375.92L197.15 375.92L197.15 401.14C197.18 401.76 197.19 402.48 197.15 403.25L197.15 413.3L188.52 409.24C188.47 409.22 188.42 409.21 188.37 409.19L188.37 409.18L153.76 392.94L153.72 392.65C153.47 390.92 152.48 389.28 151.13 388C149.79 386.71 148.13 385.83 146.65 385.59L146.21 385.51L146.21 349.07ZM192.52 409.94L196.07 411.61L196.07 407.57C196.05 407.61 196.03 407.64 196.01 407.67C195.42 408.68 194.53 409.48 193.24 409.81C193.01 409.87 192.77 409.91 192.52 409.94Z" /><path fill-rule="evenodd" class="shp15" d="M143.53 358.2L199.83 387.74L199.83 365.19L143.53 337.79L143.53 358.2Z" /><path class="shp20" d="M312.44 379.15L312.44 429.64L260.96 455.43L209.48 429.64L209.48 379.15L312.44 379.15Z" /><path fill-rule="evenodd" class="shp21" d="M209.48 382.37L223.42 382.37C223.68 382.94 223.93 383.51 224.19 384.08C236.2 411.05 249.38 440.66 278.99 446.39L260.96 455.43L209.48 429.64L209.48 382.37Z" /><path fill-rule="evenodd" class="shp15" d="M261.49 419.43L210.55 393.65L210.55 383.98L311.9 383.98L311.9 393.65L261.49 419.43Z" /><path fill-rule="evenodd" class="shp22" d="M226.1 405.47C245.95 373.78 240.58 440.92 266.33 435.01C292.06 429.1 299.57 414.06 302.79 409.76C306 405.47 310.3 405.47 296.89 420.51C283.48 435.55 264.17 449.51 242.19 435.01C224.6 423.41 225.21 420.51 226.1 420.51C221.1 415.67 221.1 413.46 226.1 405.47Z" /><g ><path fill-rule="evenodd" class="shp23" d="M260.96 452.2L312.44 428.03L312.44 431.25L260.96 455.96L209.48 431.25L209.48 427.49L260.96 452.2Z" /><path fill-rule="evenodd" class="shp24" d="M260.96 448.97L312.44 424.8L312.44 429.1L260.96 452.74L209.48 429.1L209.48 424.26L260.96 448.97Z" /><path fill-rule="evenodd" class="shp10" d="M260.42 449.57L209.48 424.8L209.48 423.73L260.42 448.38L312.44 423.73L312.44 424.8L260.42 449.57Z" /></g><path fill-rule="evenodd" class="shp25" d="M308.68 419.32L308.27 419.42C306.49 419.82 305.11 420.93 304.17 422.17C303.71 422.77 303.36 423.41 303.12 423.98C302.88 424.55 302.79 425.03 302.79 425.34L302.79 425.69L260.41 444.19L218.68 425.19L218.62 424.95C218.22 423.57 217.31 422.35 216.3 421.38C215.28 420.4 214.2 419.71 213.53 419.37L213.23 419.23L213.23 386.67L214.31 386.67L214.31 418.57C215.06 418.99 216.08 419.68 217.04 420.61C218.08 421.6 219.08 422.89 219.58 424.42L260.42 443.01L301.74 424.98C301.79 424.55 301.92 424.07 302.13 423.57C302.4 422.92 302.8 422.2 303.33 421.51C304.3 420.23 305.73 419.02 307.61 418.48L307.61 385.59L308.68 385.59L308.68 419.32Z" /><path fill-rule="evenodd" class="shp26" d="M260.96 440.91L259.88 440.91L259.88 419.97L260.96 419.97L260.96 440.91Z" /><path fill-rule="evenodd" class="shp27" d="M250.68 437.15L250.86 436.09C252.29 436.33 254.51 435.91 256.39 433.73C258.29 431.54 259.88 427.53 259.88 420.51L260.96 420.51C260.96 427.66 259.34 431.98 257.21 434.43C255.08 436.9 252.47 437.45 250.68 437.15Z" /><path fill-rule="evenodd" class="shp28" d="M270.16 437.15L269.99 436.09C268.57 436.33 266.33 435.91 264.45 433.73C262.56 431.54 260.96 427.53 260.96 420.51L259.88 420.51C259.88 427.66 261.51 431.98 263.63 434.43C265.77 436.9 268.37 437.45 270.16 437.15Z" /><path fill-rule="evenodd" class="shp15" d="M260.96 398.49L210.55 393.65L210.55 383.98L311.9 383.98L311.9 393.65L260.96 398.49Z" /><path fill-rule="evenodd" class="shp29" d="M115.6 256.23C114.82 255.65 110.4 252.34 108.29 250.75C108.04 254.47 107.98 262.77 109.64 266.24C111.3 269.72 120.42 276.6 124.76 279.61L123.42 273.26C121.13 267.83 116.38 256.81 115.6 256.23Z" /><path fill-rule="evenodd" class="shp30" d="M139.05 110.77C139.1 117.16 138.16 117.72 137.97 127.48C139.15 131.67 139.82 137.24 140.86 132.44L144.14 124.99C151.22 100.58 147.05 93.6 146.01 93.64C142.61 100.23 139.01 105.66 139.05 110.77Z" /><path fill-rule="evenodd" class="shp31" d="M164.29 98.7C162.67 99.51 159.55 99.73 156.99 103.39C156.72 104.19 155.78 105.48 156.62 104.89C160.4 105.95 167.87 105.45 169.42 105.08C179.39 98.84 182.19 95.09 183.16 93.79C172.81 94.42 165.92 97.89 164.29 98.7Z" /><path fill-rule="evenodd" class="shp32" d="M174.31 79.18L175.12 79.78C156.79 100.96 134.49 139.22 124.35 182.88C114.21 226.5 117.17 276.14 151.12 321.8L148.52 323.74C113.86 277.14 110.88 226.45 121.18 182.15C131.47 137.88 155.7 100.67 174.31 79.18Z" /><path fill-rule="evenodd" class="shp33" d="M164.44 86.62L160.99 96.99L157.11 103.22C156 102.56 153.92 98.2 154.82 92.37C155.95 85.09 152.9 78.98 158.04 70.4L160.6 66.99L164.44 86.62Z" /><path fill-rule="evenodd" class="shp34" d="M157.49 102.6C158.85 97.54 159.98 91.88 159.32 89.39C158.6 86.66 159.67 76.1 160.67 67.32L160.6 66.99L158.04 70.4C154.63 76.09 154.82 80.69 155.01 85.25C155.11 87.58 155.2 89.9 154.82 92.37C153.92 98.2 156 102.56 157.11 103.22L157.49 102.6Z" /><path fill-rule="evenodd" class="shp35" d="M135.87 197.53C134.49 200.05 123.7 213.81 118.92 215.8C114.13 217.81 122.93 208.4 125.36 202.09C127.78 195.78 128.63 187.53 140.18 177.14L142.13 176.57C140.51 182.71 136.97 195.5 135.87 197.53Z" /><path fill-rule="evenodd" class="shp36" d="M119.25 215.65C123.14 211.05 127.92 204.17 129.98 198.95C132.17 193.37 137.86 183.85 141.9 177.43C141.98 177.13 142.07 176.84 142.13 176.57L140.18 177.14C130.71 185.65 128.44 192.73 126.59 198.48C126.18 199.75 125.79 200.95 125.36 202.09C124.34 204.74 122.2 207.93 120.41 210.59C117.94 214.28 116.14 216.97 118.92 215.8C119.02 215.75 119.14 215.71 119.25 215.65Z" /><path fill-rule="evenodd" class="shp37" d="M127.57 150.92C128.51 155.09 126.33 164.8 125.12 169.15C122.36 165.14 117.23 155.72 118.75 150.16C120.66 143.2 119.44 140.77 121.62 135.8C123.2 139.1 126.62 146.76 127.57 150.92Z" /><path fill-rule="evenodd" class="shp38" d="M125.12 169.15C126.33 164.8 128.52 155.09 127.57 150.92C127.54 150.78 127.5 150.65 127.47 150.5C125.41 153.69 122.92 158.36 121.7 163.26C122.87 165.63 124.14 167.72 125.12 169.15Z" /><path fill-rule="evenodd" class="shp39" d="M137.14 110.61C137.47 113.9 134.53 128.71 136.64 137.41L135.56 140.91C132.39 135.07 126.9 122.61 127.04 119.03C127.4 110.42 130.82 104.6 132.21 99.55C133.75 102.14 136.87 107.97 137.14 110.61Z" /><path fill-rule="evenodd" class="shp40" d="M150.65 135.97C145.33 139.29 139.91 140.62 137.86 140.86L140.46 134.68C148 124.59 151.01 126.33 160.29 120.34C159.3 124.17 155.98 132.64 150.65 135.97Z" /><path fill-rule="evenodd" class="shp41" d="M116.67 204.22L117.49 211.94C116.99 211.83 114.21 209.69 110.99 205.04C106.96 199.22 102.79 203.46 96.31 184.64C101.75 186.52 113.44 193.88 116.67 204.22Z" /><path fill-rule="evenodd" class="shp42" d="M112.83 182.54C114.21 185.1 117.56 201.33 117.52 204.09C117.49 206.31 117 208.87 116.76 209.87C114.29 204.81 108.68 193.81 105.98 190.36C102.6 186.06 100.24 176.66 98.07 163.61C102.53 169.07 111.73 180.49 112.83 182.54Z" /><path fill-rule="evenodd" class="shp43" d="M135.82 224.4C135.82 227.79 135.52 235.46 134.29 239.01C133.06 242.55 125.35 251.77 121.65 255.94L122.2 245.69C124.22 240.95 129.78 230.04 135.82 224.4Z" /><path fill-rule="evenodd" class="shp44" d="M112.92 220.44C113.45 223.13 115.33 239.27 116.96 241.5C118.26 243.29 117.43 245.08 116.84 245.74C113.9 243.45 107.54 237.14 105.62 230.22C103.69 223.28 105.31 214.67 106.36 211.22C108.37 213.4 112.49 218.3 112.92 220.44Z" /><path fill-rule="evenodd" class="shp45" d="M106.3 211.46C107.81 220.45 111.24 235.58 116.4 245.38C116.55 245.51 116.7 245.63 116.84 245.74C117.43 245.08 118.26 243.29 116.96 241.5C115.74 239.83 114.37 230.33 113.54 224.56C113.26 222.63 113.04 221.12 112.92 220.44C112.49 218.3 108.37 213.4 106.36 211.22C106.34 211.3 106.31 211.38 106.3 211.46Z" /><path fill-rule="evenodd" class="shp46" d="M112.54 281.37C110.63 281.77 105.71 278.53 103.49 276.86C106.45 275.27 113.33 272.71 117.17 275.18C121 277.65 124.5 279.84 125.78 280.62L125.29 282.29C121.84 281.82 114.46 280.98 112.54 281.37Z" /><path fill-rule="evenodd" class="shp47" d="M181.7 58.42C179.51 61.34 174.33 71.69 173.32 79.81L174.3 80.54C175.89 78.52 181.56 73.95 185.61 71.5C189.67 69.06 193.11 65.19 194.33 63.57L198.99 51.56C193.96 52.87 183.45 56.07 181.7 58.42Z" /><path fill-rule="evenodd" class="shp48" d="M198.48 51.69C198.65 51.65 198.82 51.61 198.99 51.56L194.33 63.57C193.11 65.19 189.67 69.06 185.61 71.5C181.56 73.95 175.93 78.81 174.34 80.83L174.45 79.65C177.11 73.59 190.44 59.54 198.48 51.69Z" /><g ><path fill-rule="evenodd" class="shp49" d="M166.74 90.13C166.03 90.81 161.54 96.98 157.63 102.34C164.01 100.69 175.63 96.89 178.61 93.44C181.6 89.98 185.48 83.93 186.1 81.53C174.21 83.03 167.45 89.44 166.74 90.13Z" /><path fill-rule="evenodd" class="shp50" d="M185.95 82.01C179.27 87.53 167.54 96.75 159.15 101.93C158.62 102.08 158.11 102.21 157.63 102.34C157.95 101.9 158.27 101.46 158.6 101.01C162.25 96.01 166.09 90.75 166.74 90.13C167.45 89.44 174.21 83.03 186.1 81.53C186.07 81.67 186.02 81.83 185.95 82.01Z" /></g><path fill-rule="evenodd" class="shp51" d="M140.01 133.58C141.39 131.06 145.81 101.36 146.02 97.7C146.09 96.33 146.02 95.01 145.88 93.89C145.21 95.18 144.56 96.38 143.93 97.51C141.44 102.05 139.46 105.66 139.05 110.76C139.08 113.81 138.87 115.54 138.63 117.57C138.37 119.79 138.08 122.39 137.98 127.48C138.25 128.45 138.49 129.49 138.72 130.46C139.1 132.02 139.41 133.41 139.75 134C139.84 133.88 139.92 133.75 140.01 133.58Z" /><path fill-rule="evenodd" class="shp52" d="M135.9 139.78C133.4 134.65 131.54 127.63 131.91 118.63C132.33 108.77 132.24 103.23 131.99 100.32C132.07 100.06 132.14 99.8 132.21 99.55C133.75 102.14 136.87 107.97 137.14 110.61C137.25 111.66 137.02 113.89 136.72 116.73C136.11 122.75 135.2 131.49 136.64 137.41L135.9 139.78Z" /><path fill-rule="evenodd" class="shp53" d="M160.23 120.38C155.76 125.85 146.32 136.05 138.17 140.83C138.07 140.84 137.96 140.85 137.86 140.86L140.46 134.68C145.53 127.9 148.54 126.46 152.79 124.44C154.85 123.44 157.21 122.33 160.23 120.38Z" /><g ><path fill-rule="evenodd" class="shp54" d="M153.17 135.32C140.51 135.17 135.36 142.54 134.22 146.77C135.04 147.04 135.02 146.78 137.36 147.34C145.84 149.35 156.95 142.28 161.49 135.71L153.17 135.32Z" /><path fill-rule="evenodd" class="shp55" d="M161.29 136.01C153.84 138.04 139.88 142.55 134.32 146.8C134.29 146.79 134.26 146.78 134.22 146.77C135.36 142.54 140.51 135.17 153.17 135.32L161.49 135.71C161.43 135.81 161.36 135.91 161.29 136.01Z" /></g><g ><path fill-rule="evenodd" class="shp56" d="M120.75 153.94C122.05 155.73 123.88 167.97 124.63 173.87L124.11 178.29C123.01 177.39 119.97 172.65 115.7 167.16C113.9 163.79 105.08 157.95 105.55 137.98C110.07 142.55 119.45 152.15 120.75 153.94Z" /><path fill-rule="evenodd" class="shp57" d="M105.55 138.28C112.2 148.92 123.05 168.32 123.81 178.01C123.16 177.3 122.1 175.84 120.71 173.91C119.33 172.02 117.64 169.67 115.7 167.16C115.35 166.51 114.74 165.77 113.99 164.84C110.86 161.02 105.25 154.17 105.55 138.28Z" /></g><path fill-rule="evenodd" class="shp58" d="M98.12 163.67C103.97 175.93 113.29 195.87 117.41 205.96C117.48 205.33 117.51 204.7 117.52 204.09C117.56 201.33 114.22 185.1 112.83 182.54C111.73 180.5 102.6 169.16 98.12 163.67Z" /><g ><path fill-rule="evenodd" class="shp59" d="M118.94 199.82C118.37 208.73 118.12 213.6 118.06 214.91C122.58 211.02 130.62 199.93 126.64 186.8L126.35 181.75C124.12 184.06 119.51 190.9 118.94 199.82Z" /><path fill-rule="evenodd" class="shp60" d="M118.25 214.74C119.13 213.47 120.15 211.98 121.31 210.23C121.77 195.05 123.94 186.47 126.29 181.81C124.04 184.18 119.51 190.98 118.94 199.82C118.37 208.73 118.12 213.6 118.06 214.91C118.13 214.86 118.19 214.8 118.25 214.74Z" /></g><path fill-rule="evenodd" class="shp61" d="M96.37 184.83C102.82 190.81 114.38 203.05 117.28 211.84C116.44 211.37 113.89 209.22 110.99 205.04C109.7 203.18 108.4 202.35 107.02 201.45C104.07 199.59 100.75 197.47 96.37 184.83Z" /><path class="shp62" d="M174.3 79.53C168.48 85.84 153.24 105.15 141.67 127.97C133.37 144.35 129.58 150.4 121.44 181.88C119.51 189.32 115.76 208.42 116.21 225.2C115.56 235.8 117.33 263.83 129.61 291.12C133.11 298.98 141.84 316.42 148.73 323.22" /><g ><path fill-rule="evenodd" class="shp63" d="M120.31 227.51C117.73 233.69 118.57 230.53 117.32 236.95L120.55 255.37C123.28 250.82 128.67 241.3 128.44 239.7C128.17 237.71 127.29 227.67 123.35 217.34C122.67 218.36 122.49 222.29 120.31 227.51Z" /><path fill-rule="evenodd" class="shp64" d="M123.75 218.43C124.14 228.62 123.91 246.91 120.47 254.94L117.32 236.95C117.94 233.77 118.04 232.94 118.3 232.16C118.57 231.37 119 230.64 120.31 227.51C121.63 224.36 122.21 221.69 122.62 219.83C122.89 218.6 123.08 217.75 123.35 217.34C123.48 217.71 123.62 218.07 123.75 218.43Z" /></g><g ><path fill-rule="evenodd" class="shp65" d="M105.58 229.93C108.38 234.06 114.55 242.25 117.29 245.82C115.1 246.04 109.84 245.88 106.37 243.48C102.89 241.07 100.02 239.31 99.02 238.72C96.6 234.03 92.01 224.33 92.99 223.03C96.02 223.61 102.79 225.8 105.58 229.93Z" /><path fill-rule="evenodd" class="shp66" d="M115.77 245.89C116.37 245.89 116.88 245.86 117.29 245.82C114.55 242.25 108.38 234.06 105.58 229.93C102.79 225.8 96.02 223.61 92.99 223.03C92.96 223.07 92.93 223.11 92.92 223.16C95.24 227.69 101.64 235.63 115.77 245.89Z" /></g><g ><path fill-rule="evenodd" class="shp67" d="M120.77 269C124.57 271.24 124.82 275 124.47 276.59C122.61 278.08 117.81 280.29 113.55 277.31C108.23 273.57 107.13 276.05 100.34 266.14C105.56 266.16 116.97 266.75 120.77 269Z" /><path fill-rule="evenodd" class="shp68" d="M100.39 266.21C105.06 266.9 113.84 269.46 124.55 276.13C124.53 276.31 124.5 276.46 124.47 276.59C123.13 277.66 120.26 279.11 117.18 278.72C116.34 278.47 115.49 278.21 114.63 277.94C114.26 277.77 113.91 277.56 113.55 277.3C111.93 276.16 110.71 275.6 109.58 275.09C107.05 273.94 105.08 273.04 100.39 266.21Z" /></g><path fill-rule="evenodd" class="shp69" d="M405.24 256.23C406.01 255.65 410.44 252.34 412.55 250.75C412.79 254.47 412.85 262.77 411.2 266.24C409.53 269.72 400.42 276.6 396.07 279.61L397.42 273.26C399.7 267.83 404.46 256.81 405.24 256.23Z" /><path fill-rule="evenodd" class="shp70" d="M381.78 110.77C381.73 117.16 382.66 117.72 382.86 127.48C381.67 131.67 381.02 137.24 379.97 132.44L376.69 124.99C369.62 100.58 373.78 93.6 374.82 93.64C378.22 100.23 381.82 105.66 381.78 110.77Z" /><path fill-rule="evenodd" class="shp71" d="M356.54 98.7C358.17 99.51 361.28 99.73 363.85 103.39C364.12 104.19 365.05 105.48 364.21 104.89C360.43 105.95 352.96 105.45 351.42 105.08C341.44 98.84 338.65 95.09 337.67 93.79C348.02 94.42 354.92 97.89 356.54 98.7Z" /><path fill-rule="evenodd" class="shp72" d="M346.53 79.18L345.71 79.78C364.04 100.96 386.34 139.22 396.49 182.88C406.63 226.5 403.66 276.14 369.71 321.8L372.31 323.74C406.97 277.14 409.96 226.45 399.65 182.15C389.36 137.88 365.14 100.67 346.53 79.18Z" /><path fill-rule="evenodd" class="shp73" d="M356.4 86.62L359.83 96.99L363.73 103.22C364.83 102.56 366.92 98.2 366.01 92.37C364.89 85.09 367.94 78.98 362.79 70.4L360.24 66.99L356.4 86.62Z" /><path fill-rule="evenodd" class="shp74" d="M363.33 102.6C361.99 97.54 360.85 91.88 361.51 89.39C362.24 86.66 361.16 76.1 360.17 67.32L360.24 66.99L362.79 70.4C366.2 76.09 366.01 80.69 365.82 85.25C365.73 87.58 365.63 89.9 366.01 92.37C366.92 98.2 364.83 102.56 363.73 103.22L363.33 102.6Z" /><path fill-rule="evenodd" class="shp75" d="M384.96 197.53C386.35 200.05 397.12 213.81 401.91 215.8C406.71 217.81 397.9 208.4 395.48 202.09C393.05 195.78 392.2 187.53 380.64 177.14L378.69 176.57C380.33 182.71 383.87 195.5 384.96 197.53Z" /><path fill-rule="evenodd" class="shp76" d="M401.57 215.65C397.69 211.05 392.9 204.17 390.84 198.95C388.65 193.37 382.97 183.85 378.92 177.43C378.85 177.13 378.77 176.84 378.69 176.57L380.64 177.14C390.11 185.65 392.39 192.73 394.24 198.48C394.65 199.75 395.04 200.95 395.48 202.09C396.5 204.74 398.63 207.93 400.42 210.59C402.9 214.28 404.7 216.97 401.91 215.8C401.8 215.75 401.69 215.71 401.57 215.65Z" /><path fill-rule="evenodd" class="shp77" d="M393.27 150.93C392.32 155.09 394.51 164.8 395.72 169.15C398.47 165.14 403.59 155.73 402.07 150.17C400.17 143.2 401.4 140.77 399.21 135.8C397.62 139.11 394.21 146.76 393.27 150.93Z" /><path fill-rule="evenodd" class="shp78" d="M395.72 169.15C394.51 164.8 392.32 155.09 393.26 150.93C393.3 150.79 393.32 150.65 393.36 150.5C395.43 153.69 397.92 158.36 399.13 163.26C397.97 165.63 396.69 167.73 395.72 169.15Z" /><path fill-rule="evenodd" class="shp79" d="M383.69 110.61C383.37 113.9 386.31 128.71 384.18 137.41L385.28 140.91C388.44 135.07 393.94 122.61 393.79 119.03C393.43 110.42 390.02 104.6 388.61 99.55C387.09 102.14 383.95 107.97 383.69 110.61Z" /><path fill-rule="evenodd" class="shp80" d="M370.19 135.97C375.5 139.29 380.92 140.62 382.96 140.86L380.38 134.68C372.83 124.59 369.83 126.33 360.53 120.34C361.53 124.17 364.86 132.64 370.19 135.97Z" /><path fill-rule="evenodd" class="shp81" d="M404.16 204.22L403.34 211.94C403.84 211.83 406.62 209.69 409.84 205.04C413.87 199.22 418.05 203.46 424.53 184.64C419.08 186.52 407.39 193.88 404.16 204.22Z" /><path fill-rule="evenodd" class="shp82" d="M408 182.54C406.62 185.1 403.27 201.33 403.31 204.09C403.34 206.31 403.83 208.87 404.07 209.87C406.54 204.81 412.16 193.81 414.86 190.36C418.23 186.06 420.6 176.66 422.76 163.61C418.31 169.07 409.11 180.49 408 182.54Z" /><path fill-rule="evenodd" class="shp83" d="M385.01 224.4C385.01 227.79 385.31 235.46 386.54 239.01C387.77 242.55 395.48 251.77 399.19 255.94L398.63 245.69C396.6 240.95 391.05 230.04 385.01 224.4Z" /><path fill-rule="evenodd" class="shp84" d="M407.92 220.44C407.39 223.13 405.5 239.27 403.87 241.51C402.57 243.29 403.41 245.08 404 245.74C406.93 243.45 413.29 237.14 415.21 230.22C417.14 223.29 415.52 214.67 414.46 211.23C412.46 213.4 408.34 218.3 407.92 220.44Z" /><path fill-rule="evenodd" class="shp85" d="M414.54 211.46C413.02 220.45 409.6 235.58 404.44 245.38C404.28 245.51 404.13 245.63 404 245.74C403.41 245.08 402.57 243.29 403.87 241.51C405.09 239.84 406.46 230.33 407.29 224.56C407.57 222.63 407.78 221.12 407.92 220.44C408.34 218.3 412.46 213.4 414.46 211.23C414.49 211.31 414.51 211.38 414.54 211.46Z" /><path fill-rule="evenodd" class="shp86" d="M408.29 281.37C410.21 281.77 415.13 278.53 417.35 276.86C414.39 275.27 407.5 272.71 403.67 275.18C399.83 277.65 396.32 279.84 395.06 280.62L395.54 282.29C399 281.82 406.37 280.98 408.29 281.37Z" /><path fill-rule="evenodd" class="shp87" d="M339.14 58.42C341.32 61.34 346.51 71.69 347.51 79.81L346.54 80.54C344.94 78.52 339.28 73.95 335.21 71.5C331.17 69.06 327.71 65.19 326.49 63.57L321.84 51.56C326.88 52.87 337.38 56.07 339.14 58.42Z" /><path fill-rule="evenodd" class="shp88" d="M322.35 51.69C322.18 51.65 322 51.61 321.84 51.56L326.5 63.57C327.71 65.19 331.17 69.06 335.22 71.5C339.28 73.95 344.9 78.81 346.5 80.83L346.37 79.65C343.73 73.59 330.39 59.54 322.35 51.69Z" /><g ><path fill-rule="evenodd" class="shp89" d="M354.08 90.13C354.8 90.81 359.29 96.98 363.21 102.34C356.82 100.69 345.2 96.89 342.22 93.44C339.23 89.98 335.35 83.93 334.73 81.53C346.61 83.03 353.37 89.44 354.08 90.13Z" /><path fill-rule="evenodd" class="shp90" d="M334.89 82.01C341.56 87.53 353.3 96.75 361.68 101.93C362.22 102.08 362.73 102.21 363.21 102.34C362.89 101.9 362.56 101.46 362.24 101.01C358.58 96.01 354.74 90.75 354.08 90.13C353.37 89.44 346.61 83.03 334.73 81.53C334.77 81.67 334.82 81.83 334.89 82.01Z" /></g><path fill-rule="evenodd" class="shp91" d="M380.82 133.58C379.44 131.06 375.01 101.36 374.82 97.7C374.74 96.33 374.82 95.01 374.95 93.89C375.63 95.18 376.28 96.38 376.9 97.51C379.39 102.05 381.38 105.66 381.78 110.77C381.76 113.81 381.96 115.54 382.19 117.58C382.45 119.79 382.76 122.39 382.86 127.49C382.59 128.45 382.34 129.49 382.12 130.46C381.74 132.02 381.41 133.41 381.09 134C381 133.88 380.91 133.75 380.82 133.58Z" /><path fill-rule="evenodd" class="shp92" d="M384.92 139.78C387.42 134.65 389.3 127.63 388.92 118.63C388.51 108.76 388.6 103.23 388.84 100.31C388.76 100.06 388.69 99.8 388.61 99.55C387.09 102.14 383.95 107.97 383.69 110.61C383.59 111.66 383.82 113.89 384.11 116.73C384.73 122.75 385.62 131.49 384.18 137.41L384.92 139.78Z" /><path fill-rule="evenodd" class="shp93" d="M382.66 140.83C382.77 140.85 382.88 140.85 382.97 140.86L380.38 134.68C375.31 127.9 372.29 126.47 368.04 124.44C365.98 123.45 363.63 122.33 360.6 120.38C365.08 125.86 374.51 136.05 382.66 140.83Z" /><g ><path fill-rule="evenodd" class="shp94" d="M367.67 135.32C380.33 135.17 385.48 142.54 386.61 146.77C385.8 147.04 385.82 146.78 383.48 147.34C374.99 149.35 363.89 142.28 359.34 135.71L367.67 135.32Z" /><path fill-rule="evenodd" class="shp95" d="M359.54 136C366.99 138.04 380.95 142.55 386.53 146.8C386.56 146.79 386.59 146.78 386.61 146.77C385.48 142.54 380.33 135.17 367.67 135.32L359.34 135.71C359.41 135.81 359.48 135.91 359.54 136Z" /></g><g ><path fill-rule="evenodd" class="shp96" d="M400.08 153.94C398.78 155.73 396.95 167.97 396.2 173.87L396.73 178.29C397.82 177.39 400.87 172.65 405.14 167.16C406.94 163.79 415.75 157.95 415.29 137.98C410.76 142.55 401.38 152.15 400.08 153.94Z" /><path fill-rule="evenodd" class="shp97" d="M397.03 178C397.68 177.3 398.74 175.84 400.13 173.91C401.5 172.01 403.2 169.67 405.14 167.16C405.49 166.51 406.1 165.77 406.85 164.84C409.97 161.02 415.59 154.17 415.29 138.29C408.63 148.93 397.79 168.32 397.03 178Z" /></g><path fill-rule="evenodd" class="shp98" d="M422.71 163.68C416.87 175.94 407.54 195.87 403.43 205.96C403.36 205.33 403.32 204.7 403.31 204.09C403.27 201.33 406.62 185.1 408 182.54C409.11 180.5 418.23 169.16 422.71 163.68Z" /><g ><path fill-rule="evenodd" class="shp99" d="M401.89 199.82C402.47 208.73 402.72 213.6 402.76 214.91C398.26 211.02 390.22 199.93 394.2 186.8L394.49 181.75C396.72 184.06 401.32 190.9 401.89 199.82Z" /><path fill-rule="evenodd" class="shp100" d="M402.57 214.74C401.7 213.47 400.69 211.98 399.53 210.23C399.06 195.05 396.9 186.47 394.54 181.81C396.79 184.18 401.32 190.98 401.89 199.82C402.47 208.73 402.72 213.6 402.76 214.91C402.71 214.86 402.64 214.8 402.57 214.74Z" /></g><path fill-rule="evenodd" class="shp101" d="M403.55 211.84C404.4 211.37 406.95 209.22 409.84 205.04C411.13 203.18 412.44 202.35 413.82 201.46C416.76 199.59 420.08 197.47 424.45 184.83C418.01 190.81 406.46 203.05 403.55 211.84Z" /><path class="shp62" d="M346.54 79.53C352.34 85.84 367.59 105.15 379.16 127.97C387.46 144.35 391.25 150.4 399.4 181.88C401.32 189.32 405.06 208.42 404.62 225.2C405.27 235.8 403.51 263.83 391.23 291.12C387.72 298.98 379 316.42 372.11 323.22" /><g ><path fill-rule="evenodd" class="shp102" d="M400.52 227.51C403.11 233.7 402.26 230.53 403.51 236.95L400.28 255.37C397.55 250.82 392.16 241.3 392.38 239.7C392.67 237.71 393.54 227.67 397.49 217.34C398.16 218.36 398.33 222.29 400.52 227.51Z" /><path fill-rule="evenodd" class="shp103" d="M397.08 218.44C396.69 228.63 396.93 246.91 400.36 254.94L403.51 236.95C402.9 233.77 402.79 232.94 402.52 232.16C402.26 231.37 401.83 230.64 400.52 227.51C399.2 224.36 398.61 221.69 398.21 219.83C397.95 218.61 397.76 217.75 397.49 217.34C397.34 217.71 397.21 218.07 397.08 218.44Z" /></g><g ><path fill-rule="evenodd" class="shp104" d="M415.25 229.93C412.45 234.06 406.28 242.25 403.54 245.82C405.74 246.04 410.98 245.88 414.46 243.48C417.94 241.07 420.82 239.31 421.82 238.72C424.23 234.03 428.82 224.33 427.85 223.03C424.82 223.61 418.05 225.8 415.25 229.93Z" /><path fill-rule="evenodd" class="shp105" d="M427.91 223.16C425.6 227.69 419.19 235.63 405.06 245.89C404.47 245.89 403.95 245.86 403.54 245.82C406.28 242.25 412.45 234.06 415.25 229.93C418.05 225.8 424.82 223.61 427.85 223.03C427.87 223.07 427.89 223.11 427.91 223.16Z" /></g><g ><path fill-rule="evenodd" class="shp106" d="M400.06 269C396.26 271.24 396.01 275 396.36 276.59C398.23 278.08 403.02 280.29 407.28 277.31C412.6 273.57 413.69 276.05 420.49 266.14C415.26 266.16 403.87 266.75 400.06 269Z" /><path fill-rule="evenodd" class="shp107" d="M396.29 276.13C396.3 276.31 396.32 276.46 396.36 276.59C397.7 277.66 400.56 279.11 403.66 278.72C404.49 278.47 405.34 278.21 406.21 277.94C406.56 277.77 406.93 277.56 407.28 277.3C408.9 276.16 410.13 275.6 411.24 275.09C413.79 273.94 415.75 273.04 420.43 266.21C415.76 266.9 406.98 269.46 396.29 276.13Z" /></g><path fill-rule="evenodd" class="shp108" d="M135.35 167.69C129.48 170.89 125.83 177.04 125.83 183.74L125.83 328.01C125.83 334.7 129.48 340.85 135.35 344.05L251.18 407.17C256.61 410.13 263.16 410.13 268.59 407.17L384.42 344.05C390.29 340.85 393.94 334.7 393.94 328.01L393.94 183.74C393.94 177.04 390.29 170.89 384.42 167.69L268.59 104.57C263.16 101.61 256.61 101.61 251.18 104.57L135.35 167.69Z" /><path fill-rule="evenodd" class="shp109" d="M155.69 180.15C149.84 183.34 146.21 189.47 146.21 196.14L146.21 315.06C146.21 321.73 149.84 327.86 155.69 331.05L251.05 383.01C256.46 385.96 262.99 385.96 268.4 383.01L363.76 331.05C369.61 327.86 373.24 321.73 373.24 315.06L373.24 196.14C373.24 189.47 369.61 183.34 363.76 180.15L268.4 128.19C262.99 125.25 256.46 125.25 251.05 128.19L155.69 180.15Z" /><path class="shp110" d="M155.69 180.15C149.84 183.34 146.21 189.47 146.21 196.14L146.21 315.06C146.21 321.73 149.84 327.86 155.69 331.05L251.05 383.01C256.46 385.96 262.99 385.96 268.4 383.01L363.76 331.05C369.61 327.86 373.24 321.73 373.24 315.06L373.24 196.14C373.24 189.47 369.61 183.34 363.76 180.15L268.4 128.19C262.99 125.25 256.46 125.25 251.05 128.19L155.69 180.15Z" /><g style="opacity: 0.502"><path fill-rule="evenodd" class="shp111" d="M164.88 186.22C159.32 189.25 155.86 195.08 155.86 201.43L155.86 310.2C155.86 316.54 159.32 322.37 164.88 325.41L252.17 372.93C257.32 375.73 263.53 375.73 268.67 372.93L355.96 325.41C361.52 322.37 364.99 316.54 364.99 310.2L364.99 201.43C364.99 195.08 361.52 189.25 355.96 186.22L268.67 138.7C263.53 135.9 257.32 135.9 252.17 138.7L164.88 186.22Z" /><g clip-path="url(#cp2)"><g ><g ><g ><path fill-rule="evenodd" class="shp112" d="M164.88 186.22C159.32 189.25 155.86 195.08 155.86 201.43L155.86 310.2C155.86 316.54 159.32 322.37 164.88 325.41L252.17 372.93C257.32 375.73 263.53 375.73 268.67 372.93L355.96 325.41C361.52 322.37 364.99 316.54 364.99 310.2L364.99 201.43C364.99 195.08 361.52 189.25 355.96 186.22L268.67 138.7C263.53 135.9 257.32 135.9 252.17 138.7L164.88 186.22Z" /><path fill-rule="evenodd" class="shp113" d="M242.94 382.22L277.9 382.22L282.05 129.4L238.78 129.4L242.94 382.22Z" /><path fill-rule="evenodd" class="shp114" d="M242.38 379.98L272.66 362.47L150.05 141.43L112.58 163.1L242.38 379.98Z" /><path fill-rule="evenodd" class="shp115" d="M238.77 362.47L269.06 379.98L398.85 163.1L361.38 141.43L238.77 362.47Z" /><path class="shp116" d="M155.85 241.36L364.99 241.36L364.99 377.41L155.85 377.41L155.85 241.36Z" /><path fill-rule="evenodd" class="shp117" d="M164.88 186.22C159.32 189.25 155.86 195.08 155.86 201.43L155.86 310.2C155.86 316.54 159.32 322.37 164.88 325.41L252.17 372.93C257.32 375.73 263.53 375.73 268.67 372.93L355.96 325.41C361.52 322.37 364.99 316.54 364.99 310.2L364.99 201.43C364.99 195.08 361.52 189.25 355.96 186.22L268.67 138.7C263.53 135.9 257.32 135.9 252.17 138.7L164.88 186.22Z" /></g></g></g></g></g><g ><path fill-rule="evenodd" class="shp117" d="M164.88 186.22C159.32 189.25 155.86 195.08 155.86 201.43L155.86 310.2C155.86 316.54 159.32 322.37 164.88 325.41L252.17 372.93C257.32 375.73 263.53 375.73 268.67 372.93L355.96 325.41C361.52 322.37 364.99 316.54 364.99 310.2L364.99 201.43C364.99 195.08 361.52 189.25 355.96 186.22L268.67 138.7C263.53 135.9 257.32 135.9 252.17 138.7L164.88 186.22Z" /><g clip-path="url(#cp3)"><g ><g ><g ><path fill-rule="evenodd" class="shp118" d="M260.96 170.2L260.96 141.72L239.51 141.72C246.66 147.45 260.96 161.17 260.96 170.2Z" /><path fill-rule="evenodd" class="shp119" d="M260.96 170.2L260.96 141.72L282.41 141.72C275.26 147.45 260.96 161.17 260.96 170.2Z" /><path class="shp120" d="M260.97 126.69L276 141.74L260.97 156.79L245.95 141.74L260.97 126.69Z" /><path fill-rule="evenodd" class="shp121" d="M275.84 141.59L276.15 141.89L260.97 157.09L245.79 141.89L246.1 141.59L260.97 156.48L275.84 141.59Z" /><g ><path fill-rule="evenodd" class="shp122" d="M251.84 139.03C254.52 137.61 261.92 135.61 270.07 139.03L279.19 144.41L279.19 133.13L242.73 133.13L242.73 143.88L251.84 139.03Z" /></g></g></g></g></g></g><g ><path fill-rule="evenodd" class="shp123" d="M386.71 253.81C394.3 249.69 405 239.05 419.83 218.87C473.02 146.53 461.29 72.99 448.76 45.26L391.31 168.02L374.93 207.17C382.82 216.8 389.92 233.65 386.71 253.81Z" /><path class="shp124" d="M387.91 252.02C390.39 232.72 383.64 216.58 376 207.02L392.15 168.43L448.74 47.52C460.81 76.34 470.87 147.87 419.08 218.33C405.31 237.05 395.2 247.42 387.91 252.02Z" /><path fill-rule="evenodd" class="shp125" d="M375.29 281.87C375.53 281.84 375.76 281.82 376 281.79C447.19 273.93 468.97 175.01 470.96 126.54L383.66 223.63C389.02 238.86 389.38 259.56 375.29 281.87Z" /><path class="shp126" d="M377.2 281.04C390.44 259.24 390.13 239.01 384.96 223.94L470.5 128.79C469.25 152.95 463.25 188.46 449.14 219.18C434.72 250.58 411.91 276.81 377.2 281.04Z" /><path fill-rule="evenodd" class="shp127" d="M421.51 234.91L386.32 264.09L388.33 256.29L421.51 234.91Z" /><path fill-rule="evenodd" class="shp128" d="M347.03 312.74C431.29 326.74 461.52 244.98 466.1 201.95L385.01 261.53C380.47 277.53 369.22 295.18 347.03 312.74Z" /><path class="shp129" d="M348.88 312.25C370.16 295.06 381.14 277.78 385.67 262.01L465.13 203.63C462.57 224.96 453.88 254.98 435.83 278.25C417.57 301.79 389.75 318.45 348.88 312.25Z" /><path fill-rule="evenodd" class="shp130" d="M425.42 269.21L371.7 288.61L375.52 282.39L425.42 269.21Z" /><path fill-rule="evenodd" class="shp131" d="M298.96 344.43C305.85 339.61 313.91 334.44 323.24 328.92C347.42 314.63 363.28 299.92 373.19 285.76L455.22 259.5C450.99 291.22 413.94 351.72 298.31 344.97L298.96 344.43Z" /><path class="shp132" d="M298.96 344.43C305.85 339.61 313.91 334.45 323.24 328.92C347.42 314.63 363.28 299.92 373.19 285.76L455.22 259.5" /><path fill-rule="evenodd" class="shp133" d="M376.12 325.25L343.29 315.12L348.78 310.99L376.12 325.25Z" /><path fill-rule="evenodd" class="shp134" d="M323.24 328.92C301.46 341.8 286.71 352.74 277.16 361.92C278.34 364.7 284.92 364.37 294.83 358.51C314.91 346.64 332.71 344.62 364.05 346.24C394.51 347.8 403.93 344.5 409.34 339.03C396.91 333.61 365.83 320.74 346.6 313.09C339.85 318.39 332.11 323.68 323.24 328.92Z" /><path class="shp135" d="M279.24 362.63C278.74 362.49 278.39 362.29 278.16 362.05C287.67 353.01 302.23 342.25 323.64 329.6C332.38 324.42 340.03 319.21 346.72 313.98C365.44 321.43 395 333.66 407.96 339.27C402.65 344.02 393 346.94 364.09 345.46C332.69 343.84 314.71 345.85 294.43 357.84C289.53 360.74 285.5 362.24 282.6 362.68C281.15 362.91 280.03 362.87 279.24 362.63Z" /><path class="shp136" d="M376.87 203.97C384.35 213.66 393.75 233.07 390.22 246.8" /><g ><path fill-rule="evenodd" class="shp137" d="M327.46 329.34C255.64 386.79 253.33 400.07 251.52 415.68C248.92 417.23 243.39 418.91 242.18 413.27C240.67 406.22 227.16 384.67 322.29 323.57C394.13 273.63 393.4 239.05 376.55 206.48C376.42 206.21 376.43 205.89 376.59 205.65C376.91 205.16 377.62 205.14 377.94 205.62C396.54 232.74 405.2 273.79 327.46 329.34Z" /><path fill-rule="evenodd" class="shp138" d="M327.46 329.34C250.14 384.58 242.7 407.67 251.52 415.68C248.92 417.23 243.39 418.91 242.18 413.27C240.67 406.22 227.16 384.67 322.29 323.57C399.54 273.95 397.2 237.3 376.63 206.49C376.44 206.22 376.44 205.87 376.62 205.61C376.92 205.14 377.61 205.12 377.92 205.59C396.53 232.7 405.23 273.76 327.46 329.34Z" /><path fill-rule="evenodd" class="shp139" d="M334.63 324.28C350.6 312.19 362.51 300.67 371.01 290.12C372.36 288.25 373.75 286.54 374.85 284.99C373.24 284.58 370.69 284.84 367.82 286.5C357.42 297.95 342.71 310.42 322.28 323.57C325.37 324.05 330.11 324.43 334.63 324.28Z" /><path class="shp140" d="M377.25 204.62L377.25 204.62C376.69 205.49 376.71 206.61 377.27 207.47C397.25 238.08 398.72 274.47 322.29 323.57C227.16 384.67 240.67 406.22 242.18 413.27C243.39 418.91 248.92 417.23 251.52 415.68" /><path class="shp141" d="M243.31 400.25C249.39 380.07 274.75 357.7 286.86 349.37C299.5 339.69 328.22 319.44 340.44 313.27" /></g></g><g ><path fill-rule="evenodd" class="shp142" d="M127.75 168.04L144.13 207.16C136.23 216.8 129.14 233.65 132.34 253.81C124.76 249.69 114.06 239.05 99.23 218.87C46.03 146.53 57.77 72.99 70.28 45.26L127.75 168.04Z" /><path class="shp143" d="M131.15 252.02C128.66 232.72 135.41 216.58 143.06 207.01L126.91 168.43L70.31 47.52C58.25 76.33 48.17 147.87 99.98 218.33C113.75 237.04 123.86 247.42 131.15 252.02Z" /><path fill-rule="evenodd" class="shp144" d="M135.38 223.63C130.04 238.86 129.67 259.56 143.77 281.87C143.53 281.84 143.3 281.82 143.06 281.79C71.86 273.93 50.09 175.01 48.1 126.54L135.38 223.63Z" /><path class="shp145" d="M141.84 281.03C128.62 259.24 128.92 239.01 134.09 223.94L48.56 128.79C49.81 152.95 55.81 188.46 69.92 219.18C84.34 250.58 107.14 276.81 141.84 281.03Z" /><path fill-rule="evenodd" class="shp146" d="M97.54 234.91L132.74 264.09L130.73 256.29L97.54 234.91Z" /><path fill-rule="evenodd" class="shp147" d="M134.05 261.53C138.59 277.53 149.83 295.18 172.03 312.74C87.77 326.74 57.54 244.98 52.95 201.95L134.05 261.53Z" /><path class="shp148" d="M170.16 312.25C148.9 295.06 137.92 277.78 133.38 262.01L53.92 203.63C56.48 224.96 65.18 254.98 83.22 278.25C101.48 301.79 129.31 318.45 170.16 312.25Z" /><path fill-rule="evenodd" class="shp149" d="M93.63 269.2L147.35 288.61L143.54 282.39L93.63 269.2Z" /><path fill-rule="evenodd" class="shp150" d="M220.1 344.43C213.2 339.61 205.15 334.44 195.81 328.92C171.64 314.63 155.77 299.92 145.86 285.76L63.83 259.5C68.05 291.22 105.11 351.72 220.75 344.97L220.1 344.43Z" /><path class="shp151" d="M220.1 344.43C213.19 339.61 205.15 334.44 195.81 328.92C171.64 314.63 155.77 299.92 145.86 285.76L63.82 259.5" /><path fill-rule="evenodd" class="shp152" d="M142.93 325.25L175.77 315.12L170.27 310.99L142.93 325.25Z" /><path fill-rule="evenodd" class="shp153" d="M195.81 328.92C217.6 341.8 232.34 352.74 241.9 361.92C240.71 364.7 234.14 364.37 224.23 358.51C204.14 346.63 186.34 344.62 155 346.23C124.54 347.8 115.13 344.5 109.72 339.03C122.15 333.61 153.23 320.74 172.46 313.08C179.2 318.39 186.95 323.68 195.81 328.92Z" /><path class="shp154" d="M239.81 362.63C240.32 362.49 240.67 362.29 240.9 362.05C231.39 353.01 216.82 342.25 195.42 329.59C186.68 324.42 179.02 319.21 172.34 313.98C153.61 321.43 124.06 333.66 111.1 339.27C116.41 344.01 126.06 346.94 154.96 345.46C186.35 343.84 204.34 345.85 224.62 357.84C229.53 360.74 233.55 362.24 236.45 362.68C237.9 362.91 239.02 362.87 239.81 362.63Z" /><path class="shp155" d="M142.19 203.97C134.71 213.66 125.31 233.07 128.84 246.8" /><g ><path fill-rule="evenodd" class="shp156" d="M191.6 329.34C263.42 386.79 265.73 400.07 267.53 415.68C270.14 417.23 275.67 418.91 276.88 413.27C278.39 406.22 291.89 384.67 196.76 323.57C124.93 273.63 125.66 239.05 142.5 206.48C142.63 206.21 142.62 205.89 142.46 205.65C142.14 205.16 141.44 205.14 141.1 205.62C122.52 232.74 113.86 273.79 191.6 329.34Z" /><path fill-rule="evenodd" class="shp157" d="M191.6 329.34C268.92 384.58 276.36 407.67 267.53 415.68C270.14 417.23 275.67 418.91 276.88 413.27C278.39 406.22 291.89 384.67 196.76 323.57C119.51 273.95 121.85 237.3 142.43 206.49C142.6 206.22 142.61 205.87 142.44 205.61C142.13 205.14 141.45 205.12 141.13 205.59C122.53 232.7 113.82 273.76 191.6 329.34Z" /><path fill-rule="evenodd" class="shp158" d="M184.42 324.28C168.45 312.19 156.54 300.67 148.04 290.12C146.69 288.25 145.31 286.54 144.2 284.99C145.81 284.58 148.37 284.84 151.24 286.5C161.64 297.96 176.34 310.42 196.76 323.57C193.69 324.05 188.94 324.43 184.42 324.28Z" /><path class="shp159" d="M141.8 204.62L141.8 204.62C142.36 205.49 142.34 206.61 141.78 207.47C121.81 238.08 120.33 274.47 196.76 323.57C291.89 384.67 278.39 406.22 276.88 413.27C275.67 418.91 270.14 417.23 267.53 415.68" /><path class="shp141" d="M275.75 400.25C269.67 380.07 244.31 357.7 232.2 349.37C219.56 339.69 190.83 319.44 178.61 313.27" /></g></g><g ><path fill-rule="evenodd" class="shp160" d="M261.33 413.83L261.33 413.95L261.15 413.88L260.98 413.95L260.98 413.83L233.09 403.35L260.98 357.85L260.98 357.91L260.98 357.85L288.87 403.35L261.33 413.83Z" /><g clip-path="url(#cp4)"><g ><g ><g ><path fill-rule="evenodd" class="shp161" d="M261.13 414.89L261.13 353.58L288.77 403.51L261.13 414.89Z" /><path fill-rule="evenodd" class="shp162" d="M261.13 414.89L261.13 353.58L233.5 403.51L261.13 414.89Z" /></g></g></g></g></g><path fill-rule="evenodd" class="shp163" d="M260.96 372.7L272.76 377L266.85 367.32L260.96 358.2L255.06 367.32L249.17 377L260.96 372.7Z" /><path fill-rule="evenodd" class="shp164" d="M260.88 358.32L249.17 377L260.88 372.73L260.88 358.32Z" /><path fill-rule="evenodd" class="shp165" d="M248.09 436.09L250.77 436.09L260.42 440.33L270.07 436.04L272.44 436.04L260.64 441.41C260.5 441.47 260.34 441.47 260.2 441.41L248.09 436.09Z" /></g><g ><path class="shp166" d="M134.28 81.45C130.65 81.45 127.72 78.51 127.72 74.88C127.72 71.24 130.65 68.31 134.28 68.31C137.91 68.31 140.84 71.24 140.84 74.88C140.84 78.51 137.91 81.45 134.28 81.45Z" /></g><g ><path class="shp166" d="M172.34 124.13C171.13 124.13 170.15 123.15 170.15 121.94C170.15 120.73 171.13 119.75 172.34 119.75C173.55 119.75 174.52 120.73 174.52 121.94C174.52 123.15 173.55 124.13 172.34 124.13Z" /></g><g style="opacity: 0.38"><path class="shp166" d="M383.42 65.33C382.22 65.33 381.24 64.36 381.24 63.14C381.24 61.93 382.22 60.95 383.42 60.95C384.63 60.95 385.61 61.93 385.61 63.14C385.61 64.36 384.63 65.33 383.42 65.33Z" /></g><g ><path class="shp166" d="M339.29 121.35C338.08 121.35 337.1 120.36 337.1 119.15C337.1 117.94 338.08 116.96 339.29 116.96C340.5 116.96 341.47 117.94 341.47 119.15C341.47 120.36 340.5 121.35 339.29 121.35Z" /></g><g ><path class="shp166" d="M167.89 74.22C167.08 74.22 166.42 73.55 166.42 72.74C166.42 71.93 167.08 71.27 167.89 71.27C168.7 71.27 169.36 71.93 169.36 72.74C169.36 73.55 168.7 74.22 167.89 74.22Z" /></g><g ><path class="shp167" d="M205.41 97.8C202.56 97.8 200.26 95.49 200.26 92.64C200.26 89.79 202.56 87.48 205.41 87.48C208.26 87.48 210.56 89.79 210.56 92.64C210.56 95.49 208.26 97.8 205.41 97.8Z" /></g><g ><path class="shp166" d="M353.13 140.19C350.31 140.19 348.03 137.91 348.03 135.09C348.03 132.26 350.31 129.97 353.13 129.97C355.96 129.97 358.24 132.26 358.24 135.09C358.24 137.91 355.96 140.19 353.13 140.19Z" /></g><g ><path class="shp168" d="M231.39 422.08C228.16 422.08 225.56 419.46 225.56 416.23C225.56 413 228.16 410.39 231.39 410.39C234.61 410.39 237.22 413 237.22 416.23C237.22 419.46 234.61 422.08 231.39 422.08Z" /></g><path fill-rule="evenodd" class="shp169" d="M293.84 241.39L266.08 289.57L467.81 416.95L504.84 352.71L293.84 241.39Z" /><path fill-rule="evenodd" class="shp170" d="M288.1 279.44L231.86 279.44L222.49 517.3L297.47 517.3L288.1 279.44Z" /><path fill-rule="evenodd" class="shp171" d="M254.64 289.08L226.86 240.91L13.88 353.37L50.91 417.62L254.64 289.08Z" /><path fill-rule="evenodd" class="shp172" d="M290.05 264.54L262.29 216.36L467.81 86.78L504.84 151.03L290.05 264.54Z" /><path fill-rule="evenodd" class="shp173" d="M257.64 216.39L229.88 264.58L13.88 150.37L50.91 86.12L257.64 216.39Z" /><path fill-rule="evenodd" class="shp174" d="M28.62 238.37C28.62 365.3 131.34 468.19 258.06 468.19L258.06 471.75C129.39 471.75 25.08 367.26 25.08 238.37C25.08 109.48 129.39 5 258.06 5L258.06 8.54C131.34 8.54 28.62 111.45 28.62 238.37Z" /><path fill-rule="evenodd" class="shp175" d="M34.35 238.37C34.35 365.3 132.77 468.19 259.49 468.19L259.49 471.75C130.82 471.75 22.22 367.26 22.22 238.37C22.22 109.48 130.82 5 259.49 5L259.49 8.54C132.77 8.54 34.35 111.45 34.35 238.37Z" /><path fill-rule="evenodd" class="shp176" d="M490.71 238.37C490.71 365.3 387.99 468.19 261.28 468.19L261.28 471.74C389.94 471.74 494.24 367.26 494.24 238.37C494.24 109.48 389.94 5 261.28 5L261.28 8.54C387.99 8.54 490.71 111.45 490.71 238.37Z" /><path fill-rule="evenodd" class="shp177" d="M484.99 238.37C484.99 365.3 386.56 468.19 259.85 468.19L259.85 471.75C388.51 471.75 497.11 367.26 497.11 238.37C497.11 109.48 388.51 5 259.85 5L259.85 8.54C386.56 8.54 484.99 111.45 484.99 238.37Z" /><g ><path fill-rule="evenodd" class="shp178" d="M271.45 274.96L271.45 315.55L250.12 315.55L250.12 274.96L271.45 274.96Z" /><path fill-rule="evenodd" class="shp179" d="M271.45 274.96L271.45 315.55L265.05 315.55L265.05 274.96L271.45 274.96Z" /><path class="shp180" d="M241.59 313.41C234.54 313.41 228.8 319.18 228.8 326.23L292.78 326.23C292.78 319.18 287.02 313.41 279.99 313.41L241.59 313.41Z" /><path class="shp181" d="M269.32 313.41C276.35 313.41 282.11 319.18 282.11 326.23L292.78 326.23C292.78 319.18 287.02 313.41 279.99 313.41L269.32 313.41Z" /><path class="shp180" d="M249.91 292.05C244.15 292.05 239.46 287.34 239.46 281.57L239.46 279.22L282.11 279.22L282.11 281.57C282.11 287.34 277.42 292.05 271.66 292.05L249.91 292.05Z" /><path class="shp181" d="M273.58 281.57C273.58 287.34 271.03 292.05 265.27 292.05L271.66 292.05C277.42 292.05 282.11 287.34 282.11 281.57L282.11 279.22L273.58 279.22L273.58 281.57Z" /><path class="shp178" d="M224.53 326.23C224.53 323.89 226.44 321.96 228.8 321.96L292.78 321.96C295.13 321.96 297.05 323.89 297.05 326.23L224.53 326.23Z" /><path class="shp179" d="M282.11 321.96C284.46 321.96 286.38 323.89 286.38 326.23L297.05 326.23C297.05 323.89 295.13 321.96 292.78 321.96L282.11 321.96Z" /><path class="shp182" d="M235.19 274.96L235.19 281.36C235.19 283.71 237.11 285.64 239.46 285.64L282.11 285.64C284.46 285.64 286.38 283.71 286.38 281.36L286.38 274.96L235.19 274.96Z" /><path class="shp178" d="M235.19 274.96L235.19 281.36C235.19 283.71 237.11 285.64 239.46 285.64L282.11 285.64C284.46 285.64 286.38 283.71 286.38 281.36L286.38 274.96L235.19 274.96Z" /><path class="shp179" d="M271.45 281.36C273.58 281.36 273.79 285.64 271.45 285.64L282.11 285.64C284.46 285.64 286.38 283.71 286.38 281.36L286.38 274.96L275.72 274.96L271.45 281.36Z" /><path class="shp183" d="M290.65 206.59L331.18 206.59L331.18 208.72C331.18 231.15 313.04 249.31 290.65 249.31" /><path class="shp184" d="M230.92 206.59L190.4 206.59L190.4 208.72C190.4 231.15 208.53 249.31 230.92 249.31" /><path class="shp180" d="M242.66 281.36C229.01 281.36 218.12 270.47 218.12 256.8L218.12 189.49L303.44 189.49L303.44 256.8C303.44 270.47 292.56 281.36 278.91 281.36L242.66 281.36Z" /><path class="shp185" d="M230.92 195.9C230.92 195.9 230.92 232.22 230.92 238.63" /><path class="shp181" d="M293.63 256.9C293.63 270.52 283.82 281.37 271.52 281.37L281.13 281.37C293.43 281.37 303.24 270.52 303.24 256.9L303.24 189.89L293.63 189.89L293.63 256.9Z" /><path class="shp178" d="M211.73 189.49L218.12 195.9L303.44 195.9L309.84 189.49L211.73 189.49Z" /><path class="shp179" d="M293.63 195.67L303.85 195.67L309.97 188.93L297.71 188.93L293.63 195.67Z" /><path class="shp180" d="M209.6 180.94C207.25 180.94 205.33 182.87 205.33 185.22C205.33 187.57 207.25 189.49 209.6 189.49L311.98 189.49C314.32 189.49 316.24 187.57 316.24 185.22C316.24 182.87 314.32 180.94 311.98 180.94L209.6 180.94Z" /><path class="shp186" d="M299.17 180.94C301.52 180.94 303.44 182.87 303.44 185.22C303.44 187.57 301.52 189.49 299.17 189.49L311.98 189.49C314.32 189.49 316.24 187.57 316.24 185.22C316.24 182.87 314.32 180.94 311.98 180.94L299.17 180.94Z" /><path class="shp185" d="M230.92 248.03L230.92 252.94" /></g></g></g></g></g></svg>