<svg width="285" height="252" viewBox="0 0 285 252" fill="none" xmlns="http://www.w3.org/2000/svg">
	<g opacity="0.9">
		<g opacity="0.5" filter="url(#filter0_f_57_1598)">
			<path opacity="0.5" d="M113.306 60.3492C110.39 62.0643 106.636 61.0907 104.921 58.1745C103.206 55.2583 104.179 51.5039 107.096 49.7888C110.012 48.0737 113.766 49.0473 115.481 51.9635C117.196 54.8797 116.223 58.6341 113.306 60.3492Z" fill="url(#paint0_radial_57_1598)" />
		</g>
		<g opacity="0.9" filter="url(#filter1_f_57_1598)">
			<path opacity="0.9" fill-rule="evenodd" clip-rule="evenodd" d="M201.832 208.852C159.547 233.721 105.108 219.603 80.239 177.318C55.37 135.033 69.488 80.594 111.773 55.725C154.058 30.856 208.497 44.974 233.366 87.259C258.235 129.544 244.117 183.983 201.832 208.852ZM202.867 210.612C159.61 236.053 103.92 221.61 78.479 178.353C53.038 135.097 67.481 79.406 110.738 53.965C153.995 28.524 209.685 42.967 235.126 86.224C260.567 129.481 246.124 185.171 202.867 210.612Z" fill="url(#paint1_linear_57_1598)" />
		</g>
		<path opacity="0.9" fill-rule="evenodd" clip-rule="evenodd" d="M201.832 208.852C159.547 233.721 105.108 219.603 80.239 177.318C55.37 135.033 69.488 80.594 111.773 55.725C154.058 30.856 208.497 44.974 233.366 87.259C258.235 129.544 244.117 183.983 201.832 208.852ZM202.867 210.612C159.61 236.053 103.92 221.61 78.479 178.353C53.038 135.097 67.481 79.406 110.738 53.965C153.995 28.524 209.685 42.967 235.126 86.224C260.567 129.481 246.124 185.171 202.867 210.612Z" fill="url(#paint2_linear_57_1598)" />
		<g opacity="0.9" filter="url(#filter2_f_57_1598)">
			<path opacity="0.9" d="M101.921 40.871L107.212 54.148L97.038 62.831L109.571 58.159L118.603 69.236L113.312 55.96L123.486 47.276L110.952 51.948L101.921 40.871Z" fill="white" />
		</g>
		<path opacity="0.9" d="M150.451 102.321L114.415 34.344L90.972 48.132L132.869 112.662L150.451 102.321Z" fill="url(#paint3_linear_57_1598)" />
		<path opacity="0.9" d="M134.168 137.39L93.233 202.64L116.877 216.018L151.902 147.423L134.168 137.39Z" fill="url(#paint4_linear_57_1598)" />
		<path opacity="0.9" d="M154.059 147.737L190.095 215.714L213.538 201.926L171.642 137.396L154.059 147.737Z" fill="url(#paint5_linear_57_1598)" />
		<path opacity="0.9" d="M172.01 135.882L248.981 138.609L248.78 111.443L171.859 115.507L172.01 135.882Z" fill="url(#paint6_linear_57_1598)" />
		<path opacity="0.9" d="M132.725 134.934L55.805 138.999L55.604 111.833L132.575 114.56L132.725 134.934Z" fill="url(#paint7_linear_57_1598)" />
		<path opacity="0.9" d="M152.435 102.595L187.459 34L211.103 47.378L170.168 112.629L152.435 102.595Z" fill="url(#paint8_linear_57_1598)" />
		<g opacity="0.9" filter="url(#filter3_dd_57_1598)">
			<path opacity="0.9" d="M193.454 143.831L214.906 131.215L227.901 153.31L220.224 164.802L212.405 176.053L193.454 143.831Z" fill="#063988" />
			<g opacity="0.8" filter="url(#filter4_f_57_1598)">
				<path opacity="0.8" d="M220.398 140.334L215.84 132.585L200.512 155.598L205.55 164.164L220.398 140.334Z" fill="#0E3060" />
			</g>
			<g opacity="0.9" filter="url(#filter5_f_57_1598)">
				<path opacity="0.9" d="M208.789 169.671L217.802 144.333L219.121 146.576L213.227 177.217L208.789 169.671Z" fill="url(#paint9_linear_57_1598)" />
			</g>
			<path opacity="0.9" d="M123.999 67.792L178.992 65.919C182.98 65.783 186.722 67.84 188.745 71.279L219.244 123.137C221.267 126.576 221.246 130.847 219.189 134.266L190.826 181.417C188.925 184.577 185.554 186.559 181.869 186.685L126.877 188.558C122.889 188.694 119.147 186.637 117.124 183.198L86.624 131.34C84.601 127.9 84.623 123.63 86.679 120.211L115.043 73.06C116.943 69.9 120.314 67.918 123.999 67.792Z" fill="url(#paint10_linear_57_1598)" />
			<path opacity="0.9" d="M129.318 76.729L174.035 75.206C178.008 75.07 181.736 77.12 183.752 80.546L208.598 122.792C210.613 126.218 210.592 130.472 208.543 133.879L185.479 172.22C183.585 175.368 180.227 177.343 176.556 177.468L131.838 178.991C127.865 179.127 124.137 177.078 122.122 173.651L97.276 131.406C95.261 127.979 95.282 123.725 97.331 120.318L120.395 81.977C122.288 78.83 125.646 76.854 129.318 76.729Z" fill="url(#paint11_linear_57_1598)" />
			<g opacity="0.9" filter="url(#filter6_f_57_1598)">
				<path opacity="0.9" d="M129.318 76.729L174.035 75.206C178.008 75.07 181.736 77.12 183.752 80.546L208.598 122.792C210.613 126.218 210.592 130.472 208.543 133.879L185.479 172.22C183.585 175.368 180.227 177.343 176.556 177.468L131.838 178.991C127.865 179.127 124.137 177.078 122.122 173.651L97.276 131.406C95.261 127.979 95.282 123.725 97.331 120.318L120.395 81.977C122.288 78.83 125.646 76.854 129.318 76.729Z" stroke="url(#paint12_linear_57_1598)" stroke-width="0.640285" />
			</g>
			<g opacity="0.5">
				<mask id="mask0_57_1598" style="mask-type:alpha" maskUnits="userSpaceOnUse" x="100" y="79" width="106" height="97">
					<g opacity="0.5">
						<path opacity="0.5" d="M131.156 80.973L171.966 79.568C175.746 79.437 179.295 81.387 181.212 84.647L203.873 123.177C205.79 126.437 205.769 130.486 203.818 133.726L182.757 168.709C180.956 171.7 177.764 173.578 174.275 173.698L133.465 175.104C129.684 175.234 126.136 173.284 124.219 170.024L101.558 131.494C99.64 128.234 99.661 124.185 101.612 120.945L122.674 85.962C124.475 82.9711 127.667 81.093 131.156 80.973Z" fill="#A6D3DE" />
					</g>
				</mask>
				<g mask="url(#mask0_57_1598)">
					<g opacity="0.5">
						<path opacity="0.5" d="M131.156 80.973L171.966 79.568C175.746 79.437 179.295 81.387 181.212 84.647L203.873 123.177C205.79 126.437 205.769 130.486 203.818 133.726L182.757 168.709C180.956 171.7 177.764 173.578 174.275 173.698L133.465 175.104C129.684 175.234 126.136 173.284 124.219 170.024L101.558 131.494C99.64 128.234 99.661 124.185 101.612 120.945L122.674 85.962C124.475 82.9711 127.667 81.093 131.156 80.973Z" fill="url(#paint13_radial_57_1598)" />
						<path opacity="0.5" d="M187.602 171.413L132.728 74.491L116.248 84.184L174.286 179.245L187.602 171.413Z" fill="url(#paint14_linear_57_1598)" />
						<path opacity="0.5" d="M187.313 170.436L188.323 59.019L169.211 59.185L171.871 170.57L187.313 170.436Z" fill="url(#paint15_linear_57_1598)" />
						<path opacity="0.5" d="M184.776 162.98L88.722 106.524L79.289 123.145L177.154 176.411L184.776 162.98Z" fill="url(#paint16_linear_57_1598)" />
						<path opacity="0.5" d="M109.661 145.271L189.315 98.4241L219.694 150.077L140.039 196.924L109.661 145.271Z" fill="url(#paint17_linear_57_1598)" />
						<g opacity="0.5" filter="url(#filter7_i_57_1598)">
							<path opacity="0.5" d="M131.156 80.973L171.966 79.568C175.746 79.437 179.295 81.387 181.212 84.647L203.873 123.177C205.79 126.437 205.769 130.486 203.818 133.726L182.757 168.709C180.956 171.7 177.764 173.578 174.275 173.698L133.465 175.104C129.684 175.234 126.136 173.284 124.219 170.024L101.558 131.494C99.64 128.234 99.661 124.185 101.612 120.945L122.674 85.962C124.475 82.9711 127.667 81.093 131.156 80.973Z" fill="#6052B4" fill-opacity="0.01" />
						</g>
					</g>
				</g>
			</g>
			<g opacity="0.9" filter="url(#filter8_d_57_1598)">
				<path opacity="0.9" d="M82.175 150.585L102.375 152.016L105.194 155.025L82.175 150.585Z" fill="url(#paint18_linear_57_1598)" />
				<g opacity="0.9" filter="url(#filter9_d_57_1598)">
					<path opacity="0.9" fill-rule="evenodd" clip-rule="evenodd" d="M134.831 167.196C120.523 164.774 111.126 159.62 105.157 153.556L54 146.768C66.622 164.963 100.309 194.233 134.831 167.196Z" fill="url(#paint19_linear_57_1598)" />
				</g>
				<path opacity="0.9" d="M104.905 154.062L55.154 147.46C61.563 156.354 72.742 167.511 86.419 173.447C100.312 179.476 116.782 180.127 133.534 167.513C119.913 165.012 110.802 159.992 104.905 154.062Z" stroke="url(#paint20_linear_57_1598)" stroke-width="1.07665" />
				<path opacity="0.9" fill-rule="evenodd" clip-rule="evenodd" d="M116.354 161.535C124.305 165.479 135.091 168.201 149.553 168.669C155.269 168.853 160.277 169.205 164.653 169.692C114.239 201.171 82.711 183.127 73.026 169.93L116.354 161.535Z" fill="url(#paint21_linear_57_1598)" />
				<path opacity="0.9" d="M164.263 169.589C159.971 169.122 155.078 168.784 149.514 168.605C135.117 168.139 124.363 165.439 116.422 161.523L73.026 169.932" stroke="url(#paint22_linear_57_1598)" stroke-width="1.07665" />
				<path opacity="0.9" fill-rule="evenodd" clip-rule="evenodd" d="M135.111 167.243C139.45 167.964 144.237 168.435 149.514 168.605C162.489 169.024 171.815 170.302 178.375 172.076C178.521 173.615 175.479 175.085 169.578 174.894C157.616 174.507 149.102 177.986 135.379 186.427C122.045 194.629 116.994 195.469 113.214 194.343C117.481 188.848 128.325 175.416 135.111 167.243Z" fill="url(#paint23_linear_57_1598)" />
				<path opacity="0.9" d="M149.497 169.143C144.322 168.976 139.612 168.521 135.328 167.824C128.791 175.705 118.663 188.244 114.146 194.023C117.629 194.739 122.701 193.593 135.097 185.968C148.853 177.507 157.477 173.964 169.595 174.356C172.507 174.45 174.668 174.132 176.061 173.628C176.759 173.375 177.232 173.087 177.514 172.809C177.637 172.688 177.718 172.575 177.769 172.472C171.289 170.777 162.143 169.552 149.497 169.143Z" stroke="url(#paint24_linear_57_1598)" stroke-width="1.07665" />
				<path opacity="0.9" d="M145.768 168.553C121.078 168.277 107.881 157.351 102.22 152.07C102.458 151.931 102.862 151.704 103.072 151.888C110.246 158.193 119.75 165.678 142.853 167.397C164.842 167.859 182.238 171.553 187.72 174.176L187.468 176.556C179.854 174.018 182.35 173.826 145.768 168.553Z" fill="url(#paint25_linear_57_1598)" />
				<path opacity="0.9" d="M146.046 169.029C121.323 168.262 107.88 157.353 102.219 152.072C102.457 151.932 102.624 151.846 102.833 152.03C109.1 157.536 121.635 166.803 147.289 167.341C169.278 167.802 182.851 171.513 188.333 174.135L188.833 176.073C185.175 173.654 170.736 169.305 146.046 169.029Z" fill="#C4C4C4" />
				<path opacity="0.9" fill-rule="evenodd" clip-rule="evenodd" d="M147.294 167.065C121.719 166.528 109.244 157.296 103.014 151.822L102.65 152.235C108.955 157.775 121.55 167.075 147.282 167.615C169.249 168.076 182.779 171.783 188.212 174.382L188.45 173.886C182.92 171.24 169.304 167.527 147.294 167.065Z" fill="url(#paint26_linear_57_1598)" />
			</g>
			<g opacity="0.9" filter="url(#filter10_d_57_1598)">
				<path opacity="0.9" d="M207.076 77.129L198.509 95.479L199.77 99.405L207.076 77.129Z" fill="url(#paint27_linear_57_1598)" />
				<g opacity="0.9" filter="url(#filter11_d_57_1598)">
					<path opacity="0.9" fill-rule="evenodd" clip-rule="evenodd" d="M196.001 131.219C200.836 117.537 200.898 106.82 198.499 98.657L217.428 50.648C227.195 70.522 236.405 114.187 196.001 131.219Z" fill="url(#paint28_linear_57_1598)" />
				</g>
				<path opacity="0.9" d="M199.066 98.683L217.477 51.991C222.136 61.915 226.454 77.109 224.995 91.949C223.513 107.022 216.076 121.734 196.907 130.244C201.343 117.124 201.384 106.72 199.066 98.683Z" stroke="url(#paint29_linear_57_1598)" stroke-width="1.07354" />
				<path opacity="0.9" d="M218.146 90.892L200.082 110.275L200.126 114.015L218.146 90.892Z" fill="url(#paint30_linear_57_1598)" />
				<g opacity="0.9" filter="url(#filter12_d_57_1598)">
					<path opacity="0.9" fill-rule="evenodd" clip-rule="evenodd" d="M200.033 112.322C199.617 121.187 196.753 131.937 190.134 144.802C187.517 149.889 185.39 154.437 183.689 158.499C235.7 129.738 235.253 93.415 228.426 78.536L200.033 112.322Z" fill="url(#paint31_linear_57_1598)" />
				</g>
				<path opacity="0.9" d="M183.791 158.104C185.469 154.126 187.551 149.686 190.098 144.736C196.688 131.927 199.555 121.216 199.992 112.373L228.431 78.533" stroke="url(#paint32_linear_57_1598)" stroke-width="1.07354" />
				<path opacity="0.9" d="M212.053 128.662L196.286 129.979L195.029 133.271L212.053 128.662Z" fill="url(#paint33_linear_57_1598)" />
				<path opacity="0.9" fill-rule="evenodd" clip-rule="evenodd" d="M195.907 131.485C194.428 135.628 192.513 140.04 190.098 144.735C184.159 156.278 180.743 165.05 179.105 171.645C180.379 172.521 183.142 170.576 185.843 165.326C191.319 154.684 198.497 148.934 212.542 141.043C226.191 133.375 229.381 129.369 230.233 125.519C223.357 126.577 206.348 129.527 195.907 131.485Z" fill="url(#paint34_linear_57_1598)" />
				<path opacity="0.9" d="M190.575 144.981C192.944 140.376 194.835 136.038 196.308 131.956C206.374 130.072 222.258 127.314 229.503 126.176C228.437 129.569 224.971 133.445 212.28 140.575C198.2 148.485 190.913 154.3 185.366 165.08C184.033 167.671 182.705 169.405 181.587 170.378C181.027 170.865 180.545 171.139 180.164 171.251C179.998 171.3 179.859 171.316 179.743 171.31C181.411 164.822 184.786 156.233 190.575 144.981Z" stroke="url(#paint35_linear_57_1598)" stroke-width="1.07354" />
				<g opacity="0.9" filter="url(#filter13_d_57_1598)">
					<path opacity="0.9" d="M191.873 141.436C203.631 119.724 200.495 102.881 198.631 95.367C198.394 95.506 198 95.75 198.059 96.022C200.081 105.356 202.004 117.3 192.28 138.327C181.996 157.769 176.771 174.768 176.399 180.833L178.601 181.77C180.084 173.882 178.703 175.97 191.873 141.436Z" fill="url(#paint36_linear_57_1598)" />
					<path opacity="0.9" d="M192.149 141.912C203.494 119.932 200.493 102.882 198.629 95.368C198.392 95.507 198.235 95.611 198.294 95.884C200.06 104.037 202.067 119.496 190.07 142.178C179.787 161.619 176.433 175.285 176.061 181.35L177.511 182.729C177.175 178.356 180.391 163.624 192.149 141.912Z" fill="#C4C4C4" />
					<path opacity="0.9" fill-rule="evenodd" clip-rule="evenodd" d="M189.826 142.048C201.787 119.435 199.78 104.046 198.024 95.941L198.562 95.824C200.34 104.026 202.346 119.553 190.313 142.305C180.039 161.727 176.704 175.354 176.335 181.365L175.786 181.332C176.161 175.213 179.533 161.508 189.826 142.048Z" fill="url(#paint37_linear_57_1598)" />
					<path opacity="0.9" fill-rule="evenodd" clip-rule="evenodd" d="M197.389 129.262C196.141 133.253 194.438 137.481 192.152 141.909C190.384 145.174 188.809 148.282 187.41 151.22L185.731 150.89C187.018 148.132 188.46 145.224 190.073 142.175C192.264 138.033 193.988 134.132 195.331 130.473L197.389 129.262Z" fill="url(#paint38_linear_57_1598)" />
				</g>
			</g>
		</g>
		<g opacity="0.9" filter="url(#filter14_d_57_1598)">
			<path opacity="0.9" d="M152.398 136.722L160.902 131.72L170.406 147.879L161.901 152.881L152.398 136.722Z" fill="#D4D5DE" />
			<path opacity="0.2" d="M152.397 136.72L154.949 135.22L164.452 151.379L161.901 152.879L152.397 136.72Z" fill="#A0A2B5" />
			<path opacity="0.9" d="M157.997 154.029L173.306 145.026C176.112 143.375 179.759 144.321 181.41 147.127L155.896 162.133C154.245 159.326 155.191 155.68 157.997 154.029Z" fill="#EFEFEF" />
			<path opacity="0.9" d="M156.313 143.574L164.988 138.472C167.284 137.121 168.055 134.15 166.704 131.854L166.154 130.918L149.145 140.922L149.695 141.857C151.046 144.154 154.017 144.924 156.313 143.574Z" fill="#EFEFEF" />
			<path opacity="0.9" d="M152.547 138.922L153.097 139.857C154.448 142.153 156.568 143.424 158.865 142.074L156.313 143.574C154.017 144.925 151.046 144.154 149.695 141.858L149.145 140.922L152.547 138.922Z" fill="#D1D3DD" />
			<path opacity="0.9" d="M154.196 163.134L183.112 146.128C182.562 145.192 181.346 144.877 180.411 145.427L154.897 160.433C153.961 160.983 153.646 162.199 154.196 163.134Z" fill="#D4D5DE" />
			<path opacity="0.9" d="M146.445 140.22L166.856 128.216L168.356 130.767C168.907 131.703 168.591 132.918 167.656 133.469L150.646 143.472C149.711 144.023 148.495 143.707 147.945 142.772L146.445 140.22Z" fill="#F9A74E" />
			<path opacity="0.9" d="M146.445 140.22L166.856 128.216L168.356 130.767C168.907 131.703 168.591 132.918 167.656 133.469L150.646 143.472C149.711 144.023 148.495 143.707 147.945 142.772L146.445 140.22Z" fill="#D4D5DE" />
			<path opacity="0.2" d="M150.695 137.721L153.896 139.272C153.046 139.772 153.961 141.523 154.897 140.973L150.644 143.474C149.709 144.024 148.493 143.709 147.943 142.774L146.443 140.222L150.695 137.721Z" fill="#A0A2B5" />
			<path opacity="0.9" d="M128.736 114.008L112.577 123.512L113.077 124.362C118.329 133.292 129.81 136.269 138.739 131.017" stroke="#CACBD6" stroke-width="4.76959" stroke-miterlimit="10" stroke-linecap="round" stroke-linejoin="round" />
			<path opacity="0.9" d="M152.55 100.002L168.709 90.498L169.209 91.349C174.461 100.279 171.484 111.759 162.554 117.011" stroke="#D1D3DD" stroke-width="4.76959" stroke-miterlimit="10" stroke-linecap="round" stroke-linejoin="round" />
			<path opacity="0.9" d="M150.921 141.023L165.378 132.52C170.821 129.318 172.608 122.43 169.407 116.987L153.651 90.197L119.632 110.205L135.388 136.995C138.589 142.438 145.478 144.224 150.921 141.023Z" fill="#EFEFEF" />
			<path opacity="0.3" d="M150.049 95.75C150.049 95.75 158.552 110.208 160.052 112.759" stroke="white" stroke-width="2.3848" stroke-miterlimit="10" stroke-linecap="round" stroke-linejoin="round" />
			<path opacity="0.9" d="M123.64 108.061L139.329 134.737C142.516 140.157 148.966 142.176 153.872 139.29L150.039 141.545C145.133 144.43 138.683 142.411 135.496 136.991L119.807 110.316L123.64 108.061Z" fill="#D1D3DD" />
			<path opacity="0.9" d="M117.081 111.705L156.202 88.696L155.151 92.748L121.133 112.756L117.081 111.705Z" fill="#D4D5DE" />
			<path opacity="0.2" d="M121.786 108.637L124.993 110.362L120.92 112.757L116.899 111.511L121.786 108.637Z" fill="#A0A2B5" />
			<path opacity="0.9" d="M114.23 108.803L155.052 84.794C155.987 84.244 157.203 84.56 157.753 85.495C158.303 86.431 157.988 87.646 157.053 88.196L116.23 112.205C115.295 112.756 114.079 112.44 113.529 111.505C112.979 110.569 113.294 109.354 114.23 108.803Z" fill="#EFEFEF" />
			<path opacity="0.9" d="M114.232 108.804L119.334 105.803C118.399 106.353 118.084 107.569 118.634 108.504C119.184 109.44 120.4 109.755 121.335 109.205L116.232 112.206C115.297 112.756 114.081 112.441 113.531 111.505C112.981 110.57 113.296 109.354 114.232 108.804Z" fill="#D1D3DD" />
			<path opacity="0.3" d="M162.254 116.501L163.405 118.457" stroke="white" stroke-width="2.3848" stroke-miterlimit="10" stroke-linecap="round" stroke-linejoin="round" />
		</g>
	</g>
	<defs>
		<filter id="filter0_f_57_1598" x="100.424" y="45.2921" width="19.5538" height="19.5538" filterUnits="userSpaceOnUse" color-interpolation-filters="sRGB">
			<feFlood flood-opacity="0" result="BackgroundImageFix" />
			<feBlend mode="normal" in="SourceGraphic" in2="BackgroundImageFix" result="shape" />
			<feGaussianBlur stdDeviation="1.82509" result="effect1_foregroundBlur_57_1598" />
		</filter>
		<filter id="filter1_f_57_1598" x="47.6716" y="23.1576" width="218.262" height="218.262" filterUnits="userSpaceOnUse" color-interpolation-filters="sRGB">
			<feFlood flood-opacity="0" result="BackgroundImageFix" />
			<feBlend mode="normal" in="SourceGraphic" in2="BackgroundImageFix" result="shape" />
			<feGaussianBlur stdDeviation="9.12545" result="effect1_foregroundBlur_57_1598" />
		</filter>
		<filter id="filter2_f_57_1598" x="95.9429" y="39.7759" width="28.6381" height="30.5551" filterUnits="userSpaceOnUse" color-interpolation-filters="sRGB">
			<feFlood flood-opacity="0" result="BackgroundImageFix" />
			<feBlend mode="normal" in="SourceGraphic" in2="BackgroundImageFix" result="shape" />
			<feGaussianBlur stdDeviation="0.547527" result="effect1_foregroundBlur_57_1598" />
		</filter>
		<filter id="filter3_dd_57_1598" x="0.763809" y="0.960985" width="284.114" height="250.554" filterUnits="userSpaceOnUse" color-interpolation-filters="sRGB">
			<feFlood flood-opacity="0" result="BackgroundImageFix" />
			<feColorMatrix in="SourceAlpha" type="matrix" values="0 0 0 0 0 0 0 0 0 0 0 0 0 0 0 0 0 0 127 0" result="hardAlpha" />
			<feOffset />
			<feGaussianBlur stdDeviation="8.87062" />
			<feColorMatrix type="matrix" values="0 0 0 0 0.558594 0 0 0 0 0.710156 0 0 0 0 0.9375 0 0 0 1 0" />
			<feBlend mode="normal" in2="BackgroundImageFix" result="effect1_dropShadow_57_1598" />
			<feColorMatrix in="SourceAlpha" type="matrix" values="0 0 0 0 0 0 0 0 0 0 0 0 0 0 0 0 0 0 127 0" result="hardAlpha" />
			<feOffset dy="3.54825" />
			<feGaussianBlur stdDeviation="26.6119" />
			<feColorMatrix type="matrix" values="0 0 0 0 0.670833 0 0 0 0 0.8025 0 0 0 0 1 0 0 0 0.6 0" />
			<feBlend mode="normal" in2="effect1_dropShadow_57_1598" result="effect2_dropShadow_57_1598" />
			<feBlend mode="normal" in="SourceGraphic" in2="effect2_dropShadow_57_1598" result="shape" />
		</filter>
		<filter id="filter4_f_57_1598" x="197.951" y="130.024" width="25.0083" height="36.7013" filterUnits="userSpaceOnUse" color-interpolation-filters="sRGB">
			<feFlood flood-opacity="0" result="BackgroundImageFix" />
			<feBlend mode="normal" in="SourceGraphic" in2="BackgroundImageFix" result="shape" />
			<feGaussianBlur stdDeviation="1.28057" result="effect1_foregroundBlur_57_1598" />
		</filter>
		<filter id="filter5_f_57_1598" x="203.667" y="139.211" width="20.5765" height="43.1286" filterUnits="userSpaceOnUse" color-interpolation-filters="sRGB">
			<feFlood flood-opacity="0" result="BackgroundImageFix" />
			<feBlend mode="normal" in="SourceGraphic" in2="BackgroundImageFix" result="shape" />
			<feGaussianBlur stdDeviation="2.56114" result="effect1_foregroundBlur_57_1598" />
		</filter>
		<filter id="filter6_f_57_1598" x="95.2671" y="74.6874" width="115.34" height="104.822" filterUnits="userSpaceOnUse" color-interpolation-filters="sRGB">
			<feFlood flood-opacity="0" result="BackgroundImageFix" />
			<feBlend mode="normal" in="SourceGraphic" in2="BackgroundImageFix" result="shape" />
			<feGaussianBlur stdDeviation="0.0960428" result="effect1_foregroundBlur_57_1598" />
		</filter>
		<filter id="filter7_i_57_1598" x="100.134" y="79.5618" width="105.162" height="95.5483" filterUnits="userSpaceOnUse" color-interpolation-filters="sRGB">
			<feFlood flood-opacity="0" result="BackgroundImageFix" />
			<feBlend mode="normal" in="SourceGraphic" in2="BackgroundImageFix" result="shape" />
			<feColorMatrix in="SourceAlpha" type="matrix" values="0 0 0 0 0 0 0 0 0 0 0 0 0 0 0 0 0 0 127 0" result="hardAlpha" />
			<feOffset />
			<feGaussianBlur stdDeviation="4.30537" />
			<feComposite in2="hardAlpha" operator="arithmetic" k2="-1" k3="1" />
			<feColorMatrix type="matrix" values="0 0 0 0 0.297222 0 0 0 0 0.329917 0 0 0 0 0.445833 0 0 0 1 0" />
			<feBlend mode="normal" in2="shape" result="effect1_innerShadow_57_1598" />
		</filter>
		<filter id="filter8_d_57_1598" x="51.012" y="146.762" width="140.797" height="53.9323" filterUnits="userSpaceOnUse" color-interpolation-filters="sRGB">
			<feFlood flood-opacity="0" result="BackgroundImageFix" />
			<feColorMatrix in="SourceAlpha" type="matrix" values="0 0 0 0 0 0 0 0 0 0 0 0 0 0 0 0 0 0 127 0" result="hardAlpha" />
			<feOffset dy="2.97562" />
			<feGaussianBlur stdDeviation="1.48781" />
			<feColorMatrix type="matrix" values="0 0 0 0 0.214861 0 0 0 0 0.236708 0 0 0 0 0.433333 0 0 0 0.25 0" />
			<feBlend mode="normal" in2="BackgroundImageFix" result="effect1_dropShadow_57_1598" />
			<feBlend mode="normal" in="SourceGraphic" in2="effect1_dropShadow_57_1598" result="shape" />
		</filter>
		<filter id="filter9_d_57_1598" x="49.6934" y="143.897" width="86.5731" height="37.1294" filterUnits="userSpaceOnUse" color-interpolation-filters="sRGB">
			<feFlood flood-opacity="0" result="BackgroundImageFix" />
			<feColorMatrix in="SourceAlpha" type="matrix" values="0 0 0 0 0 0 0 0 0 0 0 0 0 0 0 0 0 0 127 0" result="hardAlpha" />
			<feOffset dx="-1.43553" />
			<feGaussianBlur stdDeviation="1.43553" />
			<feColorMatrix type="matrix" values="0 0 0 0 0.446731 0 0 0 0 0.444028 0 0 0 0 0.579167 0 0 0 0.12 0" />
			<feBlend mode="normal" in2="BackgroundImageFix" result="effect1_dropShadow_57_1598" />
			<feBlend mode="normal" in="SourceGraphic" in2="effect1_dropShadow_57_1598" result="shape" />
		</filter>
		<filter id="filter10_d_57_1598" x="172.819" y="50.6365" width="61.8016" height="138.027" filterUnits="userSpaceOnUse" color-interpolation-filters="sRGB">
			<feFlood flood-opacity="0" result="BackgroundImageFix" />
			<feColorMatrix in="SourceAlpha" type="matrix" values="0 0 0 0 0 0 0 0 0 0 0 0 0 0 0 0 0 0 127 0" result="hardAlpha" />
			<feOffset dy="2.96703" />
			<feGaussianBlur stdDeviation="1.48351" />
			<feColorMatrix type="matrix" values="0 0 0 0 0.214861 0 0 0 0 0.236708 0 0 0 0 0.433333 0 0 0 0.25 0" />
			<feBlend mode="normal" in2="BackgroundImageFix" result="effect1_dropShadow_57_1598" />
			<feBlend mode="normal" in="SourceGraphic" in2="effect1_dropShadow_57_1598" result="shape" />
		</filter>
		<filter id="filter11_d_57_1598" x="191.707" y="47.7852" width="35.5443" height="86.2965" filterUnits="userSpaceOnUse" color-interpolation-filters="sRGB">
			<feFlood flood-opacity="0" result="BackgroundImageFix" />
			<feColorMatrix in="SourceAlpha" type="matrix" values="0 0 0 0 0 0 0 0 0 0 0 0 0 0 0 0 0 0 127 0" result="hardAlpha" />
			<feOffset dx="-1.43139" />
			<feGaussianBlur stdDeviation="1.43139" />
			<feColorMatrix type="matrix" values="0 0 0 0 0.446731 0 0 0 0 0.444028 0 0 0 0 0.579167 0 0 0 0.12 0" />
			<feBlend mode="normal" in2="BackgroundImageFix" result="effect1_dropShadow_57_1598" />
			<feBlend mode="normal" in="SourceGraphic" in2="effect1_dropShadow_57_1598" result="shape" />
		</filter>
		<filter id="filter12_d_57_1598" x="176.532" y="69.8955" width="62.2786" height="94.2769" filterUnits="userSpaceOnUse" color-interpolation-filters="sRGB">
			<feFlood flood-opacity="0" result="BackgroundImageFix" />
			<feColorMatrix in="SourceAlpha" type="matrix" values="0 0 0 0 0 0 0 0 0 0 0 0 0 0 0 0 0 0 127 0" result="hardAlpha" />
			<feOffset dy="-1.48351" />
			<feGaussianBlur stdDeviation="3.57848" />
			<feColorMatrix type="matrix" values="0 0 0 0 0.365689 0 0 0 0 0.351111 0 0 0 0 0.533333 0 0 0 0.2 0" />
			<feBlend mode="normal" in2="BackgroundImageFix" result="effect1_dropShadow_57_1598" />
			<feBlend mode="normal" in="SourceGraphic" in2="effect1_dropShadow_57_1598" result="shape" />
		</filter>
		<filter id="filter13_d_57_1598" x="173.561" y="94.6252" width="29.1205" height="91.8126" filterUnits="userSpaceOnUse" color-interpolation-filters="sRGB">
			<feFlood flood-opacity="0" result="BackgroundImageFix" />
			<feColorMatrix in="SourceAlpha" type="matrix" values="0 0 0 0 0 0 0 0 0 0 0 0 0 0 0 0 0 0 127 0" result="hardAlpha" />
			<feOffset dy="1.48351" />
			<feGaussianBlur stdDeviation="1.11264" />
			<feColorMatrix type="matrix" values="0 0 0 0 0.302882 0 0 0 0 0.323427 0 0 0 0 0.508333 0 0 0 0.25 0" />
			<feBlend mode="normal" in2="BackgroundImageFix" result="effect1_dropShadow_57_1598" />
			<feBlend mode="normal" in="SourceGraphic" in2="effect1_dropShadow_57_1598" result="shape" />
		</filter>
		<filter id="filter14_d_57_1598" x="91.1138" y="74.9843" width="111.077" height="116.767" filterUnits="userSpaceOnUse" color-interpolation-filters="sRGB">
			<feFlood flood-opacity="0" result="BackgroundImageFix" />
			<feColorMatrix in="SourceAlpha" type="matrix" values="0 0 0 0 0 0 0 0 0 0 0 0 0 0 0 0 0 0 127 0" result="hardAlpha" />
			<feOffset dy="9.53919" />
			<feGaussianBlur stdDeviation="9.53919" />
			<feColorMatrix type="matrix" values="0 0 0 0 0.668403 0 0 0 0 0.679796 0 0 0 0 0.729167 0 0 0 1 0" />
			<feBlend mode="normal" in2="BackgroundImageFix" result="effect1_dropShadow_57_1598" />
			<feBlend mode="normal" in="SourceGraphic" in2="effect1_dropShadow_57_1598" result="shape" />
		</filter>
		<radialGradient id="paint0_radial_57_1598" cx="0" cy="0" r="1" gradientUnits="userSpaceOnUse" gradientTransform="translate(108.026 63.4547) rotate(59.5388) scale(9.80121)">
			<stop stop-color="#E7ECFF" />
			<stop offset="0.979167" stop-color="#ABC3FF" stop-opacity="0.8825" />
			<stop offset="1" stop-color="#AACCFF" stop-opacity="0.88" />
		</radialGradient>
		<linearGradient id="paint1_linear_57_1598" x1="110.962" y1="55.018" x2="184.804" y2="180.57" gradientUnits="userSpaceOnUse">
			<stop stop-color="#D2DFFF" stop-opacity="0.89" />
			<stop offset="0.28125" stop-color="#CCDDFF" stop-opacity="0.2" />
			<stop offset="1" stop-color="#56D7E0" stop-opacity="0" />
		</linearGradient>
		<linearGradient id="paint2_linear_57_1598" x1="110.962" y1="55.018" x2="184.804" y2="180.57" gradientUnits="userSpaceOnUse">
			<stop stop-color="#DEE7FF" />
			<stop offset="0.0722622" stop-color="#CCDDFF" stop-opacity="0.33" />
			<stop offset="1" stop-color="#98C6F0" stop-opacity="0" />
		</linearGradient>
		<linearGradient id="paint3_linear_57_1598" x1="102.694" y1="41.238" x2="141.66" y2="107.491" gradientUnits="userSpaceOnUse">
			<stop stop-color="#AACCFF" stop-opacity="0" />
			<stop offset="1" stop-color="#AACCFF" stop-opacity="0.3" />
		</linearGradient>
		<linearGradient id="paint4_linear_57_1598" x1="105.055" y1="209.329" x2="142.949" y2="142.358" gradientUnits="userSpaceOnUse">
			<stop stop-color="#AACCFF" stop-opacity="0" />
			<stop offset="1" stop-color="#AACCFF" stop-opacity="0.3" />
		</linearGradient>
		<linearGradient id="paint5_linear_57_1598" x1="201.817" y1="208.82" x2="162.851" y2="142.567" gradientUnits="userSpaceOnUse">
			<stop stop-color="#AACCFF" stop-opacity="0" />
			<stop offset="1" stop-color="#AACCFF" stop-opacity="0.3" />
		</linearGradient>
		<linearGradient id="paint6_linear_57_1598" x1="248.88" y1="125.026" x2="171.934" y2="125.595" gradientUnits="userSpaceOnUse">
			<stop stop-color="#AACCFF" stop-opacity="0" />
			<stop offset="1" stop-color="#AACCFF" stop-opacity="0.3" />
		</linearGradient>
		<linearGradient id="paint7_linear_57_1598" x1="55.704" y1="125.416" x2="132.651" y2="124.846" gradientUnits="userSpaceOnUse">
			<stop stop-color="#AACCFF" stop-opacity="0" />
			<stop offset="1" stop-color="#AACCFF" stop-opacity="0.3" />
		</linearGradient>
		<linearGradient id="paint8_linear_57_1598" x1="199.281" y1="40.689" x2="161.388" y2="107.661" gradientUnits="userSpaceOnUse">
			<stop stop-color="#AACCFF" stop-opacity="0" />
			<stop offset="1" stop-color="#AACCFF" stop-opacity="0.3" />
		</linearGradient>
		<linearGradient id="paint9_linear_57_1598" x1="213.279" y1="154.404" x2="222.905" y2="169.676" gradientUnits="userSpaceOnUse">
			<stop stop-color="#4680B6" stop-opacity="0.1" />
			<stop offset="0.582284" stop-color="#5693CB" stop-opacity="0.56" />
			<stop offset="1" stop-color="#4680B6" stop-opacity="0.45" />
		</linearGradient>
		<linearGradient id="paint10_linear_57_1598" x1="147.932" y1="69.656" x2="155.733" y2="187.835" gradientUnits="userSpaceOnUse">
			<stop stop-color="#FAFAFA" />
			<stop offset="1" stop-color="#C2C4CD" />
		</linearGradient>
		<linearGradient id="paint11_linear_57_1598" x1="152.78" y1="76.961" x2="156.217" y2="173.27" gradientUnits="userSpaceOnUse">
			<stop stop-color="#CDCFD6" />
			<stop offset="1" stop-color="#EFEFF1" />
		</linearGradient>
		<linearGradient id="paint12_linear_57_1598" x1="146.931" y1="76.832" x2="149.472" y2="178.615" gradientUnits="userSpaceOnUse">
			<stop stop-color="#DDDFE2" />
			<stop offset="1" stop-color="white" />
		</linearGradient>
		<radialGradient id="paint13_radial_57_1598" cx="0" cy="0" r="1" gradientUnits="userSpaceOnUse" gradientTransform="translate(152.715 127.336) rotate(59.5388) scale(53.5627 46.2046)">
			<stop stop-color="#F5F7FF" />
			<stop offset="1" stop-color="#B3B5C5" />
		</radialGradient>
		<linearGradient id="paint14_linear_57_1598" x1="124.488" y1="79.338" x2="180.944" y2="175.329" gradientUnits="userSpaceOnUse">
			<stop stop-color="white" />
			<stop offset="1" stop-color="#F2EDED" stop-opacity="0" />
		</linearGradient>
		<linearGradient id="paint15_linear_57_1598" x1="178.767" y1="59.102" x2="179.735" y2="170.502" gradientUnits="userSpaceOnUse">
			<stop stop-color="white" />
			<stop offset="1" stop-color="#F2EDED" stop-opacity="0" />
		</linearGradient>
		<linearGradient id="paint16_linear_57_1598" x1="84.005" y1="114.835" x2="180.894" y2="169.82" gradientUnits="userSpaceOnUse">
			<stop stop-color="white" />
			<stop offset="1" stop-color="#F2EDED" stop-opacity="0" />
		</linearGradient>
		<linearGradient id="paint17_linear_57_1598" x1="162.661" y1="144.246" x2="178.224" y2="170.159" gradientUnits="userSpaceOnUse">
			<stop stop-color="white" stop-opacity="0" />
			<stop offset="1" stop-color="#D0DBFF" />
		</linearGradient>
		<linearGradient id="paint18_linear_57_1598" x1="95.601" y1="158.83" x2="102.901" y2="151.355" gradientUnits="userSpaceOnUse">
			<stop offset="0.209488" stop-color="#AAAEBC" />
			<stop offset="0.583159" stop-color="#E0E1F1" />
			<stop offset="0.986946" stop-color="#868C9D" />
		</linearGradient>
		<linearGradient id="paint19_linear_57_1598" x1="70.631" y1="131.209" x2="104.575" y2="168.187" gradientUnits="userSpaceOnUse">
			<stop offset="0.220856" stop-color="#FAFAFA" />
			<stop offset="1" stop-color="#D8D9E1" />
		</linearGradient>
		<linearGradient id="paint20_linear_57_1598" x1="70.142" y1="131.666" x2="119.394" y2="177.913" gradientUnits="userSpaceOnUse">
			<stop stop-color="#F8F8F9" stop-opacity="0.46" />
			<stop offset="0.21882" stop-color="#F8F8F9" stop-opacity="0.67" />
			<stop offset="0.45675" stop-color="white" stop-opacity="0.46" />
			<stop offset="0.742389" stop-color="white" stop-opacity="0" />
		</linearGradient>
		<linearGradient id="paint21_linear_57_1598" x1="105.815" y1="162.123" x2="115.772" y2="187.737" gradientUnits="userSpaceOnUse">
			<stop stop-color="#EFEFEF" />
			<stop offset="0.411026" stop-color="#DEDFE6" />
			<stop offset="0.58979" stop-color="#D1D2D9" />
			<stop offset="1" stop-color="#D1D2D9" />
		</linearGradient>
		<linearGradient id="paint22_linear_57_1598" x1="77.173" y1="170.396" x2="117.722" y2="182.966" gradientUnits="userSpaceOnUse">
			<stop stop-color="#F8F8F9" stop-opacity="0.86" />
			<stop offset="0.319253" stop-color="#F8F8F9" />
			<stop offset="0.615431" stop-color="white" stop-opacity="0.88" />
			<stop offset="0.867925" stop-color="white" />
		</linearGradient>
		<linearGradient id="paint23_linear_57_1598" x1="133.558" y1="168.517" x2="147.977" y2="198.962" gradientUnits="userSpaceOnUse">
			<stop offset="0.0306468" stop-color="#DBDCE7" />
			<stop offset="0.274204" stop-color="#CBCCD7" />
			<stop offset="0.675444" stop-color="#D1D2D9" />
		</linearGradient>
		<linearGradient id="paint24_linear_57_1598" x1="128.937" y1="172.82" x2="158.348" y2="196.89" gradientUnits="userSpaceOnUse">
			<stop stop-color="#F8F8F9" stop-opacity="0.78" />
			<stop offset="0.319253" stop-color="#F8F8F9" stop-opacity="0" />
			<stop offset="0.615431" stop-color="white" stop-opacity="0" />
			<stop offset="0.867925" stop-color="white" stop-opacity="0" />
		</linearGradient>
		<linearGradient id="paint25_linear_57_1598" x1="129.153" y1="136.23" x2="161.901" y2="191.911" gradientUnits="userSpaceOnUse">
			<stop stop-color="#C4C4C4" />
			<stop offset="1" stop-color="#63687B" />
		</linearGradient>
		<linearGradient id="paint26_linear_57_1598" x1="139.615" y1="165.155" x2="154.421" y2="170.815" gradientUnits="userSpaceOnUse">
			<stop stop-color="white" stop-opacity="0" />
			<stop offset="0.445395" stop-color="white" />
			<stop offset="1" stop-color="white" stop-opacity="0" />
		</linearGradient>
		<linearGradient id="paint27_linear_57_1598" x1="207.757" y1="92.87" x2="197.676" y2="95.617" gradientUnits="userSpaceOnUse">
			<stop offset="0.209488" stop-color="#AAAEBC" />
			<stop offset="0.583159" stop-color="#E0E1F1" />
			<stop offset="0.986946" stop-color="#868C9D" />
		</linearGradient>
		<linearGradient id="paint28_linear_57_1598" x1="195.749" y1="57.622" x2="211.569" y2="105.258" gradientUnits="userSpaceOnUse">
			<stop offset="0.220856" stop-color="#FAFAFA" />
			<stop offset="1" stop-color="#D8D9E1" />
		</linearGradient>
		<linearGradient id="paint29_linear_57_1598" x1="196.389" y1="57.418" x2="212.871" y2="122.938" gradientUnits="userSpaceOnUse">
			<stop stop-color="#F8F8F9" stop-opacity="0.46" />
			<stop offset="0.21882" stop-color="#F8F8F9" stop-opacity="0.67" />
			<stop offset="0.45675" stop-color="white" stop-opacity="0.46" />
			<stop offset="0.742389" stop-color="white" stop-opacity="0" />
		</linearGradient>
		<linearGradient id="paint30_linear_57_1598" x1="215.21" y1="105.714" x2="197.322" y2="109.728" gradientUnits="userSpaceOnUse">
			<stop offset="0.209488" stop-color="#9196AA" />
			<stop offset="0.583159" stop-color="#C9C9DC" />
			<stop offset="0.986946" stop-color="#797D87" />
		</linearGradient>
		<linearGradient id="paint31_linear_57_1598" x1="205.668" y1="103.398" x2="223.215" y2="124.548" gradientUnits="userSpaceOnUse">
			<stop stop-color="#EFEFEF" />
			<stop offset="0.411026" stop-color="#DEDFE6" />
			<stop offset="0.58979" stop-color="#D1D2D9" />
			<stop offset="1" stop-color="#D1D2D9" />
		</linearGradient>
		<linearGradient id="paint32_linear_57_1598" x1="226.822" y1="82.383" x2="218.1" y2="123.93" gradientUnits="userSpaceOnUse">
			<stop stop-color="#F8F8F9" stop-opacity="0.86" />
			<stop offset="0.319253" stop-color="#F8F8F9" />
			<stop offset="0.615431" stop-color="white" stop-opacity="0.88" />
			<stop offset="0.867925" stop-color="white" />
		</linearGradient>
		<linearGradient id="paint33_linear_57_1598" x1="206.764" y1="129.616" x2="193.954" y2="129.833" gradientUnits="userSpaceOnUse">
			<stop offset="0.209488" stop-color="#717995" />
			<stop offset="0.583159" stop-color="#A4A5BB" />
			<stop offset="0.986946" stop-color="#797D87" />
		</linearGradient>
		<linearGradient id="paint34_linear_57_1598" x1="197.776" y1="130.747" x2="217.376" y2="158.144" gradientUnits="userSpaceOnUse">
			<stop offset="0.0306468" stop-color="#DBDCE7" />
			<stop offset="0.274204" stop-color="#CBCCD7" />
			<stop offset="0.675444" stop-color="#D1D2D9" />
		</linearGradient>
		<linearGradient id="paint35_linear_57_1598" x1="203.782" y1="128.8" x2="210.524" y2="166.202" gradientUnits="userSpaceOnUse">
			<stop stop-color="#F8F8F9" stop-opacity="0.78" />
			<stop offset="0.319253" stop-color="#F8F8F9" stop-opacity="0" />
			<stop offset="0.615431" stop-color="white" stop-opacity="0" />
			<stop offset="0.867925" stop-color="white" stop-opacity="0" />
		</linearGradient>
		<linearGradient id="paint36_linear_57_1598" x1="171.698" y1="111.207" x2="204.446" y2="166.888" gradientUnits="userSpaceOnUse">
			<stop stop-color="#C4C4C4" />
			<stop offset="1" stop-color="#63687B" />
		</linearGradient>
		<linearGradient id="paint37_linear_57_1598" x1="191.889" y1="134.409" x2="189.64" y2="150.099" gradientUnits="userSpaceOnUse">
			<stop stop-color="white" stop-opacity="0" />
			<stop offset="0.445395" stop-color="white" />
			<stop offset="1" stop-color="white" stop-opacity="0" />
		</linearGradient>
		<linearGradient id="paint38_linear_57_1598" x1="188.849" y1="136.836" x2="195.361" y2="146.544" gradientUnits="userSpaceOnUse">
			<stop offset="0.0495744" stop-color="#C4C4C4" />
			<stop offset="0.454268" stop-color="#EDEDED" />
			<stop offset="1" stop-color="#C4C4C4" stop-opacity="0" />
		</linearGradient>
	</defs>
</svg>
