<svg width="40" height="37" viewBox="0 0 40 37" fill="none" xmlns="http://www.w3.org/2000/svg">
<path d="M37.15 1L22.3047 12.0258L25.0499 5.52072L37.15 1Z" fill="#E2761B" stroke="#E2761B" stroke-linecap="round" stroke-linejoin="round"/>
<path d="M2.87891 1L17.6048 12.1302L14.9938 5.52072L2.87891 1Z" fill="#E4761B" stroke="#E4761B" stroke-linecap="round" stroke-linejoin="round"/>
<path d="M31.8092 26.5577L27.8555 32.6152L36.315 34.9427L38.747 26.692L31.8092 26.5577Z" fill="#E4761B" stroke="#E4761B" stroke-linecap="round" stroke-linejoin="round"/>
<path d="M1.3125 26.692L3.72952 34.9427L12.1891 32.6152L8.23532 26.5577L1.3125 26.692Z" fill="#E4761B" stroke="#E4761B" stroke-linecap="round" stroke-linejoin="round"/>
<path d="M11.7109 16.3227L9.35352 19.8886L17.7534 20.2616L17.455 11.235L11.7109 16.3227Z" fill="#E4761B" stroke="#E4761B" stroke-linecap="round" stroke-linejoin="round"/>
<path d="M28.3174 16.3227L22.4986 11.1306L22.3047 20.2616L30.6897 19.8886L28.3174 16.3227Z" fill="#E4761B" stroke="#E4761B" stroke-linecap="round" stroke-linejoin="round"/>
<path d="M12.1895 32.6152L17.2324 30.1534L12.8758 26.7517L12.1895 32.6152Z" fill="#E4761B" stroke="#E4761B" stroke-linecap="round" stroke-linejoin="round"/>
<path d="M22.7969 30.1534L27.8547 32.6152L27.1535 26.7517L22.7969 30.1534Z" fill="#E4761B" stroke="#E4761B" stroke-linecap="round" stroke-linejoin="round"/>
<path d="M27.8547 32.6152L22.7969 30.1534L23.1997 33.4507L23.155 34.8383L27.8547 32.6152Z" fill="#D7C1B3" stroke="#D7C1B3" stroke-linecap="round" stroke-linejoin="round"/>
<path d="M12.1895 32.6152L16.8892 34.8383L16.8594 33.4507L17.2324 30.1534L12.1895 32.6152Z" fill="#D7C1B3" stroke="#D7C1B3" stroke-linecap="round" stroke-linejoin="round"/>
<path d="M16.9652 24.5734L12.7578 23.3351L15.7269 21.9774L16.9652 24.5734Z" fill="#233447" stroke="#233447" stroke-linecap="round" stroke-linejoin="round"/>
<path d="M23.0664 24.5734L24.3048 21.9774L27.2887 23.3351L23.0664 24.5734Z" fill="#233447" stroke="#233447" stroke-linecap="round" stroke-linejoin="round"/>
<path d="M12.1901 32.6152L12.9062 26.5577L8.23633 26.692L12.1901 32.6152Z" fill="#CD6116" stroke="#CD6116" stroke-linecap="round" stroke-linejoin="round"/>
<path d="M27.1406 26.5577L27.8568 32.6152L31.8105 26.692L27.1406 26.5577Z" fill="#CD6116" stroke="#CD6116" stroke-linecap="round" stroke-linejoin="round"/>
<path d="M30.6916 19.8885L22.3066 20.2615L23.0825 24.5734L24.3208 21.9773L27.3048 23.335L30.6916 19.8885Z" fill="#CD6116" stroke="#CD6116" stroke-linecap="round" stroke-linejoin="round"/>
<path d="M12.7572 23.335L15.7412 21.9773L16.9646 24.5734L17.7554 20.2615L9.35547 19.8885L12.7572 23.335Z" fill="#CD6116" stroke="#CD6116" stroke-linecap="round" stroke-linejoin="round"/>
<path d="M9.35547 19.8885L12.8766 26.7517L12.7572 23.335L9.35547 19.8885Z" fill="#E4751F" stroke="#E4751F" stroke-linecap="round" stroke-linejoin="round"/>
<path d="M27.3035 23.335L27.1543 26.7517L30.6903 19.8885L27.3035 23.335Z" fill="#E4751F" stroke="#E4751F" stroke-linecap="round" stroke-linejoin="round"/>
<path d="M17.7556 20.2615L16.9648 24.5734L17.9496 29.6611L18.1734 22.962L17.7556 20.2615Z" fill="#E4751F" stroke="#E4751F" stroke-linecap="round" stroke-linejoin="round"/>
<path d="M22.3052 20.2615L21.9023 22.9471L22.0814 29.6611L23.081 24.5734L22.3052 20.2615Z" fill="#E4751F" stroke="#E4751F" stroke-linecap="round" stroke-linejoin="round"/>
<path d="M23.0817 24.5734L22.082 29.6611L22.7982 30.1535L27.1548 26.7517L27.304 23.3351L23.0817 24.5734Z" fill="#F6851B" stroke="#F6851B" stroke-linecap="round" stroke-linejoin="round"/>
<path d="M12.7578 23.3351L12.8772 26.7517L17.2338 30.1535L17.9499 29.6611L16.9652 24.5734L12.7578 23.3351Z" fill="#F6851B" stroke="#F6851B" stroke-linecap="round" stroke-linejoin="round"/>
<path d="M23.1556 34.8383L23.2003 33.4507L22.8273 33.1225H17.2025L16.8594 33.4507L16.8892 34.8383L12.1895 32.6152L13.8306 33.958L17.1578 36.2706H22.8721L26.2141 33.958L27.8553 32.6152L23.1556 34.8383Z" fill="#C0AD9E" stroke="#C0AD9E" stroke-linecap="round" stroke-linejoin="round"/>
<path d="M22.7975 30.1534L22.0813 29.6611H17.9485L17.2324 30.1534L16.8594 33.4507L17.2025 33.1225H22.8273L23.2003 33.4507L22.7975 30.1534Z" fill="#161616" stroke="#161616" stroke-linecap="round" stroke-linejoin="round"/>
<path d="M37.7784 12.7419L39.0466 6.65463L37.1517 1L22.7988 11.6528L28.3192 16.3227L36.1223 18.6055L37.853 16.5913L37.107 16.0542L38.3006 14.965L37.3755 14.2488L38.5691 13.3387L37.7784 12.7419Z" fill="#763D16" stroke="#763D16" stroke-linecap="round" stroke-linejoin="round"/>
<path d="M1 6.65463L2.26819 12.7419L1.46252 13.3387L2.65611 14.2488L1.74599 14.965L2.93958 16.0542L2.19359 16.5913L3.90938 18.6055L11.7125 16.3227L17.2328 11.6528L2.8799 1L1 6.65463Z" fill="#763D16" stroke="#763D16" stroke-linecap="round" stroke-linejoin="round"/>
<path d="M36.1211 18.6054L28.318 16.3227L30.6903 19.8885L27.1543 26.7517L31.8093 26.692H38.747L36.1211 18.6054Z" fill="#F6851B" stroke="#F6851B" stroke-linecap="round" stroke-linejoin="round"/>
<path d="M11.7117 16.3227L3.90856 18.6054L1.3125 26.692H8.23532L12.8754 26.7517L9.35431 19.8885L11.7117 16.3227Z" fill="#F6851B" stroke="#F6851B" stroke-linecap="round" stroke-linejoin="round"/>
<path d="M22.3049 20.2616L22.7972 11.6528L25.0651 5.52072H14.9941L17.2321 11.6528L17.7543 20.2616L17.9334 22.977L17.9483 29.6611H22.0811L22.1109 22.977L22.3049 20.2616Z" fill="#F6851B" stroke="#F6851B" stroke-linecap="round" stroke-linejoin="round"/>
</svg>
