<svg width="45" height="36" viewBox="0 0 45 36" fill="none" xmlns="http://www.w3.org/2000/svg">
	<path d="M33.208 10.4991C34.3078 9.83287 35.3638 9.02515 36.625 8.76658C36.9453 8.701 37.2933 8.65832 37.5384 8.4423C37.821 8.1932 37.8861 7.78859 38.0211 7.43773C38.4319 6.36862 39.5396 5.74762 40.6 5.30597C41.6605 4.86482 42.8099 4.47702 43.5529 3.60345C44.2964 2.73029 44.3671 1.17089 43.3701 0.603523C42.7043 0.22441 41.8293 0.441635 41.2191 0.907412C40.6087 1.37216 40.1966 2.04066 39.7602 2.67072C38.5307 4.44607 37.0119 6.021 35.2804 7.31581C33.2395 8.84192 6.0823 31.0328 0.635266 35.7479C12.5857 25.8349 27.5783 13.909 33.208 10.4991Z" fill="url(#paint0_linear_263_685)" />
	<defs>
		<linearGradient id="paint0_linear_263_685" x1="47.4781" y1="0.31745" x2="34.5035" y2="9.1739" gradientUnits="userSpaceOnUse">
			<stop stop-color="#FFE139" />
			<stop offset="1" stop-color="#BF2786" />
		</linearGradient>
	</defs>
</svg>
