<svg width="340" height="474" viewBox="0 0 340 474" fill="none" xmlns="http://www.w3.org/2000/svg">
	<g clip-path="url(#clip0_269_34885)">
		<path d="M-203.363 7.44114C-203.363 3.33152 -200.032 0 -195.922 0H595.814C599.924 0 603.255 3.33151 603.255 7.44113V466.559C603.255 470.668 599.924 474 595.814 474H-195.922C-200.032 474 -203.363 470.668 -203.363 466.559V7.44114Z" fill="#13095F" />
		<path opacity="0.35" d="M-203.363 7.44114C-203.363 3.33152 -200.032 0 -195.922 0H595.814C599.924 0 603.255 3.33151 603.255 7.44113V466.559C603.255 470.668 599.924 474 595.814 474H-195.922C-200.032 474 -203.363 470.668 -203.363 466.559V7.44114Z" fill="url(#paint0_radial_269_34885)" />
		<g opacity="0.5">
			<path d="M341 0.207396V60.837C337.079 53.058 326.113 46.3314 311.36 40.5118C301.067 36.4518 300.225 35.3365 286.111 31.8864C271.996 28.4362 292.227 25.4565 314.967 28.2794C337.707 31.1022 250.036 4.37821 205.188 1.93249C159.898 -0.544024 96.5074 8.04872 106.701 16.6742C150.769 14.0081 157.827 23.7314 142.614 23.7314C133.989 23.7314 99.6439 27.6262 65.2197 38.698C32.7103 49.1538 12.4202 67.2416 1 80.8163V0.207396H341Z" fill="#16167C" />
			<path d="M92.9781 38.1053C94.1223 38.1053 95.0499 39.0331 95.0499 40.1775C95.0499 41.322 94.1223 42.2497 92.9781 42.2497C91.8338 42.2497 90.9062 41.322 90.9062 40.1775C90.9062 39.0331 91.8338 38.1053 92.9781 38.1053Z" fill="#EAE3FF" />
			<path d="M206.072 17C207.216 17 208.144 17.9277 208.144 19.0722C208.144 20.2166 207.216 21.1444 206.072 21.1444C204.928 21.1444 204 20.2166 204 19.0722C204 17.9277 204.928 17 206.072 17Z" fill="#EAE3FF" />
			<path d="M158.5 64C159.328 64 160 64.6715 160 65.5C160 66.3284 159.328 67 158.5 67C157.672 67 157 66.3284 157 65.5C157 64.6715 157.672 64 158.5 64Z" fill="#EAE3FF" />
			<path d="M259.775 56.6987C261.148 56.6987 262.261 57.812 262.261 59.1853C262.261 60.5587 261.148 61.672 259.775 61.672C258.402 61.672 257.289 60.5587 257.289 59.1853C257.289 57.812 258.402 56.6987 259.775 56.6987Z" fill="#EAE3FF" />
			<path d="M149.936 2.48659C150.718 2.48659 151.352 3.12075 151.352 3.903C151.352 4.68525 150.718 5.31937 149.936 5.31937C149.154 5.31937 148.52 4.68525 148.52 3.903C148.52 3.12075 149.154 2.48659 149.936 2.48659Z" fill="#EAE3FF" />
			<path d="M36.4767 10.1085C37.2588 10.1085 37.8928 10.7426 37.8928 11.5249C37.8928 12.3071 37.2588 12.9413 36.4767 12.9413C35.6946 12.9413 35.0605 12.3071 35.0605 11.5249C35.0605 10.7426 35.6946 10.1085 36.4767 10.1085Z" fill="#EAE3FF" />
		</g>
		<path d="M-9.3056 20.9508C-34.0112 28.6806 -53.8882 21.1901 -54.5076 20.9648C-54.212 21.5139 -48.1165 33.0031 -70.3023 40.0711C-92.5584 47.1674 -87.6736 32.8341 -87.4765 32.2428L-102.145 38.9447C-102.145 38.9447 -85.8576 73.5951 -124.725 90.322C-163.606 107.049 -194.717 78.3682 -194.717 78.3682L-241.988 61.6414C-241.988 61.6414 -269.115 70.5962 -296.523 61.6414C-323.932 52.6726 -313.726 38.9447 -313.726 38.9447C-313.726 38.9447 -351.157 43.7178 -374.934 16.2481C-380.353 9.98258 -382.62 4.59002 -382.93 0H15.8223C12.7534 6.74423 5.89781 16.1918 -9.3056 20.9508Z" fill="#100D2C" fill-opacity="0.8" />
		<path opacity="0.35" d="M-23.9289 21.3065C-15.4076 31.7819 2.6727 26.7397 2.6727 26.7397C2.6727 26.7397 4.30344 31.4857 11.0873 31.7819C19.0808 32.1256 16.8689 28.5469 16.8689 28.5469H23.5875C23.5875 28.5469 18.5412 30.0281 22.0754 33.4172C25.6037 36.8123 38.1633 35.3903 43.601 28.5469C49.0387 21.7034 42.7056 17.7396 42.7056 17.7396C42.7056 17.7396 48.6651 18.6876 53.3854 15.1563C58.1056 11.6309 57.8506 8.82832 57.8506 8.82832C57.8506 8.82832 63.5907 19.7541 78.1072 18.5869C92.6236 17.4196 95.3336 7.35298 95.3336 7.35298C95.3336 7.35298 101.068 8.85794 107.929 2.31669C108.664 1.61161 108.996 0.835431 108.996 0H-27.6588C-29.3192 4.11198 -30.6356 13.0588 -23.9289 21.3065Z" fill="#657AE0" />
		<path opacity="0.33" d="M83.2324 6.11404C78.3107 8.65652 70.0385 7.87422 70.0385 7.87422C70.0385 7.87422 70.678 17.0197 57.5026 17.6483C47.4647 18.1279 46.802 9.82997 46.802 9.82997C46.802 9.82997 39.0905 10.9662 32.7276 7.70193C26.7678 4.65655 27.0737 2.5611 27.1061 2.39812C26.9532 2.49591 20.2751 6.93825 7.2249 3.75783C3.84185 2.93828 1.5525 1.50872 0 0H87.0464C87.0881 1.57857 86.6154 4.36318 83.2324 6.11404Z" fill="#9FB5F4" />
		<path opacity="0.5" d="M181.597 9.76756C182.357 10.549 194.076 23.3228 168.185 31.788C141.449 40.5245 127.495 25.8189 131.01 23.0623C134.526 20.3057 134.526 20.3057 134.526 20.3057L119.769 18.4715C119.769 18.4715 130.37 26.2856 123.447 31.343C116.535 36.4004 99.4886 36.8562 87.4984 28.5864C75.4974 20.3165 83.7983 8.82336 83.7983 8.82336C83.7983 8.82336 71.4826 11.1242 62.6608 3.31012C61.4347 2.22483 60.6208 1.10699 60.1109 0H246.887C240.908 5.56751 231.034 12.3071 216.819 14.3475C192.166 17.8746 182.27 10.3102 181.597 9.76756Z" fill="#363071" />
		<path opacity="0.35" d="M219.594 19.2999C227.312 28.7888 243.69 24.2215 243.69 24.2215C243.69 24.2215 245.167 28.5204 251.312 28.7888C258.553 29.1001 256.549 25.8584 256.549 25.8584H262.635C262.635 25.8584 258.064 27.2002 261.265 30.2701C264.461 33.3454 275.838 32.0573 280.764 25.8584C285.689 19.6595 279.953 16.0689 279.953 16.0689C279.953 16.0689 285.351 16.9276 289.627 13.7289C293.902 10.5355 293.671 7.99689 293.671 7.99689C293.671 7.99689 298.871 17.8937 312.02 16.8364C325.169 15.7791 327.624 6.6605 327.624 6.6605C327.624 6.6605 332.818 8.02372 339.033 2.09851C339.699 1.45983 340 0.756753 340 0H216.215C214.711 3.72473 213.518 11.829 219.594 19.2999Z" fill="#657AE0" />
		<path opacity="0.33" d="M96.2964 10.8996C105.013 15.4321 119.664 14.0375 119.664 14.0375C119.664 14.0375 118.532 30.3413 141.867 31.462C159.645 32.317 160.819 17.5241 160.819 17.5241C160.819 17.5241 174.476 19.5496 185.746 13.7304C196.301 8.30131 195.759 4.56572 195.702 4.27517C195.973 4.4495 207.8 12.3689 230.914 6.69916C236.905 5.23812 240.96 2.68962 243.71 0H89.5414C89.4675 2.81414 90.3047 7.77833 96.2964 10.8996Z" fill="#9FB5F4" />
		<g style="mix-blend-mode:color" opacity="0.5">
			<path d="M40.6643 113.247C45.4742 110.316 53.4826 106.042 70.405 85.2887C87.3278 64.5448 86.552 53.6276 86.552 53.6276C86.552 53.6276 105.648 29.0532 105.771 26.8822C105.894 24.7112 98.4447 35.01 92.4993 40.3058C86.5539 45.6017 76.8122 52.4674 76.8122 52.4674C76.8122 52.4674 76.8122 52.4674 75.567 50.2638C74.3218 48.0603 66.0284 56.4914 50.8365 68.1051C35.6352 79.7107 25.3938 74.3337 25.3938 74.3337C25.3938 74.3337 26.7984 66.8073 5.66476 81.6662C-8.32148 91.4937 -17.3417 101.087 -21.853 106.453L-12.1722 114.769C-9.10461 113.493 -4.14975 110.909 0.443692 106.202C7.80436 98.6749 5.17618 96.4174 5.17618 96.4174L10.0346 92.2149C10.0346 92.2149 5.26925 99.1494 13.1076 97.1582C20.9504 95.1619 36.6567 92.723 46.1154 84.1498C55.5697 75.5817 60.4199 73.2919 59.6131 76.0099C58.8063 78.728 36.9805 101.689 33.1804 104.899C29.8931 107.674 15.7202 119.565 8.75363 132.734L14.667 137.814C15.4126 136.802 16.2323 135.676 17.1712 134.41C25.8707 122.542 35.854 116.17 40.6643 113.247Z" fill="white" />
		</g>
		<path opacity="0.5" d="M352.761 97.6898C349.7 93.5972 352.593 90.9324 352.593 90.9324C352.593 90.9324 351.108 88.2282 349.593 87.2097C348.078 86.1911 337.802 81.6104 336.615 81.2755C335.427 80.9406 329.071 74.9684 327.99 73.7713C326.905 72.5793 321.821 69.6252 321.103 70.2257C320.385 70.8262 325.586 76.6484 327.32 78.744C329.056 80.837 337.26 93.6376 338.305 96.291C339.352 98.9419 341.01 109.33 342.359 111.998C343.179 113.617 347.622 118.905 350.983 122.805L347.144 128.517C343.835 124.418 339.077 118.471 338.247 117.165C336.953 115.129 333.114 109.861 329.096 106.719C325.079 103.581 319.327 93.672 319.284 90.7001C319.239 87.7239 315.764 80.2754 314.605 77.7928C313.446 75.3077 306.072 64.3086 306.286 63.0556C306.498 61.8051 308.23 62.5021 308.587 61.9696C308.945 61.4371 301.61 51.5469 299.367 48.7996C297.127 46.054 293.265 43.1477 292.511 42.641C291.754 42.1326 292.876 44.4361 291.903 44.2492C290.93 44.058 282.636 40.4998 280.62 39.7645C278.601 39.0274 275.874 38.2815 275.874 38.2815C275.874 38.2815 278.134 39.9533 277.557 39.8758C276.983 39.8 272.68 37.9902 270.377 35.8223C268.39 33.9543 266.269 31.7629 265.72 31.1933C266.463 31.9191 270.001 35.2815 273.301 36.3949C277.011 37.6524 285.123 39.5388 284.706 39.2581C284.288 38.9773 285.641 37.2503 291.201 40.0575C296.759 42.8671 311.556 55.4465 314.226 57.0845C316.894 58.7209 323.783 62.7352 325.986 64.8322C328.187 66.9317 332.876 70.7036 336.661 71.8548C340.444 73.0043 344.662 73.9795 347.979 76.0524C351.297 78.1295 362.377 87.1238 366.677 93.1139C367.592 94.3885 368.312 95.3905 368.879 96.1803L362.666 105.424L360.554 102.928C360.551 102.926 355.824 101.78 352.761 97.6898Z" fill="#657AE0" />
		<path d="M75.7555 465.761C75.597 464.96 67.6318 456.973 66.3036 455.938L66.1569 455.835C65.4829 455.498 57.7357 455.161 57.0578 454.824C56.3837 454.487 49.1401 450.113 48.2956 450.113C47.467 450.113 44.8384 453.047 43.7956 453.46C43.7679 453.472 43.752 453.476 43.752 453.476C42.7331 453.813 40.8776 447.924 40.8776 447.25C40.8776 446.576 38.3481 442.202 38.3481 441.694C38.3481 441.191 43.4031 427.898 43.4031 427.898L42.3921 427.561L59.4089 390.377C59.4089 390.377 59.4802 390.325 59.5952 390.234C60.0948 389.842 61.4309 388.739 61.4309 388.188C61.4309 387.514 55.8723 382.969 55.8723 382.969L55.7018 381.625C55.7018 381.625 53.8978 380.523 52.1216 379.44C50.6388 378.536 49.1798 377.648 48.7992 377.418C48.6485 377.327 47.7763 377.842 46.4441 378.75C40.4573 382.866 25.2168 394.985 25.2168 395.262C25.2168 395.6 24.7093 398.122 24.7093 398.122L20.8357 400.311C20.8357 400.311 19.3212 399.807 18.4767 399.807C17.8304 399.807 5.60312 408.678 0.00488281 412.762V473.593H90.0009C86.274 473.057 83.2489 472.562 82.8326 472.324C81.6551 471.653 75.926 466.601 75.7555 465.761Z" fill="#1C195D" />
		<path d="M30.9407 441.964L26.2227 449.883C26.2227 449.883 30.7742 452.917 31.6147 452.917C32.4553 452.917 34.1403 452.746 34.1403 452.746L34.5605 457.295C34.5605 457.295 34.6438 452.072 35.1513 451.902C35.6548 451.735 39.5323 451.902 39.5323 451.902L36.8363 443.138L30.9407 441.964Z" fill="#363072" />
		<path d="M12.7474 467.069C13.0408 466.705 15.1501 464.956 17.4734 463.052C17.8739 462.723 18.2822 462.39 18.6866 462.057C21.3629 459.856 23.9479 457.715 24.0351 457.469C24.2016 456.961 25.5496 450.728 26.2237 449.887C26.8977 449.046 32.4602 447.02 32.9637 446.853C33.4712 446.683 39.8703 451.402 39.5373 451.905C39.2003 452.409 39.2003 453.591 39.2003 453.591C39.2003 453.591 45.0959 455.95 44.5924 455.613C44.4219 455.498 44.1087 454.661 43.7598 453.587C42.7408 453.924 40.8853 448.027 40.8853 447.353C40.8853 446.679 38.3558 442.301 38.3558 441.789C38.3558 441.322 42.6655 429.937 43.3276 428.196C43.3593 428.109 43.3792 428.049 43.395 428.009C43.4069 427.982 43.4109 427.97 43.4109 427.97L42.3999 427.633C42.3999 427.633 42.4038 427.621 42.4118 427.601L59.4166 390.393L51.836 387.906L54.869 390.393L50.4761 389.029L38.2369 402.864L39.8743 400.168L31.2867 408.59L33.8082 407.246C33.5267 407.575 15.2889 428.985 15.6179 429.485C15.9549 429.988 19.999 432.181 19.325 432.685C18.651 433.192 8.8818 448.864 8.03731 450.042C7.39898 450.938 8.98489 460.618 9.78973 465.269C10.0157 466.57 10.1783 467.478 10.2179 467.688C10.1624 467.482 9.93643 466.617 9.61132 465.412C8.52497 461.363 6.30471 453.456 5.68224 453.583C5.16286 453.686 2.20515 457.318 0.0166016 460.086V473.585H14.147C12.9774 472.375 11.8157 471.178 11.5818 470.94C11.0624 470.44 12.0734 467.91 12.7474 467.069Z" fill="#100A47" />
		<path d="M46.1055 415.34C45.7685 414.495 43.4095 415.506 43.4095 415.506L37.6804 427.811C37.6804 427.811 33.6363 428.989 33.1328 429.155C32.6253 429.326 35.6584 424.27 35.1548 424.27C34.6513 424.27 32.1218 424.607 31.6183 424.944C31.1108 425.281 14.4311 446.849 13.761 447.694C13.087 448.535 12.75 450.224 12.75 450.224C12.75 450.224 15.109 450.391 15.109 451.065C15.109 451.739 13.087 453.595 12.9165 454.265C12.75 454.939 12.75 467.073 12.75 467.073C13.0434 466.709 15.1526 464.96 17.476 463.056C17.8764 462.727 18.2848 462.394 18.6892 462.061C21.3654 459.86 23.9504 457.719 24.0377 457.473C24.2042 456.965 25.5522 450.732 26.2262 449.891C26.9002 449.05 32.4628 447.024 32.9663 446.857C33.4738 446.687 39.8729 451.406 39.5399 451.909C39.2029 452.413 39.2029 453.595 39.2029 453.595C39.2029 453.595 45.0985 455.954 44.5949 455.617C44.4244 455.502 44.1112 454.665 43.7623 453.591C42.7434 453.928 40.8879 448.031 40.8879 447.357C40.8879 446.683 38.3584 442.305 38.3584 441.793C38.3584 441.326 42.6681 429.941 43.3302 428.2C43.3619 428.113 43.3817 428.053 43.3976 428.013C43.4095 427.986 43.4134 427.974 43.4134 427.974L42.4024 427.637C42.4024 427.637 42.4064 427.625 42.4143 427.605C42.6363 426.963 46.4306 416.157 46.1055 415.34Z" fill="#100D2C" />
		<path d="M34.3125 394.949C33.9755 395.623 26.8984 403.879 26.8984 403.879C26.8984 403.879 33.6385 398.486 34.6495 396.972C35.6606 395.457 37.0086 393.097 37.6826 392.59C38.3566 392.086 42.4006 388.208 42.4006 388.208C42.4006 388.208 34.6495 394.275 34.3125 394.949Z" fill="#0D073E" />
		<path d="M19.9922 410.284C19.6552 410.958 18.4777 411.124 17.8037 411.461C17.1297 411.799 12.5821 418.369 11.7376 418.877C10.8931 419.385 7.01953 424.437 7.01953 424.437C7.01953 424.437 10.7266 420.729 11.7376 420.055C12.7486 419.381 18.4777 412.639 18.6442 412.136C18.8107 411.632 19.9922 411.461 20.4957 411.295C20.9993 411.128 21.1698 410.284 21.1698 409.61C21.1698 408.935 24.2028 406.747 24.2028 406.747C24.2028 406.747 21.6772 407.758 21.0032 408.261C20.3292 408.769 20.3292 409.61 19.9922 410.284Z" fill="#0D073E" />
		<path d="M24.0339 400.679C23.5304 401.354 15.2718 410.791 14.2608 411.632C13.5194 412.251 10.4309 416.751 8.8291 419.119C9.96699 417.457 11.7908 414.888 12.5758 414.329C13.7533 413.488 24.704 401.354 25.041 400.679C25.378 400.005 24.704 398.149 24.704 398.149C24.704 398.149 24.5375 400.005 24.0339 400.679Z" fill="#0D073E" />
		<path d="M55.8755 382.985L55.705 381.641C55.705 381.641 49.639 377.933 48.7984 377.43C48.6478 377.338 47.7755 377.854 46.4434 378.766C46.7368 379.738 47.0381 380.745 47.1134 381.137C47.2799 381.982 48.7984 382.993 49.639 383.838C50.4795 384.679 52.5055 386.871 53.1795 387.542C53.8495 388.216 57.0531 388.386 57.7271 388.89C58.0006 389.096 58.7738 389.659 59.5945 390.262C60.094 389.869 61.4301 388.763 61.4301 388.216C61.4341 387.534 55.8755 382.985 55.8755 382.985Z" fill="#363071" />
		<path d="M33.4697 456.287C32.4587 456.287 28.5851 456.961 28.5851 456.961C28.5851 456.961 30.7737 457.802 30.2702 457.973C29.7666 458.139 26.2261 457.806 26.3966 458.31C26.5631 458.813 31.1146 460.836 32.4627 460.836C33.8107 460.836 38.3583 461.339 39.3693 461.006C40.3803 460.669 41.5578 458.48 41.7283 457.469C41.8948 456.458 39.2028 453.595 39.2028 453.595C39.2028 453.595 34.4807 456.287 33.4697 456.287Z" fill="#0D073E" />
		<path d="M82.8326 472.463C81.6551 471.792 75.926 466.732 75.7555 465.892C75.5969 465.087 67.6318 457.092 66.3036 456.053L66.1569 455.95C66.1569 455.95 69.3564 462.355 68.5159 462.521C67.6754 462.692 61.4388 458.813 60.7688 458.984C60.0947 459.15 66.6644 463.195 67.5049 463.699C68.3494 464.206 61.7758 467.24 60.5983 467.744C59.4207 468.247 40.719 470.274 38.8674 470.103C37.0397 469.937 17.8503 463.707 17.4815 463.052C17.4696 463.041 17.4657 463.033 17.4696 463.025C17.5093 462.914 17.9811 462.549 18.6947 462.053C21.1727 460.316 24.0432 457.465 24.0432 457.465C24.0432 457.465 24.8877 455.443 24.3802 454.598L16.4626 461.676L9.77801 465.277L9.5996 465.42L0.00488281 473.16V473.589H66.3392C69.6102 472.72 72.9921 471.868 73.9 471.788C75.7555 471.618 82.8326 472.463 82.8326 472.463Z" fill="#120A54" />
		<path d="M66.1508 455.95C65.4768 455.613 57.7297 455.276 57.0517 454.939C56.3777 454.602 49.1341 450.224 48.2896 450.224C47.4609 450.224 44.8323 453.162 43.7896 453.575C44.2653 453.412 48.6702 451.933 49.4671 452.409C50.3076 452.917 54.6887 454.772 54.0147 455.276C53.3407 455.78 47.6116 455.78 47.6116 455.78C47.6116 455.78 57.8883 456.117 57.2142 456.454C56.5402 456.791 48.7931 458.476 47.7781 458.984C46.7711 459.487 41.042 462.691 41.042 462.691C41.042 462.691 53.6777 465.388 55.3587 465.217C57.0438 465.051 63.9504 462.858 63.1098 462.184C62.2693 461.51 58.5623 458.647 58.5623 458.647C58.5623 458.647 61.7618 456.791 62.6024 456.624C63.4587 456.454 66.1508 455.95 66.1508 455.95Z" fill="#363072" />
		<path d="M32.1199 470.944C31.2794 469.936 23.1873 468.081 22.6838 468.247C22.1922 468.414 23.1397 471.78 23.1834 471.947L20.8283 468.081C20.8283 468.081 16.4512 465.721 15.7772 465.721C15.1032 465.721 11.7331 467.406 10.7261 468.247C10.0878 468.779 6.50362 471.586 3.94238 473.589H35.03C33.7336 472.482 32.4807 471.384 32.1199 470.944Z" fill="#363070" />
		<path d="M58.5713 471.955C57.3938 471.788 52.1682 471.451 51.3277 471.788C50.9629 471.931 49.8251 472.728 48.6436 473.589H60.3475C59.6695 472.72 58.9995 472.018 58.5713 471.955Z" fill="#363070" />
		<path d="M0.446924 420.562C0.276439 420.562 0.129743 420.507 0.00683594 420.412V423.021L9.35573 414.515C8.91565 414.868 1.91785 420.562 0.446924 420.562Z" fill="#363072" />
		<path d="M16.6203 401.691C17.4608 401.183 18.8128 401.52 19.6533 401.52C20.4819 401.52 13.4643 407.246 12.2907 408.059C13.5159 407.238 25.9255 398.966 26.3934 398.657C26.8969 398.32 26.3934 396.294 27.0674 395.453C27.7374 394.612 45.4282 380.289 46.1022 380.122C46.7762 379.952 46.4392 381.808 47.2797 382.145C48.1203 382.482 52.1643 386.864 52.1643 386.864C52.1643 386.864 49.6348 382.648 48.7943 381.641C47.9537 380.63 47.6167 379.282 48.1203 379.111C48.4612 379 50.6855 379.262 52.1207 379.452C50.6379 378.544 49.1788 377.66 48.7982 377.426C48.6476 377.335 47.7753 377.85 46.4432 378.762C40.4524 382.874 25.2119 395.013 25.2119 395.29C25.2119 395.627 24.7044 398.153 24.7044 398.153L20.8308 400.346C20.8308 400.346 19.3163 399.843 18.4718 399.843C17.8255 399.843 5.59824 408.725 0 412.818V414.872C2.89427 412.132 15.8709 402.143 16.6203 401.691Z" fill="#363072" />
		<path d="M39.8183 410.859C39.1165 411.323 34.7593 419.512 34.2042 420.325C33.6491 421.137 35.8456 421.094 36.5394 420.796C37.2333 420.499 43.3786 410.562 42.8751 410.53C42.3716 410.498 39.8183 410.859 39.8183 410.859Z" fill="#100D2C" />
		<path d="M24.0356 457.465C24.0356 457.465 17.125 461.173 17.125 462.184C17.125 463.195 17.799 463.869 18.81 464.206C19.821 464.543 38.8598 470.103 38.8598 470.103C38.8598 470.103 19.9915 463.362 20.3285 462.858C20.6655 462.354 23.5281 461.68 24.0356 461.68C24.5391 461.68 27.5721 463.532 28.2461 463.703C28.9202 463.869 39.3673 463.703 39.8708 463.703C40.3743 463.703 28.5831 462.354 27.7426 462.017C26.8981 461.676 24.0356 457.465 24.0356 457.465Z" fill="#0D073E" />
		<g filter="url(#filter0_d_269_34885)">
			<path d="M329.236 433.926C329.056 433.75 328.913 433.616 328.807 433.533C328.721 433.461 328.665 433.426 328.631 433.426C327.992 433.426 326.871 434.106 326.871 434.106C326.871 434.106 321.352 426.98 315.607 419.661C309.546 411.939 303.234 404 302.907 404C302.268 404 292.365 410.476 292.365 411.043C292.365 411.61 292.365 413.549 292.365 413.549C292.365 413.549 287.733 416.805 287.248 417.107C286.928 417.308 290.112 429.022 292.255 436.755C293.316 440.579 294.12 443.427 294.12 443.427L293.827 443.178L275.435 427.635C275.431 427.632 273.675 427.744 273.675 427.744C273.585 427.715 272.679 427.415 271.915 427.632C271.118 427.859 265.366 430.926 265.046 431.154C264.727 431.381 266.163 432.972 266.163 432.972H267.118L267.757 433.993L268.554 434.787C268.554 434.787 267.757 435.127 267.599 435.469C267.438 435.809 280.221 467.511 279.743 467.738C279.262 467.965 274.307 468.759 273.671 468.872C273.032 468.987 269.039 470.465 268.077 470.465H281.179C280.54 470.465 278.939 469.669 279.901 469.556C279.901 469.556 279.909 469.556 279.92 469.554C279.931 469.554 279.95 469.551 279.969 469.548C281.382 469.449 293.481 469.556 293.481 469.556C293.481 469.556 293.169 469.612 292.68 469.701C290.861 470.043 286.62 470.877 287.248 471.145C287.624 471.305 292.214 471.57 296.831 471.765C301.982 471.984 307.17 472.12 306.58 471.939C305.463 471.599 305.463 471.599 305.463 471.599C305.463 471.599 316.874 471.765 324.239 471.891C328.172 471.957 330.951 472.014 330.229 472.024C329.721 472.032 328.98 472.104 328.157 472.209C328.157 472.209 328.142 472.211 328.119 472.214C325.578 472.538 322.314 473.179 323.036 473.233C323.593 473.276 330.951 473.674 337.015 474.006C338 474.059 338.951 474.11 339.831 474.158V445.967C336.459 442.004 331.063 435.731 329.236 433.926Z" fill="#1C195D" />
			<path d="M290.852 442.983C291.317 442.895 297.029 447.065 297.029 447.065L296.447 440.522L292.147 436.819C293.179 440.662 293.963 443.524 293.963 443.524L293.677 443.274L275.771 427.656C275.851 427.817 278.49 432.917 278.603 433.068C278.72 433.221 285.114 438.445 285.114 438.445L282.684 437.948L293.059 445.886C292.916 445.735 290.394 443.064 290.852 442.983Z" fill="#363072" />
			<path d="M312.777 440.316C312.777 440.316 314.051 445.194 314.693 445.533C315.332 445.872 314.216 446.897 314.216 446.897L298.727 423.636L301.443 426.02C301.443 426.02 303.359 425.678 303.359 425.227C303.359 424.773 299.05 414.445 299.211 413.086C299.369 411.724 302.562 409.569 303.04 409.001C303.509 408.448 299.696 410.715 299.534 410.814C299.636 410.704 302.893 407.222 303.52 406.659C304.159 406.093 292.348 413.545 292.348 413.545C292.348 413.545 287.719 416.797 287.234 417.099C286.757 417.398 294.102 443.381 294.102 443.381L293.809 443.133L300.166 465.618L295.379 460.285C295.379 460.285 293.302 460.851 292.825 460.397C292.348 459.946 289.951 454.841 289.793 454.497C289.635 454.163 284.992 445.359 284.845 445.087C284.905 445.295 286.122 449.405 286.438 449.845C286.757 450.299 288.835 454.838 288.835 455.177C288.835 455.517 286.757 453.701 286.757 453.701C286.757 453.701 287.077 454.721 287.234 455.177C287.396 455.631 285.318 455.404 284.841 455.177C284.36 454.95 274.623 432.372 274.623 432.372L276.058 438.273L275.9 440.428C275.9 440.428 272.707 431.803 272.707 431.464C272.707 431.125 271.271 432.145 271.271 432.145C271.271 432.145 269.194 432.03 269.036 431.691C268.875 431.352 273.984 429.422 274.303 428.856C274.623 428.29 273.668 427.721 273.668 427.721C273.578 427.691 272.673 427.392 271.91 427.609C271.114 427.836 265.366 430.898 265.046 431.125C264.727 431.352 266.162 432.941 266.162 432.941H267.116L267.755 433.961L268.552 434.754C268.552 434.754 267.755 435.093 267.597 435.435C267.518 435.6 270.565 443.333 273.623 451.178C276.787 459.297 279.972 467.543 279.728 467.657L283.237 467.431L281.002 468.224C281.002 468.224 284.514 468.563 285.788 468.563C286.859 468.563 282.005 469.198 280.393 469.406C280.19 469.433 280.04 469.452 279.957 469.462C279.927 469.465 279.912 469.468 279.901 469.468C279.89 469.47 279.882 469.47 279.882 469.47L280.641 469.569L284.195 470.037L288.298 469.799L292.021 469.583C292.021 469.583 292.261 469.596 292.656 469.615C293.892 469.679 296.63 469.81 298.088 469.81C300.004 469.81 292.498 470.83 292.498 470.83C292.498 470.83 297.284 470.717 298.088 470.944C298.471 471.054 297.705 471.377 296.807 471.676C301.954 471.895 307.138 472.031 306.549 471.85C305.433 471.51 305.433 471.51 305.433 471.51C305.433 471.51 316.835 471.676 324.195 471.801C327.114 471.257 331.205 470.637 334.729 470.83L312.777 437.36V440.316Z" fill="#0D073E" />
			<path d="M318.343 452.577C317.707 452.692 317.071 454.056 316.595 454.626C316.12 455.194 318.504 459.406 318.025 459.519C317.55 459.634 315.48 459.974 315.48 459.974C315.48 459.974 297.355 427.656 296.719 427.656C296.083 427.656 294.81 428.223 294.492 428.679C294.174 429.134 299.42 439.262 299.42 439.262C299.42 439.262 297.512 439.83 297.512 440.285C297.512 440.74 304.348 454.966 304.348 454.966L303.394 455.306C303.394 455.306 299.42 447.114 298.784 447.569C298.148 448.025 298.309 450.529 298.309 450.529L305.145 471.125L325.658 466.46C325.654 466.46 318.979 452.462 318.343 452.577Z" fill="#100D2C" />
			<path d="M282.164 456.127C281.523 456.016 279.919 456.353 279.436 456.464C278.957 456.579 279.757 458.384 279.757 458.384C279.757 458.384 279.115 458.721 278.636 458.384C278.157 458.047 275.749 451.614 275.27 451.388C275.025 451.274 274.372 451.306 273.787 451.361C276.964 459.435 280.164 467.634 279.919 467.748L283.444 467.523L281.198 468.311C281.198 468.311 284.727 468.648 286.006 468.648C287.081 468.648 282.206 469.28 280.587 469.487L280.836 469.649L284.406 470.114L288.527 469.878C287.949 468.508 282.772 456.233 282.164 456.127Z" fill="#100D2C" />
			<path d="M324.124 441.915C323.33 441.573 321.895 440.541 320.94 439.626C319.985 438.71 317.438 434.934 317.438 434.934C317.438 434.934 319.985 440.657 320.46 441.115C320.936 441.573 323.326 442.602 323.802 443.175C324.277 443.746 335.578 459.196 335.578 459.196C335.578 459.196 324.918 442.259 324.124 441.915Z" fill="#100D2C" />
			<path d="M339.65 458.792L326.389 459.601L315.37 464.574L309.297 465.729L305.624 468.505L304.823 470.588L304.188 469.78L303.549 471.631L305.466 471.862C305.466 471.862 306.324 471.876 307.718 471.895C314.133 471.99 331.939 472.268 330.232 472.292C329.724 472.3 328.984 472.374 328.16 472.48L329.269 472.439L332.544 472.614L330.867 471.977C330.867 471.977 339.011 472.094 338.375 472.325C337.736 472.556 335.657 472.728 335.657 472.728L339.831 473.147V459.013L339.65 458.792Z" fill="#0D073E" />
			<path d="M337.888 455.935C337.089 456.162 334.047 457.528 333.564 457.756C333.086 457.983 331.642 457.641 331.642 457.641C331.642 457.641 328.438 457.301 327.797 457.641C327.16 457.983 317.869 461.168 317.548 461.511C317.228 461.853 316.429 462.879 316.429 462.879C316.429 462.879 315.309 463.675 314.186 463.675C313.063 463.675 312.101 463.675 312.101 463.675L309.697 464.928C309.697 464.928 306.975 465.723 306.655 466.181C306.334 466.634 305.535 468.343 305.535 468.343C305.535 468.343 307.616 467.089 308.257 466.749C308.897 466.409 315.305 465.466 315.305 465.922C315.305 466.377 316.417 469.912 316.417 469.912C316.417 469.912 316.907 466.066 316.907 465.726C316.907 465.386 317.386 464.931 317.706 464.588C318.027 464.248 328.917 461.516 330.044 461.516C331.163 461.516 334.367 462.539 334.367 462.539C334.367 462.539 335.807 462.314 337.251 462.539C337.861 462.635 338.871 462.914 339.833 463.206V455.557C338.913 455.712 338.148 455.86 337.888 455.935Z" fill="#363071" />
			<path d="M335.321 465.373C334.842 465.373 331.793 464.548 330.993 464.667C330.194 464.783 327.149 470.662 327.149 470.662L328.269 464.667L326.341 465.137L324.258 470.662L324.896 465.373C324.896 465.373 319.123 466.429 318.644 466.665C318.164 466.9 316.878 471.017 316.878 471.017H315.44L314.161 467.373C314.161 467.373 313.036 467.608 312.557 467.843C312.078 468.078 313.519 470.898 313.519 470.898L312.399 471.017C312.399 471.017 311.595 468.314 310.795 468.549C309.995 468.781 306.95 470.43 306.95 470.43L307.603 471.874C314.04 471.971 331.91 472.253 330.197 472.278C329.688 472.287 328.945 472.361 328.118 472.469L329.231 472.428L332.518 472.605L330.835 471.957C330.835 471.957 339.008 472.076 338.37 472.311C337.729 472.547 335.642 472.721 335.642 472.721L339.83 473.147V465.818C337.687 465.591 335.555 465.373 335.321 465.373Z" fill="#1C195D" />
			<path d="M328.455 433.507C327.816 433.507 326.697 434.188 326.697 434.188C326.697 434.188 321.18 427.042 315.437 419.704C309.379 411.961 303.07 404 302.743 404C302.104 404 302.514 405.732 303.021 405.434C302.814 405.963 310.89 416.645 310.89 416.645L310.729 415.277L325.261 434.303C325.261 434.303 321.27 437.607 320.95 437.95C320.695 438.221 326.648 435.228 329.06 434.008C328.88 433.831 328.737 433.697 328.632 433.614C328.546 433.542 328.489 433.507 328.455 433.507Z" fill="#363072" />
			<path d="M337.876 455.942C337.073 456.173 334.016 457.557 333.531 457.787C333.05 458.018 331.6 457.671 331.6 457.671C331.6 457.671 328.38 457.326 327.736 457.671C327.096 458.018 317.759 461.244 317.438 461.592C317.438 461.592 321.138 460.959 320.816 461.19C320.506 461.412 318.15 462.229 318.006 462.283C318.146 462.254 320.437 461.765 321.058 461.654C321.702 461.537 324.839 460.674 325.744 460.498C326.649 460.324 330.475 459.638 330.956 459.524C331.44 459.407 332.482 460.27 332.887 460.498C333.289 460.729 334.338 462.633 334.338 462.633C334.338 462.633 333.933 461.193 333.933 460.905C333.933 460.617 334.255 459.231 334.418 459.06C334.577 458.886 337.717 456.754 338.277 456.58C338.485 456.515 339.118 456.371 339.83 456.216V455.557C338.906 455.717 338.137 455.866 337.876 455.942Z" fill="#130B59" />
			<path d="M311.32 429.063C312.151 429.063 316.305 433.416 316.305 433.416L302.699 414.716C302.699 414.716 303.373 416.835 303.73 417.236C304.088 417.638 305.904 420.272 305.986 420.684C306.064 421.097 305.119 422.11 305.119 422.11C305.119 422.11 312.184 432.581 313.126 434.125C312.616 433.15 310.621 429.063 311.32 429.063Z" fill="#100D2C" />
			<path d="M327.728 436.251C328.082 435.996 329.153 434.125 329.153 434.125L325.69 435.095L320.84 438.032C320.84 438.032 326.198 436.762 326.402 436.592C326.607 436.422 336.43 447.065 336.43 447.065C336.43 447.065 327.373 436.504 327.728 436.251Z" fill="#130B59" />
			<path d="M279.116 450.714C278.713 450.946 278.038 451.986 278.038 451.986C278.038 451.986 278.846 454.994 278.98 455.109C279.116 455.226 280.999 455.109 280.866 454.763C280.733 454.417 279.522 450.483 279.116 450.714Z" fill="#100D2C" />
		</g>
		<path opacity="0.35" d="M228.158 55.4561C227.695 55.5173 227.239 55.5882 226.78 55.6763C223.78 56.242 220.88 57.5043 218.278 59.4979L218.141 59.6024C216.294 61.0481 214.767 62.7288 213.573 64.6026C210.998 68.5706 209.916 73.2973 210.438 77.9563C210.601 79.4406 210.938 80.9306 211.449 82.3647C212.14 84.357 213.156 86.2699 214.516 88.0443C214.829 88.4538 215.155 88.8385 215.483 89.2061C216.71 90.5864 218.088 91.7588 219.556 92.7068C221.104 93.7179 222.787 94.5016 224.527 95.0563C230.64 96.9792 237.573 96.0153 243.061 91.8115C251.98 84.9794 253.681 72.1977 246.848 63.2771C243.868 59.3872 239.76 56.8718 235.324 55.8456C232.961 55.3045 230.545 55.1594 228.158 55.4561Z" fill="#657AE0" />
		<path d="M228.155 55.4564C224.675 55.8796 221.25 57.2036 218.267 59.4884L218.131 59.593C218.403 63.6846 219.082 68.3469 220.711 70.008C223.843 73.2087 227.143 77.4565 230.765 76.8943C234.37 76.3299 236.559 73.3531 237.024 69.5782C237.263 67.7092 236.301 61.5466 235.296 55.8339C232.958 55.3048 230.542 55.1597 228.155 55.4564Z" fill="#100D2C" />
		<path d="M231.625 81.5278C230.013 83.644 229.638 86.546 230.885 88.9012C231.361 89.8051 232.045 90.5965 233.014 90.9527C235.932 91.9966 237.253 84.7966 234.779 81.0612C233.743 79.4874 232.57 80.2779 231.625 81.5278Z" fill="#100D2C" />
		<path d="M238.951 74.8957C238.692 75.3257 238.611 76.0069 238.598 76.6972C238.583 78.1317 238.947 79.5551 239.572 80.8554C240.503 82.8183 242.147 86.0144 243.409 86.935C245.277 88.3039 249.826 79.2194 249.123 74.6679C248.414 70.1066 239.663 73.685 238.951 74.8957Z" fill="#100D2C" />
		<path d="M214.346 72.3786C213.329 72.9881 211.939 79.312 211.939 79.312C211.939 79.312 211.58 80.6395 211.43 82.3627C212.121 84.3551 213.138 86.268 214.497 88.0423C215.946 89.9337 217.657 91.5007 219.546 92.7146C221.249 93.282 222.737 93.488 223.379 93.398C224.998 93.1483 228.064 89.6395 227.691 88.285C227.309 86.938 223.445 82.3177 222.217 81.1388C220.972 79.9577 215.347 71.7667 214.346 72.3786Z" fill="#100D2C" />
		<path opacity="0.47" d="M229.68 55.3257C233.173 56.5947 236.35 58.8641 238.777 62.0326C245.611 70.9531 243.909 83.7349 234.991 90.5669C231.569 93.1878 227.577 94.5592 223.576 94.747C223.867 94.8644 224.178 94.9669 224.488 95.0693C230.601 96.9922 237.535 96.0283 243.022 91.8245C251.941 84.9924 253.642 72.2107 246.809 63.2902C243.829 59.4002 239.722 56.8848 235.285 55.8587C233.451 55.4228 231.565 55.2428 229.68 55.3257Z" fill="#221C5A" />
		<path opacity="0.5" d="M218.13 59.61C216.283 61.0557 214.756 62.7363 213.562 64.6101C210.987 68.5782 209.906 73.3049 210.427 77.9639C210.59 79.4482 210.927 80.9381 211.438 82.3723C212.129 84.3646 213.146 86.2775 214.505 88.0519C214.818 88.4613 215.144 88.8461 215.472 89.2137C214.692 87.8928 213.874 86.1989 213.158 84.1331C211.095 78.1487 211.741 74.3278 211.807 74.0299C211.849 74.3685 212.543 79.0502 215.722 77.4045C219.02 75.7133 219.868 69.309 217.893 67.3566C215.916 65.4215 214.136 66.9549 214.136 66.9549C214.136 66.9549 215.603 62.2267 222.989 57.714C224.333 56.885 225.613 56.2138 226.779 55.6764C223.779 56.2421 220.879 57.5044 218.277 59.498L218.13 59.61Z" fill="#221C5A" />
		<path opacity="0.46" d="M249.314 66.497C251.864 66.4026 255.942 66.0848 256.304 67.0456C257.356 69.833 247.322 77.2992 233.821 82.434C220.319 87.5728 208.462 88.4365 207.407 85.6508C206.927 84.3767 208.78 82.3362 212.222 80.0078C205.424 83.871 199.853 86.8759 200.61 88.8822C201.883 92.2558 217.746 90.4976 234.098 84.2753C250.452 78.0513 262.972 69.6351 261.696 66.2632C261.086 64.6382 254.729 65.6873 249.314 66.497Z" fill="#7FA4F4" />
		<path d="M249.465 75.7157C244.032 79.0616 227.666 86.0248 227.666 86.0248C227.666 86.0248 241.53 82.1266 250.175 76.0524C257.059 71.2162 257.079 69.0673 257.079 69.0673C257.079 69.0673 254.898 72.3698 249.465 75.7157Z" fill="#9CB8EF" />
		<path d="M264.489 30.4319C264.489 30.4319 262.917 29.3129 260.919 29.6046C258.775 29.9172 257.134 30.8132 254.387 30.6095C250.999 30.3578 248.68 26.6561 248.68 26.6561C248.68 26.6561 251.148 20.0155 251.148 17.3649C251.567 17.4101 251.967 17.5329 252.353 17.7062C254.072 18.4777 255.528 20.2533 257.303 20.6782C257.56 20.74 257.823 20.7731 258.095 20.7714C258.378 20.7697 258.649 20.7348 258.914 20.6765C260.839 20.255 262.417 18.5866 265.416 19.0716C265.627 19.1056 265.845 19.15 266.072 19.2066C266.072 19.2066 264.45 30.3613 264.489 30.4319Z" fill="white" />
		<path d="M255.18 30.9877C254.916 30.9877 254.643 30.978 254.357 30.9568C250.835 30.6953 248.479 26.9983 248.38 26.841C248.323 26.7493 248.311 26.6361 248.349 26.5347C248.373 26.4688 250.796 19.9232 250.796 17.3648C250.796 17.2659 250.838 17.1717 250.911 17.1057C250.985 17.0396 251.083 17.0083 251.182 17.0185C252.5 17.1608 253.608 17.9914 254.679 18.7946C255.797 19.6322 256.853 20.4237 258.068 20.4237C258.074 20.4237 258.081 20.4237 258.088 20.4237C258.981 20.4172 259.788 20.0438 260.641 19.6485C262.061 18.9911 263.67 18.2461 266.153 18.8686C266.326 18.9121 266.439 19.0797 266.413 19.2566C265.793 23.5212 264.867 29.9694 264.833 30.4217C264.836 30.5217 264.795 30.6213 264.717 30.6915C264.595 30.7999 264.415 30.8098 264.283 30.7155C264.269 30.7055 262.794 29.6822 260.965 29.9495C260.256 30.053 259.611 30.22 258.929 30.3967C257.804 30.688 256.646 30.9877 255.18 30.9877ZM249.064 26.6098C249.519 27.2688 251.603 30.0538 254.409 30.2621C256.165 30.3922 257.481 30.0518 258.754 29.7223C259.424 29.5487 260.118 29.3692 260.865 29.2602C262.32 29.0475 263.551 29.526 264.199 29.8601C264.284 29.1613 264.488 27.737 264.917 24.7435C265.237 22.5099 265.56 20.282 265.678 19.4739C263.608 19.0427 262.249 19.6714 260.934 20.2806C260.01 20.7085 259.137 21.1127 258.093 21.1202C258.085 21.1203 258.076 21.1203 258.068 21.1203C256.62 21.1204 255.421 20.2215 254.261 19.352C253.334 18.6573 252.454 17.9969 251.477 17.7735C251.286 20.4182 249.436 25.591 249.064 26.6098ZM264.79 30.2649C264.791 30.265 264.791 30.265 264.791 30.2652C264.791 30.265 264.791 30.265 264.79 30.2649ZM264.79 30.264C264.79 30.2641 264.79 30.2644 264.79 30.2646C264.79 30.2644 264.79 30.2642 264.79 30.264ZM264.789 30.263C264.79 30.2633 264.79 30.2635 264.79 30.2638C264.79 30.2635 264.79 30.2633 264.789 30.263Z" fill="#371A45" />
		<path d="M232.461 36.5059L232.28 38.0882L232.187 38.8942L230.596 52.7926C230.596 52.7926 231.55 52.8474 232.834 52.818C233.086 52.8122 233.35 52.8034 233.622 52.7902C235.649 52.6932 238.119 52.3598 239.093 51.3609C240.55 49.8671 241.1 42.2979 239.984 39.2406C239.473 37.839 236.606 37.1176 234.562 36.7759C234.334 36.7372 234.116 36.7038 233.913 36.675C233.056 36.5518 232.461 36.5059 232.461 36.5059Z" fill="white" />
		<g opacity="0.35">
			<g opacity="0.35">
				<path opacity="0.35" d="M232.28 38.0883L232.187 38.8942L230.924 49.9298L230.596 52.7927C230.596 52.7927 230.616 52.7938 230.654 52.7956C230.664 52.7959 230.677 52.7966 230.691 52.7974C230.701 52.7977 230.714 52.7982 230.726 52.7988C230.735 52.7995 230.744 52.7996 230.753 52.8004C230.757 52.8003 230.761 52.801 230.765 52.8009C230.782 52.8015 230.801 52.8025 230.821 52.8029C230.826 52.8035 230.83 52.8035 230.835 52.8036C230.851 52.8042 230.869 52.8048 230.887 52.8057C230.912 52.8069 230.938 52.8075 230.965 52.8083C230.985 52.8086 231.005 52.8098 231.026 52.8103C231.047 52.8109 231.069 52.8116 231.091 52.8123C231.119 52.8133 231.148 52.8137 231.179 52.815C231.239 52.8164 231.304 52.8182 231.372 52.8193C231.432 52.8211 231.495 52.8221 231.561 52.8228C231.638 52.8237 231.717 52.8251 231.8 52.8256C232.105 52.828 232.455 52.8267 232.834 52.818C232.908 52.8164 232.983 52.8142 233.059 52.8122C233.112 52.8107 233.166 52.8088 233.22 52.8068C233.351 52.8023 233.486 52.7969 233.622 52.7902C235.649 52.6934 238.119 52.3598 239.092 51.3608C240.292 50.131 240.878 44.7816 240.423 41.2234C240.398 44.2997 239.844 47.5653 238.939 48.4921C238.492 48.9505 237.678 49.262 236.727 49.4741C236.322 49.5645 235.981 49.1717 236.115 48.7793C236.116 48.7761 236.117 48.773 236.119 48.7698C236.363 48.0498 236.533 47.2199 236.584 46.2359C236.693 44.1274 236.551 41.0786 234.388 38.5075C234.338 38.4468 233.407 38.2807 232.28 38.0883Z" fill="#371A45" />
			</g>
		</g>
		<path d="M232.089 53.1769C231.243 53.1769 230.655 53.145 230.575 53.1405L230.207 53.1193L232.153 36.1332L232.487 36.1589C233.197 36.2134 239.449 36.7601 240.311 39.1208C240.844 40.5798 241.051 43.1822 240.851 45.9124C240.774 46.9637 240.437 50.4812 239.342 51.6041C238.008 52.9726 234.227 53.1769 232.089 53.1769ZM230.984 52.4622C233.043 52.54 237.564 52.4295 238.843 51.1178C240.198 49.7292 240.715 42.2567 239.657 39.3597C239.09 37.8071 234.771 37.0772 232.768 36.8828L230.984 52.4622Z" fill="#371A45" />
		<path d="M239.285 45.7436L236.535 45.7624C236.289 45.7641 236.075 45.9307 236.015 46.1689C235.795 47.0408 235.392 49.0811 236.204 49.8193C236.879 50.4321 238.04 50.4448 238.758 49.9171C239.56 49.3268 239.772 47.3132 239.828 46.313C239.845 46.0021 239.597 45.7414 239.285 45.7436Z" fill="white" />
		<g opacity="0.35">
			<g opacity="0.35">
				<path opacity="0.35" d="M236.016 46.1693C235.795 47.0409 235.392 49.0813 236.205 49.8192C236.879 50.4323 238.04 50.4449 238.758 49.9171C239.251 49.5537 239.521 48.6522 239.669 47.7795C239.516 48.2101 239.298 48.5534 239.041 48.7709C237.571 50.017 236.649 48.3666 236.649 48.3666C236.649 48.3666 236.444 48.7381 236.3 48.7501C235.698 48.8004 235.949 46.9445 236.1 45.9872C236.062 46.0404 236.032 46.1016 236.016 46.1693Z" fill="#371A45" />
			</g>
		</g>
		<path d="M237.538 50.5729C236.978 50.5729 236.421 50.3875 236.02 50.0228C235.128 49.2125 235.468 47.2183 235.749 46.1017C235.84 45.7427 236.162 45.4902 236.533 45.4878L239.284 45.4689C239.286 45.4689 239.287 45.4689 239.289 45.4689C239.511 45.4689 239.726 45.5608 239.879 45.7217C240.034 45.8837 240.115 46.1049 240.103 46.3284C240.024 47.7276 239.756 49.5243 238.921 50.1385C238.526 50.4294 238.03 50.5729 237.538 50.5729ZM239.288 46.0184L236.537 46.0372C236.416 46.038 236.312 46.1198 236.282 46.2361C235.86 47.9082 235.901 49.1717 236.39 49.6161C236.951 50.1261 237.961 50.1626 238.595 49.6958C239.097 49.3266 239.456 48.0563 239.554 46.2977C239.558 46.224 239.532 46.154 239.481 46.1006C239.43 46.0471 239.364 46.0195 239.288 46.0184Z" fill="#371A45" />
		<path d="M237.394 50.5336C237.335 50.4948 237.307 50.469 237.268 50.4362C237.234 50.4049 237.2 50.373 237.169 50.34C237.106 50.2744 237.048 50.2058 236.996 50.1342C236.893 49.991 236.802 49.8407 236.735 49.6822C236.595 49.3677 236.52 49.0345 236.495 48.7051C236.471 48.3745 236.493 48.0488 236.53 47.7336C236.549 47.5747 236.573 47.4162 236.606 47.2585C236.641 47.0989 236.674 46.9484 236.746 46.7844C236.764 46.7429 236.812 46.724 236.854 46.742C236.892 46.7589 236.911 46.8021 236.899 46.8415L236.896 46.8519C236.855 46.9814 236.832 47.1419 236.816 47.2913C236.801 47.4436 236.793 47.5975 236.79 47.7517C236.786 48.0621 236.798 48.3666 236.849 48.6594C236.902 48.9524 236.998 49.2329 237.14 49.4789C237.208 49.6038 237.294 49.7158 237.385 49.8181C237.431 49.8691 237.48 49.9165 237.531 49.9588C237.556 49.9807 237.581 50 237.607 50.0186C237.63 50.0351 237.664 50.0566 237.672 50.0596C237.815 50.1139 237.888 50.2742 237.834 50.4177C237.779 50.5613 237.619 50.6338 237.476 50.5796C237.456 50.5722 237.438 50.5628 237.421 50.5518L237.394 50.5336Z" fill="#371A45" />
		<path d="M235.86 38.568C236.201 38.5423 236.539 38.5259 236.88 38.5139C237.22 38.5024 237.56 38.4965 237.902 38.5004C238.244 38.5043 238.587 38.5137 238.933 38.542C239.279 38.5706 239.627 38.6087 239.985 38.6918C240.172 38.7354 240.289 38.9227 240.246 39.1103C240.202 39.2979 240.015 39.4146 239.827 39.3711C239.818 39.3689 239.808 39.3663 239.799 39.3634L239.797 39.3626C239.504 39.2679 239.183 39.2035 238.861 39.1499C238.537 39.0959 238.207 39.059 237.876 39.0276C237.544 38.996 237.21 38.974 236.876 38.9574C236.543 38.9412 236.206 38.9296 235.874 38.9268L235.872 38.9268C235.772 38.9259 235.693 38.8448 235.693 38.7457C235.694 38.6517 235.768 38.5751 235.86 38.568Z" fill="#371A45" />
		<path d="M248.633 39.9376C248.633 39.9376 245.97 49.2611 235.204 44.6851C234.749 44.4918 234.279 44.2741 233.794 44.0277L233.688 40.4984L233.66 39.5223L233.56 36.1802C233.56 36.1802 233.987 36.5006 234.712 36.9169C235.094 37.1389 235.559 37.3854 236.087 37.6266C237.8 38.4094 240.179 39.1287 242.563 38.6584C243.484 38.4773 244.405 38.1177 245.29 37.516L248.633 39.9376Z" fill="white" />
		<g opacity="0.25">
			<g opacity="0.25">
				<path opacity="0.25" d="M248.632 39.9373C248.632 39.9373 245.969 49.2608 235.204 44.6849C234.748 44.4916 234.278 44.2739 233.793 44.0274L233.688 40.4982C235.422 41.7886 238.441 45.5383 242.792 43.356C245.012 42.2432 242.839 41.375 242.562 38.6582C243.483 38.4771 244.404 38.1174 245.289 37.5157L248.632 39.9373Z" fill="#371A45" />
			</g>
		</g>
		<path d="M240.665 46.2998C238.571 46.2998 236.22 45.6453 233.636 44.3391C233.464 44.2524 233.395 44.0428 233.482 43.8711C233.569 43.6994 233.779 43.6307 233.95 43.7174C237.871 45.6992 241.195 46.1212 243.832 44.9715C246.716 43.7137 247.923 40.8908 248.221 40.0695L245.28 37.9385C243.088 39.3321 240.355 39.53 237.357 38.5084C235.051 37.7221 233.419 36.51 233.35 36.4588C233.196 36.3434 233.165 36.1253 233.28 35.9714C233.396 35.8175 233.614 35.7862 233.768 35.9012C233.831 35.9485 240.151 40.5934 245.093 37.2273C245.215 37.1446 245.375 37.1469 245.494 37.2332L248.837 39.6556C248.956 39.7415 249.008 39.8925 248.968 40.0333C248.922 40.1944 247.798 43.9972 244.118 45.6067C243.061 46.0689 241.908 46.2997 240.665 46.2998Z" fill="#371A45" />
		<path d="M241.486 46.2619C241.461 46.2619 241.436 46.2593 241.411 46.2538C240.648 46.0871 240.077 45.6658 239.714 45.0017C238.542 42.8539 240.015 38.8367 240.079 38.6668C240.146 38.4866 240.346 38.3948 240.526 38.4619C240.707 38.529 240.798 38.7295 240.731 38.9098C240.717 38.9485 239.305 42.7995 240.326 44.6685C240.591 45.1539 240.995 45.4498 241.559 45.5732C241.747 45.6143 241.867 45.7998 241.825 45.9878C241.79 46.1507 241.646 46.2619 241.486 46.2619Z" fill="#371A45" />
		<path d="M251.839 17.1742L246.602 37.9328L245.089 43.9325L241.153 59.5326L240.139 63.5521L238.876 63.2334L240.187 58.0375L243.823 43.6251L245.281 37.8457L250.576 16.8555C250.651 16.5603 250.915 16.3634 251.207 16.3634C251.259 16.3634 251.313 16.3704 251.367 16.3835C251.716 16.4715 251.927 16.8258 251.839 17.1742Z" fill="#DDDDDD" />
		<g opacity="0.26">
			<g opacity="0.26">
				<path opacity="0.26" d="M241.153 59.5328L240.139 63.5524L238.876 63.2337L240.187 58.0377C240.372 58.5872 240.672 59.1392 241.153 59.5328Z" fill="#371A45" />
			</g>
		</g>
		<g opacity="0.25">
			<g opacity="0.25">
				<path opacity="0.25" d="M246.599 37.9329L245.085 43.9326C244.58 43.9587 244.162 43.8324 243.819 43.6252L245.277 37.8458L246.599 37.9329Z" fill="#371A45" />
			</g>
		</g>
		<path d="M240.393 63.9755L238.454 63.4864L250.239 16.7707C250.374 16.2363 250.919 15.9109 251.453 16.0459C251.712 16.1112 251.93 16.2734 252.067 16.5028C252.204 16.732 252.243 17.0009 252.178 17.2598L240.393 63.9755ZM239.3 62.9813L239.888 63.1296L251.502 17.0894C251.522 17.0109 251.51 16.9294 251.469 16.8599C251.427 16.7903 251.361 16.7412 251.282 16.7214C251.121 16.6808 250.955 16.7791 250.914 16.9411L239.3 62.9813Z" fill="#371A45" />
		<path d="M246.642 35.2159C246.642 35.2621 246.639 35.31 246.632 35.3605C246.496 36.5456 244.799 38.8793 244.799 38.8793C244.799 38.8793 243.544 39.326 242.984 38.9699C242.761 38.8279 242.611 37.9075 242.581 37.0219C242.556 36.2983 242.612 35.5973 242.775 35.364C243.243 34.6926 246.641 34.4949 246.642 35.2159Z" fill="white" />
		<g opacity="0.25">
			<g opacity="0.25">
				<path opacity="0.25" d="M246.634 35.3606C246.497 36.5457 244.801 38.8794 244.801 38.8794C244.801 38.8794 243.545 39.3261 242.985 38.97C242.762 38.828 242.613 37.9076 242.582 37.022C242.826 37.3155 243.11 37.5192 243.356 37.3329C243.884 36.9341 243.408 35.7193 244.61 35.1916C244.991 35.0236 245.893 35.1821 246.634 35.3606Z" fill="#371A45" />
			</g>
		</g>
		<path d="M243.599 39.4574C243.309 39.4574 243.022 39.4074 242.796 39.2639C242.6 39.1388 242.474 38.8726 242.374 38.3736C242.213 37.5702 242.108 35.7096 242.489 35.165C243.011 34.4169 245.473 34.2705 246.361 34.5492C246.907 34.7207 246.989 35.0405 246.989 35.2159C246.991 36.4222 245.276 38.8151 245.08 39.084L245.017 39.1711L244.915 39.2072C244.759 39.2631 244.172 39.4574 243.599 39.4574ZM244.799 38.8791H244.8H244.799ZM243.192 38.6892C243.471 38.8379 244.141 38.7242 244.581 38.5848C245.102 37.8533 246.243 36.0926 246.291 35.2701C246.144 35.177 245.581 35.0574 244.671 35.1306C243.725 35.2066 243.15 35.434 243.06 35.5637C242.82 35.9135 242.925 38.294 243.192 38.6892Z" fill="#371A45" />
		<path d="M248.64 40.1447C247.963 41.8793 246.607 42.2581 246.164 42.2581C245.522 42.2581 245.272 41.9934 244.054 41.7042C242.837 41.4143 243.984 36.7582 244.333 36.0833C244.684 35.405 245.81 34.8938 246.455 34.7832C246.541 34.7684 246.619 34.7606 246.685 34.7606C247.245 34.7606 248.951 36.3289 248.998 36.9062C249.11 38.3169 248.943 39.367 248.64 40.1447Z" fill="white" />
		<g opacity="0.25">
			<g opacity="0.25">
				<path opacity="0.25" d="M248.64 40.1445C247.963 41.8791 246.607 42.2579 246.164 42.2579C245.522 42.2579 245.272 41.9932 244.054 41.7041C242.837 41.4141 243.984 36.758 244.333 36.0831C244.684 35.4048 245.81 34.8937 246.455 34.7831C246.163 35.3944 245.604 36.7667 245.322 38.7878C244.981 41.2347 247.171 40.9891 248.64 40.1445Z" fill="#371A45" />
			</g>
		</g>
		<path d="M246.166 42.6069C245.747 42.6069 245.462 42.5067 245.101 42.3799C244.83 42.2845 244.493 42.166 243.975 42.0429C243.788 41.9986 243.53 41.8674 243.359 41.4948C242.749 40.1665 243.741 36.4729 244.025 35.9237C244.502 35.0006 246.041 34.412 246.686 34.412C247.446 34.412 249.286 36.1177 249.346 36.8784C249.554 39.4845 248.815 40.8797 248.158 41.5911C247.417 42.393 246.557 42.6069 246.166 42.6069ZM246.685 35.1085C246.207 35.1086 244.959 35.6339 244.644 36.2434C244.367 36.78 243.53 40.1983 243.992 41.2042C244.057 41.3463 244.117 41.3605 244.136 41.3652C244.69 41.4966 245.046 41.622 245.332 41.7227C245.676 41.8436 245.866 41.9102 246.165 41.9102C246.374 41.9102 247.046 41.768 247.646 41.1185C248.453 40.2449 248.801 38.798 248.652 36.9342C248.605 36.5311 247.098 35.1322 246.685 35.1085ZM248.652 36.9343H248.653H248.652ZM248.652 36.9338V36.9339C248.652 36.9338 248.652 36.9338 248.652 36.9338Z" fill="#371A45" />
		<path d="M209.018 33.4563C209.018 33.4563 207.721 35.7413 205.714 35.7413C204.712 35.7422 203.707 34.7503 203.321 33.7759C203.188 33.4416 203.128 33.1089 203.167 32.8189C203.232 32.3191 203.778 31.7984 204.448 31.336C205.628 30.5236 207.191 29.8957 207.191 29.8957L209.018 33.4563Z" fill="white" />
		<g opacity="0.25">
			<g opacity="0.25">
				<path opacity="0.25" d="M209.018 33.4563C209.018 33.4563 207.72 35.7412 205.713 35.7412C204.712 35.7421 203.707 34.7503 203.32 33.7759C203.554 33.8229 203.858 33.7802 204.151 33.4293C205.265 32.0927 204.448 31.3359 204.448 31.3359C205.627 30.5235 207.19 29.8957 207.19 29.8957L209.018 33.4563Z" fill="#371A45" />
			</g>
		</g>
		<path d="M205.715 36.0896C205.026 36.0896 204.288 35.6988 203.69 35.0173C203.066 34.307 202.734 33.4471 202.823 32.7731C203.02 31.2683 206.389 29.8429 207.062 29.5724C207.241 29.5008 207.443 29.5872 207.515 29.7657C207.587 29.9442 207.5 30.147 207.322 30.2188C205.909 30.7868 203.626 32.0072 203.513 32.8638C203.452 33.3302 203.733 34.011 204.213 34.5578C204.672 35.0808 205.234 35.393 205.715 35.393C205.715 35.393 205.715 35.393 205.715 35.393C207.493 35.3925 208.705 33.3048 208.717 33.2837C208.813 33.1167 209.025 33.0585 209.192 33.1536C209.359 33.2487 209.418 33.4609 209.323 33.6281C209.266 33.7286 207.901 36.089 205.716 36.0896C205.715 36.0896 205.715 36.0896 205.715 36.0896Z" fill="#371A45" />
		<path d="M207.086 35.087C207.07 35.087 207.054 35.0847 207.037 35.08C206.945 35.053 206.892 34.9563 206.919 34.8639C206.982 34.6502 206.956 34.453 206.842 34.2612C206.391 33.5037 204.781 33.149 204.764 33.1456C204.672 33.1257 204.613 33.0364 204.63 32.9438C204.647 32.8513 204.735 32.7888 204.827 32.8032C206.385 33.0397 207.182 31.7396 207.215 31.6841C207.264 31.6017 207.371 31.5745 207.453 31.6235C207.536 31.6727 207.563 31.7792 207.514 31.8618C207.507 31.8741 206.924 32.8358 205.798 33.1085C206.304 33.3148 206.873 33.6328 207.141 34.0825C207.305 34.3583 207.343 34.6541 207.253 34.9616C207.231 35.0376 207.162 35.087 207.086 35.087Z" fill="#371A45" />
		<path d="M225.954 41.0269C225.496 41.4867 224.947 41.9038 224.325 42.2417C223.368 42.7633 222.238 43.0933 221.002 43.0933C220.525 43.0933 220.063 43.0724 219.616 43.0323C213.195 42.4672 209.741 38.1159 209 37.7301C208.208 37.3174 204.09 37.2886 204.404 35.3659C204.428 35.2179 204.512 35.0699 204.636 34.9236C205.352 34.0824 207.415 33.283 207.311 32.8172C207.145 32.0674 205.016 30.0899 204.601 29.2008C203.747 27.3661 205.058 26.0364 205.796 26.9272C207.04 28.4293 208.468 29.1956 210.719 30.9615C211.463 31.545 213.22 32.7632 214.096 33.3065C215.282 34.0424 216.422 34.6197 217.604 35.0333C219.426 35.6716 221.345 35.9215 223.679 35.7631C223.757 35.7578 223.835 35.7517 223.914 35.7456C228.291 35.4017 228.241 38.7359 225.954 41.0269Z" fill="white" />
		<g opacity="0.25">
			<g opacity="0.25">
				<path opacity="0.25" d="M224.322 42.2416C223.365 42.7633 222.234 43.0933 220.998 43.0933C220.522 43.0933 220.059 43.0723 219.612 43.0323C213.191 42.4672 209.737 38.1159 208.996 37.7301C208.204 37.3174 204.086 37.2886 204.4 35.3659C204.424 35.2179 204.508 35.0699 204.632 34.9236C204.685 35.2231 204.92 35.5436 205.588 35.7412C207.124 36.1958 209.352 36.1714 210.019 36.5336C210.9 37.0117 214.178 40.9058 218.297 40.9058C221.001 40.9058 221.954 38.735 221.954 38.735L224.322 42.2416Z" fill="#371A45" />
			</g>
		</g>
		<path d="M220.996 43.4414C220.517 43.4414 220.041 43.4204 219.579 43.379C214.256 42.9105 210.904 39.8756 209.473 38.5797C209.195 38.3284 208.933 38.0911 208.833 38.0389C208.667 37.9521 208.187 37.864 207.723 37.7787C206.149 37.4896 203.77 37.0527 204.054 35.3096C204.168 34.6095 205.085 34.0486 205.972 33.5063C206.313 33.2978 206.815 32.9907 206.947 32.8318C206.814 32.4813 206.167 31.7353 205.641 31.1289C205.05 30.4468 204.492 29.8025 204.28 29.3478C203.667 28.0324 204.04 26.8786 204.701 26.4606C205.162 26.1694 205.695 26.2653 206.058 26.7048C206.883 27.6999 207.777 28.3517 209.016 29.2538C209.578 29.663 210.214 30.1269 210.929 30.6872C211.648 31.2517 213.399 32.4675 214.274 33.0103C215.494 33.7673 216.619 34.3214 217.713 34.7043C219.53 35.341 221.417 35.567 223.65 35.4153C223.721 35.4105 223.792 35.405 223.864 35.3994L223.882 35.3981C226.444 35.1969 227.32 36.2361 227.615 36.8736C228.176 38.091 227.606 39.8588 226.194 41.2727H226.194C224.819 42.6509 222.924 43.4414 220.996 43.4414ZM205.251 26.9915C205.193 26.9915 205.134 27.0108 205.073 27.0495C204.722 27.2715 204.439 28.0401 204.911 29.0536C205.082 29.4199 205.634 30.0567 206.168 30.6726C207.02 31.6553 207.544 32.2849 207.645 32.7415C207.755 33.2327 207.19 33.578 206.335 34.1007C205.726 34.4736 204.804 35.037 204.742 35.4217C204.581 36.4084 206.188 36.7886 207.849 37.0936C208.434 37.2011 208.896 37.2859 209.155 37.4211C209.334 37.5146 209.563 37.7211 209.94 38.0633C211.32 39.3123 214.55 42.2371 219.641 42.6852C220.082 42.7247 220.538 42.7448 220.996 42.7448C222.741 42.7448 224.456 42.0289 225.701 40.7807L225.701 40.7806C226.908 39.5722 227.422 38.1194 226.982 37.1656C226.605 36.349 225.523 35.9682 223.936 36.0927L223.918 36.0941C223.843 36.0998 223.77 36.1055 223.697 36.1104C221.366 36.2684 219.392 36.0307 217.483 35.3619C216.34 34.962 215.171 34.3864 213.907 33.6024C212.999 33.0391 211.247 31.8225 210.499 31.2354C209.794 30.6828 209.163 30.2228 208.606 29.8169C207.374 28.92 206.402 28.2116 205.522 27.1492C205.435 27.0438 205.345 26.9915 205.251 26.9915Z" fill="#371A45" />
		<path d="M214.483 41.9896C214.386 41.9896 214.289 41.949 214.22 41.8697C214.094 41.7244 214.109 41.5045 214.255 41.3783C216.468 39.4554 216.051 34.6271 216.046 34.5785C216.029 34.3871 216.17 34.2174 216.361 34.1997C216.552 34.1818 216.722 34.3228 216.74 34.5143C216.76 34.7269 217.195 39.7465 214.712 41.9042C214.646 41.9615 214.564 41.9896 214.483 41.9896Z" fill="#371A45" />
		<path d="M232.131 51.9011C228.561 52.4871 218.248 53.222 217.816 51.4561C217.688 50.9249 218.307 47.0682 219.617 43.0321C220.05 41.7024 220.557 40.3527 221.137 39.0971C221.523 38.2594 221.942 37.4635 222.393 36.7416C222.552 36.4882 223.017 36.1434 223.68 35.7628C227.203 33.7409 236.332 30.7271 235.017 35.2482C234.86 35.7898 234.749 36.3393 234.677 36.8931C234.591 37.5314 234.556 38.1758 234.558 38.8193C234.563 40.742 234.887 42.6577 235.154 44.4088C235.732 48.2229 236.03 51.261 232.131 51.9011Z" fill="white" />
		<path d="M234.851 41.0218C235.21 42.6128 235.491 44.2057 235.704 45.8449C235.757 46.2542 235.798 46.668 235.825 47.0853C235.853 47.5023 235.858 47.9258 235.832 48.3533C235.804 48.7804 235.743 49.2142 235.614 49.6415C235.485 50.0675 235.281 50.4874 234.991 50.8475C234.703 51.2097 234.333 51.5014 233.937 51.7133C233.541 51.9264 233.122 52.0729 232.701 52.176C232.596 52.203 232.49 52.2198 232.385 52.242C232.279 52.2629 232.172 52.285 232.071 52.2998C231.867 52.3325 231.662 52.3628 231.458 52.3912C231.05 52.4476 230.642 52.4981 230.234 52.5437C229.418 52.6352 228.601 52.7102 227.783 52.7723C226.965 52.8353 226.146 52.8828 225.326 52.9113C224.505 52.9406 223.684 52.9551 222.86 52.9451C222.037 52.9342 221.211 52.9028 220.381 52.8157C219.966 52.7708 219.55 52.7135 219.131 52.6203C218.921 52.5731 218.711 52.5177 218.498 52.4421C218.286 52.3647 218.07 52.2734 217.855 52.1147C217.748 52.0325 217.64 51.9289 217.554 51.7867C217.533 51.7492 217.512 51.7128 217.496 51.673C217.48 51.6315 217.466 51.5893 217.454 51.547C217.445 51.5046 217.438 51.4616 217.433 51.4186L217.428 51.3203C217.422 51.0742 217.444 50.8719 217.465 50.659C217.51 50.2399 217.573 49.8318 217.643 49.4245C217.784 48.6111 217.954 47.8068 218.142 47.0066C218.331 46.207 218.536 45.4112 218.77 44.6237C219.237 43.0495 219.801 41.4988 220.531 40.0248C220.574 39.9385 220.679 39.9031 220.765 39.9459C220.845 39.9852 220.881 40.0768 220.853 40.1584L220.853 40.1591C220.329 41.6986 219.853 43.2466 219.426 44.8103C219 46.3728 218.622 47.9533 218.355 49.5449C218.289 49.942 218.23 50.3409 218.19 50.7334C218.172 50.9261 218.154 51.1311 218.16 51.293L218.163 51.3474C218.165 51.3548 218.165 51.3624 218.166 51.37C218.169 51.376 218.172 51.3821 218.173 51.389C218.176 51.3959 218.182 51.4031 218.185 51.411C218.205 51.4428 218.244 51.4852 218.299 51.5268C218.412 51.6104 218.575 51.6849 218.746 51.7445C218.918 51.8046 219.103 51.8528 219.291 51.8939C219.669 51.9756 220.063 52.0282 220.459 52.0685C221.252 52.1471 222.06 52.1734 222.867 52.1792C223.675 52.1841 224.485 52.1651 225.295 52.1311C226.915 52.058 228.537 51.9487 230.148 51.7721C230.551 51.7284 230.953 51.6799 231.353 51.6259C231.553 51.5988 231.752 51.5698 231.95 51.5388C232.051 51.5243 232.144 51.5047 232.239 51.4863C232.333 51.4666 232.429 51.4521 232.522 51.4285C233.26 51.247 233.961 50.9316 234.406 50.3743C234.86 49.8256 235.049 49.0736 235.102 48.3039C235.157 47.5302 235.091 46.7293 234.999 45.9302C234.908 45.1298 234.774 44.3264 234.67 43.5159C234.569 42.7048 234.493 41.8841 234.505 41.0577C234.506 40.9608 234.586 40.8834 234.682 40.8848C234.765 40.886 234.834 40.9446 234.851 41.0218Z" fill="#371A45" />
		<path d="M225.643 32.0705C225.6 32.0303 225.556 31.989 225.51 31.9478L225.653 32.0321L225.643 32.0705Z" fill="white" />
		<path d="M239.655 65.3C237.939 65.5691 234.922 64.869 233.833 62.3794C233.833 62.3794 232.568 57.9532 229.64 55.0605C227.479 52.9253 222.784 52.4351 221.773 53.8954C220.797 55.3043 222.792 59.1244 221.579 61.1595C221.097 61.9675 218.142 63.3765 214.13 62.7861C212.454 62.5388 212.205 61.2961 212.376 60.4698C212.39 60.4018 212.407 60.3365 212.426 60.2756C212.917 58.6925 215.123 58.3329 215.123 58.3329C215.123 58.3329 212.255 54.1705 213.342 50.7257C214.252 47.8443 216.556 46.7567 218.408 46.741C219.254 46.734 220.005 46.95 220.487 47.3209L229.583 45.6769L235.168 44.6668C235.259 45.5802 235.381 46.4345 235.533 47.2547C235.679 48.0507 235.853 48.8143 236.056 49.5702C236.891 52.6771 238.206 55.6421 240.024 60.0753C241.628 61.0828 242.503 62.0241 242.729 62.8296C243.069 64.0383 241.951 64.9404 239.655 65.3Z" fill="white" />
		<g opacity="0.26">
			<g opacity="0.26">
				<path opacity="0.26" d="M239.655 65.3C237.939 65.569 234.922 64.8689 233.833 62.3794C233.833 62.3794 232.568 57.9532 229.64 55.0604C227.479 52.9253 222.784 52.435 221.773 53.8953C220.797 55.3043 222.792 59.1244 221.579 61.1594C221.097 61.9675 218.142 63.3764 214.13 62.786C212.454 62.5387 212.205 61.2961 212.376 60.4697C212.872 60.7858 213.828 61.0619 215.662 61.0027C219.648 60.8746 220.939 59.7339 220.324 56.6931C219.751 53.8614 219.912 51.8881 221.017 50.966L220.81 50.9407C220.808 50.9399 220.807 50.9399 220.805 50.9399L220.704 50.9277C220.654 50.9216 220.604 50.9129 220.555 50.9016C220.535 50.8972 220.515 50.8911 220.496 50.8859C220.473 50.8789 220.449 50.8737 220.427 50.8667H220.429C219.748 50.6516 219.29 49.9733 219.378 49.2392L219.416 48.9266C219.416 48.7255 219.421 48.5252 219.432 48.324C219.133 48.257 218.874 48.0915 218.688 47.8643C218.485 47.617 218.367 47.2974 218.381 46.9526C218.384 46.9029 218.389 46.8533 218.396 46.8054C218.398 46.7949 218.4 46.7854 218.402 46.7758C218.404 46.7645 218.406 46.7523 218.408 46.7409C219.254 46.734 220.005 46.9499 220.487 47.3209L229.583 45.6768C229.619 45.7282 229.651 45.7813 229.679 45.8362C229.686 45.8475 229.69 45.8588 229.695 45.8693C229.711 45.8998 229.725 45.9302 229.738 45.9625C229.744 45.9773 229.749 45.9921 229.755 46.0069C229.766 46.0356 229.775 46.0643 229.785 46.0931C229.79 46.1105 229.794 46.127 229.799 46.1436C229.807 46.1723 229.814 46.201 229.82 46.2307C229.823 46.2481 229.827 46.2646 229.829 46.2829C229.834 46.3125 229.839 46.343 229.841 46.3735C229.843 46.3909 229.846 46.4074 229.847 46.424C229.849 46.4579 229.85 46.4928 229.85 46.5267C229.85 46.5407 229.851 46.5546 229.851 46.5677C229.85 46.6164 229.847 46.6661 229.841 46.7148L229.764 47.3583C230.528 47.4985 233.608 47.9905 235.533 47.2547C235.679 48.0506 235.853 48.8143 236.056 49.5701C235.967 49.6529 235.901 49.6895 235.901 49.6895C235.901 49.6895 233.368 50.7736 229.48 49.726L229.394 50.441C229.381 50.5515 229.356 50.6569 229.32 50.7579C229.319 50.7597 229.318 50.7614 229.318 50.7631C229.301 50.811 229.282 50.8581 229.261 50.9033C229.258 50.9085 229.255 50.9138 229.253 50.919C229.232 50.9608 229.21 51.0009 229.187 51.0409C229.186 51.0426 229.185 51.0444 229.184 51.0461C229.177 51.0566 229.17 51.0662 229.164 51.0766C229.14 51.1132 229.114 51.1497 229.087 51.1846C229.076 51.1994 229.064 51.2151 229.052 51.2299C229.037 51.2473 229.022 51.2638 229.007 51.2804C228.992 51.296 228.978 51.3117 228.962 51.3274C228.948 51.3413 228.933 51.3561 228.918 51.37C228.891 51.3953 228.864 51.4197 228.835 51.4423C228.831 51.4458 228.827 51.4493 228.823 51.4528C228.813 51.4606 228.803 51.4667 228.793 51.4746C228.77 51.4911 228.749 51.5068 228.725 51.5224C228.709 51.5329 228.695 51.5424 228.679 51.5521C228.656 51.566 228.633 51.579 228.609 51.5921C228.594 51.5999 228.581 51.6086 228.565 51.6156C228.53 51.6339 228.493 51.6504 228.457 51.6653C228.441 51.6722 228.425 51.6775 228.409 51.6835C228.396 51.6879 228.383 51.6923 228.37 51.6966C229.306 52.0893 230.106 52.5569 230.594 53.0681C233.29 55.8946 233.92 59.7461 235.584 62.4421C236.456 63.8536 240.799 64.3064 242.729 62.8296C243.069 64.0382 241.951 64.9404 239.655 65.3Z" fill="#371A45" />
			</g>
		</g>
		<path d="M238.916 65.7029C237.042 65.7031 234.522 64.8165 233.517 62.5188L233.501 62.4749C233.489 62.4315 232.225 58.1007 229.399 55.3086C227.951 53.8785 225.373 53.2746 223.684 53.4312C222.882 53.5058 222.306 53.7411 222.062 54.0934C221.684 54.6382 221.871 55.7751 222.069 56.9787C222.314 58.4642 222.591 60.1477 221.881 61.3381C221.303 62.3082 218.202 63.7369 214.082 63.1302C213.058 62.9794 212.553 62.4865 212.31 62.0995C211.805 61.2975 212.018 60.4212 212.096 60.1718C212.495 58.8878 213.831 58.3259 214.57 58.1082C213.861 56.9381 212.081 53.5737 213.013 50.6205C213.86 47.9372 215.757 46.9796 216.812 46.6475C218.244 46.1968 219.808 46.3564 220.703 47.0447C220.856 47.1619 220.884 47.3806 220.767 47.5331C220.65 47.6856 220.431 47.7143 220.278 47.597C219.567 47.0498 218.227 46.9326 217.021 47.3121C216.095 47.6035 214.429 48.4479 213.677 50.8302C212.655 54.0704 215.386 58.0946 215.413 58.1349L215.725 58.5876L215.183 58.6762C215.163 58.6795 213.182 59.0236 212.761 60.3785C212.647 60.7445 212.624 61.2913 212.899 61.7285C213.14 62.1112 213.572 62.351 214.184 62.4409C218.15 63.0248 220.905 61.6154 221.283 60.9814C221.862 60.0097 221.618 58.5264 221.382 57.0919C221.16 55.7451 220.951 54.4732 221.489 53.6966C221.858 53.1647 222.594 52.833 223.619 52.7376C225.465 52.5656 228.291 53.2347 229.888 54.813C232.768 57.6582 234.049 61.8674 234.164 62.2599C235.17 64.523 238.001 65.2075 239.604 64.9561C241.251 64.6978 242.279 64.1432 242.425 63.4345C242.591 62.6232 241.65 61.5065 239.842 60.3703L239.747 60.311L239.705 60.2077C239.409 59.4869 239.127 58.805 238.858 58.155C236.65 52.8194 235.317 49.5991 234.824 44.7016C234.805 44.5101 234.945 44.3394 235.136 44.3201C235.328 44.3005 235.498 44.4404 235.517 44.6318C236 49.4273 237.318 52.6121 239.502 57.8886C239.758 58.5082 240.027 59.157 240.307 59.8406C242.91 61.5013 243.269 62.7862 243.107 63.5747C242.958 64.2994 242.248 65.2466 239.712 65.6443C239.466 65.6828 239.198 65.7029 238.916 65.7029Z" fill="#371A45" />
		<path d="M219.384 47.2257C220.128 47.2257 220.732 46.622 220.732 45.8773C220.732 45.1325 220.128 44.5288 219.384 44.5288C218.639 44.5288 218.035 45.1325 218.035 45.8773C218.035 46.622 218.639 47.2257 219.384 47.2257Z" fill="white" />
		<g opacity="0.26">
			<g opacity="0.26">
				<path opacity="0.26" d="M218.036 45.8205C218.005 46.5646 218.582 47.1938 219.327 47.225C220.071 47.2563 220.7 46.6779 220.731 45.9338C220.74 45.7282 220.702 45.5304 220.626 45.3524C220.39 45.7983 219.912 46.0946 219.375 46.072C218.838 46.0494 218.386 45.7141 218.19 45.25C218.099 45.421 218.045 45.615 218.036 45.8205Z" fill="#371A45" />
			</g>
		</g>
		<path d="M219.385 47.5006C219.361 47.5006 219.338 47.5001 219.315 47.4992C218.882 47.481 218.481 47.2951 218.188 46.9759C217.895 46.6567 217.743 46.2424 217.761 45.8092C217.799 44.9149 218.557 44.2179 219.451 44.2556C220.345 44.2932 221.042 45.0513 221.005 45.9455C220.987 46.3787 220.801 46.7789 220.482 47.0723C220.18 47.35 219.792 47.5006 219.385 47.5006ZM219.382 44.8036C218.811 44.8036 218.334 45.256 218.31 45.8323C218.298 46.1188 218.398 46.3929 218.593 46.604C218.787 46.8151 219.051 46.9381 219.338 46.9501C219.624 46.9621 219.899 46.8619 220.11 46.6678C220.321 46.4737 220.444 46.209 220.456 45.9224C220.481 45.3309 220.02 44.8294 219.428 44.8046C219.413 44.8039 219.398 44.8036 219.382 44.8036ZM218.036 45.8207H218.037H218.036Z" fill="#371A45" />
		<g opacity="0.35">
			<g opacity="0.35">
				<path opacity="0.35" d="M219.241 47.1017C219.574 45.607 219.713 44.2096 219.734 42.9587C219.654 43.6765 219.535 44.4274 219.361 45.2058C219.158 46.1187 219.05 47.0789 219.071 48.0303C219.116 47.7175 219.174 47.4069 219.241 47.1017Z" fill="#371A45" />
			</g>
		</g>
		<path d="M220.36 49.7953L227.361 50.6351C228.19 50.7348 228.95 50.1381 229.049 49.3084L229.496 45.5828C229.583 44.8565 229.136 44.184 228.467 43.9612C228.372 43.929 228.273 43.9071 228.169 43.8945L221.169 43.0547C220.34 42.955 219.58 43.5517 219.481 44.3814L219.127 47.3321L219.033 48.107C218.934 48.9366 219.531 49.6956 220.36 49.7953Z" fill="white" />
		<g opacity="0.26">
			<g opacity="0.26">
				<path opacity="0.26" d="M220.36 49.7955L227.361 50.6353C228.19 50.735 228.95 50.1382 229.049 49.3086L229.496 45.583C229.583 44.8566 229.136 44.1842 228.467 43.9614C228.038 44.1777 227.765 44.3163 227.765 44.3163C227.065 47.266 226.035 48.6551 222.314 48.2702C220.708 48.1037 219.726 47.7378 219.127 47.3323L219.033 48.1072C218.934 48.9368 219.531 49.6958 220.36 49.7955Z" fill="#371A45" />
			</g>
		</g>
		<path d="M227.451 50.9095C227.376 50.9095 227.3 50.9049 227.223 50.8958L220.432 50.0809C219.393 49.9562 218.649 49.0091 218.773 47.9697L219.195 44.4532C219.256 43.9514 219.509 43.5021 219.909 43.188C220.308 42.8738 220.805 42.7339 221.307 42.7943L228.098 43.6091C228.599 43.6692 229.049 43.9226 229.363 44.3223C229.677 44.7221 229.817 45.2186 229.756 45.7203L229.335 49.2369C229.219 50.1999 228.398 50.9095 227.451 50.9095ZM227.289 50.3502C228.028 50.439 228.7 49.91 228.789 49.1714L229.211 45.6549C229.254 45.2989 229.154 44.9462 228.931 44.6618C228.707 44.3774 228.388 44.1974 228.032 44.1547L221.241 43.3399C220.885 43.2972 220.532 43.3966 220.248 43.6201C219.964 43.8435 219.784 44.1626 219.741 44.5186L219.319 48.0352C219.23 48.7738 219.759 49.4468 220.498 49.5353L227.289 50.3502Z" fill="#371A45" />
		<path d="M235.6 45.9349C235.6 45.9349 236.215 46.4966 236.189 47.2969C236.16 48.222 235.557 48.557 235.557 48.557C235.557 48.557 232.942 49.6785 228.946 48.5426C228.946 48.5426 227.856 46.9532 229.243 46.1926C229.243 46.1926 233.482 47.0719 235.6 45.9349Z" fill="white" />
		<g opacity="0.26">
			<g opacity="0.26">
				<path opacity="0.26" d="M236.186 47.2976C236.156 48.2217 235.554 48.5565 235.554 48.5565C235.554 48.5565 232.939 49.6786 228.943 48.5424C228.943 48.5424 228.585 48.0184 228.541 47.4297C228.558 47.4598 228.57 47.4756 228.57 47.4756C231.49 48.3064 233.673 47.9302 234.636 47.6677C235.304 47.4854 235.782 46.922 235.812 46.2584C235.812 46.2492 235.812 46.2401 235.813 46.2308C235.813 46.2154 235.814 46.2 235.812 46.185C235.986 46.4243 236.202 46.8182 236.186 47.2976Z" fill="#371A45" />
			</g>
		</g>
		<path d="M232.472 49.3293C231.465 49.3293 230.25 49.1989 228.872 48.8071L228.777 48.78L228.721 48.6983C228.696 48.6616 228.106 47.789 228.307 46.9439C228.408 46.5235 228.678 46.1897 229.112 45.9519L229.201 45.9033L229.3 45.9238C229.341 45.9324 233.466 46.7695 235.471 45.693L235.643 45.601L235.787 45.7323C235.816 45.7587 236.495 46.3898 236.465 47.3059C236.431 48.3746 235.721 48.7806 235.691 48.7974L235.666 48.8097C235.593 48.8409 234.421 49.3293 232.472 49.3293ZM229.125 48.3071C232.768 49.3131 235.216 48.3977 235.434 48.3111C235.502 48.2668 235.894 47.9816 235.916 47.2882C235.931 46.8306 235.692 46.461 235.539 46.2731C233.485 47.2206 229.959 46.6104 229.293 46.4826C229.048 46.6369 228.9 46.8296 228.842 47.0695C228.726 47.5552 229.006 48.1043 229.125 48.3071Z" fill="#371A45" />
		<path d="M231.03 57.0412C230.838 57.0412 230.682 56.8853 230.682 56.6929C230.682 56.5006 230.837 56.3447 231.03 56.3446C233.29 56.3441 237.085 55.9433 237.643 54.8696C237.732 54.6988 237.942 54.6325 238.113 54.7213C238.283 54.81 238.35 55.0203 238.261 55.191C237.326 56.9893 231.672 57.0412 231.03 57.0412Z" fill="#371A45" />
		<path d="M221.637 54.5059C221.526 54.5059 221.417 54.453 221.35 54.3546C219.441 51.5724 217.51 50.5296 216.226 50.1447C214.845 49.7308 213.894 49.9682 213.885 49.9706C213.699 50.0184 213.509 49.9079 213.46 49.7225C213.411 49.5371 213.52 49.3472 213.706 49.2974C213.879 49.2511 217.99 48.2251 221.924 53.9606C222.033 54.1191 221.993 54.3359 221.834 54.4448C221.774 54.4861 221.705 54.5059 221.637 54.5059Z" fill="#371A45" />
		<path d="M215.124 58.3326C215.124 58.3326 216.514 59.1945 219.019 58.5184L215.124 58.3326Z" fill="white" />
		<path d="M215.307 58.0366C215.318 58.0451 215.355 58.0672 215.384 58.0826C215.413 58.1001 215.448 58.1157 215.48 58.1322C215.546 58.1635 215.614 58.1958 215.685 58.2222C215.826 58.2795 215.974 58.3248 216.124 58.3649C216.424 58.4442 216.737 58.4902 217.054 58.5136C217.213 58.5209 217.372 58.5301 217.532 58.524C217.692 58.5259 217.852 58.5107 218.013 58.4993C218.174 58.4885 218.333 58.4596 218.494 58.4407C218.654 58.4133 218.813 58.3802 218.973 58.3502L218.985 58.348C219.079 58.3303 219.17 58.3924 219.188 58.4869C219.204 58.576 219.149 58.6621 219.064 58.6864C218.9 58.7323 218.738 58.7813 218.573 58.8246C218.406 58.8595 218.24 58.9041 218.071 58.9308C217.902 58.958 217.733 58.9887 217.561 59.002C217.389 59.0234 217.216 59.0291 217.043 59.0359C216.695 59.0408 216.345 59.0208 215.995 58.9608C215.821 58.9302 215.646 58.8931 215.473 58.8398C215.386 58.8157 215.3 58.7845 215.213 58.7522C215.17 58.7348 215.127 58.7192 215.083 58.6986C215.037 58.6781 215 58.6619 214.939 58.6285L214.928 58.6219C214.759 58.5281 214.698 58.3153 214.792 58.1466C214.886 57.978 215.099 57.9173 215.267 58.0112C215.281 58.0186 215.295 58.0278 215.307 58.0366Z" fill="#371A45" />
		<path d="M236.652 61.2846C236.957 61.2829 237.276 61.2539 237.582 61.2052C237.89 61.1562 238.191 61.0837 238.475 60.981C238.758 60.8773 239.026 60.7441 239.241 60.5677C239.46 60.3945 239.616 60.1785 239.703 59.9408C239.769 59.7599 239.969 59.6665 240.15 59.7323C240.331 59.7982 240.424 59.9983 240.358 60.1793C240.355 60.1895 240.35 60.2004 240.345 60.2101C240.261 60.3871 240.152 60.5511 240.025 60.6948C239.899 60.8398 239.751 60.9582 239.599 61.0609C239.294 61.2663 238.961 61.3911 238.63 61.4801C238.298 61.5671 237.964 61.6151 237.631 61.6378C237.297 61.6599 236.97 61.6609 236.631 61.6323C236.535 61.6242 236.464 61.5399 236.472 61.4441C236.48 61.3538 236.555 61.2855 236.644 61.2846L236.652 61.2846Z" fill="#371A45" />
		<path d="M240.548 30.9557C239.946 31.8671 238.547 33.2721 237.923 33.8607C236.379 34.4632 232.932 35.7661 231.492 36.1577C229.692 36.6473 225.246 38.6622 220.4 35.534C215.553 32.4058 214.05 29.3671 213.497 25.2002C213.054 21.8667 214.865 18.3842 215.826 17.0596C215.535 16.3868 215.073 14.3388 215.546 11.5295C216.137 8.01776 218.078 8.5208 219.616 9.19809C220.846 9.73992 222.512 11.396 223.191 12.1564C224.026 11.9079 226.323 11.4462 228.836 11.5876C231.349 11.7289 233.126 12.354 233.7 12.6489C233.687 12.8779 233.79 13.1463 234.306 12.3875C234.95 11.439 236.314 9.94021 238.103 9.64693C239.892 9.35365 240.213 10.6518 240.938 11.7758C241.662 12.8997 242.047 16.5647 241.686 17.7261C241.398 18.6552 240.754 19.7088 240.468 20.1194L240.958 21.9194C242.081 21.7856 244.387 22.2304 244.621 25.0795C244.854 27.9286 242.542 28.7702 241.357 28.8348C241.338 29.162 241.151 30.0443 240.548 30.9557Z" fill="white" />
		<path d="M241.928 39.6987L238.909 35.5901L237.923 33.8607M237.923 33.8607C238.547 33.2721 239.946 31.8671 240.548 30.9557C241.151 30.0443 241.338 29.162 241.357 28.8348C242.542 28.7702 244.854 27.9286 244.621 25.0795C244.387 22.2304 242.081 21.7856 240.958 21.9194L240.468 20.1194C240.754 19.7088 241.398 18.6552 241.686 17.7261C242.047 16.5647 241.662 12.8997 240.938 11.7758C240.213 10.6518 239.892 9.35365 238.103 9.64693C236.314 9.94021 234.95 11.439 234.306 12.3875C233.79 13.1463 233.687 12.8779 233.7 12.6489C233.126 12.354 231.349 11.7289 228.836 11.5876C226.323 11.4462 224.026 11.9079 223.191 12.1564C222.512 11.396 220.846 9.73992 219.616 9.19809C218.078 8.5208 216.137 8.01776 215.546 11.5295C215.073 14.3388 215.535 16.3868 215.826 17.0596C214.865 18.3842 213.054 21.8667 213.497 25.2002C214.05 29.3671 215.553 32.4058 220.4 35.534C225.246 38.6622 229.692 36.6473 231.492 36.1577C232.932 35.7661 236.379 34.4632 237.923 33.8607Z" stroke="white" stroke-width="0.408285" />
		<path fill-rule="evenodd" clip-rule="evenodd" d="M219.268 34.8531L218.355 35.9341L219.265 36.5938L219.079 36.9739C219.079 36.9739 220.042 37.7283 220.258 38.0524C220.474 38.3764 220.878 39.3198 221.411 39.5915C221.945 39.8632 224.822 40.7833 226.465 40.0148C228.109 39.2464 228.176 38.9172 228.696 38.7704C229.216 38.6237 231.666 38.2473 232.003 38.1406C232.339 38.0339 233.123 37.6065 233.539 37.2711C233.956 36.9357 234.913 36.1883 235.309 35.9764C235.705 35.7644 236.925 35.6967 237.14 35.6944C237.355 35.692 238.854 35.7136 239.107 35.4977L238.246 33.9414C238.246 33.9414 241.46 30.647 241.666 29.0042C241.666 29.0042 238.589 28.9687 238.176 25.8078C237.762 22.6468 241.232 21.6413 242.091 22.0206C242.091 22.0206 241.726 20.1312 241.158 19.2512C241.158 19.2512 239.633 21.1326 238.992 21.4628C238.351 21.7931 236.864 23.3474 236.651 24.3583C236.438 25.3692 236.49 29.836 236.213 30.491C235.936 31.146 235.136 33.7441 233.372 34.7639C231.609 35.7837 228.755 37.4563 226.748 37.3342C224.741 37.2121 224.056 36.8854 224.056 36.8854C224.056 36.8854 227.326 36.6319 228.265 36.3612C229.204 36.0905 232.137 34.9704 232.956 34.2263C233.774 33.4821 236.284 31.2175 235.726 27.8373C235.499 26.4613 234.793 27.3168 234.907 28.4511C234.978 29.1517 234.69 32.4922 231.912 34.0184C229.133 35.5445 224.753 37.2226 219.268 34.8531Z" fill="#B78FFF" />
		<path d="M232.797 36.8195C232.672 36.8954 232.538 36.9434 232.405 36.9956C232.272 37.0473 232.136 37.0903 231.998 37.1268C231.723 37.2025 231.446 37.2694 231.167 37.3315C230.609 37.4512 230.045 37.5448 229.475 37.6038L229.369 37.615L229.262 37.6244L229.048 37.6426C228.905 37.6508 228.762 37.6619 228.619 37.6668C228.547 37.6697 228.476 37.6735 228.404 37.675L228.19 37.6789C228.118 37.6808 228.046 37.6801 227.975 37.6801C227.903 37.6799 227.831 37.6808 227.76 37.6786C227.187 37.6682 226.615 37.6252 226.046 37.5547C225.477 37.4825 224.912 37.3806 224.353 37.25C224.213 37.2191 224.075 37.1815 223.936 37.1466C223.866 37.1295 223.797 37.1092 223.728 37.0902L223.521 37.0323L223.315 36.9698C223.247 36.9487 223.178 36.9288 223.11 36.9057C222.974 36.8606 222.837 36.8176 222.702 36.7684C221.618 36.3903 220.577 35.8874 219.605 35.2756C218.633 34.6629 217.729 33.9404 216.926 33.116L216.777 32.961L216.63 32.8025L216.557 32.7232C216.533 32.6967 216.51 32.6693 216.486 32.6424L216.343 32.4803C216.157 32.2611 215.974 32.039 215.802 31.8085C215.714 31.6947 215.631 31.5771 215.547 31.4604C215.504 31.4025 215.465 31.342 215.424 31.2829C215.384 31.2232 215.342 31.1646 215.304 31.1039C215.226 30.9829 215.146 30.863 215.072 30.7394C215.035 30.6778 214.997 30.617 214.961 30.5547L214.853 30.3677C214.816 30.3058 214.782 30.2422 214.748 30.179C214.714 30.1156 214.678 30.0528 214.645 29.989C214.58 29.8604 214.512 29.7334 214.452 29.6028C214.421 29.5378 214.389 29.4731 214.359 29.4078L214.271 29.2106C214.256 29.1776 214.241 29.145 214.227 29.1118L214.186 29.0121L214.103 28.8125L214.025 28.6109L213.987 28.51L213.951 28.4082L213.879 28.2045L213.812 27.999L213.778 27.8962L213.748 27.7926L213.687 27.5854L213.631 27.3765L213.603 27.2721L213.578 27.167L213.528 26.9567L213.484 26.7452L213.462 26.6394C213.455 26.6041 213.449 26.5685 213.442 26.5331L213.404 26.3203C213.359 26.0358 213.318 25.7502 213.294 25.463C213.278 25.3197 213.271 25.1758 213.261 25.032L213.257 24.9781L213.255 24.9241L213.251 24.8161C213.249 24.7441 213.245 24.6722 213.244 24.6001C213.244 24.4561 213.24 24.312 213.244 24.168C213.246 24.0959 213.247 24.0239 213.249 23.9519L213.259 23.7361C213.287 23.1605 213.361 22.5875 213.472 22.0221C213.485 21.9512 213.502 21.8811 213.517 21.8107C213.533 21.7404 213.547 21.6698 213.564 21.5998C213.6 21.4602 213.632 21.3197 213.672 21.1814C213.692 21.1121 213.711 21.0425 213.731 20.9734L213.795 20.7669C213.806 20.7326 213.816 20.698 213.827 20.6638L213.862 20.5615L213.932 20.357C214.32 19.2722 214.862 18.2426 215.534 17.3085C215.868 16.8397 216.237 16.3965 216.629 15.9763C216.678 15.9229 216.729 15.8724 216.779 15.8205C216.829 15.7692 216.878 15.7167 216.929 15.6664C217.032 15.5661 217.133 15.4638 217.24 15.3668C217.292 15.3179 217.344 15.2683 217.397 15.22L217.558 15.0766C217.585 15.0528 217.612 15.0286 217.639 15.0051L217.721 14.9354L217.886 14.796C218.329 14.431 218.793 14.0904 219.277 13.78C219.398 13.7039 219.519 13.6254 219.643 13.5529L219.828 13.4425L220.015 13.3362L220.109 13.283L220.203 13.2318L220.393 13.1299C220.456 13.0961 220.521 13.0645 220.585 13.0317C220.649 12.9996 220.712 12.9656 220.777 12.9353C221.293 12.6841 221.823 12.4595 222.363 12.2672C222.904 12.0753 223.455 11.9124 224.013 11.7791C225.13 11.5169 226.275 11.3708 227.421 11.3502C227.995 11.339 228.569 11.3569 229.14 11.4041C229.711 11.4527 230.28 11.5299 230.844 11.6357C231.407 11.7426 231.965 11.8802 232.514 12.0449C233.063 12.211 233.603 12.4076 234.132 12.6306L233.977 12.9947C231.917 12.1193 229.667 11.7008 227.429 11.7473C226.31 11.7677 225.194 11.9105 224.105 12.1664C223.561 12.2965 223.024 12.4553 222.497 12.6424C221.97 12.8299 221.455 13.0488 220.952 13.2935C220.889 13.323 220.828 13.3561 220.765 13.3874C220.703 13.4193 220.64 13.4501 220.579 13.483L220.394 13.5823L220.302 13.6321L220.211 13.6838L220.029 13.7873L219.849 13.8948C219.728 13.9653 219.611 14.0418 219.493 14.1158C219.023 14.4179 218.572 14.7491 218.141 15.1038L217.981 15.2392L217.901 15.307C217.875 15.3298 217.849 15.3533 217.823 15.3764L217.666 15.5157C217.615 15.5626 217.564 15.6108 217.513 15.6583C217.41 15.7525 217.312 15.8518 217.212 15.9492C217.162 15.998 217.115 16.049 217.066 16.0988C217.018 16.1491 216.968 16.1982 216.921 16.25C216.541 16.6578 216.183 17.0876 215.86 17.5418C215.208 18.4469 214.685 19.4431 214.31 20.4916L214.242 20.6892L214.209 20.7881C214.198 20.8211 214.188 20.8545 214.178 20.8878L214.116 21.0872C214.096 21.154 214.078 21.2213 214.059 21.2882C214.02 21.4218 213.989 21.5577 213.955 21.6925C213.938 21.7601 213.925 21.8284 213.909 21.8963C213.895 21.9643 213.879 22.032 213.866 22.1006C213.76 22.6469 213.687 23.2004 213.661 23.7568L213.651 23.9654C213.649 24.035 213.649 24.1046 213.647 24.1742C213.643 24.3134 213.647 24.4526 213.648 24.5917C213.648 24.6614 213.653 24.7309 213.655 24.8004L213.659 24.9047L213.661 24.9569L213.665 25.0089C213.674 25.1478 213.682 25.2868 213.697 25.4252C213.721 25.7026 213.761 25.9782 213.805 26.253L213.842 26.4585C213.848 26.4927 213.854 26.527 213.861 26.5611L213.882 26.6632L213.926 26.8675L213.974 27.0706L213.998 27.1721L214.026 27.2729L214.08 27.4746L214.139 27.6748L214.169 27.7749L214.201 27.8741L214.266 28.0727L214.336 28.2694L214.371 28.3678L214.409 28.4652L214.484 28.66L214.564 28.8529L214.604 28.9493C214.618 28.9813 214.633 29.0129 214.647 29.0447L214.732 29.2353C214.762 29.2985 214.793 29.3609 214.823 29.4238C214.881 29.55 214.948 29.6727 215.011 29.797C215.043 29.8587 215.077 29.9194 215.11 29.9806C215.144 30.0417 215.177 30.1032 215.212 30.1631L215.317 30.3439C215.352 30.4041 215.39 30.4629 215.426 30.5224C215.497 30.642 215.575 30.7579 215.65 30.875C215.688 30.9336 215.729 30.9902 215.768 31.048C215.808 31.1052 215.845 31.1637 215.887 31.2197C215.969 31.3326 216.049 31.4463 216.135 31.5564C216.302 31.7795 216.48 31.9943 216.661 32.2065L216.8 32.3633C216.823 32.3894 216.845 32.4159 216.869 32.4415L216.94 32.5183L217.082 32.6717L217.228 32.8218C218.008 33.6199 218.885 34.3236 219.829 34.9193C219.888 34.9575 219.948 34.993 220.007 35.0294L220.187 35.138L220.368 35.2428L220.459 35.2952L220.55 35.3457L220.734 35.4463C220.795 35.4798 220.858 35.511 220.92 35.5434C220.982 35.5751 221.043 35.6087 221.106 35.639L221.294 35.7312C221.797 35.9752 222.313 36.1915 222.839 36.3802C222.97 36.429 223.103 36.4717 223.236 36.5166C223.302 36.5395 223.369 36.5594 223.436 36.5803L223.636 36.6426L223.838 36.7003C223.905 36.7193 223.972 36.7396 224.04 36.7566C224.175 36.7915 224.31 36.8291 224.446 36.8601C224.99 36.991 225.541 37.094 226.096 37.1681C226.651 37.241 227.21 37.2841 227.769 37.3055C227.804 37.3073 227.839 37.3079 227.874 37.3087L227.979 37.3119C228.049 37.3138 228.119 37.3167 228.189 37.3168L228.4 37.3192L228.61 37.319C228.89 37.3185 229.171 37.3109 229.451 37.2975C229.732 37.2851 230.012 37.264 230.292 37.2376C230.572 37.2109 230.851 37.1743 231.13 37.1325C231.408 37.0881 231.686 37.0387 231.962 36.9804C232.1 36.9521 232.237 36.9188 232.376 36.8903C232.515 36.8628 232.652 36.829 232.797 36.8195Z" fill="black" />
		<path d="M225.84 37.3303C227.822 37.3156 231.284 36.7008 233.985 34.2467C236.685 31.7927 236.481 28.5059 236.504 27.5674C236.528 26.6289 235.965 23.7414 238.395 21.8751C240.824 20.0088 242.96 18.1732 241.243 12.5821C239.562 7.10891 234.974 10.2415 233.359 14.1714" stroke="black" stroke-width="0.564594" stroke-miterlimit="10" stroke-linecap="round" />
		<path d="M215.796 17.2869C215.093 13.1608 214.456 3.47956 223.284 12.178" stroke="black" stroke-width="0.564594" stroke-miterlimit="10" />
		<path d="M217.354 15.5331C216.978 13.6395 216.419 7.92931 220.496 13.1999" stroke="black" stroke-width="0.564594" stroke-miterlimit="10" />
		<path d="M221.967 12.6382L221.964 12.6307L221.96 12.621L221.952 12.6008C221.946 12.5873 221.94 12.573 221.934 12.5591C221.922 12.5312 221.908 12.5029 221.894 12.4746C221.882 12.4463 221.866 12.4184 221.852 12.3902L221.83 12.3479L221.807 12.3061L221.76 12.2224L221.711 12.1397C221.678 12.0841 221.642 12.0306 221.607 11.9761C221.466 11.7599 221.307 11.5524 221.139 11.3517C221.053 11.2534 220.968 11.1531 220.877 11.059L220.809 10.9872C220.787 10.9632 220.764 10.9391 220.74 10.9165L220.599 10.778C220.576 10.7551 220.553 10.7314 220.528 10.7091L220.455 10.6427L220.308 10.5095C220.284 10.4868 220.258 10.4662 220.233 10.4449L220.157 10.3812L220.004 10.2536L220.171 10.3613L220.255 10.4153C220.283 10.4334 220.311 10.4508 220.338 10.4703L220.502 10.585L220.584 10.6425C220.611 10.6618 220.637 10.6826 220.663 10.7026L220.823 10.8242C220.85 10.8441 220.875 10.8655 220.901 10.8869L220.978 10.9508C221.083 11.0345 221.182 11.1253 221.282 11.2148C221.479 11.3979 221.668 11.5909 221.845 11.7981C221.888 11.8505 221.933 11.9018 221.974 11.9563L222.038 12.0372L222.099 12.1203L222.129 12.162L222.159 12.2048C222.178 12.2337 222.198 12.2615 222.217 12.2914C222.236 12.3211 222.255 12.3498 222.273 12.381C222.282 12.3965 222.291 12.4113 222.301 12.4275L222.314 12.4519L222.321 12.4646L222.329 12.4796L221.967 12.6382Z" fill="black" />
		<path d="M238.187 17.6066C240.111 8.84224 235.963 11.6934 234.932 14.9601C234.876 15.1358 234.878 15.1328 234.994 15.2101C236.047 15.9129 236.897 16.7115 237.813 17.833C238.072 18.15 238.156 17.7457 238.187 17.6066Z" stroke="black" stroke-width="0.564594" stroke-miterlimit="10" />
		<path d="M240.281 12.565C240.299 12.6264 240.315 12.6884 240.332 12.7506C240.339 12.7817 240.348 12.8128 240.355 12.8441C240.362 12.8755 240.368 12.9069 240.374 12.9383C240.387 13.0012 240.399 13.0643 240.41 13.1276C240.42 13.1909 240.429 13.2545 240.438 13.3181C240.443 13.35 240.447 13.3819 240.451 13.4138L240.461 13.5096C240.468 13.5735 240.473 13.6376 240.479 13.7017C240.484 13.7658 240.486 13.83 240.489 13.8942L240.494 13.9906C240.495 14.0228 240.497 14.055 240.496 14.087C240.505 14.6014 240.464 15.1159 240.384 15.6226L240.352 15.8123L240.336 15.9071L240.317 16.0014L240.277 16.1895C240.264 16.252 240.252 16.3151 240.236 16.377C240.204 16.5012 240.174 16.6256 240.141 16.7491L240.087 16.9334L240.032 17.117C240.014 17.1784 239.992 17.2386 239.972 17.2991C239.951 17.3596 239.931 17.4201 239.909 17.4803L239.877 17.5705C239.867 17.6006 239.856 17.6308 239.844 17.6604L239.773 17.8386C239.725 17.957 239.678 18.0755 239.623 18.1913C239.57 18.3076 239.515 18.4231 239.455 18.5368C239.473 18.4093 239.495 18.2835 239.518 18.1585C239.542 18.0337 239.563 17.9084 239.587 17.784C239.611 17.6597 239.636 17.536 239.659 17.4117C239.681 17.2876 239.708 17.1645 239.73 17.0408L239.765 16.8553L239.801 16.6706C239.822 16.5468 239.846 16.4238 239.868 16.3006C239.891 16.1774 239.911 16.054 239.933 15.9307L239.949 15.8385L239.964 15.7459L239.993 15.5608C240.072 15.0674 240.138 14.5731 240.187 14.0753C240.237 13.5772 240.261 13.0776 240.281 12.565Z" fill="black" />
		<path d="M238.546 9.49063C238.615 9.48845 238.679 9.49955 238.736 9.51603C238.794 9.53273 238.846 9.55498 238.896 9.58012C238.993 9.63164 239.078 9.69342 239.153 9.76128C239.305 9.89699 239.427 10.0523 239.531 10.2146C239.583 10.2958 239.631 10.3791 239.674 10.4641C239.718 10.5489 239.758 10.6348 239.794 10.7223C239.868 10.8965 239.927 11.0753 239.977 11.2553C239.899 11.0856 239.812 10.9202 239.714 10.7636C239.666 10.685 239.614 10.609 239.559 10.5352C239.505 10.4615 239.448 10.3905 239.387 10.3234C239.267 10.1891 239.133 10.0678 238.989 9.97628C238.918 9.93031 238.843 9.89388 238.77 9.86944C238.733 9.85791 238.697 9.84992 238.664 9.84627C238.631 9.8426 238.6 9.84393 238.577 9.84985L238.546 9.49063Z" fill="black" />
		<path d="M241.182 28.8802C242.963 28.9886 244.501 27.5341 244.617 25.6316C244.732 23.7291 243.382 22.099 241.602 21.9907C239.821 21.8823 238.283 23.3368 238.167 25.2393C238.052 27.1418 239.402 28.7719 241.182 28.8802Z" stroke="black" stroke-width="0.564594" stroke-miterlimit="10" />
		<path d="M241.994 26.5304C242.465 26.5591 242.876 26.0879 242.913 25.478C242.951 24.868 242.599 24.3504 242.128 24.3217C241.657 24.2931 241.245 24.7643 241.208 25.3742C241.171 25.9841 241.523 26.5018 241.994 26.5304Z" stroke="black" stroke-width="0.564594" stroke-miterlimit="10" />
		<path d="M221.623 30.2357C221.623 30.2357 222.231 29.4364 223.143 30.0415L223.695 29.7604L222.437 28.8699L221.345 29.2846L221.187 29.6629L221.623 30.2357Z" fill="#5A233D" />
		<path d="M226.855 24.1183C227.848 22.6897 231.394 19.7476 235.63 23.699" stroke="black" stroke-width="0.564594" stroke-miterlimit="10" />
		<path d="M221.391 23.7859C220.615 21.7098 218.208 18.5646 214.536 21.6601" stroke="black" stroke-width="0.511607" stroke-miterlimit="10" />
		<path d="M232.965 24.1486C232.893 25.3319 231.876 26.2329 230.692 26.1609C229.509 26.0889 228.608 25.0712 228.68 23.8879C228.752 22.7046 229.77 21.8037 230.953 21.8757C232.136 21.9476 233.037 22.9653 232.965 24.1486Z" fill="black" />
		<path d="M220.748 22.6143C220.669 23.8979 219.656 24.7381 218.472 24.6661C217.289 24.5941 216.479 23.6274 216.551 22.4441C216.623 21.2608 217.606 20.3404 218.768 20.5764C219.636 20.7527 220.779 22.1002 220.748 22.6143Z" fill="black" />
		<path d="M221.241 25.9429C220.923 25.9739 219.673 26.5646 219.641 28.0565C219.613 29.3726 221.583 29.3831 222.067 29.0675C222.195 28.9845 222.323 28.8962 222.445 28.739" stroke="black" stroke-width="0.564594" stroke-miterlimit="10" stroke-linecap="round" />
		<path d="M222.531 27.2412C222.511 27.4266 222.495 27.6103 222.495 27.791C222.495 27.8814 222.498 27.9709 222.506 28.0591C222.513 28.1474 222.525 28.2344 222.544 28.3191C222.581 28.4887 222.641 28.6495 222.727 28.7957C222.748 28.8323 222.771 28.8682 222.795 28.9025C222.816 28.9317 222.841 28.9611 222.869 28.9896C222.925 29.0466 222.991 29.0999 223.062 29.1486C223.203 29.2464 223.363 29.3269 223.529 29.3926C223.695 29.4585 223.869 29.5097 224.045 29.5482C224.222 29.5869 224.402 29.6115 224.583 29.6237C224.765 29.6363 224.947 29.6365 225.129 29.6258C225.311 29.6151 225.492 29.593 225.672 29.5609C225.761 29.5447 225.851 29.5261 225.94 29.5051L226.006 29.4888C226.028 29.4831 226.048 29.4775 226.068 29.4713C226.109 29.4592 226.149 29.4451 226.188 29.4301C226.346 29.3704 226.487 29.2813 226.599 29.1712C226.711 29.0605 226.792 28.9287 226.834 28.7877C226.857 28.7174 226.87 28.6448 226.875 28.5709C226.879 28.4971 226.879 28.422 226.867 28.3465C226.847 28.1955 226.799 28.0429 226.73 27.8931C226.712 27.8558 226.694 27.8182 226.674 27.7813C226.665 27.7628 226.654 27.7443 226.644 27.7261L226.614 27.6741L226.477 27.4536C226.43 27.376 226.382 27.2946 226.337 27.2076C226.292 27.1199 226.247 27.0295 226.212 26.9233C226.3 26.9663 226.383 27.0168 226.463 27.0718L226.523 27.1135C226.542 27.128 226.562 27.1428 226.581 27.1577C226.619 27.1878 226.658 27.2179 226.694 27.251C226.731 27.2836 226.767 27.317 226.802 27.3523C226.836 27.3882 226.87 27.4253 226.903 27.4647C226.936 27.505 226.965 27.5452 226.993 27.5869C227.021 27.6285 227.048 27.6711 227.074 27.7151C227.125 27.8027 227.17 27.8952 227.206 27.9921C227.243 28.089 227.273 28.1903 227.288 28.2954C227.321 28.5047 227.309 28.7286 227.237 28.9377C227.165 29.1462 227.036 29.3346 226.875 29.482C226.715 29.6301 226.524 29.7372 226.327 29.8119C226.277 29.8303 226.227 29.8474 226.177 29.8618C226.152 29.8691 226.126 29.8761 226.102 29.8823L226.03 29.8999C225.934 29.9225 225.837 29.9425 225.739 29.9598C225.545 29.9945 225.347 30.0183 225.149 30.0297C224.752 30.0494 224.352 30.0205 223.961 29.9326C223.765 29.8884 223.572 29.83 223.385 29.7539C223.197 29.6777 223.014 29.5848 222.842 29.4644C222.756 29.4039 222.673 29.3367 222.595 29.2563C222.556 29.2161 222.519 29.1724 222.484 29.1235C222.453 29.0792 222.424 29.0354 222.398 28.9893C222.29 28.8062 222.215 28.6045 222.171 28.4016C222.126 28.1983 222.109 27.994 222.108 27.7943C222.106 27.5943 222.12 27.3983 222.137 27.2055L222.137 27.2027C222.147 27.0939 222.243 27.0136 222.352 27.0235C222.461 27.0333 222.541 27.1294 222.531 27.2382C222.531 27.2389 222.531 27.2406 222.531 27.2412Z" fill="black" />
		<path d="M223.485 26.2259C223.717 26.5925 222.745 27.1295 222.337 27.1037C221.857 27.0732 221.335 26.4308 221.304 26.0261C221.274 25.6373 222.96 25.3974 223.485 26.2259Z" stroke="black" stroke-width="0.564594" stroke-miterlimit="10" stroke-linecap="round" />
		<path d="M220.158 28.9772C220.245 29.2037 220.83 30.6128 221.349 29.2272" stroke="black" stroke-width="0.564594" stroke-miterlimit="10" stroke-linecap="round" />
		<path d="M224.801 29.8248C224.901 30.0453 225.507 31.15 225.937 29.7342" stroke="black" stroke-width="0.564594" stroke-miterlimit="10" stroke-linecap="round" />
		<path d="M221.164 29.6065C221.354 30.1412 222.961 31.9425 225.008 30.1661" stroke="black" stroke-width="0.564594" stroke-miterlimit="10" stroke-linecap="round" />
		<path d="M221.706 30.3129C221.832 30.0415 222.315 29.5115 223.076 30.0389" stroke="black" stroke-width="0.564594" stroke-miterlimit="10" stroke-linecap="round" />
		<path d="M222.935 30.2886C223.159 29.9448 223.755 29.396 224.768 30.3582" stroke="black" stroke-width="0.564594" stroke-miterlimit="10" stroke-linecap="round" />
		<path d="M221.966 31.5012C222.486 31.9144 223.26 32.0876 224.197 31.6767" stroke="black" stroke-width="0.564594" stroke-miterlimit="10" stroke-linecap="round" />
		<path d="M226.823 23.9951C228.361 19.6744 233.912 20.2975 235.534 23.2716C235.604 23.4011 235.743 23.7562 235.471 24.3814C233.533 28.8287 228.688 27.1689 227.273 25.1586C226.92 24.6566 226.746 24.209 226.823 23.9951Z" stroke="black" stroke-width="0.564594" stroke-miterlimit="10" />
		<path d="M221.358 23.2715C220.427 18.9344 216.256 18.6221 214.607 21.3973C214.535 21.5181 214.421 21.9777 214.581 22.6269C215.563 26.5942 219.405 26.2979 221.285 24.0393C221.456 23.8349 221.405 23.4907 221.358 23.2715Z" stroke="black" stroke-width="0.511607" stroke-miterlimit="10" />
	</g>
	<defs>
		<filter id="filter0_d_269_34885" x="261" y="404" width="82.833" height="78.158" filterUnits="userSpaceOnUse" color-interpolation-filters="sRGB">
			<feFlood flood-opacity="0" result="BackgroundImageFix" />
			<feColorMatrix in="SourceAlpha" type="matrix" values="0 0 0 0 0 0 0 0 0 0 0 0 0 0 0 0 0 0 127 0" result="hardAlpha" />
			<feOffset dy="4" />
			<feGaussianBlur stdDeviation="2" />
			<feComposite in2="hardAlpha" operator="out" />
			<feColorMatrix type="matrix" values="0 0 0 0 0 0 0 0 0 0 0 0 0 0 0 0 0 0 0.25 0" />
			<feBlend mode="normal" in2="BackgroundImageFix" result="effect1_dropShadow_269_34885" />
			<feBlend mode="normal" in="SourceGraphic" in2="effect1_dropShadow_269_34885" result="shape" />
		</filter>
		<radialGradient id="paint0_radial_269_34885" cx="0" cy="0" r="1" gradientUnits="userSpaceOnUse" gradientTransform="translate(199.946 237) rotate(90) scale(237 403.309)">
			<stop offset="0.296875" stop-color="#191D3A" stop-opacity="0" />
			<stop offset="1" />
		</radialGradient>
		<clipPath id="clip0_269_34885">
			<rect width="340" height="474" fill="white" />
		</clipPath>
	</defs>
</svg>
