<svg width="181" height="149" viewBox="0 0 181 149" fill="none" xmlns="http://www.w3.org/2000/svg">
  <g>
    <path d="M177.403 84.7381V115.452C177.403 128.762 145.316 146.167 105.736 146.167C66.1555 146.167 34.0693 128.762 34.0693 115.452V89.8571" stroke="#6F99EB" stroke-width="5.28968" stroke-linecap="round" stroke-linejoin="round" />
    <path d="M37.0796 92.509C45.9355 104.262 73.3224 115.289 105.736 115.289C145.317 115.289 177.403 98.8463 177.403 84.7178C177.403 76.7832 167.298 68.0911 151.439 61.9892" stroke="#6F99EB" stroke-width="5.28968" stroke-linecap="round" stroke-linejoin="round" />
    <path d="M146.689 33.5476V64.2619C146.689 77.5714 114.603 94.9762 75.0221 94.9762C35.4417 94.9762 3.35547 77.5714 3.35547 64.2619V33.5476" stroke="#6F99EB" stroke-width="5.28968" stroke-linecap="round" stroke-linejoin="round" />
    <path fill-rule="evenodd" clip-rule="evenodd" d="M146.691 33.5271C146.691 19.3883 114.605 2.83334 75.0241 2.83334C35.4436 2.83334 3.35742 19.3883 3.35742 33.5271C3.35742 47.6557 35.4436 64.0981 75.0241 64.0981C114.605 64.0981 146.691 47.6557 146.691 33.5271Z" stroke="#6F99EB" stroke-width="5.28968" stroke-linecap="round" stroke-linejoin="round" />
  </g>
</svg>