<svg width="41" height="41" viewBox="0 0 41 41" fill="none" xmlns="http://www.w3.org/2000/svg">
	<circle cx="20.9756" cy="20.991" r="20" fill="black" fill-opacity="0.15" />
	<path d="M23.5525 30.9364C23.264 31.6212 22.1333 32.9907 19.9179 32.9907C17.1487 32.9907 16.8025 28.1973 19.9179 28.1973C21.8217 28.1973 31.341 28.1973 32.0333 28.1973C32.7256 28.1973 34.9756 27.8549 34.9756 25.287C34.9756 23.2326 32.7833 22.6049 31.6871 22.5479H29.4371M18.3602 15.3577C19.1102 15.7001 20.264 16.0425 21.6487 15.0153C22.4794 14.3991 22.9493 13.3705 22.8837 12.2762M29.4371 22.5479L7.97559 22.5479C7.97559 22.5479 11.4423 16.2602 16.6294 13.4403C16.341 12.4816 16.0572 10.2457 18.014 9.36587C19.9179 8.5099 21.6487 9.15842 22.514 10.9066C22.7375 11.358 22.8566 11.8227 22.8837 12.2762M29.4371 22.5479C32.3794 20.6647 31.4448 17.2751 29.7833 15.3577C28.2998 13.6457 25.9756 12.105 22.8837 12.2762" stroke="currentColor" stroke-opacity="0.5" stroke-width="1.4" />
</svg>
