<svg width="451" height="65" viewBox="0 0 451 65" fill="none" xmlns="http://www.w3.org/2000/svg">
	<g filter="url(#filter0_i_73_298)">
		<path d="M32.567 23.6469V2.05502H49.98V62.9999H32.567V40.5369H17.766V62.9999H0.35321V2.05502H17.766V23.6469H32.567ZM115.271 62.9999H96.552L94.463 55.1639H76.876L74.786 62.9999H56.067L75.483 2.05502H95.856L115.271 62.9999ZM85.669 22.515L80.62 41.2339H90.719L85.669 22.515ZM142.044 64.3929C135.485 64.3929 130 63.0289 125.589 60.3009C121.178 57.5729 118.188 53.8289 116.621 49.0699L131.509 40.4499C133.541 45.6159 137.197 48.1989 142.479 48.1989C146.426 48.1989 148.4 47.1539 148.4 45.0649C148.4 43.7879 147.703 42.8589 146.31 42.2789C145.614 41.9889 144.888 41.7269 144.134 41.4949C143.959 41.4369 142.915 41.1179 140.999 40.5369L137.604 39.5799C125.473 35.9229 119.407 29.3929 119.407 19.9902C119.407 14.4181 121.41 9.80373 125.415 6.14703C129.536 2.49033 134.847 0.661926 141.348 0.661926C146.571 0.661926 151.215 1.90992 155.278 4.40572C159.341 6.84352 162.33 10.3261 164.245 14.8534L149.793 23.2986C148.11 19.0035 145.323 16.8559 141.435 16.8559C139.984 16.8559 138.852 17.1751 138.039 17.8136C137.227 18.394 136.82 19.1486 136.82 20.0773C136.82 21.3542 137.488 22.3409 138.823 23.0374C140.1 23.6759 142.741 24.5759 146.746 25.7369C152.144 27.3619 156.468 29.3059 159.718 31.5699C163.781 34.3559 165.813 38.7959 165.813 44.8909C165.813 51.0429 163.694 55.8319 159.457 59.2559C155.22 62.6809 149.416 64.3929 142.044 64.3929ZM205.434 23.6469V2.05502H222.846V62.9999H205.434V40.5369H190.633V62.9999H173.22V2.05502H190.633V23.6469H205.434ZM254.2 2.05502H279.448C287.807 2.05502 294.83 4.98613 300.518 10.8484C306.206 16.7108 309.05 23.9371 309.05 32.5279C309.05 41.1759 306.206 48.4309 300.518 54.2939C294.888 60.0979 287.865 62.9999 279.448 62.9999H254.2V2.05502ZM272.483 46.1099H279.448C282.989 46.1099 285.891 44.8619 288.155 42.3659C290.477 39.8119 291.637 36.5319 291.637 32.5279C291.637 28.5229 290.477 25.2719 288.155 22.7762C285.891 20.2224 282.989 18.9454 279.448 18.9454H272.483V46.1099ZM318.199 62.9999V2.05502H335.612V62.9999H318.199ZM376.602 64.3929C367.373 64.3929 359.769 61.3459 353.791 55.2509C347.755 49.0989 344.736 41.5239 344.736 32.5279C344.736 23.5308 347.755 15.9562 353.791 9.80373C359.769 3.70923 367.373 0.661926 376.602 0.661926C382.174 0.661926 387.34 1.99692 392.099 4.66692C396.917 7.33692 400.661 10.9355 403.331 15.4629L388.181 24.1689C387.195 22.1958 385.656 20.6287 383.567 19.4678C381.477 18.3069 379.156 17.7265 376.602 17.7265C372.365 17.7265 368.882 19.1195 366.154 21.9056C363.484 24.6339 362.149 28.1739 362.149 32.5279C362.149 36.8809 363.484 40.4209 366.154 43.1489C368.882 45.9349 372.365 47.3279 376.602 47.3279C379.214 47.3279 381.535 46.7479 383.567 45.5869C385.656 44.4259 387.195 42.8299 388.181 40.7989L403.331 49.5049C400.661 54.0899 396.917 57.7179 392.099 60.3879C387.34 63.0579 382.174 64.3929 376.602 64.3929ZM427.73 40.1889V46.9799H450.366V62.9999H410.317V2.05502H449.931V17.9006H427.73V24.5179H447.754V40.1889H427.73Z" fill="url(#paint0_linear_73_298)" />
	</g>
	<defs>
		<filter id="filter0_i_73_298" x="-1.64679" y="0.661926" width="452.013" height="65.731" filterUnits="userSpaceOnUse" color-interpolation-filters="sRGB">
			<feFlood flood-opacity="0" result="BackgroundImageFix" />
			<feBlend mode="normal" in="SourceGraphic" in2="BackgroundImageFix" result="shape" />
			<feColorMatrix in="SourceAlpha" type="matrix" values="0 0 0 0 0 0 0 0 0 0 0 0 0 0 0 0 0 0 127 0" result="hardAlpha" />
			<feOffset dx="-2" dy="2" />
			<feGaussianBlur stdDeviation="1" />
			<feComposite in2="hardAlpha" operator="arithmetic" k2="-1" k3="1" />
			<feColorMatrix type="matrix" values="0 0 0 0 0 0 0 0 0 0 0 0 0 0 0 0 0 0 0.6 0" />
			<feBlend mode="normal" in2="shape" result="effect1_innerShadow_73_298" />
		</filter>
		<linearGradient id="paint0_linear_73_298" x1="-33.5" y1="94.9999" x2="618" y2="-25.0001" gradientUnits="userSpaceOnUse">
			<stop stop-color="#FBAB1E" />
			<stop offset="0.520833" stop-color="#F4E200" />
			<stop offset="1" stop-color="#FD9E25" />
		</linearGradient>
	</defs>
</svg>
