<svg version="1.2" baseProfile="tiny-ps" xmlns="http://www.w3.org/2000/svg" viewBox="0 0 25 25" width="25" height="25">
	<title>new</title>
	<style>
		tspan { white-space:pre }
		.shp0 { fill: #ffffff } 
	</style>
	<g >
		<path fill-rule="evenodd" class="shp0" d="M24 12C24 12.77 23.28 13.3 22.64 13.77C22.27 14.05 21.81 14.39 21.75 14.61C21.68 14.86 21.92 15.4 22.11 15.84C22.43 16.58 22.77 17.36 22.39 18C22.02 18.65 21.17 18.75 20.35 18.84C19.89 18.89 19.31 18.96 19.13 19.13C18.96 19.31 18.89 19.89 18.84 20.35C18.75 21.17 18.66 22.02 18 22.39C17.44 22.72 16.6 22.43 15.84 22.1C15.42 21.92 14.99 21.73 14.71 21.73C14.39 21.81 14.05 22.27 13.77 22.64C13.3 23.28 12.77 24 12 24C11.23 24 10.7 23.28 10.23 22.64C9.95 22.27 9.61 21.81 9.39 21.75C9.01 21.74 8.58 21.92 8.16 22.11C7.4 22.43 6.56 22.72 6 22.39C5.35 22.02 5.25 21.17 5.16 20.35C5.11 19.89 5.04 19.31 4.87 19.13C4.69 18.96 4.11 18.89 3.65 18.84C2.83 18.75 1.98 18.65 1.61 18C1.23 17.36 1.57 16.58 1.9 15.84C2.09 15.4 2.32 14.86 2.25 14.61C2.19 14.39 1.73 14.05 1.36 13.77C0.72 13.3 0 12.77 0 12C0 11.23 0.72 10.7 1.36 10.23C1.73 9.95 2.19 9.61 2.25 9.39C2.32 9.14 2.08 8.6 1.89 8.16C1.57 7.41 1.23 6.64 1.61 6C1.98 5.35 2.83 5.25 3.65 5.16C4.11 5.11 4.69 5.04 4.87 4.87C5.04 4.69 5.11 4.11 5.16 3.65C5.25 2.83 5.34 1.98 6 1.61C6.56 1.28 7.4 1.57 8.16 1.89C8.58 2.08 9.01 2.26 9.29 2.26C9.61 2.19 9.95 1.73 10.23 1.36C10.7 0.72 11.23 0 12 0C12.77 0 13.3 0.72 13.77 1.36C14.05 1.73 14.39 2.19 14.61 2.25C14.98 2.25 15.42 2.08 15.84 1.89C16.59 1.57 17.43 1.28 18 1.61C18.65 1.98 18.75 2.83 18.84 3.65C18.89 4.11 18.96 4.69 19.13 4.87C19.31 5.04 19.89 5.11 20.35 5.16C21.17 5.25 22.02 5.35 22.39 6C22.77 6.64 22.43 7.42 22.1 8.16C21.91 8.6 21.68 9.14 21.75 9.39C21.81 9.61 22.27 9.95 22.64 10.23C23.28 10.7 24 11.23 24 12ZM9.39 9.91C9.39 9.63 9.16 9.39 8.87 9.39C8.58 9.39 8.35 9.63 8.35 9.91L8.35 12.52L6.16 9.6C6.02 9.42 5.79 9.35 5.57 9.42C5.36 9.49 5.22 9.69 5.22 9.91L5.22 14.09C5.22 14.37 5.45 14.61 5.74 14.61C6.03 14.61 6.26 14.37 6.26 14.09L6.26 11.48L8.45 14.4C8.55 14.53 8.71 14.61 8.87 14.61C8.92 14.61 8.98 14.6 9.03 14.58C9.25 14.51 9.39 14.31 9.39 14.09L9.39 9.91ZM13.04 11.48L11.48 11.48L11.48 10.43L13.04 10.43C13.33 10.43 13.57 10.2 13.57 9.91C13.57 9.63 13.33 9.39 13.04 9.39L10.96 9.39C10.67 9.39 10.43 9.63 10.43 9.91L10.43 14.09C10.43 14.37 10.67 14.61 10.96 14.61L13.04 14.61C13.33 14.61 13.57 14.37 13.57 14.09C13.57 13.8 13.33 13.57 13.04 13.57L11.48 13.57L11.48 12.52L13.04 12.52C13.33 12.52 13.57 12.29 13.57 12C13.57 11.71 13.33 11.48 13.04 11.48ZM19.43 9.41C19.15 9.34 18.87 9.51 18.8 9.79L18.19 12.22L17.71 10.79C17.57 10.37 16.86 10.37 16.72 10.79L16.24 12.22L15.64 9.79C15.57 9.51 15.28 9.34 15 9.41C14.72 9.48 14.56 9.76 14.62 10.04L15.67 14.21C15.72 14.44 15.92 14.6 16.15 14.61C16.42 14.62 16.6 14.47 16.67 14.25L17.22 12.61L17.76 14.25C17.84 14.46 18.04 14.61 18.26 14.61C18.27 14.61 18.27 14.61 18.28 14.61C18.51 14.6 18.71 14.44 18.77 14.21L19.81 10.04C19.88 9.76 19.71 9.48 19.43 9.41Z" />
	</g>
</svg>