<svg width="41" height="40" viewBox="0 0 41 40" fill="none" xmlns="http://www.w3.org/2000/svg">
	<path d="M20.7666 40C31.8123 40 40.7666 31.0457 40.7666 20C40.7666 8.9543 31.8123 0 20.7666 0C9.72091 0 0.766602 8.9543 0.766602 20C0.766602 31.0457 9.72091 40 20.7666 40Z" fill="black" fill-opacity="0.15" />
	<path d="M20 13.2649C20 13.2649 18 17.7922 17.5 15.9998C16.4952 12.3978 12.4366 13.0216 10.6727 13.2649C8.9087 13.5082 8.5559 14.9677 9.6143 15.211C10.6727 15.4543 12.3191 14.9677 11.4959 15.4543C10.6727 15.9408 10.0847 16.5489 11.1431 16.7922C12.2015 17.0355 9.0592 16.2565 10 16.4998C10.9408 16.7431 11.176 16.6349 10 16.9998C8.824 17.3647 11.2046 17.522 8.4999 17.522C5.7951 17.522 4.5583 18.4909 3.4999 19.2207C2.4415 19.9504 2.44141 20.7566 3.49981 20.9998C4.55821 21.2431 3.94001 21.9998 3.49981 22.9998C3.00461 24.1248 2.49981 24.9998 2.99981 25.4998C3.72411 26.2241 5.49981 26.4998 4.99981 27.4998C4.49981 28.4998 5.40911 28.7807 5.49981 29.9998C5.59051 31.219 7.3698 31.9788 9.1337 32.1004C10.8977 32.2221 10.6709 30.9112 12.5 32.1004C13.783 32.9346 15.3306 33.7767 16 33.9998C17.5 34.4998 20.5008 34.9864 22.5 34.4998C24.4992 34.0133 26.648 31.8917 29 32.4998C31.352 33.108 32.4711 32.7027 33.9998 30.9998C35.5286 29.297 35.748 29.4841 35.4998 28.4998C35.1216 26.9998 33.8039 26.7719 32.9807 26.8935C32.1575 27.0152 33.059 25.8647 33.9998 25.4998C34.9406 25.135 34.5007 25.8782 36.4998 25.9998C38.499 26.1215 39.9454 24.5869 38.6886 22.643C37.1599 20.2786 35.3134 22.0519 35.1216 20.8697C34.9926 20.0741 33.3691 19.833 32.7811 19.1032C32.1931 18.3734 31.0505 18.4808 32 16.4998C32.8591 14.7075 32.3783 12.8952 31 11.4998C29.2485 9.7266 27.6564 8.3373 26 7.9998C21.599 7.1031 19 10.9998 20 13.2649Z" stroke="currentColor" />
	<path d="M16.2641 17.9991C18.7645 18.9992 19.2626 18.9992 20.7632 17.4991C22.2637 15.999 21.7637 15.499 20.7637 14.499C20.0331 13.7684 18.7627 9.99886 22.7637 8.49926C27.0802 6.88136 29.7627 9.99926 31.7627 12.9993C33.7627 15.9993 29.7627 18.9991 30.2627 19.9991C30.7627 20.9991 32.7627 24.4993 29.7627 25.9993C26.7627 27.4993 24.2627 27.9993 22.2627 26.4993C20.2627 24.9993 19.7627 27.4993 16.7627 28.4993C13.7627 29.4993 9.26316 26.4993 7.76316 25.9993C6.26316 25.4993 4.26316 21.9991 6.76316 19.4991C9.26316 16.9991 13.7638 16.999 16.2641 17.9991Z" stroke="currentColor" />
	<path d="M20.2646 24.499C20.6649 25.2991 20.0974 26.4991 19.7637 26.999C20.0973 26.6657 20.8646 25.999 21.2646 25.999C21.6646 25.999 21.7646 26.3324 21.7646 26.499C21.9313 26.1657 22.0646 25.299 21.2646 24.499C20.4646 23.699 19.598 23.1657 19.2646 22.999C19.4312 23.1656 19.8644 23.6989 20.2646 24.499Z" fill="currentColor" />
	<path d="M27.7646 17.9994C29.3646 18.3994 29.7646 19.1661 29.7646 19.4994C28.7646 18.499 28.3253 20.6455 27.2646 20.999C25.7646 21.499 24.7646 20.499 24.7646 20.499C24.7646 20.499 26.7646 20.499 27.2646 19.999L27.7646 19.499C27.598 19.3324 26.5689 18.6512 26.2646 18.499C25.4646 18.099 24.598 18.3326 24.2646 18.4994C24.7646 18.1661 26.1646 17.5994 27.7646 17.9994Z" fill="currentColor" />
	<path d="M28.7646 14.9986C30.3646 15.3986 31.4313 16.4986 31.7646 16.9986L31.2646 17.4991C30.9313 17.1657 29.9646 16.2991 28.7646 15.4991C27.5646 14.6991 25.2646 15.4988 24.2646 15.9986C25.098 15.4986 27.1646 14.5986 28.7646 14.9986Z" fill="currentColor" />
	<path d="M12.2637 25.4995C11.8637 26.2994 11.9312 27.6661 12.2645 27.9995L10.2637 26.9995C10.2637 26.3328 10.8334 25.1196 11.7637 24.4995C13.2637 23.4995 14.597 23.4995 15.2637 23.4995C14.264 23.8328 12.6637 24.6995 12.2637 25.4995Z" fill="currentColor" />
	<path d="M20.7637 20.4986C20.097 20.4988 18.6637 20.2991 18.2637 19.4991C17.8637 18.6991 17.4303 18.499 17.2637 18.499C17.7637 18.499 18.8637 18.6991 19.2637 19.4991C19.6637 20.2991 20.4303 20.4988 20.7637 20.4986Z" fill="currentColor" />
	<path d="M22.2637 12.4995C21.855 13.3168 21.7637 14.8328 21.7637 15.4995L20.7637 14.4995C20.7637 14.4995 20.9474 13.6319 21.2637 12.9995C21.7637 11.9995 23.097 10.8328 23.7637 10.4995C23.7637 10.4995 22.6723 11.6822 22.2637 12.4995Z" fill="currentColor" />
	<path d="M8.2637 22.4995C7.5593 23.9082 7.7637 25.3328 7.7637 25.9995L6.2637 24.4995C6.2637 24.1661 6.2439 23.0193 7.2637 21.9995C8.2637 20.9995 9.9303 20.4995 10.7637 20.4995C10.097 20.8328 8.7637 21.4995 8.2637 22.4995Z" fill="currentColor" />
	<path d="M32.464 17.5791C31.6173 17.7997 31.06 18.1443 30.8872 18.2891C30.7143 18.4338 30.337 18.8313 30.2102 19.2633C30.0834 19.6952 30.4964 20.064 30.7188 20.1945C31.022 19.8274 31.7322 19.0063 32.147 18.6589C32.5617 18.3115 33.7518 17.6313 34.2951 17.3346C34.0375 17.3242 33.3107 17.3584 32.464 17.5791Z" fill="currentColor" />
	<path d="M33.2709 23.4853C32.4493 23.0878 31.7287 22.9675 31.4712 22.957L31.2598 23.6769C31.5174 23.6874 32.2125 23.7611 32.9324 23.9724C33.6523 24.1837 34.6865 24.8783 35.1136 25.1992C34.8417 24.7935 34.0925 23.8829 33.2709 23.4853Z" fill="currentColor" />
	<path d="M18.6145 30.1296C18.9526 28.9778 18.5429 28.1537 18.2957 27.8857L17.5973 28.2671C17.8021 28.4576 18.1947 29.029 18.1274 29.7911C18.06 30.5533 16.8015 31.4219 16.1807 31.761C16.8511 31.6971 18.2763 31.2814 18.6145 30.1296Z" fill="currentColor" />
	<path d="M12.0653 16.4784C12.2687 16.8509 12.0939 17.2687 11.9811 17.4311L13.1666 17.3881L12.658 16.4569C12.4546 16.0844 11.8038 15.8152 11.5039 15.7271C11.6063 15.8224 11.8619 16.1059 12.0653 16.4784Z" fill="currentColor" />
	<path d="M16.7505 10.0189C17.3548 10.6516 17.9269 10.9712 18.1374 11.0519C18.558 11.2131 18.8787 11.2691 19.3178 11.17C19.7569 11.0709 19.8785 10.5306 19.8844 10.2729C19.8844 10.2729 19.0297 10.8849 18.0448 10.3548C16.705 9.63385 15.5668 8.55045 14.373 7.49805C14.4893 7.70725 16.1462 9.38625 16.7505 10.0189Z" fill="currentColor" />
	<path d="M21.5199 6.44242C21.5718 7.35362 21.8168 8.04182 21.9329 8.27202L22.6647 8.10682C22.5487 7.87662 22.2753 7.23332 22.1101 6.50142C21.9449 5.76962 22.0493 4.52822 22.1221 3.99902C21.8997 4.43372 21.468 5.53112 21.5199 6.44242Z" fill="currentColor" />
	<path d="M12.392 15.0912C12.6502 16.3531 12.6506 17.3874 12.6185 17.7468L11.8709 17.8105C11.903 17.4511 11.9446 16.4668 11.854 15.4045C11.7634 14.3423 11.2463 12.6923 10.999 12C11.3558 12.5046 12.1338 13.8292 12.392 15.0912Z" fill="currentColor" />
	<path d="M33.0292 13.8448C31.9053 15.1944 30.8342 16.1505 30.4392 16.4599L29.8428 15.9883C30.2378 15.679 31.2869 14.7987 32.3229 13.7527C33.3589 12.7067 34.7011 10.8148 35.2427 9.99951C34.9732 10.719 34.1531 12.4953 33.0292 13.8448Z" fill="currentColor" />
</svg>
