<svg width="88" height="92" viewBox="0 0 88 92" fill="none" xmlns="http://www.w3.org/2000/svg">
	<path d="M78.8351 51.4288C76.9402 52.3394 74.8648 52.8123 72.7625 52.8125H72.7344C70.125 40.3813 57.3734 30.9375 42 30.9375C41.4719 30.9375 40.9578 30.9828 40.4375 31.0047V30.9375H15.4375C15.4352 34.1752 16.6946 37.2865 18.9484 39.6109C16.3425 42.0045 14.2479 44.9007 12.7906 48.125H2.9375V66.875H12.7906C14.4996 70.4555 16.9207 73.6499 19.906 76.2631C22.8913 78.8762 26.378 80.8533 30.1531 82.0734L32.625 90.3125H38.875V83.9281C39.9031 84.0156 40.9453 84.0625 42 84.0625C43.0547 84.0625 44.0969 84.0156 45.125 83.9281V90.3125H51.375L53.8469 82.0734C63.5859 78.6781 70.8375 71.225 72.7344 62.1875H72.7625C76.2069 62.1871 79.51 60.8186 81.9456 58.3831C84.3811 55.9476 85.7496 52.6444 85.75 49.2V45L83.7094 47.5516C82.3958 49.193 80.73 50.5181 78.8351 51.4288Z" fill="#EEF0F5" />
	<path d="M78.8354 51.4288C76.9405 52.3395 74.8651 52.8124 72.7628 52.8126H72.7347C70.7753 43.4704 63.0847 35.8173 52.8581 32.5907C56.1754 34.8371 58.9066 37.8451 60.8233 41.3632C62.74 44.8813 63.7865 48.8072 63.8753 52.8126C63.8753 67.4829 49.8847 79.3751 32.6253 79.3751C28.9309 79.3732 25.2588 78.803 21.7378 77.6844C24.3124 79.5525 27.148 81.0313 30.1534 82.0735L32.6253 90.3126H38.8753V83.9282C39.9034 84.0157 40.9456 84.0626 42.0003 84.0626C43.055 84.0626 44.0972 84.0157 45.1253 83.9282V90.3126H51.3753L53.8472 82.0735C63.5862 78.6782 70.8378 71.2251 72.7347 62.1876H72.7628C76.2072 62.1872 79.5103 60.8187 81.9459 58.3832C84.3814 55.9476 85.7499 52.6444 85.7503 49.2001V45.0001L83.7097 47.5516C82.3961 49.1931 80.7303 50.5182 78.8354 51.4288Z" fill="#DAE1EA" />
	<path d="M32.625 44.9781V41.875H29.5V44.9781C29.5008 45.8125 29.8326 46.6124 30.4226 47.2024C31.0126 47.7924 31.8125 48.1242 32.6469 48.125H51.3531C52.1875 48.1242 52.9874 47.7924 53.5774 47.2024C54.1674 46.6124 54.4992 45.8125 54.5 44.9781V41.875H51.375L51.3531 45L32.625 44.9781Z" fill="#301B52" />
	<path fill-rule="evenodd" clip-rule="evenodd" d="M85.3193 43.4983C85.0081 43.5873 84.7321 43.7708 84.5297 44.0234L82.4875 46.575C81.4491 47.8796 80.1579 48.961 78.6914 49.7544C77.2249 50.5478 75.6132 51.0368 73.9531 51.1922C70.5641 38.4719 57.3656 29.375 42 29.375C41.6266 29.375 41.2578 29.3953 40.8906 29.4156H40.8125C40.6896 29.387 40.5637 29.3734 40.4375 29.375H15.4375C15.0231 29.375 14.6257 29.5396 14.3326 29.8327C14.0396 30.1257 13.875 30.5231 13.875 30.9375C13.8701 34.0444 14.9016 37.0641 16.8063 39.5188C14.777 41.5891 13.0865 43.9661 11.7969 46.5625H2.9375C2.5231 46.5625 2.12567 46.7271 1.83265 47.0202C1.53962 47.3132 1.375 47.7106 1.375 48.125V66.875C1.375 67.2894 1.53962 67.6868 1.83265 67.9799C2.12567 68.2729 2.5231 68.4375 2.9375 68.4375H11.7969C15.4079 75.3668 21.5102 80.6707 28.875 83.2813L31.1219 90.7656C31.2195 91.0878 31.4185 91.3698 31.6894 91.5697C31.9602 91.7696 32.2884 91.8767 32.625 91.875H38.875C39.2894 91.875 39.6868 91.7104 39.9799 91.4174C40.2729 91.1243 40.4375 90.7269 40.4375 90.3125V85.5922C41.4906 85.6375 42.5094 85.6375 43.5625 85.5922V90.3125C43.5625 90.7269 43.7271 91.1243 44.0201 91.4174C44.3132 91.7104 44.7106 91.875 45.125 91.875H51.375C51.7111 91.875 52.0383 91.7666 52.308 91.566C52.5777 91.3653 52.7754 91.0829 52.8719 90.7609L55.125 83.2813C64.75 79.6875 71.6875 72.4594 73.9828 63.7C77.616 63.3892 81.0005 61.7275 83.4683 59.043C85.9361 56.3586 87.3078 52.8464 87.3125 49.2V45C87.3123 44.6764 87.2116 44.3608 87.0244 44.0969C86.8371 43.833 86.5726 43.6337 86.2672 43.5266C85.9618 43.4192 85.6306 43.4093 85.3193 43.4983ZM71.7469 60.9776C71.4682 61.2054 71.2767 61.5223 71.2047 61.875C69.4594 70.1922 62.6109 77.3703 53.3328 80.6063C53.0995 80.6875 52.8888 80.8229 52.7179 81.0013C52.5471 81.1798 52.421 81.3962 52.35 81.6328L50.2125 88.75H46.6875V83.9281C46.6875 83.712 46.6427 83.4981 46.5558 83.3002C46.4689 83.1022 46.3419 82.9245 46.1828 82.7781C46.0243 82.6306 45.8365 82.5181 45.6316 82.4481C45.4267 82.3781 45.2094 82.3521 44.9938 82.3719C43.0016 82.5422 40.9984 82.5422 39.0062 82.3719C38.7906 82.3519 38.5732 82.3778 38.3683 82.4478C38.1633 82.5179 37.9755 82.6304 37.8172 82.7781C37.6581 82.9245 37.5311 83.1022 37.4442 83.3002C37.3573 83.4981 37.3125 83.712 37.3125 83.9281V88.75H33.7875L31.65 81.625C31.579 81.3884 31.4529 81.172 31.2821 80.9935C31.1112 80.8151 30.9005 80.6797 30.6672 80.5984C27.0949 79.4461 23.7945 77.579 20.9668 75.1107C18.139 72.6423 15.8431 69.6244 14.2188 66.2406C14.096 65.9644 13.8958 65.7296 13.6423 65.5649C13.3888 65.4001 13.0929 65.3125 12.7906 65.3125H4.5V49.6875H12.7906C13.0929 49.6875 13.3888 49.5999 13.6423 49.4351C13.8958 49.2704 14.096 49.0357 14.2188 48.7594C15.5883 45.7265 17.5593 43.0032 20.0125 40.7547C20.1647 40.6133 20.2871 40.4431 20.3727 40.2539C20.4583 40.0646 20.5053 39.8602 20.5109 39.6526C20.5166 39.445 20.4809 39.2384 20.4057 39.0448C20.3306 38.8512 20.2176 38.6745 20.0734 38.525C18.4762 36.8787 17.4394 34.7702 17.1109 32.5H39.9844C40.1511 32.5544 40.3266 32.5766 40.5016 32.5656L41.0703 32.536C41.375 32.5188 41.6875 32.5 42 32.5C56.4156 32.5 68.6969 41.1781 71.2047 53.125C71.2829 53.4806 71.4807 53.7987 71.765 54.0261C72.0494 54.2536 72.4031 54.3767 72.7672 54.375C74.9121 54.3798 77.0346 53.9392 79.0004 53.0812C80.9662 52.2233 82.7325 50.9665 84.1875 49.3906C84.1326 52.3909 82.9014 55.2496 80.7592 57.3509C78.617 59.4522 75.7351 60.628 72.7344 60.625C72.3744 60.6253 72.0256 60.7498 71.7469 60.9776Z" fill="#301B52" />
	<path d="M0 10C0 15.5249 4.47492 20 10 20C15.5251 20 20 15.5249 20 10C20 4.47492 15.5251 0 10 0C4.47492 0 0 4.47492 0 10Z" fill="#FFEA80" />
	<path d="M10 20V0C15.5251 0 20 4.47492 20 10C20 15.5249 15.5251 20 10 20Z" fill="#FFD24D" />
	<path d="M5 10C5 12.7499 7.25008 15 10 15C12.7499 15 15 12.7499 15 10C15 7.24992 12.7499 5 10 5C7.25008 5 5 7.24992 5 10Z" fill="#FFD24D" />
	<path d="M10 15V5C12.7499 5 15 7.24992 15 10C15 12.7499 12.7499 15 10 15Z" fill="#FFAA33" />
	<path d="M61 10C61 15.5249 65.4749 20 71 20C76.5251 20 81 15.5249 81 10C81 4.47492 76.5251 0 71 0C65.4749 0 61 4.47492 61 10Z" fill="#FFEA80" />
	<path d="M71 20V0C76.5251 0 81 4.47492 81 10C81 15.5249 76.5251 20 71 20Z" fill="#FFD24D" />
	<path d="M66 10C66 12.7499 68.2501 15 71 15C73.7499 15 76 12.7499 76 10C76 7.24992 73.7499 5 71 5C68.2501 5 66 7.24992 66 10Z" fill="#FFD24D" />
	<path d="M71 15V5C73.7499 5 76 7.24992 76 10C76 12.7499 73.7499 15 71 15Z" fill="#FFAA33" />
	<path d="M28 26.5C28 33.4061 33.5936 39 40.5 39C47.4064 39 53 33.4061 53 26.5C53 19.5936 47.4064 14 40.5 14C33.5936 14 28 19.5936 28 26.5Z" fill="#FFEA80" />
	<path d="M40.5 39V14C47.4064 14 53 19.5936 53 26.5C53 33.4061 47.4064 39 40.5 39Z" fill="#FFD24D" />
	<path d="M34.25 26.5C34.25 29.9374 37.0626 32.75 40.5 32.75C43.9374 32.75 46.75 29.9374 46.75 26.5C46.75 23.0624 43.9374 20.25 40.5 20.25C37.0626 20.25 34.25 23.0624 34.25 26.5Z" fill="#FFD24D" />
	<path d="M40.5 32.75V20.25C43.9374 20.25 46.75 23.0624 46.75 26.5C46.75 29.9374 43.9374 32.75 40.5 32.75Z" fill="#FFAA33" />
	<circle cx="23" cy="47" r="2" fill="#301B52" />
</svg>
