<svg width="62" height="22" viewBox="0 0 62 22" fill="none" xmlns="http://www.w3.org/2000/svg">
<path fill-rule="evenodd" clip-rule="evenodd" d="M39.4727 3.03715C39.1838 3.03169 38.9687 2.9555 38.8273 2.80856C38.6852 2.6467 38.6107 2.45975 38.6036 2.24791C38.5885 1.7938 38.7551 1.31915 39.1033 0.822831C39.4521 0.341831 39.9586 0.0674101 40.6249 6.27919e-05C40.944 0.00484721 41.1978 0.102608 41.3863 0.292967C41.5753 0.499023 41.6734 0.715444 41.681 0.942218C41.6815 1.41199 41.4912 1.86531 41.1111 2.30158C40.7156 2.73895 40.169 2.9841 39.4727 3.03715ZM38.581 12.1692C38.3611 12.3961 38.1379 12.619 37.9114 12.8378C36.823 13.904 35.8021 14.483 34.8485 14.5748C34.4236 14.5886 34.0925 14.4483 33.855 14.153C33.6181 13.8732 33.4911 13.4832 33.4746 12.9838C33.4909 12.6805 33.5266 12.3706 33.5816 12.0542C33.1996 12.469 32.8117 12.8542 32.4179 13.2099C31.2796 14.2381 30.2125 14.805 29.2165 14.9108L29.1484 14.916C27.9463 14.916 27.0196 14.4397 26.3683 13.4867C26.1624 13.1926 25.985 12.9007 25.8361 12.6111C25.5904 12.9346 25.338 13.2521 25.0788 13.5637C24.0977 14.7434 23.1608 15.4273 22.2679 15.6152C21.8922 15.6687 21.5799 15.5756 21.3313 15.3357C21.0822 15.096 20.9237 14.7365 20.8551 14.2566C20.8122 13.957 20.8038 13.6295 20.8297 13.274C20.8555 12.9186 20.9017 12.5451 20.9684 12.1533C20.4552 13.1746 19.8658 14.0917 19.2003 14.9051C18.5517 15.7314 17.8541 16.2131 17.1072 16.3499C16.5193 16.4185 16.0749 16.3134 15.7748 16.0352C15.4574 15.744 15.2599 15.3285 15.1829 14.7889C15.0266 13.1597 15.5293 11.3143 16.691 9.25261C17.8526 7.19128 19.3607 5.94437 21.2154 5.51187C21.7584 5.45011 22.1617 5.5377 22.4255 5.7754C22.6895 6.0131 22.8544 6.31087 22.921 6.66831C23.1549 6.26799 23.362 5.94814 23.5424 5.70818C23.7229 5.46859 23.8729 5.3399 23.9934 5.32281C24.3281 5.30601 24.6738 5.41721 25.0299 5.65698C25.386 5.89695 25.5856 6.11341 25.6284 6.30581C25.6414 6.39568 25.6208 6.4676 25.5672 6.52097C24.9404 7.60456 24.3937 8.76771 23.9277 10.0116C23.4637 11.2703 23.2561 12.1794 23.3053 12.738C23.3203 12.8429 23.3536 12.9145 23.4052 12.953C23.4436 13.009 23.5004 13.0313 23.5759 13.0207C23.8587 12.9652 24.3097 12.58 24.928 11.8646C25.0698 11.7013 25.2146 11.5265 25.3624 11.3405C25.3133 11.1257 25.2807 10.9121 25.2644 10.6999C25.2594 10.442 25.3468 10.1924 25.5264 9.95095C25.6917 9.72571 25.8493 9.59999 25.9994 9.5734C26.0891 9.55154 26.1389 9.60816 26.1494 9.74399C26.1827 9.87588 26.2177 10.0055 26.2542 10.1329C26.467 9.82589 26.6852 9.49869 26.9088 9.15135C26.9353 9.11621 26.9702 9.09053 27.0137 9.07437C27.3795 8.57804 27.8528 7.91583 28.4332 7.08753C29.1047 6.12521 29.6349 5.30301 30.0239 4.62037C30.089 4.47871 30.149 4.36791 30.2037 4.28761C30.2581 4.20768 30.3223 4.14978 30.3958 4.11371C30.4843 4.07656 30.5738 4.05453 30.6646 4.0476C31.0755 4.04705 31.4972 4.1895 31.9301 4.47572C32.3628 4.76175 32.6053 5.04734 32.6575 5.33175C32.6656 5.43754 32.6273 5.53168 32.5424 5.61379C32.0778 6.69719 31.8758 7.8365 31.9374 9.03166C31.9836 10.2281 31.9518 11.2026 31.8421 11.955C32.3311 11.5841 32.8432 11.1197 33.3788 10.5625C33.7611 10.1416 34.1378 9.69667 34.5086 9.22714C34.7367 8.73737 35.0022 8.23504 35.3051 7.72013C36.4401 5.774 37.2632 4.70928 37.7735 4.52561C38.1079 4.54539 38.432 4.69355 38.7449 4.97087C39.0729 5.24804 39.2479 5.48472 39.2696 5.68072C39.2725 5.77152 39.2442 5.84068 39.1853 5.88799C38.4442 6.8974 37.7816 7.9946 37.1985 9.18011C36.6003 10.3815 36.2955 11.2628 36.2838 11.8234C36.2908 12.0356 36.37 12.1387 36.5219 12.1336C36.8092 12.1092 37.2918 11.7754 37.9692 11.1316C38.4865 10.6523 39.0489 10.0562 39.656 9.34398C39.9148 8.84062 40.2163 8.30753 40.5604 7.7447C41.7569 5.80316 42.6307 4.73232 43.1815 4.53259C43.5144 4.57072 43.8222 4.72166 44.1047 4.9856C44.3717 5.2641 44.5099 5.52526 44.52 5.76737C44.5179 5.85817 44.4859 5.92576 44.4245 5.96974C43.9412 6.53461 43.4244 7.25727 42.8737 8.13833C42.3232 9.00441 41.8246 9.90942 41.3791 10.8535C42.517 9.48602 43.7842 8.12884 45.1801 6.78218C46.5603 5.45045 47.5624 4.73867 48.187 4.64682C48.7928 4.69124 49.2662 4.89878 49.6074 5.27018C49.948 5.62644 50.1152 5.97108 50.1076 6.30396C50.106 6.37997 50.0892 6.4476 50.0577 6.50722C50.041 6.56746 50.002 6.61219 49.9408 6.64101C49.1759 7.59311 48.5472 8.57099 48.0545 9.57449C47.5463 10.5778 47.2788 11.3443 47.252 11.8737C47.2473 12.086 47.3207 12.1933 47.4727 12.1968C47.685 12.1866 48.1245 11.8788 48.7906 11.2725C49.1433 10.9595 49.5273 10.5918 49.9423 10.1694C50.3821 9.22146 51.0342 8.33871 51.8986 7.52123C53.3217 6.17809 54.6036 5.5202 55.745 5.54813L55.768 5.55054C55.9777 5.43548 56.2151 5.35372 56.4799 5.30508C56.7445 5.25665 57.0272 5.2481 57.3296 5.27957C58.0507 5.3856 58.5577 5.71251 58.8515 6.26045C59.1295 6.80704 59.2364 7.38916 59.1715 8.00623C59.1194 8.50301 58.9735 9.02105 58.7336 9.55885C58.4923 10.1124 58.1758 10.6576 57.7838 11.195C58.1338 11.2012 58.5248 11.1125 58.9561 10.9292C59.3874 10.746 59.8453 10.4512 60.3305 10.0452C60.5212 9.97376 60.6906 10.0296 60.8395 10.2126C60.9877 10.3956 61.0343 10.6059 60.979 10.8435C60.1589 11.5341 59.406 12.019 58.7207 12.2975C58.0521 12.5626 57.4535 12.6674 56.9253 12.6124C56.835 12.6029 56.7374 12.5852 56.6334 12.559C55.8991 13.3043 55.0958 13.9053 54.224 14.3624C53.3386 14.8031 52.4572 14.985 51.5803 14.9086C50.8107 14.8281 50.2304 14.5392 49.8407 14.0419C49.4974 13.6047 49.3333 13.0334 49.3489 12.3276C49.1218 12.5474 48.8927 12.7628 48.6618 12.9738C47.5618 13.9787 46.5637 14.5013 45.6675 14.5414C45.2579 14.5321 44.9352 14.3735 44.6992 14.0649C44.4631 13.7719 44.3504 13.3752 44.3616 12.8757C44.4442 11.8777 44.8418 10.728 45.5537 9.42639C46.2655 8.12495 46.9568 7.06516 47.6279 6.24737C46.4074 7.20441 45.0122 8.52814 43.442 10.2189C41.8715 11.8951 40.8502 13.1362 40.377 13.9434C40.313 14.0935 40.2265 14.2126 40.1184 14.3012C39.9952 14.3743 39.8579 14.4087 39.7065 14.4053C39.4029 14.3983 39.1335 14.2409 38.8974 13.9326C38.6463 13.624 38.52 13.1592 38.5189 12.5379C38.5348 12.4184 38.5555 12.2955 38.581 12.1692ZM7.56359 2.57525C9.64158 2.06799 11.3265 2.14408 12.6185 2.80255C13.8915 3.4507 14.7026 4.42582 15.0522 5.72772C15.4245 7.52566 15.0783 9.27987 14.0143 10.9901C12.9459 12.6861 11.6449 13.7779 10.1114 14.2654C9.55047 14.3996 9.05928 14.413 8.63802 14.3057C8.21283 14.1839 7.84702 13.9916 7.54093 13.728C7.19474 15.2474 6.7427 16.6065 6.185 17.8055C5.61284 19.0087 4.84134 19.7631 3.87145 20.0688C3.09754 20.2281 2.44401 20.1044 1.91106 19.6982C1.37791 19.2917 1.04663 18.8469 0.917066 18.3642C0.866148 18.1743 0.861326 18.0108 0.903365 17.8739C0.945038 17.7374 1.03928 17.6495 1.1861 17.6103C1.33629 17.586 1.46181 17.6154 1.56284 17.6981C1.67834 17.777 1.86232 17.7908 2.11552 17.7386C3.46045 16.9567 4.58237 14.9641 5.48187 11.7611C6.39978 8.56896 7.47987 6.59545 8.72234 5.8407C9.078 5.76155 9.39717 5.80981 9.67984 5.9851C9.95839 6.14595 10.1306 6.31957 10.1963 6.50577C10.216 6.57915 10.2151 6.63411 10.1936 6.67122C10.1614 6.72669 10.0994 6.75895 10.0077 6.76781C9.49178 6.95231 9.07703 7.57258 8.76361 8.62803C8.43929 9.70243 8.13085 10.9528 7.83848 12.379C8.02299 12.4237 8.26959 12.405 8.57714 12.323C9.93507 11.8824 11.0417 10.9447 11.8973 9.5089C12.7525 8.07371 13.054 6.73909 12.8017 5.50486C12.6173 4.81759 12.1934 4.35018 11.5306 4.10392C10.8676 3.85747 9.95512 3.88142 8.79373 4.17536C6.73236 4.80402 5.14815 5.80639 4.04168 7.18341C2.93484 8.56024 2.49337 9.7834 2.71763 10.8523C2.77842 10.9618 2.77465 11.0645 2.70633 11.161C2.63409 11.2433 2.51731 11.3057 2.35602 11.3487C1.98962 11.4462 1.56192 11.4038 1.07327 11.2205C0.595164 11.0188 0.25691 10.6073 0.058877 9.98588C-0.207708 8.58357 0.431014 7.1587 1.97451 5.71222C3.51427 4.25148 5.37703 3.20558 7.56359 2.57525ZM18.1387 14.0464C18.4971 13.9803 19.0038 13.4494 19.6588 12.4536C20.3155 11.4734 21.0996 10.1458 22.0101 8.47146L22.3644 7.73266C22.3747 7.70087 22.3774 7.66215 22.3708 7.6173L22.3626 7.55974L22.3548 7.5048C22.3052 7.26734 22.2097 7.08205 22.0684 6.9491C21.9118 6.81858 21.758 6.76372 21.6078 6.78504C20.7018 7.09763 19.8343 8.10807 19.0059 9.81651C18.1616 11.5276 17.7569 12.824 17.7908 13.7059C17.8274 13.961 17.9432 14.0742 18.1387 14.0464ZM26.7031 11.4036C27.0131 10.9465 27.3108 10.4785 27.5962 9.99964L27.607 9.99802C27.9511 9.53154 28.3031 9.0644 28.6633 8.59661C29.0391 8.14285 29.3726 7.73034 29.6635 7.3587C29.6596 8.69572 29.6038 9.95291 29.497 11.1304C29.373 12.2943 28.9889 12.9387 28.3443 13.0632C27.8264 13.0571 27.382 12.7186 27.0111 12.048C26.9019 11.8423 26.7992 11.6275 26.7031 11.4036ZM56.3306 10.6548C56.6845 10.1895 56.9697 9.72481 57.1867 9.2599C57.4183 8.79713 57.5546 8.36987 57.5958 7.97812C57.6354 7.60195 57.5693 7.28287 57.3986 7.02122C57.2107 6.77324 56.8916 6.61826 56.4403 6.55577C56.2659 6.61392 56.0897 6.69429 55.9113 6.79747C55.7324 6.90066 55.5513 7.02628 55.368 7.17451C55.3282 7.26169 55.2951 7.35734 55.2693 7.46107C55.2429 7.56502 55.2239 7.67722 55.211 7.79755C55.1603 8.27978 55.2371 8.78218 55.4417 9.3059C55.6295 9.84326 55.9258 10.2929 56.3306 10.6548ZM52.7895 13.0016C53.1666 13.041 53.5737 12.9465 54.0096 12.7181C54.4441 12.5047 54.8645 12.2061 55.271 11.8221C54.8442 11.3817 54.5332 10.8545 54.3384 10.2403C54.1447 9.61135 54.0814 8.98046 54.1479 8.34789L54.1573 8.25761C53.6228 8.84114 53.1611 9.46285 52.7713 10.1224C52.3981 10.7685 52.1739 11.377 52.099 11.9474C52.0643 12.2788 52.1068 12.527 52.227 12.6915C52.3303 12.8701 52.5178 12.9732 52.7895 13.0016ZM13.1616 20.8405C12.8854 20.9098 13.3324 21.1787 13.616 21.1527C15.8431 20.9486 25.9737 20.0403 32.2381 19.8219C38.0793 19.6183 46.9662 20.1533 49.8788 20.3454C50.1398 20.3626 50.2494 20.02 50.0312 19.8755C49.8503 19.7558 49.8927 19.4791 50.1011 19.4193L50.2202 19.3851C50.5455 19.2917 50.5108 18.8422 50.1738 18.8111C47.3988 18.5551 40.9404 18.1043 32.1887 18.4094C24.6959 18.6705 18.07 19.6078 13.1616 20.8405Z" fill="white"/>
</svg>
