<svg width="55" height="21" viewBox="0 0 55 21" fill="none" xmlns="http://www.w3.org/2000/svg">
	<mask id="path-1-outside-1_1_3341" maskUnits="userSpaceOnUse" x="-1.05615" y="-1.05908" width="56.5296" height="22.3468" fill="black">
		<rect fill="white" x="-1.05615" y="-1.05908" width="56.5296" height="22.3468" />
		<path fill-rule="evenodd" clip-rule="evenodd" d="M34.6589 4.16143C34.7805 4.28576 34.9668 4.34842 35.2179 4.34941C35.8237 4.29497 36.3011 4.07755 36.6487 3.69703C36.983 3.31766 37.1524 2.92607 37.156 2.5228C37.1515 2.32822 37.0681 2.14368 36.9055 1.96921C36.7433 1.8082 36.5235 1.72752 36.2462 1.72749C35.6663 1.79382 35.2236 2.03587 34.9162 2.45324C34.6091 2.88376 34.4602 3.29335 34.4693 3.68299C34.4736 3.86475 34.5367 4.02429 34.6589 4.16143ZM33.869 12.8548C34.0617 12.6699 34.2518 12.4817 34.4391 12.2903C34.4122 12.4146 34.3906 12.5351 34.3744 12.6519C34.3721 13.1883 34.4789 13.5888 34.6946 13.8537C34.8973 14.1185 35.1295 14.2527 35.3921 14.2569C35.5231 14.259 35.642 14.2284 35.749 14.1646C35.843 14.0874 35.9185 13.9841 35.9746 13.8541C36.3882 13.1543 37.2782 12.0766 38.6457 10.6199C40.0129 9.15063 41.2269 7.99932 42.2878 7.16565C41.7029 7.87576 41.0994 8.79493 40.4768 9.92286C39.8541 11.0509 39.5041 12.0459 39.4274 12.9081C39.4151 13.3394 39.5106 13.6812 39.7133 13.9328C39.9159 14.1977 40.1942 14.3327 40.5486 14.3382C41.3241 14.2982 42.1903 13.841 43.1472 12.9667C43.328 12.8015 43.5075 12.6332 43.6856 12.4619C43.661 13.0787 43.7981 13.5746 44.0966 13.95C44.4307 14.3708 44.9319 14.6108 45.5994 14.6699C46.36 14.7241 47.1267 14.5572 47.8993 14.1687C48.6601 13.7663 49.3627 13.2415 50.0067 12.5941C50.0968 12.6153 50.1813 12.6291 50.2597 12.6361C50.7178 12.6765 51.2384 12.5792 51.8211 12.3437C52.4185 12.0966 53.0763 11.6719 53.7944 11.0702C53.8444 10.8661 53.8058 10.6866 53.6787 10.5318C53.551 10.377 53.4045 10.3314 53.2383 10.395C52.8135 10.7488 52.4134 11.0069 52.0373 11.1692C51.6613 11.3317 51.3212 11.4126 51.0173 11.4118C51.3623 10.9467 51.6419 10.4759 51.8561 9.99891C52.0691 9.53544 52.2003 9.09007 52.2499 8.66411C52.3115 8.13499 52.2238 7.63798 51.9872 7.17356C51.7369 6.70819 51.2996 6.43476 50.6745 6.35315C50.4123 6.33004 50.1668 6.34095 49.9367 6.38578C49.7064 6.43078 49.4995 6.5038 49.3165 6.60497L49.2965 6.6032C48.3059 6.59379 47.1872 7.17332 45.94 8.3413C45.2093 9.02703 44.6495 9.76224 44.2607 10.5469C43.9029 10.9102 43.5718 11.227 43.2675 11.4971C42.6881 12.0245 42.3063 12.293 42.1225 12.303C41.9911 12.301 41.9281 12.2088 41.9332 12.0254C41.9592 11.5682 42.1946 10.9048 42.6395 10.0355C43.071 9.16618 43.62 8.3181 44.2867 7.49146C44.3398 7.46621 44.3739 7.42736 44.3886 7.37525C44.4161 7.32359 44.431 7.26509 44.4328 7.19946C44.4412 6.91202 44.2983 6.61549 44.0054 6.30997C43.7122 5.99139 43.3037 5.81509 42.7799 5.78041C42.239 5.86351 41.3683 6.4841 40.1673 7.64223C38.9526 8.81336 37.8493 9.99277 36.8577 11.1803C37.248 10.3625 37.6841 9.57814 38.1648 8.82707C38.6459 8.06306 39.0967 7.43601 39.5178 6.9454C39.5712 6.90705 39.5992 6.8485 39.6015 6.7701C39.5941 6.56114 39.4758 6.3365 39.2463 6.09768C39.0032 5.87151 38.7377 5.74307 38.4499 5.71217C37.9723 5.88795 37.2108 6.81777 36.1656 8.50127C35.8717 8.97814 35.6133 9.43026 35.3904 9.85762C34.8664 10.4634 34.381 10.9723 33.9344 11.3839C33.3379 11.9473 32.9141 12.2412 32.6633 12.2659C32.5308 12.2723 32.4626 12.1844 32.4584 12.0016C32.4735 11.5185 32.7471 10.7551 33.2794 9.71219C33.7984 8.68315 34.3859 7.72919 35.0412 6.84987C35.0929 6.80834 35.1183 6.74838 35.1165 6.67019C35.0993 6.50157 34.9488 6.29987 34.6651 6.06525C34.3947 5.8303 34.1133 5.70679 33.8218 5.69403C33.3752 5.85885 32.648 6.78689 31.6409 8.47843C31.3709 8.92826 31.1339 9.36666 30.93 9.79364C30.6231 10.1782 30.3117 10.5438 29.996 10.8907C29.529 11.3761 29.0829 11.7811 28.6572 12.105C28.7562 11.4533 28.7888 10.6098 28.755 9.57468C28.7079 8.5408 28.8888 7.55366 29.2971 6.61329C29.3711 6.54172 29.4048 6.46003 29.3983 6.36853C29.3546 6.12273 29.1459 5.87706 28.7725 5.63217C28.3989 5.38713 28.0341 5.26642 27.6782 5.2694C27.5994 5.27594 27.5217 5.29556 27.4449 5.32824C27.381 5.3599 27.3251 5.4104 27.2775 5.47989C27.2297 5.54972 27.1771 5.64597 27.12 5.76894C26.7793 6.36205 26.3156 7.07677 25.7287 7.91362C25.2446 8.60102 24.8458 9.15694 24.5327 9.58152C24.5065 9.59541 24.4845 9.61397 24.4667 9.63718C24.2478 9.97069 24.0348 10.2828 23.8278 10.5736C23.7957 10.4599 23.7651 10.3442 23.7359 10.2263C23.7275 10.1088 23.6847 10.0602 23.6068 10.0796C23.4766 10.1035 23.3393 10.2133 23.1949 10.4092C23.0381 10.6193 22.9611 10.8358 22.964 11.0589C22.9769 11.2405 23.0036 11.4232 23.0443 11.6068C22.9352 11.7405 22.828 11.8672 22.7228 11.987C22.1796 12.6077 21.7845 12.9435 21.5385 12.9946C21.4728 13.0047 21.4237 12.9863 21.3908 12.9388C21.3463 12.9065 21.318 12.8456 21.3059 12.7559C21.2681 12.2779 21.4563 11.4964 21.8702 10.4121C22.2858 9.3405 22.7706 8.33702 23.3245 7.40068C23.3715 7.35427 23.39 7.29239 23.3795 7.21557C23.344 7.05127 23.1725 6.86836 22.8654 6.6673C22.5582 6.4664 22.2589 6.37554 21.9682 6.39419C21.8634 6.41036 21.732 6.52253 21.5731 6.73009C21.4143 6.93797 21.2316 7.21464 21.025 7.56058C20.9703 7.25519 20.8297 7.00218 20.6025 6.80189C20.3755 6.6016 20.026 6.53169 19.5539 6.59151C17.9394 6.98565 16.6187 8.07313 15.592 9.85394C14.5651 11.6351 14.1124 13.2225 14.234 14.6163C14.2961 15.0777 14.464 15.4312 14.7372 15.6765C14.9954 15.9111 15.3804 15.9955 15.8916 15.9292C16.5414 15.8025 17.1515 15.381 17.7219 14.6648C18.307 13.9595 18.8269 13.1662 19.2815 12.2847C19.2201 12.6212 19.1767 12.9418 19.1513 13.2466C19.1257 13.5515 19.1301 13.832 19.1648 14.0881C19.2201 14.4984 19.3547 14.8044 19.5689 15.0066C19.7828 15.209 20.0531 15.2847 20.3798 15.2342C21.157 15.0617 21.9766 14.4639 22.8389 13.4407C23.0449 13.1965 23.246 12.9481 23.4425 12.6956C23.5714 12.9499 23.7259 13.2059 23.906 13.4638C24.4654 14.2845 25.2659 14.6911 26.3076 14.6837L26.3667 14.6788C27.2302 14.5812 28.1579 14.0842 29.1496 13.1874C29.4695 12.8982 29.7851 12.5868 30.0964 12.2532C30.0474 12.5203 30.0147 12.7818 29.9982 13.0377C30.0082 13.4677 30.1155 13.8022 30.3196 14.0403C30.5242 14.2916 30.8117 14.4083 31.1824 14.3909C32.0148 14.2996 32.9104 13.7876 33.869 12.8548ZM12.1723 4.1679C11.0555 3.60555 9.59485 3.54992 7.79033 4.00184C5.89103 4.56099 4.27031 5.47803 2.92752 6.75234C1.58157 8.01432 1.02028 9.25208 1.24412 10.4648C1.4126 11.0017 1.70376 11.356 2.11728 11.5277C2.54005 11.6835 2.91069 11.7176 3.22892 11.631C3.369 11.5927 3.47059 11.538 3.53366 11.4663C3.59341 11.3823 3.59722 11.2933 3.54507 11.1989C3.35619 10.2746 3.74538 9.21275 4.71234 8.01373C5.67897 6.81457 7.05792 5.93691 8.84867 5.37997C9.85727 5.11836 10.6486 5.09207 11.2222 5.30144C11.7957 5.51065 12.1608 5.91283 12.3171 6.50685C12.5295 7.5741 12.2611 8.73165 11.512 9.97967C10.7626 11.2282 9.79812 12.047 8.61832 12.4367C8.35121 12.5096 8.13728 12.5274 7.97752 12.4897C8.23848 11.253 8.51247 10.1683 8.79931 9.23596C9.07659 8.32008 9.43946 7.78043 9.88777 7.61752C9.96735 7.60929 10.0213 7.58098 10.0495 7.53274C10.0683 7.50048 10.0694 7.45288 10.0527 7.38945C9.99667 7.22862 9.84829 7.07932 9.60759 6.94173C9.36339 6.79165 9.08688 6.7518 8.77807 6.82251C7.69675 7.48365 6.74987 9.1992 5.93727 11.969C5.14057 14.7481 4.15732 16.4805 2.98702 17.1658C2.76719 17.2125 2.60773 17.2017 2.50799 17.134C2.42082 17.063 2.31213 17.0383 2.18177 17.0603C2.05425 17.0951 1.97207 17.1718 1.93522 17.2903C1.89806 17.4091 1.90138 17.5506 1.94455 17.7148C2.05438 18.132 2.33931 18.5152 2.79949 18.8639C3.25951 19.2125 3.82556 19.3156 4.49747 19.1729C5.34008 18.9023 6.013 18.2443 6.51542 17.1989C7.00527 16.1573 7.40434 14.9775 7.71247 13.6598C7.9765 13.8861 8.29271 14.0504 8.66076 14.1534C9.02548 14.2437 9.45148 14.2291 9.93859 14.1095C11.2709 13.678 12.4047 12.7246 13.34 11.2494C14.2715 9.76197 14.5809 8.2408 14.2674 6.68613C13.9711 5.56088 13.2728 4.72141 12.1723 4.1679ZM18.141 12.5486C17.5599 13.4163 17.1125 13.8808 16.7988 13.9425C16.6277 13.969 16.5276 13.8728 16.4978 13.6532C16.476 12.8927 16.8411 11.7689 17.5939 10.2816C18.3328 8.79674 19.0997 7.9137 19.894 7.6323C20.0254 7.61196 20.1593 7.65732 20.295 7.76792C20.4173 7.88081 20.4991 8.03945 20.5403 8.24371L20.5467 8.29102L20.5534 8.34057C20.5586 8.37918 20.556 8.41263 20.5467 8.4402L20.2306 9.08224C19.4202 10.5387 18.7235 11.6943 18.141 12.5486ZM25.0463 10.3717C24.7783 10.8109 24.4985 11.2398 24.2067 11.6583C24.2889 11.8518 24.3769 12.0373 24.4705 12.2149C24.7884 12.793 25.1718 13.0831 25.6205 13.0853C26.1797 12.9736 26.5159 12.4136 26.6294 11.4057C26.7281 10.3861 26.783 9.29783 26.7933 8.14079C26.5394 8.46417 26.2482 8.82317 25.9202 9.21812C25.6226 9.6032 25.3314 9.98772 25.0463 10.3717ZM50.4993 9.76405C50.3052 10.1685 50.0514 10.5735 49.7375 10.98C49.3864 10.6727 49.131 10.2881 48.9714 9.8263C48.797 9.37654 48.7342 8.94354 48.7828 8.52632C48.7952 8.42221 48.8128 8.32504 48.8368 8.23491C48.8603 8.14497 48.8902 8.06192 48.9258 7.9861C49.0876 7.85568 49.2472 7.74484 49.4047 7.65339C49.5618 7.56196 49.7167 7.49026 49.8699 7.43778C50.2644 7.48594 50.5423 7.6157 50.7046 7.82749C50.8517 8.05131 50.9067 8.32609 50.8687 8.65154C50.8292 8.99047 50.706 9.36131 50.4993 9.76405ZM47.7444 12.7693C47.3617 12.972 47.0052 13.0588 46.6761 13.0297C46.439 13.0087 46.2761 12.9221 46.1874 12.7694C46.0839 12.629 46.0489 12.4154 46.0822 12.129C46.1527 11.6359 46.3539 11.108 46.6856 10.5458C47.032 9.97175 47.4409 9.42941 47.9129 8.91907L47.904 8.99709C47.8403 9.5437 47.89 10.0872 48.0536 10.6274C48.2183 11.1548 48.4854 11.6056 48.8543 11.9801C48.4958 12.3166 48.1259 12.5796 47.7444 12.7693Z" />
	</mask>
	<path fill-rule="evenodd" clip-rule="evenodd" d="M34.6589 4.16143C34.7805 4.28576 34.9668 4.34842 35.2179 4.34941C35.8237 4.29497 36.3011 4.07755 36.6487 3.69703C36.983 3.31766 37.1524 2.92607 37.156 2.5228C37.1515 2.32822 37.0681 2.14368 36.9055 1.96921C36.7433 1.8082 36.5235 1.72752 36.2462 1.72749C35.6663 1.79382 35.2236 2.03587 34.9162 2.45324C34.6091 2.88376 34.4602 3.29335 34.4693 3.68299C34.4736 3.86475 34.5367 4.02429 34.6589 4.16143ZM33.869 12.8548C34.0617 12.6699 34.2518 12.4817 34.4391 12.2903C34.4122 12.4146 34.3906 12.5351 34.3744 12.6519C34.3721 13.1883 34.4789 13.5888 34.6946 13.8537C34.8973 14.1185 35.1295 14.2527 35.3921 14.2569C35.5231 14.259 35.642 14.2284 35.749 14.1646C35.843 14.0874 35.9185 13.9841 35.9746 13.8541C36.3882 13.1543 37.2782 12.0766 38.6457 10.6199C40.0129 9.15063 41.2269 7.99932 42.2878 7.16565C41.7029 7.87576 41.0994 8.79493 40.4768 9.92286C39.8541 11.0509 39.5041 12.0459 39.4274 12.9081C39.4151 13.3394 39.5106 13.6812 39.7133 13.9328C39.9159 14.1977 40.1942 14.3327 40.5486 14.3382C41.3241 14.2982 42.1903 13.841 43.1472 12.9667C43.328 12.8015 43.5075 12.6332 43.6856 12.4619C43.661 13.0787 43.7981 13.5746 44.0966 13.95C44.4307 14.3708 44.9319 14.6108 45.5994 14.6699C46.36 14.7241 47.1267 14.5572 47.8993 14.1687C48.6601 13.7663 49.3627 13.2415 50.0067 12.5941C50.0968 12.6153 50.1813 12.6291 50.2597 12.6361C50.7178 12.6765 51.2384 12.5792 51.8211 12.3437C52.4185 12.0966 53.0763 11.6719 53.7944 11.0702C53.8444 10.8661 53.8058 10.6866 53.6787 10.5318C53.551 10.377 53.4045 10.3314 53.2383 10.395C52.8135 10.7488 52.4134 11.0069 52.0373 11.1692C51.6613 11.3317 51.3212 11.4126 51.0173 11.4118C51.3623 10.9467 51.6419 10.4759 51.8561 9.99891C52.0691 9.53544 52.2003 9.09007 52.2499 8.66411C52.3115 8.13499 52.2238 7.63798 51.9872 7.17356C51.7369 6.70819 51.2996 6.43476 50.6745 6.35315C50.4123 6.33004 50.1668 6.34095 49.9367 6.38578C49.7064 6.43078 49.4995 6.5038 49.3165 6.60497L49.2965 6.6032C48.3059 6.59379 47.1872 7.17332 45.94 8.3413C45.2093 9.02703 44.6495 9.76224 44.2607 10.5469C43.9029 10.9102 43.5718 11.227 43.2675 11.4971C42.6881 12.0245 42.3063 12.293 42.1225 12.303C41.9911 12.301 41.9281 12.2088 41.9332 12.0254C41.9592 11.5682 42.1946 10.9048 42.6395 10.0355C43.071 9.16618 43.62 8.3181 44.2867 7.49146C44.3398 7.46621 44.3739 7.42736 44.3886 7.37525C44.4161 7.32359 44.431 7.26509 44.4328 7.19946C44.4412 6.91202 44.2983 6.61549 44.0054 6.30997C43.7122 5.99139 43.3037 5.81509 42.7799 5.78041C42.239 5.86351 41.3683 6.4841 40.1673 7.64223C38.9526 8.81336 37.8493 9.99277 36.8577 11.1803C37.248 10.3625 37.6841 9.57814 38.1648 8.82707C38.6459 8.06306 39.0967 7.43601 39.5178 6.9454C39.5712 6.90705 39.5992 6.8485 39.6015 6.7701C39.5941 6.56114 39.4758 6.3365 39.2463 6.09768C39.0032 5.87151 38.7377 5.74307 38.4499 5.71217C37.9723 5.88795 37.2108 6.81777 36.1656 8.50127C35.8717 8.97814 35.6133 9.43026 35.3904 9.85762C34.8664 10.4634 34.381 10.9723 33.9344 11.3839C33.3379 11.9473 32.9141 12.2412 32.6633 12.2659C32.5308 12.2723 32.4626 12.1844 32.4584 12.0016C32.4735 11.5185 32.7471 10.7551 33.2794 9.71219C33.7984 8.68315 34.3859 7.72919 35.0412 6.84987C35.0929 6.80834 35.1183 6.74838 35.1165 6.67019C35.0993 6.50157 34.9488 6.29987 34.6651 6.06525C34.3947 5.8303 34.1133 5.70679 33.8218 5.69403C33.3752 5.85885 32.648 6.78689 31.6409 8.47843C31.3709 8.92826 31.1339 9.36666 30.93 9.79364C30.6231 10.1782 30.3117 10.5438 29.996 10.8907C29.529 11.3761 29.0829 11.7811 28.6572 12.105C28.7562 11.4533 28.7888 10.6098 28.755 9.57468C28.7079 8.5408 28.8888 7.55366 29.2971 6.61329C29.3711 6.54172 29.4048 6.46003 29.3983 6.36853C29.3546 6.12273 29.1459 5.87706 28.7725 5.63217C28.3989 5.38713 28.0341 5.26642 27.6782 5.2694C27.5994 5.27594 27.5217 5.29556 27.4449 5.32824C27.381 5.3599 27.3251 5.4104 27.2775 5.47989C27.2297 5.54972 27.1771 5.64597 27.12 5.76894C26.7793 6.36205 26.3156 7.07677 25.7287 7.91362C25.2446 8.60102 24.8458 9.15694 24.5327 9.58152C24.5065 9.59541 24.4845 9.61397 24.4667 9.63718C24.2478 9.97069 24.0348 10.2828 23.8278 10.5736C23.7957 10.4599 23.7651 10.3442 23.7359 10.2263C23.7275 10.1088 23.6847 10.0602 23.6068 10.0796C23.4766 10.1035 23.3393 10.2133 23.1949 10.4092C23.0381 10.6193 22.9611 10.8358 22.964 11.0589C22.9769 11.2405 23.0036 11.4232 23.0443 11.6068C22.9352 11.7405 22.828 11.8672 22.7228 11.987C22.1796 12.6077 21.7845 12.9435 21.5385 12.9946C21.4728 13.0047 21.4237 12.9863 21.3908 12.9388C21.3463 12.9065 21.318 12.8456 21.3059 12.7559C21.2681 12.2779 21.4563 11.4964 21.8702 10.4121C22.2858 9.3405 22.7706 8.33702 23.3245 7.40068C23.3715 7.35427 23.39 7.29239 23.3795 7.21557C23.344 7.05127 23.1725 6.86836 22.8654 6.6673C22.5582 6.4664 22.2589 6.37554 21.9682 6.39419C21.8634 6.41036 21.732 6.52253 21.5731 6.73009C21.4143 6.93797 21.2316 7.21464 21.025 7.56058C20.9703 7.25519 20.8297 7.00218 20.6025 6.80189C20.3755 6.6016 20.026 6.53169 19.5539 6.59151C17.9394 6.98565 16.6187 8.07313 15.592 9.85394C14.5651 11.6351 14.1124 13.2225 14.234 14.6163C14.2961 15.0777 14.464 15.4312 14.7372 15.6765C14.9954 15.9111 15.3804 15.9955 15.8916 15.9292C16.5414 15.8025 17.1515 15.381 17.7219 14.6648C18.307 13.9595 18.8269 13.1662 19.2815 12.2847C19.2201 12.6212 19.1767 12.9418 19.1513 13.2466C19.1257 13.5515 19.1301 13.832 19.1648 14.0881C19.2201 14.4984 19.3547 14.8044 19.5689 15.0066C19.7828 15.209 20.0531 15.2847 20.3798 15.2342C21.157 15.0617 21.9766 14.4639 22.8389 13.4407C23.0449 13.1965 23.246 12.9481 23.4425 12.6956C23.5714 12.9499 23.7259 13.2059 23.906 13.4638C24.4654 14.2845 25.2659 14.6911 26.3076 14.6837L26.3667 14.6788C27.2302 14.5812 28.1579 14.0842 29.1496 13.1874C29.4695 12.8982 29.7851 12.5868 30.0964 12.2532C30.0474 12.5203 30.0147 12.7818 29.9982 13.0377C30.0082 13.4677 30.1155 13.8022 30.3196 14.0403C30.5242 14.2916 30.8117 14.4083 31.1824 14.3909C32.0148 14.2996 32.9104 13.7876 33.869 12.8548ZM12.1723 4.1679C11.0555 3.60555 9.59485 3.54992 7.79033 4.00184C5.89103 4.56099 4.27031 5.47803 2.92752 6.75234C1.58157 8.01432 1.02028 9.25208 1.24412 10.4648C1.4126 11.0017 1.70376 11.356 2.11728 11.5277C2.54005 11.6835 2.91069 11.7176 3.22892 11.631C3.369 11.5927 3.47059 11.538 3.53366 11.4663C3.59341 11.3823 3.59722 11.2933 3.54507 11.1989C3.35619 10.2746 3.74538 9.21275 4.71234 8.01373C5.67897 6.81457 7.05792 5.93691 8.84867 5.37997C9.85727 5.11836 10.6486 5.09207 11.2222 5.30144C11.7957 5.51065 12.1608 5.91283 12.3171 6.50685C12.5295 7.5741 12.2611 8.73165 11.512 9.97967C10.7626 11.2282 9.79812 12.047 8.61832 12.4367C8.35121 12.5096 8.13728 12.5274 7.97752 12.4897C8.23848 11.253 8.51247 10.1683 8.79931 9.23596C9.07659 8.32008 9.43946 7.78043 9.88777 7.61752C9.96735 7.60929 10.0213 7.58098 10.0495 7.53274C10.0683 7.50048 10.0694 7.45288 10.0527 7.38945C9.99667 7.22862 9.84829 7.07932 9.60759 6.94173C9.36339 6.79165 9.08688 6.7518 8.77807 6.82251C7.69675 7.48365 6.74987 9.1992 5.93727 11.969C5.14057 14.7481 4.15732 16.4805 2.98702 17.1658C2.76719 17.2125 2.60773 17.2017 2.50799 17.134C2.42082 17.063 2.31213 17.0383 2.18177 17.0603C2.05425 17.0951 1.97207 17.1718 1.93522 17.2903C1.89806 17.4091 1.90138 17.5506 1.94455 17.7148C2.05438 18.132 2.33931 18.5152 2.79949 18.8639C3.25951 19.2125 3.82556 19.3156 4.49747 19.1729C5.34008 18.9023 6.013 18.2443 6.51542 17.1989C7.00527 16.1573 7.40434 14.9775 7.71247 13.6598C7.9765 13.8861 8.29271 14.0504 8.66076 14.1534C9.02548 14.2437 9.45148 14.2291 9.93859 14.1095C11.2709 13.678 12.4047 12.7246 13.34 11.2494C14.2715 9.76197 14.5809 8.2408 14.2674 6.68613C13.9711 5.56088 13.2728 4.72141 12.1723 4.1679ZM18.141 12.5486C17.5599 13.4163 17.1125 13.8808 16.7988 13.9425C16.6277 13.969 16.5276 13.8728 16.4978 13.6532C16.476 12.8927 16.8411 11.7689 17.5939 10.2816C18.3328 8.79674 19.0997 7.9137 19.894 7.6323C20.0254 7.61196 20.1593 7.65732 20.295 7.76792C20.4173 7.88081 20.4991 8.03945 20.5403 8.24371L20.5467 8.29102L20.5534 8.34057C20.5586 8.37918 20.556 8.41263 20.5467 8.4402L20.2306 9.08224C19.4202 10.5387 18.7235 11.6943 18.141 12.5486ZM25.0463 10.3717C24.7783 10.8109 24.4985 11.2398 24.2067 11.6583C24.2889 11.8518 24.3769 12.0373 24.4705 12.2149C24.7884 12.793 25.1718 13.0831 25.6205 13.0853C26.1797 12.9736 26.5159 12.4136 26.6294 11.4057C26.7281 10.3861 26.783 9.29783 26.7933 8.14079C26.5394 8.46417 26.2482 8.82317 25.9202 9.21812C25.6226 9.6032 25.3314 9.98772 25.0463 10.3717ZM50.4993 9.76405C50.3052 10.1685 50.0514 10.5735 49.7375 10.98C49.3864 10.6727 49.131 10.2881 48.9714 9.8263C48.797 9.37654 48.7342 8.94354 48.7828 8.52632C48.7952 8.42221 48.8128 8.32504 48.8368 8.23491C48.8603 8.14497 48.8902 8.06192 48.9258 7.9861C49.0876 7.85568 49.2472 7.74484 49.4047 7.65339C49.5618 7.56196 49.7167 7.49026 49.8699 7.43778C50.2644 7.48594 50.5423 7.6157 50.7046 7.82749C50.8517 8.05131 50.9067 8.32609 50.8687 8.65154C50.8292 8.99047 50.706 9.36131 50.4993 9.76405ZM47.7444 12.7693C47.3617 12.972 47.0052 13.0588 46.6761 13.0297C46.439 13.0087 46.2761 12.9221 46.1874 12.7694C46.0839 12.629 46.0489 12.4154 46.0822 12.129C46.1527 11.6359 46.3539 11.108 46.6856 10.5458C47.032 9.97175 47.4409 9.42941 47.9129 8.91907L47.904 8.99709C47.8403 9.5437 47.89 10.0872 48.0536 10.6274C48.2183 11.1548 48.4854 11.6056 48.8543 11.9801C48.4958 12.3166 48.1259 12.5796 47.7444 12.7693Z" fill="white" />
	<path d="M35.2179 4.34941L35.2009 5.34987L35.2477 5.35006L35.2944 5.34586L35.2179 4.34941ZM34.6589 4.16143L33.9089 4.83262L33.9242 4.84979L33.9403 4.86623L34.6589 4.16143ZM36.6487 3.69703L37.3823 4.36688L37.3885 4.36012L37.3945 4.35325L36.6487 3.69703ZM37.156 2.5228L38.1555 2.51887L38.1557 2.50252L38.1553 2.48617L37.156 2.5228ZM36.9055 1.96921L37.6407 1.28181L37.6276 1.26778L37.614 1.25427L36.9055 1.96921ZM36.2462 1.72749L36.2594 0.727027L36.2023 0.72702L36.1456 0.733514L36.2462 1.72749ZM34.9162 2.45324L34.1144 1.86643L34.1098 1.87269L34.1053 1.87901L34.9162 2.45324ZM34.4693 3.68299L35.4686 3.64647L35.4686 3.64636L34.4693 3.68299ZM34.4391 12.2903L35.4159 12.4899L36.1434 9.12909L33.7297 11.5949L34.4391 12.2903ZM33.869 12.8548L33.1821 12.137L33.1771 12.1419L33.869 12.8548ZM34.3744 12.6519L33.3844 12.5269L33.3752 12.5935L33.3749 12.6606L34.3744 12.6519ZM34.6946 13.8537L35.491 13.2387L35.482 13.227L35.4727 13.2156L34.6946 13.8537ZM35.3921 14.2569L35.4211 13.2565L35.4209 13.2565L35.3921 14.2569ZM35.749 14.1646L36.2522 15.0224L36.3178 14.9833L36.3769 14.9348L35.749 14.1646ZM35.9746 13.8541L35.116 13.353L35.0833 13.4084L35.0578 13.4674L35.9746 13.8541ZM38.6457 10.6199L39.3699 11.2999L39.3729 11.2967L38.6457 10.6199ZM42.2878 7.16565L43.0557 7.79605L41.677 6.3818L42.2878 7.16565ZM40.4768 9.92286L41.3502 10.3979L41.3502 10.3978L40.4768 9.92286ZM39.4274 12.9081L38.4319 12.8323L38.4292 12.8624L38.4283 12.8926L39.4274 12.9081ZM39.7133 13.9328L40.5101 13.3183L40.5024 13.3082L40.4944 13.2984L39.7133 13.9328ZM40.5486 14.3382L40.5198 15.3386L40.5534 15.3391L40.587 15.3374L40.5486 14.3382ZM43.1472 12.9667L43.8158 13.7015L43.8159 13.7015L43.1472 12.9667ZM43.6856 12.4619L44.6843 12.4888L44.7826 10.0286L42.998 11.7448L43.6856 12.4619ZM44.0966 13.95L44.8823 13.3213L44.8818 13.3207L44.0966 13.95ZM45.5994 14.6699L45.4983 15.6665L45.5069 15.6672L45.5154 15.6678L45.5994 14.6699ZM47.8993 14.1687L48.3387 15.0614L48.348 15.0568L48.3571 15.0519L47.8993 14.1687ZM50.0067 12.5941L50.2474 11.62L49.702 11.4917L49.303 11.8929L50.0067 12.5941ZM50.2597 12.6361L50.1577 13.6326L50.1591 13.6327L50.2597 12.6361ZM51.8211 12.3437L52.1848 13.2707L52.1924 13.2676L51.8211 12.3437ZM53.7944 11.0702L54.4301 11.8339L54.6857 11.6197L54.7649 11.2967L53.7944 11.0702ZM53.6787 10.5318L54.4545 9.89081L54.4528 9.88881L53.6787 10.5318ZM53.2383 10.395L52.8922 9.461L52.7347 9.52123L52.6049 9.62939L53.2383 10.395ZM52.0373 11.1692L51.6517 10.2514L51.6513 10.2515L52.0373 11.1692ZM51.0173 11.4118L50.2176 10.8222L49.0421 12.407L51.0016 12.4122L51.0173 11.4118ZM51.8561 9.99891L50.949 9.59069L50.9454 9.59858L51.8561 9.99891ZM52.2499 8.66411L51.2571 8.56107L51.2571 8.56119L52.2499 8.66411ZM51.9872 7.17356L52.8789 6.70992L52.8739 6.70013L52.8687 6.69046L51.9872 7.17356ZM50.6745 6.35315L50.8165 5.36105L50.7958 5.35836L50.7751 5.35653L50.6745 6.35315ZM49.9367 6.38578L49.7581 5.40383L49.7575 5.40394L49.9367 6.38578ZM49.3165 6.60497L49.2153 7.60154L49.5206 7.62863L49.7908 7.47932L49.3165 6.60497ZM49.2965 6.6032L49.3976 5.60663L49.3584 5.60315L49.319 5.60278L49.2965 6.6032ZM45.94 8.3413L45.2622 7.61492L45.2615 7.61563L45.94 8.3413ZM44.2607 10.5469L44.968 11.2445L45.0826 11.1281L45.155 10.982L44.2607 10.5469ZM43.2675 11.4971L42.6097 10.7524L42.6003 10.7609L43.2675 11.4971ZM42.1225 12.303L42.0937 13.3034L42.1289 13.3039L42.1642 13.302L42.1225 12.303ZM41.9332 12.0254L40.9353 11.9816L40.9345 11.9961L40.9341 12.0105L41.9332 12.0254ZM42.6395 10.0355L43.528 10.4825L43.5336 10.4712L42.6395 10.0355ZM44.2867 7.49146L43.8675 6.58881L43.6581 6.68839L43.5122 6.86921L44.2867 7.49146ZM44.3886 7.37525L43.5081 6.91321L43.4567 7.00964L43.427 7.11462L44.3886 7.37525ZM44.4328 7.19946L43.4337 7.18357L43.4337 7.18432L44.4328 7.19946ZM44.0054 6.30997L43.2663 6.99307L43.273 7.00037L43.2799 7.00754L44.0054 6.30997ZM42.7799 5.78041L42.8588 4.78213L42.7495 4.77489L42.6409 4.79157L42.7799 5.78041ZM40.1673 7.64223L40.8558 8.35842L40.8559 8.35834L40.1673 7.64223ZM36.8577 11.1803L35.9568 10.7587L37.6212 11.816L36.8577 11.1803ZM38.1648 8.82707L39.0044 9.35895L39.0085 9.35252L38.1648 8.82707ZM39.5178 6.9454L38.9421 6.13514L38.8429 6.20643L38.7633 6.2992L39.5178 6.9454ZM39.6015 6.7701L40.6006 6.78634L40.6016 6.75385L40.6004 6.72139L39.6015 6.7701ZM39.2463 6.09768L39.971 5.39924L39.952 5.37945L39.9319 5.36076L39.2463 6.09768ZM38.4499 5.71217L38.5694 4.7174L38.3367 4.69242L38.1158 4.77371L38.4499 5.71217ZM36.1656 8.50127L35.3185 7.98127L35.3168 7.98417L36.1656 8.50127ZM35.3904 9.85762L36.1424 10.5068L36.2201 10.4169L36.2751 10.3116L35.3904 9.85762ZM33.9344 11.3839L33.2625 10.652L33.2534 10.6606L33.9344 11.3839ZM32.6633 12.2659L32.698 13.2652L32.7232 13.264L32.7483 13.2616L32.6633 12.2659ZM32.4584 12.0016L31.4593 11.9834L31.4585 12.0108L31.4591 12.0381L32.4584 12.0016ZM33.2794 9.71219L34.1683 10.1581L34.1705 10.1537L33.2794 9.71219ZM35.0412 6.84987L34.4225 6.07226L34.3207 6.15387L34.2427 6.2585L35.0412 6.84987ZM35.1165 6.67019L36.1157 6.63403L36.1148 6.59483L36.1109 6.55587L35.1165 6.67019ZM34.6651 6.06525L34.0043 6.82446L34.0133 6.83226L34.0224 6.83984L34.6651 6.06525ZM33.8218 5.69403L33.8785 4.69452L33.6771 4.68571L33.4869 4.75586L33.8218 5.69403ZM31.6409 8.47843L32.4959 8.98543L32.4978 8.98224L31.6409 8.47843ZM30.93 9.79364L31.7077 10.4119L31.7805 10.3207L31.8307 10.2155L30.93 9.79364ZM29.996 10.8907L30.7117 11.5797L30.7215 11.5695L30.731 11.559L29.996 10.8907ZM28.6572 12.105L27.6691 11.9673L27.3019 14.3853L29.2555 12.8985L28.6572 12.105ZM28.755 9.57468L29.7541 9.52894L29.7535 9.51609L28.755 9.57468ZM29.2971 6.61329L28.6076 5.89801L28.4618 6.03895L28.3812 6.2247L29.2971 6.61329ZM29.3983 6.36853L30.3954 6.28496L30.3916 6.23246L30.3824 6.18071L29.3983 6.36853ZM28.7725 5.63217L28.217 6.47114L28.2171 6.47119L28.7725 5.63217ZM27.6782 5.2694L27.6829 4.26897L27.6456 4.26928L27.6084 4.27237L27.6782 5.2694ZM27.4449 5.32824L27.0641 4.40827L27.0371 4.41976L27.0108 4.43281L27.4449 5.32824ZM27.2775 5.47989L26.4556 4.92128L26.4552 4.9219L27.2775 5.47989ZM27.12 5.76894L27.9849 6.25901L28.0069 6.22071L28.0255 6.18067L27.12 5.76894ZM25.7287 7.91362L26.5432 8.48283L26.5443 8.48125L25.7287 7.91362ZM24.5327 9.58152L24.9909 10.4646L25.1961 10.356L25.3341 10.1689L24.5327 9.58152ZM24.4667 9.63718L23.6772 9.03393L23.6542 9.06394L23.6334 9.09558L24.4667 9.63718ZM23.8278 10.5736L22.8658 10.8576L23.4284 12.8478L24.6393 11.1471L23.8278 10.5736ZM23.7359 10.2263L22.7389 10.3105L22.745 10.3958L22.7655 10.4786L23.7359 10.2263ZM23.6068 10.0796L23.7748 11.0636L23.806 11.0578L23.8369 11.0501L23.6068 10.0796ZM23.1949 10.4092L23.9928 11.0014L23.9965 10.9963L23.1949 10.4092ZM22.964 11.0589L21.9645 11.0851L21.9649 11.1139L21.967 11.1427L22.964 11.0589ZM23.0443 11.6068L23.8151 12.2335L24.1255 11.8532L24.0203 11.3781L23.0443 11.6068ZM22.7228 11.987L21.976 11.3318L21.9746 11.3334L22.7228 11.987ZM21.5385 12.9946L21.6766 13.9836L21.7031 13.9796L21.7295 13.9741L21.5385 12.9946ZM21.3908 12.9388L22.2151 12.3622L22.12 12.2248L21.985 12.1266L21.3908 12.9388ZM21.3059 12.7559L20.3095 12.8477L20.3116 12.8755L20.3154 12.903L21.3059 12.7559ZM21.8702 10.4121L20.939 10.0607L20.9371 10.0657L21.8702 10.4121ZM23.3245 7.40068L22.6271 6.69317L22.5333 6.78588L22.4661 6.89935L23.3245 7.40068ZM23.3795 7.21557L24.3698 7.06707L24.3647 7.02927L24.3566 6.99202L23.3795 7.21557ZM22.8654 6.6673L23.42 5.82783L23.4197 5.82763L22.8654 6.6673ZM21.9682 6.39419L21.9172 5.39577L21.8727 5.39863L21.8285 5.40545L21.9682 6.39419ZM21.5731 6.73009L20.7826 6.12829L20.7821 6.12892L21.5731 6.73009ZM21.025 7.56058L20.0411 7.7496L20.5092 10.3627L21.8812 8.06565L21.025 7.56058ZM20.6025 6.80189L19.9361 7.55618L19.9364 7.55643L20.6025 6.80189ZM19.5539 6.59151L19.4411 5.59899L19.3845 5.60616L19.329 5.6197L19.5539 6.59151ZM15.592 9.85394L14.7279 9.36241L14.7279 9.36242L15.592 9.85394ZM14.234 14.6163L13.2383 14.7163L13.2403 14.7395L13.2434 14.7626L14.234 14.6163ZM14.7372 15.6765L15.4142 14.9318L15.4101 14.9281L14.7372 15.6765ZM15.8916 15.9292L16.0072 16.9214L16.039 16.9173L16.0704 16.9111L15.8916 15.9292ZM17.7219 14.6648L16.9563 14.0317L16.9499 14.0395L16.9436 14.0474L17.7219 14.6648ZM19.2815 12.2847L20.2647 12.452L18.3946 11.8349L19.2815 12.2847ZM19.1513 13.2466L20.1473 13.3174L20.1473 13.3169L19.1513 13.2466ZM19.1648 14.0881L20.1553 13.9414L20.1553 13.9411L19.1648 14.0881ZM19.5689 15.0066L20.2606 14.2754L20.2597 14.2746L19.5689 15.0066ZM20.3798 15.2342L20.52 16.2228L20.5521 16.2178L20.5839 16.2108L20.3798 15.2342ZM22.8389 13.4407L22.0785 12.8014L22.0785 12.8015L22.8389 13.4407ZM23.4425 12.6956L24.335 12.2336L23.628 10.8391L22.6569 12.0874L23.4425 12.6956ZM23.906 13.4638L24.7341 12.8926L24.7277 12.8834L23.906 13.4638ZM26.3076 14.6837L26.3016 15.6842L26.3395 15.6839L26.3774 15.6808L26.3076 14.6837ZM26.3667 14.6788L26.4365 15.6758L26.4513 15.6746L26.466 15.6729L26.3667 14.6788ZM29.1496 13.1874L28.485 12.4489L28.4849 12.449L29.1496 13.1874ZM30.0964 12.2532L31.0794 12.4214L31.6907 9.0885L29.3701 11.5755L30.0964 12.2532ZM29.9982 13.0377L29.0007 12.9862L28.9979 13.0301L28.9989 13.074L29.9982 13.0377ZM30.3196 14.0403L31.0978 13.4023L31.0899 13.3926L31.0817 13.383L30.3196 14.0403ZM31.1824 14.3909L31.2162 15.3903L31.2473 15.3888L31.2784 15.3854L31.1824 14.3909ZM7.79033 4.00184L7.55969 3.03147L7.53967 3.03648L7.51987 3.04231L7.79033 4.00184ZM12.1723 4.1679L11.7139 5.06285L11.7143 5.06303L12.1723 4.1679ZM2.92752 6.75234L3.60576 7.47832L3.61022 7.47409L2.92752 6.75234ZM1.24412 10.4648L0.261143 10.659L0.272104 10.7184L0.290156 10.7759L1.24412 10.4648ZM2.11728 11.5277L1.72396 12.4525L1.74243 12.4602L1.76121 12.4671L2.11728 11.5277ZM3.22892 11.631L3.47959 12.5961L3.48042 12.5959L3.22892 11.631ZM3.53366 11.4663L4.27985 12.1221L4.31472 12.0825L4.3453 12.0395L3.53366 11.4663ZM3.54507 11.1989L2.56571 11.4116L2.59597 11.5597L2.6688 11.6916L3.54507 11.1989ZM4.71234 8.01373L5.48686 8.63595L5.48701 8.63576L4.71234 8.01373ZM8.84867 5.37997L8.60982 4.41169L8.58651 4.41774L8.5635 4.4249L8.84867 5.37997ZM11.2222 5.30144L10.869 6.24189L10.8691 6.24194L11.2222 5.30144ZM12.3171 6.50685L13.2975 6.29915L13.2916 6.26947L13.2839 6.24022L12.3171 6.50685ZM11.512 9.97967L12.367 10.4866L12.367 10.4866L11.512 9.97967ZM8.61832 12.4367L8.86952 13.4017L8.89513 13.3947L8.92035 13.3864L8.61832 12.4367ZM7.97752 12.4897L6.99967 12.2953L6.7997 13.243L7.73647 13.4637L7.97752 12.4897ZM8.79931 9.23596L9.75426 9.51894L9.75557 9.5146L8.79931 9.23596ZM9.88777 7.61752L9.798 6.62235L9.67455 6.63511L9.55756 6.67763L9.88777 7.61752ZM10.0495 7.53274L10.9105 8.02973L10.9113 8.02837L10.0495 7.53274ZM10.0527 7.38945L11.0196 7.1231L11.0097 7.08554L10.997 7.0489L10.0527 7.38945ZM9.60759 6.94173L9.07654 7.79618L9.08983 7.80435L9.10337 7.8121L9.60759 6.94173ZM8.77807 6.82251L8.56732 5.84738L8.40644 5.88421L8.26518 5.97058L8.77807 6.82251ZM5.93727 11.969L4.9785 11.6987L4.97677 11.7047L5.93727 11.969ZM2.98702 17.1658L3.18218 18.1444L3.34193 18.1104L3.48332 18.0276L2.98702 17.1658ZM2.50799 17.134L1.87107 17.9133L1.90427 17.9404L1.93972 17.9644L2.50799 17.134ZM2.18177 17.0603L2.02833 16.0738L1.97893 16.0821L1.93054 16.0953L2.18177 17.0603ZM1.93522 17.2903L2.88874 17.5779L2.88923 17.5763L1.93522 17.2903ZM1.94455 17.7148L0.977703 17.9812L0.977781 17.9815L1.94455 17.7148ZM2.79949 18.8639L2.18959 19.6645L2.18962 19.6645L2.79949 18.8639ZM4.49747 19.1729L4.69264 20.1515L4.74273 20.1408L4.79153 20.1251L4.49747 19.1729ZM6.51542 17.1989L7.41513 17.623L7.41877 17.6152L6.51542 17.1989ZM7.71247 13.6598L8.36832 12.8963L7.11801 11.8246L6.73938 13.4439L7.71247 13.6598ZM8.66076 14.1534L8.3801 15.1172L8.39441 15.1212L8.40883 15.1247L8.66076 14.1534ZM9.93859 14.1095L10.1647 15.081L10.2002 15.0723L10.235 15.061L9.93859 14.1095ZM13.34 11.2494L14.1819 11.7776L14.185 11.7728L13.34 11.2494ZM14.2674 6.68613L15.2473 6.47589L15.2415 6.44741L15.2341 6.41934L14.2674 6.68613ZM16.7988 13.9425L16.9392 14.9311L16.9592 14.928L16.979 14.9241L16.7988 13.9425ZM18.141 12.5486L17.3177 11.992L17.313 11.999L18.141 12.5486ZM16.4978 13.6532L15.4987 13.695L15.5002 13.7479L15.5073 13.8003L16.4978 13.6532ZM17.5939 10.2816L18.4843 10.7244L18.4874 10.7182L17.5939 10.2816ZM19.894 7.6323L19.7539 6.64363L19.6607 6.65807L19.5715 6.68964L19.894 7.6323ZM20.295 7.76792L20.9777 7.02834L20.9556 7.00789L20.9322 6.98883L20.295 7.76792ZM20.5403 8.24371L21.5308 8.09679L21.5265 8.06503L21.5202 8.03363L20.5403 8.24371ZM20.5467 8.29102L21.5373 8.14482L21.5372 8.1441L20.5467 8.29102ZM20.5534 8.34057L19.5627 8.48677L19.563 8.48913L20.5534 8.34057ZM20.5467 8.4402L21.4422 8.87303L21.4721 8.81214L21.4937 8.74787L20.5467 8.4402ZM20.2306 9.08224L21.1023 9.56023L21.1147 9.53794L21.126 9.51507L20.2306 9.08224ZM24.2067 11.6583L23.3894 11.093L23.0698 11.5515L23.2862 12.0603L24.2067 11.6583ZM25.0463 10.3717L24.2468 9.78172L24.2192 9.81894L24.195 9.8585L25.0463 10.3717ZM24.4705 12.2149L23.5852 12.6908L23.5892 12.6985L23.5934 12.7061L24.4705 12.2149ZM25.6205 13.0853L25.6026 14.0858L25.704 14.0863L25.8038 14.0664L25.6205 13.0853ZM26.6294 11.4057L27.6226 11.5049L27.6235 11.4971L27.6243 11.4893L26.6294 11.4057ZM26.7933 8.14079L27.7928 8.13664L27.8188 5.22679L26.0107 7.52885L26.7933 8.14079ZM25.9202 9.21812L25.155 8.58451L25.1436 8.59831L25.1326 8.61251L25.9202 9.21812ZM49.7375 10.98L49.0739 11.7368L49.8701 12.4339L50.5253 11.5853L49.7375 10.98ZM50.4993 9.76405L49.6115 9.316L49.6053 9.32814L49.5994 9.34044L50.4993 9.76405ZM48.9714 9.8263L49.9165 9.4882L49.9105 9.47082L49.9038 9.45369L48.9714 9.8263ZM48.7828 8.52632L47.7903 8.42132L47.7901 8.42317L48.7828 8.52632ZM48.8368 8.23491L49.8025 8.48064L49.8036 8.47616L48.8368 8.23491ZM48.9258 7.9861L48.3051 7.21012L48.1223 7.35748L48.0224 7.56977L48.9258 7.9861ZM49.4047 7.65339L49.8978 8.51708L49.8986 8.51665L49.4047 7.65339ZM49.8699 7.43778L50.0036 6.44465L49.7756 6.41682L49.5571 6.49171L49.8699 7.43778ZM50.7046 7.82749L51.5418 7.27L51.5223 7.24033L51.5007 7.21215L50.7046 7.82749ZM50.8687 8.65154L49.8759 8.54823L49.8759 8.54849L50.8687 8.65154ZM46.6761 13.0297L46.5751 14.0263L46.5753 14.0263L46.6761 13.0297ZM47.7444 12.7693L47.309 11.8745L47.2975 11.8803L47.2861 11.8863L47.7444 12.7693ZM46.1874 12.7694L47.0535 12.2585L47.0263 12.2118L46.9943 12.1683L46.1874 12.7694ZM46.0822 12.129L45.0928 11.9999L45.0909 12.0131L45.0894 12.0263L46.0822 12.129ZM46.6856 10.5458L45.8318 10.0368L45.8267 10.0455L46.6856 10.5458ZM47.9129 8.91907L48.9059 9.02077L49.2528 6.00758L47.1836 8.24456L47.9129 8.91907ZM47.904 8.99709L48.8967 9.10015L48.8969 9.09878L47.904 8.99709ZM48.0536 10.6274L47.0967 10.929L47.0992 10.9373L48.0536 10.6274ZM48.8543 11.9801L49.533 12.7056L50.2858 11.9988L49.5705 11.2728L48.8543 11.9801ZM35.2349 3.34896C35.1883 3.34877 35.1889 3.34264 35.2193 3.35287C35.2545 3.36472 35.3166 3.39448 35.3774 3.45662L33.9403 4.86623C34.3135 5.2476 34.8006 5.34829 35.2009 5.34987L35.2349 3.34896ZM35.9151 3.02718C35.7701 3.18587 35.5464 3.31658 35.1415 3.35297L35.2944 5.34586C36.1011 5.27337 36.832 4.96922 37.3823 4.36688L35.9151 3.02718ZM36.1565 2.52672C36.1556 2.63161 36.1173 2.79737 35.9028 3.04081L37.3945 4.35325C37.8486 3.83794 38.1491 3.22053 38.1555 2.51887L36.1565 2.52672ZM36.1704 2.65661C36.1916 2.67936 36.1879 2.6817 36.1786 2.66099C36.168 2.63761 36.1578 2.60161 36.1568 2.55943L38.1553 2.48617C38.1438 1.99608 37.9282 1.59042 37.6407 1.28181L36.1704 2.65661ZM36.233 2.72796C36.2754 2.72796 36.2812 2.7341 36.2644 2.72792C36.256 2.72484 36.2443 2.71953 36.2312 2.71123C36.218 2.70289 36.2064 2.69346 36.197 2.68415L37.614 1.25427C37.2309 0.873963 36.7412 0.72708 36.2594 0.727027L36.233 2.72796ZM35.718 3.04006C35.8354 2.8807 36.0063 2.76042 36.3469 2.72147L36.1456 0.733514C35.3263 0.82722 34.6118 1.19104 34.1144 1.86643L35.718 3.04006ZM35.4686 3.64636C35.4661 3.53959 35.5033 3.34133 35.7271 3.02747L34.1053 1.87901C33.715 2.42619 33.4542 3.04711 33.4701 3.71963L35.4686 3.64636ZM35.4088 3.49024C35.4187 3.5014 35.4359 3.52478 35.4497 3.5598C35.4637 3.59503 35.4681 3.62635 35.4686 3.64647L33.4701 3.71951C33.4799 4.14044 33.6338 4.52374 33.9089 4.83262L35.4088 3.49024ZM33.7297 11.5949C33.5497 11.7787 33.3672 11.9594 33.1821 12.137L34.5558 13.5726C34.7562 13.3803 34.9538 13.1846 35.1486 12.9857L33.7297 11.5949ZM35.3644 12.7769C35.3769 12.6869 35.3939 12.5913 35.4159 12.4899L33.4624 12.0906C33.4305 12.2378 33.4044 12.3833 33.3844 12.5269L35.3644 12.7769ZM35.4727 13.2156C35.4624 13.2029 35.3721 13.0708 35.374 12.6432L33.3749 12.6606C33.3721 13.3057 33.4955 13.9747 33.9164 14.4917L35.4727 13.2156ZM35.4209 13.2565C35.4389 13.2568 35.4598 13.2595 35.4815 13.2655C35.5029 13.2715 35.5191 13.2792 35.5292 13.285C35.5483 13.2961 35.5323 13.2927 35.491 13.2387L33.8982 14.4687C34.2287 14.9004 34.7176 15.247 35.3633 15.2572L35.4209 13.2565ZM35.2459 13.3068C35.2746 13.2896 35.3074 13.2758 35.3417 13.2669C35.3757 13.2581 35.4033 13.2562 35.4211 13.2565L35.3631 15.2572C35.6679 15.2621 35.9733 15.1886 36.2522 15.0224L35.2459 13.3068ZM35.0578 13.4674C35.0566 13.4703 35.0598 13.462 35.0706 13.4473C35.0816 13.4321 35.0983 13.4132 35.1212 13.3944L36.3769 14.9348C36.6139 14.7402 36.7805 14.4973 36.8913 14.2407L35.0578 13.4674ZM37.9215 9.93993C36.5555 11.3951 35.5932 12.5457 35.116 13.353L36.8331 14.3551C37.1832 13.7629 38.001 12.7581 39.3699 11.2999L37.9215 9.93993ZM41.677 6.3818C40.5598 7.25967 39.3061 8.4519 37.9184 9.94318L39.3729 11.2967C40.7197 9.84936 41.894 8.73898 42.8987 7.9495L41.677 6.3818ZM41.3502 10.3978C41.9536 9.30468 42.5231 8.44267 43.0557 7.79605L41.52 6.53526C40.8828 7.30885 40.2451 8.28519 39.6034 9.44786L41.3502 10.3978ZM40.423 12.9839C40.4827 12.3123 40.7655 11.4571 41.3502 10.3979L39.6034 9.44782C38.9427 10.6448 38.5255 11.7795 38.4319 12.8323L40.423 12.9839ZM40.4944 13.2984C40.4814 13.2821 40.4188 13.1961 40.4266 12.9236L38.4283 12.8926C38.4115 13.4827 38.5398 14.0803 38.9322 14.5672L40.4944 13.2984ZM40.5773 13.3379C40.55 13.3375 40.5336 13.3347 40.5258 13.333C40.5183 13.3313 40.5171 13.3302 40.5196 13.3314C40.5206 13.3319 40.5217 13.3326 40.5228 13.3333C40.5239 13.334 40.5244 13.3344 40.5242 13.3342C40.5241 13.3342 40.5191 13.33 40.5101 13.3183L38.9166 14.5472C39.3139 15.0671 39.8832 15.3286 40.5198 15.3386L40.5773 13.3379ZM42.4787 12.2318C41.5897 13.044 40.9413 13.3169 40.5101 13.3391L40.587 15.3374C41.7068 15.2796 42.7909 14.638 43.8158 13.7015L42.4787 12.2318ZM42.998 11.7448C42.826 11.9102 42.6529 12.0725 42.4786 12.2318L43.8159 13.7015C44.0031 13.5304 44.1889 13.3562 44.3732 13.179L42.998 11.7448ZM44.8818 13.3207C44.7675 13.177 44.6665 12.9348 44.6843 12.4888L42.6869 12.435C42.6554 13.2226 42.8286 13.9722 43.3114 14.5793L44.8818 13.3207ZM45.7004 13.6733C45.2332 13.6319 45.0099 13.482 44.8823 13.3213L43.3109 14.5787C43.8515 15.2595 44.6307 15.5896 45.4983 15.6665L45.7004 13.6733ZM47.4599 13.2759C46.8289 13.5932 46.242 13.7118 45.6833 13.6719L45.5154 15.6678C46.4779 15.7364 47.4246 15.5211 48.3387 15.0614L47.4599 13.2759ZM49.303 11.8929C48.7272 12.4718 48.1065 12.9336 47.4414 13.2854L48.3571 15.0519C49.2136 14.599 49.9983 14.0113 50.7104 13.2953L49.303 11.8929ZM50.3616 11.6396C50.3351 11.6372 50.297 11.6317 50.2474 11.62L49.766 13.5682C49.8965 13.5989 50.0276 13.6209 50.1577 13.6326L50.3616 11.6396ZM51.4573 11.4167C50.9722 11.6127 50.6148 11.6619 50.3603 11.6395L50.1591 13.6327C50.8207 13.6911 51.5045 13.5456 52.1848 13.2707L51.4573 11.4167ZM53.1587 10.3066C52.4878 10.8687 51.9191 11.2257 51.4497 11.4198L52.1924 13.2676C52.9179 12.9676 53.6649 12.4751 54.4301 11.8339L53.1587 10.3066ZM52.903 11.1728C52.8769 11.141 52.8426 11.0837 52.8257 11.0051C52.8091 10.9279 52.8176 10.8689 52.8238 10.8438L54.7649 11.2967C54.8866 10.8004 54.7876 10.2968 54.4545 9.89081L52.903 11.1728ZM53.5844 11.3289C53.4899 11.3651 53.336 11.3904 53.1651 11.3373C53.0069 11.2881 52.9253 11.1999 52.9047 11.1748L54.4528 9.88881C54.3045 9.70901 54.0857 9.52052 53.7808 9.42573C53.4631 9.32697 53.1528 9.36131 52.8922 9.461L53.5844 11.3289ZM52.423 12.0871C52.9135 11.8754 53.3964 11.5564 53.8717 11.1606L52.6049 9.62939C52.2306 9.94112 51.9133 10.1385 51.6517 10.2514L52.423 12.0871ZM51.0016 12.4122C51.4817 12.4135 51.9612 12.2867 52.4234 12.0869L51.6513 10.2515C51.3615 10.3768 51.1607 10.4116 51.0331 10.4113L51.0016 12.4122ZM50.9454 9.59858C50.7642 10.002 50.5234 10.4098 50.2176 10.8222L51.8171 12.0013C52.2012 11.4835 52.5195 10.9498 52.7669 10.3992L50.9454 9.59858ZM51.2571 8.56119C51.2218 8.86461 51.1253 9.20697 50.949 9.5907L52.7633 10.4071C53.0129 9.86391 53.1788 9.31554 53.2427 8.76703L51.2571 8.56119ZM51.0955 7.6372C51.2421 7.925 51.2963 8.22458 51.2571 8.56107L53.2427 8.76715C53.3267 8.04539 53.2055 7.35097 52.8789 6.70992L51.0955 7.6372ZM50.5325 7.34524C50.91 7.39452 51.0348 7.52482 51.1057 7.65666L52.8687 6.69046C52.4391 5.89156 51.6893 5.475 50.8165 5.36105L50.5325 7.34524ZM50.1152 7.36773C50.2427 7.3429 50.3935 7.33386 50.5739 7.34977L50.7751 5.35653C50.4311 5.32622 50.0909 5.339 49.7581 5.40383L50.1152 7.36773ZM49.7908 7.47932C49.8704 7.43533 49.9755 7.39503 50.1158 7.36762L49.7575 5.40394C49.4372 5.46654 49.1286 5.57227 48.8421 5.73062L49.7908 7.47932ZM49.1953 7.59976L49.2153 7.60154L49.4176 5.6084L49.3976 5.60663L49.1953 7.59976ZM46.6178 9.06768C47.8009 7.95973 48.6741 7.59792 49.2739 7.60362L49.319 5.60278C47.9376 5.58966 46.5735 6.3869 45.2622 7.61492L46.6178 9.06768ZM45.155 10.982C45.4827 10.3206 45.964 9.68123 46.6186 9.06698L45.2615 7.61563C44.4546 8.37283 43.8163 9.20386 43.3664 10.1118L45.155 10.982ZM43.9252 12.2418C44.2502 11.9533 44.598 11.6202 44.968 11.2445L43.5533 9.84933C43.2078 10.2003 42.8934 10.5007 42.6098 10.7524L43.9252 12.2418ZM42.1642 13.302C42.4086 13.2886 42.6105 13.2021 42.7294 13.1435C42.8638 13.0773 42.9941 12.9946 43.1143 12.91C43.3553 12.7404 43.6314 12.5093 43.9347 12.2333L42.6003 10.7609C42.3242 11.0123 42.1196 11.1791 41.979 11.2781C41.9083 11.3278 41.8725 11.3471 41.8656 11.3505C41.843 11.3616 41.9283 11.3124 42.0809 11.3041L42.1642 13.302ZM40.9341 12.0105C40.929 12.1912 40.947 12.5078 41.1488 12.8036C41.393 13.1616 41.769 13.2983 42.0937 13.3034L42.1513 11.3027C42.2332 11.304 42.3525 11.3202 42.4825 11.3833C42.6178 11.449 42.7274 11.5477 42.8045 11.6608C42.8774 11.7676 42.9076 11.8666 42.9204 11.9279C42.9332 11.9886 42.9327 12.0298 42.9324 12.0404L40.9341 12.0105ZM41.7512 9.58863C41.2981 10.4738 40.9741 11.299 40.9353 11.9816L42.9312 12.0692C42.9443 11.8374 43.0911 11.3358 43.5279 10.4825L41.7512 9.58863ZM43.5122 6.86921C42.8032 7.74831 42.2128 8.65844 41.7455 9.59988L43.5336 10.4712C43.9293 9.67392 44.4368 8.8879 45.0612 8.11371L43.5122 6.86921ZM43.427 7.11462C43.4584 7.00352 43.5162 6.88991 43.6043 6.78941C43.6908 6.6906 43.7865 6.62735 43.8675 6.58881L44.7059 8.39412C44.9989 8.25481 45.2486 7.99504 45.3501 7.63588L43.427 7.11462ZM43.4337 7.18432C43.4358 7.11171 43.4542 7.0144 43.5081 6.91321L45.269 7.83729C45.3781 7.63277 45.4262 7.41848 45.432 7.21459L43.4337 7.18432ZM43.2799 7.00754C43.3743 7.10605 43.415 7.17289 43.4304 7.20489C43.4436 7.23235 43.4326 7.22174 43.4337 7.18357L45.432 7.21534C45.451 6.55606 45.1181 6.01628 44.731 5.6124L43.2799 7.00754ZM42.7009 6.7787C43.0273 6.80031 43.1782 6.89742 43.2663 6.99307L44.7446 5.62687C44.2461 5.08537 43.5801 4.82987 42.8588 4.78213L42.7009 6.7787ZM40.8559 8.35834C41.4379 7.79718 41.9154 7.3903 42.2938 7.12061C42.4823 6.98628 42.6329 6.89554 42.7485 6.83791C42.8685 6.77812 42.9211 6.76892 42.9188 6.76926L42.6409 4.79157C42.127 4.87051 41.613 5.16471 41.1485 5.49576C40.6561 5.84667 40.0978 6.32916 39.4787 6.92612L40.8559 8.35834ZM37.6212 11.816C38.5872 10.659 39.6652 9.50635 40.8558 8.35842L39.4788 6.92604C38.24 8.12036 37.1113 9.32653 36.0942 10.5447L37.6212 11.816ZM37.3253 8.2952C36.8216 9.08201 36.3651 9.90323 35.9568 10.7587L37.7586 11.6019C38.1309 10.8218 38.5465 10.0743 39.0044 9.35894L37.3253 8.2952ZM38.7633 6.2992C38.2996 6.83941 37.8193 7.51049 37.3212 8.30162L39.0085 9.35252C39.4724 8.61564 39.8939 8.03261 40.2724 7.5916L38.7633 6.2992ZM38.6024 6.75385C38.6045 6.68216 38.6198 6.57301 38.6781 6.4509C38.7391 6.32322 38.8316 6.21454 38.9421 6.13514L40.0935 7.75565C40.4563 7.49507 40.5911 7.10997 40.6006 6.78634L38.6024 6.75385ZM38.5216 6.79611C38.5552 6.83108 38.5791 6.85975 38.5957 6.88179C38.6123 6.90389 38.6198 6.91717 38.6221 6.9214C38.6265 6.92978 38.6053 6.89289 38.6026 6.81881L40.6004 6.72139C40.5804 6.16068 40.2753 5.71582 39.971 5.39924L38.5216 6.79611ZM38.3305 6.70695C38.375 6.71172 38.4487 6.73037 38.5607 6.83459L39.9319 5.36076C39.5578 5.01266 39.1005 4.77442 38.5694 4.7174L38.3305 6.70695ZM37.0127 9.02127C37.5248 8.19641 37.9498 7.58522 38.2903 7.16953C38.4605 6.9617 38.5961 6.81943 38.6981 6.72835C38.81 6.62857 38.836 6.63153 38.784 6.65064L38.1158 4.77371C37.8251 4.88071 37.5768 5.06582 37.3789 5.24242C37.1712 5.42773 36.9615 5.65609 36.751 5.91312C36.3299 6.42716 35.8516 7.12263 35.3186 7.98127L37.0127 9.02127ZM36.2751 10.3116C36.4852 9.90878 36.7313 9.47782 37.0144 9.01837L35.3168 7.98417C35.0122 8.47846 34.7414 8.95174 34.5057 9.40364L36.2751 10.3116ZM34.6062 12.1158C35.0883 11.6714 35.6007 11.133 36.1424 10.5068L34.6383 9.20847C34.1322 9.79371 33.6736 10.2731 33.2625 10.652L34.6062 12.1158ZM32.7483 13.2616C33.1459 13.2224 33.496 13.01 33.7313 12.8468C34.0021 12.6589 34.2989 12.4063 34.6154 12.1072L33.2534 10.6606C32.9735 10.925 32.76 11.101 32.6071 11.2071C32.5313 11.2597 32.4857 11.2843 32.467 11.2931C32.4425 11.3047 32.4855 11.2794 32.5782 11.2703L32.7483 13.2616ZM31.4591 12.0381C31.4633 12.2189 31.4979 12.5379 31.7202 12.8246C31.989 13.1712 32.3771 13.2806 32.698 13.2652L32.6285 11.2666C32.7087 11.2628 32.8284 11.2709 32.9624 11.3253C33.1024 11.3823 33.2197 11.4745 33.3053 11.5848C33.3861 11.689 33.4227 11.7882 33.4393 11.8502C33.4557 11.9116 33.4574 11.954 33.4576 11.9652L31.4591 12.0381ZM32.3905 9.26628C31.8602 10.3053 31.4823 11.251 31.4593 11.9834L33.4574 12.0199C33.4647 11.7859 33.634 11.2049 34.1683 10.1581L32.3905 9.26628ZM34.2427 6.2585C33.5508 7.18714 32.9325 8.19155 32.3883 9.27071L34.1705 10.1537C34.6642 9.17475 35.2211 8.27124 35.8396 7.44124L34.2427 6.2585ZM34.1172 6.70634C34.1155 6.63225 34.1257 6.52147 34.1782 6.39645C34.2328 6.26628 34.3191 6.15513 34.4225 6.07226L35.6599 7.62748C36.0038 7.35169 36.1233 6.96408 36.1157 6.63403L34.1172 6.70634ZM34.0224 6.83984C34.0735 6.8821 34.112 6.91742 34.1401 6.94569C34.1686 6.97431 34.1826 6.99175 34.1871 6.99781C34.192 7.0044 34.1815 6.99185 34.1673 6.96033C34.1528 6.92838 34.1306 6.86842 34.1221 6.78451L36.1109 6.55587C36.0773 6.22611 35.9274 5.96546 35.7944 5.78713C35.6563 5.60207 35.4848 5.43704 35.3078 5.29065L34.0224 6.83984ZM33.7652 6.69355C33.7858 6.69445 33.8623 6.70112 34.0043 6.82446L35.3259 5.30603C34.927 4.95947 34.4409 4.71913 33.8785 4.69452L33.7652 6.69355ZM32.4978 8.98224C32.9917 8.15263 33.4 7.53956 33.725 7.12462C33.8877 6.91696 34.0156 6.77692 34.1099 6.68914C34.216 6.59036 34.2288 6.60563 34.1567 6.63221L33.4869 4.75586C33.1916 4.86485 32.946 5.05793 32.7586 5.23237C32.5594 5.41781 32.3589 5.64641 32.158 5.9028C31.756 6.41597 31.2972 7.1127 30.784 7.97463L32.4978 8.98224ZM31.8307 10.2155C32.0194 9.8205 32.2407 9.41051 32.4959 8.98543L30.7859 7.97144C30.5011 8.44601 30.2485 8.91283 30.0293 9.3718L31.8307 10.2155ZM30.731 11.559C31.062 11.1952 31.3876 10.8129 31.7077 10.4119L30.1523 9.17543C29.8585 9.54347 29.5614 9.89226 29.261 10.2223L30.731 11.559ZM29.2555 12.8985C29.7322 12.5357 30.2174 12.0935 30.7117 11.5797L29.2804 10.2016C28.8406 10.6588 28.4335 11.0264 28.0589 11.3115L29.2555 12.8985ZM27.756 9.62043C27.7888 10.6248 27.7551 11.4005 27.6691 11.9673L29.6453 12.2427C29.7572 11.506 29.7888 10.5948 29.754 9.52894L27.756 9.62043ZM28.3812 6.2247C27.9108 7.30824 27.7026 8.44855 27.7565 9.63328L29.7535 9.51609C29.7133 8.63305 29.8669 7.79909 30.213 7.00189L28.3812 6.2247ZM28.4013 6.45209C28.3941 6.35029 28.4093 6.23698 28.4549 6.12654C28.4993 6.01902 28.5601 5.94398 28.6076 5.89801L29.9865 7.32857C30.2498 7.07413 30.4253 6.70861 30.3954 6.28496L28.4013 6.45209ZM28.2171 6.47119C28.3532 6.56043 28.4187 6.62408 28.4441 6.65397C28.4681 6.68224 28.4308 6.64974 28.4142 6.55634L30.3824 6.18071C30.265 5.5202 29.7621 5.07796 29.3278 4.79316L28.2171 6.47119ZM27.6735 6.26983C27.788 6.26887 27.9643 6.30535 28.217 6.47114L29.3279 4.79321C28.8334 4.4689 28.2803 4.26397 27.6829 4.26897L27.6735 6.26983ZM27.8256 6.24822C27.8088 6.25539 27.7817 6.26361 27.748 6.26642L27.6084 4.27237C27.4171 4.28827 27.2347 4.33572 27.0641 4.40827L27.8256 6.24822ZM28.0993 6.0385C28.0654 6.08798 27.9955 6.1659 27.879 6.22367L27.0108 4.43281C26.7665 4.5539 26.5848 4.73282 26.4556 4.92128L28.0993 6.0385ZM28.0255 6.18067C28.0467 6.13492 28.0644 6.10018 28.0782 6.07485C28.085 6.06237 28.0903 6.05309 28.0942 6.04664C28.0982 6.04012 28.1 6.03742 28.0997 6.03789L26.4552 4.9219C26.3632 5.05636 26.2836 5.20826 26.2145 5.35722L28.0255 6.18067ZM26.5443 8.48125C27.1411 7.6303 27.6235 6.88823 27.9849 6.25901L26.255 5.27888C25.9351 5.83586 25.4901 6.52324 24.9131 7.34598L26.5443 8.48125ZM25.3341 10.1689C25.6534 9.73596 26.0569 9.1734 26.5432 8.48283L24.9142 7.34441C24.4324 8.02865 24.0383 8.57792 23.7313 8.9942L25.3341 10.1689ZM25.2561 10.2404C25.184 10.3343 25.0925 10.4108 24.9909 10.4646L24.0745 8.69844C23.9204 8.78001 23.785 8.8936 23.6772 9.03393L25.2561 10.2404ZM24.6393 11.1471C24.8546 10.8447 25.0748 10.5218 25.2999 10.1788L23.6334 9.09558C23.4208 9.41955 23.2151 9.72097 23.0164 10.0001L24.6393 11.1471ZM22.7655 10.4786C22.7972 10.6068 22.8306 10.7332 22.8658 10.8576L24.7899 10.2896C24.7608 10.1867 24.7329 10.0815 24.7064 9.97401L22.7655 10.4786ZM23.8369 11.0501C23.7427 11.0736 23.5908 11.0939 23.4112 11.0503C23.2197 11.0038 23.0591 10.8997 22.9437 10.7685C22.7474 10.5455 22.7393 10.3156 22.7389 10.3105L24.7329 10.1421C24.7242 10.0196 24.6904 9.70658 24.4511 9.43473C24.1268 9.06629 23.6801 9.0333 23.3767 9.1091L23.8369 11.0501ZM23.9965 10.9963C24.0346 10.9446 24.0455 10.941 24.024 10.9582C24.0023 10.9756 23.9182 11.0372 23.7748 11.0636L23.4388 9.09566C22.9146 9.19196 22.5768 9.57316 22.3933 9.8221L23.9965 10.9963ZM23.9634 11.0327C23.9635 11.037 23.9631 11.0419 23.9623 11.0466C23.9615 11.0514 23.9607 11.0538 23.9607 11.0536C23.9608 11.0534 23.967 11.0359 23.9928 11.0014L22.3971 9.81705C22.1302 10.1745 21.9582 10.604 21.9645 11.0851L23.9634 11.0327ZM24.0203 11.3781C23.9898 11.2405 23.9703 11.1063 23.961 10.9751L21.967 11.1427C21.9834 11.3747 22.0175 11.6058 22.0683 11.8354L24.0203 11.3781ZM23.4695 12.6422C23.5836 12.5123 23.6988 12.3761 23.8151 12.2335L22.2735 10.98C22.1716 11.1049 22.0724 11.2221 21.976 11.3318L23.4695 12.6422ZM21.7295 13.9741C22.1173 13.8935 22.4431 13.6483 22.6607 13.4632C22.9116 13.2498 23.1831 12.9695 23.4709 12.6406L21.9746 11.3334C21.7192 11.6252 21.5217 11.8232 21.3777 11.9456C21.3063 12.0064 21.2622 12.0364 21.243 12.048C21.2181 12.063 21.2571 12.034 21.3475 12.0152L21.7295 13.9741ZM20.5665 13.5155C20.685 13.6868 20.8597 13.8386 21.0894 13.9252C21.3101 14.0083 21.5185 14.0078 21.6766 13.9836L21.4004 12.0057C21.4928 11.9915 21.6438 11.9868 21.8152 12.0514C21.9958 12.1195 22.1294 12.2384 22.2151 12.3622L20.5665 13.5155ZM20.3154 12.903C20.3417 13.097 20.431 13.4853 20.7967 13.751L21.985 12.1266C22.1244 12.2279 22.2027 12.3492 22.2437 12.4376C22.2828 12.5218 22.2934 12.5866 22.2964 12.6087L20.3154 12.903ZM20.9371 10.0657C20.5248 11.1457 20.2519 12.1205 20.3095 12.8477L22.3023 12.664C22.2842 12.4354 22.3878 11.8471 22.8033 10.7585L20.9371 10.0657ZM22.4661 6.89935C21.8825 7.8861 21.3736 8.94002 20.939 10.0607L22.8014 10.7635C23.1979 9.74099 23.6588 8.78793 24.1829 7.90201L22.4661 6.89935ZM22.3892 7.36407C22.379 7.28947 22.3768 7.17677 22.416 7.0452C22.4568 6.90821 22.5319 6.78724 22.6271 6.69317L24.0219 8.1082C24.3376 7.79629 24.4148 7.39558 24.3698 7.06707L22.3892 7.36407ZM22.3107 7.50677C22.366 7.54298 22.4081 7.57371 22.4391 7.59859C22.4705 7.62378 22.4862 7.63949 22.4914 7.64496C22.4969 7.65092 22.4851 7.63954 22.4673 7.60972C22.4493 7.57952 22.4203 7.52209 22.4024 7.43911L24.3566 6.99202C24.2868 6.6686 24.1087 6.4269 23.9573 6.26548C23.8 6.0977 23.6117 5.95327 23.42 5.82783L22.3107 7.50677ZM22.0191 7.3926C22.0446 7.39097 22.1349 7.39177 22.311 7.50697L23.4197 5.82763C22.9815 5.54104 22.4733 5.36011 21.9172 5.39577L22.0191 7.3926ZM22.3637 7.33188C22.4194 7.2591 22.4424 7.24063 22.4326 7.24897C22.4262 7.25444 22.3993 7.27678 22.3521 7.30237C22.3052 7.32782 22.2221 7.3653 22.1078 7.38293L21.8285 5.40545C21.5089 5.45477 21.2772 5.62281 21.1492 5.73176C21.0078 5.85212 20.8857 5.99352 20.7826 6.12829L22.3637 7.33188ZM21.8812 8.06565C22.0772 7.7374 22.2378 7.49672 22.3642 7.33125L20.7821 6.12892C20.5909 6.37923 20.3861 6.69188 20.1689 7.05552L21.8812 8.06565ZM19.9364 7.55643C19.9928 7.6062 20.0247 7.65823 20.0411 7.7496L22.0089 7.37157C21.9159 6.85216 21.6666 6.39815 21.2687 6.04736L19.9364 7.55643ZM19.6666 7.58403C19.8287 7.56349 19.9207 7.57206 19.9615 7.58024C19.9959 7.58714 19.9734 7.58907 19.9361 7.55618L21.269 6.04761C20.7345 5.57605 20.0386 5.52328 19.4411 5.59899L19.6666 7.58403ZM16.4561 10.3455C17.3787 8.74533 18.4938 7.877 19.7787 7.56331L19.329 5.6197C17.385 6.0943 15.8588 7.40093 14.7279 9.36241L16.4561 10.3455ZM15.2298 14.5164C15.1326 13.4024 15.4873 12.0257 16.4561 10.3455L14.7279 9.36242C13.6428 11.2444 13.0922 13.0426 13.2383 14.7163L15.2298 14.5164ZM15.4101 14.9281C15.3521 14.876 15.2637 14.7606 15.2246 14.47L13.2434 14.7626C13.3285 15.3947 13.5759 15.9864 14.0642 16.425L15.4101 14.9281ZM15.776 14.9371C15.6019 14.9597 15.4979 14.9497 15.4453 14.9382C15.3999 14.9283 15.4008 14.9195 15.4142 14.9318L14.0601 16.4213C14.6167 16.927 15.3443 17.0073 16.0072 16.9214L15.776 14.9371ZM16.9436 14.0474C16.4669 14.6458 16.0505 14.8815 15.7128 14.9473L16.0704 16.9111C17.0324 16.7235 17.836 16.1161 18.5003 15.2822L16.9436 14.0474ZM18.3946 11.8349C17.9709 12.6565 17.4908 13.3874 16.9563 14.0317L18.4875 15.2979C19.1232 14.5315 19.6828 13.6759 20.1684 12.7344L18.3946 11.8349ZM20.1473 13.3169C20.1698 13.048 20.2085 12.7599 20.2647 12.452L18.2983 12.1173C18.2317 12.4825 18.1837 12.8356 18.1552 13.1762L20.1473 13.3169ZM20.1553 13.9411C20.132 13.7688 20.1267 13.5626 20.1473 13.3174L18.1553 13.1757C18.1246 13.5405 18.1282 13.8951 18.1743 14.2351L20.1553 13.9411ZM20.2597 14.2746C20.2591 14.2739 20.2554 14.2704 20.2494 14.2617C20.2433 14.2528 20.2339 14.2372 20.2229 14.2122C20.2004 14.161 20.1734 14.0752 20.1553 13.9414L18.1742 14.2347C18.248 14.7812 18.4456 15.3303 18.878 15.7386L20.2597 14.2746ZM20.2397 14.2455C20.2161 14.2491 20.2036 14.2489 20.2005 14.2488C20.1978 14.2487 20.2029 14.2487 20.2134 14.2516C20.2241 14.2546 20.2355 14.2594 20.2459 14.2653C20.2561 14.2712 20.2609 14.2757 20.2606 14.2754L18.8772 15.7378C19.3401 16.1758 19.9294 16.3142 20.52 16.2228L20.2397 14.2455ZM22.0785 12.8015C21.2715 13.759 20.6324 14.1562 20.1757 14.2575L20.5839 16.2108C21.6815 15.9673 22.6817 15.1688 23.5994 14.08L22.0785 12.8015ZM22.6569 12.0874C22.4686 12.3294 22.2758 12.5674 22.0785 12.8014L23.5994 14.0801C23.8139 13.8256 24.0235 13.5668 24.2281 13.3038L22.6569 12.0874ZM24.7277 12.8834C24.5712 12.6594 24.4411 12.4428 24.335 12.2336L22.5499 13.1576C22.7017 13.4569 22.8806 13.7524 23.0844 14.0442L24.7277 12.8834ZM26.3136 13.6833C25.5847 13.6884 25.0994 13.4287 24.734 12.8926L23.078 14.0349C23.8314 15.1403 24.9471 15.6937 26.3016 15.6842L26.3136 13.6833ZM26.2969 13.6818L26.2378 13.6867L26.3774 15.6808L26.4365 15.6758L26.2969 13.6818ZM28.4849 12.449C27.5724 13.2741 26.8363 13.6204 26.2673 13.6847L26.466 15.6729C27.6241 15.542 28.7434 14.8942 29.8143 13.9259L28.4849 12.449ZM29.3701 11.5755C29.0774 11.8892 28.7823 12.1801 28.485 12.4489L29.8142 13.9259C30.1567 13.6163 30.4928 13.2845 30.8227 12.931L29.3701 11.5755ZM30.9956 13.0891C31.0095 12.8745 31.0371 12.6521 31.0794 12.4214L29.1134 12.0851C29.0577 12.3886 29.0199 12.6891 29.0007 12.9862L30.9956 13.0891ZM31.0817 13.383C31.0714 13.371 31.004 13.2848 30.9974 13.0013L28.9989 13.074C29.0123 13.6507 29.1596 14.2334 29.5575 14.6975L31.0817 13.383ZM31.1486 13.3916C31.0801 13.3948 31.063 13.3838 31.075 13.3887C31.0804 13.3909 31.0873 13.3946 31.0937 13.3994C31.0999 13.404 31.101 13.4063 31.0978 13.4023L29.5413 14.6782C29.9725 15.208 30.5814 15.4201 31.2162 15.3903L31.1486 13.3916ZM33.1771 12.1419C32.2915 13.0036 31.5971 13.3404 31.0864 13.3964L31.2784 15.3854C32.4325 15.2589 33.5292 14.5715 34.5608 13.5678L33.1771 12.1419ZM8.02097 4.9722C9.7004 4.55162 10.8901 4.64808 11.7139 5.06285L12.6308 3.27295C11.2208 2.56302 9.48931 2.54823 7.55969 3.03147L8.02097 4.9722ZM3.61022 7.47409C4.82782 6.31859 6.30411 5.47852 8.06079 4.96136L7.51987 3.04231C5.47794 3.64346 3.71281 4.63748 2.24482 6.03059L3.61022 7.47409ZM2.22711 10.2706C2.09197 9.53851 2.38083 8.6268 3.60575 7.4783L2.2493 6.02638C0.782314 7.40183 -0.0514088 8.96565 0.261143 10.659L2.22711 10.2706ZM2.51061 10.6029C2.43159 10.5701 2.30331 10.489 2.19809 10.1537L0.290156 10.7759C0.521887 11.5144 0.975928 12.1419 1.72396 12.4525L2.51061 10.6029ZM2.97824 10.6658C2.92314 10.6809 2.77258 10.6986 2.47335 10.5883L1.76121 12.4671C2.30751 12.6684 2.89825 12.7544 3.47959 12.5961L2.97824 10.6658ZM2.78747 10.8105C2.8506 10.7388 2.91147 10.6999 2.94458 10.682C2.97689 10.6646 2.99179 10.6621 2.97742 10.6661L3.48042 12.5959C3.71625 12.5314 4.03234 12.4033 4.27985 12.1221L2.78747 10.8105ZM2.6688 11.6916C2.62613 11.6143 2.57527 11.481 2.5827 11.3068C2.59032 11.1286 2.65572 10.9863 2.72202 10.8931L4.3453 12.0395C4.47135 11.8624 4.56853 11.6336 4.57995 11.3662C4.59119 11.1029 4.51616 10.8778 4.42135 10.7062L2.6688 11.6916ZM3.93783 7.39152C2.89732 8.68172 2.28791 10.0523 2.56571 11.4116L4.52444 10.9861C4.42447 10.4969 4.59345 9.74377 5.48686 8.63595L3.93783 7.39152ZM8.5635 4.4249C6.62381 5.02816 5.05685 6.0033 3.93768 7.3917L5.48701 8.63576C6.3011 7.62583 7.49203 6.84566 9.13384 6.33504L8.5635 4.4249ZM11.5755 4.36099C10.7218 4.04938 9.69264 4.13083 8.60982 4.41169L9.08751 6.34824C10.0219 6.10588 10.5755 6.13475 10.869 6.24189L11.5755 4.36099ZM13.2839 6.24022C13.0459 5.33587 12.4534 4.68131 11.5753 4.36094L10.8691 6.24194C11.1379 6.33999 11.2757 6.4898 11.3504 6.77348L13.2839 6.24022ZM12.367 10.4866C13.2022 9.09513 13.5726 7.68163 13.2975 6.29915L11.3368 6.71456C11.4864 7.46657 11.32 8.36817 10.657 9.47272L12.367 10.4866ZM8.92035 13.3864C10.3693 12.9078 11.5145 11.9069 12.367 10.4866L10.657 9.47271C10.0107 10.5495 9.22698 11.1862 8.31629 11.4871L8.92035 13.3864ZM7.73647 13.4637C8.13282 13.5571 8.5374 13.4924 8.86952 13.4017L8.36712 11.4717C8.27705 11.4963 8.21911 11.5051 8.18825 11.5076C8.15593 11.5103 8.17165 11.5047 8.21858 11.5157L7.73647 13.4637ZM7.84437 8.95298C7.54639 9.92153 7.2652 11.0369 6.99967 12.2953L8.95537 12.6842C9.21177 11.469 9.47854 10.4151 9.75425 9.51894L7.84437 8.95298ZM9.55756 6.67763C9.06965 6.85493 8.7116 7.20794 8.4525 7.59321C8.19466 7.97661 7.99842 8.44408 7.84304 8.95732L9.75557 9.5146C9.87747 9.11196 10.0013 8.85167 10.1063 8.69554C10.21 8.5413 10.2576 8.54302 10.218 8.55741L9.55756 6.67763ZM9.18861 7.03576C9.38742 6.69582 9.70593 6.63187 9.798 6.62235L9.97753 8.61268C10.2288 8.58672 10.6552 8.46614 10.9105 8.02973L9.18861 7.03576ZM9.08588 7.65581C9.07887 7.62915 9.06298 7.56046 9.06516 7.46343C9.06739 7.3638 9.08975 7.2054 9.18782 7.03712L10.9113 8.02837C11.1371 7.6408 11.0559 7.26108 11.0196 7.1231L9.08588 7.65581ZM9.10337 7.8121C9.13523 7.83031 9.15716 7.845 9.17121 7.85536C9.18534 7.86577 9.18921 7.87012 9.18631 7.86721C9.18101 7.86188 9.13919 7.81798 9.10853 7.73001L10.997 7.0489C10.8265 6.55999 10.4372 6.25737 10.1118 6.07136L9.10337 7.8121ZM8.98881 7.79764C9.03831 7.78631 9.05998 7.78933 9.06226 7.78966C9.06408 7.78992 9.06477 7.79016 9.06543 7.7904C9.06616 7.79066 9.06974 7.79201 9.07654 7.79618L10.1386 6.08727C9.65177 5.78806 9.10456 5.72437 8.56732 5.84738L8.98881 7.79764ZM6.89602 12.2393C7.29034 10.8952 7.7053 9.85001 8.13032 9.08001C8.56102 8.29971 8.96179 7.8757 9.29095 7.67444L8.26518 5.97058C7.51303 6.43046 6.8997 7.1948 6.38349 8.13001C5.86159 9.07552 5.3968 10.273 4.97852 11.6987L6.89602 12.2393ZM3.48332 18.0276C4.279 17.5617 4.9283 16.7919 5.46972 15.8382C6.01457 14.8784 6.48635 13.6684 6.89777 12.2333L4.97677 11.7047C4.59149 13.0487 4.1733 14.0945 3.73478 14.867C3.29282 15.6455 2.86535 16.0846 2.49072 16.3039L3.48332 18.0276ZM1.93972 17.9644C2.38827 18.2688 2.89944 18.2044 3.18218 18.1444L2.79186 16.1872C2.73944 16.1983 2.74155 16.1918 2.78181 16.1945C2.82335 16.1973 2.94239 16.2128 3.07625 16.3036L1.93972 17.9644ZM2.3352 18.0468C2.29445 18.0537 2.22105 18.0592 2.12865 18.0383C2.03246 18.0166 1.94347 17.9723 1.87107 17.9133L3.14491 16.3547C2.80095 16.0746 2.39063 16.0127 2.02833 16.0738L2.3352 18.0468ZM2.88923 17.5763C2.86095 17.6672 2.80268 17.7767 2.70088 17.8716C2.60143 17.9644 2.49933 18.0072 2.433 18.0253L1.93054 16.0953C1.49541 16.2141 1.12897 16.5293 0.981221 17.0043L2.88923 17.5763ZM2.91139 17.4484C2.90567 17.4266 2.90857 17.4286 2.90905 17.4501C2.90956 17.4729 2.9073 17.5185 2.88873 17.5779L0.981714 17.0027C0.870342 17.3587 0.904457 17.7026 0.977703 17.9812L2.91139 17.4484ZM3.4094 18.0634C3.06493 17.8024 2.9485 17.5894 2.91131 17.4481L0.977781 17.9815C1.16025 18.6746 1.61369 19.2281 2.18959 19.6645L3.4094 18.0634ZM4.30229 18.1943C3.85753 18.2888 3.59927 18.2072 3.40937 18.0634L2.18962 19.6645C2.91975 20.2177 3.79359 20.3424 4.69264 20.1515L4.30229 18.1943ZM5.61573 16.7748C5.19519 17.6499 4.70571 18.0593 4.2034 18.2206L4.79153 20.1251C5.97444 19.7452 6.83081 18.8387 7.4151 17.6229L5.61573 16.7748ZM6.73938 13.4439C6.44463 14.7045 6.06693 15.8153 5.61207 16.7825L7.41877 17.6152C7.94361 16.4992 8.36405 15.2506 8.68555 13.8757L6.73938 13.4439ZM8.94142 13.1895C8.69762 13.1214 8.51296 13.0203 8.36832 12.8963L7.05662 14.4233C7.44005 14.7519 7.88779 14.9794 8.3801 15.1172L8.94142 13.1895ZM9.71247 13.138C9.33356 13.231 9.07834 13.223 8.91269 13.182L8.40883 15.1247C8.97263 15.2643 9.56941 15.2271 10.1647 15.081L9.71247 13.138ZM12.4981 10.7213C11.6578 12.0465 10.6984 12.8159 9.64217 13.158L10.235 15.061C11.8433 14.5401 13.1515 13.4027 14.1819 11.7776L12.4981 10.7213ZM13.2875 6.89638C13.5451 8.17374 13.304 9.4344 12.4951 10.7261L14.185 11.7728C15.2391 10.0895 15.6167 8.30787 15.2473 6.47589L13.2875 6.89638ZM11.7143 5.06303C12.5803 5.49862 13.0811 6.11928 13.3007 6.95292L15.2341 6.41934C14.861 5.00248 13.9654 3.94419 12.6304 3.27276L11.7143 5.06303ZM16.979 14.9241C17.4609 14.8294 17.8376 14.494 18.0849 14.2372C18.3677 13.9435 18.6628 13.5553 18.969 13.0981L17.313 11.999C17.0381 12.4095 16.819 12.6874 16.6543 12.8584C16.5727 12.9432 16.5209 12.9844 16.4984 12.9999C16.4713 13.0187 16.5145 12.9813 16.6187 12.9608L16.979 14.9241ZM15.5073 13.8003C15.5358 14.0102 15.6181 14.347 15.8982 14.6162C16.2223 14.9277 16.6274 14.9795 16.9392 14.9311L16.6584 12.9539C16.7992 12.932 17.0686 12.949 17.2925 13.1641C17.3852 13.2532 17.434 13.3444 17.4583 13.4035C17.482 13.4611 17.4875 13.5002 17.4883 13.506L15.5073 13.8003ZM16.7034 9.83874C15.9442 11.3387 15.469 12.6613 15.4987 13.695L17.4969 13.6114C17.483 13.1241 17.7379 12.199 18.4843 10.7244L16.7034 9.83874ZM19.5715 6.68964C18.378 7.11246 17.4579 8.32274 16.7003 9.84491L18.4874 10.7182C19.2077 9.27075 19.8214 8.71495 20.2165 8.57495L19.5715 6.68964ZM20.9322 6.98883C20.6548 6.76271 20.2474 6.56725 19.7539 6.64363L20.0341 8.62097C19.9303 8.63703 19.8352 8.62407 19.7617 8.59922C19.6938 8.57623 19.6597 8.54852 19.6578 8.547L20.9322 6.98883ZM21.5202 8.03363C21.4482 7.67603 21.2861 7.31291 20.9777 7.02834L19.6123 8.50749C19.5835 8.48091 19.5666 8.45499 19.5586 8.4395C19.5514 8.42558 19.555 8.42722 19.5604 8.45379L21.5202 8.03363ZM21.5372 8.1441L21.5308 8.09679L19.5498 8.39063L19.5562 8.43793L21.5372 8.1441ZM21.544 8.19437L21.5373 8.14482L19.5561 8.43722L19.5627 8.48677L21.544 8.19437ZM21.4937 8.74787C21.5629 8.54196 21.5649 8.34743 21.5437 8.19201L19.563 8.48913C19.5523 8.41094 19.5491 8.28331 19.5997 8.13252L21.4937 8.74787ZM21.126 9.51507L21.4422 8.87303L19.6513 8.00737L19.3352 8.64941L21.126 9.51507ZM18.9643 13.1051C19.5712 12.215 20.2848 11.0296 21.1023 9.56023L19.3588 8.60425C18.5557 10.0478 17.8757 11.1737 17.3178 11.992L18.9643 13.1051ZM25.0239 12.2236C25.3277 11.7879 25.6189 11.3417 25.8975 10.8849L24.195 9.8585C23.9378 10.2802 23.6693 10.6917 23.3894 11.093L25.0239 12.2236ZM25.3558 11.739C25.2755 11.5866 25.1992 11.4258 25.1271 11.2563L23.2862 12.0603C23.3787 12.2777 23.4782 12.488 23.5852 12.6908L25.3558 11.739ZM25.6384 12.0849C25.636 12.0849 25.6356 12.0847 25.6366 12.0849C25.6376 12.085 25.6383 12.0853 25.6382 12.0852C25.638 12.0852 25.6356 12.0843 25.6306 12.0816C25.6256 12.0789 25.6173 12.0738 25.6059 12.0652C25.557 12.0281 25.4632 11.9339 25.3476 11.7237L23.5934 12.7061C23.9934 13.4333 24.6398 14.0811 25.6026 14.0858L25.6384 12.0849ZM25.6362 11.3065C25.5875 11.7388 25.5002 11.9695 25.4372 12.0744C25.4097 12.1202 25.3959 12.1268 25.4054 12.1197C25.4097 12.1165 25.4163 12.1124 25.4241 12.1089C25.4277 12.1073 25.4309 12.1061 25.4334 12.1054C25.4359 12.1046 25.4373 12.1043 25.4372 12.1043L25.8038 14.0664C26.4041 13.9464 26.8543 13.576 27.1469 13.0888C27.4202 12.6338 27.5578 12.0806 27.6226 11.5049L25.6362 11.3065ZM25.7938 8.14495C25.7838 9.27615 25.7301 10.3349 25.6345 11.3221L27.6243 11.4893C27.7261 10.4373 27.7823 9.31952 27.7928 8.13664L25.7938 8.14495ZM26.6854 9.85173C27.0178 9.45152 27.315 9.08511 27.576 8.75274L26.0107 7.52885C25.7637 7.84323 25.4787 8.19482 25.155 8.58451L26.6854 9.85173ZM25.8457 10.9617C26.1269 10.583 26.4142 10.2037 26.7078 9.82374L25.1326 8.61251C24.831 9.00273 24.5358 9.39247 24.2468 9.78172L25.8457 10.9617ZM50.5253 11.5853C50.8768 11.1302 51.1702 10.6648 51.3992 10.1877L49.5994 9.34044C49.4402 9.67212 49.226 10.0168 48.9496 10.3747L50.5253 11.5853ZM48.0264 10.1644C48.2394 10.7807 48.5885 11.3119 49.0739 11.7368L50.4011 10.2233C50.1843 10.0335 50.0227 9.79543 49.9165 9.4882L48.0264 10.1644ZM47.7901 8.42317C47.7198 9.02548 47.8152 9.62184 48.039 10.1989L49.9038 9.45369C49.7788 9.13124 49.7486 8.86159 49.7756 8.62947L47.7901 8.42317ZM47.8712 7.98918C47.8327 8.13397 47.8071 8.27925 47.7903 8.42132L49.7754 8.63132C49.7832 8.56518 49.793 8.51611 49.8025 8.48064L47.8712 7.98918ZM48.0224 7.56977C47.9581 7.7066 47.9079 7.8488 47.87 7.99366L49.8036 8.47616C49.8128 8.44115 49.8222 8.41723 49.8292 8.40243L48.0224 7.56977ZM48.9115 6.7897C48.7039 6.91029 48.5018 7.05152 48.3051 7.21012L49.5465 8.76207C49.6733 8.65985 49.7905 8.57939 49.8978 8.51708L48.9115 6.7897ZM49.5571 6.49171C49.3347 6.56796 49.1193 6.66882 48.9108 6.79013L49.8986 8.51665C50.0043 8.45511 50.0988 8.41255 50.1826 8.38384L49.5571 6.49171ZM51.5007 7.21215C51.1142 6.70781 50.5351 6.50952 50.0036 6.44465L49.7361 8.43091C49.8583 8.44583 49.9201 8.46865 49.9421 8.47895C49.9595 8.48705 49.9368 8.47972 49.9085 8.44283L51.5007 7.21215ZM51.8614 8.75485C51.9207 8.24733 51.8419 7.72655 51.5418 7.27L49.8674 8.38498C49.8685 8.38666 49.8722 8.39185 49.8757 8.40949C49.8797 8.42948 49.8847 8.47301 49.8759 8.54823L51.8614 8.75485ZM51.387 10.2121C51.6324 9.73419 51.8043 9.24542 51.8615 8.75458L49.8759 8.54849C49.8541 8.73553 49.7797 8.98843 49.6115 9.316L51.387 10.2121ZM46.5753 14.0263C47.1472 14.0768 47.6988 13.9192 48.2028 13.6523L47.2861 11.8863C47.0245 12.0248 46.8632 12.0407 46.7769 12.0331L46.5753 14.0263ZM45.3214 13.2802C45.6229 13.7998 46.1391 13.9876 46.5751 14.0263L46.7772 12.0331C46.7545 12.0311 46.7908 12.0304 46.8544 12.0642C46.9266 12.1027 47.0014 12.1689 47.0535 12.2585L45.3214 13.2802ZM45.0894 12.0263C45.0447 12.4115 45.0577 12.9327 45.3806 13.3704L46.9943 12.1683C47.0544 12.2499 47.0679 12.3171 47.0699 12.3292C47.0709 12.3353 47.0696 12.331 47.0696 12.3136C47.0695 12.2964 47.0706 12.2695 47.075 12.2316L45.0894 12.0263ZM45.8267 10.0455C45.4472 10.6887 45.1868 11.3427 45.0928 11.9999L47.0716 12.2581C47.1186 11.9292 47.2607 11.5274 47.5446 11.0462L45.8267 10.0455ZM47.1836 8.24456C46.666 8.80415 46.215 9.40174 45.8318 10.0369L47.5395 11.0548C47.849 10.5418 48.2158 10.0547 48.6423 9.59358L47.1836 8.24456ZM48.8969 9.09878L48.9059 9.02077L46.92 8.81738L46.911 8.89539L48.8969 9.09878ZM49.0104 10.3257C48.8853 9.91235 48.8494 9.50651 48.8967 9.10015L46.9112 8.89402C46.8311 9.58089 46.8947 10.262 47.0967 10.929L49.0104 10.3257ZM49.5705 11.2728C49.3164 11.015 49.1281 10.7022 49.0079 10.3174L47.0992 10.9373C47.3086 11.6073 47.6543 12.1962 48.1381 12.6873L49.5705 11.2728ZM48.1798 13.6641C48.6623 13.4241 49.1127 13.1002 49.533 12.7056L48.1756 11.2545C47.8789 11.533 47.5895 11.735 47.309 11.8745L48.1798 13.6641Z" fill="url(#paint0_linear_1_3341)" fill-opacity="0.5" mask="url(#path-1-outside-1_1_3341)" />
	<defs>
		<linearGradient id="paint0_linear_1_3341" x1="47.3286" y1="3.17996" x2="41.53" y2="25.2581" gradientUnits="userSpaceOnUse">
			<stop stop-color="#E6C758" />
			<stop offset="0.21875" stop-color="#C5A041" />
			<stop offset="0.333333" stop-color="#AD8330" />
			<stop offset="0.451" stop-color="#9E7226" />
			<stop offset="0.4902" stop-color="#996C22" />
			<stop offset="0.52" stop-color="#9D7126" />
			<stop offset="0.5575" stop-color="#AA8131" />
			<stop offset="0.5991" stop-color="#BE9B42" />
			<stop offset="0.703125" stop-color="#DABE5B" />
			<stop offset="0.817708" stop-color="#CFAC4E" />
			<stop offset="1" stop-color="#A4631B" />
		</linearGradient>
	</defs>
</svg>
