<svg width="80" height="71" viewBox="0 0 80 71" fill="none" xmlns="http://www.w3.org/2000/svg">
	<path d="M34.3152 57.2406C22.3389 57.2406 12.7282 47.4744 12.7282 35.6367C12.7282 23.6509 22.4867 14.0327 34.3152 14.0327C46.2916 14.0327 78.0808 35.6367 78.0808 35.6367C78.0808 35.6367 46.2916 57.2406 34.3152 57.2406Z" fill="url(#paint0_linear_1_3902)" />
	<path d="M11.9899 35.6363C11.9899 23.2066 22.0442 13.2925 34.3163 13.2925C46.2927 13.2925 77.1947 34.1565 78.5254 35.0444L79.4125 35.6363L78.5254 36.2282C77.1947 37.116 46.4405 57.98 34.3163 57.98C22.0442 57.98 11.9899 47.9179 11.9899 35.6363ZM76.7511 35.6363C71.4283 32.0849 44.8141 14.7722 34.3163 14.7722C22.7835 14.7722 13.4685 24.0944 13.4685 35.6363C13.4685 47.1781 22.7835 56.5003 34.3163 56.5003C44.8141 56.5003 71.4283 39.0396 76.7511 35.6363Z" fill="url(#paint1_linear_1_3902)" />
	<g filter="url(#filter0_d_1_3902)">
		<path d="M34.1312 66.6582C16.9706 66.6582 2.95206 52.628 2.95206 35.4531C2.95206 18.2782 16.9706 4.24804 34.1312 4.24805C51.2918 4.24805 65.3104 18.2782 65.3104 35.4531C65.5521 52.628 51.5335 66.6582 34.1312 66.6582Z" fill="url(#paint2_linear_1_3902)" />
	</g>
	<g filter="url(#filter1_i_1_3902)">
		<path d="M59.7209 41.1856C56.4961 55.8559 42.2708 65.1274 27.8563 61.9539C13.4418 58.7803 4.41788 44.3901 7.64271 29.7199C10.8675 15.0496 25.0928 5.77807 39.5073 8.95163C53.9218 12.1252 62.9457 26.5154 59.7209 41.1856Z" fill="url(#paint3_linear_1_3902)" />
		<path d="M59.7209 41.1856C56.4961 55.8559 42.2708 65.1274 27.8563 61.9539C13.4418 58.7803 4.41788 44.3901 7.64271 29.7199C10.8675 15.0496 25.0928 5.77807 39.5073 8.95163C53.9218 12.1252 62.9457 26.5154 59.7209 41.1856Z" fill="url(#paint4_linear_1_3902)" />
		<path d="M59.7209 41.1856C56.4961 55.8559 42.2708 65.1274 27.8563 61.9539C13.4418 58.7803 4.41788 44.3901 7.64271 29.7199C10.8675 15.0496 25.0928 5.77807 39.5073 8.95163C53.9218 12.1252 62.9457 26.5154 59.7209 41.1856Z" fill="url(#paint5_linear_1_3902)" style="mix-blend-mode:soft-light" />
	</g>
	<defs>
		<filter id="filter0_d_1_3902" x="0.238574" y="0.630069" width="69.5973" height="69.6461" filterUnits="userSpaceOnUse" color-interpolation-filters="sRGB">
			<feFlood flood-opacity="0" result="BackgroundImageFix" />
			<feColorMatrix in="SourceAlpha" type="matrix" values="0 0 0 0 0 0 0 0 0 0 0 0 0 0 0 0 0 0 127 0" result="hardAlpha" />
			<feOffset dx="0.904494" />
			<feGaussianBlur stdDeviation="1.80899" />
			<feColorMatrix type="matrix" values="0 0 0 0 0 0 0 0 0 0 0 0 0 0 0 0 0 0 0.15 0" />
			<feBlend mode="normal" in2="BackgroundImageFix" result="effect1_dropShadow_1_3902" />
			<feBlend mode="normal" in="SourceGraphic" in2="effect1_dropShadow_1_3902" result="shape" />
		</filter>
		<filter id="filter1_i_1_3902" x="6.98935" y="6.52023" width="53.3849" height="56.0561" filterUnits="userSpaceOnUse" color-interpolation-filters="sRGB">
			<feFlood flood-opacity="0" result="BackgroundImageFix" />
			<feBlend mode="normal" in="SourceGraphic" in2="BackgroundImageFix" result="shape" />
			<feColorMatrix in="SourceAlpha" type="matrix" values="0 0 0 0 0 0 0 0 0 0 0 0 0 0 0 0 0 0 127 0" result="hardAlpha" />
			<feOffset dy="-1.80899" />
			<feGaussianBlur stdDeviation="9.49719" />
			<feComposite in2="hardAlpha" operator="arithmetic" k2="-1" k3="1" />
			<feColorMatrix type="matrix" values="0 0 0 0 0.741667 0 0 0 0 0.741667 0 0 0 0 0.741667 0 0 0 0.15 0" />
			<feBlend mode="normal" in2="shape" result="effect1_innerShadow_1_3902" />
		</filter>
		<linearGradient id="paint0_linear_1_3902" x1="58.9836" y1="53.6767" x2="20.4977" y2="15.2207" gradientUnits="userSpaceOnUse">
			<stop stop-color="#FFFB90" />
			<stop offset="0.1415" stop-color="#FBEA78" />
			<stop offset="0.2392" stop-color="#F8DC65" />
			<stop offset="0.2703" stop-color="#E6C758" />
			<stop offset="0.3368" stop-color="#C5A041" />
			<stop offset="0.3979" stop-color="#AD8330" />
			<stop offset="0.451" stop-color="#9E7226" />
			<stop offset="0.4902" stop-color="#996C22" />
			<stop offset="0.52" stop-color="#9D7126" />
			<stop offset="0.5575" stop-color="#AA8131" />
			<stop offset="0.5991" stop-color="#BE9B42" />
			<stop offset="0.6434" stop-color="#DABE5B" />
			<stop offset="0.6865" stop-color="#FBE878" />
			<stop offset="0.7724" stop-color="#FFFFAA" />
			<stop offset="0.8333" stop-color="#FBE878" />
			<stop offset="1" stop-color="#A4631B" />
		</linearGradient>
		<linearGradient id="paint1_linear_1_3902" x1="45.6624" y1="13.1586" x2="45.6623" y2="57.9786" gradientUnits="userSpaceOnUse">
			<stop stop-color="#FFFB90" />
			<stop offset="0.1415" stop-color="#FBEA78" />
			<stop offset="0.2392" stop-color="#F8DC65" />
			<stop offset="0.2703" stop-color="#E6C758" />
			<stop offset="0.3368" stop-color="#C5A041" />
			<stop offset="0.3979" stop-color="#AD8330" />
			<stop offset="0.451" stop-color="#9E7226" />
			<stop offset="0.4902" stop-color="#996C22" />
			<stop offset="0.52" stop-color="#9D7126" />
			<stop offset="0.5575" stop-color="#AA8131" />
			<stop offset="0.5991" stop-color="#BE9B42" />
			<stop offset="0.6434" stop-color="#DABE5B" />
			<stop offset="0.6865" stop-color="#FBE878" />
			<stop offset="0.7724" stop-color="#FFFFAA" />
			<stop offset="0.8333" stop-color="#FBE878" />
			<stop offset="1" stop-color="#A4631B" />
		</linearGradient>
		<linearGradient id="paint2_linear_1_3902" x1="55.7026" y1="56.8944" x2="9.89528" y2="11.1253" gradientUnits="userSpaceOnUse">
			<stop stop-color="#FFFB90" />
			<stop offset="0.1415" stop-color="#FBEA78" />
			<stop offset="0.2392" stop-color="#F8DC65" />
			<stop offset="0.2703" stop-color="#E6C758" />
			<stop offset="0.3368" stop-color="#C5A041" />
			<stop offset="0.3979" stop-color="#AD8330" />
			<stop offset="0.451" stop-color="#9E7226" />
			<stop offset="0.4902" stop-color="#996C22" />
			<stop offset="0.52" stop-color="#9D7126" />
			<stop offset="0.5575" stop-color="#AA8131" />
			<stop offset="0.5991" stop-color="#BE9B42" />
			<stop offset="0.6434" stop-color="#DABE5B" />
			<stop offset="0.6865" stop-color="#FBE878" />
			<stop offset="0.7724" stop-color="#FFFFAA" />
			<stop offset="0.8333" stop-color="#FBE878" />
			<stop offset="1" stop-color="#A4631B" />
		</linearGradient>
		<linearGradient id="paint3_linear_1_3902" x1="7.01988" y1="14.1972" x2="58.1201" y2="60.7389" gradientUnits="userSpaceOnUse">
			<stop stop-color="#CD9E25" />
			<stop offset="1" stop-color="#A58431" stop-opacity="0" />
		</linearGradient>
		<linearGradient id="paint4_linear_1_3902" x1="39.5073" y1="8.95163" x2="27.8389" y2="61.9501" gradientUnits="userSpaceOnUse">
			<stop stop-color="white" stop-opacity="0.4" />
			<stop offset="0.515625" stop-color="white" stop-opacity="0" />
		</linearGradient>
		<linearGradient id="paint5_linear_1_3902" x1="39.5073" y1="8.95163" x2="27.8389" y2="61.9501" gradientUnits="userSpaceOnUse">
			<stop stop-color="white" />
			<stop offset="0.0001" stop-color="white" stop-opacity="0" />
			<stop offset="0.520833" stop-color="white" stop-opacity="0.24" />
			<stop offset="1" stop-color="white" stop-opacity="0.29" />
		</linearGradient>
	</defs>
</svg>
