<svg width="69" height="25" viewBox="0 0 69 25" fill="none" xmlns="http://www.w3.org/2000/svg">
<mask id="path-1-outside-1_51_6540" maskUnits="userSpaceOnUse" x="-0.0778006" y="-0.872746" width="69.6362" height="26.8838" fill="black">
<rect fill="white" x="-0.0778006" y="-0.872746" width="69.6362" height="26.8838"/>
<path fill-rule="evenodd" clip-rule="evenodd" d="M43.4877 5.10507C43.6377 5.25797 43.8675 5.33503 44.1771 5.33624C44.9242 5.26928 45.5129 5.00188 45.9415 4.53391C46.3538 4.06736 46.5627 3.58578 46.5672 3.08984C46.5616 2.85055 46.4587 2.62362 46.2582 2.40905C46.0582 2.21105 45.7872 2.11184 45.4452 2.11181C44.7301 2.19339 44.1841 2.49107 43.805 3.00436C43.4263 3.53381 43.2426 4.03753 43.2539 4.5167C43.2592 4.74023 43.337 4.93642 43.4877 5.10507ZM42.5133 15.7959C42.7509 15.5685 42.9853 15.3371 43.2163 15.1017C43.1831 15.2545 43.1565 15.4027 43.1365 15.5463C43.1337 16.2059 43.2654 16.6985 43.5314 17.0243C43.7813 17.3499 44.0676 17.515 44.3916 17.5201C44.5531 17.5227 44.6998 17.485 44.8317 17.4066C44.9476 17.3117 45.0406 17.1846 45.1098 17.0247C45.6199 16.1642 46.7175 14.8389 48.4039 13.0474C50.09 11.2405 51.5871 9.82465 52.8954 8.7994C52.1741 9.67269 51.4298 10.8031 50.662 12.1902C49.8941 13.5775 49.4625 14.8011 49.3679 15.8614C49.3528 16.3918 49.4704 16.8122 49.7205 17.1215C49.9703 17.4474 50.3135 17.6133 50.7505 17.6202C51.7069 17.571 52.7751 17.0086 53.9552 15.9334C54.1786 15.7299 54.4003 15.5226 54.6204 15.3115C54.5898 16.0706 54.7589 16.6808 55.1272 17.1427C55.5392 17.6602 56.1573 17.9553 56.9804 18.028C57.9184 18.0947 58.864 17.8894 59.8166 17.4116C60.7549 16.9168 61.6214 16.2715 62.4156 15.4752C62.5266 15.5013 62.6309 15.5183 62.7275 15.5269C63.2925 15.5766 63.9345 15.4569 64.653 15.1673C65.3898 14.8635 66.2011 14.3412 67.0865 13.6013C67.1483 13.3502 67.1006 13.1295 66.9439 12.9391C66.7864 12.7488 66.6057 12.6927 66.4008 12.7708C65.8769 13.2059 65.3835 13.5234 64.9198 13.723C64.4561 13.9228 64.0366 14.0223 63.6619 14.0213C64.0873 13.4493 64.4321 12.8703 64.6963 12.2838C64.959 11.7138 65.1207 11.1661 65.1819 10.6422C65.2579 9.99153 65.1497 9.38032 64.858 8.80917C64.5493 8.23686 64.01 7.9006 63.2391 7.80023C62.9158 7.77181 62.613 7.78523 62.3292 7.84036C62.0452 7.8957 61.7901 7.98549 61.5644 8.10991L61.5397 8.10773C60.3181 8.09616 58.9386 8.80885 57.4005 10.2452C56.5001 11.0878 55.8102 11.9911 55.3308 12.9551C54.8886 13.403 54.4795 13.7934 54.1035 14.1262C53.389 14.7748 52.9181 15.1049 52.6915 15.1173C52.5294 15.1148 52.4518 15.0014 52.4581 14.7759C52.4902 14.2136 52.7804 13.3978 53.3291 12.3288C53.8612 11.2596 54.5383 10.2167 55.3604 9.20008C55.4259 9.16903 55.4679 9.12125 55.486 9.05716C55.52 8.99363 55.5383 8.9217 55.5406 8.84098C55.5509 8.48749 55.3747 8.12282 55.0135 7.7471C54.6519 7.35531 54.1482 7.1385 53.5022 7.09586C52.8351 7.19804 51.7615 7.96124 50.2804 9.3855C48.7824 10.8257 47.4217 12.2762 46.1989 13.7366C46.6802 12.7309 47.218 11.7663 47.8109 10.8426C48.4041 9.90303 48.9601 9.13189 49.4794 8.52854C49.5452 8.48138 49.5798 8.40938 49.5826 8.31295C49.5734 8.05598 49.4276 7.77972 49.1446 7.48602C48.8448 7.20789 48.5174 7.04993 48.1625 7.01193C47.5735 7.22811 46.6344 8.37158 45.3454 10.4419C44.983 11.0285 44.6643 11.5846 44.3892 12.1103C43.7432 12.8551 43.1446 13.4808 42.594 13.987C41.8584 14.6799 41.3357 15.0413 41.0264 15.0717C40.863 15.0795 40.779 14.9715 40.7737 14.7467C40.7924 14.1525 41.1298 13.2137 41.7863 11.9311C42.4262 10.6656 43.1508 9.49246 43.9588 8.41108C44.0227 8.36001 44.0539 8.28627 44.0517 8.19011C44.0305 7.98275 43.8449 7.7347 43.4951 7.44616C43.1616 7.15722 42.8146 7.00533 42.4552 6.98965C41.9043 7.19234 41.0076 8.33363 39.7657 10.4139C39.4324 10.9675 39.14 11.507 38.8884 12.0325C38.5102 12.505 38.1265 12.9541 37.7376 13.3804C37.1617 13.9774 36.6115 14.4754 36.0865 14.8738C36.2086 14.0723 36.2488 13.0349 36.2072 11.762C36.1491 10.4905 36.3722 9.27657 36.8756 8.12012C36.967 8.0321 37.0084 7.93163 37.0005 7.81911C36.9465 7.51683 36.6892 7.21471 36.2287 6.91355C35.7679 6.61219 35.3182 6.46374 34.8792 6.46741C34.7821 6.47546 34.6862 6.49958 34.5915 6.53978C34.5127 6.57871 34.4437 6.64081 34.385 6.72627C34.3261 6.81215 34.2612 6.93051 34.1908 7.08175C33.7707 7.81114 33.1989 8.6901 32.475 9.71925C31.8781 10.5647 31.3863 11.2484 31.0001 11.7705C30.9679 11.7876 30.9409 11.8104 30.919 11.8388C30.649 12.2491 30.3863 12.633 30.131 12.9907C30.0913 12.8508 30.0535 12.7084 30.0176 12.5634C30.0072 12.4189 29.9544 12.359 29.8583 12.383C29.6977 12.4124 29.5285 12.5474 29.3504 12.7883C29.157 13.0466 29.062 13.3129 29.0656 13.5873C29.0815 13.8107 29.1145 14.0354 29.1647 14.2612C29.0302 14.4256 28.8981 14.5813 28.7684 14.7286C28.0985 15.492 27.6114 15.9048 27.3079 15.9678C27.2269 15.9801 27.1663 15.9575 27.1258 15.8991C27.0709 15.8593 27.0361 15.7844 27.0211 15.6741C26.9745 15.0864 27.2066 14.1252 27.717 12.7918C28.2295 11.4739 28.8275 10.2399 29.5105 9.08837C29.5684 9.0313 29.5913 8.9552 29.5783 8.86072C29.5346 8.65868 29.3231 8.43373 28.9443 8.18647C28.5655 7.9394 28.1964 7.82766 27.8378 7.85059C27.7086 7.87048 27.5466 8.00842 27.3507 8.26368C27.1548 8.51933 26.9296 8.85957 26.6747 9.28501C26.6073 8.90944 26.4339 8.59829 26.1537 8.35198C25.8738 8.10566 25.4427 8.01968 24.8605 8.09324C22.8695 8.57794 21.2409 9.91531 19.9747 12.1053C18.7083 14.2958 18.1501 16.2479 18.3 17.962C18.3766 18.5294 18.5836 18.9641 18.9205 19.2659C19.239 19.5544 19.7138 19.6582 20.3442 19.5767C21.1455 19.4208 21.8978 18.9024 22.6013 18.0217C23.3229 17.1543 23.964 16.1787 24.5246 15.0946C24.4489 15.5085 24.3954 15.9027 24.364 16.2776C24.3324 16.6526 24.3379 16.9975 24.3807 17.3125C24.449 17.817 24.6149 18.1933 24.879 18.442C25.1428 18.6909 25.4762 18.7841 25.8791 18.7219C26.8374 18.5099 27.8482 17.7746 28.9117 16.5164C29.1656 16.216 29.4136 15.9106 29.6558 15.6002C29.8148 15.9129 30.0053 16.2277 30.2273 16.5448C30.9172 17.5541 31.9044 18.0541 33.189 18.0451L33.2618 18.039C34.3268 17.919 35.4707 17.3077 36.6938 16.2049C37.0881 15.8494 37.4771 15.4667 37.8608 15.0566C37.8005 15.3849 37.7601 15.7063 37.7398 16.0207C37.7522 16.5497 37.8845 16.961 38.1362 17.2537C38.3885 17.5629 38.743 17.7064 39.2002 17.685C40.2268 17.5727 41.3311 16.943 42.5133 15.7959ZM15.7563 5.1128C14.379 4.42124 12.5777 4.35283 10.3524 4.90858C8.01015 5.59622 6.01148 6.72399 4.35554 8.29112C2.69571 9.84309 2.00352 11.3653 2.27956 12.8567C2.48733 13.517 2.84639 13.9526 3.35635 14.1638C3.8777 14.3554 4.33479 14.3974 4.72722 14.2908C4.89997 14.2437 5.02525 14.1764 5.10303 14.0883C5.17671 13.985 5.18141 13.8755 5.11711 13.7594C4.88417 12.6228 5.36413 11.3169 6.55659 9.84237C7.74864 8.36765 9.44917 7.28832 11.6575 6.60339C12.9013 6.28167 13.8772 6.24934 14.5846 6.50682C15.2918 6.76411 15.7421 7.25871 15.9349 7.98922C16.1967 9.30171 15.8657 10.7253 14.9419 12.2601C14.0178 13.7955 12.8284 14.8024 11.3735 15.2817C11.0441 15.3714 10.7802 15.3932 10.5832 15.3469C10.905 13.8259 11.2429 12.492 11.5967 11.3455C11.9386 10.2191 12.3861 9.55546 12.939 9.3551C13.0371 9.34499 13.1037 9.31017 13.1384 9.25085C13.1616 9.21117 13.163 9.15264 13.1424 9.07464C13.0733 8.87684 12.8903 8.69324 12.5934 8.52403C12.2923 8.33947 11.9513 8.29046 11.5705 8.37742C10.237 9.19048 9.06928 11.3002 8.06718 14.7065C7.08469 18.1243 5.87214 20.2547 4.42891 21.0975C4.15782 21.1549 3.96117 21.1416 3.83816 21.0584C3.73067 20.9711 3.59663 20.9407 3.43587 20.9678C3.27862 21.0106 3.17727 21.1049 3.13183 21.2506C3.086 21.3967 3.0901 21.5707 3.14333 21.7726C3.27877 22.2857 3.63015 22.757 4.19765 23.1858C4.76495 23.6145 5.463 23.7412 6.2916 23.5658C7.33071 23.233 8.16057 22.4238 8.78015 21.1382C9.38424 19.8572 9.87638 18.4064 10.2564 16.7858C10.582 17.0641 10.9719 17.2662 11.4258 17.3928C11.8756 17.5039 12.4009 17.4859 13.0016 17.3389C14.6446 16.8082 16.0428 15.6357 17.1963 13.8216C18.345 11.9923 18.7266 10.1216 18.3399 8.2097C17.9745 6.82588 17.1134 5.7935 15.7563 5.1128ZM23.119 15.4192C22.4024 16.4863 21.8506 17.0577 21.4638 17.1335C21.2528 17.1661 21.1293 17.0478 21.0926 16.7777C21.0657 15.8424 21.5159 14.4604 22.4442 12.6313C23.3555 10.8053 24.3012 9.71935 25.2808 9.37329C25.4428 9.34828 25.608 9.40406 25.7753 9.54007C25.9261 9.6789 26.027 9.874 26.0778 10.1252L26.0857 10.1834L26.0939 10.2443C26.1004 10.2918 26.0972 10.3329 26.0857 10.3668L25.6958 11.1564C24.6965 12.9476 23.8373 14.3687 23.119 15.4192ZM31.6347 12.7405C31.304 13.2813 30.9585 13.8094 30.5982 14.3246C30.6996 14.5625 30.808 14.7906 30.9235 15.0089C31.3155 15.7198 31.7883 16.0767 32.3416 16.0794C33.0312 15.942 33.4458 15.2533 33.5858 14.0138C33.7076 12.7599 33.7753 11.4215 33.788 9.99862C33.4748 10.3963 33.1158 10.8378 32.7113 11.3235C32.3447 11.7965 31.9859 12.2688 31.6347 12.7405ZM63.0221 11.9948C62.7827 12.4922 62.4698 12.9903 62.0826 13.4902C61.6497 13.1123 61.3348 12.6392 61.1379 12.0714C60.9228 11.5183 60.8454 10.9858 60.9054 10.4727C60.9206 10.3446 60.9424 10.2251 60.972 10.1143C61.0009 10.0037 61.0377 9.90156 61.0817 9.80831C61.2812 9.64794 61.478 9.51162 61.6722 9.39916C61.866 9.28672 62.0571 9.19854 62.2459 9.134C62.7324 9.19323 63.0751 9.3528 63.2753 9.61326C63.4567 9.88851 63.5245 10.2264 63.4776 10.6267C63.4289 11.0435 63.2771 11.4995 63.0221 11.9948ZM59.6256 15.6908C59.1536 15.9401 58.714 16.0468 58.3082 16.0111C58.0158 15.9852 57.8148 15.8788 57.7056 15.6909C57.5778 15.5183 57.5348 15.2557 57.5758 14.9034C57.6627 14.297 57.9108 13.6478 58.3199 12.9564C58.7471 12.2505 59.2513 11.5835 59.8334 10.9559L59.8224 11.0518C59.7438 11.724 59.8051 12.3924 60.0069 13.0567C60.2101 13.7053 60.5394 14.2597 60.9943 14.7202C60.5523 15.1341 60.096 15.4575 59.6256 15.6908Z"/>
</mask>
<path fill-rule="evenodd" clip-rule="evenodd" d="M43.4877 5.10507C43.6377 5.25797 43.8675 5.33503 44.1771 5.33624C44.9242 5.26928 45.5129 5.00188 45.9415 4.53391C46.3538 4.06736 46.5627 3.58578 46.5672 3.08984C46.5616 2.85055 46.4587 2.62362 46.2582 2.40905C46.0582 2.21105 45.7872 2.11184 45.4452 2.11181C44.7301 2.19339 44.1841 2.49107 43.805 3.00436C43.4263 3.53381 43.2426 4.03753 43.2539 4.5167C43.2592 4.74023 43.337 4.93642 43.4877 5.10507ZM42.5133 15.7959C42.7509 15.5685 42.9853 15.3371 43.2163 15.1017C43.1831 15.2545 43.1565 15.4027 43.1365 15.5463C43.1337 16.2059 43.2654 16.6985 43.5314 17.0243C43.7813 17.3499 44.0676 17.515 44.3916 17.5201C44.5531 17.5227 44.6998 17.485 44.8317 17.4066C44.9476 17.3117 45.0406 17.1846 45.1098 17.0247C45.6199 16.1642 46.7175 14.8389 48.4039 13.0474C50.09 11.2405 51.5871 9.82465 52.8954 8.7994C52.1741 9.67269 51.4298 10.8031 50.662 12.1902C49.8941 13.5775 49.4625 14.8011 49.3679 15.8614C49.3528 16.3918 49.4704 16.8122 49.7205 17.1215C49.9703 17.4474 50.3135 17.6133 50.7505 17.6202C51.7069 17.571 52.7751 17.0086 53.9552 15.9334C54.1786 15.7299 54.4003 15.5226 54.6204 15.3115C54.5898 16.0706 54.7589 16.6808 55.1272 17.1427C55.5392 17.6602 56.1573 17.9553 56.9804 18.028C57.9184 18.0947 58.864 17.8894 59.8166 17.4116C60.7549 16.9168 61.6214 16.2715 62.4156 15.4752C62.5266 15.5013 62.6309 15.5183 62.7275 15.5269C63.2925 15.5766 63.9345 15.4569 64.653 15.1673C65.3898 14.8635 66.2011 14.3412 67.0865 13.6013C67.1483 13.3502 67.1006 13.1295 66.9439 12.9391C66.7864 12.7488 66.6057 12.6927 66.4008 12.7708C65.8769 13.2059 65.3835 13.5234 64.9198 13.723C64.4561 13.9228 64.0366 14.0223 63.6619 14.0213C64.0873 13.4493 64.4321 12.8703 64.6963 12.2838C64.959 11.7138 65.1207 11.1661 65.1819 10.6422C65.2579 9.99153 65.1497 9.38032 64.858 8.80917C64.5493 8.23686 64.01 7.9006 63.2391 7.80023C62.9158 7.77181 62.613 7.78523 62.3292 7.84036C62.0452 7.8957 61.7901 7.98549 61.5644 8.10991L61.5397 8.10773C60.3181 8.09616 58.9386 8.80885 57.4005 10.2452C56.5001 11.0878 55.8102 11.9911 55.3308 12.9551C54.8886 13.403 54.4795 13.7934 54.1035 14.1262C53.389 14.7748 52.9181 15.1049 52.6915 15.1173C52.5294 15.1148 52.4518 15.0014 52.4581 14.7759C52.4902 14.2136 52.7804 13.3978 53.3291 12.3288C53.8612 11.2596 54.5383 10.2167 55.3604 9.20008C55.4259 9.16903 55.4679 9.12125 55.486 9.05716C55.52 8.99363 55.5383 8.9217 55.5406 8.84098C55.5509 8.48749 55.3747 8.12282 55.0135 7.7471C54.6519 7.35531 54.1482 7.1385 53.5022 7.09586C52.8351 7.19804 51.7615 7.96124 50.2804 9.3855C48.7824 10.8257 47.4217 12.2762 46.1989 13.7366C46.6802 12.7309 47.218 11.7663 47.8109 10.8426C48.4041 9.90303 48.9601 9.13189 49.4794 8.52854C49.5452 8.48138 49.5798 8.40938 49.5826 8.31295C49.5734 8.05598 49.4276 7.77972 49.1446 7.48602C48.8448 7.20789 48.5174 7.04993 48.1625 7.01193C47.5735 7.22811 46.6344 8.37158 45.3454 10.4419C44.983 11.0285 44.6643 11.5846 44.3892 12.1103C43.7432 12.8551 43.1446 13.4808 42.594 13.987C41.8584 14.6799 41.3357 15.0413 41.0264 15.0717C40.863 15.0795 40.779 14.9715 40.7737 14.7467C40.7924 14.1525 41.1298 13.2137 41.7863 11.9311C42.4262 10.6656 43.1508 9.49246 43.9588 8.41108C44.0227 8.36001 44.0539 8.28627 44.0517 8.19011C44.0305 7.98275 43.8449 7.7347 43.4951 7.44616C43.1616 7.15722 42.8146 7.00533 42.4552 6.98965C41.9043 7.19234 41.0076 8.33363 39.7657 10.4139C39.4324 10.9675 39.14 11.507 38.8884 12.0325C38.5102 12.505 38.1265 12.9541 37.7376 13.3804C37.1617 13.9774 36.6115 14.4754 36.0865 14.8738C36.2086 14.0723 36.2488 13.0349 36.2072 11.762C36.1491 10.4905 36.3722 9.27657 36.8756 8.12012C36.967 8.0321 37.0084 7.93163 37.0005 7.81911C36.9465 7.51683 36.6892 7.21471 36.2287 6.91355C35.7679 6.61219 35.3182 6.46374 34.8792 6.46741C34.7821 6.47546 34.6862 6.49958 34.5915 6.53978C34.5127 6.57871 34.4437 6.64081 34.385 6.72627C34.3261 6.81215 34.2612 6.93051 34.1908 7.08175C33.7707 7.81114 33.1989 8.6901 32.475 9.71925C31.8781 10.5647 31.3863 11.2484 31.0001 11.7705C30.9679 11.7876 30.9409 11.8104 30.919 11.8388C30.649 12.2491 30.3863 12.633 30.131 12.9907C30.0913 12.8508 30.0535 12.7084 30.0176 12.5634C30.0072 12.4189 29.9544 12.359 29.8583 12.383C29.6977 12.4124 29.5285 12.5474 29.3504 12.7883C29.157 13.0466 29.062 13.3129 29.0656 13.5873C29.0815 13.8107 29.1145 14.0354 29.1647 14.2612C29.0302 14.4256 28.8981 14.5813 28.7684 14.7286C28.0985 15.492 27.6114 15.9048 27.3079 15.9678C27.2269 15.9801 27.1663 15.9575 27.1258 15.8991C27.0709 15.8593 27.0361 15.7844 27.0211 15.6741C26.9745 15.0864 27.2066 14.1252 27.717 12.7918C28.2295 11.4739 28.8275 10.2399 29.5105 9.08837C29.5684 9.0313 29.5913 8.9552 29.5783 8.86072C29.5346 8.65868 29.3231 8.43373 28.9443 8.18647C28.5655 7.9394 28.1964 7.82766 27.8378 7.85059C27.7086 7.87048 27.5466 8.00842 27.3507 8.26368C27.1548 8.51933 26.9296 8.85957 26.6747 9.28501C26.6073 8.90944 26.4339 8.59829 26.1537 8.35198C25.8738 8.10566 25.4427 8.01968 24.8605 8.09324C22.8695 8.57794 21.2409 9.91531 19.9747 12.1053C18.7083 14.2958 18.1501 16.2479 18.3 17.962C18.3766 18.5294 18.5836 18.9641 18.9205 19.2659C19.239 19.5544 19.7138 19.6582 20.3442 19.5767C21.1455 19.4208 21.8978 18.9024 22.6013 18.0217C23.3229 17.1543 23.964 16.1787 24.5246 15.0946C24.4489 15.5085 24.3954 15.9027 24.364 16.2776C24.3324 16.6526 24.3379 16.9975 24.3807 17.3125C24.449 17.817 24.6149 18.1933 24.879 18.442C25.1428 18.6909 25.4762 18.7841 25.8791 18.7219C26.8374 18.5099 27.8482 17.7746 28.9117 16.5164C29.1656 16.216 29.4136 15.9106 29.6558 15.6002C29.8148 15.9129 30.0053 16.2277 30.2273 16.5448C30.9172 17.5541 31.9044 18.0541 33.189 18.0451L33.2618 18.039C34.3268 17.919 35.4707 17.3077 36.6938 16.2049C37.0881 15.8494 37.4771 15.4667 37.8608 15.0566C37.8005 15.3849 37.7601 15.7063 37.7398 16.0207C37.7522 16.5497 37.8845 16.961 38.1362 17.2537C38.3885 17.5629 38.743 17.7064 39.2002 17.685C40.2268 17.5727 41.3311 16.943 42.5133 15.7959ZM15.7563 5.1128C14.379 4.42124 12.5777 4.35283 10.3524 4.90858C8.01015 5.59622 6.01148 6.72399 4.35554 8.29112C2.69571 9.84309 2.00352 11.3653 2.27956 12.8567C2.48733 13.517 2.84639 13.9526 3.35635 14.1638C3.8777 14.3554 4.33479 14.3974 4.72722 14.2908C4.89997 14.2437 5.02525 14.1764 5.10303 14.0883C5.17671 13.985 5.18141 13.8755 5.11711 13.7594C4.88417 12.6228 5.36413 11.3169 6.55659 9.84237C7.74864 8.36765 9.44917 7.28832 11.6575 6.60339C12.9013 6.28167 13.8772 6.24934 14.5846 6.50682C15.2918 6.76411 15.7421 7.25871 15.9349 7.98922C16.1967 9.30171 15.8657 10.7253 14.9419 12.2601C14.0178 13.7955 12.8284 14.8024 11.3735 15.2817C11.0441 15.3714 10.7802 15.3932 10.5832 15.3469C10.905 13.8259 11.2429 12.492 11.5967 11.3455C11.9386 10.2191 12.3861 9.55546 12.939 9.3551C13.0371 9.34499 13.1037 9.31017 13.1384 9.25085C13.1616 9.21117 13.163 9.15264 13.1424 9.07464C13.0733 8.87684 12.8903 8.69324 12.5934 8.52403C12.2923 8.33947 11.9513 8.29046 11.5705 8.37742C10.237 9.19048 9.06928 11.3002 8.06718 14.7065C7.08469 18.1243 5.87214 20.2547 4.42891 21.0975C4.15782 21.1549 3.96117 21.1416 3.83816 21.0584C3.73067 20.9711 3.59663 20.9407 3.43587 20.9678C3.27862 21.0106 3.17727 21.1049 3.13183 21.2506C3.086 21.3967 3.0901 21.5707 3.14333 21.7726C3.27877 22.2857 3.63015 22.757 4.19765 23.1858C4.76495 23.6145 5.463 23.7412 6.2916 23.5658C7.33071 23.233 8.16057 22.4238 8.78015 21.1382C9.38424 19.8572 9.87638 18.4064 10.2564 16.7858C10.582 17.0641 10.9719 17.2662 11.4258 17.3928C11.8756 17.5039 12.4009 17.4859 13.0016 17.3389C14.6446 16.8082 16.0428 15.6357 17.1963 13.8216C18.345 11.9923 18.7266 10.1216 18.3399 8.2097C17.9745 6.82588 17.1134 5.7935 15.7563 5.1128ZM23.119 15.4192C22.4024 16.4863 21.8506 17.0577 21.4638 17.1335C21.2528 17.1661 21.1293 17.0478 21.0926 16.7777C21.0657 15.8424 21.5159 14.4604 22.4442 12.6313C23.3555 10.8053 24.3012 9.71935 25.2808 9.37329C25.4428 9.34828 25.608 9.40406 25.7753 9.54007C25.9261 9.6789 26.027 9.874 26.0778 10.1252L26.0857 10.1834L26.0939 10.2443C26.1004 10.2918 26.0972 10.3329 26.0857 10.3668L25.6958 11.1564C24.6965 12.9476 23.8373 14.3687 23.119 15.4192ZM31.6347 12.7405C31.304 13.2813 30.9585 13.8094 30.5982 14.3246C30.6996 14.5625 30.808 14.7906 30.9235 15.0089C31.3155 15.7198 31.7883 16.0767 32.3416 16.0794C33.0312 15.942 33.4458 15.2533 33.5858 14.0138C33.7076 12.7599 33.7753 11.4215 33.788 9.99862C33.4748 10.3963 33.1158 10.8378 32.7113 11.3235C32.3447 11.7965 31.9859 12.2688 31.6347 12.7405ZM63.0221 11.9948C62.7827 12.4922 62.4698 12.9903 62.0826 13.4902C61.6497 13.1123 61.3348 12.6392 61.1379 12.0714C60.9228 11.5183 60.8454 10.9858 60.9054 10.4727C60.9206 10.3446 60.9424 10.2251 60.972 10.1143C61.0009 10.0037 61.0377 9.90156 61.0817 9.80831C61.2812 9.64794 61.478 9.51162 61.6722 9.39916C61.866 9.28672 62.0571 9.19854 62.2459 9.134C62.7324 9.19323 63.0751 9.3528 63.2753 9.61326C63.4567 9.88851 63.5245 10.2264 63.4776 10.6267C63.4289 11.0435 63.2771 11.4995 63.0221 11.9948ZM59.6256 15.6908C59.1536 15.9401 58.714 16.0468 58.3082 16.0111C58.0158 15.9852 57.8148 15.8788 57.7056 15.6909C57.5778 15.5183 57.5348 15.2557 57.5758 14.9034C57.6627 14.297 57.9108 13.6478 58.3199 12.9564C58.7471 12.2505 59.2513 11.5835 59.8334 10.9559L59.8224 11.0518C59.7438 11.724 59.8051 12.3924 60.0069 13.0567C60.2101 13.7053 60.5394 14.2597 60.9943 14.7202C60.5523 15.1341 60.096 15.4575 59.6256 15.6908Z" fill="white"/>
<path d="M44.1771 5.33624L44.1564 6.57L44.214 6.57023L44.2714 6.56508L44.1771 5.33624ZM43.4877 5.10507L42.5641 5.93394L42.583 5.95511L42.6028 5.97536L43.4877 5.10507ZM45.9415 4.53391L46.8452 5.36133L46.8528 5.353L46.8603 5.34454L45.9415 4.53391ZM46.5672 3.08984L47.7998 3.08527L47.8 3.06504L47.7995 3.04482L46.5672 3.08984ZM46.2582 2.40905L47.1636 1.56021L47.1475 1.54293L47.1307 1.52629L46.2582 2.40905ZM45.4452 2.11181L45.4612 0.878038L45.391 0.878032L45.3212 0.885997L45.4452 2.11181ZM43.805 3.00436L42.8171 2.27926L42.8114 2.28697L42.8059 2.29477L43.805 3.00436ZM43.2539 4.5167L44.4862 4.47182L44.4862 4.47167L43.2539 4.5167ZM43.2163 15.1017L44.4207 15.3488L45.3188 11.2108L42.3425 14.2428L43.2163 15.1017ZM42.5133 15.7959L41.6674 14.9094L41.6612 14.9154L42.5133 15.7959ZM43.1365 15.5463L41.9157 15.3915L41.9043 15.4739L41.9039 15.5569L43.1365 15.5463ZM43.5314 17.0243L44.5124 16.2647L44.5014 16.2503L44.4899 16.2363L43.5314 17.0243ZM44.3916 17.5201L44.427 16.2865L44.4268 16.2865L44.3916 17.5201ZM44.8317 17.4066L45.451 18.4652L45.5319 18.4172L45.6048 18.3575L44.8317 17.4066ZM45.1098 17.0247L44.0518 16.4054L44.0113 16.4737L43.9798 16.5466L45.1098 17.0247ZM48.4039 13.0474L49.2959 13.8873L49.2996 13.8833L48.4039 13.0474ZM52.8954 8.7994L53.8413 9.57823L52.1433 7.83167L52.8954 8.7994ZM50.662 12.1902L51.7384 12.7774L51.7384 12.7774L50.662 12.1902ZM49.3679 15.8614L48.1402 15.7674L48.1369 15.8046L48.1358 15.842L49.3679 15.8614ZM49.7205 17.1215L50.7021 16.3626L50.6926 16.3502L50.6827 16.338L49.7205 17.1215ZM50.7505 17.6202L50.7153 18.8538L50.7567 18.8544L50.798 18.8523L50.7505 17.6202ZM53.9552 15.9334L54.7785 16.8409L54.7786 16.8409L53.9552 15.9334ZM54.6204 15.3115L55.852 15.3454L55.9742 12.3152L53.7735 14.4259L54.6204 15.3115ZM55.1272 17.1427L56.0951 16.3663L56.0945 16.3655L55.1272 17.1427ZM56.9804 18.028L56.8564 19.257L56.8668 19.258L56.8773 19.2587L56.9804 18.028ZM59.8166 17.4116L60.3575 18.5133L60.3689 18.5075L60.3802 18.5016L59.8166 17.4116ZM62.4156 15.4752L62.7115 14.2738L62.0404 14.1164L61.5489 14.6092L62.4156 15.4752ZM62.7275 15.5269L62.6023 16.7558L62.604 16.756L62.7275 15.5269ZM64.653 15.1673L65.1007 16.311L65.11 16.3072L64.653 15.1673ZM67.0865 13.6013L67.8693 14.5442L68.1852 14.2802L68.2832 13.8815L67.0865 13.6013ZM66.9439 12.9391L67.8995 12.1475L67.8974 12.145L66.9439 12.9391ZM66.4008 12.7708L65.9748 11.6186L65.7809 11.6926L65.6209 11.8256L66.4008 12.7708ZM64.9198 13.723L64.4451 12.5906L64.4447 12.5908L64.9198 13.723ZM63.6619 14.0213L62.6765 13.2927L61.2218 15.2486L63.6427 15.255L63.6619 14.0213ZM64.6963 12.2838L63.5781 11.779L63.5737 11.7887L64.6963 12.2838ZM65.1819 10.6422L63.9576 10.5145L63.9576 10.5147L65.1819 10.6422ZM64.858 8.80917L65.957 8.23637L65.9508 8.22429L65.9444 8.21235L64.858 8.80917ZM63.2391 7.80023L63.4135 6.57673L63.3881 6.57342L63.3626 6.57118L63.2391 7.80023ZM62.3292 7.84036L62.1094 6.6293L62.1087 6.62944L62.3292 7.84036ZM61.5644 8.10991L61.4402 9.3389L61.8157 9.37213L62.1482 9.18889L61.5644 8.10991ZM61.5397 8.10773L61.6639 6.87874L61.6157 6.87448L61.5672 6.87402L61.5397 8.10773ZM57.4005 10.2452L56.5658 9.34819L56.5649 9.34906L57.4005 10.2452ZM55.3308 12.9551L56.202 13.8166L56.3434 13.6734L56.4329 13.4935L55.3308 12.9551ZM54.1035 14.1262L53.2936 13.2066L53.2877 13.2118L53.2819 13.2171L54.1035 14.1262ZM52.6915 15.1173L52.6563 16.3509L52.6996 16.3516L52.7429 16.3492L52.6915 15.1173ZM52.4581 14.7759L51.2275 14.7214L51.2265 14.7393L51.226 14.7571L52.4581 14.7759ZM53.3291 12.3288L54.424 12.8813L54.4276 12.8744L54.4311 12.8674L53.3291 12.3288ZM55.3604 9.20008L54.8445 8.08634L54.5863 8.20875L54.4063 8.4313L55.3604 9.20008ZM55.486 9.05716L54.4009 8.48593L54.3372 8.60501L54.3005 8.73469L55.486 9.05716ZM55.5406 8.84098L54.3085 8.82105L54.3085 8.82198L55.5406 8.84098ZM55.0135 7.7471L54.1032 8.59062L54.1115 8.59962L54.12 8.60845L55.0135 7.7471ZM53.5022 7.09586L53.599 5.86476L53.4646 5.85588L53.331 5.87634L53.5022 7.09586ZM50.2804 9.3855L51.1283 10.27L51.1284 10.2699L50.2804 9.3855ZM46.1989 13.7366L45.0885 13.2153L47.1394 14.5219L46.1989 13.7366ZM47.8109 10.8426L48.8455 11.5L48.8505 11.492L47.8109 10.8426ZM49.4794 8.52854L48.7707 7.52833L48.6482 7.61603L48.5499 7.73024L49.4794 8.52854ZM49.5826 8.31295L50.8147 8.33337L50.8159 8.29317L50.8145 8.25301L49.5826 8.31295ZM49.1446 7.48602L50.0371 6.6236L50.0136 6.59923L49.9888 6.57621L49.1446 7.48602ZM48.1625 7.01193L48.3092 5.78514L48.023 5.7545L47.7513 5.85423L48.1625 7.01193ZM45.3454 10.4419L44.3016 9.7992L44.2994 9.80278L45.3454 10.4419ZM44.3892 12.1103L45.3156 12.9122L45.4117 12.8014L45.4796 12.6715L44.3892 12.1103ZM42.594 13.987L41.7666 13.0832L41.7609 13.0884L41.7553 13.0937L42.594 13.987ZM41.0264 15.0717L41.0694 16.304L41.1003 16.3026L41.1312 16.2995L41.0264 15.0717ZM40.7737 14.7467L39.5417 14.7238L39.5406 14.7577L39.5414 14.7915L40.7737 14.7467ZM41.7863 11.9311L42.8818 12.4824L42.8846 12.477L41.7863 11.9311ZM43.9588 8.41108L43.1971 7.45102L43.0714 7.55148L42.9751 7.68034L43.9588 8.41108ZM44.0517 8.19011L45.284 8.14562L45.2829 8.09718L45.278 8.04902L44.0517 8.19011ZM43.4951 7.44616L42.6815 8.38343L42.6926 8.39304L42.7039 8.40237L43.4951 7.44616ZM42.4552 6.98965L42.5247 5.75705L42.2769 5.74624L42.043 5.8323L42.4552 6.98965ZM39.7657 10.4139L40.8193 11.0406L40.8216 11.0366L39.7657 10.4139ZM38.8884 12.0325L39.8464 12.7964L39.9365 12.6839L39.9987 12.554L38.8884 12.0325ZM37.7376 13.3804L38.619 14.2315L38.6311 14.2189L38.6429 14.206L37.7376 13.3804ZM36.0865 14.8738L34.868 14.7032L34.4145 17.6814L36.8232 15.8534L36.0865 14.8738ZM36.2072 11.762L37.4391 11.7057L37.4389 11.6978L37.4385 11.6898L36.2072 11.762ZM36.8756 8.12012L36.0266 7.23675L35.8464 7.41043L35.7466 7.63956L36.8756 8.12012ZM37.0005 7.81911L38.23 7.71606L38.2254 7.65114L38.214 7.58716L37.0005 7.81911ZM36.2287 6.91355L35.5451 7.94896L35.5452 7.94902L36.2287 6.91355ZM34.8792 6.46741L34.8848 5.23368L34.8389 5.23407L34.7932 5.23786L34.8792 6.46741ZM34.5915 6.53978L34.1229 5.40477L34.0896 5.41889L34.0572 5.43491L34.5915 6.53978ZM34.385 6.72627L33.3724 6.03594L33.3719 6.03667L34.385 6.72627ZM34.1908 7.08175L35.2567 7.68755L35.284 7.64029L35.307 7.59087L34.1908 7.08175ZM32.475 9.71925L33.4786 10.4227L33.48 10.4207L32.475 9.71925ZM31.0001 11.7705L31.5657 12.8594L31.8177 12.7259L31.9875 12.4963L31.0001 11.7705ZM30.919 11.8388L29.9464 11.0934L29.9179 11.1304L29.8922 11.1694L30.919 11.8388ZM30.131 12.9907L28.9448 13.3416L29.6388 15.7891L31.1307 13.6994L30.131 12.9907ZM30.0176 12.5634L28.7881 12.6672L28.7956 12.7727L28.821 12.8751L30.0176 12.5634ZM29.8583 12.383L30.0651 13.5965L30.1036 13.5894L30.1415 13.58L29.8583 12.383ZM29.3504 12.7883L30.3334 13.52L30.338 13.5138L29.3504 12.7883ZM29.0656 13.5873L27.8331 13.6194L27.8336 13.655L27.8361 13.6906L29.0656 13.5873ZM29.1647 14.2612L30.1143 15.0356L30.4986 14.566L30.3681 13.9787L29.1647 14.2612ZM28.7684 14.7286L27.8485 13.9192L27.8468 13.9212L28.7684 14.7286ZM27.3079 15.9678L27.478 17.1874L27.5106 17.1825L27.543 17.1757L27.3079 15.9678ZM27.1258 15.8991L28.1414 15.1868L28.0239 15.0175L27.8571 14.8966L27.1258 15.8991ZM27.0211 15.6741L25.7923 15.7874L25.795 15.8218L25.7997 15.8558L27.0211 15.6741ZM27.717 12.7918L26.5691 12.3572L26.5667 12.3633L27.717 12.7918ZM29.5105 9.08837L28.6516 8.21456L28.5357 8.32877L28.4527 8.46867L29.5105 9.08837ZM29.5783 8.86072L30.7995 8.67741L30.7931 8.63067L30.7832 8.5846L29.5783 8.86072ZM28.9443 8.18647L29.6269 7.15044L29.6265 7.1502L28.9443 8.18647ZM27.8378 7.85059L27.775 6.61934L27.7202 6.62284L27.6659 6.6312L27.8378 7.85059ZM27.3507 8.26368L26.3767 7.52009L26.3761 7.52086L27.3507 8.26368ZM26.6747 9.28501L25.4615 9.51845L26.0388 12.7326L27.7298 9.90932L26.6747 9.28501ZM26.1537 8.35198L25.3332 9.28318L25.3335 9.28349L26.1537 8.35198ZM24.8605 8.09324L24.7217 6.86922L24.6521 6.87801L24.5838 6.89463L24.8605 8.09324ZM19.9747 12.1053L18.9098 11.4977L18.9098 11.4977L19.9747 12.1053ZM18.3 17.962L17.0721 18.0853L17.0746 18.1141L17.0784 18.1427L18.3 17.962ZM18.9205 19.2659L19.7542 18.3464L19.7491 18.3418L18.9205 19.2659ZM20.3442 19.5767L20.4866 20.8002L20.5256 20.7952L20.5643 20.7877L20.3442 19.5767ZM22.6013 18.0217L21.6582 17.2395L21.6502 17.2491L21.6424 17.2588L22.6013 18.0217ZM24.5246 15.0946L25.737 15.3018L23.4315 14.5386L24.5246 15.0946ZM24.364 16.2776L25.5923 16.3655L25.5924 16.3649L24.364 16.2776ZM24.3807 17.3125L25.6022 17.1314L25.6021 17.131L24.3807 17.3125ZM24.879 18.442L25.7307 17.5392L25.7297 17.5382L24.879 18.442ZM25.8791 18.7219L26.0516 19.9412L26.0912 19.9351L26.1303 19.9264L25.8791 18.7219ZM28.9117 16.5164L27.975 15.7266L27.9749 15.7266L28.9117 16.5164ZM29.6558 15.6002L30.7558 15.0294L29.8842 13.3153L28.6879 14.8487L29.6558 15.6002ZM30.2273 16.5448L31.2476 15.8392L31.2397 15.8278L30.2273 16.5448ZM33.189 18.0451L33.1818 19.2788L33.2285 19.2785L33.275 19.2746L33.189 18.0451ZM33.2618 18.039L33.3479 19.2686L33.3661 19.2671L33.3842 19.265L33.2618 18.039ZM36.6938 16.2049L35.8754 15.2929L35.8753 15.293L36.6938 16.2049ZM37.8608 15.0566L39.073 15.2648L39.8274 11.1619L36.9663 14.2194L37.8608 15.0566ZM37.7398 16.0207L36.5097 15.9569L36.5062 16.0112L36.5075 16.0655L37.7398 16.0207ZM38.1362 17.2537L39.0948 16.4659L39.085 16.4539L39.0749 16.4421L38.1362 17.2537ZM39.2002 17.685L39.2419 18.9174L39.2803 18.9156L39.3185 18.9114L39.2002 17.685ZM10.3524 4.90858L10.0685 3.71173L10.0439 3.71788L10.0195 3.72504L10.3524 4.90858ZM15.7563 5.1128L15.1923 6.21703L15.1928 6.21726L15.7563 5.1128ZM4.35554 8.29112L5.19079 9.18766L5.19629 9.18245L4.35554 8.29112ZM2.27956 12.8567L1.06745 13.0965L1.08104 13.1699L1.10341 13.241L2.27956 12.8567ZM3.35635 14.1638L2.87258 15.3048L2.89533 15.3142L2.91846 15.3227L3.35635 14.1638ZM4.72722 14.2908L5.03573 15.4812L5.03675 15.481L4.72722 14.2908ZM5.10303 14.0883L6.02219 14.8985L6.06526 14.8497L6.10305 14.7967L5.10303 14.0883ZM5.11711 13.7594L3.90948 14.0222L3.94698 14.2052L4.03718 14.3681L5.11711 13.7594ZM6.55659 9.84237L7.51073 10.6111L7.51091 10.6109L6.55659 9.84237ZM11.6575 6.60339L11.3636 5.40911L11.3349 5.41653L11.3066 5.42531L11.6575 6.60339ZM14.5846 6.50682L14.1502 7.66694L14.1504 7.667L14.5846 6.50682ZM15.9349 7.98922L17.1438 7.73268L17.1364 7.69598L17.1269 7.65983L15.9349 7.98922ZM14.9419 12.2601L15.9956 12.8867L15.9956 12.8867L14.9419 12.2601ZM11.3735 15.2817L11.6826 16.472L11.7141 16.4634L11.7452 16.4532L11.3735 15.2817ZM10.5832 15.3469L9.37747 15.1062L9.12988 16.2763L10.2869 16.5482L10.5832 15.3469ZM11.5967 11.3455L12.774 11.6956L12.7757 11.6902L11.5967 11.3455ZM12.939 9.3551L12.8284 8.12784L12.6765 8.14349L12.5326 8.19565L12.939 9.3551ZM13.1384 9.25085L14.1994 9.8652L14.2004 9.86349L13.1384 9.25085ZM13.1424 9.07464L14.3345 8.74558L14.3223 8.69916L14.3065 8.65388L13.1424 9.07464ZM12.5934 8.52403L11.94 9.57849L11.9563 9.58853L11.973 9.59805L12.5934 8.52403ZM11.5705 8.37742L11.3111 7.17472L11.1131 7.21992L10.9391 7.32599L11.5705 8.37742ZM8.06718 14.7065L6.88506 14.3721L6.88292 14.3795L8.06718 14.7065ZM4.42891 21.0975L4.66914 22.3044L4.86573 22.2628L5.03981 22.1611L4.42891 21.0975ZM3.83816 21.0584L3.05408 22.0204L3.09507 22.0537L3.1388 22.0833L3.83816 21.0584ZM3.43587 20.9678L3.24698 19.7511L3.1862 19.7613L3.12667 19.7775L3.43587 20.9678ZM3.13183 21.2506L4.30743 21.6064L4.30804 21.6044L3.13183 21.2506ZM3.14333 21.7726L1.95122 22.1017L1.95132 22.1021L3.14333 21.7726ZM4.19765 23.1858L3.44691 24.1739L3.44695 24.174L4.19765 23.1858ZM6.2916 23.5658L6.53184 24.7727L6.59346 24.7596L6.65351 24.7404L6.2916 23.5658ZM8.78015 21.1382L9.88912 21.6625L9.89362 21.653L8.78015 21.1382ZM10.2564 16.7858L11.0638 15.8433L9.52356 14.5267L9.05651 16.5186L10.2564 16.7858ZM11.4258 17.3928L11.0807 18.5816L11.0983 18.5865L11.1161 18.5909L11.4258 17.3928ZM13.0016 17.3389L13.2799 18.5371L13.3236 18.5264L13.3664 18.5126L13.0016 17.3389ZM17.1963 13.8216L18.2337 14.4744L18.2375 14.4685L17.1963 13.8216ZM18.3399 8.2097L19.5482 7.95001L19.5411 7.91481L19.5319 7.88011L18.3399 8.2097ZM21.4638 17.1335L21.6367 18.3527L21.6612 18.3489L21.6855 18.3442L21.4638 17.1335ZM23.119 15.4192L22.1046 14.7314L22.0987 14.7401L23.119 15.4192ZM21.0926 16.7777L19.8605 16.8291L19.8624 16.8945L19.8712 16.9594L21.0926 16.7777ZM22.4442 12.6313L23.5418 13.1788L23.5456 13.1712L22.4442 12.6313ZM25.2808 9.37329L25.1083 8.15399L24.9936 8.17169L24.8839 8.21044L25.2808 9.37329ZM25.7753 9.54007L26.6159 8.62697L26.5886 8.60179L26.5597 8.57833L25.7753 9.54007ZM26.0778 10.1252L27.2993 9.94386L27.2939 9.90455L27.2861 9.86571L26.0778 10.1252ZM26.0857 10.1834L27.3073 10.0029L27.3072 10.0021L26.0857 10.1834ZM26.0939 10.2443L24.8723 10.4248L24.8727 10.4278L26.0939 10.2443ZM26.0857 10.3668L27.1894 10.902L27.2265 10.8268L27.2533 10.7474L26.0857 10.3668ZM25.6958 11.1564L26.7702 11.7473L26.7856 11.7198L26.7995 11.6916L25.6958 11.1564ZM30.5982 14.3246L29.5913 13.626L29.1953 14.1924L29.4635 14.8213L30.5982 14.3246ZM31.6347 12.7405L30.6498 12.0115L30.6156 12.0574L30.5857 12.1062L31.6347 12.7405ZM30.9235 15.0089L29.8323 15.5969L29.8374 15.6064L29.8425 15.6158L30.9235 15.0089ZM32.3416 16.0794L32.3198 17.3131L32.4445 17.3137L32.5672 17.2893L32.3416 16.0794ZM33.5858 14.0138L34.8106 14.1368L34.8117 14.1271L34.8127 14.1174L33.5858 14.0138ZM33.788 9.99862L35.0206 9.99377L35.0526 6.41268L32.8238 9.24253L33.788 9.99862ZM32.7113 11.3235L31.7686 10.5407L31.7545 10.5577L31.7409 10.5752L32.7113 11.3235ZM62.0826 13.4902L61.2656 14.4245L62.2461 15.2805L63.0533 14.2381L62.0826 13.4902ZM63.0221 11.9948L61.9279 11.4409L61.9202 11.4558L61.9129 11.471L63.0221 11.9948ZM61.1379 12.0714L62.3031 11.6537L62.2956 11.6322L62.2874 11.611L61.1379 12.0714ZM60.9054 10.4727L59.6814 10.3426L59.6811 10.3448L60.9054 10.4727ZM60.972 10.1143L62.1626 10.4184L62.164 10.4128L60.972 10.1143ZM61.0817 9.80831L60.3174 8.85027L60.0916 9.03174L59.9682 9.29348L61.0817 9.80831ZM61.6722 9.39916L62.2792 10.465L62.2802 10.4645L61.6722 9.39916ZM62.2459 9.134L62.4102 7.90922L62.1298 7.87509L61.861 7.96696L62.2459 9.134ZM63.2753 9.61326L64.3068 8.92463L64.2827 8.88802L64.256 8.85326L63.2753 9.61326ZM63.4776 10.6267L62.2534 10.4986L62.2534 10.499L63.4776 10.6267ZM58.3082 16.0111L58.1841 17.2401L58.1844 17.2401L58.3082 16.0111ZM59.6256 15.6908L59.0898 14.5868L59.0755 14.5938L59.0615 14.6012L59.6256 15.6908ZM57.7056 15.6909L58.7728 15.0598L58.7392 15.0022L58.6996 14.9486L57.7056 15.6909ZM57.5758 14.9034L56.3557 14.7435L56.3533 14.7598L56.3514 14.7762L57.5758 14.9034ZM58.3199 12.9564L57.2677 12.3273L57.2614 12.3379L58.3199 12.9564ZM59.8334 10.9559L61.0579 11.0819L61.4862 7.37244L58.9351 10.1227L59.8334 10.9559ZM59.8224 11.0518L61.0466 11.1795L61.0468 11.1778L59.8224 11.0518ZM60.0069 13.0567L58.8271 13.4294L58.8303 13.4396L60.0069 13.0567ZM60.9943 14.7202L61.8302 15.6162L62.7622 14.7436L61.8763 13.847L60.9943 14.7202ZM44.1978 4.10248C44.14 4.10225 44.1404 4.09468 44.1776 4.10716C44.2207 4.12162 44.2973 4.15814 44.3725 4.23478L42.6028 5.97536C43.0633 6.44459 43.6636 6.56807 44.1564 6.57L44.1978 4.10248ZM45.0379 3.7065C44.8593 3.90143 44.5831 4.06256 44.0829 4.1074L44.2714 6.56508C45.2652 6.476 46.1664 6.10232 46.8452 5.36133L45.0379 3.7065ZM45.3346 3.09442C45.3335 3.22131 45.2872 3.42406 45.0228 3.72329L46.8603 5.34454C47.4203 4.71065 47.7919 3.95025 47.7998 3.08527L45.3346 3.09442ZM45.3529 3.2579C45.3789 3.28574 45.3741 3.28828 45.3623 3.26223C45.349 3.23284 45.3362 3.18772 45.3349 3.13486L47.7995 3.04482C47.7852 2.44001 47.5184 1.93998 47.1636 1.56021L45.3529 3.2579ZM45.4292 3.34558C45.4818 3.34558 45.4893 3.35318 45.4688 3.34568C45.4586 3.34194 45.4443 3.33546 45.4281 3.32525C45.4118 3.315 45.3975 3.30336 45.3858 3.29181L47.1307 1.52629C46.6579 1.05834 46.0544 0.878093 45.4612 0.878038L45.4292 3.34558ZM44.7929 3.72946C44.9372 3.53406 45.1481 3.38565 45.5692 3.33762L45.3212 0.885997C44.312 1.00113 43.431 1.44808 42.8171 2.27926L44.7929 3.72946ZM44.4862 4.47167C44.4832 4.34234 44.5283 4.09969 44.8042 3.71395L42.8059 2.29477C42.3244 2.96793 42.0021 3.73271 42.0217 4.56173L44.4862 4.47167ZM44.4113 4.2762C44.4238 4.29015 44.4452 4.3193 44.4626 4.36302C44.48 4.40701 44.4856 4.44629 44.4862 4.47182L42.0217 4.56159C42.0339 5.081 42.2243 5.55358 42.5641 5.93394L44.4113 4.2762ZM42.3425 14.2428C42.1206 14.4689 41.8956 14.6911 41.6674 14.9095L43.3592 16.6824C43.6063 16.4459 43.8499 16.2053 44.09 15.9606L42.3425 14.2428ZM44.3573 15.7012C44.3727 15.5907 44.3936 15.4734 44.4207 15.3488L42.0119 14.8547C41.9726 15.0357 41.9404 15.2147 41.9157 15.3915L44.3573 15.7012ZM44.4899 16.2363C44.478 16.2217 44.3669 16.0607 44.3692 15.5358L41.9039 15.5569C41.9005 16.3511 42.0529 17.1753 42.5728 17.8123L44.4899 16.2363ZM44.4268 16.2865C44.4487 16.2868 44.4742 16.2901 44.5007 16.2975C44.527 16.3048 44.5468 16.3141 44.5592 16.3213C44.5828 16.3349 44.5632 16.3309 44.5124 16.2647L42.5503 17.7838C42.9585 18.3157 43.5614 18.7412 44.3563 18.7537L44.4268 16.2865ZM44.2124 16.3479C44.2477 16.3269 44.2879 16.31 44.33 16.2991C44.3716 16.2884 44.4054 16.2861 44.427 16.2865L44.3561 18.7537C44.7314 18.7597 45.1074 18.6695 45.451 18.4652L44.2124 16.3479ZM43.9798 16.5466C43.9784 16.5497 43.9826 16.5394 43.9959 16.521C44.0097 16.5021 44.0304 16.4788 44.0587 16.4557L45.6048 18.3575C45.8971 18.1182 46.103 17.8192 46.2399 17.5029L43.9798 16.5466ZM47.5119 12.2075C45.8274 13.997 44.6405 15.4122 44.0518 16.4054L46.1678 17.6441C46.5993 16.9162 47.6077 15.6807 49.2959 13.8873L47.5119 12.2075ZM52.1433 7.83167C50.7656 8.91127 49.2195 10.3775 47.5081 12.2115L49.2996 13.8833C50.9604 12.1035 52.4085 10.738 53.6475 9.76714L52.1433 7.83167ZM51.7384 12.7774C52.4824 11.4332 53.1846 10.3733 53.8413 9.57823L51.9495 8.02058C51.1636 8.9721 50.3771 10.173 49.5856 11.603L51.7384 12.7774ZM50.5957 15.9554C50.6692 15.1308 51.0175 14.0798 51.7384 12.7774L49.5856 11.6029C48.7707 13.0751 48.2558 14.4714 48.1402 15.7674L50.5957 15.9554ZM50.6827 16.338C50.6673 16.319 50.5905 16.2146 50.6001 15.8808L48.1358 15.842C48.115 16.569 48.2736 17.3054 48.7583 17.905L50.6827 16.338ZM50.7857 16.3865C50.7518 16.386 50.7314 16.3826 50.7215 16.3804C50.7121 16.3783 50.7104 16.377 50.7134 16.3784C50.7146 16.379 50.716 16.3798 50.7173 16.3806C50.7187 16.3815 50.7193 16.382 50.7191 16.3818C50.719 16.3818 50.713 16.3768 50.7021 16.3626L48.739 17.8804C49.2296 18.5205 49.9315 18.8415 50.7153 18.8538L50.7857 16.3865ZM53.1319 15.0259C52.0359 16.0245 51.2359 16.3606 50.703 16.388L50.798 18.8523C52.1778 18.7813 53.5143 17.9928 54.7785 16.8409L53.1319 15.0259ZM53.7735 14.4259C53.5611 14.6297 53.3472 14.8297 53.1318 15.026L54.7786 16.8409C55.0099 16.6301 55.2395 16.4154 55.4672 16.197L53.7735 14.4259ZM56.0945 16.3655C55.9542 16.1897 55.8299 15.8931 55.852 15.3454L53.3887 15.2776C53.3496 16.2481 53.5635 17.1719 54.16 17.9199L56.0945 16.3655ZM57.1044 16.799C56.5273 16.748 56.2519 16.5633 56.0951 16.3663L54.1594 17.9192C54.8265 18.7571 55.7873 19.1626 56.8564 19.257L57.1044 16.799ZM59.2758 16.31C58.4974 16.7004 57.7732 16.8464 57.0835 16.7974L56.8773 19.2587C58.0636 19.343 59.2305 19.0785 60.3575 18.5133L59.2758 16.31ZM61.5489 14.6092C60.8389 15.321 60.0735 15.8891 59.2531 16.3217L60.3802 18.5016C61.4363 17.9446 62.4039 17.2219 63.2823 16.3413L61.5489 14.6092ZM62.8527 14.298C62.8198 14.2951 62.7728 14.2882 62.7115 14.2738L62.1197 16.6767C62.2805 16.7144 62.442 16.7415 62.6023 16.7558L62.8527 14.298ZM64.2054 14.0237C63.6069 14.2649 63.1657 14.3256 62.851 14.2979L62.604 16.756C63.4192 16.8277 64.262 16.649 65.1007 16.311L64.2054 14.0237ZM66.3038 12.6584C65.4765 13.3496 64.7751 13.7887 64.196 14.0275L65.11 16.3072C66.0045 15.9383 66.9256 15.3327 67.8693 14.5442L66.3038 12.6584ZM65.9884 13.7308C65.9559 13.6913 65.9131 13.6202 65.8921 13.5224C65.8713 13.4263 65.882 13.3528 65.8898 13.321L68.2832 13.8815C68.4338 13.2691 68.3112 12.6478 67.8995 12.1475L65.9884 13.7308ZM66.8267 13.923C66.7107 13.9673 66.5217 13.9984 66.3117 13.9332C66.117 13.8729 66.0162 13.7644 65.9904 13.7332L67.8974 12.145C67.7141 11.9235 67.4442 11.6918 67.0686 11.5753C66.6776 11.4541 66.2958 11.4962 65.9748 11.6186L66.8267 13.923ZM65.3944 14.8554C65.999 14.5951 66.5945 14.203 67.1807 13.7161L65.6209 11.8256C65.1594 12.2089 64.7679 12.4516 64.4451 12.5906L65.3944 14.8554ZM63.6427 15.255C64.2341 15.2566 64.825 15.1008 65.3949 14.8552L64.4447 12.5908C64.0871 12.7449 63.839 12.7879 63.681 12.7875L63.6427 15.255ZM63.5737 11.7887C63.3504 12.2845 63.0536 12.7858 62.6765 13.2927L64.6472 14.7498C65.121 14.1128 65.5137 13.4562 65.8189 12.7788L63.5737 11.7887ZM63.9576 10.5147C63.9141 10.887 63.7954 11.3074 63.5781 11.779L65.8145 12.7885C66.1225 12.1201 66.3273 11.4452 66.4061 10.7698L63.9576 10.5147ZM63.7589 9.38198C63.9392 9.73496 64.0058 10.1021 63.9576 10.5145L66.4061 10.7699C66.51 9.88096 66.3602 9.02568 65.957 8.23637L63.7589 9.38198ZM63.0646 9.02373C63.5314 9.0845 63.6849 9.24525 63.7715 9.40599L65.9444 8.21235C65.4138 7.22848 64.4887 6.7167 63.4135 6.57673L63.0646 9.02373ZM62.549 9.05143C62.7065 9.02082 62.8928 9.0097 63.1156 9.02928L63.3626 6.57118C62.9387 6.53393 62.5195 6.54964 62.1094 6.6293L62.549 9.05143ZM62.1482 9.18889C62.2465 9.13471 62.3764 9.08505 62.5497 9.05129L62.1087 6.62944C61.714 6.70635 61.3337 6.83628 60.9805 7.03094L62.1482 9.18889ZM61.4155 9.33672L61.4402 9.3389L61.6886 6.88092L61.6639 6.87874L61.4155 9.33672ZM58.2352 11.1422C59.6938 9.78005 60.7712 9.33443 61.5122 9.34145L61.5672 6.87402C59.865 6.8579 58.1833 7.83765 56.5658 9.34819L58.2352 11.1422ZM56.4329 13.4935C56.8367 12.6814 57.4296 11.8961 58.2361 11.1414L56.5649 9.34906C55.5706 10.2795 54.7837 11.3008 54.2287 12.4167L56.4329 13.4935ZM54.9134 15.0457C55.3149 14.6903 55.7447 14.2798 56.202 13.8166L54.4595 12.0937C54.0324 12.5262 53.644 12.8965 53.2936 13.2066L54.9134 15.0457ZM52.7429 16.3492C53.0437 16.3328 53.2923 16.2266 53.4388 16.1546C53.6046 16.0732 53.7651 15.9716 53.9134 15.8675C54.2106 15.659 54.5511 15.3748 54.9251 15.0353L53.2819 13.2171C52.9414 13.5262 52.6892 13.7314 52.5157 13.8531C52.4286 13.9142 52.3843 13.938 52.3757 13.9422C52.3478 13.9559 52.4527 13.8956 52.6401 13.8854L52.7429 16.3492ZM51.226 14.7571C51.2197 14.9801 51.242 15.371 51.4917 15.736C51.7934 16.1772 52.2572 16.3447 52.6563 16.3509L52.7267 13.8837C52.8273 13.8853 52.974 13.9051 53.1341 13.9826C53.3008 14.0634 53.4362 14.1848 53.5317 14.3244C53.6219 14.4563 53.6594 14.5787 53.6754 14.6547C53.6913 14.7301 53.6906 14.7813 53.6903 14.7947L51.226 14.7571ZM52.2342 11.7762C51.6755 12.8648 51.2754 13.8805 51.2275 14.7214L53.6887 14.8304C53.7049 14.5467 53.8854 13.9308 54.424 12.8813L52.2342 11.7762ZM54.4063 8.4313C53.5319 9.51252 52.8036 10.632 52.2272 11.7901L54.4311 12.8674C54.9189 11.8873 55.5446 10.9208 56.3146 9.96887L54.4063 8.4313ZM54.3005 8.73469C54.3395 8.5972 54.4111 8.45693 54.5199 8.33307C54.6268 8.21135 54.7448 8.13361 54.8445 8.08634L55.8764 10.3138C56.2371 10.1428 56.5459 9.82322 56.6716 9.37964L54.3005 8.73469ZM54.3085 8.82198C54.311 8.73169 54.334 8.6111 54.4009 8.48593L56.5712 9.62839C56.706 9.37616 56.7657 9.1117 56.7728 8.85997L54.3085 8.82198ZM54.12 8.60845C54.2364 8.7295 54.2862 8.81139 54.3049 8.85017C54.3209 8.88331 54.3071 8.86925 54.3085 8.82105L56.7727 8.86091C56.7963 8.04755 56.3845 7.38244 55.9071 6.88574L54.12 8.60845ZM53.4053 8.32695C53.8087 8.35358 53.995 8.47337 54.1032 8.59062L55.9239 6.90358C55.3088 6.23726 54.4877 5.92341 53.599 5.86476L53.4053 8.32695ZM51.1284 10.2699C51.846 9.5798 52.4349 9.07944 52.9015 8.74778C53.134 8.58258 53.3198 8.47096 53.4625 8.40003C53.6105 8.32646 53.6756 8.31502 53.6733 8.31537L53.331 5.87634C52.6981 5.97331 52.0645 6.33481 51.4915 6.74202C50.8843 7.17357 50.1958 7.76694 49.4324 8.50111L51.1284 10.2699ZM47.1394 14.5219C48.3307 13.0992 49.66 11.6817 51.1283 10.27L49.4325 8.50101C47.9048 9.9698 46.5128 11.4532 45.2584 12.9513L47.1394 14.5219ZM46.7763 10.1852C46.1552 11.153 45.5921 12.163 45.0885 13.2153L47.3093 14.2579C47.7684 13.2987 48.2809 12.3796 48.8454 11.5L46.7763 10.1852ZM48.5499 7.73024C47.9781 8.3947 47.3856 9.22011 46.7713 10.1931L48.8505 11.492C49.4225 10.586 49.9422 9.86907 50.4089 9.32684L48.5499 7.73024ZM48.3505 8.29254C48.3531 8.2036 48.3721 8.06852 48.4444 7.91759C48.5199 7.75982 48.6344 7.62593 48.7707 7.52833L50.1881 9.52875C50.6358 9.20814 50.803 8.73342 50.8147 8.33337L48.3505 8.29254ZM48.2521 8.34844C48.2935 8.3914 48.3229 8.42656 48.3432 8.45355C48.3636 8.48061 48.3728 8.49676 48.3754 8.50172C48.3806 8.51153 48.3541 8.46525 48.3508 8.3729L50.8145 8.25301C50.7897 7.56107 50.4122 7.01287 50.0371 6.6236L48.2521 8.34844ZM48.0158 8.23872C48.0714 8.24468 48.1625 8.26792 48.3004 8.39583L49.9888 6.57621C49.5271 6.14786 48.9633 5.85518 48.3092 5.78514L48.0158 8.23872ZM46.3892 11.0847C47.0207 10.0703 47.5448 9.31882 47.9646 8.80774C48.1744 8.55222 48.3416 8.37732 48.4674 8.26537C48.6052 8.14275 48.6373 8.14627 48.5737 8.16964L47.7513 5.85423C47.3931 5.98568 47.087 6.2132 46.8428 6.43048C46.5866 6.65842 46.328 6.93932 46.0683 7.25549C45.549 7.88778 44.9591 8.74318 44.3016 9.7992L46.3892 11.0847ZM45.4796 12.6715C45.7388 12.1762 46.0423 11.6462 46.3915 11.0811L44.2994 9.80278C43.9237 10.4108 43.5897 10.9931 43.2988 11.549L45.4796 12.6715ZM43.4213 14.8908C44.0158 14.3444 44.6477 13.6823 45.3156 12.9122L43.4629 11.3083C42.8388 12.0279 42.2735 12.6173 41.7666 13.0832L43.4213 14.8908ZM41.1312 16.2995C41.6206 16.2514 42.052 15.9906 42.3423 15.7898C42.6763 15.5587 43.0423 15.248 43.4326 14.8803L41.7553 13.0937C41.4101 13.4189 41.147 13.6353 40.9584 13.7658C40.8648 13.8305 40.8086 13.8607 40.7854 13.8717C40.755 13.886 40.8078 13.855 40.9217 13.8438L41.1312 16.2995ZM39.5414 14.7915C39.5467 15.0146 39.5894 15.4084 39.8644 15.762C40.1965 16.189 40.6749 16.3229 41.0694 16.304L40.9835 13.8393C41.0819 13.8346 41.2291 13.8445 41.394 13.9114C41.5664 13.9813 41.7113 14.0946 41.8172 14.2308C41.9172 14.3594 41.9625 14.482 41.9832 14.5589C42.0036 14.6351 42.0057 14.6877 42.006 14.7018L39.5414 14.7915ZM40.6907 11.3798C40.0368 12.6574 39.5701 13.8215 39.5417 14.7238L42.0058 14.7696C42.0148 14.4835 42.2228 13.7699 42.8818 12.4824L40.6907 11.3798ZM42.9751 7.68034C42.1217 8.82253 41.3592 10.0579 40.6879 11.3853L42.8846 12.477C43.4933 11.2733 44.18 10.1624 44.9425 9.14181L42.9751 7.68034ZM42.8194 8.23459C42.8173 8.14262 42.83 8.00546 42.8951 7.85086C42.9628 7.68994 43.0696 7.55294 43.1971 7.45102L44.7206 9.37113C45.1451 9.03173 45.2935 8.55374 45.284 8.14562L42.8194 8.23459ZM42.7039 8.40237C42.7669 8.45432 42.8143 8.49773 42.8489 8.53244C42.884 8.56758 42.9011 8.58894 42.9066 8.59624C42.9125 8.6042 42.8994 8.5885 42.8817 8.54934C42.8636 8.50962 42.8361 8.43524 42.8254 8.33119L45.278 8.04902C45.2364 7.64186 45.0509 7.32039 44.8867 7.10091C44.7162 6.87306 44.5045 6.66999 44.2863 6.48995L42.7039 8.40237ZM42.3857 8.22225C42.412 8.2234 42.5067 8.23198 42.6815 8.38343L44.3087 6.50889C43.8165 6.08246 43.2172 5.78727 42.5247 5.75705L42.3857 8.22225ZM40.8216 11.0366C41.4307 10.0164 41.9341 9.26264 42.3348 8.75249C42.5354 8.49719 42.693 8.32505 42.8092 8.21716C42.9399 8.09579 42.9558 8.11444 42.8673 8.147L42.043 5.8323C41.6791 5.9662 41.3763 6.20352 41.1452 6.41816C40.8995 6.64627 40.6521 6.92747 40.4043 7.24287C39.9085 7.87409 39.3425 8.73105 38.7097 9.79111L40.8216 11.0366ZM39.9987 12.554C40.2314 12.0681 40.5044 11.5636 40.8193 11.0406L38.712 9.78718C38.3604 10.3713 38.0486 10.946 37.7781 11.511L39.9987 12.554ZM38.6429 14.206C39.0507 13.759 39.452 13.2892 39.8464 12.7964L37.9303 11.2686C37.5684 11.7208 37.2023 12.1493 36.8323 12.5548L38.6429 14.206ZM36.8232 15.8534C37.411 15.4072 38.0094 14.8633 38.619 14.2315L36.8561 12.5294C36.3139 13.0914 35.8119 13.5435 35.3498 13.8941L36.8232 15.8534ZM34.9752 11.8183C35.0156 13.0532 34.9741 14.0068 34.868 14.7032L37.305 15.0443C37.4431 14.1378 37.4821 13.0167 37.4391 11.7057L34.9752 11.8183ZM35.7466 7.63956C35.1662 8.97283 34.9092 10.3761 34.9758 11.8342L37.4385 11.6898C37.389 10.605 37.5782 9.58032 38.0047 8.60068L35.7466 7.63956ZM35.7709 7.92215C35.7619 7.7959 35.7809 7.65556 35.8375 7.51893C35.8925 7.38597 35.9678 7.29334 36.0266 7.23675L37.7247 9.00349C38.0495 8.69041 38.2671 8.23956 38.23 7.71606L35.7709 7.92215ZM35.5452 7.94902C35.7131 8.05879 35.7937 8.137 35.8249 8.17353C35.8543 8.20808 35.8076 8.16734 35.7869 8.05106L38.214 7.58716C38.0687 6.77241 37.4472 6.22796 36.9121 5.87808L35.5452 7.94902ZM34.8736 7.70114C35.0157 7.69995 35.2334 7.74511 35.5451 7.94896L36.9122 5.87814C36.3024 5.47927 35.6206 5.22754 34.8848 5.23368L34.8736 7.70114ZM35.0601 7.67478C35.0395 7.68352 35.0065 7.69354 34.9652 7.69696L34.7932 5.23786C34.5576 5.25738 34.333 5.31564 34.1229 5.40477L35.0601 7.67478ZM35.3977 7.41661C35.3555 7.47792 35.2692 7.57374 35.1258 7.64464L34.0572 5.43491C33.7562 5.58368 33.532 5.80371 33.3724 6.03594L35.3977 7.41661ZM35.307 7.59087C35.3331 7.53468 35.3548 7.49204 35.3718 7.46099C35.3892 7.42913 35.3982 7.41581 35.3982 7.41588L33.3719 6.03667C33.2582 6.20227 33.16 6.38931 33.0747 6.57263L35.307 7.59087ZM33.48 10.4207C34.216 9.37419 34.811 8.4615 35.2567 7.68755L33.1249 6.47595C32.7305 7.16078 32.1817 8.00601 31.4701 9.01777L33.48 10.4207ZM31.9875 12.4963C32.3812 11.9639 32.8788 11.272 33.4786 10.4227L31.4715 9.01583C30.8773 9.85736 30.3913 10.5329 30.0127 11.0448L31.9875 12.4963ZM31.8916 12.5842C31.8027 12.6995 31.6903 12.7933 31.5657 12.8594L30.4345 10.6817C30.2455 10.7818 30.0791 10.9212 29.9464 11.0934L31.8916 12.5842ZM31.1307 13.6994C31.3963 13.3274 31.668 12.9302 31.9457 12.5082L29.8922 11.1694C29.63 11.5679 29.3763 11.9386 29.1312 12.2819L31.1307 13.6994ZM28.821 12.8751C28.8601 13.0329 28.9014 13.1884 28.9448 13.3416L31.3171 12.6398C31.2813 12.5133 31.2469 12.3839 31.2141 12.2517L28.821 12.8751ZM30.1415 13.58C30.0257 13.6088 29.839 13.6336 29.6181 13.5802C29.3825 13.5232 29.1845 13.3953 29.0417 13.2336C28.7988 12.9583 28.7886 12.6742 28.7881 12.6672L31.2471 12.4595C31.2362 12.3081 31.1944 11.9218 30.8984 11.5865C30.4981 11.1329 29.9479 11.0931 29.5751 11.1859L30.1415 13.58ZM30.338 13.5138C30.3849 13.4504 30.3982 13.4461 30.3717 13.4672C30.3448 13.4887 30.2414 13.5642 30.0651 13.5965L29.6515 11.1694C29.0061 11.2877 28.5896 11.7561 28.3628 12.0628L30.338 13.5138ZM30.2982 13.5552C30.2982 13.5609 30.2978 13.5673 30.2967 13.5735C30.2957 13.5797 30.2945 13.5831 30.2945 13.5831C30.2945 13.5829 30.2964 13.5778 30.302 13.5675C30.3077 13.5571 30.3175 13.5412 30.3334 13.52L28.3674 12.0566C28.038 12.4966 27.8253 13.0259 27.8331 13.6194L30.2982 13.5552ZM30.3681 13.9787C30.3306 13.8098 30.3066 13.645 30.2952 13.4839L27.8361 13.6906C27.8564 13.9764 27.8985 14.2609 27.9613 14.5437L30.3681 13.9787ZM29.6883 15.5379C29.8289 15.3783 29.9709 15.2108 30.1143 15.0356L28.2151 13.4868C28.0895 13.6403 27.9674 13.7844 27.8485 13.9192L29.6883 15.5379ZM27.543 17.1757C28.0206 17.0767 28.4221 16.7756 28.6906 16.5478C29.0001 16.2853 29.335 15.9405 29.69 15.5359L27.8468 13.9212C27.5319 14.28 27.2884 14.5234 27.1109 14.6739C27.0228 14.7486 26.9684 14.7856 26.9447 14.7998C26.914 14.8183 26.9619 14.7828 27.0729 14.7598L27.543 17.1757ZM26.1103 16.6114C26.2568 16.8227 26.4724 17.0093 26.7554 17.1157C27.027 17.2178 27.2834 17.2171 27.478 17.1874L27.1379 14.7481C27.2514 14.7308 27.437 14.725 27.648 14.8043C27.8703 14.8878 28.0354 15.0339 28.1414 15.1868L26.1103 16.6114ZM25.7997 15.8558C25.8322 16.0955 25.9429 16.5743 26.3945 16.9016L27.8571 14.8966C28.0292 15.0213 28.1261 15.1709 28.177 15.2803C28.2255 15.3844 28.2388 15.4648 28.2425 15.4924L25.7997 15.8558ZM26.5667 12.3633C26.0584 13.6914 25.7213 14.8914 25.7923 15.7874L28.2499 15.5608C28.2277 15.2813 28.3548 14.5591 28.8674 13.2202L26.5667 12.3633ZM28.4527 8.46867C27.7328 9.68236 27.1051 10.9787 26.5691 12.3572L28.865 13.2264C29.3539 11.9692 29.9222 10.7974 30.5683 9.70807L28.4527 8.46867ZM28.3571 9.04404C28.3444 8.95153 28.3417 8.81195 28.3904 8.64916C28.441 8.47968 28.534 8.3304 28.6516 8.21456L30.3694 9.96219C30.7594 9.57798 30.8553 9.08346 30.7995 8.67741L28.3571 9.04404ZM28.2617 9.2225C28.3299 9.26703 28.3817 9.30481 28.4199 9.33539C28.4586 9.36635 28.478 9.38562 28.4843 9.39225C28.4911 9.3995 28.4762 9.38532 28.4541 9.34834C28.4318 9.31088 28.3958 9.2397 28.3735 9.13685L30.7832 8.5846C30.6967 8.18536 30.4764 7.88741 30.2896 7.68885C30.0955 7.48236 29.8632 7.30469 29.6269 7.15044L28.2617 9.2225ZM27.9007 9.08185C27.933 9.07977 28.0449 9.0811 28.262 9.22273L29.6265 7.1502C29.0861 6.7977 28.4597 6.57554 27.775 6.61934L27.9007 9.08185ZM28.3246 9.00726C28.3933 8.91786 28.4216 8.89524 28.4094 8.90555C28.4014 8.91231 28.3683 8.93975 28.3102 8.97117C28.2525 9.00242 28.1502 9.04837 28.0098 9.06998L27.6659 6.6312C27.2725 6.69173 26.9871 6.89805 26.8291 7.03219C26.6547 7.18026 26.504 7.35423 26.3767 7.52009L28.3246 9.00726ZM27.7298 9.90932C27.9715 9.50572 28.1694 9.20985 28.3252 9.00649L26.3761 7.52086C26.1402 7.82881 25.8876 8.21342 25.6197 8.6607L27.7298 9.90932ZM25.3335 9.28349C25.4029 9.34445 25.4416 9.40761 25.4615 9.51845L27.888 9.05157C27.773 8.41128 27.4649 7.85212 26.9739 7.42047L25.3335 9.28349ZM24.9994 9.31727C25.1995 9.29198 25.3133 9.3025 25.3641 9.31265C25.407 9.32123 25.3793 9.32376 25.3332 9.28318L26.9742 7.42077C26.3152 6.84089 25.4577 6.77621 24.7217 6.86922L24.9994 9.31727ZM21.0396 12.7129C22.1768 10.7461 23.5517 9.67785 25.1372 9.29186L24.5838 6.89463C22.1873 7.47804 20.305 9.08455 18.9098 11.4977L21.0396 12.7129ZM19.528 17.8387C19.4083 16.4707 19.8451 14.779 21.0396 12.7129L18.9098 11.4977C17.5715 13.8125 16.8918 16.0251 17.0721 18.0853L19.528 17.8387ZM19.7491 18.3418C19.6781 18.2782 19.5697 18.1374 19.5216 17.7814L17.0784 18.1427C17.1836 18.9213 17.4892 19.65 18.092 20.1899L19.7491 18.3418ZM20.2018 18.3531C19.9868 18.3809 19.8581 18.3687 19.7929 18.3545C19.7364 18.3421 19.7374 18.3312 19.7542 18.3464L18.0869 20.1854C18.7733 20.8072 19.6699 20.9058 20.4866 20.8002L20.2018 18.3531ZM21.6424 17.2588C21.055 17.9943 20.5414 18.2845 20.1241 18.3657L20.5643 20.7877C21.7496 20.5571 22.7407 19.8105 23.5602 18.7845L21.6424 17.2588ZM23.4315 14.5386C22.9091 15.5487 22.3172 16.4473 21.6582 17.2395L23.5445 18.8039C24.3285 17.8612 25.0188 16.8087 25.6178 15.6506L23.4315 14.5386ZM25.5924 16.3649C25.62 16.0344 25.6677 15.6803 25.737 15.3018L23.3123 14.8874C23.23 15.3367 23.1708 15.7711 23.1357 16.1902L25.5924 16.3649ZM25.6021 17.131C25.5735 16.9197 25.5669 16.6665 25.5923 16.3655L23.1358 16.1897C23.0979 16.6387 23.1024 17.0753 23.1592 17.4939L25.6021 17.131ZM25.7297 17.5382C25.7289 17.5375 25.7246 17.5334 25.7174 17.5229C25.7099 17.5121 25.6985 17.4931 25.6851 17.4628C25.6576 17.4004 25.6244 17.2954 25.6022 17.1314L23.1591 17.4935C23.2502 18.1667 23.4945 18.8432 24.0284 19.3458L25.7297 17.5382ZM25.7066 17.5026C25.6773 17.5071 25.6616 17.5069 25.6576 17.5067C25.654 17.5066 25.6601 17.5065 25.6728 17.5101C25.6858 17.5137 25.6998 17.5195 25.7125 17.5268C25.7251 17.5339 25.731 17.5395 25.7307 17.5392L24.0273 19.3448C24.5983 19.8837 25.3246 20.0534 26.0516 19.9412L25.7066 17.5026ZM27.9749 15.7266C26.9801 16.9037 26.1919 17.3926 25.6279 17.5173L26.1303 19.9264C27.483 19.6272 28.7164 18.6456 29.8485 17.3061L27.9749 15.7266ZM28.6879 14.8487C28.4559 15.1462 28.2182 15.4388 27.975 15.7266L29.8484 17.3062C30.1129 16.9933 30.3713 16.6751 30.6236 16.3517L28.6879 14.8487ZM31.2397 15.8278C31.0469 15.5526 30.8865 15.2864 30.7558 15.0294L28.5557 16.171C28.743 16.5393 28.9637 16.9028 29.215 17.2617L31.2397 15.8278ZM33.1962 16.8113C32.2959 16.8177 31.6974 16.4975 31.2475 15.8392L29.2071 17.2503C30.1369 18.6107 31.5129 19.2905 33.1818 19.2788L33.1962 16.8113ZM33.1758 16.8095L33.103 16.8155L33.275 19.2746L33.3479 19.2686L33.1758 16.8095ZM35.8753 15.293C34.7501 16.3076 33.8421 16.7338 33.1395 16.813L33.3842 19.265C34.8114 19.1041 36.1914 18.3078 37.5123 17.1168L35.8753 15.293ZM36.9663 14.2194C36.6055 14.6049 36.2418 14.9626 35.8754 15.2929L37.5122 17.1169C37.9344 16.7362 38.3487 16.3284 38.7554 15.8938L36.9663 14.2194ZM38.9699 16.0846C38.9869 15.8212 39.0209 15.548 39.073 15.2648L36.6486 14.8484C36.58 15.2217 36.5334 15.5914 36.5097 15.9569L38.9699 16.0846ZM39.0749 16.4421C39.063 16.4282 38.9802 16.3235 38.9721 15.976L36.5075 16.0655C36.5241 16.7758 36.706 17.4938 37.1975 18.0654L39.0749 16.4421ZM39.1585 16.4526C39.0735 16.4565 39.052 16.443 39.0665 16.4489C39.073 16.4515 39.0815 16.456 39.0894 16.4619C39.0971 16.4677 39.0986 16.4705 39.0948 16.4659L37.1775 18.0416C37.7098 18.6938 38.4604 18.954 39.2419 18.9174L39.1585 16.4526ZM41.6612 14.9154C40.5694 15.9749 39.7128 16.3895 39.0819 16.4585L39.3185 18.9114C40.7407 18.7559 42.0929 17.9111 43.3654 16.6764L41.6612 14.9154ZM10.6362 6.10543C12.7078 5.58808 14.1759 5.70667 15.1923 6.21703L16.3203 4.00857C14.5821 3.13581 12.4476 3.11758 10.0685 3.71173L10.6362 6.10543ZM5.19629 9.18245C6.69774 7.76153 8.51845 6.72826 10.6852 6.09213L10.0195 3.72504C7.50185 4.46418 5.32522 5.68646 3.51479 7.3998L5.19629 9.18245ZM3.49168 12.6168C3.32567 11.7199 3.67988 10.6003 5.19077 9.18764L3.52031 7.39461C1.71153 9.08583 0.681377 11.0106 1.06745 13.0965L3.49168 12.6168ZM3.84012 13.0229C3.74236 12.9824 3.58496 12.8831 3.45571 12.4723L1.10341 13.241C1.3897 14.1509 1.95042 14.9228 2.87258 15.3048L3.84012 13.0229ZM4.41871 13.1004C4.34987 13.1191 4.16347 13.1407 3.79424 13.005L2.91846 15.3227C3.59193 15.5702 4.3197 15.6757 5.03573 15.4812L4.41871 13.1004ZM4.18388 13.2782C4.26189 13.1898 4.337 13.142 4.37768 13.1201C4.41739 13.0987 4.4356 13.0958 4.41769 13.1007L5.03675 15.481C5.32707 15.4018 5.71675 15.2445 6.02219 14.8985L4.18388 13.2782ZM4.03718 14.3681C3.98425 14.2725 3.92107 14.1074 3.93031 13.8917C3.93976 13.6709 4.02097 13.4949 4.10302 13.3799L6.10305 14.7967C6.25878 14.5784 6.37918 14.296 6.39332 13.9656C6.40725 13.6404 6.31426 13.3624 6.19703 13.1507L4.03718 14.3681ZM5.60245 9.07362C4.31939 10.6602 3.56627 12.3475 3.90948 14.0222L6.32474 13.4966C6.20208 12.8981 6.40887 11.9736 7.51073 10.6111L5.60245 9.07362ZM11.3066 5.42531C8.91509 6.16703 6.98271 7.36606 5.60227 9.07384L7.51091 10.6109C8.51457 9.36924 9.98324 8.4096 12.0085 7.78148L11.3066 5.42531ZM15.019 5.3467C13.967 4.96377 12.6986 5.06378 11.3636 5.40911L11.9515 7.79768C13.104 7.49956 13.7875 7.5349 14.1502 7.66694L15.019 5.3467ZM17.1269 7.65983C16.8328 6.54548 16.1011 5.74038 15.0188 5.34664L14.1504 7.667C14.4825 7.78784 14.6513 7.97193 14.7428 8.31862L17.1269 7.65983ZM15.9956 12.8867C17.0259 11.175 17.4834 9.43506 17.1438 7.73268L14.726 8.24577C14.91 9.16836 14.7056 10.2755 13.8883 11.6334L15.9956 12.8867ZM11.7452 16.4532C13.5313 15.8648 14.9438 14.6342 15.9956 12.8867L13.8883 11.6334C13.0917 12.9568 12.1255 13.7401 11.0018 14.1103L11.7452 16.4532ZM10.2869 16.5482C10.775 16.6629 11.2732 16.5834 11.6826 16.472L11.0643 14.0915C10.9531 14.1217 10.8815 14.1325 10.8431 14.1357C10.803 14.139 10.822 14.1321 10.8796 14.1456L10.2869 16.5482ZM10.4193 10.9953C10.0518 12.1867 9.70495 13.5585 9.37747 15.1062L11.789 15.5876C12.1051 14.0934 12.4341 12.7974 12.774 11.6956L10.4193 10.9953ZM12.5326 8.19565C11.9314 8.41351 11.4897 8.84749 11.1698 9.32187C10.8516 9.79379 10.6094 10.3692 10.4176 11.0007L12.7757 11.6902C12.9259 11.1954 13.0784 10.8758 13.2076 10.6842C13.3351 10.4951 13.3936 10.4971 13.3453 10.5146L12.5326 8.19565ZM12.0775 8.63651C12.3232 8.2175 12.716 8.13941 12.8284 8.12784L13.0495 10.5824C13.3582 10.5506 13.8841 10.4028 14.1994 9.8652L12.0775 8.63651ZM11.9503 9.40369C11.9415 9.37053 11.9218 9.28541 11.9245 9.16525C11.9273 9.0418 11.9551 8.84598 12.0765 8.63822L14.2004 9.86349C14.48 9.38501 14.3794 8.9159 14.3345 8.74558L11.9503 9.40369ZM11.973 9.59805C12.0123 9.62045 12.0394 9.63853 12.0567 9.65125C12.0741 9.66405 12.0788 9.66935 12.0752 9.66569C12.0685 9.65901 12.0165 9.60454 11.9783 9.49539L14.3065 8.65388C14.0957 8.05095 13.6147 7.67852 13.2138 7.45001L11.973 9.59805ZM11.8299 9.58012C11.8912 9.5661 11.9184 9.56978 11.9216 9.57025C11.9241 9.5706 11.9251 9.57093 11.926 9.57128C11.9271 9.57165 11.9316 9.57334 11.94 9.57849L13.2469 7.46957C12.6467 7.10175 11.9727 7.02365 11.3111 7.17472L11.8299 9.58012ZM9.24926 15.0409C9.73546 13.3883 10.2471 12.1033 10.771 11.1567C11.3018 10.1976 11.7958 9.67638 12.2018 9.42885L10.9391 7.32599C10.0116 7.89151 9.25501 8.83167 8.61813 9.98229C7.9743 11.1455 7.401 12.6184 6.88509 14.3721L9.24926 15.0409ZM5.03981 22.1611C6.02094 21.5881 6.82192 20.6413 7.48989 19.4679C8.16204 18.2872 8.74398 16.7987 9.25143 15.0335L6.88292 14.3795C6.40788 16.032 5.8923 17.3177 5.35175 18.2673C4.80702 19.2242 4.28011 19.764 3.81801 20.0338L5.03981 22.1611ZM3.1388 22.0833C3.69148 22.4573 4.32088 22.3781 4.66914 22.3044L4.18868 19.8905C4.12386 19.9043 4.12614 19.8963 4.17538 19.8996C4.22609 19.903 4.37253 19.9219 4.53752 20.0335L3.1388 22.0833ZM3.62476 22.1844C3.57487 22.1928 3.48481 22.1996 3.37129 22.174C3.2531 22.1473 3.14349 22.093 3.05408 22.0204L4.62225 20.0964C4.19805 19.7519 3.69271 19.6762 3.24698 19.7511L3.62476 22.1844ZM4.30804 21.6044C4.27287 21.7172 4.20059 21.8523 4.07488 21.9692C3.95216 22.0834 3.82642 22.1359 3.74508 22.158L3.12667 19.7775C2.59132 19.9233 2.13849 20.3106 1.95563 20.8967L4.30804 21.6044ZM4.33544 21.4435C4.31951 21.3831 4.35357 21.4593 4.30743 21.6064L1.95624 20.8948C1.81843 21.334 1.86069 21.7584 1.95122 22.1017L4.33544 21.4435ZM4.9484 22.1977C4.52351 21.8766 4.38077 21.6152 4.33534 21.4431L1.95132 22.1021C2.17677 22.9562 2.7368 23.6373 3.44691 24.1739L4.9484 22.1977ZM6.05136 22.3589C5.50189 22.4752 5.18264 22.3747 4.94836 22.1976L3.44695 24.174C4.34726 24.8542 5.42412 25.0073 6.53184 24.7727L6.05136 22.3589ZM7.67121 20.6138C7.15315 21.6888 6.54993 22.1925 5.9297 22.3911L6.65351 24.7404C8.1115 24.2734 9.16799 23.1588 9.88908 21.6625L7.67121 20.6138ZM9.05651 16.5186C8.69311 18.0685 8.22745 19.4342 7.66667 20.6233L9.89362 21.653C10.541 20.2802 11.0596 18.7443 11.4562 17.053L9.05651 16.5186ZM11.7709 16.204C11.4699 16.12 11.242 15.9956 11.0638 15.8433L9.44891 17.7283C9.92189 18.1326 10.474 18.4123 11.0807 18.5816L11.7709 16.204ZM12.7233 16.1406C12.2557 16.2551 11.9404 16.2453 11.7355 16.1947L11.1161 18.5909C11.8108 18.7624 12.5462 18.7167 13.2799 18.5371L12.7233 16.1406ZM16.1588 13.1688C15.1231 14.7978 13.94 15.7443 12.6368 16.1652L13.3664 18.5126C15.3492 17.8722 16.9626 16.4737 18.2337 14.4744L16.1588 13.1688ZM17.1317 8.46939C17.4489 10.0383 17.1521 11.587 16.1551 13.1747L18.2375 14.4685C19.5379 12.3977 20.0042 10.205 19.5482 7.95001L17.1317 8.46939ZM15.1928 6.21726C16.2611 6.75312 16.8777 7.51602 17.1479 8.53929L19.5319 7.88011C19.0713 6.13573 17.9657 4.83389 16.3198 4.00834L15.1928 6.21726ZM21.6855 18.3442C22.2791 18.2279 22.7434 17.8158 23.0487 17.4996C23.3975 17.1383 23.7616 16.6607 24.1393 16.0984L22.0987 14.7401C21.7598 15.2449 21.4897 15.5865 21.2867 15.7966C21.1861 15.9009 21.1222 15.9515 21.0945 15.9706C21.0611 15.9936 21.1141 15.9479 21.242 15.9228L21.6855 18.3442ZM19.8712 16.9594C19.9064 17.2185 20.0083 17.6338 20.3544 17.9655C20.7543 18.3488 21.2532 18.412 21.6367 18.3527L21.2909 15.9142C21.4634 15.8876 21.795 15.908 22.0713 16.1727C22.1859 16.2826 22.2464 16.3952 22.2766 16.4685C22.3061 16.5399 22.313 16.5884 22.314 16.596L19.8712 16.9594ZM21.3468 12.0838C20.4106 13.9283 19.8238 15.556 19.8605 16.8291L22.3247 16.7263C22.3075 16.1288 22.6212 14.9925 23.5417 13.1788L21.3468 12.0838ZM24.8839 8.21044C23.4126 8.73022 22.2775 10.2187 21.3429 12.0914L23.5456 13.1712C24.4335 11.392 25.1899 10.7085 25.6777 10.5361L24.8839 8.21044ZM26.5597 8.57833C26.2173 8.30001 25.7155 8.06027 25.1083 8.15399L25.4533 10.5926C25.3259 10.6123 25.2091 10.5964 25.1188 10.5659C25.0353 10.5378 24.9933 10.5038 24.9909 10.5018L26.5597 8.57833ZM27.2861 9.86571C27.197 9.42477 26.9966 8.97734 26.6159 8.62697L24.9346 10.4532C24.899 10.4203 24.8779 10.3882 24.8678 10.3686C24.8587 10.351 24.863 10.3525 24.8695 10.3847L27.2861 9.86571ZM27.3072 10.0021L27.2993 9.94386L24.8563 10.3065L24.8642 10.3648L27.3072 10.0021ZM27.3155 10.0638L27.3073 10.0029L24.8641 10.364L24.8723 10.4248L27.3155 10.0638ZM27.2533 10.7474C27.3389 10.4932 27.3415 10.2529 27.3151 10.0609L24.8727 10.4278C24.8594 10.3307 24.8554 10.1727 24.9182 9.98624L27.2533 10.7474ZM26.7995 11.6916L27.1894 10.902L24.9821 9.83166L24.5922 10.6212L26.7995 11.6916ZM24.1334 16.1071C24.8819 15.0122 25.762 13.5544 26.7702 11.7473L24.6215 10.5655C23.631 12.3408 22.7926 13.7252 22.1046 14.7314L24.1334 16.1071ZM31.6051 15.0233C31.9802 14.4868 32.3397 13.9373 32.6838 13.3748L30.5857 12.1062C30.2682 12.6254 29.9367 13.1319 29.5913 13.626L31.6051 15.0233ZM32.0146 14.4209C31.9156 14.2337 31.8216 14.0362 31.7328 13.8279L29.4635 14.8213C29.5776 15.0888 29.7004 15.3474 29.8323 15.5969L32.0146 14.4209ZM32.3635 14.8456C32.3603 14.8456 32.3597 14.8454 32.3608 14.8455C32.3618 14.8457 32.3626 14.846 32.3623 14.8459C32.362 14.8458 32.3589 14.8447 32.3527 14.8413C32.3465 14.838 32.3363 14.8318 32.3223 14.8212C32.2621 14.7757 32.1467 14.6601 32.0044 14.402L29.8425 15.6158C30.3366 16.5116 31.1341 17.3074 32.3198 17.3131L32.3635 14.8456ZM32.361 13.8908C32.301 14.4218 32.1936 14.7047 32.1163 14.833C32.0827 14.8888 32.0658 14.8969 32.0776 14.8881C32.0829 14.8841 32.0909 14.8792 32.1004 14.875C32.1048 14.873 32.1087 14.8716 32.1117 14.8706C32.1146 14.8697 32.1162 14.8694 32.116 14.8694L32.5672 17.2893C33.3065 17.142 33.8619 16.6869 34.2233 16.0868C34.5608 15.5265 34.7306 14.8453 34.8106 14.1368L32.361 13.8908ZM32.5554 10.0035C32.543 11.3944 32.4768 12.6963 32.359 13.9101L34.8127 14.1174C34.9383 12.8234 35.0076 11.4486 35.0206 9.99377L32.5554 10.0035ZM33.6539 12.1063C34.0638 11.6141 34.4303 11.1635 34.7522 10.7547L32.8238 9.24253C32.5193 9.62913 32.1678 10.0615 31.7686 10.5407L33.6539 12.1063ZM32.6197 13.4695C32.966 13.0044 33.32 12.5385 33.6816 12.0718L31.7409 10.5752C31.3695 11.0546 31.0058 11.5333 30.6498 12.0115L32.6197 13.4695ZM63.0533 14.2381C63.4867 13.6783 63.8487 13.1057 64.1313 12.5186L61.9129 11.471C61.7167 11.8786 61.4528 12.3022 61.112 12.7423L63.0533 14.2381ZM59.9728 12.4891C60.2358 13.248 60.6669 13.9018 61.2656 14.4245L62.8997 12.556C62.6326 12.3228 62.4337 12.0305 62.3031 11.6537L59.9728 12.4891ZM59.6811 10.3448C59.5944 11.0868 59.7122 11.8213 59.9885 12.5317L62.2874 11.611C62.1334 11.2152 62.0964 10.8847 62.1296 10.6005L59.6811 10.3448ZM59.7814 9.81021C59.7337 9.98859 59.7022 10.1676 59.6814 10.3426L62.1294 10.6028C62.139 10.5217 62.151 10.4617 62.1626 10.4184L59.7814 9.81021ZM59.9682 9.29348C59.8887 9.46208 59.8267 9.63729 59.7799 9.81577L62.164 10.4128C62.1752 10.3701 62.1867 10.341 62.1952 10.3232L59.9682 9.29348ZM61.0652 8.33328C60.8092 8.48154 60.5601 8.65521 60.3174 8.85027L61.846 10.7664C62.0023 10.6407 62.1469 10.5417 62.2792 10.465L61.0652 8.33328ZM61.861 7.96696C61.5869 8.06068 61.3213 8.18464 61.0643 8.33381L62.2802 10.4645C62.4106 10.3888 62.5273 10.3364 62.6307 10.301L61.861 7.96696ZM64.256 8.85326C63.779 8.23242 63.0647 7.9889 62.4102 7.90922L62.0816 10.3588C62.2326 10.3772 62.3089 10.4053 62.3363 10.418C62.3579 10.4281 62.3298 10.4191 62.2946 10.3733L64.256 8.85326ZM64.7019 10.7547C64.7751 10.1292 64.6776 9.48721 64.3068 8.92463L62.2437 10.3019C62.2448 10.3035 62.2491 10.3092 62.2533 10.3301C62.258 10.3539 62.2642 10.4067 62.2534 10.4986L64.7019 10.7547ZM64.1163 12.5488C64.419 11.9607 64.6313 11.359 64.7019 10.7544L62.2534 10.499C62.2266 10.728 62.1351 11.0383 61.9279 11.4409L64.1163 12.5488ZM58.1844 17.2401C58.8888 17.3021 59.5684 17.1086 60.1898 16.7805L59.0615 14.6012C58.7388 14.7717 58.5392 14.7915 58.4319 14.782L58.1844 17.2401ZM56.6383 16.322C57.0109 16.9623 57.6477 17.1927 58.1841 17.2401L58.4323 14.7821C58.4039 14.7796 58.4484 14.7786 58.5266 14.8201C58.6156 14.8674 58.7082 14.9489 58.7728 15.0598L56.6383 16.322ZM56.3514 14.7762C56.2962 15.2507 56.3123 15.8936 56.7115 16.4333L58.6996 14.9486C58.7742 15.0495 58.7911 15.133 58.7937 15.1487C58.795 15.1567 58.7935 15.1516 58.7934 15.1306C58.7933 15.1097 58.7947 15.077 58.8001 15.0306L56.3514 14.7762ZM57.2614 12.3379C56.7932 13.1293 56.4718 13.9342 56.3557 14.7435L58.7959 15.0633C58.8537 14.6599 59.0285 14.1664 59.3785 13.5749L57.2614 12.3379ZM58.9351 10.1227C58.2967 10.811 57.7405 11.546 57.2678 12.3273L59.3721 13.5855C59.7537 12.9549 60.2059 12.356 60.7318 11.789L58.9351 10.1227ZM61.0468 11.1778L61.0579 11.0819L58.609 10.8298L58.5979 10.9258L61.0468 11.1778ZM61.1866 12.684C61.0325 12.1765 60.9884 11.6783 61.0466 11.1795L58.5981 10.9241C58.4993 11.7698 58.5778 12.6083 58.8271 13.4294L61.1866 12.684ZM61.8763 13.847C61.5632 13.5302 61.3314 13.1461 61.1835 12.6738L58.8303 13.4396C59.0887 14.2645 59.5155 14.9893 60.1124 15.5935L61.8763 13.847ZM60.1615 16.7949C60.7563 16.4999 61.3118 16.1015 61.8302 15.6162L60.1585 13.8243C59.7928 14.1667 59.4357 14.4152 59.0898 14.5868L60.1615 16.7949Z" fill="url(#paint0_linear_51_6540)" fill-opacity="0.5" mask="url(#path-1-outside-1_51_6540)"/>
<defs>
<linearGradient id="paint0_linear_51_6540" x1="59.1126" y1="3.89798" x2="51.9992" y2="31.0589" gradientUnits="userSpaceOnUse">
<stop stop-color="#E6C758"/>
<stop offset="0.21875" stop-color="#C5A041"/>
<stop offset="0.333333" stop-color="#AD8330"/>
<stop offset="0.451" stop-color="#9E7226"/>
<stop offset="0.4902" stop-color="#996C22"/>
<stop offset="0.52" stop-color="#9D7126"/>
<stop offset="0.5575" stop-color="#AA8131"/>
<stop offset="0.5991" stop-color="#BE9B42"/>
<stop offset="0.703125" stop-color="#DABE5B"/>
<stop offset="0.817708" stop-color="#CFAC4E"/>
<stop offset="1" stop-color="#A4631B"/>
</linearGradient>
</defs>
</svg>
