<svg width="54" height="47" viewBox="0 0 54 47" fill="none" xmlns="http://www.w3.org/2000/svg">
<path d="M23.7023 38.0261C15.6649 38.0261 9.21521 31.4953 9.21521 23.5792C9.21521 15.5642 15.7641 9.13232 23.7023 9.13232C31.7396 9.13232 53.0732 23.5792 53.0732 23.5792C53.0732 23.5792 31.7396 38.0261 23.7023 38.0261Z" fill="url(#paint0_linear_48_57233)"/>
<path d="M8.71935 23.5791C8.71935 15.2672 15.4667 8.63745 23.7025 8.63745C31.7399 8.63745 52.4782 22.5896 53.3712 23.1833L53.9666 23.5791L53.3712 23.9749C52.4782 24.5686 31.8391 38.5208 23.7025 38.5208C15.4667 38.5208 8.71935 31.7921 8.71935 23.5791ZM52.1805 23.5791C48.6083 21.2043 30.7476 9.62696 23.7025 9.62696C15.9629 9.62696 9.71162 15.8609 9.71162 23.5791C9.71162 31.2973 15.9629 37.5313 23.7025 37.5313C30.7476 37.5313 48.6083 25.855 52.1805 23.5791Z" fill="url(#paint1_linear_48_57233)"/>
<g filter="url(#filter0_d_48_57233)">
<path d="M23.5783 44.3236C12.0618 44.3236 2.65402 34.9413 2.65402 23.4562C2.65402 11.9711 12.0618 2.58887 23.5783 2.58887C35.0948 2.58887 44.5026 11.9711 44.5026 23.4562C44.6648 34.9413 35.257 44.3236 23.5783 44.3236Z" fill="url(#paint2_linear_48_57233)"/>
</g>
<g filter="url(#filter1_i_48_57233)">
<path d="M40.7574 27.3126C38.5989 37.1241 29.058 43.3206 19.3857 41.1928C9.71337 39.0649 3.65381 29.4364 5.81227 19.6249C7.97073 9.81338 17.5117 3.61688 27.184 5.74471C36.8563 7.87255 42.9159 17.5011 40.7574 27.3126Z" fill="url(#paint3_linear_48_57233)"/>
<path d="M40.7574 27.3126C38.5989 37.1241 29.058 43.3206 19.3857 41.1928C9.71337 39.0649 3.65381 29.4364 5.81227 19.6249C7.97073 9.81338 17.5117 3.61688 27.184 5.74471C36.8563 7.87255 42.9159 17.5011 40.7574 27.3126Z" fill="url(#paint4_linear_48_57233)"/>
<path d="M40.7574 27.3126C38.5989 37.1241 29.058 43.3206 19.3857 41.1928C9.71337 39.0649 3.65381 29.4364 5.81227 19.6249C7.97073 9.81338 17.5117 3.61688 27.184 5.74471C36.8563 7.87255 42.9159 17.5011 40.7574 27.3126Z" fill="url(#paint5_linear_48_57233)" style="mix-blend-mode:soft-light"/>
</g>
<mask id="path-5-outside-1_48_57233" maskUnits="userSpaceOnUse" x="7.53385" y="17.1857" width="34.3185" height="13.4209" fill="black">
<rect fill="white" x="7.53385" y="17.1857" width="34.3185" height="13.4209"/>
<path fill-rule="evenodd" clip-rule="evenodd" d="M28.9773 20.1441C29.0511 20.2193 29.1641 20.2572 29.3164 20.2578C29.6838 20.2249 29.9733 20.0934 30.1842 19.8632C30.3869 19.6337 30.4897 19.3969 30.4919 19.153C30.4891 19.0353 30.4385 18.9237 30.3399 18.8181C30.2415 18.7208 30.1083 18.672 29.94 18.6719C29.5883 18.7121 29.3198 18.8585 29.1333 19.1109C28.9471 19.3713 28.8568 19.6191 28.8623 19.8547C28.8649 19.9647 28.9032 20.0612 28.9773 20.1441ZM28.4982 25.4021C28.615 25.2903 28.7302 25.1766 28.8438 25.0609C28.8275 25.1361 28.8144 25.2089 28.8046 25.2795C28.8031 25.6039 28.8679 25.8462 28.9987 26.0064C29.1217 26.1666 29.2625 26.2478 29.4218 26.2503C29.5012 26.2516 29.5734 26.233 29.6383 26.1945C29.6953 26.1478 29.7411 26.0853 29.7751 26.0067C30.026 25.5834 30.5658 24.9316 31.3952 24.0505C32.2245 23.1618 32.9608 22.4654 33.6043 21.9612C33.2495 22.3907 32.8834 22.9466 32.5058 23.6289C32.1281 24.3112 31.9159 24.913 31.8694 25.4345C31.8619 25.6954 31.9198 25.9021 32.0428 26.0543C32.1656 26.2145 32.3344 26.2961 32.5494 26.2995C33.0197 26.2753 33.5451 25.9987 34.1255 25.4699C34.2343 25.3708 34.3422 25.2699 34.4494 25.1672C34.435 25.5388 34.5182 25.8377 34.6988 26.0642C34.9014 26.3187 35.2054 26.4638 35.6102 26.4996C36.0716 26.5324 36.5366 26.4315 37.0052 26.1965C37.4667 25.9531 37.8928 25.6357 38.2834 25.2441C38.3381 25.2569 38.3894 25.2652 38.4369 25.2695C38.7147 25.2939 39.0305 25.2351 39.3839 25.0926C39.7463 24.9432 40.1453 24.6863 40.5808 24.3224C40.6111 24.1989 40.5877 24.0904 40.5106 23.9967C40.4332 23.9031 40.3443 23.8755 40.2435 23.914C39.9859 24.1279 39.7432 24.2841 39.5151 24.3823C39.287 24.4805 39.0807 24.5294 38.8964 24.529C39.1057 24.2476 39.2752 23.9629 39.4052 23.6744C39.5344 23.3941 39.6139 23.1247 39.644 22.867C39.6814 22.547 39.6282 22.2464 39.4847 21.9655C39.3329 21.684 39.0677 21.5186 38.6885 21.4692C38.5294 21.4553 38.3805 21.4619 38.241 21.489C38.1013 21.5162 37.9758 21.5604 37.8648 21.6216L37.8527 21.6205C37.2518 21.6148 36.5733 21.9653 35.8169 22.6718C35.3717 23.0883 35.0312 23.5351 34.7952 24.012C34.5804 24.2294 34.3814 24.4191 34.1985 24.5811C33.847 24.9001 33.6155 25.0624 33.504 25.0685C33.4243 25.0673 33.3861 25.0115 33.3892 24.9006C33.405 24.6241 33.5477 24.2228 33.8176 23.697C34.0793 23.1712 34.4123 22.6582 34.8167 22.1582C34.8489 22.143 34.8695 22.1195 34.8784 22.0879C34.8952 22.0567 34.9042 22.0213 34.9053 21.9816C34.9103 21.8078 34.8237 21.6284 34.6461 21.4436C34.4682 21.2509 34.2204 21.1443 33.9027 21.1233C33.5746 21.1736 33.0466 21.5489 32.3181 22.2494C31.5814 22.9578 30.9122 23.6712 30.3107 24.3894C30.5474 23.8948 30.812 23.4204 31.1035 22.9661C31.3953 22.504 31.6688 22.1247 31.9242 21.8279C31.9566 21.8048 31.9735 21.7693 31.9749 21.7219C31.9704 21.5955 31.8987 21.4597 31.7595 21.3152C31.6121 21.1784 31.451 21.1007 31.2765 21.082C30.9868 21.1884 30.5249 21.7508 29.891 22.769C29.7126 23.0576 29.5558 23.3312 29.4206 23.5898C29.103 23.9559 28.8087 24.2636 28.5379 24.5124C28.1761 24.8532 27.9191 25.031 27.7669 25.0459C27.6866 25.0498 27.6453 24.9966 27.6427 24.8861C27.6518 24.5938 27.8178 24.1321 28.1406 23.5013C28.4554 22.8789 28.8118 22.3019 29.2092 21.77C29.2406 21.7449 29.256 21.7086 29.2549 21.6613C29.2445 21.5594 29.1532 21.4374 28.9811 21.2954C28.8171 21.1533 28.6464 21.0786 28.4696 21.0709C28.1987 21.1706 27.7577 21.7319 27.1469 22.7551C26.983 23.0273 26.8392 23.2925 26.7155 23.5509C26.5294 23.7834 26.3406 24.0044 26.1492 24.2142C25.866 24.5078 25.5953 24.7527 25.3372 24.9487C25.3972 24.5545 25.417 24.0443 25.3965 23.4182C25.3679 22.7929 25.4777 22.1958 25.7253 21.627C25.7702 21.5837 25.7906 21.5343 25.7867 21.479C25.7602 21.3303 25.6336 21.1817 25.4071 21.0336C25.1805 20.8854 24.9593 20.8124 24.7434 20.8142C24.6956 20.8181 24.6485 20.83 24.6019 20.8498C24.5631 20.8689 24.5292 20.8994 24.5003 20.9415C24.4713 20.9837 24.4394 21.0419 24.4048 21.1163C24.1982 21.4751 23.9169 21.9074 23.5609 22.4135C23.2673 22.8294 23.0254 23.1657 22.8354 23.4225C22.8197 23.4309 22.8065 23.442 22.7958 23.456C22.6629 23.6578 22.5337 23.8467 22.4081 24.0227C22.3886 23.9538 22.37 23.8837 22.3523 23.8124C22.3472 23.7413 22.3212 23.7119 22.2739 23.7236C22.195 23.7381 22.1117 23.8045 22.0241 23.923C21.929 24.05 21.8823 24.181 21.8841 24.3159C21.8919 24.4259 21.9081 24.5364 21.9328 24.6475C21.8667 24.7283 21.8018 24.8049 21.738 24.8772C21.4086 25.2527 21.169 25.4558 21.0197 25.4867C20.9799 25.4928 20.9501 25.4817 20.9302 25.4529C20.9032 25.4334 20.886 25.3966 20.8786 25.3423C20.8557 25.0532 20.9699 24.5805 21.2209 23.9247C21.473 23.2765 21.7671 22.6696 22.103 22.1032C22.1315 22.0751 22.1428 22.0377 22.1364 21.9912C22.1149 21.8919 22.0108 21.7812 21.8245 21.6596C21.6382 21.5381 21.4567 21.4831 21.2804 21.4944C21.2168 21.5042 21.1371 21.5721 21.0407 21.6976C20.9444 21.8233 20.8336 21.9907 20.7083 22.1999C20.6751 22.0152 20.5898 21.8622 20.452 21.741C20.3143 21.6199 20.1023 21.5776 19.816 21.6138C18.8368 21.8522 18.0358 22.5099 17.413 23.587C16.7901 24.6644 16.5156 25.6245 16.5893 26.4676C16.627 26.7466 16.7288 26.9604 16.8945 27.1088C17.0511 27.2507 17.2847 27.3018 17.5947 27.2617C17.9888 27.185 18.3589 26.9301 18.7049 26.4969C19.0597 26.0703 19.375 25.5905 19.6508 25.0573C19.6136 25.2608 19.5873 25.4547 19.5718 25.6391C19.5563 25.8235 19.559 25.9932 19.58 26.1481C19.6136 26.3962 19.6952 26.5813 19.8251 26.7036C19.9548 26.8261 20.1188 26.8719 20.317 26.8413C20.7883 26.737 21.2855 26.3754 21.8085 25.7565C21.9333 25.6089 22.0553 25.4587 22.1744 25.3061C22.2526 25.4598 22.3462 25.6146 22.4554 25.7705C22.7947 26.2669 23.2803 26.5129 23.9121 26.5084L23.9479 26.5055C24.4717 26.4464 25.0343 26.1458 25.6358 25.6034C25.8298 25.4285 26.0212 25.2402 26.21 25.0384C26.1803 25.1999 26.1605 25.358 26.1505 25.5127C26.1565 25.7729 26.2216 25.9751 26.3454 26.1191C26.4695 26.2712 26.6439 26.3418 26.8687 26.3312C27.3736 26.276 27.9168 25.9663 28.4982 25.4021ZM15.3384 20.148C14.661 19.8079 13.7751 19.7742 12.6806 20.0475C11.5286 20.3858 10.5456 20.9404 9.73111 21.7112C8.91475 22.4745 8.57431 23.2232 8.71008 23.9567C8.81227 24.2814 8.98886 24.4957 9.23968 24.5996C9.4961 24.6938 9.7209 24.7145 9.91392 24.662C9.99888 24.6389 10.0605 24.6058 10.0988 24.5624C10.135 24.5116 10.1373 24.4578 10.1057 24.4007C9.99111 23.8416 10.2272 23.1994 10.8137 22.4741C11.4 21.7488 12.2363 21.218 13.3225 20.8811C13.9342 20.7229 14.4142 20.707 14.7621 20.8336C15.1099 20.9602 15.3314 21.2034 15.4262 21.5627C15.555 22.2082 15.3922 22.9084 14.9379 23.6632C14.4833 24.4184 13.8983 24.9137 13.1828 25.1494C13.0207 25.1935 12.891 25.2042 12.7941 25.1815C12.9524 24.4334 13.1186 23.7773 13.2925 23.2134C13.4607 22.6594 13.6808 22.333 13.9527 22.2345C14.001 22.2295 14.0337 22.2124 14.0508 22.1832C14.0622 22.1637 14.0629 22.1349 14.0528 22.0965C14.0188 21.9993 13.9288 21.909 13.7828 21.8257C13.6347 21.735 13.467 21.7109 13.2797 21.7536C12.6238 22.1535 12.0495 23.1912 11.5566 24.8665C11.0734 26.5475 10.477 27.5952 9.7672 28.0098C9.63387 28.038 9.53715 28.0315 9.47665 27.9906C9.42378 27.9476 9.35786 27.9327 9.27879 27.946C9.20145 27.967 9.1516 28.0134 9.12925 28.0851C9.10671 28.1569 9.10873 28.2425 9.13491 28.3418C9.20152 28.5942 9.37434 28.826 9.65346 29.0369C9.93247 29.2477 10.2758 29.3101 10.6833 29.2238C11.1944 29.0601 11.6026 28.6621 11.9073 28.0298C12.2044 27.3998 12.4464 26.6862 12.6333 25.8892C12.7935 26.026 12.9853 26.1254 13.2085 26.1877C13.4297 26.2423 13.6881 26.2335 13.9835 26.1612C14.7916 25.9002 15.4793 25.3235 16.0466 24.4313C16.6116 23.5316 16.7993 22.6115 16.6091 21.6711C16.4294 20.9905 16.0059 20.4828 15.3384 20.148ZM18.9591 25.2167C18.6067 25.7415 18.3353 26.0225 18.145 26.0598C18.0413 26.0759 17.9805 26.0177 17.9625 25.8848C17.9492 25.4248 18.1706 24.7451 18.6272 23.8455C19.0754 22.9474 19.5406 22.4133 20.0224 22.2431C20.1021 22.2308 20.1833 22.2582 20.2656 22.3251C20.3398 22.3934 20.3894 22.4894 20.4143 22.6129L20.4223 22.6715C20.4255 22.6949 20.4239 22.7151 20.4183 22.7318L20.2265 23.1201C19.735 24.0011 19.3124 24.7 18.9591 25.2167ZM23.1484 23.8984C22.9855 24.1648 22.8153 24.4249 22.6379 24.6787C22.6877 24.7957 22.7411 24.9078 22.7978 25.0152C22.9906 25.3648 23.2231 25.5403 23.4953 25.5416C23.8345 25.4741 24.0384 25.1354 24.1072 24.5257C24.1671 23.909 24.2004 23.2508 24.2067 22.5509C24.0526 22.7465 23.8761 22.9637 23.6771 23.2026C23.4971 23.4348 23.3209 23.6668 23.1484 23.8984ZM38.5816 23.5321C38.4639 23.7767 38.31 24.0217 38.1196 24.2676C37.9066 24.0817 37.7517 23.849 37.6549 23.5697C37.5491 23.2977 37.511 23.0358 37.5405 22.7834C37.548 22.7205 37.5587 22.6617 37.5733 22.6072C37.5875 22.5528 37.6056 22.5026 37.6273 22.4567C37.7254 22.3778 37.8222 22.3108 37.9177 22.2555C38.013 22.2002 38.107 22.1568 38.1999 22.125C38.4392 22.1542 38.6077 22.2327 38.7061 22.3608C38.7954 22.4961 38.8287 22.6623 38.8057 22.8592C38.7817 23.0642 38.707 23.2885 38.5816 23.5321ZM36.9112 25.3499C36.679 25.4725 36.4628 25.525 36.2632 25.5074C36.1194 25.4947 36.0206 25.4423 35.9668 25.3499C35.904 25.265 35.8828 25.1358 35.903 24.9626C35.9458 24.6644 36.0678 24.3451 36.269 24.005C36.4791 23.6578 36.7271 23.3297 37.0134 23.0211L37.008 23.0683C36.9693 23.3989 36.9995 23.7276 37.0987 24.0543C37.1986 24.3733 37.3606 24.646 37.5844 24.8725C37.3669 25.0761 37.1425 25.2351 36.9112 25.3499Z"/>
</mask>
<path fill-rule="evenodd" clip-rule="evenodd" d="M28.9773 20.1441C29.0511 20.2193 29.1641 20.2572 29.3164 20.2578C29.6838 20.2249 29.9733 20.0934 30.1842 19.8632C30.3869 19.6337 30.4897 19.3969 30.4919 19.153C30.4891 19.0353 30.4385 18.9237 30.3399 18.8181C30.2415 18.7208 30.1083 18.672 29.94 18.6719C29.5883 18.7121 29.3198 18.8585 29.1333 19.1109C28.9471 19.3713 28.8568 19.6191 28.8623 19.8547C28.8649 19.9647 28.9032 20.0612 28.9773 20.1441ZM28.4982 25.4021C28.615 25.2903 28.7302 25.1766 28.8438 25.0609C28.8275 25.1361 28.8144 25.2089 28.8046 25.2795C28.8031 25.6039 28.8679 25.8462 28.9987 26.0064C29.1217 26.1666 29.2625 26.2478 29.4218 26.2503C29.5012 26.2516 29.5734 26.233 29.6383 26.1945C29.6953 26.1478 29.7411 26.0853 29.7751 26.0067C30.026 25.5834 30.5658 24.9316 31.3952 24.0505C32.2245 23.1618 32.9608 22.4654 33.6043 21.9612C33.2495 22.3907 32.8834 22.9466 32.5058 23.6289C32.1281 24.3112 31.9159 24.913 31.8694 25.4345C31.8619 25.6954 31.9198 25.9021 32.0428 26.0543C32.1656 26.2145 32.3344 26.2961 32.5494 26.2995C33.0197 26.2753 33.5451 25.9987 34.1255 25.4699C34.2343 25.3708 34.3422 25.2699 34.4494 25.1672C34.435 25.5388 34.5182 25.8377 34.6988 26.0642C34.9014 26.3187 35.2054 26.4638 35.6102 26.4996C36.0716 26.5324 36.5366 26.4315 37.0052 26.1965C37.4667 25.9531 37.8928 25.6357 38.2834 25.2441C38.3381 25.2569 38.3894 25.2652 38.4369 25.2695C38.7147 25.2939 39.0305 25.2351 39.3839 25.0926C39.7463 24.9432 40.1453 24.6863 40.5808 24.3224C40.6111 24.1989 40.5877 24.0904 40.5106 23.9967C40.4332 23.9031 40.3443 23.8755 40.2435 23.914C39.9859 24.1279 39.7432 24.2841 39.5151 24.3823C39.287 24.4805 39.0807 24.5294 38.8964 24.529C39.1057 24.2476 39.2752 23.9629 39.4052 23.6744C39.5344 23.3941 39.6139 23.1247 39.644 22.867C39.6814 22.547 39.6282 22.2464 39.4847 21.9655C39.3329 21.684 39.0677 21.5186 38.6885 21.4692C38.5294 21.4553 38.3805 21.4619 38.241 21.489C38.1013 21.5162 37.9758 21.5604 37.8648 21.6216L37.8527 21.6205C37.2518 21.6148 36.5733 21.9653 35.8169 22.6718C35.3717 23.0883 35.0312 23.5351 34.7952 24.012C34.5804 24.2294 34.3814 24.4191 34.1985 24.5811C33.847 24.9001 33.6155 25.0624 33.504 25.0685C33.4243 25.0673 33.3861 25.0115 33.3892 24.9006C33.405 24.6241 33.5477 24.2228 33.8176 23.697C34.0793 23.1712 34.4123 22.6582 34.8167 22.1582C34.8489 22.143 34.8695 22.1195 34.8784 22.0879C34.8952 22.0567 34.9042 22.0213 34.9053 21.9816C34.9103 21.8078 34.8237 21.6284 34.6461 21.4436C34.4682 21.2509 34.2204 21.1443 33.9027 21.1233C33.5746 21.1736 33.0466 21.5489 32.3181 22.2494C31.5814 22.9578 30.9122 23.6712 30.3107 24.3894C30.5474 23.8948 30.812 23.4204 31.1035 22.9661C31.3953 22.504 31.6688 22.1247 31.9242 21.8279C31.9566 21.8048 31.9735 21.7693 31.9749 21.7219C31.9704 21.5955 31.8987 21.4597 31.7595 21.3152C31.6121 21.1784 31.451 21.1007 31.2765 21.082C30.9868 21.1884 30.5249 21.7508 29.891 22.769C29.7126 23.0576 29.5558 23.3312 29.4206 23.5898C29.103 23.9559 28.8087 24.2636 28.5379 24.5124C28.1761 24.8532 27.9191 25.031 27.7669 25.0459C27.6866 25.0498 27.6453 24.9966 27.6427 24.8861C27.6518 24.5938 27.8178 24.1321 28.1406 23.5013C28.4554 22.8789 28.8118 22.3019 29.2092 21.77C29.2406 21.7449 29.256 21.7086 29.2549 21.6613C29.2445 21.5594 29.1532 21.4374 28.9811 21.2954C28.8171 21.1533 28.6464 21.0786 28.4696 21.0709C28.1987 21.1706 27.7577 21.7319 27.1469 22.7551C26.983 23.0273 26.8392 23.2925 26.7155 23.5509C26.5294 23.7834 26.3406 24.0044 26.1492 24.2142C25.866 24.5078 25.5953 24.7527 25.3372 24.9487C25.3972 24.5545 25.417 24.0443 25.3965 23.4182C25.3679 22.7929 25.4777 22.1958 25.7253 21.627C25.7702 21.5837 25.7906 21.5343 25.7867 21.479C25.7602 21.3303 25.6336 21.1817 25.4071 21.0336C25.1805 20.8854 24.9593 20.8124 24.7434 20.8142C24.6956 20.8181 24.6485 20.83 24.6019 20.8498C24.5631 20.8689 24.5292 20.8994 24.5003 20.9415C24.4713 20.9837 24.4394 21.0419 24.4048 21.1163C24.1982 21.4751 23.9169 21.9074 23.5609 22.4135C23.2673 22.8294 23.0254 23.1657 22.8354 23.4225C22.8197 23.4309 22.8065 23.442 22.7958 23.456C22.6629 23.6578 22.5337 23.8467 22.4081 24.0227C22.3886 23.9538 22.37 23.8837 22.3523 23.8124C22.3472 23.7413 22.3212 23.7119 22.2739 23.7236C22.195 23.7381 22.1117 23.8045 22.0241 23.923C21.929 24.05 21.8823 24.181 21.8841 24.3159C21.8919 24.4259 21.9081 24.5364 21.9328 24.6475C21.8667 24.7283 21.8018 24.8049 21.738 24.8772C21.4086 25.2527 21.169 25.4558 21.0197 25.4867C20.9799 25.4928 20.9501 25.4817 20.9302 25.4529C20.9032 25.4334 20.886 25.3966 20.8786 25.3423C20.8557 25.0532 20.9699 24.5805 21.2209 23.9247C21.473 23.2765 21.7671 22.6696 22.103 22.1032C22.1315 22.0751 22.1428 22.0377 22.1364 21.9912C22.1149 21.8919 22.0108 21.7812 21.8245 21.6596C21.6382 21.5381 21.4567 21.4831 21.2804 21.4944C21.2168 21.5042 21.1371 21.5721 21.0407 21.6976C20.9444 21.8233 20.8336 21.9907 20.7083 22.1999C20.6751 22.0152 20.5898 21.8622 20.452 21.741C20.3143 21.6199 20.1023 21.5776 19.816 21.6138C18.8368 21.8522 18.0358 22.5099 17.413 23.587C16.7901 24.6644 16.5156 25.6245 16.5893 26.4676C16.627 26.7466 16.7288 26.9604 16.8945 27.1088C17.0511 27.2507 17.2847 27.3018 17.5947 27.2617C17.9888 27.185 18.3589 26.9301 18.7049 26.4969C19.0597 26.0703 19.375 25.5905 19.6508 25.0573C19.6136 25.2608 19.5873 25.4547 19.5718 25.6391C19.5563 25.8235 19.559 25.9932 19.58 26.1481C19.6136 26.3962 19.6952 26.5813 19.8251 26.7036C19.9548 26.8261 20.1188 26.8719 20.317 26.8413C20.7883 26.737 21.2855 26.3754 21.8085 25.7565C21.9333 25.6089 22.0553 25.4587 22.1744 25.3061C22.2526 25.4598 22.3462 25.6146 22.4554 25.7705C22.7947 26.2669 23.2803 26.5129 23.9121 26.5084L23.9479 26.5055C24.4717 26.4464 25.0343 26.1458 25.6358 25.6034C25.8298 25.4285 26.0212 25.2402 26.21 25.0384C26.1803 25.1999 26.1605 25.358 26.1505 25.5127C26.1565 25.7729 26.2216 25.9751 26.3454 26.1191C26.4695 26.2712 26.6439 26.3418 26.8687 26.3312C27.3736 26.276 27.9168 25.9663 28.4982 25.4021ZM15.3384 20.148C14.661 19.8079 13.7751 19.7742 12.6806 20.0475C11.5286 20.3858 10.5456 20.9404 9.73111 21.7112C8.91475 22.4745 8.57431 23.2232 8.71008 23.9567C8.81227 24.2814 8.98886 24.4957 9.23968 24.5996C9.4961 24.6938 9.7209 24.7145 9.91392 24.662C9.99888 24.6389 10.0605 24.6058 10.0988 24.5624C10.135 24.5116 10.1373 24.4578 10.1057 24.4007C9.99111 23.8416 10.2272 23.1994 10.8137 22.4741C11.4 21.7488 12.2363 21.218 13.3225 20.8811C13.9342 20.7229 14.4142 20.707 14.7621 20.8336C15.1099 20.9602 15.3314 21.2034 15.4262 21.5627C15.555 22.2082 15.3922 22.9084 14.9379 23.6632C14.4833 24.4184 13.8983 24.9137 13.1828 25.1494C13.0207 25.1935 12.891 25.2042 12.7941 25.1815C12.9524 24.4334 13.1186 23.7773 13.2925 23.2134C13.4607 22.6594 13.6808 22.333 13.9527 22.2345C14.001 22.2295 14.0337 22.2124 14.0508 22.1832C14.0622 22.1637 14.0629 22.1349 14.0528 22.0965C14.0188 21.9993 13.9288 21.909 13.7828 21.8257C13.6347 21.735 13.467 21.7109 13.2797 21.7536C12.6238 22.1535 12.0495 23.1912 11.5566 24.8665C11.0734 26.5475 10.477 27.5952 9.7672 28.0098C9.63387 28.038 9.53715 28.0315 9.47665 27.9906C9.42378 27.9476 9.35786 27.9327 9.27879 27.946C9.20145 27.967 9.1516 28.0134 9.12925 28.0851C9.10671 28.1569 9.10873 28.2425 9.13491 28.3418C9.20152 28.5942 9.37434 28.826 9.65346 29.0369C9.93247 29.2477 10.2758 29.3101 10.6833 29.2238C11.1944 29.0601 11.6026 28.6621 11.9073 28.0298C12.2044 27.3998 12.4464 26.6862 12.6333 25.8892C12.7935 26.026 12.9853 26.1254 13.2085 26.1877C13.4297 26.2423 13.6881 26.2335 13.9835 26.1612C14.7916 25.9002 15.4793 25.3235 16.0466 24.4313C16.6116 23.5316 16.7993 22.6115 16.6091 21.6711C16.4294 20.9905 16.0059 20.4828 15.3384 20.148ZM18.9591 25.2167C18.6067 25.7415 18.3353 26.0225 18.145 26.0598C18.0413 26.0759 17.9805 26.0177 17.9625 25.8848C17.9492 25.4248 18.1706 24.7451 18.6272 23.8455C19.0754 22.9474 19.5406 22.4133 20.0224 22.2431C20.1021 22.2308 20.1833 22.2582 20.2656 22.3251C20.3398 22.3934 20.3894 22.4894 20.4143 22.6129L20.4223 22.6715C20.4255 22.6949 20.4239 22.7151 20.4183 22.7318L20.2265 23.1201C19.735 24.0011 19.3124 24.7 18.9591 25.2167ZM23.1484 23.8984C22.9855 24.1648 22.8153 24.4249 22.6379 24.6787C22.6877 24.7957 22.7411 24.9078 22.7978 25.0152C22.9906 25.3648 23.2231 25.5403 23.4953 25.5416C23.8345 25.4741 24.0384 25.1354 24.1072 24.5257C24.1671 23.909 24.2004 23.2508 24.2067 22.5509C24.0526 22.7465 23.8761 22.9637 23.6771 23.2026C23.4971 23.4348 23.3209 23.6668 23.1484 23.8984ZM38.5816 23.5321C38.4639 23.7767 38.31 24.0217 38.1196 24.2676C37.9066 24.0817 37.7517 23.849 37.6549 23.5697C37.5491 23.2977 37.511 23.0358 37.5405 22.7834C37.548 22.7205 37.5587 22.6617 37.5733 22.6072C37.5875 22.5528 37.6056 22.5026 37.6273 22.4567C37.7254 22.3778 37.8222 22.3108 37.9177 22.2555C38.013 22.2002 38.107 22.1568 38.1999 22.125C38.4392 22.1542 38.6077 22.2327 38.7061 22.3608C38.7954 22.4961 38.8287 22.6623 38.8057 22.8592C38.7817 23.0642 38.707 23.2885 38.5816 23.5321ZM36.9112 25.3499C36.679 25.4725 36.4628 25.525 36.2632 25.5074C36.1194 25.4947 36.0206 25.4423 35.9668 25.3499C35.904 25.265 35.8828 25.1358 35.903 24.9626C35.9458 24.6644 36.0678 24.3451 36.269 24.005C36.4791 23.6578 36.7271 23.3297 37.0134 23.0211L37.008 23.0683C36.9693 23.3989 36.9995 23.7276 37.0987 24.0543C37.1986 24.3733 37.3606 24.646 37.5844 24.8725C37.3669 25.0761 37.1425 25.2351 36.9112 25.3499Z" fill="white"/>
<path d="M29.3164 20.2578L29.3062 20.8646L29.3345 20.8647L29.3627 20.8622L29.3164 20.2578ZM28.9773 20.1441L28.523 20.5518L28.5323 20.5622L28.5421 20.5722L28.9773 20.1441ZM30.1842 19.8632L30.6287 20.2702L30.636 20.2619L30.1842 19.8632ZM30.4919 19.153L31.0981 19.1507L31.0982 19.1408L31.098 19.1308L30.4919 19.153ZM30.3399 18.8181L30.7852 18.4006L30.7773 18.3921L30.769 18.384L30.3399 18.8181ZM29.94 18.6719L29.9479 18.0651L29.9134 18.0651L29.8791 18.069L29.94 18.6719ZM29.1333 19.1109L28.6474 18.7543L28.6419 18.7619L29.1333 19.1109ZM28.8623 19.8547L29.4684 19.8327L29.4684 19.8326L28.8623 19.8547ZM28.8438 25.0609L29.4361 25.1824L29.8778 23.1474L28.414 24.6385L28.8438 25.0609ZM28.4982 25.4021L28.0822 24.9661L28.0792 24.9691L28.4982 25.4021ZM28.8046 25.2795L28.2041 25.2034L28.1985 25.2439L28.1983 25.2847L28.8046 25.2795ZM28.9987 26.0064L29.4813 25.6329L29.4758 25.6258L29.4702 25.6189L28.9987 26.0064ZM29.4218 26.2503L29.4393 25.6436L29.4392 25.6436L29.4218 26.2503ZM29.6383 26.1945L29.9429 26.7152L29.9827 26.6915L30.0185 26.6622L29.6383 26.1945ZM29.7751 26.0067L29.2547 25.702L29.2348 25.7357L29.2193 25.7715L29.7751 26.0067ZM31.3952 24.0505L31.8339 24.4636L31.8358 24.4616L31.3952 24.0505ZM33.6043 21.9612L34.0695 22.3442L33.2344 21.4852L33.6043 21.9612ZM32.5058 23.6289L33.0352 23.9177L33.0352 23.9177L32.5058 23.6289ZM31.8694 25.4345L31.2655 25.3883L31.2639 25.4066L31.2634 25.4249L31.8694 25.4345ZM32.0428 26.0543L32.5255 25.681L32.5208 25.6749L32.516 25.6689L32.0428 26.0543ZM32.5494 26.2995L32.5321 26.9062L32.5524 26.9066L32.5727 26.9055L32.5494 26.2995ZM34.1255 25.4699L34.5305 25.9162L34.5305 25.9162L34.1255 25.4699ZM34.4494 25.1672L35.0552 25.1828L35.1126 23.6966L34.033 24.7316L34.4494 25.1672ZM34.6988 26.0642L35.1748 25.6823L35.1745 25.6819L34.6988 26.0642ZM35.6102 26.4996L35.5492 27.1042L35.5595 27.1049L35.6102 26.4996ZM37.0052 26.1965L37.2712 26.7384L37.2824 26.7325L37.0052 26.1965ZM38.2834 25.2441L38.429 24.6532L38.0989 24.5757L37.8572 24.8181L38.2834 25.2441ZM38.4369 25.2695L38.3753 25.8739L38.3761 25.874L38.4369 25.2695ZM39.3839 25.0926L39.6041 25.6551L39.6087 25.6532L39.3839 25.0926ZM40.5808 24.3224L40.9658 24.7861L41.1211 24.6563L41.1694 24.4602L40.5808 24.3224ZM40.5106 23.9967L40.9806 23.6074L40.9796 23.6062L40.5106 23.9967ZM40.2435 23.914L40.034 23.3473L39.9386 23.3836L39.8599 23.449L40.2435 23.914ZM39.5151 24.3823L39.2816 23.8253L39.2814 23.8254L39.5151 24.3823ZM38.8964 24.529L38.4118 24.1706L37.6963 25.1326L38.887 25.1358L38.8964 24.529ZM39.4052 23.6744L38.8552 23.4261L38.8531 23.4309L39.4052 23.6744ZM39.644 22.867L39.0419 22.8042L39.0418 22.8043L39.644 22.867ZM39.4847 21.9655L40.0254 21.6837L40.019 21.6719L39.4847 21.9655ZM38.6885 21.4692L38.7743 20.8675L38.7618 20.8659L38.7492 20.8648L38.6885 21.4692ZM38.241 21.489L38.1329 20.8933L38.1325 20.8934L38.241 21.489ZM37.8648 21.6216L37.8037 22.226L37.9884 22.2424L38.1519 22.1522L37.8648 21.6216ZM37.8527 21.6205L37.9138 21.016L37.89 21.0139L37.8662 21.0137L37.8527 21.6205ZM35.8169 22.6718L35.4063 22.2306L35.4059 22.231L35.8169 22.6718ZM34.7952 24.012L35.2235 24.436L35.2936 24.365L35.3378 24.2757L34.7952 24.012ZM34.1985 24.5811L33.8001 24.1287L33.7944 24.1339L34.1985 24.5811ZM33.504 25.0685L33.4867 25.6753L33.508 25.6756L33.5293 25.6744L33.504 25.0685ZM33.3892 24.9006L32.7839 24.8738L32.7834 24.8826L32.7832 24.8914L33.3892 24.9006ZM33.8176 23.697L34.3562 23.9688L34.3596 23.962L33.8176 23.697ZM34.8167 22.1582L34.5629 21.6105L34.4359 21.6707L34.3474 21.7801L34.8167 22.1582ZM34.8784 22.0879L34.3447 21.807L34.3134 21.8656L34.2954 21.9293L34.8784 22.0879ZM34.9053 21.9816L34.2993 21.9718L34.2993 21.9723L34.9053 21.9816ZM34.6461 21.4436L34.1982 21.8586L34.2066 21.8673L34.6461 21.4436ZM33.9027 21.1233L33.9504 20.5178L33.8842 20.5134L33.8185 20.5235L33.9027 21.1233ZM32.3181 22.2494L32.7352 22.6844L32.7352 22.6844L32.3181 22.2494ZM30.3107 24.3894L29.7646 24.133L30.7733 24.7757L30.3107 24.3894ZM31.1035 22.9661L31.6124 23.2894L31.6149 23.2855L31.1035 22.9661ZM31.9242 21.8279L31.5756 21.336L31.5154 21.3791L31.467 21.4353L31.9242 21.8279ZM31.9749 21.7219L32.5809 21.7319L32.5815 21.7122L32.5808 21.6924L31.9749 21.7219ZM31.7595 21.3152L32.1985 20.891L32.1869 20.879L32.1747 20.8677L31.7595 21.3152ZM31.2765 21.082L31.3486 20.4787L31.2079 20.4636L31.0742 20.5126L31.2765 21.082ZM29.891 22.769L29.3776 22.4529L29.3765 22.4547L29.891 22.769ZM29.4206 23.5898L29.8761 23.9842L29.9234 23.9297L29.9569 23.8658L29.4206 23.5898ZM28.5379 24.5124L28.131 24.0679L28.1254 24.0731L28.5379 24.5124ZM27.7669 25.0459L27.7881 25.652L27.8033 25.6513L27.8185 25.6498L27.7669 25.0459ZM27.6427 24.8861L27.0367 24.8748L27.0362 24.8915L27.0366 24.9081L27.6427 24.8861ZM28.1406 23.5013L28.6795 23.7725L28.6808 23.7698L28.1406 23.5013ZM29.2092 21.77L28.8345 21.2978L28.7727 21.3472L28.7254 21.4106L29.2092 21.77ZM29.2549 21.6613L29.861 21.6395L29.8604 21.6156L29.858 21.592L29.2549 21.6613ZM28.9811 21.2954L28.581 21.7564L28.5864 21.7612L28.592 21.7657L28.9811 21.2954ZM28.4696 21.0709L28.5038 20.4647L28.382 20.4594L28.2669 20.5017L28.4696 21.0709ZM27.1469 22.7551L27.6651 23.0633L27.6662 23.0614L27.1469 22.7551ZM26.7155 23.5509L27.1867 23.9266L27.231 23.8712L27.2616 23.8074L26.7155 23.5509ZM26.1492 24.2142L26.5827 24.6328L26.5887 24.6266L26.5945 24.6203L26.1492 24.2142ZM25.3372 24.9487L24.7379 24.8648L24.5148 26.3296L25.6995 25.4305L25.3372 24.9487ZM25.3965 23.4182L26.0025 23.3905L26.0021 23.3827L25.3965 23.4182ZM25.7253 21.627L25.3077 21.1926L25.2191 21.278L25.17 21.3907L25.7253 21.627ZM25.7867 21.479L26.3914 21.4283L26.3891 21.3964L26.3835 21.3649L25.7867 21.479ZM25.4071 21.0336L25.0709 21.5428L25.0709 21.5429L25.4071 21.0336ZM24.7434 20.8142L24.7461 20.2074L24.7235 20.2076L24.701 20.2094L24.7434 20.8142ZM24.6019 20.8498L24.3714 20.2915L24.355 20.2985L24.3391 20.3063L24.6019 20.8498ZM24.5003 20.9415L24.0023 20.6019L24.002 20.6023L24.5003 20.9415ZM24.4048 21.1163L24.9291 21.4143L24.9424 21.391L24.9538 21.3667L24.4048 21.1163ZM23.5609 22.4135L24.0545 22.7595L24.0552 22.7585L23.5609 22.4135ZM22.8354 23.4225L23.1147 23.9575L23.2379 23.8919L23.3211 23.7795L22.8354 23.4225ZM22.7958 23.456L22.3174 23.0894L22.3034 23.1076L22.2908 23.1267L22.7958 23.456ZM22.4081 24.0227L21.8247 24.1953L22.166 25.399L22.8998 24.3712L22.4081 24.0227ZM22.3523 23.8124L21.7475 23.8634L21.7513 23.9153L21.7637 23.9657L22.3523 23.8124ZM22.2739 23.7236L22.3756 24.3205L22.3945 24.317L22.4132 24.3124L22.2739 23.7236ZM22.0241 23.923L22.5076 24.2829L22.5099 24.2798L22.0241 23.923ZM21.8841 24.3159L21.2779 24.3317L21.2781 24.3493L21.2793 24.3668L21.8841 24.3159ZM21.9328 24.6475L22.3998 25.0284L22.5889 24.7974L22.5247 24.5086L21.9328 24.6475ZM21.738 24.8772L21.2856 24.4792L21.2848 24.4801L21.738 24.8772ZM21.0197 25.4867L21.1034 26.0866L21.1194 26.0841L21.1353 26.0808L21.0197 25.4867ZM20.9302 25.4529L21.4296 25.1026L21.3719 25.0193L21.2898 24.9599L20.9302 25.4529ZM20.8786 25.3423L20.2743 25.398L20.2756 25.4149L20.2779 25.4317L20.8786 25.3423ZM21.2209 23.9247L20.6563 23.7109L20.6552 23.7139L21.2209 23.9247ZM22.103 22.1032L21.6806 21.6734L21.6236 21.7296L21.5827 21.7984L22.103 22.1032ZM22.1364 21.9912L22.737 21.9011L22.7339 21.8781L22.729 21.8554L22.1364 21.9912ZM21.8245 21.6596L22.1603 21.1501L22.1601 21.15L21.8245 21.6596ZM21.2804 21.4944L21.2495 20.8889L21.2225 20.8906L21.1958 20.8947L21.2804 21.4944ZM21.0407 21.6976L20.5617 21.3319L20.5614 21.3323L21.0407 21.6976ZM20.7083 22.1999L20.1116 22.3147L20.3955 23.8955L21.2272 22.507L20.7083 22.1999ZM20.452 21.741L20.0485 22.199L20.0487 22.1992L20.452 21.741ZM19.816 21.6138L19.7477 21.0118L19.7135 21.0161L19.6799 21.0243L19.816 21.6138ZM17.413 23.587L16.8892 23.2882L16.8892 23.2882L17.413 23.587ZM16.5893 26.4676L15.9854 26.5282L15.9866 26.5424L15.9885 26.5564L16.5893 26.4676ZM16.8945 27.1088L17.3045 26.6566L17.302 26.6544L16.8945 27.1088ZM17.5947 27.2617L17.6647 27.8635L17.6839 27.861L17.703 27.8573L17.5947 27.2617ZM18.7049 26.4969L18.2409 26.1121L18.2333 26.1217L18.7049 26.4969ZM19.6508 25.0573L20.2471 25.1592L19.1132 24.7838L19.6508 25.0573ZM19.5718 25.6391L20.1759 25.6823L20.1759 25.682L19.5718 25.6391ZM19.58 26.1481L20.1808 26.059L20.1808 26.0588L19.58 26.1481ZM19.8251 26.7036L20.244 26.2596L20.2435 26.2591L19.8251 26.7036ZM20.317 26.8413L20.4018 27.441L20.4213 27.438L20.4405 27.4337L20.317 26.8413ZM21.8085 25.7565L21.3478 25.3681L21.3478 25.3681L21.8085 25.7565ZM22.1744 25.3061L22.7154 25.0253L22.2867 24.1823L21.6984 24.9365L22.1744 25.3061ZM22.4554 25.7705L22.9572 25.4235L22.9533 25.4179L22.4554 25.7705ZM23.9121 26.5084L23.9085 27.1152L23.9315 27.1151L23.9544 27.1132L23.9121 26.5084ZM23.9479 26.5055L23.9902 27.1102L23.9992 27.1095L24.0081 27.1084L23.9479 26.5055ZM25.6358 25.6034L25.2333 25.1549L25.2333 25.1549L25.6358 25.6034ZM26.21 25.0384L26.8062 25.1408L27.1773 23.1227L25.77 24.6267L26.21 25.0384ZM26.1505 25.5127L25.5455 25.4813L25.5438 25.508L25.5444 25.5347L26.1505 25.5127ZM26.3454 26.1191L26.8169 25.7316L26.8121 25.7257L26.8071 25.7199L26.3454 26.1191ZM26.8687 26.3312L26.8893 26.9374L26.9081 26.9365L26.9269 26.9345L26.8687 26.3312ZM12.6806 20.0475L12.5409 19.4589L12.5288 19.4619L12.5168 19.4654L12.6806 20.0475ZM15.3384 20.148L15.061 20.6911L15.0612 20.6912L15.3384 20.148ZM9.73111 21.7112L10.1419 22.1521L10.1446 22.1496L9.73111 21.7112ZM8.71008 23.9567L8.11392 24.0746L8.1206 24.1107L8.13161 24.1457L8.71008 23.9567ZM9.23968 24.5996L9.00174 25.1607L9.01294 25.1654L9.02431 25.1695L9.23968 24.5996ZM9.91392 24.662L10.0657 25.2475L10.0662 25.2474L9.91392 24.662ZM10.0988 24.5624L10.5508 24.9609L10.572 24.9369L10.5906 24.9108L10.0988 24.5624ZM10.1057 24.4007L9.51172 24.5299L9.53017 24.6199L9.57454 24.7001L10.1057 24.4007ZM10.8137 22.4741L11.2829 22.8522L11.283 22.8521L10.8137 22.4741ZM13.3225 20.8811L13.1779 20.2937L13.1638 20.2974L13.1499 20.3017L13.3225 20.8811ZM14.7621 20.8336L14.5485 21.4042L14.5485 21.4042L14.7621 20.8336ZM15.4262 21.5627L16.0208 21.4365L16.0172 21.4185L16.0125 21.4007L15.4262 21.5627ZM14.9379 23.6632L15.4561 23.9715L15.4561 23.9714L14.9379 23.6632ZM13.1828 25.1494L13.3348 25.7348L13.3503 25.7306L13.3656 25.7256L13.1828 25.1494ZM12.7941 25.1815L12.2011 25.0631L12.0793 25.6386L12.6484 25.7723L12.7941 25.1815ZM13.2925 23.2134L13.8716 23.3856L13.8724 23.383L13.2925 23.2134ZM13.9527 22.2345L13.8983 21.6309L13.8236 21.6386L13.7528 21.6642L13.9527 22.2345ZM14.0508 22.1832L14.5727 22.4854L14.5731 22.4845L14.0508 22.1832ZM14.0528 22.0965L14.6391 21.9347L14.6331 21.9119L14.6253 21.8896L14.0528 22.0965ZM13.7828 21.8257L13.4614 22.3444L13.4694 22.3493L13.4776 22.354L13.7828 21.8257ZM13.2797 21.7536L13.1521 21.1621L13.0547 21.1843L12.9691 21.2365L13.2797 21.7536ZM11.5566 24.8665L10.9752 24.702L10.9742 24.7057L11.5566 24.8665ZM9.7672 28.0098L9.88535 28.6034L9.98204 28.5829L10.0677 28.5329L9.7672 28.0098ZM9.47665 27.9906L9.09101 28.4637L9.11117 28.4801L9.13268 28.4946L9.47665 27.9906ZM9.27879 27.946L9.18588 27.3476L9.15599 27.3526L9.12671 27.3606L9.27879 27.946ZM9.12925 28.0851L9.70745 28.2601L9.70775 28.2591L9.12925 28.0851ZM9.13491 28.3418L8.54859 28.5037L8.54864 28.5039L9.13491 28.3418ZM9.65346 29.0369L9.28422 29.5229L9.28424 29.5229L9.65346 29.0369ZM10.6833 29.2238L10.8015 29.8174L10.8318 29.8109L10.8613 29.8015L10.6833 29.2238ZM11.9073 28.0298L12.4527 28.2877L12.4549 28.283L11.9073 28.0298ZM12.6333 25.8892L13.0305 25.4256L12.2729 24.778L12.0432 25.7577L12.6333 25.8892ZM13.2085 26.1877L13.0388 26.7724L13.0474 26.7748L13.0562 26.777L13.2085 26.1877ZM13.9835 26.1612L14.1204 26.7505L14.1419 26.7452L14.163 26.7384L13.9835 26.1612ZM16.0466 24.4313L16.5569 24.7523L16.5587 24.7494L16.0466 24.4313ZM16.6091 21.6711L17.2034 21.5434L17.1999 21.5261L17.1954 21.509L16.6091 21.6711ZM18.145 26.0598L18.2301 26.6595L18.2421 26.6576L18.2541 26.6553L18.145 26.0598ZM18.9591 25.2167L18.4602 24.8784L18.4573 24.8827L18.9591 25.2167ZM17.9625 25.8848L17.3565 25.9101L17.3574 25.9423L17.3617 25.9742L17.9625 25.8848ZM18.6272 23.8455L19.167 24.1148L19.1689 24.1111L18.6272 23.8455ZM20.0224 22.2431L19.9375 21.6434L19.8811 21.6521L19.8271 21.6712L20.0224 22.2431ZM20.2656 22.3251L20.679 21.876L20.6656 21.8637L20.6514 21.8521L20.2656 22.3251ZM20.4143 22.6129L21.0151 22.5239L21.0125 22.5045L21.0086 22.4853L20.4143 22.6129ZM20.4223 22.6715L19.8215 22.7605L19.8216 22.7617L20.4223 22.6715ZM20.4183 22.7318L20.9611 22.995L20.9793 22.958L20.9925 22.919L20.4183 22.7318ZM20.2265 23.1201L20.7549 23.4107L20.7625 23.3972L20.7693 23.3833L20.2265 23.1201ZM22.6379 24.6787L22.1426 24.3351L21.9479 24.6137L22.0798 24.923L22.6379 24.6787ZM23.1484 23.8984L22.664 23.5399L22.6471 23.5625L22.6324 23.5865L23.1484 23.8984ZM22.7978 25.0152L22.2611 25.3044L22.2662 25.3136L22.7978 25.0152ZM23.4953 25.5416L23.4846 26.1484L23.5459 26.1487L23.6063 26.1367L23.4953 25.5416ZM24.1072 24.5257L24.7097 24.5862L24.7106 24.5767L24.1072 24.5257ZM24.2067 22.5509L24.8129 22.5485L24.8286 20.7872L23.7324 22.1791L24.2067 22.5509ZM23.6771 23.2026L23.2135 22.8176L23.2065 22.8259L23.1999 22.8345L23.6771 23.2026ZM38.1196 24.2676L37.7177 24.7271L38.2 25.1481L38.5969 24.6354L38.1196 24.2676ZM38.5816 23.5321L38.0434 23.2596L38.0397 23.267L38.0361 23.2745L38.5816 23.5321ZM37.6549 23.5697L38.228 23.3643L38.2243 23.3537L38.2203 23.3433L37.6549 23.5697ZM37.5405 22.7834L36.9385 22.7195L36.9384 22.7206L37.5405 22.7834ZM37.5733 22.6072L38.1589 22.7568L38.1596 22.754L37.5733 22.6072ZM37.6273 22.4567L37.2514 21.9855L37.1403 22.0747L37.0796 22.2035L37.6273 22.4567ZM37.9177 22.2555L38.2163 22.7797L38.2167 22.7794L37.9177 22.2555ZM38.1999 22.125L38.2807 21.5227L38.1428 21.5059L38.0106 21.5511L38.1999 22.125ZM38.7061 22.3608L39.2135 22.0221L39.2016 22.0041L39.1885 21.987L38.7061 22.3608ZM38.8057 22.8592L38.2035 22.7962L38.2035 22.7964L38.8057 22.8592ZM36.2632 25.5074L36.2022 26.1118L36.2024 26.1119L36.2632 25.5074ZM36.9112 25.3499L36.6476 24.8069L36.6406 24.8103L36.6337 24.814L36.9112 25.3499ZM35.9668 25.3499L36.4917 25.0395L36.4752 25.0112L36.4557 24.9848L35.9668 25.3499ZM35.903 24.9626L35.3029 24.884L35.3018 24.892L35.3008 24.9L35.903 24.9626ZM36.269 24.005L35.7515 23.6956L35.7484 23.7008L36.269 24.005ZM37.0134 23.0211L37.6156 23.0831L37.8263 21.2586L36.5716 22.6113L37.0134 23.0211ZM37.008 23.0683L37.6101 23.1311L37.6102 23.1302L37.008 23.0683ZM37.0987 24.0543L36.5184 24.2376L36.52 24.2427L37.0987 24.0543ZM37.5844 24.8725L37.9955 25.3132L38.4539 24.884L38.0181 24.443L37.5844 24.8725ZM29.3266 19.651C29.2981 19.6509 29.2983 19.6472 29.3166 19.6533C29.3378 19.6604 29.3755 19.6784 29.4125 19.7161L28.5421 20.5722C28.7686 20.8029 29.0638 20.8637 29.3062 20.8646L29.3266 19.651ZM29.7397 19.4563C29.6519 19.5521 29.516 19.6314 29.27 19.6534L29.3627 20.8622C29.8515 20.8184 30.2948 20.6346 30.6286 20.2702L29.7397 19.4563ZM29.8857 19.1552C29.8851 19.2176 29.8623 19.3174 29.7323 19.4645L30.636 20.2619C30.9115 19.9501 31.0942 19.5761 31.0981 19.1507L29.8857 19.1552ZM29.8946 19.2356C29.9074 19.2493 29.9051 19.2506 29.8993 19.2377C29.8927 19.2233 29.8864 19.2011 29.8858 19.1751L31.098 19.1308C31.0909 18.8334 30.9597 18.5874 30.7852 18.4006L29.8946 19.2356ZM29.9322 19.2787C29.958 19.2787 29.9618 19.2825 29.9517 19.2788C29.9466 19.277 29.9396 19.2738 29.9316 19.2687C29.9236 19.2637 29.9166 19.258 29.9108 19.2523L30.769 18.384C30.5365 18.1538 30.2397 18.0652 29.9479 18.0651L29.9322 19.2787ZM29.6192 19.4676C29.6902 19.3714 29.7939 19.2985 30.001 19.2748L29.8791 18.069C29.3827 18.1257 28.9494 18.3455 28.6475 18.7543L29.6192 19.4676ZM29.4684 19.8326C29.4669 19.769 29.4891 19.6496 29.6248 19.4599L28.6419 18.7619C28.4051 19.093 28.2466 19.4692 28.2562 19.8769L29.4684 19.8326ZM29.4316 19.7365C29.4377 19.7433 29.4482 19.7577 29.4568 19.7792C29.4654 19.8008 29.4681 19.8201 29.4684 19.8327L28.2562 19.8768C28.2622 20.1323 28.3559 20.3647 28.523 20.5518L29.4316 19.7365ZM28.414 24.6385C28.305 24.7496 28.1944 24.8588 28.0822 24.9661L28.9143 25.8381C29.0357 25.7219 29.1555 25.6036 29.2735 25.4834L28.414 24.6385ZM29.405 25.3557C29.4125 25.3014 29.4228 25.2437 29.4361 25.1824L28.2514 24.9395C28.2321 25.0284 28.2162 25.1165 28.2041 25.2034L29.405 25.3557ZM29.4702 25.6189C29.4643 25.6117 29.4097 25.5325 29.4108 25.2744L28.1983 25.2847C28.1966 25.6753 28.2716 26.0807 28.5273 26.394L29.4702 25.6189ZM29.4392 25.6436C29.4499 25.6437 29.4625 25.6453 29.4755 25.649C29.4884 25.6526 29.4982 25.6572 29.5042 25.6607C29.5158 25.6674 29.5062 25.6654 29.4813 25.6329L28.5162 26.38C28.717 26.6416 29.0135 26.8509 29.4045 26.857L29.4392 25.6436ZM29.3337 25.6738C29.351 25.6635 29.3708 25.6551 29.3915 25.6498C29.412 25.6445 29.4286 25.6434 29.4393 25.6436L29.4044 26.857C29.5889 26.86 29.7739 26.8156 29.9429 26.7152L29.3337 25.6738ZM29.2193 25.7715C29.2186 25.773 29.2206 25.7679 29.2272 25.7589C29.234 25.7496 29.2442 25.7382 29.2581 25.7268L30.0185 26.6622C30.1623 26.5444 30.2636 26.3974 30.3309 26.2418L29.2193 25.7715ZM30.9565 23.6374C30.128 24.5175 29.5443 25.2136 29.2547 25.702L30.2954 26.3113C30.5077 25.9533 31.0036 25.3456 31.8339 24.4636L30.9565 23.6374ZM33.2344 21.4852C32.5568 22.0162 31.7963 22.7373 30.9546 23.6394L31.8358 24.4616C32.6526 23.5862 33.3648 22.9146 33.9742 22.4371L33.2344 21.4852ZM33.0352 23.9177C33.4012 23.2565 33.7465 22.7353 34.0695 22.3442L33.1391 21.5781C32.7525 22.0461 32.3657 22.6367 31.9764 23.3401L33.0352 23.9177ZM32.4732 25.4807C32.5094 25.0752 32.6806 24.5583 33.0352 23.9177L31.9764 23.34C31.5756 24.0641 31.3224 24.7509 31.2655 25.3883L32.4732 25.4807ZM32.516 25.6689C32.5084 25.6596 32.4707 25.6082 32.4754 25.444L31.2634 25.4249C31.2531 25.7825 31.3311 26.1447 31.5695 26.4396L32.516 25.6689ZM32.5667 25.6928C32.55 25.6925 32.5399 25.6908 32.5351 25.6898C32.5305 25.6887 32.5296 25.6881 32.5311 25.6888C32.5317 25.6891 32.5324 25.6894 32.533 25.6899C32.5337 25.6903 32.534 25.6905 32.5339 25.6905C32.5339 25.6904 32.5309 25.688 32.5255 25.681L31.56 26.4275C31.8013 26.7423 32.1465 26.9002 32.5321 26.9062L32.5667 25.6928ZM33.7206 25.0236C33.1815 25.5147 32.7881 25.68 32.526 25.6935L32.5727 26.9055C33.2514 26.8706 33.9087 26.4828 34.5305 25.9162L33.7206 25.0236ZM34.033 24.7316C33.9295 24.8307 33.8254 24.9281 33.7206 25.0236L34.5305 25.9162C34.6431 25.8136 34.7549 25.7091 34.8658 25.6028L34.033 24.7316ZM35.1745 25.6819C35.1057 25.5957 35.0448 25.4505 35.0552 25.1828L33.8436 25.1515C33.8252 25.6272 33.9307 26.0798 34.2231 26.4464L35.1745 25.6819ZM35.6713 25.8951C35.3874 25.8701 35.2519 25.7792 35.1748 25.6823L34.2228 26.4461C34.5509 26.8582 35.0234 27.0576 35.5492 27.1041L35.6713 25.8951ZM36.7392 25.6546C36.3564 25.8466 36.0002 25.9184 35.6609 25.8943L35.5595 27.1049C36.143 27.1464 36.7169 27.0163 37.2712 26.7383L36.7392 25.6546ZM37.8572 24.8181C37.508 25.1682 37.1315 25.4476 36.728 25.6604L37.2824 26.7325C37.8018 26.4586 38.2777 26.1031 38.7097 25.67L37.8572 24.8181ZM38.4985 24.6651C38.4823 24.6636 38.4591 24.6602 38.429 24.6532L38.1379 25.835C38.217 25.8535 38.2964 25.8669 38.3753 25.8739L38.4985 24.6651ZM39.1637 24.5301C38.8694 24.6488 38.6524 24.6786 38.4976 24.665L38.3761 25.874C38.7771 25.9092 39.1916 25.8214 39.6041 25.6551L39.1637 24.5301ZM40.1958 23.8586C39.7889 24.1986 39.4439 24.4145 39.1591 24.532L39.6087 25.6532C40.0486 25.4718 40.5016 25.174 40.9658 24.7861L40.1958 23.8586ZM40.0407 24.3861C40.0247 24.3667 40.0037 24.3317 39.9933 24.2836C39.9831 24.2363 39.9883 24.2002 39.9922 24.1845L41.1694 24.4602C41.2434 24.159 41.1831 23.8534 40.9806 23.6074L40.0407 24.3861ZM40.453 24.4806C40.3959 24.5024 40.303 24.5177 40.1997 24.4857C40.1039 24.456 40.0544 24.4026 40.0417 24.3873L40.9796 23.6062C40.8895 23.4972 40.7567 23.3832 40.572 23.326C40.3796 23.2663 40.1919 23.2871 40.034 23.3473L40.453 24.4806ZM39.7485 24.9392C40.0459 24.8112 40.3388 24.6183 40.6271 24.3789L39.8599 23.449C39.6329 23.6376 39.4404 23.757 39.2816 23.8253L39.7485 24.9392ZM38.887 25.1358C39.1779 25.1365 39.4685 25.0599 39.7488 24.9391L39.2814 23.8254C39.1055 23.9012 38.9835 23.9224 38.9058 23.9221L38.887 25.1358ZM38.8531 23.4309C38.7432 23.6748 38.5973 23.9213 38.4118 24.1706L39.381 24.8873C39.6141 24.574 39.8072 24.251 39.9573 23.9179L38.8531 23.4309ZM39.0418 22.8043C39.0205 22.9874 38.9621 23.1942 38.8552 23.4261L39.9551 23.9227C40.1066 23.5939 40.2074 23.2619 40.2461 22.9298L39.0418 22.8043ZM38.9442 22.2472C39.0328 22.4208 39.0656 22.6014 39.0419 22.8042L40.2461 22.9298C40.2972 22.4926 40.2235 22.072 40.0252 21.6837L38.9442 22.2472ZM38.6027 22.071C38.8323 22.1009 38.9077 22.1799 38.9504 22.259L40.019 21.6719C39.7581 21.188 39.3031 20.9363 38.7743 20.8675L38.6027 22.071ZM38.3491 22.0846C38.4265 22.0696 38.5182 22.0641 38.6277 22.0737L38.7492 20.8648C38.5407 20.8464 38.3345 20.8542 38.1329 20.8933L38.3491 22.0846ZM38.1519 22.1522C38.2003 22.1256 38.2642 22.1012 38.3494 22.0846L38.1325 20.8934C37.9384 20.9312 37.7513 20.9951 37.5776 21.0909L38.1519 22.1522ZM37.7916 22.2249L37.8037 22.226L37.9259 21.0171L37.9138 21.016L37.7916 22.2249ZM36.2274 23.113C36.9448 22.443 37.4747 22.2238 37.8391 22.2273L37.8662 21.0137C37.029 21.0058 36.2019 21.4876 35.4063 22.2306L36.2274 23.113ZM35.3378 24.2757C35.5365 23.874 35.8291 23.4857 36.2278 23.1125L35.4059 22.231C34.9143 22.691 34.5258 23.1962 34.2526 23.7484L35.3378 24.2757ZM34.5968 25.0333C34.7922 24.8603 35.0012 24.6608 35.2235 24.436L34.3669 23.5881C34.1595 23.798 33.9706 23.9778 33.8001 24.1288L34.5968 25.0333ZM33.5293 25.6744C33.6772 25.6663 33.7995 25.6141 33.8716 25.5787C33.9531 25.5387 34.032 25.4887 34.105 25.4375C34.2511 25.3349 34.4186 25.1952 34.6026 25.0282L33.7944 24.1339C33.6269 24.286 33.5029 24.3869 33.4175 24.4467C33.3747 24.4768 33.3529 24.4885 33.3487 24.4906C33.335 24.4973 33.3865 24.4677 33.4787 24.4626L33.5293 25.6744ZM32.7832 24.8914C32.7801 25.001 32.7911 25.1933 32.9139 25.3728C33.0623 25.5898 33.2904 25.6722 33.4867 25.6753L33.5213 24.4618C33.5708 24.4626 33.643 24.4723 33.7217 24.5104C33.8037 24.5502 33.8703 24.6099 33.9172 24.6785C33.9616 24.7434 33.98 24.8036 33.9879 24.841C33.9957 24.8781 33.9954 24.9032 33.9952 24.9098L32.7832 24.8914ZM33.2791 23.4253C33.0043 23.9606 32.8075 24.4602 32.7839 24.8738L33.9945 24.9274C34.0024 24.7879 34.0912 24.485 34.3561 23.9688L33.2791 23.4253ZM34.3474 21.7801C33.9173 22.3119 33.5591 22.8625 33.2756 23.4321L34.3596 23.962C34.5995 23.4799 34.9073 23.0046 35.2859 22.5364L34.3474 21.7801ZM34.2954 21.9293C34.3145 21.8617 34.3497 21.7927 34.4033 21.7318C34.4558 21.6719 34.5139 21.6337 34.5629 21.6105L35.0704 22.706C35.2478 22.6219 35.3997 22.4647 35.4615 22.2465L34.2954 21.9293ZM34.2993 21.9723C34.3005 21.9279 34.3118 21.8686 34.3447 21.807L35.4121 22.3689C35.4785 22.2448 35.5078 22.1148 35.5113 21.991L34.2993 21.9723ZM34.2066 21.8673C34.2638 21.9268 34.2883 21.9671 34.2975 21.9861C34.3054 22.0024 34.2986 21.9955 34.2993 21.9718L35.5113 21.9914C35.5229 21.5914 35.3203 21.2643 35.0855 21.02L34.2066 21.8673ZM33.8551 21.7288C34.0535 21.7419 34.1451 21.8008 34.1983 21.8585L35.0938 21.0287C34.7913 20.701 34.3874 20.5467 33.9504 20.5178L33.8551 21.7288ZM32.7352 22.6844C33.0882 22.345 33.3778 22.0989 33.6073 21.9358C33.7216 21.8545 33.813 21.7996 33.8832 21.7647C33.956 21.7286 33.988 21.7229 33.9869 21.7231L33.8185 20.5235C33.5072 20.5712 33.1956 20.749 32.9138 20.9493C32.6152 21.1615 32.2765 21.4534 31.901 21.8145L32.7352 22.6844ZM30.7733 24.7757C31.3592 24.0759 32.013 23.3788 32.7352 22.6844L31.9011 21.8144C31.1497 22.5368 30.4651 23.2664 29.8482 24.0032L30.7733 24.7757ZM30.5947 22.6428C30.2892 23.1187 30.0123 23.6155 29.7646 24.133L30.8569 24.6458C31.0826 24.1741 31.3347 23.722 31.6124 23.2894L30.5947 22.6428ZM31.467 21.4353C31.1858 21.7621 30.8944 22.1681 30.5922 22.6467L31.6149 23.2855C31.8962 22.8399 32.1518 22.4873 32.3813 22.2206L31.467 21.4353ZM31.369 21.7119C31.3702 21.6681 31.3796 21.6017 31.4151 21.5275C31.4523 21.4499 31.5086 21.384 31.5756 21.336L32.2728 22.3199C32.4929 22.1622 32.5752 21.9287 32.5809 21.7319L31.369 21.7119ZM31.3205 21.7394C31.3409 21.7605 31.3554 21.7778 31.3654 21.7911C31.3754 21.8044 31.3799 21.8123 31.3812 21.8148C31.3838 21.8196 31.3707 21.7968 31.3691 21.7514L32.5808 21.6924C32.5686 21.3521 32.383 21.0825 32.1985 20.891L31.3205 21.7394ZM31.2043 21.6854C31.2317 21.6883 31.2765 21.6998 31.3443 21.7627L32.1747 20.8677C31.9476 20.657 31.6703 20.5131 31.3486 20.4787L31.2043 21.6854ZM30.4043 23.0851C30.7149 22.5863 30.9727 22.2166 31.1791 21.9653C31.2823 21.8396 31.3645 21.7536 31.4264 21.6985C31.4942 21.6382 31.51 21.6399 31.4787 21.6514L31.0742 20.5126C30.8981 20.5773 30.7475 20.6892 30.6274 20.7961C30.5014 20.9082 30.3742 21.0463 30.2465 21.2018C29.9911 21.5128 29.7009 21.9335 29.3776 22.4529L30.4043 23.0851ZM29.9569 23.8658C30.0843 23.6221 30.2336 23.3614 30.4054 23.0834L29.3765 22.4547C29.1916 22.7538 29.0273 23.0402 28.8843 23.3138L29.9569 23.8658ZM28.9448 24.957C29.2371 24.6883 29.5478 24.3628 29.8761 23.9842L28.965 23.1953C28.6581 23.5491 28.3802 23.8389 28.131 24.0679L28.9448 24.957ZM27.8185 25.6498C28.0592 25.6262 28.2714 25.4979 28.4141 25.3991C28.5784 25.2855 28.7584 25.1327 28.9504 24.9518L28.1254 24.0731C27.9557 24.233 27.8262 24.3395 27.7335 24.4036C27.6875 24.4355 27.6598 24.4503 27.6484 24.4557C27.6335 24.4628 27.6594 24.4475 27.7154 24.442L27.8185 25.6498ZM27.0366 24.9081C27.0391 25.0179 27.0602 25.2115 27.1954 25.3854C27.3587 25.5955 27.5941 25.6613 27.7881 25.652L27.7458 24.4398C27.7942 24.4375 27.8666 24.4424 27.9477 24.4753C28.0325 24.5096 28.1038 24.5654 28.1559 24.6324C28.205 24.6956 28.2273 24.7559 28.2375 24.7937C28.2475 24.8312 28.2486 24.8571 28.2487 24.864L27.0366 24.9081ZM27.6018 23.2301C27.2802 23.8585 27.0506 24.431 27.0367 24.8748L28.2486 24.8974C28.253 24.7566 28.3553 24.4057 28.6795 23.7725L27.6018 23.2301ZM28.7254 21.4106C28.3056 21.9724 27.9306 22.58 27.6005 23.2328L28.6808 23.7698C28.9802 23.1778 29.3179 22.6314 29.693 22.1294L28.7254 21.4106ZM28.6488 21.6832C28.6477 21.638 28.654 21.5705 28.686 21.4945C28.7193 21.4154 28.7718 21.348 28.8345 21.2978L29.5839 22.2422C29.7926 22.0753 29.8656 21.8402 29.861 21.6395L28.6488 21.6832ZM28.592 21.7657C28.623 21.7913 28.6463 21.8126 28.6633 21.8297C28.6806 21.847 28.689 21.8575 28.6917 21.8611C28.6946 21.865 28.6882 21.8573 28.6794 21.838C28.6705 21.8185 28.657 21.7819 28.6518 21.7307L29.858 21.592C29.8375 21.3917 29.7463 21.2336 29.6656 21.1256C29.5817 21.0136 29.4776 20.9137 29.3702 20.8252L28.592 21.7657ZM28.4355 21.6772C28.4484 21.6777 28.495 21.6819 28.581 21.7564L29.3813 20.8345C29.1392 20.6247 28.8444 20.4795 28.5038 20.4647L28.4355 21.6772ZM27.6662 23.0614C27.9658 22.5596 28.2134 22.1889 28.4104 21.9379C28.5091 21.8124 28.5866 21.7277 28.6438 21.6746C28.7081 21.615 28.7159 21.6241 28.6724 21.6401L28.2669 20.5017C28.088 20.5676 27.939 20.6843 27.8253 20.7898C27.7045 20.902 27.5828 21.0403 27.461 21.1955C27.2171 21.5059 26.9387 21.9274 26.6275 22.4488L27.6662 23.0614ZM27.2616 23.8074C27.376 23.5685 27.5103 23.3205 27.6651 23.0633L26.6286 22.4468C26.4558 22.734 26.3025 23.0166 26.1694 23.2944L27.2616 23.8074ZM26.5945 24.6203C26.7952 24.4003 26.9926 24.1691 27.1867 23.9266L26.2443 23.1752C26.0662 23.3977 25.886 23.6086 25.7039 23.8081L26.5945 24.6203ZM25.6995 25.4305C25.9886 25.2111 26.2829 24.9436 26.5827 24.6328L25.7157 23.7956C25.449 24.0721 25.2021 24.2944 24.9748 24.4669L25.6995 25.4305ZM24.7906 23.4459C24.8105 24.0533 24.79 24.5223 24.7379 24.8648L25.9365 25.0326C26.0044 24.5867 26.0235 24.0353 26.0024 23.3905L24.7906 23.4459ZM25.17 21.3907C24.8845 22.0464 24.7581 22.7366 24.7909 23.4537L26.0021 23.3827C25.9778 22.8491 26.0708 22.3452 26.2806 21.8634L25.17 21.3907ZM25.1819 21.5297C25.1775 21.4676 25.1869 21.3985 25.2147 21.3313C25.2418 21.2659 25.2788 21.2204 25.3077 21.1926L26.1429 22.0615C26.3026 21.9075 26.4097 21.6858 26.3914 21.4283L25.1819 21.5297ZM25.0709 21.5429C25.1535 21.5969 25.1932 21.6353 25.2085 21.6533C25.223 21.6703 25.2 21.6502 25.1898 21.5931L26.3835 21.3649C26.3121 20.9642 26.0064 20.6964 25.7432 20.5243L25.0709 21.5429ZM24.7406 21.4209C24.8105 21.4204 24.9176 21.4426 25.0709 21.5428L25.7433 20.5243C25.4433 20.3282 25.108 20.2044 24.7461 20.2074L24.7406 21.4209ZM24.8323 21.408C24.8222 21.4123 24.806 21.4172 24.7857 21.4189L24.701 20.2094C24.5852 20.219 24.4747 20.2477 24.3714 20.2915L24.8323 21.408ZM24.9984 21.281C24.9776 21.3112 24.9352 21.3583 24.8646 21.3932L24.3391 20.3063C24.191 20.3795 24.0808 20.4877 24.0023 20.6019L24.9984 21.281ZM24.9538 21.3667C24.9666 21.3391 24.9773 21.3181 24.9856 21.3028C24.9942 21.2872 24.9986 21.2806 24.9986 21.2806L24.002 20.6023C23.9461 20.6838 23.8978 20.7757 23.8558 20.8659L24.9538 21.3667ZM24.0552 22.7585C24.4172 22.2438 24.7098 21.7949 24.9291 21.4143L23.8805 20.8184C23.6865 21.1552 23.4167 21.5709 23.0667 22.0685L24.0552 22.7585ZM23.3211 23.7795C23.5147 23.5176 23.7595 23.1773 24.0545 22.7595L23.0673 22.0676C22.7751 22.4815 22.536 22.8138 22.3498 23.0656L23.3211 23.7795ZM23.2741 23.8225C23.2306 23.879 23.1757 23.925 23.1147 23.9575L22.5562 22.8875C22.4637 22.9368 22.3823 23.0051 22.3174 23.0894L23.2741 23.8225ZM22.8998 24.3712C23.0305 24.1882 23.1641 23.9928 23.3008 23.7852L22.2908 23.1267C22.1618 23.3228 22.0369 23.5052 21.9164 23.6741L22.8998 24.3712ZM21.7637 23.9657C21.783 24.0433 21.8033 24.1199 21.8247 24.1953L22.9915 23.8501C22.9738 23.7878 22.9569 23.7241 22.9408 23.6591L21.7637 23.9657ZM22.4132 24.3124C22.3563 24.3265 22.2644 24.3387 22.1558 24.3125C22.0399 24.2844 21.9425 24.2215 21.8723 24.142C21.7528 24.0066 21.7478 23.8668 21.7475 23.8634L22.957 23.7613C22.9516 23.6868 22.9311 23.4968 22.7855 23.3319C22.5886 23.1088 22.318 23.0892 22.1347 23.1349L22.4132 24.3124ZM22.5099 24.2798C22.5329 24.2486 22.5394 24.2465 22.5264 24.2569C22.5132 24.2674 22.4623 24.3046 22.3756 24.3205L22.1722 23.1268C21.8548 23.1849 21.6499 23.4153 21.5384 23.5662L22.5099 24.2798ZM22.4903 24.3001C22.4903 24.3029 22.4901 24.3061 22.4895 24.3092C22.489 24.3122 22.4885 24.3139 22.4885 24.3139C22.4885 24.3138 22.4894 24.3113 22.4922 24.3062C22.495 24.3011 22.4998 24.2933 22.5076 24.2829L21.5407 23.5631C21.3786 23.7795 21.274 24.0398 21.2779 24.3317L22.4903 24.3001ZM22.5247 24.5086C22.5062 24.4254 22.4944 24.3443 22.4888 24.2651L21.2793 24.3668C21.2893 24.5074 21.31 24.6474 21.3409 24.7865L22.5247 24.5086ZM22.1905 25.2753C22.2596 25.1969 22.3294 25.1145 22.3998 25.0284L21.4658 24.2667C21.4041 24.3421 21.344 24.4129 21.2856 24.4792L22.1905 25.2753ZM21.1353 26.0808C21.3702 26.0321 21.5677 25.884 21.6998 25.772C21.852 25.6429 22.0167 25.4733 22.1913 25.2743L21.2848 24.4801C21.1299 24.6566 21.0101 24.7763 20.9228 24.8504C20.8795 24.8871 20.8527 24.9053 20.8411 24.9123C20.826 24.9214 20.8495 24.9039 20.9041 24.8926L21.1353 26.0808ZM20.4307 25.8033C20.5027 25.9072 20.6088 25.999 20.748 26.0513C20.8816 26.1015 21.0077 26.1012 21.1034 26.0866L20.9361 24.8868C20.9919 24.8783 21.0832 24.8755 21.187 24.9145C21.2963 24.9556 21.3775 25.0274 21.4296 25.1026L20.4307 25.8033ZM20.2779 25.4317C20.2939 25.5495 20.3484 25.7851 20.5705 25.946L21.2898 24.9599C21.3745 25.0212 21.4221 25.0948 21.4472 25.1486C21.471 25.1998 21.4775 25.2393 21.4794 25.2529L20.2779 25.4317ZM20.6552 23.7139C20.4051 24.3671 20.2393 24.9573 20.2743 25.398L21.483 25.2866C21.4721 25.1491 21.5346 24.7939 21.7867 24.1354L20.6552 23.7139ZM21.5827 21.7984C21.2287 22.3954 20.92 23.0329 20.6563 23.7109L21.7855 24.1384C22.026 23.5201 22.3055 22.9438 22.6233 22.408L21.5827 21.7984ZM21.5357 22.0814C21.5295 22.0359 21.5282 21.9673 21.5521 21.8872C21.577 21.8038 21.6227 21.7304 21.6806 21.6734L22.5254 22.533C22.7173 22.344 22.7644 22.1008 22.737 21.9011L21.5357 22.0814ZM21.4888 22.1692C21.5224 22.1911 21.5478 22.2097 21.5666 22.2247C21.5857 22.2399 21.5952 22.2494 21.5983 22.2527C21.6016 22.2562 21.5943 22.2493 21.5835 22.2311C21.5725 22.2126 21.5548 22.1776 21.5438 22.1271L22.729 21.8554C22.6864 21.6591 22.5781 21.5125 22.4862 21.4149C22.3907 21.3133 22.2765 21.2259 22.1603 21.1501L21.4888 22.1692ZM21.3112 22.1C21.3272 22.099 21.3822 22.0996 21.489 22.1693L22.1601 21.15C21.8943 20.9766 21.5862 20.8673 21.2495 20.8889L21.3112 22.1ZM21.5198 22.0633C21.5535 22.0193 21.5674 22.0082 21.5615 22.0133C21.5575 22.0166 21.5412 22.0301 21.5127 22.0456C21.4843 22.0609 21.434 22.0835 21.3649 22.0942L21.1958 20.8947C21.0023 20.9245 20.8619 21.0259 20.7842 21.0919C20.6984 21.1647 20.6243 21.2503 20.5617 21.3319L21.5198 22.0633ZM21.2272 22.507C21.3461 22.3085 21.4434 22.163 21.5201 22.0629L20.5614 21.3323C20.4454 21.4837 20.3211 21.6729 20.1894 21.8929L21.2272 22.507ZM20.0487 22.1992C20.0828 22.2292 20.1018 22.2602 20.1116 22.3147L21.305 22.0851C21.2485 21.7702 21.0969 21.4952 20.8554 21.2829L20.0487 22.1992ZM19.8843 22.2158C19.9827 22.2034 20.0387 22.2085 20.0637 22.2135C20.0848 22.2177 20.0712 22.219 20.0485 22.199L20.8556 21.283C20.5314 20.9978 20.1097 20.966 19.7477 21.0118L19.8843 22.2158ZM17.9367 23.8859C18.496 22.9185 19.1723 22.3931 19.9521 22.2033L19.6799 21.0243C18.5012 21.3112 17.5755 22.1013 16.8892 23.2882L17.9367 23.8859ZM17.1933 26.4069C17.1344 25.7341 17.3492 24.9021 17.9367 23.8859L16.8892 23.2882C16.231 24.4267 15.8967 25.5149 15.9854 26.5282L17.1933 26.4069ZM17.302 26.6544C17.2671 26.6231 17.2138 26.5538 17.1901 26.3787L15.9885 26.5564C16.0402 26.9394 16.1906 27.2978 16.487 27.5633L17.302 26.6544ZM17.5247 26.6599C17.4189 26.6736 17.3557 26.6676 17.3236 26.6606C17.2958 26.6545 17.2963 26.6491 17.3045 26.6566L16.4845 27.5611C16.8221 27.8669 17.2631 27.9154 17.6647 27.8635L17.5247 26.6599ZM18.2333 26.1217C17.9443 26.4834 17.6917 26.6262 17.4865 26.6661L17.703 27.8573C18.286 27.7439 18.7734 27.3767 19.1765 26.8721L18.2333 26.1217ZM19.1132 24.7838C18.8562 25.2806 18.5651 25.7226 18.241 26.1122L19.1687 26.8816C19.5544 26.418 19.8939 25.9003 20.1884 25.3307L19.1132 24.7838ZM20.1759 25.682C20.1896 25.5195 20.213 25.3453 20.2471 25.1592L19.0545 24.9554C19.0141 25.1763 18.9849 25.39 18.9677 25.5961L20.1759 25.682ZM20.1808 26.0588C20.1666 25.9549 20.1634 25.8304 20.1759 25.6823L18.9677 25.5959C18.9491 25.8167 18.9513 26.0315 18.9792 26.2374L20.1808 26.0588ZM20.2435 26.2591C20.2431 26.2588 20.241 26.2567 20.2374 26.2516C20.2338 26.2463 20.2281 26.2369 20.2215 26.222C20.208 26.1913 20.1917 26.1397 20.1808 26.059L18.9792 26.2371C19.024 26.5682 19.1441 26.9009 19.4067 27.1481L20.2435 26.2591ZM20.2321 26.2416C20.2177 26.2438 20.21 26.2437 20.208 26.2436C20.2063 26.2435 20.2093 26.2435 20.2155 26.2453C20.2219 26.2471 20.2288 26.2499 20.2351 26.2535C20.2412 26.257 20.2442 26.2598 20.244 26.2596L19.4062 27.1477C19.6871 27.4127 20.0442 27.4962 20.4018 27.441L20.2321 26.2416ZM21.3478 25.3681C20.8585 25.947 20.4708 26.1875 20.1934 26.2489L20.4405 27.4337C21.1058 27.2865 21.7124 26.8038 22.2692 26.145L21.3478 25.3681ZM21.6984 24.9365C21.5842 25.0827 21.4674 25.2266 21.3478 25.3681L22.2692 26.145C22.3993 25.9911 22.5263 25.8347 22.6504 25.6757L21.6984 24.9365ZM22.9533 25.4179C22.8585 25.2826 22.7797 25.1517 22.7154 25.0253L21.6333 25.5868C21.7254 25.7679 21.8339 25.9467 21.9575 26.1231L22.9533 25.4179ZM23.9156 25.9016C23.4728 25.9048 23.1785 25.7473 22.9572 25.4235L21.9537 26.1175C22.411 26.7866 23.0877 27.121 23.9085 27.1152L23.9156 25.9016ZM23.9056 25.9007L23.8698 25.9037L23.9544 27.1132L23.9902 27.1102L23.9056 25.9007ZM25.2333 25.1549C24.6799 25.6539 24.2333 25.8635 23.8877 25.9025L24.0081 27.1084C24.71 27.0293 25.3887 26.6377 26.0384 26.0519L25.2333 25.1549ZM25.77 24.6267C25.5925 24.8163 25.4136 24.9923 25.2333 25.1549L26.0383 26.0519C26.2461 25.8647 26.4499 25.664 26.65 25.4502L25.77 24.6267ZM26.7555 25.5441C26.7638 25.4145 26.7806 25.2801 26.8062 25.1408L25.6138 24.936C25.5801 25.1197 25.5571 25.3015 25.5455 25.4813L26.7555 25.5441ZM26.8071 25.7199C26.8012 25.7131 26.7605 25.6616 26.7566 25.4907L25.5444 25.5347C25.5525 25.8841 25.642 26.2372 25.8837 26.5183L26.8071 25.7199ZM26.8482 25.7251C26.8064 25.7271 26.7959 25.7204 26.803 25.7233C26.8062 25.7246 26.8103 25.7268 26.8142 25.7297C26.818 25.7325 26.8188 25.7339 26.8169 25.7316L25.8739 26.5066C26.1357 26.8274 26.5049 26.9554 26.8893 26.9374L26.8482 25.7251ZM28.0792 24.9691C27.5421 25.4901 27.1209 25.6941 26.8106 25.728L26.9269 26.9345C27.6264 26.8579 28.2915 26.4424 28.9173 25.8352L28.0792 24.9691ZM12.8202 20.6362C13.839 20.3817 14.5611 20.4401 15.061 20.6911L15.6158 19.6049C14.7609 19.1756 13.7111 19.1667 12.5409 19.4589L12.8202 20.6362ZM10.1446 22.1496C10.8831 21.4507 11.7786 20.9425 12.8443 20.6297L12.5168 19.4654C11.2786 19.829 10.208 20.4301 9.31761 21.2728L10.1446 22.1496ZM9.30624 23.8387C9.22459 23.3976 9.3988 22.8469 10.1419 22.1521L9.32032 21.2703C8.4307 22.1021 7.92404 23.0487 8.11392 24.0746L9.30624 23.8387ZM9.47761 24.0384C9.42953 24.0185 9.35212 23.9697 9.28855 23.7676L8.13161 24.1457C8.27241 24.5932 8.5482 24.9729 9.00174 25.1607L9.47761 24.0384ZM9.76218 24.0765C9.72832 24.0857 9.63665 24.0964 9.45505 24.0296L9.02431 25.1695C9.35554 25.2913 9.71349 25.3432 10.0657 25.2475L9.76218 24.0765ZM9.64668 24.164C9.68505 24.1205 9.722 24.097 9.742 24.0862C9.76153 24.0757 9.77049 24.0743 9.76168 24.0767L10.0662 25.2474C10.2089 25.2085 10.4006 25.1311 10.5508 24.9609L9.64668 24.164ZM9.57454 24.7001C9.5485 24.653 9.51743 24.5718 9.52197 24.4657C9.52662 24.3572 9.56656 24.2706 9.60691 24.214L10.5906 24.9108C10.6672 24.8035 10.7264 24.6646 10.7334 24.5021C10.7402 24.3421 10.6945 24.2054 10.6368 24.1013L9.57454 24.7001ZM10.3444 22.096C9.71334 22.8764 9.34292 23.7063 9.51172 24.5299L10.6996 24.2714C10.6393 23.977 10.741 23.5224 11.2829 22.8522L10.3444 22.096ZM13.1499 20.3017C11.9736 20.6665 11.0232 21.2562 10.3443 22.0962L11.283 22.8521C11.7767 22.2414 12.499 21.7695 13.4951 21.4605L13.1499 20.3017ZM14.9758 20.263C14.4583 20.0747 13.8345 20.1239 13.1779 20.2937L13.467 21.4685C14.0339 21.3219 14.3701 21.3393 14.5485 21.4042L14.9758 20.263ZM16.0125 21.4007C15.8679 20.8526 15.5079 20.4567 14.9757 20.263L14.5485 21.4042C14.7119 21.4637 14.7949 21.5542 14.8399 21.7247L16.0125 21.4007ZM15.4561 23.9714C15.9628 23.1296 16.1878 22.2738 16.0208 21.4365L14.8316 21.6889C14.9222 22.1426 14.8216 22.6872 14.4196 23.355L15.4561 23.9714ZM13.3656 25.7256C14.244 25.4362 14.9388 24.8309 15.4561 23.9715L14.4196 23.355C14.0279 24.0059 13.5526 24.3912 12.9999 24.5732L13.3656 25.7256ZM12.6484 25.7723C12.8884 25.8287 13.1335 25.7896 13.3348 25.7348L13.0307 24.564C12.976 24.5789 12.9408 24.5842 12.9219 24.5858C12.9022 24.5874 12.9115 24.584 12.9398 24.5906L12.6484 25.7723ZM12.7135 23.0412C12.5327 23.6271 12.3621 24.3019 12.2011 25.0631L13.3871 25.2998C13.5426 24.5649 13.7044 23.9275 13.8716 23.3856L12.7135 23.0412ZM13.7528 21.6642C13.4572 21.7714 13.2399 21.9848 13.0826 22.2181C12.9261 22.4503 12.807 22.7332 12.7127 23.0439L13.8724 23.383C13.9463 23.1396 14.0213 22.9824 14.0849 22.8882C14.1476 22.7952 14.1763 22.7961 14.1526 22.8048L13.7528 21.6642ZM13.529 21.8811C13.6499 21.675 13.8431 21.6366 13.8983 21.6309L14.0071 22.8381C14.1589 22.8225 14.4176 22.7498 14.5727 22.4854L13.529 21.8811ZM13.4665 22.2584C13.4622 22.2421 13.4524 22.2002 13.4538 22.1411C13.4551 22.0804 13.4688 21.9841 13.5285 21.8819L14.5731 22.4845C14.7107 22.2492 14.6612 22.0185 14.6391 21.9347L13.4665 22.2584ZM13.4776 22.354C13.497 22.365 13.5103 22.3739 13.5188 22.3801C13.5274 22.3864 13.5297 22.3891 13.5279 22.3872C13.5246 22.384 13.499 22.3572 13.4803 22.3035L14.6253 21.8896C14.5216 21.5931 14.2851 21.4099 14.0879 21.2975L13.4776 22.354ZM13.4072 22.3452C13.4374 22.3383 13.4508 22.3401 13.4524 22.3403C13.4536 22.3405 13.4541 22.3406 13.4545 22.3408C13.455 22.341 13.4572 22.3418 13.4614 22.3444L14.1042 21.3071C13.809 21.1262 13.4775 21.0878 13.1521 21.1621L13.4072 22.3452ZM12.138 25.031C12.3771 24.2182 12.6288 23.5861 12.8864 23.1206C13.1475 22.6489 13.3905 22.3925 13.5902 22.2708L12.9691 21.2365C12.513 21.5146 12.1408 21.9771 11.8276 22.543C11.5109 23.1151 11.229 23.8395 10.9752 24.702L12.138 25.031ZM10.0677 28.5329C10.5502 28.2511 10.9442 27.7854 11.2727 27.2083C11.6033 26.6276 11.8895 25.8955 12.1391 25.0273L10.9742 24.7057C10.7405 25.5184 10.4869 26.1508 10.2211 26.6178C9.95317 27.0884 9.69401 27.3539 9.46674 27.4866L10.0677 28.5329ZM9.13268 28.4946C9.40451 28.6786 9.71406 28.6396 9.88535 28.6034L9.64905 27.4162C9.61717 27.4229 9.61829 27.419 9.64251 27.4206C9.66745 27.4223 9.73947 27.4316 9.82062 27.4865L9.13268 28.4946ZM9.37169 28.5444C9.34716 28.5485 9.30286 28.5518 9.24703 28.5392C9.1889 28.5261 9.13499 28.4994 9.09101 28.4637L9.86229 27.5174C9.65366 27.348 9.40512 27.3107 9.18588 27.3476L9.37169 28.5444ZM9.70775 28.2591C9.69045 28.3146 9.65491 28.381 9.59307 28.4385C9.53272 28.4947 9.47087 28.5205 9.43087 28.5314L9.12671 27.3606C8.86341 27.4323 8.64069 27.6227 8.55076 27.911L9.70775 28.2591ZM9.72122 28.18C9.71339 28.1503 9.73014 28.1877 9.70745 28.2601L8.55106 27.9101C8.48328 28.1261 8.50406 28.3348 8.54859 28.5037L9.72122 28.18ZM10.0227 28.5509C9.81372 28.393 9.74352 28.2644 9.72118 28.1798L8.54864 28.5039C8.65952 28.9239 8.93496 29.259 9.28422 29.5229L10.0227 28.5509ZM10.5652 28.6302C10.2949 28.6874 10.1379 28.6379 10.0227 28.5509L9.28424 29.5229C9.72704 29.8575 10.2567 29.9327 10.8015 29.8174L10.5652 28.6302ZM11.3619 27.7719C11.1071 28.3006 10.8104 28.5483 10.5053 28.646L10.8613 29.8015C11.5784 29.5718 12.098 29.0236 12.4527 28.2877L11.3619 27.7719ZM12.0432 25.7577C11.8645 26.52 11.6354 27.1917 11.3596 27.7766L12.4549 28.283C12.7733 27.6078 13.0284 26.8524 13.2235 26.0206L12.0432 25.7577ZM13.3782 25.603C13.2302 25.5617 13.1181 25.5005 13.0305 25.4256L12.2362 26.3527C12.4688 26.5516 12.7404 26.6891 13.0388 26.7724L13.3782 25.603ZM13.8467 25.5718C13.6167 25.6282 13.4616 25.6233 13.3608 25.5984L13.0562 26.777C13.3978 26.8613 13.7595 26.8389 14.1204 26.7505L13.8467 25.5718ZM15.5363 24.1102C15.0269 24.9114 14.4451 25.3769 13.8041 25.5839L14.163 26.7384C15.1381 26.4235 15.9317 25.7356 16.5569 24.7523L15.5363 24.1102ZM16.0148 21.7989C16.1709 22.5705 16.0249 23.3322 15.5345 24.1131L16.5587 24.7494C17.1983 23.7309 17.4276 22.6525 17.2034 21.5434L16.0148 21.7989ZM15.0612 20.6912C15.5867 20.9547 15.8899 21.33 16.0228 21.8332L17.1954 21.509C16.9688 20.6511 16.4251 20.0108 15.6156 19.6048L15.0612 20.6912ZM18.2541 26.6553C18.546 26.5981 18.7744 26.3954 18.9245 26.2399C19.0961 26.0622 19.2752 25.8273 19.4609 25.5507L18.4573 24.8827C18.2906 25.1309 18.1577 25.299 18.0579 25.4023C18.0084 25.4536 17.977 25.4785 17.9634 25.4879C17.947 25.4992 17.973 25.4767 18.036 25.4644L18.2541 26.6553ZM17.3617 25.9742C17.379 26.1016 17.4292 26.3059 17.5994 26.4691C17.7961 26.6575 18.0415 26.6887 18.2301 26.6595L18.06 25.4602C18.1448 25.447 18.3079 25.4571 18.4438 25.5873C18.5002 25.6413 18.5299 25.6967 18.5448 25.7327C18.5593 25.7679 18.5627 25.7917 18.5632 25.7955L17.3617 25.9742ZM18.0875 23.5762C17.627 24.4834 17.3384 25.284 17.3565 25.9101L18.5685 25.8596C18.56 25.5657 18.7143 25.0068 19.167 24.1148L18.0875 23.5762ZM19.8271 21.6712C19.1035 21.9268 18.5452 22.6589 18.0856 23.58L19.1689 24.1111C19.6056 23.236 19.9776 22.8998 20.2176 22.815L19.8271 21.6712ZM20.6514 21.8521C20.483 21.7152 20.2361 21.5973 19.9375 21.6434L20.1072 22.8428C20.0446 22.8525 19.9871 22.8447 19.9427 22.8297C19.9016 22.8158 19.8809 22.7991 19.8798 22.7982L20.6514 21.8521ZM21.0086 22.4853C20.9648 22.2684 20.8663 22.0484 20.679 21.876L19.8521 22.7742C19.8346 22.7581 19.8242 22.7423 19.8192 22.7326C19.8148 22.724 19.8169 22.7247 19.8201 22.7405L21.0086 22.4853ZM21.0231 22.5825L21.0151 22.5239L19.8135 22.7019L19.8215 22.7605L21.0231 22.5825ZM20.9925 22.919C21.0346 22.7939 21.0359 22.6757 21.0229 22.5813L19.8216 22.7617C19.8151 22.714 19.8131 22.6363 19.844 22.5446L20.9925 22.919ZM20.7693 23.3833L20.9611 22.995L19.8754 22.4686L19.6837 22.8569L20.7693 23.3833ZM19.458 25.555C19.8262 25.0165 20.259 24.2995 20.7549 23.4107L19.6981 22.8295C19.211 23.7026 18.7986 24.3835 18.4602 24.8784L19.458 25.555ZM23.1331 25.0223C23.3179 24.7581 23.4949 24.4874 23.6644 24.2104L22.6324 23.5865C22.4761 23.8422 22.3128 24.0918 22.1426 24.3351L23.1331 25.0223ZM23.3345 24.726C23.2858 24.6339 23.2396 24.5368 23.1959 24.4344L22.0798 24.923C22.1359 25.0545 22.1963 25.1817 22.2611 25.3043L23.3345 24.726ZM23.506 24.9348C23.5045 24.9348 23.5042 24.9347 23.5047 24.9348C23.5052 24.9349 23.5056 24.935 23.5055 24.935C23.5053 24.9349 23.5038 24.9344 23.5008 24.9327C23.4977 24.9311 23.4927 24.928 23.4858 24.9228C23.4562 24.9005 23.3994 24.8436 23.3294 24.7167L22.2662 25.3136C22.5092 25.7542 22.9014 26.1456 23.4846 26.1484L23.506 24.9348ZM23.5048 24.4652C23.4753 24.7264 23.4225 24.8656 23.3845 24.9286C23.368 24.9561 23.3597 24.96 23.3654 24.9557C23.3681 24.9538 23.372 24.9513 23.3767 24.9493C23.3788 24.9483 23.3807 24.9476 23.3822 24.9472C23.3837 24.9467 23.3844 24.9465 23.3843 24.9466L23.6063 26.1367C23.9698 26.0643 24.243 25.8404 24.4208 25.5453C24.5868 25.2697 24.6703 24.9347 24.7096 24.5862L23.5048 24.4652ZM23.6004 22.5533C23.5943 23.2374 23.5618 23.8777 23.5038 24.4747L24.7106 24.5767C24.7724 23.9403 24.8065 23.2641 24.8129 22.5485L23.6004 22.5533ZM24.1407 23.5876C24.3423 23.3455 24.5226 23.1238 24.6809 22.9228L23.7324 22.1791C23.5827 22.3692 23.4098 22.5819 23.2135 22.8176L24.1407 23.5876ZM23.6328 24.257C23.8029 24.0286 23.9767 23.7998 24.1543 23.5706L23.1999 22.8345C23.0174 23.0699 22.8388 23.305 22.664 23.5399L23.6328 24.257ZM38.5969 24.6354C38.8101 24.3601 38.9882 24.0785 39.1271 23.7897L38.0361 23.2745C37.9396 23.4749 37.8098 23.6833 37.6422 23.8997L38.5969 24.6354ZM37.0819 23.7752C37.2112 24.1484 37.4232 24.47 37.7177 24.7271L38.5214 23.8081C38.39 23.6934 38.2922 23.5496 38.228 23.3643L37.0819 23.7752ZM36.9384 22.7206C36.8957 23.0855 36.9537 23.4468 37.0896 23.7962L38.2203 23.3433C38.1445 23.1486 38.1263 22.9861 38.1427 22.8463L36.9384 22.7206ZM36.9877 22.4576C36.9643 22.5454 36.9488 22.6334 36.9385 22.7195L38.1425 22.8474C38.1473 22.8076 38.1532 22.7781 38.1589 22.7568L36.9877 22.4576ZM37.0796 22.2035C37.0405 22.2864 37.01 22.3726 36.987 22.4604L38.1596 22.754C38.1651 22.733 38.1708 22.7187 38.1749 22.7099L37.0796 22.2035ZM37.6191 21.7312C37.4932 21.8041 37.3707 21.8896 37.2514 21.9855L38.0032 22.9279C38.0801 22.8661 38.1512 22.8174 38.2163 22.7797L37.6191 21.7312ZM38.0106 21.5511C37.8757 21.5971 37.7451 21.6581 37.6187 21.7315L38.2167 22.7794C38.2809 22.7422 38.3382 22.7164 38.3891 22.699L38.0106 21.5511ZM39.1885 21.987C38.9539 21.6816 38.6026 21.5618 38.2807 21.5227L38.119 22.7274C38.1933 22.7365 38.2309 22.7503 38.2443 22.7566C38.255 22.7615 38.2411 22.7571 38.2238 22.7346L39.1885 21.987ZM39.4078 22.9222C39.4438 22.6145 39.3959 22.2988 39.2135 22.0221L38.1988 22.6994C38.1993 22.7002 38.2014 22.7031 38.2035 22.7133C38.2058 22.725 38.2088 22.751 38.2035 22.7962L39.4078 22.9222ZM39.1198 23.8045C39.2687 23.5153 39.3731 23.2194 39.4078 22.922L38.2035 22.7964C38.1904 22.909 38.1454 23.0617 38.0434 23.2596L39.1198 23.8045ZM36.2024 26.1119C36.5488 26.1424 36.8831 26.0472 37.1887 25.8858L36.6337 24.814C36.475 24.8978 36.3768 24.9075 36.3241 24.9029L36.2024 26.1119ZM35.442 25.6603C35.6252 25.9752 35.9384 26.0885 36.2022 26.1118L36.3243 24.9029C36.3103 24.9017 36.3322 24.9012 36.3707 24.9216C36.4144 24.9449 36.46 24.985 36.4917 25.0395L35.442 25.6603ZM35.3008 24.9C35.2737 25.1334 35.2816 25.4496 35.478 25.715L36.4557 24.9848C36.4924 25.0344 36.5007 25.0755 36.502 25.0833C36.5027 25.0872 36.5019 25.0847 36.5019 25.0744C36.5018 25.0641 36.5025 25.048 36.5052 25.0252L35.3008 24.9ZM35.7484 23.7008C35.5181 24.09 35.36 24.4859 35.3029 24.884L36.5031 25.0412C36.5315 24.8428 36.6175 24.6001 36.7896 24.3092L35.7484 23.7008ZM36.5716 22.6113C36.2576 22.9498 35.984 23.3113 35.7515 23.6956L36.7865 24.3144C36.9742 24.0042 37.1966 23.7097 37.4552 23.4308L36.5716 22.6113ZM37.6102 23.1302L37.6156 23.0831L36.4112 22.9591L36.4057 23.0063L37.6102 23.1302ZM37.6789 23.871C37.6031 23.6214 37.5814 23.3764 37.6101 23.1311L36.4058 23.0054C36.3572 23.4214 36.3958 23.8338 36.5185 24.2376L37.6789 23.871ZM38.0181 24.443C37.8642 24.2872 37.7502 24.0983 37.6774 23.866L36.52 24.2427C36.6471 24.6484 36.857 25.0048 37.1506 25.302L38.0181 24.443ZM37.1747 25.8929C37.4673 25.7478 37.7405 25.5519 37.9955 25.3132L37.1733 24.4318C36.9934 24.6003 36.8178 24.7225 36.6476 24.8069L37.1747 25.8929Z" fill="url(#paint6_linear_48_57233)" fill-opacity="0.5" mask="url(#path-5-outside-1_48_57233)"/>
<defs>
<filter id="filter0_d_48_57233" x="0.83446" y="0.162744" width="46.7028" height="46.5869" filterUnits="userSpaceOnUse" color-interpolation-filters="sRGB">
<feFlood flood-opacity="0" result="BackgroundImageFix"/>
<feColorMatrix in="SourceAlpha" type="matrix" values="0 0 0 0 0 0 0 0 0 0 0 0 0 0 0 0 0 0 127 0" result="hardAlpha"/>
<feOffset dx="0.606531"/>
<feGaussianBlur stdDeviation="1.21306"/>
<feColorMatrix type="matrix" values="0 0 0 0 0 0 0 0 0 0 0 0 0 0 0 0 0 0 0.15 0"/>
<feBlend mode="normal" in2="BackgroundImageFix" result="effect1_dropShadow_48_57233"/>
<feBlend mode="normal" in="SourceGraphic" in2="effect1_dropShadow_48_57233" result="shape"/>
</filter>
<filter id="filter1_i_48_57233" x="5.37598" y="4.11335" width="35.8176" height="37.4977" filterUnits="userSpaceOnUse" color-interpolation-filters="sRGB">
<feFlood flood-opacity="0" result="BackgroundImageFix"/>
<feBlend mode="normal" in="SourceGraphic" in2="BackgroundImageFix" result="shape"/>
<feColorMatrix in="SourceAlpha" type="matrix" values="0 0 0 0 0 0 0 0 0 0 0 0 0 0 0 0 0 0 127 0" result="hardAlpha"/>
<feOffset dy="-1.21306"/>
<feGaussianBlur stdDeviation="6.36857"/>
<feComposite in2="hardAlpha" operator="arithmetic" k2="-1" k3="1"/>
<feColorMatrix type="matrix" values="0 0 0 0 0.741667 0 0 0 0 0.741667 0 0 0 0 0.741667 0 0 0 0.15 0"/>
<feBlend mode="normal" in2="shape" result="effect1_innerShadow_48_57233"/>
</filter>
<linearGradient id="paint0_linear_48_57233" x1="40.2572" y1="35.6429" x2="14.5211" y2="9.83523" gradientUnits="userSpaceOnUse">
<stop stop-color="#FFFB90"/>
<stop offset="0.1415" stop-color="#FBEA78"/>
<stop offset="0.2392" stop-color="#F8DC65"/>
<stop offset="0.2703" stop-color="#E6C758"/>
<stop offset="0.3368" stop-color="#C5A041"/>
<stop offset="0.3979" stop-color="#AD8330"/>
<stop offset="0.451" stop-color="#9E7226"/>
<stop offset="0.4902" stop-color="#996C22"/>
<stop offset="0.52" stop-color="#9D7126"/>
<stop offset="0.5575" stop-color="#AA8131"/>
<stop offset="0.5991" stop-color="#BE9B42"/>
<stop offset="0.6434" stop-color="#DABE5B"/>
<stop offset="0.6865" stop-color="#FBE878"/>
<stop offset="0.7724" stop-color="#FFFFAA"/>
<stop offset="0.8333" stop-color="#FBE878"/>
<stop offset="1" stop-color="#A4631B"/>
</linearGradient>
<linearGradient id="paint1_linear_48_57233" x1="31.3169" y1="8.5479" x2="31.3169" y2="38.5198" gradientUnits="userSpaceOnUse">
<stop stop-color="#FFFB90"/>
<stop offset="0.1415" stop-color="#FBEA78"/>
<stop offset="0.2392" stop-color="#F8DC65"/>
<stop offset="0.2703" stop-color="#E6C758"/>
<stop offset="0.3368" stop-color="#C5A041"/>
<stop offset="0.3979" stop-color="#AD8330"/>
<stop offset="0.451" stop-color="#9E7226"/>
<stop offset="0.4902" stop-color="#996C22"/>
<stop offset="0.52" stop-color="#9D7126"/>
<stop offset="0.5575" stop-color="#AA8131"/>
<stop offset="0.5991" stop-color="#BE9B42"/>
<stop offset="0.6434" stop-color="#DABE5B"/>
<stop offset="0.6865" stop-color="#FBE878"/>
<stop offset="0.7724" stop-color="#FFFFAA"/>
<stop offset="0.8333" stop-color="#FBE878"/>
<stop offset="1" stop-color="#A4631B"/>
</linearGradient>
<linearGradient id="paint2_linear_48_57233" x1="38.0548" y1="37.7944" x2="7.42278" y2="7.07893" gradientUnits="userSpaceOnUse">
<stop stop-color="#FFFB90"/>
<stop offset="0.1415" stop-color="#FBEA78"/>
<stop offset="0.2392" stop-color="#F8DC65"/>
<stop offset="0.2703" stop-color="#E6C758"/>
<stop offset="0.3368" stop-color="#C5A041"/>
<stop offset="0.3979" stop-color="#AD8330"/>
<stop offset="0.451" stop-color="#9E7226"/>
<stop offset="0.4902" stop-color="#996C22"/>
<stop offset="0.52" stop-color="#9D7126"/>
<stop offset="0.5575" stop-color="#AA8131"/>
<stop offset="0.5991" stop-color="#BE9B42"/>
<stop offset="0.6434" stop-color="#DABE5B"/>
<stop offset="0.6865" stop-color="#FBE878"/>
<stop offset="0.7724" stop-color="#FFFFAA"/>
<stop offset="0.8333" stop-color="#FBE878"/>
<stop offset="1" stop-color="#A4631B"/>
</linearGradient>
<linearGradient id="paint3_linear_48_57233" x1="5.38891" y1="9.24189" x2="39.598" y2="40.4919" gradientUnits="userSpaceOnUse">
<stop stop-color="#CD9E25"/>
<stop offset="1" stop-color="#A58431" stop-opacity="0"/>
</linearGradient>
<linearGradient id="paint4_linear_48_57233" x1="27.184" y1="5.74471" x2="19.3857" y2="41.1928" gradientUnits="userSpaceOnUse">
<stop stop-color="white" stop-opacity="0.4"/>
<stop offset="0.515625" stop-color="white" stop-opacity="0"/>
</linearGradient>
<linearGradient id="paint5_linear_48_57233" x1="27.184" y1="5.74471" x2="19.3857" y2="41.1928" gradientUnits="userSpaceOnUse">
<stop stop-color="white"/>
<stop offset="0.0001" stop-color="white" stop-opacity="0"/>
<stop offset="0.520833" stop-color="white" stop-opacity="0.24"/>
<stop offset="1" stop-color="white" stop-opacity="0.29"/>
</linearGradient>
<linearGradient id="paint6_linear_48_57233" x1="36.6594" y1="19.5506" x2="33.1603" y2="32.909" gradientUnits="userSpaceOnUse">
<stop stop-color="#E6C758"/>
<stop offset="0.21875" stop-color="#C5A041"/>
<stop offset="0.333333" stop-color="#AD8330"/>
<stop offset="0.451" stop-color="#9E7226"/>
<stop offset="0.4902" stop-color="#996C22"/>
<stop offset="0.52" stop-color="#9D7126"/>
<stop offset="0.5575" stop-color="#AA8131"/>
<stop offset="0.5991" stop-color="#BE9B42"/>
<stop offset="0.703125" stop-color="#DABE5B"/>
<stop offset="0.817708" stop-color="#CFAC4E"/>
<stop offset="1" stop-color="#A4631B"/>
</linearGradient>
</defs>
</svg>
