<svg width="109" height="96" viewBox="0 0 109 96" fill="none" xmlns="http://www.w3.org/2000/svg">
<path d="M46.7621 77.4633C30.4205 77.4633 17.3069 64.1848 17.3069 48.0897C17.3069 31.7934 30.6223 18.7161 46.7621 18.7161C63.1037 18.7161 106.479 48.0897 106.479 48.0897C106.479 48.0897 63.1037 77.4633 46.7621 77.4633Z" fill="url(#paint0_linear_51_6534)"/>
<path d="M16.2988 48.0894C16.2988 31.1895 30.0177 17.7098 46.7628 17.7098C63.1044 17.7098 105.27 46.0775 107.085 47.2846L108.296 48.0894L107.085 48.8942C105.27 50.1013 63.3061 78.469 46.7628 78.4689C30.0177 78.4689 16.2988 64.7881 16.2988 48.0894ZM104.664 48.0894C97.4015 43.2608 61.0869 19.7217 46.7628 19.7217C31.0264 19.7217 18.3163 32.3966 18.3163 48.0894C18.3163 63.7821 31.0264 76.4571 46.7628 76.4571C61.0869 76.4571 97.4015 52.7167 104.664 48.0894Z" fill="url(#paint1_linear_51_6534)"/>
<g filter="url(#filter0_d_51_6534)">
<path d="M46.51 90.2671C23.0946 90.2671 3.9665 71.191 3.9665 47.8394C3.9665 24.4877 23.0946 5.41166 46.51 5.41167C69.9254 5.41167 89.0534 24.4877 89.0534 47.8394C89.3832 71.191 70.2552 90.2671 46.51 90.2671Z" fill="url(#paint2_linear_51_6534)"/>
</g>
<g filter="url(#filter1_i_51_6534)">
<path d="M81.4384 55.6803C77.0498 75.6292 57.6511 88.228 37.9852 83.9017C18.3194 79.5753 5.99903 59.9985 10.3876 40.0496C14.7762 20.1008 34.175 7.50197 53.8408 11.8283C73.5067 16.1547 85.827 35.7314 81.4384 55.6803Z" fill="url(#paint3_linear_51_6534)"/>
<path d="M81.4384 55.6803C77.0498 75.6292 57.6511 88.228 37.9852 83.9017C18.3194 79.5753 5.99903 59.9985 10.3876 40.0496C14.7762 20.1008 34.175 7.50197 53.8408 11.8283C73.5067 16.1547 85.827 35.7314 81.4384 55.6803Z" fill="url(#paint4_linear_51_6534)"/>
<path d="M81.4384 55.6803C77.0498 75.6292 57.6511 88.228 37.9852 83.9017C18.3194 79.5753 5.99903 59.9985 10.3876 40.0496C14.7762 20.1008 34.175 7.50197 53.8408 11.8283C73.5067 16.1547 85.827 35.7314 81.4384 55.6803Z" fill="url(#paint5_linear_51_6534)" style="mix-blend-mode:soft-light"/>
</g>
<defs>
<filter id="filter0_d_51_6534" x="0.267183" y="0.478848" width="94.9565" height="94.7211" filterUnits="userSpaceOnUse" color-interpolation-filters="sRGB">
<feFlood flood-opacity="0" result="BackgroundImageFix"/>
<feColorMatrix in="SourceAlpha" type="matrix" values="0 0 0 0 0 0 0 0 0 0 0 0 0 0 0 0 0 0 127 0" result="hardAlpha"/>
<feOffset dx="1.2332"/>
<feGaussianBlur stdDeviation="2.46641"/>
<feColorMatrix type="matrix" values="0 0 0 0 0 0 0 0 0 0 0 0 0 0 0 0 0 0 0.15 0"/>
<feBlend mode="normal" in2="BackgroundImageFix" result="effect1_dropShadow_51_6534"/>
<feBlend mode="normal" in="SourceGraphic" in2="effect1_dropShadow_51_6534" result="shape"/>
</filter>
<filter id="filter1_i_51_6534" x="9.50098" y="8.51133" width="72.8242" height="76.2409" filterUnits="userSpaceOnUse" color-interpolation-filters="sRGB">
<feFlood flood-opacity="0" result="BackgroundImageFix"/>
<feBlend mode="normal" in="SourceGraphic" in2="BackgroundImageFix" result="shape"/>
<feColorMatrix in="SourceAlpha" type="matrix" values="0 0 0 0 0 0 0 0 0 0 0 0 0 0 0 0 0 0 127 0" result="hardAlpha"/>
<feOffset dy="-2.46641"/>
<feGaussianBlur stdDeviation="12.9487"/>
<feComposite in2="hardAlpha" operator="arithmetic" k2="-1" k3="1"/>
<feColorMatrix type="matrix" values="0 0 0 0 0.741667 0 0 0 0 0.741667 0 0 0 0 0.741667 0 0 0 0.15 0"/>
<feBlend mode="normal" in2="shape" result="effect1_innerShadow_51_6534"/>
</filter>
<linearGradient id="paint0_linear_51_6534" x1="80.4217" y1="72.6177" x2="28.0949" y2="20.1453" gradientUnits="userSpaceOnUse">
<stop stop-color="#FFFB90"/>
<stop offset="0.1415" stop-color="#FBEA78"/>
<stop offset="0.2392" stop-color="#F8DC65"/>
<stop offset="0.2703" stop-color="#E6C758"/>
<stop offset="0.3368" stop-color="#C5A041"/>
<stop offset="0.3979" stop-color="#AD8330"/>
<stop offset="0.451" stop-color="#9E7226"/>
<stop offset="0.4902" stop-color="#996C22"/>
<stop offset="0.52" stop-color="#9D7126"/>
<stop offset="0.5575" stop-color="#AA8131"/>
<stop offset="0.5991" stop-color="#BE9B42"/>
<stop offset="0.6434" stop-color="#DABE5B"/>
<stop offset="0.6865" stop-color="#FBE878"/>
<stop offset="0.7724" stop-color="#FFFFAA"/>
<stop offset="0.8333" stop-color="#FBE878"/>
<stop offset="1" stop-color="#A4631B"/>
</linearGradient>
<linearGradient id="paint1_linear_51_6534" x1="62.2443" y1="17.5278" x2="62.2443" y2="78.4669" gradientUnits="userSpaceOnUse">
<stop stop-color="#FFFB90"/>
<stop offset="0.1415" stop-color="#FBEA78"/>
<stop offset="0.2392" stop-color="#F8DC65"/>
<stop offset="0.2703" stop-color="#E6C758"/>
<stop offset="0.3368" stop-color="#C5A041"/>
<stop offset="0.3979" stop-color="#AD8330"/>
<stop offset="0.451" stop-color="#9E7226"/>
<stop offset="0.4902" stop-color="#996C22"/>
<stop offset="0.52" stop-color="#9D7126"/>
<stop offset="0.5575" stop-color="#AA8131"/>
<stop offset="0.5991" stop-color="#BE9B42"/>
<stop offset="0.6434" stop-color="#DABE5B"/>
<stop offset="0.6865" stop-color="#FBE878"/>
<stop offset="0.7724" stop-color="#FFFFAA"/>
<stop offset="0.8333" stop-color="#FBE878"/>
<stop offset="1" stop-color="#A4631B"/>
</linearGradient>
<linearGradient id="paint2_linear_51_6534" x1="75.9438" y1="76.9918" x2="13.6624" y2="14.5409" gradientUnits="userSpaceOnUse">
<stop stop-color="#FFFB90"/>
<stop offset="0.1415" stop-color="#FBEA78"/>
<stop offset="0.2392" stop-color="#F8DC65"/>
<stop offset="0.2703" stop-color="#E6C758"/>
<stop offset="0.3368" stop-color="#C5A041"/>
<stop offset="0.3979" stop-color="#AD8330"/>
<stop offset="0.451" stop-color="#9E7226"/>
<stop offset="0.4902" stop-color="#996C22"/>
<stop offset="0.52" stop-color="#9D7126"/>
<stop offset="0.5575" stop-color="#AA8131"/>
<stop offset="0.5991" stop-color="#BE9B42"/>
<stop offset="0.6434" stop-color="#DABE5B"/>
<stop offset="0.6865" stop-color="#FBE878"/>
<stop offset="0.7724" stop-color="#FFFFAA"/>
<stop offset="0.8333" stop-color="#FBE878"/>
<stop offset="1" stop-color="#A4631B"/>
</linearGradient>
<linearGradient id="paint3_linear_51_6534" x1="9.52684" y1="18.9388" x2="79.0811" y2="82.4767" gradientUnits="userSpaceOnUse">
<stop stop-color="#CD9E25"/>
<stop offset="1" stop-color="#A58431" stop-opacity="0"/>
</linearGradient>
<linearGradient id="paint4_linear_51_6534" x1="53.8408" y1="11.8283" x2="37.9852" y2="83.9017" gradientUnits="userSpaceOnUse">
<stop stop-color="white" stop-opacity="0.4"/>
<stop offset="0.515625" stop-color="white" stop-opacity="0"/>
</linearGradient>
<linearGradient id="paint5_linear_51_6534" x1="53.8408" y1="11.8283" x2="37.9852" y2="83.9017" gradientUnits="userSpaceOnUse">
<stop stop-color="white"/>
<stop offset="0.0001" stop-color="white" stop-opacity="0"/>
<stop offset="0.520833" stop-color="white" stop-opacity="0.24"/>
<stop offset="1" stop-color="white" stop-opacity="0.29"/>
</linearGradient>
</defs>
</svg>
