<svg width="182" height="182" viewBox="0 0 182 182" fill="none" xmlns="http://www.w3.org/2000/svg">
<g filter="url(#filter0_dd)">
<path d="M152 137.803C137.435 78.3367 91.7047 30.6027 91.2349 30.1205C91.0783 29.9598 90.9217 29.9598 90.7651 30.1205C90.2952 30.6027 44.5648 78.176 30 137.803C30 137.964 30 138.125 30.3132 138.285C30.6264 138.285 58.8164 146 94.5238 146C115.353 146 134.616 143.429 151.843 138.446C152 137.964 152 137.803 152 137.803Z" fill="url(#paint0_linear)"/>
<path opacity="0.6" d="M126.943 99.5513L128.352 81.8721L128.665 82.5149C132.111 88.4616 135.243 94.569 138.062 100.516L138.219 100.998L126.943 99.5513Z" fill="url(#paint1_linear)"/>
<path opacity="0.3" d="M125.377 122.535L126.943 99.7124L138.375 101.159L125.377 122.535Z" fill="url(#paint2_linear)"/>
<path d="M112.534 91.5156L126.943 99.7124L125.376 122.374C125.376 122.374 121.148 107.106 112.534 91.5156Z" fill="url(#paint3_linear)"/>
<path d="M112.534 91.3552L108.775 70.3008L128.352 81.8727L126.942 99.5519L112.534 91.3552Z" fill="url(#paint4_linear)"/>
<path opacity="0.5" d="M91.078 62.1045L108.618 70.3012L101.258 74.3192C101.258 74.3192 95.1499 66.1225 91.078 62.1045Z" fill="url(#paint5_linear)"/>
<path opacity="0.1" d="M90.9222 61.943L113.004 58.5679L108.619 70.1398L90.9222 61.943Z" fill="url(#paint6_linear)"/>
<path opacity="0.9" d="M112.377 91.1944C108.462 83.962 101.258 74.3188 101.258 74.3188L108.619 70.3008L112.377 91.1944Z" fill="url(#paint7_linear)"/>
<path d="M108.775 70.14L113.317 58.0859L113.63 58.5681C118.798 65.9612 123.653 73.5151 128.038 81.0689L128.508 81.8725L108.775 70.14Z" fill="url(#paint8_linear)"/>
<path opacity="0.3" d="M91.078 30.6025L91.5478 31.0847C94.0536 33.6562 102.667 43.2995 113.16 57.925L113.473 58.2464L91.078 61.7823V30.6025Z" fill="url(#paint9_linear)"/>
<path opacity="0.9" d="M92.9563 127.196C74.6328 127.196 59.7548 123.66 56.9358 123.018H56.6226V122.696C59.9114 109.196 66.6457 96.1772 73.3799 85.8911C82.4634 71.7477 90.7638 62.1045 90.7638 62.1045C97.1848 69.0155 106.895 82.1945 112.063 91.5163C120.99 107.91 125.218 122.696 125.218 122.696C125.218 122.696 113.316 127.036 92.9563 127.196Z" fill="url(#paint10_linear)"/>
<path d="M99.6907 72.7113C98.1246 70.6219 96.5585 68.5326 94.9923 66.7646L68.2119 94.2479C64.7664 100.516 61.4776 107.266 59.1284 114.338L99.6907 72.7113Z" fill="url(#paint11_linear)"/>
<path d="M108.776 85.7296C106.897 82.6759 104.704 79.4615 102.355 76.2471C87.164 91.837 72.1294 107.266 56.9381 122.856C58.3476 123.177 63.2025 124.303 70.0934 125.428L108.776 85.7296Z" fill="url(#paint12_linear)"/>
<path d="M115.039 96.9801C114.099 95.2121 113.16 93.4442 112.22 91.5156C111.907 90.8727 111.437 90.2298 111.124 89.5869C99.2211 101.802 87.3187 114.016 75.4163 126.231C78.5485 126.553 82.1505 126.874 85.7526 127.035L115.039 96.9801Z" fill="url(#paint13_linear)"/>
<path d="M92.9566 127.195C98.2814 127.195 102.823 126.874 106.895 126.392L121.303 111.606C120.05 108.552 118.641 105.016 116.761 101.159C108.304 109.838 99.8475 118.516 91.2339 127.356C92.0169 127.195 92.4868 127.195 92.9566 127.195Z" fill="url(#paint14_linear)"/>
<path opacity="0.4" d="M108.775 126.392H109.088C113.787 125.749 121.147 124.303 125.063 123.017L122.87 124.464L109.402 133.303L108.775 126.392Z" fill="url(#paint15_linear)"/>
<path d="M91.2339 127.356C96.2454 127.356 103.45 127.035 108.304 126.553H108.618L109.244 133.142L91.2339 127.356Z" fill="url(#paint16_linear)"/>
<path d="M73.2253 126.07C78.3935 126.713 85.5976 127.035 90.6091 127.195L72.5989 132.981L73.2253 126.07Z" fill="#FF509D"/>
<path opacity="0.6" d="M56.7794 123.017C56.7794 123.017 65.7062 125.267 73.067 126.071L72.4405 133.142L56.7794 123.017Z" fill="url(#paint17_linear)"/>
<path d="M56.4667 122.696L54.744 99.5518L69.6221 91.1943C63.5142 101.32 59.4424 111.124 56.9366 120.767L56.4667 122.696Z" fill="url(#paint18_linear)"/>
<path d="M68.682 58.5679L90.7642 61.943L73.0671 70.1398L68.682 58.5679Z" fill="url(#paint19_linear)"/>
<path d="M73.2241 70.1401L90.7646 61.9434C86.5361 66.6043 80.8981 74.3188 80.8981 74.3188L73.2241 70.1401Z" fill="url(#paint20_linear)"/>
<path opacity="0.1" d="M73.0674 70.3008L80.7413 74.6403C80.7413 74.6403 72.9108 85.7299 69.7786 91.1944L73.0674 70.3008Z" fill="url(#paint21_linear)"/>
<path opacity="0.7" d="M68.5251 58.4076L68.8384 58.0862C79.3313 43.4606 87.9449 33.8173 90.4507 31.2458L90.9205 30.7637V61.7827L68.5251 58.4076Z" fill="url(#paint22_linear)"/>
<path d="M54.119 80.747C58.3475 73.3538 63.2024 65.9607 68.214 58.7283L68.5272 58.2461L72.9123 69.9787L53.4926 81.5506L54.119 80.747Z" fill="url(#paint23_linear)"/>
<path d="M53.4926 82.0334L72.9123 70.3008L69.6235 91.0338L54.9021 99.5519L53.4926 82.0334Z" fill="url(#paint24_linear)"/>
<path d="M43.781 100.516C46.6 94.5694 49.5756 88.6227 52.8644 82.8368L53.3343 82.0332L54.7438 99.391L43.6244 100.998L43.781 100.516Z" fill="url(#paint25_linear)"/>
<path d="M43.4677 101.159L54.7436 99.7124L56.4664 122.695L43.4677 101.159Z" fill="url(#paint26_linear)"/>
<path opacity="0.7" d="M30.625 137C33.444 125.588 37.6725 113.856 43.1539 101.963L43.3105 101.48L56.1526 122.856L30.4684 137.643L30.625 137Z" fill="url(#paint27_linear)"/>
<path opacity="0.4" d="M63.6699 143.75C45.9729 141.821 33.444 138.607 31.0948 138.125L30.4684 137.964L56.4658 123.017L64.2964 143.75H63.6699Z" fill="url(#paint28_linear)"/>
<path d="M56.4678 123.017L72.4421 133.303L64.1417 143.429L56.4678 123.017Z" fill="url(#paint29_linear)"/>
<path opacity="0.8" d="M89.6685 145.517C81.8379 145.357 73.3809 144.714 64.6107 143.75H64.1409L72.5979 133.303L90.7647 145.517H89.6685Z" fill="url(#paint30_linear)"/>
<path opacity="0.7" d="M90.9224 127.356L72.5989 133.303L90.9224 145.518C91.2356 145.357 108.306 133.625 108.463 133.464L108.933 133.142L90.9224 127.356Z" fill="url(#paint31_linear)"/>
<path d="M91.2339 145.518L109.088 133.143L117.388 144.393H116.918C109.714 145.036 102.04 145.518 94.3661 145.518H92.3302H91.2339Z" fill="url(#paint32_linear)"/>
<path d="M109.402 133.303L125.377 122.695L117.546 144.232L109.402 133.303Z" fill="url(#paint33_linear)"/>
<path opacity="0.4" d="M125.533 122.856L151.531 137.964L150.904 138.124C140.724 141.017 129.762 143.107 118.172 144.392H117.703L125.533 122.856Z" fill="url(#paint34_linear)"/>
<path opacity="0.4" d="M125.532 122.695L138.531 101.319L138.688 101.801C144.169 113.695 148.398 125.588 151.373 137.16L151.53 137.803L125.532 122.695Z" fill="url(#paint35_linear)"/>
</g>
<defs>
<filter id="filter0_dd" x="0" y="0" width="182" height="181.314" filterUnits="userSpaceOnUse" color-interpolation-filters="sRGB">
<feFlood flood-opacity="0" result="BackgroundImageFix"/>
<feColorMatrix in="SourceAlpha" type="matrix" values="0 0 0 0 0 0 0 0 0 0 0 0 0 0 0 0 0 0 127 0" result="hardAlpha"/>
<feOffset/>
<feGaussianBlur stdDeviation="15"/>
<feColorMatrix type="matrix" values="0 0 0 0 1 0 0 0 0 1 0 0 0 0 1 0 0 0 0.2 0"/>
<feBlend mode="normal" in2="BackgroundImageFix" result="effect1_dropShadow"/>
<feColorMatrix in="SourceAlpha" type="matrix" values="0 0 0 0 0 0 0 0 0 0 0 0 0 0 0 0 0 0 127 0" result="hardAlpha"/>
<feOffset dy="5.31447"/>
<feGaussianBlur stdDeviation="15"/>
<feColorMatrix type="matrix" values="0 0 0 0 1 0 0 0 0 1 0 0 0 0 1 0 0 0 0.2 0"/>
<feBlend mode="normal" in2="effect1_dropShadow" result="effect2_dropShadow"/>
<feBlend mode="normal" in="SourceGraphic" in2="effect2_dropShadow" result="shape"/>
</filter>
<linearGradient id="paint0_linear" x1="30.0002" y1="87.9722" x2="152.004" y2="87.9722" gradientUnits="userSpaceOnUse">
<stop stop-color="#FF5CAA"/>
<stop offset="0.11" stop-color="#FF56A6"/>
<stop offset="0.6681" stop-color="#FF3C92"/>
<stop offset="1" stop-color="#FF328B"/>
</linearGradient>
<linearGradient id="paint1_linear" x1="105.581" y1="65.1543" x2="124.62" y2="86.0034" gradientUnits="userSpaceOnUse">
<stop stop-color="#FF328B"/>
<stop offset="1" stop-color="#960049"/>
</linearGradient>
<linearGradient id="paint2_linear" x1="113.623" y1="82.7939" x2="125.866" y2="101.311" gradientUnits="userSpaceOnUse">
<stop stop-color="#FF328B"/>
<stop offset="1" stop-color="#960049"/>
</linearGradient>
<linearGradient id="paint3_linear" x1="118.75" y1="106.96" x2="153.229" y2="91.7203" gradientUnits="userSpaceOnUse">
<stop stop-color="#FF5CAA"/>
<stop offset="0.11" stop-color="#FF56A6"/>
<stop offset="0.6681" stop-color="#FF3C92"/>
<stop offset="1" stop-color="#FF328B"/>
</linearGradient>
<linearGradient id="paint4_linear" x1="109.579" y1="71.4798" x2="165.146" y2="145.155" gradientUnits="userSpaceOnUse">
<stop stop-color="#FFF0F7"/>
<stop offset="1" stop-color="#FF629D"/>
</linearGradient>
<linearGradient id="paint5_linear" x1="99.5361" y1="64.5143" x2="107.196" y2="109.297" gradientUnits="userSpaceOnUse">
<stop stop-color="#FFF0F7"/>
<stop offset="1" stop-color="#FF629D"/>
</linearGradient>
<linearGradient id="paint6_linear" x1="90.9413" y1="64.321" x2="112.998" y2="64.321" gradientUnits="userSpaceOnUse">
<stop stop-color="#FFF0F7"/>
<stop offset="1" stop-color="#FF629D"/>
</linearGradient>
<linearGradient id="paint7_linear" x1="107.006" y1="82.3394" x2="140.041" y2="68.4938" gradientUnits="userSpaceOnUse">
<stop stop-color="#FF5CAA"/>
<stop offset="0.11" stop-color="#FF56A6"/>
<stop offset="0.6681" stop-color="#FF3C92"/>
<stop offset="1" stop-color="#FF328B"/>
</linearGradient>
<linearGradient id="paint8_linear" x1="108.783" y1="69.9612" x2="128.38" y2="69.9612" gradientUnits="userSpaceOnUse">
<stop stop-color="#FF5CAA"/>
<stop offset="0.11" stop-color="#FF56A6"/>
<stop offset="0.6681" stop-color="#FF3C92"/>
<stop offset="1" stop-color="#FF328B"/>
</linearGradient>
<linearGradient id="paint9_linear" x1="86.2574" y1="6.66918" x2="96.8488" y2="40.2711" gradientUnits="userSpaceOnUse">
<stop stop-color="#FF5CAA"/>
<stop offset="0.11" stop-color="#FF56A6"/>
<stop offset="0.6681" stop-color="#FF3C92"/>
<stop offset="1" stop-color="#FF328B"/>
</linearGradient>
<linearGradient id="paint10_linear" x1="66.3793" y1="77.524" x2="125.133" y2="168.983" gradientUnits="userSpaceOnUse">
<stop stop-color="#FFF0F7"/>
<stop offset="1" stop-color="#FF629D"/>
</linearGradient>
<linearGradient id="paint11_linear" x1="68.7229" y1="76.0186" x2="127.475" y2="167.476" gradientUnits="userSpaceOnUse">
<stop stop-color="#FFF0F7"/>
<stop offset="1" stop-color="#FF629D"/>
</linearGradient>
<linearGradient id="paint12_linear" x1="66.4414" y1="77.4869" x2="125.193" y2="168.944" gradientUnits="userSpaceOnUse">
<stop stop-color="#FFF0F7"/>
<stop offset="1" stop-color="#FF629D"/>
</linearGradient>
<linearGradient id="paint13_linear" x1="72.3603" y1="73.6783" x2="131.118" y2="165.144" gradientUnits="userSpaceOnUse">
<stop stop-color="#FFF0F7"/>
<stop offset="1" stop-color="#FF629D"/>
</linearGradient>
<linearGradient id="paint14_linear" x1="77.5559" y1="70.3444" x2="136.309" y2="161.804" gradientUnits="userSpaceOnUse">
<stop stop-color="#FFF0F7"/>
<stop offset="1" stop-color="#FF629D"/>
</linearGradient>
<linearGradient id="paint15_linear" x1="111.06" y1="106.537" x2="115.742" y2="122.265" gradientUnits="userSpaceOnUse">
<stop stop-color="#FF328B"/>
<stop offset="1" stop-color="#960049"/>
</linearGradient>
<linearGradient id="paint16_linear" x1="99.4358" y1="132.213" x2="84.0797" y2="170.758" gradientUnits="userSpaceOnUse">
<stop stop-color="#FF5CAA"/>
<stop offset="0.11" stop-color="#FF56A6"/>
<stop offset="0.6681" stop-color="#FF3C92"/>
<stop offset="1" stop-color="#FF328B"/>
</linearGradient>
<linearGradient id="paint17_linear" x1="69.3356" y1="117.41" x2="58.1199" y2="141.417" gradientUnits="userSpaceOnUse">
<stop stop-color="#FF328B"/>
<stop offset="1" stop-color="#960049"/>
</linearGradient>
<linearGradient id="paint18_linear" x1="44.9112" y1="89.2776" x2="72.5314" y2="114.784" gradientUnits="userSpaceOnUse">
<stop stop-color="#FF5CAA"/>
<stop offset="0.11" stop-color="#FF56A6"/>
<stop offset="0.6681" stop-color="#FF3C92"/>
<stop offset="1" stop-color="#FF328B"/>
</linearGradient>
<linearGradient id="paint19_linear" x1="78.92" y1="56.9472" x2="93.5301" y2="111.19" gradientUnits="userSpaceOnUse">
<stop stop-color="#FFF0F7"/>
<stop offset="1" stop-color="#FF629D"/>
</linearGradient>
<linearGradient id="paint20_linear" x1="78.6563" y1="62.213" x2="107.565" y2="94.6257" gradientUnits="userSpaceOnUse">
<stop stop-color="#FF5CAA"/>
<stop offset="1" stop-color="#FF328B"/>
</linearGradient>
<linearGradient id="paint21_linear" x1="66.6312" y1="76.9871" x2="108.745" y2="104.19" gradientUnits="userSpaceOnUse">
<stop stop-color="#FFF0F7"/>
<stop offset="1" stop-color="#FF629D"/>
</linearGradient>
<linearGradient id="paint22_linear" x1="74.0139" y1="36.0419" x2="126.542" y2="109.265" gradientUnits="userSpaceOnUse">
<stop stop-color="#FFF0F7"/>
<stop offset="1" stop-color="#FF629D"/>
</linearGradient>
<linearGradient id="paint23_linear" x1="47.8412" y1="54.5743" x2="68.0387" y2="77.0838" gradientUnits="userSpaceOnUse">
<stop stop-color="#FF5CAA"/>
<stop offset="0.11" stop-color="#FF56A6"/>
<stop offset="0.6681" stop-color="#FF3C92"/>
<stop offset="1" stop-color="#FF328B"/>
</linearGradient>
<linearGradient id="paint24_linear" x1="34.734" y1="55.3416" x2="84.6149" y2="103.419" gradientUnits="userSpaceOnUse">
<stop stop-color="#FFF0F7"/>
<stop offset="1" stop-color="#FF629D"/>
</linearGradient>
<linearGradient id="paint25_linear" x1="42.3981" y1="82.6962" x2="60.2731" y2="107.579" gradientUnits="userSpaceOnUse">
<stop stop-color="#FF5CAA"/>
<stop offset="0.11" stop-color="#FF56A6"/>
<stop offset="0.6681" stop-color="#FF3C92"/>
<stop offset="1" stop-color="#FF328B"/>
</linearGradient>
<linearGradient id="paint26_linear" x1="48.544" y1="113.151" x2="82.8981" y2="85.6348" gradientUnits="userSpaceOnUse">
<stop stop-color="#FF5CAA"/>
<stop offset="1" stop-color="#FF328B"/>
</linearGradient>
<linearGradient id="paint27_linear" x1="56.1551" y1="112.404" x2="125.813" y2="87.8781" gradientUnits="userSpaceOnUse">
<stop stop-color="#FF328B"/>
<stop offset="1" stop-color="#960049"/>
</linearGradient>
<linearGradient id="paint28_linear" x1="39.554" y1="94.3269" x2="44.1868" y2="120.871" gradientUnits="userSpaceOnUse">
<stop stop-color="#FF328B"/>
<stop offset="1" stop-color="#960049"/>
</linearGradient>
<linearGradient id="paint29_linear" x1="56.522" y1="133.196" x2="72.3712" y2="133.196" gradientUnits="userSpaceOnUse">
<stop stop-color="#FF5CAA"/>
<stop offset="0.11" stop-color="#FF56A6"/>
<stop offset="0.6681" stop-color="#FF3C92"/>
<stop offset="1" stop-color="#FF328B"/>
</linearGradient>
<linearGradient id="paint30_linear" x1="78.0841" y1="119.719" x2="77.2182" y2="149.132" gradientUnits="userSpaceOnUse">
<stop stop-color="#FF328B"/>
<stop offset="1" stop-color="#960049"/>
</linearGradient>
<linearGradient id="paint31_linear" x1="90.437" y1="126.663" x2="92.9111" y2="175.843" gradientUnits="userSpaceOnUse">
<stop stop-color="#FF328B"/>
<stop offset="1" stop-color="#960049"/>
</linearGradient>
<linearGradient id="paint32_linear" x1="100.323" y1="117.575" x2="103.166" y2="136.119" gradientUnits="userSpaceOnUse">
<stop stop-color="#FF328B"/>
<stop offset="1" stop-color="#960049"/>
</linearGradient>
<linearGradient id="paint33_linear" x1="103.642" y1="114.263" x2="128.5" y2="139.779" gradientUnits="userSpaceOnUse">
<stop stop-color="#FF5CAA"/>
<stop offset="0.11" stop-color="#FF56A6"/>
<stop offset="0.6681" stop-color="#FF3C92"/>
<stop offset="1" stop-color="#FF328B"/>
</linearGradient>
<linearGradient id="paint34_linear" x1="112.561" y1="104.095" x2="121.708" y2="118.713" gradientUnits="userSpaceOnUse">
<stop stop-color="#FF328B"/>
<stop offset="1" stop-color="#960049"/>
</linearGradient>
<linearGradient id="paint35_linear" x1="115.921" y1="102.492" x2="190.154" y2="144.05" gradientUnits="userSpaceOnUse">
<stop stop-color="#FFF0F7"/>
<stop offset="1" stop-color="#FF629D"/>
</linearGradient>
</defs>
</svg>
