<svg fill="white" width="114" height="122" viewBox="0 0 114 122" fill="none" xmlns="http://www.w3.org/2000/svg">
<g filter="url(#filter0_dd)">
<path fill-rule="evenodd" clip-rule="evenodd" d="M69.2167 73.8018C79.2751 73.9311 85.4629 66.5569 82.0594 58.7949C78.6558 51.0327 75.2628 49.2863 69.92 43.6587C64.5745 38.0312 56.8018 28.2962 56.8385 26C56.8779 28.2962 49.4252 38.0312 44.0798 43.6587C38.737 49.2863 35.3466 51.0327 31.9404 58.7949C28.5369 66.5569 34.7273 73.9311 44.7831 73.8018C51.6873 73.7129 54.7943 69.6619 56.0617 66.8244L56.0371 68.5119L55.7821 70.1994C55.7821 70.1994 53.8574 83.4462 38.3014 84.9126H35.8215V87H78.1809V84.9126H75.6984C60.145 83.4462 58.3169 70.1994 58.3169 70.1994L58.0095 68.5119L57.938 66.8244C59.4312 69.665 62.6956 73.7178 69.2167 73.8018Z"/>
</g>
<defs>
<filter id="filter0_dd" x="0.974619" y="0.263959" width="112.051" height="121.051" filterUnits="userSpaceOnUse" color-interpolation-filters="sRGB">
<feFlood flood-opacity="0" result="BackgroundImageFix"/>
<feColorMatrix in="SourceAlpha" type="matrix" values="0 0 0 0 0 0 0 0 0 0 0 0 0 0 0 0 0 0 127 0"/>
<feOffset dx="0.857868"/>
<feGaussianBlur stdDeviation="4.28934"/>
<feColorMatrix type="matrix" values="0 0 0 0 1 0 0 0 0 1 0 0 0 0 1 0 0 0 1 0"/>
<feBlend mode="normal" in2="BackgroundImageFix" result="effect1_dropShadow"/>
<feColorMatrix in="SourceAlpha" type="matrix" values="0 0 0 0 0 0 0 0 0 0 0 0 0 0 0 0 0 0 127 0"/>
<feOffset dy="4.28934"/>
<feGaussianBlur stdDeviation="15.0127"/>
<feColorMatrix type="matrix" values="0 0 0 0 1 0 0 0 0 1 0 0 0 0 1 0 0 0 0.7 0"/>
<feBlend mode="normal" in2="effect1_dropShadow" result="effect2_dropShadow"/>
<feBlend mode="normal" in="SourceGraphic" in2="effect2_dropShadow" result="shape"/>
</filter>
<linearGradient id="paint0_linear" x1="57" y1="26" x2="57" y2="87" gradientUnits="userSpaceOnUse">
<stop offset="0.17778" stop-color="#1A1541"/>
<stop offset="1" stop-color="#0E007D"/>
</linearGradient>
</defs>
</svg>
