<svg width="20" height="20" viewBox="0 0 20 20" fill="none" xmlns="http://www.w3.org/2000/svg">
	<path d="M9.99992 19.1668C4.93717 19.1668 0.833252 15.0629 0.833252 10.0002C0.833252 4.93741 4.93717 0.833496 9.99992 0.833496C15.0627 0.833496 19.1666 4.93741 19.1666 10.0002C19.1611 15.0602 15.0599 19.1613 9.99992 19.1668ZM2.66659 10.1578C2.68742 12.0958 3.47458 13.9467 4.85602 15.3061C6.23746 16.6654 8.10085 17.4226 10.0389 17.4122C11.977 17.4018 13.8321 16.6246 15.1989 15.2505C16.5656 13.8764 17.3328 12.0171 17.3328 10.079C17.3328 8.1409 16.5656 6.28162 15.1989 4.9075C13.8321 3.53338 11.977 2.75619 10.0389 2.74577C8.10085 2.73535 6.23746 3.49256 4.85602 4.85191C3.47458 6.21125 2.68742 8.06218 2.66659 10.0002V10.1578ZM8.16659 14.1252V5.87516L13.6666 10.0002L8.16659 14.1252Z" fill="black" />
</svg>
