<svg width="28" height="28" viewBox="0 0 28 28" fill="none" xmlns="http://www.w3.org/2000/svg">
	<g clip-path="url(#clip0_408_424)">
		<path d="M20.5625 15.9681H16.4609V19.2493H20.5625C21.0155 19.2493 21.3828 18.882 21.3828 18.429V16.7884C21.3828 16.3354 21.0155 15.9681 20.5625 15.9681Z" fill="currentColor" />
		<path d="M6.61719 16.7884V18.429C6.61719 18.882 6.98447 19.2493 7.4375 19.2493H11.5391V15.9681H7.4375C6.98447 15.9681 6.61719 16.3354 6.61719 16.7884Z" fill="currentColor" />
		<path d="M7.71094 27.179C7.71094 27.632 8.07822 27.9993 8.53125 27.9993H11.5391V20.89H7.71094V27.179Z" fill="currentColor" />
		<path d="M13.1797 15.9681H14.8203V27.9993H13.1797V15.9681Z" fill="currentColor" />
		<path d="M16.4609 27.9993H19.4688C19.9218 27.9993 20.2891 27.632 20.2891 27.179V20.89H16.4609V27.9993Z" fill="currentColor" />
		<path d="M14.625 14.3275H19.1953V14.1907C19.1953 13.3615 18.5206 12.6868 17.6914 12.6868C16.4145 12.6868 15.2879 13.3391 14.625 14.3275Z" fill="currentColor" />
		<path d="M8.80469 14.1907V14.3275H13.375C12.7121 13.3391 11.5855 12.6868 10.3086 12.6868C9.47937 12.6868 8.80469 13.3615 8.80469 14.1907Z" fill="currentColor" />
		<path d="M26.9294 7.11241L25.5075 6.9058L24.8716 5.61736C24.4135 4.68915 23.09 4.68915 22.6318 5.61736L21.9959 6.9058L20.5741 7.11241C19.5497 7.26127 19.1407 8.52007 19.8819 9.24254L20.9108 10.2455L20.668 11.6615C20.493 12.6817 21.5638 13.4597 22.48 12.978L23.7517 12.3094L25.0235 12.978C25.9397 13.4597 27.0105 12.6817 26.8355 11.6615L26.5926 10.2454L27.6215 9.24249C28.3627 8.52006 27.9537 7.26121 26.9294 7.11241Z" fill="currentColor" />
		<path d="M7.33209 11.6616L7.08922 10.2455L8.11811 9.24254C8.85935 8.52001 8.45028 7.26121 7.42599 7.11241L6.00411 6.9058L5.36821 5.61736C4.91009 4.68915 3.58654 4.68915 3.12842 5.61736L2.49252 6.9058L1.07064 7.11241C0.0462912 7.26127 -0.362717 8.52007 0.378518 9.24254L1.40741 10.2455L1.16454 11.6615C0.989541 12.6817 2.06038 13.4597 2.97656 12.978L4.24831 12.3094L5.52007 12.978C6.43625 13.4598 7.50709 12.6818 7.33209 11.6616Z" fill="currentColor" />
		<path d="M10.3024 6.98698L9.87192 9.16059C9.64212 10.3209 10.8425 11.241 11.9033 10.7177L13.8904 9.73722L15.8247 10.8183C16.8572 11.3955 18.1032 10.5381 17.9332 9.36758L17.6148 7.17478L19.2408 5.66929C20.1088 4.86565 19.6784 3.41567 18.5127 3.21562L16.3287 2.8408L15.3993 0.829225C14.9032 -0.244509 13.3912 -0.283337 12.8407 0.763546L11.8094 2.72475L9.60909 2.98698C8.43457 3.12698 7.9304 4.55295 8.75597 5.40006L10.3024 6.98698Z" fill="currentColor" />
	</g>
	<defs>
		<clipPath id="clip0_408_424">
			<rect width="28" height="28" fill="white" />
		</clipPath>
	</defs>
</svg>
