<svg width="19" height="20" viewBox="0 0 19 20" fill="none" xmlns="http://www.w3.org/2000/svg">
<path d="M5.60352 8.82812V10.5859H13.3965V8.82812C13.3965 6.545 11.6485 4.6875 9.5 4.6875C7.35148 4.6875 5.60352 6.545 5.60352 8.82812ZM9.5 5.85938C11.0347 5.85938 12.2832 7.19117 12.2832 8.82812V9.41406H6.7168V8.82812C6.7168 7.19117 7.96534 5.85938 9.5 5.85938Z" fill="black"/>
<path d="M11.7266 2.34375C11.7266 1.05141 10.7277 0 9.5 0C8.27227 0 7.27344 1.05141 7.27344 2.34375C7.27344 3.63609 8.27227 4.6875 9.5 4.6875C10.7277 4.6875 11.7266 3.63609 11.7266 2.34375ZM9.5 3.51562C8.88614 3.51562 8.38672 2.98992 8.38672 2.34375C8.38672 1.69758 8.88614 1.17188 9.5 1.17188C10.1139 1.17188 10.6133 1.69758 10.6133 2.34375C10.6133 2.98992 10.1139 3.51562 9.5 3.51562Z" fill="black"/>
<path d="M0 20H19V11.7578H0V20ZM1.11328 12.9297H17.8867V18.8281H1.11328V12.9297Z" fill="black"/>
<path d="M7.83008 15.2734H8.94336V16.4453H7.83008V15.2734Z" fill="black"/>
<path d="M5.60352 15.2734H6.7168V16.4453H5.60352V15.2734Z" fill="black"/>
<path d="M10.0566 15.2734H11.1699V16.4453H10.0566V15.2734Z" fill="black"/>
<path d="M12.2832 15.2734H13.3965V16.4453H12.2832V15.2734Z" fill="black"/>
</svg>
