<svg width="176" height="182" viewBox="0 0 176 182" fill="none" xmlns="http://www.w3.org/2000/svg">
<g filter="url(#filter0_dd)">
<path d="M145.89 87.8895L88.0932 30.0932C88 30 88 30 87.9066 30.0934L30.1106 87.8894C30.0172 87.9828 30.0172 87.9828 30.1105 88.076L87.9068 145.872C88 145.966 88 145.966 88.0934 145.872L145.796 88.1695C145.889 88.0761 145.89 87.8895 145.89 87.8895Z" fill="url(#paint0_linear)"/>
<path opacity="0.3" d="M145.237 87.797L117.35 78.0235L116.805 59.365L145.237 87.797Z" fill="url(#paint1_linear)"/>
<path opacity="0.6" d="M99.9148 63.9501L98.053 58.9136L116.338 59.4587L111.857 63.9404L99.9148 63.9501Z" fill="url(#paint2_linear)"/>
<path d="M111.389 64.4067L102.799 72.9967L99.8206 64.416L111.389 64.4067Z" fill="url(#paint3_linear)"/>
<path opacity="0.4" d="M99.541 63.95L93.5701 63.9548L88.2565 58.6413L97.7725 58.8202L99.541 63.95Z" fill="url(#paint4_linear)"/>
<path opacity="0.6" d="M93.1982 63.9556L82.7491 63.964L87.9779 58.7353L93.1982 63.9556Z" fill="url(#paint5_linear)"/>
<path d="M88.0704 58.2682L88.092 31.3992L97.6796 58.5403L88.0704 58.2682Z" fill="url(#paint6_linear)"/>
<path d="M63.8877 82.8246L63.7859 93.367L58.5656 88.1466L63.8877 82.8246Z" fill="#982CE5"/>
<path opacity="0.3" d="M72.8513 73.1145L64.079 76.2935L64.1818 64.445L72.8513 73.1145Z" fill="url(#paint7_linear)"/>
<path opacity="0.6" d="M64.3692 64.2584L76.1243 64.249L73.0386 72.9279L64.3692 64.2584Z" fill="url(#paint8_linear)"/>
<path opacity="0.5" d="M63.7996 76.5734L63.7949 82.3576L58.4728 87.6797L58.7601 78.4433L63.7996 76.5734Z" fill="url(#paint9_linear)"/>
<path opacity="0.6" d="M64.0791 76.4799L72.6647 73.4876L64.0746 82.0776L64.0791 76.4799Z" fill="url(#paint10_linear)"/>
<path d="M76.4044 64.1551L82.0021 64.1506L73.4121 72.7406L76.4044 64.1551Z" fill="url(#paint11_linear)"/>
<path opacity="0.5" d="M76.4976 63.8751L78.2742 58.929L87.604 58.5483L82.2819 63.8704L76.4976 63.8751Z" fill="url(#paint12_linear)"/>
<path opacity="0.9" d="M87.8843 58.268L78.3679 58.6488L87.8127 31.3058L87.8843 58.268Z" fill="url(#paint13_linear)"/>
<path opacity="0.8" d="M76.2171 63.969L63.9956 63.8855L59.521 59.4109L77.9938 58.8363L76.2171 63.969Z" fill="url(#paint14_linear)"/>
<path d="M63.8091 64.072L63.7991 76.3869L58.7599 78.0703L59.3345 59.5975L63.8091 64.072Z" fill="url(#paint15_linear)"/>
<path opacity="0.5" d="M58.4798 78.5373L58.1924 87.9603L31.3235 87.9819L58.4798 78.5373Z" fill="url(#paint16_linear)"/>
<path opacity="0.8" d="M58.1923 88.1467L58.4645 97.7559L31.23 88.2617L58.1923 88.1467Z" fill="url(#paint17_linear)"/>
<path opacity="0.7" d="M58.4722 88.4266L63.7858 93.7401L63.7809 99.711L58.7445 97.8491L58.4722 88.4266Z" fill="url(#paint18_linear)"/>
<path d="M64.0659 94.0198L72.9218 102.876L64.0612 99.804L64.0659 94.0198Z" fill="url(#paint19_linear)"/>
<path d="M64.0663 93.6468L64.1685 82.5447L82.469 64.2442L93.4778 64.2353L111.749 82.5064L111.833 93.6084L93.5328 111.909L82.3374 111.918L64.0663 93.6468Z" fill="url(#paint20_linear)"/>
<path d="M109.978 80.7352L100.749 71.5064L75.1862 71.527L65.7558 80.9574C80.5898 80.8522 95.3304 80.8403 109.978 80.7352Z" fill="url(#paint21_linear)"/>
<path d="M111.835 90.4357L111.84 84.0916C95.8863 84.1977 80.0261 84.2105 64.166 84.2233L64.1611 90.3807L111.835 90.4357Z" fill="url(#paint22_linear)"/>
<path d="M102.215 103.225L111.459 93.9813L64.4382 94.0191L73.667 103.248C83.1831 103.24 92.6991 103.233 102.215 103.225Z" fill="url(#paint23_linear)"/>
<path d="M112.043 64.1268L116.525 59.6451L117.07 77.9304L112.127 76.1618L112.043 64.1268Z" fill="url(#paint24_linear)"/>
<path d="M111.847 76.0685L103.173 72.9968L111.763 64.4067L111.847 76.0685Z" fill="url(#paint25_linear)"/>
<path opacity="0.6" d="M117.162 78.2098L117.341 87.7258L112.028 82.4122L112.032 76.4414L117.162 78.2098Z" fill="url(#paint26_linear)"/>
<path d="M117.341 88.0991L112.112 93.3278L112.027 82.7856L117.341 88.0991Z" fill="url(#paint27_linear)"/>
<path d="M93.2517 112.189L87.9296 117.511L82.6161 112.197L93.2517 112.189Z" fill="#982CE5"/>
<path d="M72.9208 103.249L75.9926 111.923L64.2374 111.932L72.9208 103.249Z" fill="url(#paint28_linear)"/>
<path d="M73.1082 103.062L81.9641 111.918L76.1798 111.923L73.1082 103.062Z" fill="#982CE5"/>
<path d="M82.2422 112.197L87.5557 117.511L78.1332 117.239L76.2713 112.202L82.2422 112.197Z" fill="url(#paint29_linear)"/>
<path opacity="0.6" d="M87.8356 117.791L87.8138 144.846L78.2264 117.519L87.8356 117.791Z" fill="url(#paint30_linear)"/>
<path opacity="0.6" d="M103.149 103.038L111.734 100.045L111.818 111.707L103.149 103.038Z" fill="url(#paint31_linear)"/>
<path opacity="0.4" d="M111.631 111.894L99.8756 111.903L102.961 103.224L111.631 111.894Z" fill="url(#paint32_linear)"/>
<path opacity="0.4" d="M112.108 99.6716L112.113 93.7007L117.435 88.3786L117.054 97.895L112.108 99.6716Z" fill="url(#paint33_linear)"/>
<path d="M111.827 99.7651L102.962 102.851L111.832 93.9808L111.827 99.7651Z" fill="url(#paint34_linear)"/>
<path d="M99.5963 111.81L93.9053 111.908L102.682 103.131L99.5963 111.81Z" fill="url(#paint35_linear)"/>
<path opacity="0.6" d="M99.409 112.183L97.7256 117.222L88.3026 117.51L93.6247 112.188L99.409 112.183Z" fill="url(#paint36_linear)"/>
<path d="M88.0222 117.79L97.6318 117.502L88.0937 144.939L88.0222 117.79Z" fill="url(#paint37_linear)"/>
<path opacity="0.4" d="M99.7827 112.183L111.911 112.174L116.386 116.648L98.0993 117.223L99.7827 112.183Z" fill="#7C19CE"/>
<path d="M112.099 111.987L112.015 99.9523L117.148 98.1756L116.573 116.462L112.099 111.987Z" fill="url(#paint38_linear)"/>
<path d="M117.427 97.708L117.621 88.1918L144.49 88.1701L117.427 97.708Z" fill="url(#paint39_linear)"/>
<path d="M117.714 87.9123L117.442 78.3031L144.863 87.9837L117.714 87.9123Z" fill="url(#paint40_linear)"/>
<path d="M111.753 76.3488L111.749 82.1331L102.893 73.2772L111.753 76.3488Z" fill="url(#paint41_linear)"/>
<path d="M93.8506 64.2346L99.6348 64.2299L102.706 73.0905L93.8506 64.2346Z" fill="url(#paint42_linear)"/>
<path d="M116.618 59.1784L97.9592 58.6336L88.1856 30.7463L116.618 59.1784Z" fill="url(#paint43_linear)"/>
<path opacity="0.4" d="M87.7201 30.6536L78.0883 58.5565L59.2422 59.1314L87.7201 30.6536Z" fill="url(#paint44_linear)"/>
<path opacity="0.3" d="M58.9622 59.4115L58.4806 78.1642L30.4843 87.8894L58.9622 59.4115Z" fill="url(#paint45_linear)"/>
<path opacity="0.5" d="M30.5765 88.3557L58.4638 98.1292L59.0086 116.788L30.5765 88.3557Z" fill="url(#paint46_linear)"/>
<path opacity="0.7" d="M59.2896 116.508L58.7445 98.2226L63.7811 99.8978L63.7714 112.026L59.2896 116.508Z" fill="url(#paint47_linear)"/>
<path d="M72.7348 103.062L64.0514 111.746L64.0608 99.9907L72.7348 103.062Z" fill="#982CE5"/>
<path opacity="0.4" d="M63.9577 112.212L76.0861 112.203L77.7613 117.239L59.476 116.694L63.9577 112.212Z" fill="url(#paint48_linear)"/>
<path d="M59.1952 116.974L77.8537 117.519L87.6273 145.406L59.1952 116.974Z" fill="url(#paint49_linear)"/>
<path opacity="0.5" d="M88.1862 145.405L98.0046 117.502L116.571 117.021L88.1862 145.405Z" fill="url(#paint50_linear)"/>
<path d="M116.852 116.741L117.427 98.0815L145.33 88.2631L116.852 116.741Z" fill="url(#paint51_linear)"/>
</g>
<defs>
<filter id="filter0_dd" x="0.0172424" y="0" width="175.966" height="181.28" filterUnits="userSpaceOnUse" color-interpolation-filters="sRGB">
<feFlood flood-opacity="0" result="BackgroundImageFix"/>
<feColorMatrix in="SourceAlpha" type="matrix" values="0 0 0 0 0 0 0 0 0 0 0 0 0 0 0 0 0 0 127 0" result="hardAlpha"/>
<feOffset/>
<feGaussianBlur stdDeviation="15"/>
<feColorMatrix type="matrix" values="0 0 0 0 1 0 0 0 0 1 0 0 0 0 1 0 0 0 0.2 0"/>
<feBlend mode="normal" in2="BackgroundImageFix" result="effect1_dropShadow"/>
<feColorMatrix in="SourceAlpha" type="matrix" values="0 0 0 0 0 0 0 0 0 0 0 0 0 0 0 0 0 0 127 0" result="hardAlpha"/>
<feOffset dy="5.31447"/>
<feGaussianBlur stdDeviation="15"/>
<feColorMatrix type="matrix" values="0 0 0 0 1 0 0 0 0 1 0 0 0 0 1 0 0 0 0.2 0"/>
<feBlend mode="normal" in2="effect1_dropShadow" result="effect2_dropShadow"/>
<feBlend mode="normal" in="SourceGraphic" in2="effect2_dropShadow" result="shape"/>
</filter>
<linearGradient id="paint0_linear" x1="58.9606" y1="59.0875" x2="116.912" y2="117.039" gradientUnits="userSpaceOnUse">
<stop stop-color="#B753FF"/>
<stop offset="1" stop-color="#A036FF"/>
</linearGradient>
<linearGradient id="paint1_linear" x1="98.2962" y1="64.9998" x2="120.983" y2="70.9588" gradientUnits="userSpaceOnUse">
<stop stop-color="#A036FF"/>
<stop offset="1" stop-color="#3B0073"/>
</linearGradient>
<linearGradient id="paint2_linear" x1="108.136" y1="56.506" x2="99.3649" y2="82.0624" gradientUnits="userSpaceOnUse">
<stop stop-color="#FCCFFF"/>
<stop offset="1" stop-color="#B65BFF"/>
</linearGradient>
<linearGradient id="paint3_linear" x1="106.709" y1="61.1152" x2="98.2756" y2="85.6571" gradientUnits="userSpaceOnUse">
<stop stop-color="#FCCFFF"/>
<stop offset="1" stop-color="#B65BFF"/>
</linearGradient>
<linearGradient id="paint4_linear" x1="94.1038" y1="58.6436" x2="93.101" y2="72.0217" gradientUnits="userSpaceOnUse">
<stop stop-color="#FCCFFF"/>
<stop offset="1" stop-color="#B65BFF"/>
</linearGradient>
<linearGradient id="paint5_linear" x1="87.7825" y1="59.5551" x2="89.3325" y2="96.9445" gradientUnits="userSpaceOnUse">
<stop stop-color="#FCCFFF"/>
<stop offset="1" stop-color="#B65BFF"/>
</linearGradient>
<linearGradient id="paint6_linear" x1="81.3774" y1="38.0715" x2="99.7756" y2="56.4696" gradientUnits="userSpaceOnUse">
<stop stop-color="#FCCFFF"/>
<stop offset="1" stop-color="#B65BFF"/>
</linearGradient>
<linearGradient id="paint7_linear" x1="71.8401" y1="60.9187" x2="57.4604" y2="94.7938" gradientUnits="userSpaceOnUse">
<stop stop-color="#B753FF"/>
<stop offset="1" stop-color="#A036FF"/>
</linearGradient>
<linearGradient id="paint8_linear" x1="75.12" y1="36.7354" x2="71.1835" y2="58.9382" gradientUnits="userSpaceOnUse">
<stop stop-color="#B753FF"/>
<stop offset="1" stop-color="#8110E8"/>
</linearGradient>
<linearGradient id="paint9_linear" x1="49.5022" y1="55.0491" x2="57.3113" y2="73.1751" gradientUnits="userSpaceOnUse">
<stop stop-color="#A036FF"/>
<stop offset="1" stop-color="#3B0073"/>
</linearGradient>
<linearGradient id="paint10_linear" x1="69.0103" y1="78.4494" x2="92.7062" y2="101.741" gradientUnits="userSpaceOnUse">
<stop stop-color="#FCCFFF"/>
<stop offset="1" stop-color="#B65BFF"/>
</linearGradient>
<linearGradient id="paint11_linear" x1="74.9053" y1="65.717" x2="77.7092" y2="68.5209" gradientUnits="userSpaceOnUse">
<stop stop-color="#B753FF"/>
<stop offset="1" stop-color="#A036FF"/>
</linearGradient>
<linearGradient id="paint12_linear" x1="82.7622" y1="24.1311" x2="82.3754" y2="47.2387" gradientUnits="userSpaceOnUse">
<stop stop-color="#A036FF"/>
<stop offset="1" stop-color="#3B0073"/>
</linearGradient>
<linearGradient id="paint13_linear" x1="109.416" y1="39.5211" x2="88.2257" y2="44.676" gradientUnits="userSpaceOnUse">
<stop stop-color="#B753FF"/>
<stop offset="1" stop-color="#A036FF"/>
</linearGradient>
<linearGradient id="paint14_linear" x1="68.8283" y1="58.3139" x2="65.8075" y2="83.656" gradientUnits="userSpaceOnUse">
<stop stop-color="#B753FF"/>
<stop offset="1" stop-color="#A036FF"/>
</linearGradient>
<linearGradient id="paint15_linear" x1="47.3529" y1="41.6057" x2="56.2749" y2="60.4383" gradientUnits="userSpaceOnUse">
<stop stop-color="#B753FF"/>
<stop offset="1" stop-color="#A036FF"/>
</linearGradient>
<linearGradient id="paint16_linear" x1="54.9165" y1="79.0425" x2="22.6622" y2="107.233" gradientUnits="userSpaceOnUse">
<stop stop-color="#D691FF"/>
<stop offset="0.00201261" stop-color="#D691FF"/>
<stop offset="0.6576" stop-color="#BF6AFF"/>
<stop offset="1" stop-color="#B65BFF"/>
</linearGradient>
<linearGradient id="paint17_linear" x1="58.7058" y1="56.3745" x2="50.7088" y2="77.5702" gradientUnits="userSpaceOnUse">
<stop stop-color="#A036FF"/>
<stop offset="1" stop-color="#3B0073"/>
</linearGradient>
<linearGradient id="paint18_linear" x1="72.5117" y1="84.0021" x2="66.6967" y2="89.1399" gradientUnits="userSpaceOnUse">
<stop stop-color="#A036FF"/>
<stop offset="1" stop-color="#3B0073"/>
</linearGradient>
<linearGradient id="paint19_linear" x1="73.3708" y1="97.4063" x2="95.6079" y2="92.7597" gradientUnits="userSpaceOnUse">
<stop stop-color="#B753FF"/>
<stop offset="1" stop-color="#A036FF"/>
</linearGradient>
<linearGradient id="paint20_linear" x1="91.2386" y1="61.5634" x2="75.9287" y2="186.047" gradientUnits="userSpaceOnUse">
<stop stop-color="#FDDBFF"/>
<stop offset="1" stop-color="#B65BFF"/>
</linearGradient>
<linearGradient id="paint21_linear" x1="90.3067" y1="61.4482" x2="74.9962" y2="185.937" gradientUnits="userSpaceOnUse">
<stop stop-color="#FDDBFF"/>
<stop offset="1" stop-color="#B65BFF"/>
</linearGradient>
<linearGradient id="paint22_linear" x1="91.1548" y1="61.5528" x2="75.8452" y2="186.034" gradientUnits="userSpaceOnUse">
<stop stop-color="#FDDBFF"/>
<stop offset="1" stop-color="#B65BFF"/>
</linearGradient>
<linearGradient id="paint23_linear" x1="91.9505" y1="61.6505" x2="76.6408" y2="186.134" gradientUnits="userSpaceOnUse">
<stop stop-color="#FDDBFF"/>
<stop offset="1" stop-color="#B65BFF"/>
</linearGradient>
<linearGradient id="paint24_linear" x1="113.753" y1="67.0268" x2="126.721" y2="86.4661" gradientUnits="userSpaceOnUse">
<stop stop-color="#FCCFFF"/>
<stop offset="1" stop-color="#B65BFF"/>
</linearGradient>
<linearGradient id="paint25_linear" x1="107.496" y1="68.7067" x2="113.308" y2="74.5184" gradientUnits="userSpaceOnUse">
<stop stop-color="#B753FF"/>
<stop offset="1" stop-color="#A036FF"/>
</linearGradient>
<linearGradient id="paint26_linear" x1="128.633" y1="71.5635" x2="117.07" y2="80.2826" gradientUnits="userSpaceOnUse">
<stop stop-color="#B753FF"/>
<stop offset="1" stop-color="#8110E8"/>
</linearGradient>
<linearGradient id="paint27_linear" x1="113.487" y1="88.5869" x2="141.772" y2="99.475" gradientUnits="userSpaceOnUse">
<stop stop-color="#B753FF"/>
<stop offset="1" stop-color="#A036FF"/>
</linearGradient>
<linearGradient id="paint28_linear" x1="69.9691" y1="101.288" x2="70.3272" y2="126.623" gradientUnits="userSpaceOnUse">
<stop stop-color="#B753FF"/>
<stop offset="1" stop-color="#A036FF"/>
</linearGradient>
<linearGradient id="paint29_linear" x1="88.1992" y1="104.193" x2="71.1231" y2="133.355" gradientUnits="userSpaceOnUse">
<stop stop-color="#B753FF"/>
<stop offset="1" stop-color="#A036FF"/>
</linearGradient>
<linearGradient id="paint30_linear" x1="112.52" y1="85.855" x2="93.3289" y2="115.339" gradientUnits="userSpaceOnUse">
<stop stop-color="#A036FF"/>
<stop offset="1" stop-color="#3B0073"/>
</linearGradient>
<linearGradient id="paint31_linear" x1="111.16" y1="96.3635" x2="102.996" y2="120.771" gradientUnits="userSpaceOnUse">
<stop stop-color="#FCCFFF"/>
<stop offset="1" stop-color="#B65BFF"/>
</linearGradient>
<linearGradient id="paint32_linear" x1="105.404" y1="111.136" x2="129.029" y2="132.2" gradientUnits="userSpaceOnUse">
<stop stop-color="#CD70FF"/>
<stop offset="1" stop-color="#B73EFF"/>
</linearGradient>
<linearGradient id="paint33_linear" x1="112.6" y1="72.6714" x2="114.779" y2="94.285" gradientUnits="userSpaceOnUse">
<stop stop-color="#A036FF"/>
<stop offset="1" stop-color="#3B0073"/>
</linearGradient>
<linearGradient id="paint34_linear" x1="107.346" y1="98.4233" x2="110.219" y2="101.296" gradientUnits="userSpaceOnUse">
<stop stop-color="#B753FF"/>
<stop offset="1" stop-color="#A036FF"/>
</linearGradient>
<linearGradient id="paint35_linear" x1="98.272" y1="107.498" x2="101.136" y2="110.362" gradientUnits="userSpaceOnUse">
<stop stop-color="#B753FF"/>
<stop offset="1" stop-color="#A036FF"/>
</linearGradient>
<linearGradient id="paint36_linear" x1="90.1444" y1="84.3726" x2="92.1834" y2="100.784" gradientUnits="userSpaceOnUse">
<stop stop-color="#A036FF"/>
<stop offset="1" stop-color="#3B0073"/>
</linearGradient>
<linearGradient id="paint37_linear" x1="99.2279" y1="109.921" x2="83.0845" y2="140.959" gradientUnits="userSpaceOnUse">
<stop stop-color="#B753FF"/>
<stop offset="1" stop-color="#A036FF"/>
</linearGradient>
<linearGradient id="paint38_linear" x1="110.753" y1="101.255" x2="121.281" y2="111.783" gradientUnits="userSpaceOnUse">
<stop stop-color="#CD70FF"/>
<stop offset="1" stop-color="#B73EFF"/>
</linearGradient>
<linearGradient id="paint39_linear" x1="121.876" y1="83.9469" x2="135.325" y2="97.396" gradientUnits="userSpaceOnUse">
<stop stop-color="#B753FF"/>
<stop offset="1" stop-color="#A036FF"/>
</linearGradient>
<linearGradient id="paint40_linear" x1="119.537" y1="76.1536" x2="138.135" y2="94.7525" gradientUnits="userSpaceOnUse">
<stop stop-color="#B753FF"/>
<stop offset="1" stop-color="#A036FF"/>
</linearGradient>
<linearGradient id="paint41_linear" x1="104.354" y1="71.7803" x2="113.23" y2="80.6562" gradientUnits="userSpaceOnUse">
<stop stop-color="#CD70FF"/>
<stop offset="1" stop-color="#B73EFF"/>
</linearGradient>
<linearGradient id="paint42_linear" x1="95.3412" y1="62.7731" x2="104.199" y2="71.6307" gradientUnits="userSpaceOnUse">
<stop stop-color="#B753FF"/>
<stop offset="1" stop-color="#A036FF"/>
</linearGradient>
<linearGradient id="paint43_linear" x1="102.099" y1="45.4216" x2="77.0947" y2="83.4272" gradientUnits="userSpaceOnUse">
<stop stop-color="#CD70FF"/>
<stop offset="1" stop-color="#B73EFF"/>
</linearGradient>
<linearGradient id="paint44_linear" x1="54.2814" y1="35.9123" x2="67.2419" y2="41.9957" gradientUnits="userSpaceOnUse">
<stop stop-color="#B753FF"/>
<stop offset="1" stop-color="#A036FF"/>
</linearGradient>
<linearGradient id="paint45_linear" x1="48.2027" y1="47.5873" x2="46.1912" y2="67.252" gradientUnits="userSpaceOnUse">
<stop stop-color="#A036FF"/>
<stop offset="1" stop-color="#3B0073"/>
</linearGradient>
<linearGradient id="paint46_linear" x1="72.6828" y1="71.2907" x2="52.5364" y2="93.8751" gradientUnits="userSpaceOnUse">
<stop stop-color="#A036FF"/>
<stop offset="1" stop-color="#3B0073"/>
</linearGradient>
<linearGradient id="paint47_linear" x1="78.8519" y1="102.164" x2="65.1287" y2="105.737" gradientUnits="userSpaceOnUse">
<stop stop-color="#A036FF"/>
<stop offset="1" stop-color="#3B0073"/>
</linearGradient>
<linearGradient id="paint48_linear" x1="69.9553" y1="93.8275" x2="68.8896" y2="113.152" gradientUnits="userSpaceOnUse">
<stop stop-color="#A036FF"/>
<stop offset="1" stop-color="#3B0073"/>
</linearGradient>
<linearGradient id="paint49_linear" x1="83.092" y1="74.4197" x2="76.9029" y2="111.187" gradientUnits="userSpaceOnUse">
<stop stop-color="#A036FF"/>
<stop offset="1" stop-color="#3B0073"/>
</linearGradient>
<linearGradient id="paint50_linear" x1="89.3233" y1="92.1885" x2="101.772" y2="129.185" gradientUnits="userSpaceOnUse">
<stop stop-color="#A036FF"/>
<stop offset="1" stop-color="#3B0073"/>
</linearGradient>
<linearGradient id="paint51_linear" x1="112.975" y1="66.9774" x2="140.277" y2="120.437" gradientUnits="userSpaceOnUse">
<stop stop-color="#A036FF"/>
<stop offset="1" stop-color="#3B0073"/>
</linearGradient>
</defs>
</svg>
