<svg width="22" height="22" viewBox="0 0 22 22" fill="none" xmlns="http://www.w3.org/2000/svg">
	<path d="M9.84454 13.0661V13.1832H9.96166H11.2801H11.3972V13.0661C11.3972 12.7578 11.4806 12.4669 11.6493 12.1916L11.6493 12.1916L11.6502 12.1902C11.8241 11.8973 12.0344 11.6368 12.2812 11.4083L12.2812 11.4083L12.2828 11.4067C12.5386 11.1605 12.7943 10.9095 13.05 10.6538C13.3145 10.3893 13.5388 10.0767 13.7235 9.71715C13.9116 9.35073 14.0058 8.95905 14.0058 8.54368C14.0058 7.67059 13.6898 6.97814 13.0538 6.48107C12.4355 5.9905 11.6909 5.74713 10.8265 5.74713C10.0885 5.74713 9.42438 5.927 8.83753 6.28873C8.24602 6.64382 7.82777 7.16699 7.58307 7.85215L7.5497 7.94559L7.63638 7.99387L8.75635 8.61765L8.88136 8.68727L8.92491 8.55098C9.06506 8.11246 9.29129 7.79228 9.5992 7.58046C9.90793 7.36807 10.3094 7.2573 10.8123 7.2573C11.3128 7.2573 11.7055 7.37991 12.0012 7.61467L12.0011 7.61472L12.0042 7.61697C12.3006 7.83715 12.4531 8.15867 12.4531 8.60038C12.4531 8.88812 12.3707 9.16406 12.2024 9.4301C12.0286 9.69514 11.818 9.94257 11.57 10.1723C11.3133 10.4005 11.0568 10.6428 10.8003 10.8993C10.5353 11.1643 10.3108 11.4821 10.1263 11.8512C9.93826 12.2272 9.84454 12.6327 9.84454 13.0661ZM9.87884 15.9417C10.0805 16.1434 10.3277 16.2454 10.6138 16.2454C10.9075 16.2454 11.1561 16.1445 11.3499 15.9406C11.5508 15.7392 11.6524 15.4923 11.6524 15.2068C11.6524 14.9212 11.5508 14.6744 11.3499 14.4729C11.1561 14.269 10.9075 14.1682 10.6138 14.1682C10.3277 14.1682 10.0805 14.2702 9.87884 14.4718C9.67718 14.6735 9.57518 14.9207 9.57518 15.2068C9.57518 15.4929 9.67718 15.7401 9.87884 15.9417Z" fill="currentColor" stroke="currentColor" stroke-width="0.23426" />
	<rect x="1.00346" y="1.33697" width="19.3264" height="19.3264" rx="9.66321" stroke="currentColor" stroke-width="1.75695" />
</svg>
