<svg width="100" height="100" viewBox="0 0 100 100" fill="none" xmlns="http://www.w3.org/2000/svg">
  <path d="M90.8445 44.7013C90.8451 44.6999 90.8456 44.6987 90.8461 44.6975L90.8445 44.7013ZM90.8445 44.7013L85.0364 58.0879H19.6207C9.62996 58.0879 1.5 49.9585 1.5 39.9707C1.5 35.7952 2.95632 31.7175 5.59862 28.4962L5.59889 28.4959C8.00518 25.5606 11.2917 23.4456 14.9261 22.4702L15.8507 22.2221L16.015 21.279C17.3716 13.4947 22.4942 7.06955 29.3438 3.80969L90.8445 44.7013ZM91.4695 39.9707C91.4695 41.5733 91.2603 43.1615 90.8483 44.6921L29.3442 3.80952C32.4629 2.3264 35.9343 1.5 39.5695 1.5C47.3199 1.5 54.5083 5.21107 59.0044 11.4815L59.5986 12.3102L60.5878 12.0625C61.7546 11.7703 62.9542 11.623 64.1664 11.623C70.6008 11.623 76.2928 15.7993 78.2551 21.8623L78.4862 22.5764L79.1963 22.8195C82.5827 23.9791 85.6184 26.1663 87.7928 29.0317L87.793 29.032C90.1995 32.2021 91.4695 35.9791 91.4695 39.9707Z" fill="#EEF0F5" stroke="#301B52" stroke-width="3" />
  <path d="M8.7877 39.9714C8.7877 39.1625 8.13184 38.5066 7.32305 38.5066C6.51426 38.5066 5.8584 39.1625 5.8584 39.9714C5.8584 47.5584 12.0322 53.7308 19.6209 53.7308C20.4299 53.7308 21.0855 53.075 21.0855 52.266C21.0855 51.457 20.4299 50.8011 19.6209 50.8011C13.6475 50.8011 8.7877 45.9429 8.7877 39.9714Z" fill="#DAE1EA" />
  <path d="M89.4249 64.8223C92.0788 62.4297 93.7505 58.9649 93.7505 55.1191C93.7505 47.9121 87.8858 42.0488 80.6798 42.0488C79.1761 42.0488 77.7173 42.2988 76.3249 42.793C73.6202 35.4551 66.5644 30.4609 58.6239 30.4609C56.8429 30.4609 55.1048 30.7051 53.4487 31.1738C56.6729 28.709 60.653 27.3359 64.8731 27.3359C72.8136 27.3359 79.8694 32.3301 82.5741 39.668C83.9665 39.1738 85.4253 38.9238 86.929 38.9238C94.1352 38.9238 99.9999 44.7871 99.9999 51.9941C99.9999 58.3457 95.4419 63.6543 89.4249 64.8223Z" fill="#B9CFDF" />
  <path d="M89.1394 63.3498L89.1372 63.3502C88.4237 63.4898 87.6864 63.5625 86.9293 63.5625C83.5554 63.5625 80.393 62.1037 78.2098 59.5985L77.2358 58.4809L76.1068 59.4417C72.9726 62.1089 69.0426 63.5625 64.8733 63.5625C62.0163 63.5625 59.2121 62.8594 56.7068 61.524L55.9439 61.1173L55.2096 61.5735C53.1119 62.8768 50.7167 63.5625 48.2229 63.5625C40.9036 63.5625 34.9473 57.6069 34.9473 50.2891C34.9473 42.9733 40.9035 37.0176 48.2229 37.0176C48.5358 37.0176 48.8574 37.0298 49.1817 37.0543L50.0457 37.1197L50.534 36.4039C51.6054 34.8335 52.8981 33.4785 54.3575 32.3673L54.3598 32.3655C57.3222 30.1008 60.9821 28.8359 64.8733 28.8359C72.1809 28.8359 78.6779 33.4343 81.1668 40.1867L81.6793 41.5772L83.0759 41.0816C84.305 40.6454 85.594 40.4238 86.9291 40.4238C93.3073 40.4238 98.5002 45.6157 98.5002 51.9941C98.5002 57.6124 94.4662 62.3158 89.1394 63.3498Z" fill="#DAE1EA" stroke="#301B52" stroke-width="3" />
  <path d="M13.2447 81.4425C7.9615 86.3859 5.75779 91.7446 7.34998 95.7777C8.39373 98.4214 10.9715 99.9999 14.2455 99.9999C17.5195 99.9999 20.0971 98.4214 21.1408 95.7777C22.733 91.7446 20.5293 86.3859 15.2461 81.4425C14.683 80.9157 13.808 80.9157 13.2447 81.4425Z" fill="#9F8DD0" />
  <path d="M28.6811 68.1664C25.3578 71.2756 23.9942 74.7028 25.0328 77.3338C25.7459 79.1399 27.4836 80.218 29.6817 80.218C31.8797 80.218 33.6174 79.1397 34.3305 77.3338C35.3692 74.7028 34.0053 71.2756 30.6822 68.1664C30.1193 67.6397 29.2442 67.6397 28.6811 68.1664Z" fill="#8E7CBF" />
  <path d="M82.8018 81.4425C77.5186 86.3859 75.3149 91.7446 76.9071 95.7777C77.9509 98.4214 80.5286 99.9999 83.8026 99.9999C87.0766 99.9999 89.6542 98.4214 90.6979 95.7777C92.2901 91.7446 90.0864 86.3859 84.8032 81.4425C84.2401 80.9157 83.3651 80.9157 82.8018 81.4425Z" fill="#9F8DD0" />
  <path d="M48.0231 78.782C41.9382 84.4752 39.3911 90.6242 41.2097 95.2305C42.3886 98.217 45.3098 100 49.0239 100C52.738 100 55.6591 98.217 56.8382 95.2306C58.6565 90.6244 56.1095 84.4754 50.0245 78.782C49.4614 78.2553 48.5864 78.2553 48.0231 78.782Z" fill="#9F8DD0" />
  <path d="M67.7557 70.1187C63.7771 73.841 62.1326 77.9138 63.3564 81.0136C64.1799 83.0998 66.1986 84.3453 68.7562 84.3453C71.3139 84.3453 73.3326 83.1 74.156 81.0136C75.3799 77.9138 73.7353 73.841 69.7568 70.1187C69.1939 69.5919 68.3187 69.5919 67.7557 70.1187Z" fill="#8E7CBF" />
</svg>
  