<?xml version="1.0" encoding="UTF-8"?>
<svg width="160px" height="160px" viewBox="0 0 160 160" version="1.1" xmlns="http://www.w3.org/2000/svg" xmlns:xlink="http://www.w3.org/1999/xlink">
    <!-- Generator: Sketch 56.3 (81716) - https://sketch.com -->
    <title>Group 7</title>
    <desc>Created with Sketch.</desc>
    <defs>
        <rect id="path-1" x="0" y="0" width="160" height="160" rx="10"></rect>
        <mask id="mask-2" maskContentUnits="userSpaceOnUse" maskUnits="objectBoundingBox" x="0" y="0" width="160" height="160" fill="white">
            <use xlink:href="#path-1"></use>
        </mask>
    </defs>
    <g id="UI" stroke="none" stroke-width="1" fill="none" fill-rule="evenodd">
        <g id="Settings-avatar" transform="translate(-635.000000, -287.000000)" fill="#FFFFFF">
            <g id="Group-7" transform="translate(635.000000, 287.000000)">
                <use id="Rectangle" stroke="#FFFFFF" mask="url(#mask-2)" stroke-width="4" fill-opacity="0.1" stroke-linecap="round" stroke-linejoin="round" stroke-dasharray="4,6" xlink:href="#path-1"></use>
                <text id="UPLOAD-IMAGE" font-family="Gilroy-Bold, Gilroy" font-size="12" font-weight="bold" letter-spacing="0.857142857">
                    <tspan x="32.9787234" y="128.5">UPLOAD IMAGE</tspan>
                </text>
                <g id="arrow" transform="translate(54.000000, 38.000000)" fill-rule="nonzero">
                    <path d="M52.9028681,33.815642 C52.7058183,33.3405497 52.2459961,33.0305308 51.7357273,33.0305308 L37.8942863,33.0305308 L37.8942863,1.27044626 C37.8942863,0.569181837 37.3283604,0 36.6311075,0 L16.4208391,0 C15.7235862,0 15.1576603,0.569181837 15.1576603,1.27044626 L15.1576603,33.0306499 L1.26316743,33.0306499 C0.752898621,33.0306499 0.29307644,33.3406688 0.0960267076,33.81326 C-0.0985362188,34.2883524 0.00756748303,34.8346669 0.368864798,35.1980428 L25.568494,60.6265005 C25.8059247,60.8652972 26.126841,61 26.4627966,61 C26.7987522,61 27.1196685,60.8652972 27.3570992,60.6290016 L52.63003,35.200544 C52.9913273,34.8370489 53.0999178,34.2908535 52.9028681,33.815642 Z" id="Path" transform="translate(26.500000, 30.500000) scale(1, -1) translate(-26.500000, -30.500000) "></path>
                </g>
            </g>
        </g>
    </g>
</svg>