<?xml version="1.0" encoding="UTF-8"?>
<svg width="382px" height="531px" viewBox="0 0 382 531" version="1.1" xmlns="http://www.w3.org/2000/svg" xmlns:xlink="http://www.w3.org/1999/xlink">
    <!-- Generator: Sketch 56.3 (81716) - https://sketch.com -->
    <title>Rectangle</title>
    <desc>Created with Sketch.</desc>
    <defs>
        <linearGradient x1="24.1614454%" y1="0%" x2="75.8385546%" y2="100%" id="linearGradient-1">
            <stop stop-color="#3B1871" offset="0%"></stop>
            <stop stop-color="#0B0415" stop-opacity="0.181708916" offset="48.4839379%"></stop>
            <stop stop-color="#030104" stop-opacity="0" offset="80.7938156%"></stop>
            <stop stop-color="#000000" offset="100%"></stop>
        </linearGradient>
        <linearGradient x1="24.1614454%" y1="0%" x2="40.3355731%" y2="25.7421875%" id="linearGradient-2">
            <stop stop-color="#8042E1" offset="0%"></stop>
            <stop stop-color="#192029" stop-opacity="0" offset="100%"></stop>
        </linearGradient>
        <path d="M38.458278,-1.55376046e-15 L342.541722,1.55376046e-15 C355.914503,-9.02779573e-16 360.763797,1.39238417 365.652686,4.00699056 C370.541574,6.62159695 374.378403,10.4584256 376.993009,15.3473144 C379.607616,20.2362033 381,25.0854969 381,38.458278 L381,491.541722 C381,504.914503 379.607616,509.763797 376.993009,514.652686 C374.378403,519.541574 370.541574,523.378403 365.652686,525.993009 C360.763797,528.607616 355.914503,530 342.541722,530 L38.458278,530 C25.0854969,530 20.2362033,528.607616 15.3473144,525.993009 C10.4584256,523.378403 6.62159695,519.541574 4.00699056,514.652686 C1.39238417,509.763797 6.01853049e-16,504.914503 -1.03584031e-15,491.541722 L1.03584031e-15,38.458278 C-6.01853049e-16,25.0854969 1.39238417,20.2362033 4.00699056,15.3473144 C6.62159695,10.4584256 10.4584256,6.62159695 15.3473144,4.00699056 C20.2362033,1.39238417 25.0854969,9.02779573e-16 38.458278,-1.55376046e-15 Z" id="path-3"></path>
    </defs>
    <g id="UI" stroke="none" stroke-width="1" fill="none" fill-rule="evenodd">
        <g id="Signup" transform="translate(-528.000000, -184.000000)">
            <g id="Group" transform="translate(529.000000, 185.000000)">
                <g id="Rectangle">
                    <use fill="#0A0D18" xlink:href="#path-3"></use>
                    <use stroke="url(#linearGradient-2)" stroke-width="1" fill="url(#linearGradient-1)" xlink:href="#path-3"></use>
                </g>
            </g>
        </g>
    </g>
</svg>