<svg width="176" height="182" viewBox="0 0 176 182" fill="none" xmlns="http://www.w3.org/2000/svg">
<g filter="url(#filter0_dd)">
<path d="M146 63.92L112.033 30.16L111.873 30H64.1271C63.9668 30 63.9668 30 63.9668 30.16C63.9668 30.16 30.1602 64.08 30 64.24V112.24L63.9668 146H111.873L145.84 112.08L146 63.92Z" fill="url(#paint0_linear)"/>
<path d="M128.377 46.96L145.521 64.08L133.985 68.88L128.377 46.96Z" fill="url(#paint1_linear)"/>
<path opacity="0.4" d="M133.984 106.96V68.8804L145.52 87.9204L133.984 106.96Z" fill="#AE0C0A"/>
<path opacity="0.5" d="M107.066 41.8398L128.375 46.9598L133.983 68.8798L107.066 41.8398Z" fill="url(#paint2_linear)"/>
<path opacity="0.9" d="M65.4083 110.64L55.9553 87.7599L65.2481 65.3599L87.8392 55.9199L110.43 65.3599L119.883 87.9199L110.591 110.48L87.9995 120.08L65.4083 110.64Z" fill="url(#paint3_linear)"/>
<path d="M101.298 61.5198L93.7681 58.3198L58.3593 93.6798L61.5637 101.36L101.298 61.5198Z" fill="url(#paint4_linear)"/>
<path d="M73.5793 114C87.0379 100.56 100.496 87.1199 113.955 73.6799L110.43 65.3599L105.623 63.4399C91.524 77.5199 77.4246 91.5999 63.3251 105.68L65.408 110.64L73.5793 114Z" fill="url(#paint5_linear)"/>
<path d="M117.64 82.64L115.718 78C103.06 90.64 90.4028 103.28 77.7454 115.92L82.3918 117.84L117.64 82.64Z" fill="url(#paint6_linear)"/>
<path d="M88.3203 119.92L119.563 88.7198L119.884 87.7598L119.563 86.7998C108.668 97.6798 97.7733 108.56 86.8783 119.44L87.9998 119.92H88.3203Z" fill="url(#paint7_linear)"/>
<path opacity="0.8" d="M41.8564 68.3999L65.2487 65.3599L55.7957 87.9199L41.8564 68.3999Z" fill="url(#paint8_linear)"/>
<path opacity="0.2" d="M119.884 87.9199L133.984 106.96L110.591 110.48L119.884 87.9199Z" fill="#AE0C0A"/>
<path opacity="0.5" d="M110.431 65.2002L133.984 68.8802L119.884 87.9202L110.431 65.2002Z" fill="url(#paint9_linear)"/>
<path opacity="0.3" d="M110.431 65.3598L107.066 41.8398L133.983 68.8798L110.431 65.3598Z" fill="url(#paint10_linear)"/>
<path opacity="0.3" d="M87.8387 55.9198L107.065 41.8398L110.43 65.3598L87.8387 55.9198Z" fill="url(#paint11_linear)"/>
<path opacity="0.9" d="M68.9338 41.6802L107.066 41.8402L87.8399 55.9202L68.9338 41.6802Z" fill="url(#paint12_linear)"/>
<path d="M68.934 41.6802L87.84 55.9202L65.2489 65.3602L68.934 41.6802Z" fill="url(#paint13_linear)"/>
<path d="M68.9338 41.6802L65.2487 65.3602L41.8564 68.4002L68.9338 41.6802Z" fill="url(#paint14_linear)"/>
<path opacity="0.5" d="M41.856 68.3999L55.7952 87.7599L41.6957 107.12L41.856 68.3999Z" fill="url(#paint15_linear)"/>
<path opacity="0.2" d="M41.6957 107.12L55.7952 87.6001L65.4085 110.64L41.6957 107.12Z" fill="url(#paint16_linear)"/>
<path opacity="0.7" d="M41.6957 107.12L65.4085 110.64L68.6129 134L41.6957 107.12Z" fill="url(#paint17_linear)"/>
<path opacity="0.1" d="M65.4077 110.64L87.9989 120.08L68.6121 134L65.4077 110.64Z" fill="url(#paint18_linear)"/>
<path opacity="0.6" d="M68.6124 134L87.9992 120.08L106.905 134.16L68.6124 134Z" fill="#FF3E3E"/>
<path opacity="0.4" d="M88.0004 120.08L110.592 110.48L106.907 134.16L88.0004 120.08Z" fill="url(#paint19_linear)"/>
<path opacity="0.6" d="M110.591 110.48L133.984 106.96L106.906 134.16L110.591 110.48Z" fill="#FF7F61"/>
<path d="M119.884 87.9204L133.983 68.8804V106.96L119.884 87.9204Z" fill="url(#paint20_linear)"/>
<path d="M107.066 41.8398L111.873 30.3198L128.375 46.9598L107.066 41.8398Z" fill="url(#paint21_linear)"/>
<path d="M87.8387 30.3198H111.872L107.065 41.8398L87.8387 30.3198Z" fill="url(#paint22_linear)"/>
<path opacity="0.5" d="M68.9338 41.6798L87.8399 30.3198L107.066 41.8398L68.9338 41.6798Z" fill="url(#paint23_linear)"/>
<path opacity="0.2" d="M64.1268 30.3198H87.8395L68.9334 41.6798L64.1268 30.3198Z" fill="url(#paint24_linear)"/>
<path opacity="0.8" d="M64.1272 30.3198L68.9338 41.6798L47.1437 47.1198L64.1272 30.3198Z" fill="url(#paint25_linear)"/>
<path d="M47.3039 47.1202L68.9338 41.6802L41.8564 68.5602L47.3039 47.1202Z" fill="url(#paint26_linear)"/>
<path d="M30.3215 64.2396L47.3049 47.1196L41.8574 68.5596L30.3215 64.2396Z" fill="url(#paint27_linear)"/>
<path opacity="0.2" d="M30.3215 87.9199L41.8574 68.3999L41.6971 107.12L30.3215 87.9199Z" fill="url(#paint28_linear)"/>
<path d="M30.3215 64.2397L41.8574 68.5597L30.3215 88.0797V64.2397Z" fill="url(#paint29_linear)"/>
<path opacity="0.6" d="M30.3215 87.7598L41.6971 107.12L30.3215 111.92V87.7598Z" fill="#FF3E3E"/>
<path opacity="0.7" d="M30.3215 111.92L41.6971 107.12L47.1447 128.56L30.3215 111.92Z" fill="#AE0C0A"/>
<path opacity="0.4" d="M41.6957 107.12L47.1433 128.56L68.6129 134L41.6957 107.12Z" fill="#C71B15"/>
<path opacity="0.5" d="M46.983 128.4L68.6129 134L63.9665 145.52L46.983 128.4Z" fill="#AE0C0A"/>
<path opacity="0.7" d="M63.968 145.52L68.6144 134L88.0012 145.52H63.968Z" fill="#AE0C0A"/>
<path opacity="0.6" d="M68.6124 134L106.905 134.16L87.9992 145.52L68.6124 134Z" fill="#C71B15"/>
<path d="M87.8387 145.52L106.905 134.16L111.712 145.52H87.8387Z" fill="url(#paint30_linear)"/>
<path opacity="0.4" d="M106.906 134.16L128.696 128.56L111.713 145.52L106.906 134.16Z" fill="url(#paint31_linear)"/>
<path opacity="0.2" d="M133.984 106.96L128.696 128.56L106.906 134.16L133.984 106.96Z" fill="#C71B15"/>
<path d="M133.983 106.96L145.519 111.92L128.695 128.56L133.983 106.96Z" fill="url(#paint32_linear)"/>
<path opacity="0.7" d="M133.984 106.96L145.52 87.9199V111.92L133.984 106.96Z" fill="#AE0C0A"/>
<path d="M133.984 68.8801L145.52 64.0801V87.9201L133.984 68.8801Z" fill="url(#paint33_linear)"/>
</g>
<defs>
<filter id="filter0_dd" x="0" y="0" width="176" height="181.314" filterUnits="userSpaceOnUse" color-interpolation-filters="sRGB">
<feFlood flood-opacity="0" result="BackgroundImageFix"/>
<feColorMatrix in="SourceAlpha" type="matrix" values="0 0 0 0 0 0 0 0 0 0 0 0 0 0 0 0 0 0 127 0" result="hardAlpha"/>
<feOffset/>
<feGaussianBlur stdDeviation="15"/>
<feColorMatrix type="matrix" values="0 0 0 0 1 0 0 0 0 1 0 0 0 0 1 0 0 0 0.2 0"/>
<feBlend mode="normal" in2="BackgroundImageFix" result="effect1_dropShadow"/>
<feColorMatrix in="SourceAlpha" type="matrix" values="0 0 0 0 0 0 0 0 0 0 0 0 0 0 0 0 0 0 127 0" result="hardAlpha"/>
<feOffset dy="5.31447"/>
<feGaussianBlur stdDeviation="15"/>
<feColorMatrix type="matrix" values="0 0 0 0 1 0 0 0 0 1 0 0 0 0 1 0 0 0 0.2 0"/>
<feBlend mode="normal" in2="effect1_dropShadow" result="effect2_dropShadow"/>
<feBlend mode="normal" in="SourceGraphic" in2="effect2_dropShadow" result="shape"/>
</filter>
<linearGradient id="paint0_linear" x1="29.9234" y1="87.9346" x2="145.977" y2="87.9346" gradientUnits="userSpaceOnUse">
<stop stop-color="#FF805F"/>
<stop offset="1" stop-color="#FF3B2E"/>
</linearGradient>
<linearGradient id="paint1_linear" x1="130.244" y1="58.343" x2="163.162" y2="44.7483" gradientUnits="userSpaceOnUse">
<stop stop-color="#FF9073"/>
<stop offset="1" stop-color="#FF4E42"/>
</linearGradient>
<linearGradient id="paint2_linear" x1="121.988" y1="42.8032" x2="117.074" y2="85.4119" gradientUnits="userSpaceOnUse">
<stop stop-color="#FFD8CF"/>
<stop offset="1" stop-color="#FF7C5C"/>
</linearGradient>
<linearGradient id="paint3_linear" x1="62.2172" y1="62.2663" x2="136.217" y2="136.369" gradientUnits="userSpaceOnUse">
<stop stop-color="#FFD8CF"/>
<stop offset="1" stop-color="#FF7C5C"/>
</linearGradient>
<linearGradient id="paint4_linear" x1="62.256" y1="62.2301" x2="136.252" y2="136.328" gradientUnits="userSpaceOnUse">
<stop stop-color="#FFD8CF"/>
<stop offset="1" stop-color="#FF7C5C"/>
</linearGradient>
<linearGradient id="paint5_linear" x1="62.215" y1="62.2643" x2="136.22" y2="136.372" gradientUnits="userSpaceOnUse">
<stop stop-color="#FFD8CF"/>
<stop offset="1" stop-color="#FF7C5C"/>
</linearGradient>
<linearGradient id="paint6_linear" x1="62.1627" y1="62.299" x2="136.186" y2="136.424" gradientUnits="userSpaceOnUse">
<stop stop-color="#FFD8CF"/>
<stop offset="1" stop-color="#FF7C5C"/>
</linearGradient>
<linearGradient id="paint7_linear" x1="62.1586" y1="62.3224" x2="136.161" y2="136.427" gradientUnits="userSpaceOnUse">
<stop stop-color="#FFD8CF"/>
<stop offset="1" stop-color="#FF7C5C"/>
</linearGradient>
<linearGradient id="paint8_linear" x1="36.7576" y1="64.3855" x2="72.0698" y2="82.6071" gradientUnits="userSpaceOnUse">
<stop stop-color="#FFD8CF"/>
<stop offset="1" stop-color="#FF7C5C"/>
</linearGradient>
<linearGradient id="paint9_linear" x1="114.159" y1="59.8839" x2="139.169" y2="96.2799" gradientUnits="userSpaceOnUse">
<stop stop-color="#FF805F"/>
<stop offset="1" stop-color="#FF3B2E"/>
</linearGradient>
<linearGradient id="paint10_linear" x1="92.6466" y1="86.1165" x2="109.926" y2="67.0106" gradientUnits="userSpaceOnUse">
<stop stop-color="#FF3B2E"/>
<stop offset="1" stop-color="#990000"/>
</linearGradient>
<linearGradient id="paint11_linear" x1="92.6869" y1="37.877" x2="111.032" y2="79.7802" gradientUnits="userSpaceOnUse">
<stop stop-color="#FFD8CF"/>
<stop offset="1" stop-color="#FF7C5C"/>
</linearGradient>
<linearGradient id="paint12_linear" x1="85.9155" y1="34.3029" x2="99.1022" y2="81.36" gradientUnits="userSpaceOnUse">
<stop stop-color="#FFD8CF"/>
<stop offset="1" stop-color="#FF7C5C"/>
</linearGradient>
<linearGradient id="paint13_linear" x1="69.4898" y1="41.3829" x2="84.7764" y2="83.1639" gradientUnits="userSpaceOnUse">
<stop stop-color="#FF805F"/>
<stop offset="1" stop-color="#FF3B2E"/>
</linearGradient>
<linearGradient id="paint14_linear" x1="36.2979" y1="28.7808" x2="66.5303" y2="70.588" gradientUnits="userSpaceOnUse">
<stop stop-color="#FF805F"/>
<stop offset="1" stop-color="#FF3B2E"/>
</linearGradient>
<linearGradient id="paint15_linear" x1="3.50272" y1="68.0271" x2="46.3822" y2="90.2181" gradientUnits="userSpaceOnUse">
<stop stop-color="#FF805F"/>
<stop offset="1" stop-color="#FF3B2E"/>
</linearGradient>
<linearGradient id="paint16_linear" x1="40.7511" y1="92.9779" x2="105.609" y2="128.158" gradientUnits="userSpaceOnUse">
<stop stop-color="#FFD8CF"/>
<stop offset="1" stop-color="#FF7C5C"/>
</linearGradient>
<linearGradient id="paint17_linear" x1="38.0127" y1="131.236" x2="84.3083" y2="102.374" gradientUnits="userSpaceOnUse">
<stop stop-color="#FF805F"/>
<stop offset="1" stop-color="#FF3B2E"/>
</linearGradient>
<linearGradient id="paint18_linear" x1="72.9165" y1="105.294" x2="95.0329" y2="195.503" gradientUnits="userSpaceOnUse">
<stop stop-color="#FFD8CF"/>
<stop offset="1" stop-color="#FF7C5C"/>
</linearGradient>
<linearGradient id="paint19_linear" x1="93.9116" y1="100.194" x2="99.4864" y2="115.951" gradientUnits="userSpaceOnUse">
<stop stop-color="#FF3B2E"/>
<stop offset="1" stop-color="#990000"/>
</linearGradient>
<linearGradient id="paint20_linear" x1="119.897" y1="87.9679" x2="133.932" y2="87.9679" gradientUnits="userSpaceOnUse">
<stop stop-color="#FF805F"/>
<stop offset="1" stop-color="#FF3B2E"/>
</linearGradient>
<linearGradient id="paint21_linear" x1="115.23" y1="30.5409" x2="126.916" y2="93.9137" gradientUnits="userSpaceOnUse">
<stop stop-color="#FF805F"/>
<stop offset="1" stop-color="#FF3B2E"/>
</linearGradient>
<linearGradient id="paint22_linear" x1="94.9824" y1="1.74537" x2="102.174" y2="44.0553" gradientUnits="userSpaceOnUse">
<stop stop-color="#FF805F"/>
<stop offset="1" stop-color="#FF3B2E"/>
</linearGradient>
<linearGradient id="paint23_linear" x1="87.7622" y1="31.3085" x2="88.9308" y2="80.9965" gradientUnits="userSpaceOnUse">
<stop stop-color="#FFD8CF"/>
<stop offset="1" stop-color="#FF7C5C"/>
</linearGradient>
<linearGradient id="paint24_linear" x1="75.1626" y1="26.7533" x2="85.1411" y2="69.9632" gradientUnits="userSpaceOnUse">
<stop stop-color="#FFD8CF"/>
<stop offset="1" stop-color="#FF7C5C"/>
</linearGradient>
<linearGradient id="paint25_linear" x1="54.2865" y1="37.1963" x2="82.5441" y2="70.179" gradientUnits="userSpaceOnUse">
<stop stop-color="#FFA68F"/>
<stop offset="1" stop-color="#FF685E"/>
</linearGradient>
<linearGradient id="paint26_linear" x1="49.7552" y1="50.0885" x2="87.5631" y2="84.1024" gradientUnits="userSpaceOnUse">
<stop stop-color="#FFA68F"/>
<stop offset="1" stop-color="#FF685E"/>
</linearGradient>
<linearGradient id="paint27_linear" x1="37.7144" y1="54.0332" x2="69.5609" y2="102.32" gradientUnits="userSpaceOnUse">
<stop stop-color="#FF987E"/>
<stop offset="1" stop-color="#FF584D"/>
</linearGradient>
<linearGradient id="paint28_linear" x1="20.0842" y1="75.0397" x2="78.9912" y2="109.675" gradientUnits="userSpaceOnUse">
<stop stop-color="#FFD8CF"/>
<stop offset="1" stop-color="#FF7C5C"/>
</linearGradient>
<linearGradient id="paint29_linear" x1="28.6545" y1="71.9386" x2="77.0311" y2="113.771" gradientUnits="userSpaceOnUse">
<stop stop-color="#FF805F"/>
<stop offset="1" stop-color="#FF3B2E"/>
</linearGradient>
<linearGradient id="paint30_linear" x1="94.2183" y1="116.263" x2="95.8963" y2="125.144" gradientUnits="userSpaceOnUse">
<stop stop-color="#FF3B2E"/>
<stop offset="1" stop-color="#990000"/>
</linearGradient>
<linearGradient id="paint31_linear" x1="114.61" y1="101.325" x2="118.086" y2="133.97" gradientUnits="userSpaceOnUse">
<stop stop-color="#FF3B2E"/>
<stop offset="1" stop-color="#990000"/>
</linearGradient>
<linearGradient id="paint32_linear" x1="107.684" y1="91.3123" x2="138.286" y2="121.475" gradientUnits="userSpaceOnUse">
<stop stop-color="#FF3B2E"/>
<stop offset="1" stop-color="#990000"/>
</linearGradient>
<linearGradient id="paint33_linear" x1="124.691" y1="86.8882" x2="179.338" y2="56.0995" gradientUnits="userSpaceOnUse">
<stop stop-color="#FF805F"/>
<stop offset="1" stop-color="#FF3B2E"/>
</linearGradient>
</defs>
</svg>
