<svg width="40" height="40" viewBox="0 0 40 40" xmlns="http://www.w3.org/2000/svg">
<path d="M8 0C3.568 0 0 3.568 0 8V32C0 36.432 3.568 40 8 40H32C36.432 40 40 36.432 40 32V8C40 3.568 36.432 0 32 0H8ZM19.4547 5.69062C24.3556 5.69062 28.6548 8.31573 31.0336 12.2289L33.843 10.5227L33.9914 19.9344L25.6883 15.475L28.6711 13.6641C26.7877 10.5476 23.3748 8.46719 19.4547 8.46719C14.8739 8.46719 10.9795 11.2771 9.41719 15.2937C9.38235 15.401 9.359 15.5077 9.30391 15.6328C8.91859 16.4889 8.03585 16.9276 7.33203 16.6125C6.87085 16.405 6.58259 15.9105 6.57891 15.3195C6.58533 15.0375 6.69 14.7023 6.81563 14.3711C8.77672 9.30056 13.7038 5.69062 19.4547 5.69062ZM6.00859 20.0656L14.3117 24.525L11.3289 26.3359C13.2123 29.4524 16.6252 31.5328 20.5453 31.5328C25.1261 31.5328 29.0205 28.7229 30.5828 24.7063C30.6177 24.599 30.641 24.4923 30.6961 24.3672C31.0814 23.5111 31.9641 23.0724 32.668 23.3875C33.1291 23.595 33.4174 24.0895 33.4211 24.6805C33.4147 24.9625 33.31 25.2977 33.1844 25.6289C31.2233 30.6994 26.2962 34.3094 20.5453 34.3094C15.6444 34.3094 11.3452 31.6843 8.96641 27.7711L6.15703 29.4773L6.00859 20.0656Z" fill="#464560"/>
</svg>
