<svg width="193" height="189" viewBox="0 0 193 189" fill="none" xmlns="http://www.w3.org/2000/svg">
	<g filter="url(#filter0_d_239_19593)">
		<path fill-rule="evenodd" clip-rule="evenodd" d="M99.5242 105.513C105.537 98.2203 106.652 89.8307 105.756 84.1285L121.483 72.3643L173.273 36.8722C171.77 50.8797 159.204 82.9868 120.96 99.3559C110.297 103.919 103.521 105.651 99.5242 105.513Z" fill="url(#paint0_linear_239_19593)" />
		<path d="M121.885 72.9304L172.386 38.3214C170.196 52.8201 157.329 83.0339 120.688 98.717C111.245 102.759 104.948 104.531 100.972 104.791C106.196 97.7873 107.266 89.9846 106.503 84.4357L121.885 72.9304Z" stroke="url(#paint1_linear_239_19593)" stroke-width="1.38819" />
		<g filter="url(#filter1_d_239_19593)">
			<path fill-rule="evenodd" clip-rule="evenodd" d="M88.3743 114.026C99.2434 108.433 103.954 100.083 105.388 92.7533L163.072 74.5209C150.9 93.3989 118.98 127.756 88.6739 114.161C88.5734 114.116 88.4735 114.071 88.3743 114.026Z" fill="url(#paint2_linear_239_19593)" />
		</g>
		<path d="M106.023 93.3485L161.833 75.7085C155.625 84.9895 145.068 97.4284 132.48 106.19C119.495 115.228 104.47 120.275 89.8351 114.121C99.9611 108.542 104.531 100.513 106.023 93.3485Z" stroke="url(#paint3_linear_239_19593)" stroke-width="1.15683" />
		<path opacity="0.8" d="M117.871 106.15L99.5842 106.883L96.9508 109.525L117.871 106.15Z" fill="url(#paint4_linear_239_19593)" />
		<g filter="url(#filter2_d_239_19593)">
			<path fill-rule="evenodd" clip-rule="evenodd" d="M69.8298 119.703C82.8236 117.91 91.4603 113.512 97.027 108.196L143.431 103.479C131.503 119.575 100.229 145.096 69.8298 119.703Z" fill="url(#paint5_linear_239_19593)" />
		</g>
		<path d="M97.2816 108.75L142.166 104.188C136.108 112.011 125.759 121.668 113.342 126.611C100.692 131.647 85.8952 131.796 71.212 120.085C83.4722 118.187 91.7976 113.923 97.2816 108.75Z" stroke="url(#paint6_linear_239_19593)" stroke-width="1.15683" />
		<path d="M111.388 120.755L88.3414 114.286L85.3546 115.874L111.388 120.755Z" fill="url(#paint7_linear_239_19593)" />
		<g filter="url(#filter3_d_239_19593)">
			<path fill-rule="evenodd" clip-rule="evenodd" d="M86.6227 115.086C79.3367 118.406 69.5441 120.548 56.5257 120.569C51.4929 120.578 47.0621 120.747 43.171 121.051L42.7907 121.113C87.4335 150.992 116.444 135.553 125.577 123.89L86.6227 115.086Z" fill="url(#paint8_linear_239_19593)" />
		</g>
		<path d="M43.1761 121.05C47.0661 120.747 51.4954 120.577 56.5262 120.569C69.5441 120.548 79.3364 118.406 86.6224 115.086L125.577 123.891" stroke="url(#paint9_linear_239_19593)" stroke-width="1.15683" />
		<path d="M78.5229 131.537L70.9418 119.416L67.7771 119.773L78.5229 131.537Z" fill="url(#paint10_linear_239_19593)" />
		<path fill-rule="evenodd" clip-rule="evenodd" d="M69.5751 119.737C65.635 120.269 61.2969 120.561 56.5256 120.569C44.7942 120.588 36.3333 121.484 30.3559 122.906C30.1795 124.292 32.8852 125.706 38.2211 125.697C49.0368 125.679 56.6263 129.06 68.7774 137.07C80.585 144.853 85.123 145.753 88.5692 144.84C84.8741 139.755 75.4679 127.313 69.5751 119.737Z" fill="url(#paint11_linear_239_19593)" />
		<path d="M56.5265 121.147C61.1882 121.14 65.4427 120.862 69.3222 120.355C74.9576 127.607 83.6284 139.069 87.5751 144.459C84.452 144.942 79.9032 143.711 69.0957 136.587C56.9094 128.554 49.2042 125.101 38.2201 125.118C35.594 125.123 33.6639 124.776 32.4351 124.287C31.819 124.042 31.4131 123.775 31.1786 123.529C31.1154 123.463 31.0669 123.401 31.0301 123.343C36.9157 122.008 45.1708 121.166 56.5265 121.147Z" stroke="url(#paint12_linear_239_19593)" stroke-width="1.15683" />
		<path d="M107.285 83.3076C107.997 88.9335 107.205 98.8877 102.57 103.538" stroke="url(#paint13_linear_239_19593)" stroke-width="1.43874" />
		<g filter="url(#filter4_d_239_19593)">
			<path d="M58.1095 121.722C102.224 117.829 108.394 99.4126 107.327 84.2202C107.308 83.9509 107.022 83.7914 106.78 83.9125C106.658 83.9741 106.578 84.0978 106.57 84.2349C105.663 101.193 97.8391 115.164 57.4004 118.207C5.03253 120.231 5.37224 132.007 4.32231 135.174C3.48237 137.708 6.08594 138.337 7.49271 138.334C11.8793 132.524 15.9161 127.77 58.1095 121.722Z" fill="url(#paint14_linear_239_19593)" />
			<path d="M58.1095 121.722C102.244 117.827 108.4 99.396 107.326 84.1997C107.308 83.9402 107.031 83.7866 106.799 83.9033C106.667 83.9693 106.588 84.1084 106.597 84.2553C107.593 101.387 99.9274 116.562 57.4004 118.207C5.03253 120.231 5.37224 132.007 4.32231 135.174C3.48237 137.708 6.08594 138.337 7.49271 138.334C5.84289 133.062 14.237 125.594 58.1095 121.722Z" fill="url(#paint15_linear_239_19593)" />
			<path fill-rule="evenodd" clip-rule="evenodd" d="M57.3992 118.206C58.5162 119.121 60.3219 120.392 62.1645 121.394C71.3871 120.321 78.853 118.523 84.7264 116.314C85.7042 115.882 86.6614 115.526 87.4641 115.168C86.9189 114.624 85.8347 114.126 84.2971 114.118C77.4521 116.244 68.6482 117.762 57.3992 118.206Z" fill="url(#paint16_linear_239_19593)" />
			<g filter="url(#filter5_f_239_19593)">
				<path d="M107.285 83.6593V83.6593C106.858 83.8733 106.603 84.3229 106.625 84.7993C107.427 101.707 99.4767 116.58 57.4004 118.207C5.03256 120.231 5.37227 132.007 4.32234 135.174C3.4824 137.708 6.08596 138.337 7.49273 138.334" stroke="url(#paint17_linear_239_19593)" stroke-width="0.639442" />
			</g>
			<g filter="url(#filter6_f_239_19593)">
				<path d="M7.8308 130.244C14.9946 123.62 30.3822 120.653 37.1808 120.173C44.5063 119.282 60.7407 117.954 67.0718 118.366" stroke="#EED7B5" stroke-width="0.799302" />
			</g>
		</g>
	</g>
	<defs>
		<filter id="filter0_d_239_19593" x="0.642146" y="36.8711" width="175.829" height="114.653" filterUnits="userSpaceOnUse" color-interpolation-filters="sRGB">
			<feFlood flood-opacity="0" result="BackgroundImageFix" />
			<feColorMatrix in="SourceAlpha" type="matrix" values="0 0 0 0 0 0 0 0 0 0 0 0 0 0 0 0 0 0 127 0" result="hardAlpha" />
			<feOffset dy="3.19721" />
			<feGaussianBlur stdDeviation="1.5986" />
			<feColorMatrix type="matrix" values="0 0 0 0 0.38125 0 0 0 0 0.416833 0 0 0 0 0.508333 0 0 0 0.38 0" />
			<feBlend mode="normal" in2="BackgroundImageFix" result="effect1_dropShadow_239_19593" />
			<feBlend mode="normal" in="SourceGraphic" in2="effect1_dropShadow_239_19593" result="shape" />
		</filter>
		<filter id="filter1_d_239_19593" x="83.7472" y="71.4356" width="80.867" height="48.9129" filterUnits="userSpaceOnUse" color-interpolation-filters="sRGB">
			<feFlood flood-opacity="0" result="BackgroundImageFix" />
			<feColorMatrix in="SourceAlpha" type="matrix" values="0 0 0 0 0 0 0 0 0 0 0 0 0 0 0 0 0 0 127 0" result="hardAlpha" />
			<feOffset dx="-1.54244" />
			<feGaussianBlur stdDeviation="1.54244" />
			<feColorMatrix type="matrix" values="0 0 0 0 0.446731 0 0 0 0 0.444028 0 0 0 0 0.579167 0 0 0 0.12 0" />
			<feBlend mode="normal" in2="BackgroundImageFix" result="effect1_dropShadow_239_19593" />
			<feBlend mode="normal" in="SourceGraphic" in2="effect1_dropShadow_239_19593" result="shape" />
		</filter>
		<filter id="filter2_d_239_19593" x="65.2023" y="100.394" width="79.7708" height="33.1326" filterUnits="userSpaceOnUse" color-interpolation-filters="sRGB">
			<feFlood flood-opacity="0" result="BackgroundImageFix" />
			<feColorMatrix in="SourceAlpha" type="matrix" values="0 0 0 0 0 0 0 0 0 0 0 0 0 0 0 0 0 0 127 0" result="hardAlpha" />
			<feOffset dx="-1.54244" />
			<feGaussianBlur stdDeviation="1.54244" />
			<feColorMatrix type="matrix" values="0 0 0 0 0.446731 0 0 0 0 0.444028 0 0 0 0 0.579167 0 0 0 0.12 0" />
			<feBlend mode="normal" in2="BackgroundImageFix" result="effect1_dropShadow_239_19593" />
			<feBlend mode="normal" in="SourceGraphic" in2="effect1_dropShadow_239_19593" result="shape" />
		</filter>
		<filter id="filter3_d_239_19593" x="35.0783" y="105.775" width="98.211" height="38.7613" filterUnits="userSpaceOnUse" color-interpolation-filters="sRGB">
			<feFlood flood-opacity="0" result="BackgroundImageFix" />
			<feColorMatrix in="SourceAlpha" type="matrix" values="0 0 0 0 0 0 0 0 0 0 0 0 0 0 0 0 0 0 127 0" result="hardAlpha" />
			<feOffset dy="-1.5986" />
			<feGaussianBlur stdDeviation="3.85609" />
			<feColorMatrix type="matrix" values="0 0 0 0 0.365689 0 0 0 0 0.351111 0 0 0 0 0.533333 0 0 0 0.2 0" />
			<feBlend mode="normal" in2="BackgroundImageFix" result="effect1_dropShadow_239_19593" />
			<feBlend mode="normal" in="SourceGraphic" in2="effect1_dropShadow_239_19593" result="shape" />
		</filter>
		<filter id="filter4_d_239_19593" x="2.24075" y="83.374" width="108.392" height="60.0761" filterUnits="userSpaceOnUse" color-interpolation-filters="sRGB">
			<feFlood flood-opacity="0" result="BackgroundImageFix" />
			<feColorMatrix in="SourceAlpha" type="matrix" values="0 0 0 0 0 0 0 0 0 0 0 0 0 0 0 0 0 0 127 0" result="hardAlpha" />
			<feOffset dx="0.799302" dy="2.39791" />
			<feGaussianBlur stdDeviation="1.19895" />
			<feColorMatrix type="matrix" values="0 0 0 0 0.7 0 0 0 0 0.526167 0 0 0 0 0.265417 0 0 0 0.5 0" />
			<feBlend mode="normal" in2="BackgroundImageFix" result="effect1_dropShadow_239_19593" />
			<feBlend mode="normal" in="SourceGraphic" in2="effect1_dropShadow_239_19593" result="shape" />
		</filter>
		<filter id="filter5_f_239_19593" x="3.59956" y="83.1342" width="104.068" height="55.7599" filterUnits="userSpaceOnUse" color-interpolation-filters="sRGB">
			<feFlood flood-opacity="0" result="BackgroundImageFix" />
			<feBlend mode="normal" in="SourceGraphic" in2="BackgroundImageFix" result="shape" />
			<feGaussianBlur stdDeviation="0.119895" result="effect1_foregroundBlur_239_19593" />
		</filter>
		<filter id="filter6_f_239_19593" x="4.36236" y="114.691" width="65.9325" height="19.0429" filterUnits="userSpaceOnUse" color-interpolation-filters="sRGB">
			<feFlood flood-opacity="0" result="BackgroundImageFix" />
			<feBlend mode="normal" in="SourceGraphic" in2="BackgroundImageFix" result="shape" />
			<feGaussianBlur stdDeviation="1.5986" result="effect1_foregroundBlur_239_19593" />
		</filter>
		<linearGradient id="paint0_linear_239_19593" x1="172.847" y1="36.4483" x2="123.116" y2="88.5641" gradientUnits="userSpaceOnUse">
			<stop offset="0.220856" stop-color="#FAFAFA" />
			<stop offset="1" stop-color="#D8D9E1" />
		</linearGradient>
		<linearGradient id="paint1_linear_239_19593" x1="173.145" y1="36.7428" x2="95.9788" y2="94.0368" gradientUnits="userSpaceOnUse">
			<stop stop-color="#F8F8F9" stop-opacity="0.46" />
			<stop offset="0.575358" stop-color="#F8F8F9" />
			<stop offset="0.783289" stop-color="white" />
			<stop offset="0.884809" stop-color="white" stop-opacity="0.19" />
		</linearGradient>
		<linearGradient id="paint2_linear_239_19593" x1="153.769" y1="65.2486" x2="113.667" y2="106.814" gradientUnits="userSpaceOnUse">
			<stop offset="0.220856" stop-color="#FAFAFA" />
			<stop offset="1" stop-color="#D8D9E1" />
		</linearGradient>
		<linearGradient id="paint3_linear_239_19593" x1="154.224" y1="65.7109" x2="93.8109" y2="114.134" gradientUnits="userSpaceOnUse">
			<stop stop-color="#F8F8F9" stop-opacity="0.46" />
			<stop offset="0.292773" stop-color="#F8F8F9" stop-opacity="0.45" />
			<stop offset="0.629289" stop-color="white" stop-opacity="0.51" />
			<stop offset="0.742389" stop-color="white" stop-opacity="0.12" />
		</linearGradient>
		<linearGradient id="paint4_linear_239_19593" x1="108.196" y1="104.231" x2="101.354" y2="113.914" gradientUnits="userSpaceOnUse">
			<stop offset="0.374859" stop-color="#AD8357" />
			<stop offset="0.986946" stop-color="#714538" />
		</linearGradient>
		<linearGradient id="paint5_linear_239_19593" x1="128.859" y1="88.9553" x2="97.1093" y2="121.418" gradientUnits="userSpaceOnUse">
			<stop offset="0.220856" stop-color="#FAFAFA" />
			<stop offset="1" stop-color="#D8D9E1" />
		</linearGradient>
		<linearGradient id="paint6_linear_239_19593" x1="129.289" y1="89.3828" x2="83.4303" y2="129.781" gradientUnits="userSpaceOnUse">
			<stop stop-color="#F8F8F9" stop-opacity="0.46" />
			<stop offset="0.21882" stop-color="#F8F8F9" stop-opacity="0.67" />
			<stop offset="0.45675" stop-color="white" stop-opacity="0.46" />
			<stop offset="0.742389" stop-color="white" stop-opacity="0" />
		</linearGradient>
		<linearGradient id="paint7_linear_239_19593" x1="97.8592" y1="113.748" x2="91.0553" y2="121.867" gradientUnits="userSpaceOnUse">
			<stop offset="0.374859" stop-color="#AD8357" />
			<stop offset="0.986946" stop-color="#714538" />
		</linearGradient>
		<linearGradient id="paint8_linear_239_19593" x1="96.1845" y1="115.923" x2="86.4601" y2="138.804" gradientUnits="userSpaceOnUse">
			<stop stop-color="#EFEFEF" />
			<stop offset="0.411026" stop-color="#DEDFE6" />
			<stop offset="0.58979" stop-color="#D1D2D9" />
			<stop offset="1" stop-color="#D1D2D9" />
		</linearGradient>
		<linearGradient id="paint9_linear_239_19593" x1="121.818" y1="124.196" x2="84.8125" y2="134.377" gradientUnits="userSpaceOnUse">
			<stop stop-color="#F8F8F9" stop-opacity="0.86" />
			<stop offset="0.319253" stop-color="#F8F8F9" />
			<stop offset="0.615431" stop-color="white" stop-opacity="0.88" />
			<stop offset="0.867925" stop-color="white" />
		</linearGradient>
		<linearGradient id="paint10_linear_239_19593" x1="77.8104" y1="125.911" x2="75.169" y2="119.312" gradientUnits="userSpaceOnUse">
			<stop offset="0.374859" stop-color="#AD8357" />
			<stop offset="0.986946" stop-color="#714538" />
		</linearGradient>
		<linearGradient id="paint11_linear_239_19593" x1="70.9413" y1="120.932" x2="57.0431" y2="148.054" gradientUnits="userSpaceOnUse">
			<stop offset="0.0306468" stop-color="#DBDCE7" />
			<stop offset="0.274204" stop-color="#CBCCD7" />
			<stop offset="0.675444" stop-color="#D1D2D9" />
		</linearGradient>
		<linearGradient id="paint12_linear_239_19593" x1="74.9903" y1="124.95" x2="47.7078" y2="145.864" gradientUnits="userSpaceOnUse">
			<stop stop-color="#F8F8F9" stop-opacity="0.78" />
			<stop offset="0.319253" stop-color="#F8F8F9" stop-opacity="0" />
			<stop offset="0.615431" stop-color="white" stop-opacity="0" />
			<stop offset="0.867925" stop-color="white" stop-opacity="0" />
		</linearGradient>
		<linearGradient id="paint13_linear_239_19593" x1="111.072" y1="87.4338" x2="98.7829" y2="99.7631" gradientUnits="userSpaceOnUse">
			<stop stop-color="white" />
			<stop offset="1" stop-color="white" stop-opacity="0" />
		</linearGradient>
		<linearGradient id="paint14_linear_239_19593" x1="107.999" y1="90.3403" x2="6.25857" y2="136.402" gradientUnits="userSpaceOnUse">
			<stop stop-color="#594530" />
			<stop offset="0.667292" stop-color="#7A5D3F" />
			<stop offset="1" stop-color="#564029" />
		</linearGradient>
		<linearGradient id="paint15_linear_239_19593" x1="115.387" y1="91.7351" x2="3.25057" y2="124.977" gradientUnits="userSpaceOnUse">
			<stop stop-color="#926C45" />
			<stop offset="0.198565" stop-color="#B98D5F" />
			<stop offset="0.568549" stop-color="#B98D5F" />
			<stop offset="1" stop-color="#94693C" />
		</linearGradient>
		<linearGradient id="paint16_linear_239_19593" x1="78.6654" y1="111.313" x2="71.6568" y2="126.799" gradientUnits="userSpaceOnUse">
			<stop stop-color="#B98D5F" />
			<stop offset="0.0810439" stop-color="#B98D5F" />
			<stop offset="0.312564" stop-color="#ECD4AF" />
			<stop offset="0.465883" stop-color="#FDEED8" />
			<stop offset="0.619479" stop-color="#ECD4AF" />
			<stop offset="0.845306" stop-color="#B98D5F" />
			<stop offset="1" stop-color="#B98D5F" />
		</linearGradient>
		<linearGradient id="paint17_linear_239_19593" x1="89.9236" y1="113.054" x2="15.0274" y2="121.968" gradientUnits="userSpaceOnUse">
			<stop offset="0.00453841" stop-color="#B98D5F" />
			<stop offset="0.184436" stop-color="white" />
			<stop offset="0.808004" stop-color="#D3B790" />
			<stop offset="0.912608" stop-color="#F7E1C2" />
			<stop offset="1" stop-color="#D3B790" />
		</linearGradient>
	</defs>
</svg>
