<svg width="20" height="20" viewBox="0 0 20 20" fill="none" xmlns="http://www.w3.org/2000/svg">
<g clip-path="url(#clip0_132_7237)">
<path d="M16.7601 6.50109L18.1956 4.10867L15.8914 1.80445L13.4988 3.23988C13.1181 3.04289 12.7195 2.87809 12.3077 2.7475L11.631 0H8.36898L7.6923 2.74746C7.28051 2.87809 6.88188 3.04285 6.50113 3.23984L4.10863 1.80438L1.80441 4.10859L3.23988 6.50102C3.04297 6.8816 2.8782 7.28027 2.7475 7.69227L0 8.36898V11.631L2.7475 12.3077C2.8782 12.7197 3.04293 13.1183 3.23988 13.4989L1.80445 15.8913L4.10867 18.1956L6.50109 16.7601C6.88172 16.957 7.28035 17.1218 7.69234 17.2525L8.36898 20H11.631L12.3077 17.2525C12.7196 17.1218 13.1183 16.957 13.4989 16.7601L15.8914 18.1956L18.1956 15.8913L16.7602 13.4989C16.9571 13.1183 17.1218 12.7196 17.2525 12.3077L20 11.631V8.36898L17.2525 7.6923C17.1218 7.28035 16.957 6.88172 16.7601 6.50109ZM18.8281 10.7127L16.3085 11.3333L16.2189 11.6679C15.9398 12.7106 15.4982 13.3355 15.4048 13.5178L16.72 15.7096L15.7097 16.72L13.5179 15.4048C13.327 15.5027 12.7086 15.9404 11.6679 16.2189L11.3333 16.3085L10.7127 18.8281H9.28727L8.66672 16.3085L8.33215 16.2189C7.28941 15.9398 6.66449 15.4982 6.48223 15.4048L4.29039 16.7199L3.28012 15.7096L4.59523 13.5177C4.49762 13.3272 4.05977 12.7086 3.78117 11.6679L3.6916 11.3333L1.17188 10.7127V9.28727L3.69152 8.66672L3.78109 8.33211C3.92746 7.78531 4.1432 7.26344 4.4223 6.78102L4.5952 6.48219L3.28008 4.29031L4.29031 3.28004L6.48223 4.59516C6.67258 4.49762 7.29207 4.05937 8.33203 3.78109L8.66668 3.69156L9.28727 1.17188H10.7127L11.3333 3.69156L11.668 3.78109C12.71 4.05992 13.3356 4.5018 13.5177 4.59516L15.7097 3.28004L16.7199 4.29031L15.4048 6.48215C15.5027 6.67305 15.9404 7.29152 16.2189 8.33211L16.3085 8.66672L18.8281 9.28727V10.7127Z" fill="black"/>
<path d="M10 4.72656C7.09223 4.72656 4.72656 7.09223 4.72656 10C4.72656 12.9078 7.09223 15.2734 10 15.2734C12.9078 15.2734 15.2734 12.9078 15.2734 10C15.2734 7.09223 12.9078 4.72656 10 4.72656ZM10 14.1016C7.7384 14.1016 5.89844 12.2616 5.89844 10C5.89844 7.7384 7.7384 5.89844 10 5.89844C12.2616 5.89844 14.1016 7.7384 14.1016 10C14.1016 12.2616 12.2616 14.1016 10 14.1016Z" fill="black"/>
<path d="M10 7.07031C8.38457 7.07031 7.07031 8.38457 7.07031 10C7.07031 11.6154 8.38457 12.9297 10 12.9297C11.6154 12.9297 12.9297 11.6154 12.9297 10C12.9297 8.38457 11.6154 7.07031 10 7.07031ZM10 11.7578C9.03074 11.7578 8.24219 10.9693 8.24219 10C8.24219 9.03074 9.03074 8.24219 10 8.24219C10.9693 8.24219 11.7578 9.03074 11.7578 10C11.7578 10.9693 10.9693 11.7578 10 11.7578Z" fill="black"/>
</g>
<defs>
<clipPath id="clip0_132_7237">
<rect width="20" height="20" fill="white"/>
</clipPath>
</defs>
</svg>
