<svg version="1.2" baseProfile="tiny-ps" xmlns="http://www.w3.org/2000/svg" viewBox="0 0 1084 635" width="1084" height="635">
  <title>image</title>
  <defs>
    <clipPath clipPathUnits="userSpaceOnUse" id="cp1">
      <path d="M-14 -185L1099 -185L1099 649.75L-14 649.75L-14 -185Z" />
    </clipPath>
    <linearGradient id="grd1" gradientUnits="userSpaceOnUse" x1="463.662" y1="367.412" x2="463.662" y2="563.115">
      <stop offset="0" stop-color="#3f3f3f" />
      <stop offset="1" stop-color="#d1d1d1" />
    </linearGradient>
    <linearGradient id="grd2" gradientUnits="userSpaceOnUse" x1="226.316" y1="37.728" x2="80" y2="37.728">
      <stop offset="0" stop-color="#012f47" />
      <stop offset="0.958" stop-color="#011824" />
    </linearGradient>
    <linearGradient id="grd3" gradientUnits="userSpaceOnUse" x1="226.316" y1="37.728" x2="80" y2="37.728">
      <stop offset="0" stop-color="#586931" />
      <stop offset="1" stop-color="#465523" />
    </linearGradient>
    <linearGradient id="grd4" gradientUnits="userSpaceOnUse" x1="226.316" y1="37.728" x2="80" y2="37.728">
      <stop offset="0" stop-color="#586931" />
      <stop offset="1" stop-color="#465523" />
    </linearGradient>
    <linearGradient id="grd5" gradientUnits="userSpaceOnUse" x1="226.316" y1="37.728" x2="80" y2="37.728">
      <stop offset="0" stop-color="#586931" />
      <stop offset="1" stop-color="#465523" />
    </linearGradient>
    <linearGradient id="grd6" gradientUnits="userSpaceOnUse" x1="226.316" y1="37.728" x2="80" y2="37.728">
      <stop offset="0" stop-color="#586931" />
      <stop offset="1" stop-color="#465523" />
    </linearGradient>
    <linearGradient id="grd7" gradientUnits="userSpaceOnUse" x1="226.316" y1="37.728" x2="80" y2="37.728">
      <stop offset="0" stop-color="#586931" />
      <stop offset="1" stop-color="#465523" />
    </linearGradient>
  </defs>
  <style>tspan { white-space:pre }.shp0 { fill: #010101 } .shp1 { fill: #ffffff } .shp2 { opacity: 0.29;fill: #ffffff } .shp3 { fill: url(#grd1) } .shp4 { fill: #000000 } .shp5 { fill: #2a2220 } .shp6 { fill: #827876 } .shp7 { fill: #191515 } .shp8 { fill: #ab9ea1 } .shp9 { fill: #312520 } .shp10 { fill: #404145 } .shp11 { fill: #494a4f } .shp12 { fill: #2e2f33 } .shp13 { fill: #8f8888 } .shp14 { fill: #bab7b6 } .shp15 { opacity: 0.702;fill: #ffffff } .shp16 { fill: url(#grd2) } .shp17 { opacity: 0.502;fill: url(#grd3) } .shp18 { opacity: 0.502;fill: url(#grd4) } .shp19 { opacity: 0.502;fill: url(#grd5) } .shp20 { opacity: 0.502;fill: url(#grd6) } .shp21 { opacity: 0.502;fill: url(#grd7) } </style>
  <g clip-path="url(#cp1)">
    <g>
      <path class="shp0" d="M-14 -185L1099 -185L1099 649.75L-14 649.75L-14 -185Z" />
      <g style="opacity: 0.051">
        <path fill-rule="evenodd" class="shp1" d="M658.75 121.98C658.53 115.36 660.93 108.43 665.96 101.19C670.99 94.17 678.3 90.16 687.92 89.17C692.53 89.23 696.19 90.66 698.92 93.43C701.65 96.43 703.06 99.59 703.17 102.89C703.18 109.75 700.44 116.36 694.95 122.73C689.25 129.11 681.36 132.7 671.3 133.48C667.13 133.4 664.03 132.29 661.98 130.15C659.93 127.79 658.85 125.07 658.75 121.98ZM604.52 301.9C598.39 302.11 593.61 300.07 590.18 295.76C586.76 291.69 584.92 286 584.68 278.71C584.91 274.28 585.43 269.75 586.23 265.13C580.71 271.18 575.11 276.8 569.43 281.98C552.98 296.99 537.55 305.27 523.17 306.82L522.18 306.89C504.81 306.9 491.43 299.95 482.02 286.04C479.04 281.74 476.48 277.47 474.32 273.23C470.8 277.93 467.17 282.54 463.45 287.06C449.29 304.27 435.77 314.26 422.88 317.01C417.45 317.8 412.94 316.44 409.35 312.95C405.76 309.45 403.46 304.21 402.47 297.22C401.85 292.85 401.73 288.07 402.1 282.89C402.47 277.7 403.13 272.26 404.1 266.54C396.69 281.44 388.19 294.82 378.58 306.69C369.22 318.75 359.15 325.78 348.37 327.79C339.88 328.8 333.47 327.27 329.13 323.22C324.55 318.98 321.69 312.92 320.58 305.05C318.31 281.29 325.56 254.38 342.32 224.3C359.08 194.22 380.85 176.02 407.62 169.69C415.46 168.78 421.29 170.06 425.1 173.52C428.91 176.98 431.29 181.32 432.25 186.53C435.63 180.69 438.62 176.03 441.22 172.52C443.83 169.03 445.99 167.15 447.73 166.9C452.56 166.65 457.56 168.27 462.7 171.76C467.84 175.25 470.73 178.41 471.34 181.21C471.53 182.52 471.23 183.57 470.46 184.35C461.42 200.16 453.53 217.13 446.81 235.27C440.12 253.63 437.13 266.9 437.84 275.04C438.06 276.57 438.54 277.61 439.28 278.18C439.84 278.99 440.66 279.31 441.75 279.16C445.83 278.35 452.34 272.73 461.26 262.29C463.3 259.92 465.38 257.38 467.5 254.68C466.79 251.56 466.32 248.46 466.09 245.37C466.02 241.61 467.29 237.97 469.88 234.44C472.27 231.15 474.55 229.32 476.72 228.93C478.01 228.61 478.73 229.44 478.88 231.42C479.36 233.33 479.86 235.2 480.38 237.04C483.46 232.56 486.61 227.77 489.85 222.69C490.25 222.16 490.78 221.77 491.45 221.54C496.73 214.3 503.54 204.67 511.89 192.64C521.6 178.59 529.26 166.59 534.89 156.63C535.83 154.56 536.7 152.94 537.49 151.77C538.27 150.6 539.2 149.76 540.26 149.23C541.54 148.69 542.84 148.37 544.15 148.26C550.08 148.25 556.17 150.33 562.43 154.51C568.68 158.68 572.18 162.85 572.93 167C573.05 168.54 572.49 169.92 571.27 171.12C564.55 186.93 561.63 203.56 562.51 221C563.17 238.46 562.7 252.69 561.11 263.67C568.18 258.25 575.58 251.47 583.32 243.34C588.82 237.23 594.23 230.78 599.56 223.97C602.85 216.8 606.7 209.44 611.08 201.9C627.46 173.49 639.33 157.95 646.7 155.26C651.53 155.55 656.21 157.7 660.73 161.75C665.46 165.78 667.99 169.23 668.3 172.09C668.35 173.42 667.94 174.43 667.09 175.12C656.39 189.85 646.83 205.87 638.42 223.17C629.79 240.71 625.4 253.57 625.23 261.75C625.33 264.84 626.48 266.34 628.67 266.27C632.82 265.91 639.78 261.03 649.56 251.63C657.06 244.59 665.23 235.83 674.04 225.36C677.76 218.08 682.08 210.37 687 202.24C704.29 173.91 716.92 158.27 724.88 155.36C729.69 155.91 734.13 158.11 738.22 161.97C742.07 166.03 744.07 169.84 744.21 173.37C744.18 174.7 743.72 175.68 742.83 176.33C735.85 184.57 728.38 195.12 720.41 207.98C712.46 220.62 705.25 233.83 698.81 247.61C715.25 227.65 733.57 207.84 753.74 188.18C773.69 168.74 788.16 158.35 797.19 157.01C805.94 157.65 812.78 160.68 817.7 166.1C822.62 171.3 825.04 176.33 824.92 181.18C824.9 182.29 824.66 183.28 824.2 184.15C823.96 185.03 823.4 185.68 822.51 186.1C811.46 200 802.37 214.27 795.25 228.92C787.9 243.56 784.03 254.75 783.64 262.48C783.57 265.58 784.63 267.14 786.83 267.19C789.9 267.04 796.25 262.55 805.87 253.7C810.98 249.13 816.53 243.75 822.54 237.57C828.88 223.78 838.28 210.93 850.73 199.02C871.27 179.42 889.77 169.81 906.25 170.2L906.58 170.24C909.61 168.56 913.04 167.36 916.86 166.65C920.68 165.94 924.76 165.81 929.13 166.26C939.54 167.8 946.86 172.56 951.11 180.55C955.13 188.52 956.67 197 955.74 206C954.99 213.25 952.89 220.8 949.43 228.65C945.95 236.72 941.38 244.68 935.72 252.52C940.78 252.6 946.42 251.31 952.65 248.63C958.87 245.95 965.48 241.65 972.49 235.72C975.24 234.68 977.69 235.49 979.84 238.16C981.98 240.82 982.65 243.89 981.86 247.35C970.02 257.44 959.15 264.52 949.26 268.58C939.61 272.46 930.96 273.99 923.34 273.2C922.03 273.06 920.62 272.81 919.12 272.42C908.52 283.3 896.93 292.07 884.34 298.75C871.56 305.19 858.84 307.85 846.17 306.75C835.06 305.58 826.68 301.38 821.05 294.13C816.08 287.75 813.71 279.4 813.94 269.08C810.66 272.3 807.34 275.44 804 278.53C788.11 293.2 773.68 300.83 760.74 301.42C754.82 301.28 750.16 298.97 746.75 294.46C743.34 290.19 741.72 284.4 741.88 277.11C743.08 262.55 748.83 245.77 759.12 226.77C769.41 207.77 779.4 192.3 789.1 180.37C771.47 194.34 751.3 213.66 728.61 238.34C705.92 262.81 691.16 280.93 684.32 292.71C683.39 294.9 682.14 296.64 680.58 297.93C678.8 299 676.81 299.5 674.63 299.45C670.24 299.35 666.35 297.05 662.94 292.55C659.32 288.05 657.5 281.27 657.48 272.2C657.72 270.44 658.02 268.62 658.39 266.76C655.22 270.07 652 273.33 648.73 276.52C633.02 292.09 618.29 300.55 604.52 301.9ZM318.71 172.77C324.08 199.01 319.07 224.61 303.69 249.58C288.24 274.33 269.44 290.27 247.28 297.39C239.18 299.36 232.08 299.55 226 297.99C219.85 296.21 214.57 293.4 210.15 289.56C205.14 311.74 198.6 331.57 190.54 349.08C182.26 366.64 171.11 377.65 157.1 382.12C145.92 384.45 136.47 382.64 128.78 376.72C121.08 370.79 116.29 364.29 114.42 357.25C113.69 354.48 113.62 352.09 114.23 350.09C114.83 348.1 116.19 346.82 118.31 346.25C120.48 345.89 122.3 346.32 123.76 347.52C125.42 348.68 128.08 348.88 131.74 348.12C151.18 336.7 167.4 307.61 180.41 260.86C193.69 214.27 209.31 185.46 227.26 174.44C232.4 173.28 237.01 173.99 241.09 176.54C245.12 178.89 247.6 181.42 248.55 184.14C248.84 185.21 248.82 186.01 248.51 186.56C248.05 187.37 247.15 187.84 245.83 187.97C238.37 190.66 232.38 199.71 227.84 215.12C223.15 230.8 218.69 249.05 214.46 269.87C217.12 270.52 220.68 270.25 225.13 269.05C244.75 262.62 260.74 248.92 273.11 227.97C285.48 207.02 289.84 187.53 286.2 169.52C283.54 159.49 277.42 152.67 267.84 149.08C258.27 145.49 245.08 145.84 228.3 150.13C198.52 159.31 175.62 173.95 159.63 194.05C143.63 214.15 137.24 232 140.48 247.6C141.36 249.2 141.3 250.7 140.31 252.11C139.27 253.31 137.58 254.22 135.25 254.85C129.96 256.28 123.78 255.66 116.72 252.99C109.81 250.04 104.93 244.04 102.07 234.97C98.23 214.5 107.46 193.7 129.77 172.59C152.03 151.26 178.94 135.99 210.54 126.78C240.56 119.37 264.91 120.48 283.57 130.08C301.96 139.54 313.67 153.77 318.71 172.77ZM419.06 212.81L424.18 202.03C424.32 201.56 424.36 201 424.27 200.34C424.23 200.06 424.19 199.8 424.16 199.56L424.15 199.51L424.15 199.5C424.11 199.21 424.07 198.94 424.04 198.7C423.32 195.24 421.94 192.54 419.9 190.6C417.64 188.7 415.42 187.9 413.25 188.21C400.17 192.78 387.65 207.54 375.7 232.47C363.52 257.45 357.69 276.37 358.18 289.24C358.71 292.96 360.38 294.61 363.2 294.2C368.38 293.23 375.69 285.48 385.14 270.94C394.62 256.63 405.93 237.25 419.06 212.81ZM499.72 235.15C495.61 242.13 491.32 248.94 486.85 255.59C488.25 258.88 489.74 262.03 491.32 265.04C496.67 274.83 503.09 279.77 510.57 279.86C519.89 278.04 525.44 268.63 527.24 251.64C528.79 234.46 529.6 216.11 529.66 196.59C525.46 202.02 520.64 208.04 515.21 214.66C510 221.49 504.91 228.31 499.94 235.12C499.87 235.13 499.79 235.14 499.72 235.15ZM932.98 205.61C933.55 200.12 932.6 195.46 930.13 191.65C927.42 188.03 922.81 185.78 916.29 184.87C913.78 185.72 911.24 186.9 908.66 188.4C906.08 189.91 903.47 191.75 900.82 193.91C900.25 195.18 899.77 196.58 899.39 198.09C899.01 199.61 898.74 201.25 898.56 203C897.83 210.04 898.94 217.37 901.89 225.01C904.61 232.85 908.88 239.4 914.73 244.68C919.84 237.88 923.95 231.1 927.08 224.31C930.42 217.56 932.39 211.32 932.98 205.61ZM899.41 261.7C893.25 255.28 888.76 247.59 885.94 238.64C883.14 229.46 882.23 220.26 883.18 211.03L883.32 209.71C875.61 218.23 868.94 227.31 863.32 236.94C857.93 246.37 854.7 255.25 853.62 263.57C853.12 268.41 853.74 272.03 855.47 274.43C856.97 277.03 859.67 278.53 863.6 278.94C869.04 279.51 874.92 278.13 881.21 274.79C887.48 271.67 893.55 267.31 899.41 261.7Z" />
        <path fill-rule="evenodd" class="shp2" d="M297.95 397.95C293.83 398.33 287.33 394.42 291.34 393.4C362.23 375.4 457.92 361.72 566.13 357.91C692.51 353.45 785.78 360.03 825.86 363.77C830.77 364.23 831.28 370.77 826.54 372.15L824.83 372.65C821.8 373.53 821.17 377.55 823.8 379.31C826.97 381.43 825.35 386.42 821.54 386.17C779.42 383.36 651.16 375.56 566.84 378.53C476.41 381.71 330.21 394.96 297.95 397.95Z" />
      </g>
      <path class="shp3" d="M-14 377.24C-14 377.24 147.91 355.13 247.69 377.24C260.19 380.01 267.54 389.78 279.49 385.2C282.84 383.91 284.15 382.01 287.44 380.55C302.21 374.03 312.4 384.16 328.51 385.2C349.94 386.57 362.08 386.74 383.5 385.2C393.36 384.49 398.9 381.04 408.68 382.54C414.01 383.36 416.66 385.33 421.93 386.52C445.75 391.91 459.78 379.85 484.2 380.55C502.96 381.1 513.21 384.73 531.9 386.52C598.35 392.88 636.67 394.09 702.83 385.2C712.94 383.84 718.7 379 728.66 381.22C732.58 382.09 734.4 383.8 738.27 384.86C748.62 387.71 755.04 384.61 765.76 385.2C772.24 385.55 775.85 386.15 782.33 386.52C813.62 388.33 831.15 382.12 862.49 382.54C893.36 382.96 1099 388.51 1099 388.51L1099 649.75L-14 649.75L-14 377.24Z" />
      <g>
        <path class="shp4" d="M308.45 423.43C298.67 423.43 290.77 422.92 290.77 422.29C290.77 421.66 298.67 421.15 308.45 421.15C318.23 421.15 326.13 421.66 326.13 422.29C326.13 422.92 318.23 423.43 308.45 423.43Z" />
      </g>
      <path class="shp5" d="M314.72 416.58C314.72 416.58 317.1 415.39 318.72 414.87C323.38 413.36 331.26 414.3 331.26 414.3L339.25 413.16L343.24 418.87L340.39 422.29L330.69 424L315.87 423.43L312.44 423.43L314.72 416.58Z" />
      <path class="shp6" d="M343.24 418.87L339.25 413.16L334.11 416.58L330.69 424L340.39 422.29L343.24 418.87Z" />
      <path class="shp7" d="M1041.88 453.21L1043.98 453.91L1049.93 459.88L1056.94 468.29L1053.09 470.74L1046.08 470.74L1041.88 471.44L1032.42 471.8C1032.42 471.8 1025.76 468.29 1025.76 467.59C1025.76 466.89 1028.91 463.38 1028.91 463.38C1028.91 463.38 1031.92 463.84 1033.12 462.68C1034.14 461.69 1034.17 459.17 1034.17 459.17L1041.88 453.21Z" />
      <g>
        <path class="shp4" d="M1051.69 469.69L1049.58 470.74C1049.58 470.74 1028.04 472.87 1014.2 472.85C1006.53 472.83 994.58 473.5 994.58 472.15C994.58 470.79 1009.43 471.44 1018.75 469.69C1022.47 469 1024.46 468.08 1028.21 467.59C1037.34 466.4 1051.69 469.69 1051.69 469.69Z" />
      </g>
      <path class="shp8" d="M1043.98 453.91L1041.88 453.21L1043.98 459.17L1042.58 461.28L1047.83 467.59L1053.09 470.74L1056.94 468.29L1049.93 459.88L1043.98 453.91Z" />
      <path class="shp9" d="M1041.88 471.44L1046.08 470.74L1053.09 470.74L1047.83 467.59L1042.58 461.28L1033.12 462.68C1031.92 463.84 1028.92 463.38 1028.92 463.38C1028.92 463.38 1025.76 466.89 1025.76 467.59C1025.76 468.29 1032.42 471.8 1032.42 471.8L1041.88 471.44Z" />
      <g>
        <path class="shp4" d="M168.4 384.59L180.5 386.64L175.05 387.66L168.4 388.34L159.67 389.37L141.78 389.37L137.21 388.34L129.3 386.64L111 382.55L118.19 373L134.29 378.11L152.98 375.73L153.01 381.18L159.67 384.59L168.4 384.59Z" />
      </g>
      <path class="shp10" d="M143.99 362.52L151 361.16C151 361.16 152.59 359.47 153.87 358.77C157.88 356.57 160.9 360.93 165.45 360.48C168.18 360.2 170.52 360.35 173.63 361.16C182.91 363.56 191 378.55 191 378.55L178.4 381.27L179.42 384.68L174.99 388.77L167.49 390.48L152.84 388.77L145.69 388.77L135.47 384.68L139.22 373.77L143.99 362.52Z" />
      <path class="shp11" d="M152.84 388.77C152.84 388.77 161.77 391.1 167.49 390.48C170.48 390.16 172.13 389.7 174.99 388.77C177.03 388.11 179.14 388.65 180.1 386.73C181.09 384.73 178.4 381.27 178.4 381.27L167.49 379.57L157.27 382.98L150.8 381.27L141.94 381.27L145.69 388.77L152.84 388.77Z" />
      <path class="shp12" d="M191 378.55C191 378.55 182.91 363.56 173.62 361.16C170.52 360.35 168.51 360.13 165.45 360.48L178.39 381.27C185.33 381.3 188.46 380.91 191 378.55Z" />
      <g>
        <path class="shp4" d="M840.56 424.95L832.26 424.95C832.26 424.95 823.51 424.46 823.51 423.86C823.51 423.26 832.26 422.77 832.26 422.77L836.63 423.14L840.56 424.95Z" />
      </g>
      <path class="shp13" d="M831.13 419.87L839.84 418.78L845.27 421.69L846 424.95L839.84 424.95L836.57 424.23L831.13 419.87Z" />
      <path class="shp14" d="M846 424.95L845.27 421.69L839.84 418.78L838.38 421.69L839.84 424.95L846 424.95Z" />
      <g style="opacity: 0.349">
        <path class="shp15" d="M130.11 20.61C130.11 21.3 129.55 21.99 129 21.99C128.45 21.99 127.89 21.3 127.89 20.61C127.89 19.92 128.45 19.23 129 19.23C129.55 19.23 130.11 19.92 130.11 20.61Z" />
        <path class="shp15" d="M20.01 58.5C20.01 59.88 18.9 61.26 17.79 61.26C16.69 61.26 15.58 59.88 15.58 58.5C15.58 57.13 16.69 55.75 17.79 55.75C19.45 55.75 20.01 57.13 20.01 58.5Z" />
        <path class="shp15" d="M79.21 41.97C79.21 43.35 78.65 44.04 77.55 44.04C76.44 44.04 75.89 43.35 75.89 41.97C75.89 40.59 76.44 39.9 77.55 39.9C78.65 39.9 79.21 40.59 79.21 41.97Z" />
        <path class="shp15" d="M557.24 86.07C557.24 86.76 556.68 87.45 556.13 87.45C555.58 87.45 555.02 86.76 555.02 86.07C555.02 85.38 555.58 84.69 556.13 84.69C556.68 84.69 557.24 85.38 557.24 86.07Z" />
        <path class="shp15" d="M153.9 76.42C153.9 77.11 153.34 77.8 152.79 77.8C152.24 77.8 151.68 77.11 151.68 76.42C151.68 75.73 152.24 75.04 152.79 75.04C153.34 75.04 153.9 75.73 153.9 76.42Z" />
        <path class="shp15" d="M21.67 19.23C21.67 20.61 21.11 21.3 20.01 21.3C18.9 21.3 18.35 20.61 18.35 19.23C18.35 17.85 18.9 17.16 20.01 17.16C21.11 17.16 21.67 17.85 21.67 19.23Z" />
        <path class="shp15" d="M277.83 17.17C277.83 19.23 276.17 21.3 274.51 21.3C272.85 21.3 271.19 19.23 271.19 17.17C271.19 15.1 272.85 13.03 274.51 13.03C276.17 13.72 277.83 15.1 277.83 17.17Z" />
        <path class="shp15" d="M246.85 61.26C246.85 61.95 246.3 62.64 245.74 62.64C245.19 62.64 244.64 61.95 244.64 61.26C244.64 60.57 245.19 59.88 245.74 59.88C246.3 59.88 246.85 60.57 246.85 61.26Z" />
        <path class="shp15" d="M814.51 54.37C814.51 55.06 813.96 55.75 813.4 55.75C812.85 55.75 812.3 55.06 812.3 54.37C812.3 53.68 812.85 52.99 813.4 52.99C813.96 52.99 814.51 53.68 814.51 54.37Z" />
        <path class="shp15" d="M647.42 45.41C647.42 46.1 646.87 46.79 646.31 46.79C645.76 46.79 645.21 46.1 645.21 45.41C645.21 44.72 645.76 44.04 646.31 44.04C646.87 44.04 647.42 44.72 647.42 45.41Z" />
        <path class="shp15" d="M785.19 69.53C785.19 70.22 784.63 70.91 784.08 70.91C783.53 70.91 782.98 70.22 782.98 69.53C782.98 68.84 783.53 68.15 784.08 68.15C784.63 68.15 785.19 68.84 785.19 69.53Z" />
        <path class="shp15" d="M57.63 72.97C57.63 74.35 57.08 75.04 55.97 75.04C54.86 75.04 54.31 74.35 54.31 72.97C54.31 71.59 54.86 70.91 55.97 70.91C57.08 70.91 57.63 71.59 57.63 72.97Z" />
        <path class="shp15" d="M488.63 54.37C488.63 55.06 488.08 55.75 487.52 55.75C486.97 55.75 486.42 55.06 486.42 54.37C486.42 53.68 486.97 52.99 487.52 52.99C488.08 52.99 488.63 53.68 488.63 54.37Z" />
        <path class="shp15" d="M424.45 20.61C424.45 21.3 423.9 21.99 423.34 21.99C422.79 21.99 422.24 21.3 422.24 20.61C422.24 19.92 422.79 19.23 423.34 19.23C423.9 19.23 424.45 19.92 424.45 20.61Z" />
        <path class="shp15" d="M571.07 77.11C571.07 77.79 570.51 78.48 569.96 78.48C569.41 78.48 568.86 77.79 568.86 77.11C568.86 76.42 569.41 75.73 569.96 75.73C570.51 75.73 571.07 76.42 571.07 77.11Z" />
        <path class="shp15" d="M314.35 58.5C314.35 59.88 313.24 61.26 312.14 61.26C311.03 61.26 309.92 59.88 309.92 58.5C309.92 57.13 311.03 55.75 312.14 55.75C313.24 55.75 314.35 57.13 314.35 58.5Z" />
        <path class="shp15" d="M373.55 41.97C373.55 43.35 372.99 44.04 371.89 44.04C370.78 44.04 370.23 43.35 370.23 41.97C370.23 40.59 370.78 39.9 371.89 39.9C372.99 39.9 373.55 40.59 373.55 41.97Z" />
        <path class="shp15" d="M470.37 -0.06C470.37 0.63 469.82 1.32 469.26 1.32C468.71 1.32 468.16 0.63 468.16 -0.06C468.16 -0.75 468.71 -1.44 469.26 -1.44C469.82 -1.44 470.37 -0.75 470.37 -0.06Z" />
        <path class="shp15" d="M351.42 72.97C351.42 74.35 350.86 75.04 349.76 75.04C348.65 75.04 348.1 74.35 348.1 72.97C348.1 71.59 348.65 70.91 349.76 70.91C350.86 70.91 351.42 71.59 351.42 72.97Z" />
        <path class="shp15" d="M750.89 54.37C750.89 52.99 751.99 51.61 753.1 51.61C754.21 51.61 755.31 52.99 755.31 54.37C755.31 55.75 754.21 57.13 753.1 57.13C751.99 57.13 750.89 56.44 750.89 54.37Z" />
        <path class="shp15" d="M1018.67 54.37C1018.67 55.06 1018.12 55.75 1017.56 55.75C1017.01 55.75 1016.46 55.06 1016.46 54.37C1016.46 53.68 1017.01 52.99 1017.56 52.99C1018.12 52.99 1018.67 53.68 1018.67 54.37Z" />
        <path class="shp15" d="M882.01 72.97C882.01 74.35 881.46 75.04 880.35 75.04C879.24 75.04 878.69 74.35 878.69 72.97C878.69 71.59 879.24 70.91 880.35 70.91C881.46 70.91 882.01 71.59 882.01 72.97Z" />
        <path class="shp15" d="M538.98 21.99C538.98 24.06 537.32 26.12 535.66 26.12C534 26.12 532.34 24.06 532.34 21.99C532.34 19.92 534 17.85 535.66 17.85C537.87 18.54 538.98 19.92 538.98 21.99Z" />
        <g style="opacity: 0.702">
          <path class="shp15" d="M556.13 64.71L556.69 74.35L564.99 75.73L556.69 75.73L556.13 86.75L555.58 75.73L547.28 75.73L555.58 74.35L556.13 64.71Z" />
          <path class="shp15" d="M559.45 70.91L556.69 75.04L559.45 79.86L556.13 75.73L552.26 79.86L555.58 75.04L552.26 70.91L556.13 74.35L559.45 70.91Z" />
        </g>
        <g style="opacity: 0.702">
          <path class="shp15" d="M1031.95 24.74L1033.06 38.52L1044.68 40.59L1033.06 40.59L1031.95 56.44L1030.84 40.59L1019.22 40.59L1030.84 38.52L1031.95 24.74Z" />
          <path class="shp15" d="M1036.93 33.01L1033.06 39.9L1036.93 46.79L1031.95 41.28L1026.42 46.79L1031.4 39.9L1026.42 33.7L1031.95 38.52L1036.93 33.01Z" />
        </g>
        <path class="shp15" d="M356.75 372.48C356.75 371.79 357.3 371.1 357.86 371.1C358.41 371.1 358.96 371.79 358.96 372.48C358.96 373.16 358.41 373.85 357.86 373.85C357.3 373.85 356.75 373.16 356.75 372.48Z" />
        <path class="shp15" d="M1011.27 291.35C1011.27 290.67 1011.83 289.98 1012.38 289.98C1012.93 289.98 1013.49 290.67 1013.49 291.35C1013.49 292.04 1012.93 292.73 1012.38 292.73C1011.83 292.73 1011.27 292.04 1011.27 291.35Z" />
        <path class="shp15" d="M444.13 260.33C444.13 259.64 444.69 258.95 445.24 258.95C445.79 258.95 446.35 259.64 446.35 260.33C446.35 261.02 445.79 261.71 445.24 261.71C444.69 261.71 444.13 261.02 444.13 260.33Z" />
        <path class="shp15" d="M610.6 280.43C610.6 279.74 611.15 279.05 611.71 279.05C612.26 279.05 612.81 279.74 612.81 280.43C612.81 281.12 612.26 281.81 611.71 281.81C611.15 281.81 610.6 281.12 610.6 280.43Z" />
        <path class="shp15" d="M375.42 324.74C375.42 324.05 375.98 323.36 376.53 323.36C377.08 323.36 377.63 324.05 377.63 324.74C377.63 325.43 377.08 326.11 376.53 326.11C375.98 326.8 375.42 326.11 375.42 324.74Z" />
        <path class="shp15" d="M470.4 319.43C470.4 318.05 471.51 316.68 472.62 316.68C473.72 316.68 474.83 318.05 474.83 319.43C474.83 320.81 473.72 322.19 472.62 322.19C471.51 322.19 470.4 320.81 470.4 319.43Z" />
        <path class="shp15" d="M474.06 247.16C474.06 246.47 474.62 245.78 475.17 245.78C475.73 245.78 476.28 246.47 476.28 247.16C476.28 247.84 475.73 248.53 475.17 248.53C474.62 248.53 474.06 247.84 474.06 247.16Z" />
        <path class="shp15" d="M769.55 282.09C769.55 281.4 770.1 280.71 770.65 280.71C771.21 280.71 771.76 281.4 771.76 282.09C771.76 282.78 771.21 283.47 770.65 283.47C770.1 283.47 769.55 282.78 769.55 282.09Z" />
        <path class="shp15" d="M832.18 320.09C832.18 319.4 832.74 318.71 833.29 318.71C833.84 318.71 834.4 319.4 834.4 320.09C834.4 320.78 833.84 321.46 833.29 321.46C832.74 321.46 832.18 320.78 832.18 320.09Z" />
        <path class="shp15" d="M688.2 253.88C688.2 253.19 688.75 252.51 689.31 252.51C689.86 252.51 690.41 253.19 690.41 253.88C690.41 254.57 689.86 255.26 689.31 255.26C688.75 255.26 688.2 254.57 688.2 253.88Z" />
        <path class="shp15" d="M860.59 355.11C860.59 354.42 861.15 353.73 861.7 353.73C862.25 353.73 862.81 354.42 862.81 355.11C862.81 355.8 862.25 356.48 861.7 356.48C861.15 357.17 860.59 356.48 860.59 355.11Z" />
        <path class="shp15" d="M943.75 289.67C943.75 288.29 944.86 286.92 945.97 286.92C947.07 286.92 948.18 288.29 948.18 289.67C948.18 291.05 947.07 292.43 945.97 292.43C944.86 292.43 943.75 291.05 943.75 289.67Z" />
        <path class="shp15" d="M883.93 302.19C883.93 300.82 884.48 300.13 885.59 300.13C886.7 300.13 887.25 300.82 887.25 302.19C887.25 303.57 886.7 304.26 885.59 304.26C884.48 304.26 883.93 303.57 883.93 302.19Z" />
        <path class="shp15" d="M785.44 337.66C785.44 336.97 785.99 336.28 786.55 336.28C787.1 336.28 787.65 336.97 787.65 337.66C787.65 338.35 787.1 339.04 786.55 339.04C785.99 339.04 785.44 338.35 785.44 337.66Z" />
        <path class="shp15" d="M907.36 272.71C907.36 271.33 907.91 270.65 909.02 270.65C910.13 270.65 910.68 271.33 910.68 272.71C910.68 274.09 910.13 274.78 909.02 274.78C907.91 274.78 907.36 274.09 907.36 272.71Z" />
        <path class="shp15" d="M507.67 264.36C507.67 265.74 506.57 267.12 505.46 267.12C504.35 267.12 503.25 265.74 503.25 264.36C503.25 262.98 504.35 261.6 505.46 261.6C506.57 261.6 507.67 262.29 507.67 264.36Z" />
        <path class="shp15" d="M653.66 335.53C653.66 336.9 652.55 338.28 651.44 338.28C650.34 338.28 649.23 336.9 649.23 335.53C649.23 334.15 650.34 332.77 651.44 332.77C653.1 332.77 653.66 334.15 653.66 335.53Z" />
        <path class="shp15" d="M240.27 246.7C240.27 246.01 240.82 245.32 241.37 245.32C241.93 245.32 242.48 246.01 242.48 246.7C242.48 247.39 241.93 248.08 241.37 248.08C240.82 248.08 240.27 247.39 240.27 246.7Z" />
        <path class="shp15" d="M30.25 324.43C30.25 323.74 30.8 323.05 31.36 323.05C31.91 323.05 32.46 323.74 32.46 324.43C32.46 325.11 31.91 325.8 31.36 325.8C30.8 326.49 30.25 325.8 30.25 324.43Z" />
        <path class="shp15" d="M251.09 355.75C251.09 355.06 251.64 354.37 252.19 354.37C252.75 354.37 253.3 355.06 253.3 355.75C253.3 356.44 252.75 357.13 252.19 357.13C251.64 357.82 251.09 357.13 251.09 355.75Z" />
        <path class="shp15" d="M580.32 327.47C580.32 326.09 581.43 324.71 582.53 324.71C583.64 324.71 584.75 326.09 584.75 327.47C584.75 328.85 583.64 330.23 582.53 330.23C581.43 330.23 580.32 329.54 580.32 327.47Z" />
        <path class="shp15" d="M152.6 236.7C152.6 236.01 153.16 235.32 153.71 235.32C154.26 235.32 154.81 236.01 154.81 236.7C154.81 237.39 154.26 238.08 153.71 238.08C153.16 238.08 152.6 237.39 152.6 236.7Z" />
        <path class="shp15" d="M377.53 237.29C377.53 235.91 378.08 235.22 379.19 235.22C380.3 235.22 380.85 235.91 380.85 237.29C380.85 238.67 380.3 239.35 379.19 239.35C378.08 239.35 377.53 238.67 377.53 237.29Z" />
        <path class="shp15" d="M8.99 265.05C8.99 264.36 9.54 263.67 10.09 263.67C10.65 263.67 11.2 264.36 11.2 265.05C11.2 265.74 10.65 266.43 10.09 266.43C9.54 266.43 8.99 265.74 8.99 265.05Z" />
        <path class="shp15" d="M120.55 234.63C120.55 233.25 121.66 231.88 122.77 231.88C123.87 231.88 124.98 233.25 124.98 234.63C124.98 236.01 123.87 237.39 122.77 237.39C121.66 237.39 120.55 236.01 120.55 234.63Z" />
        <path class="shp15" d="M60.73 247.16C60.73 245.78 61.28 245.09 62.39 245.09C63.5 245.09 64.05 245.78 64.05 247.16C64.05 248.53 63.5 249.22 62.39 249.22C61.28 249.22 60.73 248.53 60.73 247.16Z" />
        <path class="shp15" d="M717.87 311.21C717.87 309.14 719.53 307.08 721.19 307.08C722.85 307.08 724.51 309.14 724.51 311.21C724.51 313.28 722.85 315.35 721.19 315.35C718.98 314.66 717.87 313.28 717.87 311.21Z" />
        <g style="opacity: 0.702">
          <path class="shp15" d="M703.06 267.21L702.51 257.56L694.21 256.18L702.51 256.18L703.06 245.16L703.61 256.18L711.91 256.18L703.61 257.56L703.06 267.21Z" />
          <path class="shp15" d="M699.74 261L702.5 256.87L699.74 252.05L703.06 256.18L706.93 252.05L703.61 256.87L706.93 261L703.06 257.56L699.74 261Z" />
        </g>
        <g style="opacity: 0.702">
          <path class="shp15" d="M226.42 275.35L225.31 261.57L213.69 259.5L225.31 259.5L226.42 243.66L227.52 259.5L239.14 259.5L227.52 261.57L226.42 275.35Z" />
          <path class="shp15" d="M221.44 267.08L225.31 260.19L221.44 253.3L226.42 258.81L231.95 253.3L226.97 260.19L231.95 266.39L226.42 261.57L221.44 267.08Z" />
        </g>
        <g style="opacity: 0.702">
          <path class="shp15" d="M436.6 356.33L436.05 346L427.75 345.31L436.05 344.62L436.6 334.29L437.15 344.62L445.45 345.31L437.15 346L436.6 356.33Z" />
          <path class="shp15" d="M433.28 350.13L436.04 345.31L433.28 340.49L436.6 344.62L440.47 340.49L437.15 345.31L440.47 349.44L436.6 346L433.28 350.13Z" />
        </g>
        <path class="shp15" d="M1055.04 182.71C1055.04 181.33 1055.59 180.64 1056.7 180.64C1057.81 180.64 1058.36 181.33 1058.36 182.71C1058.36 184.09 1057.81 184.78 1056.7 184.78C1056.15 184.78 1055.04 184.09 1055.04 182.71Z" />
        <path class="shp15" d="M987.08 178.13C987.08 177.44 987.63 176.75 988.19 176.75C988.74 176.75 989.29 177.44 989.29 178.13C989.29 178.82 988.74 179.51 988.19 179.51C987.63 180.19 987.08 179.51 987.08 178.13Z" />
        <path class="shp15" d="M356.75 109.08C356.75 108.39 357.3 107.7 357.86 107.7C358.41 107.7 358.96 108.39 358.96 109.08C358.96 109.77 358.41 110.45 357.86 110.45C357.3 110.45 356.75 109.77 356.75 109.08Z" />
        <path class="shp15" d="M973.39 213.09C973.39 212.4 973.95 211.71 974.5 211.71C975.05 211.71 975.61 212.4 975.61 213.09C975.61 213.78 975.05 214.47 974.5 214.47C973.95 214.47 973.39 213.78 973.39 213.09Z" />
        <path class="shp15" d="M920.65 125.46C920.65 124.08 921.76 122.71 922.86 122.71C923.97 122.71 925.08 124.08 925.08 125.46C925.08 126.84 923.97 128.22 922.86 128.22C921.2 128.22 920.65 126.84 920.65 125.46Z" />
        <path class="shp15" d="M1074.28 147.39C1074.28 146.7 1074.84 146.01 1075.39 146.01C1075.94 146.01 1076.5 146.7 1076.5 147.39C1076.5 148.08 1075.94 148.77 1075.39 148.77C1074.84 149.46 1074.28 148.77 1074.28 147.39Z" />
        <path class="shp15" d="M470.86 148.44C470.86 147.75 471.41 147.06 471.97 147.06C472.52 147.06 473.07 147.75 473.07 148.44C473.07 149.13 472.52 149.82 471.97 149.82C471.41 149.82 470.86 149.13 470.86 148.44Z" />
        <path class="shp15" d="M501.94 198.89C501.94 197.51 503.04 196.14 504.15 196.14C505.26 196.14 506.36 197.51 506.36 198.89C506.36 200.27 505.26 201.65 504.15 201.65C503.04 201.65 501.94 200.27 501.94 198.89Z" />
        <path class="shp15" d="M556.36 221.85C556.36 220.47 557.46 219.09 558.57 219.09C559.68 219.09 560.78 220.47 560.78 221.85C560.78 223.23 559.68 224.61 558.57 224.61C557.46 224.61 556.36 223.23 556.36 221.85Z" />
        <path class="shp15" d="M589.7 116.37C589.7 115.68 590.26 114.99 590.81 114.99C591.36 114.99 591.92 115.68 591.92 116.37C591.92 117.06 591.36 117.75 590.81 117.75C590.26 117.75 589.7 117.06 589.7 116.37Z" />
        <path class="shp15" d="M758.41 161.61C758.41 159.54 760.07 157.47 761.73 157.47C763.39 157.47 765.05 159.54 765.05 161.61C765.05 163.68 763.39 165.74 761.73 165.74C760.07 165.05 758.41 163.68 758.41 161.61Z" />
        <path class="shp15" d="M796.83 170.24C796.83 169.55 797.38 168.86 797.93 168.86C798.48 168.86 799.04 169.55 799.04 170.24C799.04 170.93 798.48 171.62 797.93 171.62C797.38 171.62 796.83 170.93 796.83 170.24Z" />
        <path class="shp15" d="M860.59 91.71C860.59 91.02 861.15 90.33 861.7 90.33C862.25 90.33 862.81 91.02 862.81 91.71C862.81 92.4 862.25 93.08 861.7 93.08C861.15 93.77 860.59 93.08 860.59 91.71Z" />
        <path class="shp15" d="M679.47 193.44C679.47 192.75 680.02 192.06 680.58 192.06C681.13 192.06 681.68 192.75 681.68 193.44C681.68 194.13 681.13 194.82 680.58 194.82C680.02 194.82 679.47 194.13 679.47 193.44Z" />
        <path class="shp15" d="M802.21 238.21C802.21 237.53 802.76 236.84 803.32 236.84C803.87 236.84 804.42 237.53 804.42 238.21C804.42 238.9 803.87 239.59 803.32 239.59C802.76 239.59 802.21 238.9 802.21 238.21Z" />
        <path class="shp15" d="M941.84 173.8C941.84 172.42 942.95 171.04 944.05 171.04C945.16 171.04 946.26 172.42 946.26 173.8C946.26 175.18 945.16 176.55 944.05 176.55C942.95 176.55 941.84 175.18 941.84 173.8Z" />
        <path class="shp15" d="M917.59 209.43C917.59 208.06 918.7 206.68 919.8 206.68C920.91 206.68 922.02 208.06 922.02 209.43C922.02 210.81 920.91 212.19 919.8 212.19C918.7 212.19 917.59 210.81 917.59 209.43Z" />
        <path class="shp15" d="M827.9 220.69C827.9 219.31 829.01 217.93 830.12 217.93C831.22 217.93 832.33 219.31 832.33 220.69C832.33 222.06 831.22 223.44 830.12 223.44C829.01 223.44 827.9 222.06 827.9 220.69Z" />
        <path class="shp15" d="M719.75 107.28C719.75 105.21 721.41 103.14 723.07 103.14C724.73 103.14 726.39 105.21 726.39 107.28C726.39 109.34 724.73 111.41 723.07 111.41C720.86 111.41 719.75 110.03 719.75 107.28Z" />
        <path class="shp15" d="M742.79 241.29C742.79 239.22 744.45 237.16 746.11 237.16C747.77 237.16 749.43 239.22 749.43 241.29C749.43 243.35 747.77 245.42 746.11 245.42C744.45 245.42 742.79 243.35 742.79 241.29Z" />
        <path class="shp15" d="M692.62 222.68C692.62 221.3 693.73 219.93 694.83 219.93C695.94 219.93 697.05 221.3 697.05 222.68C697.05 224.06 695.94 225.44 694.83 225.44C693.73 225.44 692.62 224.06 692.62 222.68Z" />
        <path class="shp15" d="M655.64 206.37C655.64 205 656.2 204.31 657.3 204.31C658.41 204.31 658.96 205 658.96 206.37C658.96 207.75 658.41 208.44 657.3 208.44C656.75 208.44 655.64 207.06 655.64 206.37Z" />
        <path class="shp15" d="M608.83 251.35C608.83 252.04 608.27 252.73 607.72 252.73C607.16 252.73 606.61 252.04 606.61 251.35C606.61 250.66 607.16 249.98 607.72 249.98C608.27 249.98 608.83 250.66 608.83 251.35Z" />
        <path class="shp15" d="M523.44 149.74C523.44 150.43 522.88 151.12 522.33 151.12C521.78 151.12 521.22 150.43 521.22 149.74C521.22 149.05 521.78 148.36 522.33 148.36C522.88 148.36 523.44 149.05 523.44 149.74Z" />
        <path class="shp15" d="M643.92 143.85C643.92 145.92 642.26 147.98 640.6 147.98C638.94 147.98 637.28 145.92 637.28 143.85C637.28 141.78 638.94 139.72 640.6 139.72C642.81 140.4 643.92 141.78 643.92 143.85Z" />
        <path class="shp15" d="M231.84 127.67C231.84 126.29 232.4 125.6 233.5 125.6C234.61 125.6 235.16 126.29 235.16 127.67C235.16 129.05 234.61 129.74 233.5 129.74C232.95 129.74 231.84 129.05 231.84 127.67Z" />
        <path class="shp15" d="M266.99 134.81C266.99 134.12 267.55 133.44 268.1 133.44C268.65 133.44 269.21 134.12 269.21 134.81C269.21 135.5 268.65 136.19 268.1 136.19C267.55 136.19 266.99 135.5 266.99 134.81Z" />
        <path class="shp15" d="M163.88 123.09C163.88 122.4 164.44 121.71 164.99 121.71C165.54 121.71 166.1 122.4 166.1 123.09C166.1 123.78 165.54 124.47 164.99 124.47C164.44 125.16 163.88 124.47 163.88 123.09Z" />
        <path class="shp15" d="M150.19 158.05C150.19 157.36 150.75 156.67 151.3 156.67C151.85 156.67 152.41 157.36 152.41 158.05C152.41 158.74 151.85 159.43 151.3 159.43C150.75 159.43 150.19 158.74 150.19 158.05Z" />
        <path class="shp15" d="M272.38 202.79C272.38 202.1 272.93 201.41 273.49 201.41C274.04 201.41 274.59 202.1 274.59 202.79C274.59 203.48 274.04 204.17 273.49 204.17C272.93 204.17 272.38 203.48 272.38 202.79Z" />
        <path class="shp15" d="M296.79 112C296.79 110.63 297.34 109.94 298.45 109.94C299.56 109.94 300.11 110.63 300.11 112C300.11 113.38 299.56 114.07 298.45 114.07C297.89 114.07 296.79 113.38 296.79 112Z" />
        <path class="shp15" d="M387.76 174.01C387.76 172.63 388.86 171.25 389.97 171.25C391.08 171.25 392.18 172.63 392.18 174.01C392.18 175.39 391.08 176.76 389.97 176.76C388.86 176.76 387.76 175.39 387.76 174.01Z" />
        <path class="shp15" d="M298.07 185.26C298.07 183.88 299.18 182.51 300.28 182.51C301.39 182.51 302.5 183.88 302.5 185.26C302.5 186.64 301.39 188.02 300.28 188.02C299.18 188.02 298.07 186.64 298.07 185.26Z" />
        <path class="shp15" d="M251.09 92.35C251.09 91.66 251.64 90.97 252.19 90.97C252.75 90.97 253.3 91.66 253.3 92.35C253.3 93.04 252.75 93.73 252.19 93.73C251.64 94.42 251.09 93.73 251.09 92.35Z" />
        <path class="shp15" d="M118.64 118.76C118.64 117.38 119.75 116 120.85 116C121.96 116 123.07 117.38 123.07 118.76C123.07 120.14 121.96 121.52 120.85 121.52C119.75 121.52 118.64 120.14 118.64 118.76Z" />
        <path class="shp15" d="M94.39 154.4C94.39 153.02 95.5 151.64 96.6 151.64C97.71 151.64 98.82 153.02 98.82 154.4C98.82 155.77 97.71 157.15 96.6 157.15C94.94 157.15 94.39 155.77 94.39 154.4Z" />
        <path class="shp15" d="M4.7 165.65C4.7 164.27 5.81 162.89 6.92 162.89C8.02 162.89 9.13 164.27 9.13 165.65C9.13 167.03 8.02 168.4 6.92 168.4C5.26 168.4 4.7 167.03 4.7 165.65Z" />
        <path class="shp15" d="M47.97 203C47.97 201.62 48.53 200.93 49.63 200.93C50.74 200.93 51.29 201.62 51.29 203C51.29 204.38 50.74 205.07 49.63 205.07C48.53 205.07 47.97 204.38 47.97 203Z" />
        <g style="opacity: 0.702">
          <path class="shp15" d="M316.72 149.09L316.17 138.75L307.87 138.06L316.17 137.37L316.72 127.04L317.27 137.37L325.57 138.06L317.27 138.75L316.72 149.09Z" />
          <path class="shp15" d="M313.4 142.89L316.16 138.06L313.4 133.24L316.72 137.37L320.59 133.24L317.27 138.06L320.59 142.2L316.72 138.75L313.4 142.89Z" />
        </g>
        <g style="opacity: 0.702">
          <path class="shp15" d="M436.6 92.94L436.05 82.6L427.75 81.91L436.05 81.22L436.6 70.89L437.15 81.22L445.45 81.91L437.15 82.6L436.6 92.94Z" />
          <path class="shp15" d="M433.28 86.73L436.04 81.91L433.28 77.09L436.6 81.22L440.47 77.09L437.15 81.91L440.47 86.05L436.6 82.6L433.28 86.73Z" />
        </g>
      </g>
      <path class="shp16" d="M153.16 110.43C112.7 110.43 80 77.7 80 37.22C80 -3.27 112.7 -36 153.16 -36C193.61 -36 226.32 -3.27 226.32 37.22C226.32 77.7 193.61 110.43 153.16 110.43Z" />
      <path class="shp17" d="M226.01 43.94C226.21 41.73 226.32 39.48 226.32 37.22C226.32 37.15 226.32 37.09 226.32 37.03C226.31 39.38 226.21 41.68 226.01 43.94Z" />
      <path fill-rule="evenodd" class="shp18" d="M157.81 110.27C157.81 110.27 157.52 108.97 157.48 108.38C157.44 107.83 157.4 107.29 157.35 106.75C157.21 105.17 157.07 103.61 157.25 101.93C157.64 98.01 156.48 92.87 154.81 89.4C153.78 87.22 151.07 86.48 148.34 85.73C146.45 85.21 144.54 84.68 143.18 83.67C139.72 81.1 135.27 76.1 133.43 72.21C131.78 68.73 133.06 65.35 134.28 62.1C134.72 60.93 135.15 59.78 135.44 58.65C135.75 57.42 135.84 56.14 135.92 54.86C135.99 53.78 136.06 52.7 136.27 51.65C136.59 50.03 137.31 46.88 138.32 45.69C139.48 44.32 141.83 44.64 143.72 44.9C144.12 44.96 144.49 45.01 144.83 45.04C146.58 45.21 147.89 44.93 149.29 44.63C150.05 44.47 150.84 44.3 151.74 44.2C154.2 43.91 156.52 43.82 158.98 44.05C161.06 44.26 162.12 44.97 163.32 45.79C163.95 46.22 164.61 46.67 165.49 47.09C167.47 48.05 169.78 48.26 172.08 48.47C174.57 48.69 177.04 48.91 179.04 50.09C180.1 50.71 180.88 51.77 181.64 52.81C182.34 53.76 183.02 54.68 183.88 55.24C184.93 55.93 186.2 56.05 187.49 56.17C188.11 56.23 188.74 56.29 189.35 56.42C191.64 56.88 193.83 57.3 196.24 57.51C197.62 57.64 198.83 57.4 200.06 57.16C200.78 57.03 201.5 56.89 202.27 56.81C207.67 56.31 209.48 61.71 206.38 65.61C206 66.09 205.53 66.57 205.05 67.07C204.05 68.1 203.01 69.17 202.63 70.34C202.22 71.6 202.34 72.98 202.45 74.36C202.51 75.17 202.58 75.97 202.54 76.75C202.52 77.17 202.51 77.57 202.5 77.97C202.47 79.9 202.43 81.56 200.87 83.02C199.88 83.94 198.74 84.45 197.56 84.97C196.87 85.28 196.17 85.59 195.49 85.99C193.75 86.99 191.77 88.22 190.43 89.78C189.75 90.58 189.38 91.54 189.01 92.52C188.65 93.44 188.3 94.37 187.67 95.19C186.49 96.71 184.83 98.43 183.48 99.7C182.09 101.01 180.78 101.64 179.33 102.33C178.98 102.5 178.62 102.67 178.25 102.86C177.26 103.36 176.47 104.16 175.68 104.96C175.04 105.62 174.39 106.28 173.62 106.79C172.74 107.37 170.83 108.28 170.83 108.28M157.81 110.27C160.81 110.15 165.63 109.61 170.83 108.28L157.81 110.27Z" />
      <path class="shp19" d="M226.16 32.42C226.08 32.53 225.99 32.66 225.9 32.8C225.75 33.03 225.57 33.3 225.33 33.62C224.39 34.85 223.09 35.13 221.95 36.04C220.98 36.8 220.84 37.81 220.69 38.84C220.53 39.98 220.36 41.14 219.08 42C216.92 43.45 214.59 42.33 212.72 40.72C212.03 40.13 211.41 39.5 210.79 38.88C209.77 37.85 208.76 36.84 207.47 36L207.28 35.87C205.33 34.6 203.6 33.47 203.2 31.04C203.12 30.55 203.17 30.03 203.22 29.51C203.28 28.91 203.35 28.32 203.21 27.78C202.99 26.95 202.48 26.3 201.97 25.65C201.64 25.23 201.3 24.8 201.04 24.32C200.06 22.49 199.21 20.5 199.21 18.36C199.21 17.39 199.43 16.52 199.65 15.68C200 14.33 200.33 13.05 199.65 11.55C199.19 10.54 198.62 9.86 198.09 9.22C197.21 8.16 196.44 7.23 196.42 5.14C196.41 3.75 196.91 2.67 197.42 1.58C197.86 0.64 198.3 -0.32 198.41 -1.48C198.47 -2.03 198.47 -2.67 198.48 -3.34C198.5 -4.94 198.52 -6.71 199.16 -7.88C200.25 -9.87 201.3 -8.96 202.46 -7.94C203.07 -7.41 203.71 -6.86 204.4 -6.68C204.99 -6.54 206.42 -6.52 206.98 -6.68C208.09 -6.98 208.23 -7.36 208.44 -7.95C208.52 -8.17 208.61 -8.41 208.76 -8.69C208.9 -8.94 209.04 -9.18 209.2 -9.41C209.25 -9.5 209.31 -9.58 209.36 -9.65C218.99 1.9 225.13 16.46 226.16 32.42Z" />
      <path class="shp20" d="M196.02 -22.13C194.88 -22.3 193.72 -22.38 192.47 -22.25C192.17 -22.22 191.81 -22.2 191.42 -22.18C189.47 -22.06 186.69 -21.89 186.26 -20.53C186.01 -19.74 186.51 -18.88 186.97 -18.07C187.23 -17.63 187.48 -17.2 187.59 -16.81C187.73 -16.3 187.79 -15.73 187.85 -15.16C187.92 -14.49 187.97 -13.82 188.11 -13.26C188.34 -12.29 188.71 -11.41 189.08 -10.54C189.54 -9.44 190 -8.35 190.18 -7.11C190.94 -1.81 184.46 1.74 180.08 -0.72C179.81 -0.87 179.61 -1.16 179.4 -1.44C179.18 -1.75 178.96 -2.06 178.66 -2.2C178.18 -2.4 177.65 -2.13 177.23 -2.27C176.88 -2.38 176.55 -2.46 176.25 -2.53C175.18 -2.79 174.42 -2.98 173.93 -4.56C173.12 -7.16 174.46 -7.83 175.98 -8.58C176.62 -8.9 177.28 -9.23 177.84 -9.72C180.86 -12.4 178.26 -15.45 175.86 -18.26C174.74 -19.58 173.66 -20.85 173.22 -22C172.9 -22.87 172.88 -23.82 172.86 -24.73C172.83 -26.48 172.8 -28.08 170.62 -28.68C168.4 -29.29 167.15 -28.2 165.78 -27.01C165.42 -26.69 165.06 -26.37 164.66 -26.07C162.31 -24.29 161.12 -25.43 159.49 -26.98C159.17 -27.28 158.83 -27.61 158.46 -27.93C156.44 -29.68 154.08 -30.55 151.66 -31.43C151.19 -31.61 150.71 -31.78 150.24 -31.96C149.92 -32.09 149.61 -32.2 149.31 -32.32C147.15 -33.13 145.26 -33.84 143.41 -35.36C146.6 -35.78 149.85 -36 153.16 -36C169.16 -36 183.97 -30.85 196.02 -22.13Z" />
      <path class="shp21" d="M108.63 -20.88L108.74 -20.74C110.14 -18.95 111.33 -17.41 113.87 -18.69C114.38 -18.95 114.76 -19.39 115.16 -19.83C115.67 -20.41 116.18 -20.99 116.97 -21.2C117.49 -21.33 118.26 -21.2 118.96 -21.08C119.29 -21.02 119.6 -20.96 119.86 -20.94C119.99 -20.93 120.16 -20.92 120.33 -20.91C121.92 -20.8 124.87 -20.59 125.41 -19.44C125.83 -18.54 124.48 -16.99 124.05 -16.37C123.22 -15.18 122.92 -14.6 122.42 -13.21C121.55 -10.77 120.63 -10.17 118.71 -8.91L118.3 -8.64C116.48 -7.43 115.45 -5.47 115.89 -3.15C116.47 -0.09 119.14 0.78 121.9 0.67C125.21 0.52 126.01 -1.46 126.25 -4.45C126.29 -4.88 126.29 -5.32 126.29 -5.76C126.31 -7.55 126.32 -9.16 128.53 -8.83C129.81 -8.64 130.84 -7.95 131.85 -7.28C132.89 -6.59 133.9 -5.91 135.13 -5.8C137.73 -5.57 139.39 -6.37 141.55 -4.44C141.99 -4.05 142.39 -3.58 142.8 -3.11C143.4 -2.41 144.01 -1.72 144.72 -1.27C145.05 -1.06 145.46 -0.99 145.89 -0.91C146.29 -0.84 146.7 -0.77 147.05 -0.58C149.33 0.69 149.19 3.56 147.42 5.09C146.56 5.83 145.55 6.02 144.51 6.23C143.35 6.45 142.17 6.68 141.14 7.67C139.21 9.52 140.18 9.67 141.61 9.89C142.06 9.96 142.55 10.04 143.02 10.17C146.3 11.14 147.63 13.62 143.8 15.1C142.98 15.42 141.96 15.51 140.94 15.6C139.4 15.75 137.83 15.89 136.84 16.82C136.22 17.4 136.22 17.92 136.21 18.48C136.21 18.89 136.2 19.33 135.95 19.83C135.64 20.44 134.94 20.91 134.24 21.38C133.69 21.75 133.14 22.12 132.79 22.55C131.84 23.72 131.56 25.28 131.28 26.83C131.16 27.55 131.03 28.26 130.84 28.93C130.44 30.29 130.29 31.83 129.34 32.84C128.84 33.38 128.07 33.8 127.31 34.22C126.73 34.54 126.16 34.86 125.71 35.22C123.75 36.81 122.33 38.37 122.61 41.02C122.83 42.99 120.73 43.72 118.92 42.49C117.79 41.74 114.98 41.33 113.49 41.57C112.97 41.65 112.49 41.96 112 42.26C111.65 42.49 111.3 42.71 110.94 42.84C109.95 43.21 109.14 43.19 108.19 43.17C107.92 43.16 107.64 43.16 107.34 43.16C104.5 43.19 102.59 43.61 101.43 46.24C100.24 48.93 99.29 56.77 102.48 58.49C104.81 59.75 106.26 58.33 107.67 56.94C107.92 56.7 108.16 56.46 108.41 56.24C110.34 54.49 113.49 54.25 112.81 57.65C112.75 57.94 112.6 58.36 112.42 58.87C111.89 60.41 111.1 62.65 111.99 63.54C112.41 63.95 113.66 63.8 114.98 63.63C116.19 63.48 117.45 63.32 118.17 63.59C120.01 64.29 119.89 65.49 119.73 66.97C119.67 67.49 119.62 68.03 119.64 68.6C119.73 71.39 116.02 71.26 115.41 70.35C114.18 68.55 112.75 68.17 110.97 67.7C110.52 67.58 110.05 67.46 109.55 67.3C108.56 66.99 107.89 66.38 107.21 65.76C106.26 64.89 105.32 64.03 103.53 64.06C103.16 64.06 102.82 64.07 102.5 64.08C100.26 64.16 99.18 64.19 96.84 62.42C95.85 61.67 94.58 60.95 93.25 60.21C89.75 58.26 85.9 56.11 85.87 52.53C85.83 48.24 83.02 43.84 80.09 40.97C80.03 39.73 80 38.48 80 37.22C80 13.55 91.22 -7.5 108.63 -20.88Z" />
    </g>
  </g>
</svg>