<svg width="339" height="60" viewBox="0 0 339 60" fill="none" xmlns="http://www.w3.org/2000/svg">
	<g filter="url(#filter0_d_1_3942)">
		<path d="M9.3523 20.2678C9.2111 20.094 9.33477 19.8342 9.55868 19.8342H57.5009V57.1426H9.55868C9.33477 57.1426 9.2111 56.8827 9.3523 56.709L23.3391 39.4945C23.8153 38.9083 23.8153 38.0685 23.3391 37.4823L9.3523 20.2678Z" fill="#65A44F" />
		<path d="M330.295 20.2678C330.436 20.094 330.313 19.8342 330.089 19.8342L282.147 19.8342V57.1426L330.089 57.1426C330.313 57.1426 330.436 56.8827 330.295 56.709L316.308 39.4945C315.832 38.9083 315.832 38.0685 316.308 37.4823L330.295 20.2678Z" fill="#65A44F" />
		<g clip-path="url(#clip0_1_3942)">
			<path d="M40.2893 15.923C40.2893 15.3356 40.7655 14.8594 41.3529 14.8594H297.897C298.484 14.8594 298.961 15.3356 298.961 15.923V52.1677H40.2893V15.923Z" fill="url(#paint0_linear_1_3942)" />
			<g opacity="0.5">
				<path d="M294.688 31.9214C300.108 27.2509 292.77 14.5255 280.268 31.6104C292.02 49.2166 299.905 36.824 294.688 31.9214Z" fill="#8FEA6A" />
				<path d="M274.374 39.0079C271.715 45.3016 266.883 50.3626 260.764 50.6567C258.089 50.7852 257.897 46.7435 260.57 46.6151C261.074 46.5908 267.182 47.7083 272.796 38.2656C273.4 37.251 274.783 38.0431 274.374 39.0079Z" fill="#8FEA6A" />
				<path d="M280.58 17.1907C275.91 11.7706 263.184 19.1089 280.269 31.6101C297.875 19.8585 285.483 11.974 280.58 17.1907Z" fill="#B4F993" />
				<path d="M265.849 31.2985C260.429 35.969 267.768 48.6944 280.269 31.6095C268.517 14.0033 260.633 26.3959 265.849 31.2985Z" fill="#8FEA6A" />
				<path d="M279.958 46.0292C284.629 51.4492 297.354 44.1109 280.269 31.6098C262.663 43.3613 275.055 51.2458 279.958 46.0292Z" fill="#B4F993" />
			</g>
			<g opacity="0.5">
				<path d="M43.0671 31.9224C37.647 27.2519 44.9854 14.5265 57.4865 31.6114C45.7349 49.2176 37.8505 36.825 43.0671 31.9224Z" fill="#8FEA6A" />
				<path d="M63.3811 39.0088C66.0403 45.3026 70.8724 50.3636 76.9908 50.6576C79.6655 50.7862 79.8581 46.7445 77.1851 46.616C76.6809 46.5918 70.5728 47.7093 64.9587 38.2665C64.3552 37.252 62.9723 38.044 63.3811 39.0088Z" fill="#8FEA6A" />
				<path d="M57.1748 17.1916C61.8453 11.7715 74.5706 19.1099 57.4858 31.611C39.8796 19.8594 52.2722 11.975 57.1748 17.1916Z" fill="#B4F993" />
				<path d="M71.9056 31.2994C77.3257 35.9699 69.9873 48.6953 57.4861 31.6104C69.2378 14.0042 77.1222 26.3968 71.9056 31.2994Z" fill="#8FEA6A" />
				<path d="M57.7969 46.0301C53.1264 51.4502 40.401 44.1119 57.4859 31.6107C75.0921 43.3623 62.6995 51.2467 57.7969 46.0301Z" fill="#B4F993" />
			</g>
			<g filter="url(#filter1_dd_1_3942)">
				<path d="M75.9318 37.624H80.7378V40H73.4478V27.4H75.9318V37.624ZM87.0136 40.252C85.6096 40.252 84.4576 39.856 83.5576 39.064C82.6576 38.272 82.2076 37.21 82.2076 35.878V27.4H84.6736V35.68C84.6736 36.34 84.8596 36.862 85.2316 37.246C85.6156 37.63 86.2096 37.822 87.0136 37.822C87.8176 37.822 88.4056 37.63 88.7776 37.246C89.1616 36.862 89.3536 36.34 89.3536 35.68V27.4H91.8376V35.878C91.8376 37.21 91.3876 38.272 90.4876 39.064C89.5876 39.856 88.4296 40.252 87.0136 40.252ZM100.411 40.252C98.5154 40.252 96.9494 39.622 95.7134 38.362C94.4774 37.102 93.8594 35.548 93.8594 33.7C93.8594 31.84 94.4774 30.286 95.7134 29.038C96.9494 27.778 98.5154 27.148 100.411 27.148C101.551 27.148 102.601 27.418 103.561 27.958C104.533 28.486 105.289 29.206 105.829 30.118L103.687 31.36C103.375 30.796 102.931 30.358 102.355 30.046C101.779 29.722 101.131 29.56 100.411 29.56C99.1874 29.56 98.1974 29.944 97.4414 30.712C96.6974 31.48 96.3254 32.476 96.3254 33.7C96.3254 34.912 96.6974 35.902 97.4414 36.67C98.1974 37.438 99.1874 37.822 100.411 37.822C101.131 37.822 101.779 37.666 102.355 37.354C102.943 37.03 103.387 36.592 103.687 36.04L105.829 37.282C105.289 38.194 104.539 38.92 103.579 39.46C102.619 39.988 101.563 40.252 100.411 40.252ZM117.561 40H114.699L110.199 34.096V40H107.715V27.4H110.199V32.962L114.519 27.4H117.381L112.719 33.52L117.561 40ZM129.122 27.4L124.802 35.086V40H122.336V35.086L118.034 27.4H120.842L123.578 32.656L126.314 27.4H129.122ZM139.851 40.252C138.603 40.252 137.553 39.976 136.701 39.424C135.849 38.86 135.249 38.098 134.901 37.138L137.025 35.896C137.517 37.18 138.483 37.822 139.923 37.822C140.619 37.822 141.129 37.696 141.453 37.444C141.777 37.192 141.939 36.874 141.939 36.49C141.939 36.046 141.741 35.704 141.345 35.464C140.949 35.212 140.241 34.942 139.221 34.654C138.657 34.486 138.177 34.318 137.781 34.15C137.397 33.982 137.007 33.76 136.611 33.484C136.227 33.196 135.933 32.836 135.729 32.404C135.525 31.972 135.423 31.468 135.423 30.892C135.423 29.752 135.825 28.846 136.629 28.174C137.445 27.49 138.423 27.148 139.563 27.148C140.583 27.148 141.477 27.4 142.245 27.904C143.025 28.396 143.631 29.086 144.063 29.974L141.975 31.18C141.471 30.1 140.667 29.56 139.563 29.56C139.047 29.56 138.639 29.68 138.339 29.92C138.051 30.148 137.907 30.448 137.907 30.82C137.907 31.216 138.069 31.54 138.393 31.792C138.729 32.032 139.365 32.296 140.301 32.584C140.685 32.704 140.973 32.8 141.165 32.872C141.369 32.932 141.639 33.034 141.975 33.178C142.323 33.31 142.587 33.436 142.767 33.556C142.959 33.676 143.175 33.838 143.415 34.042C143.655 34.246 143.835 34.456 143.955 34.672C144.087 34.888 144.195 35.152 144.279 35.464C144.375 35.764 144.423 36.094 144.423 36.454C144.423 37.618 143.997 38.542 143.145 39.226C142.305 39.91 141.207 40.252 139.851 40.252ZM151.013 27.4C152.225 27.4 153.245 27.808 154.073 28.624C154.901 29.44 155.315 30.442 155.315 31.63C155.315 32.818 154.901 33.82 154.073 34.636C153.245 35.452 152.225 35.86 151.013 35.86H148.799V40H146.315V27.4H151.013ZM151.013 33.538C151.541 33.538 151.979 33.358 152.327 32.998C152.675 32.626 152.849 32.17 152.849 31.63C152.849 31.078 152.675 30.622 152.327 30.262C151.979 29.902 151.541 29.722 151.013 29.722H148.799V33.538H151.013ZM157.293 27.4H159.777V40H157.293V27.4ZM169.759 27.4H172.243V40H170.353L164.953 32.296V40H162.469V27.4H164.359L169.759 35.086V27.4ZM182.284 37.624H187.594V40H179.8V27.4H187.504V29.776H182.284V32.458H187.054V34.798H182.284V37.624ZM192.819 40L188.589 27.4H191.289L194.367 37.084L197.427 27.4H200.145L195.897 40H192.819ZM204.204 37.624H209.514V40H201.72V27.4H209.424V29.776H204.204V32.458H208.974V34.798H204.204V37.624ZM218.536 40L215.998 35.626H214.108V40H211.624V27.4H216.664C217.828 27.4 218.818 27.808 219.634 28.624C220.45 29.44 220.858 30.424 220.858 31.576C220.858 32.356 220.636 33.082 220.192 33.754C219.748 34.414 219.16 34.912 218.428 35.248L221.218 40H218.536ZM214.108 29.722V33.448H216.664C217.132 33.448 217.534 33.268 217.87 32.908C218.206 32.536 218.374 32.092 218.374 31.576C218.374 31.06 218.206 30.622 217.87 30.262C217.534 29.902 217.132 29.722 216.664 29.722H214.108ZM232.662 27.4L228.342 35.086V40H225.876V35.086L221.574 27.4H224.382L227.118 32.656L229.854 27.4H232.662ZM239.233 27.4C240.961 27.4 242.401 28.006 243.553 29.218C244.717 30.43 245.299 31.924 245.299 33.7C245.299 35.476 244.717 36.97 243.553 38.182C242.401 39.394 240.961 40 239.233 40H234.229V27.4H239.233ZM239.233 37.624C240.325 37.624 241.213 37.264 241.897 36.544C242.581 35.812 242.923 34.864 242.923 33.7C242.923 32.536 242.581 31.594 241.897 30.874C241.213 30.142 240.325 29.776 239.233 29.776H236.713V37.624H239.233ZM255.064 40L254.308 37.732H249.286L248.53 40H245.848L250.258 27.4H253.336L257.764 40H255.064ZM250.078 35.41H253.534L251.806 30.262L250.078 35.41ZM267.685 27.4L263.365 35.086V40H260.899V35.086L256.597 27.4H259.405L262.141 32.656L264.877 27.4H267.685Z" fill="white" />
			</g>
		</g>
	</g>
	<defs>
		<filter id="filter0_d_1_3942" x="0.835705" y="0.48322" width="337.976" height="59.1963" filterUnits="userSpaceOnUse" color-interpolation-filters="sRGB">
			<feFlood flood-opacity="0" result="BackgroundImageFix" />
			<feColorMatrix in="SourceAlpha" type="matrix" values="0 0 0 0 0 0 0 0 0 0 0 0 0 0 0 0 0 0 127 0" result="hardAlpha" />
			<feOffset dy="-5.91959" />
			<feGaussianBlur stdDeviation="4.22828" />
			<feColorMatrix type="matrix" values="0 0 0 0 0 0 0 0 0 0 0 0 0 0 0 0 0 0 0.25 0" />
			<feBlend mode="normal" in2="BackgroundImageFix" result="effect1_dropShadow_1_3942" />
			<feBlend mode="normal" in="SourceGraphic" in2="effect1_dropShadow_1_3942" result="shape" />
		</filter>
		<filter id="filter1_dd_1_3942" x="13.4478" y="-26.7296" width="314.237" height="133.104" filterUnits="userSpaceOnUse" color-interpolation-filters="sRGB">
			<feFlood flood-opacity="0" result="BackgroundImageFix" />
			<feColorMatrix in="SourceAlpha" type="matrix" values="0 0 0 0 0 0 0 0 0 0 0 0 0 0 0 0 0 0 127 0" result="hardAlpha" />
			<feOffset />
			<feGaussianBlur stdDeviation="10" />
			<feColorMatrix type="matrix" values="0 0 0 0 0.558594 0 0 0 0 0.710156 0 0 0 0 0.9375 0 0 0 1 0" />
			<feBlend mode="normal" in2="BackgroundImageFix" result="effect1_dropShadow_1_3942" />
			<feColorMatrix in="SourceAlpha" type="matrix" values="0 0 0 0 0 0 0 0 0 0 0 0 0 0 0 0 0 0 127 0" result="hardAlpha" />
			<feOffset dy="6.12241" />
			<feGaussianBlur stdDeviation="30" />
			<feColorMatrix type="matrix" values="0 0 0 0 0.670833 0 0 0 0 0.8025 0 0 0 0 1 0 0 0 0.6 0" />
			<feBlend mode="normal" in2="effect1_dropShadow_1_3942" result="effect2_dropShadow_1_3942" />
			<feBlend mode="normal" in="SourceGraphic" in2="effect2_dropShadow_1_3942" result="shape" />
		</filter>
		<linearGradient id="paint0_linear_1_3942" x1="169.625" y1="14.8594" x2="169.625" y2="52.1677" gradientUnits="userSpaceOnUse">
			<stop stop-color="#6ABF4C" />
			<stop offset="1" stop-color="#69C947" />
		</linearGradient>
		<clipPath id="clip0_1_3942">
			<rect width="258.671" height="37.3084" fill="white" transform="translate(40.2893 14.8594)" />
		</clipPath>
	</defs>
</svg>
