<svg width="427" height="195" viewBox="0 0 427 195" fill="none" xmlns="http://www.w3.org/2000/svg">
	<path d="M16.0346 69.7573L197.65 179.251L198 179.5L54.1863 77.3865L16.0346 69.7573Z" fill="url(#paint0_linear_92_123)" />
	<path d="M115.126 33.0226L117.587 37.092L146.13 84.3198L161.463 109.688L188.985 155.197L202.034 176.796L203 178L173.404 178.531L69.2808 134.88L69.2571 134.867L51.5767 127.446L87.1302 74.5871L89.5075 71.0763L115.126 33.0226Z" fill="url(#paint1_linear_92_123)" />
	<path style="mix-blend-mode:darken" d="M89.5075 71.0764C95.2083 83.7014 100.57 96.984 95.6276 92.7037C87.5931 85.6988 52.4815 109.353 69.2571 134.867L51.5767 127.446L89.5075 71.0764Z" fill="url(#paint2_linear_92_123)" />
	<path style="mix-blend-mode:darken" d="M115.126 33.0234L117.585 37.0918C99.0422 51.8369 104.902 69.9915 119.595 102.776L87.1282 74.5868L89.5054 71.0761L115.126 33.0234Z" fill="url(#paint3_linear_92_123)" />
	<path d="M123.008 85.106L202.255 173.91L200 179.5L83.8494 77.2758L123.008 85.106Z" fill="url(#paint4_linear_92_123)" />
	<path d="M115.127 33.0226L94.7575 63.328L120.769 90.6901L106.181 87.7813L81.6025 82.8772L51.6012 127.459L54.2021 77.3772L16.0385 69.7553L55.3328 55.2024L56.9781 23.5494L78.7707 46.5009L90.9534 42.0003L115.127 33.0226Z" fill="url(#paint5_linear_92_123)" />
	<path opacity="0.6" d="M115.126 33.0233L94.7545 63.3276L120.767 90.6898L106.178 87.7808C113.487 84.817 103.43 74.6849 92.6151 65.7393C79.1388 54.6154 112.45 49.7559 101.709 45.1696C98.0574 43.5823 94.3063 42.5994 90.9504 41.9999L115.126 33.0233Z" fill="#FFF37E" />
	<path opacity="0.6" d="M185 172.5L86.0001 89.4997L81.5001 110.5L185 172.5Z" fill="#FFF37E" />
	<path opacity="0.6" d="M79.7394 115.394C79.7394 115.394 175.502 169.048 172.5 167.5C169.498 165.951 77.4999 126.5 77.4999 126.5L79.7394 115.394Z" fill="#FFF37E" />
	<path opacity="0.6" d="M118.527 78.549L185.5 154.5L132.5 84.9998L118.527 78.549Z" fill="#FFF37E" />
	<path d="M410.159 69.7569L228.264 179.073L372.007 77.3861L410.159 69.7569Z" fill="url(#paint6_linear_92_123)" />
	<path d="M311.067 33.0226L308.606 37.092L280.063 84.3198L264.73 109.688L237.208 155.197L224.159 176.796L223 178.531H252.789L356.912 134.88L356.936 134.867L374.616 127.446L339.063 74.5871L336.685 71.0763L311.067 33.0226Z" fill="url(#paint7_linear_92_123)" />
	<path style="mix-blend-mode:darken" d="M336.685 71.0764C330.985 83.7014 325.623 96.984 330.565 92.7037C338.6 85.6988 373.711 109.353 356.936 134.867L374.616 127.446L336.685 71.0764Z" fill="url(#paint8_linear_92_123)" />
	<path style="mix-blend-mode:darken" d="M311.067 33.0234L308.608 37.0918C327.151 51.8369 321.291 69.9915 306.598 102.776L339.065 74.5868L336.687 71.0761L311.067 33.0234Z" fill="url(#paint9_linear_92_123)" />
	<path d="M305.44 90.696L225.5 179.5L225.95 179L344.598 82.8658L305.44 90.696Z" fill="url(#paint10_linear_92_123)" />
	<path d="M311.066 33.0226L331.436 63.328L305.424 90.6901L320.012 87.7813L344.591 82.8772L374.592 127.459L371.991 77.3772L410.155 69.7553L370.861 55.2024L369.215 23.5494L347.423 46.5009L335.24 42.0003L311.066 33.0226Z" fill="url(#paint11_linear_92_123)" />
	<path opacity="0.6" d="M311.067 33.0233L331.438 63.3276L305.426 90.6898L320.015 87.7808C312.706 84.817 322.762 74.6849 333.578 65.7393C347.054 54.6154 313.743 49.7559 324.484 45.1696C328.135 43.5823 331.887 42.5994 335.242 41.9999L311.067 33.0233Z" fill="#FFF37E" />
	<path opacity="0.6" d="M241.5 170.5L343 93.9996L346.5 111L241.5 170.5Z" fill="#FFF37E" />
	<path opacity="0.6" d="M346.454 115.395C346.454 115.395 243.498 169.049 246.5 167.5C249.502 165.951 348 124.5 348 124.5L346.454 115.395Z" fill="#FFF37E" />
	<path opacity="0.6" d="M310.5 80.5001L239.5 160.5L295.457 87.3212L310.5 80.5001Z" fill="#FFF37E" />
	<path d="M171.932 169.47L164.788 178.978L87.2834 177.086L76.4998 176.824L80.7237 159.695L83.8298 147.128L87.308 132.996L90.815 134.514L171.932 169.47Z" fill="url(#paint12_linear_92_123)" />
	<path style="mix-blend-mode:darken" d="M111.114 150.62L90.6155 154.094C90.6155 154.094 87.2323 150.616 83.8301 147.127L87.3095 132.994L90.8165 134.512C89.4616 139.597 96.9174 143.876 111.114 150.62Z" fill="url(#paint13_linear_92_123)" />
	<path style="mix-blend-mode:darken" d="M107.982 167.09C94.9841 165.659 81.6318 168.503 87.2833 177.086L76.4997 176.823L80.7236 159.694C85.7843 159.94 95.326 161.269 107.982 167.09Z" fill="url(#paint14_linear_92_123)" />
	<path d="M101.981 174.34L165.717 177.731L167.945 174.766L96.3191 158.382L101.981 174.34Z" fill="url(#paint15_linear_92_123)" />
	<path d="M96.3164 158.382L108.719 146.838L170.887 170.847L167.943 174.765L96.3164 158.382Z" fill="url(#paint16_linear_92_123)" />
	<path d="M108.71 146.841L96.3247 158.384L101.986 174.346L89.1736 165.033L82.1697 171.556L76.4999 176.823L80.8946 159.019L71.2739 152.023L83.0184 150.385L87.3081 132.995L92.9954 149.029L106.122 147.209L108.71 146.841Z" fill="url(#paint17_linear_92_123)" />
	<path opacity="0.6" d="M108.71 146.841L96.326 158.385L101.987 174.347L89.1749 165.034L82.1697 171.558C87.7619 161.663 86.7555 158.751 92.6002 165.348C98.5922 172.162 98.2687 168.309 95.2107 161.286C92.5493 155.187 105.045 151.204 106.125 147.211L108.71 146.841Z" fill="#FFF37E" />
	<path opacity="0.6" d="M107.123 165.141L158.944 174.246L111.068 167.607L107.123 165.141Z" fill="#FFF37E" />
	<path d="M247.978 169.47L255.121 178.977L332.626 177.086L343.41 176.823L339.186 159.694L336.08 147.127L332.602 132.995L329.095 134.513L247.978 169.47Z" fill="url(#paint18_linear_92_123)" />
	<path style="mix-blend-mode:darken" d="M308.796 150.62L329.295 154.094C329.295 154.094 332.678 150.616 336.08 147.127L332.601 132.994L329.094 134.512C330.449 139.597 322.993 143.876 308.796 150.62Z" fill="url(#paint19_linear_92_123)" />
	<path style="mix-blend-mode:darken" d="M311.928 167.09C324.926 165.659 338.278 168.503 332.627 177.086L343.41 176.823L339.187 159.694C334.126 159.94 324.584 161.269 311.928 167.09Z" fill="url(#paint20_linear_92_123)" />
	<path d="M317.929 174.34L254.193 177.731L251.965 174.766L323.591 158.382L317.929 174.34Z" fill="url(#paint21_linear_92_123)" />
	<path d="M323.594 158.382L311.191 146.838L249.023 170.847L251.967 174.765L323.594 158.382Z" fill="url(#paint22_linear_92_123)" />
	<path d="M311.2 146.841L323.585 158.384L317.925 174.346L330.737 165.033L337.74 171.556L343.41 176.823L339.016 159.019L348.636 152.023L336.892 150.385L332.602 132.995L326.915 149.029L313.788 147.209L311.2 146.841Z" fill="url(#paint23_linear_92_123)" />
	<path opacity="0.6" d="M311.2 146.841L323.584 158.385L317.923 174.347L330.735 165.034L337.74 171.558C332.148 161.663 333.154 158.751 327.309 165.348C321.317 172.162 321.641 168.309 324.699 161.286C327.36 155.187 314.864 151.204 313.785 147.211L311.2 146.841Z" fill="#FFF37E" />
	<path opacity="0.6" d="M312.787 165.141L260.966 174.246L308.842 167.607L312.787 165.141Z" fill="#FFF37E" />
	<defs>
		<linearGradient id="paint0_linear_92_123" x1="105.62" y1="88.7952" x2="107.694" y2="151.856" gradientUnits="userSpaceOnUse">
			<stop stop-color="#E77E08" />
			<stop offset="1" stop-color="#FFF06B" />
		</linearGradient>
		<linearGradient id="paint1_linear_92_123" x1="77.1138" y1="70.5457" x2="124.409" y2="144.01" gradientUnits="userSpaceOnUse">
			<stop stop-color="#E77E08" />
			<stop offset="1" stop-color="#FFF06B" />
		</linearGradient>
		<linearGradient id="paint2_linear_92_123" x1="49.0751" y1="150.179" x2="87.5929" y2="89.8952" gradientUnits="userSpaceOnUse">
			<stop stop-color="#A63426" />
			<stop offset="1" stop-color="white" />
		</linearGradient>
		<linearGradient id="paint3_linear_92_123" x1="105.006" y1="85.0402" x2="124.835" y2="41.0763" gradientUnits="userSpaceOnUse">
			<stop stop-color="#A63426" />
			<stop offset="1" stop-color="white" />
		</linearGradient>
		<linearGradient id="paint4_linear_92_123" x1="147.264" y1="121.243" x2="127.496" y2="154.401" gradientUnits="userSpaceOnUse">
			<stop stop-color="#E77E08" />
			<stop offset="1" stop-color="#FFF06B" />
		</linearGradient>
		<linearGradient id="paint5_linear_92_123" x1="82.3078" y1="21.4629" x2="63.6222" y2="100.437" gradientUnits="userSpaceOnUse">
			<stop stop-color="#E77E08" />
			<stop offset="1" stop-color="#FFF06B" />
		</linearGradient>
		<linearGradient id="paint6_linear_92_123" x1="320.573" y1="88.7948" x2="318.499" y2="151.855" gradientUnits="userSpaceOnUse">
			<stop stop-color="#E77E08" />
			<stop offset="1" stop-color="#FFF06B" />
		</linearGradient>
		<linearGradient id="paint7_linear_92_123" x1="349.079" y1="70.5457" x2="301.784" y2="144.01" gradientUnits="userSpaceOnUse">
			<stop stop-color="#E77E08" />
			<stop offset="1" stop-color="#FFF06B" />
		</linearGradient>
		<linearGradient id="paint8_linear_92_123" x1="377.118" y1="150.179" x2="338.6" y2="89.8952" gradientUnits="userSpaceOnUse">
			<stop stop-color="#A63426" />
			<stop offset="1" stop-color="white" />
		</linearGradient>
		<linearGradient id="paint9_linear_92_123" x1="321.187" y1="85.0402" x2="301.357" y2="41.0763" gradientUnits="userSpaceOnUse">
			<stop stop-color="#A63426" />
			<stop offset="1" stop-color="white" />
		</linearGradient>
		<linearGradient id="paint10_linear_92_123" x1="278.928" y1="121.243" x2="298.697" y2="154.401" gradientUnits="userSpaceOnUse">
			<stop stop-color="#E77E08" />
			<stop offset="1" stop-color="#FFF06B" />
		</linearGradient>
		<linearGradient id="paint11_linear_92_123" x1="343.886" y1="21.4629" x2="362.571" y2="100.437" gradientUnits="userSpaceOnUse">
			<stop stop-color="#E77E08" />
			<stop offset="1" stop-color="#FFF06B" />
		</linearGradient>
		<linearGradient id="paint12_linear_92_123" x1="82.201" y1="155.035" x2="130.755" y2="175.772" gradientUnits="userSpaceOnUse">
			<stop stop-color="#E77E08" />
			<stop offset="1" stop-color="#FFF06B" />
		</linearGradient>
		<linearGradient id="paint13_linear_92_123" x1="90.3931" y1="151.533" x2="101.956" y2="138.783" gradientUnits="userSpaceOnUse">
			<stop stop-color="#A63426" />
			<stop offset="1" stop-color="white" />
		</linearGradient>
		<linearGradient id="paint14_linear_92_123" x1="93.9462" y1="158.834" x2="90.3856" y2="186.236" gradientUnits="userSpaceOnUse">
			<stop stop-color="#A63426" />
			<stop offset="1" stop-color="white" />
		</linearGradient>
		<linearGradient id="paint15_linear_92_123" x1="124.104" y1="183.248" x2="133.42" y2="163.9" gradientUnits="userSpaceOnUse">
			<stop stop-color="#E77E08" />
			<stop offset="1" stop-color="#FFF06B" />
		</linearGradient>
		<linearGradient id="paint16_linear_92_123" x1="106.385" y1="153.607" x2="183.782" y2="184.912" gradientUnits="userSpaceOnUse">
			<stop stop-color="#E77E08" />
			<stop offset="1" stop-color="#FFF06B" />
		</linearGradient>
		<linearGradient id="paint17_linear_92_123" x1="88.0392" y1="174.533" x2="90.1823" y2="146.978" gradientUnits="userSpaceOnUse">
			<stop stop-color="#E77E08" />
			<stop offset="1" stop-color="#FFF06B" />
		</linearGradient>
		<linearGradient id="paint18_linear_92_123" x1="337.709" y1="155.035" x2="289.154" y2="175.771" gradientUnits="userSpaceOnUse">
			<stop stop-color="#E77E08" />
			<stop offset="1" stop-color="#FFF06B" />
		</linearGradient>
		<linearGradient id="paint19_linear_92_123" x1="329.517" y1="151.533" x2="317.954" y2="138.783" gradientUnits="userSpaceOnUse">
			<stop stop-color="#A63426" />
			<stop offset="1" stop-color="white" />
		</linearGradient>
		<linearGradient id="paint20_linear_92_123" x1="325.964" y1="158.834" x2="329.525" y2="186.236" gradientUnits="userSpaceOnUse">
			<stop stop-color="#A63426" />
			<stop offset="1" stop-color="white" />
		</linearGradient>
		<linearGradient id="paint21_linear_92_123" x1="295.806" y1="183.248" x2="286.49" y2="163.9" gradientUnits="userSpaceOnUse">
			<stop stop-color="#E77E08" />
			<stop offset="1" stop-color="#FFF06B" />
		</linearGradient>
		<linearGradient id="paint22_linear_92_123" x1="313.525" y1="153.607" x2="236.128" y2="184.912" gradientUnits="userSpaceOnUse">
			<stop stop-color="#E77E08" />
			<stop offset="1" stop-color="#FFF06B" />
		</linearGradient>
		<linearGradient id="paint23_linear_92_123" x1="331.871" y1="174.533" x2="329.728" y2="146.978" gradientUnits="userSpaceOnUse">
			<stop stop-color="#E77E08" />
			<stop offset="1" stop-color="#FFF06B" />
		</linearGradient>
	</defs>
</svg>
