<svg width="192" height="189" viewBox="0 0 192 189" fill="none" xmlns="http://www.w3.org/2000/svg">
  <g>
    <mask id="mask_stars_0" mask-type="alpha" maskUnits="userSpaceOnUse" x="-83" y="-86" width="275" height="275">
      <rect x="-83" y="-86" width="275" height="275" fill="white" />
    </mask>
    <g mask="url(#mask_stars_0)">
      <path d="M50.4391 86.1758C50.1767 86.0615 49.8943 86.0001 49.6082 85.9949C49.3221 85.9898 49.0377 86.041 48.7714 86.1458C48.505 86.2505 48.2619 86.4067 48.056 86.6053C47.85 86.804 47.6852 87.0413 47.5709 87.3037C47.4566 87.5661 47.3952 87.8484 47.39 88.1346C47.3848 88.4207 47.4361 88.7051 47.5408 88.9714C47.6456 89.2378 47.8018 89.4809 48.0004 89.6868C48.1991 89.8928 48.4364 90.0576 48.6988 90.1719L56.1969 93.4805C56.4735 93.6065 56.7737 93.6724 57.0777 93.6738C57.5744 93.6779 58.0572 93.5097 58.4439 93.1979C58.8305 92.8861 59.0972 92.4499 59.1985 91.9637C59.2998 91.4774 59.2295 90.971 58.9995 90.5307C58.7695 90.0905 58.3941 89.7435 57.9371 89.5488V89.4844L50.4391 86.1758Z" fill="#8030fc" />
      <path fill-rule="evenodd" clip-rule="evenodd" d="M70.4208 77.625C70.345 77.3051 70.3484 76.9716 70.4308 76.6533C70.5131 76.3351 70.672 76.0418 70.8934 75.7988L89.4559 55.0449C90.2015 54.1465 90.6891 53.0624 90.8666 51.9084C91.0441 50.7545 90.9048 49.574 90.4636 48.493C90.0224 47.4121 89.2958 46.4713 88.3616 45.7711C87.4273 45.0709 86.3204 44.6376 85.159 44.5176L57.4012 42.3691C57.0724 42.3483 56.7537 42.2474 56.4728 42.0752C56.1919 41.9029 55.9575 41.6645 55.7899 41.3809L41.868 17.3398C41.2774 16.3154 40.411 15.4773 39.3675 14.921C38.324 14.3647 37.1453 14.1125 35.9655 14.1931C34.7857 14.2737 33.6523 14.6838 32.6941 15.3769C31.736 16.0699 30.9916 17.018 30.5458 18.1133L19.954 43.8945C19.8308 44.1976 19.6352 44.4658 19.3842 44.6755C19.1332 44.8853 18.8346 45.0303 18.5145 45.0977L-8.70619 50.9199C-9.8361 51.2058 -10.8673 51.7928 -11.6901 52.6184C-12.5129 53.4439 -13.0964 54.4771 -13.3786 55.6079C-13.6608 56.7388 -13.631 57.925 -13.2925 59.0403C-12.9539 60.1556 -12.3193 61.1582 -11.4562 61.9414L9.74888 79.9668C9.99118 80.1842 10.1809 80.4538 10.3037 80.7553C10.4265 81.0567 10.4793 81.3822 10.4579 81.707L7.62193 109.508C7.54834 110.386 7.65552 111.269 7.93685 112.104C8.21818 112.939 8.66769 113.708 9.25762 114.362C9.84754 115.016 10.5654 115.543 11.3667 115.909C12.1681 116.275 13.036 116.473 13.9169 116.49C15.0923 116.485 16.2439 116.158 17.2469 115.545L40.8797 100.936C41.1613 100.774 41.4758 100.679 41.7995 100.657C42.1232 100.634 42.4478 100.686 42.7489 100.807L68.2079 112.064C69.2895 112.501 70.4692 112.635 71.6213 112.454C72.7734 112.273 73.8546 111.782 74.7499 111.034C75.6451 110.287 76.3207 109.311 76.7048 108.209C77.0888 107.108 77.1668 105.923 76.9305 104.781L76.995 104.674L70.4208 77.625ZM71.1103 108.196C70.7285 108.25 70.3395 108.19 69.9911 108.025L44.5536 96.7676C43.6165 96.3531 42.5925 96.1737 41.5704 96.2449C40.5483 96.316 39.5589 96.6356 38.6883 97.1758L15.0555 111.785C14.726 111.947 14.3606 112.021 13.9942 112.001C13.6278 111.981 13.2725 111.868 12.9623 111.672C12.6521 111.476 12.3973 111.204 12.2222 110.881C12.047 110.559 11.9574 110.197 11.9618 109.83L14.7977 82.1582C14.9002 81.14 14.7588 80.1121 14.3852 79.1594C14.0116 78.2068 13.4166 77.3567 12.6493 76.6797L-8.5558 58.6543C-8.84613 58.4198 -9.06583 58.1095 -9.19049 57.7577C-9.31516 57.406 -9.33991 57.0266 -9.26202 56.6616C-9.18413 56.2966 -9.00664 55.9604 -8.74924 55.6902C-8.49184 55.42 -8.16461 55.2264 -7.80385 55.1309L19.4169 49.3516C20.4151 49.1249 21.345 48.6637 22.1296 48.0061C22.9142 47.3486 23.5309 46.5136 23.9286 45.5703L34.5204 19.7891C34.6614 19.4351 34.8996 19.1283 35.2075 18.904C35.5154 18.6797 35.8805 18.5471 36.2606 18.5215H36.411C36.7654 18.5163 37.1144 18.6075 37.421 18.7853C37.7275 18.9632 37.9799 19.221 38.1512 19.5312L52.1376 43.5508C52.6615 44.4348 53.3892 45.1808 54.26 45.7264C55.1308 46.272 56.1194 46.6016 57.1434 46.6875L84.8797 48.8359C85.2421 48.8964 85.5829 49.0489 85.8696 49.2787C86.1563 49.5084 86.3792 49.8079 86.5171 50.1484C86.6551 50.4889 86.7034 50.8591 86.6574 51.2237C86.6115 51.5882 86.4729 51.9348 86.2547 52.2305L67.6922 72.9844C67.0058 73.7482 66.516 74.6678 66.2652 75.6636C66.0144 76.6594 66.0101 77.7014 66.2528 78.6992L72.6981 105.748C72.7926 106.097 72.7906 106.465 72.6922 106.814C72.5939 107.162 72.4028 107.477 72.1395 107.725C71.8497 107.979 71.492 108.143 71.1103 108.196Z" fill="#8030fc" />
      <path fill-rule="evenodd" clip-rule="evenodd" d="M-27.1408 3.35352C-26.2517 4.06991 -25.1459 4.46373 -24.0041 4.47071C-23.2613 4.47884 -22.5265 4.31717 -21.8557 3.99805C-20.9983 3.60852 -20.2687 2.98404 -19.7516 2.19695C-19.2345 1.40987 -18.951 0.492401 -18.9338 -0.449203L-18.4826 -19.5918C-18.4839 -19.7111 -18.455 -19.8287 -18.3986 -19.9339C-18.3423 -20.039 -18.2604 -20.1283 -18.1604 -20.1933L-2.13303 -30.6777C-1.34538 -31.1896 -0.716881 -31.9119 -0.31881 -32.7627C0.0792618 -33.6136 0.23098 -34.559 0.119148 -35.4917C0.00731659 -36.4244 -0.363602 -37.3071 -0.951538 -38.0397C-1.53947 -38.7723 -2.32091 -39.3256 -3.20725 -39.6367L-21.2971 -46.082C-21.4037 -46.1266 -21.4993 -46.194 -21.5772 -46.2793C-21.6551 -46.3646 -21.7135 -46.466 -21.7483 -46.5762L-26.9905 -65.0742C-27.2544 -65.9515 -27.7521 -66.7404 -28.4302 -67.3565C-29.1083 -67.9725 -29.9412 -68.3925 -30.8397 -68.5713C-31.7382 -68.7501 -32.6685 -68.6811 -33.5308 -68.3716C-34.393 -68.0621 -35.1549 -67.5238 -35.7346 -66.8144L-47.4651 -51.625C-47.5351 -51.5316 -47.6259 -51.4558 -47.7303 -51.4036C-47.8347 -51.3514 -47.9499 -51.3242 -48.0666 -51.3242L-67.2092 -52.2695C-68.1363 -52.2967 -69.0529 -52.0668 -69.8575 -51.6054C-70.6621 -51.144 -71.3233 -50.469 -71.7681 -49.6551C-72.2128 -48.8411 -72.4238 -47.9201 -72.3775 -46.9937C-72.3313 -46.0673 -72.0297 -45.1718 -71.5061 -44.4062L-60.6135 -28.6367C-60.5605 -28.5299 -60.5329 -28.4122 -60.5329 -28.293C-60.5329 -28.1737 -60.5605 -28.056 -60.6135 -27.9492L-67.424 -10.0098C-67.7631 -9.13256 -67.8483 -8.17759 -67.6697 -7.25424C-67.4911 -6.3309 -67.056 -5.47654 -66.4143 -4.78905C-65.7718 -4.10336 -64.9515 -3.60966 -64.0448 -3.36307C-63.1381 -3.11648 -62.1807 -3.12669 -61.2795 -3.39256L-42.9319 -8.89257C-42.7969 -8.92661 -42.6552 -8.92255 -42.5224 -8.88082C-42.3897 -8.8391 -42.2711 -8.76135 -42.1799 -8.65624L-27.1408 3.35352ZM-62.8318 -7.40503C-62.9606 -7.43911 -63.0776 -7.50774 -63.1701 -7.6035C-63.2715 -7.70146 -63.3402 -7.8282 -63.3671 -7.96654C-63.394 -8.10489 -63.3778 -8.24815 -63.3205 -8.37694L-56.51 -26.2734C-56.2286 -27.0621 -56.1461 -27.908 -56.2698 -28.7362C-56.3935 -29.5644 -56.7195 -30.3494 -57.219 -31.0215L-67.9611 -46.791C-68.036 -46.9061 -68.0759 -47.0404 -68.0759 -47.1777C-68.0759 -47.315 -68.036 -47.4494 -67.9611 -47.5644C-67.9006 -47.6859 -67.8043 -47.786 -67.6853 -47.8513C-67.5663 -47.9166 -67.4301 -47.9439 -67.2951 -47.9297L-48.1526 -47.0058C-47.331 -46.9551 -46.5096 -47.1068 -45.7604 -47.4477C-45.0112 -47.7886 -44.3571 -48.3082 -43.8557 -48.9609L-32.2326 -64.1933C-32.1513 -64.3028 -32.0409 -64.3873 -31.914 -64.4373C-31.7871 -64.4873 -31.6487 -64.5008 -31.5146 -64.4762C-31.3804 -64.4516 -31.2558 -64.3899 -31.1549 -64.2982C-31.054 -64.2064 -30.9808 -64.0882 -30.9436 -63.957L-25.9162 -45.459C-25.7138 -44.6832 -25.3296 -43.9668 -24.7954 -43.3691C-24.2611 -42.7713 -23.5922 -42.3094 -22.844 -42.0215L-4.75413 -35.5762C-4.62462 -35.534 -4.51054 -35.4543 -4.42639 -35.3472C-4.34224 -35.2401 -4.2918 -35.1104 -4.28147 -34.9746C-4.26284 -34.8381 -4.28322 -34.699 -4.34024 -34.5736C-4.39726 -34.4481 -4.48861 -34.3414 -4.60373 -34.2656L-20.6955 -23.8887C-21.3825 -23.449 -21.95 -22.8462 -22.3474 -22.1339C-22.7448 -21.4217 -22.9596 -20.6221 -22.9729 -19.8066L-23.424 -0.642563C-23.4304 -0.506256 -23.4738 -0.374252 -23.5495 -0.260712C-23.6252 -0.147171 -23.7304 -0.0563736 -23.8537 0.00196075C-23.979 0.0617371 -24.1191 0.0834274 -24.2566 0.0643311C-24.3941 0.0452347 -24.5229 -0.0138016 -24.6272 -0.105453L-39.5588 -12.1152C-40.4483 -12.8285 -41.5554 -13.2152 -42.6955 -13.2109C-43.1819 -13.2114 -43.666 -13.1464 -44.135 -13.0176L-62.4397 -7.41014C-62.5675 -7.37272 -62.7031 -7.37095 -62.8318 -7.40503Z" fill="#8030fc" />
      <path fill-rule="evenodd" clip-rule="evenodd" d="M139.948 25.6999C140.583 26.0781 141.309 26.2776 142.048 26.2773H142.242C143.013 26.2497 143.76 26.0052 144.399 25.572C145.037 25.1388 145.54 24.5344 145.851 23.8281L151.05 11.8183L163.941 9.34765C164.721 9.22832 165.449 8.88437 166.037 8.35784C166.624 7.83131 167.046 7.145 167.249 6.3828C167.482 5.62484 167.491 4.81565 167.273 4.05309C167.056 3.29053 166.622 2.60726 166.025 2.08593L156.228 -6.50782L157.904 -19.6348C157.994 -20.3986 157.871 -21.1725 157.547 -21.8701C157.223 -22.5678 156.712 -23.1615 156.07 -23.5851C155.428 -24.0087 154.68 -24.2453 153.912 -24.2685C153.143 -24.2918 152.383 -24.1008 151.716 -23.7168L140.437 -17.0352L128.492 -22.6856C127.798 -23.006 127.029 -23.1275 126.27 -23.0365C125.511 -22.9454 124.793 -22.6454 124.195 -22.1699C123.587 -21.6954 123.126 -21.0574 122.867 -20.3306C122.609 -19.6039 122.562 -18.8185 122.734 -18.0664L125.57 -5.28321L116.503 4.34179C115.973 4.90285 115.611 5.6015 115.458 6.35827C115.305 7.11505 115.367 7.89956 115.638 8.62257C115.909 9.34557 116.377 9.97805 116.99 10.4481C117.602 10.9181 118.334 11.2067 119.103 11.2812L132.122 12.5273L138.439 24.1289C138.791 24.779 139.313 25.3218 139.948 25.6999ZM129.633 -4.06663C129.817 -4.71485 129.838 -5.39831 129.695 -6.05665L126.966 -18.6465L138.632 -13.1465C139.239 -12.8603 139.906 -12.7264 140.576 -12.7563C141.247 -12.7863 141.899 -12.9792 142.478 -13.3184L153.628 -19.9141L151.974 -7.02345C151.903 -6.35798 151.988 -5.68511 152.223 -5.05846C152.458 -4.43182 152.836 -3.86873 153.328 -3.41407L162.931 5.17968L150.277 7.58593C149.618 7.70456 148.998 7.98438 148.473 8.40046C147.948 8.81655 147.535 9.35597 147.269 9.97069L142.07 21.7656L135.861 10.4648C135.54 9.87543 135.081 9.3723 134.524 8.99825C133.966 8.62419 133.327 8.39028 132.66 8.3164L119.769 7.02733L128.642 -2.33986C129.109 -2.82536 129.45 -3.41841 129.633 -4.06663Z" fill="#8030fc" />
      <path fill-rule="evenodd" clip-rule="evenodd" d="M161.492 114.686L153.994 101.602C153.571 100.903 152.966 100.333 152.242 99.9542C151.519 99.5754 150.705 99.4021 149.89 99.4531C149.066 99.5027 148.273 99.7828 147.601 100.261C146.928 100.74 146.404 101.398 146.088 102.16L140.115 115.953L125.398 119.068C124.569 119.237 123.806 119.64 123.2 120.231C122.594 120.821 122.171 121.574 121.982 122.398C121.812 123.174 121.852 123.981 122.097 124.736C122.343 125.492 122.785 126.168 123.379 126.695L134.851 136.621L133.24 151.66C133.136 152.494 133.271 153.34 133.628 154.101C133.986 154.861 134.551 155.505 135.259 155.957C135.974 156.405 136.801 156.643 137.644 156.645C138.448 156.642 139.235 156.419 139.921 156L152.812 148.158L166.562 154.324C167.314 154.657 168.144 154.774 168.959 154.661C169.773 154.548 170.541 154.211 171.174 153.687C171.808 153.162 172.283 152.472 172.546 151.693C172.809 150.914 172.85 150.076 172.664 149.275L169.205 134.494L179.324 123.322C179.871 122.718 180.24 121.974 180.392 121.174C180.543 120.373 180.47 119.546 180.181 118.783C179.893 118.021 179.399 117.354 178.755 116.854C178.111 116.355 177.341 116.043 176.531 115.953L161.492 114.686ZM165.209 133.367C165.032 134.061 165.032 134.788 165.209 135.482L168.625 150.264L154.853 144.098C154.202 143.809 153.491 143.682 152.781 143.727C152.07 143.772 151.381 143.987 150.771 144.355L137.709 152.09L139.32 137.051C139.409 136.338 139.317 135.615 139.055 134.947C138.792 134.279 138.366 133.688 137.816 133.227L126.429 123.215L140.996 120.25C141.695 120.101 142.347 119.784 142.897 119.328C143.447 118.871 143.878 118.288 144.154 117.629L150.17 103.707L157.689 116.77C158.05 117.38 158.553 117.893 159.155 118.267C159.758 118.642 160.441 118.865 161.148 118.918L176.187 120.336L166.218 131.508C165.732 132.034 165.385 132.673 165.209 133.367Z" fill="#8030fc" />
      <path fill-rule="evenodd" clip-rule="evenodd" d="M111.343 80.2078C109.98 78.8447 108.971 77.1688 108.404 75.3262C108.262 74.8735 107.975 74.4805 107.586 74.2084C107.198 73.9364 106.73 73.8006 106.256 73.8223C105.782 73.8006 105.314 73.9364 104.926 74.2084C104.537 74.4805 104.249 74.8735 104.107 75.3262C103.541 77.1688 102.532 78.8447 101.169 80.2078C99.8056 81.5709 98.1297 82.5798 96.2871 83.1465C95.8304 83.2845 95.4326 83.5705 95.1564 83.9595C94.8802 84.3485 94.7414 84.8183 94.7617 85.295C94.7414 85.7716 94.8802 86.2415 95.1564 86.6305C95.4326 87.0195 95.8304 87.3055 96.2871 87.4434C98.1279 88.0135 99.8021 89.0235 101.165 90.3861C102.527 91.7488 103.537 93.4229 104.107 95.2637C104.245 95.7204 104.531 96.1182 104.92 96.3944C105.309 96.6706 105.779 96.8095 106.256 96.7891C106.733 96.8095 107.202 96.6706 107.591 96.3944C107.98 96.1182 108.266 95.7204 108.404 95.2637C108.974 93.4229 109.984 91.7488 111.347 90.3861C112.71 89.0235 114.384 88.0135 116.225 87.4434C116.681 87.3055 117.079 87.0195 117.355 86.6305C117.632 86.2415 117.77 85.7716 117.75 85.295C117.77 84.8183 117.632 84.3485 117.355 83.9595C117.079 83.5705 116.681 83.2845 116.225 83.1465C114.382 82.5798 112.706 81.5709 111.343 80.2078ZM102.066 85.295C103.756 84.1454 105.214 82.6876 106.363 80.9981C107.506 82.6937 108.965 84.1527 110.66 85.295C108.966 86.4128 107.507 87.8505 106.363 89.5274V89.5918C105.219 87.8976 103.761 86.4389 102.066 85.295Z" fill="#8030fc" />
      <path fill-rule="evenodd" clip-rule="evenodd" d="M98.0994 156.992C95.8188 154.726 94.1272 151.937 93.1723 148.867C93.0344 148.41 92.7484 148.013 92.3594 147.736C91.9704 147.46 91.5005 147.321 91.0239 147.342C90.5472 147.321 90.0774 147.46 89.6884 147.736C89.2994 148.013 89.0134 148.41 88.8754 148.867C87.9337 151.93 86.2569 154.715 83.9913 156.981C81.7256 159.247 78.94 160.924 75.8774 161.865C75.4395 162.001 75.0567 162.274 74.7848 162.643C74.5129 163.012 74.3662 163.458 74.3662 163.917C74.3662 164.375 74.5129 164.822 74.7848 165.191C75.0567 165.56 75.4395 165.833 75.8774 165.969C78.928 166.9 81.7057 168.561 83.9705 170.807C86.2352 173.053 87.9187 175.817 88.8754 178.859C89.0134 179.316 89.2994 179.714 89.6884 179.99C90.0774 180.266 90.5472 180.405 91.0239 180.385C91.5005 180.405 91.9704 180.266 92.3594 179.99C92.7484 179.714 93.0344 179.316 93.1723 178.859C94.1361 175.817 95.8245 173.054 98.0925 170.809C100.36 168.563 103.14 166.902 106.192 165.969C106.63 165.833 107.013 165.56 107.284 165.191C107.556 164.822 107.703 164.375 107.703 163.917C107.703 163.458 107.556 163.012 107.284 162.643C107.013 162.274 106.63 162.001 106.192 161.865H106.256C103.18 160.931 100.38 159.257 98.0994 156.992ZM82.1723 163.928C85.9481 161.784 89.0735 158.659 91.2172 154.883C93.3525 158.658 96.4708 161.784 100.241 163.928C96.4591 166.054 93.3313 169.175 91.1958 172.951H91.2172C89.0791 169.177 85.9519 166.057 82.1723 163.928Z" fill="#8030fc" />
    </g>
  </g>
</svg>