<svg width="18" height="10" viewBox="0 0 18 10" fill="none" xmlns="http://www.w3.org/2000/svg">
<path d="M10.8907 9.32815C10.7964 9.32815 10.7053 9.30546 10.6201 9.2607L9.04553 8.4346L7.47082 9.2607C7.23098 9.3867 6.92771 9.32502 6.75459 9.12003C6.64466 8.98989 6.59829 8.81812 6.62719 8.64899L6.92796 6.89923L5.65403 5.65988C5.49435 5.50467 5.43806 5.27673 5.50691 5.0651C5.57588 4.85346 5.75566 4.70213 5.97627 4.67028L7.7368 4.41489L8.52426 2.82299C8.62289 2.62351 8.82265 2.49951 9.04553 2.49951C9.2684 2.49951 9.46817 2.62339 9.56691 2.82299L10.3541 4.41489L12.1148 4.67028C12.3353 4.70225 12.5152 4.85359 12.584 5.0651C12.6529 5.27673 12.5966 5.50454 12.4368 5.65988L11.163 6.89923L11.4637 8.64899C11.4926 8.81812 11.4463 8.98989 11.3363 9.12003C11.2248 9.2523 11.0623 9.32815 10.8907 9.32815ZM9.04553 7.90049C9.08561 7.90049 9.12594 7.91014 9.1625 7.92933L10.854 8.81674C10.8892 8.83517 10.9282 8.82514 10.9523 8.79668C10.9674 8.77888 10.9726 8.75819 10.9684 8.73374L10.6454 6.85397C10.6315 6.77273 10.6584 6.68973 10.7176 6.63205L12.0861 5.30081C12.1167 5.27109 12.1118 5.23761 12.1061 5.22006C12.1005 5.20263 12.0846 5.17267 12.0425 5.16652L10.1511 4.8922C10.0693 4.88042 9.99858 4.82914 9.9619 4.75516L9.11626 3.0449C9.09754 3.00666 9.06387 3.00102 9.04553 3.00102C9.02719 3.00102 8.99364 3.00666 8.9748 3.0449L8.1289 4.75516C8.09234 4.82914 8.0216 4.88042 7.93982 4.8922L6.04852 5.16652C6.00631 5.17267 5.99047 5.20276 5.98481 5.22006C5.97916 5.23749 5.97427 5.27097 6.00467 5.30081L7.37333 6.63205C7.4325 6.68973 7.45952 6.77273 7.44558 6.85397L7.12256 8.73374C7.11829 8.75819 7.12358 8.77888 7.13865 8.79668C7.16265 8.82514 7.20147 8.83517 7.2369 8.81674L8.92856 7.9292C8.96512 7.91014 9.00545 7.90049 9.04553 7.90049Z" fill="white"/>
<path d="M15.4851 7.79007C15.3927 7.79007 15.2997 7.76787 15.214 7.72286L13.6394 6.89676L12.0647 7.72286C11.9418 7.78731 11.79 7.74017 11.7254 7.61755C11.6608 7.49493 11.708 7.34335 11.8309 7.27891L13.5226 6.39136C13.5957 6.353 13.6833 6.35287 13.7564 6.39136L15.4479 7.27891C15.4859 7.29872 15.5163 7.28367 15.531 7.27289C15.5457 7.26211 15.5695 7.23778 15.5622 7.19578L15.2392 5.31601C15.2254 5.23464 15.2523 5.15164 15.3116 5.09409L16.6803 3.76284C16.7107 3.73313 16.7058 3.69953 16.7001 3.6821C16.6945 3.6648 16.6786 3.63458 16.6364 3.62844L14.7451 3.35411C14.6633 3.34233 14.5926 3.29105 14.5559 3.21695L13.7101 1.50669C13.6914 1.46857 13.6578 1.46281 13.6394 1.46281C13.6211 1.46281 13.5875 1.46845 13.5687 1.50669L12.723 3.21695C12.6863 3.29105 12.6157 3.34233 12.5338 3.35411L10.6425 3.62844C10.5053 3.6485 10.3777 3.55346 10.3576 3.41643C10.3378 3.27939 10.4328 3.15226 10.57 3.1322L12.3307 2.87693L13.118 1.28477C13.2168 1.08542 13.4165 0.961426 13.6394 0.961426C13.8623 0.961426 14.0621 1.08542 14.1607 1.28477L14.9482 2.87693L16.7087 3.1322C16.9293 3.16417 17.1092 3.3155 17.1779 3.52713C17.2469 3.73877 17.1905 3.96658 17.0308 4.1218L15.7569 5.36102L16.0576 7.11103C16.0953 7.33019 16.0066 7.54772 15.8262 7.67848C15.7243 7.75258 15.6051 7.79007 15.4851 7.79007Z" fill="white"/>
<path d="M2.60601 7.79006C2.48603 7.79019 2.36681 7.75257 2.26492 7.67873C2.08451 7.54808 1.9958 7.33043 2.03349 7.11127L2.33427 5.36126L1.06033 4.12204C0.90065 3.96695 0.844238 3.73902 0.913211 3.52738C0.982059 3.31575 1.16184 3.16442 1.38258 3.13245L3.1431 2.87718L3.93032 1.28502C4.02907 1.08567 4.22883 0.96167 4.45171 0.96167C4.67459 0.96167 4.87434 1.08567 4.97296 1.28502L5.76044 2.87718L7.52107 3.13245C7.65839 3.15238 7.7535 3.27951 7.73353 3.41667C7.71355 3.55384 7.58629 3.64874 7.44859 3.62868L5.55728 3.35436C5.4755 3.34258 5.40477 3.2913 5.36808 3.2172L4.5223 1.50693C4.50358 1.46882 4.46991 1.46305 4.45157 1.46305C4.43323 1.46305 4.39969 1.46869 4.38084 1.50693L3.53532 3.2172C3.49864 3.2913 3.42803 3.34258 3.34612 3.35436L1.45483 3.62868C1.41249 3.63483 1.39665 3.66504 1.391 3.68235C1.38534 3.69977 1.38045 3.73325 1.41098 3.76296L2.77963 5.09434C2.8388 5.15189 2.86583 5.23489 2.85188 5.31626L2.52887 7.19603C2.52158 7.23803 2.54545 7.26235 2.56015 7.27314C2.5751 7.28379 2.60564 7.29896 2.6432 7.27915L4.33474 6.39161C4.40786 6.35312 4.49542 6.35325 4.56854 6.39161L6.26021 7.27915C6.38308 7.34359 6.43033 7.49518 6.36575 7.6178C6.30117 7.74041 6.14927 7.78755 6.0264 7.72311L4.45171 6.89701L2.87712 7.72311C2.79144 7.768 2.69835 7.79006 2.60601 7.79006Z" fill="white"/>
</svg>
