<svg width="574" height="22" viewBox="0 0 574 22" fill="none" xmlns="http://www.w3.org/2000/svg">
	<path d="M8.76208 17H4.39213L0 1.47227H4.88014L6.98748 10.0125L9.4941 1.47227H12.9102L15.4168 10.0125L17.5242 1.47227H22.4043L18.0122 17H13.6422L11.2021 8.70376L8.76208 17ZM30.1947 6.90698V5.90877H34.2984V17H30.1947V16.0018C29.4848 16.8743 28.494 17.3106 27.2222 17.3106C25.7286 17.3106 24.5086 16.756 23.5621 15.6469C22.6157 14.5525 22.1424 13.155 22.1424 11.4544C22.1424 9.75373 22.6157 8.35623 23.5621 7.2619C24.5086 6.15277 25.7286 5.59821 27.2222 5.59821C28.494 5.59821 29.4848 6.03447 30.1947 6.90698ZM26.7786 12.9406C27.1631 13.3399 27.6437 13.5395 28.2204 13.5395C28.812 13.5395 29.2852 13.3399 29.6401 12.9406C30.0098 12.5413 30.1947 12.0459 30.1947 11.4544C30.1947 10.8629 30.0098 10.3674 29.6401 9.96816C29.2852 9.56887 28.812 9.36923 28.2204 9.36923C27.6437 9.36923 27.1631 9.56887 26.7786 9.96816C26.4237 10.3674 26.2462 10.8629 26.2462 11.4544C26.2462 12.0459 26.4237 12.5413 26.7786 12.9406ZM44.4246 6.90698V5.90877H48.5283V16.6673C48.5283 17.8355 48.2325 18.819 47.641 19.6175C47.0643 20.4161 46.3544 20.9781 45.5115 21.3034C44.6686 21.6287 43.7369 21.7914 42.7165 21.7914C41.4151 21.7914 40.2616 21.5548 39.256 21.0816C38.2504 20.6083 37.5036 19.9429 37.0156 19.0852L40.343 17.1553C40.8754 17.8799 41.5926 18.2422 42.4947 18.2422C43.0418 18.2422 43.5003 18.1017 43.87 17.8208C44.2397 17.5546 44.4246 17.1701 44.4246 16.6673V15.5581C43.7147 16.4306 42.7239 16.8669 41.4521 16.8669C39.9585 16.8669 38.7384 16.3271 37.792 15.2476C36.8455 14.168 36.3723 12.8297 36.3723 11.2326C36.3723 9.63542 36.8455 8.29708 37.792 7.21753C38.7384 6.13798 39.9585 5.59821 41.4521 5.59821C42.7239 5.59821 43.7147 6.03447 44.4246 6.90698ZM41.0085 12.6522C41.3929 13.0367 41.8736 13.229 42.4503 13.229C43.0418 13.229 43.5151 13.0367 43.87 12.6522C44.2397 12.2677 44.4246 11.7945 44.4246 11.2326C44.4246 10.6706 44.2397 10.1974 43.87 9.81288C43.5151 9.42838 43.0418 9.23614 42.4503 9.23614C41.8736 9.23614 41.3929 9.42838 41.0085 9.81288C40.6535 10.1974 40.4761 10.6706 40.4761 11.2326C40.4761 11.7945 40.6535 12.2677 41.0085 12.6522ZM61.956 12.8519H54.5914C54.9463 13.5913 55.7005 13.961 56.854 13.961C57.5195 13.961 58.148 13.7244 58.7395 13.2512L61.4236 15.5138C60.3145 16.7116 58.7469 17.3106 56.7209 17.3106C54.8428 17.3106 53.3196 16.7634 52.1513 15.6691C51.0126 14.5599 50.4433 13.1698 50.4433 11.4987C50.4433 9.81288 50.9978 8.40799 52.107 7.28408C53.2309 6.16017 54.6432 5.59821 56.3438 5.59821C58.0297 5.59821 59.4124 6.15277 60.4919 7.2619C61.5863 8.35623 62.1334 9.73894 62.1334 11.41C62.1334 11.8685 62.0743 12.3491 61.956 12.8519ZM54.5249 10.2122H58.2515C58.0149 9.32487 57.416 8.88122 56.4547 8.88122C55.4935 8.88122 54.8502 9.32487 54.5249 10.2122ZM68.1132 5.90877V8.06046C68.3202 7.32105 68.7195 6.74431 69.311 6.33023C69.9173 5.90137 70.6272 5.68694 71.4405 5.68694V10.1234C70.5532 10.0051 69.7769 10.1826 69.1114 10.6558C68.4459 11.129 68.1132 11.8685 68.1132 12.8741V17H64.0094V5.90877H68.1132ZM85.9888 6.90698V5.90877H90.0925V17H85.9888V16.0018C85.2789 16.8743 84.2881 17.3106 83.0163 17.3106C81.5227 17.3106 80.3027 16.756 79.3562 15.6469C78.4098 14.5525 77.9365 13.155 77.9365 11.4544C77.9365 9.75373 78.4098 8.35623 79.3562 7.2619C80.3027 6.15277 81.5227 5.59821 83.0163 5.59821C84.2881 5.59821 85.2789 6.03447 85.9888 6.90698ZM82.5727 12.9406C82.9572 13.3399 83.4378 13.5395 84.0145 13.5395C84.6061 13.5395 85.0793 13.3399 85.4342 12.9406C85.8039 12.5413 85.9888 12.0459 85.9888 11.4544C85.9888 10.8629 85.8039 10.3674 85.4342 9.96816C85.0793 9.56887 84.6061 9.36923 84.0145 9.36923C83.4378 9.36923 82.9572 9.56887 82.5727 9.96816C82.2178 10.3674 82.0403 10.8629 82.0403 11.4544C82.0403 12.0459 82.2178 12.5413 82.5727 12.9406ZM96.5132 9.16959C96.5132 9.37662 96.698 9.5319 97.0677 9.63542C97.4522 9.73894 97.918 9.84246 98.4652 9.94597C99.0124 10.0495 99.5595 10.2048 100.107 10.4118C100.654 10.6041 101.112 10.959 101.482 11.4766C101.867 11.9942 102.059 12.6596 102.059 13.473C102.059 14.168 101.903 14.7891 101.593 15.3363C101.282 15.8687 100.861 16.268 100.329 16.5342C99.3081 17.0518 98.2212 17.3106 97.0677 17.3106C94.391 17.3106 92.6608 16.4306 91.877 14.6708L95.4484 13.0737C95.7442 13.8279 96.2691 14.205 97.0233 14.205C97.5261 14.205 97.7776 14.0423 97.7776 13.717C97.7776 13.5543 97.6297 13.4138 97.3339 13.2955C97.0381 13.1772 96.5575 13.0441 95.892 12.8962C93.5703 12.3787 92.4168 11.2178 92.4316 9.4136C92.4316 8.20095 92.89 7.2619 93.8069 6.59642C94.7386 5.93095 95.8107 5.59821 97.0233 5.59821C99.4634 5.59821 101.068 6.53727 101.837 8.41538L98.443 9.63542C98.1768 9.01431 97.7628 8.70376 97.2008 8.70376C96.7424 8.70376 96.5132 8.85903 96.5132 9.16959ZM122.147 5.59821C123.448 5.59821 124.454 6.00489 125.163 6.81825C125.888 7.61682 126.25 8.76291 126.25 10.2565V17H122.147V10.8111C122.147 9.96816 121.769 9.54669 121.015 9.54669C120.143 9.54669 119.706 10.0939 119.706 11.1882V17H115.603V10.8111C115.603 9.96816 115.226 9.54669 114.471 9.54669C113.599 9.54669 113.163 10.0939 113.163 11.1882V17H109.059V5.90877H113.163V6.95134C113.887 6.04925 114.893 5.59821 116.179 5.59821C117.451 5.59821 118.376 6.05665 118.952 6.97352C119.751 6.05665 120.816 5.59821 122.147 5.59821ZM135.447 11.6097V5.90877H139.551V17H135.447V15.9131C134.767 16.8447 133.776 17.3106 132.475 17.3106C131.233 17.3106 130.249 16.8817 129.525 16.024C128.815 15.1662 128.46 13.9314 128.46 12.3195V5.90877H132.564V11.8758C132.564 12.8667 133.022 13.3621 133.939 13.3621C134.427 13.3621 134.797 13.2068 135.048 12.8962C135.314 12.5857 135.447 12.1568 135.447 11.6097ZM147.387 17.3106C145.686 17.3106 144.274 16.756 143.15 15.6469C142.026 14.523 141.464 13.1255 141.464 11.4544C141.464 9.7833 142.026 8.3932 143.15 7.28408C144.274 6.16017 145.686 5.59821 147.387 5.59821C148.481 5.59821 149.479 5.8644 150.382 6.39678C151.298 6.91437 152.001 7.61682 152.489 8.50411L149.028 10.4784C148.659 9.85724 148.112 9.54669 147.387 9.54669C146.869 9.54669 146.433 9.73154 146.078 10.1013C145.738 10.4562 145.568 10.9072 145.568 11.4544C145.568 12.0016 145.738 12.46 146.078 12.8297C146.433 13.1846 146.869 13.3621 147.387 13.3621C148.156 13.3621 148.703 13.0441 149.028 12.4082L152.489 14.4047C152.001 15.3067 151.298 16.0166 150.382 16.5342C149.479 17.0518 148.481 17.3106 147.387 17.3106ZM161.24 5.59821C162.482 5.59821 163.458 6.02707 164.168 6.88479C164.893 7.74252 165.255 8.97734 165.255 10.5893V17H161.151V11.0329C161.151 10.0421 160.693 9.54669 159.776 9.54669C159.288 9.54669 158.911 9.70197 158.645 10.0125C158.393 10.3231 158.268 10.7519 158.268 11.2991V17H154.164V1.47227H158.268V6.99571C158.963 6.06404 159.953 5.59821 161.24 5.59821ZM180.259 6.90698V5.90877H184.363V17H180.259V16.0018C179.549 16.8743 178.558 17.3106 177.287 17.3106C175.793 17.3106 174.573 16.756 173.627 15.6469C172.68 14.5525 172.207 13.155 172.207 11.4544C172.207 9.75373 172.68 8.35623 173.627 7.2619C174.573 6.15277 175.793 5.59821 177.287 5.59821C178.558 5.59821 179.549 6.03447 180.259 6.90698ZM176.843 12.9406C177.227 13.3399 177.708 13.5395 178.285 13.5395C178.876 13.5395 179.35 13.3399 179.705 12.9406C180.074 12.5413 180.259 12.0459 180.259 11.4544C180.259 10.8629 180.074 10.3674 179.705 9.96816C179.35 9.56887 178.876 9.36923 178.285 9.36923C177.708 9.36923 177.227 9.56887 176.843 9.96816C176.488 10.3674 176.311 10.8629 176.311 11.4544C176.311 12.0459 176.488 12.5413 176.843 12.9406ZM190.783 9.16959C190.783 9.37662 190.968 9.5319 191.338 9.63542C191.722 9.73894 192.188 9.84246 192.735 9.94597C193.283 10.0495 193.83 10.2048 194.377 10.4118C194.924 10.6041 195.383 10.959 195.752 11.4766C196.137 11.9942 196.329 12.6596 196.329 13.473C196.329 14.168 196.174 14.7891 195.863 15.3363C195.553 15.8687 195.131 16.268 194.599 16.5342C193.578 17.0518 192.491 17.3106 191.338 17.3106C188.661 17.3106 186.931 16.4306 186.147 14.6708L189.719 13.0737C190.014 13.8279 190.539 14.205 191.294 14.205C191.796 14.205 192.048 14.0423 192.048 13.717C192.048 13.5543 191.9 13.4138 191.604 13.2955C191.308 13.1772 190.828 13.0441 190.162 12.8962C187.841 12.3787 186.687 11.2178 186.702 9.4136C186.702 8.20095 187.16 7.2619 188.077 6.59642C189.009 5.93095 190.081 5.59821 191.294 5.59821C193.734 5.59821 195.338 6.53727 196.107 8.41538L192.713 9.63542C192.447 9.01431 192.033 8.70376 191.471 8.70376C191.013 8.70376 190.783 8.85903 190.783 9.16959ZM209.074 11.8315L210.428 5.90877H215.086L211.315 16.9778C210.768 18.5897 209.917 19.7506 208.764 20.4605C207.61 21.1851 206.087 21.5104 204.194 21.4365V17.5546C204.963 17.5546 205.54 17.4954 205.925 17.3771C206.324 17.2736 206.642 17.0739 206.878 16.7782L202.442 5.90877H207.1L209.074 11.8315ZM221.561 17.3106C219.905 17.3106 218.493 16.7486 217.325 15.6247C216.171 14.5008 215.594 13.1107 215.594 11.4544C215.594 9.79809 216.171 8.40799 217.325 7.28408C218.463 6.16017 219.876 5.59821 221.561 5.59821C223.247 5.59821 224.66 6.16017 225.798 7.28408C226.952 8.42278 227.529 9.81288 227.529 11.4544C227.529 13.1107 226.952 14.5008 225.798 15.6247C224.66 16.7486 223.247 17.3106 221.561 17.3106ZM220.208 12.8741C220.563 13.229 221.014 13.4064 221.561 13.4064C222.109 13.4064 222.552 13.229 222.892 12.8741C223.247 12.4896 223.425 12.0163 223.425 11.4544C223.425 10.8776 223.247 10.4118 222.892 10.0569C222.567 9.68718 222.123 9.50233 221.561 9.50233C221.014 9.50233 220.563 9.68718 220.208 10.0569C219.868 10.4266 219.698 10.8924 219.698 11.4544C219.698 12.0163 219.868 12.4896 220.208 12.8741ZM236.362 11.6097V5.90877H240.466V17H236.362V15.9131C235.682 16.8447 234.691 17.3106 233.39 17.3106C232.147 17.3106 231.164 16.8817 230.439 16.024C229.729 15.1662 229.375 13.9314 229.375 12.3195V5.90877H233.478V11.8758C233.478 12.8667 233.937 13.3621 234.854 13.3621C235.342 13.3621 235.711 13.2068 235.963 12.8962C236.229 12.5857 236.362 12.1568 236.362 11.6097ZM253.451 17.3106C251.751 17.3106 250.338 16.756 249.214 15.6469C248.09 14.523 247.528 13.1255 247.528 11.4544C247.528 9.7833 248.09 8.3932 249.214 7.28408C250.338 6.16017 251.751 5.59821 253.451 5.59821C254.546 5.59821 255.544 5.8644 256.446 6.39678C257.363 6.91437 258.065 7.61682 258.553 8.50411L255.093 10.4784C254.723 9.85724 254.176 9.54669 253.451 9.54669C252.934 9.54669 252.497 9.73154 252.142 10.1013C251.802 10.4562 251.632 10.9072 251.632 11.4544C251.632 12.0016 251.802 12.46 252.142 12.8297C252.497 13.1846 252.934 13.3621 253.451 13.3621C254.22 13.3621 254.767 13.0441 255.093 12.4082L258.553 14.4047C258.065 15.3067 257.363 16.0166 256.446 16.5342C255.544 17.0518 254.546 17.3106 253.451 17.3106ZM267.576 6.90698V5.90877H271.679V17H267.576V16.0018C266.866 16.8743 265.875 17.3106 264.603 17.3106C263.11 17.3106 261.89 16.756 260.943 15.6469C259.997 14.5525 259.523 13.155 259.523 11.4544C259.523 9.75373 259.997 8.35623 260.943 7.2619C261.89 6.15277 263.11 5.59821 264.603 5.59821C265.875 5.59821 266.866 6.03447 267.576 6.90698ZM264.16 12.9406C264.544 13.3399 265.025 13.5395 265.601 13.5395C266.193 13.5395 266.666 13.3399 267.021 12.9406C267.391 12.5413 267.576 12.0459 267.576 11.4544C267.576 10.8629 267.391 10.3674 267.021 9.96816C266.666 9.56887 266.193 9.36923 265.601 9.36923C265.025 9.36923 264.544 9.56887 264.16 9.96816C263.805 10.3674 263.627 10.8629 263.627 11.4544C263.627 12.0459 263.805 12.5413 264.16 12.9406ZM281.206 5.59821C282.448 5.59821 283.424 6.02707 284.134 6.88479C284.858 7.74252 285.221 8.97734 285.221 10.5893V17H281.117V11.0329C281.117 10.0421 280.658 9.54669 279.742 9.54669C279.254 9.54669 278.876 9.70197 278.61 10.0125C278.359 10.3231 278.233 10.7519 278.233 11.2991V17H274.129V5.90877H278.233V6.99571C278.928 6.06404 279.919 5.59821 281.206 5.59821ZM300.225 6.90698V5.90877H304.328V17H300.225V16.0018C299.515 16.8743 298.524 17.3106 297.252 17.3106C295.759 17.3106 294.539 16.756 293.592 15.6469C292.646 14.5525 292.172 13.155 292.172 11.4544C292.172 9.75373 292.646 8.35623 293.592 7.2619C294.539 6.15277 295.759 5.59821 297.252 5.59821C298.524 5.59821 299.515 6.03447 300.225 6.90698ZM296.809 12.9406C297.193 13.3399 297.674 13.5395 298.25 13.5395C298.842 13.5395 299.315 13.3399 299.67 12.9406C300.04 12.5413 300.225 12.0459 300.225 11.4544C300.225 10.8629 300.04 10.3674 299.67 9.96816C299.315 9.56887 298.842 9.36923 298.25 9.36923C297.674 9.36923 297.193 9.56887 296.809 9.96816C296.454 10.3674 296.276 10.8629 296.276 11.4544C296.276 12.0459 296.454 12.5413 296.809 12.9406ZM313.855 5.59821C315.097 5.59821 316.073 6.02707 316.783 6.88479C317.507 7.74252 317.87 8.97734 317.87 10.5893V17H313.766V11.0329C313.766 10.0421 313.307 9.54669 312.391 9.54669C311.903 9.54669 311.525 9.70197 311.259 10.0125C311.008 10.3231 310.882 10.7519 310.882 11.2991V17H306.778V5.90877H310.882V6.99571C311.577 6.06404 312.568 5.59821 313.855 5.59821ZM327.724 6.90698V1.47227H331.828V17H327.724V16.0018C327.014 16.8743 326.023 17.3106 324.752 17.3106C323.258 17.3106 322.038 16.756 321.091 15.6469C320.145 14.5525 319.672 13.155 319.672 11.4544C319.672 9.75373 320.145 8.35623 321.091 7.2619C322.038 6.15277 323.258 5.59821 324.752 5.59821C326.023 5.59821 327.014 6.03447 327.724 6.90698ZM324.308 12.9406C324.692 13.3399 325.173 13.5395 325.75 13.5395C326.341 13.5395 326.814 13.3399 327.169 12.9406C327.539 12.5413 327.724 12.0459 327.724 11.4544C327.724 10.8629 327.539 10.3674 327.169 9.96816C326.814 9.56887 326.341 9.36923 325.75 9.36923C325.173 9.36923 324.692 9.56887 324.308 9.96816C323.953 10.3674 323.775 10.8629 323.775 11.4544C323.775 12.0459 323.953 12.5413 324.308 12.9406ZM350.852 12.0533L352.139 5.90877H356.464L353.248 17H349.078L347.702 11.7871L346.327 17H342.157L338.94 5.90877H343.266L344.552 12.0533L346.15 5.90877H349.255L350.852 12.0533ZM362.101 4.40036C361.657 4.84401 361.132 5.06583 360.526 5.06583C359.919 5.06583 359.379 4.84401 358.906 4.40036C358.463 3.92713 358.241 3.39475 358.241 2.80322C358.241 2.1969 358.463 1.67191 358.906 1.22826C359.365 0.769826 359.904 0.540607 360.526 0.540607C361.132 0.540607 361.657 0.769826 362.101 1.22826C362.559 1.67191 362.788 2.1969 362.788 2.80322C362.788 3.40954 362.559 3.94192 362.101 4.40036ZM362.566 17H358.463V5.90877H362.566V17ZM372.075 5.59821C373.317 5.59821 374.293 6.02707 375.003 6.88479C375.728 7.74252 376.09 8.97734 376.09 10.5893V17H371.986V11.0329C371.986 10.0421 371.528 9.54669 370.611 9.54669C370.123 9.54669 369.746 9.70197 369.48 10.0125C369.228 10.3231 369.102 10.7519 369.102 11.2991V17H364.999V5.90877H369.102V6.99571C369.797 6.06404 370.788 5.59821 372.075 5.59821ZM391.094 6.90698V1.47227H395.198V17H391.094V16.0018C390.384 16.8743 389.393 17.3106 388.121 17.3106C386.628 17.3106 385.408 16.756 384.461 15.6469C383.515 14.5525 383.042 13.155 383.042 11.4544C383.042 9.75373 383.515 8.35623 384.461 7.2619C385.408 6.15277 386.628 5.59821 388.121 5.59821C389.393 5.59821 390.384 6.03447 391.094 6.90698ZM387.678 12.9406C388.062 13.3399 388.543 13.5395 389.12 13.5395C389.711 13.5395 390.184 13.3399 390.539 12.9406C390.909 12.5413 391.094 12.0459 391.094 11.4544C391.094 10.8629 390.909 10.3674 390.539 9.96816C390.184 9.56887 389.711 9.36923 389.12 9.36923C388.543 9.36923 388.062 9.56887 387.678 9.96816C387.323 10.3674 387.145 10.8629 387.145 11.4544C387.145 12.0459 387.323 12.5413 387.678 12.9406ZM405.169 6.90698V5.90877H409.272V17H405.169V16.0018C404.459 16.8743 403.468 17.3106 402.196 17.3106C400.702 17.3106 399.482 16.756 398.536 15.6469C397.589 14.5525 397.116 13.155 397.116 11.4544C397.116 9.75373 397.589 8.35623 398.536 7.2619C399.482 6.15277 400.702 5.59821 402.196 5.59821C403.468 5.59821 404.459 6.03447 405.169 6.90698ZM401.752 12.9406C402.137 13.3399 402.618 13.5395 403.194 13.5395C403.786 13.5395 404.259 13.3399 404.614 12.9406C404.984 12.5413 405.169 12.0459 405.169 11.4544C405.169 10.8629 404.984 10.3674 404.614 9.96816C404.259 9.56887 403.786 9.36923 403.194 9.36923C402.618 9.36923 402.137 9.56887 401.752 9.96816C401.397 10.3674 401.22 10.8629 401.22 11.4544C401.22 12.0459 401.397 12.5413 401.752 12.9406ZM415.36 4.40036C414.916 4.84401 414.391 5.06583 413.785 5.06583C413.179 5.06583 412.639 4.84401 412.166 4.40036C411.722 3.92713 411.5 3.39475 411.5 2.80322C411.5 2.1969 411.722 1.67191 412.166 1.22826C412.624 0.769826 413.164 0.540607 413.785 0.540607C414.391 0.540607 414.916 0.769826 415.36 1.22826C415.819 1.67191 416.048 2.1969 416.048 2.80322C416.048 3.40954 415.819 3.94192 415.36 4.40036ZM415.826 17H411.722V5.90877H415.826V17ZM422.362 17H418.258V0.806798H422.362V17ZM430.54 11.8315L431.893 5.90877H436.551L432.78 16.9778C432.233 18.5897 431.382 19.7506 430.229 20.4605C429.075 21.1851 427.552 21.5104 425.659 21.4365V17.5546C426.428 17.5546 427.005 17.4954 427.39 17.3771C427.789 17.2736 428.107 17.0739 428.343 16.7782L423.907 5.90877H428.565L430.54 11.8315ZM450.293 5.59821C451.535 5.59821 452.511 6.02707 453.221 6.88479C453.946 7.74252 454.308 8.97734 454.308 10.5893V17H450.204V11.0329C450.204 10.0421 449.746 9.54669 448.829 9.54669C448.341 9.54669 447.964 9.70197 447.698 10.0125C447.446 10.3231 447.321 10.7519 447.321 11.2991V17H443.217V1.47227H447.321V6.99571C448.016 6.06404 449.007 5.59821 450.293 5.59821ZM463.518 11.6097V5.90877H467.622V17H463.518V15.9131C462.838 16.8447 461.847 17.3106 460.546 17.3106C459.304 17.3106 458.32 16.8817 457.596 16.024C456.886 15.1662 456.531 13.9314 456.531 12.3195V5.90877H460.635V11.8758C460.635 12.8667 461.093 13.3621 462.01 13.3621C462.498 13.3621 462.868 13.2068 463.119 12.8962C463.385 12.5857 463.518 12.1568 463.518 11.6097ZM477.743 6.90698V5.90877H481.846V16.6673C481.846 17.8355 481.551 18.819 480.959 19.6175C480.382 20.4161 479.672 20.9781 478.83 21.3034C477.987 21.6287 477.055 21.7914 476.035 21.7914C474.733 21.7914 473.58 21.5548 472.574 21.0816C471.568 20.6083 470.822 19.9429 470.334 19.0852L473.661 17.1553C474.193 17.8799 474.911 18.2422 475.813 18.2422C476.36 18.2422 476.818 18.1017 477.188 17.8208C477.558 17.5546 477.743 17.1701 477.743 16.6673V15.5581C477.033 16.4306 476.042 16.8669 474.77 16.8669C473.277 16.8669 472.056 16.3271 471.11 15.2476C470.164 14.168 469.69 12.8297 469.69 11.2326C469.69 9.63542 470.164 8.29708 471.11 7.21753C472.056 6.13798 473.277 5.59821 474.77 5.59821C476.042 5.59821 477.033 6.03447 477.743 6.90698ZM474.327 12.6522C474.711 13.0367 475.192 13.229 475.768 13.229C476.36 13.229 476.833 13.0367 477.188 12.6522C477.558 12.2677 477.743 11.7945 477.743 11.2326C477.743 10.6706 477.558 10.1974 477.188 9.81288C476.833 9.42838 476.36 9.23614 475.768 9.23614C475.192 9.23614 474.711 9.42838 474.327 9.81288C473.972 10.1974 473.794 10.6706 473.794 11.2326C473.794 11.7945 473.972 12.2677 474.327 12.6522ZM495.274 12.8519H487.909C488.264 13.5913 489.019 13.961 490.172 13.961C490.838 13.961 491.466 13.7244 492.058 13.2512L494.742 15.5138C493.633 16.7116 492.065 17.3106 490.039 17.3106C488.161 17.3106 486.638 16.7634 485.469 15.6691C484.331 14.5599 483.761 13.1698 483.761 11.4987C483.761 9.81288 484.316 8.40799 485.425 7.28408C486.549 6.16017 487.961 5.59821 489.662 5.59821C491.348 5.59821 492.73 6.15277 493.81 7.2619C494.904 8.35623 495.452 9.73894 495.452 11.41C495.452 11.8685 495.392 12.3491 495.274 12.8519ZM487.843 10.2122H491.57C491.333 9.32487 490.734 8.88122 489.773 8.88122C488.812 8.88122 488.168 9.32487 487.843 10.2122ZM509.51 5.59821C511.004 5.59821 512.224 6.15277 513.17 7.2619C514.117 8.35623 514.59 9.75373 514.59 11.4544C514.59 13.155 514.117 14.5525 513.17 15.6469C512.224 16.756 511.004 17.3106 509.51 17.3106C508.238 17.3106 507.247 16.8743 506.538 16.0018V21.4365H502.434V5.90877H506.538V6.90698C507.247 6.03447 508.238 5.59821 509.51 5.59821ZM507.07 12.9406C507.44 13.3399 507.92 13.5395 508.512 13.5395C509.103 13.5395 509.577 13.3399 509.931 12.9406C510.301 12.5413 510.486 12.0459 510.486 11.4544C510.486 10.8629 510.301 10.3674 509.931 9.96816C509.577 9.56887 509.103 9.36923 508.512 9.36923C507.92 9.36923 507.44 9.56887 507.07 9.96816C506.715 10.3674 506.538 10.8629 506.538 11.4544C506.538 12.0459 506.715 12.5413 507.07 12.9406ZM520.655 5.90877V8.06046C520.863 7.32105 521.262 6.74431 521.853 6.33023C522.46 5.90137 523.169 5.68694 523.983 5.68694V10.1234C523.096 10.0051 522.319 10.1826 521.654 10.6558C520.988 11.129 520.655 11.8685 520.655 12.8741V17H516.552V5.90877H520.655ZM529.498 4.40036C529.055 4.84401 528.53 5.06583 527.924 5.06583C527.317 5.06583 526.777 4.84401 526.304 4.40036C525.861 3.92713 525.639 3.39475 525.639 2.80322C525.639 2.1969 525.861 1.67191 526.304 1.22826C526.763 0.769826 527.302 0.540607 527.924 0.540607C528.53 0.540607 529.055 0.769826 529.498 1.22826C529.957 1.67191 530.186 2.1969 530.186 2.80322C530.186 3.40954 529.957 3.94192 529.498 4.40036ZM529.964 17H525.861V5.90877H529.964V17ZM541.491 8.79249L537.853 13.229H541.713V17H532.397V14.1163L536.035 9.67979H532.618V5.90877H541.491V8.79249ZM554.398 12.8519H547.034C547.388 13.5913 548.143 13.961 549.296 13.961C549.962 13.961 550.59 13.7244 551.182 13.2512L553.866 15.5138C552.757 16.7116 551.189 17.3106 549.163 17.3106C547.285 17.3106 545.762 16.7634 544.593 15.6691C543.455 14.5599 542.885 13.1698 542.885 11.4987C542.885 9.81288 543.44 8.40799 544.549 7.28408C545.673 6.16017 547.085 5.59821 548.786 5.59821C550.472 5.59821 551.855 6.15277 552.934 7.2619C554.028 8.35623 554.576 9.73894 554.576 11.41C554.576 11.8685 554.516 12.3491 554.398 12.8519ZM546.967 10.2122H550.694C550.457 9.32487 549.858 8.88122 548.897 8.88122C547.936 8.88122 547.292 9.32487 546.967 10.2122ZM559.989 9.16959C559.989 9.37662 560.174 9.5319 560.544 9.63542C560.928 9.73894 561.394 9.84246 561.941 9.94597C562.488 10.0495 563.035 10.2048 563.583 10.4118C564.13 10.6041 564.588 10.959 564.958 11.4766C565.342 11.9942 565.535 12.6596 565.535 13.473C565.535 14.168 565.379 14.7891 565.069 15.3363C564.758 15.8687 564.337 16.268 563.804 16.5342C562.784 17.0518 561.697 17.3106 560.544 17.3106C557.867 17.3106 556.137 16.4306 555.353 14.6708L558.924 13.0737C559.22 13.8279 559.745 14.205 560.499 14.205C561.002 14.205 561.253 14.0423 561.253 13.717C561.253 13.5543 561.105 13.4138 560.81 13.2955C560.514 13.1772 560.033 13.0441 559.368 12.8962C557.046 12.3787 555.893 11.2178 555.907 9.4136C555.907 8.20095 556.366 7.2619 557.283 6.59642C558.214 5.93095 559.286 5.59821 560.499 5.59821C562.939 5.59821 564.544 6.53727 565.313 8.41538L561.919 9.63542C561.653 9.01431 561.239 8.70376 560.677 8.70376C560.218 8.70376 559.989 8.85903 559.989 9.16959ZM571.754 11.2326H568.205L567.428 5.90877V1.47227H572.53V5.90877L571.754 11.2326ZM571.776 16.6007C571.288 17.0887 570.689 17.3327 569.979 17.3327C569.27 17.3327 568.663 17.0887 568.16 16.6007C567.672 16.0979 567.428 15.4916 567.428 14.7818C567.428 14.0719 567.672 13.473 568.16 12.985C568.663 12.4822 569.27 12.2308 569.979 12.2308C570.689 12.2308 571.288 12.4822 571.776 12.985C572.279 13.473 572.53 14.0719 572.53 14.7818C572.53 15.4916 572.279 16.0979 571.776 16.6007Z" fill="#47006C" />
</svg>
