<svg version="1.2" baseProfile="tiny-ps" xmlns="http://www.w3.org/2000/svg" viewBox="0 0 24 24" width="24" height="24">
	<style>
		tspan { white-space:pre }.successIconElementFill { fill: #3fc062 }
	</style>
	<g>
		<path class="successIconElementFill" d="M10.79 16.31C10.68 16.27 10.59 16.2 10.5 16.12L7 12.62C6.84 12.46 6.75 12.23 6.75 12C6.75 11.77 6.84 11.54 7 11.38C7.17 11.21 7.39 11.12 7.62 11.12C7.86 11.12 8.08 11.21 8.25 11.38L11.12 14.27L16.63 8.75C16.79 8.59 17.02 8.5 17.25 8.5C17.48 8.5 17.71 8.59 17.87 8.75C18.04 8.92 18.13 9.14 18.13 9.38C18.13 9.61 18.04 9.83 17.87 10L11.75 16.12C11.66 16.2 11.57 16.27 11.46 16.31C11.35 16.35 11.24 16.38 11.12 16.38C11.01 16.38 10.9 16.35 10.79 16.31Z" />
		<path fill-rule="evenodd" class="successIconElementFill" d="M5.68 21.46C3.81 20.21 2.35 18.43 1.49 16.35C0.63 14.27 0.4 11.99 0.84 9.78C1.28 7.57 2.37 5.55 3.96 3.96C5.55 2.37 7.57 1.28 9.78 0.84C11.99 0.4 14.27 0.63 16.35 1.49C18.43 2.35 20.21 3.81 21.46 5.68C22.71 7.55 23.38 9.75 23.38 12C23.38 15.02 22.18 17.91 20.04 20.04C17.91 22.18 15.02 23.38 12 23.38C9.75 23.38 7.55 22.71 5.68 21.46ZM6.65 4C5.07 5.05 3.84 6.56 3.11 8.32C2.38 10.08 2.19 12.01 2.56 13.88C2.93 15.74 3.85 17.46 5.19 18.81C6.54 20.15 8.26 21.07 10.12 21.44C11.99 21.81 13.92 21.62 15.68 20.89C17.44 20.16 18.95 18.93 20 17.35C21.06 15.76 21.63 13.9 21.63 12C21.63 9.45 20.61 7 18.81 5.19C17 3.39 14.55 2.38 12 2.38C10.1 2.38 8.24 2.94 6.65 4Z" />
	</g>
</svg>
