<svg width="92" height="92" viewBox="0 0 92 92" fill="none" xmlns="http://www.w3.org/2000/svg">
  <path d="M31.9375 28.8125L16.3125 13.1875V8.5L8.5 0.6875V8.5H0.6875L8.5 16.3125H13.1875L28.8125 31.9375H31.9375V28.8125Z" fill="#8E7CBF" />
  <path d="M60.0625 63.1875L75.6875 78.8125V83.5L83.5 91.3125V83.5H91.3125L83.5 75.6875H78.8125L63.1875 60.0625H60.0625V63.1875Z" fill="#8E7CBF" />
  <path d="M37.1484 75.7657H15.05L11.7359 72.4517H0.6875L6.2125 77.9751L0.6875 83.5001H11.7359L15.05 80.186H37.1484L39.3578 77.9751L37.1484 75.7657Z" fill="#8E7CBF" />
  <path fill-rule="evenodd" clip-rule="evenodd" d="M46 85.0625C24.4264 85.0625 6.9375 67.5736 6.9375 46C6.9375 24.4264 24.4264 6.9375 46 6.9375C67.5736 6.9375 85.0625 24.4264 85.0625 46C85.0625 67.5736 67.5736 85.0625 46 85.0625Z" fill="#EEF0F5" />
  <path d="M64.8446 38.2295C65.8884 40.7013 66.4322 43.3554 66.4446 46.0386C66.4569 48.7217 65.9375 51.3808 64.9164 53.862C63.8953 56.3433 62.3927 58.5977 60.4954 60.495C58.5981 62.3923 56.3437 63.8949 53.8624 64.916C51.3811 65.9371 48.7221 66.4565 46.039 66.4442C43.3558 66.4319 40.7017 65.8881 38.2299 64.8442C35.7581 63.8003 33.5176 62.2771 31.6378 60.3624L18.3784 73.6218C25.7042 80.9476 35.6401 85.0632 46.0003 85.0632C56.3605 85.0632 66.2964 80.9476 73.6222 73.6218C80.948 66.296 85.0635 56.3601 85.0635 45.9999C85.0635 35.6397 80.948 25.7038 73.6222 18.3781L60.3628 31.6374C62.2775 33.5172 63.8007 35.7577 64.8446 38.2295Z" fill="#DAE1EA" />
  <path fill-rule="evenodd" clip-rule="evenodd" d="M46 75.6875C29.604 75.6875 16.3125 62.396 16.3125 46C16.3125 29.604 29.604 16.3125 46 16.3125C62.396 16.3125 75.6875 29.604 75.6875 46C75.6875 62.396 62.396 75.6875 46 75.6875Z" fill="#3B275B" />
  <path d="M55.3758 46C55.3758 48.4866 54.388 50.8714 52.6297 52.6297C50.8714 54.388 48.4866 55.3758 46 55.3758C43.5134 55.3758 41.1286 54.388 39.3703 52.6297L25.0078 66.9922C27.7625 69.7583 31.0357 71.954 34.64 73.4535C38.2443 74.953 42.1089 75.7269 46.0127 75.731C49.9165 75.735 53.7828 74.9691 57.3902 73.4771C60.9976 71.985 64.2753 69.7961 67.0357 67.0357C69.7961 64.2753 71.985 60.9976 73.4771 57.3902C74.9691 53.7828 75.735 49.9165 75.731 46.0127C75.7269 42.1089 74.953 38.2443 73.4535 34.64C71.954 31.0357 69.7583 27.7625 66.9922 25.0078L52.6297 39.3703C54.388 41.1286 55.3758 43.5134 55.3758 46Z" fill="#301B52" />
  <path fill-rule="evenodd" clip-rule="evenodd" d="M46 66.3125C34.7817 66.3125 25.6875 57.2183 25.6875 46C25.6875 34.7817 34.7817 25.6875 46 25.6875C57.2183 25.6875 66.3125 34.7817 66.3125 46C66.3125 57.2183 57.2183 66.3125 46 66.3125Z" fill="#EEF0F5" />
  <path d="M57.2841 62.8889C60.6242 60.6569 63.2276 57.4846 64.7649 53.7732C66.3022 50.0617 66.7044 45.9777 65.9208 42.0376C65.1371 38.0976 63.2027 34.4783 60.3622 31.6376L31.6372 60.3626C33.521 62.2519 35.7597 63.7501 38.2245 64.7712C40.6894 65.7923 43.3317 66.3162 45.9997 66.3126C50.017 66.3123 53.9439 65.1209 57.2841 62.8889Z" fill="#DAE1EA" />
  <path fill-rule="evenodd" clip-rule="evenodd" d="M46 55.375C40.8223 55.375 36.625 51.1777 36.625 46C36.625 40.8223 40.8223 36.625 46 36.625C51.1777 36.625 55.375 40.8223 55.375 46C55.375 51.1777 51.1777 55.375 46 55.375Z" fill="#3B275B" />
  <path d="M51.2089 53.7953C52.7508 52.7652 53.9526 51.3009 54.6622 49.5877C55.3719 47.8745 55.5576 45.9894 55.1957 44.1706C54.8339 42.3519 53.9408 40.6814 52.6295 39.3702L39.3701 52.6296C40.24 53.5012 41.2735 54.1923 42.4112 54.6635C43.5489 55.1346 44.7684 55.3764 45.9998 55.3749C47.8542 55.3751 49.6669 54.8254 51.2089 53.7953Z" fill="#301B52" />
  <path fill-rule="evenodd" clip-rule="evenodd" d="M46 49.125C44.2741 49.125 42.875 47.7259 42.875 46C42.875 44.2741 44.2741 42.875 46 42.875C47.7259 42.875 49.125 44.2741 49.125 46C49.125 47.7259 47.7259 49.125 46 49.125Z" fill="white" />
  <path d="M46 41.3125L67.875 19.4375V13.1875L78.8125 2.25V13.1875H89.75L78.8125 24.125H72.5625L50.6875 46H46V41.3125Z" fill="#9F8DD0" />
  <path d="M78.8128 24.1249H76.43C81.9406 31.7848 84.3661 41.2381 83.2242 50.6049C82.0822 59.9716 77.4564 68.5653 70.2668 74.6767C63.0773 80.7882 53.8508 83.9695 44.4224 83.5881C34.994 83.2066 26.0547 79.2902 19.3824 72.6179C12.7101 65.9456 8.79369 57.0062 8.4122 47.5779C8.03071 38.1495 11.2121 28.923 17.3235 21.7334C23.4349 14.5438 32.0287 9.91804 41.3954 8.77607C50.7621 7.63411 60.2155 10.0596 67.8753 15.5703V13.1874L68.7222 12.3406C60.3429 6.68119 50.1556 4.34691 40.1482 5.79322C30.1407 7.23953 21.0312 12.3627 14.5972 20.1629C8.16311 27.9631 4.86621 37.8808 5.34978 47.9807C5.83336 58.0805 10.0627 67.6378 17.2126 74.7877C24.3624 81.9375 33.9197 86.1669 44.0196 86.6505C54.1194 87.134 64.0371 83.8371 71.8374 77.4031C79.6376 70.9691 84.7607 61.8595 86.207 51.8521C87.6533 41.8446 85.3191 31.6573 79.6597 23.2781L78.8128 24.1249Z" fill="#301B52" />
</svg>