<svg width="133" height="28" viewBox="0 0 133 28" fill="none" xmlns="http://www.w3.org/2000/svg">
	<path d="M30.3995 5.22314V28.0002H0.807608C0.48702 28.0002 0.311964 27.6262 0.51732 27.3801L8.28793 18.0646C8.98982 17.2231 8.98981 16.0002 8.28793 15.1588L0.517319 5.84331C0.311964 5.59713 0.487019 5.22314 0.807607 5.22314H30.3995Z" fill="#4F5768" />
	<path fill-rule="evenodd" clip-rule="evenodd" d="M30.4015 28.0001V23.2876H14.2517L30.4015 28.0001Z" fill="#3E475A" />
	<path d="M102.6 5.22302V28.0001L132.192 28.0001C132.513 28.0001 132.688 27.6261 132.483 27.3799L124.712 18.0644C124.01 17.223 124.01 16.0001 124.712 15.1587L132.483 5.84319C132.688 5.59701 132.513 5.22302 132.192 5.22302L102.6 5.22302Z" fill="#4F5768" />
	<path opacity="0.6" fill-rule="evenodd" clip-rule="evenodd" d="M102.601 27.9992V23.2867L118.751 23.2867L102.601 27.9992Z" fill="#333D50" />
	<path d="M117.236 0.509888C118.071 0.509888 118.748 1.18687 118.748 2.02198V23.287H14.2493V2.02198C14.2493 1.18687 14.9263 0.509888 15.7614 0.509888H117.236Z" fill="#566074" />
</svg>
