<svg width="19" height="20" viewBox="0 0 19 20" fill="none" xmlns="http://www.w3.org/2000/svg">
<path d="M5.98354 11.715C6.429 12.0443 6.71682 12.6133 6.71682 13.1645V17.6562H12.2832V13.2401C12.2832 12.6479 12.5846 12.0391 13.0511 11.6892C14.6616 10.481 15.6231 8.5207 15.6231 6.44531C15.6231 2.89223 12.8929 0 9.50002 0C6.00695 0 3.35534 2.97809 3.37709 6.4882C3.39004 8.56398 4.36442 10.5179 5.98354 11.715ZM11.1699 16.4844H7.8301V15.3125H11.1699V16.4844ZM9.50002 1.17188C12.2727 1.17188 14.5098 3.53535 14.5098 6.44531C14.5098 8.14258 13.723 9.74617 12.4049 10.7349C11.6432 11.3064 11.1699 12.2663 11.1699 13.2401V14.1406H7.8301V13.1646C7.8301 12.2292 7.36772 11.3063 6.62338 10.756C5.29831 9.77637 4.50091 8.17809 4.49037 6.48055C4.47248 3.60492 6.63926 1.17188 9.50002 1.17188Z" fill="black"/>
<path d="M8.94339 12.9685H10.0567V10.2034L11.0069 9.20314L10.2197 8.37451L9.50003 9.13209L8.78037 8.37451L7.99316 9.20314L8.94339 10.2034V12.9685Z" fill="black"/>
<path d="M7.83008 18.8281H11.1699V20H7.83008V18.8281Z" fill="black"/>
</svg>
