<svg width="436" height="131" viewBox="0 0 436 131" fill="none" xmlns="http://www.w3.org/2000/svg">
	<path d="M31.3868 57H15.7331L0 1.37777H17.4813L25.03 31.97L34.009 1.37777H46.2459L55.2249 31.97L62.7737 1.37777H80.2549L64.5218 57H48.8681L40.1275 27.2818L31.3868 57ZM132.677 57H115.593L113.686 49.8486H97.635L95.728 57H78.644L96.3636 1.37777H114.957L132.677 57ZM105.661 20.0509L101.052 37.1349H110.269L105.661 20.0509ZM163.33 24.1829H191.618V30.7781C191.618 38.7771 189.049 45.3458 183.91 50.4843C178.825 55.6757 172.124 58.2714 163.807 58.2714C155.119 58.2714 148.021 55.5167 142.511 50.0075C137.002 44.3923 134.248 37.4792 134.248 29.2683C134.248 21.0574 137.002 14.1444 142.511 8.5292C147.968 2.914 154.854 0.106404 163.171 0.106404C168.31 0.106404 173.024 1.27182 177.315 3.60266C181.659 5.88052 185.102 9.03245 187.645 13.0584L174.137 20.7661C171.912 17.3758 168.363 15.6806 163.489 15.6806C159.516 15.6806 156.285 16.952 153.795 19.4947C151.358 21.9845 150.14 25.2688 150.14 29.3478C150.14 33.2149 151.279 36.5522 153.556 39.3598C155.887 42.1674 159.41 43.5712 164.125 43.5712C169.634 43.5712 173.316 41.6112 175.17 37.6911H163.33V24.1829ZM215.89 36.1814V42.3793H236.55V57H199.998V1.37777H236.152V15.8396H215.89V21.8785H234.166V36.1814H215.89ZM290.983 56.9205H273.979L265.158 39.4393H261.185V56.9205H245.293V1.29831H267.542C273.581 1.29831 278.614 3.09941 282.64 6.70161C286.613 10.2508 288.599 14.9655 288.599 20.8456C288.599 24.1299 287.831 27.0964 286.295 29.7451C284.812 32.3938 282.719 34.5392 280.018 36.1814L290.983 56.9205ZM267.224 15.919H261.185V26.2489H267.224C268.92 26.3018 270.244 25.878 271.197 24.9775C272.204 24.0769 272.707 22.8056 272.707 21.1634C272.707 19.5212 272.204 18.2498 271.197 17.3493C270.244 16.3958 268.92 15.919 267.224 15.919ZM297.34 57V1.37777H313.232V57H297.34ZM353.741 26.8051V1.37777H369.633V57H356.92L339.438 31.5727V57H323.546V1.37777H336.26L353.741 26.8051ZM407.034 24.1829H435.322V30.7781C435.322 38.7771 432.753 45.3458 427.615 50.4843C422.529 55.6757 415.828 58.2714 407.511 58.2714C398.823 58.2714 391.725 55.5167 386.216 50.0075C380.706 44.3923 377.952 37.4792 377.952 29.2683C377.952 21.0574 380.706 14.1444 386.216 8.5292C391.672 2.914 398.559 0.106404 406.875 0.106404C412.014 0.106404 416.728 1.27182 421.019 3.60266C425.363 5.88052 428.806 9.03245 431.349 13.0584L417.841 20.7661C415.616 17.3758 412.067 15.6806 407.193 15.6806C403.22 15.6806 399.989 16.952 397.499 19.4947C395.062 21.9845 393.844 25.2688 393.844 29.3478C393.844 33.2149 394.983 36.5522 397.261 39.3598C399.592 42.1674 403.114 43.5712 407.829 43.5712C413.338 43.5712 417.02 41.6112 418.874 37.6911H407.034V24.1829ZM49.6627 128.921H32.6582L23.8381 111.439H19.8651V128.921H3.97302V73.2983H26.2219C32.2609 73.2983 37.2934 75.0994 41.3194 78.7016C45.2924 82.2508 47.2789 86.9655 47.2789 92.8456C47.2789 96.1299 46.5108 99.0964 44.9745 101.745C43.4913 104.394 41.3988 106.539 38.6972 108.181L49.6627 128.921ZM25.9041 87.919H19.8651V98.2489H25.9041C27.5992 98.3018 28.9236 97.878 29.8771 96.9775C30.8836 96.0769 31.3868 94.8056 31.3868 93.1634C31.3868 91.5212 30.8836 90.2498 29.8771 89.3493C28.9236 88.3958 27.5992 87.919 25.9041 87.919ZM106.837 129H89.7529L87.8459 121.849H71.7949L69.8878 129H52.8039L70.5235 73.3778H89.1172L106.837 129ZM79.8204 92.0509L75.2117 109.135H84.4291L79.8204 92.0509ZM137.49 130.271C129.067 130.271 122.128 127.49 116.671 121.928C111.162 116.313 108.407 109.4 108.407 101.189C108.407 92.978 111.162 86.0649 116.671 80.4497C122.128 74.8875 129.067 72.1064 137.49 72.1064C142.575 72.1064 147.29 73.3248 151.634 75.7616C156.031 78.1984 159.447 81.4827 161.884 85.6147L148.058 93.5607C147.158 91.7596 145.754 90.3293 143.847 89.2698C141.94 88.2104 139.821 87.6806 137.49 87.6806C133.623 87.6806 130.444 88.952 127.955 91.4947C125.518 93.9845 124.3 97.2159 124.3 101.189C124.3 105.162 125.518 108.393 127.955 110.883C130.444 113.426 133.623 114.697 137.49 114.697C139.874 114.697 141.993 114.167 143.847 113.108C145.754 112.048 147.158 110.592 148.058 108.738L161.884 116.684C159.447 120.869 156.031 124.179 151.634 126.616C147.29 129.053 142.575 130.271 137.49 130.271ZM184.152 108.181V114.379H204.812V129H168.26V73.3778H204.415V87.8396H184.152V93.8785H202.428V108.181H184.152Z" fill="black" />
</svg>
