<svg version="1.2" baseProfile="tiny-ps" xmlns="http://www.w3.org/2000/svg" viewBox="0 0 23 20" width="23" height="20">
	<title>Shape</title>
	<style>
		tspan { white-space:pre }
		.shp0 { fill: #000000 } 
	</style>
	<path fill-rule="evenodd" class="shp0" d="M23.19 11.85C23.19 16.34 19.53 20 15.04 20C13.58 20 12.16 19.61 10.91 18.88C9.82 18.24 8.9 17.36 8.21 16.31C8.19 16.31 8.17 16.31 8.15 16.31C3.66 16.31 0 12.65 0 8.15C0 3.66 3.66 0 8.15 0C11 0 13.52 1.47 14.98 3.69C15 3.69 15.02 3.69 15.04 3.69C19.53 3.69 23.19 7.35 23.19 11.85ZM21.7 11.85C21.7 10.9 21.5 10 21.14 9.19L19.76 9.98C19.99 10.56 20.12 11.19 20.12 11.85C20.12 12.5 19.99 13.13 19.76 13.71L21.14 14.51C21.5 13.69 21.7 12.79 21.7 11.85ZM15.04 15.43C17.01 15.43 18.62 13.82 18.62 11.85C18.62 10.32 17.66 9.01 16.3 8.49C16.19 11.06 14.89 13.33 12.94 14.75C13.55 15.19 14.28 15.43 15.04 15.43ZM2.05 10.81L3.43 10.02C3.2 9.44 3.07 8.81 3.07 8.15C3.07 7.5 3.2 6.87 3.43 6.29L2.05 5.49C1.69 6.31 1.5 7.21 1.5 8.15C1.5 9.1 1.69 10 2.05 10.81ZM8.15 11.74C10.13 11.74 11.74 10.13 11.74 8.15C11.74 6.18 10.13 4.57 8.15 4.57C6.18 4.57 4.57 6.18 4.57 8.15C4.57 10.13 6.18 11.74 8.15 11.74ZM14.81 8.15C14.81 7.21 14.61 6.31 14.26 5.49L12.88 6.29C13.11 6.87 13.23 7.5 13.23 8.15C13.23 8.81 13.11 9.44 12.88 10.02L14.26 10.81C14.61 10 14.81 9.1 14.81 8.15ZM8.9 14.77C10.79 14.56 12.43 13.56 13.51 12.11L12.13 11.31C11.34 12.3 10.2 12.98 8.9 13.18L8.9 14.77ZM15.76 5.23C15.97 5.76 16.12 6.32 16.21 6.9C17.34 7.17 18.32 7.81 19.01 8.69L20.39 7.89C19.31 6.44 17.66 5.43 15.76 5.23ZM8.9 1.54L8.9 3.13C10.2 3.32 11.34 4.01 12.13 5L13.51 4.2C12.43 2.75 10.79 1.75 8.9 1.54ZM2.8 4.2L4.18 5C4.96 4.01 6.1 3.32 7.41 3.13L7.41 1.54C5.52 1.75 3.87 2.75 2.8 4.2ZM7.41 14.77L7.41 13.18C6.1 12.98 4.96 12.3 4.18 11.31L2.8 12.11C3.87 13.56 5.52 14.56 7.41 14.77ZM14.29 18.46L14.29 16.87C13.27 16.72 12.32 16.26 11.57 15.56C11.05 15.8 10.5 15.99 9.93 16.11C11.02 17.42 12.59 18.27 14.29 18.46ZM15.79 18.46C17.67 18.25 19.32 17.25 20.39 15.8L19.01 15C18.23 15.99 17.09 16.68 15.79 16.87L15.79 18.46Z" />
</svg>