<svg version="1.2" baseProfile="tiny-ps" xmlns="http://www.w3.org/2000/svg" viewBox="0 0 249 380" width="249" height="380">
	<title>image</title>
	<style>
		tspan { white-space:pre }
		.shp0 { fill: #55321d } 
		.shp1 { opacity: 0.502;fill: #845339 } 
		.shp2 { fill: #006941 } 
		.shp3 { fill: #5a915a } 
		.shp4 { fill: #ffffff } 
		.shp5 { fill: #e3eaf6 } 
		.shp6 { fill: #e2e2e2 } 
		.shp7 { fill: #eaeaea } 
	</style>
	<path class="shp0" d="M152.69 362.31L138.43 360.85L122.45 358.56L112.48 356.86L122.48 303.21L124.55 303.21L139.85 303.21L141.92 303.21L152.69 362.31Z" />
	<path class="shp1" d="M116.27 337.54L122.48 303.63L142.33 303.63L148.12 334.65C146.06 332.99 142.33 329.27 142.33 329.27C141.09 331.34 139.02 334.23 136.54 334.65C138.2 332.17 140.68 325.55 140.26 325.96C136.54 330.51 131.58 332.99 126.61 335.06C124.55 335.89 122.06 336.72 120 337.13C118.75 337.13 117.52 337.54 116.27 337.54Z" />
	<path class="shp2" d="M213.06 300.32C209.34 299.07 205.62 297.83 202.31 296.18C203.55 297.42 205.2 299.07 206.44 300.73C214.72 309.83 236.64 326.38 234.98 326.38C222.16 328.03 209.34 325.55 196.93 320.17C194.86 318.1 192.38 316.03 190.31 313.97C192.38 318.93 196.93 331.34 196.1 331.75C183.69 335.06 172.53 327.62 164.67 315.62C164.67 319.76 164.25 332.17 163.01 331.75C155.57 327.62 149.36 320.17 144.4 311.9C136.95 320.58 127.85 327.2 119.58 328.44C118.75 328.44 121.65 320.17 122.89 316.86C114.62 321.82 105.93 328.44 97.24 329.27C96.42 329.27 99.31 322.24 100.97 319.76C91.87 325.55 82.35 329.27 74.08 330.51C72.01 330.93 79.87 320.58 81.94 318.1C75.32 321 56.71 329.27 50.5 328.03C49.26 328.03 63.33 316.45 63.74 316.03L64.15 315.62C48.85 324.31 32.3 328.44 16.59 326.79C14.93 326.79 36.44 310.24 44.3 301.97C43.89 301.97 43.47 302.38 43.06 302.38C31.06 305.28 11.21 311.07 0.04 302.38C-1.2 301.56 26.1 287.08 37.27 278.39C37.68 277.98 38.51 277.57 38.92 277.15C29 279.63 19.07 279.63 8.73 276.74C7.49 276.32 31.89 252.75 42.23 241.99C38.92 243.65 26.93 247.37 23.2 248.2C21.14 248.61 42.23 229.59 47.19 223.38C40.16 226.69 32.72 227.1 25.27 225.86C23.62 225.45 48.02 196.91 58.36 184.09C51.74 186.15 45.54 186.57 39.34 184.91C37.27 184.5 50.92 174.99 55.47 170.85C48.02 173.75 40.58 174.16 32.72 171.68C31.48 171.26 45.54 158.03 57.54 145.62C53.4 146.03 49.26 145.62 45.13 143.96L45.54 143.55C55.47 140.65 64.15 134.86 71.19 127.42C74.91 123.69 77.8 119.56 81.11 115.01C82.35 112.53 84.01 110.05 85.66 107.98C86.08 107.56 86.9 106.74 87.32 105.91C78.22 116.25 65.39 119.14 55.05 116.25C53.81 115.84 78.22 96.4 88.14 85.64C85.25 87.3 81.94 88.12 78.63 88.12C77.8 88.12 92.28 74.47 97.24 66.61C100.14 62.48 105.1 53.38 106.76 51.31C100.55 58.34 93.94 65.37 86.08 65.37L85.66 65.37C95.18 57.93 103.03 46.76 110.07 35.18C115.44 26.08 121.65 16.56 126.61 6.22C136.54 28.97 149.36 51.72 166.73 65.79C158.88 65.79 152.26 58.76 146.05 51.72C147.71 53.79 152.67 62.48 155.57 67.03C158.05 70.75 160.94 74.47 163.84 77.37C166.32 81.5 169.63 85.23 173.35 88.54C170.04 88.12 167.15 87.3 164.25 86.05C168.8 91.43 189.07 110.46 195.28 115.01C195.69 115.42 196.52 116.25 197.34 116.66C187.42 119.97 175.42 117.08 166.32 107.56C175.42 120.8 189.48 129.9 203.55 137.34C203.96 137.34 203.55 137.76 203.55 137.76C200.24 140.65 195.28 141.48 190.72 141.48C203.13 155.13 221.75 172.09 220.09 172.5C212.65 174.99 204.79 174.57 197.34 171.68C201.48 175.4 215.13 185.33 213.47 185.74C207.27 186.98 200.65 186.57 194.45 184.91C204.79 197.74 229.19 226.28 227.54 226.69C220.51 227.93 212.65 227.52 205.62 224.21C210.58 230.41 232.5 252.34 230.85 251.92C227.54 251.09 214.3 244.89 210.99 242.82C221.33 253.58 246.15 277.15 244.5 277.57C238.29 279.22 232.09 280.05 225.88 279.63C232.92 287.91 248.63 301.14 248.22 301.56C237.05 306.93 225.47 304.04 213.06 300.32Z" />
	<path class="shp3" d="M214.3 303.21C210.58 301.97 206.86 300.73 203.55 299.07C204.79 300.32 206.44 301.97 207.69 303.63C215.96 312.73 237.88 329.27 236.23 329.27C223.4 330.93 210.58 328.44 198.17 323.07C196.1 321 193.62 318.93 191.55 316.86C193.62 321.82 198.17 334.23 197.34 334.65C184.94 337.96 173.77 330.51 165.91 318.52C165.91 322.65 165.5 335.06 164.25 334.65C156.81 330.51 150.6 323.07 145.64 314.79C138.2 323.48 129.1 330.1 120.82 331.34C120 331.34 122.89 323.07 124.13 319.76C115.86 324.72 107.17 331.34 98.49 332.17C97.66 332.17 100.56 325.13 102.21 322.65C93.11 328.44 83.6 332.17 75.32 333.41C73.26 333.82 81.11 323.48 83.18 321C76.56 323.89 57.95 332.17 51.75 330.93C50.51 330.93 64.57 319.34 64.98 318.93L65.4 318.52C50.51 326.79 35.2 330.93 19.9 329.68C39.75 327.62 57.95 316.45 74.91 306.11C72.84 311.9 69.95 317.27 67.05 323.07C67.05 323.07 67.05 323.48 67.46 323.48C74.08 323.48 79.87 320.17 85.25 316.45C88.56 313.97 91.87 311.07 95.18 308.18C93.52 313.97 91.04 319.76 86.49 323.48C86.49 323.48 86.49 323.89 86.91 323.89C93.94 324.31 100.14 321 105.52 317.27C109.24 315.21 112.14 312.31 115.45 309.42C114.2 313.55 112.14 318.1 110.07 322.24C110.07 322.24 110.07 322.65 110.48 322.65C115.86 320.58 120.82 316.86 124.96 313.14C128.68 309.83 131.99 306.11 134.89 301.97C133.23 306.11 131.58 310.66 128.68 314.38C128.68 314.38 128.68 314.79 129.1 314.79C131.99 314.38 134.06 312.31 136.13 310.24C136.54 309.83 136.54 309.83 136.54 309.83C135.71 312.73 134.47 316.03 133.23 318.93C133.23 318.93 133.23 319.34 133.65 319.34C139.02 318.93 143.16 314.79 146.06 311.07C147.29 309.42 148.54 307.76 149.78 306.11C150.6 307.76 151.43 309 152.26 310.66C155.57 316.03 158.46 321.82 163.43 325.96C163.43 325.96 163.84 325.96 163.84 325.55C163.01 318.93 163.43 311.9 163.84 304.87C167.56 313.14 175.01 318.93 182.45 324.31C182.87 324.72 182.87 324.31 182.87 323.89C180.8 319.34 179.15 314.79 177.49 310.24C180.39 313.97 183.69 317.69 187.83 320.17C188.25 320.58 188.25 320.17 188.25 319.76C180.8 307.35 174.18 293.7 172.11 279.22C171.7 279.22 171.29 278.81 171.29 279.22C169.22 284.19 169.22 289.98 169.63 295.35C166.74 291.63 165.5 287.08 164.25 282.94C163.84 282.53 163.43 282.53 163.43 282.94C163.84 287.49 163.01 292.04 163.01 296.59C158.05 291.63 154.33 286.67 152.26 280.05C151.84 280.05 151.43 279.63 151.43 280.05C148.54 285.43 148.12 290.8 147.71 296.59C143.99 292.46 140.26 287.91 139.02 282.53C138.61 282.12 138.2 282.12 138.2 282.53C136.96 285.43 136.13 288.74 135.71 291.63C134.06 289.15 133.23 286.67 132.82 283.77L132.41 283.77C124.55 288.74 117.1 294.11 108 296.59C109.66 293.7 112.14 291.63 114.62 289.56C117.1 287.49 119.17 285.01 120 281.7C120 281.29 120 281.29 119.58 281.29C113.38 285.43 106.76 290.8 99.31 293.28C102.21 289.98 105.52 287.08 107.17 282.94C107.59 282.53 107.17 282.12 106.76 282.53C104.28 285.01 101.8 287.91 98.49 289.56C100.56 286.67 102.21 283.77 102.62 280.46C102.62 280.05 102.21 280.05 102.21 280.05C96.83 283.36 91.46 286.67 85.66 289.15C80.7 291.22 75.32 293.28 69.95 293.28C74.5 290.39 79.05 287.08 81.94 282.53C81.94 282.53 81.94 282.12 81.53 282.12C67.88 287.08 55.47 295.35 40.58 296.59C45.54 293.7 49.68 290.39 53.81 286.25C54.23 286.25 53.81 285.84 53.4 285.84C44.71 289.98 36.03 294.11 26.93 297.42C19.48 299.9 11.62 301.97 3.77 301.97C10.38 297.42 29.41 287.08 38.1 280.05C38.51 279.63 39.34 279.22 39.75 278.81C30.65 281.29 21.14 281.7 11.62 279.22C19.07 277.57 26.1 273.02 32.72 269.71C42.23 265.16 50.92 258.95 59.61 252.75C55.06 258.54 48.85 262.68 43.06 267.23C43.06 267.23 43.06 267.64 43.47 267.64C48.85 267.64 54.23 265.16 58.78 262.68C63.33 260.19 67.05 257.3 71.19 254.82C68.29 257.3 65.81 259.78 62.91 261.85C62.91 261.85 62.91 262.26 63.33 262.26C71.19 261.02 79.05 257.3 86.08 253.58C88.97 251.92 91.46 250.68 94.35 249.03C87.32 256.88 79.46 263.92 70.36 268.47C69.95 268.88 69.95 269.29 70.36 269.29C74.5 269.29 79.05 267.23 82.77 265.57C86.91 263.92 91.04 261.85 95.18 259.37C99.31 257.3 103.45 254.4 107.17 251.51C106.35 253.16 105.52 254.82 104.69 256.88C104.69 257.3 104.69 257.3 105.11 257.3C108 256.06 110.9 253.99 112.96 251.92C114.2 250.68 115.45 249.44 116.69 248.2C115.45 250.27 114.2 252.75 112.55 254.82C112.55 254.82 112.55 255.23 112.96 255.23C117.1 253.99 120.41 251.51 123.31 248.61C125.37 246.96 127.44 244.89 129.1 242.41C129.51 243.65 129.92 244.89 130.34 246.13C132.41 249.85 134.47 253.58 137.37 256.88C137.37 256.88 137.78 256.88 137.78 256.47C136.96 249.85 137.78 243.24 138.2 236.62C139.44 241.17 142.75 245.3 146.06 248.2C146.06 248.2 146.47 248.2 146.47 247.78C145.23 242.82 144.4 238.27 144.4 233.31C147.71 238.27 151.84 242.41 156.4 246.13C159.29 248.61 162.19 250.68 165.08 252.75C167.98 254.4 171.29 256.47 174.59 256.47C175.01 256.47 175.01 256.47 175.01 256.06C173.35 251.92 169.63 249.85 166.74 246.54C164.67 243.65 163.01 240.75 161.36 237.44C164.25 241.17 168.8 243.65 172.53 246.13C172.94 246.54 172.94 246.13 172.94 245.72C170.87 242.82 169.22 239.93 167.15 236.62C170.46 238.27 173.77 239.93 177.08 241.17C180.8 242.82 184.94 244.48 188.66 245.3C191.97 246.13 196.93 246.96 200.24 245.3L200.24 244.89C196.1 240.34 190.31 237.44 186.18 232.89C183.69 230 181.21 227.1 179.15 223.79C181.21 225.03 184.11 226.28 186.59 227.52C192.79 230 199.83 231.24 206.44 230C206.86 229.59 206.86 229.17 206.44 229.17C198.59 223.79 191.97 216.76 185.76 209.32C189.49 211.8 193.62 214.28 197.76 215.94C198.17 215.94 198.59 215.52 198.17 215.11C187 207.66 181.21 196.08 174.18 185.33C174.18 184.91 173.77 184.91 173.77 185.33C172.94 190.29 173.77 194.84 175.42 199.39C175.84 200.63 176.25 202.28 177.08 203.53C173.77 202.28 170.46 201.04 167.56 198.98C163.43 196.5 160.12 193.19 156.81 189.46C156.81 189.46 156.4 189.46 156.4 189.88C155.98 193.6 158.05 196.91 157.64 200.63C153.09 198.15 147.71 195.25 145.64 190.29C145.23 189.88 144.81 189.88 144.81 190.29C144.81 192.77 145.23 194.84 145.23 196.91C143.16 195.25 141.92 192.77 140.68 190.29C140.26 189.88 139.85 189.88 139.85 190.29C139.02 193.19 139.44 196.5 139.02 199.39C135.71 197.32 133.65 194.01 132.41 190.29C131.99 189.88 131.58 189.88 131.58 190.29C130.75 194.01 130.75 197.74 129.51 201.46C127.03 198.15 127.03 193.6 126.61 189.46C126.61 189.05 126.61 188.64 126.2 189.05C122.48 192.36 119.58 196.91 115.03 199.8C116.69 196.91 118.34 194.43 120 191.53C120.41 191.12 120 191.12 119.58 191.12C114.62 193.6 110.07 197.32 105.52 200.22C102.21 202.28 98.49 204.35 94.76 205.59C99.73 200.63 103.86 194.84 106.35 188.22C106.76 187.81 106.35 187.81 105.93 187.81C102.62 190.7 99.73 194.01 96.01 195.25C98.07 192.77 100.14 190.7 101.8 188.22C102.21 187.81 101.8 187.81 101.38 187.81C95.59 191.53 89.39 194.43 83.18 196.91C77.39 198.98 71.19 200.63 64.98 200.63C71.19 197.32 76.15 192.36 81.11 187.81C81.53 187.81 81.11 187.4 80.7 187.4C75.32 190.7 70.77 194.43 64.57 196.08C67.88 193.19 71.6 190.29 74.08 186.57C74.5 186.15 74.08 186.15 73.67 186.15C68.71 189.05 63.74 192.36 58.78 195.25C55.06 196.91 50.92 198.98 46.78 199.8C51.75 194.01 56.3 188.22 59.61 184.09C52.99 186.15 46.78 186.57 40.58 184.91C38.51 184.5 52.16 174.99 56.71 170.85C49.26 173.75 41.41 174.16 33.96 171.68C37.68 171.68 40.99 171.26 44.3 170.02C49.26 168.37 54.23 165.89 59.19 163.82C64.16 161.75 69.12 158.85 73.67 155.96C77.39 153.48 81.11 150.17 84.84 147.69C80.29 152.65 75.74 157.2 70.77 161.75C70.77 161.75 70.77 162.16 71.19 162.16C73.26 162.58 75.74 161.75 77.81 160.92C80.29 160.09 82.36 159.27 84.84 158.03C85.25 158.03 86.08 157.61 85.66 158.85C81.94 161.75 78.22 164.65 74.5 167.13C74.5 167.54 74.5 167.95 74.91 167.95C81.11 167.13 86.49 163.82 91.87 160.92C88.15 164.23 84.01 167.13 80.7 170.44C80.7 170.44 80.7 170.85 81.11 170.85C85.25 171.26 89.8 169.61 93.52 167.95C97.66 166.3 101.8 164.65 105.93 162.58C109.24 160.92 112.55 158.85 115.45 156.79C114.2 159.27 112.96 161.75 111.31 163.82C110.9 164.23 111.31 164.23 111.72 164.23C115.03 162.16 119.17 160.09 122.06 156.79C121.65 158.03 121.24 158.85 120.41 160.09C119.17 161.75 117.51 162.99 117.1 165.06C117.1 165.47 117.1 165.47 117.51 165.47C122.48 164.65 126.2 160.51 129.92 157.61C131.58 155.96 133.23 154.72 134.89 153.06C135.71 157.61 136.54 161.75 139.44 165.06C139.44 165.47 139.85 165.47 139.85 165.06C140.68 160.09 142.33 155.13 143.99 150.17C145.23 154.3 147.29 158.85 150.6 161.34C150.6 161.34 151.02 161.34 151.02 160.92C150.19 156.79 149.36 152.24 149.36 147.69C150.6 149.75 151.84 151.82 153.5 153.48C153.5 153.48 153.91 153.48 153.91 153.06C153.5 150.58 152.67 148.1 152.26 145.62C154.74 148.1 157.64 150.17 160.53 151.41C163.84 153.06 167.15 154.3 170.87 154.3C171.29 154.3 171.7 153.89 171.29 153.89C165.91 149.75 160.12 143.96 157.64 137.34C161.36 139.83 165.08 141.48 169.22 142.31C169.63 142.72 170.04 142.31 169.63 141.9C165.91 137.34 161.77 133.62 157.64 129.07C153.5 124.52 149.78 119.56 147.71 113.77C147.29 113.36 146.88 113.36 146.88 113.77C145.64 117.08 146.47 119.97 146.47 122.87C145.23 120.39 143.99 117.91 143.16 115.01C142.75 114.6 142.33 114.6 142.33 115.01C141.92 119.56 142.33 124.11 142.75 128.66C140.68 125.76 139.44 122.04 137.78 118.73C137.78 118.32 137.37 118.32 137.37 118.73C136.54 122.87 135.71 127 135.71 131.14C135.71 131.55 135.71 131.97 135.71 132.38C134.06 127.42 133.23 122.04 132.82 117.08C132.82 116.66 132.41 116.25 132.41 116.66C130.34 119.15 127.86 122.45 124.55 123.69C125.79 122.04 127.44 120.8 128.68 119.15C129.1 119.15 128.68 118.32 128.27 118.73C122.06 122.45 115.86 125.76 109.24 128.66C106.76 129.49 96.42 133.62 93.94 133.62C96.42 130.73 105.93 125.35 107.17 124.11C108.83 122.45 110.07 120.8 112.14 119.56C112.55 119.56 112.14 118.73 111.72 119.15C108.83 120.8 105.93 122.45 103.04 123.28C104.69 121.63 106.35 120.39 108 119.15C108 119.15 108 118.73 107.59 118.73C99.31 122.04 91.04 125.76 81.94 127C84.84 123.28 88.97 120.39 91.46 115.84C91.46 115.84 91.46 115.42 91.04 115.42C86.49 117.49 82.36 120.8 78.22 123.69C76.15 124.94 74.5 125.76 72.43 127L72.01 127C75.32 123.69 78.22 119.97 80.7 116.25C81.94 113.77 83.6 111.29 85.25 109.22C85.66 108.81 86.49 107.98 86.91 107.15C78.22 117.08 65.81 120.39 55.47 117.91C56.71 117.91 58.78 117.49 59.61 117.08C63.33 115.84 66.64 114.18 69.53 112.53C78.63 107.56 88.15 103.01 95.18 95.15C94.35 97.22 93.11 99.7 91.46 101.36C91.46 101.36 91.46 101.77 91.87 101.77C94.35 101.36 96.42 99.7 98.49 98.05C97.66 99.7 97.25 101.36 96.01 102.6C94.35 104.67 91.87 106.74 90.21 109.22C89.8 109.22 90.21 109.63 90.21 109.63C93.11 110.05 96.01 108.81 98.49 107.56C101.8 106.32 105.11 104.25 108 102.6C110.07 101.36 111.72 100.12 113.38 98.88C110.9 102.6 108.41 106.32 105.93 109.63C105.93 109.63 105.93 110.05 106.35 110.05C114.2 107.98 120.82 102.6 125.79 95.98C125.37 98.05 124.96 100.12 124.55 102.19C124.13 102.6 124.55 103.01 124.96 102.6C127.86 99.7 129.51 95.57 130.75 91.85C130.75 93.91 131.16 95.98 131.99 98.05C132.41 98.46 132.82 98.46 132.82 98.05C133.65 94.74 134.06 91.85 134.06 88.54C135.3 92.67 138.61 96.4 141.5 99.7C141.5 100.12 141.92 99.7 141.92 99.29C141.09 97.22 140.26 95.15 139.44 92.67C140.26 93.5 141.5 94.33 142.33 94.74C145.64 96.81 149.36 98.46 153.09 99.29C153.5 99.29 153.5 99.29 153.5 98.88C151.43 95.15 148.95 92.26 146.88 88.54C150.19 92.26 153.91 95.98 158.88 97.22C159.29 97.22 159.29 97.22 159.29 96.81C155.57 91.43 151.02 87.3 147.71 82.33C143.99 76.54 141.5 69.92 139.44 63.72C139.02 63.31 138.61 63.31 138.61 63.72C138.2 69.1 139.02 74.47 140.26 79.85C139.85 78.61 139.02 77.78 138.61 76.54C136.13 71.58 134.47 65.79 134.47 60.41C134.47 60 134.47 60 134.06 60C131.99 61.65 131.16 64.55 129.51 67.03C129.1 64.96 129.92 62.89 130.34 60.82C130.75 60.41 130.34 60 129.92 60.41C125.79 65.37 124.13 71.16 122.06 76.96C120.41 74.47 120.82 71.58 120.82 68.68C120.82 65.37 121.65 62.06 122.48 59.17C122.89 58.76 122.48 58.34 122.06 58.76C120 62.06 117.93 65.79 115.03 68.68C115.45 66.2 116.69 64.13 117.1 61.65C117.51 61.24 117.1 60.82 116.69 61.24C114.2 63.72 112.14 66.61 109.24 68.68C110.48 66.61 111.31 64.96 112.14 63.31C112.55 62.89 112.14 62.48 111.72 62.89C107.17 67.44 102.62 72.41 96.83 75.3C99.31 71.99 101.8 68.27 103.45 64.13C103.86 63.72 103.04 63.31 103.04 63.72C100.56 69.1 96.42 74.06 91.87 78.61C88.15 82.33 84.42 85.64 79.87 88.12L79.46 88.12C78.63 88.12 93.11 74.47 98.07 66.61C100.97 62.48 105.93 53.38 107.59 51.31C101.8 58.34 95.18 64.96 87.73 65.37C96.01 59.58 102.62 50.9 108.83 42.62C108 44.69 106.76 46.35 105.93 48.41C105.93 48.83 105.93 48.83 106.35 48.83C109.24 47.59 111.72 44.69 113.38 41.8C112.96 45.52 111.72 49.24 110.48 52.96C110.48 53.38 110.48 53.38 110.9 53.38C114.2 50.9 116.27 47.17 118.34 43.86C119.17 43.04 120 41.8 120.82 40.56C120.82 42.62 120.82 44.69 121.24 46.35L121.65 46.35C122.89 44.69 123.72 42.62 124.13 40.14C125.37 42.62 127.03 45.11 129.1 46.76C129.1 46.76 129.51 46.76 129.51 46.35C129.51 43.45 129.51 40.56 129.1 37.66C131.58 42.21 136.96 45.52 141.09 48C141.5 48.41 141.92 48 141.5 47.59C136.54 41.38 132.82 33.94 130.34 26.49C128.27 20.29 127.44 13.67 127.03 7.05C136.96 29.39 149.78 52.14 166.74 65.79C158.88 65.79 152.26 58.76 146.06 51.72C147.71 53.79 152.67 62.48 155.57 67.03C158.05 70.75 160.94 74.47 163.84 77.37C166.32 81.5 169.63 85.23 173.35 88.54C170.04 88.12 167.15 87.3 164.25 86.06C168.8 91.43 189.07 110.46 195.28 115.01C195.69 115.42 196.52 116.25 197.34 116.66C187.42 119.97 175.42 117.08 166.32 107.56C175.42 120.8 189.49 129.9 203.55 137.34C203.96 137.34 203.55 137.76 203.55 137.76C200.24 140.65 195.28 141.48 190.73 141.48C203.14 155.13 221.75 172.09 220.09 172.5C212.65 174.99 204.79 174.57 197.34 171.68C201.48 175.4 215.13 185.33 213.48 185.74C207.27 186.98 200.65 186.57 194.45 184.91C204.79 197.74 229.19 226.28 227.54 226.69C220.51 227.93 212.65 227.52 205.62 224.21C210.58 230.41 232.5 252.34 230.85 251.92C227.54 251.09 214.3 244.89 211 242.82C221.34 253.58 246.15 277.15 244.5 277.57C238.29 279.22 232.09 280.05 225.88 279.63C232.92 287.91 248.63 301.14 248.22 301.56C237.05 306.93 225.47 304.04 214.3 303.21Z" />
	<path class="shp4" d="M110.07 25.66C112.14 19.87 115.03 14.08 117.51 8.71C117.93 7.47 120 0.02 122.06 0.02C126.2 -0.39 129.92 5.81 131.16 9.12C134.89 19.05 138.61 28.97 143.99 38.49C144.4 38.49 144.81 38.9 145.23 39.31C147.29 43.45 149.78 46.35 148.12 50.9C147.71 51.72 147.29 50.9 146.88 50.9C144.81 49.24 143.57 47.59 141.92 45.52C140.68 43.86 131.58 31.46 130.75 36.42C130.34 40.14 126.61 45.52 123.3 40.97C122.06 39.31 121.24 37.66 120.82 35.59C119.17 28.97 116.69 33.94 115.03 37.25C113.79 39.73 110.07 45.11 107.17 40.97C104.69 36.83 108.83 28.97 110.07 25.66Z" />
	<path class="shp5" d="M114.2 28.15C115.86 24.84 118.34 19.87 120 26.49C120.41 28.56 121.24 30.21 122.48 31.87C125.79 36.42 129.51 31.04 129.92 27.32C130.75 21.94 139.85 34.76 141.09 36.42C142.75 38.49 143.99 40.14 146.05 41.8L146.47 42.21C148.12 45.11 149.36 47.59 148.12 51.31C148.12 51.72 147.29 51.31 146.88 51.31C144.81 49.66 143.57 48 141.92 45.93C140.68 44.28 131.58 31.87 130.75 36.83C130.34 40.14 126.61 45.52 123.3 41.38C122.06 39.73 121.24 38.07 120.82 36.01C119.17 29.8 116.27 34.35 115.03 37.66C113.79 40.14 110.07 45.52 107.17 41.38C105.93 39.31 106.35 36.42 107.17 33.11C110.07 34.76 113.38 30.21 114.2 28.15Z" />
	<path class="shp4" d="M111.72 82.75C115.03 86.88 118.34 90.19 123.72 86.88C125.37 85.64 126.61 83.16 128.68 82.33C133.23 81.09 138.2 87.71 141.09 90.19C143.57 92.26 153.09 97.22 152.26 89.36C151.85 86.47 151.02 83.57 151.02 80.68C151.02 77.37 153.5 74.47 156.4 76.95C157.64 77.78 158.46 79.44 158.88 80.68L159.29 81.09L159.71 81.5C160.53 82.33 160.95 83.57 161.77 84.4C164.25 87.3 167.56 89.36 170.46 91.85C170.87 92.26 171.7 94.33 170.87 94.33C175.84 98.46 181.21 101.77 185.76 105.08C190.31 108.39 199 113.35 200.65 119.14C202.31 124.52 194.45 123.69 191.55 122.87C182.04 120.8 174.18 114.18 165.91 109.22C164.67 108.8 157.22 106.32 157.22 106.32C158.05 107.15 158.88 108.39 159.29 109.63C159.71 110.46 160.53 112.11 160.53 113.35C160.12 117.9 148.95 110.46 147.71 109.63C146.47 108.8 136.54 101.36 137.37 105.5C137.78 106.32 138.61 108.8 137.37 109.22C132.82 112.11 127.86 105.91 124.55 103.01C120.82 99.7 116.69 93.5 110.9 97.64C108.41 99.29 106.35 100.53 103.45 100.53C100.56 100.12 99.31 96.81 99.31 94.74C98.9 88.12 105.52 75.3 111.72 82.75Z" />
	<path class="shp5" d="M106.76 90.19C112.55 86.06 116.69 92.26 120.41 95.57C123.72 98.46 128.68 104.67 133.23 101.77C134.47 101.36 133.64 98.88 133.23 98.05C132.4 93.91 142.33 101.36 143.57 102.19C144.81 103.01 155.98 110.46 156.39 105.91C156.39 104.67 155.57 103.01 155.15 102.19C154.74 100.95 153.91 99.7 153.09 98.88C153.09 98.88 160.53 101.36 161.77 101.77C170.04 106.74 177.9 113.36 187.42 115.42C189.9 116.25 196.52 117.08 196.93 113.36C198.58 115.01 200.24 117.08 200.65 118.73C202.31 124.52 194.45 123.28 191.55 122.45C182.04 119.97 174.18 113.77 165.91 108.81C164.67 107.98 157.22 105.5 157.22 105.91C157.63 107.15 158.46 108.39 159.29 109.22C159.7 110.46 160.53 111.7 160.53 112.94C160.12 117.49 148.53 110.05 147.71 109.22C146.47 108.39 136.54 100.53 137.37 105.08C137.37 105.91 138.19 107.98 137.37 108.81C132.82 111.29 127.85 105.08 124.54 102.6C120.82 99.29 116.69 93.09 110.89 97.22C108.41 98.88 106.34 100.53 103.45 100.12C100.55 100.12 99.73 96.4 99.31 94.33C99.31 93.91 99.31 93.5 99.31 93.09C102.62 93.5 104.28 91.85 106.76 90.19Z" />
	<path class="shp4" d="M45.95 158.44C52.99 154.3 60.43 151.41 67.05 146.86C69.12 145.2 72.84 142.31 75.74 143.14C80.7 144.38 80.29 149.75 80.29 153.89C80.29 155.54 80.7 156.79 80.7 158.44C81.53 163.82 86.9 160.09 88.56 158.03C92.28 153.89 93.52 150.17 98.49 147.69C100.14 147.27 102.62 147.69 103.86 149.34C104.69 150.17 105.1 150.58 105.52 151.82C105.52 152.24 105.93 153.06 105.93 153.48C106.34 153.89 108.83 165.06 112.96 156.79C115.03 153.06 117.93 141.07 124.13 147.27C128.68 151.82 136.13 162.16 143.16 156.79C146.88 154.3 140.68 144.38 140.68 140.65C140.68 140.24 141.5 140.65 141.92 140.65C147.29 143.96 151.43 148.93 155.57 153.48C162.6 158.03 170.04 162.16 174.59 168.37C180.38 174.99 172.11 177.05 166.74 176.23C161.36 175.4 155.98 172.92 151.02 170.44C148.95 169.19 146.47 168.37 144.4 167.13C140.68 165.47 140.68 165.47 141.09 169.61C141.5 172.92 141.09 179.54 136.13 179.12C131.99 179.12 128.68 175.81 125.79 172.92C120 167.13 117.1 170.44 114.62 175.4C113.38 178.29 110.89 180.78 108.41 182.43C104.28 185.33 99.73 185.33 95.59 182.84C91.45 180.36 90.63 175.81 89.39 171.68C88.15 167.13 81.53 174.99 80.29 175.81C76.56 178.29 72.43 179.95 68.29 181.19C62.5 182.84 48.85 189.46 43.89 183.67C40.58 179.95 45.13 175.4 49.68 171.26C44.3 174.57 38.92 177.88 34.37 173.75C28.17 168.37 42.65 160.09 45.95 158.44Z" />
	<path class="shp5" d="M68.7 174.16C72.84 172.92 76.98 171.26 80.7 168.78C81.53 167.95 88.56 160.09 89.8 164.64C91.04 168.78 91.87 173.33 96 175.81C100.14 178.29 104.69 178.29 108.83 175.4C111.31 173.74 113.79 171.26 115.03 168.37C117.51 163.4 120.41 160.09 126.2 165.88C129.09 168.78 132.4 172.09 136.54 172.09C139.43 172.09 141.09 169.61 141.5 167.13C141.5 167.54 141.5 168.37 141.5 169.19C141.92 172.5 141.5 179.12 136.54 178.71C131.99 178.71 129.09 175.4 126.2 172.5C120.41 166.71 117.1 170.02 115.03 174.99C113.79 177.88 111.31 179.95 108.83 182.02C104.69 184.91 100.14 184.5 96 182.43C91.87 179.95 91.04 175.4 89.8 171.26C88.56 166.71 81.53 174.57 80.7 175.4C76.98 178.29 73.25 179.53 68.7 180.78C62.91 182.43 49.26 189.05 44.3 183.26C42.64 181.19 43.06 179.12 44.71 176.64C49.68 182.02 62.91 175.81 68.7 174.16Z" />
	<path class="shp5" d="M144.81 160.09C146.88 161.34 149.36 162.16 151.43 163.4C156.39 165.89 161.77 168.37 167.15 169.19C169.63 169.61 172.94 169.19 175.01 168.37C180.8 174.99 172.52 177.05 167.15 176.23C161.77 175.4 156.39 172.5 151.43 170.44C149.36 169.19 146.88 168.37 144.81 167.13C142.74 166.3 141.91 165.89 141.5 166.3C141.5 165.06 141.5 163.82 141.5 162.58C141.5 158.44 141.09 158.44 144.81 160.09Z" />
	<path class="shp6" d="M34.37 167.13C34.37 167.13 34.78 167.13 34.37 167.13C38.92 171.26 44.71 167.95 50.09 164.64C46.37 167.95 42.64 171.68 43.47 174.99C40.16 176.23 37.27 176.23 34.78 174.16C32.3 171.68 32.72 169.19 34.37 167.13Z" />
	<path class="shp7" d="M139.85 166.71C139.85 166.3 139.85 165.89 139.85 165.47C140.26 165.89 140.26 166.3 139.85 166.71Z" />
	<path class="shp4" d="M45.58 353.36C47.62 351.83 50.67 352.34 53.22 353.36C54.24 353.36 55.26 353.36 55.77 353.87C56.79 353.87 58.32 354.89 59.34 355.91C60.87 356.93 60.36 358.97 59.85 359.99C59.34 362.54 53.22 363.05 50.67 363.05C47.62 363.05 43.03 363.56 42.01 361.01C41.5 357.95 43.54 354.89 45.58 353.36Z" />
	<path class="shp4" d="M84.64 368.45C84.64 367.95 84.64 367.95 84.64 367.95C84.64 367.95 84.64 367.44 84.64 366.93C85.15 361.32 92.29 355.2 97.39 352.14C105.55 347.04 112.17 353.16 118.29 357.75C122.37 360.81 126.96 363.36 121.86 366.93C119.31 368.96 115.74 368.96 112.68 369.99C107.59 371.51 102.49 373.04 96.88 373.55C91.78 374.57 83.63 375.08 84.64 368.45Z" />
	<path class="shp4" d="M121.63 359.2C124.18 356.65 129.78 353.59 135.9 353.08C142.02 352.57 148.14 354.1 152.72 355.63C158.33 357.16 160.37 359.71 159.35 362.76C158.33 365.31 151.71 365.82 146.61 366.33C146.1 366.33 145.59 366.84 145.08 366.84C143.04 367.35 139.98 369.39 136.92 369.39C130.29 369.39 123.16 367.86 118.57 365.82C112.96 363.27 119.08 360.73 121.63 359.2Z" />
	<path class="shp4" d="M154.89 356.67C158.23 353.61 161.57 352.59 166.24 353.1C170.91 353.1 176.25 354.12 180.26 355.65C189.61 358.2 214.98 373.5 196.28 378.08C186.94 380.12 178.26 379.61 168.91 377.57C162.9 376.56 153.55 375.54 150.22 370.95C146.21 365.85 148.88 361.26 154.89 356.67Z" />
</svg>