<svg version="1.2" baseProfile="tiny-ps" xmlns="http://www.w3.org/2000/svg" viewBox="0 0 40 40" width="40" height="40">
	<title>twitter-svg</title>
	<style>
		tspan { white-space:pre }
		.shp0 { fill: #ffffff } 
	</style>
	<path id="Layer" class="shp0" d="M32.48 12.37C31.56 12.77 30.58 13.04 29.54 13.16C30.6 12.54 31.41 11.55 31.8 10.37C30.8 10.95 29.71 11.37 28.54 11.6C27.6 10.61 26.27 10 24.8 10C21.96 10 19.67 12.26 19.67 15.05C19.67 15.44 19.72 15.83 19.8 16.2C15.54 15.98 11.77 13.98 9.24 10.92C8.8 11.67 8.54 12.54 8.54 13.46C8.54 15.21 9.45 16.76 10.82 17.66C9.98 17.64 9.19 17.41 8.5 17.03C8.5 17.05 8.5 17.07 8.5 17.1C8.5 19.54 10.27 21.58 12.61 22.05C12.18 22.16 11.73 22.22 11.26 22.22C10.93 22.22 10.61 22.19 10.3 22.13C10.95 24.14 12.84 25.6 15.09 25.64C13.34 26.99 11.13 27.8 8.72 27.8C8.31 27.8 7.9 27.78 7.5 27.73C9.77 29.16 12.46 30 15.36 30C24.78 30 29.94 22.3 29.94 15.63C29.94 15.42 29.94 15.2 29.93 14.98C30.93 14.27 31.8 13.38 32.48 12.37Z" />
</svg>