<svg width="24" height="22" viewBox="0 0 24 22" fill="none" xmlns="http://www.w3.org/2000/svg">
<g >
<path d="M19.196 6.55884C18.8954 2.89476 15.6357 0 11.672 0C7.7084 0 4.44872 2.89476 4.14807 6.55884C3.33605 6.80191 2.74597 7.51897 2.74597 8.36365V20.1067C2.74597 21.1507 3.64718 22 4.75497 22H18.5891C19.6969 22 20.5981 21.1507 20.5981 20.1067V8.36365C20.5981 7.51893 20.008 6.80187 19.196 6.55884ZM11.672 1.28906C14.8489 1.28906 17.473 3.56039 17.8132 6.47032H16.4343C16.1024 4.27333 14.0935 2.57847 11.672 2.57847C9.25061 2.57847 7.24166 4.27333 6.90982 6.47032H5.53093C5.87106 3.56039 8.49521 1.28906 11.672 1.28906ZM15.047 6.47032H8.29711C8.61412 4.98764 10.0067 3.86753 11.672 3.86753C13.3374 3.86753 14.73 4.98764 15.047 6.47032ZM19.2303 20.1067C19.2303 20.4399 18.9426 20.711 18.5891 20.711H4.75497C4.40144 20.711 4.11379 20.4399 4.11379 20.1067V8.36365C4.11379 8.03047 4.40144 7.75938 4.75497 7.75938H18.5891C18.9427 7.75938 19.2303 8.03047 19.2303 8.36365V20.1067H19.2303Z" fill="black"/>
<path d="M15.4909 12.8569C15.4909 11.9294 14.9134 11.1267 14.0795 10.7511V10.3247C14.0795 9.96875 13.7733 9.68018 13.3956 9.68018C13.0179 9.68018 12.7117 9.96875 12.7117 10.3247V10.5243H10.5864V10.3247C10.5864 9.96875 10.2802 9.68018 9.9025 9.68018C9.5248 9.68018 9.21859 9.96875 9.21859 10.3247V10.5243H8.53706C8.15936 10.5243 7.85315 10.8129 7.85315 11.1688C7.85315 11.5248 8.15936 11.8134 8.53706 11.8134H8.74884V17.2774H8.53706C8.15936 17.2774 7.85315 17.5659 7.85315 17.9219C7.85315 18.2778 8.15936 18.5664 8.53706 18.5664H9.21859V18.766C9.21859 19.122 9.5248 19.4106 9.9025 19.4106C10.2802 19.4106 10.5864 19.122 10.5864 18.766V18.5664H12.7117V18.766C12.7117 19.122 13.0179 19.4106 13.3956 19.4106C13.7733 19.4106 14.0795 19.122 14.0795 18.766V18.3397C14.9134 17.964 15.4909 17.1613 15.4909 16.2335C15.4909 15.5699 15.1948 14.9706 14.7212 14.5454C15.1948 14.1202 15.4909 13.5208 15.4909 12.8569ZM14.1231 16.2339C14.1231 16.8093 13.6263 17.2774 13.0158 17.2774H10.1167V15.1899H13.0158C13.6264 15.1899 14.1231 15.658 14.1231 16.2339ZM10.1167 13.9009V11.8134H13.0158C13.6264 11.8134 14.1231 12.2815 14.1231 12.8574C14.1231 13.4328 13.6263 13.9009 13.0158 13.9009H10.1167Z" fill="black"/>
</g>
<defs>
<clipPath id="clip0_310_555">
<rect width="23.344" height="22" fill="white"/>
</clipPath>
</defs>
</svg>
