<svg width="45" height="45" viewBox="0 0 45 45" fill="none" xmlns="http://www.w3.org/2000/svg">
<rect width="45" height="45" rx="22.5" fill="#34E7FF"/>
<g clip-path="url(#clip0_132_7263)">
<path d="M21.1724 33C20.9689 33 20.7824 32.8786 20.7134 32.7029C20.6442 32.5267 20.7048 32.3222 20.8629 32.2037C21.0259 32.0815 21.2599 32.0694 21.4368 32.1735C21.6026 32.2711 21.6891 32.4572 21.652 32.6351C21.6083 32.8439 21.4041 33 21.1724 33Z" fill="black"/>
<path d="M28.7626 25.2417H27.9189C27.6493 25.2417 27.4307 25.0405 27.4307 24.7925C27.4307 24.5444 27.6493 24.3433 27.9189 24.3433H28.7626C29.0323 24.3433 29.2509 24.5444 29.2509 24.7925C29.2509 25.0405 29.0323 25.2417 28.7626 25.2417Z" fill="black"/>
<path d="M31.5215 17.2572L29.3058 11.218C29.1397 10.7652 28.7918 10.399 28.3262 10.1868C27.8606 9.97468 27.3331 9.94202 26.841 10.0949L14.2422 14.0073C13.226 14.3228 12.6784 15.3401 13.0214 16.2749L13.1353 16.5853H12.0718C11.8021 16.5853 11.5835 16.7864 11.5835 17.0345V32.5508C11.5835 32.7989 11.8021 33 12.0718 33H18.9564C19.226 33 19.4446 32.7989 19.4446 32.5508C19.4446 32.3027 19.226 32.1016 18.9564 32.1016H12.56V30.9733H29.1308C30.2792 30.9733 31.2134 30.1138 31.2134 29.0573V27.1094H32.4398V29.0573C32.4398 30.736 30.9554 32.1016 29.1308 32.1016H23.3709C23.1012 32.1016 22.8826 32.3028 22.8826 32.5508C22.8826 32.7989 23.1012 33.0001 23.3709 33.0001H29.1309C31.4939 33.0001 33.4164 31.2313 33.4164 29.0574V20.528C33.4164 19.1677 32.6637 17.9662 31.5215 17.2572ZM13.9467 15.9876C13.7759 15.5221 14.0486 15.0156 14.5545 14.8585L27.1533 10.9461C27.3984 10.87 27.661 10.8863 27.8928 10.9919C28.1246 11.0975 28.2979 11.2799 28.3806 11.5054L30.2989 16.7341C29.9275 16.6371 29.5356 16.5853 29.1309 16.5853H29.0076L28.1966 14.3747C28.1551 14.2618 28.0667 14.1687 27.9507 14.1158C27.8346 14.0629 27.7005 14.0546 27.5778 14.0927C26.5992 14.3967 26.3272 14.2164 25.8655 12.958C25.7792 12.7229 25.5022 12.5966 25.2467 12.6761L17.2107 15.1715C16.9552 15.2508 16.818 15.5057 16.9043 15.7408C17.0069 16.0205 17.1076 16.3224 17.1485 16.5853H14.1659L13.9467 15.9876ZM17.976 15.8821L25.1061 13.6679C25.4421 14.4544 25.9167 15.1115 26.9154 15.1114C27.0698 15.1114 27.2371 15.0956 27.4181 15.0622L27.9441 16.496C27.8791 16.5247 27.8175 16.5544 27.759 16.5852H18.1312C18.107 16.3559 18.0493 16.1189 17.976 15.8821ZM13.8017 17.4837C13.8106 17.4839 13.8195 17.4839 13.8285 17.4837H29.1308C30.9554 17.4837 32.4399 18.8494 32.4399 20.528V22.4758H31.2134V20.5279C31.2134 19.4715 30.2792 18.612 29.1309 18.612H12.56V17.4837H13.8017ZM30.2368 29.0573C30.2368 29.6183 29.7407 30.0748 29.1308 30.0748H12.56V19.5104H29.1308C29.7407 19.5104 30.2368 19.9668 30.2368 20.5279V22.4758H27.9324C26.5438 22.4758 25.4142 23.5151 25.4142 24.7925C25.4142 26.07 26.5439 27.1093 27.9324 27.1093H30.2368V29.0573ZM27.9324 26.211C27.0823 26.211 26.3907 25.5747 26.3907 24.7926C26.3907 24.0106 27.0823 23.3743 27.9324 23.3743H32.4398V26.211H27.9324Z" fill="black"/>
</g>
<defs>
<clipPath id="clip0_132_7263">
<rect width="25" height="23" fill="white" transform="translate(10 10)"/>
</clipPath>
</defs>
</svg>
