<?xml version="1.0" encoding="UTF-8"?>
<svg width="135px" height="40px" viewBox="0 0 135 40" version="1.1" xmlns="http://www.w3.org/2000/svg" xmlns:xlink="http://www.w3.org/1999/xlink">
	<!-- Generator: Sketch 56.3 (81716) - https://sketch.com -->
	<title>
		banner/win-bonuses
	</title>
	<desc>
		Created with Sketch.
	</desc>
	<defs>
		<rect id="path-1" x="0" y="0" width="135" height="40" rx="4">
		</rect>
		<text id="text-3" font-family="Helvetica" font-size="14.7" font-weight="normal" letter-spacing="1.176" fill="#FFFFFF">
			<tspan x="11" y="31">
				BONUSES
			</tspan>
		</text>
		<filter x="-2.7%" y="-5.6%" width="112.2%" height="122.2%" filterUnits="objectBoundingBox" id="filter-4">
			<feOffset dx="0" dy="1" in="SourceAlpha" result="shadowOffsetOuter1">
			</feOffset>
			<feGaussianBlur stdDeviation="0.5" in="shadowOffsetOuter1" result="shadowBlurOuter1">
			</feGaussianBlur>
			<feColorMatrix values="0 0 0 0 0   0 0 0 0 0   0 0 0 0 0  0 0 0 0.172339379 0" type="matrix" in="shadowBlurOuter1">
			</feColorMatrix>
		</filter>
		<text id="text-5" font-family="Helvetica" font-size="11" font-weight="normal" letter-spacing="0.88" fill="#FFFFFF">
			<tspan x="11" y="16">
				WIN
			</tspan>
		</text>
		<filter x="-8.3%" y="-7.7%" width="116.7%" height="130.8%" filterUnits="objectBoundingBox" id="filter-6">
			<feOffset dx="0" dy="1" in="SourceAlpha" result="shadowOffsetOuter1">
			</feOffset>
			<feGaussianBlur stdDeviation="0.5" in="shadowOffsetOuter1" result="shadowBlurOuter1">
			</feGaussianBlur>
			<feColorMatrix values="0 0 0 0 0   0 0 0 0 0   0 0 0 0 0  0 0 0 0.172339379 0" type="matrix" in="shadowBlurOuter1">
			</feColorMatrix>
		</filter>
	</defs>
	<g id="UI" stroke="none" stroke-width="1" fill="none" fill-rule="evenodd">
		<g id="Header-States" transform="translate(-787.000000, -27.000000)">
			<g id="header" transform="translate(31.000000, 24.000000)">
				<g id="banner/win-bonuses" transform="translate(756.000000, 3.000000)">
					<g>
						<g id="Group-29">
							<mask id="mask-2" fill="white">
								<use xlink:href="#path-1">
								</use>
							</mask>
							<use id="Mask" fill="#FF9939" xlink:href="#path-1">
							</use>
							<g id="bonus" mask="url(#mask-2)">
								<g transform="translate(93.000000, -6.000000)">
									<circle id="Oval" stroke="none" fill="#FED856" fill-rule="nonzero" cx="9.53333333" cy="20.0416667" r="7.8">
									</circle>
									<path d="M14.0833333,19.6083333 C14.412403,19.6083333 14.6791667,19.875097 14.6791667,20.2041667 C14.6791667,23.0760474 12.3510474,25.4041667 9.47916667,25.4041667 C9.150097,25.4041667 8.88333333,25.137403 8.88333333,24.8083333 C8.88333333,24.4792637 9.150097,24.2125 9.47916667,24.2125 C11.692908,24.2125 13.4875,22.417908 13.4875,20.2041667 C13.4875,19.875097 13.7542637,19.6083333 14.0833333,19.6083333 Z M9.47916667,15.0041667 C9.80823633,15.0041667 10.075,15.2709303 10.075,15.6 C10.075,15.9290697 9.80823633,16.1958333 9.47916667,16.1958333 C7.26542529,16.1958333 5.47083333,17.9904253 5.47083333,20.2041667 C5.47083333,20.5332363 5.20406966,20.8 4.875,20.8 C4.54593034,20.8 4.27916667,20.5332363 4.27916667,20.2041667 C4.27916667,17.332286 6.60728597,15.0041667 9.47916667,15.0041667 Z" id="Shape" stroke="none" fill="#000000" fill-rule="nonzero">
									</path>
									<circle id="Oval" stroke="none" fill="#FED856" fill-rule="nonzero" cx="43.3333333" cy="20.0416667" r="7.8">
									</circle>
									<path d="M47.6666667,19.6083333 C47.9957363,19.6083333 48.2625,19.875097 48.2625,20.2041667 C48.2625,23.0760474 45.9343807,25.4041667 43.0625,25.4041667 C42.7334303,25.4041667 42.4666667,25.137403 42.4666667,24.8083333 C42.4666667,24.4792637 42.7334303,24.2125 43.0625,24.2125 C45.2762414,24.2125 47.0708333,22.417908 47.0708333,20.2041667 C47.0708333,19.875097 47.337597,19.6083333 47.6666667,19.6083333 Z M43.0625,15.0041667 C43.3915697,15.0041667 43.6583333,15.2709303 43.6583333,15.6 C43.6583333,15.9290697 43.3915697,16.1958333 43.0625,16.1958333 C40.8487586,16.1958333 39.0541667,17.9904253 39.0541667,20.2041667 C39.0541667,20.5332363 38.787403,20.8 38.4583333,20.8 C38.1292637,20.8 37.8625,20.5332363 37.8625,20.2041667 C37.8625,17.332286 40.1906193,15.0041667 43.0625,15.0041667 Z" id="Shape" stroke="none" fill="#000000" fill-rule="nonzero">
									</path>
									<circle id="Oval" stroke="none" fill="#FED856" fill-rule="nonzero" cx="26.8666667" cy="8.775" r="7.8">
									</circle>
									<path d="M31.4166667,8.23333333 C31.7457363,8.23333333 32.0125,8.500097 32.0125,8.82916667 C32.0125,11.7010474 29.6843807,14.0291667 26.8125,14.0291667 C26.4834303,14.0291667 26.2166667,13.762403 26.2166667,13.4333333 C26.2166667,13.1042637 26.4834303,12.8375 26.8125,12.8375 C29.0262414,12.8375 30.8208333,11.042908 30.8208333,8.82916667 C30.8208333,8.500097 31.087597,8.23333333 31.4166667,8.23333333 Z M26.8125,3.62916667 C27.1415697,3.62916667 27.4083333,3.89593034 27.4083333,4.225 C27.4083333,4.55406966 27.1415697,4.82083333 26.8125,4.82083333 C24.5987586,4.82083333 22.8041667,6.61542529 22.8041667,8.82916667 C22.8041667,9.15823633 22.537403,9.425 22.2083333,9.425 C21.8792637,9.425 21.6125,9.15823633 21.6125,8.82916667 C21.6125,5.95728597 23.9406193,3.62916667 26.8125,3.62916667 Z" id="Shape" stroke="none" fill="#000000" fill-rule="nonzero">
									</path>
									<rect id="Rectangle" stroke="#000000" stroke-width="2" fill="#C69C6D" fill-rule="nonzero" stroke-linejoin="round" x="16.4666667" y="32.175" width="29.4666667" height="18.2">
									</rect>
									<polygon id="Path" stroke="#000000" stroke-width="2" fill="#A67C52" fill-rule="nonzero" stroke-linejoin="round" points="16.4666667 50.375 5.2 50.375 5.2 37.375 6.06666667 32.175 16.4666667 32.175">
									</polygon>
									<polygon id="Path" stroke="none" fill="#8C6239" fill-rule="nonzero" points="45.9333333 32.175 51.1333333 37.375 21.6666667 37.375 16.4666667 32.175">
									</polygon>
									<polygon id="Path" stroke="none" fill="#8C6239" fill-rule="nonzero" points="6.06666667 32.175 0.866666667 37.375 11.2666667 37.375 16.4666667 32.175">
									</polygon>
									<rect id="Rectangle" stroke="none" fill="#000000" fill-rule="nonzero" x="50.2666667" y="49.5083333" width="1.73333333" height="1.73333333">
									</rect>
									<path d="M0.866634302,20.0416667 C0.866634302,23.5469696 2.97827919,26.7070967 6.21675949,28.0485117 C9.45523979,29.3899266 13.1828861,28.6484664 15.6615333,26.1698667 C17.8669384,23.9836946 18.7341372,20.7846546 17.9347948,17.7839528 C17.1354524,14.783251 14.791749,12.4395476 11.7910472,11.6402052 C8.79034539,10.8408628 5.59130535,11.7080616 3.40513333,13.9134667 C1.77444567,15.5351676 0.860365309,17.7418805 0.866634302,20.0416667 L0.866634302,20.0416667 Z M9.53333333,13.1083073 C12.8410415,13.1084539 15.6880454,15.4450968 16.3332377,18.6892701 C16.9784299,21.9334433 15.2421165,25.1816039 12.1861533,26.4473139 C9.13019005,27.713024 5.60570119,26.6437674 3.7681152,23.8934564 C1.93052921,21.1431453 2.29163687,17.4777759 4.6306,15.1389333 C5.92807551,13.8344695 7.69348469,13.1032774 9.53333333,13.1083073 L9.53333333,13.1083073 Z" id="Shape" stroke="none" fill="#000000" fill-rule="nonzero">
									</path>
									<path d="M43.3333333,11.3749676 C39.1986862,11.3749676 35.6397786,14.2955861 34.8330979,18.350777 C34.0264173,22.4059679 36.1966358,26.466279 40.0165334,28.0485842 C43.8364309,29.6308894 48.2421116,28.2944941 50.5392348,24.8566849 C52.8363581,21.4188758 52.3851423,16.8371317 49.4615333,13.9134667 C47.8398324,12.282779 45.6331195,11.3686986 43.3333333,11.3749676 Z M48.2360667,24.9444 C45.8972241,27.2833631 42.2318547,27.6444708 39.4815436,25.8068848 C36.7312326,23.9692988 35.661976,20.44481 36.9276861,17.3888467 C38.1933961,14.3328835 41.4415567,12.5965701 44.6857299,13.2417623 C47.9299032,13.8869546 50.2665461,16.7339585 50.2666927,20.0416667 C50.2717226,21.8815153 49.5405305,23.6469245 48.2360667,24.9444 L48.2360667,24.9444 Z" id="Shape" stroke="none" fill="#000000" fill-rule="nonzero">
									</path>
									<path d="M35.5333333,8.775 C35.5333333,3.98853217 31.6531345,0.108333333 26.8666667,0.108333333 C22.0801988,0.108333333 18.2,3.98853217 18.2,8.775 C18.2,13.5614678 22.0801988,17.4416667 26.8666667,17.4416667 C31.6509565,17.4364126 35.5280793,13.5592898 35.5333333,8.775 Z M26.8666667,15.7083333 C23.0374924,15.7083333 19.9333333,12.6041743 19.9333333,8.775 C19.9333333,4.94582573 23.0374924,1.84166667 26.8666667,1.84166667 C30.6958409,1.84166667 33.8,4.94582573 33.8,8.775 C33.7957014,12.6023923 30.694059,15.7040348 26.8666667,15.7083333 Z" id="Shape" stroke="none" fill="#000000" fill-rule="nonzero">
									</path>
									<rect id="Rectangle" stroke="none" fill="#000000" fill-rule="nonzero" x="25.1333333" y="19.175" width="1.73333333" height="10.4">
									</rect>
									<path d="M28.6,29.575 L30.3333333,29.575 L30.3333333,26.1083333 C30.3333333,25.1510398 31.1093731,24.375 32.0666667,24.375 L32.0666667,22.6416667 C30.1520795,22.6416667 28.6,24.1937462 28.6,26.1083333 L28.6,29.575 Z" id="Path" stroke="none" fill="#000000" fill-rule="nonzero">
									</path>
									<path d="M23.4,29.575 L23.4,24.375 C23.4,22.4604129 21.8479205,20.9083333 19.9333333,20.9083333 L19.9333333,22.6416667 C20.8906269,22.6416667 21.6666667,23.4177064 21.6666667,24.375 L21.6666667,29.575 L23.4,29.575 Z" id="Path" stroke="none" fill="#000000" fill-rule="nonzero">
									</path>
									<path d="M18.4669333,0.0216666667 C16.0725555,2.3025082 14.7222934,5.46816445 14.7333333,8.775 C14.7333333,9.08873333 14.7451778,9.39986667 14.7688667,9.7084 L16.497,9.57493333 C16.4767778,9.31146667 16.4666667,9.04482222 16.4666667,8.775 C16.4564854,5.94005518 17.6137287,3.2259249 19.6664,1.27053333 L18.4669333,0.0216666667 Z" id="Path" stroke="none" fill="#000000" fill-rule="nonzero">
									</path>
									<rect id="Rectangle" stroke="none" fill="#000000" fill-rule="nonzero" x="1.73333333" y="1.84166667" width="1.73333333" height="1.73333333">
									</rect>
									<rect id="Rectangle" stroke="none" fill="#000000" fill-rule="nonzero" x="3" y="8" width="1.73333333" height="1.73333333" rx="0.866666667">
									</rect>
									<rect id="Rectangle" stroke="none" fill="#000000" fill-rule="nonzero" x="0.866666667" y="29.575" width="1.73333333" height="1.73333333" rx="0.866666667">
									</rect>
									<rect id="Rectangle" stroke="none" fill="#000000" fill-rule="nonzero" x="50.2666667" y="29.575" width="1.73333333" height="1.73333333">
									</rect>
									<rect id="Rectangle" stroke="none" fill="#000000" fill-rule="nonzero" x="38.1333333" y="0.975" width="1.73333333" height="1.73333333">
									</rect>
									<rect id="Rectangle" stroke="none" fill="#000000" fill-rule="nonzero" x="46.8" y="7.04166667" width="1.73333333" height="1.73333333">
									</rect>
									<polygon id="Path-5" stroke="#000000" stroke-width="1.5" fill="none" stroke-linejoin="round" points="6 32 1 37 11 37 16 32 21 37 43 37 43 32 8 32">
									</polygon>
								</g>
							</g>
						</g>
						<circle id="Oval" cx="112.5" cy="20.5" r="12.5">
						</circle>
					</g>
				</g>
			</g>
		</g>
	</g>
</svg>
