<svg width="277" height="261" viewBox="0 0 277 261" fill="none" xmlns="http://www.w3.org/2000/svg">
<g filter="url(#filter0_d_265_14177)">
<path d="M17.9523 147.959C18.3002 147.959 18.5822 147.677 18.5822 147.33C18.5822 146.983 18.3002 146.701 17.9523 146.701C17.6043 146.701 17.3223 146.983 17.3223 147.33C17.3223 147.677 17.6043 147.959 17.9523 147.959Z" fill="white"/>
<path d="M194.496 20.461C195.279 20.461 195.914 19.8277 195.914 19.0464C195.914 18.2652 195.279 17.6318 194.496 17.6318C193.713 17.6318 193.079 18.2652 193.079 19.0464C193.079 19.8277 193.713 20.461 194.496 20.461Z" fill="white"/>
<path d="M217.919 233.541L199.833 202.656L219.574 232.514L217.919 233.541Z" fill="white"/>
<path d="M243.739 12.8878L207.563 52.929L241.798 11.2205L243.739 12.8878Z" fill="white"/>
<path d="M56.7895 17.3991L79.3437 50.3169L55.2613 18.5277L56.7895 17.3991Z" fill="white"/>
<path d="M7.36189 75.4502L51.3496 88.5724L6.85234 77.398L7.36189 75.4502Z" fill="white"/>
<path d="M21.0897 178.209L57.016 166.035L21.987 179.631L21.0897 178.209Z" fill="white"/>
<path d="M10.9251 128.449L58.1059 123.488L11.3068 131.038L10.9251 128.449Z" fill="white"/>
<path d="M135.785 217.041L140.118 219.253L143.09 215.34L142.373 220.241L146.927 221.925L142.151 222.743L141.994 227.696L139.759 223.299L135.108 224.678L138.503 221.143L135.785 217.041Z" fill="white"/>
<path d="M12.5518 115.292L9.27271 117.288L10.5877 120.889L7.67272 118.393L4.64693 120.754L6.12441 117.216L2.93945 115.074L6.76774 115.383L7.82522 111.698L8.71354 115.427L12.5518 115.292Z" fill="white"/>
<path d="M267.371 114.256L270.062 114.133L270.472 111.431L271.419 113.99L274.077 113.552L271.972 115.257L273.204 117.688L270.956 116.182L269.059 118.123L269.776 115.487L267.371 114.256Z" fill="white"/>
<path d="M228.298 174.899L230.315 176.758L232.471 175.074L231.389 177.636L233.602 179.24L230.914 178.965L230.125 181.639L229.548 178.907L226.848 178.957L229.177 177.543L228.298 174.899Z" fill="white"/>
<path d="M139.892 187.286C141.228 187.286 142.312 186.204 142.312 184.87C142.312 183.536 141.228 182.454 139.892 182.454C138.555 182.454 137.471 183.536 137.471 184.87C137.471 186.204 138.555 187.286 139.892 187.286Z" fill="white"/>
<path d="M10.8275 168.364C11.6297 168.364 12.28 167.715 12.28 166.914C12.28 166.114 11.6297 165.465 10.8275 165.465C10.0253 165.465 9.375 166.114 9.375 166.914C9.375 167.715 10.0253 168.364 10.8275 168.364Z" fill="white"/>
<path d="M89.6035 32.9653C90.2718 32.9653 90.8135 32.4247 90.8135 31.7578C90.8135 31.0909 90.2718 30.5503 89.6035 30.5503C88.9353 30.5503 88.3936 31.0909 88.3936 31.7578C88.3936 32.4247 88.9353 32.9653 89.6035 32.9653Z" fill="white"/>
<path d="M260.935 123.99C261.469 123.99 261.903 123.557 261.903 123.023C261.903 122.49 261.469 122.057 260.935 122.057C260.4 122.057 259.966 122.49 259.966 123.023C259.966 123.557 260.4 123.99 260.935 123.99Z" fill="white"/>
<path d="M199.551 249.04C200.328 249.04 200.958 248.411 200.958 247.636C200.958 246.86 200.328 246.231 199.551 246.231C198.774 246.231 198.144 246.86 198.144 247.636C198.144 248.411 198.774 249.04 199.551 249.04Z" fill="white"/>
<path d="M69.6849 190.668C70.4871 190.668 71.1374 190.019 71.1374 189.218C71.1374 188.418 70.4871 187.769 69.6849 187.769C68.8827 187.769 68.2324 188.418 68.2324 189.218C68.2324 190.019 68.8827 190.668 69.6849 190.668Z" fill="white"/>
<path d="M71.3817 113.36C72.0504 113.36 72.5925 112.819 72.5925 112.151C72.5925 111.484 72.0504 110.943 71.3817 110.943C70.713 110.943 70.1709 111.484 70.1709 112.151C70.1709 112.819 70.713 113.36 71.3817 113.36Z" fill="white"/>
<path d="M50.1206 243.294L52.3644 243.448L52.9502 241.176L53.5034 243.457L55.7489 243.339L53.8473 244.594L54.6489 246.793L52.9204 245.287L51.1706 246.764L52.0041 244.579L50.1206 243.294Z" fill="white"/>
<path d="M51.4383 38.0257L48.7868 39.6966L49.9606 42.5375L47.4959 40.6168L45.0621 42.5734L46.191 39.7155L43.5132 38.0836L46.675 38.2378L47.4542 35.2729L48.2797 38.2264L51.4383 38.0257Z" fill="white"/>
<path d="M138.484 19.8894L142.695 21.4462L145.053 17.6316L144.871 22.109L149.235 23.1676L144.911 24.3793L145.251 28.8484L142.76 25.1194L138.606 26.8217L141.39 23.3057L138.484 19.8894Z" fill="white"/>
<path d="M69.6919 250.887L71.6476 252.242L73.4598 250.725L72.6796 252.873L74.7906 254.008L72.3528 253.982L71.8454 256.2L71.1186 254.035L68.6943 254.271L70.6831 252.96L69.6919 250.887Z" fill="white"/>
<path d="M267.353 81.1161C268.422 81.1161 269.289 80.2508 269.289 79.1834C269.289 78.116 268.422 77.2507 267.353 77.2507C266.283 77.2507 265.416 78.116 265.416 79.1834C265.416 80.2508 266.283 81.1161 267.353 81.1161Z" fill="white"/>
<path d="M201.206 36.662C202.275 36.662 203.142 35.7967 203.142 34.7293C203.142 33.6619 202.275 32.7966 201.206 32.7966C200.136 32.7966 199.269 33.6619 199.269 34.7293C199.269 35.7967 200.136 36.662 201.206 36.662Z" fill="white"/>
<path d="M232.162 49.0187C233.231 49.0187 234.098 48.1534 234.098 47.086C234.098 46.0186 233.231 45.1533 232.162 45.1533C231.092 45.1533 230.225 46.0186 230.225 47.086C230.225 48.1534 231.092 49.0187 232.162 49.0187Z" fill="white"/>
<path d="M74.8283 31.5392C76.4327 31.5392 77.7333 30.2413 77.7333 28.6402C77.7333 27.0391 76.4327 25.7412 74.8283 25.7412C73.2239 25.7412 71.9233 27.0391 71.9233 28.6402C71.9233 30.2413 73.2239 31.5392 74.8283 31.5392Z" fill="white"/>
<path d="M7.77053 105.465C8.43879 105.465 8.98052 104.925 8.98052 104.258C8.98052 103.591 8.43879 103.05 7.77053 103.05C7.10228 103.05 6.56055 103.591 6.56055 104.258C6.56055 104.925 7.10228 105.465 7.77053 105.465Z" fill="white"/>
<path d="M56.0556 143.046C57.2591 143.046 58.2347 142.072 58.2347 140.871C58.2347 139.67 57.2591 138.696 56.0556 138.696C54.8521 138.696 53.8765 139.67 53.8765 140.871C53.8765 142.072 54.8521 143.046 56.0556 143.046Z" fill="white"/>
<path d="M61.9992 216.597C63.4701 216.597 64.6625 215.407 64.6625 213.939C64.6625 212.471 63.4701 211.281 61.9992 211.281C60.5283 211.281 59.3359 212.471 59.3359 213.939C59.3359 215.407 60.5283 216.597 61.9992 216.597Z" fill="white"/>
<path d="M269.708 236.89C270.644 236.89 271.402 236.133 271.402 235.199C271.402 234.266 270.644 233.509 269.708 233.509C268.773 233.509 268.014 234.266 268.014 235.199C268.014 236.133 268.773 236.89 269.708 236.89Z" fill="white"/>
<path d="M96.8776 0.219971L114.139 52.54L94.021 1.22382L96.8776 0.219971Z" fill="white"/>
<path d="M36.4001 46.8386L61.4998 66.6451L35.4868 48.0486L36.4001 46.8386Z" fill="white"/>
<path d="M27.6096 105.28L54.2332 106.449L27.584 106.412L27.6096 105.28Z" fill="white"/>
<path d="M29.3103 152.791L59.8471 147.7L29.5575 154.072L29.3103 152.791Z" fill="white"/>
<path d="M36.0503 206.973L62.0674 188.379L36.9628 208.183L36.0503 206.973Z" fill="white"/>
<path d="M104.716 229.52L114.786 203.544L106.146 230.028L104.716 229.52Z" fill="white"/>
<path d="M180.893 227.219L172.254 200.736L182.323 226.711L180.893 227.219Z" fill="white"/>
<path d="M241.255 200.885L216.154 181.078L242.168 199.675L241.255 200.885Z" fill="white"/>
<path d="M260.779 150.441L225.967 142.873L261.071 148.955L260.779 150.441Z" fill="white"/>
<path d="M264.321 102.053L229.099 107.403L264.06 100.561L264.321 102.053Z" fill="white"/>
<path d="M250.261 54.8381L222.346 70.455L249.488 53.535L250.261 54.8381Z" fill="white"/>
<path d="M180.075 20.9481L170.002 46.9227L178.646 20.4399L180.075 20.9481Z" fill="white"/>
<path d="M142.748 63.3493L138.602 61.2852L135.759 64.9352L136.445 60.363L132.087 58.7921L136.657 58.0303L136.808 53.4082L138.946 57.5105L143.396 56.2249L140.148 59.5222L142.748 63.3493Z" fill="white"/>
<path d="M221.782 124.856L223.725 123.674L222.946 121.541L224.673 123.019L226.465 121.62L225.591 123.716L227.476 124.985L225.209 124.802L224.583 126.984L224.056 124.776L221.782 124.856Z" fill="white"/>
<path d="M58.001 95.8163L55.9689 95.9096L55.6587 97.9505L54.9437 96.0177L52.9355 96.3486L54.5259 95.0606L53.5951 93.2243L55.293 94.3617L56.7252 92.8955L56.1846 94.8863L58.001 95.8163Z" fill="white"/>
<path d="M80.9497 216.894L81.4872 212.932L77.6997 211.626L81.6413 210.912L81.7155 206.914L83.6138 210.435L87.4471 209.269L84.6788 212.159L86.9737 215.438L83.3638 213.703L80.9497 216.894Z" fill="white"/>
<path d="M229.759 212.801L226.612 210.251L223.488 212.828L224.945 209.054L221.523 206.885L225.572 207.102L226.581 203.184L227.625 207.093L231.67 206.84L228.268 209.038L229.759 212.801Z" fill="white"/>
<path d="M87.6827 88.5348L85.921 86.9722L84.0394 88.3885L84.9844 86.2338L83.0527 84.884L85.3985 85.1152L86.0869 82.8657L86.5918 85.1635L88.9485 85.1219L86.9144 86.3111L87.6827 88.5348Z" fill="white"/>
<path d="M140.454 84.5282C141.246 84.5282 141.888 83.8874 141.888 83.097C141.888 82.3065 141.246 81.6658 140.454 81.6658C139.662 81.6658 139.02 82.3065 139.02 83.097C139.02 83.8874 139.662 84.5282 140.454 84.5282Z" fill="white"/>
<path d="M217.029 98.2655C217.504 98.2655 217.889 97.8813 217.889 97.4073C217.889 96.9333 217.504 96.5491 217.029 96.5491C216.554 96.5491 216.169 96.9333 216.169 97.4073C216.169 97.8813 216.554 98.2655 217.029 98.2655Z" fill="white"/>
<path d="M251.301 176.686C251.696 176.686 252.017 176.366 252.017 175.971C252.017 175.576 251.696 175.255 251.301 175.255C250.905 175.255 250.584 175.576 250.584 175.971C250.584 176.366 250.905 176.686 251.301 176.686Z" fill="white"/>
<path d="M157.519 181.551C157.915 181.551 158.236 181.231 158.236 180.836C158.236 180.441 157.915 180.121 157.519 180.121C157.124 180.121 156.803 180.441 156.803 180.836C156.803 181.231 157.124 181.551 157.519 181.551Z" fill="white"/>
<path d="M21.3055 229.16C22.1767 229.16 22.883 228.455 22.883 227.585C22.883 226.716 22.1767 226.011 21.3055 226.011C20.4343 226.011 19.728 226.716 19.728 227.585C19.728 228.455 20.4343 229.16 21.3055 229.16Z" fill="white"/>
<path d="M68.7555 120.303C69.0721 120.303 69.3288 120.047 69.3288 119.731C69.3288 119.415 69.0721 119.159 68.7555 119.159C68.4388 119.159 68.1821 119.415 68.1821 119.731C68.1821 120.047 68.4388 120.303 68.7555 120.303Z" fill="white"/>
<path d="M62.0174 48.0375C62.7303 48.0375 63.3082 47.4608 63.3082 46.7493C63.3082 46.0379 62.7303 45.4612 62.0174 45.4612C61.3045 45.4612 60.7266 46.0379 60.7266 46.7493C60.7266 47.4608 61.3045 48.0375 62.0174 48.0375Z" fill="white"/>
<path d="M102.885 61.9181C103.677 61.9181 104.319 61.2773 104.319 60.4869C104.319 59.6964 103.677 59.0557 102.885 59.0557C102.093 59.0557 101.451 59.6964 101.451 60.4869C101.451 61.2773 102.093 61.9181 102.885 61.9181Z" fill="white"/>
<path d="M182.038 81.3795C182.513 81.3795 182.898 80.9953 182.898 80.5213C182.898 80.0473 182.513 79.6631 182.038 79.6631C181.563 79.6631 181.178 80.0473 181.178 80.5213C181.178 80.9953 181.563 81.3795 182.038 81.3795Z" fill="white"/>
<path d="M181.035 126.886C181.431 126.886 181.752 126.566 181.752 126.171C181.752 125.776 181.431 125.456 181.035 125.456C180.639 125.456 180.318 125.776 180.318 126.171C180.318 126.566 180.639 126.886 181.035 126.886Z" fill="white"/>
<path d="M52.4076 73.9384L46.7335 74.6344L46.3002 80.3235L43.8835 75.1533L38.3286 76.5006L42.5086 72.6086L39.5086 67.752L44.5094 70.5179L48.2101 66.1694L47.1202 71.7695L52.4076 73.9384Z" fill="white"/>
<path d="M233.375 86.8177L230.626 86.6372L229.906 89.2934L229.229 86.6272L226.476 86.7653L228.806 85.2983L227.824 82.7278L229.943 84.4875L232.088 82.7602L231.067 85.3158L233.375 86.8177Z" fill="white"/>
<path d="M233.105 159.626L235.992 157.748L234.715 154.555L237.396 156.714L240.045 154.514L238.816 157.727L241.731 159.561L238.29 159.387L237.442 162.721L236.544 159.402L233.105 159.626Z" fill="white"/>
<path d="M144.181 187.705L141.687 186.783L140.291 189.043L140.398 186.391L137.814 185.764L140.375 185.045L140.174 182.399L141.649 184.608L144.109 183.599L142.46 185.681L144.181 187.705Z" fill="white"/>
<path d="M52.9201 184.126L51.6709 181.08L48.4326 181.703L50.9493 179.576L49.3543 176.695L52.1584 178.426L54.4109 176.022L53.6284 179.219L56.6158 180.615L53.3267 180.859L52.9201 184.126Z" fill="white"/>
<path d="M196.953 59.0558L193.596 56.5609L190.484 59.356L191.823 55.3975L188.199 53.3085L192.385 53.3567L193.256 49.271L194.503 53.2586L198.667 52.8228L195.252 55.2395L196.953 59.0558Z" fill="white"/>
<path d="M28.4613 122.88C28.8571 122.88 29.1779 122.559 29.1779 122.164C29.1779 121.769 28.8571 121.449 28.4613 121.449C28.0655 121.449 27.7446 121.769 27.7446 122.164C27.7446 122.559 28.0655 122.88 28.4613 122.88Z" fill="white"/>
<path d="M65.3156 170.389C65.9489 170.389 66.4622 169.876 66.4622 169.244C66.4622 168.612 65.9489 168.1 65.3156 168.1C64.6823 168.1 64.1689 168.612 64.1689 169.244C64.1689 169.876 64.6823 170.389 65.3156 170.389Z" fill="white"/>
<path d="M101.737 178.975C102.37 178.975 102.884 178.463 102.884 177.831C102.884 177.199 102.37 176.687 101.737 176.687C101.104 176.687 100.59 177.199 100.59 177.831C100.59 178.463 101.104 178.975 101.737 178.975Z" fill="white"/>
<path d="M80.8018 188.135C81.4355 188.135 81.9493 187.622 81.9493 186.99C81.9493 186.357 81.4355 185.844 80.8018 185.844C80.168 185.844 79.6543 186.357 79.6543 186.99C79.6543 187.622 80.168 188.135 80.8018 188.135Z" fill="white"/>
<path d="M190.069 181.265C191.019 181.265 191.79 180.497 191.79 179.548C191.79 178.6 191.019 177.831 190.069 177.831C189.119 177.831 188.348 178.6 188.348 179.548C188.348 180.497 189.119 181.265 190.069 181.265Z" fill="white"/>
<path d="M229.791 135.473C230.187 135.473 230.508 135.152 230.508 134.757C230.508 134.362 230.187 134.042 229.791 134.042C229.395 134.042 229.074 134.362 229.074 134.757C229.074 135.152 229.395 135.473 229.791 135.473Z" fill="white"/>
<path d="M236.082 116.652C236.715 116.652 237.229 116.139 237.229 115.507C237.229 114.874 236.715 114.362 236.082 114.362C235.448 114.362 234.934 114.874 234.934 115.507C234.934 116.139 235.448 116.652 236.082 116.652Z" fill="white"/>
<path d="M239.828 66.2111C240.541 66.2111 241.119 65.6344 241.119 64.9229C241.119 64.2115 240.541 63.6348 239.828 63.6348C239.115 63.6348 238.537 64.2115 238.537 64.9229C238.537 65.6344 239.115 66.2111 239.828 66.2111Z" fill="white"/>
<path d="M197.668 71.3628C198.54 71.3628 199.246 70.658 199.246 69.7886C199.246 68.9192 198.54 68.2144 197.668 68.2144C196.797 68.2144 196.091 68.9192 196.091 69.7886C196.091 70.658 196.797 71.3628 197.668 71.3628Z" fill="white"/>
<path d="M74.6352 58.1966C75.1893 58.1966 75.6385 57.7483 75.6385 57.1954C75.6385 56.6424 75.1893 56.1941 74.6352 56.1941C74.081 56.1941 73.6318 56.6424 73.6318 57.1954C73.6318 57.7483 74.081 58.1966 74.6352 58.1966Z" fill="white"/>
</g>
<defs>
<filter id="filter0_d_265_14177" x="0.688155" y="0.219971" width="275.64" height="260.483" filterUnits="userSpaceOnUse" color-interpolation-filters="sRGB">
<feFlood flood-opacity="0" result="BackgroundImageFix"/>
<feColorMatrix in="SourceAlpha" type="matrix" values="0 0 0 0 0 0 0 0 0 0 0 0 0 0 0 0 0 0 127 0" result="hardAlpha"/>
<feOffset dy="2.2513"/>
<feGaussianBlur stdDeviation="1.12565"/>
<feComposite in2="hardAlpha" operator="out"/>
<feColorMatrix type="matrix" values="0 0 0 0 0 0 0 0 0 0 0 0 0 0 0 0 0 0 0.25 0"/>
<feBlend mode="normal" in2="BackgroundImageFix" result="effect1_dropShadow_265_14177"/>
<feBlend mode="normal" in="SourceGraphic" in2="effect1_dropShadow_265_14177" result="shape"/>
</filter>
</defs>
</svg>
