<svg width="25" height="20" viewBox="0 0 25 20" fill="none" xmlns="http://www.w3.org/2000/svg">
<g opacity="0.5">
<mask id="path-1-inside-1" fill="white">
<path fill-rule="evenodd" clip-rule="evenodd" d="M5.58703 0H19.413L25 4.26332V4.29467V5.23511V5.26646L12.5129 20H12.4614L0 5.26646V5.23511V4.29467V4.26332L5.58703 0Z"/>
</mask>
<path fill-rule="evenodd" clip-rule="evenodd" d="M5.58703 0H19.413L25 4.26332V4.29467V5.23511V5.26646L12.5129 20H12.4614L0 5.26646V5.23511V4.29467V4.26332L5.58703 0Z" fill="#15141E"/>
<path d="M19.413 0L20.0196 -0.794982L19.7509 -1H19.413V0ZM5.58703 0V-1H5.24907L4.98039 -0.794983L5.58703 0ZM25 4.26332H26V3.76851L25.6066 3.46834L25 4.26332ZM25 5.26646L25.7629 5.91301L26 5.63322V5.26646H25ZM12.5129 20V21H12.9762L13.2757 20.6466L12.5129 20ZM12.4614 20L11.6979 20.6458L11.9975 21H12.4614V20ZM0 5.26646H-1V5.63264L-0.763526 5.91224L0 5.26646ZM0 4.26332L-0.606632 3.46834L-1 3.76851V4.26332H0ZM19.413 -1H5.58703V1H19.413V-1ZM25.6066 3.46834L20.0196 -0.794982L18.8064 0.794982L24.3934 5.05831L25.6066 3.46834ZM26 4.29467V4.26332H24V4.29467H26ZM26 5.23511V4.29467H24V5.23511H26ZM26 5.26646V5.23511H24V5.26646H26ZM13.2757 20.6466L25.7629 5.91301L24.2371 4.6199L11.75 19.3534L13.2757 20.6466ZM12.4614 21H12.5129V19H12.4614V21ZM-0.763526 5.91224L11.6979 20.6458L13.2249 19.3542L0.763526 4.62068L-0.763526 5.91224ZM-1 5.23511V5.26646H1V5.23511H-1ZM-1 4.29467V5.23511H1V4.29467H-1ZM-1 4.26332V4.29467H1V4.26332H-1ZM4.98039 -0.794983L-0.606632 3.46834L0.606632 5.05831L6.19366 0.794983L4.98039 -0.794983Z" fill="white" mask="url(#path-1-inside-1)"/>
</g>
</svg>
